<?xml version="1.0" encoding="UTF-8" standalone="no"?>
<!DOCTYPE svg PUBLIC "-//W3C//DTD SVG 1.1//EN"
 "http://www.w3.org/Graphics/SVG/1.1/DTD/svg11.dtd">
<!-- Generated by graphviz version 2.43.0 (0)
 -->
<!-- Title: SequencePlayerAudioClock Pages: 1 -->
<svg width="180pt" height="209pt"
 viewBox="0.00 0.00 179.50 209.00" xmlns="http://www.w3.org/2000/svg" xmlns:xlink="http://www.w3.org/1999/xlink">
<g id="graph0" class="graph" transform="scale(1 1) rotate(0) translate(4 205)">
<title>SequencePlayerAudioClock</title>
<polygon fill="white" stroke="transparent" points="-4,4 -4,-205 175.5,-205 175.5,4 -4,4"/>
<!-- Node1 -->
<g id="node1" class="node">
<title>Node1</title>
<g id="a_node1"><a xlink:title=" ">
<polygon fill="#bfbfbf" stroke="black" points="3.5,-0.5 3.5,-19.5 152.5,-19.5 152.5,-0.5 3.5,-0.5"/>
<text text-anchor="middle" x="78" y="-7.5" font-family="Helvetica,sans-Serif" font-size="10.00">SequencePlayerAudioClock</text>
</a>
</g>
</g>
<!-- Node2 -->
<g id="node2" class="node">
<title>Node2</title>
<g id="a_node2"><a xlink:href="../../dd/dcd/classnap_1_1_sequence_player_clock.html" target="_top" xlink:title=" ">
<polygon fill="white" stroke="black" points="17,-57.5 17,-76.5 139,-76.5 139,-57.5 17,-57.5"/>
<text text-anchor="middle" x="78" y="-64.5" font-family="Helvetica,sans-Serif" font-size="10.00">SequencePlayerClock</text>
</a>
</g>
</g>
<!-- Node2&#45;&gt;Node1 -->
<g id="edge1" class="edge">
<title>Node2&#45;&gt;Node1</title>
<path fill="none" stroke="midnightblue" d="M78,-47.12C78,-37.82 78,-27.06 78,-19.71"/>
<polygon fill="midnightblue" stroke="midnightblue" points="74.5,-47.41 78,-57.41 81.5,-47.41 74.5,-47.41"/>
</g>
<!-- Node3 -->
<g id="node3" class="node">
<title>Node3</title>
<g id="a_node3"><a xlink:href="../../d9/dea/classnap_1_1_resource.html" target="_top" xlink:title=" ">
<polygon fill="white" stroke="black" points="0,-124.5 0,-143.5 62,-143.5 62,-124.5 0,-124.5"/>
<text text-anchor="middle" x="31" y="-131.5" font-family="Helvetica,sans-Serif" font-size="10.00">Resource</text>
</a>
</g>
</g>
<!-- Node3&#45;&gt;Node2 -->
<g id="edge2" class="edge">
<title>Node3&#45;&gt;Node2</title>
<path fill="none" stroke="midnightblue" d="M43.36,-115.9C52.49,-103.27 64.55,-86.6 71.76,-76.63"/>
<polygon fill="midnightblue" stroke="midnightblue" points="40.36,-114.08 37.34,-124.23 46.03,-118.18 40.36,-114.08"/>
</g>
<!-- Node4 -->
<g id="node4" class="node">
<title>Node4</title>
<g id="a_node4"><a xlink:href="../../de/d01/classnap_1_1rtti_1_1_object.html" target="_top" xlink:title=" ">
<polygon fill="white" stroke="black" points="7,-181.5 7,-200.5 55,-200.5 55,-181.5 7,-181.5"/>
<text text-anchor="middle" x="31" y="-188.5" font-family="Helvetica,sans-Serif" font-size="10.00">Object</text>
</a>
</g>
</g>
<!-- Node4&#45;&gt;Node3 -->
<g id="edge3" class="edge">
<title>Node4&#45;&gt;Node3</title>
<path fill="none" stroke="midnightblue" d="M31,-171.12C31,-161.82 31,-151.06 31,-143.71"/>
<polygon fill="midnightblue" stroke="midnightblue" points="27.5,-171.41 31,-181.41 34.5,-171.41 27.5,-171.41"/>
</g>
<!-- Node5 -->
<g id="node5" class="node">
<title>Node5</title>
<g id="a_node5"><a xlink:href="../../db/dc3/classnap_1_1_slot.html" target="_top" xlink:title=" ">
<polygon fill="white" stroke="black" points="80.5,-124.5 80.5,-143.5 171.5,-143.5 171.5,-124.5 80.5,-124.5"/>
<text text-anchor="middle" x="126" y="-131.5" font-family="Helvetica,sans-Serif" font-size="10.00">Slot&lt; double &gt;</text>
</a>
</g>
</g>
<!-- Node5&#45;&gt;Node2 -->
<g id="edge4" class="edge">
<title>Node5&#45;&gt;Node2</title>
<path fill="none" stroke="#9a32cd" stroke-dasharray="5,2" d="M113.38,-115.9C104.05,-103.27 91.74,-86.6 84.37,-76.63"/>
<polygon fill="#9a32cd" stroke="#9a32cd" points="110.77,-118.27 119.53,-124.23 116.4,-114.11 110.77,-118.27"/>
<text text-anchor="middle" x="120" y="-98" font-family="Helvetica,sans-Serif" font-size="10.00"> mSlot</text>
</g>
</g>
</svg>
