<?xml version="1.0" encoding="UTF-8" standalone="no"?>
<!DOCTYPE svg PUBLIC "-//W3C//DTD SVG 1.1//EN"
 "http://www.w3.org/Graphics/SVG/1.1/DTD/svg11.dtd">
<!-- Generated by graphviz version 2.43.0 (0)
 -->
<!-- Title: Object Pages: 1 -->
<svg width="446pt" height="1534pt"
 viewBox="0.00 0.00 446.00 1534.00" xmlns="http://www.w3.org/2000/svg" xmlns:xlink="http://www.w3.org/1999/xlink">
<g id="graph0" class="graph" transform="scale(1 1) rotate(0) translate(4 1530)">
<title>Object</title>
<polygon fill="white" stroke="transparent" points="-4,4 -4,-1530 442,-1530 442,4 -4,4"/>
<!-- Node1 -->
<g id="node1" class="node">
<title>Node1</title>
<g id="a_node1"><a xlink:title=" ">
<polygon fill="#bfbfbf" stroke="black" points="0,-418.5 0,-437.5 48,-437.5 48,-418.5 0,-418.5"/>
<text text-anchor="middle" x="24" y="-425.5" font-family="Helvetica,sans-Serif" font-size="10.00">Object</text>
</a>
</g>
</g>
<!-- Node2 -->
<g id="node2" class="node">
<title>Node2</title>
<g id="a_node2"><a xlink:href="../../d9/df2/classnap_1_1_component_instance.html" target="_top" xlink:title=" ">
<polygon fill="white" stroke="black" points="90,-1019.5 90,-1038.5 204,-1038.5 204,-1019.5 90,-1019.5"/>
<text text-anchor="middle" x="147" y="-1026.5" font-family="Helvetica,sans-Serif" font-size="10.00">ComponentInstance</text>
</a>
</g>
</g>
<!-- Node1&#45;&gt;Node2 -->
<g id="edge1" class="edge">
<title>Node1&#45;&gt;Node2</title>
<path fill="none" stroke="midnightblue" d="M29.02,-447.97C48.22,-543.33 130.21,-950.56 144.02,-1019.17"/>
<polygon fill="midnightblue" stroke="midnightblue" points="32.4,-447.04 27,-437.93 25.54,-448.42 32.4,-447.04"/>
</g>
<!-- Node45 -->
<g id="node28" class="node">
<title>Node45</title>
<g id="a_node28"><a xlink:href="../../d2/da9/classnap_1_1_entity_instance.html" target="_top" xlink:title=" ">
<polygon fill="white" stroke="black" points="104,-513.5 104,-532.5 190,-532.5 190,-513.5 104,-513.5"/>
<text text-anchor="middle" x="147" y="-520.5" font-family="Helvetica,sans-Serif" font-size="10.00">EntityInstance</text>
</a>
</g>
</g>
<!-- Node1&#45;&gt;Node45 -->
<g id="edge27" class="edge">
<title>Node1&#45;&gt;Node45</title>
<path fill="none" stroke="midnightblue" d="M35.09,-446.85C45.26,-464.11 62.51,-489.17 84,-504 89.93,-508.09 96.77,-511.33 103.69,-513.87"/>
<polygon fill="midnightblue" stroke="midnightblue" points="37.91,-444.71 29.94,-437.72 31.81,-448.15 37.91,-444.71"/>
</g>
<!-- Node46 -->
<g id="node29" class="node">
<title>Node46</title>
<g id="a_node29"><a xlink:href="../../d8/d81/classnap_1_1_instance_property_value.html" target="_top" xlink:title=" ">
<polygon fill="white" stroke="black" points="84,-475.5 84,-494.5 210,-494.5 210,-475.5 84,-475.5"/>
<text text-anchor="middle" x="147" y="-482.5" font-family="Helvetica,sans-Serif" font-size="10.00">InstancePropertyValue</text>
</a>
</g>
</g>
<!-- Node1&#45;&gt;Node46 -->
<g id="edge28" class="edge">
<title>Node1&#45;&gt;Node46</title>
<path fill="none" stroke="midnightblue" d="M45.95,-443.51C56.88,-451.06 70.71,-459.83 84,-466 91.86,-469.65 100.6,-472.83 108.98,-475.48"/>
<polygon fill="midnightblue" stroke="midnightblue" points="47.71,-440.46 37.53,-437.53 43.66,-446.17 47.71,-440.46"/>
</g>
<!-- Node50 -->
<g id="node33" class="node">
<title>Node50</title>
<g id="a_node33"><a xlink:href="../../d4/dce/classnap_1_1_module_info.html" target="_top" xlink:title=" ">
<polygon fill="white" stroke="black" points="111.5,-437.5 111.5,-456.5 182.5,-456.5 182.5,-437.5 111.5,-437.5"/>
<text text-anchor="middle" x="147" y="-444.5" font-family="Helvetica,sans-Serif" font-size="10.00">ModuleInfo</text>
</a>
</g>
</g>
<!-- Node1&#45;&gt;Node50 -->
<g id="edge32" class="edge">
<title>Node1&#45;&gt;Node50</title>
<path fill="none" stroke="midnightblue" d="M58.28,-433.23C74.7,-435.8 94.5,-438.91 111.13,-441.52"/>
<polygon fill="midnightblue" stroke="midnightblue" points="58.47,-429.71 48.04,-431.62 57.38,-436.63 58.47,-429.71"/>
</g>
<!-- Node51 -->
<g id="node34" class="node">
<title>Node51</title>
<g id="a_node34"><a xlink:href="../../d5/d92/classnap_1_1_path_mapping.html" target="_top" xlink:title=" ">
<polygon fill="white" stroke="black" points="107,-399.5 107,-418.5 187,-418.5 187,-399.5 107,-399.5"/>
<text text-anchor="middle" x="147" y="-406.5" font-family="Helvetica,sans-Serif" font-size="10.00">PathMapping</text>
</a>
</g>
</g>
<!-- Node1&#45;&gt;Node51 -->
<g id="edge33" class="edge">
<title>Node1&#45;&gt;Node51</title>
<path fill="none" stroke="midnightblue" d="M57.97,-422.82C73.07,-420.45 91.07,-417.63 106.85,-415.15"/>
<polygon fill="midnightblue" stroke="midnightblue" points="57.38,-419.37 48.04,-424.38 58.47,-426.29 57.38,-419.37"/>
</g>
<!-- Node52 -->
<g id="node35" class="node">
<title>Node52</title>
<g id="a_node35"><a xlink:href="../../d2/d82/classnap_1_1_project_info.html" target="_top" xlink:title=" ">
<polygon fill="white" stroke="black" points="112.5,-361.5 112.5,-380.5 181.5,-380.5 181.5,-361.5 112.5,-361.5"/>
<text text-anchor="middle" x="147" y="-368.5" font-family="Helvetica,sans-Serif" font-size="10.00">ProjectInfo</text>
</a>
</g>
</g>
<!-- Node1&#45;&gt;Node52 -->
<g id="edge34" class="edge">
<title>Node1&#45;&gt;Node52</title>
<path fill="none" stroke="midnightblue" d="M45.95,-412.49C56.88,-404.94 70.71,-396.17 84,-390 92.88,-385.87 102.89,-382.36 112.23,-379.51"/>
<polygon fill="midnightblue" stroke="midnightblue" points="43.66,-409.83 37.53,-418.47 47.71,-415.54 43.66,-409.83"/>
</g>
<!-- Node53 -->
<g id="node36" class="node">
<title>Node53</title>
<g id="a_node36"><a xlink:href="../../d9/dea/classnap_1_1_resource.html" target="_top" xlink:title=" ">
<polygon fill="white" stroke="red" points="116,-247.5 116,-266.5 178,-266.5 178,-247.5 116,-247.5"/>
<text text-anchor="middle" x="147" y="-254.5" font-family="Helvetica,sans-Serif" font-size="10.00">Resource</text>
</a>
</g>
</g>
<!-- Node1&#45;&gt;Node53 -->
<g id="edge35" class="edge">
<title>Node1&#45;&gt;Node53</title>
<path fill="none" stroke="midnightblue" d="M37.92,-409.73C63.5,-373.59 119.77,-294.07 139.22,-266.58"/>
<polygon fill="midnightblue" stroke="midnightblue" points="34.77,-408.13 31.85,-418.32 40.49,-412.17 34.77,-408.13"/>
</g>
<!-- Node271 -->
<g id="node49" class="node">
<title>Node271</title>
<g id="a_node49"><a xlink:href="../../dd/db7/classnap_1_1_service_configuration.html" target="_top" xlink:title=" ">
<polygon fill="white" stroke="red" points="88,-209.5 88,-228.5 206,-228.5 206,-209.5 88,-209.5"/>
<text text-anchor="middle" x="147" y="-216.5" font-family="Helvetica,sans-Serif" font-size="10.00">ServiceConfiguration</text>
</a>
</g>
</g>
<!-- Node1&#45;&gt;Node271 -->
<g id="edge48" class="edge">
<title>Node1&#45;&gt;Node271</title>
<path fill="none" stroke="midnightblue" d="M25.38,-407.71C27.22,-369.18 36.77,-285.06 84,-238 87.91,-234.11 92.59,-231.01 97.61,-228.54"/>
<polygon fill="midnightblue" stroke="midnightblue" points="21.87,-408 25.02,-418.11 28.86,-408.24 21.87,-408"/>
</g>
<!-- Node3 -->
<g id="node3" class="node">
<title>Node3</title>
<g id="a_node3"><a xlink:href="../../dc/de6/classnap_1_1_a_p_i_component_instance.html" target="_top" xlink:title=" ">
<polygon fill="white" stroke="black" points="277,-1506.5 277,-1525.5 407,-1525.5 407,-1506.5 277,-1506.5"/>
<text text-anchor="middle" x="342" y="-1513.5" font-family="Helvetica,sans-Serif" font-size="10.00">APIComponentInstance</text>
</a>
</g>
</g>
<!-- Node2&#45;&gt;Node3 -->
<g id="edge2" class="edge">
<title>Node2&#45;&gt;Node3</title>
<path fill="none" stroke="midnightblue" d="M149.33,-1049.09C155.12,-1130.22 180.81,-1432.39 246,-1497 254.36,-1505.29 265.26,-1510.46 276.67,-1513.61"/>
<polygon fill="midnightblue" stroke="midnightblue" points="152.8,-1048.52 148.62,-1038.78 145.82,-1049 152.8,-1048.52"/>
</g>
<!-- Node4 -->
<g id="node4" class="node">
<title>Node4</title>
<g id="a_node4"><a xlink:href="../../d5/dd2/classnap_1_1_art_net_input_component_instance.html" target="_top" xlink:title=" ">
<polygon fill="white" stroke="black" points="257,-1468.5 257,-1487.5 427,-1487.5 427,-1468.5 257,-1468.5"/>
<text text-anchor="middle" x="342" y="-1475.5" font-family="Helvetica,sans-Serif" font-size="10.00">ArtNetInputComponentInstance</text>
</a>
</g>
</g>
<!-- Node2&#45;&gt;Node4 -->
<g id="edge3" class="edge">
<title>Node2&#45;&gt;Node4</title>
<path fill="none" stroke="midnightblue" d="M149.72,-1048.92C156.73,-1125.61 185.73,-1400.32 246,-1459 249.86,-1462.75 254.23,-1465.87 258.94,-1468.44"/>
<polygon fill="midnightblue" stroke="midnightblue" points="153.18,-1048.39 148.81,-1038.74 146.21,-1049.01 153.18,-1048.39"/>
</g>
<!-- Node5 -->
<g id="node5" class="node">
<title>Node5</title>
<g id="a_node5"><a xlink:href="../../da/dde/classnap_1_1audio_1_1_audio_component_base_instance.html" target="_top" xlink:title=" ">
<polygon fill="white" stroke="red" points="259,-1430.5 259,-1449.5 425,-1449.5 425,-1430.5 259,-1430.5"/>
<text text-anchor="middle" x="342" y="-1437.5" font-family="Helvetica,sans-Serif" font-size="10.00">AudioComponentBaseInstance</text>
</a>
</g>
</g>
<!-- Node2&#45;&gt;Node5 -->
<g id="edge4" class="edge">
<title>Node2&#45;&gt;Node5</title>
<path fill="none" stroke="midnightblue" d="M150.14,-1048.54C158.41,-1120.35 190.58,-1368.16 246,-1421 249.9,-1424.71 254.3,-1427.8 259.03,-1430.35"/>
<polygon fill="midnightblue" stroke="midnightblue" points="153.62,-1048.13 149.02,-1038.59 146.66,-1048.92 153.62,-1048.13"/>
</g>
<!-- Node10 -->
<g id="node6" class="node">
<title>Node10</title>
<g id="a_node6"><a xlink:href="../../db/d7c/classnap_1_1audio_1_1_level_meter_component_instance.html" target="_top" xlink:title=" ">
<polygon fill="white" stroke="black" points="257.5,-1392.5 257.5,-1411.5 426.5,-1411.5 426.5,-1392.5 257.5,-1392.5"/>
<text text-anchor="middle" x="342" y="-1399.5" font-family="Helvetica,sans-Serif" font-size="10.00">LevelMeterComponentInstance</text>
</a>
</g>
</g>
<!-- Node2&#45;&gt;Node10 -->
<g id="edge5" class="edge">
<title>Node2&#45;&gt;Node10</title>
<path fill="none" stroke="midnightblue" d="M150.74,-1048.79C160.47,-1116.32 195.56,-1336.1 246,-1383 250.06,-1386.78 254.66,-1389.9 259.58,-1392.47"/>
<polygon fill="midnightblue" stroke="midnightblue" points="154.17,-1048.07 149.3,-1038.66 147.24,-1049.05 154.17,-1048.07"/>
</g>
<!-- Node11 -->
<g id="node7" class="node">
<title>Node11</title>
<g id="a_node7"><a xlink:href="../../de/d9c/classnap_1_1audio_1_1_output_component_instance.html" target="_top" xlink:title=" ">
<polygon fill="white" stroke="black" points="268.5,-1354.5 268.5,-1373.5 415.5,-1373.5 415.5,-1354.5 268.5,-1354.5"/>
<text text-anchor="middle" x="342" y="-1361.5" font-family="Helvetica,sans-Serif" font-size="10.00">OutputComponentInstance</text>
</a>
</g>
</g>
<!-- Node2&#45;&gt;Node11 -->
<g id="edge6" class="edge">
<title>Node2&#45;&gt;Node11</title>
<path fill="none" stroke="midnightblue" d="M147.68,-1048.81C147.93,-1104.67 156.79,-1264.56 246,-1345 252.37,-1350.74 259.97,-1354.95 268.06,-1358.01"/>
<polygon fill="midnightblue" stroke="midnightblue" points="151.18,-1048.56 147.73,-1038.54 144.18,-1048.52 151.18,-1048.56"/>
</g>
<!-- Node12 -->
<g id="node8" class="node">
<title>Node12</title>
<g id="a_node8"><a xlink:href="../../d7/df3/classnap_1_1_calendar_component_instance.html" target="_top" xlink:title=" ">
<polygon fill="white" stroke="black" points="263,-1316.5 263,-1335.5 421,-1335.5 421,-1316.5 263,-1316.5"/>
<text text-anchor="middle" x="342" y="-1323.5" font-family="Helvetica,sans-Serif" font-size="10.00">CalendarComponentInstance</text>
</a>
</g>
</g>
<!-- Node2&#45;&gt;Node12 -->
<g id="edge7" class="edge">
<title>Node2&#45;&gt;Node12</title>
<path fill="none" stroke="midnightblue" d="M148.65,-1048.82C151.45,-1100.1 166.4,-1237.94 246,-1307 250.95,-1311.3 256.6,-1314.73 262.62,-1317.45"/>
<polygon fill="midnightblue" stroke="midnightblue" points="152.14,-1048.57 148.19,-1038.74 145.14,-1048.88 152.14,-1048.57"/>
</g>
<!-- Node13 -->
<g id="node9" class="node">
<title>Node13</title>
<g id="a_node9"><a xlink:href="../../d6/df5/classnap_1_1_camera_component_instance.html" target="_top" xlink:title=" ">
<polygon fill="white" stroke="red" points="266,-1278.5 266,-1297.5 418,-1297.5 418,-1278.5 266,-1278.5"/>
<text text-anchor="middle" x="342" y="-1285.5" font-family="Helvetica,sans-Serif" font-size="10.00">CameraComponentInstance</text>
</a>
</g>
</g>
<!-- Node2&#45;&gt;Node13 -->
<g id="edge8" class="edge">
<title>Node2&#45;&gt;Node13</title>
<path fill="none" stroke="midnightblue" d="M149.89,-1048.88C155.43,-1095.28 175.94,-1211.14 246,-1269 251.84,-1273.82 258.56,-1277.53 265.67,-1280.38"/>
<polygon fill="midnightblue" stroke="midnightblue" points="153.34,-1048.22 148.79,-1038.66 146.38,-1048.98 153.34,-1048.22"/>
</g>
<!-- Node16 -->
<g id="node10" class="node">
<title>Node16</title>
<g id="a_node10"><a xlink:href="../../d7/d74/classnap_1_1_camera_controller_instance.html" target="_top" xlink:title=" ">
<polygon fill="white" stroke="black" points="270,-1240.5 270,-1259.5 414,-1259.5 414,-1240.5 270,-1240.5"/>
<text text-anchor="middle" x="342" y="-1247.5" font-family="Helvetica,sans-Serif" font-size="10.00">CameraControllerInstance</text>
</a>
</g>
</g>
<!-- Node2&#45;&gt;Node16 -->
<g id="edge9" class="edge">
<title>Node2&#45;&gt;Node16</title>
<path fill="none" stroke="midnightblue" d="M151.54,-1048.79C159.98,-1089.78 185.27,-1184.04 246,-1231 253.05,-1236.45 261.26,-1240.46 269.83,-1243.39"/>
<polygon fill="midnightblue" stroke="midnightblue" points="154.97,-1048.09 149.63,-1038.94 148.1,-1049.42 154.97,-1048.09"/>
</g>
<!-- Node17 -->
<g id="node11" class="node">
<title>Node17</title>
<g id="a_node11"><a xlink:href="../../dc/df3/classnap_1_1_compute_component_instance.html" target="_top" xlink:title=" ">
<polygon fill="white" stroke="black" points="263,-1202.5 263,-1221.5 421,-1221.5 421,-1202.5 263,-1202.5"/>
<text text-anchor="middle" x="342" y="-1209.5" font-family="Helvetica,sans-Serif" font-size="10.00">ComputeComponentInstance</text>
</a>
</g>
</g>
<!-- Node2&#45;&gt;Node17 -->
<g id="edge10" class="edge">
<title>Node2&#45;&gt;Node17</title>
<path fill="none" stroke="midnightblue" d="M153.85,-1048.62C165.35,-1083.62 194.41,-1156.58 246,-1193 251.36,-1196.78 257.29,-1199.86 263.49,-1202.34"/>
<polygon fill="midnightblue" stroke="midnightblue" points="157.06,-1047.17 150.72,-1038.68 150.38,-1049.27 157.06,-1047.17"/>
</g>
<!-- Node18 -->
<g id="node12" class="node">
<title>Node18</title>
<g id="a_node12"><a xlink:href="../../d6/d02/classnap_1_1_c_v_capture_component_instance.html" target="_top" xlink:title=" ">
<polygon fill="white" stroke="black" points="259,-1164.5 259,-1183.5 425,-1183.5 425,-1164.5 259,-1164.5"/>
<text text-anchor="middle" x="342" y="-1171.5" font-family="Helvetica,sans-Serif" font-size="10.00">CVCaptureComponentInstance</text>
</a>
</g>
</g>
<!-- Node2&#45;&gt;Node18 -->
<g id="edge11" class="edge">
<title>Node2&#45;&gt;Node18</title>
<path fill="none" stroke="midnightblue" d="M157.15,-1048C171.77,-1076.17 203.17,-1128.53 246,-1155 252.3,-1158.89 259.23,-1162.01 266.41,-1164.5"/>
<polygon fill="midnightblue" stroke="midnightblue" points="160.15,-1046.17 152.54,-1038.81 153.9,-1049.31 160.15,-1046.17"/>
</g>
<!-- Node19 -->
<g id="node13" class="node">
<title>Node19</title>
<g id="a_node13"><a xlink:href="../../da/d07/classnap_1_1_c_v_classify_component_instance.html" target="_top" xlink:title=" ">
<polygon fill="white" stroke="black" points="259,-1126.5 259,-1145.5 425,-1145.5 425,-1126.5 259,-1126.5"/>
<text text-anchor="middle" x="342" y="-1133.5" font-family="Helvetica,sans-Serif" font-size="10.00">CVClassifyComponentInstance</text>
</a>
</g>
</g>
<!-- Node2&#45;&gt;Node19 -->
<g id="edge12" class="edge">
<title>Node2&#45;&gt;Node19</title>
<path fill="none" stroke="midnightblue" d="M162.33,-1046.63C179.86,-1066.93 211.48,-1099.7 246,-1117 253.82,-1120.92 262.38,-1124.03 271.06,-1126.5"/>
<polygon fill="midnightblue" stroke="midnightblue" points="164.83,-1044.17 155.72,-1038.77 159.48,-1048.68 164.83,-1044.17"/>
</g>
<!-- Node20 -->
<g id="node14" class="node">
<title>Node20</title>
<g id="a_node14"><a xlink:href="../../d8/d98/classnap_1_1_default_input_router_component_instance.html" target="_top" xlink:title=" ">
<polygon fill="white" stroke="black" points="259,-1077 259,-1107 425,-1107 425,-1077 259,-1077"/>
<text text-anchor="start" x="267" y="-1095" font-family="Helvetica,sans-Serif" font-size="10.00">DefaultInputRouterComponent</text>
<text text-anchor="middle" x="342" y="-1084" font-family="Helvetica,sans-Serif" font-size="10.00">Instance</text>
</a>
</g>
</g>
<!-- Node2&#45;&gt;Node20 -->
<g id="edge13" class="edge">
<title>Node2&#45;&gt;Node20</title>
<path fill="none" stroke="midnightblue" d="M180.08,-1042.49C199.06,-1050.21 223.68,-1059.76 246,-1067 256.79,-1070.5 268.38,-1073.87 279.63,-1076.94"/>
<polygon fill="midnightblue" stroke="midnightblue" points="181.29,-1039.2 170.71,-1038.64 178.63,-1045.68 181.29,-1039.2"/>
</g>
<!-- Node21 -->
<g id="node15" class="node">
<title>Node21</title>
<g id="a_node15"><a xlink:href="../../d7/daf/classnap_1_1_first_person_controller_instance.html" target="_top" xlink:title=" ">
<polygon fill="white" stroke="black" points="262,-1038.5 262,-1057.5 422,-1057.5 422,-1038.5 262,-1038.5"/>
<text text-anchor="middle" x="342" y="-1045.5" font-family="Helvetica,sans-Serif" font-size="10.00">FirstPersonControllerInstance</text>
</a>
</g>
</g>
<!-- Node2&#45;&gt;Node21 -->
<g id="edge14" class="edge">
<title>Node2&#45;&gt;Node21</title>
<path fill="none" stroke="midnightblue" d="M214.45,-1035.54C229.7,-1037.04 246.07,-1038.65 261.81,-1040.2"/>
<polygon fill="midnightblue" stroke="midnightblue" points="214.38,-1032.02 204.08,-1034.52 213.69,-1038.98 214.38,-1032.02"/>
</g>
<!-- Node22 -->
<g id="node16" class="node">
<title>Node22</title>
<g id="a_node16"><a xlink:href="../../dc/da6/classnap_1_1_input_component_instance.html" target="_top" xlink:title=" ">
<polygon fill="white" stroke="red" points="272.5,-1000.5 272.5,-1019.5 411.5,-1019.5 411.5,-1000.5 272.5,-1000.5"/>
<text text-anchor="middle" x="342" y="-1007.5" font-family="Helvetica,sans-Serif" font-size="10.00">InputComponentInstance</text>
</a>
</g>
</g>
<!-- Node2&#45;&gt;Node22 -->
<g id="edge15" class="edge">
<title>Node2&#45;&gt;Node22</title>
<path fill="none" stroke="midnightblue" d="M214.05,-1022.5C232.89,-1020.64 253.46,-1018.62 272.45,-1016.75"/>
<polygon fill="midnightblue" stroke="midnightblue" points="213.69,-1019.02 204.08,-1023.48 214.38,-1025.98 213.69,-1019.02"/>
</g>
<!-- Node26 -->
<g id="node17" class="node">
<title>Node26</title>
<g id="a_node17"><a xlink:href="../../d7/d13/classnap_1_1_midi_input_component_instance.html" target="_top" xlink:title=" ">
<polygon fill="white" stroke="black" points="262,-962.5 262,-981.5 422,-981.5 422,-962.5 262,-962.5"/>
<text text-anchor="middle" x="342" y="-969.5" font-family="Helvetica,sans-Serif" font-size="10.00">MidiInputComponentInstance</text>
</a>
</g>
</g>
<!-- Node2&#45;&gt;Node26 -->
<g id="edge16" class="edge">
<title>Node2&#45;&gt;Node26</title>
<path fill="none" stroke="midnightblue" d="M178.8,-1015.48C197.87,-1007.5 223.03,-997.7 246,-991 258.51,-987.35 272.16,-984.17 285.1,-981.51"/>
<polygon fill="midnightblue" stroke="midnightblue" points="177.27,-1012.33 169.43,-1019.46 180,-1018.77 177.27,-1012.33"/>
</g>
<!-- Node27 -->
<g id="node18" class="node">
<title>Node27</title>
<g id="a_node18"><a xlink:href="../../dd/d4b/classnap_1_1_orbit_controller_instance.html" target="_top" xlink:title=" ">
<polygon fill="white" stroke="black" points="277,-924.5 277,-943.5 407,-943.5 407,-924.5 277,-924.5"/>
<text text-anchor="middle" x="342" y="-931.5" font-family="Helvetica,sans-Serif" font-size="10.00">OrbitControllerInstance</text>
</a>
</g>
</g>
<!-- Node2&#45;&gt;Node27 -->
<g id="edge17" class="edge">
<title>Node2&#45;&gt;Node27</title>
<path fill="none" stroke="midnightblue" d="M164.75,-1011.98C183.06,-994.42 214.07,-967.59 246,-953 255.64,-948.6 266.29,-945.21 276.86,-942.61"/>
<polygon fill="midnightblue" stroke="midnightblue" points="161.96,-1009.82 157.28,-1019.32 166.86,-1014.81 161.96,-1009.82"/>
</g>
<!-- Node28 -->
<g id="node19" class="node">
<title>Node28</title>
<g id="a_node19"><a xlink:href="../../dc/d66/classnap_1_1_ortho_controller_instance.html" target="_top" xlink:title=" ">
<polygon fill="white" stroke="black" points="275.5,-886.5 275.5,-905.5 408.5,-905.5 408.5,-886.5 275.5,-886.5"/>
<text text-anchor="middle" x="342" y="-893.5" font-family="Helvetica,sans-Serif" font-size="10.00">OrthoControllerInstance</text>
</a>
</g>
</g>
<!-- Node2&#45;&gt;Node28 -->
<g id="edge18" class="edge">
<title>Node2&#45;&gt;Node28</title>
<path fill="none" stroke="midnightblue" d="M158.29,-1010.71C173.78,-984.98 205.64,-938.6 246,-915 254.86,-909.82 264.89,-906.03 275.03,-903.26"/>
<polygon fill="midnightblue" stroke="midnightblue" points="155.19,-1009.08 153.17,-1019.47 161.23,-1012.61 155.19,-1009.08"/>
</g>
<!-- Node29 -->
<g id="node20" class="node">
<title>Node29</title>
<g id="a_node20"><a xlink:href="../../db/d52/classnap_1_1_o_s_c_input_component_instance.html" target="_top" xlink:title=" ">
<polygon fill="white" stroke="black" points="262.5,-848.5 262.5,-867.5 421.5,-867.5 421.5,-848.5 262.5,-848.5"/>
<text text-anchor="middle" x="342" y="-855.5" font-family="Helvetica,sans-Serif" font-size="10.00">OSCInputComponentInstance</text>
</a>
</g>
</g>
<!-- Node2&#45;&gt;Node29 -->
<g id="edge19" class="edge">
<title>Node2&#45;&gt;Node29</title>
<path fill="none" stroke="midnightblue" d="M154.79,-1009.44C167.3,-976.46 197.27,-910.18 246,-877 251.56,-873.21 257.7,-870.15 264.11,-867.67"/>
<polygon fill="midnightblue" stroke="midnightblue" points="151.35,-1008.65 151.21,-1019.25 157.93,-1011.05 151.35,-1008.65"/>
</g>
<!-- Node30 -->
<g id="node21" class="node">
<title>Node30</title>
<g id="a_node21"><a xlink:href="../../d6/d8f/classnap_1_1_parameter_blend_component_instance.html" target="_top" xlink:title=" ">
<polygon fill="white" stroke="black" points="246,-810.5 246,-829.5 438,-829.5 438,-810.5 246,-810.5"/>
<text text-anchor="middle" x="342" y="-817.5" font-family="Helvetica,sans-Serif" font-size="10.00">ParameterBlendComponentInstance</text>
</a>
</g>
</g>
<!-- Node2&#45;&gt;Node30 -->
<g id="edge20" class="edge">
<title>Node2&#45;&gt;Node30</title>
<path fill="none" stroke="midnightblue" d="M152.17,-1009.31C161.55,-970.18 188.15,-882.61 246,-839 250.97,-835.25 256.49,-832.19 262.29,-829.7"/>
<polygon fill="midnightblue" stroke="midnightblue" points="148.73,-1008.67 149.93,-1019.2 155.55,-1010.22 148.73,-1008.67"/>
</g>
<!-- Node31 -->
<g id="node22" class="node">
<title>Node31</title>
<g id="a_node22"><a xlink:href="../../db/d0d/classnap_1_1_portal_component_instance.html" target="_top" xlink:title=" ">
<polygon fill="white" stroke="black" points="270.5,-772.5 270.5,-791.5 413.5,-791.5 413.5,-772.5 270.5,-772.5"/>
<text text-anchor="middle" x="342" y="-779.5" font-family="Helvetica,sans-Serif" font-size="10.00">PortalComponentInstance</text>
</a>
</g>
</g>
<!-- Node2&#45;&gt;Node31 -->
<g id="edge21" class="edge">
<title>Node2&#45;&gt;Node31</title>
<path fill="none" stroke="midnightblue" d="M150.35,-1009.2C156.78,-964.49 178.88,-855.41 246,-801 253.06,-795.28 261.36,-791.13 270.08,-788.14"/>
<polygon fill="midnightblue" stroke="midnightblue" points="146.86,-1008.96 149.01,-1019.33 153.8,-1009.88 146.86,-1008.96"/>
</g>
<!-- Node32 -->
<g id="node23" class="node">
<title>Node32</title>
<g id="a_node23"><a xlink:href="../../d0/d33/classnap_1_1_python_script_component_instance.html" target="_top" xlink:title=" ">
<polygon fill="white" stroke="black" points="254,-734.5 254,-753.5 430,-753.5 430,-734.5 254,-734.5"/>
<text text-anchor="middle" x="342" y="-741.5" font-family="Helvetica,sans-Serif" font-size="10.00">PythonScriptComponentInstance</text>
</a>
</g>
</g>
<!-- Node2&#45;&gt;Node32 -->
<g id="edge22" class="edge">
<title>Node2&#45;&gt;Node32</title>
<path fill="none" stroke="midnightblue" d="M148.99,-1009.36C152.6,-959.74 169.32,-828.59 246,-763 250.35,-759.28 255.21,-756.22 260.39,-753.7"/>
<polygon fill="midnightblue" stroke="midnightblue" points="145.49,-1009.21 148.36,-1019.41 152.48,-1009.65 145.49,-1009.21"/>
</g>
<!-- Node33 -->
<g id="node24" class="node">
<title>Node33</title>
<g id="a_node24"><a xlink:href="../../dd/da0/classnap_1_1_renderable_component_instance.html" target="_top" xlink:title=" ">
<polygon fill="white" stroke="red" points="257,-696.5 257,-715.5 427,-715.5 427,-696.5 257,-696.5"/>
<text text-anchor="middle" x="342" y="-703.5" font-family="Helvetica,sans-Serif" font-size="10.00">RenderableComponentInstance</text>
</a>
</g>
</g>
<!-- Node2&#45;&gt;Node33 -->
<g id="edge23" class="edge">
<title>Node2&#45;&gt;Node33</title>
<path fill="none" stroke="midnightblue" d="M147.96,-1009.19C149,-954.75 159.83,-801.83 246,-725 250.14,-721.31 254.8,-718.25 259.76,-715.73"/>
<polygon fill="midnightblue" stroke="midnightblue" points="144.46,-1009.22 147.86,-1019.25 151.46,-1009.28 144.46,-1009.22"/>
</g>
<!-- Node42 -->
<g id="node25" class="node">
<title>Node42</title>
<g id="a_node25"><a xlink:href="../../df/d71/classnap_1_1_rotate_component_instance.html" target="_top" xlink:title=" ">
<polygon fill="white" stroke="black" points="269,-658.5 269,-677.5 415,-677.5 415,-658.5 269,-658.5"/>
<text text-anchor="middle" x="342" y="-665.5" font-family="Helvetica,sans-Serif" font-size="10.00">RotateComponentInstance</text>
</a>
</g>
</g>
<!-- Node2&#45;&gt;Node42 -->
<g id="edge24" class="edge">
<title>Node2&#45;&gt;Node42</title>
<path fill="none" stroke="midnightblue" d="M150.9,-1009.44C161.06,-943.68 197.05,-732.1 246,-687 252.56,-680.96 260.47,-676.61 268.9,-673.5"/>
<polygon fill="midnightblue" stroke="midnightblue" points="147.44,-1008.92 149.4,-1019.33 154.36,-1009.97 147.44,-1008.92"/>
</g>
<!-- Node43 -->
<g id="node26" class="node">
<title>Node43</title>
<g id="a_node26"><a xlink:href="../../d2/d51/classnap_1_1_transform_component_instance.html" target="_top" xlink:title=" ">
<polygon fill="white" stroke="black" points="260.5,-620.5 260.5,-639.5 423.5,-639.5 423.5,-620.5 260.5,-620.5"/>
<text text-anchor="middle" x="342" y="-627.5" font-family="Helvetica,sans-Serif" font-size="10.00">TransformComponentInstance</text>
</a>
</g>
</g>
<!-- Node2&#45;&gt;Node43 -->
<g id="edge25" class="edge">
<title>Node2&#45;&gt;Node43</title>
<path fill="none" stroke="midnightblue" d="M150.34,-1009.16C159.11,-938.39 192.21,-699.91 246,-649 250.28,-644.95 255.16,-641.66 260.4,-638.98"/>
<polygon fill="midnightblue" stroke="midnightblue" points="146.84,-1009.01 149.11,-1019.35 153.79,-1009.85 146.84,-1009.01"/>
</g>
<!-- Node44 -->
<g id="node27" class="node">
<title>Node44</title>
<g id="a_node27"><a xlink:href="../../d4/d37/classnap_1_1_web_socket_component_instance.html" target="_top" xlink:title=" ">
<polygon fill="white" stroke="black" points="258.5,-582.5 258.5,-601.5 425.5,-601.5 425.5,-582.5 258.5,-582.5"/>
<text text-anchor="middle" x="342" y="-589.5" font-family="Helvetica,sans-Serif" font-size="10.00">WebSocketComponentInstance</text>
</a>
</g>
</g>
<!-- Node2&#45;&gt;Node44 -->
<g id="edge26" class="edge">
<title>Node2&#45;&gt;Node44</title>
<path fill="none" stroke="midnightblue" d="M149.85,-1009.14C157.26,-933.9 187.28,-667.82 246,-611 249.87,-607.26 254.25,-604.15 258.97,-601.59"/>
<polygon fill="midnightblue" stroke="midnightblue" points="146.36,-1008.87 148.89,-1019.16 153.33,-1009.54 146.36,-1008.87"/>
</g>
<!-- Node47 -->
<g id="node30" class="node">
<title>Node47</title>
<g id="a_node30"><a xlink:href="../../d4/d7f/classnap_1_1_component_ptr_instance_property_value.html" target="_top" xlink:title=" ">
<polygon fill="white" stroke="black" points="257.5,-533 257.5,-563 426.5,-563 426.5,-533 257.5,-533"/>
<text text-anchor="start" x="265.5" y="-551" font-family="Helvetica,sans-Serif" font-size="10.00">ComponentPtrInstanceProperty</text>
<text text-anchor="middle" x="342" y="-540" font-family="Helvetica,sans-Serif" font-size="10.00">Value</text>
</a>
</g>
</g>
<!-- Node46&#45;&gt;Node47 -->
<g id="edge29" class="edge">
<title>Node46&#45;&gt;Node47</title>
<path fill="none" stroke="midnightblue" d="M192.88,-497.65C198.7,-499.61 204.53,-501.74 210,-504 226.72,-510.9 229.14,-516.43 246,-523 255.46,-526.68 265.65,-530.01 275.72,-532.93"/>
<polygon fill="midnightblue" stroke="midnightblue" points="193.76,-494.26 183.17,-494.52 191.61,-500.92 193.76,-494.26"/>
</g>
<!-- Node48 -->
<g id="node31" class="node">
<title>Node48</title>
<g id="a_node31"><a xlink:href="../../d0/d4b/classnap_1_1_pointer_instance_property_value.html" target="_top" xlink:title=" ">
<polygon fill="white" stroke="black" points="261.5,-494.5 261.5,-513.5 422.5,-513.5 422.5,-494.5 261.5,-494.5"/>
<text text-anchor="middle" x="342" y="-501.5" font-family="Helvetica,sans-Serif" font-size="10.00">PointerInstancePropertyValue</text>
</a>
</g>
</g>
<!-- Node46&#45;&gt;Node48 -->
<g id="edge30" class="edge">
<title>Node46&#45;&gt;Node48</title>
<path fill="none" stroke="midnightblue" d="M220.23,-492.11C233.65,-493.43 247.72,-494.82 261.34,-496.16"/>
<polygon fill="midnightblue" stroke="midnightblue" points="220.42,-488.61 210.13,-491.12 219.74,-495.58 220.42,-488.61"/>
</g>
<!-- Node49 -->
<g id="node32" class="node">
<title>Node49</title>
<g id="a_node32"><a xlink:href="../../d9/dc4/classnap_1_1_typed_instance_property_value.html" target="_top" xlink:title=" ">
<polygon fill="white" stroke="black" points="250.5,-456.5 250.5,-475.5 433.5,-475.5 433.5,-456.5 250.5,-456.5"/>
<text text-anchor="middle" x="342" y="-463.5" font-family="Helvetica,sans-Serif" font-size="10.00">TypedInstancePropertyValue&lt; T &gt;</text>
</a>
</g>
</g>
<!-- Node46&#45;&gt;Node49 -->
<g id="edge31" class="edge">
<title>Node46&#45;&gt;Node49</title>
<path fill="none" stroke="midnightblue" d="M220.18,-477.89C229.97,-476.93 240.12,-475.93 250.18,-474.94"/>
<polygon fill="midnightblue" stroke="midnightblue" points="219.74,-474.42 210.13,-478.88 220.42,-481.39 219.74,-474.42"/>
</g>
<!-- Node54 -->
<g id="node37" class="node">
<title>Node54</title>
<g id="a_node37"><a xlink:href="../../de/d18/classnap_1_1_a_p_i_base_value.html" target="_top" xlink:title=" ">
<polygon fill="white" stroke="red" points="300.5,-418.5 300.5,-437.5 383.5,-437.5 383.5,-418.5 300.5,-418.5"/>
<text text-anchor="middle" x="342" y="-425.5" font-family="Helvetica,sans-Serif" font-size="10.00">APIBaseValue</text>
</a>
</g>
</g>
<!-- Node53&#45;&gt;Node54 -->
<g id="edge36" class="edge">
<title>Node53&#45;&gt;Node54</title>
<path fill="none" stroke="midnightblue" d="M160.04,-275.27C172.59,-294.36 192.8,-325.2 210,-352 226.19,-377.21 221.31,-392.02 246,-409 261.8,-419.87 282.37,-424.82 300.32,-426.98"/>
<polygon fill="midnightblue" stroke="midnightblue" points="162.81,-273.11 154.38,-266.68 156.96,-276.96 162.81,-273.11"/>
</g>
<!-- Node56 -->
<g id="node38" class="node">
<title>Node56</title>
<g id="a_node38"><a xlink:href="../../de/dae/classnap_1_1_a_p_i_message.html" target="_top" xlink:title=" ">
<polygon fill="white" stroke="black" points="304,-380.5 304,-399.5 380,-399.5 380,-380.5 304,-380.5"/>
<text text-anchor="middle" x="342" y="-387.5" font-family="Helvetica,sans-Serif" font-size="10.00">APIMessage</text>
</a>
</g>
</g>
<!-- Node53&#45;&gt;Node56 -->
<g id="edge37" class="edge">
<title>Node53&#45;&gt;Node56</title>
<path fill="none" stroke="midnightblue" d="M158.29,-275.29C173.78,-301.02 205.64,-347.4 246,-371 263.42,-381.19 285.39,-386 303.81,-388.24"/>
<polygon fill="midnightblue" stroke="midnightblue" points="161.23,-273.39 153.17,-266.53 155.19,-276.92 161.23,-273.39"/>
</g>
<!-- Node57 -->
<g id="node39" class="node">
<title>Node57</title>
<g id="a_node39"><a xlink:href="../../d3/d6c/classnap_1_1_a_p_i_signature.html" target="_top" xlink:title=" ">
<polygon fill="white" stroke="black" points="302.5,-342.5 302.5,-361.5 381.5,-361.5 381.5,-342.5 302.5,-342.5"/>
<text text-anchor="middle" x="342" y="-349.5" font-family="Helvetica,sans-Serif" font-size="10.00">APISignature</text>
</a>
</g>
</g>
<!-- Node53&#45;&gt;Node57 -->
<g id="edge38" class="edge">
<title>Node53&#45;&gt;Node57</title>
<path fill="none" stroke="midnightblue" d="M164.75,-274.02C183.06,-291.58 214.07,-318.41 246,-333 263.59,-341.04 284.55,-345.69 302.3,-348.37"/>
<polygon fill="midnightblue" stroke="midnightblue" points="166.86,-271.19 157.28,-266.68 161.96,-276.18 166.86,-271.19"/>
</g>
<!-- Node58 -->
<g id="node40" class="node">
<title>Node58</title>
<g id="a_node40"><a xlink:href="../../df/dac/classnap_1_1audio_1_1_audio_buffer_resource.html" target="_top" xlink:title=" ">
<polygon fill="white" stroke="red" points="282.5,-304.5 282.5,-323.5 401.5,-323.5 401.5,-304.5 282.5,-304.5"/>
<text text-anchor="middle" x="342" y="-311.5" font-family="Helvetica,sans-Serif" font-size="10.00">AudioBufferResource</text>
</a>
</g>
</g>
<!-- Node53&#45;&gt;Node58 -->
<g id="edge39" class="edge">
<title>Node53&#45;&gt;Node58</title>
<path fill="none" stroke="midnightblue" d="M178.8,-270.52C197.87,-278.5 223.03,-288.3 246,-295 258.51,-298.65 272.16,-301.83 285.1,-304.49"/>
<polygon fill="midnightblue" stroke="midnightblue" points="180,-267.23 169.43,-266.54 177.27,-273.67 180,-267.23"/>
</g>
<!-- Node61 -->
<g id="node41" class="node">
<title>Node61</title>
<g id="a_node41"><a xlink:href="../../de/d80/classnap_1_1_base_fill_policy.html" target="_top" xlink:title=" ">
<polygon fill="white" stroke="red" points="300,-266.5 300,-285.5 384,-285.5 384,-266.5 300,-266.5"/>
<text text-anchor="middle" x="342" y="-273.5" font-family="Helvetica,sans-Serif" font-size="10.00">BaseFillPolicy</text>
</a>
</g>
</g>
<!-- Node53&#45;&gt;Node61 -->
<g id="edge40" class="edge">
<title>Node53&#45;&gt;Node61</title>
<path fill="none" stroke="midnightblue" d="M188.29,-260.97C221.02,-264.19 267.01,-268.72 299.95,-271.96"/>
<polygon fill="midnightblue" stroke="midnightblue" points="188.45,-257.47 178.16,-259.97 187.77,-264.43 188.45,-257.47"/>
</g>
<!-- Node65 -->
<g id="node42" class="node">
<title>Node65</title>
<g id="a_node42"><a xlink:href="../../da/d69/classnap_1_1_base_material.html" target="_top" xlink:title=" ">
<polygon fill="white" stroke="red" points="301.5,-228.5 301.5,-247.5 382.5,-247.5 382.5,-228.5 301.5,-228.5"/>
<text text-anchor="middle" x="342" y="-235.5" font-family="Helvetica,sans-Serif" font-size="10.00">BaseMaterial</text>
</a>
</g>
</g>
<!-- Node53&#45;&gt;Node65 -->
<g id="edge41" class="edge">
<title>Node53&#45;&gt;Node65</title>
<path fill="none" stroke="midnightblue" d="M188.42,-253.02C221.62,-249.75 268.38,-245.15 301.36,-241.9"/>
<polygon fill="midnightblue" stroke="midnightblue" points="187.77,-249.57 178.16,-254.03 188.45,-256.53 187.77,-249.57"/>
</g>
<!-- Node68 -->
<g id="node43" class="node">
<title>Node68</title>
<g id="a_node43"><a xlink:href="../../d4/dd0/classnap_1_1_base_shader.html" target="_top" xlink:title=" ">
<polygon fill="white" stroke="red" points="305,-190.5 305,-209.5 379,-209.5 379,-190.5 305,-190.5"/>
<text text-anchor="middle" x="342" y="-197.5" font-family="Helvetica,sans-Serif" font-size="10.00">BaseShader</text>
</a>
</g>
</g>
<!-- Node53&#45;&gt;Node68 -->
<g id="edge42" class="edge">
<title>Node53&#45;&gt;Node68</title>
<path fill="none" stroke="midnightblue" d="M187.71,-246.05C195.2,-243.64 202.91,-240.93 210,-238 226.72,-231.1 228.95,-225.06 246,-219 264.86,-212.3 286.71,-207.72 304.7,-204.74"/>
<polygon fill="midnightblue" stroke="midnightblue" points="186.57,-242.74 178.04,-249.03 188.63,-249.43 186.57,-242.74"/>
</g>
<!-- Node77 -->
<g id="node44" class="node">
<title>Node77</title>
<g id="a_node44"><a xlink:href="../../d7/db2/classnap_1_1_base_vertex_attribute.html" target="_top" xlink:title=" ">
<polygon fill="white" stroke="red" points="284.5,-152.5 284.5,-171.5 399.5,-171.5 399.5,-152.5 284.5,-152.5"/>
<text text-anchor="middle" x="342" y="-159.5" font-family="Helvetica,sans-Serif" font-size="10.00">BaseVertexAttribute</text>
</a>
</g>
</g>
<!-- Node53&#45;&gt;Node77 -->
<g id="edge43" class="edge">
<title>Node53&#45;&gt;Node77</title>
<path fill="none" stroke="midnightblue" d="M187.93,-249.34C195.75,-246.62 203.52,-242.95 210,-238 233.81,-219.81 221.31,-197.98 246,-181 257.23,-173.28 270.86,-168.54 284.25,-165.67"/>
<polygon fill="midnightblue" stroke="midnightblue" points="186.66,-246.06 178.09,-252.3 188.68,-252.77 186.66,-246.06"/>
</g>
<!-- Node80 -->
<g id="node45" class="node">
<title>Node80</title>
<g id="a_node45"><a xlink:href="../../df/dfc/classnap_1_1_bitmap.html" target="_top" xlink:title=" ">
<polygon fill="white" stroke="red" points="316,-114.5 316,-133.5 368,-133.5 368,-114.5 316,-114.5"/>
<text text-anchor="middle" x="342" y="-121.5" font-family="Helvetica,sans-Serif" font-size="10.00">Bitmap</text>
</a>
</g>
</g>
<!-- Node53&#45;&gt;Node80 -->
<g id="edge44" class="edge">
<title>Node53&#45;&gt;Node80</title>
<path fill="none" stroke="midnightblue" d="M188.03,-250.56C196.04,-247.76 203.87,-243.75 210,-238 242.95,-207.12 211.55,-172.19 246,-143 265.38,-126.58 294.95,-122.92 315.94,-122.68"/>
<polygon fill="midnightblue" stroke="midnightblue" points="186.88,-247.24 178.26,-253.4 188.84,-253.96 186.88,-247.24"/>
</g>
<!-- Node82 -->
<g id="node46" class="node">
<title>Node82</title>
<g id="a_node46"><a xlink:href="../../d0/d99/classnap_1_1_buffer_binding.html" target="_top" xlink:title=" ">
<polygon fill="white" stroke="red" points="300.5,-76.5 300.5,-95.5 383.5,-95.5 383.5,-76.5 300.5,-76.5"/>
<text text-anchor="middle" x="342" y="-83.5" font-family="Helvetica,sans-Serif" font-size="10.00">BufferBinding</text>
</a>
</g>
</g>
<!-- Node53&#45;&gt;Node82 -->
<g id="edge45" class="edge">
<title>Node53&#45;&gt;Node82</title>
<path fill="none" stroke="midnightblue" d="M187.74,-251.25C195.98,-248.42 203.98,-244.22 210,-238 252.58,-193.99 201.27,-146.83 246,-105 260.37,-91.56 281.45,-86.43 300.1,-84.83"/>
<polygon fill="midnightblue" stroke="midnightblue" points="186.72,-247.9 178.05,-253.98 188.62,-254.64 186.72,-247.9"/>
</g>
<!-- Node86 -->
<g id="node47" class="node">
<title>Node86</title>
<g id="a_node47"><a xlink:href="../../df/d37/classnap_1_1_calendar_item.html" target="_top" xlink:title=" ">
<polygon fill="white" stroke="red" points="300.5,-38.5 300.5,-57.5 383.5,-57.5 383.5,-38.5 300.5,-38.5"/>
<text text-anchor="middle" x="342" y="-45.5" font-family="Helvetica,sans-Serif" font-size="10.00">CalendarItem</text>
</a>
</g>
</g>
<!-- Node53&#45;&gt;Node86 -->
<g id="edge46" class="edge">
<title>Node53&#45;&gt;Node86</title>
<path fill="none" stroke="midnightblue" d="M188,-251.5C196.23,-248.66 204.16,-244.39 210,-238 262.4,-180.67 190.81,-121.64 246,-67 260.1,-53.04 281.39,-47.91 300.24,-46.44"/>
<polygon fill="midnightblue" stroke="midnightblue" points="186.98,-248.15 178.3,-254.22 188.88,-254.89 186.98,-248.15"/>
</g>
<!-- Node92 -->
<g id="node48" class="node">
<title>Node92</title>
<g id="a_node48"><a xlink:href="../../db/d6b/classnap_1_1_component.html" target="_top" xlink:title=" ">
<polygon fill="white" stroke="red" points="305.5,-0.5 305.5,-19.5 378.5,-19.5 378.5,-0.5 305.5,-0.5"/>
<text text-anchor="middle" x="342" y="-7.5" font-family="Helvetica,sans-Serif" font-size="10.00">Component</text>
</a>
</g>
</g>
<!-- Node53&#45;&gt;Node92 -->
<g id="edge47" class="edge">
<title>Node53&#45;&gt;Node92</title>
<path fill="none" stroke="midnightblue" d="M187.94,-251.73C196.25,-248.89 204.22,-244.56 210,-238 272.29,-167.26 180.25,-96.54 246,-29 261.14,-13.45 285.14,-8.75 305.23,-7.91"/>
<polygon fill="midnightblue" stroke="midnightblue" points="186.86,-248.4 178.15,-254.44 188.72,-255.15 186.86,-248.4"/>
</g>
</g>
</svg>
