<?xml version="1.0" encoding="UTF-8" standalone="no"?>
<!DOCTYPE svg PUBLIC "-//W3C//DTD SVG 1.1//EN"
 "http://www.w3.org/Graphics/SVG/1.1/DTD/svg11.dtd">
<!-- Generated by graphviz version 2.48.0 (20210717.1556)
 -->
<!-- Title: Object Pages: 1 -->
<svg width="413pt" height="1534pt"
 viewBox="0.00 0.00 413.00 1534.00" xmlns="http://www.w3.org/2000/svg" xmlns:xlink="http://www.w3.org/1999/xlink">
<g id="graph0" class="graph" transform="scale(1 1) rotate(0) translate(4 1530)">
<title>Object</title>
<polygon fill="white" stroke="transparent" points="-4,4 -4,-1530 409,-1530 409,4 -4,4"/>
<!-- Node0 -->
<g id="node1" class="node">
<title>Node0</title>
<polygon fill="#bfbfbf" stroke="black" points="0,-418.5 0,-437.5 45,-437.5 45,-418.5 0,-418.5"/>
<text text-anchor="middle" x="22.5" y="-425.5" font-family="Helvetica,sans-Serif" font-size="10.00">Object</text>
</g>
<!-- Node1 -->
<g id="node2" class="node">
<title>Node1</title>
<g id="a_node2"><a xlink:href="../../d9/df2/classnap_1_1_component_instance.html" target="_top" xlink:title="ComponentInstance">
<polygon fill="white" stroke="black" points="87,-1019.5 87,-1038.5 190,-1038.5 190,-1019.5 87,-1019.5"/>
<text text-anchor="middle" x="138.5" y="-1026.5" font-family="Helvetica,sans-Serif" font-size="10.00">ComponentInstance</text>
</a>
</g>
</g>
<!-- Node0&#45;&gt;Node1 -->
<g id="edge1" class="edge">
<title>Node0&#45;&gt;Node1</title>
<path fill="none" stroke="midnightblue" d="M27.29,-447.97C45.38,-543.33 122.62,-950.56 135.64,-1019.17"/>
<polygon fill="midnightblue" stroke="midnightblue" points="30.69,-447.1 25.38,-437.93 23.81,-448.41 30.69,-447.1"/>
</g>
<!-- Node44 -->
<g id="node28" class="node">
<title>Node44</title>
<g id="a_node28"><a xlink:href="../../d2/da9/classnap_1_1_entity_instance.html" target="_top" xlink:title="EntityInstance">
<polygon fill="white" stroke="black" points="99,-513.5 99,-532.5 178,-532.5 178,-513.5 99,-513.5"/>
<text text-anchor="middle" x="138.5" y="-520.5" font-family="Helvetica,sans-Serif" font-size="10.00">EntityInstance</text>
</a>
</g>
</g>
<!-- Node0&#45;&gt;Node44 -->
<g id="edge27" class="edge">
<title>Node0&#45;&gt;Node44</title>
<path fill="none" stroke="midnightblue" d="M33.32,-446.72C43.21,-463.9 60.01,-488.89 81,-504 86.38,-507.87 92.6,-510.99 98.9,-513.5"/>
<polygon fill="midnightblue" stroke="midnightblue" points="36.2,-444.71 28.31,-437.65 30.07,-448.1 36.2,-444.71"/>
</g>
<!-- Node45 -->
<g id="node29" class="node">
<title>Node45</title>
<g id="a_node29"><a xlink:href="../../d8/d81/classnap_1_1_instance_property_value.html" target="_top" xlink:title="InstancePropertyValue">
<polygon fill="white" stroke="black" points="81,-475.5 81,-494.5 196,-494.5 196,-475.5 81,-475.5"/>
<text text-anchor="middle" x="138.5" y="-482.5" font-family="Helvetica,sans-Serif" font-size="10.00">InstancePropertyValue</text>
</a>
</g>
</g>
<!-- Node0&#45;&gt;Node45 -->
<g id="edge28" class="edge">
<title>Node0&#45;&gt;Node45</title>
<path fill="none" stroke="midnightblue" d="M44.35,-443.68C54.94,-451.14 68.23,-459.77 81,-466 88.35,-469.59 96.54,-472.77 104.36,-475.46"/>
<polygon fill="midnightblue" stroke="midnightblue" points="46.32,-440.79 36.17,-437.77 42.22,-446.46 46.32,-440.79"/>
</g>
<!-- Node49 -->
<g id="node33" class="node">
<title>Node49</title>
<g id="a_node33"><a xlink:href="../../d4/dce/classnap_1_1_module_info.html" target="_top" xlink:title="ModuleInfo">
<polygon fill="white" stroke="black" points="107,-437.5 107,-456.5 170,-456.5 170,-437.5 107,-437.5"/>
<text text-anchor="middle" x="138.5" y="-444.5" font-family="Helvetica,sans-Serif" font-size="10.00">ModuleInfo</text>
</a>
</g>
</g>
<!-- Node0&#45;&gt;Node49 -->
<g id="edge32" class="edge">
<title>Node0&#45;&gt;Node49</title>
<path fill="none" stroke="midnightblue" d="M55.24,-433.29C71.36,-435.98 90.86,-439.23 106.83,-441.89"/>
<polygon fill="midnightblue" stroke="midnightblue" points="55.65,-429.81 45.21,-431.62 54.5,-436.71 55.65,-429.81"/>
</g>
<!-- Node50 -->
<g id="node34" class="node">
<title>Node50</title>
<g id="a_node34"><a xlink:href="../../d5/d92/classnap_1_1_path_mapping.html" target="_top" xlink:title="PathMapping">
<polygon fill="white" stroke="black" points="101.5,-399.5 101.5,-418.5 175.5,-418.5 175.5,-399.5 101.5,-399.5"/>
<text text-anchor="middle" x="138.5" y="-406.5" font-family="Helvetica,sans-Serif" font-size="10.00">PathMapping</text>
</a>
</g>
</g>
<!-- Node0&#45;&gt;Node50 -->
<g id="edge33" class="edge">
<title>Node0&#45;&gt;Node50</title>
<path fill="none" stroke="midnightblue" d="M55.47,-422.67C69.65,-420.31 86.41,-417.52 101.07,-415.07"/>
<polygon fill="midnightblue" stroke="midnightblue" points="54.5,-419.29 45.21,-424.38 55.65,-426.19 54.5,-419.29"/>
</g>
<!-- Node51 -->
<g id="node35" class="node">
<title>Node51</title>
<g id="a_node35"><a xlink:href="../../d2/d82/classnap_1_1_project_info.html" target="_top" xlink:title="ProjectInfo">
<polygon fill="white" stroke="black" points="107.5,-361.5 107.5,-380.5 169.5,-380.5 169.5,-361.5 107.5,-361.5"/>
<text text-anchor="middle" x="138.5" y="-368.5" font-family="Helvetica,sans-Serif" font-size="10.00">ProjectInfo</text>
</a>
</g>
</g>
<!-- Node0&#45;&gt;Node51 -->
<g id="edge34" class="edge">
<title>Node0&#45;&gt;Node51</title>
<path fill="none" stroke="midnightblue" d="M44.35,-412.32C54.94,-404.86 68.23,-396.23 81,-390 89.28,-385.96 98.63,-382.43 107.3,-379.55"/>
<polygon fill="midnightblue" stroke="midnightblue" points="42.22,-409.54 36.17,-418.23 46.32,-415.21 42.22,-409.54"/>
</g>
<!-- Node52 -->
<g id="node36" class="node">
<title>Node52</title>
<g id="a_node36"><a xlink:href="../../d9/dea/classnap_1_1_resource.html" target="_top" xlink:title="Resource">
<polygon fill="white" stroke="red" points="109.5,-247.5 109.5,-266.5 167.5,-266.5 167.5,-247.5 109.5,-247.5"/>
<text text-anchor="middle" x="138.5" y="-254.5" font-family="Helvetica,sans-Serif" font-size="10.00">Resource</text>
</a>
</g>
</g>
<!-- Node0&#45;&gt;Node52 -->
<g id="edge35" class="edge">
<title>Node0&#45;&gt;Node52</title>
<path fill="none" stroke="midnightblue" d="M35.68,-409.73C59.77,-373.59 112.78,-294.07 131.12,-266.58"/>
<polygon fill="midnightblue" stroke="midnightblue" points="32.59,-408.05 29.96,-418.32 38.41,-411.94 32.59,-408.05"/>
</g>
<!-- Node269 -->
<g id="node49" class="node">
<title>Node269</title>
<g id="a_node49"><a xlink:href="../../dd/db7/classnap_1_1_service_configuration.html" target="_top" xlink:title="ServiceConfiguration">
<polygon fill="white" stroke="red" points="86.5,-209.5 86.5,-228.5 190.5,-228.5 190.5,-209.5 86.5,-209.5"/>
<text text-anchor="middle" x="138.5" y="-216.5" font-family="Helvetica,sans-Serif" font-size="10.00">ServiceConfiguration</text>
</a>
</g>
</g>
<!-- Node0&#45;&gt;Node269 -->
<g id="edge48" class="edge">
<title>Node0&#45;&gt;Node269</title>
<path fill="none" stroke="midnightblue" d="M23.82,-407.84C25.52,-369.52 34.68,-285.75 81,-238 84.75,-234.14 89.3,-231.06 94.18,-228.61"/>
<polygon fill="midnightblue" stroke="midnightblue" points="20.31,-408.07 23.5,-418.18 27.31,-408.29 20.31,-408.07"/>
</g>
<!-- Node2 -->
<g id="node3" class="node">
<title>Node2</title>
<g id="a_node3"><a xlink:href="../../dc/de6/classnap_1_1_a_p_i_component_instance.html" target="_top" xlink:title="APIComponentInstance">
<polygon fill="white" stroke="black" points="259,-1506.5 259,-1525.5 378,-1525.5 378,-1506.5 259,-1506.5"/>
<text text-anchor="middle" x="318.5" y="-1513.5" font-family="Helvetica,sans-Serif" font-size="10.00">APIComponentInstance</text>
</a>
</g>
</g>
<!-- Node1&#45;&gt;Node2 -->
<g id="edge2" class="edge">
<title>Node1&#45;&gt;Node2</title>
<path fill="none" stroke="midnightblue" d="M140.62,-1049.04C145.55,-1129.98 168.02,-1431.49 232,-1497 239.22,-1504.4 248.64,-1509.2 258.58,-1512.28"/>
<polygon fill="midnightblue" stroke="midnightblue" points="144.1,-1048.53 140.02,-1038.76 137.11,-1048.94 144.1,-1048.53"/>
</g>
<!-- Node3 -->
<g id="node4" class="node">
<title>Node3</title>
<g id="a_node4"><a xlink:href="../../d5/dd2/classnap_1_1_art_net_input_component_instance.html" target="_top" xlink:title="ArtNetInputComponentInstance">
<polygon fill="white" stroke="black" points="242.5,-1468.5 242.5,-1487.5 394.5,-1487.5 394.5,-1468.5 242.5,-1468.5"/>
<text text-anchor="middle" x="318.5" y="-1475.5" font-family="Helvetica,sans-Serif" font-size="10.00">ArtNetInputComponentInstance</text>
</a>
</g>
</g>
<!-- Node1&#45;&gt;Node3 -->
<g id="edge3" class="edge">
<title>Node1&#45;&gt;Node3</title>
<path fill="none" stroke="midnightblue" d="M140.98,-1048.87C147.1,-1125.37 172.88,-1399.48 232,-1459 235.75,-1462.78 240.07,-1465.87 244.74,-1468.41"/>
<polygon fill="midnightblue" stroke="midnightblue" points="144.46,-1048.41 140.2,-1038.71 137.48,-1048.95 144.46,-1048.41"/>
</g>
<!-- Node4 -->
<g id="node5" class="node">
<title>Node4</title>
<g id="a_node5"><a xlink:href="../../da/dde/classnap_1_1audio_1_1_audio_component_base_instance.html" target="_top" xlink:title="AudioComponentBaseInstance">
<polygon fill="white" stroke="red" points="243.5,-1430.5 243.5,-1449.5 393.5,-1449.5 393.5,-1430.5 243.5,-1430.5"/>
<text text-anchor="middle" x="318.5" y="-1437.5" font-family="Helvetica,sans-Serif" font-size="10.00">AudioComponentBaseInstance</text>
</a>
</g>
</g>
<!-- Node1&#45;&gt;Node4 -->
<g id="edge4" class="edge">
<title>Node1&#45;&gt;Node4</title>
<path fill="none" stroke="midnightblue" d="M141.44,-1048.94C148.85,-1121.13 177.79,-1367.49 232,-1421 235.79,-1424.74 240.14,-1427.81 244.83,-1430.33"/>
<polygon fill="midnightblue" stroke="midnightblue" points="144.88,-1048.16 140.4,-1038.56 137.91,-1048.86 144.88,-1048.16"/>
</g>
<!-- Node9 -->
<g id="node6" class="node">
<title>Node9</title>
<g id="a_node6"><a xlink:href="../../db/d7c/classnap_1_1audio_1_1_level_meter_component_instance.html" target="_top" xlink:title="LevelMeterComponentInstance">
<polygon fill="white" stroke="black" points="244,-1392.5 244,-1411.5 393,-1411.5 393,-1392.5 244,-1392.5"/>
<text text-anchor="middle" x="318.5" y="-1399.5" font-family="Helvetica,sans-Serif" font-size="10.00">LevelMeterComponentInstance</text>
</a>
</g>
</g>
<!-- Node1&#45;&gt;Node9 -->
<g id="edge5" class="edge">
<title>Node1&#45;&gt;Node9</title>
<path fill="none" stroke="midnightblue" d="M141.95,-1048.74C150.71,-1116.1 182.6,-1335.39 232,-1383 235.94,-1386.8 240.47,-1389.9 245.33,-1392.44"/>
<polygon fill="midnightblue" stroke="midnightblue" points="145.4,-1048.11 140.66,-1038.63 138.46,-1049 145.4,-1048.11"/>
</g>
<!-- Node10 -->
<g id="node7" class="node">
<title>Node10</title>
<g id="a_node7"><a xlink:href="../../de/d9c/classnap_1_1audio_1_1_output_component_instance.html" target="_top" xlink:title="OutputComponentInstance">
<polygon fill="white" stroke="black" points="252.5,-1354.5 252.5,-1373.5 384.5,-1373.5 384.5,-1354.5 252.5,-1354.5"/>
<text text-anchor="middle" x="318.5" y="-1361.5" font-family="Helvetica,sans-Serif" font-size="10.00">OutputComponentInstance</text>
</a>
</g>
</g>
<!-- Node1&#45;&gt;Node10 -->
<g id="edge6" class="edge">
<title>Node1&#45;&gt;Node10</title>
<path fill="none" stroke="midnightblue" d="M138.89,-1049.06C138.34,-1104.92 144.92,-1263.49 232,-1345 237.77,-1350.4 244.73,-1354.4 252.15,-1357.33"/>
<polygon fill="midnightblue" stroke="midnightblue" points="142.39,-1048.83 139.08,-1038.76 135.39,-1048.7 142.39,-1048.83"/>
</g>
<!-- Node11 -->
<g id="node8" class="node">
<title>Node11</title>
<g id="a_node8"><a xlink:href="../../d7/df3/classnap_1_1_calendar_component_instance.html" target="_top" xlink:title="CalendarComponentInstance">
<polygon fill="white" stroke="black" points="248,-1316.5 248,-1335.5 389,-1335.5 389,-1316.5 248,-1316.5"/>
<text text-anchor="middle" x="318.5" y="-1323.5" font-family="Helvetica,sans-Serif" font-size="10.00">CalendarComponentInstance</text>
</a>
</g>
</g>
<!-- Node1&#45;&gt;Node11 -->
<g id="edge7" class="edge">
<title>Node1&#45;&gt;Node11</title>
<path fill="none" stroke="midnightblue" d="M139.81,-1048.69C141.73,-1099.67 154.24,-1236.83 232,-1307 236.63,-1311.18 241.97,-1314.5 247.67,-1317.14"/>
<polygon fill="midnightblue" stroke="midnightblue" points="143.3,-1048.57 139.53,-1038.67 136.31,-1048.77 143.3,-1048.57"/>
</g>
<!-- Node12 -->
<g id="node9" class="node">
<title>Node12</title>
<g id="a_node9"><a xlink:href="../../d6/df5/classnap_1_1_camera_component_instance.html" target="_top" xlink:title="CameraComponentInstance">
<polygon fill="white" stroke="red" points="250,-1278.5 250,-1297.5 387,-1297.5 387,-1278.5 250,-1278.5"/>
<text text-anchor="middle" x="318.5" y="-1285.5" font-family="Helvetica,sans-Serif" font-size="10.00">CameraComponentInstance</text>
</a>
</g>
</g>
<!-- Node1&#45;&gt;Node12 -->
<g id="edge8" class="edge">
<title>Node1&#45;&gt;Node12</title>
<path fill="none" stroke="midnightblue" d="M140.99,-1048.75C145.59,-1094.87 163.68,-1210.18 232,-1269 237.3,-1273.56 243.46,-1277.1 249.99,-1279.83"/>
<polygon fill="midnightblue" stroke="midnightblue" points="144.46,-1048.24 140.09,-1038.59 137.49,-1048.86 144.46,-1048.24"/>
</g>
<!-- Node15 -->
<g id="node10" class="node">
<title>Node15</title>
<g id="a_node10"><a xlink:href="../../d7/d74/classnap_1_1_camera_controller_instance.html" target="_top" xlink:title="CameraControllerInstance">
<polygon fill="white" stroke="black" points="254.5,-1240.5 254.5,-1259.5 382.5,-1259.5 382.5,-1240.5 254.5,-1240.5"/>
<text text-anchor="middle" x="318.5" y="-1247.5" font-family="Helvetica,sans-Serif" font-size="10.00">CameraControllerInstance</text>
</a>
</g>
</g>
<!-- Node1&#45;&gt;Node15 -->
<g id="edge9" class="edge">
<title>Node1&#45;&gt;Node15</title>
<path fill="none" stroke="midnightblue" d="M142.61,-1048.93C150.1,-1089.81 173.06,-1183.33 232,-1231 238.5,-1236.26 246.16,-1240.14 254.17,-1242.98"/>
<polygon fill="midnightblue" stroke="midnightblue" points="146.03,-1048.14 140.9,-1038.87 139.13,-1049.32 146.03,-1048.14"/>
</g>
<!-- Node16 -->
<g id="node11" class="node">
<title>Node16</title>
<g id="a_node11"><a xlink:href="../../dc/df3/classnap_1_1_compute_component_instance.html" target="_top" xlink:title="ComputeComponentInstance">
<polygon fill="white" stroke="black" points="247.5,-1202.5 247.5,-1221.5 389.5,-1221.5 389.5,-1202.5 247.5,-1202.5"/>
<text text-anchor="middle" x="318.5" y="-1209.5" font-family="Helvetica,sans-Serif" font-size="10.00">ComputeComponentInstance</text>
</a>
</g>
</g>
<!-- Node1&#45;&gt;Node16 -->
<g id="edge10" class="edge">
<title>Node1&#45;&gt;Node16</title>
<path fill="none" stroke="midnightblue" d="M144.76,-1048.49C155.21,-1083.29 182,-1155.93 232,-1193 237.13,-1196.8 242.88,-1199.87 248.9,-1202.34"/>
<polygon fill="midnightblue" stroke="midnightblue" points="148.05,-1047.26 141.93,-1038.61 141.32,-1049.19 148.05,-1047.26"/>
</g>
<!-- Node17 -->
<g id="node12" class="node">
<title>Node17</title>
<g id="a_node12"><a xlink:href="../../d6/d02/classnap_1_1_c_v_capture_component_instance.html" target="_top" xlink:title="CVCaptureComponentInstance">
<polygon fill="white" stroke="black" points="243.5,-1164.5 243.5,-1183.5 393.5,-1183.5 393.5,-1164.5 243.5,-1164.5"/>
<text text-anchor="middle" x="318.5" y="-1171.5" font-family="Helvetica,sans-Serif" font-size="10.00">CVCaptureComponentInstance</text>
</a>
</g>
</g>
<!-- Node1&#45;&gt;Node17 -->
<g id="edge11" class="edge">
<title>Node1&#45;&gt;Node17</title>
<path fill="none" stroke="midnightblue" d="M147.92,-1047.88C161.43,-1075.89 190.71,-1128.06 232,-1155 237.99,-1158.91 244.65,-1162.02 251.56,-1164.49"/>
<polygon fill="midnightblue" stroke="midnightblue" points="151.06,-1046.32 143.66,-1038.74 144.71,-1049.28 151.06,-1046.32"/>
</g>
<!-- Node18 -->
<g id="node13" class="node">
<title>Node18</title>
<g id="a_node13"><a xlink:href="../../da/d07/classnap_1_1_c_v_classify_component_instance.html" target="_top" xlink:title="CVClassifyComponentInstance">
<polygon fill="white" stroke="black" points="243,-1126.5 243,-1145.5 394,-1145.5 394,-1126.5 243,-1126.5"/>
<text text-anchor="middle" x="318.5" y="-1133.5" font-family="Helvetica,sans-Serif" font-size="10.00">CVClassifyComponentInstance</text>
</a>
</g>
</g>
<!-- Node1&#45;&gt;Node18 -->
<g id="edge12" class="edge">
<title>Node1&#45;&gt;Node18</title>
<path fill="none" stroke="midnightblue" d="M153.09,-1046.8C169.53,-1067.02 199.11,-1099.48 232,-1117 239.25,-1120.86 247.24,-1123.94 255.34,-1126.39"/>
<polygon fill="midnightblue" stroke="midnightblue" points="155.64,-1044.38 146.69,-1038.71 150.15,-1048.72 155.64,-1044.38"/>
</g>
<!-- Node19 -->
<g id="node14" class="node">
<title>Node19</title>
<g id="a_node14"><a xlink:href="../../d8/d98/classnap_1_1_default_input_router_component_instance.html" target="_top" xlink:title="DefaultInputRouterComponent\lInstance">
<polygon fill="white" stroke="black" points="245.5,-1077 245.5,-1107 391.5,-1107 391.5,-1077 245.5,-1077"/>
<text text-anchor="start" x="253.5" y="-1095" font-family="Helvetica,sans-Serif" font-size="10.00">DefaultInputRouterComponent</text>
<text text-anchor="middle" x="318.5" y="-1084" font-family="Helvetica,sans-Serif" font-size="10.00">Instance</text>
</a>
</g>
</g>
<!-- Node1&#45;&gt;Node19 -->
<g id="edge13" class="edge">
<title>Node1&#45;&gt;Node19</title>
<path fill="none" stroke="midnightblue" d="M170.27,-1042.59C188.12,-1050.24 211.13,-1059.68 232,-1067 241.92,-1070.48 252.61,-1073.87 262.95,-1076.98"/>
<polygon fill="midnightblue" stroke="midnightblue" points="171.5,-1039.31 160.93,-1038.56 168.72,-1045.74 171.5,-1039.31"/>
</g>
<!-- Node20 -->
<g id="node15" class="node">
<title>Node20</title>
<g id="a_node15"><a xlink:href="../../d7/daf/classnap_1_1_first_person_controller_instance.html" target="_top" xlink:title="FirstPersonControllerInstance">
<polygon fill="white" stroke="black" points="246,-1038.5 246,-1057.5 391,-1057.5 391,-1038.5 246,-1038.5"/>
<text text-anchor="middle" x="318.5" y="-1045.5" font-family="Helvetica,sans-Serif" font-size="10.00">FirstPersonControllerInstance</text>
</a>
</g>
</g>
<!-- Node1&#45;&gt;Node20 -->
<g id="edge14" class="edge">
<title>Node1&#45;&gt;Node20</title>
<path fill="none" stroke="midnightblue" d="M200.03,-1035.46C214.79,-1037.04 230.7,-1038.74 245.91,-1040.36"/>
<polygon fill="midnightblue" stroke="midnightblue" points="200.35,-1031.98 190.03,-1034.39 199.6,-1038.94 200.35,-1031.98"/>
</g>
<!-- Node21 -->
<g id="node16" class="node">
<title>Node21</title>
<g id="a_node16"><a xlink:href="../../dc/da6/classnap_1_1_input_component_instance.html" target="_top" xlink:title="InputComponentInstance">
<polygon fill="white" stroke="red" points="256.5,-1000.5 256.5,-1019.5 380.5,-1019.5 380.5,-1000.5 256.5,-1000.5"/>
<text text-anchor="middle" x="318.5" y="-1007.5" font-family="Helvetica,sans-Serif" font-size="10.00">InputComponentInstance</text>
</a>
</g>
</g>
<!-- Node1&#45;&gt;Node21 -->
<g id="edge15" class="edge">
<title>Node1&#45;&gt;Node21</title>
<path fill="none" stroke="midnightblue" d="M200.2,-1022.52C218.34,-1020.58 238.24,-1018.46 256.41,-1016.52"/>
<polygon fill="midnightblue" stroke="midnightblue" points="199.6,-1019.06 190.03,-1023.61 200.35,-1026.02 199.6,-1019.06"/>
</g>
<!-- Node25 -->
<g id="node17" class="node">
<title>Node25</title>
<g id="a_node17"><a xlink:href="../../d7/d13/classnap_1_1_midi_input_component_instance.html" target="_top" xlink:title="MidiInputComponentInstance">
<polygon fill="white" stroke="black" points="247.5,-962.5 247.5,-981.5 389.5,-981.5 389.5,-962.5 247.5,-962.5"/>
<text text-anchor="middle" x="318.5" y="-969.5" font-family="Helvetica,sans-Serif" font-size="10.00">MidiInputComponentInstance</text>
</a>
</g>
</g>
<!-- Node1&#45;&gt;Node25 -->
<g id="edge16" class="edge">
<title>Node1&#45;&gt;Node25</title>
<path fill="none" stroke="midnightblue" d="M169.39,-1015.19C187.28,-1007.32 210.62,-997.71 232,-991 243.46,-987.4 255.99,-984.21 267.84,-981.53"/>
<polygon fill="midnightblue" stroke="midnightblue" points="167.77,-1012.09 160.06,-1019.36 170.62,-1018.48 167.77,-1012.09"/>
</g>
<!-- Node26 -->
<g id="node18" class="node">
<title>Node26</title>
<g id="a_node18"><a xlink:href="../../dd/d4b/classnap_1_1_orbit_controller_instance.html" target="_top" xlink:title="OrbitControllerInstance">
<polygon fill="white" stroke="black" points="260.5,-924.5 260.5,-943.5 376.5,-943.5 376.5,-924.5 260.5,-924.5"/>
<text text-anchor="middle" x="318.5" y="-931.5" font-family="Helvetica,sans-Serif" font-size="10.00">OrbitControllerInstance</text>
</a>
</g>
</g>
<!-- Node1&#45;&gt;Node26 -->
<g id="edge17" class="edge">
<title>Node1&#45;&gt;Node26</title>
<path fill="none" stroke="midnightblue" d="M155.18,-1012.08C172.36,-994.6 201.54,-967.84 232,-953 240.75,-948.74 250.47,-945.42 260.12,-942.84"/>
<polygon fill="midnightblue" stroke="midnightblue" points="152.58,-1009.74 148.18,-1019.38 157.63,-1014.59 152.58,-1009.74"/>
</g>
<!-- Node27 -->
<g id="node19" class="node">
<title>Node27</title>
<g id="a_node19"><a xlink:href="../../dc/d66/classnap_1_1_ortho_controller_instance.html" target="_top" xlink:title="OrthoControllerInstance">
<polygon fill="white" stroke="black" points="259,-886.5 259,-905.5 378,-905.5 378,-886.5 259,-886.5"/>
<text text-anchor="middle" x="318.5" y="-893.5" font-family="Helvetica,sans-Serif" font-size="10.00">OrthoControllerInstance</text>
</a>
</g>
</g>
<!-- Node1&#45;&gt;Node27 -->
<g id="edge18" class="edge">
<title>Node1&#45;&gt;Node27</title>
<path fill="none" stroke="midnightblue" d="M149.42,-1010.11C163.95,-984.37 193.54,-938.79 232,-915 240.15,-909.96 249.46,-906.25 258.88,-903.52"/>
<polygon fill="midnightblue" stroke="midnightblue" points="146.17,-1008.75 144.44,-1019.21 152.31,-1012.11 146.17,-1008.75"/>
</g>
<!-- Node28 -->
<g id="node20" class="node">
<title>Node28</title>
<g id="a_node20"><a xlink:href="../../db/d52/classnap_1_1_o_s_c_input_component_instance.html" target="_top" xlink:title="OSCInputComponentInstance">
<polygon fill="white" stroke="black" points="246,-848.5 246,-867.5 391,-867.5 391,-848.5 246,-848.5"/>
<text text-anchor="middle" x="318.5" y="-855.5" font-family="Helvetica,sans-Serif" font-size="10.00">OSCInputComponentInstance</text>
</a>
</g>
</g>
<!-- Node1&#45;&gt;Node28 -->
<g id="edge19" class="edge">
<title>Node1&#45;&gt;Node28</title>
<path fill="none" stroke="midnightblue" d="M145.66,-1009.56C157.1,-976.78 184.84,-910.77 232,-877 237.32,-873.19 243.26,-870.13 249.47,-867.67"/>
<polygon fill="midnightblue" stroke="midnightblue" points="142.25,-1008.72 142.4,-1019.31 148.89,-1010.94 142.25,-1008.72"/>
</g>
<!-- Node29 -->
<g id="node21" class="node">
<title>Node29</title>
<g id="a_node21"><a xlink:href="../../d6/d8f/classnap_1_1_parameter_blend_component_instance.html" target="_top" xlink:title="ParameterBlendComponentInstance">
<polygon fill="white" stroke="black" points="232,-810.5 232,-829.5 405,-829.5 405,-810.5 232,-810.5"/>
<text text-anchor="middle" x="318.5" y="-817.5" font-family="Helvetica,sans-Serif" font-size="10.00">ParameterBlendComponentInstance</text>
</a>
</g>
</g>
<!-- Node1&#45;&gt;Node29 -->
<g id="edge20" class="edge">
<title>Node1&#45;&gt;Node29</title>
<path fill="none" stroke="midnightblue" d="M143.22,-1009.19C151.63,-970.16 175.91,-883.27 232,-839 236.89,-835.14 242.41,-832.02 248.23,-829.52"/>
<polygon fill="midnightblue" stroke="midnightblue" points="139.73,-1008.77 141.18,-1019.26 146.59,-1010.16 139.73,-1008.77"/>
</g>
<!-- Node30 -->
<g id="node22" class="node">
<title>Node30</title>
<g id="a_node22"><a xlink:href="../../db/d0d/classnap_1_1_portal_component_instance.html" target="_top" xlink:title="PortalComponentInstance">
<polygon fill="white" stroke="black" points="254.5,-772.5 254.5,-791.5 382.5,-791.5 382.5,-772.5 254.5,-772.5"/>
<text text-anchor="middle" x="318.5" y="-779.5" font-family="Helvetica,sans-Serif" font-size="10.00">PortalComponentInstance</text>
</a>
</g>
</g>
<!-- Node1&#45;&gt;Node30 -->
<g id="edge21" class="edge">
<title>Node1&#45;&gt;Node30</title>
<path fill="none" stroke="midnightblue" d="M141.43,-1009.33C146.9,-964.88 166.59,-856.32 232,-801 238.5,-795.5 246.25,-791.5 254.39,-788.6"/>
<polygon fill="midnightblue" stroke="midnightblue" points="137.94,-1009.07 140.31,-1019.4 144.9,-1009.85 137.94,-1009.07"/>
</g>
<!-- Node31 -->
<g id="node23" class="node">
<title>Node31</title>
<g id="a_node23"><a xlink:href="../../d0/d33/classnap_1_1_python_script_component_instance.html" target="_top" xlink:title="PythonScriptComponentInstance">
<polygon fill="white" stroke="black" points="239,-734.5 239,-753.5 398,-753.5 398,-734.5 239,-734.5"/>
<text text-anchor="middle" x="318.5" y="-741.5" font-family="Helvetica,sans-Serif" font-size="10.00">PythonScriptComponentInstance</text>
</a>
</g>
</g>
<!-- Node1&#45;&gt;Node31 -->
<g id="edge22" class="edge">
<title>Node1&#45;&gt;Node31</title>
<path fill="none" stroke="midnightblue" d="M140.15,-1009.18C142.91,-959.62 157.28,-829.52 232,-763 236.32,-759.16 241.23,-756.04 246.48,-753.51"/>
<polygon fill="midnightblue" stroke="midnightblue" points="136.64,-1009.32 139.69,-1019.47 143.64,-1009.64 136.64,-1009.32"/>
</g>
<!-- Node32 -->
<g id="node24" class="node">
<title>Node32</title>
<g id="a_node24"><a xlink:href="../../dd/da0/classnap_1_1_renderable_component_instance.html" target="_top" xlink:title="RenderableComponentInstance">
<polygon fill="white" stroke="red" points="242.5,-696.5 242.5,-715.5 394.5,-715.5 394.5,-696.5 242.5,-696.5"/>
<text text-anchor="middle" x="318.5" y="-703.5" font-family="Helvetica,sans-Serif" font-size="10.00">RenderableComponentInstance</text>
</a>
</g>
</g>
<!-- Node1&#45;&gt;Node32 -->
<g id="edge23" class="edge">
<title>Node1&#45;&gt;Node32</title>
<path fill="none" stroke="midnightblue" d="M139.16,-1008.98C139.38,-954.57 147.91,-802.88 232,-725 236.13,-721.18 240.85,-718.06 245.9,-715.53"/>
<polygon fill="midnightblue" stroke="midnightblue" points="135.66,-1009.33 139.22,-1019.31 142.66,-1009.3 135.66,-1009.33"/>
</g>
<!-- Node41 -->
<g id="node25" class="node">
<title>Node41</title>
<g id="a_node25"><a xlink:href="../../df/d71/classnap_1_1_rotate_component_instance.html" target="_top" xlink:title="RotateComponentInstance">
<polygon fill="white" stroke="black" points="253,-658.5 253,-677.5 384,-677.5 384,-658.5 253,-658.5"/>
<text text-anchor="middle" x="318.5" y="-665.5" font-family="Helvetica,sans-Serif" font-size="10.00">RotateComponentInstance</text>
</a>
</g>
</g>
<!-- Node1&#45;&gt;Node41 -->
<g id="edge24" class="edge">
<title>Node1&#45;&gt;Node41</title>
<path fill="none" stroke="midnightblue" d="M142.17,-1009.09C151.42,-943.03 184.17,-732.7 232,-687 237.94,-681.33 245.17,-677.2 252.9,-674.22"/>
<polygon fill="midnightblue" stroke="midnightblue" points="138.65,-1008.98 140.76,-1019.36 145.59,-1009.93 138.65,-1008.98"/>
</g>
<!-- Node42 -->
<g id="node26" class="node">
<title>Node42</title>
<g id="a_node26"><a xlink:href="../../d2/d51/classnap_1_1_transform_component_instance.html" target="_top" xlink:title="TransformComponentInstance">
<polygon fill="white" stroke="black" points="245.5,-620.5 245.5,-639.5 391.5,-639.5 391.5,-620.5 245.5,-620.5"/>
<text text-anchor="middle" x="318.5" y="-627.5" font-family="Helvetica,sans-Serif" font-size="10.00">TransformComponentInstance</text>
</a>
</g>
</g>
<!-- Node1&#45;&gt;Node42 -->
<g id="edge25" class="edge">
<title>Node1&#45;&gt;Node42</title>
<path fill="none" stroke="midnightblue" d="M141.58,-1009.21C149.4,-938.62 179.29,-700.66 232,-649 235.91,-645.17 240.41,-642.04 245.26,-639.49"/>
<polygon fill="midnightblue" stroke="midnightblue" points="138.08,-1009.06 140.48,-1019.38 145.03,-1009.81 138.08,-1009.06"/>
</g>
<!-- Node43 -->
<g id="node27" class="node">
<title>Node43</title>
<g id="a_node27"><a xlink:href="../../d4/d37/classnap_1_1_web_socket_component_instance.html" target="_top" xlink:title="WebSocketComponentInstance">
<polygon fill="white" stroke="black" points="241.5,-582.5 241.5,-601.5 395.5,-601.5 395.5,-582.5 241.5,-582.5"/>
<text text-anchor="middle" x="318.5" y="-589.5" font-family="Helvetica,sans-Serif" font-size="10.00">WebSocketComponentInstance</text>
</a>
</g>
</g>
<!-- Node1&#45;&gt;Node43 -->
<g id="edge26" class="edge">
<title>Node1&#45;&gt;Node43</title>
<path fill="none" stroke="midnightblue" d="M141.11,-1009.19C147.62,-934.14 174.41,-668.64 232,-611 235.76,-607.24 240.09,-604.14 244.77,-601.61"/>
<polygon fill="midnightblue" stroke="midnightblue" points="137.62,-1008.93 140.27,-1019.19 144.6,-1009.52 137.62,-1008.93"/>
</g>
<!-- Node46 -->
<g id="node30" class="node">
<title>Node46</title>
<g id="a_node30"><a xlink:href="../../d4/d7f/classnap_1_1_component_ptr_instance_property_value.html" target="_top" xlink:title="ComponentPtrInstanceProperty\lValue">
<polygon fill="white" stroke="black" points="242.5,-533 242.5,-563 394.5,-563 394.5,-533 242.5,-533"/>
<text text-anchor="start" x="250.5" y="-551" font-family="Helvetica,sans-Serif" font-size="10.00">ComponentPtrInstanceProperty</text>
<text text-anchor="middle" x="318.5" y="-540" font-family="Helvetica,sans-Serif" font-size="10.00">Value</text>
</a>
</g>
</g>
<!-- Node45&#45;&gt;Node46 -->
<g id="edge29" class="edge">
<title>Node45&#45;&gt;Node46</title>
<path fill="none" stroke="midnightblue" d="M180.38,-497.87C185.68,-499.8 191.01,-501.86 196,-504 212.63,-511.13 215.23,-516.2 232,-523 240.89,-526.6 250.48,-529.92 259.93,-532.89"/>
<polygon fill="midnightblue" stroke="midnightblue" points="181.52,-494.56 170.92,-494.57 179.21,-501.17 181.52,-494.56"/>
</g>
<!-- Node47 -->
<g id="node31" class="node">
<title>Node47</title>
<g id="a_node31"><a xlink:href="../../d0/d4b/classnap_1_1_pointer_instance_property_value.html" target="_top" xlink:title="PointerInstancePropertyValue">
<polygon fill="white" stroke="black" points="245.5,-494.5 245.5,-513.5 391.5,-513.5 391.5,-494.5 245.5,-494.5"/>
<text text-anchor="middle" x="318.5" y="-501.5" font-family="Helvetica,sans-Serif" font-size="10.00">PointerInstancePropertyValue</text>
</a>
</g>
</g>
<!-- Node45&#45;&gt;Node47 -->
<g id="edge30" class="edge">
<title>Node45&#45;&gt;Node47</title>
<path fill="none" stroke="midnightblue" d="M206.34,-492.13C219.05,-493.49 232.4,-494.92 245.27,-496.29"/>
<polygon fill="midnightblue" stroke="midnightblue" points="206.62,-488.65 196.31,-491.06 205.88,-495.61 206.62,-488.65"/>
</g>
<!-- Node48 -->
<g id="node32" class="node">
<title>Node48</title>
<g id="a_node32"><a xlink:href="../../d9/dc4/classnap_1_1_typed_instance_property_value.html" target="_top" xlink:title="TypedInstancePropertyValue\&lt; T \&gt;">
<polygon fill="white" stroke="black" points="236.5,-456.5 236.5,-475.5 400.5,-475.5 400.5,-456.5 236.5,-456.5"/>
<text text-anchor="middle" x="318.5" y="-463.5" font-family="Helvetica,sans-Serif" font-size="10.00">TypedInstancePropertyValue&lt; T &gt;</text>
</a>
</g>
</g>
<!-- Node45&#45;&gt;Node48 -->
<g id="edge31" class="edge">
<title>Node45&#45;&gt;Node48</title>
<path fill="none" stroke="midnightblue" d="M206.33,-477.87C216.09,-476.82 226.24,-475.74 236.25,-474.67"/>
<polygon fill="midnightblue" stroke="midnightblue" points="205.88,-474.39 196.31,-478.94 206.62,-481.35 205.88,-474.39"/>
</g>
<!-- Node53 -->
<g id="node37" class="node">
<title>Node53</title>
<g id="a_node37"><a xlink:href="../../de/d18/classnap_1_1_a_p_i_base_value.html" target="_top" xlink:title="APIBaseValue">
<polygon fill="white" stroke="red" points="278.5,-418.5 278.5,-437.5 358.5,-437.5 358.5,-418.5 278.5,-418.5"/>
<text text-anchor="middle" x="318.5" y="-425.5" font-family="Helvetica,sans-Serif" font-size="10.00">APIBaseValue</text>
</a>
</g>
</g>
<!-- Node52&#45;&gt;Node53 -->
<g id="edge36" class="edge">
<title>Node52&#45;&gt;Node53</title>
<path fill="none" stroke="midnightblue" d="M150.55,-275.59C174.42,-315.66 228.87,-406.76 232,-409 245.35,-418.56 262.66,-423.44 278.2,-425.88"/>
<polygon fill="midnightblue" stroke="midnightblue" points="153.44,-273.6 145.32,-266.8 147.43,-277.18 153.44,-273.6"/>
</g>
<!-- Node55 -->
<g id="node38" class="node">
<title>Node55</title>
<g id="a_node38"><a xlink:href="../../de/dae/classnap_1_1_a_p_i_message.html" target="_top" xlink:title="APIMessage">
<polygon fill="white" stroke="black" points="282.5,-380.5 282.5,-399.5 354.5,-399.5 354.5,-380.5 282.5,-380.5"/>
<text text-anchor="middle" x="318.5" y="-387.5" font-family="Helvetica,sans-Serif" font-size="10.00">APIMessage</text>
</a>
</g>
</g>
<!-- Node52&#45;&gt;Node55 -->
<g id="edge37" class="edge">
<title>Node52&#45;&gt;Node55</title>
<path fill="none" stroke="midnightblue" d="M149.42,-275.89C163.95,-301.63 193.54,-347.21 232,-371 247,-380.28 265.96,-385.05 282.22,-387.49"/>
<polygon fill="midnightblue" stroke="midnightblue" points="152.31,-273.89 144.44,-266.79 146.17,-277.25 152.31,-273.89"/>
</g>
<!-- Node56 -->
<g id="node39" class="node">
<title>Node56</title>
<g id="a_node39"><a xlink:href="../../d3/d6c/classnap_1_1_a_p_i_signature.html" target="_top" xlink:title="APISignature">
<polygon fill="white" stroke="black" points="281.5,-342.5 281.5,-361.5 355.5,-361.5 355.5,-342.5 281.5,-342.5"/>
<text text-anchor="middle" x="318.5" y="-349.5" font-family="Helvetica,sans-Serif" font-size="10.00">APISignature</text>
</a>
</g>
</g>
<!-- Node52&#45;&gt;Node56 -->
<g id="edge38" class="edge">
<title>Node52&#45;&gt;Node56</title>
<path fill="none" stroke="midnightblue" d="M155.18,-273.92C172.36,-291.4 201.54,-318.16 232,-333 247.31,-340.46 265.59,-345.03 281.31,-347.81"/>
<polygon fill="midnightblue" stroke="midnightblue" points="157.63,-271.41 148.18,-266.62 152.58,-276.26 157.63,-271.41"/>
</g>
<!-- Node57 -->
<g id="node40" class="node">
<title>Node57</title>
<g id="a_node40"><a xlink:href="../../df/dac/classnap_1_1audio_1_1_audio_buffer_resource.html" target="_top" xlink:title="AudioBufferResource">
<polygon fill="white" stroke="red" points="265,-304.5 265,-323.5 372,-323.5 372,-304.5 265,-304.5"/>
<text text-anchor="middle" x="318.5" y="-311.5" font-family="Helvetica,sans-Serif" font-size="10.00">AudioBufferResource</text>
</a>
</g>
</g>
<!-- Node52&#45;&gt;Node57 -->
<g id="edge39" class="edge">
<title>Node52&#45;&gt;Node57</title>
<path fill="none" stroke="midnightblue" d="M169.39,-270.81C187.28,-278.68 210.62,-288.29 232,-295 243.46,-298.6 255.99,-301.79 267.84,-304.47"/>
<polygon fill="midnightblue" stroke="midnightblue" points="170.62,-267.52 160.06,-266.64 167.77,-273.91 170.62,-267.52"/>
</g>
<!-- Node60 -->
<g id="node41" class="node">
<title>Node60</title>
<g id="a_node41"><a xlink:href="../../de/d80/classnap_1_1_base_fill_policy.html" target="_top" xlink:title="BaseFillPolicy">
<polygon fill="white" stroke="red" points="279,-266.5 279,-285.5 358,-285.5 358,-266.5 279,-266.5"/>
<text text-anchor="middle" x="318.5" y="-273.5" font-family="Helvetica,sans-Serif" font-size="10.00">BaseFillPolicy</text>
</a>
</g>
</g>
<!-- Node52&#45;&gt;Node60 -->
<g id="edge40" class="edge">
<title>Node52&#45;&gt;Node60</title>
<path fill="none" stroke="midnightblue" d="M177.75,-261.08C207.59,-264.27 248.88,-268.68 278.83,-271.87"/>
<polygon fill="midnightblue" stroke="midnightblue" points="178.02,-257.59 167.7,-260.01 177.28,-264.55 178.02,-257.59"/>
</g>
<!-- Node64 -->
<g id="node42" class="node">
<title>Node64</title>
<g id="a_node42"><a xlink:href="../../da/d69/classnap_1_1_base_material.html" target="_top" xlink:title="BaseMaterial">
<polygon fill="white" stroke="red" points="281.5,-228.5 281.5,-247.5 355.5,-247.5 355.5,-228.5 281.5,-228.5"/>
<text text-anchor="middle" x="318.5" y="-235.5" font-family="Helvetica,sans-Serif" font-size="10.00">BaseMaterial</text>
</a>
</g>
</g>
<!-- Node52&#45;&gt;Node64 -->
<g id="edge41" class="edge">
<title>Node52&#45;&gt;Node64</title>
<path fill="none" stroke="midnightblue" d="M178.02,-252.89C208.72,-249.61 251.39,-245.06 281.43,-241.85"/>
<polygon fill="midnightblue" stroke="midnightblue" points="177.28,-249.45 167.7,-253.99 178.02,-256.41 177.28,-249.45"/>
</g>
<!-- Node67 -->
<g id="node43" class="node">
<title>Node67</title>
<g id="a_node43"><a xlink:href="../../d4/dd0/classnap_1_1_base_shader.html" target="_top" xlink:title="BaseShader">
<polygon fill="white" stroke="red" points="283.5,-190.5 283.5,-209.5 353.5,-209.5 353.5,-190.5 283.5,-190.5"/>
<text text-anchor="middle" x="318.5" y="-197.5" font-family="Helvetica,sans-Serif" font-size="10.00">BaseShader</text>
</a>
</g>
</g>
<!-- Node52&#45;&gt;Node67 -->
<g id="edge42" class="edge">
<title>Node52&#45;&gt;Node67</title>
<path fill="none" stroke="midnightblue" d="M177.4,-245.2C183.68,-242.97 190.07,-240.54 196,-238 212.63,-230.87 215.02,-225.24 232,-219 248.41,-212.97 267.33,-208.52 283.2,-205.45"/>
<polygon fill="midnightblue" stroke="midnightblue" points="176.04,-241.96 167.71,-248.5 178.31,-248.58 176.04,-241.96"/>
</g>
<!-- Node76 -->
<g id="node44" class="node">
<title>Node76</title>
<g id="a_node44"><a xlink:href="../../d7/db2/classnap_1_1_base_vertex_attribute.html" target="_top" xlink:title="BaseVertexAttribute">
<polygon fill="white" stroke="red" points="266.5,-152.5 266.5,-171.5 370.5,-171.5 370.5,-152.5 266.5,-152.5"/>
<text text-anchor="middle" x="318.5" y="-159.5" font-family="Helvetica,sans-Serif" font-size="10.00">BaseVertexAttribute</text>
</a>
</g>
</g>
<!-- Node52&#45;&gt;Node76 -->
<g id="edge43" class="edge">
<title>Node52&#45;&gt;Node76</title>
<path fill="none" stroke="midnightblue" d="M177.25,-248.33C183.91,-245.71 190.48,-242.34 196,-238 219.56,-219.49 207.49,-198.24 232,-181 242.07,-173.91 254.33,-169.41 266.38,-166.56"/>
<polygon fill="midnightblue" stroke="midnightblue" points="175.85,-245.1 167.52,-251.64 178.11,-251.73 175.85,-245.1"/>
</g>
<!-- Node79 -->
<g id="node45" class="node">
<title>Node79</title>
<g id="a_node45"><a xlink:href="../../df/dfc/classnap_1_1_bitmap.html" target="_top" xlink:title="Bitmap">
<polygon fill="white" stroke="red" points="295,-114.5 295,-133.5 342,-133.5 342,-114.5 295,-114.5"/>
<text text-anchor="middle" x="318.5" y="-121.5" font-family="Helvetica,sans-Serif" font-size="10.00">Bitmap</text>
</a>
</g>
</g>
<!-- Node52&#45;&gt;Node79 -->
<g id="edge44" class="edge">
<title>Node52&#45;&gt;Node79</title>
<path fill="none" stroke="midnightblue" d="M177.61,-249.35C184.34,-246.64 190.84,-242.97 196,-238 228.53,-206.68 197.87,-172.56 232,-143 249.36,-127.97 275.99,-124.06 294.91,-123.38"/>
<polygon fill="midnightblue" stroke="midnightblue" points="176.06,-246.18 167.69,-252.67 178.29,-252.81 176.06,-246.18"/>
</g>
<!-- Node81 -->
<g id="node46" class="node">
<title>Node81</title>
<g id="a_node46"><a xlink:href="../../d0/d99/classnap_1_1_buffer_binding.html" target="_top" xlink:title="BufferBinding">
<polygon fill="white" stroke="red" points="281.5,-76.5 281.5,-95.5 355.5,-95.5 355.5,-76.5 281.5,-76.5"/>
<text text-anchor="middle" x="318.5" y="-83.5" font-family="Helvetica,sans-Serif" font-size="10.00">BufferBinding</text>
</a>
</g>
</g>
<!-- Node52&#45;&gt;Node81 -->
<g id="edge45" class="edge">
<title>Node52&#45;&gt;Node81</title>
<path fill="none" stroke="midnightblue" d="M177.13,-250.09C184.15,-247.32 190.88,-243.44 196,-238 237.98,-193.42 187.72,-147.3 232,-105 245.08,-92.5 264.48,-87.52 281.49,-85.76"/>
<polygon fill="midnightblue" stroke="midnightblue" points="175.93,-246.8 167.51,-253.22 178.1,-253.46 175.93,-246.8"/>
</g>
<!-- Node85 -->
<g id="node47" class="node">
<title>Node85</title>
<g id="a_node47"><a xlink:href="../../df/d37/classnap_1_1_calendar_item.html" target="_top" xlink:title="CalendarItem">
<polygon fill="white" stroke="red" points="281.5,-38.5 281.5,-57.5 355.5,-57.5 355.5,-38.5 281.5,-38.5"/>
<text text-anchor="middle" x="318.5" y="-45.5" font-family="Helvetica,sans-Serif" font-size="10.00">CalendarItem</text>
</a>
</g>
</g>
<!-- Node52&#45;&gt;Node85 -->
<g id="edge46" class="edge">
<title>Node52&#45;&gt;Node85</title>
<path fill="none" stroke="midnightblue" d="M177.38,-250.31C184.38,-247.53 191.04,-243.58 196,-238 247.62,-179.97 177.39,-122.22 232,-67 244.72,-54.13 264.09,-49.12 281.18,-47.45"/>
<polygon fill="midnightblue" stroke="midnightblue" points="176.17,-247.02 167.74,-253.44 178.34,-253.68 176.17,-247.02"/>
</g>
<!-- Node91 -->
<g id="node48" class="node">
<title>Node91</title>
<g id="a_node48"><a xlink:href="../../db/d6b/classnap_1_1_component.html" target="_top" xlink:title="Component">
<polygon fill="white" stroke="red" points="285.5,-0.5 285.5,-19.5 351.5,-19.5 351.5,-0.5 285.5,-0.5"/>
<text text-anchor="middle" x="318.5" y="-7.5" font-family="Helvetica,sans-Serif" font-size="10.00">Component</text>
</a>
</g>
</g>
<!-- Node52&#45;&gt;Node91 -->
<g id="edge47" class="edge">
<title>Node52&#45;&gt;Node91</title>
<path fill="none" stroke="midnightblue" d="M177.34,-250.53C184.4,-247.73 191.09,-243.73 196,-238 257.33,-166.43 166.97,-97.23 232,-29 245.53,-14.8 267.14,-10.09 285.24,-8.9"/>
<polygon fill="midnightblue" stroke="midnightblue" points="176.06,-247.27 167.61,-253.65 178.2,-253.93 176.06,-247.27"/>
</g>
</g>
</svg>
