<?xml version="1.0" encoding="UTF-8" standalone="no"?>
<!DOCTYPE svg PUBLIC "-//W3C//DTD SVG 1.1//EN"
 "http://www.w3.org/Graphics/SVG/1.1/DTD/svg11.dtd">
<!-- Generated by graphviz version 3.0.0 (20220226.1711)
 -->
<!-- Title: Object Pages: 1 -->
<svg width="413pt" height="1534pt"
 viewBox="0.00 0.00 413.00 1534.00" xmlns="http://www.w3.org/2000/svg" xmlns:xlink="http://www.w3.org/1999/xlink">
<g id="graph0" class="graph" transform="scale(1 1) rotate(0) translate(4 1530)">
<title>Object</title>
<polygon fill="white" stroke="transparent" points="-4,4 -4,-1530 409,-1530 409,4 -4,4"/>
<!-- Node0 -->
<g id="node1" class="node">
<title>Node0</title>
<polygon fill="#bfbfbf" stroke="black" points="0,-456.5 0,-475.5 45,-475.5 45,-456.5 0,-456.5"/>
<text text-anchor="middle" x="22.5" y="-463.5" font-family="Helvetica,sans-Serif" font-size="10.00">Object</text>
</g>
<!-- Node1 -->
<g id="node2" class="node">
<title>Node1</title>
<g id="a_node2"><a xlink:href="../../d9/df2/classnap_1_1_component_instance.html" target="_top" xlink:title="ComponentInstance">
<polygon fill="white" stroke="black" points="87,-1038.5 87,-1057.5 190,-1057.5 190,-1038.5 87,-1038.5"/>
<text text-anchor="middle" x="138.5" y="-1045.5" font-family="Helvetica,sans-Serif" font-size="10.00">ComponentInstance</text>
</a>
</g>
</g>
<!-- Node0&#45;&gt;Node1 -->
<g id="edge1" class="edge">
<title>Node0&#45;&gt;Node1</title>
<path fill="none" stroke="midnightblue" d="M27.34,-485.62C45.53,-578.48 122.63,-972.11 135.64,-1038.48"/>
<polygon fill="midnightblue" stroke="midnightblue" points="30.74,-484.76 25.38,-475.62 23.87,-486.1 30.74,-484.76"/>
</g>
<!-- Node42 -->
<g id="node27" class="node">
<title>Node42</title>
<g id="a_node27"><a xlink:href="../../d2/da9/classnap_1_1_entity_instance.html" target="_top" xlink:title="EntityInstance">
<polygon fill="white" stroke="black" points="99,-551.5 99,-570.5 178,-570.5 178,-551.5 99,-551.5"/>
<text text-anchor="middle" x="138.5" y="-558.5" font-family="Helvetica,sans-Serif" font-size="10.00">EntityInstance</text>
</a>
</g>
</g>
<!-- Node0&#45;&gt;Node42 -->
<g id="edge26" class="edge">
<title>Node0&#45;&gt;Node42</title>
<path fill="none" stroke="midnightblue" d="M33.32,-484.72C43.21,-501.9 60.01,-526.89 81,-542 86.38,-545.87 92.6,-548.99 98.9,-551.5"/>
<polygon fill="midnightblue" stroke="midnightblue" points="36.2,-482.71 28.31,-475.65 30.07,-486.1 36.2,-482.71"/>
</g>
<!-- Node43 -->
<g id="node28" class="node">
<title>Node43</title>
<g id="a_node28"><a xlink:href="../../d8/d81/classnap_1_1_instance_property_value.html" target="_top" xlink:title="InstancePropertyValue">
<polygon fill="white" stroke="black" points="81,-513.5 81,-532.5 196,-532.5 196,-513.5 81,-513.5"/>
<text text-anchor="middle" x="138.5" y="-520.5" font-family="Helvetica,sans-Serif" font-size="10.00">InstancePropertyValue</text>
</a>
</g>
</g>
<!-- Node0&#45;&gt;Node43 -->
<g id="edge27" class="edge">
<title>Node0&#45;&gt;Node43</title>
<path fill="none" stroke="midnightblue" d="M44.35,-481.68C54.94,-489.14 68.23,-497.77 81,-504 88.35,-507.59 96.54,-510.77 104.36,-513.46"/>
<polygon fill="midnightblue" stroke="midnightblue" points="46.32,-478.79 36.17,-475.77 42.22,-484.46 46.32,-478.79"/>
</g>
<!-- Node47 -->
<g id="node32" class="node">
<title>Node47</title>
<g id="a_node32"><a xlink:href="../../d4/dce/classnap_1_1_module_info.html" target="_top" xlink:title="ModuleInfo">
<polygon fill="white" stroke="black" points="107,-475.5 107,-494.5 170,-494.5 170,-475.5 107,-475.5"/>
<text text-anchor="middle" x="138.5" y="-482.5" font-family="Helvetica,sans-Serif" font-size="10.00">ModuleInfo</text>
</a>
</g>
</g>
<!-- Node0&#45;&gt;Node47 -->
<g id="edge31" class="edge">
<title>Node0&#45;&gt;Node47</title>
<path fill="none" stroke="midnightblue" d="M55.24,-471.29C71.36,-473.98 90.86,-477.23 106.83,-479.89"/>
<polygon fill="midnightblue" stroke="midnightblue" points="55.65,-467.81 45.21,-469.62 54.5,-474.71 55.65,-467.81"/>
</g>
<!-- Node48 -->
<g id="node33" class="node">
<title>Node48</title>
<g id="a_node33"><a xlink:href="../../d5/d92/classnap_1_1_path_mapping.html" target="_top" xlink:title="PathMapping">
<polygon fill="white" stroke="black" points="101.5,-437.5 101.5,-456.5 175.5,-456.5 175.5,-437.5 101.5,-437.5"/>
<text text-anchor="middle" x="138.5" y="-444.5" font-family="Helvetica,sans-Serif" font-size="10.00">PathMapping</text>
</a>
</g>
</g>
<!-- Node0&#45;&gt;Node48 -->
<g id="edge32" class="edge">
<title>Node0&#45;&gt;Node48</title>
<path fill="none" stroke="midnightblue" d="M55.47,-460.67C69.65,-458.31 86.41,-455.52 101.07,-453.07"/>
<polygon fill="midnightblue" stroke="midnightblue" points="54.5,-457.29 45.21,-462.38 55.65,-464.19 54.5,-457.29"/>
</g>
<!-- Node49 -->
<g id="node34" class="node">
<title>Node49</title>
<g id="a_node34"><a xlink:href="../../d2/d82/classnap_1_1_project_info.html" target="_top" xlink:title="ProjectInfo">
<polygon fill="white" stroke="black" points="107.5,-399.5 107.5,-418.5 169.5,-418.5 169.5,-399.5 107.5,-399.5"/>
<text text-anchor="middle" x="138.5" y="-406.5" font-family="Helvetica,sans-Serif" font-size="10.00">ProjectInfo</text>
</a>
</g>
</g>
<!-- Node0&#45;&gt;Node49 -->
<g id="edge33" class="edge">
<title>Node0&#45;&gt;Node49</title>
<path fill="none" stroke="midnightblue" d="M44.35,-450.32C54.94,-442.86 68.23,-434.23 81,-428 89.28,-423.96 98.63,-420.43 107.3,-417.55"/>
<polygon fill="midnightblue" stroke="midnightblue" points="42.22,-447.54 36.17,-456.23 46.32,-453.21 42.22,-447.54"/>
</g>
<!-- Node50 -->
<g id="node35" class="node">
<title>Node50</title>
<g id="a_node35"><a xlink:href="../../d9/dea/classnap_1_1_resource.html" target="_top" xlink:title="Resource">
<polygon fill="white" stroke="red" points="109.5,-266.5 109.5,-285.5 167.5,-285.5 167.5,-266.5 109.5,-266.5"/>
<text text-anchor="middle" x="138.5" y="-273.5" font-family="Helvetica,sans-Serif" font-size="10.00">Resource</text>
</a>
</g>
</g>
<!-- Node0&#45;&gt;Node50 -->
<g id="edge34" class="edge">
<title>Node0&#45;&gt;Node50</title>
<path fill="none" stroke="midnightblue" d="M34.64,-447.44C58.41,-407.82 113.41,-316.15 131.56,-285.89"/>
<polygon fill="midnightblue" stroke="midnightblue" points="31.45,-445.94 29.31,-456.32 37.46,-449.54 31.45,-445.94"/>
</g>
<!-- Node241 -->
<g id="node49" class="node">
<title>Node241</title>
<g id="a_node49"><a xlink:href="../../dd/db7/classnap_1_1_service_configuration.html" target="_top" xlink:title="ServiceConfiguration">
<polygon fill="white" stroke="red" points="86.5,-228.5 86.5,-247.5 190.5,-247.5 190.5,-228.5 86.5,-228.5"/>
<text text-anchor="middle" x="138.5" y="-235.5" font-family="Helvetica,sans-Serif" font-size="10.00">ServiceConfiguration</text>
</a>
</g>
</g>
<!-- Node0&#45;&gt;Node241 -->
<g id="edge48" class="edge">
<title>Node0&#45;&gt;Node241</title>
<path fill="none" stroke="midnightblue" d="M23.14,-446.1C23.5,-405.14 30.19,-310.74 81,-257 84.7,-253.09 89.22,-249.98 94.09,-247.52"/>
<polygon fill="midnightblue" stroke="midnightblue" points="19.64,-446.17 23.17,-456.16 26.64,-446.15 19.64,-446.17"/>
</g>
<!-- Node2 -->
<g id="node3" class="node">
<title>Node2</title>
<g id="a_node3"><a xlink:href="../../dc/de6/classnap_1_1_a_p_i_component_instance.html" target="_top" xlink:title="APIComponentInstance">
<polygon fill="white" stroke="black" points="259,-1506.5 259,-1525.5 378,-1525.5 378,-1506.5 259,-1506.5"/>
<text text-anchor="middle" x="318.5" y="-1513.5" font-family="Helvetica,sans-Serif" font-size="10.00">APIComponentInstance</text>
</a>
</g>
</g>
<!-- Node1&#45;&gt;Node2 -->
<g id="edge2" class="edge">
<title>Node1&#45;&gt;Node2</title>
<path fill="none" stroke="midnightblue" d="M140.78,-1067.74C146.27,-1146.16 170.4,-1434.43 232,-1497 239.25,-1504.37 248.69,-1509.16 258.63,-1512.23"/>
<polygon fill="midnightblue" stroke="midnightblue" points="144.27,-1067.49 140.1,-1057.75 137.29,-1067.96 144.27,-1067.49"/>
</g>
<!-- Node3 -->
<g id="node4" class="node">
<title>Node3</title>
<g id="a_node4"><a xlink:href="../../d5/dd2/classnap_1_1_art_net_input_component_instance.html" target="_top" xlink:title="ArtNetInputComponentInstance">
<polygon fill="white" stroke="black" points="242.5,-1468.5 242.5,-1487.5 394.5,-1487.5 394.5,-1468.5 242.5,-1468.5"/>
<text text-anchor="middle" x="318.5" y="-1475.5" font-family="Helvetica,sans-Serif" font-size="10.00">ArtNetInputComponentInstance</text>
</a>
</g>
</g>
<!-- Node1&#45;&gt;Node3 -->
<g id="edge3" class="edge">
<title>Node1&#45;&gt;Node3</title>
<path fill="none" stroke="midnightblue" d="M141.2,-1067.94C147.97,-1142.36 175.35,-1402.5 232,-1459 235.77,-1462.76 240.1,-1465.84 244.78,-1468.37"/>
<polygon fill="midnightblue" stroke="midnightblue" points="144.66,-1067.3 140.29,-1057.65 137.69,-1067.92 144.66,-1067.3"/>
</g>
<!-- Node4 -->
<g id="node5" class="node">
<title>Node4</title>
<g id="a_node5"><a xlink:href="../../da/dde/classnap_1_1audio_1_1_audio_component_base_instance.html" target="_top" xlink:title="AudioComponentBaseInstance">
<polygon fill="white" stroke="red" points="243.5,-1430.5 243.5,-1449.5 393.5,-1449.5 393.5,-1430.5 243.5,-1430.5"/>
<text text-anchor="middle" x="318.5" y="-1437.5" font-family="Helvetica,sans-Serif" font-size="10.00">AudioComponentBaseInstance</text>
</a>
</g>
</g>
<!-- Node1&#45;&gt;Node4 -->
<g id="edge4" class="edge">
<title>Node1&#45;&gt;Node4</title>
<path fill="none" stroke="midnightblue" d="M141.69,-1067.89C149.77,-1137.75 180.21,-1370.46 232,-1421 235.92,-1424.82 240.42,-1427.95 245.28,-1430.49"/>
<polygon fill="midnightblue" stroke="midnightblue" points="145.15,-1067.33 140.55,-1057.79 138.19,-1068.12 145.15,-1067.33"/>
</g>
<!-- Node9 -->
<g id="node6" class="node">
<title>Node9</title>
<g id="a_node6"><a xlink:href="../../db/d7c/classnap_1_1audio_1_1_level_meter_component_instance.html" target="_top" xlink:title="LevelMeterComponentInstance">
<polygon fill="white" stroke="black" points="244,-1392.5 244,-1411.5 393,-1411.5 393,-1392.5 244,-1392.5"/>
<text text-anchor="middle" x="318.5" y="-1399.5" font-family="Helvetica,sans-Serif" font-size="10.00">LevelMeterComponentInstance</text>
</a>
</g>
</g>
<!-- Node1&#45;&gt;Node9 -->
<g id="edge5" class="edge">
<title>Node1&#45;&gt;Node9</title>
<path fill="none" stroke="midnightblue" d="M142.29,-1067.94C151.82,-1133.14 185.07,-1338.39 232,-1383 235.97,-1386.77 240.51,-1389.86 245.39,-1392.38"/>
<polygon fill="midnightblue" stroke="midnightblue" points="145.72,-1067.18 140.83,-1057.77 138.79,-1068.17 145.72,-1067.18"/>
</g>
<!-- Node10 -->
<g id="node7" class="node">
<title>Node10</title>
<g id="a_node7"><a xlink:href="../../de/d9c/classnap_1_1audio_1_1_output_component_instance.html" target="_top" xlink:title="OutputComponentInstance">
<polygon fill="white" stroke="black" points="252.5,-1354.5 252.5,-1373.5 384.5,-1373.5 384.5,-1354.5 252.5,-1354.5"/>
<text text-anchor="middle" x="318.5" y="-1361.5" font-family="Helvetica,sans-Serif" font-size="10.00">OutputComponentInstance</text>
</a>
</g>
</g>
<!-- Node1&#45;&gt;Node10 -->
<g id="edge6" class="edge">
<title>Node1&#45;&gt;Node10</title>
<path fill="none" stroke="midnightblue" d="M139.32,-1067.93C140,-1121.43 149.62,-1269.2 232,-1345 237.82,-1350.35 244.8,-1354.32 252.24,-1357.23"/>
<polygon fill="midnightblue" stroke="midnightblue" points="142.82,-1067.74 139.29,-1057.75 135.82,-1067.76 142.82,-1067.74"/>
</g>
<!-- Node11 -->
<g id="node8" class="node">
<title>Node11</title>
<g id="a_node8"><a xlink:href="../../d7/df3/classnap_1_1_calendar_component_instance.html" target="_top" xlink:title="CalendarComponentInstance">
<polygon fill="white" stroke="black" points="248,-1316.5 248,-1335.5 389,-1335.5 389,-1316.5 248,-1316.5"/>
<text text-anchor="middle" x="318.5" y="-1323.5" font-family="Helvetica,sans-Serif" font-size="10.00">CalendarComponentInstance</text>
</a>
</g>
</g>
<!-- Node1&#45;&gt;Node11 -->
<g id="edge7" class="edge">
<title>Node1&#45;&gt;Node11</title>
<path fill="none" stroke="midnightblue" d="M140.35,-1067.64C143.58,-1116.18 158.93,-1242.5 232,-1307 236.67,-1311.13 242.04,-1314.42 247.77,-1317.04"/>
<polygon fill="midnightblue" stroke="midnightblue" points="143.84,-1067.33 139.79,-1057.54 136.85,-1067.72 143.84,-1067.33"/>
</g>
<!-- Node12 -->
<g id="node9" class="node">
<title>Node12</title>
<g id="a_node9"><a xlink:href="../../d6/df5/classnap_1_1_camera_component_instance.html" target="_top" xlink:title="CameraComponentInstance">
<polygon fill="white" stroke="red" points="250,-1278.5 250,-1297.5 387,-1297.5 387,-1278.5 250,-1278.5"/>
<text text-anchor="middle" x="318.5" y="-1285.5" font-family="Helvetica,sans-Serif" font-size="10.00">CameraComponentInstance</text>
</a>
</g>
</g>
<!-- Node1&#45;&gt;Node12 -->
<g id="edge8" class="edge">
<title>Node1&#45;&gt;Node12</title>
<path fill="none" stroke="midnightblue" d="M141.75,-1067.96C147.79,-1111.6 168.45,-1215.84 232,-1269 237.25,-1273.39 243.29,-1276.82 249.69,-1279.5"/>
<polygon fill="midnightblue" stroke="midnightblue" points="145.2,-1067.27 140.47,-1057.79 138.25,-1068.15 145.2,-1067.27"/>
</g>
<!-- Node15 -->
<g id="node10" class="node">
<title>Node15</title>
<g id="a_node10"><a xlink:href="../../d7/d74/classnap_1_1_camera_controller_instance.html" target="_top" xlink:title="CameraControllerInstance">
<polygon fill="white" stroke="black" points="254.5,-1240.5 254.5,-1259.5 382.5,-1259.5 382.5,-1240.5 254.5,-1240.5"/>
<text text-anchor="middle" x="318.5" y="-1247.5" font-family="Helvetica,sans-Serif" font-size="10.00">CameraControllerInstance</text>
</a>
</g>
</g>
<!-- Node1&#45;&gt;Node15 -->
<g id="edge9" class="edge">
<title>Node1&#45;&gt;Node15</title>
<path fill="none" stroke="midnightblue" d="M143.57,-1067.62C152.5,-1105.5 177.51,-1188.65 232,-1231 238.6,-1236.13 246.32,-1239.94 254.36,-1242.75"/>
<polygon fill="midnightblue" stroke="midnightblue" points="146.98,-1066.81 141.39,-1057.82 140.15,-1068.34 146.98,-1066.81"/>
</g>
<!-- Node16 -->
<g id="node11" class="node">
<title>Node16</title>
<g id="a_node11"><a xlink:href="../../d6/d02/classnap_1_1_c_v_capture_component_instance.html" target="_top" xlink:title="CVCaptureComponentInstance">
<polygon fill="white" stroke="black" points="243.5,-1202.5 243.5,-1221.5 393.5,-1221.5 393.5,-1202.5 243.5,-1202.5"/>
<text text-anchor="middle" x="318.5" y="-1209.5" font-family="Helvetica,sans-Serif" font-size="10.00">CVCaptureComponentInstance</text>
</a>
</g>
</g>
<!-- Node1&#45;&gt;Node16 -->
<g id="edge10" class="edge">
<title>Node1&#45;&gt;Node16</title>
<path fill="none" stroke="midnightblue" d="M146.25,-1067.42C158.27,-1098.99 186.49,-1161.14 232,-1193 237.48,-1196.84 243.6,-1199.92 249.99,-1202.39"/>
<polygon fill="midnightblue" stroke="midnightblue" points="149.39,-1065.82 142.67,-1057.62 142.81,-1068.22 149.39,-1065.82"/>
</g>
<!-- Node17 -->
<g id="node12" class="node">
<title>Node17</title>
<g id="a_node12"><a xlink:href="../../da/d07/classnap_1_1_c_v_classify_component_instance.html" target="_top" xlink:title="CVClassifyComponentInstance">
<polygon fill="white" stroke="black" points="243,-1164.5 243,-1183.5 394,-1183.5 394,-1164.5 243,-1164.5"/>
<text text-anchor="middle" x="318.5" y="-1171.5" font-family="Helvetica,sans-Serif" font-size="10.00">CVClassifyComponentInstance</text>
</a>
</g>
</g>
<!-- Node1&#45;&gt;Node17 -->
<g id="edge11" class="edge">
<title>Node1&#45;&gt;Node17</title>
<path fill="none" stroke="midnightblue" d="M149.94,-1066.09C164.9,-1090.31 194.78,-1132.77 232,-1155 238.53,-1158.9 245.77,-1162 253.19,-1164.46"/>
<polygon fill="midnightblue" stroke="midnightblue" points="152.93,-1064.28 144.79,-1057.51 146.93,-1067.88 152.93,-1064.28"/>
</g>
<!-- Node18 -->
<g id="node13" class="node">
<title>Node18</title>
<g id="a_node13"><a xlink:href="../../d8/d98/classnap_1_1_default_input_router_component_instance.html" target="_top" xlink:title="DefaultInputRouterComponent\lInstance">
<polygon fill="white" stroke="black" points="245.5,-1115 245.5,-1145 391.5,-1145 391.5,-1115 245.5,-1115"/>
<text text-anchor="start" x="253.5" y="-1133" font-family="Helvetica,sans-Serif" font-size="10.00">DefaultInputRouterComponent</text>
<text text-anchor="middle" x="318.5" y="-1122" font-family="Helvetica,sans-Serif" font-size="10.00">Instance</text>
</a>
</g>
</g>
<!-- Node1&#45;&gt;Node18 -->
<g id="edge12" class="edge">
<title>Node1&#45;&gt;Node18</title>
<path fill="none" stroke="midnightblue" d="M161.31,-1063.78C179.5,-1076.34 206.46,-1093.64 232,-1105 240.34,-1108.71 249.37,-1112.03 258.34,-1114.96"/>
<polygon fill="midnightblue" stroke="midnightblue" points="162.85,-1060.58 152.66,-1057.69 158.83,-1066.31 162.85,-1060.58"/>
</g>
<!-- Node19 -->
<g id="node14" class="node">
<title>Node19</title>
<g id="a_node14"><a xlink:href="../../d7/daf/classnap_1_1_first_person_controller_instance.html" target="_top" xlink:title="FirstPersonControllerInstance">
<polygon fill="white" stroke="black" points="246,-1076.5 246,-1095.5 391,-1095.5 391,-1076.5 246,-1076.5"/>
<text text-anchor="middle" x="318.5" y="-1083.5" font-family="Helvetica,sans-Serif" font-size="10.00">FirstPersonControllerInstance</text>
</a>
</g>
</g>
<!-- Node1&#45;&gt;Node19 -->
<g id="edge13" class="edge">
<title>Node1&#45;&gt;Node19</title>
<path fill="none" stroke="midnightblue" d="M194.22,-1059.68C219.46,-1065.07 249.05,-1071.39 272.91,-1076.48"/>
<polygon fill="midnightblue" stroke="midnightblue" points="194.93,-1056.25 184.42,-1057.59 193.47,-1063.1 194.93,-1056.25"/>
</g>
<!-- Node20 -->
<g id="node15" class="node">
<title>Node20</title>
<g id="a_node15"><a xlink:href="../../dc/da6/classnap_1_1_input_component_instance.html" target="_top" xlink:title="InputComponentInstance">
<polygon fill="white" stroke="red" points="256.5,-1038.5 256.5,-1057.5 380.5,-1057.5 380.5,-1038.5 256.5,-1038.5"/>
<text text-anchor="middle" x="318.5" y="-1045.5" font-family="Helvetica,sans-Serif" font-size="10.00">InputComponentInstance</text>
</a>
</g>
</g>
<!-- Node1&#45;&gt;Node20 -->
<g id="edge14" class="edge">
<title>Node1&#45;&gt;Node20</title>
<path fill="none" stroke="midnightblue" d="M200.2,-1048C218.34,-1048 238.24,-1048 256.41,-1048"/>
<polygon fill="midnightblue" stroke="midnightblue" points="200.03,-1044.5 190.03,-1048 200.03,-1051.5 200.03,-1044.5"/>
</g>
<!-- Node24 -->
<g id="node16" class="node">
<title>Node24</title>
<g id="a_node16"><a xlink:href="../../d7/d13/classnap_1_1_midi_input_component_instance.html" target="_top" xlink:title="MidiInputComponentInstance">
<polygon fill="white" stroke="black" points="247.5,-1000.5 247.5,-1019.5 389.5,-1019.5 389.5,-1000.5 247.5,-1000.5"/>
<text text-anchor="middle" x="318.5" y="-1007.5" font-family="Helvetica,sans-Serif" font-size="10.00">MidiInputComponentInstance</text>
</a>
</g>
</g>
<!-- Node1&#45;&gt;Node24 -->
<g id="edge15" class="edge">
<title>Node1&#45;&gt;Node24</title>
<path fill="none" stroke="midnightblue" d="M194.22,-1036.32C219.46,-1030.93 249.05,-1024.61 272.91,-1019.52"/>
<polygon fill="midnightblue" stroke="midnightblue" points="193.47,-1032.9 184.42,-1038.41 194.93,-1039.75 193.47,-1032.9"/>
</g>
<!-- Node25 -->
<g id="node17" class="node">
<title>Node25</title>
<g id="a_node17"><a xlink:href="../../dd/d4b/classnap_1_1_orbit_controller_instance.html" target="_top" xlink:title="OrbitControllerInstance">
<polygon fill="white" stroke="black" points="260.5,-962.5 260.5,-981.5 376.5,-981.5 376.5,-962.5 260.5,-962.5"/>
<text text-anchor="middle" x="318.5" y="-969.5" font-family="Helvetica,sans-Serif" font-size="10.00">OrbitControllerInstance</text>
</a>
</g>
</g>
<!-- Node1&#45;&gt;Node25 -->
<g id="edge16" class="edge">
<title>Node1&#45;&gt;Node25</title>
<path fill="none" stroke="midnightblue" d="M160.5,-1032.21C178.58,-1019.35 205.8,-1001.63 232,-991 241.44,-987.17 251.8,-984.04 261.94,-981.51"/>
<polygon fill="midnightblue" stroke="midnightblue" points="157.97,-1029.73 151.94,-1038.44 162.09,-1035.39 157.97,-1029.73"/>
</g>
<!-- Node26 -->
<g id="node18" class="node">
<title>Node26</title>
<g id="a_node18"><a xlink:href="../../dc/d66/classnap_1_1_ortho_controller_instance.html" target="_top" xlink:title="OrthoControllerInstance">
<polygon fill="white" stroke="black" points="259,-924.5 259,-943.5 378,-943.5 378,-924.5 259,-924.5"/>
<text text-anchor="middle" x="318.5" y="-931.5" font-family="Helvetica,sans-Serif" font-size="10.00">OrthoControllerInstance</text>
</a>
</g>
</g>
<!-- Node1&#45;&gt;Node26 -->
<g id="edge17" class="edge">
<title>Node1&#45;&gt;Node26</title>
<path fill="none" stroke="midnightblue" d="M151.81,-1030.07C167.72,-1008.33 197.52,-972.23 232,-953 240.23,-948.41 249.49,-944.93 258.8,-942.29"/>
<polygon fill="midnightblue" stroke="midnightblue" points="148.82,-1028.24 145.87,-1038.41 154.52,-1032.3 148.82,-1028.24"/>
</g>
<!-- Node27 -->
<g id="node19" class="node">
<title>Node27</title>
<g id="a_node19"><a xlink:href="../../db/d52/classnap_1_1_o_s_c_input_component_instance.html" target="_top" xlink:title="OSCInputComponentInstance">
<polygon fill="white" stroke="black" points="246,-886.5 246,-905.5 391,-905.5 391,-886.5 246,-886.5"/>
<text text-anchor="middle" x="318.5" y="-893.5" font-family="Helvetica,sans-Serif" font-size="10.00">OSCInputComponentInstance</text>
</a>
</g>
</g>
<!-- Node1&#45;&gt;Node27 -->
<g id="edge18" class="edge">
<title>Node1&#45;&gt;Node27</title>
<path fill="none" stroke="midnightblue" d="M147.25,-1028.94C160.21,-999.6 189.15,-943.75 232,-915 237.81,-911.1 244.29,-907.99 251.02,-905.51"/>
<polygon fill="midnightblue" stroke="midnightblue" points="143.9,-1027.88 143.2,-1038.46 150.34,-1030.62 143.9,-1027.88"/>
</g>
<!-- Node28 -->
<g id="node20" class="node">
<title>Node28</title>
<g id="a_node20"><a xlink:href="../../d6/d8f/classnap_1_1_parameter_blend_component_instance.html" target="_top" xlink:title="ParameterBlendComponentInstance">
<polygon fill="white" stroke="black" points="232,-848.5 232,-867.5 405,-867.5 405,-848.5 232,-848.5"/>
<text text-anchor="middle" x="318.5" y="-855.5" font-family="Helvetica,sans-Serif" font-size="10.00">ParameterBlendComponentInstance</text>
</a>
</g>
</g>
<!-- Node1&#45;&gt;Node28 -->
<g id="edge19" class="edge">
<title>Node1&#45;&gt;Node28</title>
<path fill="none" stroke="midnightblue" d="M144.24,-1028.67C154.08,-992.81 180.25,-916.08 232,-877 237.1,-873.15 242.82,-870.05 248.83,-867.57"/>
<polygon fill="midnightblue" stroke="midnightblue" points="140.84,-1027.84 141.7,-1038.4 147.61,-1029.61 140.84,-1027.84"/>
</g>
<!-- Node29 -->
<g id="node21" class="node">
<title>Node29</title>
<g id="a_node21"><a xlink:href="../../db/d0d/classnap_1_1_portal_component_instance.html" target="_top" xlink:title="PortalComponentInstance">
<polygon fill="white" stroke="black" points="254.5,-810.5 254.5,-829.5 382.5,-829.5 382.5,-810.5 254.5,-810.5"/>
<text text-anchor="middle" x="318.5" y="-817.5" font-family="Helvetica,sans-Serif" font-size="10.00">PortalComponentInstance</text>
</a>
</g>
</g>
<!-- Node1&#45;&gt;Node29 -->
<g id="edge20" class="edge">
<title>Node1&#45;&gt;Node29</title>
<path fill="none" stroke="midnightblue" d="M142.25,-1028.26C149.16,-986.45 171.27,-888.76 232,-839 238.47,-833.7 246.11,-829.8 254.11,-826.94"/>
<polygon fill="midnightblue" stroke="midnightblue" points="138.77,-1027.85 140.71,-1038.27 145.69,-1028.91 138.77,-1027.85"/>
</g>
<!-- Node30 -->
<g id="node22" class="node">
<title>Node30</title>
<g id="a_node22"><a xlink:href="../../d0/d33/classnap_1_1_python_script_component_instance.html" target="_top" xlink:title="PythonScriptComponentInstance">
<polygon fill="white" stroke="black" points="239,-772.5 239,-791.5 398,-791.5 398,-772.5 239,-772.5"/>
<text text-anchor="middle" x="318.5" y="-779.5" font-family="Helvetica,sans-Serif" font-size="10.00">PythonScriptComponentInstance</text>
</a>
</g>
</g>
<!-- Node1&#45;&gt;Node30 -->
<g id="edge21" class="edge">
<title>Node1&#45;&gt;Node30</title>
<path fill="none" stroke="midnightblue" d="M140.74,-1028.31C144.82,-981.31 161.92,-861.92 232,-801 236.36,-797.21 241.31,-794.13 246.58,-791.62"/>
<polygon fill="midnightblue" stroke="midnightblue" points="137.25,-1028.15 139.98,-1038.39 144.23,-1028.68 137.25,-1028.15"/>
</g>
<!-- Node31 -->
<g id="node23" class="node">
<title>Node31</title>
<g id="a_node23"><a xlink:href="../../dd/da0/classnap_1_1_renderable_component_instance.html" target="_top" xlink:title="RenderableComponentInstance">
<polygon fill="white" stroke="red" points="242.5,-734.5 242.5,-753.5 394.5,-753.5 394.5,-734.5 242.5,-734.5"/>
<text text-anchor="middle" x="318.5" y="-741.5" font-family="Helvetica,sans-Serif" font-size="10.00">RenderableComponentInstance</text>
</a>
</g>
</g>
<!-- Node1&#45;&gt;Node31 -->
<g id="edge22" class="edge">
<title>Node1&#45;&gt;Node31</title>
<path fill="none" stroke="midnightblue" d="M139.62,-1028.18C141.09,-976.24 152.56,-835.22 232,-763 236.16,-759.22 240.91,-756.13 245.98,-753.62"/>
<polygon fill="midnightblue" stroke="midnightblue" points="136.12,-1028.3 139.44,-1038.36 143.12,-1028.43 136.12,-1028.3"/>
</g>
<!-- Node39 -->
<g id="node24" class="node">
<title>Node39</title>
<g id="a_node24"><a xlink:href="../../df/d71/classnap_1_1_rotate_component_instance.html" target="_top" xlink:title="RotateComponentInstance">
<polygon fill="white" stroke="black" points="253,-696.5 253,-715.5 384,-715.5 384,-696.5 253,-696.5"/>
<text text-anchor="middle" x="318.5" y="-703.5" font-family="Helvetica,sans-Serif" font-size="10.00">RotateComponentInstance</text>
</a>
</g>
</g>
<!-- Node1&#45;&gt;Node39 -->
<g id="edge23" class="edge">
<title>Node1&#45;&gt;Node39</title>
<path fill="none" stroke="midnightblue" d="M138.74,-1028.24C137.73,-971.85 143,-808.79 232,-725 237.98,-719.37 245.24,-715.27 252.97,-712.31"/>
<polygon fill="midnightblue" stroke="midnightblue" points="135.24,-1028.42 139.02,-1038.32 142.24,-1028.23 135.24,-1028.42"/>
</g>
<!-- Node40 -->
<g id="node25" class="node">
<title>Node40</title>
<g id="a_node25"><a xlink:href="../../d2/d51/classnap_1_1_transform_component_instance.html" target="_top" xlink:title="TransformComponentInstance">
<polygon fill="white" stroke="black" points="245.5,-658.5 245.5,-677.5 391.5,-677.5 391.5,-658.5 245.5,-658.5"/>
<text text-anchor="middle" x="318.5" y="-665.5" font-family="Helvetica,sans-Serif" font-size="10.00">TransformComponentInstance</text>
</a>
</g>
</g>
<!-- Node1&#45;&gt;Node40 -->
<g id="edge24" class="edge">
<title>Node1&#45;&gt;Node40</title>
<path fill="none" stroke="midnightblue" d="M141.89,-1027.88C150.46,-959.2 181.8,-735.61 232,-687 235.93,-683.19 240.45,-680.08 245.31,-677.54"/>
<polygon fill="midnightblue" stroke="midnightblue" points="138.37,-1027.83 140.63,-1038.18 145.32,-1028.68 138.37,-1027.83"/>
</g>
<!-- Node41 -->
<g id="node26" class="node">
<title>Node41</title>
<g id="a_node26"><a xlink:href="../../d4/d37/classnap_1_1_web_socket_component_instance.html" target="_top" xlink:title="WebSocketComponentInstance">
<polygon fill="white" stroke="black" points="241.5,-620.5 241.5,-639.5 395.5,-639.5 395.5,-620.5 241.5,-620.5"/>
<text text-anchor="middle" x="318.5" y="-627.5" font-family="Helvetica,sans-Serif" font-size="10.00">WebSocketComponentInstance</text>
</a>
</g>
</g>
<!-- Node1&#45;&gt;Node41 -->
<g id="edge25" class="edge">
<title>Node1&#45;&gt;Node41</title>
<path fill="none" stroke="midnightblue" d="M141.34,-1028.16C148.49,-955.27 176.86,-703.64 232,-649 235.78,-645.25 240.13,-642.18 244.81,-639.66"/>
<polygon fill="midnightblue" stroke="midnightblue" points="137.84,-1027.98 140.37,-1038.27 144.81,-1028.65 137.84,-1027.98"/>
</g>
<!-- Node44 -->
<g id="node29" class="node">
<title>Node44</title>
<g id="a_node29"><a xlink:href="../../d4/d7f/classnap_1_1_component_ptr_instance_property_value.html" target="_top" xlink:title="ComponentPtrInstanceProperty\lValue">
<polygon fill="white" stroke="black" points="242.5,-571 242.5,-601 394.5,-601 394.5,-571 242.5,-571"/>
<text text-anchor="start" x="250.5" y="-589" font-family="Helvetica,sans-Serif" font-size="10.00">ComponentPtrInstanceProperty</text>
<text text-anchor="middle" x="318.5" y="-578" font-family="Helvetica,sans-Serif" font-size="10.00">Value</text>
</a>
</g>
</g>
<!-- Node43&#45;&gt;Node44 -->
<g id="edge28" class="edge">
<title>Node43&#45;&gt;Node44</title>
<path fill="none" stroke="midnightblue" d="M180.38,-535.87C185.68,-537.8 191.01,-539.86 196,-542 212.63,-549.13 215.23,-554.2 232,-561 240.89,-564.6 250.48,-567.92 259.93,-570.89"/>
<polygon fill="midnightblue" stroke="midnightblue" points="181.52,-532.56 170.92,-532.57 179.21,-539.17 181.52,-532.56"/>
</g>
<!-- Node45 -->
<g id="node30" class="node">
<title>Node45</title>
<g id="a_node30"><a xlink:href="../../d0/d4b/classnap_1_1_pointer_instance_property_value.html" target="_top" xlink:title="PointerInstancePropertyValue">
<polygon fill="white" stroke="black" points="245.5,-532.5 245.5,-551.5 391.5,-551.5 391.5,-532.5 245.5,-532.5"/>
<text text-anchor="middle" x="318.5" y="-539.5" font-family="Helvetica,sans-Serif" font-size="10.00">PointerInstancePropertyValue</text>
</a>
</g>
</g>
<!-- Node43&#45;&gt;Node45 -->
<g id="edge29" class="edge">
<title>Node43&#45;&gt;Node45</title>
<path fill="none" stroke="midnightblue" d="M206.34,-530.13C219.05,-531.49 232.4,-532.92 245.27,-534.29"/>
<polygon fill="midnightblue" stroke="midnightblue" points="206.62,-526.65 196.31,-529.06 205.88,-533.61 206.62,-526.65"/>
</g>
<!-- Node46 -->
<g id="node31" class="node">
<title>Node46</title>
<g id="a_node31"><a xlink:href="../../d9/dc4/classnap_1_1_typed_instance_property_value.html" target="_top" xlink:title="TypedInstancePropertyValue\&lt; T \&gt;">
<polygon fill="white" stroke="black" points="236.5,-494.5 236.5,-513.5 400.5,-513.5 400.5,-494.5 236.5,-494.5"/>
<text text-anchor="middle" x="318.5" y="-501.5" font-family="Helvetica,sans-Serif" font-size="10.00">TypedInstancePropertyValue&lt; T &gt;</text>
</a>
</g>
</g>
<!-- Node43&#45;&gt;Node46 -->
<g id="edge30" class="edge">
<title>Node43&#45;&gt;Node46</title>
<path fill="none" stroke="midnightblue" d="M206.33,-515.87C216.09,-514.82 226.24,-513.74 236.25,-512.67"/>
<polygon fill="midnightblue" stroke="midnightblue" points="205.88,-512.39 196.31,-516.94 206.62,-519.35 205.88,-512.39"/>
</g>
<!-- Node51 -->
<g id="node36" class="node">
<title>Node51</title>
<g id="a_node36"><a xlink:href="../../de/d18/classnap_1_1_a_p_i_base_value.html" target="_top" xlink:title="APIBaseValue">
<polygon fill="white" stroke="red" points="278.5,-456.5 278.5,-475.5 358.5,-475.5 358.5,-456.5 278.5,-456.5"/>
<text text-anchor="middle" x="318.5" y="-463.5" font-family="Helvetica,sans-Serif" font-size="10.00">APIBaseValue</text>
</a>
</g>
</g>
<!-- Node50&#45;&gt;Node51 -->
<g id="edge35" class="edge">
<title>Node50&#45;&gt;Node51</title>
<path fill="none" stroke="midnightblue" d="M148.63,-294.94C169.21,-337.3 218.47,-436.78 232,-447 245.23,-456.99 262.69,-461.92 278.38,-464.28"/>
<polygon fill="midnightblue" stroke="midnightblue" points="151.78,-293.4 144.27,-285.93 145.48,-296.45 151.78,-293.4"/>
</g>
<!-- Node53 -->
<g id="node37" class="node">
<title>Node53</title>
<g id="a_node37"><a xlink:href="../../de/dae/classnap_1_1_a_p_i_message.html" target="_top" xlink:title="APIMessage">
<polygon fill="white" stroke="black" points="282.5,-418.5 282.5,-437.5 354.5,-437.5 354.5,-418.5 282.5,-418.5"/>
<text text-anchor="middle" x="318.5" y="-425.5" font-family="Helvetica,sans-Serif" font-size="10.00">APIMessage</text>
</a>
</g>
</g>
<!-- Node50&#45;&gt;Node53 -->
<g id="edge36" class="edge">
<title>Node50&#45;&gt;Node53</title>
<path fill="none" stroke="midnightblue" d="M147.25,-295.06C160.21,-324.4 189.15,-380.25 232,-409 246.77,-418.91 265.9,-423.73 282.32,-426.04"/>
<polygon fill="midnightblue" stroke="midnightblue" points="150.34,-293.38 143.2,-285.54 143.9,-296.12 150.34,-293.38"/>
</g>
<!-- Node54 -->
<g id="node38" class="node">
<title>Node54</title>
<g id="a_node38"><a xlink:href="../../d3/d6c/classnap_1_1_a_p_i_signature.html" target="_top" xlink:title="APISignature">
<polygon fill="white" stroke="black" points="281.5,-380.5 281.5,-399.5 355.5,-399.5 355.5,-380.5 281.5,-380.5"/>
<text text-anchor="middle" x="318.5" y="-387.5" font-family="Helvetica,sans-Serif" font-size="10.00">APISignature</text>
</a>
</g>
</g>
<!-- Node50&#45;&gt;Node54 -->
<g id="edge37" class="edge">
<title>Node50&#45;&gt;Node54</title>
<path fill="none" stroke="midnightblue" d="M151.81,-293.93C167.72,-315.67 197.52,-351.77 232,-371 247.01,-379.37 265.42,-384.05 281.32,-386.67"/>
<polygon fill="midnightblue" stroke="midnightblue" points="154.52,-291.7 145.87,-285.59 148.82,-295.76 154.52,-291.7"/>
</g>
<!-- Node55 -->
<g id="node39" class="node">
<title>Node55</title>
<g id="a_node39"><a xlink:href="../../df/dac/classnap_1_1audio_1_1_audio_buffer_resource.html" target="_top" xlink:title="AudioBufferResource">
<polygon fill="white" stroke="red" points="265,-342.5 265,-361.5 372,-361.5 372,-342.5 265,-342.5"/>
<text text-anchor="middle" x="318.5" y="-349.5" font-family="Helvetica,sans-Serif" font-size="10.00">AudioBufferResource</text>
</a>
</g>
</g>
<!-- Node50&#45;&gt;Node55 -->
<g id="edge38" class="edge">
<title>Node50&#45;&gt;Node55</title>
<path fill="none" stroke="midnightblue" d="M160.5,-291.79C178.58,-304.65 205.8,-322.37 232,-333 242.29,-337.17 253.66,-340.51 264.66,-343.15"/>
<polygon fill="midnightblue" stroke="midnightblue" points="162.09,-288.61 151.94,-285.56 157.97,-294.27 162.09,-288.61"/>
</g>
<!-- Node58 -->
<g id="node40" class="node">
<title>Node58</title>
<g id="a_node40"><a xlink:href="../../d7/db2/classnap_1_1_base_vertex_attribute.html" target="_top" xlink:title="BaseVertexAttribute">
<polygon fill="white" stroke="red" points="266.5,-304.5 266.5,-323.5 370.5,-323.5 370.5,-304.5 266.5,-304.5"/>
<text text-anchor="middle" x="318.5" y="-311.5" font-family="Helvetica,sans-Serif" font-size="10.00">BaseVertexAttribute</text>
</a>
</g>
</g>
<!-- Node50&#45;&gt;Node58 -->
<g id="edge39" class="edge">
<title>Node50&#45;&gt;Node58</title>
<path fill="none" stroke="midnightblue" d="M177.49,-284.11C205.4,-290.07 243.41,-298.18 272.78,-304.45"/>
<polygon fill="midnightblue" stroke="midnightblue" points="178.22,-280.69 167.7,-282.02 176.75,-287.53 178.22,-280.69"/>
</g>
<!-- Node61 -->
<g id="node41" class="node">
<title>Node61</title>
<g id="a_node41"><a xlink:href="../../df/dfc/classnap_1_1_bitmap.html" target="_top" xlink:title="Bitmap">
<polygon fill="white" stroke="red" points="295,-266.5 295,-285.5 342,-285.5 342,-266.5 295,-266.5"/>
<text text-anchor="middle" x="318.5" y="-273.5" font-family="Helvetica,sans-Serif" font-size="10.00">Bitmap</text>
</a>
</g>
</g>
<!-- Node50&#45;&gt;Node61 -->
<g id="edge40" class="edge">
<title>Node50&#45;&gt;Node61</title>
<path fill="none" stroke="midnightblue" d="M177.74,-276C213.37,-276 265.3,-276 294.79,-276"/>
<polygon fill="midnightblue" stroke="midnightblue" points="177.7,-272.5 167.7,-276 177.7,-279.5 177.7,-272.5"/>
</g>
<!-- Node63 -->
<g id="node42" class="node">
<title>Node63</title>
<g id="a_node42"><a xlink:href="../../df/d37/classnap_1_1_calendar_item.html" target="_top" xlink:title="CalendarItem">
<polygon fill="white" stroke="red" points="281.5,-228.5 281.5,-247.5 355.5,-247.5 355.5,-228.5 281.5,-228.5"/>
<text text-anchor="middle" x="318.5" y="-235.5" font-family="Helvetica,sans-Serif" font-size="10.00">CalendarItem</text>
</a>
</g>
</g>
<!-- Node50&#45;&gt;Node63 -->
<g id="edge41" class="edge">
<title>Node50&#45;&gt;Node63</title>
<path fill="none" stroke="midnightblue" d="M177.62,-267.86C208.35,-261.3 251.26,-252.14 281.43,-245.7"/>
<polygon fill="midnightblue" stroke="midnightblue" points="176.75,-264.47 167.7,-269.98 178.22,-271.31 176.75,-264.47"/>
</g>
<!-- Node69 -->
<g id="node43" class="node">
<title>Node69</title>
<g id="a_node43"><a xlink:href="../../db/d6b/classnap_1_1_component.html" target="_top" xlink:title="Component">
<polygon fill="white" stroke="red" points="285.5,-190.5 285.5,-209.5 351.5,-209.5 351.5,-190.5 285.5,-190.5"/>
<text text-anchor="middle" x="318.5" y="-197.5" font-family="Helvetica,sans-Serif" font-size="10.00">Component</text>
</a>
</g>
</g>
<!-- Node50&#45;&gt;Node69 -->
<g id="edge42" class="edge">
<title>Node50&#45;&gt;Node69</title>
<path fill="none" stroke="midnightblue" d="M177.2,-266.2C183.73,-263.71 190.26,-260.67 196,-257 215.61,-244.48 211.76,-230.47 232,-219 248.27,-209.78 268.65,-205.03 285.42,-202.59"/>
<polygon fill="midnightblue" stroke="midnightblue" points="176.05,-262.89 167.73,-269.46 178.33,-269.51 176.05,-262.89"/>
</g>
<!-- Node109 -->
<g id="node44" class="node">
<title>Node109</title>
<g id="a_node44"><a xlink:href="../../d5/dc7/classnap_1_1_c_v_adapter.html" target="_top" xlink:title="CVAdapter">
<polygon fill="white" stroke="red" points="286.5,-152.5 286.5,-171.5 350.5,-171.5 350.5,-152.5 286.5,-152.5"/>
<text text-anchor="middle" x="318.5" y="-159.5" font-family="Helvetica,sans-Serif" font-size="10.00">CVAdapter</text>
</a>
</g>
</g>
<!-- Node50&#45;&gt;Node109 -->
<g id="edge43" class="edge">
<title>Node50&#45;&gt;Node109</title>
<path fill="none" stroke="midnightblue" d="M177.49,-267.93C184.19,-265.26 190.7,-261.71 196,-257 223.94,-232.18 202.79,-204.31 232,-181 247.21,-168.86 268.59,-164.11 286.16,-162.39"/>
<polygon fill="midnightblue" stroke="midnightblue" points="176.02,-264.74 167.67,-271.26 178.27,-271.37 176.02,-264.74"/>
</g>
<!-- Node113 -->
<g id="node45" class="node">
<title>Node113</title>
<g id="a_node45"><a xlink:href="../../d3/dc5/classnap_1_1_device.html" target="_top" xlink:title="Device">
<polygon fill="white" stroke="red" points="296,-114.5 296,-133.5 341,-133.5 341,-114.5 296,-114.5"/>
<text text-anchor="middle" x="318.5" y="-121.5" font-family="Helvetica,sans-Serif" font-size="10.00">Device</text>
</a>
</g>
</g>
<!-- Node50&#45;&gt;Node113 -->
<g id="edge44" class="edge">
<title>Node50&#45;&gt;Node113</title>
<path fill="none" stroke="midnightblue" d="M177.16,-268.85C184.12,-266.09 190.82,-262.28 196,-257 233.22,-219.08 192.83,-178.9 232,-143 249.26,-127.18 276.7,-123.52 295.82,-123.11"/>
<polygon fill="midnightblue" stroke="midnightblue" points="176.03,-265.53 167.63,-271.98 178.22,-272.18 176.03,-265.53"/>
</g>
<!-- Node129 -->
<g id="node46" class="node">
<title>Node129</title>
<g id="a_node46"><a xlink:href="../../dc/db6/classnap_1_1_entity.html" target="_top" xlink:title="Entity">
<polygon fill="white" stroke="black" points="297.5,-76.5 297.5,-95.5 339.5,-95.5 339.5,-76.5 297.5,-76.5"/>
<text text-anchor="middle" x="318.5" y="-83.5" font-family="Helvetica,sans-Serif" font-size="10.00">Entity</text>
</a>
</g>
</g>
<!-- Node50&#45;&gt;Node129 -->
<g id="edge45" class="edge">
<title>Node50&#45;&gt;Node129</title>
<path fill="none" stroke="midnightblue" d="M177.27,-269.22C184.28,-266.44 190.97,-262.52 196,-257 242.79,-205.71 182.57,-153.75 232,-105 249.21,-88.02 278.03,-84.81 297.39,-84.8"/>
<polygon fill="midnightblue" stroke="midnightblue" points="176.07,-265.93 167.64,-272.35 178.23,-272.58 176.07,-265.93"/>
</g>
<!-- Node130 -->
<g id="node47" class="node">
<title>Node130</title>
<g id="a_node47"><a xlink:href="../../da/dad/classnap_1_1_font.html" target="_top" xlink:title="Font">
<polygon fill="white" stroke="black" points="300.5,-38.5 300.5,-57.5 336.5,-57.5 336.5,-38.5 300.5,-38.5"/>
<text text-anchor="middle" x="318.5" y="-45.5" font-family="Helvetica,sans-Serif" font-size="10.00">Font</text>
</a>
</g>
</g>
<!-- Node50&#45;&gt;Node130 -->
<g id="edge46" class="edge">
<title>Node50&#45;&gt;Node130</title>
<path fill="none" stroke="midnightblue" d="M177.26,-269.47C184.33,-266.67 191.05,-262.69 196,-257 252.47,-192.2 172.19,-128.72 232,-67 249.78,-48.65 281.04,-46.21 300.44,-46.69"/>
<polygon fill="midnightblue" stroke="midnightblue" points="175.99,-266.2 167.54,-272.59 178.13,-272.87 175.99,-266.2"/>
</g>
<!-- Node131 -->
<g id="node48" class="node">
<title>Node131</title>
<g id="a_node48"><a xlink:href="../../d3/dd1/classnap_1_1_i_calendar.html" target="_top" xlink:title="ICalendar">
<polygon fill="white" stroke="red" points="290,-0.5 290,-19.5 347,-19.5 347,-0.5 290,-0.5"/>
<text text-anchor="middle" x="318.5" y="-7.5" font-family="Helvetica,sans-Serif" font-size="10.00">ICalendar</text>
</a>
</g>
</g>
<!-- Node50&#45;&gt;Node131 -->
<g id="edge47" class="edge">
<title>Node50&#45;&gt;Node131</title>
<path fill="none" stroke="midnightblue" d="M177.4,-269.59C184.46,-266.78 191.13,-262.76 196,-257 262.21,-178.63 161.74,-103.76 232,-29 246.58,-13.49 270.78,-9.26 289.72,-8.61"/>
<polygon fill="midnightblue" stroke="midnightblue" points="176.12,-266.32 167.67,-272.71 178.26,-272.99 176.12,-266.32"/>
</g>
</g>
</svg>
