<?xml version="1.0" encoding="UTF-8" standalone="no"?>
<!DOCTYPE svg PUBLIC "-//W3C//DTD SVG 1.1//EN"
 "http://www.w3.org/Graphics/SVG/1.1/DTD/svg11.dtd">
<!-- Generated by graphviz version 2.43.0 (0)
 -->
<!-- Title: BufferBindingNumericInstance Pages: 1 -->
<svg width="357pt" height="318pt"
 viewBox="0.00 0.00 357.00 318.00" xmlns="http://www.w3.org/2000/svg" xmlns:xlink="http://www.w3.org/1999/xlink">
<g id="graph0" class="graph" transform="scale(1 1) rotate(0) translate(4 314)">
<title>BufferBindingNumericInstance</title>
<polygon fill="white" stroke="transparent" points="-4,4 -4,-314 353,-314 353,4 -4,4"/>
<!-- Node1 -->
<g id="node1" class="node">
<title>Node1</title>
<g id="a_node1"><a xlink:title=" ">
<polygon fill="#bfbfbf" stroke="black" points="116.5,-0.5 116.5,-19.5 281.5,-19.5 281.5,-0.5 116.5,-0.5"/>
<text text-anchor="middle" x="199" y="-7.5" font-family="Helvetica,sans-Serif" font-size="10.00">BufferBindingNumericInstance</text>
</a>
</g>
</g>
<!-- Node2 -->
<g id="node2" class="node">
<title>Node2</title>
<g id="a_node2"><a xlink:href="../../da/d5c/classnap_1_1_buffer_binding_instance.html" target="_top" xlink:title=" ">
<polygon fill="white" stroke="black" points="62,-73 62,-92 186,-92 186,-73 62,-73"/>
<text text-anchor="middle" x="124" y="-80" font-family="Helvetica,sans-Serif" font-size="10.00">BufferBindingInstance</text>
</a>
</g>
</g>
<!-- Node2&#45;&gt;Node1 -->
<g id="edge1" class="edge">
<title>Node2&#45;&gt;Node1</title>
<path fill="none" stroke="midnightblue" d="M140.82,-65.69C155.92,-51.49 177.54,-31.17 189.73,-19.72"/>
<polygon fill="midnightblue" stroke="midnightblue" points="138.09,-63.46 133.2,-72.86 142.88,-68.56 138.09,-63.46"/>
</g>
<!-- Node3 -->
<g id="node3" class="node">
<title>Node3</title>
<g id="a_node3"><a xlink:href="../../dd/df4/classnap_1_1_g_p_u_buffer.html" target="_top" xlink:title=" ">
<polygon fill="white" stroke="black" points="90.5,-145.5 90.5,-164.5 157.5,-164.5 157.5,-145.5 90.5,-145.5"/>
<text text-anchor="middle" x="124" y="-152.5" font-family="Helvetica,sans-Serif" font-size="10.00">GPUBuffer</text>
</a>
</g>
</g>
<!-- Node3&#45;&gt;Node2 -->
<g id="edge2" class="edge">
<title>Node3&#45;&gt;Node2</title>
<path fill="none" stroke="#9a32cd" stroke-dasharray="5,2" d="M124,-134.94C124,-121.03 124,-102.82 124,-92.22"/>
<polygon fill="#9a32cd" stroke="#9a32cd" points="120.5,-135.36 124,-145.36 127.5,-135.36 120.5,-135.36"/>
<text text-anchor="middle" x="145.5" y="-119" font-family="Helvetica,sans-Serif" font-size="10.00"> mBuffer</text>
</g>
<!-- Node4 -->
<g id="node4" class="node">
<title>Node4</title>
<g id="a_node4"><a xlink:href="../../d9/dea/classnap_1_1_resource.html" target="_top" xlink:title=" ">
<polygon fill="white" stroke="black" points="0,-212.5 0,-231.5 62,-231.5 62,-212.5 0,-212.5"/>
<text text-anchor="middle" x="31" y="-219.5" font-family="Helvetica,sans-Serif" font-size="10.00">Resource</text>
</a>
</g>
</g>
<!-- Node4&#45;&gt;Node3 -->
<g id="edge3" class="edge">
<title>Node4&#45;&gt;Node3</title>
<path fill="none" stroke="midnightblue" d="M51.86,-206.42C70.25,-193.57 96.41,-175.28 111.66,-164.63"/>
<polygon fill="midnightblue" stroke="midnightblue" points="49.73,-203.64 43.54,-212.23 53.74,-209.37 49.73,-203.64"/>
</g>
<!-- Node5 -->
<g id="node5" class="node">
<title>Node5</title>
<g id="a_node5"><a xlink:href="../../de/d01/classnap_1_1rtti_1_1_object.html" target="_top" xlink:title=" ">
<polygon fill="white" stroke="black" points="7,-290.5 7,-309.5 55,-309.5 55,-290.5 7,-290.5"/>
<text text-anchor="middle" x="31" y="-297.5" font-family="Helvetica,sans-Serif" font-size="10.00">Object</text>
</a>
</g>
</g>
<!-- Node5&#45;&gt;Node4 -->
<g id="edge4" class="edge">
<title>Node5&#45;&gt;Node4</title>
<path fill="none" stroke="midnightblue" d="M31,-280.22C31,-264.7 31,-243.36 31,-231.62"/>
<polygon fill="midnightblue" stroke="midnightblue" points="27.5,-280.28 31,-290.28 34.5,-280.28 27.5,-280.28"/>
</g>
<!-- Node6 -->
<g id="node6" class="node">
<title>Node6</title>
<g id="a_node6"><a xlink:href="../../d5/dc6/classnap_1_1_render_service.html" target="_top" xlink:title=" ">
<polygon fill="white" stroke="black" points="80.5,-212.5 80.5,-231.5 167.5,-231.5 167.5,-212.5 80.5,-212.5"/>
<text text-anchor="middle" x="124" y="-219.5" font-family="Helvetica,sans-Serif" font-size="10.00">RenderService</text>
</a>
</g>
</g>
<!-- Node6&#45;&gt;Node3 -->
<g id="edge5" class="edge">
<title>Node6&#45;&gt;Node3</title>
<path fill="none" stroke="#9a32cd" stroke-dasharray="5,2" d="M124,-202.04C124,-189.67 124,-174.12 124,-164.63"/>
<polygon fill="#9a32cd" stroke="#9a32cd" points="120.5,-202.23 124,-212.23 127.5,-202.23 120.5,-202.23"/>
<text text-anchor="middle" x="166" y="-186" font-family="Helvetica,sans-Serif" font-size="10.00"> mRenderService</text>
</g>
<!-- Node7 -->
<g id="node7" class="node">
<title>Node7</title>
<g id="a_node7"><a xlink:href="../../d8/d8e/classnap_1_1_service.html" target="_top" xlink:title=" ">
<polygon fill="white" stroke="black" points="85.5,-290.5 85.5,-309.5 138.5,-309.5 138.5,-290.5 85.5,-290.5"/>
<text text-anchor="middle" x="112" y="-297.5" font-family="Helvetica,sans-Serif" font-size="10.00">Service</text>
</a>
</g>
</g>
<!-- Node7&#45;&gt;Node6 -->
<g id="edge6" class="edge">
<title>Node7&#45;&gt;Node6</title>
<path fill="none" stroke="midnightblue" d="M114.96,-280.22C117.42,-264.7 120.79,-243.36 122.64,-231.62"/>
<polygon fill="midnightblue" stroke="midnightblue" points="111.48,-279.86 113.38,-290.28 118.39,-280.95 111.48,-279.86"/>
</g>
<!-- Node8 -->
<g id="node8" class="node">
<title>Node8</title>
<g id="a_node8"><a xlink:href="../../de/d80/classnap_1_1_signal.html" target="_top" xlink:title=" ">
<polygon fill="white" stroke="black" points="156.5,-290.5 156.5,-309.5 333.5,-309.5 333.5,-290.5 156.5,-290.5"/>
<text text-anchor="middle" x="245" y="-297.5" font-family="Helvetica,sans-Serif" font-size="10.00">Signal&lt; nap::RenderWindow &amp; &gt;</text>
</a>
</g>
</g>
<!-- Node8&#45;&gt;Node6 -->
<g id="edge7" class="edge">
<title>Node8&#45;&gt;Node6</title>
<path fill="none" stroke="#9a32cd" stroke-dasharray="5,2" d="M222.35,-284.77C197.47,-269.15 158.32,-244.56 137.72,-231.62"/>
<polygon fill="#9a32cd" stroke="#9a32cd" points="220.79,-287.93 231.12,-290.28 224.51,-282 220.79,-287.93"/>
<text text-anchor="middle" x="243" y="-264" font-family="Helvetica,sans-Serif" font-size="10.00"> windowRemoved</text>
<text text-anchor="middle" x="243" y="-253" font-family="Helvetica,sans-Serif" font-size="10.00">windowAdded</text>
</g>
<!-- Node9 -->
<g id="node9" class="node">
<title>Node9</title>
<g id="a_node9"><a xlink:href="../../de/d80/classnap_1_1_signal.html" target="_top" xlink:title=" ">
<polygon fill="white" stroke="black" points="185.5,-212.5 185.5,-231.5 276.5,-231.5 276.5,-212.5 185.5,-212.5"/>
<text text-anchor="middle" x="231" y="-219.5" font-family="Helvetica,sans-Serif" font-size="10.00">Signal&lt; Args &gt;</text>
</a>
</g>
</g>
<!-- Node9&#45;&gt;Node3 -->
<g id="edge8" class="edge">
<title>Node9&#45;&gt;Node3</title>
<path fill="none" stroke="#9a32cd" stroke-dasharray="5,2" d="M223.83,-202.66C220.29,-195.66 215.39,-188.13 209,-183 194.39,-171.27 174.61,-164.59 157.8,-160.82"/>
<polygon fill="#9a32cd" stroke="#9a32cd" points="220.8,-204.47 228.05,-212.2 227.21,-201.64 220.8,-204.47"/>
<text text-anchor="middle" x="256.5" y="-186" font-family="Helvetica,sans-Serif" font-size="10.00"> bufferChanged</text>
</g>
<!-- Node10 -->
<g id="node10" class="node">
<title>Node10</title>
<g id="a_node10"><a xlink:href="../../d8/d24/classnap_1_1_shader_variable_value_array_declaration.html" target="_top" xlink:title=" ">
<polygon fill="white" stroke="black" points="204.5,-67.5 204.5,-97.5 347.5,-97.5 347.5,-67.5 204.5,-67.5"/>
<text text-anchor="start" x="212.5" y="-85.5" font-family="Helvetica,sans-Serif" font-size="10.00">ShaderVariableValueArray</text>
<text text-anchor="middle" x="276" y="-74.5" font-family="Helvetica,sans-Serif" font-size="10.00">Declaration</text>
</a>
</g>
</g>
<!-- Node10&#45;&gt;Node1 -->
<g id="edge9" class="edge">
<title>Node10&#45;&gt;Node1</title>
<path fill="none" stroke="#9a32cd" stroke-dasharray="5,2" d="M252.67,-60.14C237.94,-46.65 219.69,-29.94 208.71,-19.89"/>
<polygon fill="#9a32cd" stroke="#9a32cd" points="250.68,-63.06 260.42,-67.23 255.41,-57.9 250.68,-63.06"/>
<text text-anchor="middle" x="275" y="-41" font-family="Helvetica,sans-Serif" font-size="10.00"> mDeclaration</text>
</g>
<!-- Node11 -->
<g id="node11" class="node">
<title>Node11</title>
<g id="a_node11"><a xlink:href="../../dc/d72/classnap_1_1_shader_variable_declaration.html" target="_top" xlink:title=" ">
<polygon fill="white" stroke="black" points="203,-145.5 203,-164.5 349,-164.5 349,-145.5 203,-145.5"/>
<text text-anchor="middle" x="276" y="-152.5" font-family="Helvetica,sans-Serif" font-size="10.00">ShaderVariableDeclaration</text>
</a>
</g>
</g>
<!-- Node11&#45;&gt;Node10 -->
<g id="edge10" class="edge">
<title>Node11&#45;&gt;Node10</title>
<path fill="none" stroke="midnightblue" d="M276,-135.24C276,-123.41 276,-108.38 276,-97.58"/>
<polygon fill="midnightblue" stroke="midnightblue" points="272.5,-135.36 276,-145.36 279.5,-135.36 272.5,-135.36"/>
</g>
</g>
</svg>
