<?xml version="1.0" encoding="UTF-8" standalone="no"?>
<!DOCTYPE svg PUBLIC "-//W3C//DTD SVG 1.1//EN"
 "http://www.w3.org/Graphics/SVG/1.1/DTD/svg11.dtd">
<!-- Generated by graphviz version 2.48.0 (20210717.1556)
 -->
<!-- Title: BufferBindingNumericInstance Pages: 1 -->
<svg width="329pt" height="318pt"
 viewBox="0.00 0.00 328.50 318.00" xmlns="http://www.w3.org/2000/svg" xmlns:xlink="http://www.w3.org/1999/xlink">
<g id="graph0" class="graph" transform="scale(1 1) rotate(0) translate(4 314)">
<title>BufferBindingNumericInstance</title>
<polygon fill="white" stroke="transparent" points="-4,4 -4,-314 324.5,-314 324.5,4 -4,4"/>
<!-- Node3 -->
<g id="node1" class="node">
<title>Node3</title>
<polygon fill="#bfbfbf" stroke="black" points="112,-0.5 112,-19.5 258,-19.5 258,-0.5 112,-0.5"/>
<text text-anchor="middle" x="185" y="-7.5" font-family="Helvetica,sans-Serif" font-size="10.00">BufferBindingNumericInstance</text>
</g>
<!-- Node4 -->
<g id="node2" class="node">
<title>Node4</title>
<g id="a_node2"><a xlink:href="../../da/d5c/classnap_1_1_buffer_binding_instance.html" target="_top" xlink:title="BufferBindingInstance">
<polygon fill="white" stroke="black" points="61,-73 61,-92 171,-92 171,-73 61,-73"/>
<text text-anchor="middle" x="116" y="-80" font-family="Helvetica,sans-Serif" font-size="10.00">BufferBindingInstance</text>
</a>
</g>
</g>
<!-- Node4&#45;&gt;Node3 -->
<g id="edge1" class="edge">
<title>Node4&#45;&gt;Node3</title>
<path fill="none" stroke="midnightblue" d="M131.47,-65.69C145.37,-51.49 165.26,-31.17 176.47,-19.72"/>
<polygon fill="midnightblue" stroke="midnightblue" points="128.95,-63.26 124.46,-72.86 133.96,-68.16 128.95,-63.26"/>
</g>
<!-- Node5 -->
<g id="node3" class="node">
<title>Node5</title>
<g id="a_node3"><a xlink:href="../../dd/df4/classnap_1_1_g_p_u_buffer.html" target="_top" xlink:title="GPUBuffer">
<polygon fill="white" stroke="black" points="85,-145.5 85,-164.5 147,-164.5 147,-145.5 85,-145.5"/>
<text text-anchor="middle" x="116" y="-152.5" font-family="Helvetica,sans-Serif" font-size="10.00">GPUBuffer</text>
</a>
</g>
</g>
<!-- Node5&#45;&gt;Node4 -->
<g id="edge2" class="edge">
<title>Node5&#45;&gt;Node4</title>
<path fill="none" stroke="#9a32cd" stroke-dasharray="5,2" d="M116,-134.94C116,-121.03 116,-102.82 116,-92.22"/>
<polygon fill="#9a32cd" stroke="#9a32cd" points="112.5,-135.36 116,-145.36 119.5,-135.36 112.5,-135.36"/>
<text text-anchor="middle" x="134.5" y="-119" font-family="Helvetica,sans-Serif" font-size="10.00"> mBuffer</text>
</g>
<!-- Node6 -->
<g id="node4" class="node">
<title>Node6</title>
<g id="a_node4"><a xlink:href="../../d9/dea/classnap_1_1_resource.html" target="_top" xlink:title="Resource">
<polygon fill="white" stroke="black" points="0,-212.5 0,-231.5 58,-231.5 58,-212.5 0,-212.5"/>
<text text-anchor="middle" x="29" y="-219.5" font-family="Helvetica,sans-Serif" font-size="10.00">Resource</text>
</a>
</g>
</g>
<!-- Node6&#45;&gt;Node5 -->
<g id="edge3" class="edge">
<title>Node6&#45;&gt;Node5</title>
<path fill="none" stroke="midnightblue" d="M48.99,-206.07C66.16,-193.24 90.32,-175.19 104.45,-164.63"/>
<polygon fill="midnightblue" stroke="midnightblue" points="46.65,-203.44 40.73,-212.23 50.84,-209.05 46.65,-203.44"/>
</g>
<!-- Node7 -->
<g id="node5" class="node">
<title>Node7</title>
<g id="a_node5"><a xlink:href="../../de/d01/classnap_1_1rtti_1_1_object.html" target="_top" xlink:title="Object">
<polygon fill="white" stroke="black" points="6.5,-290.5 6.5,-309.5 51.5,-309.5 51.5,-290.5 6.5,-290.5"/>
<text text-anchor="middle" x="29" y="-297.5" font-family="Helvetica,sans-Serif" font-size="10.00">Object</text>
</a>
</g>
</g>
<!-- Node7&#45;&gt;Node6 -->
<g id="edge4" class="edge">
<title>Node7&#45;&gt;Node6</title>
<path fill="none" stroke="midnightblue" d="M29,-280.22C29,-264.7 29,-243.36 29,-231.62"/>
<polygon fill="midnightblue" stroke="midnightblue" points="25.5,-280.28 29,-290.28 32.5,-280.28 25.5,-280.28"/>
</g>
<!-- Node8 -->
<g id="node6" class="node">
<title>Node8</title>
<g id="a_node6"><a xlink:href="../../d5/dc6/classnap_1_1_render_service.html" target="_top" xlink:title="RenderService">
<polygon fill="white" stroke="black" points="76.5,-212.5 76.5,-231.5 155.5,-231.5 155.5,-212.5 76.5,-212.5"/>
<text text-anchor="middle" x="116" y="-219.5" font-family="Helvetica,sans-Serif" font-size="10.00">RenderService</text>
</a>
</g>
</g>
<!-- Node8&#45;&gt;Node5 -->
<g id="edge5" class="edge">
<title>Node8&#45;&gt;Node5</title>
<path fill="none" stroke="#9a32cd" stroke-dasharray="5,2" d="M116,-202.04C116,-189.67 116,-174.12 116,-164.63"/>
<polygon fill="#9a32cd" stroke="#9a32cd" points="112.5,-202.23 116,-212.23 119.5,-202.23 112.5,-202.23"/>
<text text-anchor="middle" x="153" y="-186" font-family="Helvetica,sans-Serif" font-size="10.00"> mRenderService</text>
</g>
<!-- Node9 -->
<g id="node7" class="node">
<title>Node9</title>
<g id="a_node7"><a xlink:href="../../d8/d8e/classnap_1_1_service.html" target="_top" xlink:title="Service">
<polygon fill="white" stroke="black" points="81,-290.5 81,-309.5 129,-309.5 129,-290.5 81,-290.5"/>
<text text-anchor="middle" x="105" y="-297.5" font-family="Helvetica,sans-Serif" font-size="10.00">Service</text>
</a>
</g>
</g>
<!-- Node9&#45;&gt;Node8 -->
<g id="edge6" class="edge">
<title>Node9&#45;&gt;Node8</title>
<path fill="none" stroke="midnightblue" d="M107.72,-280.22C109.96,-264.7 113.05,-243.36 114.75,-231.62"/>
<polygon fill="midnightblue" stroke="midnightblue" points="104.23,-279.88 106.26,-290.28 111.16,-280.89 104.23,-279.88"/>
</g>
<!-- Node10 -->
<g id="node8" class="node">
<title>Node10</title>
<g id="a_node8"><a xlink:href="../../de/d80/classnap_1_1_signal.html" target="_top" xlink:title="Signal\&lt; nap::RenderWindow &amp;\&gt;">
<polygon fill="white" stroke="black" points="147.5,-290.5 147.5,-309.5 302.5,-309.5 302.5,-290.5 147.5,-290.5"/>
<text text-anchor="middle" x="225" y="-297.5" font-family="Helvetica,sans-Serif" font-size="10.00">Signal&lt; nap::RenderWindow &amp;&gt;</text>
</a>
</g>
</g>
<!-- Node10&#45;&gt;Node8 -->
<g id="edge7" class="edge">
<title>Node10&#45;&gt;Node8</title>
<path fill="none" stroke="#9a32cd" stroke-dasharray="5,2" d="M204,-284.36C181.57,-268.72 146.75,-244.44 128.36,-231.62"/>
<polygon fill="#9a32cd" stroke="#9a32cd" points="202.29,-287.43 212.5,-290.28 206.3,-281.69 202.29,-287.43"/>
<text text-anchor="middle" x="221.5" y="-264" font-family="Helvetica,sans-Serif" font-size="10.00"> windowRemoved</text>
<text text-anchor="middle" x="221.5" y="-253" font-family="Helvetica,sans-Serif" font-size="10.00">windowAdded</text>
</g>
<!-- Node11 -->
<g id="node9" class="node">
<title>Node11</title>
<g id="a_node9"><a xlink:href="../../de/d80/classnap_1_1_signal.html" target="_top" xlink:title="Signal\&lt; Args \&gt;">
<polygon fill="white" stroke="black" points="174,-212.5 174,-231.5 256,-231.5 256,-212.5 174,-212.5"/>
<text text-anchor="middle" x="215" y="-219.5" font-family="Helvetica,sans-Serif" font-size="10.00">Signal&lt; Args &gt;</text>
</a>
</g>
</g>
<!-- Node11&#45;&gt;Node5 -->
<g id="edge8" class="edge">
<title>Node11&#45;&gt;Node5</title>
<path fill="none" stroke="#9a32cd" stroke-dasharray="5,2" d="M207.75,-202.75C204.2,-195.76 199.31,-188.23 193,-183 179.91,-172.16 162.17,-165.55 147.02,-161.58"/>
<polygon fill="#9a32cd" stroke="#9a32cd" points="204.73,-204.56 212,-212.26 211.12,-201.7 204.73,-204.56"/>
<text text-anchor="middle" x="235.5" y="-186" font-family="Helvetica,sans-Serif" font-size="10.00"> bufferChanged</text>
</g>
<!-- Node12 -->
<g id="node10" class="node">
<title>Node12</title>
<g id="a_node10"><a xlink:href="../../d8/d24/classnap_1_1_shader_variable_value_array_declaration.html" target="_top" xlink:title="ShaderVariableValueArray\lDeclaration">
<polygon fill="white" stroke="black" points="189.5,-67.5 189.5,-97.5 320.5,-97.5 320.5,-67.5 189.5,-67.5"/>
<text text-anchor="start" x="197.5" y="-85.5" font-family="Helvetica,sans-Serif" font-size="10.00">ShaderVariableValueArray</text>
<text text-anchor="middle" x="255" y="-74.5" font-family="Helvetica,sans-Serif" font-size="10.00">Declaration</text>
</a>
</g>
</g>
<!-- Node12&#45;&gt;Node3 -->
<g id="edge9" class="edge">
<title>Node12&#45;&gt;Node3</title>
<path fill="none" stroke="#9a32cd" stroke-dasharray="5,2" d="M233.79,-60.14C220.4,-46.65 203.81,-29.94 193.83,-19.89"/>
<polygon fill="#9a32cd" stroke="#9a32cd" points="231.3,-62.6 240.83,-67.23 236.27,-57.67 231.3,-62.6"/>
<text text-anchor="middle" x="253.5" y="-41" font-family="Helvetica,sans-Serif" font-size="10.00"> mDeclaration</text>
</g>
<!-- Node13 -->
<g id="node11" class="node">
<title>Node13</title>
<g id="a_node11"><a xlink:href="../../dc/d72/classnap_1_1_shader_variable_declaration.html" target="_top" xlink:title="ShaderVariableDeclaration">
<polygon fill="white" stroke="black" points="189.5,-145.5 189.5,-164.5 320.5,-164.5 320.5,-145.5 189.5,-145.5"/>
<text text-anchor="middle" x="255" y="-152.5" font-family="Helvetica,sans-Serif" font-size="10.00">ShaderVariableDeclaration</text>
</a>
</g>
</g>
<!-- Node13&#45;&gt;Node12 -->
<g id="edge10" class="edge">
<title>Node13&#45;&gt;Node12</title>
<path fill="none" stroke="midnightblue" d="M255,-135.24C255,-123.41 255,-108.38 255,-97.58"/>
<polygon fill="midnightblue" stroke="midnightblue" points="251.5,-135.36 255,-145.36 258.5,-135.36 251.5,-135.36"/>
</g>
</g>
</svg>
