<?xml version="1.0" encoding="UTF-8" standalone="no"?>
<!DOCTYPE svg PUBLIC "-//W3C//DTD SVG 1.1//EN"
 "http://www.w3.org/Graphics/SVG/1.1/DTD/svg11.dtd">
<!-- Generated by graphviz version 3.0.0 (20220226.1711)
 -->
<!-- Title: ComponentInstancePtrInitProxy&lt; TargetComponentType, SourceComponentType &gt; Pages: 1 -->
<svg width="356pt" height="185pt"
 viewBox="0.00 0.00 356.00 185.00" xmlns="http://www.w3.org/2000/svg" xmlns:xlink="http://www.w3.org/1999/xlink">
<g id="graph0" class="graph" transform="scale(1 1) rotate(0) translate(4 181)">
<title>ComponentInstancePtrInitProxy&lt; TargetComponentType, SourceComponentType &gt;</title>
<polygon fill="white" stroke="transparent" points="-4,4 -4,-181 352,-181 352,4 -4,4"/>
<!-- Node1 -->
<g id="node1" class="node">
<title>Node1</title>
<polygon fill="#bfbfbf" stroke="black" points="82,-0.5 82,-41.5 234,-41.5 234,-0.5 82,-0.5"/>
<text text-anchor="start" x="90" y="-29.5" font-family="Helvetica,sans-Serif" font-size="10.00">ComponentInstancePtrInit</text>
<text text-anchor="start" x="90" y="-18.5" font-family="Helvetica,sans-Serif" font-size="10.00">Proxy&lt; TargetComponentType,</text>
<text text-anchor="middle" x="158" y="-7.5" font-family="Helvetica,sans-Serif" font-size="10.00"> SourceComponentType &gt;</text>
</g>
<!-- Node2 -->
<g id="node2" class="node">
<title>Node2</title>
<g id="a_node2"><a xlink:href="../../d1/dcd/classnap_1_1_component_ptr.html" target="_top" xlink:title="ComponentPtr\&lt; TargetComponent\lType \&gt;">
<polygon fill="white" stroke="black" points="0,-89.5 0,-119.5 164,-119.5 164,-89.5 0,-89.5"/>
<text text-anchor="start" x="8" y="-107.5" font-family="Helvetica,sans-Serif" font-size="10.00">ComponentPtr&lt; TargetComponent</text>
<text text-anchor="middle" x="82" y="-96.5" font-family="Helvetica,sans-Serif" font-size="10.00">Type &gt;</text>
</a>
</g>
</g>
<!-- Node2&#45;&gt;Node1 -->
<g id="edge1" class="edge">
<title>Node2&#45;&gt;Node1</title>
<path fill="none" stroke="#9a32cd" stroke-dasharray="5,2" d="M78.8,-79.4C79,-72.68 80.35,-65.68 84,-60 88.76,-52.59 95.46,-46.55 102.89,-41.66"/>
<polygon fill="#9a32cd" stroke="#9a32cd" points="75.3,-79.65 79.24,-89.49 82.3,-79.34 75.3,-79.65"/>
<text text-anchor="middle" x="147.5" y="-63" font-family="Helvetica,sans-Serif" font-size="10.00"> mComponentMemberPointer</text>
</g>
<!-- Node3 -->
<g id="node3" class="node">
<title>Node3</title>
<g id="a_node3"><a xlink:href="../../da/d10/classnap_1_1_component_ptr_base.html" target="_top" xlink:title="ComponentPtrBase">
<polygon fill="white" stroke="black" points="31.5,-157.5 31.5,-176.5 132.5,-176.5 132.5,-157.5 31.5,-157.5"/>
<text text-anchor="middle" x="82" y="-164.5" font-family="Helvetica,sans-Serif" font-size="10.00">ComponentPtrBase</text>
</a>
</g>
</g>
<!-- Node3&#45;&gt;Node2 -->
<g id="edge2" class="edge">
<title>Node3&#45;&gt;Node2</title>
<path fill="none" stroke="midnightblue" d="M82,-147.22C82,-138.36 82,-127.96 82,-119.76"/>
<polygon fill="midnightblue" stroke="midnightblue" points="78.5,-147.33 82,-157.33 85.5,-147.33 78.5,-147.33"/>
</g>
<!-- Node4 -->
<g id="node4" class="node">
<title>Node4</title>
<g id="a_node4"><a xlink:href="../../d9/df2/classnap_1_1_component_instance.html" target="_top" xlink:title="ComponentInstance">
<polygon fill="white" stroke="black" points="182.5,-95 182.5,-114 285.5,-114 285.5,-95 182.5,-95"/>
<text text-anchor="middle" x="234" y="-102" font-family="Helvetica,sans-Serif" font-size="10.00">ComponentInstance</text>
</a>
</g>
</g>
<!-- Node4&#45;&gt;Node1 -->
<g id="edge3" class="edge">
<title>Node4&#45;&gt;Node1</title>
<path fill="none" stroke="#9a32cd" stroke-dasharray="5,2" d="M226.79,-85.53C222.9,-77.2 217.55,-67.5 211,-60 205.04,-53.18 197.63,-46.91 190.26,-41.51"/>
<polygon fill="#9a32cd" stroke="#9a32cd" points="223.61,-86.98 230.79,-94.77 230.04,-84.21 223.61,-86.98"/>
<text text-anchor="middle" x="283.5" y="-63" font-family="Helvetica,sans-Serif" font-size="10.00"> mSourceComponentInstance</text>
</g>
<!-- Node5 -->
<g id="node5" class="node">
<title>Node5</title>
<g id="a_node5"><a xlink:href="../../de/d01/classnap_1_1rtti_1_1_object.html" target="_top" xlink:title="Object">
<polygon fill="white" stroke="black" points="211.5,-157.5 211.5,-176.5 256.5,-176.5 256.5,-157.5 211.5,-157.5"/>
<text text-anchor="middle" x="234" y="-164.5" font-family="Helvetica,sans-Serif" font-size="10.00">Object</text>
</a>
</g>
</g>
<!-- Node5&#45;&gt;Node4 -->
<g id="edge4" class="edge">
<title>Node5&#45;&gt;Node4</title>
<path fill="none" stroke="midnightblue" d="M234,-147C234,-136 234,-122.68 234,-114.15"/>
<polygon fill="midnightblue" stroke="midnightblue" points="230.5,-147.33 234,-157.33 237.5,-147.33 230.5,-147.33"/>
</g>
</g>
</svg>
