<?xml version="1.0" encoding="UTF-8" standalone="no"?>
<!DOCTYPE svg PUBLIC "-//W3C//DTD SVG 1.1//EN"
 "http://www.w3.org/Graphics/SVG/1.1/DTD/svg11.dtd">
<!-- Generated by graphviz version 2.48.0 (20210717.1556)
 -->
<!-- Title: UniformValue Pages: 1 -->
<svg width="273pt" height="308pt"
 viewBox="0.00 0.00 272.50 308.00" xmlns="http://www.w3.org/2000/svg" xmlns:xlink="http://www.w3.org/1999/xlink">
<g id="graph0" class="graph" transform="scale(1 1) rotate(0) translate(4 304)">
<title>UniformValue</title>
<polygon fill="white" stroke="transparent" points="-4,4 -4,-304 268.5,-304 268.5,4 -4,4"/>
<!-- Node0 -->
<g id="node1" class="node">
<title>Node0</title>
<polygon fill="#bfbfbf" stroke="black" points="89,-112.5 89,-131.5 163,-131.5 163,-112.5 89,-112.5"/>
<text text-anchor="middle" x="126" y="-119.5" font-family="Helvetica,sans-Serif" font-size="10.00">UniformValue</text>
</g>
<!-- Node4 -->
<g id="node5" class="node">
<title>Node4</title>
<g id="a_node5"><a xlink:href="../../d5/d6a/classnap_1_1_typed_uniform_value.html" target="_top" xlink:title="TypedUniformValue\&lt; T \&gt;">
<polygon fill="white" stroke="black" points="0,-56.5 0,-75.5 124,-75.5 124,-56.5 0,-56.5"/>
<text text-anchor="middle" x="62" y="-63.5" font-family="Helvetica,sans-Serif" font-size="10.00">TypedUniformValue&lt; T &gt;</text>
</a>
</g>
</g>
<!-- Node0&#45;&gt;Node4 -->
<g id="edge4" class="edge">
<title>Node0&#45;&gt;Node4</title>
<path fill="none" stroke="midnightblue" d="M108.01,-105.82C96.54,-96.15 82.09,-83.95 72.47,-75.83"/>
<polygon fill="midnightblue" stroke="midnightblue" points="105.82,-108.55 115.72,-112.32 110.33,-103.2 105.82,-108.55"/>
</g>
<!-- Node5 -->
<g id="node6" class="node">
<title>Node5</title>
<g id="a_node6"><a xlink:href="../../d6/d98/classnap_1_1_uniform_value_array.html" target="_top" xlink:title="UniformValueArray">
<polygon fill="white" stroke="black" points="142,-56.5 142,-75.5 240,-75.5 240,-56.5 142,-56.5"/>
<text text-anchor="middle" x="191" y="-63.5" font-family="Helvetica,sans-Serif" font-size="10.00">UniformValueArray</text>
</a>
</g>
</g>
<!-- Node0&#45;&gt;Node5 -->
<g id="edge5" class="edge">
<title>Node0&#45;&gt;Node5</title>
<path fill="none" stroke="midnightblue" d="M144.27,-105.82C155.92,-96.15 170.6,-83.95 180.37,-75.83"/>
<polygon fill="midnightblue" stroke="midnightblue" points="141.9,-103.24 136.44,-112.32 146.37,-108.63 141.9,-103.24"/>
</g>
<!-- Node1 -->
<g id="node2" class="node">
<title>Node1</title>
<g id="a_node2"><a xlink:href="../../d7/da4/classnap_1_1_uniform.html" target="_top" xlink:title="Uniform">
<polygon fill="white" stroke="black" points="101,-168.5 101,-187.5 151,-187.5 151,-168.5 101,-168.5"/>
<text text-anchor="middle" x="126" y="-175.5" font-family="Helvetica,sans-Serif" font-size="10.00">Uniform</text>
</a>
</g>
</g>
<!-- Node1&#45;&gt;Node0 -->
<g id="edge1" class="edge">
<title>Node1&#45;&gt;Node0</title>
<path fill="none" stroke="midnightblue" d="M126,-157.8C126,-148.91 126,-138.78 126,-131.75"/>
<polygon fill="midnightblue" stroke="midnightblue" points="122.5,-158.08 126,-168.08 129.5,-158.08 122.5,-158.08"/>
</g>
<!-- Node2 -->
<g id="node3" class="node">
<title>Node2</title>
<g id="a_node3"><a xlink:href="../../d9/dea/classnap_1_1_resource.html" target="_top" xlink:title="Resource">
<polygon fill="white" stroke="black" points="97,-224.5 97,-243.5 155,-243.5 155,-224.5 97,-224.5"/>
<text text-anchor="middle" x="126" y="-231.5" font-family="Helvetica,sans-Serif" font-size="10.00">Resource</text>
</a>
</g>
</g>
<!-- Node2&#45;&gt;Node1 -->
<g id="edge2" class="edge">
<title>Node2&#45;&gt;Node1</title>
<path fill="none" stroke="midnightblue" d="M126,-213.8C126,-204.91 126,-194.78 126,-187.75"/>
<polygon fill="midnightblue" stroke="midnightblue" points="122.5,-214.08 126,-224.08 129.5,-214.08 122.5,-214.08"/>
</g>
<!-- Node3 -->
<g id="node4" class="node">
<title>Node3</title>
<g id="a_node4"><a xlink:href="../../de/d01/classnap_1_1rtti_1_1_object.html" target="_top" xlink:title="Object">
<polygon fill="white" stroke="black" points="103.5,-280.5 103.5,-299.5 148.5,-299.5 148.5,-280.5 103.5,-280.5"/>
<text text-anchor="middle" x="126" y="-287.5" font-family="Helvetica,sans-Serif" font-size="10.00">Object</text>
</a>
</g>
</g>
<!-- Node3&#45;&gt;Node2 -->
<g id="edge3" class="edge">
<title>Node3&#45;&gt;Node2</title>
<path fill="none" stroke="midnightblue" d="M126,-269.8C126,-260.91 126,-250.78 126,-243.75"/>
<polygon fill="midnightblue" stroke="midnightblue" points="122.5,-270.08 126,-280.08 129.5,-270.08 122.5,-270.08"/>
</g>
<!-- Node6 -->
<g id="node7" class="node">
<title>Node6</title>
<g id="a_node7"><a xlink:href="../../d2/d01/classnap_1_1_typed_uniform_value_array.html" target="_top" xlink:title="TypedUniformValueArray\&lt; T \&gt;">
<polygon fill="white" stroke="black" points="117.5,-0.5 117.5,-19.5 264.5,-19.5 264.5,-0.5 117.5,-0.5"/>
<text text-anchor="middle" x="191" y="-7.5" font-family="Helvetica,sans-Serif" font-size="10.00">TypedUniformValueArray&lt; T &gt;</text>
</a>
</g>
</g>
<!-- Node5&#45;&gt;Node6 -->
<g id="edge6" class="edge">
<title>Node5&#45;&gt;Node6</title>
<path fill="none" stroke="midnightblue" d="M191,-45.8C191,-36.91 191,-26.78 191,-19.75"/>
<polygon fill="midnightblue" stroke="midnightblue" points="187.5,-46.08 191,-56.08 194.5,-46.08 187.5,-46.08"/>
</g>
</g>
</svg>
