<?xml version="1.0" encoding="UTF-8" standalone="no"?>
<!DOCTYPE svg PUBLIC "-//W3C//DTD SVG 1.1//EN"
 "http://www.w3.org/Graphics/SVG/1.1/DTD/svg11.dtd">
<!-- Generated by graphviz version 3.0.0 (20220226.1711)
 -->
<!-- Title: PortalItemTextArea Pages: 1 -->
<svg width="406pt" height="309pt"
 viewBox="0.00 0.00 406.00 309.00" xmlns="http://www.w3.org/2000/svg" xmlns:xlink="http://www.w3.org/1999/xlink">
<g id="graph0" class="graph" transform="scale(1 1) rotate(0) translate(4 305)">
<title>PortalItemTextArea</title>
<polygon fill="white" stroke="transparent" points="-4,4 -4,-305 402,-305 402,4 -4,4"/>
<!-- Node5 -->
<g id="node1" class="node">
<title>Node5</title>
<polygon fill="#bfbfbf" stroke="black" points="148,-0.5 148,-19.5 248,-19.5 248,-0.5 148,-0.5"/>
<text text-anchor="middle" x="198" y="-7.5" font-family="Helvetica,sans-Serif" font-size="10.00">PortalItemTextArea</text>
</g>
<!-- Node6 -->
<g id="node2" class="node">
<title>Node6</title>
<polygon fill="white" stroke="#bfbfbf" points="141.5,-57.5 141.5,-87.5 254.5,-87.5 254.5,-57.5 141.5,-57.5"/>
<text text-anchor="start" x="149.5" y="-75.5" font-family="Helvetica,sans-Serif" font-size="10.00">PortalItemSimple&lt; std</text>
<text text-anchor="middle" x="198" y="-64.5" font-family="Helvetica,sans-Serif" font-size="10.00">::string &gt;</text>
</g>
<!-- Node6&#45;&gt;Node5 -->
<g id="edge1" class="edge">
<title>Node6&#45;&gt;Node5</title>
<path fill="none" stroke="midnightblue" d="M198,-47.35C198,-37.51 198,-26.78 198,-19.54"/>
<polygon fill="midnightblue" stroke="midnightblue" points="194.5,-47.47 198,-57.47 201.5,-47.47 194.5,-47.47"/>
</g>
<!-- Node7 -->
<g id="node3" class="node">
<title>Node7</title>
<g id="a_node3"><a xlink:href="../../da/d65/classnap_1_1_portal_item.html" target="_top" xlink:title="PortalItem">
<polygon fill="white" stroke="black" points="71.5,-141 71.5,-160 132.5,-160 132.5,-141 71.5,-141"/>
<text text-anchor="middle" x="102" y="-148" font-family="Helvetica,sans-Serif" font-size="10.00">PortalItem</text>
</a>
</g>
</g>
<!-- Node7&#45;&gt;Node6 -->
<g id="edge2" class="edge">
<title>Node7&#45;&gt;Node6</title>
<path fill="none" stroke="midnightblue" d="M121.22,-134.28C138.46,-120.64 163.54,-100.78 180.29,-87.52"/>
<polygon fill="midnightblue" stroke="midnightblue" points="118.68,-131.83 113.01,-140.78 123.03,-137.32 118.68,-131.83"/>
</g>
<!-- Node8 -->
<g id="node4" class="node">
<title>Node8</title>
<g id="a_node4"><a xlink:href="../../d9/dea/classnap_1_1_resource.html" target="_top" xlink:title="Resource">
<polygon fill="white" stroke="black" points="0,-219 0,-238 58,-238 58,-219 0,-219"/>
<text text-anchor="middle" x="29" y="-226" font-family="Helvetica,sans-Serif" font-size="10.00">Resource</text>
</a>
</g>
</g>
<!-- Node8&#45;&gt;Node7 -->
<g id="edge3" class="edge">
<title>Node8&#45;&gt;Node7</title>
<path fill="none" stroke="midnightblue" d="M44.49,-211.38C59.53,-195.72 81.79,-172.54 93.72,-160.12"/>
<polygon fill="midnightblue" stroke="midnightblue" points="41.78,-209.15 37.37,-218.78 46.83,-213.99 41.78,-209.15"/>
</g>
<!-- Node9 -->
<g id="node5" class="node">
<title>Node9</title>
<g id="a_node5"><a xlink:href="../../de/d01/classnap_1_1rtti_1_1_object.html" target="_top" xlink:title="Object">
<polygon fill="white" stroke="black" points="6.5,-281.5 6.5,-300.5 51.5,-300.5 51.5,-281.5 6.5,-281.5"/>
<text text-anchor="middle" x="29" y="-288.5" font-family="Helvetica,sans-Serif" font-size="10.00">Object</text>
</a>
</g>
</g>
<!-- Node9&#45;&gt;Node8 -->
<g id="edge4" class="edge">
<title>Node9&#45;&gt;Node8</title>
<path fill="none" stroke="midnightblue" d="M29,-271C29,-260 29,-246.68 29,-238.15"/>
<polygon fill="midnightblue" stroke="midnightblue" points="25.5,-271.33 29,-281.33 32.5,-271.33 25.5,-271.33"/>
</g>
<!-- Node10 -->
<g id="node6" class="node">
<title>Node10</title>
<g id="a_node6"><a xlink:href="../../de/d80/classnap_1_1_signal.html" target="_top" xlink:title="Signal\&lt; const nap::\lPortalItem &amp;\&gt;">
<polygon fill="white" stroke="black" points="76.5,-213.5 76.5,-243.5 177.5,-243.5 177.5,-213.5 76.5,-213.5"/>
<text text-anchor="start" x="84.5" y="-231.5" font-family="Helvetica,sans-Serif" font-size="10.00">Signal&lt; const nap::</text>
<text text-anchor="middle" x="127" y="-220.5" font-family="Helvetica,sans-Serif" font-size="10.00">PortalItem &amp;&gt;</text>
</a>
</g>
</g>
<!-- Node10&#45;&gt;Node7 -->
<g id="edge5" class="edge">
<title>Node10&#45;&gt;Node7</title>
<path fill="none" stroke="#9a32cd" stroke-dasharray="5,2" d="M119.14,-203.59C114.25,-188.74 108.27,-170.55 104.82,-160.06"/>
<polygon fill="#9a32cd" stroke="#9a32cd" points="115.85,-204.8 122.3,-213.2 122.5,-202.61 115.85,-204.8"/>
<text text-anchor="middle" x="146" y="-187" font-family="Helvetica,sans-Serif" font-size="10.00"> updateSignal</text>
</g>
<!-- Node11 -->
<g id="node7" class="node">
<title>Node11</title>
<polygon fill="white" stroke="#bfbfbf" points="150.5,-141 150.5,-160 245.5,-160 245.5,-141 150.5,-141"/>
<text text-anchor="middle" x="198" y="-148" font-family="Helvetica,sans-Serif" font-size="10.00">Slot&lt; std::string &gt;</text>
</g>
<!-- Node11&#45;&gt;Node6 -->
<g id="edge6" class="edge">
<title>Node11&#45;&gt;Node6</title>
<path fill="none" stroke="#9a32cd" stroke-dasharray="5,2" d="M198,-130.78C198,-117.4 198,-99.69 198,-87.52"/>
<polygon fill="#9a32cd" stroke="#9a32cd" points="194.5,-130.78 198,-140.78 201.5,-130.78 194.5,-130.78"/>
<text text-anchor="middle" x="250.5" y="-109" font-family="Helvetica,sans-Serif" font-size="10.00"> mParameterUpdateSlot</text>
</g>
<!-- Node12 -->
<g id="node8" class="node">
<title>Node12</title>
<polygon fill="white" stroke="#bfbfbf" points="264,-135.5 264,-165.5 398,-165.5 398,-135.5 264,-135.5"/>
<text text-anchor="start" x="272" y="-153.5" font-family="Helvetica,sans-Serif" font-size="10.00">ObjectPtr&lt; nap::Parameter</text>
<text text-anchor="middle" x="331" y="-142.5" font-family="Helvetica,sans-Serif" font-size="10.00">Simple&lt; std::string &gt; &gt;</text>
</g>
<!-- Node12&#45;&gt;Node6 -->
<g id="edge7" class="edge">
<title>Node12&#45;&gt;Node6</title>
<path fill="none" stroke="#9a32cd" stroke-dasharray="5,2" d="M321.88,-126.41C317.96,-118.99 312.72,-111.33 306,-106 291.27,-94.32 272.41,-86.82 254.57,-82.02"/>
<polygon fill="#9a32cd" stroke="#9a32cd" points="318.72,-127.91 326.14,-135.47 325.05,-124.93 318.72,-127.91"/>
<text text-anchor="middle" x="345.5" y="-109" font-family="Helvetica,sans-Serif" font-size="10.00"> mParameter</text>
</g>
<!-- Node13 -->
<g id="node9" class="node">
<title>Node13</title>
<g id="a_node9"><a xlink:href="../../d7/dcb/classnap_1_1rtti_1_1_object_ptr_base.html" target="_top" xlink:title="ObjectPtrBase">
<polygon fill="white" stroke="black" points="291,-219 291,-238 371,-238 371,-219 291,-219"/>
<text text-anchor="middle" x="331" y="-226" font-family="Helvetica,sans-Serif" font-size="10.00">ObjectPtrBase</text>
</a>
</g>
</g>
<!-- Node13&#45;&gt;Node12 -->
<g id="edge8" class="edge">
<title>Node13&#45;&gt;Node12</title>
<path fill="none" stroke="midnightblue" d="M331,-208.78C331,-195.4 331,-177.69 331,-165.52"/>
<polygon fill="midnightblue" stroke="midnightblue" points="327.5,-208.78 331,-218.78 334.5,-208.78 327.5,-208.78"/>
</g>
</g>
</svg>
