<?xml version="1.0" encoding="UTF-8" standalone="no"?>
<!DOCTYPE svg PUBLIC "-//W3C//DTD SVG 1.1//EN"
 "http://www.w3.org/Graphics/SVG/1.1/DTD/svg11.dtd">
<!-- Generated by graphviz version 2.43.0 (0)
 -->
<!-- Title: PortalItemTextArea Pages: 1 -->
<svg width="442pt" height="309pt"
 viewBox="0.00 0.00 441.50 309.00" xmlns="http://www.w3.org/2000/svg" xmlns:xlink="http://www.w3.org/1999/xlink">
<g id="graph0" class="graph" transform="scale(1 1) rotate(0) translate(4 305)">
<title>PortalItemTextArea</title>
<polygon fill="white" stroke="transparent" points="-4,4 -4,-305 437.5,-305 437.5,4 -4,4"/>
<!-- Node1 -->
<g id="node1" class="node">
<title>Node1</title>
<g id="a_node1"><a xlink:title=" ">
<polygon fill="#bfbfbf" stroke="black" points="160,-0.5 160,-19.5 270,-19.5 270,-0.5 160,-0.5"/>
<text text-anchor="middle" x="215" y="-7.5" font-family="Helvetica,sans-Serif" font-size="10.00">PortalItemTextArea</text>
</a>
</g>
</g>
<!-- Node2 -->
<g id="node2" class="node">
<title>Node2</title>
<g id="a_node2"><a xlink:title=" ">
<polygon fill="white" stroke="#bfbfbf" points="151,-57.5 151,-87.5 279,-87.5 279,-57.5 151,-57.5"/>
<text text-anchor="start" x="159" y="-75.5" font-family="Helvetica,sans-Serif" font-size="10.00">PortalItemSimple&lt; std</text>
<text text-anchor="middle" x="215" y="-64.5" font-family="Helvetica,sans-Serif" font-size="10.00">::string &gt;</text>
</a>
</g>
</g>
<!-- Node2&#45;&gt;Node1 -->
<g id="edge1" class="edge">
<title>Node2&#45;&gt;Node1</title>
<path fill="none" stroke="midnightblue" d="M215,-47.35C215,-37.51 215,-26.78 215,-19.54"/>
<polygon fill="midnightblue" stroke="midnightblue" points="211.5,-47.47 215,-57.47 218.5,-47.47 211.5,-47.47"/>
</g>
<!-- Node3 -->
<g id="node3" class="node">
<title>Node3</title>
<g id="a_node3"><a xlink:href="../../da/d65/classnap_1_1_portal_item.html" target="_top" xlink:title=" ">
<polygon fill="white" stroke="black" points="75,-141 75,-160 143,-160 143,-141 75,-141"/>
<text text-anchor="middle" x="109" y="-148" font-family="Helvetica,sans-Serif" font-size="10.00">PortalItem</text>
</a>
</g>
</g>
<!-- Node3&#45;&gt;Node2 -->
<g id="edge2" class="edge">
<title>Node3&#45;&gt;Node2</title>
<path fill="none" stroke="midnightblue" d="M129.45,-134.84C148.49,-121.19 176.69,-100.97 195.45,-87.52"/>
<polygon fill="midnightblue" stroke="midnightblue" points="127.25,-132.11 121.16,-140.78 131.33,-137.8 127.25,-132.11"/>
</g>
<!-- Node4 -->
<g id="node4" class="node">
<title>Node4</title>
<g id="a_node4"><a xlink:href="../../d9/dea/classnap_1_1_resource.html" target="_top" xlink:title=" ">
<polygon fill="white" stroke="black" points="0,-219 0,-238 62,-238 62,-219 0,-219"/>
<text text-anchor="middle" x="31" y="-226" font-family="Helvetica,sans-Serif" font-size="10.00">Resource</text>
</a>
</g>
</g>
<!-- Node4&#45;&gt;Node3 -->
<g id="edge3" class="edge">
<title>Node4&#45;&gt;Node3</title>
<path fill="none" stroke="midnightblue" d="M47.55,-211.38C63.62,-195.72 87.4,-172.54 100.16,-160.12"/>
<polygon fill="midnightblue" stroke="midnightblue" points="44.67,-209.3 39.95,-218.78 49.55,-214.31 44.67,-209.3"/>
</g>
<!-- Node5 -->
<g id="node5" class="node">
<title>Node5</title>
<g id="a_node5"><a xlink:href="../../de/d01/classnap_1_1rtti_1_1_object.html" target="_top" xlink:title=" ">
<polygon fill="white" stroke="black" points="7,-281.5 7,-300.5 55,-300.5 55,-281.5 7,-281.5"/>
<text text-anchor="middle" x="31" y="-288.5" font-family="Helvetica,sans-Serif" font-size="10.00">Object</text>
</a>
</g>
</g>
<!-- Node5&#45;&gt;Node4 -->
<g id="edge4" class="edge">
<title>Node5&#45;&gt;Node4</title>
<path fill="none" stroke="midnightblue" d="M31,-271C31,-260 31,-246.68 31,-238.15"/>
<polygon fill="midnightblue" stroke="midnightblue" points="27.5,-271.33 31,-281.33 34.5,-271.33 27.5,-271.33"/>
</g>
<!-- Node6 -->
<g id="node6" class="node">
<title>Node6</title>
<g id="a_node6"><a xlink:href="../../de/d80/classnap_1_1_signal.html" target="_top" xlink:title=" ">
<polygon fill="white" stroke="black" points="80.5,-213.5 80.5,-243.5 191.5,-243.5 191.5,-213.5 80.5,-213.5"/>
<text text-anchor="start" x="88.5" y="-231.5" font-family="Helvetica,sans-Serif" font-size="10.00">Signal&lt; const nap::</text>
<text text-anchor="middle" x="136" y="-220.5" font-family="Helvetica,sans-Serif" font-size="10.00">PortalItem &amp; &gt;</text>
</a>
</g>
</g>
<!-- Node6&#45;&gt;Node3 -->
<g id="edge5" class="edge">
<title>Node6&#45;&gt;Node3</title>
<path fill="none" stroke="#9a32cd" stroke-dasharray="5,2" d="M127.51,-203.59C122.23,-188.74 115.77,-170.55 112.04,-160.06"/>
<polygon fill="#9a32cd" stroke="#9a32cd" points="124.28,-204.95 130.92,-213.2 130.87,-202.61 124.28,-204.95"/>
<text text-anchor="middle" x="158.5" y="-187" font-family="Helvetica,sans-Serif" font-size="10.00"> updateSignal</text>
</g>
<!-- Node7 -->
<g id="node7" class="node">
<title>Node7</title>
<g id="a_node7"><a xlink:title=" ">
<polygon fill="white" stroke="#bfbfbf" points="161.5,-141 161.5,-160 268.5,-160 268.5,-141 161.5,-141"/>
<text text-anchor="middle" x="215" y="-148" font-family="Helvetica,sans-Serif" font-size="10.00">Slot&lt; std::string &gt;</text>
</a>
</g>
</g>
<!-- Node7&#45;&gt;Node2 -->
<g id="edge6" class="edge">
<title>Node7&#45;&gt;Node2</title>
<path fill="none" stroke="#9a32cd" stroke-dasharray="5,2" d="M215,-130.78C215,-117.4 215,-99.69 215,-87.52"/>
<polygon fill="#9a32cd" stroke="#9a32cd" points="211.5,-130.78 215,-140.78 218.5,-130.78 211.5,-130.78"/>
<text text-anchor="middle" x="274" y="-109" font-family="Helvetica,sans-Serif" font-size="10.00"> mParameterUpdateSlot</text>
</g>
<!-- Node8 -->
<g id="node8" class="node">
<title>Node8</title>
<g id="a_node8"><a xlink:title=" ">
<polygon fill="white" stroke="#bfbfbf" points="286.5,-135.5 286.5,-165.5 433.5,-165.5 433.5,-135.5 286.5,-135.5"/>
<text text-anchor="start" x="294.5" y="-153.5" font-family="Helvetica,sans-Serif" font-size="10.00">ObjectPtr&lt; nap::Parameter</text>
<text text-anchor="middle" x="360" y="-142.5" font-family="Helvetica,sans-Serif" font-size="10.00">Simple&lt; std::string &gt; &gt;</text>
</a>
</g>
</g>
<!-- Node8&#45;&gt;Node2 -->
<g id="edge7" class="edge">
<title>Node8&#45;&gt;Node2</title>
<path fill="none" stroke="#9a32cd" stroke-dasharray="5,2" d="M351.26,-125.8C347.55,-118.54 342.54,-111.12 336,-106 319.73,-93.26 298.88,-85.5 279.08,-80.77"/>
<polygon fill="#9a32cd" stroke="#9a32cd" points="348.27,-127.68 355.54,-135.39 354.66,-124.83 348.27,-127.68"/>
<text text-anchor="middle" x="378" y="-109" font-family="Helvetica,sans-Serif" font-size="10.00"> mParameter</text>
</g>
<!-- Node9 -->
<g id="node9" class="node">
<title>Node9</title>
<g id="a_node9"><a xlink:href="../../d7/dcb/classnap_1_1rtti_1_1_object_ptr_base.html" target="_top" xlink:title=" ">
<polygon fill="white" stroke="black" points="317,-219 317,-238 403,-238 403,-219 317,-219"/>
<text text-anchor="middle" x="360" y="-226" font-family="Helvetica,sans-Serif" font-size="10.00">ObjectPtrBase</text>
</a>
</g>
</g>
<!-- Node9&#45;&gt;Node8 -->
<g id="edge8" class="edge">
<title>Node9&#45;&gt;Node8</title>
<path fill="none" stroke="midnightblue" d="M360,-208.78C360,-195.4 360,-177.69 360,-165.52"/>
<polygon fill="midnightblue" stroke="midnightblue" points="356.5,-208.78 360,-218.78 363.5,-208.78 356.5,-208.78"/>
</g>
</g>
</svg>
