<?xml version="1.0" encoding="UTF-8" standalone="no"?>
<!DOCTYPE svg PUBLIC "-//W3C//DTD SVG 1.1//EN"
 "http://www.w3.org/Graphics/SVG/1.1/DTD/svg11.dtd">
<!-- Generated by graphviz version 2.48.0 (20210717.1556)
 -->
<!-- Title: OutputComponent Pages: 1 -->
<svg width="103pt" height="196pt"
 viewBox="0.00 0.00 103.00 196.00" xmlns="http://www.w3.org/2000/svg" xmlns:xlink="http://www.w3.org/1999/xlink">
<g id="graph0" class="graph" transform="scale(1 1) rotate(0) translate(4 192)">
<title>OutputComponent</title>
<polygon fill="white" stroke="transparent" points="-4,4 -4,-192 99,-192 99,4 -4,4"/>
<!-- Node0 -->
<g id="node1" class="node">
<title>Node0</title>
<polygon fill="#bfbfbf" stroke="black" points="0,-0.5 0,-19.5 95,-19.5 95,-0.5 0,-0.5"/>
<text text-anchor="middle" x="47.5" y="-7.5" font-family="Helvetica,sans-Serif" font-size="10.00">OutputComponent</text>
</g>
<!-- Node1 -->
<g id="node2" class="node">
<title>Node1</title>
<g id="a_node2"><a xlink:href="../../db/d6b/classnap_1_1_component.html" target="_top" xlink:title="Component">
<polygon fill="white" stroke="black" points="14.5,-56.5 14.5,-75.5 80.5,-75.5 80.5,-56.5 14.5,-56.5"/>
<text text-anchor="middle" x="47.5" y="-63.5" font-family="Helvetica,sans-Serif" font-size="10.00">Component</text>
</a>
</g>
</g>
<!-- Node1&#45;&gt;Node0 -->
<g id="edge1" class="edge">
<title>Node1&#45;&gt;Node0</title>
<path fill="none" stroke="midnightblue" d="M47.5,-45.8C47.5,-36.91 47.5,-26.78 47.5,-19.75"/>
<polygon fill="midnightblue" stroke="midnightblue" points="44,-46.08 47.5,-56.08 51,-46.08 44,-46.08"/>
</g>
<!-- Node2 -->
<g id="node3" class="node">
<title>Node2</title>
<g id="a_node3"><a xlink:href="../../d9/dea/classnap_1_1_resource.html" target="_top" xlink:title="Resource">
<polygon fill="white" stroke="black" points="18.5,-112.5 18.5,-131.5 76.5,-131.5 76.5,-112.5 18.5,-112.5"/>
<text text-anchor="middle" x="47.5" y="-119.5" font-family="Helvetica,sans-Serif" font-size="10.00">Resource</text>
</a>
</g>
</g>
<!-- Node2&#45;&gt;Node1 -->
<g id="edge2" class="edge">
<title>Node2&#45;&gt;Node1</title>
<path fill="none" stroke="midnightblue" d="M47.5,-101.8C47.5,-92.91 47.5,-82.78 47.5,-75.75"/>
<polygon fill="midnightblue" stroke="midnightblue" points="44,-102.08 47.5,-112.08 51,-102.08 44,-102.08"/>
</g>
<!-- Node3 -->
<g id="node4" class="node">
<title>Node3</title>
<g id="a_node4"><a xlink:href="../../de/d01/classnap_1_1rtti_1_1_object.html" target="_top" xlink:title="Object">
<polygon fill="white" stroke="black" points="25,-168.5 25,-187.5 70,-187.5 70,-168.5 25,-168.5"/>
<text text-anchor="middle" x="47.5" y="-175.5" font-family="Helvetica,sans-Serif" font-size="10.00">Object</text>
</a>
</g>
</g>
<!-- Node3&#45;&gt;Node2 -->
<g id="edge3" class="edge">
<title>Node3&#45;&gt;Node2</title>
<path fill="none" stroke="midnightblue" d="M47.5,-157.8C47.5,-148.91 47.5,-138.78 47.5,-131.75"/>
<polygon fill="midnightblue" stroke="midnightblue" points="44,-158.08 47.5,-168.08 51,-158.08 44,-158.08"/>
</g>
</g>
</svg>
