<?xml version="1.0" encoding="UTF-8" standalone="no"?>
<!DOCTYPE svg PUBLIC "-//W3C//DTD SVG 1.1//EN"
 "http://www.w3.org/Graphics/SVG/1.1/DTD/svg11.dtd">
<!-- Generated by graphviz version 3.0.0 (20220226.1711)
 -->
<!-- Title: Writer Pages: 1 -->
<svg width="166pt" height="84pt"
 viewBox="0.00 0.00 165.50 84.00" xmlns="http://www.w3.org/2000/svg" xmlns:xlink="http://www.w3.org/1999/xlink">
<g id="graph0" class="graph" transform="scale(1 1) rotate(0) translate(4 80)">
<title>Writer</title>
<polygon fill="white" stroke="transparent" points="-4,4 -4,-80 161.5,-80 161.5,4 -4,4"/>
<!-- Node0 -->
<g id="node1" class="node">
<title>Node0</title>
<polygon fill="#bfbfbf" stroke="black" points="58,-56.5 58,-75.5 101,-75.5 101,-56.5 58,-56.5"/>
<text text-anchor="middle" x="79.5" y="-63.5" font-family="Helvetica,sans-Serif" font-size="10.00">Writer</text>
</g>
<!-- Node1 -->
<g id="node2" class="node">
<title>Node1</title>
<g id="a_node2"><a xlink:href="../../dc/dae/classnap_1_1rtti_1_1_binary_writer.html" target="_top" xlink:title="BinaryWriter">
<polygon fill="white" stroke="black" points="0,-0.5 0,-19.5 71,-19.5 71,-0.5 0,-0.5"/>
<text text-anchor="middle" x="35.5" y="-7.5" font-family="Helvetica,sans-Serif" font-size="10.00">BinaryWriter</text>
</a>
</g>
</g>
<!-- Node0&#45;&gt;Node1 -->
<g id="edge1" class="edge">
<title>Node0&#45;&gt;Node1</title>
<path fill="none" stroke="midnightblue" d="M65.77,-48.14C58.1,-38.74 48.87,-27.4 42.63,-19.75"/>
<polygon fill="midnightblue" stroke="midnightblue" points="63.2,-50.54 72.23,-56.08 68.63,-46.12 63.2,-50.54"/>
</g>
<!-- Node2 -->
<g id="node3" class="node">
<title>Node2</title>
<g id="a_node3"><a xlink:href="../../d0/d76/classnap_1_1rtti_1_1_j_s_o_n_writer.html" target="_top" xlink:title="JSONWriter">
<polygon fill="white" stroke="black" points="89.5,-0.5 89.5,-19.5 157.5,-19.5 157.5,-0.5 89.5,-0.5"/>
<text text-anchor="middle" x="123.5" y="-7.5" font-family="Helvetica,sans-Serif" font-size="10.00">JSONWriter</text>
</a>
</g>
</g>
<!-- Node0&#45;&gt;Node2 -->
<g id="edge2" class="edge">
<title>Node0&#45;&gt;Node2</title>
<path fill="none" stroke="midnightblue" d="M93.23,-48.14C100.9,-38.74 110.13,-27.4 116.37,-19.75"/>
<polygon fill="midnightblue" stroke="midnightblue" points="90.37,-46.12 86.77,-56.08 95.8,-50.54 90.37,-46.12"/>
</g>
</g>
</svg>
