<?xml version="1.0" encoding="UTF-8" standalone="no"?>
<!DOCTYPE svg PUBLIC "-//W3C//DTD SVG 1.1//EN"
 "http://www.w3.org/Graphics/SVG/1.1/DTD/svg11.dtd">
<!-- Generated by graphviz version 3.0.0 (20220226.1711)
 -->
<!-- Title: RenderToTextureComponent Pages: 1 -->
<svg width="977pt" height="142pt"
 viewBox="0.00 0.00 977.00 142.00" xmlns="http://www.w3.org/2000/svg" xmlns:xlink="http://www.w3.org/1999/xlink">
<g id="graph0" class="graph" transform="scale(1 1) rotate(0) translate(4 138)">
<title>RenderToTextureComponent</title>
<polygon fill="white" stroke="transparent" points="-4,4 -4,-138 973,-138 973,4 -4,4"/>
<!-- Node5 -->
<g id="node1" class="node">
<title>Node5</title>
<polygon fill="#bfbfbf" stroke="black" points="829,-57.5 829,-76.5 969,-76.5 969,-57.5 829,-57.5"/>
<text text-anchor="middle" x="899" y="-64.5" font-family="Helvetica,sans-Serif" font-size="10.00">RenderToTextureComponent</text>
</g>
<!-- Node6 -->
<g id="node2" class="node">
<title>Node6</title>
<g id="a_node2"><a xlink:href="../../d1/d2c/classnap_1_1_renderable_component.html" target="_top" xlink:title="RenderableComponent">
<polygon fill="white" stroke="black" points="547,-114.5 547,-133.5 662,-133.5 662,-114.5 547,-114.5"/>
<text text-anchor="middle" x="604.5" y="-121.5" font-family="Helvetica,sans-Serif" font-size="10.00">RenderableComponent</text>
</a>
</g>
</g>
<!-- Node6&#45;&gt;Node5 -->
<g id="edge1" class="edge">
<title>Node6&#45;&gt;Node5</title>
<path fill="none" stroke="midnightblue" d="M672.29,-118.08C712.77,-113.71 765.25,-106.64 811,-96 832.4,-91.02 856.01,-82.98 873.23,-76.63"/>
<polygon fill="midnightblue" stroke="midnightblue" points="671.85,-114.61 662.27,-119.14 672.58,-121.57 671.85,-114.61"/>
</g>
<!-- Node7 -->
<g id="node3" class="node">
<title>Node7</title>
<g id="a_node3"><a xlink:href="../../db/d6b/classnap_1_1_component.html" target="_top" xlink:title="Component">
<polygon fill="white" stroke="black" points="232,-114.5 232,-133.5 298,-133.5 298,-114.5 232,-114.5"/>
<text text-anchor="middle" x="265" y="-121.5" font-family="Helvetica,sans-Serif" font-size="10.00">Component</text>
</a>
</g>
</g>
<!-- Node7&#45;&gt;Node6 -->
<g id="edge2" class="edge">
<title>Node7&#45;&gt;Node6</title>
<path fill="none" stroke="midnightblue" d="M308.36,-124C368.7,-124 479.54,-124 546.88,-124"/>
<polygon fill="midnightblue" stroke="midnightblue" points="308.06,-120.5 298.06,-124 308.06,-127.5 308.06,-120.5"/>
</g>
<!-- Node8 -->
<g id="node4" class="node">
<title>Node8</title>
<g id="a_node4"><a xlink:href="../../d9/dea/classnap_1_1_resource.html" target="_top" xlink:title="Resource">
<polygon fill="white" stroke="black" points="93,-114.5 93,-133.5 151,-133.5 151,-114.5 93,-114.5"/>
<text text-anchor="middle" x="122" y="-121.5" font-family="Helvetica,sans-Serif" font-size="10.00">Resource</text>
</a>
</g>
</g>
<!-- Node8&#45;&gt;Node7 -->
<g id="edge3" class="edge">
<title>Node8&#45;&gt;Node7</title>
<path fill="none" stroke="midnightblue" d="M161.26,-124C183.39,-124 210.92,-124 231.91,-124"/>
<polygon fill="midnightblue" stroke="midnightblue" points="161.19,-120.5 151.19,-124 161.19,-127.5 161.19,-120.5"/>
</g>
<!-- Node9 -->
<g id="node5" class="node">
<title>Node9</title>
<g id="a_node5"><a xlink:href="../../de/d01/classnap_1_1rtti_1_1_object.html" target="_top" xlink:title="Object">
<polygon fill="white" stroke="black" points="0,-114.5 0,-133.5 45,-133.5 45,-114.5 0,-114.5"/>
<text text-anchor="middle" x="22.5" y="-121.5" font-family="Helvetica,sans-Serif" font-size="10.00">Object</text>
</a>
</g>
</g>
<!-- Node9&#45;&gt;Node8 -->
<g id="edge4" class="edge">
<title>Node9&#45;&gt;Node8</title>
<path fill="none" stroke="midnightblue" d="M55.26,-124C67.34,-124 81.02,-124 92.75,-124"/>
<polygon fill="midnightblue" stroke="midnightblue" points="55.14,-120.5 45.14,-124 55.14,-127.5 55.14,-120.5"/>
</g>
<!-- Node10 -->
<g id="node6" class="node">
<title>Node10</title>
<g id="a_node6"><a xlink:href="../../d6/db8/classnap_1_1_r_g_b_a_color.html" target="_top" xlink:title="RGBAColor\&lt; uint8 \&gt;">
<polygon fill="white" stroke="black" points="551.5,-76.5 551.5,-95.5 657.5,-95.5 657.5,-76.5 551.5,-76.5"/>
<text text-anchor="middle" x="604.5" y="-83.5" font-family="Helvetica,sans-Serif" font-size="10.00">RGBAColor&lt; uint8 &gt;</text>
</a>
</g>
</g>
<!-- Node10&#45;&gt;Node5 -->
<g id="edge5" class="edge">
<title>Node10&#45;&gt;Node5</title>
<path fill="none" stroke="#9a32cd" stroke-dasharray="5,2" d="M667.89,-81.95C715.14,-78.88 780.01,-74.66 828.83,-71.49"/>
<polygon fill="#9a32cd" stroke="#9a32cd" points="667.55,-78.46 657.79,-82.6 668,-85.45 667.55,-78.46"/>
<text text-anchor="middle" x="749" y="-84" font-family="Helvetica,sans-Serif" font-size="10.00"> mClearColor</text>
</g>
<!-- Node11 -->
<g id="node7" class="node">
<title>Node11</title>
<g id="a_node7"><a xlink:href="../../d6/d3d/classnap_1_1_color.html" target="_top" xlink:title="Color\&lt; uint8, 4 \&gt;">
<polygon fill="white" stroke="black" points="220.5,-76.5 220.5,-95.5 309.5,-95.5 309.5,-76.5 220.5,-76.5"/>
<text text-anchor="middle" x="265" y="-83.5" font-family="Helvetica,sans-Serif" font-size="10.00">Color&lt; uint8, 4 &gt;</text>
</a>
</g>
</g>
<!-- Node11&#45;&gt;Node10 -->
<g id="edge6" class="edge">
<title>Node11&#45;&gt;Node10</title>
<path fill="none" stroke="midnightblue" d="M319.99,-86C383.56,-86 488.4,-86 551.22,-86"/>
<polygon fill="midnightblue" stroke="midnightblue" points="319.78,-82.5 309.78,-86 319.78,-89.5 319.78,-82.5"/>
</g>
<!-- Node12 -->
<g id="node8" class="node">
<title>Node12</title>
<g id="a_node8"><a xlink:href="../../d8/d6a/classnap_1_1_base_color.html" target="_top" xlink:title="BaseColor">
<polygon fill="white" stroke="black" points="91,-76.5 91,-95.5 153,-95.5 153,-76.5 91,-76.5"/>
<text text-anchor="middle" x="122" y="-83.5" font-family="Helvetica,sans-Serif" font-size="10.00">BaseColor</text>
</a>
</g>
</g>
<!-- Node12&#45;&gt;Node11 -->
<g id="edge7" class="edge">
<title>Node12&#45;&gt;Node11</title>
<path fill="none" stroke="midnightblue" d="M163.34,-86C181.19,-86 202.22,-86 220.42,-86"/>
<polygon fill="midnightblue" stroke="midnightblue" points="163.25,-82.5 153.25,-86 163.25,-89.5 163.25,-82.5"/>
</g>
<!-- Node13 -->
<g id="node9" class="node">
<title>Node13</title>
<g id="a_node9"><a xlink:href="../../d6/d4f/classnap_1_1_material_instance_resource.html" target="_top" xlink:title="MaterialInstanceResource">
<polygon fill="white" stroke="black" points="540,-38.5 540,-57.5 669,-57.5 669,-38.5 540,-38.5"/>
<text text-anchor="middle" x="604.5" y="-45.5" font-family="Helvetica,sans-Serif" font-size="10.00">MaterialInstanceResource</text>
</a>
</g>
</g>
<!-- Node13&#45;&gt;Node5 -->
<g id="edge8" class="edge">
<title>Node13&#45;&gt;Node5</title>
<path fill="none" stroke="#9a32cd" stroke-dasharray="5,2" d="M679.65,-51.28C718.75,-53.19 767.49,-55.84 811,-59 816.75,-59.42 822.71,-59.89 828.69,-60.39"/>
<polygon fill="#9a32cd" stroke="#9a32cd" points="679.57,-47.78 669.41,-50.79 679.23,-54.77 679.57,-47.78"/>
<text text-anchor="middle" x="749" y="-62" font-family="Helvetica,sans-Serif" font-size="10.00"> mMaterialInstanceResource</text>
</g>
<!-- Node14 -->
<g id="node10" class="node">
<title>Node14</title>
<g id="a_node10"><a xlink:href="../../dd/d7c/classnap_1_1rtti_1_1_object_ptr.html" target="_top" xlink:title="ObjectPtr\&lt; nap::Material \&gt;">
<polygon fill="white" stroke="black" points="199,-38.5 199,-57.5 331,-57.5 331,-38.5 199,-38.5"/>
<text text-anchor="middle" x="265" y="-45.5" font-family="Helvetica,sans-Serif" font-size="10.00">ObjectPtr&lt; nap::Material &gt;</text>
</a>
</g>
</g>
<!-- Node14&#45;&gt;Node13 -->
<g id="edge9" class="edge">
<title>Node14&#45;&gt;Node13</title>
<path fill="none" stroke="#9a32cd" stroke-dasharray="5,2" d="M341.19,-48C400.85,-48 483.32,-48 539.77,-48"/>
<polygon fill="#9a32cd" stroke="#9a32cd" points="341.07,-44.5 331.07,-48 341.07,-51.5 341.07,-44.5"/>
<text text-anchor="middle" x="435.5" y="-51" font-family="Helvetica,sans-Serif" font-size="10.00"> mMaterial</text>
</g>
<!-- Node15 -->
<g id="node11" class="node">
<title>Node15</title>
<g id="a_node11"><a xlink:href="../../d7/dcb/classnap_1_1rtti_1_1_object_ptr_base.html" target="_top" xlink:title="ObjectPtrBase">
<polygon fill="white" stroke="black" points="82,-19.5 82,-38.5 162,-38.5 162,-19.5 82,-19.5"/>
<text text-anchor="middle" x="122" y="-26.5" font-family="Helvetica,sans-Serif" font-size="10.00">ObjectPtrBase</text>
</a>
</g>
</g>
<!-- Node15&#45;&gt;Node14 -->
<g id="edge10" class="edge">
<title>Node15&#45;&gt;Node14</title>
<path fill="none" stroke="midnightblue" d="M172.4,-35.66C180.91,-36.8 189.88,-38.01 198.73,-39.21"/>
<polygon fill="midnightblue" stroke="midnightblue" points="172.65,-32.16 162.28,-34.29 171.72,-39.1 172.65,-32.16"/>
</g>
<!-- Node16 -->
<g id="node12" class="node">
<title>Node16</title>
<g id="a_node12"><a xlink:href="../../dd/d7c/classnap_1_1rtti_1_1_object_ptr.html" target="_top" xlink:title="ObjectPtr\&lt; nap::RenderTexture2D \&gt;">
<polygon fill="white" stroke="black" points="349,-0.5 349,-19.5 522,-19.5 522,-0.5 349,-0.5"/>
<text text-anchor="middle" x="435.5" y="-7.5" font-family="Helvetica,sans-Serif" font-size="10.00">ObjectPtr&lt; nap::RenderTexture2D &gt;</text>
</a>
</g>
</g>
<!-- Node15&#45;&gt;Node16 -->
<g id="edge12" class="edge">
<title>Node15&#45;&gt;Node16</title>
<path fill="none" stroke="midnightblue" d="M172.13,-26C219.44,-23.12 291.99,-18.69 348.82,-15.23"/>
<polygon fill="midnightblue" stroke="midnightblue" points="171.9,-22.51 162.14,-26.61 172.33,-29.5 171.9,-22.51"/>
</g>
<!-- Node16&#45;&gt;Node5 -->
<g id="edge11" class="edge">
<title>Node16&#45;&gt;Node5</title>
<path fill="none" stroke="#9a32cd" stroke-dasharray="5,2" d="M532.32,-9.56C574.38,-10.33 624.28,-12.55 669,-18 733.03,-25.81 747.93,-34.45 811,-48 825.21,-51.05 840.71,-54.42 854.64,-57.47"/>
<polygon fill="#9a32cd" stroke="#9a32cd" points="532.13,-6.06 522.08,-9.4 532.02,-13.06 532.13,-6.06"/>
<text text-anchor="middle" x="604.5" y="-21" font-family="Helvetica,sans-Serif" font-size="10.00"> mOutputTexture</text>
</g>
</g>
</svg>
