<?xml version="1.0" encoding="UTF-8" standalone="no"?>
<!DOCTYPE svg PUBLIC "-//W3C//DTD SVG 1.1//EN"
 "http://www.w3.org/Graphics/SVG/1.1/DTD/svg11.dtd">
<!-- Generated by graphviz version 3.0.0 (20220226.1711)
 -->
<!-- Title: RotateComponentInstance Pages: 1 -->
<svg width="218pt" height="152pt"
 viewBox="0.00 0.00 218.00 152.00" xmlns="http://www.w3.org/2000/svg" xmlns:xlink="http://www.w3.org/1999/xlink">
<g id="graph0" class="graph" transform="scale(1 1) rotate(0) translate(4 148)">
<title>RotateComponentInstance</title>
<polygon fill="white" stroke="transparent" points="-4,4 -4,-148 214,-148 214,4 -4,4"/>
<!-- Node3 -->
<g id="node1" class="node">
<title>Node3</title>
<polygon fill="#bfbfbf" stroke="black" points="71,-0.5 71,-19.5 202,-19.5 202,-0.5 71,-0.5"/>
<text text-anchor="middle" x="136.5" y="-7.5" font-family="Helvetica,sans-Serif" font-size="10.00">RotateComponentInstance</text>
</g>
<!-- Node4 -->
<g id="node2" class="node">
<title>Node4</title>
<g id="a_node2"><a xlink:href="../../d9/df2/classnap_1_1_component_instance.html" target="_top" xlink:title="ComponentInstance">
<polygon fill="white" stroke="black" points="0,-67.5 0,-86.5 103,-86.5 103,-67.5 0,-67.5"/>
<text text-anchor="middle" x="51.5" y="-74.5" font-family="Helvetica,sans-Serif" font-size="10.00">ComponentInstance</text>
</a>
</g>
</g>
<!-- Node4&#45;&gt;Node3 -->
<g id="edge1" class="edge">
<title>Node4&#45;&gt;Node3</title>
<path fill="none" stroke="midnightblue" d="M71.03,-61.07C87.8,-48.24 111.41,-30.19 125.22,-19.63"/>
<polygon fill="midnightblue" stroke="midnightblue" points="68.78,-58.38 62.96,-67.23 73.03,-63.94 68.78,-58.38"/>
</g>
<!-- Node5 -->
<g id="node3" class="node">
<title>Node5</title>
<g id="a_node3"><a xlink:href="../../de/d01/classnap_1_1rtti_1_1_object.html" target="_top" xlink:title="Object">
<polygon fill="white" stroke="black" points="29,-124.5 29,-143.5 74,-143.5 74,-124.5 29,-124.5"/>
<text text-anchor="middle" x="51.5" y="-131.5" font-family="Helvetica,sans-Serif" font-size="10.00">Object</text>
</a>
</g>
</g>
<!-- Node5&#45;&gt;Node4 -->
<g id="edge2" class="edge">
<title>Node5&#45;&gt;Node4</title>
<path fill="none" stroke="midnightblue" d="M51.5,-114.12C51.5,-104.82 51.5,-94.06 51.5,-86.71"/>
<polygon fill="midnightblue" stroke="midnightblue" points="48,-114.41 51.5,-124.41 55,-114.41 48,-114.41"/>
</g>
<!-- Node6 -->
<g id="node4" class="node">
<title>Node6</title>
<g id="a_node4"><a xlink:href="../../d0/d3c/structnap_1_1_rotate_properties.html" target="_top" xlink:title="RotateProperties">
<polygon fill="white" stroke="black" points="121,-67.5 121,-86.5 210,-86.5 210,-67.5 121,-67.5"/>
<text text-anchor="middle" x="165.5" y="-74.5" font-family="Helvetica,sans-Serif" font-size="10.00">RotateProperties</text>
</a>
</g>
</g>
<!-- Node6&#45;&gt;Node3 -->
<g id="edge3" class="edge">
<title>Node6&#45;&gt;Node3</title>
<path fill="none" stroke="#9a32cd" stroke-dasharray="5,2" d="M157.38,-57.79C151.81,-45.31 144.67,-29.31 140.35,-19.63"/>
<polygon fill="#9a32cd" stroke="#9a32cd" points="154.32,-59.53 161.59,-67.23 160.71,-56.68 154.32,-59.53"/>
<text text-anchor="middle" x="180.5" y="-41" font-family="Helvetica,sans-Serif" font-size="10.00"> mProperties</text>
</g>
</g>
</svg>
