<?xml version="1.0" encoding="UTF-8" standalone="no"?>
<!DOCTYPE svg PUBLIC "-//W3C//DTD SVG 1.1//EN"
 "http://www.w3.org/Graphics/SVG/1.1/DTD/svg11.dtd">
<!-- Generated by graphviz version 2.48.0 (20210717.1556)
 -->
<!-- Title: IWebSocketServer Pages: 1 -->
<svg width="320pt" height="230pt"
 viewBox="0.00 0.00 320.00 230.00" xmlns="http://www.w3.org/2000/svg" xmlns:xlink="http://www.w3.org/1999/xlink">
<g id="graph0" class="graph" transform="scale(1 1) rotate(0) translate(4 226)">
<title>IWebSocketServer</title>
<polygon fill="white" stroke="transparent" points="-4,4 -4,-226 316,-226 316,4 -4,4"/>
<!-- Node7 -->
<g id="node1" class="node">
<title>Node7</title>
<polygon fill="#bfbfbf" stroke="black" points="122.5,-0.5 122.5,-19.5 219.5,-19.5 219.5,-0.5 122.5,-0.5"/>
<text text-anchor="middle" x="171" y="-7.5" font-family="Helvetica,sans-Serif" font-size="10.00">IWebSocketServer</text>
</g>
<!-- Node8 -->
<g id="node2" class="node">
<title>Node8</title>
<g id="a_node2"><a xlink:href="../../d6/d44/classnap_1_1_web_socket_interface.html" target="_top" xlink:title="WebSocketInterface">
<polygon fill="white" stroke="black" points="50,-73 50,-92 154,-92 154,-73 50,-73"/>
<text text-anchor="middle" x="102" y="-80" font-family="Helvetica,sans-Serif" font-size="10.00">WebSocketInterface</text>
</a>
</g>
</g>
<!-- Node8&#45;&gt;Node7 -->
<g id="edge1" class="edge">
<title>Node8&#45;&gt;Node7</title>
<path fill="none" stroke="midnightblue" d="M117.47,-65.69C131.37,-51.49 151.26,-31.17 162.47,-19.72"/>
<polygon fill="midnightblue" stroke="midnightblue" points="114.95,-63.26 110.46,-72.86 119.96,-68.16 114.95,-63.26"/>
</g>
<!-- Node9 -->
<g id="node3" class="node">
<title>Node9</title>
<g id="a_node3"><a xlink:href="../../d9/dea/classnap_1_1_resource.html" target="_top" xlink:title="Resource">
<polygon fill="white" stroke="black" points="0,-145.5 0,-164.5 58,-164.5 58,-145.5 0,-145.5"/>
<text text-anchor="middle" x="29" y="-152.5" font-family="Helvetica,sans-Serif" font-size="10.00">Resource</text>
</a>
</g>
</g>
<!-- Node9&#45;&gt;Node8 -->
<g id="edge2" class="edge">
<title>Node9&#45;&gt;Node8</title>
<path fill="none" stroke="midnightblue" d="M45.37,-138.19C60.07,-123.99 81.12,-103.67 92.98,-92.22"/>
<polygon fill="midnightblue" stroke="midnightblue" points="42.71,-135.89 37.95,-145.36 47.58,-140.93 42.71,-135.89"/>
</g>
<!-- Node10 -->
<g id="node4" class="node">
<title>Node10</title>
<g id="a_node4"><a xlink:href="../../de/d01/classnap_1_1rtti_1_1_object.html" target="_top" xlink:title="Object">
<polygon fill="white" stroke="black" points="6.5,-202.5 6.5,-221.5 51.5,-221.5 51.5,-202.5 6.5,-202.5"/>
<text text-anchor="middle" x="29" y="-209.5" font-family="Helvetica,sans-Serif" font-size="10.00">Object</text>
</a>
</g>
</g>
<!-- Node10&#45;&gt;Node9 -->
<g id="edge3" class="edge">
<title>Node10&#45;&gt;Node9</title>
<path fill="none" stroke="midnightblue" d="M29,-192.12C29,-182.82 29,-172.06 29,-164.71"/>
<polygon fill="midnightblue" stroke="midnightblue" points="25.5,-192.41 29,-202.41 32.5,-192.41 25.5,-192.41"/>
</g>
<!-- Node11 -->
<g id="node5" class="node">
<title>Node11</title>
<g id="a_node5"><a xlink:href="../../dd/d2f/classnap_1_1_web_socket_service.html" target="_top" xlink:title="WebSocketService">
<polygon fill="white" stroke="black" points="76.5,-145.5 76.5,-164.5 175.5,-164.5 175.5,-145.5 76.5,-145.5"/>
<text text-anchor="middle" x="126" y="-152.5" font-family="Helvetica,sans-Serif" font-size="10.00">WebSocketService</text>
</a>
</g>
</g>
<!-- Node11&#45;&gt;Node8 -->
<g id="edge4" class="edge">
<title>Node11&#45;&gt;Node8</title>
<path fill="none" stroke="#9a32cd" stroke-dasharray="5,2" d="M119.79,-135.77C115.03,-121.76 108.65,-103.03 104.97,-92.22"/>
<polygon fill="#9a32cd" stroke="#9a32cd" points="116.52,-137.02 123.06,-145.36 123.15,-134.76 116.52,-137.02"/>
<text text-anchor="middle" x="138.5" y="-119" font-family="Helvetica,sans-Serif" font-size="10.00"> mService</text>
</g>
<!-- Node12 -->
<g id="node6" class="node">
<title>Node12</title>
<g id="a_node6"><a xlink:href="../../d8/d8e/classnap_1_1_service.html" target="_top" xlink:title="Service">
<polygon fill="white" stroke="black" points="102,-202.5 102,-221.5 150,-221.5 150,-202.5 102,-202.5"/>
<text text-anchor="middle" x="126" y="-209.5" font-family="Helvetica,sans-Serif" font-size="10.00">Service</text>
</a>
</g>
</g>
<!-- Node12&#45;&gt;Node11 -->
<g id="edge5" class="edge">
<title>Node12&#45;&gt;Node11</title>
<path fill="none" stroke="midnightblue" d="M126,-192.12C126,-182.82 126,-172.06 126,-164.71"/>
<polygon fill="midnightblue" stroke="midnightblue" points="122.5,-192.41 126,-202.41 129.5,-192.41 122.5,-192.41"/>
</g>
<!-- Node13 -->
<g id="node7" class="node">
<title>Node13</title>
<g id="a_node7"><a xlink:href="../../dd/d7c/classnap_1_1rtti_1_1_object_ptr.html" target="_top" xlink:title="ObjectPtr\&lt; nap::WebSocket\lServerEndPoint \&gt;">
<polygon fill="white" stroke="black" points="172,-67.5 172,-97.5 312,-97.5 312,-67.5 172,-67.5"/>
<text text-anchor="start" x="180" y="-85.5" font-family="Helvetica,sans-Serif" font-size="10.00">ObjectPtr&lt; nap::WebSocket</text>
<text text-anchor="middle" x="242" y="-74.5" font-family="Helvetica,sans-Serif" font-size="10.00">ServerEndPoint &gt;</text>
</a>
</g>
</g>
<!-- Node13&#45;&gt;Node7 -->
<g id="edge6" class="edge">
<title>Node13&#45;&gt;Node7</title>
<path fill="none" stroke="#9a32cd" stroke-dasharray="5,2" d="M220.49,-60.14C206.91,-46.65 190.08,-29.94 179.96,-19.89"/>
<polygon fill="#9a32cd" stroke="#9a32cd" points="218.07,-62.67 227.63,-67.23 223,-57.7 218.07,-62.67"/>
<text text-anchor="middle" x="235" y="-41" font-family="Helvetica,sans-Serif" font-size="10.00"> mEndPoint</text>
</g>
<!-- Node14 -->
<g id="node8" class="node">
<title>Node14</title>
<g id="a_node8"><a xlink:href="../../d7/dcb/classnap_1_1rtti_1_1_object_ptr_base.html" target="_top" xlink:title="ObjectPtrBase">
<polygon fill="white" stroke="black" points="202,-145.5 202,-164.5 282,-164.5 282,-145.5 202,-145.5"/>
<text text-anchor="middle" x="242" y="-152.5" font-family="Helvetica,sans-Serif" font-size="10.00">ObjectPtrBase</text>
</a>
</g>
</g>
<!-- Node14&#45;&gt;Node13 -->
<g id="edge7" class="edge">
<title>Node14&#45;&gt;Node13</title>
<path fill="none" stroke="midnightblue" d="M242,-135.24C242,-123.41 242,-108.38 242,-97.58"/>
<polygon fill="midnightblue" stroke="midnightblue" points="238.5,-135.36 242,-145.36 245.5,-135.36 238.5,-135.36"/>
</g>
</g>
</svg>
