<?xml version="1.0" encoding="UTF-8" standalone="no"?>
<!DOCTYPE svg PUBLIC "-//W3C//DTD SVG 1.1//EN"
 "http://www.w3.org/Graphics/SVG/1.1/DTD/svg11.dtd">
<!-- Generated by graphviz version 2.43.0 (0)
 -->
<!-- Title: IWebSocketServer Pages: 1 -->
<svg width="339pt" height="230pt"
 viewBox="0.00 0.00 339.00 230.00" xmlns="http://www.w3.org/2000/svg" xmlns:xlink="http://www.w3.org/1999/xlink">
<g id="graph0" class="graph" transform="scale(1 1) rotate(0) translate(4 226)">
<title>IWebSocketServer</title>
<polygon fill="white" stroke="transparent" points="-4,4 -4,-226 335,-226 335,4 -4,4"/>
<!-- Node1 -->
<g id="node1" class="node">
<title>Node1</title>
<g id="a_node1"><a xlink:title=" ">
<polygon fill="#bfbfbf" stroke="black" points="128,-0.5 128,-19.5 232,-19.5 232,-0.5 128,-0.5"/>
<text text-anchor="middle" x="180" y="-7.5" font-family="Helvetica,sans-Serif" font-size="10.00">IWebSocketServer</text>
</a>
</g>
</g>
<!-- Node2 -->
<g id="node2" class="node">
<title>Node2</title>
<g id="a_node2"><a xlink:href="../../d6/d44/classnap_1_1_web_socket_interface.html" target="_top" xlink:title=" ">
<polygon fill="white" stroke="black" points="49.5,-73 49.5,-92 162.5,-92 162.5,-73 49.5,-73"/>
<text text-anchor="middle" x="106" y="-80" font-family="Helvetica,sans-Serif" font-size="10.00">WebSocketInterface</text>
</a>
</g>
</g>
<!-- Node2&#45;&gt;Node1 -->
<g id="edge1" class="edge">
<title>Node2&#45;&gt;Node1</title>
<path fill="none" stroke="midnightblue" d="M122.59,-65.69C137.5,-51.49 158.83,-31.17 170.85,-19.72"/>
<polygon fill="midnightblue" stroke="midnightblue" points="119.9,-63.42 115.07,-72.86 124.73,-68.49 119.9,-63.42"/>
</g>
<!-- Node3 -->
<g id="node3" class="node">
<title>Node3</title>
<g id="a_node3"><a xlink:href="../../d9/dea/classnap_1_1_resource.html" target="_top" xlink:title=" ">
<polygon fill="white" stroke="black" points="0,-145.5 0,-164.5 62,-164.5 62,-145.5 0,-145.5"/>
<text text-anchor="middle" x="31" y="-152.5" font-family="Helvetica,sans-Serif" font-size="10.00">Resource</text>
</a>
</g>
</g>
<!-- Node3&#45;&gt;Node2 -->
<g id="edge2" class="edge">
<title>Node3&#45;&gt;Node2</title>
<path fill="none" stroke="midnightblue" d="M47.82,-138.19C62.92,-123.99 84.54,-103.67 96.73,-92.22"/>
<polygon fill="midnightblue" stroke="midnightblue" points="45.09,-135.96 40.2,-145.36 49.88,-141.06 45.09,-135.96"/>
</g>
<!-- Node4 -->
<g id="node4" class="node">
<title>Node4</title>
<g id="a_node4"><a xlink:href="../../de/d01/classnap_1_1rtti_1_1_object.html" target="_top" xlink:title=" ">
<polygon fill="white" stroke="black" points="7,-202.5 7,-221.5 55,-221.5 55,-202.5 7,-202.5"/>
<text text-anchor="middle" x="31" y="-209.5" font-family="Helvetica,sans-Serif" font-size="10.00">Object</text>
</a>
</g>
</g>
<!-- Node4&#45;&gt;Node3 -->
<g id="edge3" class="edge">
<title>Node4&#45;&gt;Node3</title>
<path fill="none" stroke="midnightblue" d="M31,-192.12C31,-182.82 31,-172.06 31,-164.71"/>
<polygon fill="midnightblue" stroke="midnightblue" points="27.5,-192.41 31,-202.41 34.5,-192.41 27.5,-192.41"/>
</g>
<!-- Node5 -->
<g id="node5" class="node">
<title>Node5</title>
<g id="a_node5"><a xlink:href="../../dd/d2f/classnap_1_1_web_socket_service.html" target="_top" xlink:title=" ">
<polygon fill="white" stroke="black" points="80,-145.5 80,-164.5 186,-164.5 186,-145.5 80,-145.5"/>
<text text-anchor="middle" x="133" y="-152.5" font-family="Helvetica,sans-Serif" font-size="10.00">WebSocketService</text>
</a>
</g>
</g>
<!-- Node5&#45;&gt;Node2 -->
<g id="edge4" class="edge">
<title>Node5&#45;&gt;Node2</title>
<path fill="none" stroke="#9a32cd" stroke-dasharray="5,2" d="M126.02,-135.77C120.65,-121.76 113.48,-103.03 109.34,-92.22"/>
<polygon fill="#9a32cd" stroke="#9a32cd" points="122.84,-137.27 129.69,-145.36 129.38,-134.76 122.84,-137.27"/>
<text text-anchor="middle" x="146.5" y="-119" font-family="Helvetica,sans-Serif" font-size="10.00"> mService</text>
</g>
<!-- Node6 -->
<g id="node6" class="node">
<title>Node6</title>
<g id="a_node6"><a xlink:href="../../d8/d8e/classnap_1_1_service.html" target="_top" xlink:title=" ">
<polygon fill="white" stroke="black" points="106.5,-202.5 106.5,-221.5 159.5,-221.5 159.5,-202.5 106.5,-202.5"/>
<text text-anchor="middle" x="133" y="-209.5" font-family="Helvetica,sans-Serif" font-size="10.00">Service</text>
</a>
</g>
</g>
<!-- Node6&#45;&gt;Node5 -->
<g id="edge5" class="edge">
<title>Node6&#45;&gt;Node5</title>
<path fill="none" stroke="midnightblue" d="M133,-192.12C133,-182.82 133,-172.06 133,-164.71"/>
<polygon fill="midnightblue" stroke="midnightblue" points="129.5,-192.41 133,-202.41 136.5,-192.41 129.5,-192.41"/>
</g>
<!-- Node7 -->
<g id="node7" class="node">
<title>Node7</title>
<g id="a_node7"><a xlink:href="../../dd/d7c/classnap_1_1rtti_1_1_object_ptr.html" target="_top" xlink:title=" ">
<polygon fill="white" stroke="black" points="181,-67.5 181,-97.5 331,-97.5 331,-67.5 181,-67.5"/>
<text text-anchor="start" x="189" y="-85.5" font-family="Helvetica,sans-Serif" font-size="10.00">ObjectPtr&lt; nap::WebSocket</text>
<text text-anchor="middle" x="256" y="-74.5" font-family="Helvetica,sans-Serif" font-size="10.00">ServerEndPoint &gt;</text>
</a>
</g>
</g>
<!-- Node7&#45;&gt;Node1 -->
<g id="edge6" class="edge">
<title>Node7&#45;&gt;Node1</title>
<path fill="none" stroke="#9a32cd" stroke-dasharray="5,2" d="M232.97,-60.14C218.43,-46.65 200.42,-29.94 189.59,-19.89"/>
<polygon fill="#9a32cd" stroke="#9a32cd" points="230.91,-63 240.62,-67.23 235.67,-57.87 230.91,-63"/>
<text text-anchor="middle" x="249" y="-41" font-family="Helvetica,sans-Serif" font-size="10.00"> mEndPoint</text>
</g>
<!-- Node8 -->
<g id="node8" class="node">
<title>Node8</title>
<g id="a_node8"><a xlink:href="../../d7/dcb/classnap_1_1rtti_1_1_object_ptr_base.html" target="_top" xlink:title=" ">
<polygon fill="white" stroke="black" points="213,-145.5 213,-164.5 299,-164.5 299,-145.5 213,-145.5"/>
<text text-anchor="middle" x="256" y="-152.5" font-family="Helvetica,sans-Serif" font-size="10.00">ObjectPtrBase</text>
</a>
</g>
</g>
<!-- Node8&#45;&gt;Node7 -->
<g id="edge7" class="edge">
<title>Node8&#45;&gt;Node7</title>
<path fill="none" stroke="midnightblue" d="M256,-135.24C256,-123.41 256,-108.38 256,-97.58"/>
<polygon fill="midnightblue" stroke="midnightblue" points="252.5,-135.36 256,-145.36 259.5,-135.36 252.5,-135.36"/>
</g>
</g>
</svg>
