<?xml version="1.0" encoding="UTF-8" standalone="no"?>
<!DOCTYPE svg PUBLIC "-//W3C//DTD SVG 1.1//EN"
 "http://www.w3.org/Graphics/SVG/1.1/DTD/svg11.dtd">
<!-- Generated by graphviz version 2.48.0 (20210717.1556)
 -->
<!-- Title: WebSocketInterface Pages: 1 -->
<svg width="576pt" height="180pt"
 viewBox="0.00 0.00 576.00 180.00" xmlns="http://www.w3.org/2000/svg" xmlns:xlink="http://www.w3.org/1999/xlink">
<g id="graph0" class="graph" transform="scale(1 1) rotate(0) translate(4 176)">
<title>WebSocketInterface</title>
<polygon fill="white" stroke="transparent" points="-4,4 -4,-176 572,-176 572,4 -4,4"/>
<!-- Node0 -->
<g id="node1" class="node">
<title>Node0</title>
<polygon fill="#bfbfbf" stroke="black" points="175,-76.5 175,-95.5 279,-95.5 279,-76.5 175,-76.5"/>
<text text-anchor="middle" x="227" y="-83.5" font-family="Helvetica,sans-Serif" font-size="10.00">WebSocketInterface</text>
</g>
<!-- Node3 -->
<g id="node4" class="node">
<title>Node3</title>
<g id="a_node4"><a xlink:href="../../dc/d74/classnap_1_1_i_web_socket_client.html" target="_top" xlink:title="IWebSocketClient">
<polygon fill="white" stroke="black" points="316,-114.5 316,-133.5 411,-133.5 411,-114.5 316,-114.5"/>
<text text-anchor="middle" x="363.5" y="-121.5" font-family="Helvetica,sans-Serif" font-size="10.00">IWebSocketClient</text>
</a>
</g>
</g>
<!-- Node0&#45;&gt;Node3 -->
<g id="edge3" class="edge">
<title>Node0&#45;&gt;Node3</title>
<path fill="none" stroke="midnightblue" d="M271.6,-98.32C290.08,-103.54 311.29,-109.53 328.57,-114.41"/>
<polygon fill="midnightblue" stroke="midnightblue" points="272.51,-94.94 261.94,-95.59 270.61,-101.68 272.51,-94.94"/>
</g>
<!-- Node6 -->
<g id="node7" class="node">
<title>Node6</title>
<g id="a_node7"><a xlink:href="../../dc/d3d/classnap_1_1_i_web_socket_server.html" target="_top" xlink:title="IWebSocketServer">
<polygon fill="white" stroke="black" points="315,-57.5 315,-76.5 412,-76.5 412,-57.5 315,-57.5"/>
<text text-anchor="middle" x="363.5" y="-64.5" font-family="Helvetica,sans-Serif" font-size="10.00">IWebSocketServer</text>
</a>
</g>
</g>
<!-- Node0&#45;&gt;Node6 -->
<g id="edge6" class="edge">
<title>Node0&#45;&gt;Node6</title>
<path fill="none" stroke="midnightblue" d="M289.26,-77.35C297.88,-76.13 306.63,-74.89 314.95,-73.72"/>
<polygon fill="midnightblue" stroke="midnightblue" points="288.64,-73.9 279.23,-78.76 289.62,-80.83 288.64,-73.9"/>
</g>
<!-- Node1 -->
<g id="node2" class="node">
<title>Node1</title>
<g id="a_node2"><a xlink:href="../../d9/dea/classnap_1_1_resource.html" target="_top" xlink:title="Resource">
<polygon fill="white" stroke="black" points="81,-76.5 81,-95.5 139,-95.5 139,-76.5 81,-76.5"/>
<text text-anchor="middle" x="110" y="-83.5" font-family="Helvetica,sans-Serif" font-size="10.00">Resource</text>
</a>
</g>
</g>
<!-- Node1&#45;&gt;Node0 -->
<g id="edge1" class="edge">
<title>Node1&#45;&gt;Node0</title>
<path fill="none" stroke="midnightblue" d="M149.16,-86C157.38,-86 166.2,-86 174.82,-86"/>
<polygon fill="midnightblue" stroke="midnightblue" points="149.13,-82.5 139.13,-86 149.13,-89.5 149.13,-82.5"/>
</g>
<!-- Node2 -->
<g id="node3" class="node">
<title>Node2</title>
<g id="a_node3"><a xlink:href="../../de/d01/classnap_1_1rtti_1_1_object.html" target="_top" xlink:title="Object">
<polygon fill="white" stroke="black" points="0,-76.5 0,-95.5 45,-95.5 45,-76.5 0,-76.5"/>
<text text-anchor="middle" x="22.5" y="-83.5" font-family="Helvetica,sans-Serif" font-size="10.00">Object</text>
</a>
</g>
</g>
<!-- Node2&#45;&gt;Node1 -->
<g id="edge2" class="edge">
<title>Node2&#45;&gt;Node1</title>
<path fill="none" stroke="midnightblue" d="M55.31,-86C63.73,-86 72.76,-86 80.96,-86"/>
<polygon fill="midnightblue" stroke="midnightblue" points="55.08,-82.5 45.08,-86 55.08,-89.5 55.08,-82.5"/>
</g>
<!-- Node4 -->
<g id="node5" class="node">
<title>Node4</title>
<g id="a_node5"><a xlink:href="../../d9/d37/classnap_1_1_a_p_i_web_socket_client.html" target="_top" xlink:title="APIWebSocketClient">
<polygon fill="white" stroke="black" points="454,-152.5 454,-171.5 562,-171.5 562,-152.5 454,-152.5"/>
<text text-anchor="middle" x="508" y="-159.5" font-family="Helvetica,sans-Serif" font-size="10.00">APIWebSocketClient</text>
</a>
</g>
</g>
<!-- Node3&#45;&gt;Node4 -->
<g id="edge4" class="edge">
<title>Node3&#45;&gt;Node4</title>
<path fill="none" stroke="midnightblue" d="M410.15,-136.17C429.86,-141.43 452.57,-147.49 471.05,-152.41"/>
<polygon fill="midnightblue" stroke="midnightblue" points="411.02,-132.78 400.46,-133.59 409.22,-139.55 411.02,-132.78"/>
</g>
<!-- Node5 -->
<g id="node6" class="node">
<title>Node5</title>
<g id="a_node6"><a xlink:href="../../dd/d1b/classnap_1_1_web_socket_client.html" target="_top" xlink:title="WebSocketClient">
<polygon fill="white" stroke="black" points="462,-114.5 462,-133.5 554,-133.5 554,-114.5 462,-114.5"/>
<text text-anchor="middle" x="508" y="-121.5" font-family="Helvetica,sans-Serif" font-size="10.00">WebSocketClient</text>
</a>
</g>
</g>
<!-- Node3&#45;&gt;Node5 -->
<g id="edge5" class="edge">
<title>Node3&#45;&gt;Node5</title>
<path fill="none" stroke="midnightblue" d="M421.26,-124C434.69,-124 448.84,-124 461.69,-124"/>
<polygon fill="midnightblue" stroke="midnightblue" points="421.16,-120.5 411.16,-124 421.16,-127.5 421.16,-120.5"/>
</g>
<!-- Node7 -->
<g id="node8" class="node">
<title>Node7</title>
<g id="a_node8"><a xlink:href="../../d0/d37/classnap_1_1_a_p_i_web_socket_server.html" target="_top" xlink:title="APIWebSocketServer">
<polygon fill="white" stroke="black" points="453,-76.5 453,-95.5 563,-95.5 563,-76.5 453,-76.5"/>
<text text-anchor="middle" x="508" y="-83.5" font-family="Helvetica,sans-Serif" font-size="10.00">APIWebSocketServer</text>
</a>
</g>
</g>
<!-- Node6&#45;&gt;Node7 -->
<g id="edge7" class="edge">
<title>Node6&#45;&gt;Node7</title>
<path fill="none" stroke="midnightblue" d="M422.55,-74.74C432.5,-76.07 442.8,-77.44 452.64,-78.75"/>
<polygon fill="midnightblue" stroke="midnightblue" points="422.72,-71.23 412.35,-73.38 421.8,-78.17 422.72,-71.23"/>
</g>
<!-- Node8 -->
<g id="node9" class="node">
<title>Node8</title>
<g id="a_node9"><a xlink:href="../../d7/d1c/classnap_1_1_portal_web_socket_server.html" target="_top" xlink:title="PortalWebSocketServer">
<polygon fill="white" stroke="black" points="448,-38.5 448,-57.5 568,-57.5 568,-38.5 448,-38.5"/>
<text text-anchor="middle" x="508" y="-45.5" font-family="Helvetica,sans-Serif" font-size="10.00">PortalWebSocketServer</text>
</a>
</g>
</g>
<!-- Node6&#45;&gt;Node8 -->
<g id="edge8" class="edge">
<title>Node6&#45;&gt;Node8</title>
<path fill="none" stroke="midnightblue" d="M422.43,-59.28C430.82,-58.16 439.47,-57 447.89,-55.88"/>
<polygon fill="midnightblue" stroke="midnightblue" points="421.8,-55.83 412.35,-60.62 422.72,-62.77 421.8,-55.83"/>
</g>
<!-- Node9 -->
<g id="node10" class="node">
<title>Node9</title>
<g id="a_node10"><a xlink:href="../../de/d44/classnap_1_1_web_socket_server.html" target="_top" xlink:title="WebSocketServer">
<polygon fill="white" stroke="black" points="460.5,-0.5 460.5,-19.5 555.5,-19.5 555.5,-0.5 460.5,-0.5"/>
<text text-anchor="middle" x="508" y="-7.5" font-family="Helvetica,sans-Serif" font-size="10.00">WebSocketServer</text>
</a>
</g>
</g>
<!-- Node6&#45;&gt;Node9 -->
<g id="edge9" class="edge">
<title>Node6&#45;&gt;Node9</title>
<path fill="none" stroke="midnightblue" d="M393.11,-52.99C409.08,-45.42 429.43,-36.19 448,-29 456.63,-25.66 466.12,-22.42 474.92,-19.59"/>
<polygon fill="midnightblue" stroke="midnightblue" points="391.31,-49.97 383.8,-57.45 394.33,-56.28 391.31,-49.97"/>
</g>
</g>
</svg>
