<?xml version="1.0" encoding="UTF-8" standalone="no"?>
<!DOCTYPE svg PUBLIC "-//W3C//DTD SVG 1.1//EN"
 "http://www.w3.org/Graphics/SVG/1.1/DTD/svg11.dtd">
<!-- Generated by graphviz version 2.43.0 (0)
 -->
<!-- Title: WebSocketInterface Pages: 1 -->
<svg width="609pt" height="180pt"
 viewBox="0.00 0.00 609.00 180.00" xmlns="http://www.w3.org/2000/svg" xmlns:xlink="http://www.w3.org/1999/xlink">
<g id="graph0" class="graph" transform="scale(1 1) rotate(0) translate(4 176)">
<title>WebSocketInterface</title>
<polygon fill="white" stroke="transparent" points="-4,4 -4,-176 605,-176 605,4 -4,4"/>
<!-- Node1 -->
<g id="node1" class="node">
<title>Node1</title>
<g id="a_node1"><a xlink:title=" ">
<polygon fill="#bfbfbf" stroke="black" points="182,-76.5 182,-95.5 295,-95.5 295,-76.5 182,-76.5"/>
<text text-anchor="middle" x="238.5" y="-83.5" font-family="Helvetica,sans-Serif" font-size="10.00">WebSocketInterface</text>
</a>
</g>
</g>
<!-- Node4 -->
<g id="node4" class="node">
<title>Node4</title>
<g id="a_node4"><a xlink:href="../../dc/d74/classnap_1_1_i_web_socket_client.html" target="_top" xlink:title=" ">
<polygon fill="white" stroke="black" points="332.5,-114.5 332.5,-133.5 433.5,-133.5 433.5,-114.5 332.5,-114.5"/>
<text text-anchor="middle" x="383" y="-121.5" font-family="Helvetica,sans-Serif" font-size="10.00">IWebSocketClient</text>
</a>
</g>
</g>
<!-- Node1&#45;&gt;Node4 -->
<g id="edge3" class="edge">
<title>Node1&#45;&gt;Node4</title>
<path fill="none" stroke="midnightblue" d="M285.15,-98.17C304.86,-103.43 327.57,-109.49 346.05,-114.41"/>
<polygon fill="midnightblue" stroke="midnightblue" points="286.02,-94.78 275.46,-95.59 284.22,-101.55 286.02,-94.78"/>
</g>
<!-- Node7 -->
<g id="node7" class="node">
<title>Node7</title>
<g id="a_node7"><a xlink:href="../../dc/d3d/classnap_1_1_i_web_socket_server.html" target="_top" xlink:title=" ">
<polygon fill="white" stroke="black" points="331,-57.5 331,-76.5 435,-76.5 435,-57.5 331,-57.5"/>
<text text-anchor="middle" x="383" y="-64.5" font-family="Helvetica,sans-Serif" font-size="10.00">IWebSocketServer</text>
</a>
</g>
</g>
<!-- Node1&#45;&gt;Node7 -->
<g id="edge6" class="edge">
<title>Node1&#45;&gt;Node7</title>
<path fill="none" stroke="midnightblue" d="M305,-77.27C313.59,-76.12 322.3,-74.96 330.61,-73.85"/>
<polygon fill="midnightblue" stroke="midnightblue" points="304.45,-73.81 295,-78.6 305.38,-80.75 304.45,-73.81"/>
</g>
<!-- Node2 -->
<g id="node2" class="node">
<title>Node2</title>
<g id="a_node2"><a xlink:href="../../d9/dea/classnap_1_1_resource.html" target="_top" xlink:title=" ">
<polygon fill="white" stroke="black" points="84,-76.5 84,-95.5 146,-95.5 146,-76.5 84,-76.5"/>
<text text-anchor="middle" x="115" y="-83.5" font-family="Helvetica,sans-Serif" font-size="10.00">Resource</text>
</a>
</g>
</g>
<!-- Node2&#45;&gt;Node1 -->
<g id="edge1" class="edge">
<title>Node2&#45;&gt;Node1</title>
<path fill="none" stroke="midnightblue" d="M156.09,-86C164.3,-86 173.1,-86 181.75,-86"/>
<polygon fill="midnightblue" stroke="midnightblue" points="156.03,-82.5 146.03,-86 156.03,-89.5 156.03,-82.5"/>
</g>
<!-- Node3 -->
<g id="node3" class="node">
<title>Node3</title>
<g id="a_node3"><a xlink:href="../../de/d01/classnap_1_1rtti_1_1_object.html" target="_top" xlink:title=" ">
<polygon fill="white" stroke="black" points="0,-76.5 0,-95.5 48,-95.5 48,-76.5 0,-76.5"/>
<text text-anchor="middle" x="24" y="-83.5" font-family="Helvetica,sans-Serif" font-size="10.00">Object</text>
</a>
</g>
</g>
<!-- Node3&#45;&gt;Node2 -->
<g id="edge2" class="edge">
<title>Node3&#45;&gt;Node2</title>
<path fill="none" stroke="midnightblue" d="M58.49,-86C66.78,-86 75.61,-86 83.73,-86"/>
<polygon fill="midnightblue" stroke="midnightblue" points="58.38,-82.5 48.38,-86 58.38,-89.5 58.38,-82.5"/>
</g>
<!-- Node5 -->
<g id="node5" class="node">
<title>Node5</title>
<g id="a_node5"><a xlink:href="../../d9/d37/classnap_1_1_a_p_i_web_socket_client.html" target="_top" xlink:title=" ">
<polygon fill="white" stroke="black" points="479,-152.5 479,-171.5 593,-171.5 593,-152.5 479,-152.5"/>
<text text-anchor="middle" x="536" y="-159.5" font-family="Helvetica,sans-Serif" font-size="10.00">APIWebSocketClient</text>
</a>
</g>
</g>
<!-- Node4&#45;&gt;Node5 -->
<g id="edge4" class="edge">
<title>Node4&#45;&gt;Node5</title>
<path fill="none" stroke="midnightblue" d="M431.84,-136.04C452.94,-141.35 477.38,-147.5 497.17,-152.48"/>
<polygon fill="midnightblue" stroke="midnightblue" points="432.66,-132.64 422.1,-133.59 430.95,-139.42 432.66,-132.64"/>
</g>
<!-- Node6 -->
<g id="node6" class="node">
<title>Node6</title>
<g id="a_node6"><a xlink:href="../../dd/d1b/classnap_1_1_web_socket_client.html" target="_top" xlink:title=" ">
<polygon fill="white" stroke="black" points="487,-114.5 487,-133.5 585,-133.5 585,-114.5 487,-114.5"/>
<text text-anchor="middle" x="536" y="-121.5" font-family="Helvetica,sans-Serif" font-size="10.00">WebSocketClient</text>
</a>
</g>
</g>
<!-- Node4&#45;&gt;Node6 -->
<g id="edge5" class="edge">
<title>Node4&#45;&gt;Node6</title>
<path fill="none" stroke="midnightblue" d="M444.08,-124C458.33,-124 473.35,-124 486.99,-124"/>
<polygon fill="midnightblue" stroke="midnightblue" points="443.86,-120.5 433.86,-124 443.86,-127.5 443.86,-120.5"/>
</g>
<!-- Node8 -->
<g id="node8" class="node">
<title>Node8</title>
<g id="a_node8"><a xlink:href="../../d0/d37/classnap_1_1_a_p_i_web_socket_server.html" target="_top" xlink:title=" ">
<polygon fill="white" stroke="black" points="477.5,-76.5 477.5,-95.5 594.5,-95.5 594.5,-76.5 477.5,-76.5"/>
<text text-anchor="middle" x="536" y="-83.5" font-family="Helvetica,sans-Serif" font-size="10.00">APIWebSocketServer</text>
</a>
</g>
</g>
<!-- Node7&#45;&gt;Node8 -->
<g id="edge7" class="edge">
<title>Node7&#45;&gt;Node8</title>
<path fill="none" stroke="midnightblue" d="M445.18,-74.7C455.84,-76.04 466.88,-77.43 477.44,-78.76"/>
<polygon fill="midnightblue" stroke="midnightblue" points="445.48,-71.21 435.12,-73.43 444.61,-78.15 445.48,-71.21"/>
</g>
<!-- Node9 -->
<g id="node9" class="node">
<title>Node9</title>
<g id="a_node9"><a xlink:href="../../d7/d1c/classnap_1_1_portal_web_socket_server.html" target="_top" xlink:title=" ">
<polygon fill="white" stroke="black" points="471,-38.5 471,-57.5 601,-57.5 601,-38.5 471,-38.5"/>
<text text-anchor="middle" x="536" y="-45.5" font-family="Helvetica,sans-Serif" font-size="10.00">PortalWebSocketServer</text>
</a>
</g>
</g>
<!-- Node7&#45;&gt;Node9 -->
<g id="edge8" class="edge">
<title>Node7&#45;&gt;Node9</title>
<path fill="none" stroke="midnightblue" d="M445.24,-59.29C453.67,-58.23 462.34,-57.14 470.81,-56.08"/>
<polygon fill="midnightblue" stroke="midnightblue" points="444.61,-55.85 435.12,-60.57 445.48,-62.79 444.61,-55.85"/>
</g>
<!-- Node10 -->
<g id="node10" class="node">
<title>Node10</title>
<g id="a_node10"><a xlink:href="../../de/d44/classnap_1_1_web_socket_server.html" target="_top" xlink:title=" ">
<polygon fill="white" stroke="black" points="485.5,-0.5 485.5,-19.5 586.5,-19.5 586.5,-0.5 485.5,-0.5"/>
<text text-anchor="middle" x="536" y="-7.5" font-family="Helvetica,sans-Serif" font-size="10.00">WebSocketServer</text>
</a>
</g>
</g>
<!-- Node7&#45;&gt;Node10 -->
<g id="edge9" class="edge">
<title>Node7&#45;&gt;Node10</title>
<path fill="none" stroke="midnightblue" d="M413.34,-53.11C430.04,-45.48 451.46,-36.14 471,-29 480.25,-25.62 490.42,-22.39 499.87,-19.58"/>
<polygon fill="midnightblue" stroke="midnightblue" points="411.71,-50 404.1,-57.38 414.65,-56.36 411.71,-50"/>
</g>
</g>
</svg>
