<?xml version="1.0" encoding="UTF-8" standalone="no"?>
<!DOCTYPE svg PUBLIC "-//W3C//DTD SVG 1.1//EN"
 "http://www.w3.org/Graphics/SVG/1.1/DTD/svg11.dtd">
<!-- Generated by graphviz version 2.48.0 (20210717.1556)
 -->
<!-- Title: OpenEditCurveSegmentPopup Pages: 1 -->
<svg width="156pt" height="140pt"
 viewBox="0.00 0.00 156.00 140.00" xmlns="http://www.w3.org/2000/svg" xmlns:xlink="http://www.w3.org/1999/xlink">
<g id="graph0" class="graph" transform="scale(1 1) rotate(0) translate(4 136)">
<title>OpenEditCurveSegmentPopup</title>
<polygon fill="white" stroke="transparent" points="-4,4 -4,-136 152,-136 152,4 -4,4"/>
<!-- Node3 -->
<g id="node1" class="node">
<title>Node3</title>
<polygon fill="#bfbfbf" stroke="black" points="0,-0.5 0,-19.5 148,-19.5 148,-0.5 0,-0.5"/>
<text text-anchor="middle" x="74" y="-7.5" font-family="Helvetica,sans-Serif" font-size="10.00">OpenEditCurveSegmentPopup</text>
</g>
<!-- Node4 -->
<g id="node2" class="node">
<title>Node4</title>
<g id="a_node2"><a xlink:href="../../d5/d0e/classnap_1_1sequenceguiactions_1_1_track_action.html" target="_top" xlink:title="TrackAction">
<polygon fill="white" stroke="black" points="40,-56.5 40,-75.5 108,-75.5 108,-56.5 40,-56.5"/>
<text text-anchor="middle" x="74" y="-63.5" font-family="Helvetica,sans-Serif" font-size="10.00">TrackAction</text>
</a>
</g>
</g>
<!-- Node4&#45;&gt;Node3 -->
<g id="edge1" class="edge">
<title>Node4&#45;&gt;Node3</title>
<path fill="none" stroke="midnightblue" d="M74,-45.8C74,-36.91 74,-26.78 74,-19.75"/>
<polygon fill="midnightblue" stroke="midnightblue" points="70.5,-46.08 74,-56.08 77.5,-46.08 70.5,-46.08"/>
</g>
<!-- Node5 -->
<g id="node3" class="node">
<title>Node5</title>
<g id="a_node3"><a xlink:href="../../d6/d35/classnap_1_1sequenceguiactions_1_1_action.html" target="_top" xlink:title="Action">
<polygon fill="white" stroke="black" points="52,-112.5 52,-131.5 96,-131.5 96,-112.5 52,-112.5"/>
<text text-anchor="middle" x="74" y="-119.5" font-family="Helvetica,sans-Serif" font-size="10.00">Action</text>
</a>
</g>
</g>
<!-- Node5&#45;&gt;Node4 -->
<g id="edge2" class="edge">
<title>Node5&#45;&gt;Node4</title>
<path fill="none" stroke="midnightblue" d="M74,-101.8C74,-92.91 74,-82.78 74,-75.75"/>
<polygon fill="midnightblue" stroke="midnightblue" points="70.5,-102.08 74,-112.08 77.5,-102.08 70.5,-102.08"/>
</g>
</g>
</svg>
