<svg width="3928" height="1336" viewBox="0 0 3928 1336" fill="none" xmlns="http://www.w3.org/2000/svg">
<path d="M3691.52 0H3612.91H2984.59H2827.6H2709.36C2687.89 0 2670.49 17.4051 2670.49 38.8753V550.153V785.9V1335.94L2984.59 1100.19V550.153V117.419C2984.59 95.9491 3001.99 78.5441 3023.46 78.5441H3574.04C3595.51 78.5441 3612.91 95.9491 3612.91 117.419V693.023L3063.2 392.95L3927.13 1100.19V943.102V864.444V38.8753C3927.13 17.4051 3909.72 0 3888.25 0H3691.52Z" fill="#2958FF"/>
<path d="M942.615 0.0151367H340.111C323.279 0.0151367 306.902 5.47746 293.44 15.5814L0.076516 235.762L0 1100.1H314.103L314.177 117.432C314.178 95.9625 331.583 78.5592 353.052 78.5592H903.74C925.21 78.5592 942.615 95.9643 942.615 117.435V1021.98L1256.72 786.231V38.8904C1256.72 17.4202 1239.31 0.0151367 1217.84 0.0151367H1099.61H942.615Z" fill="#2958FF"/>
<path d="M2277.78 0H1675.38C1658.55 0 1642.18 5.45931 1628.72 15.5581L1335.24 235.747V864.444V1021.65V1100.19L2199.28 392.95L1649.46 693.023V117.419C1649.46 95.9491 1666.86 78.5441 1688.33 78.5441H2238.9C2260.37 78.5441 2277.78 95.9491 2277.78 117.419V800.697L2591.88 564.951V38.8754C2591.88 17.4051 2574.48 0 2553.01 0H2434.89H2277.78Z" fill="#2958FF"/>
</svg>
