<?xml version="1.0" encoding="UTF-8" standalone="no"?>
<!DOCTYPE svg PUBLIC "-//W3C//DTD SVG 1.1//EN"
 "http://www.w3.org/Graphics/SVG/1.1/DTD/svg11.dtd">
<!-- Generated by graphviz version 2.48.0 (20210717.1556)
 -->
<!-- Title: RenderableMeshComponent Pages: 1 -->
<svg width="481pt" height="285pt"
 viewBox="0.00 0.00 481.00 285.00" xmlns="http://www.w3.org/2000/svg" xmlns:xlink="http://www.w3.org/1999/xlink">
<g id="graph0" class="graph" transform="scale(1 1) rotate(0) translate(4 281)">
<title>RenderableMeshComponent</title>
<polygon fill="white" stroke="transparent" points="-4,4 -4,-281 477,-281 477,4 -4,4"/>
<!-- Node5 -->
<g id="node1" class="node">
<title>Node5</title>
<polygon fill="#bfbfbf" stroke="black" points="155.5,-0.5 155.5,-19.5 294.5,-19.5 294.5,-0.5 155.5,-0.5"/>
<text text-anchor="middle" x="225" y="-7.5" font-family="Helvetica,sans-Serif" font-size="10.00">RenderableMeshComponent</text>
</g>
<!-- Node6 -->
<g id="node2" class="node">
<title>Node6</title>
<g id="a_node2"><a xlink:href="../../d1/d2c/classnap_1_1_renderable_component.html" target="_top" xlink:title="RenderableComponent">
<polygon fill="white" stroke="black" points="29.5,-67.5 29.5,-86.5 144.5,-86.5 144.5,-67.5 29.5,-67.5"/>
<text text-anchor="middle" x="87" y="-74.5" font-family="Helvetica,sans-Serif" font-size="10.00">RenderableComponent</text>
</a>
</g>
</g>
<!-- Node6&#45;&gt;Node5 -->
<g id="edge1" class="edge">
<title>Node6&#45;&gt;Node5</title>
<path fill="none" stroke="midnightblue" d="M114.72,-62.94C142.05,-50.07 183.05,-30.76 206.6,-19.67"/>
<polygon fill="midnightblue" stroke="midnightblue" points="112.88,-59.94 105.33,-67.37 115.86,-66.27 112.88,-59.94"/>
</g>
<!-- Node7 -->
<g id="node3" class="node">
<title>Node7</title>
<g id="a_node3"><a xlink:href="../../db/d6b/classnap_1_1_component.html" target="_top" xlink:title="Component">
<polygon fill="white" stroke="black" points="0,-143.5 0,-162.5 66,-162.5 66,-143.5 0,-143.5"/>
<text text-anchor="middle" x="33" y="-150.5" font-family="Helvetica,sans-Serif" font-size="10.00">Component</text>
</a>
</g>
</g>
<!-- Node7&#45;&gt;Node6 -->
<g id="edge2" class="edge">
<title>Node7&#45;&gt;Node6</title>
<path fill="none" stroke="midnightblue" d="M45.55,-134.8C56.52,-119.77 72,-98.56 80.6,-86.77"/>
<polygon fill="midnightblue" stroke="midnightblue" points="42.47,-133.08 39.41,-143.22 48.13,-137.21 42.47,-133.08"/>
</g>
<!-- Node8 -->
<g id="node4" class="node">
<title>Node8</title>
<g id="a_node4"><a xlink:href="../../d9/dea/classnap_1_1_resource.html" target="_top" xlink:title="Resource">
<polygon fill="white" stroke="black" points="4,-200.5 4,-219.5 62,-219.5 62,-200.5 4,-200.5"/>
<text text-anchor="middle" x="33" y="-207.5" font-family="Helvetica,sans-Serif" font-size="10.00">Resource</text>
</a>
</g>
</g>
<!-- Node8&#45;&gt;Node7 -->
<g id="edge3" class="edge">
<title>Node8&#45;&gt;Node7</title>
<path fill="none" stroke="midnightblue" d="M33,-190.12C33,-180.82 33,-170.06 33,-162.71"/>
<polygon fill="midnightblue" stroke="midnightblue" points="29.5,-190.41 33,-200.41 36.5,-190.41 29.5,-190.41"/>
</g>
<!-- Node9 -->
<g id="node5" class="node">
<title>Node9</title>
<g id="a_node5"><a xlink:href="../../de/d01/classnap_1_1rtti_1_1_object.html" target="_top" xlink:title="Object">
<polygon fill="white" stroke="black" points="10.5,-257.5 10.5,-276.5 55.5,-276.5 55.5,-257.5 10.5,-257.5"/>
<text text-anchor="middle" x="33" y="-264.5" font-family="Helvetica,sans-Serif" font-size="10.00">Object</text>
</a>
</g>
</g>
<!-- Node9&#45;&gt;Node8 -->
<g id="edge4" class="edge">
<title>Node9&#45;&gt;Node8</title>
<path fill="none" stroke="midnightblue" d="M33,-247.12C33,-237.82 33,-227.06 33,-219.71"/>
<polygon fill="midnightblue" stroke="midnightblue" points="29.5,-247.41 33,-257.41 36.5,-247.41 29.5,-247.41"/>
</g>
<!-- Node10 -->
<g id="node6" class="node">
<title>Node10</title>
<g id="a_node6"><a xlink:href="../../d5/da0/classnap_1_1math_1_1_rect.html" target="_top" xlink:title="Rect">
<polygon fill="white" stroke="black" points="167.5,-67.5 167.5,-86.5 204.5,-86.5 204.5,-67.5 167.5,-67.5"/>
<text text-anchor="middle" x="186" y="-74.5" font-family="Helvetica,sans-Serif" font-size="10.00">Rect</text>
</a>
</g>
</g>
<!-- Node10&#45;&gt;Node5 -->
<g id="edge5" class="edge">
<title>Node10&#45;&gt;Node5</title>
<path fill="none" stroke="#9a32cd" stroke-dasharray="5,2" d="M185.7,-56.83C186.32,-50.5 187.8,-43.65 191,-38 195.31,-30.39 202.69,-24.13 209.48,-19.57"/>
<polygon fill="#9a32cd" stroke="#9a32cd" points="182.19,-57.16 185.35,-67.27 189.18,-57.39 182.19,-57.16"/>
<text text-anchor="middle" x="215.5" y="-41" font-family="Helvetica,sans-Serif" font-size="10.00"> mClipRect</text>
</g>
<!-- Node11 -->
<g id="node7" class="node">
<title>Node11</title>
<g id="a_node7"><a xlink:href="../../d6/d4f/classnap_1_1_material_instance_resource.html" target="_top" xlink:title="MaterialInstanceResource">
<polygon fill="white" stroke="black" points="222.5,-67.5 222.5,-86.5 351.5,-86.5 351.5,-67.5 222.5,-67.5"/>
<text text-anchor="middle" x="287" y="-74.5" font-family="Helvetica,sans-Serif" font-size="10.00">MaterialInstanceResource</text>
</a>
</g>
</g>
<!-- Node11&#45;&gt;Node5 -->
<g id="edge6" class="edge">
<title>Node11&#45;&gt;Node5</title>
<path fill="none" stroke="#9a32cd" stroke-dasharray="5,2" d="M271.74,-60C259.58,-47.25 243.02,-29.89 233.23,-19.63"/>
<polygon fill="#9a32cd" stroke="#9a32cd" points="269.2,-62.41 278.64,-67.23 274.27,-57.58 269.2,-62.41"/>
<text text-anchor="middle" x="322" y="-41" font-family="Helvetica,sans-Serif" font-size="10.00"> mMaterialInstanceResource</text>
</g>
<!-- Node12 -->
<g id="node8" class="node">
<title>Node12</title>
<g id="a_node8"><a xlink:href="../../df/d7a/classnap_1_1_base_material_instance_resource.html" target="_top" xlink:title="BaseMaterialInstanceResource">
<polygon fill="white" stroke="black" points="84,-143.5 84,-162.5 236,-162.5 236,-143.5 84,-143.5"/>
<text text-anchor="middle" x="160" y="-150.5" font-family="Helvetica,sans-Serif" font-size="10.00">BaseMaterialInstanceResource</text>
</a>
</g>
</g>
<!-- Node12&#45;&gt;Node11 -->
<g id="edge7" class="edge">
<title>Node12&#45;&gt;Node11</title>
<path fill="none" stroke="midnightblue" d="M183.92,-138.06C209.94,-122.9 250.7,-99.15 272.34,-86.54"/>
<polygon fill="midnightblue" stroke="midnightblue" points="181.95,-135.16 175.07,-143.22 185.47,-141.21 181.95,-135.16"/>
</g>
<!-- Node13 -->
<g id="node9" class="node">
<title>Node13</title>
<g id="a_node9"><a xlink:href="../../dd/d7c/classnap_1_1rtti_1_1_object_ptr.html" target="_top" xlink:title="ObjectPtr\&lt; nap::Material \&gt;">
<polygon fill="white" stroke="black" points="254,-143.5 254,-162.5 386,-162.5 386,-143.5 254,-143.5"/>
<text text-anchor="middle" x="320" y="-150.5" font-family="Helvetica,sans-Serif" font-size="10.00">ObjectPtr&lt; nap::Material &gt;</text>
</a>
</g>
</g>
<!-- Node13&#45;&gt;Node11 -->
<g id="edge8" class="edge">
<title>Node13&#45;&gt;Node11</title>
<path fill="none" stroke="#9a32cd" stroke-dasharray="5,2" d="M301.77,-136.22C298.75,-132.81 295.97,-129.01 294,-125 287.95,-112.71 286.81,-96.6 286.75,-86.79"/>
<polygon fill="#9a32cd" stroke="#9a32cd" points="299.42,-138.82 308.97,-143.41 304.36,-133.86 299.42,-138.82"/>
<text text-anchor="middle" x="317" y="-112.5" font-family="Helvetica,sans-Serif" font-size="10.00"> mMaterial</text>
</g>
<!-- Node14 -->
<g id="node10" class="node">
<title>Node14</title>
<g id="a_node10"><a xlink:href="../../d7/dcb/classnap_1_1rtti_1_1_object_ptr_base.html" target="_top" xlink:title="ObjectPtrBase">
<polygon fill="white" stroke="black" points="344,-200.5 344,-219.5 424,-219.5 424,-200.5 344,-200.5"/>
<text text-anchor="middle" x="384" y="-207.5" font-family="Helvetica,sans-Serif" font-size="10.00">ObjectPtrBase</text>
</a>
</g>
</g>
<!-- Node14&#45;&gt;Node13 -->
<g id="edge9" class="edge">
<title>Node14&#45;&gt;Node13</title>
<path fill="none" stroke="midnightblue" d="M366.21,-193.71C354.58,-183.72 339.81,-171.02 330.14,-162.71"/>
<polygon fill="midnightblue" stroke="midnightblue" points="364.13,-196.54 374,-200.41 368.7,-191.23 364.13,-196.54"/>
</g>
<!-- Node15 -->
<g id="node11" class="node">
<title>Node15</title>
<g id="a_node11"><a xlink:href="../../dd/d7c/classnap_1_1rtti_1_1_object_ptr.html" target="_top" xlink:title="ObjectPtr\&lt; nap::IMesh \&gt;">
<polygon fill="white" stroke="black" points="349,-105.5 349,-124.5 473,-124.5 473,-105.5 349,-105.5"/>
<text text-anchor="middle" x="411" y="-112.5" font-family="Helvetica,sans-Serif" font-size="10.00">ObjectPtr&lt; nap::IMesh &gt;</text>
</a>
</g>
</g>
<!-- Node14&#45;&gt;Node15 -->
<g id="edge11" class="edge">
<title>Node14&#45;&gt;Node15</title>
<path fill="none" stroke="midnightblue" d="M389.34,-190.62C395.14,-170.62 404.18,-139.5 408.51,-124.56"/>
<polygon fill="midnightblue" stroke="midnightblue" points="385.92,-189.84 386.49,-200.42 392.64,-191.79 385.92,-189.84"/>
</g>
<!-- Node15&#45;&gt;Node5 -->
<g id="edge10" class="edge">
<title>Node15&#45;&gt;Node5</title>
<path fill="none" stroke="#9a32cd" stroke-dasharray="5,2" d="M410.65,-95.27C409.26,-77.79 404.32,-52.33 388,-38 374.04,-25.75 332.5,-18.98 294.84,-15.29"/>
<polygon fill="#9a32cd" stroke="#9a32cd" points="407.16,-95.58 411.14,-105.4 414.15,-95.24 407.16,-95.58"/>
<text text-anchor="middle" x="428" y="-74.5" font-family="Helvetica,sans-Serif" font-size="10.00"> mMesh</text>
</g>
</g>
</svg>
