<?xml version="1.0" encoding="UTF-8" standalone="no"?>
<!DOCTYPE svg PUBLIC "-//W3C//DTD SVG 1.1//EN"
 "http://www.w3.org/Graphics/SVG/1.1/DTD/svg11.dtd">
<!-- Generated by graphviz version 2.48.0 (20210717.1556)
 -->
<!-- Title: BaseMaterialInstanceResource Pages: 1 -->
<svg width="324pt" height="84pt"
 viewBox="0.00 0.00 323.50 84.00" xmlns="http://www.w3.org/2000/svg" xmlns:xlink="http://www.w3.org/1999/xlink">
<g id="graph0" class="graph" transform="scale(1 1) rotate(0) translate(4 80)">
<title>BaseMaterialInstanceResource</title>
<polygon fill="white" stroke="transparent" points="-4,4 -4,-80 319.5,-80 319.5,4 -4,4"/>
<!-- Node0 -->
<g id="node1" class="node">
<title>Node0</title>
<polygon fill="#bfbfbf" stroke="black" points="91,-56.5 91,-75.5 243,-75.5 243,-56.5 91,-56.5"/>
<text text-anchor="middle" x="167" y="-63.5" font-family="Helvetica,sans-Serif" font-size="10.00">BaseMaterialInstanceResource</text>
</g>
<!-- Node1 -->
<g id="node2" class="node">
<title>Node1</title>
<g id="a_node2"><a xlink:href="../../d9/d09/classnap_1_1_compute_material_instance_resource.html" target="_top" xlink:title="ComputeMaterialInstanceResource">
<polygon fill="white" stroke="black" points="0,-0.5 0,-19.5 168,-19.5 168,-0.5 0,-0.5"/>
<text text-anchor="middle" x="84" y="-7.5" font-family="Helvetica,sans-Serif" font-size="10.00">ComputeMaterialInstanceResource</text>
</a>
</g>
</g>
<!-- Node0&#45;&gt;Node1 -->
<g id="edge1" class="edge">
<title>Node0&#45;&gt;Node1</title>
<path fill="none" stroke="midnightblue" d="M144.9,-50.62C129.74,-40.76 110.12,-27.99 97.3,-19.65"/>
<polygon fill="midnightblue" stroke="midnightblue" points="143.37,-53.8 153.66,-56.32 147.19,-47.94 143.37,-53.8"/>
</g>
<!-- Node2 -->
<g id="node3" class="node">
<title>Node2</title>
<g id="a_node3"><a xlink:href="../../d6/d4f/classnap_1_1_material_instance_resource.html" target="_top" xlink:title="MaterialInstanceResource">
<polygon fill="white" stroke="black" points="186.5,-0.5 186.5,-19.5 315.5,-19.5 315.5,-0.5 186.5,-0.5"/>
<text text-anchor="middle" x="251" y="-7.5" font-family="Helvetica,sans-Serif" font-size="10.00">MaterialInstanceResource</text>
</a>
</g>
</g>
<!-- Node0&#45;&gt;Node2 -->
<g id="edge2" class="edge">
<title>Node0&#45;&gt;Node2</title>
<path fill="none" stroke="midnightblue" d="M188.93,-50.9C204.34,-41 224.45,-28.07 237.54,-19.65"/>
<polygon fill="midnightblue" stroke="midnightblue" points="187.02,-47.97 180.5,-56.32 190.8,-53.86 187.02,-47.97"/>
</g>
</g>
</svg>
