<?xml version="1.0" encoding="UTF-8" standalone="no"?>
<!DOCTYPE svg PUBLIC "-//W3C//DTD SVG 1.1//EN"
 "http://www.w3.org/Graphics/SVG/1.1/DTD/svg11.dtd">
<!-- Generated by graphviz version 2.43.0 (0)
 -->
<!-- Title: BaseMaterialInstanceResource Pages: 1 -->
<svg width="358pt" height="84pt"
 viewBox="0.00 0.00 357.50 84.00" xmlns="http://www.w3.org/2000/svg" xmlns:xlink="http://www.w3.org/1999/xlink">
<g id="graph0" class="graph" transform="scale(1 1) rotate(0) translate(4 80)">
<title>BaseMaterialInstanceResource</title>
<polygon fill="white" stroke="transparent" points="-4,4 -4,-80 353.5,-80 353.5,4 -4,4"/>
<!-- Node1 -->
<g id="node1" class="node">
<title>Node1</title>
<g id="a_node1"><a xlink:title=" ">
<polygon fill="#bfbfbf" stroke="black" points="102.5,-56.5 102.5,-75.5 269.5,-75.5 269.5,-56.5 102.5,-56.5"/>
<text text-anchor="middle" x="186" y="-63.5" font-family="Helvetica,sans-Serif" font-size="10.00">BaseMaterialInstanceResource</text>
</a>
</g>
</g>
<!-- Node2 -->
<g id="node2" class="node">
<title>Node2</title>
<g id="a_node2"><a xlink:href="../../d9/d09/classnap_1_1_compute_material_instance_resource.html" target="_top" xlink:title=" ">
<polygon fill="white" stroke="black" points="0,-0.5 0,-19.5 188,-19.5 188,-0.5 0,-0.5"/>
<text text-anchor="middle" x="94" y="-7.5" font-family="Helvetica,sans-Serif" font-size="10.00">ComputeMaterialInstanceResource</text>
</a>
</g>
</g>
<!-- Node1&#45;&gt;Node2 -->
<g id="edge1" class="edge">
<title>Node1&#45;&gt;Node2</title>
<path fill="none" stroke="midnightblue" d="M162.45,-51.18C145.52,-41.24 123.22,-28.15 108.74,-19.65"/>
<polygon fill="midnightblue" stroke="midnightblue" points="160.82,-54.28 171.22,-56.32 164.37,-48.24 160.82,-54.28"/>
</g>
<!-- Node3 -->
<g id="node3" class="node">
<title>Node3</title>
<g id="a_node3"><a xlink:href="../../d6/d4f/classnap_1_1_material_instance_resource.html" target="_top" xlink:title=" ">
<polygon fill="white" stroke="black" points="206.5,-0.5 206.5,-19.5 349.5,-19.5 349.5,-0.5 206.5,-0.5"/>
<text text-anchor="middle" x="278" y="-7.5" font-family="Helvetica,sans-Serif" font-size="10.00">MaterialInstanceResource</text>
</a>
</g>
</g>
<!-- Node1&#45;&gt;Node3 -->
<g id="edge2" class="edge">
<title>Node1&#45;&gt;Node3</title>
<path fill="none" stroke="midnightblue" d="M209.55,-51.18C226.48,-41.24 248.78,-28.15 263.26,-19.65"/>
<polygon fill="midnightblue" stroke="midnightblue" points="207.63,-48.24 200.78,-56.32 211.18,-54.28 207.63,-48.24"/>
</g>
</g>
</svg>
