<?xml version="1.0" encoding="UTF-8" standalone="no"?>
<!DOCTYPE svg PUBLIC "-//W3C//DTD SVG 1.1//EN"
 "http://www.w3.org/Graphics/SVG/1.1/DTD/svg11.dtd">
<!-- Generated by graphviz version 2.43.0 (0)
 -->
<!-- Title: BufferBinding Pages: 1 -->
<svg width="290pt" height="252pt"
 viewBox="0.00 0.00 290.00 252.00" xmlns="http://www.w3.org/2000/svg" xmlns:xlink="http://www.w3.org/1999/xlink">
<g id="graph0" class="graph" transform="scale(1 1) rotate(0) translate(4 248)">
<title>BufferBinding</title>
<polygon fill="white" stroke="transparent" points="-4,4 -4,-248 286,-248 286,4 -4,4"/>
<!-- Node1 -->
<g id="node1" class="node">
<title>Node1</title>
<g id="a_node1"><a xlink:title=" ">
<polygon fill="#bfbfbf" stroke="black" points="117,-112.5 117,-131.5 200,-131.5 200,-112.5 117,-112.5"/>
<text text-anchor="middle" x="158.5" y="-119.5" font-family="Helvetica,sans-Serif" font-size="10.00">BufferBinding</text>
</a>
</g>
</g>
<!-- Node4 -->
<g id="node4" class="node">
<title>Node4</title>
<g id="a_node4"><a xlink:href="../../df/db8/classnap_1_1_buffer_binding_numeric.html" target="_top" xlink:title=" ">
<polygon fill="white" stroke="black" points="28.5,-56.5 28.5,-75.5 152.5,-75.5 152.5,-56.5 28.5,-56.5"/>
<text text-anchor="middle" x="90.5" y="-63.5" font-family="Helvetica,sans-Serif" font-size="10.00">BufferBindingNumeric</text>
</a>
</g>
</g>
<!-- Node1&#45;&gt;Node4 -->
<g id="edge3" class="edge">
<title>Node1&#45;&gt;Node4</title>
<path fill="none" stroke="midnightblue" d="M139.74,-106.1C127.5,-96.38 111.94,-84.03 101.62,-75.83"/>
<polygon fill="midnightblue" stroke="midnightblue" points="137.57,-108.85 147.57,-112.32 141.92,-103.36 137.57,-108.85"/>
</g>
<!-- Node6 -->
<g id="node6" class="node">
<title>Node6</title>
<g id="a_node6"><a xlink:href="../../db/d8f/classnap_1_1_buffer_binding_struct.html" target="_top" xlink:title=" ">
<polygon fill="white" stroke="black" points="171,-56.5 171,-75.5 282,-75.5 282,-56.5 171,-56.5"/>
<text text-anchor="middle" x="226.5" y="-63.5" font-family="Helvetica,sans-Serif" font-size="10.00">BufferBindingStruct</text>
</a>
</g>
</g>
<!-- Node1&#45;&gt;Node6 -->
<g id="edge5" class="edge">
<title>Node1&#45;&gt;Node6</title>
<path fill="none" stroke="midnightblue" d="M177.26,-106.1C189.5,-96.38 205.06,-84.03 215.38,-75.83"/>
<polygon fill="midnightblue" stroke="midnightblue" points="175.08,-103.36 169.43,-112.32 179.43,-108.85 175.08,-103.36"/>
</g>
<!-- Node2 -->
<g id="node2" class="node">
<title>Node2</title>
<g id="a_node2"><a xlink:href="../../d9/dea/classnap_1_1_resource.html" target="_top" xlink:title=" ">
<polygon fill="white" stroke="black" points="127.5,-168.5 127.5,-187.5 189.5,-187.5 189.5,-168.5 127.5,-168.5"/>
<text text-anchor="middle" x="158.5" y="-175.5" font-family="Helvetica,sans-Serif" font-size="10.00">Resource</text>
</a>
</g>
</g>
<!-- Node2&#45;&gt;Node1 -->
<g id="edge1" class="edge">
<title>Node2&#45;&gt;Node1</title>
<path fill="none" stroke="midnightblue" d="M158.5,-157.8C158.5,-148.91 158.5,-138.78 158.5,-131.75"/>
<polygon fill="midnightblue" stroke="midnightblue" points="155,-158.08 158.5,-168.08 162,-158.08 155,-158.08"/>
</g>
<!-- Node3 -->
<g id="node3" class="node">
<title>Node3</title>
<g id="a_node3"><a xlink:href="../../de/d01/classnap_1_1rtti_1_1_object.html" target="_top" xlink:title=" ">
<polygon fill="white" stroke="black" points="134.5,-224.5 134.5,-243.5 182.5,-243.5 182.5,-224.5 134.5,-224.5"/>
<text text-anchor="middle" x="158.5" y="-231.5" font-family="Helvetica,sans-Serif" font-size="10.00">Object</text>
</a>
</g>
</g>
<!-- Node3&#45;&gt;Node2 -->
<g id="edge2" class="edge">
<title>Node3&#45;&gt;Node2</title>
<path fill="none" stroke="midnightblue" d="M158.5,-213.8C158.5,-204.91 158.5,-194.78 158.5,-187.75"/>
<polygon fill="midnightblue" stroke="midnightblue" points="155,-214.08 158.5,-224.08 162,-214.08 155,-214.08"/>
</g>
<!-- Node5 -->
<g id="node5" class="node">
<title>Node5</title>
<g id="a_node5"><a xlink:href="../../d5/d93/classnap_1_1_typed_buffer_binding_numeric.html" target="_top" xlink:title=" ">
<polygon fill="white" stroke="black" points="0,-0.5 0,-19.5 181,-19.5 181,-0.5 0,-0.5"/>
<text text-anchor="middle" x="90.5" y="-7.5" font-family="Helvetica,sans-Serif" font-size="10.00">TypedBufferBindingNumeric&lt; T &gt;</text>
</a>
</g>
</g>
<!-- Node4&#45;&gt;Node5 -->
<g id="edge4" class="edge">
<title>Node4&#45;&gt;Node5</title>
<path fill="none" stroke="midnightblue" d="M90.5,-45.8C90.5,-36.91 90.5,-26.78 90.5,-19.75"/>
<polygon fill="midnightblue" stroke="midnightblue" points="87,-46.08 90.5,-56.08 94,-46.08 87,-46.08"/>
</g>
</g>
</svg>
