<?xml version="1.0" encoding="UTF-8" standalone="no"?>
<!DOCTYPE svg PUBLIC "-//W3C//DTD SVG 1.1//EN"
 "http://www.w3.org/Graphics/SVG/1.1/DTD/svg11.dtd">
<!-- Generated by graphviz version 2.48.0 (20210717.1556)
 -->
<!-- Title: BufferBinding Pages: 1 -->
<svg width="261pt" height="252pt"
 viewBox="0.00 0.00 260.50 252.00" xmlns="http://www.w3.org/2000/svg" xmlns:xlink="http://www.w3.org/1999/xlink">
<g id="graph0" class="graph" transform="scale(1 1) rotate(0) translate(4 248)">
<title>BufferBinding</title>
<polygon fill="white" stroke="transparent" points="-4,4 -4,-248 256.5,-248 256.5,4 -4,4"/>
<!-- Node0 -->
<g id="node1" class="node">
<title>Node0</title>
<polygon fill="#bfbfbf" stroke="black" points="103.5,-112.5 103.5,-131.5 177.5,-131.5 177.5,-112.5 103.5,-112.5"/>
<text text-anchor="middle" x="140.5" y="-119.5" font-family="Helvetica,sans-Serif" font-size="10.00">BufferBinding</text>
</g>
<!-- Node3 -->
<g id="node4" class="node">
<title>Node3</title>
<g id="a_node4"><a xlink:href="../../df/db8/classnap_1_1_buffer_binding_numeric.html" target="_top" xlink:title="BufferBindingNumeric">
<polygon fill="white" stroke="black" points="24.5,-56.5 24.5,-75.5 134.5,-75.5 134.5,-56.5 24.5,-56.5"/>
<text text-anchor="middle" x="79.5" y="-63.5" font-family="Helvetica,sans-Serif" font-size="10.00">BufferBindingNumeric</text>
</a>
</g>
</g>
<!-- Node0&#45;&gt;Node3 -->
<g id="edge3" class="edge">
<title>Node0&#45;&gt;Node3</title>
<path fill="none" stroke="midnightblue" d="M123.03,-105.54C112.16,-95.91 98.56,-83.87 89.48,-75.83"/>
<polygon fill="midnightblue" stroke="midnightblue" points="120.89,-108.32 130.7,-112.32 125.53,-103.07 120.89,-108.32"/>
</g>
<!-- Node5 -->
<g id="node6" class="node">
<title>Node5</title>
<g id="a_node6"><a xlink:href="../../db/d8f/classnap_1_1_buffer_binding_struct.html" target="_top" xlink:title="BufferBindingStruct">
<polygon fill="white" stroke="black" points="152.5,-56.5 152.5,-75.5 252.5,-75.5 252.5,-56.5 152.5,-56.5"/>
<text text-anchor="middle" x="202.5" y="-63.5" font-family="Helvetica,sans-Serif" font-size="10.00">BufferBindingStruct</text>
</a>
</g>
</g>
<!-- Node0&#45;&gt;Node5 -->
<g id="edge5" class="edge">
<title>Node0&#45;&gt;Node5</title>
<path fill="none" stroke="midnightblue" d="M158.25,-105.54C169.31,-95.91 183.13,-83.87 192.36,-75.83"/>
<polygon fill="midnightblue" stroke="midnightblue" points="155.7,-103.12 150.46,-112.32 160.3,-108.4 155.7,-103.12"/>
</g>
<!-- Node1 -->
<g id="node2" class="node">
<title>Node1</title>
<g id="a_node2"><a xlink:href="../../d9/dea/classnap_1_1_resource.html" target="_top" xlink:title="Resource">
<polygon fill="white" stroke="black" points="111.5,-168.5 111.5,-187.5 169.5,-187.5 169.5,-168.5 111.5,-168.5"/>
<text text-anchor="middle" x="140.5" y="-175.5" font-family="Helvetica,sans-Serif" font-size="10.00">Resource</text>
</a>
</g>
</g>
<!-- Node1&#45;&gt;Node0 -->
<g id="edge1" class="edge">
<title>Node1&#45;&gt;Node0</title>
<path fill="none" stroke="midnightblue" d="M140.5,-157.8C140.5,-148.91 140.5,-138.78 140.5,-131.75"/>
<polygon fill="midnightblue" stroke="midnightblue" points="137,-158.08 140.5,-168.08 144,-158.08 137,-158.08"/>
</g>
<!-- Node2 -->
<g id="node3" class="node">
<title>Node2</title>
<g id="a_node3"><a xlink:href="../../de/d01/classnap_1_1rtti_1_1_object.html" target="_top" xlink:title="Object">
<polygon fill="white" stroke="black" points="118,-224.5 118,-243.5 163,-243.5 163,-224.5 118,-224.5"/>
<text text-anchor="middle" x="140.5" y="-231.5" font-family="Helvetica,sans-Serif" font-size="10.00">Object</text>
</a>
</g>
</g>
<!-- Node2&#45;&gt;Node1 -->
<g id="edge2" class="edge">
<title>Node2&#45;&gt;Node1</title>
<path fill="none" stroke="midnightblue" d="M140.5,-213.8C140.5,-204.91 140.5,-194.78 140.5,-187.75"/>
<polygon fill="midnightblue" stroke="midnightblue" points="137,-214.08 140.5,-224.08 144,-214.08 137,-214.08"/>
</g>
<!-- Node4 -->
<g id="node5" class="node">
<title>Node4</title>
<g id="a_node5"><a xlink:href="../../d5/d93/classnap_1_1_typed_buffer_binding_numeric.html" target="_top" xlink:title="TypedBufferBindingNumeric\&lt; T \&gt;">
<polygon fill="white" stroke="black" points="0,-0.5 0,-19.5 159,-19.5 159,-0.5 0,-0.5"/>
<text text-anchor="middle" x="79.5" y="-7.5" font-family="Helvetica,sans-Serif" font-size="10.00">TypedBufferBindingNumeric&lt; T &gt;</text>
</a>
</g>
</g>
<!-- Node3&#45;&gt;Node4 -->
<g id="edge4" class="edge">
<title>Node3&#45;&gt;Node4</title>
<path fill="none" stroke="midnightblue" d="M79.5,-45.8C79.5,-36.91 79.5,-26.78 79.5,-19.75"/>
<polygon fill="midnightblue" stroke="midnightblue" points="76,-46.08 79.5,-56.08 83,-46.08 76,-46.08"/>
</g>
</g>
</svg>
