<?xml version="1.0" encoding="UTF-8" standalone="no"?>
<!DOCTYPE svg PUBLIC "-//W3C//DTD SVG 1.1//EN"
 "http://www.w3.org/Graphics/SVG/1.1/DTD/svg11.dtd">
<!-- Generated by graphviz version 3.0.0 (20220226.1711)
 -->
<!-- Title: UniformDeclaration Pages: 1 -->
<svg width="478pt" height="142pt"
 viewBox="0.00 0.00 478.00 142.00" xmlns="http://www.w3.org/2000/svg" xmlns:xlink="http://www.w3.org/1999/xlink">
<g id="graph0" class="graph" transform="scale(1 1) rotate(0) translate(4 138)">
<title>UniformDeclaration</title>
<polygon fill="white" stroke="transparent" points="-4,4 -4,-138 474,-138 474,4 -4,4"/>
<!-- Node0 -->
<g id="node1" class="node">
<title>Node0</title>
<polygon fill="#bfbfbf" stroke="black" points="0,-57.5 0,-76.5 98,-76.5 98,-57.5 0,-57.5"/>
<text text-anchor="middle" x="49" y="-64.5" font-family="Helvetica,sans-Serif" font-size="10.00">UniformDeclaration</text>
</g>
<!-- Node1 -->
<g id="node2" class="node">
<title>Node1</title>
<g id="a_node2"><a xlink:href="../../dc/d0a/classnap_1_1_uniform_struct_array_declaration.html" target="_top" xlink:title="UniformStructArrayDeclaration">
<polygon fill="white" stroke="black" points="134,-114.5 134,-133.5 282,-133.5 282,-114.5 134,-114.5"/>
<text text-anchor="middle" x="208" y="-121.5" font-family="Helvetica,sans-Serif" font-size="10.00">UniformStructArrayDeclaration</text>
</a>
</g>
</g>
<!-- Node0&#45;&gt;Node1 -->
<g id="edge1" class="edge">
<title>Node0&#45;&gt;Node1</title>
<path fill="none" stroke="midnightblue" d="M78.01,-81.12C94.11,-88.87 114.88,-98.24 134,-105 144,-108.53 154.98,-111.73 165.32,-114.46"/>
<polygon fill="midnightblue" stroke="midnightblue" points="79.16,-77.79 68.64,-76.54 76.09,-84.08 79.16,-77.79"/>
</g>
<!-- Node2 -->
<g id="node3" class="node">
<title>Node2</title>
<g id="a_node3"><a xlink:href="../../d0/dff/classnap_1_1_uniform_struct_declaration.html" target="_top" xlink:title="UniformStructDeclaration">
<polygon fill="white" stroke="black" points="145.5,-76.5 145.5,-95.5 270.5,-95.5 270.5,-76.5 145.5,-76.5"/>
<text text-anchor="middle" x="208" y="-83.5" font-family="Helvetica,sans-Serif" font-size="10.00">UniformStructDeclaration</text>
</a>
</g>
</g>
<!-- Node0&#45;&gt;Node2 -->
<g id="edge2" class="edge">
<title>Node0&#45;&gt;Node2</title>
<path fill="none" stroke="midnightblue" d="M108.36,-74.06C120.45,-75.53 133.23,-77.07 145.44,-78.55"/>
<polygon fill="midnightblue" stroke="midnightblue" points="108.73,-70.58 98.39,-72.86 107.89,-77.53 108.73,-70.58"/>
</g>
<!-- Node4 -->
<g id="node5" class="node">
<title>Node4</title>
<g id="a_node5"><a xlink:href="../../d5/dad/classnap_1_1_uniform_value_array_declaration.html" target="_top" xlink:title="UniformValueArrayDeclaration">
<polygon fill="white" stroke="black" points="135,-38.5 135,-57.5 281,-57.5 281,-38.5 135,-38.5"/>
<text text-anchor="middle" x="208" y="-45.5" font-family="Helvetica,sans-Serif" font-size="10.00">UniformValueArrayDeclaration</text>
</a>
</g>
</g>
<!-- Node0&#45;&gt;Node4 -->
<g id="edge4" class="edge">
<title>Node0&#45;&gt;Node4</title>
<path fill="none" stroke="midnightblue" d="M108.33,-59.94C116.96,-58.9 125.95,-57.81 134.82,-56.74"/>
<polygon fill="midnightblue" stroke="midnightblue" points="107.89,-56.47 98.39,-61.14 108.73,-63.42 107.89,-56.47"/>
</g>
<!-- Node5 -->
<g id="node6" class="node">
<title>Node5</title>
<g id="a_node6"><a xlink:href="../../d5/dff/classnap_1_1_uniform_value_declaration.html" target="_top" xlink:title="UniformValueDeclaration">
<polygon fill="white" stroke="black" points="146.5,-0.5 146.5,-19.5 269.5,-19.5 269.5,-0.5 146.5,-0.5"/>
<text text-anchor="middle" x="208" y="-7.5" font-family="Helvetica,sans-Serif" font-size="10.00">UniformValueDeclaration</text>
</a>
</g>
</g>
<!-- Node0&#45;&gt;Node5 -->
<g id="edge5" class="edge">
<title>Node0&#45;&gt;Node5</title>
<path fill="none" stroke="midnightblue" d="M78.01,-52.88C94.11,-45.13 114.88,-35.76 134,-29 144,-25.47 154.98,-22.27 165.32,-19.54"/>
<polygon fill="midnightblue" stroke="midnightblue" points="76.09,-49.92 68.64,-57.46 79.16,-56.21 76.09,-49.92"/>
</g>
<!-- Node3 -->
<g id="node4" class="node">
<title>Node3</title>
<g id="a_node4"><a xlink:href="../../df/dd4/classnap_1_1_uniform_buffer_object_declaration.html" target="_top" xlink:title="UniformBufferObjectDeclaration">
<polygon fill="white" stroke="black" points="318,-76.5 318,-95.5 470,-95.5 470,-76.5 318,-76.5"/>
<text text-anchor="middle" x="394" y="-83.5" font-family="Helvetica,sans-Serif" font-size="10.00">UniformBufferObjectDeclaration</text>
</a>
</g>
</g>
<!-- Node2&#45;&gt;Node3 -->
<g id="edge3" class="edge">
<title>Node2&#45;&gt;Node3</title>
<path fill="none" stroke="midnightblue" d="M280.62,-86C292.81,-86 305.5,-86 317.78,-86"/>
<polygon fill="midnightblue" stroke="midnightblue" points="280.53,-82.5 270.53,-86 280.53,-89.5 280.53,-82.5"/>
</g>
</g>
</svg>
