<?xml version="1.0" encoding="UTF-8" standalone="no"?>
<!DOCTYPE svg PUBLIC "-//W3C//DTD SVG 1.1//EN"
 "http://www.w3.org/Graphics/SVG/1.1/DTD/svg11.dtd">
<!-- Generated by graphviz version 2.48.0 (20210717.1556)
 -->
<!-- Title: UniformBufferObject Pages: 1 -->
<svg width="166pt" height="209pt"
 viewBox="0.00 0.00 166.00 209.00" xmlns="http://www.w3.org/2000/svg" xmlns:xlink="http://www.w3.org/1999/xlink">
<g id="graph0" class="graph" transform="scale(1 1) rotate(0) translate(4 205)">
<title>UniformBufferObject</title>
<polygon fill="white" stroke="transparent" points="-4,4 -4,-205 162,-205 162,4 -4,4"/>
<!-- Node1 -->
<g id="node1" class="node">
<title>Node1</title>
<polygon fill="#bfbfbf" stroke="black" points="27.5,-0.5 27.5,-19.5 130.5,-19.5 130.5,-0.5 27.5,-0.5"/>
<text text-anchor="middle" x="79" y="-7.5" font-family="Helvetica,sans-Serif" font-size="10.00">UniformBufferObject</text>
</g>
<!-- Node2 -->
<g id="node2" class="node">
<title>Node2</title>
<g id="a_node2"><a xlink:href="../../dd/d6b/classnap_1_1_buffer_object_declaration.html" target="_top" xlink:title="BufferObjectDeclaration">
<polygon fill="white" stroke="black" points="19.5,-67.5 19.5,-86.5 138.5,-86.5 138.5,-67.5 19.5,-67.5"/>
<text text-anchor="middle" x="79" y="-74.5" font-family="Helvetica,sans-Serif" font-size="10.00">BufferObjectDeclaration</text>
</a>
</g>
</g>
<!-- Node2&#45;&gt;Node1 -->
<g id="edge1" class="edge">
<title>Node2&#45;&gt;Node1</title>
<path fill="none" stroke="#9a32cd" stroke-dasharray="5,2" d="M79,-57.04C79,-44.67 79,-29.12 79,-19.63"/>
<polygon fill="#9a32cd" stroke="#9a32cd" points="75.5,-57.23 79,-67.23 82.5,-57.23 75.5,-57.23"/>
<text text-anchor="middle" x="109.5" y="-41" font-family="Helvetica,sans-Serif" font-size="10.00"> mDeclaration</text>
</g>
<!-- Node3 -->
<g id="node3" class="node">
<title>Node3</title>
<g id="a_node3"><a xlink:href="../../d1/d7d/classnap_1_1_shader_variable_struct_declaration.html" target="_top" xlink:title="ShaderVariableStructDeclaration">
<polygon fill="white" stroke="black" points="0,-124.5 0,-143.5 158,-143.5 158,-124.5 0,-124.5"/>
<text text-anchor="middle" x="79" y="-131.5" font-family="Helvetica,sans-Serif" font-size="10.00">ShaderVariableStructDeclaration</text>
</a>
</g>
</g>
<!-- Node3&#45;&gt;Node2 -->
<g id="edge2" class="edge">
<title>Node3&#45;&gt;Node2</title>
<path fill="none" stroke="midnightblue" d="M79,-114.12C79,-104.82 79,-94.06 79,-86.71"/>
<polygon fill="midnightblue" stroke="midnightblue" points="75.5,-114.41 79,-124.41 82.5,-114.41 75.5,-114.41"/>
</g>
<!-- Node4 -->
<g id="node4" class="node">
<title>Node4</title>
<g id="a_node4"><a xlink:href="../../dc/d72/classnap_1_1_shader_variable_declaration.html" target="_top" xlink:title="ShaderVariableDeclaration">
<polygon fill="white" stroke="black" points="13.5,-181.5 13.5,-200.5 144.5,-200.5 144.5,-181.5 13.5,-181.5"/>
<text text-anchor="middle" x="79" y="-188.5" font-family="Helvetica,sans-Serif" font-size="10.00">ShaderVariableDeclaration</text>
</a>
</g>
</g>
<!-- Node4&#45;&gt;Node3 -->
<g id="edge3" class="edge">
<title>Node4&#45;&gt;Node3</title>
<path fill="none" stroke="midnightblue" d="M79,-171.12C79,-161.82 79,-151.06 79,-143.71"/>
<polygon fill="midnightblue" stroke="midnightblue" points="75.5,-171.41 79,-181.41 82.5,-171.41 75.5,-171.41"/>
</g>
</g>
</svg>
