<?xml version="1.0" encoding="UTF-8" standalone="no"?>
<!DOCTYPE svg PUBLIC "-//W3C//DTD SVG 1.1//EN"
 "http://www.w3.org/Graphics/SVG/1.1/DTD/svg11.dtd">
<!-- Generated by graphviz version 3.0.0 (20220226.1711)
 -->
<!-- Title: UniformBufferObject Pages: 1 -->
<svg width="160pt" height="209pt"
 viewBox="0.00 0.00 160.00 209.00" xmlns="http://www.w3.org/2000/svg" xmlns:xlink="http://www.w3.org/1999/xlink">
<g id="graph0" class="graph" transform="scale(1 1) rotate(0) translate(4 205)">
<title>UniformBufferObject</title>
<polygon fill="white" stroke="transparent" points="-4,4 -4,-205 156,-205 156,4 -4,4"/>
<!-- Node1 -->
<g id="node1" class="node">
<title>Node1</title>
<polygon fill="#bfbfbf" stroke="black" points="24.5,-0.5 24.5,-19.5 127.5,-19.5 127.5,-0.5 24.5,-0.5"/>
<text text-anchor="middle" x="76" y="-7.5" font-family="Helvetica,sans-Serif" font-size="10.00">UniformBufferObject</text>
</g>
<!-- Node2 -->
<g id="node2" class="node">
<title>Node2</title>
<g id="a_node2"><a xlink:href="../../df/dd4/classnap_1_1_uniform_buffer_object_declaration.html" target="_top" xlink:title="UniformBufferObjectDeclaration">
<polygon fill="white" stroke="black" points="0,-67.5 0,-86.5 152,-86.5 152,-67.5 0,-67.5"/>
<text text-anchor="middle" x="76" y="-74.5" font-family="Helvetica,sans-Serif" font-size="10.00">UniformBufferObjectDeclaration</text>
</a>
</g>
</g>
<!-- Node2&#45;&gt;Node1 -->
<g id="edge1" class="edge">
<title>Node2&#45;&gt;Node1</title>
<path fill="none" stroke="#9a32cd" stroke-dasharray="5,2" d="M76,-57.04C76,-44.67 76,-29.12 76,-19.63"/>
<polygon fill="#9a32cd" stroke="#9a32cd" points="72.5,-57.23 76,-67.23 79.5,-57.23 72.5,-57.23"/>
<text text-anchor="middle" x="106.5" y="-41" font-family="Helvetica,sans-Serif" font-size="10.00"> mDeclaration</text>
</g>
<!-- Node3 -->
<g id="node3" class="node">
<title>Node3</title>
<g id="a_node3"><a xlink:href="../../d0/dff/classnap_1_1_uniform_struct_declaration.html" target="_top" xlink:title="UniformStructDeclaration">
<polygon fill="white" stroke="black" points="13.5,-124.5 13.5,-143.5 138.5,-143.5 138.5,-124.5 13.5,-124.5"/>
<text text-anchor="middle" x="76" y="-131.5" font-family="Helvetica,sans-Serif" font-size="10.00">UniformStructDeclaration</text>
</a>
</g>
</g>
<!-- Node3&#45;&gt;Node2 -->
<g id="edge2" class="edge">
<title>Node3&#45;&gt;Node2</title>
<path fill="none" stroke="midnightblue" d="M76,-114.12C76,-104.82 76,-94.06 76,-86.71"/>
<polygon fill="midnightblue" stroke="midnightblue" points="72.5,-114.41 76,-124.41 79.5,-114.41 72.5,-114.41"/>
</g>
<!-- Node4 -->
<g id="node4" class="node">
<title>Node4</title>
<g id="a_node4"><a xlink:href="../../d9/dfc/classnap_1_1_uniform_declaration.html" target="_top" xlink:title="UniformDeclaration">
<polygon fill="white" stroke="black" points="27,-181.5 27,-200.5 125,-200.5 125,-181.5 27,-181.5"/>
<text text-anchor="middle" x="76" y="-188.5" font-family="Helvetica,sans-Serif" font-size="10.00">UniformDeclaration</text>
</a>
</g>
</g>
<!-- Node4&#45;&gt;Node3 -->
<g id="edge3" class="edge">
<title>Node4&#45;&gt;Node3</title>
<path fill="none" stroke="midnightblue" d="M76,-171.12C76,-161.82 76,-151.06 76,-143.71"/>
<polygon fill="midnightblue" stroke="midnightblue" points="72.5,-171.41 76,-181.41 79.5,-171.41 72.5,-171.41"/>
</g>
</g>
</svg>
