<?xml version="1.0" encoding="UTF-8" standalone="no"?>
<!DOCTYPE svg PUBLIC "-//W3C//DTD SVG 1.1//EN"
 "http://www.w3.org/Graphics/SVG/1.1/DTD/svg11.dtd">
<!-- Generated by graphviz version 2.43.0 (0)
 -->
<!-- Title: UniformBufferObject Pages: 1 -->
<svg width="183pt" height="209pt"
 viewBox="0.00 0.00 183.00 209.00" xmlns="http://www.w3.org/2000/svg" xmlns:xlink="http://www.w3.org/1999/xlink">
<g id="graph0" class="graph" transform="scale(1 1) rotate(0) translate(4 205)">
<title>UniformBufferObject</title>
<polygon fill="white" stroke="transparent" points="-4,4 -4,-205 179,-205 179,4 -4,4"/>
<!-- Node1 -->
<g id="node1" class="node">
<title>Node1</title>
<g id="a_node1"><a xlink:title=" ">
<polygon fill="#bfbfbf" stroke="black" points="29,-0.5 29,-19.5 146,-19.5 146,-0.5 29,-0.5"/>
<text text-anchor="middle" x="87.5" y="-7.5" font-family="Helvetica,sans-Serif" font-size="10.00">UniformBufferObject</text>
</a>
</g>
</g>
<!-- Node2 -->
<g id="node2" class="node">
<title>Node2</title>
<g id="a_node2"><a xlink:href="../../dd/d6b/classnap_1_1_buffer_object_declaration.html" target="_top" xlink:title=" ">
<polygon fill="white" stroke="black" points="20.5,-67.5 20.5,-86.5 154.5,-86.5 154.5,-67.5 20.5,-67.5"/>
<text text-anchor="middle" x="87.5" y="-74.5" font-family="Helvetica,sans-Serif" font-size="10.00">BufferObjectDeclaration</text>
</a>
</g>
</g>
<!-- Node2&#45;&gt;Node1 -->
<g id="edge1" class="edge">
<title>Node2&#45;&gt;Node1</title>
<path fill="none" stroke="#9a32cd" stroke-dasharray="5,2" d="M87.5,-57.04C87.5,-44.67 87.5,-29.12 87.5,-19.63"/>
<polygon fill="#9a32cd" stroke="#9a32cd" points="84,-57.23 87.5,-67.23 91,-57.23 84,-57.23"/>
<text text-anchor="middle" x="122.5" y="-41" font-family="Helvetica,sans-Serif" font-size="10.00"> mDeclaration</text>
</g>
<!-- Node3 -->
<g id="node3" class="node">
<title>Node3</title>
<g id="a_node3"><a xlink:href="../../d1/d7d/classnap_1_1_shader_variable_struct_declaration.html" target="_top" xlink:title=" ">
<polygon fill="white" stroke="black" points="0,-124.5 0,-143.5 175,-143.5 175,-124.5 0,-124.5"/>
<text text-anchor="middle" x="87.5" y="-131.5" font-family="Helvetica,sans-Serif" font-size="10.00">ShaderVariableStructDeclaration</text>
</a>
</g>
</g>
<!-- Node3&#45;&gt;Node2 -->
<g id="edge2" class="edge">
<title>Node3&#45;&gt;Node2</title>
<path fill="none" stroke="midnightblue" d="M87.5,-114.12C87.5,-104.82 87.5,-94.06 87.5,-86.71"/>
<polygon fill="midnightblue" stroke="midnightblue" points="84,-114.41 87.5,-124.41 91,-114.41 84,-114.41"/>
</g>
<!-- Node4 -->
<g id="node4" class="node">
<title>Node4</title>
<g id="a_node4"><a xlink:href="../../dc/d72/classnap_1_1_shader_variable_declaration.html" target="_top" xlink:title=" ">
<polygon fill="white" stroke="black" points="14.5,-181.5 14.5,-200.5 160.5,-200.5 160.5,-181.5 14.5,-181.5"/>
<text text-anchor="middle" x="87.5" y="-188.5" font-family="Helvetica,sans-Serif" font-size="10.00">ShaderVariableDeclaration</text>
</a>
</g>
</g>
<!-- Node4&#45;&gt;Node3 -->
<g id="edge3" class="edge">
<title>Node4&#45;&gt;Node3</title>
<path fill="none" stroke="midnightblue" d="M87.5,-171.12C87.5,-161.82 87.5,-151.06 87.5,-143.71"/>
<polygon fill="midnightblue" stroke="midnightblue" points="84,-171.41 87.5,-181.41 91,-171.41 84,-171.41"/>
</g>
</g>
</svg>
