<?xml version="1.0" encoding="UTF-8" standalone="no"?>
<!DOCTYPE svg PUBLIC "-//W3C//DTD SVG 1.1//EN"
 "http://www.w3.org/Graphics/SVG/1.1/DTD/svg11.dtd">
<!-- Generated by graphviz version 3.0.0 (20220226.1711)
 -->
<!-- Title: DefaultInputRouterComponentInstance Pages: 1 -->
<svg width="226pt" height="163pt"
 viewBox="0.00 0.00 225.50 163.00" xmlns="http://www.w3.org/2000/svg" xmlns:xlink="http://www.w3.org/1999/xlink">
<g id="graph0" class="graph" transform="scale(1 1) rotate(0) translate(4 159)">
<title>DefaultInputRouterComponentInstance</title>
<polygon fill="white" stroke="transparent" points="-4,4 -4,-159 221.5,-159 221.5,4 -4,4"/>
<!-- Node3 -->
<g id="node1" class="node">
<title>Node3</title>
<polygon fill="#bfbfbf" stroke="black" points="36.5,-0.5 36.5,-30.5 182.5,-30.5 182.5,-0.5 36.5,-0.5"/>
<text text-anchor="start" x="44.5" y="-18.5" font-family="Helvetica,sans-Serif" font-size="10.00">DefaultInputRouterComponent</text>
<text text-anchor="middle" x="109.5" y="-7.5" font-family="Helvetica,sans-Serif" font-size="10.00">Instance</text>
</g>
<!-- Node4 -->
<g id="node2" class="node">
<title>Node4</title>
<g id="a_node2"><a xlink:href="../../d9/df2/classnap_1_1_component_instance.html" target="_top" xlink:title="ComponentInstance">
<polygon fill="white" stroke="black" points="0,-78.5 0,-97.5 103,-97.5 103,-78.5 0,-78.5"/>
<text text-anchor="middle" x="51.5" y="-85.5" font-family="Helvetica,sans-Serif" font-size="10.00">ComponentInstance</text>
</a>
</g>
</g>
<!-- Node4&#45;&gt;Node3 -->
<g id="edge1" class="edge">
<title>Node4&#45;&gt;Node3</title>
<path fill="none" stroke="midnightblue" d="M65.16,-70.39C75.13,-58.28 88.48,-42.05 97.92,-30.58"/>
<polygon fill="midnightblue" stroke="midnightblue" points="62.26,-68.41 58.61,-78.36 67.67,-72.86 62.26,-68.41"/>
</g>
<!-- Node5 -->
<g id="node3" class="node">
<title>Node5</title>
<g id="a_node3"><a xlink:href="../../de/d01/classnap_1_1rtti_1_1_object.html" target="_top" xlink:title="Object">
<polygon fill="white" stroke="black" points="29,-135.5 29,-154.5 74,-154.5 74,-135.5 29,-135.5"/>
<text text-anchor="middle" x="51.5" y="-142.5" font-family="Helvetica,sans-Serif" font-size="10.00">Object</text>
</a>
</g>
</g>
<!-- Node5&#45;&gt;Node4 -->
<g id="edge2" class="edge">
<title>Node5&#45;&gt;Node4</title>
<path fill="none" stroke="midnightblue" d="M51.5,-125.12C51.5,-115.82 51.5,-105.06 51.5,-97.71"/>
<polygon fill="midnightblue" stroke="midnightblue" points="48,-125.41 51.5,-135.41 55,-125.41 48,-125.41"/>
</g>
<!-- Node6 -->
<g id="node4" class="node">
<title>Node6</title>
<g id="a_node4"><a xlink:href="../../df/d35/classnap_1_1_default_input_router.html" target="_top" xlink:title="DefaultInputRouter">
<polygon fill="white" stroke="black" points="121.5,-78.5 121.5,-97.5 217.5,-97.5 217.5,-78.5 121.5,-78.5"/>
<text text-anchor="middle" x="169.5" y="-85.5" font-family="Helvetica,sans-Serif" font-size="10.00">DefaultInputRouter</text>
</a>
</g>
</g>
<!-- Node6&#45;&gt;Node3 -->
<g id="edge3" class="edge">
<title>Node6&#45;&gt;Node3</title>
<path fill="none" stroke="#9a32cd" stroke-dasharray="5,2" d="M155.37,-70.39C145.06,-58.28 131.25,-42.05 121.48,-30.58"/>
<polygon fill="#9a32cd" stroke="#9a32cd" points="153,-73.01 162.14,-78.36 158.33,-68.47 153,-73.01"/>
<text text-anchor="middle" x="176" y="-52" font-family="Helvetica,sans-Serif" font-size="10.00"> mInputRouter</text>
</g>
<!-- Node7 -->
<g id="node5" class="node">
<title>Node7</title>
<g id="a_node5"><a xlink:href="../../db/d68/classnap_1_1_input_router.html" target="_top" xlink:title="InputRouter">
<polygon fill="white" stroke="black" points="136.5,-135.5 136.5,-154.5 202.5,-154.5 202.5,-135.5 136.5,-135.5"/>
<text text-anchor="middle" x="169.5" y="-142.5" font-family="Helvetica,sans-Serif" font-size="10.00">InputRouter</text>
</a>
</g>
</g>
<!-- Node7&#45;&gt;Node6 -->
<g id="edge4" class="edge">
<title>Node7&#45;&gt;Node6</title>
<path fill="none" stroke="midnightblue" d="M169.5,-125.12C169.5,-115.82 169.5,-105.06 169.5,-97.71"/>
<polygon fill="midnightblue" stroke="midnightblue" points="166,-125.41 169.5,-135.41 173,-125.41 166,-125.41"/>
</g>
</g>
</svg>
