<?xml version="1.0" encoding="UTF-8" standalone="no"?>
<!DOCTYPE svg PUBLIC "-//W3C//DTD SVG 1.1//EN"
 "http://www.w3.org/Graphics/SVG/1.1/DTD/svg11.dtd">
<!-- Generated by graphviz version 3.0.0 (20220226.1711)
 -->
<!-- Title: WebSocketConnectionFailedEvent Pages: 1 -->
<svg width="151pt" height="207pt"
 viewBox="0.00 0.00 151.00 207.00" xmlns="http://www.w3.org/2000/svg" xmlns:xlink="http://www.w3.org/1999/xlink">
<g id="graph0" class="graph" transform="scale(1 1) rotate(0) translate(4 203)">
<title>WebSocketConnectionFailedEvent</title>
<polygon fill="white" stroke="transparent" points="-4,4 -4,-203 147,-203 147,4 -4,4"/>
<!-- Node0 -->
<g id="node1" class="node">
<title>Node0</title>
<polygon fill="#bfbfbf" stroke="black" points="0,-0.5 0,-30.5 143,-30.5 143,-0.5 0,-0.5"/>
<text text-anchor="start" x="8" y="-18.5" font-family="Helvetica,sans-Serif" font-size="10.00">WebSocketConnectionFailed</text>
<text text-anchor="middle" x="71.5" y="-7.5" font-family="Helvetica,sans-Serif" font-size="10.00">Event</text>
</g>
<!-- Node1 -->
<g id="node2" class="node">
<title>Node1</title>
<g id="a_node2"><a xlink:href="../../de/d42/classnap_1_1_web_socket_connection_event.html" target="_top" xlink:title="WebSocketConnectionEvent">
<polygon fill="white" stroke="black" points="1.5,-67.5 1.5,-86.5 141.5,-86.5 141.5,-67.5 1.5,-67.5"/>
<text text-anchor="middle" x="71.5" y="-74.5" font-family="Helvetica,sans-Serif" font-size="10.00">WebSocketConnectionEvent</text>
</a>
</g>
</g>
<!-- Node1&#45;&gt;Node0 -->
<g id="edge1" class="edge">
<title>Node1&#45;&gt;Node0</title>
<path fill="none" stroke="midnightblue" d="M71.5,-57.23C71.5,-48.59 71.5,-38.5 71.5,-30.52"/>
<polygon fill="midnightblue" stroke="midnightblue" points="68,-57.48 71.5,-67.48 75,-57.48 68,-57.48"/>
</g>
<!-- Node2 -->
<g id="node3" class="node">
<title>Node2</title>
<g id="a_node3"><a xlink:href="../../d6/d83/classnap_1_1_web_socket_event.html" target="_top" xlink:title="WebSocketEvent">
<polygon fill="white" stroke="black" points="25.5,-123.5 25.5,-142.5 117.5,-142.5 117.5,-123.5 25.5,-123.5"/>
<text text-anchor="middle" x="71.5" y="-130.5" font-family="Helvetica,sans-Serif" font-size="10.00">WebSocketEvent</text>
</a>
</g>
</g>
<!-- Node2&#45;&gt;Node1 -->
<g id="edge2" class="edge">
<title>Node2&#45;&gt;Node1</title>
<path fill="none" stroke="midnightblue" d="M71.5,-112.8C71.5,-103.91 71.5,-93.78 71.5,-86.75"/>
<polygon fill="midnightblue" stroke="midnightblue" points="68,-113.08 71.5,-123.08 75,-113.08 68,-113.08"/>
</g>
<!-- Node3 -->
<g id="node4" class="node">
<title>Node3</title>
<g id="a_node4"><a xlink:href="../../d2/da2/classnap_1_1_event.html" target="_top" xlink:title="Event">
<polygon fill="white" stroke="black" points="51,-179.5 51,-198.5 92,-198.5 92,-179.5 51,-179.5"/>
<text text-anchor="middle" x="71.5" y="-186.5" font-family="Helvetica,sans-Serif" font-size="10.00">Event</text>
</a>
</g>
</g>
<!-- Node3&#45;&gt;Node2 -->
<g id="edge3" class="edge">
<title>Node3&#45;&gt;Node2</title>
<path fill="none" stroke="midnightblue" d="M71.5,-168.8C71.5,-159.91 71.5,-149.78 71.5,-142.75"/>
<polygon fill="midnightblue" stroke="midnightblue" points="68,-169.08 71.5,-179.08 75,-169.08 68,-169.08"/>
</g>
</g>
</svg>
