<?xml version="1.0" encoding="UTF-8" standalone="no"?>
<!DOCTYPE svg PUBLIC "-//W3C//DTD SVG 1.1//EN"
 "http://www.w3.org/Graphics/SVG/1.1/DTD/svg11.dtd">
<!-- Generated by graphviz version 3.0.0 (20220226.1711)
 -->
<!-- Title: SequenceControllerCurve Pages: 1 -->
<svg width="940pt" height="466pt"
 viewBox="0.00 0.00 940.00 465.50" xmlns="http://www.w3.org/2000/svg" xmlns:xlink="http://www.w3.org/1999/xlink">
<g id="graph0" class="graph" transform="scale(1 1) rotate(0) translate(4 461.5)">
<title>SequenceControllerCurve</title>
<polygon fill="white" stroke="transparent" points="-4,4 -4,-461.5 936,-461.5 936,4 -4,4"/>
<!-- Node2 -->
<g id="node1" class="node">
<title>Node2</title>
<polygon fill="#bfbfbf" stroke="black" points="807,-164.5 807,-183.5 932,-183.5 932,-164.5 807,-164.5"/>
<text text-anchor="middle" x="869.5" y="-171.5" font-family="Helvetica,sans-Serif" font-size="10.00">SequenceControllerCurve</text>
</g>
<!-- Node3 -->
<g id="node2" class="node">
<title>Node3</title>
<g id="a_node2"><a xlink:href="../../d0/dff/classnap_1_1_sequence_controller.html" target="_top" xlink:title="SequenceController">
<polygon fill="white" stroke="black" points="669,-164.5 669,-183.5 770,-183.5 770,-164.5 669,-164.5"/>
<text text-anchor="middle" x="719.5" y="-171.5" font-family="Helvetica,sans-Serif" font-size="10.00">SequenceController</text>
</a>
</g>
</g>
<!-- Node3&#45;&gt;Node2 -->
<g id="edge1" class="edge">
<title>Node3&#45;&gt;Node2</title>
<path fill="none" stroke="midnightblue" d="M780.3,-174C789.04,-174 798.06,-174 806.84,-174"/>
<polygon fill="midnightblue" stroke="midnightblue" points="780.19,-170.5 770.19,-174 780.19,-177.5 780.19,-170.5"/>
</g>
<!-- Node4 -->
<g id="node3" class="node">
<title>Node4</title>
<g id="a_node3"><a xlink:href="../../dc/d17/classnap_1_1_sequence_player.html" target="_top" xlink:title="SequencePlayer">
<polygon fill="white" stroke="black" points="505,-164.5 505,-183.5 593,-183.5 593,-164.5 505,-164.5"/>
<text text-anchor="middle" x="549" y="-171.5" font-family="Helvetica,sans-Serif" font-size="10.00">SequencePlayer</text>
</a>
</g>
</g>
<!-- Node4&#45;&gt;Node3 -->
<g id="edge2" class="edge">
<title>Node4&#45;&gt;Node3</title>
<path fill="none" stroke="#9a32cd" stroke-dasharray="5,2" d="M603.44,-174C624.43,-174 648.4,-174 669,-174"/>
<polygon fill="#9a32cd" stroke="#9a32cd" points="603.39,-170.5 593.39,-174 603.39,-177.5 603.39,-170.5"/>
<text text-anchor="middle" x="631" y="-177" font-family="Helvetica,sans-Serif" font-size="10.00"> mPlayer</text>
</g>
<!-- Node5 -->
<g id="node4" class="node">
<title>Node5</title>
<g id="a_node4"><a xlink:href="../../d3/dc5/classnap_1_1_device.html" target="_top" xlink:title="Device">
<polygon fill="white" stroke="black" points="257,-191.5 257,-210.5 302,-210.5 302,-191.5 257,-191.5"/>
<text text-anchor="middle" x="279.5" y="-198.5" font-family="Helvetica,sans-Serif" font-size="10.00">Device</text>
</a>
</g>
</g>
<!-- Node5&#45;&gt;Node4 -->
<g id="edge3" class="edge">
<title>Node5&#45;&gt;Node4</title>
<path fill="none" stroke="midnightblue" d="M312.51,-197.77C360.48,-192.93 451.13,-183.78 504.89,-178.35"/>
<polygon fill="midnightblue" stroke="midnightblue" points="311.99,-194.3 302.39,-198.79 312.69,-201.27 311.99,-194.3"/>
</g>
<!-- Node6 -->
<g id="node5" class="node">
<title>Node6</title>
<g id="a_node5"><a xlink:href="../../d9/dea/classnap_1_1_resource.html" target="_top" xlink:title="Resource">
<polygon fill="white" stroke="black" points="93,-265.5 93,-284.5 151,-284.5 151,-265.5 93,-265.5"/>
<text text-anchor="middle" x="122" y="-272.5" font-family="Helvetica,sans-Serif" font-size="10.00">Resource</text>
</a>
</g>
</g>
<!-- Node6&#45;&gt;Node5 -->
<g id="edge4" class="edge">
<title>Node6&#45;&gt;Node5</title>
<path fill="none" stroke="midnightblue" d="M141.23,-258.62C155.87,-246.29 177.47,-229.89 199,-220 217.57,-211.47 240.4,-206.53 256.83,-203.83"/>
<polygon fill="midnightblue" stroke="midnightblue" points="138.75,-256.14 133.47,-265.33 143.33,-261.44 138.75,-256.14"/>
</g>
<!-- Node17 -->
<g id="node16" class="node">
<title>Node17</title>
<g id="a_node16"><a xlink:href="../../d9/dde/classnap_1_1_sequence_editor.html" target="_top" xlink:title="SequenceEditor">
<polygon fill="white" stroke="black" points="506,-339.5 506,-358.5 592,-358.5 592,-339.5 506,-339.5"/>
<text text-anchor="middle" x="549" y="-346.5" font-family="Helvetica,sans-Serif" font-size="10.00">SequenceEditor</text>
</a>
</g>
</g>
<!-- Node6&#45;&gt;Node17 -->
<g id="edge16" class="edge">
<title>Node6&#45;&gt;Node17</title>
<path fill="none" stroke="midnightblue" d="M139.8,-291.6C154.19,-304.64 176.16,-321.91 199,-330 304.39,-367.33 438.86,-360.77 505.96,-354.16"/>
<polygon fill="midnightblue" stroke="midnightblue" points="141.94,-288.81 132.26,-284.51 137.15,-293.91 141.94,-288.81"/>
</g>
<!-- Node7 -->
<g id="node6" class="node">
<title>Node7</title>
<g id="a_node6"><a xlink:href="../../de/d01/classnap_1_1rtti_1_1_object.html" target="_top" xlink:title="Object">
<polygon fill="white" stroke="black" points="0,-265.5 0,-284.5 45,-284.5 45,-265.5 0,-265.5"/>
<text text-anchor="middle" x="22.5" y="-272.5" font-family="Helvetica,sans-Serif" font-size="10.00">Object</text>
</a>
</g>
</g>
<!-- Node7&#45;&gt;Node6 -->
<g id="edge5" class="edge">
<title>Node7&#45;&gt;Node6</title>
<path fill="none" stroke="midnightblue" d="M55.26,-275C67.34,-275 81.02,-275 92.75,-275"/>
<polygon fill="midnightblue" stroke="midnightblue" points="55.14,-271.5 45.14,-275 55.14,-278.5 55.14,-271.5"/>
</g>
<!-- Node8 -->
<g id="node7" class="node">
<title>Node8</title>
<g id="a_node7"><a xlink:href="../../de/d80/classnap_1_1_signal.html" target="_top" xlink:title="Signal\&lt; nap::SequencePlayer\l &amp;, bool \&gt;">
<polygon fill="white" stroke="black" points="206.5,-44 206.5,-74 352.5,-74 352.5,-44 206.5,-44"/>
<text text-anchor="start" x="214.5" y="-62" font-family="Helvetica,sans-Serif" font-size="10.00">Signal&lt; nap::SequencePlayer</text>
<text text-anchor="middle" x="279.5" y="-51" font-family="Helvetica,sans-Serif" font-size="10.00"> &amp;, bool &gt;</text>
</a>
</g>
</g>
<!-- Node8&#45;&gt;Node4 -->
<g id="edge6" class="edge">
<title>Node8&#45;&gt;Node4</title>
<path fill="none" stroke="#9a32cd" stroke-dasharray="5,2" d="M362.88,-59.12C402.8,-62.49 449.99,-71.63 487,-94 515.55,-111.25 535.45,-147.29 543.72,-164.48"/>
<polygon fill="#9a32cd" stroke="#9a32cd" points="363.13,-55.63 352.9,-58.38 362.61,-62.61 363.13,-55.63"/>
<text text-anchor="middle" x="432.5" y="-108" font-family="Helvetica,sans-Serif" font-size="10.00"> playStateChanged</text>
<text text-anchor="middle" x="432.5" y="-97" font-family="Helvetica,sans-Serif" font-size="10.00">pauseStateChanged</text>
</g>
<!-- Node9 -->
<g id="node8" class="node">
<title>Node9</title>
<polygon fill="white" stroke="#bfbfbf" points="199,-268 199,-320 360,-320 360,-268 199,-268"/>
<text text-anchor="start" x="207" y="-308" font-family="Helvetica,sans-Serif" font-size="10.00">Signal&lt; std::function</text>
<text text-anchor="start" x="207" y="-297" font-family="Helvetica,sans-Serif" font-size="10.00">&lt; void(const std::string</text>
<text text-anchor="start" x="207" y="-286" font-family="Helvetica,sans-Serif" font-size="10.00"> &amp;, std::unique_ptr&lt; nap</text>
<text text-anchor="middle" x="279.5" y="-275" font-family="Helvetica,sans-Serif" font-size="10.00">::SequencePlayerAdapter &gt;)&gt; &amp;&gt;</text>
</g>
<!-- Node9&#45;&gt;Node4 -->
<g id="edge7" class="edge">
<title>Node9&#45;&gt;Node4</title>
<path fill="none" stroke="#9a32cd" stroke-dasharray="5,2" d="M370.26,-287.66C408.46,-281.73 452.14,-270.43 487,-249 513.88,-232.47 534.18,-199.77 543.06,-183.57"/>
<polygon fill="#9a32cd" stroke="#9a32cd" points="369.55,-284.23 360.16,-289.12 370.56,-291.15 369.55,-284.23"/>
<text text-anchor="middle" x="432.5" y="-289" font-family="Helvetica,sans-Serif" font-size="10.00"> adaptersCreated</text>
</g>
<!-- Node10 -->
<g id="node9" class="node">
<title>Node10</title>
<g id="a_node9"><a xlink:href="../../dd/d7c/classnap_1_1rtti_1_1_object_ptr.html" target="_top" xlink:title="ObjectPtr\&lt; nap::Sequence\lPlayerClock \&gt;">
<polygon fill="white" stroke="black" points="213.5,-378 213.5,-408 345.5,-408 345.5,-378 213.5,-378"/>
<text text-anchor="start" x="221.5" y="-396" font-family="Helvetica,sans-Serif" font-size="10.00">ObjectPtr&lt; nap::Sequence</text>
<text text-anchor="middle" x="279.5" y="-385" font-family="Helvetica,sans-Serif" font-size="10.00">PlayerClock &gt;</text>
</a>
</g>
</g>
<!-- Node10&#45;&gt;Node4 -->
<g id="edge8" class="edge">
<title>Node10&#45;&gt;Node4</title>
<path fill="none" stroke="#9a32cd" stroke-dasharray="5,2" d="M351.83,-374.87C395.33,-360.77 449.58,-337.36 487,-301 522.61,-266.4 540.1,-206.81 545.82,-183.63"/>
<polygon fill="#9a32cd" stroke="#9a32cd" points="350.65,-371.57 342.16,-377.91 352.75,-378.25 350.65,-371.57"/>
<text text-anchor="middle" x="432.5" y="-366" font-family="Helvetica,sans-Serif" font-size="10.00"> mClock</text>
</g>
<!-- Node11 -->
<g id="node10" class="node">
<title>Node11</title>
<g id="a_node10"><a xlink:href="../../d7/dcb/classnap_1_1rtti_1_1_object_ptr_base.html" target="_top" xlink:title="ObjectPtrBase">
<polygon fill="white" stroke="black" points="82,-401.5 82,-420.5 162,-420.5 162,-401.5 82,-401.5"/>
<text text-anchor="middle" x="122" y="-408.5" font-family="Helvetica,sans-Serif" font-size="10.00">ObjectPtrBase</text>
</a>
</g>
</g>
<!-- Node11&#45;&gt;Node10 -->
<g id="edge9" class="edge">
<title>Node11&#45;&gt;Node10</title>
<path fill="none" stroke="midnightblue" d="M172.36,-405.29C185.35,-403.78 199.57,-402.14 213.26,-400.55"/>
<polygon fill="midnightblue" stroke="midnightblue" points="171.77,-401.83 162.24,-406.46 172.58,-408.78 171.77,-401.83"/>
</g>
<!-- Node18 -->
<g id="node17" class="node">
<title>Node18</title>
<g id="a_node17"><a xlink:href="../../dd/d7c/classnap_1_1rtti_1_1_object_ptr.html" target="_top" xlink:title="ObjectPtr\&lt; nap::Sequence\lPlayer \&gt;">
<polygon fill="white" stroke="black" points="213.5,-427 213.5,-457 345.5,-457 345.5,-427 213.5,-427"/>
<text text-anchor="start" x="221.5" y="-445" font-family="Helvetica,sans-Serif" font-size="10.00">ObjectPtr&lt; nap::Sequence</text>
<text text-anchor="middle" x="279.5" y="-434" font-family="Helvetica,sans-Serif" font-size="10.00">Player &gt;</text>
</a>
</g>
</g>
<!-- Node11&#45;&gt;Node18 -->
<g id="edge18" class="edge">
<title>Node11&#45;&gt;Node18</title>
<path fill="none" stroke="midnightblue" d="M172.36,-420.84C185.35,-423.43 199.57,-426.27 213.26,-428.99"/>
<polygon fill="midnightblue" stroke="midnightblue" points="172.73,-417.35 162.24,-418.82 171.36,-424.21 172.73,-417.35"/>
</g>
<!-- Node12 -->
<g id="node11" class="node">
<title>Node12</title>
<g id="a_node11"><a xlink:href="../../de/d80/classnap_1_1_signal.html" target="_top" xlink:title="Signal\&lt; nap::SequencePlayer &amp;\&gt;">
<polygon fill="white" stroke="black" points="199,-229.5 199,-248.5 360,-248.5 360,-229.5 199,-229.5"/>
<text text-anchor="middle" x="279.5" y="-236.5" font-family="Helvetica,sans-Serif" font-size="10.00">Signal&lt; nap::SequencePlayer &amp;&gt;</text>
</a>
</g>
</g>
<!-- Node12&#45;&gt;Node4 -->
<g id="edge10" class="edge">
<title>Node12&#45;&gt;Node4</title>
<path fill="none" stroke="#9a32cd" stroke-dasharray="5,2" d="M357.37,-227.83C396.61,-221.19 444.83,-211.59 487,-199 500.82,-194.87 515.81,-188.75 527.48,-183.6"/>
<polygon fill="#9a32cd" stroke="#9a32cd" points="356.63,-224.4 347.33,-229.49 357.77,-231.31 356.63,-224.4"/>
<text text-anchor="middle" x="432.5" y="-237" font-family="Helvetica,sans-Serif" font-size="10.00"> postTick</text>
<text text-anchor="middle" x="432.5" y="-226" font-family="Helvetica,sans-Serif" font-size="10.00">preTick</text>
</g>
<!-- Node13 -->
<g id="node12" class="node">
<title>Node13</title>
<g id="a_node12"><a xlink:href="../../de/d80/classnap_1_1_signal.html" target="_top" xlink:title="Signal\&lt; nap::SequencePlayer\l &amp;, double \&gt;">
<polygon fill="white" stroke="black" points="206.5,-142 206.5,-172 352.5,-172 352.5,-142 206.5,-142"/>
<text text-anchor="start" x="214.5" y="-160" font-family="Helvetica,sans-Serif" font-size="10.00">Signal&lt; nap::SequencePlayer</text>
<text text-anchor="middle" x="279.5" y="-149" font-family="Helvetica,sans-Serif" font-size="10.00"> &amp;, double &gt;</text>
</a>
</g>
</g>
<!-- Node13&#45;&gt;Node4 -->
<g id="edge11" class="edge">
<title>Node13&#45;&gt;Node4</title>
<path fill="none" stroke="#9a32cd" stroke-dasharray="5,2" d="M363.18,-159.76C400.97,-161.34 446.29,-163.68 487,-167 492.74,-167.47 498.77,-168.05 504.71,-168.68"/>
<polygon fill="#9a32cd" stroke="#9a32cd" points="362.86,-156.24 352.73,-159.33 362.58,-163.24 362.86,-156.24"/>
<text text-anchor="middle" x="432.5" y="-170" font-family="Helvetica,sans-Serif" font-size="10.00"> playerTimeChanged</text>
</g>
<!-- Node14 -->
<g id="node13" class="node">
<title>Node14</title>
<g id="a_node13"><a xlink:href="../../de/d80/classnap_1_1_signal.html" target="_top" xlink:title="Signal\&lt; nap::SequencePlayer\l &amp;, float \&gt;">
<polygon fill="white" stroke="black" points="206.5,-93 206.5,-123 352.5,-123 352.5,-93 206.5,-93"/>
<text text-anchor="start" x="214.5" y="-111" font-family="Helvetica,sans-Serif" font-size="10.00">Signal&lt; nap::SequencePlayer</text>
<text text-anchor="middle" x="279.5" y="-100" font-family="Helvetica,sans-Serif" font-size="10.00"> &amp;, float &gt;</text>
</a>
</g>
</g>
<!-- Node14&#45;&gt;Node4 -->
<g id="edge12" class="edge">
<title>Node14&#45;&gt;Node4</title>
<path fill="none" stroke="#9a32cd" stroke-dasharray="5,2" d="M362.93,-117.63C401.23,-123.4 447.05,-132.18 487,-145 502.52,-149.98 519.17,-158.1 531.15,-164.49"/>
<polygon fill="#9a32cd" stroke="#9a32cd" points="363.25,-114.14 352.84,-116.15 362.23,-121.07 363.25,-114.14"/>
<text text-anchor="middle" x="432.5" y="-148" font-family="Helvetica,sans-Serif" font-size="10.00"> playbackSpeedChanged</text>
</g>
<!-- Node15 -->
<g id="node14" class="node">
<title>Node15</title>
<g id="a_node14"><a xlink:href="../../df/dbe/classnap_1_1_sequence_service.html" target="_top" xlink:title="SequenceService">
<polygon fill="white" stroke="black" points="233.5,-0.5 233.5,-19.5 325.5,-19.5 325.5,-0.5 233.5,-0.5"/>
<text text-anchor="middle" x="279.5" y="-7.5" font-family="Helvetica,sans-Serif" font-size="10.00">SequenceService</text>
</a>
</g>
</g>
<!-- Node15&#45;&gt;Node3 -->
<g id="edge19" class="edge">
<title>Node15&#45;&gt;Node3</title>
<path fill="none" stroke="#9a32cd" stroke-dasharray="5,2" d="M335.78,-4.07C378.22,-1.42 437.69,-1.89 487,-18 584.2,-49.76 678.44,-135.14 708.57,-164.18"/>
<polygon fill="#9a32cd" stroke="#9a32cd" points="335.38,-0.59 325.65,-4.78 335.87,-7.57 335.38,-0.59"/>
<text text-anchor="middle" x="549" y="-73" font-family="Helvetica,sans-Serif" font-size="10.00"> mService</text>
</g>
<!-- Node15&#45;&gt;Node4 -->
<g id="edge13" class="edge">
<title>Node15&#45;&gt;Node4</title>
<path fill="none" stroke="#9a32cd" stroke-dasharray="5,2" d="M336.21,-13.68C389.09,-18.17 463.84,-27.45 487,-45 527.48,-75.67 542.24,-139.94 546.52,-164.33"/>
<polygon fill="#9a32cd" stroke="#9a32cd" points="336.2,-10.16 325.95,-12.84 335.63,-17.14 336.2,-10.16"/>
<text text-anchor="middle" x="432.5" y="-48" font-family="Helvetica,sans-Serif" font-size="10.00"> mService</text>
</g>
<!-- Node16 -->
<g id="node15" class="node">
<title>Node16</title>
<g id="a_node15"><a xlink:href="../../d8/d8e/classnap_1_1_service.html" target="_top" xlink:title="Service">
<polygon fill="white" stroke="black" points="98,-0.5 98,-19.5 146,-19.5 146,-0.5 98,-0.5"/>
<text text-anchor="middle" x="122" y="-7.5" font-family="Helvetica,sans-Serif" font-size="10.00">Service</text>
</a>
</g>
</g>
<!-- Node16&#45;&gt;Node15 -->
<g id="edge14" class="edge">
<title>Node16&#45;&gt;Node15</title>
<path fill="none" stroke="midnightblue" d="M156.36,-10C178.87,-10 208.84,-10 233.46,-10"/>
<polygon fill="midnightblue" stroke="midnightblue" points="156.28,-6.5 146.28,-10 156.28,-13.5 156.28,-6.5"/>
</g>
<!-- Node17&#45;&gt;Node3 -->
<g id="edge15" class="edge">
<title>Node17&#45;&gt;Node3</title>
<path fill="none" stroke="#9a32cd" stroke-dasharray="5,2" d="M566.37,-332C601.14,-295.89 681.47,-212.46 709.02,-183.84"/>
<polygon fill="#9a32cd" stroke="#9a32cd" points="563.71,-329.71 559.3,-339.34 568.76,-334.57 563.71,-329.71"/>
<text text-anchor="middle" x="631" y="-285" font-family="Helvetica,sans-Serif" font-size="10.00"> mEditor</text>
</g>
<!-- Node18&#45;&gt;Node17 -->
<g id="edge17" class="edge">
<title>Node18&#45;&gt;Node17</title>
<path fill="none" stroke="#9a32cd" stroke-dasharray="5,2" d="M355.68,-436.94C396.21,-431.91 446.14,-421.9 487,-402 508.95,-391.31 529.24,-370.67 539.99,-358.54"/>
<polygon fill="#9a32cd" stroke="#9a32cd" points="355.11,-433.48 345.59,-438.11 355.92,-440.43 355.11,-433.48"/>
<text text-anchor="middle" x="432.5" y="-436" font-family="Helvetica,sans-Serif" font-size="10.00"> mSequencePlayer</text>
</g>
</g>
</svg>
