<?xml version="1.0" encoding="UTF-8" standalone="no"?>
<!DOCTYPE svg PUBLIC "-//W3C//DTD SVG 1.1//EN"
 "http://www.w3.org/Graphics/SVG/1.1/DTD/svg11.dtd">
<!-- Generated by graphviz version 2.43.0 (0)
 -->
<!-- Title: TypedUniformValueArrayInstance&lt; T &gt; Pages: 1 -->
<svg width="290pt" height="220pt"
 viewBox="0.00 0.00 289.50 220.00" xmlns="http://www.w3.org/2000/svg" xmlns:xlink="http://www.w3.org/1999/xlink">
<g id="graph0" class="graph" transform="scale(1 1) rotate(0) translate(4 216)">
<title>TypedUniformValueArrayInstance&lt; T &gt;</title>
<polygon fill="white" stroke="transparent" points="-4,4 -4,-216 285.5,-216 285.5,4 -4,4"/>
<!-- Node1 -->
<g id="node1" class="node">
<title>Node1</title>
<g id="a_node1"><a xlink:title=" ">
<polygon fill="#bfbfbf" stroke="black" points="29.5,-0.5 29.5,-19.5 237.5,-19.5 237.5,-0.5 29.5,-0.5"/>
<text text-anchor="middle" x="133.5" y="-7.5" font-family="Helvetica,sans-Serif" font-size="10.00">TypedUniformValueArrayInstance&lt; T &gt;</text>
</a>
</g>
</g>
<!-- Node2 -->
<g id="node2" class="node">
<title>Node2</title>
<g id="a_node2"><a xlink:href="../../d8/da5/classnap_1_1_uniform_value_array_instance.html" target="_top" xlink:title=" ">
<polygon fill="white" stroke="black" points="58,-57.5 58,-76.5 209,-76.5 209,-57.5 58,-57.5"/>
<text text-anchor="middle" x="133.5" y="-64.5" font-family="Helvetica,sans-Serif" font-size="10.00">UniformValueArrayInstance</text>
</a>
</g>
</g>
<!-- Node2&#45;&gt;Node1 -->
<g id="edge1" class="edge">
<title>Node2&#45;&gt;Node1</title>
<path fill="none" stroke="midnightblue" d="M133.5,-47.12C133.5,-37.82 133.5,-27.06 133.5,-19.71"/>
<polygon fill="midnightblue" stroke="midnightblue" points="130,-47.41 133.5,-57.41 137,-47.41 130,-47.41"/>
</g>
<!-- Node3 -->
<g id="node3" class="node">
<title>Node3</title>
<g id="a_node3"><a xlink:href="../../dd/d94/classnap_1_1_uniform_leaf_instance.html" target="_top" xlink:title=" ">
<polygon fill="white" stroke="black" points="0,-130 0,-149 119,-149 119,-130 0,-130"/>
<text text-anchor="middle" x="59.5" y="-137" font-family="Helvetica,sans-Serif" font-size="10.00">UniformLeafInstance</text>
</a>
</g>
</g>
<!-- Node3&#45;&gt;Node2 -->
<g id="edge2" class="edge">
<title>Node3&#45;&gt;Node2</title>
<path fill="none" stroke="midnightblue" d="M76.09,-122.69C91,-108.49 112.33,-88.17 124.35,-76.72"/>
<polygon fill="midnightblue" stroke="midnightblue" points="73.4,-120.42 68.57,-129.86 78.23,-125.49 73.4,-120.42"/>
</g>
<!-- Node4 -->
<g id="node4" class="node">
<title>Node4</title>
<g id="a_node4"><a xlink:href="../../d6/d6a/classnap_1_1_uniform_instance.html" target="_top" xlink:title=" ">
<polygon fill="white" stroke="black" points="10.5,-192.5 10.5,-211.5 108.5,-211.5 108.5,-192.5 10.5,-192.5"/>
<text text-anchor="middle" x="59.5" y="-199.5" font-family="Helvetica,sans-Serif" font-size="10.00">UniformInstance</text>
</a>
</g>
</g>
<!-- Node4&#45;&gt;Node3 -->
<g id="edge3" class="edge">
<title>Node4&#45;&gt;Node3</title>
<path fill="none" stroke="midnightblue" d="M59.5,-182C59.5,-171 59.5,-157.68 59.5,-149.15"/>
<polygon fill="midnightblue" stroke="midnightblue" points="56,-182.33 59.5,-192.33 63,-182.33 56,-182.33"/>
</g>
<!-- Node5 -->
<g id="node5" class="node">
<title>Node5</title>
<g id="a_node5"><a xlink:href="../../d8/d24/classnap_1_1_shader_variable_value_array_declaration.html" target="_top" xlink:title=" ">
<polygon fill="white" stroke="black" points="137,-124.5 137,-154.5 280,-154.5 280,-124.5 137,-124.5"/>
<text text-anchor="start" x="145" y="-142.5" font-family="Helvetica,sans-Serif" font-size="10.00">ShaderVariableValueArray</text>
<text text-anchor="middle" x="208.5" y="-131.5" font-family="Helvetica,sans-Serif" font-size="10.00">Declaration</text>
</a>
</g>
</g>
<!-- Node5&#45;&gt;Node2 -->
<g id="edge4" class="edge">
<title>Node5&#45;&gt;Node2</title>
<path fill="none" stroke="#9a32cd" stroke-dasharray="5,2" d="M185.77,-117.14C171.43,-103.65 153.65,-86.94 142.96,-76.89"/>
<polygon fill="#9a32cd" stroke="#9a32cd" points="183.64,-119.93 193.32,-124.23 188.43,-114.83 183.64,-119.93"/>
<text text-anchor="middle" x="208.5" y="-98" font-family="Helvetica,sans-Serif" font-size="10.00"> mDeclaration</text>
</g>
<!-- Node6 -->
<g id="node6" class="node">
<title>Node6</title>
<g id="a_node6"><a xlink:href="../../dc/d72/classnap_1_1_shader_variable_declaration.html" target="_top" xlink:title=" ">
<polygon fill="white" stroke="black" points="135.5,-192.5 135.5,-211.5 281.5,-211.5 281.5,-192.5 135.5,-192.5"/>
<text text-anchor="middle" x="208.5" y="-199.5" font-family="Helvetica,sans-Serif" font-size="10.00">ShaderVariableDeclaration</text>
</a>
</g>
</g>
<!-- Node6&#45;&gt;Node5 -->
<g id="edge5" class="edge">
<title>Node6&#45;&gt;Node5</title>
<path fill="none" stroke="midnightblue" d="M208.5,-182.22C208.5,-173.36 208.5,-162.96 208.5,-154.76"/>
<polygon fill="midnightblue" stroke="midnightblue" points="205,-182.33 208.5,-192.33 212,-182.33 205,-182.33"/>
</g>
</g>
</svg>
