<?xml version="1.0" encoding="UTF-8" standalone="no"?>
<!DOCTYPE svg PUBLIC "-//W3C//DTD SVG 1.1//EN"
 "http://www.w3.org/Graphics/SVG/1.1/DTD/svg11.dtd">
<!-- Generated by graphviz version 3.0.0 (20220226.1711)
 -->
<!-- Title: RenderableTextComponent Pages: 1 -->
<svg width="318pt" height="308pt"
 viewBox="0.00 0.00 318.00 308.00" xmlns="http://www.w3.org/2000/svg" xmlns:xlink="http://www.w3.org/1999/xlink">
<g id="graph0" class="graph" transform="scale(1 1) rotate(0) translate(4 304)">
<title>RenderableTextComponent</title>
<polygon fill="white" stroke="transparent" points="-4,4 -4,-304 314,-304 314,4 -4,4"/>
<!-- Node0 -->
<g id="node1" class="node">
<title>Node0</title>
<polygon fill="#bfbfbf" stroke="black" points="88,-56.5 88,-75.5 222,-75.5 222,-56.5 88,-56.5"/>
<text text-anchor="middle" x="155" y="-63.5" font-family="Helvetica,sans-Serif" font-size="10.00">RenderableTextComponent</text>
</g>
<!-- Node5 -->
<g id="node6" class="node">
<title>Node5</title>
<g id="a_node6"><a xlink:href="../../dc/d02/classnap_1_1_renderable2_d_text_component.html" target="_top" xlink:title="Renderable2DTextComponent">
<polygon fill="white" stroke="black" points="0,-0.5 0,-19.5 146,-19.5 146,-0.5 0,-0.5"/>
<text text-anchor="middle" x="73" y="-7.5" font-family="Helvetica,sans-Serif" font-size="10.00">Renderable2DTextComponent</text>
</a>
</g>
</g>
<!-- Node0&#45;&gt;Node5 -->
<g id="edge5" class="edge">
<title>Node0&#45;&gt;Node5</title>
<path fill="none" stroke="midnightblue" d="M133.17,-50.62C118.19,-40.76 98.8,-27.99 86.14,-19.65"/>
<polygon fill="midnightblue" stroke="midnightblue" points="131.55,-53.75 141.83,-56.32 135.4,-47.9 131.55,-53.75"/>
</g>
<!-- Node6 -->
<g id="node7" class="node">
<title>Node6</title>
<g id="a_node7"><a xlink:href="../../d2/d4e/classnap_1_1_renderable3_d_text_component.html" target="_top" xlink:title="Renderable3DTextComponent">
<polygon fill="white" stroke="black" points="164,-0.5 164,-19.5 310,-19.5 310,-0.5 164,-0.5"/>
<text text-anchor="middle" x="237" y="-7.5" font-family="Helvetica,sans-Serif" font-size="10.00">Renderable3DTextComponent</text>
</a>
</g>
</g>
<!-- Node0&#45;&gt;Node6 -->
<g id="edge6" class="edge">
<title>Node0&#45;&gt;Node6</title>
<path fill="none" stroke="midnightblue" d="M176.83,-50.62C191.81,-40.76 211.2,-27.99 223.86,-19.65"/>
<polygon fill="midnightblue" stroke="midnightblue" points="174.6,-47.9 168.17,-56.32 178.45,-53.75 174.6,-47.9"/>
</g>
<!-- Node1 -->
<g id="node2" class="node">
<title>Node1</title>
<g id="a_node2"><a xlink:href="../../d1/d2c/classnap_1_1_renderable_component.html" target="_top" xlink:title="RenderableComponent">
<polygon fill="white" stroke="black" points="97.5,-112.5 97.5,-131.5 212.5,-131.5 212.5,-112.5 97.5,-112.5"/>
<text text-anchor="middle" x="155" y="-119.5" font-family="Helvetica,sans-Serif" font-size="10.00">RenderableComponent</text>
</a>
</g>
</g>
<!-- Node1&#45;&gt;Node0 -->
<g id="edge1" class="edge">
<title>Node1&#45;&gt;Node0</title>
<path fill="none" stroke="midnightblue" d="M155,-101.8C155,-92.91 155,-82.78 155,-75.75"/>
<polygon fill="midnightblue" stroke="midnightblue" points="151.5,-102.08 155,-112.08 158.5,-102.08 151.5,-102.08"/>
</g>
<!-- Node2 -->
<g id="node3" class="node">
<title>Node2</title>
<g id="a_node3"><a xlink:href="../../db/d6b/classnap_1_1_component.html" target="_top" xlink:title="Component">
<polygon fill="white" stroke="black" points="122,-168.5 122,-187.5 188,-187.5 188,-168.5 122,-168.5"/>
<text text-anchor="middle" x="155" y="-175.5" font-family="Helvetica,sans-Serif" font-size="10.00">Component</text>
</a>
</g>
</g>
<!-- Node2&#45;&gt;Node1 -->
<g id="edge2" class="edge">
<title>Node2&#45;&gt;Node1</title>
<path fill="none" stroke="midnightblue" d="M155,-157.8C155,-148.91 155,-138.78 155,-131.75"/>
<polygon fill="midnightblue" stroke="midnightblue" points="151.5,-158.08 155,-168.08 158.5,-158.08 151.5,-158.08"/>
</g>
<!-- Node3 -->
<g id="node4" class="node">
<title>Node3</title>
<g id="a_node4"><a xlink:href="../../d9/dea/classnap_1_1_resource.html" target="_top" xlink:title="Resource">
<polygon fill="white" stroke="black" points="126,-224.5 126,-243.5 184,-243.5 184,-224.5 126,-224.5"/>
<text text-anchor="middle" x="155" y="-231.5" font-family="Helvetica,sans-Serif" font-size="10.00">Resource</text>
</a>
</g>
</g>
<!-- Node3&#45;&gt;Node2 -->
<g id="edge3" class="edge">
<title>Node3&#45;&gt;Node2</title>
<path fill="none" stroke="midnightblue" d="M155,-213.8C155,-204.91 155,-194.78 155,-187.75"/>
<polygon fill="midnightblue" stroke="midnightblue" points="151.5,-214.08 155,-224.08 158.5,-214.08 151.5,-214.08"/>
</g>
<!-- Node4 -->
<g id="node5" class="node">
<title>Node4</title>
<g id="a_node5"><a xlink:href="../../de/d01/classnap_1_1rtti_1_1_object.html" target="_top" xlink:title="Object">
<polygon fill="white" stroke="black" points="132.5,-280.5 132.5,-299.5 177.5,-299.5 177.5,-280.5 132.5,-280.5"/>
<text text-anchor="middle" x="155" y="-287.5" font-family="Helvetica,sans-Serif" font-size="10.00">Object</text>
</a>
</g>
</g>
<!-- Node4&#45;&gt;Node3 -->
<g id="edge4" class="edge">
<title>Node4&#45;&gt;Node3</title>
<path fill="none" stroke="midnightblue" d="M155,-269.8C155,-260.91 155,-250.78 155,-243.75"/>
<polygon fill="midnightblue" stroke="midnightblue" points="151.5,-270.08 155,-280.08 158.5,-270.08 151.5,-270.08"/>
</g>
</g>
</svg>
