<?xml version="1.0" encoding="UTF-8" standalone="no"?>
<!DOCTYPE svg PUBLIC "-//W3C//DTD SVG 1.1//EN"
 "http://www.w3.org/Graphics/SVG/1.1/DTD/svg11.dtd">
<!-- Generated by graphviz version 2.43.0 (0)
 -->
<!-- Title: ObjectGraph&lt; ITEM &gt;::Edge Pages: 1 -->
<svg width="132pt" height="117pt"
 viewBox="0.00 0.00 132.00 117.00" xmlns="http://www.w3.org/2000/svg" xmlns:xlink="http://www.w3.org/1999/xlink">
<g id="graph0" class="graph" transform="scale(1 1) rotate(0) translate(4 113)">
<title>ObjectGraph&lt; ITEM &gt;::Edge</title>
<polygon fill="white" stroke="transparent" points="-4,4 -4,-113 128,-113 128,4 -4,4"/>
<!-- Node1 -->
<g id="node1" class="node">
<title>Node1</title>
<g id="a_node1"><a xlink:title=" ">
<polygon fill="#bfbfbf" stroke="black" points="0,-0.5 0,-30.5 124,-30.5 124,-0.5 0,-0.5"/>
<text text-anchor="start" x="8" y="-18.5" font-family="Helvetica,sans-Serif" font-size="10.00">ObjectGraph&lt; ITEM &gt;</text>
<text text-anchor="middle" x="62" y="-7.5" font-family="Helvetica,sans-Serif" font-size="10.00">::Edge</text>
</a>
</g>
</g>
<!-- Node2 -->
<g id="node2" class="node">
<title>Node2</title>
<g id="a_node2"><a xlink:href="../../da/d1e/structnap_1_1_object_graph_1_1_node.html" target="_top" xlink:title=" ">
<polygon fill="white" stroke="black" points="41,-89.5 41,-108.5 83,-108.5 83,-89.5 41,-89.5"/>
<text text-anchor="middle" x="62" y="-96.5" font-family="Helvetica,sans-Serif" font-size="10.00">Node</text>
</a>
</g>
</g>
<!-- Node2&#45;&gt;Node1 -->
<g id="edge1" class="edge">
<title>Node2&#45;&gt;Node1</title>
<path fill="none" stroke="#9a32cd" stroke-dasharray="5,2" d="M62,-79.23C62,-64.41 62,-44.05 62,-30.6"/>
<polygon fill="#9a32cd" stroke="#9a32cd" points="58.5,-79.28 62,-89.28 65.5,-79.28 58.5,-79.28"/>
<text text-anchor="middle" x="85" y="-63" font-family="Helvetica,sans-Serif" font-size="10.00"> mSource</text>
<text text-anchor="middle" x="85" y="-52" font-family="Helvetica,sans-Serif" font-size="10.00">mDest</text>
</g>
</g>
</svg>
