<?xml version="1.0" encoding="UTF-8" standalone="no"?>
<!DOCTYPE svg PUBLIC "-//W3C//DTD SVG 1.1//EN"
 "http://www.w3.org/Graphics/SVG/1.1/DTD/svg11.dtd">
<!-- Generated by graphviz version 2.43.0 (0)
 -->
<!-- Title: VideoPlayer Pages: 1 -->
<svg width="244pt" height="209pt"
 viewBox="0.00 0.00 244.00 209.00" xmlns="http://www.w3.org/2000/svg" xmlns:xlink="http://www.w3.org/1999/xlink">
<g id="graph0" class="graph" transform="scale(1 1) rotate(0) translate(4 205)">
<title>VideoPlayer</title>
<polygon fill="white" stroke="transparent" points="-4,4 -4,-205 240,-205 240,4 -4,4"/>
<!-- Node1 -->
<g id="node1" class="node">
<title>Node1</title>
<g id="a_node1"><a xlink:title=" ">
<polygon fill="#bfbfbf" stroke="black" points="86.5,-0.5 86.5,-19.5 161.5,-19.5 161.5,-0.5 86.5,-0.5"/>
<text text-anchor="middle" x="124" y="-7.5" font-family="Helvetica,sans-Serif" font-size="10.00">VideoPlayer</text>
</a>
</g>
</g>
<!-- Node2 -->
<g id="node2" class="node">
<title>Node2</title>
<g id="a_node2"><a xlink:href="../../d3/dc5/classnap_1_1_device.html" target="_top" xlink:title=" ">
<polygon fill="white" stroke="black" points="6,-67.5 6,-86.5 56,-86.5 56,-67.5 6,-67.5"/>
<text text-anchor="middle" x="31" y="-74.5" font-family="Helvetica,sans-Serif" font-size="10.00">Device</text>
</a>
</g>
</g>
<!-- Node2&#45;&gt;Node1 -->
<g id="edge1" class="edge">
<title>Node2&#45;&gt;Node1</title>
<path fill="none" stroke="midnightblue" d="M51.86,-61.42C70.25,-48.57 96.41,-30.28 111.66,-19.63"/>
<polygon fill="midnightblue" stroke="midnightblue" points="49.73,-58.64 43.54,-67.23 53.74,-64.37 49.73,-58.64"/>
</g>
<!-- Node3 -->
<g id="node3" class="node">
<title>Node3</title>
<g id="a_node3"><a xlink:href="../../d9/dea/classnap_1_1_resource.html" target="_top" xlink:title=" ">
<polygon fill="white" stroke="black" points="0,-124.5 0,-143.5 62,-143.5 62,-124.5 0,-124.5"/>
<text text-anchor="middle" x="31" y="-131.5" font-family="Helvetica,sans-Serif" font-size="10.00">Resource</text>
</a>
</g>
</g>
<!-- Node3&#45;&gt;Node2 -->
<g id="edge2" class="edge">
<title>Node3&#45;&gt;Node2</title>
<path fill="none" stroke="midnightblue" d="M31,-114.12C31,-104.82 31,-94.06 31,-86.71"/>
<polygon fill="midnightblue" stroke="midnightblue" points="27.5,-114.41 31,-124.41 34.5,-114.41 27.5,-114.41"/>
</g>
<!-- Node4 -->
<g id="node4" class="node">
<title>Node4</title>
<g id="a_node4"><a xlink:href="../../de/d01/classnap_1_1rtti_1_1_object.html" target="_top" xlink:title=" ">
<polygon fill="white" stroke="black" points="7,-181.5 7,-200.5 55,-200.5 55,-181.5 7,-181.5"/>
<text text-anchor="middle" x="31" y="-188.5" font-family="Helvetica,sans-Serif" font-size="10.00">Object</text>
</a>
</g>
</g>
<!-- Node4&#45;&gt;Node3 -->
<g id="edge3" class="edge">
<title>Node4&#45;&gt;Node3</title>
<path fill="none" stroke="midnightblue" d="M31,-171.12C31,-161.82 31,-151.06 31,-143.71"/>
<polygon fill="midnightblue" stroke="midnightblue" points="27.5,-171.41 31,-181.41 34.5,-171.41 27.5,-171.41"/>
</g>
<!-- Node5 -->
<g id="node5" class="node">
<title>Node5</title>
<g id="a_node5"><a xlink:href="../../de/d80/classnap_1_1_signal.html" target="_top" xlink:title=" ">
<polygon fill="white" stroke="black" points="74,-67.5 74,-86.5 236,-86.5 236,-67.5 74,-67.5"/>
<text text-anchor="middle" x="155" y="-74.5" font-family="Helvetica,sans-Serif" font-size="10.00">Signal&lt; nap::VideoPlayer &amp; &gt;</text>
</a>
</g>
</g>
<!-- Node5&#45;&gt;Node1 -->
<g id="edge4" class="edge">
<title>Node5&#45;&gt;Node1</title>
<path fill="none" stroke="#9a32cd" stroke-dasharray="5,2" d="M146.49,-58.16C140.51,-45.63 132.78,-29.41 128.11,-19.63"/>
<polygon fill="#9a32cd" stroke="#9a32cd" points="143.36,-59.71 150.82,-67.23 149.67,-56.7 143.36,-59.71"/>
<text text-anchor="middle" x="178" y="-41" font-family="Helvetica,sans-Serif" font-size="10.00"> VideoChanged</text>
</g>
</g>
</svg>
