<?xml version="1.0" encoding="UTF-8" standalone="no"?>
<!DOCTYPE svg PUBLIC "-//W3C//DTD SVG 1.1//EN"
 "http://www.w3.org/Graphics/SVG/1.1/DTD/svg11.dtd">
<!-- Generated by graphviz version 2.48.0 (20210717.1556)
 -->
<!-- Title: PerspCameraComponentInstance Pages: 1 -->
<svg width="443pt" height="209pt"
 viewBox="0.00 0.00 443.00 209.00" xmlns="http://www.w3.org/2000/svg" xmlns:xlink="http://www.w3.org/1999/xlink">
<g id="graph0" class="graph" transform="scale(1 1) rotate(0) translate(4 205)">
<title>PerspCameraComponentInstance</title>
<polygon fill="white" stroke="transparent" points="-4,4 -4,-205 439,-205 439,4 -4,4"/>
<!-- Node4 -->
<g id="node1" class="node">
<title>Node4</title>
<polygon fill="#bfbfbf" stroke="black" points="147.5,-0.5 147.5,-19.5 309.5,-19.5 309.5,-0.5 147.5,-0.5"/>
<text text-anchor="middle" x="228.5" y="-7.5" font-family="Helvetica,sans-Serif" font-size="10.00">PerspCameraComponentInstance</text>
</g>
<!-- Node5 -->
<g id="node2" class="node">
<title>Node5</title>
<g id="a_node2"><a xlink:href="../../d6/df5/classnap_1_1_camera_component_instance.html" target="_top" xlink:title="CameraComponentInstance">
<polygon fill="white" stroke="black" points="0,-67.5 0,-86.5 137,-86.5 137,-67.5 0,-67.5"/>
<text text-anchor="middle" x="68.5" y="-74.5" font-family="Helvetica,sans-Serif" font-size="10.00">CameraComponentInstance</text>
</a>
</g>
</g>
<!-- Node5&#45;&gt;Node4 -->
<g id="edge1" class="edge">
<title>Node5&#45;&gt;Node4</title>
<path fill="none" stroke="midnightblue" d="M99.01,-63.6C130.78,-50.7 179.69,-30.83 207.42,-19.56"/>
<polygon fill="midnightblue" stroke="midnightblue" points="97.69,-60.36 89.75,-67.37 100.33,-66.85 97.69,-60.36"/>
</g>
<!-- Node6 -->
<g id="node3" class="node">
<title>Node6</title>
<g id="a_node3"><a xlink:href="../../d9/df2/classnap_1_1_component_instance.html" target="_top" xlink:title="ComponentInstance">
<polygon fill="white" stroke="black" points="96,-124.5 96,-143.5 199,-143.5 199,-124.5 96,-124.5"/>
<text text-anchor="middle" x="147.5" y="-131.5" font-family="Helvetica,sans-Serif" font-size="10.00">ComponentInstance</text>
</a>
</g>
</g>
<!-- Node6&#45;&gt;Node5 -->
<g id="edge2" class="edge">
<title>Node6&#45;&gt;Node5</title>
<path fill="none" stroke="midnightblue" d="M126.73,-118.54C112.1,-108.35 93.02,-95.07 80.76,-86.53"/>
<polygon fill="midnightblue" stroke="midnightblue" points="124.95,-121.56 135.16,-124.41 128.95,-115.82 124.95,-121.56"/>
</g>
<!-- Node8 -->
<g id="node5" class="node">
<title>Node8</title>
<g id="a_node5"><a xlink:href="../../d2/d51/classnap_1_1_transform_component_instance.html" target="_top" xlink:title="TransformComponentInstance">
<polygon fill="white" stroke="black" points="155.5,-67.5 155.5,-86.5 301.5,-86.5 301.5,-67.5 155.5,-67.5"/>
<text text-anchor="middle" x="228.5" y="-74.5" font-family="Helvetica,sans-Serif" font-size="10.00">TransformComponentInstance</text>
</a>
</g>
</g>
<!-- Node6&#45;&gt;Node8 -->
<g id="edge5" class="edge">
<title>Node6&#45;&gt;Node8</title>
<path fill="none" stroke="midnightblue" d="M168.8,-118.54C183.8,-108.35 203.36,-95.07 215.93,-86.53"/>
<polygon fill="midnightblue" stroke="midnightblue" points="166.46,-115.89 160.16,-124.41 170.4,-121.68 166.46,-115.89"/>
</g>
<!-- Node7 -->
<g id="node4" class="node">
<title>Node7</title>
<g id="a_node4"><a xlink:href="../../de/d01/classnap_1_1rtti_1_1_object.html" target="_top" xlink:title="Object">
<polygon fill="white" stroke="black" points="125,-181.5 125,-200.5 170,-200.5 170,-181.5 125,-181.5"/>
<text text-anchor="middle" x="147.5" y="-188.5" font-family="Helvetica,sans-Serif" font-size="10.00">Object</text>
</a>
</g>
</g>
<!-- Node7&#45;&gt;Node6 -->
<g id="edge3" class="edge">
<title>Node7&#45;&gt;Node6</title>
<path fill="none" stroke="midnightblue" d="M147.5,-171.12C147.5,-161.82 147.5,-151.06 147.5,-143.71"/>
<polygon fill="midnightblue" stroke="midnightblue" points="144,-171.41 147.5,-181.41 151,-171.41 144,-171.41"/>
</g>
<!-- Node8&#45;&gt;Node4 -->
<g id="edge4" class="edge">
<title>Node8&#45;&gt;Node4</title>
<path fill="none" stroke="#9a32cd" stroke-dasharray="5,2" d="M228.5,-57.04C228.5,-44.67 228.5,-29.12 228.5,-19.63"/>
<polygon fill="#9a32cd" stroke="#9a32cd" points="225,-57.23 228.5,-67.23 232,-57.23 225,-57.23"/>
<text text-anchor="middle" x="280.5" y="-41" font-family="Helvetica,sans-Serif" font-size="10.00"> mTransformComponent</text>
</g>
<!-- Node9 -->
<g id="node6" class="node">
<title>Node9</title>
<g id="a_node6"><a xlink:href="../../d4/d08/structnap_1_1_perp_camera_properties.html" target="_top" xlink:title="PerpCameraProperties">
<polygon fill="white" stroke="black" points="320,-67.5 320,-86.5 435,-86.5 435,-67.5 320,-67.5"/>
<text text-anchor="middle" x="377.5" y="-74.5" font-family="Helvetica,sans-Serif" font-size="10.00">PerpCameraProperties</text>
</a>
</g>
</g>
<!-- Node9&#45;&gt;Node4 -->
<g id="edge6" class="edge">
<title>Node9&#45;&gt;Node4</title>
<path fill="none" stroke="#9a32cd" stroke-dasharray="5,2" d="M363.56,-59.72C356.22,-52.09 346.65,-43.5 336.5,-38 320.78,-29.49 302.32,-23.6 285.15,-19.56"/>
<polygon fill="#9a32cd" stroke="#9a32cd" points="361.25,-62.38 370.57,-67.42 366.43,-57.67 361.25,-62.38"/>
<text text-anchor="middle" x="379.5" y="-41" font-family="Helvetica,sans-Serif" font-size="10.00"> mProperties</text>
</g>
</g>
</svg>
