<?xml version="1.0" encoding="UTF-8" standalone="no"?>
<!DOCTYPE svg PUBLIC "-//W3C//DTD SVG 1.1//EN"
 "http://www.w3.org/Graphics/SVG/1.1/DTD/svg11.dtd">
<!-- Generated by graphviz version 3.0.0 (20220226.1711)
 -->
<!-- Title: GUIAppEventHandler Pages: 1 -->
<svg width="115pt" height="152pt"
 viewBox="0.00 0.00 115.00 152.00" xmlns="http://www.w3.org/2000/svg" xmlns:xlink="http://www.w3.org/1999/xlink">
<g id="graph0" class="graph" transform="scale(1 1) rotate(0) translate(4 148)">
<title>GUIAppEventHandler</title>
<polygon fill="white" stroke="transparent" points="-4,4 -4,-148 111,-148 111,4 -4,4"/>
<!-- Node2 -->
<g id="node1" class="node">
<title>Node2</title>
<polygon fill="#bfbfbf" stroke="black" points="0,-0.5 0,-19.5 107,-19.5 107,-0.5 0,-0.5"/>
<text text-anchor="middle" x="53.5" y="-7.5" font-family="Helvetica,sans-Serif" font-size="10.00">GUIAppEventHandler</text>
</g>
<!-- Node3 -->
<g id="node2" class="node">
<title>Node3</title>
<g id="a_node2"><a xlink:href="../../d3/de2/classnap_1_1_app_event_handler.html" target="_top" xlink:title="AppEventHandler">
<polygon fill="white" stroke="black" points="8,-57.5 8,-76.5 99,-76.5 99,-57.5 8,-57.5"/>
<text text-anchor="middle" x="53.5" y="-64.5" font-family="Helvetica,sans-Serif" font-size="10.00">AppEventHandler</text>
</a>
</g>
</g>
<!-- Node3&#45;&gt;Node2 -->
<g id="edge1" class="edge">
<title>Node3&#45;&gt;Node2</title>
<path fill="none" stroke="midnightblue" d="M53.5,-47.12C53.5,-37.82 53.5,-27.06 53.5,-19.71"/>
<polygon fill="midnightblue" stroke="midnightblue" points="50,-47.41 53.5,-57.41 57,-47.41 50,-47.41"/>
</g>
<!-- Node4 -->
<g id="node3" class="node">
<title>Node4</title>
<g id="a_node3"><a xlink:href="../../d4/dda/classnap_1_1_base_app.html" target="_top" xlink:title="BaseApp">
<polygon fill="white" stroke="black" points="25.5,-124.5 25.5,-143.5 81.5,-143.5 81.5,-124.5 25.5,-124.5"/>
<text text-anchor="middle" x="53.5" y="-131.5" font-family="Helvetica,sans-Serif" font-size="10.00">BaseApp</text>
</a>
</g>
</g>
<!-- Node4&#45;&gt;Node3 -->
<g id="edge2" class="edge">
<title>Node4&#45;&gt;Node3</title>
<path fill="none" stroke="#9a32cd" stroke-dasharray="5,2" d="M53.5,-114.04C53.5,-101.67 53.5,-86.12 53.5,-76.63"/>
<polygon fill="#9a32cd" stroke="#9a32cd" points="50,-114.23 53.5,-124.23 57,-114.23 50,-114.23"/>
<text text-anchor="middle" x="68" y="-98" font-family="Helvetica,sans-Serif" font-size="10.00"> mApp</text>
</g>
</g>
</svg>
