<?xml version="1.0" encoding="UTF-8" standalone="no"?>
<!DOCTYPE svg PUBLIC "-//W3C//DTD SVG 1.1//EN"
 "http://www.w3.org/Graphics/SVG/1.1/DTD/svg11.dtd">
<!-- Generated by graphviz version 2.43.0 (0)
 -->
<!-- Title: GUIAppEventHandler Pages: 1 -->
<svg width="127pt" height="152pt"
 viewBox="0.00 0.00 127.00 152.00" xmlns="http://www.w3.org/2000/svg" xmlns:xlink="http://www.w3.org/1999/xlink">
<g id="graph0" class="graph" transform="scale(1 1) rotate(0) translate(4 148)">
<title>GUIAppEventHandler</title>
<polygon fill="white" stroke="transparent" points="-4,4 -4,-148 123,-148 123,4 -4,4"/>
<!-- Node1 -->
<g id="node1" class="node">
<title>Node1</title>
<g id="a_node1"><a xlink:title=" ">
<polygon fill="#bfbfbf" stroke="black" points="0,-0.5 0,-19.5 119,-19.5 119,-0.5 0,-0.5"/>
<text text-anchor="middle" x="59.5" y="-7.5" font-family="Helvetica,sans-Serif" font-size="10.00">GUIAppEventHandler</text>
</a>
</g>
</g>
<!-- Node2 -->
<g id="node2" class="node">
<title>Node2</title>
<g id="a_node2"><a xlink:href="../../d3/de2/classnap_1_1_app_event_handler.html" target="_top" xlink:title=" ">
<polygon fill="white" stroke="black" points="9,-57.5 9,-76.5 110,-76.5 110,-57.5 9,-57.5"/>
<text text-anchor="middle" x="59.5" y="-64.5" font-family="Helvetica,sans-Serif" font-size="10.00">AppEventHandler</text>
</a>
</g>
</g>
<!-- Node2&#45;&gt;Node1 -->
<g id="edge1" class="edge">
<title>Node2&#45;&gt;Node1</title>
<path fill="none" stroke="midnightblue" d="M59.5,-47.12C59.5,-37.82 59.5,-27.06 59.5,-19.71"/>
<polygon fill="midnightblue" stroke="midnightblue" points="56,-47.41 59.5,-57.41 63,-47.41 56,-47.41"/>
</g>
<!-- Node3 -->
<g id="node3" class="node">
<title>Node3</title>
<g id="a_node3"><a xlink:href="../../d4/dda/classnap_1_1_base_app.html" target="_top" xlink:title=" ">
<polygon fill="white" stroke="black" points="30,-124.5 30,-143.5 89,-143.5 89,-124.5 30,-124.5"/>
<text text-anchor="middle" x="59.5" y="-131.5" font-family="Helvetica,sans-Serif" font-size="10.00">BaseApp</text>
</a>
</g>
</g>
<!-- Node3&#45;&gt;Node2 -->
<g id="edge2" class="edge">
<title>Node3&#45;&gt;Node2</title>
<path fill="none" stroke="#9a32cd" stroke-dasharray="5,2" d="M59.5,-114.04C59.5,-101.67 59.5,-86.12 59.5,-76.63"/>
<polygon fill="#9a32cd" stroke="#9a32cd" points="56,-114.23 59.5,-124.23 63,-114.23 56,-114.23"/>
<text text-anchor="middle" x="75.5" y="-98" font-family="Helvetica,sans-Serif" font-size="10.00"> mApp</text>
</g>
</g>
</svg>
