<?xml version="1.0" encoding="UTF-8" standalone="no"?>
<!DOCTYPE svg PUBLIC "-//W3C//DTD SVG 1.1//EN"
 "http://www.w3.org/Graphics/SVG/1.1/DTD/svg11.dtd">
<!-- Generated by graphviz version 2.43.0 (0)
 -->
<!-- Title: SequenceTrackView Pages: 1 -->
<svg width="548pt" height="364pt"
 viewBox="0.00 0.00 548.00 364.00" xmlns="http://www.w3.org/2000/svg" xmlns:xlink="http://www.w3.org/1999/xlink">
<g id="graph0" class="graph" transform="scale(1 1) rotate(0) translate(4 360)">
<title>SequenceTrackView</title>
<polygon fill="white" stroke="transparent" points="-4,4 -4,-360 544,-360 544,4 -4,4"/>
<!-- Node1 -->
<g id="node1" class="node">
<title>Node1</title>
<g id="a_node1"><a xlink:title=" ">
<polygon fill="#bfbfbf" stroke="black" points="235.5,-0.5 235.5,-19.5 348.5,-19.5 348.5,-0.5 235.5,-0.5"/>
<text text-anchor="middle" x="292" y="-7.5" font-family="Helvetica,sans-Serif" font-size="10.00">SequenceTrackView</text>
</a>
</g>
</g>
<!-- Node2 -->
<g id="node2" class="node">
<title>Node2</title>
<g id="a_node2"><a xlink:href="../../d0/d0a/classnap_1_1_sequence_g_u_i_service.html" target="_top" xlink:title=" ">
<polygon fill="white" stroke="black" points="398,-134.5 398,-153.5 516,-153.5 516,-134.5 398,-134.5"/>
<text text-anchor="middle" x="457" y="-141.5" font-family="Helvetica,sans-Serif" font-size="10.00">SequenceGUIService</text>
</a>
</g>
</g>
<!-- Node2&#45;&gt;Node1 -->
<g id="edge1" class="edge">
<title>Node2&#45;&gt;Node1</title>
<path fill="none" stroke="#9a32cd" stroke-dasharray="5,2" d="M449.95,-125.19C446.69,-118.38 442.34,-110.84 437,-105 399.98,-64.46 341.79,-33.85 311.62,-19.68"/>
<polygon fill="#9a32cd" stroke="#9a32cd" points="446.75,-126.6 453.94,-134.38 453.17,-123.81 446.75,-126.6"/>
<text text-anchor="middle" x="443.5" y="-74.5" font-family="Helvetica,sans-Serif" font-size="10.00"> mService</text>
</g>
<!-- Node4 -->
<g id="node4" class="node">
<title>Node4</title>
<g id="a_node4"><a xlink:href="../../d2/d74/classnap_1_1_sequence_editor_g_u_i_view.html" target="_top" xlink:title=" ">
<polygon fill="white" stroke="black" points="225,-67.5 225,-86.5 359,-86.5 359,-67.5 225,-67.5"/>
<text text-anchor="middle" x="292" y="-74.5" font-family="Helvetica,sans-Serif" font-size="10.00">SequenceEditorGUIView</text>
</a>
</g>
</g>
<!-- Node2&#45;&gt;Node4 -->
<g id="edge4" class="edge">
<title>Node2&#45;&gt;Node4</title>
<path fill="none" stroke="#9a32cd" stroke-dasharray="5,2" d="M425.51,-130.71C413.73,-126.1 400.25,-120.82 388,-116 362.48,-105.96 333.17,-94.34 313.72,-86.63"/>
<polygon fill="#9a32cd" stroke="#9a32cd" points="424.34,-134.01 434.93,-134.39 426.89,-127.49 424.34,-134.01"/>
<text text-anchor="middle" x="412.5" y="-108" font-family="Helvetica,sans-Serif" font-size="10.00"> mService</text>
</g>
<!-- Node3 -->
<g id="node3" class="node">
<title>Node3</title>
<g id="a_node3"><a xlink:href="../../d8/d8e/classnap_1_1_service.html" target="_top" xlink:title=" ">
<polygon fill="white" stroke="black" points="430.5,-201.5 430.5,-220.5 483.5,-220.5 483.5,-201.5 430.5,-201.5"/>
<text text-anchor="middle" x="457" y="-208.5" font-family="Helvetica,sans-Serif" font-size="10.00">Service</text>
</a>
</g>
</g>
<!-- Node3&#45;&gt;Node2 -->
<g id="edge2" class="edge">
<title>Node3&#45;&gt;Node2</title>
<path fill="none" stroke="midnightblue" d="M457,-191.04C457,-178.67 457,-163.12 457,-153.63"/>
<polygon fill="midnightblue" stroke="midnightblue" points="453.5,-191.23 457,-201.23 460.5,-191.23 453.5,-191.23"/>
</g>
<!-- Node4&#45;&gt;Node1 -->
<g id="edge3" class="edge">
<title>Node4&#45;&gt;Node1</title>
<path fill="none" stroke="#9a32cd" stroke-dasharray="5,2" d="M292,-57.04C292,-44.67 292,-29.12 292,-19.63"/>
<polygon fill="#9a32cd" stroke="#9a32cd" points="288.5,-57.23 292,-67.23 295.5,-57.23 288.5,-57.23"/>
<text text-anchor="middle" x="310.5" y="-41" font-family="Helvetica,sans-Serif" font-size="10.00"> mView</text>
</g>
<!-- Node5 -->
<g id="node5" class="node">
<title>Node5</title>
<g id="a_node5"><a xlink:href="../../db/d94/structnap_1_1_sequence_editor_g_u_i_state.html" target="_top" xlink:title=" ">
<polygon fill="white" stroke="black" points="48,-134.5 48,-153.5 184,-153.5 184,-134.5 48,-134.5"/>
<text text-anchor="middle" x="116" y="-141.5" font-family="Helvetica,sans-Serif" font-size="10.00">SequenceEditorGUIState</text>
</a>
</g>
</g>
<!-- Node5&#45;&gt;Node1 -->
<g id="edge19" class="edge">
<title>Node5&#45;&gt;Node1</title>
<path fill="none" stroke="#9a32cd" stroke-dasharray="5,2" d="M126.62,-125.71C137.58,-108.98 156,-83.77 177,-67 204.59,-44.97 242.27,-28.7 266.86,-19.54"/>
<polygon fill="#9a32cd" stroke="#9a32cd" points="123.47,-124.13 121.06,-134.45 129.38,-127.89 123.47,-124.13"/>
<text text-anchor="middle" x="196.5" y="-74.5" font-family="Helvetica,sans-Serif" font-size="10.00"> mState</text>
</g>
<!-- Node5&#45;&gt;Node4 -->
<g id="edge5" class="edge">
<title>Node5&#45;&gt;Node4</title>
<path fill="none" stroke="#9a32cd" stroke-dasharray="5,2" d="M139.94,-129.48C154.63,-121.58 174.02,-111.84 192,-105 211.66,-97.52 234.24,-91.23 252.96,-86.62"/>
<polygon fill="#9a32cd" stroke="#9a32cd" points="138.11,-126.49 131.02,-134.36 141.48,-132.63 138.11,-126.49"/>
<text text-anchor="middle" x="211.5" y="-108" font-family="Helvetica,sans-Serif" font-size="10.00"> mState</text>
</g>
<!-- Node6 -->
<g id="node6" class="node">
<title>Node6</title>
<g id="a_node6"><a xlink:href="../../d9/dde/classnap_1_1_sequence_editor.html" target="_top" xlink:title=" ">
<polygon fill="white" stroke="black" points="316,-201.5 316,-220.5 408,-220.5 408,-201.5 316,-201.5"/>
<text text-anchor="middle" x="362" y="-208.5" font-family="Helvetica,sans-Serif" font-size="10.00">SequenceEditor</text>
</a>
</g>
</g>
<!-- Node6&#45;&gt;Node4 -->
<g id="edge6" class="edge">
<title>Node6&#45;&gt;Node4</title>
<path fill="none" stroke="#9a32cd" stroke-dasharray="5,2" d="M356.61,-191.63C348.75,-165.54 333.99,-119.33 324,-105 319.01,-97.84 311.67,-91.46 305.28,-86.7"/>
<polygon fill="#9a32cd" stroke="#9a32cd" points="353.32,-192.84 359.52,-201.42 360.03,-190.84 353.32,-192.84"/>
<text text-anchor="middle" x="366" y="-141.5" font-family="Helvetica,sans-Serif" font-size="10.00"> mEditor</text>
</g>
<!-- Node7 -->
<g id="node7" class="node">
<title>Node7</title>
<g id="a_node7"><a xlink:href="../../d9/dea/classnap_1_1_resource.html" target="_top" xlink:title=" ">
<polygon fill="white" stroke="black" points="316,-274 316,-293 378,-293 378,-274 316,-274"/>
<text text-anchor="middle" x="347" y="-281" font-family="Helvetica,sans-Serif" font-size="10.00">Resource</text>
</a>
</g>
</g>
<!-- Node7&#45;&gt;Node6 -->
<g id="edge7" class="edge">
<title>Node7&#45;&gt;Node6</title>
<path fill="none" stroke="midnightblue" d="M350.97,-263.86C353.94,-249.9 357.87,-231.43 360.15,-220.72"/>
<polygon fill="midnightblue" stroke="midnightblue" points="347.5,-263.35 348.84,-273.86 354.34,-264.8 347.5,-263.35"/>
</g>
<!-- Node12 -->
<g id="node12" class="node">
<title>Node12</title>
<g id="a_node12"><a xlink:href="../../d0/dc5/classnap_1_1_window.html" target="_top" xlink:title=" ">
<polygon fill="white" stroke="black" points="234,-201.5 234,-220.5 290,-220.5 290,-201.5 234,-201.5"/>
<text text-anchor="middle" x="262" y="-208.5" font-family="Helvetica,sans-Serif" font-size="10.00">Window</text>
</a>
</g>
</g>
<!-- Node7&#45;&gt;Node12 -->
<g id="edge13" class="edge">
<title>Node7&#45;&gt;Node12</title>
<path fill="none" stroke="midnightblue" d="M340.27,-264.48C336.32,-255.87 330.59,-245.95 323,-239 313.69,-230.47 301.25,-224.31 290.03,-220.05"/>
<polygon fill="midnightblue" stroke="midnightblue" points="337.04,-265.84 344.1,-273.74 343.51,-263.16 337.04,-265.84"/>
</g>
<!-- Node8 -->
<g id="node8" class="node">
<title>Node8</title>
<g id="a_node8"><a xlink:href="../../de/d01/classnap_1_1rtti_1_1_object.html" target="_top" xlink:title=" ">
<polygon fill="white" stroke="black" points="323,-336.5 323,-355.5 371,-355.5 371,-336.5 323,-336.5"/>
<text text-anchor="middle" x="347" y="-343.5" font-family="Helvetica,sans-Serif" font-size="10.00">Object</text>
</a>
</g>
</g>
<!-- Node8&#45;&gt;Node7 -->
<g id="edge8" class="edge">
<title>Node8&#45;&gt;Node7</title>
<path fill="none" stroke="midnightblue" d="M347,-326C347,-315 347,-301.68 347,-293.15"/>
<polygon fill="midnightblue" stroke="midnightblue" points="343.5,-326.33 347,-336.33 350.5,-326.33 343.5,-326.33"/>
</g>
<!-- Node9 -->
<g id="node9" class="node">
<title>Node9</title>
<g id="a_node9"><a xlink:href="../../dd/d7c/classnap_1_1rtti_1_1_object_ptr.html" target="_top" xlink:title=" ">
<polygon fill="white" stroke="black" points="396,-268.5 396,-298.5 540,-298.5 540,-268.5 396,-268.5"/>
<text text-anchor="start" x="404" y="-286.5" font-family="Helvetica,sans-Serif" font-size="10.00">ObjectPtr&lt; nap::Sequence</text>
<text text-anchor="middle" x="468" y="-275.5" font-family="Helvetica,sans-Serif" font-size="10.00">Player &gt;</text>
</a>
</g>
</g>
<!-- Node9&#45;&gt;Node6 -->
<g id="edge9" class="edge">
<title>Node9&#45;&gt;Node6</title>
<path fill="none" stroke="#9a32cd" stroke-dasharray="5,2" d="M438.27,-262.73C417.38,-248.83 390.46,-230.93 374.83,-220.53"/>
<polygon fill="#9a32cd" stroke="#9a32cd" points="436.54,-265.78 446.8,-268.4 440.42,-259.95 436.54,-265.78"/>
<text text-anchor="middle" x="464.5" y="-242" font-family="Helvetica,sans-Serif" font-size="10.00"> mSequencePlayer</text>
</g>
<!-- Node10 -->
<g id="node10" class="node">
<title>Node10</title>
<g id="a_node10"><a xlink:href="../../d7/dcb/classnap_1_1rtti_1_1_object_ptr_base.html" target="_top" xlink:title=" ">
<polygon fill="white" stroke="black" points="425,-336.5 425,-355.5 511,-355.5 511,-336.5 425,-336.5"/>
<text text-anchor="middle" x="468" y="-343.5" font-family="Helvetica,sans-Serif" font-size="10.00">ObjectPtrBase</text>
</a>
</g>
</g>
<!-- Node10&#45;&gt;Node9 -->
<g id="edge10" class="edge">
<title>Node10&#45;&gt;Node9</title>
<path fill="none" stroke="midnightblue" d="M468,-326.22C468,-317.36 468,-306.96 468,-298.76"/>
<polygon fill="midnightblue" stroke="midnightblue" points="464.5,-326.33 468,-336.33 471.5,-326.33 464.5,-326.33"/>
</g>
<!-- Node11 -->
<g id="node11" class="node">
<title>Node11</title>
<g id="a_node11"><a xlink:href="../../d6/d4f/classnap_1_1_render_window.html" target="_top" xlink:title=" ">
<polygon fill="white" stroke="black" points="202,-134.5 202,-153.5 292,-153.5 292,-134.5 202,-134.5"/>
<text text-anchor="middle" x="247" y="-141.5" font-family="Helvetica,sans-Serif" font-size="10.00">RenderWindow</text>
</a>
</g>
</g>
<!-- Node11&#45;&gt;Node4 -->
<g id="edge11" class="edge">
<title>Node11&#45;&gt;Node4</title>
<path fill="none" stroke="#9a32cd" stroke-dasharray="5,2" d="M236.7,-125.24C234.21,-118.54 233.22,-111.07 237,-105 242.29,-96.51 251.11,-90.62 260.15,-86.56"/>
<polygon fill="#9a32cd" stroke="#9a32cd" points="233.55,-126.77 241.04,-134.27 239.86,-123.74 233.55,-126.77"/>
<text text-anchor="middle" x="280.5" y="-108" font-family="Helvetica,sans-Serif" font-size="10.00"> mRenderWindow</text>
</g>
<!-- Node12&#45;&gt;Node11 -->
<g id="edge12" class="edge">
<title>Node12&#45;&gt;Node11</title>
<path fill="none" stroke="midnightblue" d="M257.71,-191.41C254.84,-178.99 251.2,-163.22 248.99,-153.63"/>
<polygon fill="midnightblue" stroke="midnightblue" points="254.32,-192.28 259.98,-201.23 261.14,-190.7 254.32,-192.28"/>
</g>
<!-- Node13 -->
<g id="node13" class="node">
<title>Node13</title>
<g id="a_node13"><a xlink:href="../../de/d80/classnap_1_1_signal.html" target="_top" xlink:title=" ">
<polygon fill="white" stroke="black" points="186.5,-268.5 186.5,-298.5 297.5,-298.5 297.5,-268.5 186.5,-268.5"/>
<text text-anchor="start" x="194.5" y="-286.5" font-family="Helvetica,sans-Serif" font-size="10.00">Signal&lt; const nap::</text>
<text text-anchor="middle" x="242" y="-275.5" font-family="Helvetica,sans-Serif" font-size="10.00">WindowEvent &amp; &gt;</text>
</a>
</g>
</g>
<!-- Node13&#45;&gt;Node12 -->
<g id="edge14" class="edge">
<title>Node13&#45;&gt;Node12</title>
<path fill="none" stroke="#9a32cd" stroke-dasharray="5,2" d="M240.06,-258.27C240.22,-251.87 241,-245.07 243,-239 245.22,-232.25 249.75,-225.7 253.83,-220.75"/>
<polygon fill="#9a32cd" stroke="#9a32cd" points="236.56,-258.52 240.28,-268.44 243.56,-258.36 236.56,-258.52"/>
<text text-anchor="middle" x="283" y="-242" font-family="Helvetica,sans-Serif" font-size="10.00"> mWindowEvent</text>
</g>
<!-- Node14 -->
<g id="node14" class="node">
<title>Node14</title>
<g id="a_node14"><a xlink:href="../../d7/da9/classnap_1_1_i_render_target.html" target="_top" xlink:title=" ">
<polygon fill="white" stroke="black" points="0,-201.5 0,-220.5 84,-220.5 84,-201.5 0,-201.5"/>
<text text-anchor="middle" x="42" y="-208.5" font-family="Helvetica,sans-Serif" font-size="10.00">IRenderTarget</text>
</a>
</g>
</g>
<!-- Node14&#45;&gt;Node11 -->
<g id="edge15" class="edge">
<title>Node14&#45;&gt;Node11</title>
<path fill="none" stroke="midnightblue" d="M79.01,-198.27C119.63,-185.39 183.86,-165.02 219.99,-153.56"/>
<polygon fill="midnightblue" stroke="midnightblue" points="77.7,-195.01 69.22,-201.37 79.81,-201.68 77.7,-195.01"/>
</g>
<!-- Node15 -->
<g id="node15" class="node">
<title>Node15</title>
<g id="a_node15"><a xlink:href="../../d6/db8/classnap_1_1_r_g_b_a_color.html" target="_top" xlink:title=" ">
<polygon fill="white" stroke="black" points="102,-201.5 102,-220.5 216,-220.5 216,-201.5 102,-201.5"/>
<text text-anchor="middle" x="159" y="-208.5" font-family="Helvetica,sans-Serif" font-size="10.00">RGBAColor&lt; float &gt;</text>
</a>
</g>
</g>
<!-- Node15&#45;&gt;Node11 -->
<g id="edge16" class="edge">
<title>Node15&#45;&gt;Node11</title>
<path fill="none" stroke="#9a32cd" stroke-dasharray="5,2" d="M168.6,-192.51C173.15,-185.44 179.11,-177.63 186,-172 195.78,-164.01 208.29,-157.93 219.43,-153.58"/>
<polygon fill="#9a32cd" stroke="#9a32cd" points="165.4,-191.05 163.31,-201.43 171.42,-194.62 165.4,-191.05"/>
<text text-anchor="middle" x="218" y="-175" font-family="Helvetica,sans-Serif" font-size="10.00"> mClearColor</text>
</g>
<!-- Node16 -->
<g id="node16" class="node">
<title>Node16</title>
<g id="a_node16"><a xlink:href="../../d6/d3d/classnap_1_1_color.html" target="_top" xlink:title=" ">
<polygon fill="white" stroke="black" points="70,-274 70,-293 168,-293 168,-274 70,-274"/>
<text text-anchor="middle" x="119" y="-281" font-family="Helvetica,sans-Serif" font-size="10.00">Color&lt; float, 4 &gt;</text>
</a>
</g>
</g>
<!-- Node16&#45;&gt;Node15 -->
<g id="edge17" class="edge">
<title>Node16&#45;&gt;Node15</title>
<path fill="none" stroke="midnightblue" d="M128.88,-265.09C136.87,-251 147.8,-231.74 154.06,-220.72"/>
<polygon fill="midnightblue" stroke="midnightblue" points="125.8,-263.43 123.9,-273.86 131.88,-266.88 125.8,-263.43"/>
</g>
<!-- Node17 -->
<g id="node17" class="node">
<title>Node17</title>
<g id="a_node17"><a xlink:href="../../d8/d6a/classnap_1_1_base_color.html" target="_top" xlink:title=" ">
<polygon fill="white" stroke="black" points="86,-336.5 86,-355.5 152,-355.5 152,-336.5 86,-336.5"/>
<text text-anchor="middle" x="119" y="-343.5" font-family="Helvetica,sans-Serif" font-size="10.00">BaseColor</text>
</a>
</g>
</g>
<!-- Node17&#45;&gt;Node16 -->
<g id="edge18" class="edge">
<title>Node17&#45;&gt;Node16</title>
<path fill="none" stroke="midnightblue" d="M119,-326C119,-315 119,-301.68 119,-293.15"/>
<polygon fill="midnightblue" stroke="midnightblue" points="115.5,-326.33 119,-336.33 122.5,-326.33 115.5,-326.33"/>
</g>
</g>
</svg>
