<?xml version="1.0" encoding="UTF-8" standalone="no"?>
<!DOCTYPE svg PUBLIC "-//W3C//DTD SVG 1.1//EN"
 "http://www.w3.org/Graphics/SVG/1.1/DTD/svg11.dtd">
<!-- Generated by graphviz version 2.48.0 (20210717.1556)
 -->
<!-- Title: LineFromFile Pages: 1 -->
<svg width="81pt" height="252pt"
 viewBox="0.00 0.00 81.00 252.00" xmlns="http://www.w3.org/2000/svg" xmlns:xlink="http://www.w3.org/1999/xlink">
<g id="graph0" class="graph" transform="scale(1 1) rotate(0) translate(4 248)">
<title>LineFromFile</title>
<polygon fill="white" stroke="transparent" points="-4,4 -4,-248 77,-248 77,4 -4,4"/>
<!-- Node0 -->
<g id="node1" class="node">
<title>Node0</title>
<polygon fill="#bfbfbf" stroke="black" points="0,-0.5 0,-19.5 73,-19.5 73,-0.5 0,-0.5"/>
<text text-anchor="middle" x="36.5" y="-7.5" font-family="Helvetica,sans-Serif" font-size="10.00">LineFromFile</text>
</g>
<!-- Node1 -->
<g id="node2" class="node">
<title>Node1</title>
<g id="a_node2"><a xlink:href="../../db/d34/classnap_1_1_poly_line.html" target="_top" xlink:title="PolyLine">
<polygon fill="white" stroke="black" points="9.5,-56.5 9.5,-75.5 63.5,-75.5 63.5,-56.5 9.5,-56.5"/>
<text text-anchor="middle" x="36.5" y="-63.5" font-family="Helvetica,sans-Serif" font-size="10.00">PolyLine</text>
</a>
</g>
</g>
<!-- Node1&#45;&gt;Node0 -->
<g id="edge1" class="edge">
<title>Node1&#45;&gt;Node0</title>
<path fill="none" stroke="midnightblue" d="M36.5,-45.8C36.5,-36.91 36.5,-26.78 36.5,-19.75"/>
<polygon fill="midnightblue" stroke="midnightblue" points="33,-46.08 36.5,-56.08 40,-46.08 33,-46.08"/>
</g>
<!-- Node2 -->
<g id="node3" class="node">
<title>Node2</title>
<g id="a_node3"><a xlink:href="../../dd/dac/classnap_1_1_i_mesh.html" target="_top" xlink:title="IMesh">
<polygon fill="white" stroke="black" points="15,-112.5 15,-131.5 58,-131.5 58,-112.5 15,-112.5"/>
<text text-anchor="middle" x="36.5" y="-119.5" font-family="Helvetica,sans-Serif" font-size="10.00">IMesh</text>
</a>
</g>
</g>
<!-- Node2&#45;&gt;Node1 -->
<g id="edge2" class="edge">
<title>Node2&#45;&gt;Node1</title>
<path fill="none" stroke="midnightblue" d="M36.5,-101.8C36.5,-92.91 36.5,-82.78 36.5,-75.75"/>
<polygon fill="midnightblue" stroke="midnightblue" points="33,-102.08 36.5,-112.08 40,-102.08 33,-102.08"/>
</g>
<!-- Node3 -->
<g id="node4" class="node">
<title>Node3</title>
<g id="a_node4"><a xlink:href="../../d9/dea/classnap_1_1_resource.html" target="_top" xlink:title="Resource">
<polygon fill="white" stroke="black" points="7.5,-168.5 7.5,-187.5 65.5,-187.5 65.5,-168.5 7.5,-168.5"/>
<text text-anchor="middle" x="36.5" y="-175.5" font-family="Helvetica,sans-Serif" font-size="10.00">Resource</text>
</a>
</g>
</g>
<!-- Node3&#45;&gt;Node2 -->
<g id="edge3" class="edge">
<title>Node3&#45;&gt;Node2</title>
<path fill="none" stroke="midnightblue" d="M36.5,-157.8C36.5,-148.91 36.5,-138.78 36.5,-131.75"/>
<polygon fill="midnightblue" stroke="midnightblue" points="33,-158.08 36.5,-168.08 40,-158.08 33,-158.08"/>
</g>
<!-- Node4 -->
<g id="node5" class="node">
<title>Node4</title>
<g id="a_node5"><a xlink:href="../../de/d01/classnap_1_1rtti_1_1_object.html" target="_top" xlink:title="Object">
<polygon fill="white" stroke="black" points="14,-224.5 14,-243.5 59,-243.5 59,-224.5 14,-224.5"/>
<text text-anchor="middle" x="36.5" y="-231.5" font-family="Helvetica,sans-Serif" font-size="10.00">Object</text>
</a>
</g>
</g>
<!-- Node4&#45;&gt;Node3 -->
<g id="edge4" class="edge">
<title>Node4&#45;&gt;Node3</title>
<path fill="none" stroke="midnightblue" d="M36.5,-213.8C36.5,-204.91 36.5,-194.78 36.5,-187.75"/>
<polygon fill="midnightblue" stroke="midnightblue" points="33,-214.08 36.5,-224.08 40,-214.08 33,-214.08"/>
</g>
</g>
</svg>
