<?xml version="1.0" encoding="UTF-8" standalone="no"?>
<!DOCTYPE svg PUBLIC "-//W3C//DTD SVG 1.1//EN"
 "http://www.w3.org/Graphics/SVG/1.1/DTD/svg11.dtd">
<!-- Generated by graphviz version 2.43.0 (0)
 -->
<!-- Title: APIWebSocketClient Pages: 1 -->
<svg width="122pt" height="252pt"
 viewBox="0.00 0.00 122.00 252.00" xmlns="http://www.w3.org/2000/svg" xmlns:xlink="http://www.w3.org/1999/xlink">
<g id="graph0" class="graph" transform="scale(1 1) rotate(0) translate(4 248)">
<title>APIWebSocketClient</title>
<polygon fill="white" stroke="transparent" points="-4,4 -4,-248 118,-248 118,4 -4,4"/>
<!-- Node1 -->
<g id="node1" class="node">
<title>Node1</title>
<g id="a_node1"><a xlink:title=" ">
<polygon fill="#bfbfbf" stroke="black" points="0,-0.5 0,-19.5 114,-19.5 114,-0.5 0,-0.5"/>
<text text-anchor="middle" x="57" y="-7.5" font-family="Helvetica,sans-Serif" font-size="10.00">APIWebSocketClient</text>
</a>
</g>
</g>
<!-- Node2 -->
<g id="node2" class="node">
<title>Node2</title>
<g id="a_node2"><a xlink:href="../../dc/d74/classnap_1_1_i_web_socket_client.html" target="_top" xlink:title=" ">
<polygon fill="white" stroke="black" points="6.5,-56.5 6.5,-75.5 107.5,-75.5 107.5,-56.5 6.5,-56.5"/>
<text text-anchor="middle" x="57" y="-63.5" font-family="Helvetica,sans-Serif" font-size="10.00">IWebSocketClient</text>
</a>
</g>
</g>
<!-- Node2&#45;&gt;Node1 -->
<g id="edge1" class="edge">
<title>Node2&#45;&gt;Node1</title>
<path fill="none" stroke="midnightblue" d="M57,-45.8C57,-36.91 57,-26.78 57,-19.75"/>
<polygon fill="midnightblue" stroke="midnightblue" points="53.5,-46.08 57,-56.08 60.5,-46.08 53.5,-46.08"/>
</g>
<!-- Node3 -->
<g id="node3" class="node">
<title>Node3</title>
<g id="a_node3"><a xlink:href="../../d6/d44/classnap_1_1_web_socket_interface.html" target="_top" xlink:title=" ">
<polygon fill="white" stroke="black" points="0.5,-112.5 0.5,-131.5 113.5,-131.5 113.5,-112.5 0.5,-112.5"/>
<text text-anchor="middle" x="57" y="-119.5" font-family="Helvetica,sans-Serif" font-size="10.00">WebSocketInterface</text>
</a>
</g>
</g>
<!-- Node3&#45;&gt;Node2 -->
<g id="edge2" class="edge">
<title>Node3&#45;&gt;Node2</title>
<path fill="none" stroke="midnightblue" d="M57,-101.8C57,-92.91 57,-82.78 57,-75.75"/>
<polygon fill="midnightblue" stroke="midnightblue" points="53.5,-102.08 57,-112.08 60.5,-102.08 53.5,-102.08"/>
</g>
<!-- Node4 -->
<g id="node4" class="node">
<title>Node4</title>
<g id="a_node4"><a xlink:href="../../d9/dea/classnap_1_1_resource.html" target="_top" xlink:title=" ">
<polygon fill="white" stroke="black" points="26,-168.5 26,-187.5 88,-187.5 88,-168.5 26,-168.5"/>
<text text-anchor="middle" x="57" y="-175.5" font-family="Helvetica,sans-Serif" font-size="10.00">Resource</text>
</a>
</g>
</g>
<!-- Node4&#45;&gt;Node3 -->
<g id="edge3" class="edge">
<title>Node4&#45;&gt;Node3</title>
<path fill="none" stroke="midnightblue" d="M57,-157.8C57,-148.91 57,-138.78 57,-131.75"/>
<polygon fill="midnightblue" stroke="midnightblue" points="53.5,-158.08 57,-168.08 60.5,-158.08 53.5,-158.08"/>
</g>
<!-- Node5 -->
<g id="node5" class="node">
<title>Node5</title>
<g id="a_node5"><a xlink:href="../../de/d01/classnap_1_1rtti_1_1_object.html" target="_top" xlink:title=" ">
<polygon fill="white" stroke="black" points="33,-224.5 33,-243.5 81,-243.5 81,-224.5 33,-224.5"/>
<text text-anchor="middle" x="57" y="-231.5" font-family="Helvetica,sans-Serif" font-size="10.00">Object</text>
</a>
</g>
</g>
<!-- Node5&#45;&gt;Node4 -->
<g id="edge4" class="edge">
<title>Node5&#45;&gt;Node4</title>
<path fill="none" stroke="midnightblue" d="M57,-213.8C57,-204.91 57,-194.78 57,-187.75"/>
<polygon fill="midnightblue" stroke="midnightblue" points="53.5,-214.08 57,-224.08 60.5,-214.08 53.5,-214.08"/>
</g>
</g>
</svg>
