<?xml version="1.0" encoding="UTF-8" standalone="no"?>
<!DOCTYPE svg PUBLIC "-//W3C//DTD SVG 1.1//EN"
 "http://www.w3.org/Graphics/SVG/1.1/DTD/svg11.dtd">
<!-- Generated by graphviz version 2.48.0 (20210717.1556)
 -->
<!-- Title: CalendarItem::Point Pages: 1 -->
<svg width="110pt" height="106pt"
 viewBox="0.00 0.00 110.00 106.00" xmlns="http://www.w3.org/2000/svg" xmlns:xlink="http://www.w3.org/1999/xlink">
<g id="graph0" class="graph" transform="scale(1 1) rotate(0) translate(4 102)">
<title>CalendarItem::Point</title>
<polygon fill="white" stroke="transparent" points="-4,4 -4,-102 106,-102 106,4 -4,4"/>
<!-- Node1 -->
<g id="node1" class="node">
<title>Node1</title>
<polygon fill="#bfbfbf" stroke="black" points="0,-0.5 0,-19.5 102,-19.5 102,-0.5 0,-0.5"/>
<text text-anchor="middle" x="51" y="-7.5" font-family="Helvetica,sans-Serif" font-size="10.00">CalendarItem::Point</text>
</g>
<!-- Node2 -->
<g id="node2" class="node">
<title>Node2</title>
<g id="a_node2"><a xlink:href="../../d4/db2/structnap_1_1_calendar_item_1_1_time.html" target="_top" xlink:title="Time">
<polygon fill="white" stroke="black" points="32,-78.5 32,-97.5 70,-97.5 70,-78.5 32,-78.5"/>
<text text-anchor="middle" x="51" y="-85.5" font-family="Helvetica,sans-Serif" font-size="10.00">Time</text>
</a>
</g>
</g>
<!-- Node2&#45;&gt;Node1 -->
<g id="edge1" class="edge">
<title>Node2&#45;&gt;Node1</title>
<path fill="none" stroke="#9a32cd" stroke-dasharray="5,2" d="M51,-68.22C51,-52.7 51,-31.36 51,-19.62"/>
<polygon fill="#9a32cd" stroke="#9a32cd" points="47.5,-68.28 51,-78.28 54.5,-68.28 47.5,-68.28"/>
<text text-anchor="middle" x="73.5" y="-52" font-family="Helvetica,sans-Serif" font-size="10.00"> mTime</text>
<text text-anchor="middle" x="73.5" y="-41" font-family="Helvetica,sans-Serif" font-size="10.00">mDuration</text>
</g>
</g>
</svg>
