<?xml version="1.0" encoding="UTF-8" standalone="no"?>
<!DOCTYPE svg PUBLIC "-//W3C//DTD SVG 1.1//EN"
 "http://www.w3.org/Graphics/SVG/1.1/DTD/svg11.dtd">
<!-- Generated by graphviz version 2.43.0 (0)
 -->
<!-- Title: SequencePlayerOutput Pages: 1 -->
<svg width="511pt" height="196pt"
 viewBox="0.00 0.00 511.00 196.00" xmlns="http://www.w3.org/2000/svg" xmlns:xlink="http://www.w3.org/1999/xlink">
<g id="graph0" class="graph" transform="scale(1 1) rotate(0) translate(4 192)">
<title>SequencePlayerOutput</title>
<polygon fill="white" stroke="transparent" points="-4,4 -4,-192 507,-192 507,4 -4,4"/>
<!-- Node1 -->
<g id="node1" class="node">
<title>Node1</title>
<g id="a_node1"><a xlink:title=" ">
<polygon fill="#bfbfbf" stroke="black" points="187.5,-56.5 187.5,-75.5 315.5,-75.5 315.5,-56.5 187.5,-56.5"/>
<text text-anchor="middle" x="251.5" y="-63.5" font-family="Helvetica,sans-Serif" font-size="10.00">SequencePlayerOutput</text>
</a>
</g>
</g>
<!-- Node4 -->
<g id="node4" class="node">
<title>Node4</title>
<g id="a_node4"><a xlink:href="../../d4/d49/classnap_1_1_sequence_player_audio_output.html" target="_top" xlink:title=" ">
<polygon fill="white" stroke="black" points="0,-0.5 0,-19.5 155,-19.5 155,-0.5 0,-0.5"/>
<text text-anchor="middle" x="77.5" y="-7.5" font-family="Helvetica,sans-Serif" font-size="10.00">SequencePlayerAudioOutput</text>
</a>
</g>
</g>
<!-- Node1&#45;&gt;Node4 -->
<g id="edge3" class="edge">
<title>Node1&#45;&gt;Node4</title>
<path fill="none" stroke="midnightblue" d="M214.24,-53.44C181.43,-43.26 134.42,-28.66 104.94,-19.52"/>
<polygon fill="midnightblue" stroke="midnightblue" points="213.34,-56.82 223.93,-56.44 215.42,-50.14 213.34,-56.82"/>
</g>
<!-- Node5 -->
<g id="node5" class="node">
<title>Node5</title>
<g id="a_node5"><a xlink:href="../../d7/d31/classnap_1_1_sequence_player_curve_output.html" target="_top" xlink:title=" ">
<polygon fill="white" stroke="black" points="173.5,-0.5 173.5,-19.5 329.5,-19.5 329.5,-0.5 173.5,-0.5"/>
<text text-anchor="middle" x="251.5" y="-7.5" font-family="Helvetica,sans-Serif" font-size="10.00">SequencePlayerCurveOutput</text>
</a>
</g>
</g>
<!-- Node1&#45;&gt;Node5 -->
<g id="edge4" class="edge">
<title>Node1&#45;&gt;Node5</title>
<path fill="none" stroke="midnightblue" d="M251.5,-45.8C251.5,-36.91 251.5,-26.78 251.5,-19.75"/>
<polygon fill="midnightblue" stroke="midnightblue" points="248,-46.08 251.5,-56.08 255,-46.08 248,-46.08"/>
</g>
<!-- Node6 -->
<g id="node6" class="node">
<title>Node6</title>
<g id="a_node6"><a xlink:href="../../d3/d0d/classnap_1_1_sequence_player_event_output.html" target="_top" xlink:title=" ">
<polygon fill="white" stroke="black" points="348,-0.5 348,-19.5 503,-19.5 503,-0.5 348,-0.5"/>
<text text-anchor="middle" x="425.5" y="-7.5" font-family="Helvetica,sans-Serif" font-size="10.00">SequencePlayerEventOutput</text>
</a>
</g>
</g>
<!-- Node1&#45;&gt;Node6 -->
<g id="edge5" class="edge">
<title>Node1&#45;&gt;Node6</title>
<path fill="none" stroke="midnightblue" d="M288.76,-53.44C321.57,-43.26 368.58,-28.66 398.06,-19.52"/>
<polygon fill="midnightblue" stroke="midnightblue" points="287.58,-50.14 279.07,-56.44 289.66,-56.82 287.58,-50.14"/>
</g>
<!-- Node2 -->
<g id="node2" class="node">
<title>Node2</title>
<g id="a_node2"><a xlink:href="../../d9/dea/classnap_1_1_resource.html" target="_top" xlink:title=" ">
<polygon fill="white" stroke="black" points="220.5,-112.5 220.5,-131.5 282.5,-131.5 282.5,-112.5 220.5,-112.5"/>
<text text-anchor="middle" x="251.5" y="-119.5" font-family="Helvetica,sans-Serif" font-size="10.00">Resource</text>
</a>
</g>
</g>
<!-- Node2&#45;&gt;Node1 -->
<g id="edge1" class="edge">
<title>Node2&#45;&gt;Node1</title>
<path fill="none" stroke="midnightblue" d="M251.5,-101.8C251.5,-92.91 251.5,-82.78 251.5,-75.75"/>
<polygon fill="midnightblue" stroke="midnightblue" points="248,-102.08 251.5,-112.08 255,-102.08 248,-102.08"/>
</g>
<!-- Node3 -->
<g id="node3" class="node">
<title>Node3</title>
<g id="a_node3"><a xlink:href="../../de/d01/classnap_1_1rtti_1_1_object.html" target="_top" xlink:title=" ">
<polygon fill="white" stroke="black" points="227.5,-168.5 227.5,-187.5 275.5,-187.5 275.5,-168.5 227.5,-168.5"/>
<text text-anchor="middle" x="251.5" y="-175.5" font-family="Helvetica,sans-Serif" font-size="10.00">Object</text>
</a>
</g>
</g>
<!-- Node3&#45;&gt;Node2 -->
<g id="edge2" class="edge">
<title>Node3&#45;&gt;Node2</title>
<path fill="none" stroke="midnightblue" d="M251.5,-157.8C251.5,-148.91 251.5,-138.78 251.5,-131.75"/>
<polygon fill="midnightblue" stroke="midnightblue" points="248,-158.08 251.5,-168.08 255,-158.08 248,-158.08"/>
</g>
</g>
</svg>
