<?xml version="1.0" encoding="UTF-8" standalone="no"?>
<!DOCTYPE svg PUBLIC "-//W3C//DTD SVG 1.1//EN"
 "http://www.w3.org/Graphics/SVG/1.1/DTD/svg11.dtd">
<!-- Generated by graphviz version 3.0.0 (20220226.1711)
 -->
<!-- Title: InputComponentInstance Pages: 1 -->
<svg width="543pt" height="116pt"
 viewBox="0.00 0.00 543.00 115.50" xmlns="http://www.w3.org/2000/svg" xmlns:xlink="http://www.w3.org/1999/xlink">
<g id="graph0" class="graph" transform="scale(1 1) rotate(0) translate(4 111.5)">
<title>InputComponentInstance</title>
<polygon fill="white" stroke="transparent" points="-4,4 -4,-111.5 539,-111.5 539,4 -4,4"/>
<!-- Node0 -->
<g id="node1" class="node">
<title>Node0</title>
<polygon fill="#bfbfbf" stroke="black" points="220,-38.5 220,-57.5 344,-57.5 344,-38.5 220,-38.5"/>
<text text-anchor="middle" x="282" y="-45.5" font-family="Helvetica,sans-Serif" font-size="10.00">InputComponentInstance</text>
</g>
<!-- Node3 -->
<g id="node4" class="node">
<title>Node3</title>
<g id="a_node4"><a xlink:href="../../d1/dd4/classnap_1_1_controller_input_component_instance.html" target="_top" xlink:title="ControllerInputComponent\lInstance">
<polygon fill="white" stroke="black" points="393.5,-77 393.5,-107 521.5,-107 521.5,-77 393.5,-77"/>
<text text-anchor="start" x="401.5" y="-95" font-family="Helvetica,sans-Serif" font-size="10.00">ControllerInputComponent</text>
<text text-anchor="middle" x="457.5" y="-84" font-family="Helvetica,sans-Serif" font-size="10.00">Instance</text>
</a>
</g>
</g>
<!-- Node0&#45;&gt;Node3 -->
<g id="edge3" class="edge">
<title>Node0&#45;&gt;Node3</title>
<path fill="none" stroke="midnightblue" d="M330.42,-60.03C351,-65.25 375.33,-71.41 397.09,-76.93"/>
<polygon fill="midnightblue" stroke="midnightblue" points="331.2,-56.61 320.65,-57.55 329.48,-63.4 331.2,-56.61"/>
</g>
<!-- Node4 -->
<g id="node5" class="node">
<title>Node4</title>
<g id="a_node5"><a xlink:href="../../d3/d36/classnap_1_1_key_input_component_instance.html" target="_top" xlink:title="KeyInputComponentInstance">
<polygon fill="white" stroke="black" points="387,-38.5 387,-57.5 528,-57.5 528,-38.5 387,-38.5"/>
<text text-anchor="middle" x="457.5" y="-45.5" font-family="Helvetica,sans-Serif" font-size="10.00">KeyInputComponentInstance</text>
</a>
</g>
</g>
<!-- Node0&#45;&gt;Node4 -->
<g id="edge4" class="edge">
<title>Node0&#45;&gt;Node4</title>
<path fill="none" stroke="midnightblue" d="M354.31,-48C365.01,-48 376.03,-48 386.7,-48"/>
<polygon fill="midnightblue" stroke="midnightblue" points="354.17,-44.5 344.17,-48 354.17,-51.5 354.17,-44.5"/>
</g>
<!-- Node5 -->
<g id="node6" class="node">
<title>Node5</title>
<g id="a_node6"><a xlink:href="../../df/d36/classnap_1_1_pointer_input_component_instance.html" target="_top" xlink:title="PointerInputComponentInstance">
<polygon fill="white" stroke="black" points="380,-0.5 380,-19.5 535,-19.5 535,-0.5 380,-0.5"/>
<text text-anchor="middle" x="457.5" y="-7.5" font-family="Helvetica,sans-Serif" font-size="10.00">PointerInputComponentInstance</text>
</a>
</g>
</g>
<!-- Node0&#45;&gt;Node5 -->
<g id="edge5" class="edge">
<title>Node0&#45;&gt;Node5</title>
<path fill="none" stroke="midnightblue" d="M336.66,-36.25C361.19,-30.87 389.88,-24.59 413.03,-19.52"/>
<polygon fill="midnightblue" stroke="midnightblue" points="335.8,-32.85 326.78,-38.41 337.3,-39.69 335.8,-32.85"/>
</g>
<!-- Node1 -->
<g id="node2" class="node">
<title>Node1</title>
<g id="a_node2"><a xlink:href="../../d9/df2/classnap_1_1_component_instance.html" target="_top" xlink:title="ComponentInstance">
<polygon fill="white" stroke="black" points="81,-38.5 81,-57.5 184,-57.5 184,-38.5 81,-38.5"/>
<text text-anchor="middle" x="132.5" y="-45.5" font-family="Helvetica,sans-Serif" font-size="10.00">ComponentInstance</text>
</a>
</g>
</g>
<!-- Node1&#45;&gt;Node0 -->
<g id="edge1" class="edge">
<title>Node1&#45;&gt;Node0</title>
<path fill="none" stroke="midnightblue" d="M194.41,-48C202.85,-48 211.52,-48 219.96,-48"/>
<polygon fill="midnightblue" stroke="midnightblue" points="194.26,-44.5 184.26,-48 194.26,-51.5 194.26,-44.5"/>
</g>
<!-- Node2 -->
<g id="node3" class="node">
<title>Node2</title>
<g id="a_node3"><a xlink:href="../../de/d01/classnap_1_1rtti_1_1_object.html" target="_top" xlink:title="Object">
<polygon fill="white" stroke="black" points="0,-38.5 0,-57.5 45,-57.5 45,-38.5 0,-38.5"/>
<text text-anchor="middle" x="22.5" y="-45.5" font-family="Helvetica,sans-Serif" font-size="10.00">Object</text>
</a>
</g>
</g>
<!-- Node2&#45;&gt;Node1 -->
<g id="edge2" class="edge">
<title>Node2&#45;&gt;Node1</title>
<path fill="none" stroke="midnightblue" d="M55.17,-48C63.25,-48 72.14,-48 80.9,-48"/>
<polygon fill="midnightblue" stroke="midnightblue" points="55.1,-44.5 45.1,-48 55.1,-51.5 55.1,-44.5"/>
</g>
</g>
</svg>
