<?xml version="1.0" encoding="UTF-8" standalone="no"?>
<!DOCTYPE svg PUBLIC "-//W3C//DTD SVG 1.1//EN"
 "http://www.w3.org/Graphics/SVG/1.1/DTD/svg11.dtd">
<!-- Generated by graphviz version 2.48.0 (20210717.1556)
 -->
<!-- Title: Service Pages: 1 -->
<svg width="225pt" height="1168pt"
 viewBox="0.00 0.00 225.00 1168.00" xmlns="http://www.w3.org/2000/svg" xmlns:xlink="http://www.w3.org/1999/xlink">
<g id="graph0" class="graph" transform="scale(1 1) rotate(0) translate(4 1164)">
<title>Service</title>
<polygon fill="white" stroke="transparent" points="-4,4 -4,-1164 221,-1164 221,4 -4,4"/>
<!-- Node0 -->
<g id="node1" class="node">
<title>Node0</title>
<polygon fill="#bfbfbf" stroke="black" points="0,-570.5 0,-589.5 48,-589.5 48,-570.5 0,-570.5"/>
<text text-anchor="middle" x="24" y="-577.5" font-family="Helvetica,sans-Serif" font-size="10.00">Service</text>
</g>
<!-- Node1 -->
<g id="node2" class="node">
<title>Node1</title>
<g id="a_node2"><a xlink:href="../../de/d73/classnap_1_1_a_p_i_service.html" target="_top" xlink:title="APIService">
<polygon fill="white" stroke="black" points="118.5,-1140.5 118.5,-1159.5 182.5,-1159.5 182.5,-1140.5 118.5,-1140.5"/>
<text text-anchor="middle" x="150.5" y="-1147.5" font-family="Helvetica,sans-Serif" font-size="10.00">APIService</text>
</a>
</g>
</g>
<!-- Node0&#45;&gt;Node1 -->
<g id="edge1" class="edge">
<title>Node0&#45;&gt;Node1</title>
<path fill="none" stroke="midnightblue" d="M25.82,-599.72C29.9,-693.25 49.15,-1089.42 84,-1131 92.44,-1141.07 105.88,-1145.98 118.39,-1148.31"/>
<polygon fill="midnightblue" stroke="midnightblue" points="29.32,-599.48 25.39,-589.64 22.32,-599.78 29.32,-599.48"/>
</g>
<!-- Node2 -->
<g id="node3" class="node">
<title>Node2</title>
<g id="a_node3"><a xlink:href="../../d3/da5/classnap_1_1_a_p_i_web_socket_service.html" target="_top" xlink:title="APIWebSocketService">
<polygon fill="white" stroke="black" points="93,-1102.5 93,-1121.5 208,-1121.5 208,-1102.5 93,-1102.5"/>
<text text-anchor="middle" x="150.5" y="-1109.5" font-family="Helvetica,sans-Serif" font-size="10.00">APIWebSocketService</text>
</a>
</g>
</g>
<!-- Node0&#45;&gt;Node2 -->
<g id="edge2" class="edge">
<title>Node0&#45;&gt;Node2</title>
<path fill="none" stroke="midnightblue" d="M26.01,-600.04C30.7,-690.08 51.58,-1054.62 84,-1093 87.21,-1096.8 91.13,-1099.86 95.44,-1102.33"/>
<polygon fill="midnightblue" stroke="midnightblue" points="29.49,-599.63 25.48,-589.83 22.5,-599.99 29.49,-599.63"/>
</g>
<!-- Node3 -->
<g id="node4" class="node">
<title>Node3</title>
<g id="a_node4"><a xlink:href="../../d0/d4d/classnap_1_1_art_net_service.html" target="_top" xlink:title="ArtNetService">
<polygon fill="white" stroke="black" points="112.5,-1064.5 112.5,-1083.5 188.5,-1083.5 188.5,-1064.5 112.5,-1064.5"/>
<text text-anchor="middle" x="150.5" y="-1071.5" font-family="Helvetica,sans-Serif" font-size="10.00">ArtNetService</text>
</a>
</g>
</g>
<!-- Node0&#45;&gt;Node3 -->
<g id="edge3" class="edge">
<title>Node0&#45;&gt;Node3</title>
<path fill="none" stroke="midnightblue" d="M24.67,-600.15C23.74,-681.55 24.39,-985.09 84,-1055 91.14,-1063.38 101.74,-1068.18 112.34,-1070.89"/>
<polygon fill="midnightblue" stroke="midnightblue" points="28.17,-599.85 24.81,-589.81 21.17,-599.76 28.17,-599.85"/>
</g>
<!-- Node4 -->
<g id="node5" class="node">
<title>Node4</title>
<g id="a_node5"><a xlink:href="../../df/d42/classnap_1_1audio_1_1_audio_service.html" target="_top" xlink:title="AudioService">
<polygon fill="white" stroke="black" points="114,-1026.5 114,-1045.5 187,-1045.5 187,-1026.5 114,-1026.5"/>
<text text-anchor="middle" x="150.5" y="-1033.5" font-family="Helvetica,sans-Serif" font-size="10.00">AudioService</text>
</a>
</g>
</g>
<!-- Node0&#45;&gt;Node4 -->
<g id="edge4" class="edge">
<title>Node0&#45;&gt;Node4</title>
<path fill="none" stroke="midnightblue" d="M24.91,-600C24.97,-677.03 29.09,-953.29 84,-1017 91.5,-1025.7 102.72,-1030.53 113.76,-1033.18"/>
<polygon fill="midnightblue" stroke="midnightblue" points="28.41,-599.78 24.93,-589.77 21.41,-599.77 28.41,-599.78"/>
</g>
<!-- Node5 -->
<g id="node6" class="node">
<title>Node5</title>
<g id="a_node6"><a xlink:href="../../d6/d20/classnap_1_1_c_v_service.html" target="_top" xlink:title="CVService">
<polygon fill="white" stroke="black" points="119.5,-988.5 119.5,-1007.5 181.5,-1007.5 181.5,-988.5 119.5,-988.5"/>
<text text-anchor="middle" x="150.5" y="-995.5" font-family="Helvetica,sans-Serif" font-size="10.00">CVService</text>
</a>
</g>
</g>
<!-- Node0&#45;&gt;Node5 -->
<g id="edge5" class="edge">
<title>Node0&#45;&gt;Node5</title>
<path fill="none" stroke="midnightblue" d="M25.19,-599.64C26.29,-671.86 33.73,-921.41 84,-979 92.8,-989.08 106.59,-993.96 119.26,-996.27"/>
<polygon fill="midnightblue" stroke="midnightblue" points="28.69,-599.59 25.06,-589.63 21.69,-599.68 28.69,-599.59"/>
</g>
<!-- Node6 -->
<g id="node7" class="node">
<title>Node6</title>
<g id="a_node7"><a xlink:href="../../de/df8/classnap_1_1_ether_dream_service.html" target="_top" xlink:title="EtherDreamService">
<polygon fill="white" stroke="black" points="100.5,-950.5 100.5,-969.5 200.5,-969.5 200.5,-950.5 100.5,-950.5"/>
<text text-anchor="middle" x="150.5" y="-957.5" font-family="Helvetica,sans-Serif" font-size="10.00">EtherDreamService</text>
</a>
</g>
</g>
<!-- Node0&#45;&gt;Node6 -->
<g id="edge6" class="edge">
<title>Node0&#45;&gt;Node6</title>
<path fill="none" stroke="midnightblue" d="M25.54,-599.92C27.78,-667.95 38.51,-889.67 84,-941 88.48,-946.05 94.21,-949.79 100.41,-952.56"/>
<polygon fill="midnightblue" stroke="midnightblue" points="29.03,-599.61 25.23,-589.72 22.03,-599.82 29.03,-599.61"/>
</g>
<!-- Node7 -->
<g id="node8" class="node">
<title>Node7</title>
<g id="a_node8"><a xlink:href="../../d7/df5/classnap_1_1_font_service.html" target="_top" xlink:title="FontService">
<polygon fill="white" stroke="black" points="116.5,-912.5 116.5,-931.5 184.5,-931.5 184.5,-912.5 116.5,-912.5"/>
<text text-anchor="middle" x="150.5" y="-919.5" font-family="Helvetica,sans-Serif" font-size="10.00">FontService</text>
</a>
</g>
</g>
<!-- Node0&#45;&gt;Node7 -->
<g id="edge7" class="edge">
<title>Node0&#45;&gt;Node7</title>
<path fill="none" stroke="midnightblue" d="M25.96,-599.84C29.4,-662.99 43.17,-857.8 84,-903 92.25,-912.14 104.61,-916.99 116.38,-919.52"/>
<polygon fill="midnightblue" stroke="midnightblue" points="29.44,-599.45 25.43,-589.65 22.45,-599.81 29.44,-599.45"/>
</g>
<!-- Node8 -->
<g id="node9" class="node">
<title>Node8</title>
<g id="a_node9"><a xlink:href="../../d0/d74/classnap_1_1_i_m_gui_service.html" target="_top" xlink:title="IMGuiService">
<polygon fill="white" stroke="black" points="113.5,-874.5 113.5,-893.5 187.5,-893.5 187.5,-874.5 113.5,-874.5"/>
<text text-anchor="middle" x="150.5" y="-881.5" font-family="Helvetica,sans-Serif" font-size="10.00">IMGuiService</text>
</a>
</g>
</g>
<!-- Node0&#45;&gt;Node8 -->
<g id="edge8" class="edge">
<title>Node0&#45;&gt;Node8</title>
<path fill="none" stroke="midnightblue" d="M26.48,-599.75C31.21,-657.73 47.82,-825.87 84,-865 91.64,-873.26 102.63,-878 113.43,-880.71"/>
<polygon fill="midnightblue" stroke="midnightblue" points="29.96,-599.38 25.69,-589.69 22.98,-599.93 29.96,-599.38"/>
</g>
<!-- Node9 -->
<g id="node10" class="node">
<title>Node9</title>
<g id="a_node10"><a xlink:href="../../d0/d8d/classnap_1_1_input_service.html" target="_top" xlink:title="InputService">
<polygon fill="white" stroke="black" points="116,-836.5 116,-855.5 185,-855.5 185,-836.5 116,-836.5"/>
<text text-anchor="middle" x="150.5" y="-843.5" font-family="Helvetica,sans-Serif" font-size="10.00">InputService</text>
</a>
</g>
</g>
<!-- Node0&#45;&gt;Node9 -->
<g id="edge9" class="edge">
<title>Node0&#45;&gt;Node9</title>
<path fill="none" stroke="midnightblue" d="M27.17,-599.83C33.32,-652.47 52.47,-793.92 84,-827 92.33,-835.74 104.42,-840.53 115.96,-843.14"/>
<polygon fill="midnightblue" stroke="midnightblue" points="30.63,-599.3 26.03,-589.76 23.68,-600.09 30.63,-599.3"/>
</g>
<!-- Node10 -->
<g id="node11" class="node">
<title>Node10</title>
<g id="a_node11"><a xlink:href="../../dd/d65/classnap_1_1_license_service.html" target="_top" xlink:title="LicenseService">
<polygon fill="white" stroke="black" points="109.5,-798.5 109.5,-817.5 191.5,-817.5 191.5,-798.5 109.5,-798.5"/>
<text text-anchor="middle" x="150.5" y="-805.5" font-family="Helvetica,sans-Serif" font-size="10.00">LicenseService</text>
</a>
</g>
</g>
<!-- Node0&#45;&gt;Node10 -->
<g id="edge10" class="edge">
<title>Node0&#45;&gt;Node10</title>
<path fill="none" stroke="midnightblue" d="M24.62,-600.09C24.97,-641.4 31.8,-736.42 84,-789 90.84,-795.89 100.02,-800.32 109.34,-803.15"/>
<polygon fill="midnightblue" stroke="midnightblue" points="28.12,-599.95 24.66,-589.94 21.12,-599.93 28.12,-599.95"/>
</g>
<!-- Node11 -->
<g id="node12" class="node">
<title>Node11</title>
<g id="a_node12"><a xlink:href="../../d3/dfa/classnap_1_1_midi_service.html" target="_top" xlink:title="MidiService">
<polygon fill="white" stroke="black" points="117.5,-760.5 117.5,-779.5 183.5,-779.5 183.5,-760.5 117.5,-760.5"/>
<text text-anchor="middle" x="150.5" y="-767.5" font-family="Helvetica,sans-Serif" font-size="10.00">MidiService</text>
</a>
</g>
</g>
<!-- Node0&#45;&gt;Node11 -->
<g id="edge11" class="edge">
<title>Node0&#45;&gt;Node11</title>
<path fill="none" stroke="midnightblue" d="M26.1,-599.82C29.16,-635.29 40.68,-709.79 84,-751 93.01,-759.57 105.65,-764.3 117.42,-766.91"/>
<polygon fill="midnightblue" stroke="midnightblue" points="29.59,-599.48 25.38,-589.76 22.61,-599.99 29.59,-599.48"/>
</g>
<!-- Node12 -->
<g id="node13" class="node">
<title>Node12</title>
<g id="a_node13"><a xlink:href="../../d9/d55/classnap_1_1_o_s_c_service.html" target="_top" xlink:title="OSCService">
<polygon fill="white" stroke="black" points="116,-722.5 116,-741.5 185,-741.5 185,-722.5 116,-722.5"/>
<text text-anchor="middle" x="150.5" y="-729.5" font-family="Helvetica,sans-Serif" font-size="10.00">OSCService</text>
</a>
</g>
</g>
<!-- Node0&#45;&gt;Node12 -->
<g id="edge12" class="edge">
<title>Node0&#45;&gt;Node12</title>
<path fill="none" stroke="midnightblue" d="M28.36,-599.83C34.33,-628.91 49.56,-682.93 84,-713 92.83,-720.71 104.63,-725.3 115.77,-728.03"/>
<polygon fill="midnightblue" stroke="midnightblue" points="31.74,-598.86 26.45,-589.68 24.86,-600.15 31.74,-598.86"/>
</g>
<!-- Node13 -->
<g id="node14" class="node">
<title>Node13</title>
<g id="a_node14"><a xlink:href="../../d5/d8d/classnap_1_1_parameter_g_u_i_service.html" target="_top" xlink:title="ParameterGUIService">
<polygon fill="white" stroke="black" points="95.5,-684.5 95.5,-703.5 205.5,-703.5 205.5,-684.5 95.5,-684.5"/>
<text text-anchor="middle" x="150.5" y="-691.5" font-family="Helvetica,sans-Serif" font-size="10.00">ParameterGUIService</text>
</a>
</g>
</g>
<!-- Node0&#45;&gt;Node13 -->
<g id="edge13" class="edge">
<title>Node0&#45;&gt;Node13</title>
<path fill="none" stroke="midnightblue" d="M31.97,-599.14C40.81,-620.71 58.07,-655.34 84,-675 89.1,-678.86 94.96,-681.94 101.03,-684.39"/>
<polygon fill="midnightblue" stroke="midnightblue" points="35.2,-597.77 28.31,-589.72 28.67,-600.3 35.2,-597.77"/>
</g>
<!-- Node14 -->
<g id="node15" class="node">
<title>Node14</title>
<g id="a_node15"><a xlink:href="../../d9/df7/classnap_1_1_parameter_service.html" target="_top" xlink:title="ParameterService">
<polygon fill="white" stroke="black" points="104,-646.5 104,-665.5 197,-665.5 197,-646.5 104,-646.5"/>
<text text-anchor="middle" x="150.5" y="-653.5" font-family="Helvetica,sans-Serif" font-size="10.00">ParameterService</text>
</a>
</g>
</g>
<!-- Node0&#45;&gt;Node14 -->
<g id="edge14" class="edge">
<title>Node0&#45;&gt;Node14</title>
<path fill="none" stroke="midnightblue" d="M39.04,-597.54C50.03,-610.2 66.38,-626.79 84,-637 90.66,-640.86 98.16,-643.98 105.64,-646.5"/>
<polygon fill="midnightblue" stroke="midnightblue" points="41.44,-594.96 32.33,-589.54 36.07,-599.45 41.44,-594.96"/>
</g>
<!-- Node15 -->
<g id="node16" class="node">
<title>Node15</title>
<g id="a_node16"><a xlink:href="../../d5/d71/classnap_1_1pipins_1_1_gpio_service.html" target="_top" xlink:title="GpioService">
<polygon fill="white" stroke="black" points="116.5,-608.5 116.5,-627.5 184.5,-627.5 184.5,-608.5 116.5,-608.5"/>
<text text-anchor="middle" x="150.5" y="-615.5" font-family="Helvetica,sans-Serif" font-size="10.00">GpioService</text>
</a>
</g>
</g>
<!-- Node0&#45;&gt;Node15 -->
<g id="edge15" class="edge">
<title>Node0&#45;&gt;Node15</title>
<path fill="none" stroke="midnightblue" d="M57.82,-590.76C66.33,-593.49 75.49,-596.4 84,-599 94.53,-602.22 106.05,-605.61 116.46,-608.62"/>
<polygon fill="midnightblue" stroke="midnightblue" points="58.8,-587.4 48.21,-587.65 56.65,-594.06 58.8,-587.4"/>
</g>
<!-- Node16 -->
<g id="node17" class="node">
<title>Node16</title>
<g id="a_node17"><a xlink:href="../../d5/d0f/classnap_1_1_portal_service.html" target="_top" xlink:title="PortalService">
<polygon fill="white" stroke="black" points="113.5,-570.5 113.5,-589.5 187.5,-589.5 187.5,-570.5 113.5,-570.5"/>
<text text-anchor="middle" x="150.5" y="-577.5" font-family="Helvetica,sans-Serif" font-size="10.00">PortalService</text>
</a>
</g>
</g>
<!-- Node0&#45;&gt;Node16 -->
<g id="edge16" class="edge">
<title>Node0&#45;&gt;Node16</title>
<path fill="none" stroke="midnightblue" d="M58.16,-580C75.15,-580 95.88,-580 113.29,-580"/>
<polygon fill="midnightblue" stroke="midnightblue" points="58.13,-576.5 48.13,-580 58.13,-583.5 58.13,-576.5"/>
</g>
<!-- Node17 -->
<g id="node18" class="node">
<title>Node17</title>
<g id="a_node18"><a xlink:href="../../d4/d74/classnap_1_1_python_script_service.html" target="_top" xlink:title="PythonScriptService">
<polygon fill="white" stroke="black" points="98.5,-532.5 98.5,-551.5 202.5,-551.5 202.5,-532.5 98.5,-532.5"/>
<text text-anchor="middle" x="150.5" y="-539.5" font-family="Helvetica,sans-Serif" font-size="10.00">PythonScriptService</text>
</a>
</g>
</g>
<!-- Node0&#45;&gt;Node17 -->
<g id="edge17" class="edge">
<title>Node0&#45;&gt;Node17</title>
<path fill="none" stroke="midnightblue" d="M57.82,-569.24C66.33,-566.51 75.49,-563.6 84,-561 94.3,-557.85 105.56,-554.54 115.79,-551.58"/>
<polygon fill="midnightblue" stroke="midnightblue" points="56.65,-565.94 48.21,-572.35 58.8,-572.6 56.65,-565.94"/>
</g>
<!-- Node18 -->
<g id="node19" class="node">
<title>Node18</title>
<g id="a_node19"><a xlink:href="../../d5/dc6/classnap_1_1_render_service.html" target="_top" xlink:title="RenderService">
<polygon fill="white" stroke="black" points="111,-494.5 111,-513.5 190,-513.5 190,-494.5 111,-494.5"/>
<text text-anchor="middle" x="150.5" y="-501.5" font-family="Helvetica,sans-Serif" font-size="10.00">RenderService</text>
</a>
</g>
</g>
<!-- Node0&#45;&gt;Node18 -->
<g id="edge18" class="edge">
<title>Node0&#45;&gt;Node18</title>
<path fill="none" stroke="midnightblue" d="M39.04,-562.46C50.03,-549.8 66.38,-533.21 84,-523 92.2,-518.25 101.67,-514.61 110.81,-511.86"/>
<polygon fill="midnightblue" stroke="midnightblue" points="36.07,-560.55 32.33,-570.46 41.44,-565.04 36.07,-560.55"/>
</g>
<!-- Node19 -->
<g id="node20" class="node">
<title>Node19</title>
<g id="a_node20"><a xlink:href="../../dc/db5/classnap_1_1_scene_service.html" target="_top" xlink:title="SceneService">
<polygon fill="white" stroke="black" points="112.5,-456.5 112.5,-475.5 188.5,-475.5 188.5,-456.5 112.5,-456.5"/>
<text text-anchor="middle" x="150.5" y="-463.5" font-family="Helvetica,sans-Serif" font-size="10.00">SceneService</text>
</a>
</g>
</g>
<!-- Node0&#45;&gt;Node19 -->
<g id="edge19" class="edge">
<title>Node0&#45;&gt;Node19</title>
<path fill="none" stroke="midnightblue" d="M31.97,-560.86C40.81,-539.29 58.07,-504.66 84,-485 92.21,-478.78 102.4,-474.59 112.29,-471.77"/>
<polygon fill="midnightblue" stroke="midnightblue" points="28.67,-559.7 28.31,-570.28 35.2,-562.23 28.67,-559.7"/>
</g>
<!-- Node20 -->
<g id="node21" class="node">
<title>Node20</title>
<g id="a_node21"><a xlink:href="../../dc/dbc/classnap_1_1_s_d_l_input_service.html" target="_top" xlink:title="SDLInputService">
<polygon fill="white" stroke="black" points="106.5,-418.5 106.5,-437.5 194.5,-437.5 194.5,-418.5 106.5,-418.5"/>
<text text-anchor="middle" x="150.5" y="-425.5" font-family="Helvetica,sans-Serif" font-size="10.00">SDLInputService</text>
</a>
</g>
</g>
<!-- Node0&#45;&gt;Node20 -->
<g id="edge20" class="edge">
<title>Node0&#45;&gt;Node20</title>
<path fill="none" stroke="midnightblue" d="M28.36,-560.17C34.33,-531.09 49.56,-477.07 84,-447 90.33,-441.47 98.19,-437.55 106.24,-434.76"/>
<polygon fill="midnightblue" stroke="midnightblue" points="24.86,-559.85 26.45,-570.32 31.74,-561.14 24.86,-559.85"/>
</g>
<!-- Node21 -->
<g id="node22" class="node">
<title>Node21</title>
<g id="a_node22"><a xlink:href="../../dc/dd3/classnap_1_1_sequence_audio_g_u_i_service.html" target="_top" xlink:title="SequenceAudioGUIService">
<polygon fill="white" stroke="black" points="84,-380.5 84,-399.5 217,-399.5 217,-380.5 84,-380.5"/>
<text text-anchor="middle" x="150.5" y="-387.5" font-family="Helvetica,sans-Serif" font-size="10.00">SequenceAudioGUIService</text>
</a>
</g>
</g>
<!-- Node0&#45;&gt;Node21 -->
<g id="edge21" class="edge">
<title>Node0&#45;&gt;Node21</title>
<path fill="none" stroke="midnightblue" d="M26.1,-560.18C29.16,-524.71 40.68,-450.21 84,-409 88.03,-405.16 92.79,-402.1 97.87,-399.64"/>
<polygon fill="midnightblue" stroke="midnightblue" points="22.61,-560.01 25.38,-570.24 29.59,-560.52 22.61,-560.01"/>
</g>
<!-- Node22 -->
<g id="node23" class="node">
<title>Node22</title>
<g id="a_node23"><a xlink:href="../../d0/d0a/classnap_1_1_sequence_g_u_i_service.html" target="_top" xlink:title="SequenceGUIService">
<polygon fill="white" stroke="black" points="96.5,-342.5 96.5,-361.5 204.5,-361.5 204.5,-342.5 96.5,-342.5"/>
<text text-anchor="middle" x="150.5" y="-349.5" font-family="Helvetica,sans-Serif" font-size="10.00">SequenceGUIService</text>
</a>
</g>
</g>
<!-- Node0&#45;&gt;Node22 -->
<g id="edge22" class="edge">
<title>Node0&#45;&gt;Node22</title>
<path fill="none" stroke="midnightblue" d="M24.62,-559.91C24.97,-518.6 31.8,-423.58 84,-371 87.84,-367.13 92.41,-364.05 97.33,-361.58"/>
<polygon fill="midnightblue" stroke="midnightblue" points="21.12,-560.07 24.66,-570.06 28.12,-560.05 21.12,-560.07"/>
</g>
<!-- Node23 -->
<g id="node24" class="node">
<title>Node23</title>
<g id="a_node24"><a xlink:href="../../df/dbe/classnap_1_1_sequence_service.html" target="_top" xlink:title="SequenceService">
<polygon fill="white" stroke="black" points="104.5,-304.5 104.5,-323.5 196.5,-323.5 196.5,-304.5 104.5,-304.5"/>
<text text-anchor="middle" x="150.5" y="-311.5" font-family="Helvetica,sans-Serif" font-size="10.00">SequenceService</text>
</a>
</g>
</g>
<!-- Node0&#45;&gt;Node23 -->
<g id="edge23" class="edge">
<title>Node0&#45;&gt;Node23</title>
<path fill="none" stroke="midnightblue" d="M27.17,-560.17C33.32,-507.53 52.47,-366.08 84,-333 89.56,-327.17 96.78,-323.1 104.4,-320.26"/>
<polygon fill="midnightblue" stroke="midnightblue" points="23.68,-559.91 26.03,-570.24 30.63,-560.7 23.68,-559.91"/>
</g>
<!-- Node24 -->
<g id="node25" class="node">
<title>Node24</title>
<g id="a_node25"><a xlink:href="../../d4/d59/classnap_1_1_sequence_service_audio.html" target="_top" xlink:title="SequenceServiceAudio">
<polygon fill="white" stroke="black" points="92.5,-266.5 92.5,-285.5 208.5,-285.5 208.5,-266.5 92.5,-266.5"/>
<text text-anchor="middle" x="150.5" y="-273.5" font-family="Helvetica,sans-Serif" font-size="10.00">SequenceServiceAudio</text>
</a>
</g>
</g>
<!-- Node0&#45;&gt;Node24 -->
<g id="edge24" class="edge">
<title>Node0&#45;&gt;Node24</title>
<path fill="none" stroke="midnightblue" d="M26.48,-560.25C31.21,-502.27 47.82,-334.13 84,-295 87.54,-291.17 91.79,-288.1 96.42,-285.64"/>
<polygon fill="midnightblue" stroke="midnightblue" points="22.98,-560.07 25.69,-570.31 29.96,-560.62 22.98,-560.07"/>
</g>
<!-- Node25 -->
<g id="node26" class="node">
<title>Node25</title>
<g id="a_node26"><a xlink:href="../../d2/d43/classnap_1_1_serial_service.html" target="_top" xlink:title="SerialService">
<polygon fill="white" stroke="black" points="114,-228.5 114,-247.5 187,-247.5 187,-228.5 114,-228.5"/>
<text text-anchor="middle" x="150.5" y="-235.5" font-family="Helvetica,sans-Serif" font-size="10.00">SerialService</text>
</a>
</g>
</g>
<!-- Node0&#45;&gt;Node25 -->
<g id="edge25" class="edge">
<title>Node0&#45;&gt;Node25</title>
<path fill="none" stroke="midnightblue" d="M25.96,-560.16C29.4,-497.01 43.17,-302.2 84,-257 91.7,-248.48 102.97,-243.68 113.99,-241.02"/>
<polygon fill="midnightblue" stroke="midnightblue" points="22.45,-560.19 25.43,-570.35 29.44,-560.55 22.45,-560.19"/>
</g>
<!-- Node26 -->
<g id="node27" class="node">
<title>Node26</title>
<g id="a_node27"><a xlink:href="../../dd/d0c/classnap_1_1_s_o_e_m_service.html" target="_top" xlink:title="SOEMService">
<polygon fill="white" stroke="black" points="112,-190.5 112,-209.5 189,-209.5 189,-190.5 112,-190.5"/>
<text text-anchor="middle" x="150.5" y="-197.5" font-family="Helvetica,sans-Serif" font-size="10.00">SOEMService</text>
</a>
</g>
</g>
<!-- Node0&#45;&gt;Node26 -->
<g id="edge26" class="edge">
<title>Node0&#45;&gt;Node26</title>
<path fill="none" stroke="midnightblue" d="M25.54,-560.08C27.78,-492.05 38.51,-270.33 84,-219 91.15,-210.94 101.49,-206.21 111.85,-203.46"/>
<polygon fill="midnightblue" stroke="midnightblue" points="22.03,-560.18 25.23,-570.28 29.03,-560.39 22.03,-560.18"/>
</g>
<!-- Node27 -->
<g id="node28" class="node">
<title>Node27</title>
<g id="a_node28"><a xlink:href="../../d7/d05/classnap_1_1_tween_service.html" target="_top" xlink:title="TweenService">
<polygon fill="white" stroke="black" points="112.5,-152.5 112.5,-171.5 188.5,-171.5 188.5,-152.5 112.5,-152.5"/>
<text text-anchor="middle" x="150.5" y="-159.5" font-family="Helvetica,sans-Serif" font-size="10.00">TweenService</text>
</a>
</g>
</g>
<!-- Node0&#45;&gt;Node27 -->
<g id="edge27" class="edge">
<title>Node0&#45;&gt;Node27</title>
<path fill="none" stroke="midnightblue" d="M25.19,-560.36C26.29,-488.14 33.73,-238.59 84,-181 91.24,-172.7 101.87,-167.93 112.46,-165.21"/>
<polygon fill="midnightblue" stroke="midnightblue" points="21.69,-560.32 25.06,-570.37 28.69,-560.41 21.69,-560.32"/>
</g>
<!-- Node28 -->
<g id="node29" class="node">
<title>Node28</title>
<g id="a_node29"><a xlink:href="../../dc/dc3/classnap_1_1_u_d_p_service.html" target="_top" xlink:title="UDPService">
<polygon fill="white" stroke="black" points="116.5,-114.5 116.5,-133.5 184.5,-133.5 184.5,-114.5 116.5,-114.5"/>
<text text-anchor="middle" x="150.5" y="-121.5" font-family="Helvetica,sans-Serif" font-size="10.00">UDPService</text>
</a>
</g>
</g>
<!-- Node0&#45;&gt;Node28 -->
<g id="edge28" class="edge">
<title>Node0&#45;&gt;Node28</title>
<path fill="none" stroke="midnightblue" d="M24.91,-560C24.97,-482.97 29.09,-206.71 84,-143 92.12,-133.58 104.59,-128.69 116.49,-126.2"/>
<polygon fill="midnightblue" stroke="midnightblue" points="21.41,-560.23 24.93,-570.23 28.41,-560.22 21.41,-560.23"/>
</g>
<!-- Node29 -->
<g id="node30" class="node">
<title>Node29</title>
<g id="a_node30"><a xlink:href="../../d4/dcd/classnap_1_1_video_service.html" target="_top" xlink:title="VideoService">
<polygon fill="white" stroke="black" points="114,-76.5 114,-95.5 187,-95.5 187,-76.5 114,-76.5"/>
<text text-anchor="middle" x="150.5" y="-83.5" font-family="Helvetica,sans-Serif" font-size="10.00">VideoService</text>
</a>
</g>
</g>
<!-- Node0&#45;&gt;Node29 -->
<g id="edge29" class="edge">
<title>Node0&#45;&gt;Node29</title>
<path fill="none" stroke="midnightblue" d="M24.67,-559.85C23.74,-478.45 24.39,-174.91 84,-105 91.45,-96.26 102.66,-91.42 113.71,-88.77"/>
<polygon fill="midnightblue" stroke="midnightblue" points="21.17,-560.24 24.81,-570.19 28.17,-560.15 21.17,-560.24"/>
</g>
<!-- Node30 -->
<g id="node31" class="node">
<title>Node30</title>
<g id="a_node31"><a xlink:href="../../dd/d2f/classnap_1_1_web_socket_service.html" target="_top" xlink:title="WebSocketService">
<polygon fill="white" stroke="black" points="101,-38.5 101,-57.5 200,-57.5 200,-38.5 101,-38.5"/>
<text text-anchor="middle" x="150.5" y="-45.5" font-family="Helvetica,sans-Serif" font-size="10.00">WebSocketService</text>
</a>
</g>
</g>
<!-- Node0&#45;&gt;Node30 -->
<g id="edge30" class="edge">
<title>Node0&#45;&gt;Node30</title>
<path fill="none" stroke="midnightblue" d="M26.01,-559.96C30.7,-469.92 51.58,-105.38 84,-67 88.51,-61.66 94.42,-57.78 100.84,-54.96"/>
<polygon fill="midnightblue" stroke="midnightblue" points="22.5,-560.01 25.48,-570.17 29.49,-560.37 22.5,-560.01"/>
</g>
<!-- Node31 -->
<g id="node32" class="node">
<title>Node31</title>
<g id="a_node32"><a xlink:href="../../d7/d55/classnap_1_1_yocto_service.html" target="_top" xlink:title="YoctoService">
<polygon fill="white" stroke="black" points="113.5,-0.5 113.5,-19.5 187.5,-19.5 187.5,-0.5 113.5,-0.5"/>
<text text-anchor="middle" x="150.5" y="-7.5" font-family="Helvetica,sans-Serif" font-size="10.00">YoctoService</text>
</a>
</g>
</g>
<!-- Node0&#45;&gt;Node31 -->
<g id="edge31" class="edge">
<title>Node0&#45;&gt;Node31</title>
<path fill="none" stroke="midnightblue" d="M25.82,-560.28C29.9,-466.75 49.15,-70.58 84,-29 91.3,-20.29 102.34,-15.44 113.28,-12.78"/>
<polygon fill="midnightblue" stroke="midnightblue" points="22.32,-560.22 25.39,-570.36 29.32,-560.52 22.32,-560.22"/>
</g>
</g>
</svg>
