<?xml version="1.0" encoding="UTF-8" standalone="no"?>
<!DOCTYPE svg PUBLIC "-//W3C//DTD SVG 1.1//EN"
 "http://www.w3.org/Graphics/SVG/1.1/DTD/svg11.dtd">
<!-- Generated by graphviz version 2.43.0 (0)
 -->
<!-- Title: ComputeShaderFromFile Pages: 1 -->
<svg width="342pt" height="287pt"
 viewBox="0.00 0.00 341.50 287.00" xmlns="http://www.w3.org/2000/svg" xmlns:xlink="http://www.w3.org/1999/xlink">
<g id="graph0" class="graph" transform="scale(1 1) rotate(0) translate(4 283)">
<title>ComputeShaderFromFile</title>
<polygon fill="white" stroke="transparent" points="-4,4 -4,-283 337.5,-283 337.5,4 -4,4"/>
<!-- Node1 -->
<g id="node1" class="node">
<title>Node1</title>
<g id="a_node1"><a xlink:title=" ">
<polygon fill="#bfbfbf" stroke="black" points="8.5,-0.5 8.5,-19.5 145.5,-19.5 145.5,-0.5 8.5,-0.5"/>
<text text-anchor="middle" x="77" y="-7.5" font-family="Helvetica,sans-Serif" font-size="10.00">ComputeShaderFromFile</text>
</a>
</g>
</g>
<!-- Node2 -->
<g id="node2" class="node">
<title>Node2</title>
<g id="a_node2"><a xlink:href="../../d5/d73/classnap_1_1_compute_shader.html" target="_top" xlink:title=" ">
<polygon fill="white" stroke="black" points="29.5,-57.5 29.5,-76.5 124.5,-76.5 124.5,-57.5 29.5,-57.5"/>
<text text-anchor="middle" x="77" y="-64.5" font-family="Helvetica,sans-Serif" font-size="10.00">ComputeShader</text>
</a>
</g>
</g>
<!-- Node2&#45;&gt;Node1 -->
<g id="edge1" class="edge">
<title>Node2&#45;&gt;Node1</title>
<path fill="none" stroke="midnightblue" d="M77,-47.12C77,-37.82 77,-27.06 77,-19.71"/>
<polygon fill="midnightblue" stroke="midnightblue" points="73.5,-47.41 77,-57.41 80.5,-47.41 73.5,-47.41"/>
</g>
<!-- Node3 -->
<g id="node3" class="node">
<title>Node3</title>
<g id="a_node3"><a xlink:href="../../d4/dd0/classnap_1_1_base_shader.html" target="_top" xlink:title=" ">
<polygon fill="white" stroke="black" points="40,-114.5 40,-133.5 114,-133.5 114,-114.5 40,-114.5"/>
<text text-anchor="middle" x="77" y="-121.5" font-family="Helvetica,sans-Serif" font-size="10.00">BaseShader</text>
</a>
</g>
</g>
<!-- Node3&#45;&gt;Node2 -->
<g id="edge2" class="edge">
<title>Node3&#45;&gt;Node2</title>
<path fill="none" stroke="midnightblue" d="M77,-104.12C77,-94.82 77,-84.06 77,-76.71"/>
<polygon fill="midnightblue" stroke="midnightblue" points="73.5,-104.41 77,-114.41 80.5,-104.41 73.5,-104.41"/>
</g>
<!-- Node4 -->
<g id="node4" class="node">
<title>Node4</title>
<g id="a_node4"><a xlink:href="../../d9/dea/classnap_1_1_resource.html" target="_top" xlink:title=" ">
<polygon fill="white" stroke="black" points="0,-181.5 0,-200.5 62,-200.5 62,-181.5 0,-181.5"/>
<text text-anchor="middle" x="31" y="-188.5" font-family="Helvetica,sans-Serif" font-size="10.00">Resource</text>
</a>
</g>
</g>
<!-- Node4&#45;&gt;Node3 -->
<g id="edge3" class="edge">
<title>Node4&#45;&gt;Node3</title>
<path fill="none" stroke="midnightblue" d="M43.1,-172.9C52.04,-160.27 63.83,-143.6 70.89,-133.63"/>
<polygon fill="midnightblue" stroke="midnightblue" points="40.12,-171.05 37.2,-181.23 45.84,-175.09 40.12,-171.05"/>
</g>
<!-- Node5 -->
<g id="node5" class="node">
<title>Node5</title>
<g id="a_node5"><a xlink:href="../../de/d01/classnap_1_1rtti_1_1_object.html" target="_top" xlink:title=" ">
<polygon fill="white" stroke="black" points="7,-259.5 7,-278.5 55,-278.5 55,-259.5 7,-259.5"/>
<text text-anchor="middle" x="31" y="-266.5" font-family="Helvetica,sans-Serif" font-size="10.00">Object</text>
</a>
</g>
</g>
<!-- Node5&#45;&gt;Node4 -->
<g id="edge4" class="edge">
<title>Node5&#45;&gt;Node4</title>
<path fill="none" stroke="midnightblue" d="M31,-249.22C31,-233.7 31,-212.36 31,-200.62"/>
<polygon fill="midnightblue" stroke="midnightblue" points="27.5,-249.28 31,-259.28 34.5,-249.28 27.5,-249.28"/>
</g>
<!-- Node6 -->
<g id="node6" class="node">
<title>Node6</title>
<g id="a_node6"><a xlink:href="../../d5/dc6/classnap_1_1_render_service.html" target="_top" xlink:title=" ">
<polygon fill="white" stroke="black" points="80.5,-181.5 80.5,-200.5 167.5,-200.5 167.5,-181.5 80.5,-181.5"/>
<text text-anchor="middle" x="124" y="-188.5" font-family="Helvetica,sans-Serif" font-size="10.00">RenderService</text>
</a>
</g>
</g>
<!-- Node6&#45;&gt;Node3 -->
<g id="edge5" class="edge">
<title>Node6&#45;&gt;Node3</title>
<path fill="none" stroke="#9a32cd" stroke-dasharray="5,2" d="M111.64,-172.9C102.51,-160.27 90.45,-143.6 83.24,-133.63"/>
<polygon fill="#9a32cd" stroke="#9a32cd" points="108.97,-175.18 117.66,-181.23 114.64,-171.08 108.97,-175.18"/>
<text text-anchor="middle" x="146" y="-155" font-family="Helvetica,sans-Serif" font-size="10.00"> mRenderService</text>
</g>
<!-- Node7 -->
<g id="node7" class="node">
<title>Node7</title>
<g id="a_node7"><a xlink:href="../../d8/d8e/classnap_1_1_service.html" target="_top" xlink:title=" ">
<polygon fill="white" stroke="black" points="85.5,-259.5 85.5,-278.5 138.5,-278.5 138.5,-259.5 85.5,-259.5"/>
<text text-anchor="middle" x="112" y="-266.5" font-family="Helvetica,sans-Serif" font-size="10.00">Service</text>
</a>
</g>
</g>
<!-- Node7&#45;&gt;Node6 -->
<g id="edge6" class="edge">
<title>Node7&#45;&gt;Node6</title>
<path fill="none" stroke="midnightblue" d="M114.96,-249.22C117.42,-233.7 120.79,-212.36 122.64,-200.62"/>
<polygon fill="midnightblue" stroke="midnightblue" points="111.48,-248.86 113.38,-259.28 118.39,-249.95 111.48,-248.86"/>
</g>
<!-- Node8 -->
<g id="node8" class="node">
<title>Node8</title>
<g id="a_node8"><a xlink:href="../../de/d80/classnap_1_1_signal.html" target="_top" xlink:title=" ">
<polygon fill="white" stroke="black" points="156.5,-259.5 156.5,-278.5 333.5,-278.5 333.5,-259.5 156.5,-259.5"/>
<text text-anchor="middle" x="245" y="-266.5" font-family="Helvetica,sans-Serif" font-size="10.00">Signal&lt; nap::RenderWindow &amp; &gt;</text>
</a>
</g>
</g>
<!-- Node8&#45;&gt;Node6 -->
<g id="edge7" class="edge">
<title>Node8&#45;&gt;Node6</title>
<path fill="none" stroke="#9a32cd" stroke-dasharray="5,2" d="M222.35,-253.77C197.47,-238.15 158.32,-213.56 137.72,-200.62"/>
<polygon fill="#9a32cd" stroke="#9a32cd" points="220.79,-256.93 231.12,-259.28 224.51,-251 220.79,-256.93"/>
<text text-anchor="middle" x="243" y="-233" font-family="Helvetica,sans-Serif" font-size="10.00"> windowRemoved</text>
<text text-anchor="middle" x="243" y="-222" font-family="Helvetica,sans-Serif" font-size="10.00">windowAdded</text>
</g>
</g>
</svg>
