<?xml version="1.0" encoding="UTF-8" standalone="no"?>
<!DOCTYPE svg PUBLIC "-//W3C//DTD SVG 1.1//EN"
 "http://www.w3.org/Graphics/SVG/1.1/DTD/svg11.dtd">
<!-- Generated by graphviz version 2.43.0 (0)
 -->
<!-- Title: RenderToTextureComponent Pages: 1 -->
<svg width="1084pt" height="172pt"
 viewBox="0.00 0.00 1084.00 172.00" xmlns="http://www.w3.org/2000/svg" xmlns:xlink="http://www.w3.org/1999/xlink">
<g id="graph0" class="graph" transform="scale(1 1) rotate(0) translate(4 168)">
<title>RenderToTextureComponent</title>
<polygon fill="white" stroke="transparent" points="-4,4 -4,-168 1080,-168 1080,4 -4,4"/>
<!-- Node1 -->
<g id="node1" class="node">
<title>Node1</title>
<g id="a_node1"><a xlink:title=" ">
<polygon fill="#bfbfbf" stroke="black" points="922,-87.5 922,-106.5 1076,-106.5 1076,-87.5 922,-87.5"/>
<text text-anchor="middle" x="999" y="-94.5" font-family="Helvetica,sans-Serif" font-size="10.00">RenderToTextureComponent</text>
</a>
</g>
</g>
<!-- Node2 -->
<g id="node2" class="node">
<title>Node2</title>
<g id="a_node2"><a xlink:href="../../d1/d2c/classnap_1_1_renderable_component.html" target="_top" xlink:title=" ">
<polygon fill="white" stroke="black" points="610.5,-144.5 610.5,-163.5 738.5,-163.5 738.5,-144.5 610.5,-144.5"/>
<text text-anchor="middle" x="674.5" y="-151.5" font-family="Helvetica,sans-Serif" font-size="10.00">RenderableComponent</text>
</a>
</g>
</g>
<!-- Node2&#45;&gt;Node1 -->
<g id="edge1" class="edge">
<title>Node2&#45;&gt;Node1</title>
<path fill="none" stroke="midnightblue" d="M748.5,-147.8C793.62,-143.21 852.53,-135.86 904,-125 926.66,-120.22 951.77,-112.62 970.34,-106.54"/>
<polygon fill="midnightblue" stroke="midnightblue" points="748.12,-144.32 738.52,-148.79 748.81,-151.29 748.12,-144.32"/>
</g>
<!-- Node3 -->
<g id="node3" class="node">
<title>Node3</title>
<g id="a_node3"><a xlink:href="../../db/d6b/classnap_1_1_component.html" target="_top" xlink:title=" ">
<polygon fill="white" stroke="black" points="255,-144.5 255,-163.5 328,-163.5 328,-144.5 255,-144.5"/>
<text text-anchor="middle" x="291.5" y="-151.5" font-family="Helvetica,sans-Serif" font-size="10.00">Component</text>
</a>
</g>
</g>
<!-- Node3&#45;&gt;Node2 -->
<g id="edge2" class="edge">
<title>Node3&#45;&gt;Node2</title>
<path fill="none" stroke="midnightblue" d="M338.37,-154C406.25,-154 533.68,-154 610.35,-154"/>
<polygon fill="midnightblue" stroke="midnightblue" points="338,-150.5 328,-154 338,-157.5 338,-150.5"/>
</g>
<!-- Node4 -->
<g id="node4" class="node">
<title>Node4</title>
<g id="a_node4"><a xlink:href="../../d9/dea/classnap_1_1_resource.html" target="_top" xlink:title=" ">
<polygon fill="white" stroke="black" points="97,-144.5 97,-163.5 159,-163.5 159,-144.5 97,-144.5"/>
<text text-anchor="middle" x="128" y="-151.5" font-family="Helvetica,sans-Serif" font-size="10.00">Resource</text>
</a>
</g>
</g>
<!-- Node4&#45;&gt;Node3 -->
<g id="edge3" class="edge">
<title>Node4&#45;&gt;Node3</title>
<path fill="none" stroke="midnightblue" d="M169.4,-154C195.68,-154 229.64,-154 254.91,-154"/>
<polygon fill="midnightblue" stroke="midnightblue" points="169.38,-150.5 159.38,-154 169.38,-157.5 169.38,-150.5"/>
</g>
<!-- Node5 -->
<g id="node5" class="node">
<title>Node5</title>
<g id="a_node5"><a xlink:href="../../de/d01/classnap_1_1rtti_1_1_object.html" target="_top" xlink:title=" ">
<polygon fill="white" stroke="black" points="0,-144.5 0,-163.5 48,-163.5 48,-144.5 0,-144.5"/>
<text text-anchor="middle" x="24" y="-151.5" font-family="Helvetica,sans-Serif" font-size="10.00">Object</text>
</a>
</g>
</g>
<!-- Node5&#45;&gt;Node4 -->
<g id="edge4" class="edge">
<title>Node5&#45;&gt;Node4</title>
<path fill="none" stroke="midnightblue" d="M58.17,-154C70.66,-154 84.79,-154 96.97,-154"/>
<polygon fill="midnightblue" stroke="midnightblue" points="58.15,-150.5 48.15,-154 58.15,-157.5 58.15,-150.5"/>
</g>
<!-- Node6 -->
<g id="node6" class="node">
<title>Node6</title>
<g id="a_node6"><a xlink:href="../../d6/db8/classnap_1_1_r_g_b_a_color.html" target="_top" xlink:title=" ">
<polygon fill="white" stroke="black" points="616,-106.5 616,-125.5 733,-125.5 733,-106.5 616,-106.5"/>
<text text-anchor="middle" x="674.5" y="-113.5" font-family="Helvetica,sans-Serif" font-size="10.00">RGBAColor&lt; uint8 &gt;</text>
</a>
</g>
</g>
<!-- Node6&#45;&gt;Node1 -->
<g id="edge5" class="edge">
<title>Node6&#45;&gt;Node1</title>
<path fill="none" stroke="#9a32cd" stroke-dasharray="5,2" d="M743.31,-112C795.48,-108.93 867.57,-104.68 921.74,-101.49"/>
<polygon fill="#9a32cd" stroke="#9a32cd" points="742.93,-108.52 733.16,-112.6 743.35,-115.51 742.93,-108.52"/>
<text text-anchor="middle" x="834" y="-113" font-family="Helvetica,sans-Serif" font-size="10.00"> mClearColor</text>
</g>
<!-- Node7 -->
<g id="node7" class="node">
<title>Node7</title>
<g id="a_node7"><a xlink:href="../../d6/d3d/classnap_1_1_color.html" target="_top" xlink:title=" ">
<polygon fill="white" stroke="black" points="241,-106.5 241,-125.5 342,-125.5 342,-106.5 241,-106.5"/>
<text text-anchor="middle" x="291.5" y="-113.5" font-family="Helvetica,sans-Serif" font-size="10.00">Color&lt; uint8, 4 &gt;</text>
</a>
</g>
</g>
<!-- Node7&#45;&gt;Node6 -->
<g id="edge6" class="edge">
<title>Node7&#45;&gt;Node6</title>
<path fill="none" stroke="midnightblue" d="M352.59,-116C424.74,-116 544.87,-116 615.9,-116"/>
<polygon fill="midnightblue" stroke="midnightblue" points="352.31,-112.5 342.31,-116 352.31,-119.5 352.31,-112.5"/>
</g>
<!-- Node8 -->
<g id="node8" class="node">
<title>Node8</title>
<g id="a_node8"><a xlink:href="../../d8/d6a/classnap_1_1_base_color.html" target="_top" xlink:title=" ">
<polygon fill="white" stroke="black" points="95,-106.5 95,-125.5 161,-125.5 161,-106.5 95,-106.5"/>
<text text-anchor="middle" x="128" y="-113.5" font-family="Helvetica,sans-Serif" font-size="10.00">BaseColor</text>
</a>
</g>
</g>
<!-- Node8&#45;&gt;Node7 -->
<g id="edge7" class="edge">
<title>Node8&#45;&gt;Node7</title>
<path fill="none" stroke="midnightblue" d="M171.33,-116C192.61,-116 218.54,-116 240.76,-116"/>
<polygon fill="midnightblue" stroke="midnightblue" points="171.29,-112.5 161.29,-116 171.29,-119.5 171.29,-112.5"/>
</g>
<!-- Node9 -->
<g id="node9" class="node">
<title>Node9</title>
<g id="a_node9"><a xlink:href="../../d6/d4f/classnap_1_1_material_instance_resource.html" target="_top" xlink:title=" ">
<polygon fill="white" stroke="black" points="603,-68.5 603,-87.5 746,-87.5 746,-68.5 603,-68.5"/>
<text text-anchor="middle" x="674.5" y="-75.5" font-family="Helvetica,sans-Serif" font-size="10.00">MaterialInstanceResource</text>
</a>
</g>
</g>
<!-- Node9&#45;&gt;Node1 -->
<g id="edge8" class="edge">
<title>Node9&#45;&gt;Node1</title>
<path fill="none" stroke="#9a32cd" stroke-dasharray="5,2" d="M756.1,-79.86C799.89,-81.21 854.96,-83.43 904,-87 909.81,-87.42 915.82,-87.92 921.85,-88.47"/>
<polygon fill="#9a32cd" stroke="#9a32cd" points="756.18,-76.37 746.08,-79.57 755.97,-83.36 756.18,-76.37"/>
<text text-anchor="middle" x="834" y="-90" font-family="Helvetica,sans-Serif" font-size="10.00"> mMaterialInstanceResource</text>
</g>
<!-- Node10 -->
<g id="node10" class="node">
<title>Node10</title>
<g id="a_node10"><a xlink:href="../../df/d7a/classnap_1_1_base_material_instance_resource.html" target="_top" xlink:title=" ">
<polygon fill="white" stroke="black" points="208,-68.5 208,-87.5 375,-87.5 375,-68.5 208,-68.5"/>
<text text-anchor="middle" x="291.5" y="-75.5" font-family="Helvetica,sans-Serif" font-size="10.00">BaseMaterialInstanceResource</text>
</a>
</g>
</g>
<!-- Node10&#45;&gt;Node9 -->
<g id="edge9" class="edge">
<title>Node10&#45;&gt;Node9</title>
<path fill="none" stroke="midnightblue" d="M385.31,-78C452.36,-78 541.52,-78 602.83,-78"/>
<polygon fill="midnightblue" stroke="midnightblue" points="385.17,-74.5 375.17,-78 385.17,-81.5 385.17,-74.5"/>
</g>
<!-- Node11 -->
<g id="node11" class="node">
<title>Node11</title>
<g id="a_node11"><a xlink:href="../../dd/d7c/classnap_1_1rtti_1_1_object_ptr.html" target="_top" xlink:title=" ">
<polygon fill="white" stroke="black" points="217,-30.5 217,-49.5 366,-49.5 366,-30.5 217,-30.5"/>
<text text-anchor="middle" x="291.5" y="-37.5" font-family="Helvetica,sans-Serif" font-size="10.00">ObjectPtr&lt; nap::Material &gt;</text>
</a>
</g>
</g>
<!-- Node11&#45;&gt;Node9 -->
<g id="edge10" class="edge">
<title>Node11&#45;&gt;Node9</title>
<path fill="none" stroke="#9a32cd" stroke-dasharray="5,2" d="M376.33,-44.6C434.91,-48.3 514.9,-54.32 585,-63 597.06,-64.49 609.99,-66.47 622.14,-68.5"/>
<polygon fill="#9a32cd" stroke="#9a32cd" points="376.21,-41.08 366.01,-43.95 375.77,-48.07 376.21,-41.08"/>
<text text-anchor="middle" x="489" y="-66" font-family="Helvetica,sans-Serif" font-size="10.00"> mMaterial</text>
</g>
<!-- Node12 -->
<g id="node12" class="node">
<title>Node12</title>
<g id="a_node12"><a xlink:href="../../d7/dcb/classnap_1_1rtti_1_1_object_ptr_base.html" target="_top" xlink:title=" ">
<polygon fill="white" stroke="black" points="85,-8.5 85,-27.5 171,-27.5 171,-8.5 85,-8.5"/>
<text text-anchor="middle" x="128" y="-15.5" font-family="Helvetica,sans-Serif" font-size="10.00">ObjectPtrBase</text>
</a>
</g>
</g>
<!-- Node12&#45;&gt;Node11 -->
<g id="edge11" class="edge">
<title>Node12&#45;&gt;Node11</title>
<path fill="none" stroke="midnightblue" d="M181.26,-25.12C193.79,-26.83 207.37,-28.68 220.55,-30.47"/>
<polygon fill="midnightblue" stroke="midnightblue" points="181.39,-21.6 171.01,-23.72 180.45,-28.54 181.39,-21.6"/>
</g>
<!-- Node13 -->
<g id="node13" class="node">
<title>Node13</title>
<g id="a_node13"><a xlink:href="../../dd/d7c/classnap_1_1rtti_1_1_object_ptr.html" target="_top" xlink:title=" ">
<polygon fill="white" stroke="black" points="393,-0.5 393,-19.5 585,-19.5 585,-0.5 393,-0.5"/>
<text text-anchor="middle" x="489" y="-7.5" font-family="Helvetica,sans-Serif" font-size="10.00">ObjectPtr&lt; nap::RenderTexture2D &gt;</text>
</a>
</g>
</g>
<!-- Node12&#45;&gt;Node13 -->
<g id="edge13" class="edge">
<title>Node12&#45;&gt;Node13</title>
<path fill="none" stroke="midnightblue" d="M181.51,-16.83C236.83,-15.6 325.14,-13.63 392.78,-12.12"/>
<polygon fill="midnightblue" stroke="midnightblue" points="181.16,-13.34 171.24,-17.06 181.31,-20.34 181.16,-13.34"/>
</g>
<!-- Node13&#45;&gt;Node1 -->
<g id="edge12" class="edge">
<title>Node13&#45;&gt;Node1</title>
<path fill="none" stroke="#9a32cd" stroke-dasharray="5,2" d="M568.47,-20.94C619.18,-28.19 686.58,-38.14 746,-48 816.43,-59.69 833.97,-63.13 904,-77 920.53,-80.27 938.65,-84.08 954.53,-87.48"/>
<polygon fill="#9a32cd" stroke="#9a32cd" points="568.95,-17.47 558.55,-19.53 567.96,-24.4 568.95,-17.47"/>
<text text-anchor="middle" x="674.5" y="-51" font-family="Helvetica,sans-Serif" font-size="10.00"> mOutputTexture</text>
</g>
</g>
</svg>
