<?xml version="1.0" encoding="UTF-8" standalone="no"?>
<!DOCTYPE svg PUBLIC "-//W3C//DTD SVG 1.1//EN"
 "http://www.w3.org/Graphics/SVG/1.1/DTD/svg11.dtd">
<!-- Generated by graphviz version 2.43.0 (0)
 -->
<!-- Title: ComputeMaterial Pages: 1 -->
<svg width="365pt" height="209pt"
 viewBox="0.00 0.00 365.00 209.00" xmlns="http://www.w3.org/2000/svg" xmlns:xlink="http://www.w3.org/1999/xlink">
<g id="graph0" class="graph" transform="scale(1 1) rotate(0) translate(4 205)">
<title>ComputeMaterial</title>
<polygon fill="white" stroke="transparent" points="-4,4 -4,-205 361,-205 361,4 -4,4"/>
<!-- Node1 -->
<g id="node1" class="node">
<title>Node1</title>
<g id="a_node1"><a xlink:title=" ">
<polygon fill="#bfbfbf" stroke="black" points="136.5,-0.5 136.5,-19.5 237.5,-19.5 237.5,-0.5 136.5,-0.5"/>
<text text-anchor="middle" x="187" y="-7.5" font-family="Helvetica,sans-Serif" font-size="10.00">ComputeMaterial</text>
</a>
</g>
</g>
<!-- Node2 -->
<g id="node2" class="node">
<title>Node2</title>
<g id="a_node2"><a xlink:href="../../da/d69/classnap_1_1_base_material.html" target="_top" xlink:title=" ">
<polygon fill="white" stroke="black" points="71.5,-67.5 71.5,-86.5 152.5,-86.5 152.5,-67.5 71.5,-67.5"/>
<text text-anchor="middle" x="112" y="-74.5" font-family="Helvetica,sans-Serif" font-size="10.00">BaseMaterial</text>
</a>
</g>
</g>
<!-- Node2&#45;&gt;Node1 -->
<g id="edge1" class="edge">
<title>Node2&#45;&gt;Node1</title>
<path fill="none" stroke="midnightblue" d="M130.05,-60.36C144.79,-47.58 165.09,-29.99 177.05,-19.63"/>
<polygon fill="midnightblue" stroke="midnightblue" points="127.38,-58.04 122.11,-67.23 131.96,-63.33 127.38,-58.04"/>
</g>
<!-- Node3 -->
<g id="node3" class="node">
<title>Node3</title>
<g id="a_node3"><a xlink:href="../../d9/dea/classnap_1_1_resource.html" target="_top" xlink:title=" ">
<polygon fill="white" stroke="black" points="0,-124.5 0,-143.5 62,-143.5 62,-124.5 0,-124.5"/>
<text text-anchor="middle" x="31" y="-131.5" font-family="Helvetica,sans-Serif" font-size="10.00">Resource</text>
</a>
</g>
</g>
<!-- Node3&#45;&gt;Node2 -->
<g id="edge2" class="edge">
<title>Node3&#45;&gt;Node2</title>
<path fill="none" stroke="midnightblue" d="M52.3,-118.54C67.3,-108.35 86.86,-95.07 99.43,-86.53"/>
<polygon fill="midnightblue" stroke="midnightblue" points="49.96,-115.89 43.66,-124.41 53.9,-121.68 49.96,-115.89"/>
</g>
<!-- Node4 -->
<g id="node4" class="node">
<title>Node4</title>
<g id="a_node4"><a xlink:href="../../de/d01/classnap_1_1rtti_1_1_object.html" target="_top" xlink:title=" ">
<polygon fill="white" stroke="black" points="7,-181.5 7,-200.5 55,-200.5 55,-181.5 7,-181.5"/>
<text text-anchor="middle" x="31" y="-188.5" font-family="Helvetica,sans-Serif" font-size="10.00">Object</text>
</a>
</g>
</g>
<!-- Node4&#45;&gt;Node3 -->
<g id="edge3" class="edge">
<title>Node4&#45;&gt;Node3</title>
<path fill="none" stroke="midnightblue" d="M31,-171.12C31,-161.82 31,-151.06 31,-143.71"/>
<polygon fill="midnightblue" stroke="midnightblue" points="27.5,-171.41 31,-181.41 34.5,-171.41 27.5,-171.41"/>
</g>
<!-- Node5 -->
<g id="node5" class="node">
<title>Node5</title>
<g id="a_node5"><a xlink:href="../../d5/d6c/classnap_1_1_uniform_container.html" target="_top" xlink:title=" ">
<polygon fill="white" stroke="black" points="80,-124.5 80,-143.5 184,-143.5 184,-124.5 80,-124.5"/>
<text text-anchor="middle" x="132" y="-131.5" font-family="Helvetica,sans-Serif" font-size="10.00">UniformContainer</text>
</a>
</g>
</g>
<!-- Node5&#45;&gt;Node2 -->
<g id="edge4" class="edge">
<title>Node5&#45;&gt;Node2</title>
<path fill="none" stroke="midnightblue" d="M125.36,-114.73C121.92,-105.29 117.9,-94.22 115.17,-86.71"/>
<polygon fill="midnightblue" stroke="midnightblue" points="122.17,-116.2 128.88,-124.41 128.75,-113.81 122.17,-116.2"/>
</g>
<!-- Node6 -->
<g id="node6" class="node">
<title>Node6</title>
<g id="a_node6"><a xlink:href="../../dd/d7c/classnap_1_1rtti_1_1_object_ptr.html" target="_top" xlink:title=" ">
<polygon fill="white" stroke="black" points="171,-67.5 171,-86.5 357,-86.5 357,-67.5 171,-67.5"/>
<text text-anchor="middle" x="264" y="-74.5" font-family="Helvetica,sans-Serif" font-size="10.00">ObjectPtr&lt; nap::ComputeShader &gt;</text>
</a>
</g>
</g>
<!-- Node6&#45;&gt;Node1 -->
<g id="edge5" class="edge">
<title>Node6&#45;&gt;Node1</title>
<path fill="none" stroke="#9a32cd" stroke-dasharray="5,2" d="M245.89,-60.71C230.72,-47.91 209.61,-30.09 197.22,-19.63"/>
<polygon fill="#9a32cd" stroke="#9a32cd" points="243.72,-63.46 253.62,-67.23 248.23,-58.11 243.72,-63.46"/>
<text text-anchor="middle" x="254.5" y="-41" font-family="Helvetica,sans-Serif" font-size="10.00"> mShader</text>
</g>
<!-- Node7 -->
<g id="node7" class="node">
<title>Node7</title>
<g id="a_node7"><a xlink:href="../../d7/dcb/classnap_1_1rtti_1_1_object_ptr_base.html" target="_top" xlink:title=" ">
<polygon fill="white" stroke="black" points="221,-124.5 221,-143.5 307,-143.5 307,-124.5 221,-124.5"/>
<text text-anchor="middle" x="264" y="-131.5" font-family="Helvetica,sans-Serif" font-size="10.00">ObjectPtrBase</text>
</a>
</g>
</g>
<!-- Node7&#45;&gt;Node6 -->
<g id="edge6" class="edge">
<title>Node7&#45;&gt;Node6</title>
<path fill="none" stroke="midnightblue" d="M264,-114.12C264,-104.82 264,-94.06 264,-86.71"/>
<polygon fill="midnightblue" stroke="midnightblue" points="260.5,-114.41 264,-124.41 267.5,-114.41 260.5,-114.41"/>
</g>
</g>
</svg>
