<?xml version="1.0" encoding="UTF-8" standalone="no"?>
<!DOCTYPE svg PUBLIC "-//W3C//DTD SVG 1.1//EN"
 "http://www.w3.org/Graphics/SVG/1.1/DTD/svg11.dtd">
<!-- Generated by graphviz version 2.48.0 (20210717.1556)
 -->
<!-- Title: AudioBufferResource Pages: 1 -->
<svg width="244pt" height="196pt"
 viewBox="0.00 0.00 243.50 196.00" xmlns="http://www.w3.org/2000/svg" xmlns:xlink="http://www.w3.org/1999/xlink">
<g id="graph0" class="graph" transform="scale(1 1) rotate(0) translate(4 192)">
<title>AudioBufferResource</title>
<polygon fill="white" stroke="transparent" points="-4,4 -4,-192 239.5,-192 239.5,4 -4,4"/>
<!-- Node0 -->
<g id="node1" class="node">
<title>Node0</title>
<polygon fill="#bfbfbf" stroke="black" points="58.5,-56.5 58.5,-75.5 165.5,-75.5 165.5,-56.5 58.5,-56.5"/>
<text text-anchor="middle" x="112" y="-63.5" font-family="Helvetica,sans-Serif" font-size="10.00">AudioBufferResource</text>
</g>
<!-- Node3 -->
<g id="node4" class="node">
<title>Node3</title>
<g id="a_node4"><a xlink:href="../../d1/d65/classnap_1_1audio_1_1_audio_file_resource.html" target="_top" xlink:title="AudioFileResource">
<polygon fill="white" stroke="black" points="0,-0.5 0,-19.5 98,-19.5 98,-0.5 0,-0.5"/>
<text text-anchor="middle" x="49" y="-7.5" font-family="Helvetica,sans-Serif" font-size="10.00">AudioFileResource</text>
</a>
</g>
</g>
<!-- Node0&#45;&gt;Node3 -->
<g id="edge3" class="edge">
<title>Node0&#45;&gt;Node3</title>
<path fill="none" stroke="midnightblue" d="M93.96,-49.54C82.73,-39.91 68.68,-27.87 59.31,-19.83"/>
<polygon fill="midnightblue" stroke="midnightblue" points="92.01,-52.47 101.88,-56.32 96.56,-47.16 92.01,-52.47"/>
</g>
<!-- Node4 -->
<g id="node5" class="node">
<title>Node4</title>
<g id="a_node5"><a xlink:href="../../d1/d97/classnap_1_1audio_1_1_multi_audio_file_resource.html" target="_top" xlink:title="MultiAudioFileResource">
<polygon fill="white" stroke="black" points="116.5,-0.5 116.5,-19.5 235.5,-19.5 235.5,-0.5 116.5,-0.5"/>
<text text-anchor="middle" x="176" y="-7.5" font-family="Helvetica,sans-Serif" font-size="10.00">MultiAudioFileResource</text>
</a>
</g>
</g>
<!-- Node0&#45;&gt;Node4 -->
<g id="edge4" class="edge">
<title>Node0&#45;&gt;Node4</title>
<path fill="none" stroke="midnightblue" d="M129.99,-49.82C141.46,-40.15 155.91,-27.95 165.53,-19.83"/>
<polygon fill="midnightblue" stroke="midnightblue" points="127.67,-47.2 122.28,-56.32 132.18,-52.55 127.67,-47.2"/>
</g>
<!-- Node1 -->
<g id="node2" class="node">
<title>Node1</title>
<g id="a_node2"><a xlink:href="../../d9/dea/classnap_1_1_resource.html" target="_top" xlink:title="Resource">
<polygon fill="white" stroke="black" points="83,-112.5 83,-131.5 141,-131.5 141,-112.5 83,-112.5"/>
<text text-anchor="middle" x="112" y="-119.5" font-family="Helvetica,sans-Serif" font-size="10.00">Resource</text>
</a>
</g>
</g>
<!-- Node1&#45;&gt;Node0 -->
<g id="edge1" class="edge">
<title>Node1&#45;&gt;Node0</title>
<path fill="none" stroke="midnightblue" d="M112,-101.8C112,-92.91 112,-82.78 112,-75.75"/>
<polygon fill="midnightblue" stroke="midnightblue" points="108.5,-102.08 112,-112.08 115.5,-102.08 108.5,-102.08"/>
</g>
<!-- Node2 -->
<g id="node3" class="node">
<title>Node2</title>
<g id="a_node3"><a xlink:href="../../de/d01/classnap_1_1rtti_1_1_object.html" target="_top" xlink:title="Object">
<polygon fill="white" stroke="black" points="89.5,-168.5 89.5,-187.5 134.5,-187.5 134.5,-168.5 89.5,-168.5"/>
<text text-anchor="middle" x="112" y="-175.5" font-family="Helvetica,sans-Serif" font-size="10.00">Object</text>
</a>
</g>
</g>
<!-- Node2&#45;&gt;Node1 -->
<g id="edge2" class="edge">
<title>Node2&#45;&gt;Node1</title>
<path fill="none" stroke="midnightblue" d="M112,-157.8C112,-148.91 112,-138.78 112,-131.75"/>
<polygon fill="midnightblue" stroke="midnightblue" points="108.5,-158.08 112,-168.08 115.5,-158.08 108.5,-158.08"/>
</g>
</g>
</svg>
