<?xml version="1.0" encoding="UTF-8" standalone="no"?>
<!DOCTYPE svg PUBLIC "-//W3C//DTD SVG 1.1//EN"
 "http://www.w3.org/Graphics/SVG/1.1/DTD/svg11.dtd">
<!-- Generated by graphviz version 2.43.0 (0)
 -->
<!-- Title: PortalComponent Pages: 1 -->
<svg width="246pt" height="220pt"
 viewBox="0.00 0.00 245.50 220.00" xmlns="http://www.w3.org/2000/svg" xmlns:xlink="http://www.w3.org/1999/xlink">
<g id="graph0" class="graph" transform="scale(1 1) rotate(0) translate(4 216)">
<title>PortalComponent</title>
<polygon fill="white" stroke="transparent" points="-4,4 -4,-216 241.5,-216 241.5,4 -4,4"/>
<!-- Node1 -->
<g id="node1" class="node">
<title>Node1</title>
<g id="a_node1"><a xlink:title=" ">
<polygon fill="#bfbfbf" stroke="black" points="49,-0.5 49,-19.5 150,-19.5 150,-0.5 49,-0.5"/>
<text text-anchor="middle" x="99.5" y="-7.5" font-family="Helvetica,sans-Serif" font-size="10.00">PortalComponent</text>
</a>
</g>
</g>
<!-- Node2 -->
<g id="node2" class="node">
<title>Node2</title>
<g id="a_node2"><a xlink:href="../../db/d6b/classnap_1_1_component.html" target="_top" xlink:title=" ">
<polygon fill="white" stroke="black" points="0,-73 0,-92 73,-92 73,-73 0,-73"/>
<text text-anchor="middle" x="36.5" y="-80" font-family="Helvetica,sans-Serif" font-size="10.00">Component</text>
</a>
</g>
</g>
<!-- Node2&#45;&gt;Node1 -->
<g id="edge1" class="edge">
<title>Node2&#45;&gt;Node1</title>
<path fill="none" stroke="midnightblue" d="M50.98,-65.3C63.65,-51.12 81.57,-31.06 91.71,-19.72"/>
<polygon fill="midnightblue" stroke="midnightblue" points="48.28,-63.07 44.23,-72.86 53.5,-67.73 48.28,-63.07"/>
</g>
<!-- Node3 -->
<g id="node3" class="node">
<title>Node3</title>
<g id="a_node3"><a xlink:href="../../d9/dea/classnap_1_1_resource.html" target="_top" xlink:title=" ">
<polygon fill="white" stroke="black" points="5.5,-135.5 5.5,-154.5 67.5,-154.5 67.5,-135.5 5.5,-135.5"/>
<text text-anchor="middle" x="36.5" y="-142.5" font-family="Helvetica,sans-Serif" font-size="10.00">Resource</text>
</a>
</g>
</g>
<!-- Node3&#45;&gt;Node2 -->
<g id="edge2" class="edge">
<title>Node3&#45;&gt;Node2</title>
<path fill="none" stroke="midnightblue" d="M36.5,-125C36.5,-114 36.5,-100.68 36.5,-92.15"/>
<polygon fill="midnightblue" stroke="midnightblue" points="33,-125.33 36.5,-135.33 40,-125.33 33,-125.33"/>
</g>
<!-- Node4 -->
<g id="node4" class="node">
<title>Node4</title>
<g id="a_node4"><a xlink:href="../../de/d01/classnap_1_1rtti_1_1_object.html" target="_top" xlink:title=" ">
<polygon fill="white" stroke="black" points="12.5,-192.5 12.5,-211.5 60.5,-211.5 60.5,-192.5 12.5,-192.5"/>
<text text-anchor="middle" x="36.5" y="-199.5" font-family="Helvetica,sans-Serif" font-size="10.00">Object</text>
</a>
</g>
</g>
<!-- Node4&#45;&gt;Node3 -->
<g id="edge3" class="edge">
<title>Node4&#45;&gt;Node3</title>
<path fill="none" stroke="midnightblue" d="M36.5,-182.12C36.5,-172.82 36.5,-162.06 36.5,-154.71"/>
<polygon fill="midnightblue" stroke="midnightblue" points="33,-182.41 36.5,-192.41 40,-182.41 33,-182.41"/>
</g>
<!-- Node5 -->
<g id="node5" class="node">
<title>Node5</title>
<g id="a_node5"><a xlink:href="../../dd/d7c/classnap_1_1rtti_1_1_object_ptr.html" target="_top" xlink:title=" ">
<polygon fill="white" stroke="black" points="91.5,-67.5 91.5,-97.5 237.5,-97.5 237.5,-67.5 91.5,-67.5"/>
<text text-anchor="start" x="99.5" y="-85.5" font-family="Helvetica,sans-Serif" font-size="10.00">ObjectPtr&lt; nap::PortalWeb</text>
<text text-anchor="middle" x="164.5" y="-74.5" font-family="Helvetica,sans-Serif" font-size="10.00">SocketServer &gt;</text>
</a>
</g>
</g>
<!-- Node5&#45;&gt;Node1 -->
<g id="edge4" class="edge">
<title>Node5&#45;&gt;Node1</title>
<path fill="none" stroke="#9a32cd" stroke-dasharray="5,2" d="M144.46,-59.76C132.09,-46.34 116.88,-29.85 107.7,-19.89"/>
<polygon fill="#9a32cd" stroke="#9a32cd" points="141.99,-62.25 151.35,-67.23 147.14,-57.51 141.99,-62.25"/>
<text text-anchor="middle" x="157" y="-41" font-family="Helvetica,sans-Serif" font-size="10.00"> mServer</text>
</g>
<!-- Node6 -->
<g id="node6" class="node">
<title>Node6</title>
<g id="a_node6"><a xlink:href="../../d7/dcb/classnap_1_1rtti_1_1_object_ptr_base.html" target="_top" xlink:title=" ">
<polygon fill="white" stroke="black" points="121.5,-135.5 121.5,-154.5 207.5,-154.5 207.5,-135.5 121.5,-135.5"/>
<text text-anchor="middle" x="164.5" y="-142.5" font-family="Helvetica,sans-Serif" font-size="10.00">ObjectPtrBase</text>
</a>
</g>
</g>
<!-- Node6&#45;&gt;Node5 -->
<g id="edge5" class="edge">
<title>Node6&#45;&gt;Node5</title>
<path fill="none" stroke="midnightblue" d="M164.5,-125.22C164.5,-116.36 164.5,-105.96 164.5,-97.76"/>
<polygon fill="midnightblue" stroke="midnightblue" points="161,-125.33 164.5,-135.33 168,-125.33 161,-125.33"/>
</g>
</g>
</svg>
