<?xml version="1.0" encoding="UTF-8" standalone="no"?>
<!DOCTYPE svg PUBLIC "-//W3C//DTD SVG 1.1//EN"
 "http://www.w3.org/Graphics/SVG/1.1/DTD/svg11.dtd">
<!-- Generated by graphviz version 2.48.0 (20210717.1556)
 -->
<!-- Title: TypedBufferBindingNumericInstance&lt; T &gt; Pages: 1 -->
<svg width="154pt" height="151pt"
 viewBox="0.00 0.00 154.00 151.00" xmlns="http://www.w3.org/2000/svg" xmlns:xlink="http://www.w3.org/1999/xlink">
<g id="graph0" class="graph" transform="scale(1 1) rotate(0) translate(4 147)">
<title>TypedBufferBindingNumericInstance&lt; T &gt;</title>
<polygon fill="white" stroke="transparent" points="-4,4 -4,-147 150,-147 150,4 -4,4"/>
<!-- Node0 -->
<g id="node1" class="node">
<title>Node0</title>
<polygon fill="#bfbfbf" stroke="black" points="5,-0.5 5,-30.5 141,-30.5 141,-0.5 5,-0.5"/>
<text text-anchor="start" x="13" y="-18.5" font-family="Helvetica,sans-Serif" font-size="10.00">TypedBufferBindingNumeric</text>
<text text-anchor="middle" x="73" y="-7.5" font-family="Helvetica,sans-Serif" font-size="10.00">Instance&lt; T &gt;</text>
</g>
<!-- Node1 -->
<g id="node2" class="node">
<title>Node1</title>
<g id="a_node2"><a xlink:href="../../de/dc7/classnap_1_1_buffer_binding_numeric_instance.html" target="_top" xlink:title="BufferBindingNumericInstance">
<polygon fill="white" stroke="black" points="0,-67.5 0,-86.5 146,-86.5 146,-67.5 0,-67.5"/>
<text text-anchor="middle" x="73" y="-74.5" font-family="Helvetica,sans-Serif" font-size="10.00">BufferBindingNumericInstance</text>
</a>
</g>
</g>
<!-- Node1&#45;&gt;Node0 -->
<g id="edge1" class="edge">
<title>Node1&#45;&gt;Node0</title>
<path fill="none" stroke="midnightblue" d="M73,-57.23C73,-48.59 73,-38.5 73,-30.52"/>
<polygon fill="midnightblue" stroke="midnightblue" points="69.5,-57.48 73,-67.48 76.5,-57.48 69.5,-57.48"/>
</g>
<!-- Node2 -->
<g id="node3" class="node">
<title>Node2</title>
<g id="a_node3"><a xlink:href="../../da/d5c/classnap_1_1_buffer_binding_instance.html" target="_top" xlink:title="BufferBindingInstance">
<polygon fill="white" stroke="black" points="18,-123.5 18,-142.5 128,-142.5 128,-123.5 18,-123.5"/>
<text text-anchor="middle" x="73" y="-130.5" font-family="Helvetica,sans-Serif" font-size="10.00">BufferBindingInstance</text>
</a>
</g>
</g>
<!-- Node2&#45;&gt;Node1 -->
<g id="edge2" class="edge">
<title>Node2&#45;&gt;Node1</title>
<path fill="none" stroke="midnightblue" d="M73,-112.8C73,-103.91 73,-93.78 73,-86.75"/>
<polygon fill="midnightblue" stroke="midnightblue" points="69.5,-113.08 73,-123.08 76.5,-113.08 69.5,-113.08"/>
</g>
</g>
</svg>
