<?xml version="1.0" encoding="UTF-8" standalone="no"?>
<!DOCTYPE svg PUBLIC "-//W3C//DTD SVG 1.1//EN"
 "http://www.w3.org/Graphics/SVG/1.1/DTD/svg11.dtd">
<!-- Generated by graphviz version 2.43.0 (0)
 -->
<!-- Title: WebSocketConnectionOpenedEvent Pages: 1 -->
<svg width="170pt" height="207pt"
 viewBox="0.00 0.00 170.00 207.00" xmlns="http://www.w3.org/2000/svg" xmlns:xlink="http://www.w3.org/1999/xlink">
<g id="graph0" class="graph" transform="scale(1 1) rotate(0) translate(4 203)">
<title>WebSocketConnectionOpenedEvent</title>
<polygon fill="white" stroke="transparent" points="-4,4 -4,-203 166,-203 166,4 -4,4"/>
<!-- Node1 -->
<g id="node1" class="node">
<title>Node1</title>
<g id="a_node1"><a xlink:title=" ">
<polygon fill="#bfbfbf" stroke="black" points="0,-0.5 0,-30.5 162,-30.5 162,-0.5 0,-0.5"/>
<text text-anchor="start" x="8" y="-18.5" font-family="Helvetica,sans-Serif" font-size="10.00">WebSocketConnectionOpened</text>
<text text-anchor="middle" x="81" y="-7.5" font-family="Helvetica,sans-Serif" font-size="10.00">Event</text>
</a>
</g>
</g>
<!-- Node2 -->
<g id="node2" class="node">
<title>Node2</title>
<g id="a_node2"><a xlink:href="../../de/d42/classnap_1_1_web_socket_connection_event.html" target="_top" xlink:title=" ">
<polygon fill="white" stroke="black" points="5,-67.5 5,-86.5 157,-86.5 157,-67.5 5,-67.5"/>
<text text-anchor="middle" x="81" y="-74.5" font-family="Helvetica,sans-Serif" font-size="10.00">WebSocketConnectionEvent</text>
</a>
</g>
</g>
<!-- Node2&#45;&gt;Node1 -->
<g id="edge1" class="edge">
<title>Node2&#45;&gt;Node1</title>
<path fill="none" stroke="midnightblue" d="M81,-57.23C81,-48.59 81,-38.5 81,-30.52"/>
<polygon fill="midnightblue" stroke="midnightblue" points="77.5,-57.48 81,-67.48 84.5,-57.48 77.5,-57.48"/>
</g>
<!-- Node3 -->
<g id="node3" class="node">
<title>Node3</title>
<g id="a_node3"><a xlink:href="../../d6/d83/classnap_1_1_web_socket_event.html" target="_top" xlink:title=" ">
<polygon fill="white" stroke="black" points="32,-123.5 32,-142.5 130,-142.5 130,-123.5 32,-123.5"/>
<text text-anchor="middle" x="81" y="-130.5" font-family="Helvetica,sans-Serif" font-size="10.00">WebSocketEvent</text>
</a>
</g>
</g>
<!-- Node3&#45;&gt;Node2 -->
<g id="edge2" class="edge">
<title>Node3&#45;&gt;Node2</title>
<path fill="none" stroke="midnightblue" d="M81,-112.8C81,-103.91 81,-93.78 81,-86.75"/>
<polygon fill="midnightblue" stroke="midnightblue" points="77.5,-113.08 81,-123.08 84.5,-113.08 77.5,-113.08"/>
</g>
<!-- Node4 -->
<g id="node4" class="node">
<title>Node4</title>
<g id="a_node4"><a xlink:href="../../d2/da2/classnap_1_1_event.html" target="_top" xlink:title=" ">
<polygon fill="white" stroke="black" points="59,-179.5 59,-198.5 103,-198.5 103,-179.5 59,-179.5"/>
<text text-anchor="middle" x="81" y="-186.5" font-family="Helvetica,sans-Serif" font-size="10.00">Event</text>
</a>
</g>
</g>
<!-- Node4&#45;&gt;Node3 -->
<g id="edge3" class="edge">
<title>Node4&#45;&gt;Node3</title>
<path fill="none" stroke="midnightblue" d="M81,-168.8C81,-159.91 81,-149.78 81,-142.75"/>
<polygon fill="midnightblue" stroke="midnightblue" points="77.5,-169.08 81,-179.08 84.5,-169.08 77.5,-169.08"/>
</g>
</g>
</svg>
