<?xml version="1.0" encoding="UTF-8" standalone="no"?>
<!DOCTYPE svg PUBLIC "-//W3C//DTD SVG 1.1//EN"
 "http://www.w3.org/Graphics/SVG/1.1/DTD/svg11.dtd">
<!-- Generated by graphviz version 3.0.0 (20220226.1711)
 -->
<!-- Title: SequenceController Pages: 1 -->
<svg width="421pt" height="84pt"
 viewBox="0.00 0.00 420.50 84.00" xmlns="http://www.w3.org/2000/svg" xmlns:xlink="http://www.w3.org/1999/xlink">
<g id="graph0" class="graph" transform="scale(1 1) rotate(0) translate(4 80)">
<title>SequenceController</title>
<polygon fill="white" stroke="transparent" points="-4,4 -4,-80 416.5,-80 416.5,4 -4,4"/>
<!-- Node0 -->
<g id="node1" class="node">
<title>Node0</title>
<polygon fill="#bfbfbf" stroke="black" points="156.5,-56.5 156.5,-75.5 257.5,-75.5 257.5,-56.5 156.5,-56.5"/>
<text text-anchor="middle" x="207" y="-63.5" font-family="Helvetica,sans-Serif" font-size="10.00">SequenceController</text>
</g>
<!-- Node1 -->
<g id="node2" class="node">
<title>Node1</title>
<g id="a_node2"><a xlink:href="../../d4/d38/classnap_1_1_sequence_controller_audio.html" target="_top" xlink:title="SequenceControllerAudio">
<polygon fill="white" stroke="black" points="0,-0.5 0,-19.5 126,-19.5 126,-0.5 0,-0.5"/>
<text text-anchor="middle" x="63" y="-7.5" font-family="Helvetica,sans-Serif" font-size="10.00">SequenceControllerAudio</text>
</a>
</g>
</g>
<!-- Node0&#45;&gt;Node1 -->
<g id="edge1" class="edge">
<title>Node0&#45;&gt;Node1</title>
<path fill="none" stroke="midnightblue" d="M174.75,-52.91C147.68,-42.75 109.68,-28.51 85.71,-19.52"/>
<polygon fill="midnightblue" stroke="midnightblue" points="173.59,-56.21 184.18,-56.44 176.05,-49.66 173.59,-56.21"/>
</g>
<!-- Node2 -->
<g id="node3" class="node">
<title>Node2</title>
<g id="a_node3"><a xlink:href="../../de/dff/classnap_1_1_sequence_controller_curve.html" target="_top" xlink:title="SequenceControllerCurve">
<polygon fill="white" stroke="black" points="144.5,-0.5 144.5,-19.5 269.5,-19.5 269.5,-0.5 144.5,-0.5"/>
<text text-anchor="middle" x="207" y="-7.5" font-family="Helvetica,sans-Serif" font-size="10.00">SequenceControllerCurve</text>
</a>
</g>
</g>
<!-- Node0&#45;&gt;Node2 -->
<g id="edge2" class="edge">
<title>Node0&#45;&gt;Node2</title>
<path fill="none" stroke="midnightblue" d="M207,-45.8C207,-36.91 207,-26.78 207,-19.75"/>
<polygon fill="midnightblue" stroke="midnightblue" points="203.5,-46.08 207,-56.08 210.5,-46.08 203.5,-46.08"/>
</g>
<!-- Node3 -->
<g id="node4" class="node">
<title>Node3</title>
<g id="a_node4"><a xlink:href="../../d8/d76/classnap_1_1_sequence_controller_event.html" target="_top" xlink:title="SequenceControllerEvent">
<polygon fill="white" stroke="black" points="287.5,-0.5 287.5,-19.5 412.5,-19.5 412.5,-0.5 287.5,-0.5"/>
<text text-anchor="middle" x="350" y="-7.5" font-family="Helvetica,sans-Serif" font-size="10.00">SequenceControllerEvent</text>
</a>
</g>
</g>
<!-- Node0&#45;&gt;Node3 -->
<g id="edge3" class="edge">
<title>Node0&#45;&gt;Node3</title>
<path fill="none" stroke="midnightblue" d="M239.03,-52.91C265.91,-42.75 303.64,-28.51 327.45,-19.52"/>
<polygon fill="midnightblue" stroke="midnightblue" points="237.78,-49.64 229.66,-56.44 240.25,-56.19 237.78,-49.64"/>
</g>
</g>
</svg>
