<?xml version="1.0" encoding="UTF-8" standalone="no"?>
<!DOCTYPE svg PUBLIC "-//W3C//DTD SVG 1.1//EN"
 "http://www.w3.org/Graphics/SVG/1.1/DTD/svg11.dtd">
<!-- Generated by graphviz version 3.0.0 (20220226.1711)
 -->
<!-- Title: PipelineKey Pages: 1 -->
<svg width="311pt" height="240pt"
 viewBox="0.00 0.00 310.50 240.00" xmlns="http://www.w3.org/2000/svg" xmlns:xlink="http://www.w3.org/1999/xlink">
<g id="graph0" class="graph" transform="scale(1 1) rotate(0) translate(4 236)">
<title>PipelineKey</title>
<polygon fill="white" stroke="transparent" points="-4,4 -4,-236 306.5,-236 306.5,4 -4,4"/>
<!-- Node1 -->
<g id="node1" class="node">
<title>Node1</title>
<polygon fill="#bfbfbf" stroke="black" points="38,-0.5 38,-19.5 106,-19.5 106,-0.5 38,-0.5"/>
<text text-anchor="middle" x="72" y="-7.5" font-family="Helvetica,sans-Serif" font-size="10.00">PipelineKey</text>
</g>
<!-- Node2 -->
<g id="node2" class="node">
<title>Node2</title>
<g id="a_node2"><a xlink:href="../../dd/d44/classnap_1_1_shader.html" target="_top" xlink:title="Shader">
<polygon fill="white" stroke="black" points="48.5,-67.5 48.5,-86.5 95.5,-86.5 95.5,-67.5 48.5,-67.5"/>
<text text-anchor="middle" x="72" y="-74.5" font-family="Helvetica,sans-Serif" font-size="10.00">Shader</text>
</a>
</g>
</g>
<!-- Node2&#45;&gt;Node1 -->
<g id="edge1" class="edge">
<title>Node2&#45;&gt;Node1</title>
<path fill="none" stroke="#9a32cd" stroke-dasharray="5,2" d="M72,-57.04C72,-44.67 72,-29.12 72,-19.63"/>
<polygon fill="#9a32cd" stroke="#9a32cd" points="68.5,-57.23 72,-67.23 75.5,-57.23 68.5,-57.23"/>
<text text-anchor="middle" x="93.5" y="-41" font-family="Helvetica,sans-Serif" font-size="10.00"> mShader</text>
</g>
<!-- Node3 -->
<g id="node3" class="node">
<title>Node3</title>
<g id="a_node3"><a xlink:href="../../d9/dea/classnap_1_1_resource.html" target="_top" xlink:title="Resource">
<polygon fill="white" stroke="black" points="0,-134.5 0,-153.5 58,-153.5 58,-134.5 0,-134.5"/>
<text text-anchor="middle" x="29" y="-141.5" font-family="Helvetica,sans-Serif" font-size="10.00">Resource</text>
</a>
</g>
</g>
<!-- Node3&#45;&gt;Node2 -->
<g id="edge2" class="edge">
<title>Node3&#45;&gt;Node2</title>
<path fill="none" stroke="midnightblue" d="M40.55,-125.53C48.88,-112.95 59.76,-96.51 66.29,-86.63"/>
<polygon fill="midnightblue" stroke="midnightblue" points="37.4,-123.96 34.8,-134.23 43.24,-127.82 37.4,-123.96"/>
</g>
<!-- Node4 -->
<g id="node4" class="node">
<title>Node4</title>
<g id="a_node4"><a xlink:href="../../de/d01/classnap_1_1rtti_1_1_object.html" target="_top" xlink:title="Object">
<polygon fill="white" stroke="black" points="6.5,-212.5 6.5,-231.5 51.5,-231.5 51.5,-212.5 6.5,-212.5"/>
<text text-anchor="middle" x="29" y="-219.5" font-family="Helvetica,sans-Serif" font-size="10.00">Object</text>
</a>
</g>
</g>
<!-- Node4&#45;&gt;Node3 -->
<g id="edge3" class="edge">
<title>Node4&#45;&gt;Node3</title>
<path fill="none" stroke="midnightblue" d="M29,-202.22C29,-186.7 29,-165.36 29,-153.62"/>
<polygon fill="midnightblue" stroke="midnightblue" points="25.5,-202.28 29,-212.28 32.5,-202.28 25.5,-202.28"/>
</g>
<!-- Node5 -->
<g id="node5" class="node">
<title>Node5</title>
<g id="a_node5"><a xlink:href="../../d5/dc6/classnap_1_1_render_service.html" target="_top" xlink:title="RenderService">
<polygon fill="white" stroke="black" points="76.5,-134.5 76.5,-153.5 155.5,-153.5 155.5,-134.5 76.5,-134.5"/>
<text text-anchor="middle" x="116" y="-141.5" font-family="Helvetica,sans-Serif" font-size="10.00">RenderService</text>
</a>
</g>
</g>
<!-- Node5&#45;&gt;Node2 -->
<g id="edge4" class="edge">
<title>Node5&#45;&gt;Node2</title>
<path fill="none" stroke="#9a32cd" stroke-dasharray="5,2" d="M104.43,-125.9C95.88,-113.27 84.59,-96.6 77.84,-86.63"/>
<polygon fill="#9a32cd" stroke="#9a32cd" points="101.56,-127.91 110.07,-134.23 107.36,-123.99 101.56,-127.91"/>
<text text-anchor="middle" x="134" y="-108" font-family="Helvetica,sans-Serif" font-size="10.00"> mRenderService</text>
</g>
<!-- Node6 -->
<g id="node6" class="node">
<title>Node6</title>
<g id="a_node6"><a xlink:href="../../d8/d8e/classnap_1_1_service.html" target="_top" xlink:title="Service">
<polygon fill="white" stroke="black" points="81,-212.5 81,-231.5 129,-231.5 129,-212.5 81,-212.5"/>
<text text-anchor="middle" x="105" y="-219.5" font-family="Helvetica,sans-Serif" font-size="10.00">Service</text>
</a>
</g>
</g>
<!-- Node6&#45;&gt;Node5 -->
<g id="edge5" class="edge">
<title>Node6&#45;&gt;Node5</title>
<path fill="none" stroke="midnightblue" d="M107.72,-202.22C109.96,-186.7 113.05,-165.36 114.75,-153.62"/>
<polygon fill="midnightblue" stroke="midnightblue" points="104.23,-201.88 106.26,-212.28 111.16,-202.89 104.23,-201.88"/>
</g>
<!-- Node7 -->
<g id="node7" class="node">
<title>Node7</title>
<g id="a_node7"><a xlink:href="../../de/d80/classnap_1_1_signal.html" target="_top" xlink:title="Signal\&lt; nap::RenderWindow &amp;\&gt;">
<polygon fill="white" stroke="black" points="147.5,-212.5 147.5,-231.5 302.5,-231.5 302.5,-212.5 147.5,-212.5"/>
<text text-anchor="middle" x="225" y="-219.5" font-family="Helvetica,sans-Serif" font-size="10.00">Signal&lt; nap::RenderWindow &amp;&gt;</text>
</a>
</g>
</g>
<!-- Node7&#45;&gt;Node5 -->
<g id="edge6" class="edge">
<title>Node7&#45;&gt;Node5</title>
<path fill="none" stroke="#9a32cd" stroke-dasharray="5,2" d="M204,-206.36C181.57,-190.72 146.75,-166.44 128.36,-153.62"/>
<polygon fill="#9a32cd" stroke="#9a32cd" points="202.29,-209.43 212.5,-212.28 206.3,-203.69 202.29,-209.43"/>
<text text-anchor="middle" x="221.5" y="-186" font-family="Helvetica,sans-Serif" font-size="10.00"> windowRemoved</text>
<text text-anchor="middle" x="221.5" y="-175" font-family="Helvetica,sans-Serif" font-size="10.00">windowAdded</text>
</g>
</g>
</svg>
