<?xml version="1.0" encoding="UTF-8" standalone="no"?>
<!DOCTYPE svg PUBLIC "-//W3C//DTD SVG 1.1//EN"
 "http://www.w3.org/Graphics/SVG/1.1/DTD/svg11.dtd">
<!-- Generated by graphviz version 2.43.0 (0)
 -->
<!-- Title: InputComponent Pages: 1 -->
<svg width="438pt" height="252pt"
 viewBox="0.00 0.00 438.00 252.00" xmlns="http://www.w3.org/2000/svg" xmlns:xlink="http://www.w3.org/1999/xlink">
<g id="graph0" class="graph" transform="scale(1 1) rotate(0) translate(4 248)">
<title>InputComponent</title>
<polygon fill="white" stroke="transparent" points="-4,4 -4,-248 434,-248 434,4 -4,4"/>
<!-- Node1 -->
<g id="node1" class="node">
<title>Node1</title>
<g id="a_node1"><a xlink:title=" ">
<polygon fill="#bfbfbf" stroke="black" points="173,-56.5 173,-75.5 271,-75.5 271,-56.5 173,-56.5"/>
<text text-anchor="middle" x="222" y="-63.5" font-family="Helvetica,sans-Serif" font-size="10.00">InputComponent</text>
</a>
</g>
</g>
<!-- Node5 -->
<g id="node5" class="node">
<title>Node5</title>
<g id="a_node5"><a xlink:href="../../d1/d39/classnap_1_1_controller_input_component.html" target="_top" xlink:title=" ">
<polygon fill="white" stroke="black" points="0,-0.5 0,-19.5 146,-19.5 146,-0.5 0,-0.5"/>
<text text-anchor="middle" x="73" y="-7.5" font-family="Helvetica,sans-Serif" font-size="10.00">ControllerInputComponent</text>
</a>
</g>
</g>
<!-- Node1&#45;&gt;Node5 -->
<g id="edge4" class="edge">
<title>Node1&#45;&gt;Node5</title>
<path fill="none" stroke="midnightblue" d="M188.63,-52.91C160.62,-42.75 121.3,-28.51 96.5,-19.52"/>
<polygon fill="midnightblue" stroke="midnightblue" points="187.8,-56.33 198.39,-56.44 190.18,-49.75 187.8,-56.33"/>
</g>
<!-- Node6 -->
<g id="node6" class="node">
<title>Node6</title>
<g id="a_node6"><a xlink:href="../../df/dd0/classnap_1_1_key_input_component.html" target="_top" xlink:title=" ">
<polygon fill="white" stroke="black" points="164,-0.5 164,-19.5 280,-19.5 280,-0.5 164,-0.5"/>
<text text-anchor="middle" x="222" y="-7.5" font-family="Helvetica,sans-Serif" font-size="10.00">KeyInputComponent</text>
</a>
</g>
</g>
<!-- Node1&#45;&gt;Node6 -->
<g id="edge5" class="edge">
<title>Node1&#45;&gt;Node6</title>
<path fill="none" stroke="midnightblue" d="M222,-45.8C222,-36.91 222,-26.78 222,-19.75"/>
<polygon fill="midnightblue" stroke="midnightblue" points="218.5,-46.08 222,-56.08 225.5,-46.08 218.5,-46.08"/>
</g>
<!-- Node7 -->
<g id="node7" class="node">
<title>Node7</title>
<g id="a_node7"><a xlink:href="../../da/d57/classnap_1_1_pointer_input_component.html" target="_top" xlink:title=" ">
<polygon fill="white" stroke="black" points="298,-0.5 298,-19.5 430,-19.5 430,-0.5 298,-0.5"/>
<text text-anchor="middle" x="364" y="-7.5" font-family="Helvetica,sans-Serif" font-size="10.00">PointerInputComponent</text>
</a>
</g>
</g>
<!-- Node1&#45;&gt;Node7 -->
<g id="edge6" class="edge">
<title>Node1&#45;&gt;Node7</title>
<path fill="none" stroke="midnightblue" d="M254.16,-52.77C280.83,-42.63 318.07,-28.47 341.6,-19.52"/>
<polygon fill="midnightblue" stroke="midnightblue" points="252.6,-49.62 244.5,-56.44 255.09,-56.16 252.6,-49.62"/>
</g>
<!-- Node2 -->
<g id="node2" class="node">
<title>Node2</title>
<g id="a_node2"><a xlink:href="../../db/d6b/classnap_1_1_component.html" target="_top" xlink:title=" ">
<polygon fill="white" stroke="black" points="185.5,-112.5 185.5,-131.5 258.5,-131.5 258.5,-112.5 185.5,-112.5"/>
<text text-anchor="middle" x="222" y="-119.5" font-family="Helvetica,sans-Serif" font-size="10.00">Component</text>
</a>
</g>
</g>
<!-- Node2&#45;&gt;Node1 -->
<g id="edge1" class="edge">
<title>Node2&#45;&gt;Node1</title>
<path fill="none" stroke="midnightblue" d="M222,-101.8C222,-92.91 222,-82.78 222,-75.75"/>
<polygon fill="midnightblue" stroke="midnightblue" points="218.5,-102.08 222,-112.08 225.5,-102.08 218.5,-102.08"/>
</g>
<!-- Node3 -->
<g id="node3" class="node">
<title>Node3</title>
<g id="a_node3"><a xlink:href="../../d9/dea/classnap_1_1_resource.html" target="_top" xlink:title=" ">
<polygon fill="white" stroke="black" points="191,-168.5 191,-187.5 253,-187.5 253,-168.5 191,-168.5"/>
<text text-anchor="middle" x="222" y="-175.5" font-family="Helvetica,sans-Serif" font-size="10.00">Resource</text>
</a>
</g>
</g>
<!-- Node3&#45;&gt;Node2 -->
<g id="edge2" class="edge">
<title>Node3&#45;&gt;Node2</title>
<path fill="none" stroke="midnightblue" d="M222,-157.8C222,-148.91 222,-138.78 222,-131.75"/>
<polygon fill="midnightblue" stroke="midnightblue" points="218.5,-158.08 222,-168.08 225.5,-158.08 218.5,-158.08"/>
</g>
<!-- Node4 -->
<g id="node4" class="node">
<title>Node4</title>
<g id="a_node4"><a xlink:href="../../de/d01/classnap_1_1rtti_1_1_object.html" target="_top" xlink:title=" ">
<polygon fill="white" stroke="black" points="198,-224.5 198,-243.5 246,-243.5 246,-224.5 198,-224.5"/>
<text text-anchor="middle" x="222" y="-231.5" font-family="Helvetica,sans-Serif" font-size="10.00">Object</text>
</a>
</g>
</g>
<!-- Node4&#45;&gt;Node3 -->
<g id="edge3" class="edge">
<title>Node4&#45;&gt;Node3</title>
<path fill="none" stroke="midnightblue" d="M222,-213.8C222,-204.91 222,-194.78 222,-187.75"/>
<polygon fill="midnightblue" stroke="midnightblue" points="218.5,-214.08 222,-224.08 225.5,-214.08 218.5,-214.08"/>
</g>
</g>
</svg>
