<?xml version="1.0" encoding="UTF-8" standalone="no"?>
<!DOCTYPE svg PUBLIC "-//W3C//DTD SVG 1.1//EN"
 "http://www.w3.org/Graphics/SVG/1.1/DTD/svg11.dtd">
<!-- Generated by graphviz version 2.48.0 (20210717.1556)
 -->
<!-- Title: StructBuffer Pages: 1 -->
<svg width="542pt" height="260pt"
 viewBox="0.00 0.00 541.50 260.00" xmlns="http://www.w3.org/2000/svg" xmlns:xlink="http://www.w3.org/1999/xlink">
<g id="graph0" class="graph" transform="scale(1 1) rotate(0) translate(4 256)">
<title>StructBuffer</title>
<polygon fill="white" stroke="transparent" points="-4,4 -4,-256 537.5,-256 537.5,4 -4,4"/>
<!-- Node4 -->
<g id="node1" class="node">
<title>Node4</title>
<polygon fill="#bfbfbf" stroke="black" points="295,-0.5 295,-19.5 363,-19.5 363,-0.5 295,-0.5"/>
<text text-anchor="middle" x="329" y="-7.5" font-family="Helvetica,sans-Serif" font-size="10.00">StructBuffer</text>
</g>
<!-- Node5 -->
<g id="node2" class="node">
<title>Node5</title>
<g id="a_node2"><a xlink:href="../../dd/df4/classnap_1_1_g_p_u_buffer.html" target="_top" xlink:title="GPUBuffer">
<polygon fill="white" stroke="black" points="134,-67.5 134,-86.5 196,-86.5 196,-67.5 134,-67.5"/>
<text text-anchor="middle" x="165" y="-74.5" font-family="Helvetica,sans-Serif" font-size="10.00">GPUBuffer</text>
</a>
</g>
</g>
<!-- Node5&#45;&gt;Node4 -->
<g id="edge1" class="edge">
<title>Node5&#45;&gt;Node4</title>
<path fill="none" stroke="midnightblue" d="M196.28,-63.6C228.84,-50.7 278.97,-30.83 307.39,-19.56"/>
<polygon fill="midnightblue" stroke="midnightblue" points="194.78,-60.43 186.78,-67.37 197.36,-66.94 194.78,-60.43"/>
</g>
<!-- Node6 -->
<g id="node3" class="node">
<title>Node6</title>
<g id="a_node3"><a xlink:href="../../d9/dea/classnap_1_1_resource.html" target="_top" xlink:title="Resource">
<polygon fill="white" stroke="black" points="0,-154.5 0,-173.5 58,-173.5 58,-154.5 0,-154.5"/>
<text text-anchor="middle" x="29" y="-161.5" font-family="Helvetica,sans-Serif" font-size="10.00">Resource</text>
</a>
</g>
</g>
<!-- Node6&#45;&gt;Node5 -->
<g id="edge2" class="edge">
<title>Node6&#45;&gt;Node5</title>
<path fill="none" stroke="midnightblue" d="M47.08,-148.17C62.67,-135.78 86.05,-118.09 108,-105 119.66,-98.04 133.4,-91.49 144.47,-86.58"/>
<polygon fill="midnightblue" stroke="midnightblue" points="44.88,-145.45 39.29,-154.45 49.27,-150.91 44.88,-145.45"/>
</g>
<!-- Node7 -->
<g id="node4" class="node">
<title>Node7</title>
<g id="a_node4"><a xlink:href="../../de/d01/classnap_1_1rtti_1_1_object.html" target="_top" xlink:title="Object">
<polygon fill="white" stroke="black" points="6.5,-232.5 6.5,-251.5 51.5,-251.5 51.5,-232.5 6.5,-232.5"/>
<text text-anchor="middle" x="29" y="-239.5" font-family="Helvetica,sans-Serif" font-size="10.00">Object</text>
</a>
</g>
</g>
<!-- Node7&#45;&gt;Node6 -->
<g id="edge3" class="edge">
<title>Node7&#45;&gt;Node6</title>
<path fill="none" stroke="midnightblue" d="M29,-222.22C29,-206.7 29,-185.36 29,-173.62"/>
<polygon fill="midnightblue" stroke="midnightblue" points="25.5,-222.28 29,-232.28 32.5,-222.28 25.5,-222.28"/>
</g>
<!-- Node8 -->
<g id="node5" class="node">
<title>Node8</title>
<g id="a_node5"><a xlink:href="../../d5/dc6/classnap_1_1_render_service.html" target="_top" xlink:title="RenderService">
<polygon fill="white" stroke="black" points="76.5,-154.5 76.5,-173.5 155.5,-173.5 155.5,-154.5 76.5,-154.5"/>
<text text-anchor="middle" x="116" y="-161.5" font-family="Helvetica,sans-Serif" font-size="10.00">RenderService</text>
</a>
</g>
</g>
<!-- Node8&#45;&gt;Node5 -->
<g id="edge4" class="edge">
<title>Node8&#45;&gt;Node5</title>
<path fill="none" stroke="#9a32cd" stroke-dasharray="5,2" d="M112.26,-144.53C110.81,-132.44 110.92,-116.76 118,-105 122.95,-96.78 131.42,-90.82 139.81,-86.63"/>
<polygon fill="#9a32cd" stroke="#9a32cd" points="108.8,-145.1 113.87,-154.41 115.71,-143.97 108.8,-145.1"/>
<text text-anchor="middle" x="155" y="-118" font-family="Helvetica,sans-Serif" font-size="10.00"> mRenderService</text>
</g>
<!-- Node9 -->
<g id="node6" class="node">
<title>Node9</title>
<g id="a_node6"><a xlink:href="../../d8/d8e/classnap_1_1_service.html" target="_top" xlink:title="Service">
<polygon fill="white" stroke="black" points="79,-232.5 79,-251.5 127,-251.5 127,-232.5 79,-232.5"/>
<text text-anchor="middle" x="103" y="-239.5" font-family="Helvetica,sans-Serif" font-size="10.00">Service</text>
</a>
</g>
</g>
<!-- Node9&#45;&gt;Node8 -->
<g id="edge5" class="edge">
<title>Node9&#45;&gt;Node8</title>
<path fill="none" stroke="midnightblue" d="M106.21,-222.22C108.87,-206.7 112.52,-185.36 114.53,-173.62"/>
<polygon fill="midnightblue" stroke="midnightblue" points="102.73,-221.83 104.49,-232.28 109.63,-223.02 102.73,-221.83"/>
</g>
<!-- Node10 -->
<g id="node7" class="node">
<title>Node10</title>
<g id="a_node7"><a xlink:href="../../de/d80/classnap_1_1_signal.html" target="_top" xlink:title="Signal\&lt; nap::RenderWindow &amp;\&gt;">
<polygon fill="white" stroke="black" points="145.5,-232.5 145.5,-251.5 300.5,-251.5 300.5,-232.5 145.5,-232.5"/>
<text text-anchor="middle" x="223" y="-239.5" font-family="Helvetica,sans-Serif" font-size="10.00">Signal&lt; nap::RenderWindow &amp;&gt;</text>
</a>
</g>
</g>
<!-- Node10&#45;&gt;Node8 -->
<g id="edge6" class="edge">
<title>Node10&#45;&gt;Node8</title>
<path fill="none" stroke="#9a32cd" stroke-dasharray="5,2" d="M202.39,-226.36C180.36,-210.72 146.19,-186.44 128.13,-173.62"/>
<polygon fill="#9a32cd" stroke="#9a32cd" points="200.55,-229.34 210.73,-232.28 204.6,-223.64 200.55,-229.34"/>
<text text-anchor="middle" x="220.5" y="-206" font-family="Helvetica,sans-Serif" font-size="10.00"> windowRemoved</text>
<text text-anchor="middle" x="220.5" y="-195" font-family="Helvetica,sans-Serif" font-size="10.00">windowAdded</text>
</g>
<!-- Node11 -->
<g id="node8" class="node">
<title>Node11</title>
<g id="a_node8"><a xlink:href="../../de/d80/classnap_1_1_signal.html" target="_top" xlink:title="Signal\&lt; Args \&gt;">
<polygon fill="white" stroke="black" points="174,-154.5 174,-173.5 256,-173.5 256,-154.5 174,-154.5"/>
<text text-anchor="middle" x="215" y="-161.5" font-family="Helvetica,sans-Serif" font-size="10.00">Signal&lt; Args &gt;</text>
</a>
</g>
</g>
<!-- Node11&#45;&gt;Node5 -->
<g id="edge7" class="edge">
<title>Node11&#45;&gt;Node5</title>
<path fill="none" stroke="#9a32cd" stroke-dasharray="5,2" d="M209.8,-144.5C205.97,-132.62 200.02,-117.2 192,-105 187.49,-98.13 181.01,-91.58 175.53,-86.65"/>
<polygon fill="#9a32cd" stroke="#9a32cd" points="206.5,-145.65 212.73,-154.22 213.2,-143.63 206.5,-145.65"/>
<text text-anchor="middle" x="239.5" y="-118" font-family="Helvetica,sans-Serif" font-size="10.00"> bufferChanged</text>
</g>
<!-- Node12 -->
<g id="node9" class="node">
<title>Node12</title>
<g id="a_node9"><a xlink:href="../../dd/d7c/classnap_1_1rtti_1_1_object_ptr.html" target="_top" xlink:title="ObjectPtr\&lt; nap::StructFill\lPolicy \&gt;">
<polygon fill="white" stroke="black" points="284,-105.5 284,-135.5 412,-135.5 412,-105.5 284,-105.5"/>
<text text-anchor="start" x="292" y="-123.5" font-family="Helvetica,sans-Serif" font-size="10.00">ObjectPtr&lt; nap::StructFill</text>
<text text-anchor="middle" x="348" y="-112.5" font-family="Helvetica,sans-Serif" font-size="10.00">Policy &gt;</text>
</a>
</g>
</g>
<!-- Node12&#45;&gt;Node4 -->
<g id="edge8" class="edge">
<title>Node12&#45;&gt;Node4</title>
<path fill="none" stroke="#9a32cd" stroke-dasharray="5,2" d="M340.17,-95.79C339.35,-92.85 338.61,-89.87 338,-87 332.89,-62.82 330.46,-33.66 329.51,-19.52"/>
<polygon fill="#9a32cd" stroke="#9a32cd" points="336.83,-96.84 343.06,-105.41 343.53,-94.82 336.83,-96.84"/>
<text text-anchor="middle" x="364" y="-74.5" font-family="Helvetica,sans-Serif" font-size="10.00"> mFillPolicy</text>
</g>
<!-- Node13 -->
<g id="node10" class="node">
<title>Node13</title>
<g id="a_node10"><a xlink:href="../../d7/dcb/classnap_1_1rtti_1_1_object_ptr_base.html" target="_top" xlink:title="ObjectPtrBase">
<polygon fill="white" stroke="black" points="330,-232.5 330,-251.5 410,-251.5 410,-232.5 330,-232.5"/>
<text text-anchor="middle" x="370" y="-239.5" font-family="Helvetica,sans-Serif" font-size="10.00">ObjectPtrBase</text>
</a>
</g>
</g>
<!-- Node13&#45;&gt;Node12 -->
<g id="edge9" class="edge">
<title>Node13&#45;&gt;Node12</title>
<path fill="none" stroke="midnightblue" d="M366.59,-222.48C362.18,-198.55 354.61,-157.4 350.63,-135.76"/>
<polygon fill="midnightblue" stroke="midnightblue" points="363.17,-223.2 368.42,-232.41 370.05,-221.94 363.17,-223.2"/>
</g>
<!-- Node15 -->
<g id="node12" class="node">
<title>Node15</title>
<g id="a_node12"><a xlink:href="../../dd/d7c/classnap_1_1rtti_1_1_object_ptr.html" target="_top" xlink:title="ObjectPtr\&lt; nap::UniformStruct \&gt;">
<polygon fill="white" stroke="black" points="376.5,-154.5 376.5,-173.5 533.5,-173.5 533.5,-154.5 376.5,-154.5"/>
<text text-anchor="middle" x="455" y="-161.5" font-family="Helvetica,sans-Serif" font-size="10.00">ObjectPtr&lt; nap::UniformStruct &gt;</text>
</a>
</g>
</g>
<!-- Node13&#45;&gt;Node15 -->
<g id="edge12" class="edge">
<title>Node13&#45;&gt;Node15</title>
<path fill="none" stroke="midnightblue" d="M387.55,-225.3C405.07,-209.64 431.34,-186.16 445.36,-173.62"/>
<polygon fill="midnightblue" stroke="midnightblue" points="384.87,-223.01 379.75,-232.28 389.54,-228.23 384.87,-223.01"/>
</g>
<!-- Node14 -->
<g id="node11" class="node">
<title>Node14</title>
<g id="a_node11"><a xlink:href="../../d3/d72/structnap_1_1_struct_buffer_descriptor.html" target="_top" xlink:title="StructBufferDescriptor">
<polygon fill="white" stroke="black" points="399,-67.5 399,-86.5 511,-86.5 511,-67.5 399,-67.5"/>
<text text-anchor="middle" x="455" y="-74.5" font-family="Helvetica,sans-Serif" font-size="10.00">StructBufferDescriptor</text>
</a>
</g>
</g>
<!-- Node14&#45;&gt;Node4 -->
<g id="edge10" class="edge">
<title>Node14&#45;&gt;Node4</title>
<path fill="none" stroke="#9a32cd" stroke-dasharray="5,2" d="M429.36,-62.77C404.41,-49.9 367.2,-30.71 345.8,-19.67"/>
<polygon fill="#9a32cd" stroke="#9a32cd" points="427.78,-65.89 438.27,-67.37 430.99,-59.67 427.78,-65.89"/>
<text text-anchor="middle" x="427" y="-41" font-family="Helvetica,sans-Serif" font-size="10.00"> mDescriptor</text>
</g>
<!-- Node15&#45;&gt;Node14 -->
<g id="edge11" class="edge">
<title>Node15&#45;&gt;Node14</title>
<path fill="none" stroke="#9a32cd" stroke-dasharray="5,2" d="M455,-144.12C455,-126.29 455,-100.33 455,-86.86"/>
<polygon fill="#9a32cd" stroke="#9a32cd" points="451.5,-144.22 455,-154.22 458.5,-144.22 451.5,-144.22"/>
<text text-anchor="middle" x="479" y="-118" font-family="Helvetica,sans-Serif" font-size="10.00"> mElement</text>
</g>
</g>
</svg>
