<?xml version="1.0" encoding="UTF-8" standalone="no"?>
<!DOCTYPE svg PUBLIC "-//W3C//DTD SVG 1.1//EN"
 "http://www.w3.org/Graphics/SVG/1.1/DTD/svg11.dtd">
<!-- Generated by graphviz version 2.43.0 (0)
 -->
<!-- Title: Window Pages: 1 -->
<svg width="200pt" height="163pt"
 viewBox="0.00 0.00 199.50 163.00" xmlns="http://www.w3.org/2000/svg" xmlns:xlink="http://www.w3.org/1999/xlink">
<g id="graph0" class="graph" transform="scale(1 1) rotate(0) translate(4 159)">
<title>Window</title>
<polygon fill="white" stroke="transparent" points="-4,4 -4,-159 195.5,-159 195.5,4 -4,4"/>
<!-- Node1 -->
<g id="node1" class="node">
<title>Node1</title>
<g id="a_node1"><a xlink:title=" ">
<polygon fill="#bfbfbf" stroke="black" points="55,-0.5 55,-19.5 111,-19.5 111,-0.5 55,-0.5"/>
<text text-anchor="middle" x="83" y="-7.5" font-family="Helvetica,sans-Serif" font-size="10.00">Window</text>
</a>
</g>
</g>
<!-- Node2 -->
<g id="node2" class="node">
<title>Node2</title>
<g id="a_node2"><a xlink:href="../../d9/dea/classnap_1_1_resource.html" target="_top" xlink:title=" ">
<polygon fill="white" stroke="black" points="0,-73 0,-92 62,-92 62,-73 0,-73"/>
<text text-anchor="middle" x="31" y="-80" font-family="Helvetica,sans-Serif" font-size="10.00">Resource</text>
</a>
</g>
</g>
<!-- Node2&#45;&gt;Node1 -->
<g id="edge1" class="edge">
<title>Node2&#45;&gt;Node1</title>
<path fill="none" stroke="midnightblue" d="M43.54,-64.5C53.96,-50.37 68.36,-30.85 76.57,-19.72"/>
<polygon fill="midnightblue" stroke="midnightblue" points="40.5,-62.73 37.38,-72.86 46.13,-66.89 40.5,-62.73"/>
</g>
<!-- Node3 -->
<g id="node3" class="node">
<title>Node3</title>
<g id="a_node3"><a xlink:href="../../de/d01/classnap_1_1rtti_1_1_object.html" target="_top" xlink:title=" ">
<polygon fill="white" stroke="black" points="7,-135.5 7,-154.5 55,-154.5 55,-135.5 7,-135.5"/>
<text text-anchor="middle" x="31" y="-142.5" font-family="Helvetica,sans-Serif" font-size="10.00">Object</text>
</a>
</g>
</g>
<!-- Node3&#45;&gt;Node2 -->
<g id="edge2" class="edge">
<title>Node3&#45;&gt;Node2</title>
<path fill="none" stroke="midnightblue" d="M31,-125C31,-114 31,-100.68 31,-92.15"/>
<polygon fill="midnightblue" stroke="midnightblue" points="27.5,-125.33 31,-135.33 34.5,-125.33 27.5,-125.33"/>
</g>
<!-- Node4 -->
<g id="node4" class="node">
<title>Node4</title>
<g id="a_node4"><a xlink:href="../../de/d80/classnap_1_1_signal.html" target="_top" xlink:title=" ">
<polygon fill="white" stroke="black" points="80.5,-67.5 80.5,-97.5 191.5,-97.5 191.5,-67.5 80.5,-67.5"/>
<text text-anchor="start" x="88.5" y="-85.5" font-family="Helvetica,sans-Serif" font-size="10.00">Signal&lt; const nap::</text>
<text text-anchor="middle" x="136" y="-74.5" font-family="Helvetica,sans-Serif" font-size="10.00">WindowEvent &amp; &gt;</text>
</a>
</g>
</g>
<!-- Node4&#45;&gt;Node1 -->
<g id="edge3" class="edge">
<title>Node4&#45;&gt;Node1</title>
<path fill="none" stroke="#9a32cd" stroke-dasharray="5,2" d="M119.09,-59.01C109.11,-45.73 97.03,-29.66 89.69,-19.89"/>
<polygon fill="#9a32cd" stroke="#9a32cd" points="116.47,-61.34 125.27,-67.23 122.06,-57.14 116.47,-61.34"/>
<text text-anchor="middle" x="151" y="-41" font-family="Helvetica,sans-Serif" font-size="10.00"> mWindowEvent</text>
</g>
</g>
</svg>
