<?xml version="1.0" encoding="UTF-8" standalone="no"?>
<!DOCTYPE svg PUBLIC "-//W3C//DTD SVG 1.1//EN"
 "http://www.w3.org/Graphics/SVG/1.1/DTD/svg11.dtd">
<!-- Generated by graphviz version 3.0.0 (20220226.1711)
 -->
<!-- Title: SequencePlayer Pages: 1 -->
<svg width="601pt" height="373pt"
 viewBox="0.00 0.00 601.00 373.00" xmlns="http://www.w3.org/2000/svg" xmlns:xlink="http://www.w3.org/1999/xlink">
<g id="graph0" class="graph" transform="scale(1 1) rotate(0) translate(4 369)">
<title>SequencePlayer</title>
<polygon fill="white" stroke="transparent" points="-4,4 -4,-369 597,-369 597,4 -4,4"/>
<!-- Node4 -->
<g id="node1" class="node">
<title>Node4</title>
<polygon fill="#bfbfbf" stroke="black" points="505,-159.5 505,-178.5 593,-178.5 593,-159.5 505,-159.5"/>
<text text-anchor="middle" x="549" y="-166.5" font-family="Helvetica,sans-Serif" font-size="10.00">SequencePlayer</text>
</g>
<!-- Node5 -->
<g id="node2" class="node">
<title>Node5</title>
<g id="a_node2"><a xlink:href="../../d3/dc5/classnap_1_1_device.html" target="_top" xlink:title="Device">
<polygon fill="white" stroke="black" points="257,-345.5 257,-364.5 302,-364.5 302,-345.5 257,-345.5"/>
<text text-anchor="middle" x="279.5" y="-352.5" font-family="Helvetica,sans-Serif" font-size="10.00">Device</text>
</a>
</g>
</g>
<!-- Node5&#45;&gt;Node4 -->
<g id="edge1" class="edge">
<title>Node5&#45;&gt;Node4</title>
<path fill="none" stroke="midnightblue" d="M312.41,-357.75C356.59,-359.8 436.63,-356.9 487,-316 531.61,-279.77 544,-205.37 547.08,-178.74"/>
<polygon fill="midnightblue" stroke="midnightblue" points="312.44,-354.25 302.25,-357.16 312.03,-361.24 312.44,-354.25"/>
</g>
<!-- Node6 -->
<g id="node3" class="node">
<title>Node6</title>
<g id="a_node3"><a xlink:href="../../d9/dea/classnap_1_1_resource.html" target="_top" xlink:title="Resource">
<polygon fill="white" stroke="black" points="93,-345.5 93,-364.5 151,-364.5 151,-345.5 93,-345.5"/>
<text text-anchor="middle" x="122" y="-352.5" font-family="Helvetica,sans-Serif" font-size="10.00">Resource</text>
</a>
</g>
</g>
<!-- Node6&#45;&gt;Node5 -->
<g id="edge2" class="edge">
<title>Node6&#45;&gt;Node5</title>
<path fill="none" stroke="midnightblue" d="M161.27,-355C191.24,-355 231.86,-355 256.57,-355"/>
<polygon fill="midnightblue" stroke="midnightblue" points="161.16,-351.5 151.16,-355 161.16,-358.5 161.16,-351.5"/>
</g>
<!-- Node7 -->
<g id="node4" class="node">
<title>Node7</title>
<g id="a_node4"><a xlink:href="../../de/d01/classnap_1_1rtti_1_1_object.html" target="_top" xlink:title="Object">
<polygon fill="white" stroke="black" points="0,-345.5 0,-364.5 45,-364.5 45,-345.5 0,-345.5"/>
<text text-anchor="middle" x="22.5" y="-352.5" font-family="Helvetica,sans-Serif" font-size="10.00">Object</text>
</a>
</g>
</g>
<!-- Node7&#45;&gt;Node6 -->
<g id="edge3" class="edge">
<title>Node7&#45;&gt;Node6</title>
<path fill="none" stroke="midnightblue" d="M55.26,-355C67.34,-355 81.02,-355 92.75,-355"/>
<polygon fill="midnightblue" stroke="midnightblue" points="55.14,-351.5 45.14,-355 55.14,-358.5 55.14,-351.5"/>
</g>
<!-- Node8 -->
<g id="node5" class="node">
<title>Node8</title>
<g id="a_node5"><a xlink:href="../../de/d80/classnap_1_1_signal.html" target="_top" xlink:title="Signal\&lt; nap::SequencePlayer\l &amp;, bool \&gt;">
<polygon fill="white" stroke="black" points="206.5,-296 206.5,-326 352.5,-326 352.5,-296 206.5,-296"/>
<text text-anchor="start" x="214.5" y="-314" font-family="Helvetica,sans-Serif" font-size="10.00">Signal&lt; nap::SequencePlayer</text>
<text text-anchor="middle" x="279.5" y="-303" font-family="Helvetica,sans-Serif" font-size="10.00"> &amp;, bool &gt;</text>
</a>
</g>
</g>
<!-- Node8&#45;&gt;Node4 -->
<g id="edge4" class="edge">
<title>Node8&#45;&gt;Node4</title>
<path fill="none" stroke="#9a32cd" stroke-dasharray="5,2" d="M362.29,-295.61C402.4,-285.31 449.92,-268.77 487,-243 512.43,-225.32 533.11,-194.27 542.52,-178.61"/>
<polygon fill="#9a32cd" stroke="#9a32cd" points="361.4,-292.23 352.54,-298.03 363.08,-299.02 361.4,-292.23"/>
<text text-anchor="middle" x="432.5" y="-304" font-family="Helvetica,sans-Serif" font-size="10.00"> playStateChanged</text>
<text text-anchor="middle" x="432.5" y="-293" font-family="Helvetica,sans-Serif" font-size="10.00">pauseStateChanged</text>
</g>
<!-- Node9 -->
<g id="node6" class="node">
<title>Node9</title>
<polygon fill="white" stroke="#bfbfbf" points="199,-225 199,-277 360,-277 360,-225 199,-225"/>
<text text-anchor="start" x="207" y="-265" font-family="Helvetica,sans-Serif" font-size="10.00">Signal&lt; std::function</text>
<text text-anchor="start" x="207" y="-254" font-family="Helvetica,sans-Serif" font-size="10.00">&lt; void(const std::string</text>
<text text-anchor="start" x="207" y="-243" font-family="Helvetica,sans-Serif" font-size="10.00"> &amp;, std::unique_ptr&lt; nap</text>
<text text-anchor="middle" x="279.5" y="-232" font-family="Helvetica,sans-Serif" font-size="10.00">::SequencePlayerAdapter &gt;)&gt; &amp;&gt;</text>
</g>
<!-- Node9&#45;&gt;Node4 -->
<g id="edge5" class="edge">
<title>Node9&#45;&gt;Node4</title>
<path fill="none" stroke="#9a32cd" stroke-dasharray="5,2" d="M370.57,-231.07C407.14,-222.05 449.52,-210.39 487,-197 501.6,-191.79 517.49,-184.43 529.39,-178.57"/>
<polygon fill="#9a32cd" stroke="#9a32cd" points="369.31,-227.78 360.42,-233.55 370.97,-234.58 369.31,-227.78"/>
<text text-anchor="middle" x="432.5" y="-231" font-family="Helvetica,sans-Serif" font-size="10.00"> adaptersCreated</text>
</g>
<!-- Node10 -->
<g id="node7" class="node">
<title>Node10</title>
<g id="a_node7"><a xlink:href="../../dd/d7c/classnap_1_1rtti_1_1_object_ptr.html" target="_top" xlink:title="ObjectPtr\&lt; nap::Sequence\lPlayerClock \&gt;">
<polygon fill="white" stroke="black" points="213.5,-176 213.5,-206 345.5,-206 345.5,-176 213.5,-176"/>
<text text-anchor="start" x="221.5" y="-194" font-family="Helvetica,sans-Serif" font-size="10.00">ObjectPtr&lt; nap::Sequence</text>
<text text-anchor="middle" x="279.5" y="-183" font-family="Helvetica,sans-Serif" font-size="10.00">PlayerClock &gt;</text>
</a>
</g>
</g>
<!-- Node10&#45;&gt;Node4 -->
<g id="edge6" class="edge">
<title>Node10&#45;&gt;Node4</title>
<path fill="none" stroke="#9a32cd" stroke-dasharray="5,2" d="M355.67,-184.82C403.84,-180.86 464.64,-175.86 504.84,-172.55"/>
<polygon fill="#9a32cd" stroke="#9a32cd" points="355.28,-181.34 345.6,-185.65 355.85,-188.31 355.28,-181.34"/>
<text text-anchor="middle" x="432.5" y="-185" font-family="Helvetica,sans-Serif" font-size="10.00"> mClock</text>
</g>
<!-- Node11 -->
<g id="node8" class="node">
<title>Node11</title>
<g id="a_node8"><a xlink:href="../../d7/dcb/classnap_1_1rtti_1_1_object_ptr_base.html" target="_top" xlink:title="ObjectPtrBase">
<polygon fill="white" stroke="black" points="82,-181.5 82,-200.5 162,-200.5 162,-181.5 82,-181.5"/>
<text text-anchor="middle" x="122" y="-188.5" font-family="Helvetica,sans-Serif" font-size="10.00">ObjectPtrBase</text>
</a>
</g>
</g>
<!-- Node11&#45;&gt;Node10 -->
<g id="edge7" class="edge">
<title>Node11&#45;&gt;Node10</title>
<path fill="none" stroke="midnightblue" d="M172.36,-191C185.35,-191 199.57,-191 213.26,-191"/>
<polygon fill="midnightblue" stroke="midnightblue" points="172.24,-187.5 162.24,-191 172.24,-194.5 172.24,-187.5"/>
</g>
<!-- Node12 -->
<g id="node9" class="node">
<title>Node12</title>
<g id="a_node9"><a xlink:href="../../de/d80/classnap_1_1_signal.html" target="_top" xlink:title="Signal\&lt; nap::SequencePlayer &amp;\&gt;">
<polygon fill="white" stroke="black" points="199,-137.5 199,-156.5 360,-156.5 360,-137.5 199,-137.5"/>
<text text-anchor="middle" x="279.5" y="-144.5" font-family="Helvetica,sans-Serif" font-size="10.00">Signal&lt; nap::SequencePlayer &amp;&gt;</text>
</a>
</g>
</g>
<!-- Node12&#45;&gt;Node4 -->
<g id="edge8" class="edge">
<title>Node12&#45;&gt;Node4</title>
<path fill="none" stroke="#9a32cd" stroke-dasharray="5,2" d="M370.55,-141.09C406.94,-140.35 449.2,-141.58 487,-148 500.25,-150.25 514.48,-155 525.86,-159.42"/>
<polygon fill="#9a32cd" stroke="#9a32cd" points="370.36,-137.6 360.45,-141.35 370.54,-144.6 370.36,-137.6"/>
<text text-anchor="middle" x="432.5" y="-162" font-family="Helvetica,sans-Serif" font-size="10.00"> postTick</text>
<text text-anchor="middle" x="432.5" y="-151" font-family="Helvetica,sans-Serif" font-size="10.00">preTick</text>
</g>
<!-- Node13 -->
<g id="node10" class="node">
<title>Node13</title>
<g id="a_node10"><a xlink:href="../../de/d80/classnap_1_1_signal.html" target="_top" xlink:title="Signal\&lt; nap::SequencePlayer\l &amp;, double \&gt;">
<polygon fill="white" stroke="black" points="206.5,-88 206.5,-118 352.5,-118 352.5,-88 206.5,-88"/>
<text text-anchor="start" x="214.5" y="-106" font-family="Helvetica,sans-Serif" font-size="10.00">Signal&lt; nap::SequencePlayer</text>
<text text-anchor="middle" x="279.5" y="-95" font-family="Helvetica,sans-Serif" font-size="10.00"> &amp;, double &gt;</text>
</a>
</g>
</g>
<!-- Node13&#45;&gt;Node4 -->
<g id="edge9" class="edge">
<title>Node13&#45;&gt;Node4</title>
<path fill="none" stroke="#9a32cd" stroke-dasharray="5,2" d="M363.06,-102.12C401.78,-104.12 447.9,-110.04 487,-125 507.24,-132.75 526.88,-148.95 538.19,-159.38"/>
<polygon fill="#9a32cd" stroke="#9a32cd" points="363.01,-98.62 352.87,-101.68 362.7,-105.61 363.01,-98.62"/>
<text text-anchor="middle" x="432.5" y="-128" font-family="Helvetica,sans-Serif" font-size="10.00"> playerTimeChanged</text>
</g>
<!-- Node14 -->
<g id="node11" class="node">
<title>Node14</title>
<g id="a_node11"><a xlink:href="../../de/d80/classnap_1_1_signal.html" target="_top" xlink:title="Signal\&lt; nap::SequencePlayer\l &amp;, float \&gt;">
<polygon fill="white" stroke="black" points="206.5,-39 206.5,-69 352.5,-69 352.5,-39 206.5,-39"/>
<text text-anchor="start" x="214.5" y="-57" font-family="Helvetica,sans-Serif" font-size="10.00">Signal&lt; nap::SequencePlayer</text>
<text text-anchor="middle" x="279.5" y="-46" font-family="Helvetica,sans-Serif" font-size="10.00"> &amp;, float &gt;</text>
</a>
</g>
</g>
<!-- Node14&#45;&gt;Node4 -->
<g id="edge10" class="edge">
<title>Node14&#45;&gt;Node4</title>
<path fill="none" stroke="#9a32cd" stroke-dasharray="5,2" d="M362.92,-53.56C402.85,-56.7 450.03,-65.63 487,-88 515.77,-105.41 535.56,-141.93 543.76,-159.35"/>
<polygon fill="#9a32cd" stroke="#9a32cd" points="363.15,-50.07 352.93,-52.88 362.67,-57.05 363.15,-50.07"/>
<text text-anchor="middle" x="432.5" y="-91" font-family="Helvetica,sans-Serif" font-size="10.00"> playbackSpeedChanged</text>
</g>
<!-- Node15 -->
<g id="node12" class="node">
<title>Node15</title>
<g id="a_node12"><a xlink:href="../../df/dbe/classnap_1_1_sequence_service.html" target="_top" xlink:title="SequenceService">
<polygon fill="white" stroke="black" points="233.5,-0.5 233.5,-19.5 325.5,-19.5 325.5,-0.5 233.5,-0.5"/>
<text text-anchor="middle" x="279.5" y="-7.5" font-family="Helvetica,sans-Serif" font-size="10.00">SequenceService</text>
</a>
</g>
</g>
<!-- Node15&#45;&gt;Node4 -->
<g id="edge11" class="edge">
<title>Node15&#45;&gt;Node4</title>
<path fill="none" stroke="#9a32cd" stroke-dasharray="5,2" d="M335.91,-4.52C380.85,-3.02 443.63,-7.93 487,-40 527.84,-70.19 542.39,-134.75 546.56,-159.28"/>
<polygon fill="#9a32cd" stroke="#9a32cd" points="335.58,-1.03 325.75,-4.98 335.9,-8.02 335.58,-1.03"/>
<text text-anchor="middle" x="432.5" y="-43" font-family="Helvetica,sans-Serif" font-size="10.00"> mService</text>
</g>
<!-- Node16 -->
<g id="node13" class="node">
<title>Node16</title>
<g id="a_node13"><a xlink:href="../../d8/d8e/classnap_1_1_service.html" target="_top" xlink:title="Service">
<polygon fill="white" stroke="black" points="98,-0.5 98,-19.5 146,-19.5 146,-0.5 98,-0.5"/>
<text text-anchor="middle" x="122" y="-7.5" font-family="Helvetica,sans-Serif" font-size="10.00">Service</text>
</a>
</g>
</g>
<!-- Node16&#45;&gt;Node15 -->
<g id="edge12" class="edge">
<title>Node16&#45;&gt;Node15</title>
<path fill="none" stroke="midnightblue" d="M156.36,-10C178.87,-10 208.84,-10 233.46,-10"/>
<polygon fill="midnightblue" stroke="midnightblue" points="156.28,-6.5 146.28,-10 156.28,-13.5 156.28,-6.5"/>
</g>
</g>
</svg>
