<?xml version="1.0" encoding="UTF-8" standalone="no"?>
<!DOCTYPE svg PUBLIC "-//W3C//DTD SVG 1.1//EN"
 "http://www.w3.org/Graphics/SVG/1.1/DTD/svg11.dtd">
<!-- Generated by graphviz version 2.48.0 (20210717.1556)
 -->
<!-- Title: BitmapFromFile Pages: 1 -->
<svg width="309pt" height="209pt"
 viewBox="0.00 0.00 309.00 209.00" xmlns="http://www.w3.org/2000/svg" xmlns:xlink="http://www.w3.org/1999/xlink">
<g id="graph0" class="graph" transform="scale(1 1) rotate(0) translate(4 205)">
<title>BitmapFromFile</title>
<polygon fill="white" stroke="transparent" points="-4,4 -4,-205 305,-205 305,4 -4,4"/>
<!-- Node4 -->
<g id="node1" class="node">
<title>Node4</title>
<polygon fill="#bfbfbf" stroke="black" points="80,-0.5 80,-19.5 166,-19.5 166,-0.5 80,-0.5"/>
<text text-anchor="middle" x="123" y="-7.5" font-family="Helvetica,sans-Serif" font-size="10.00">BitmapFromFile</text>
</g>
<!-- Node5 -->
<g id="node2" class="node">
<title>Node5</title>
<g id="a_node2"><a xlink:href="../../df/dfc/classnap_1_1_bitmap.html" target="_top" xlink:title="Bitmap">
<polygon fill="white" stroke="black" points="99.5,-57.5 99.5,-76.5 146.5,-76.5 146.5,-57.5 99.5,-57.5"/>
<text text-anchor="middle" x="123" y="-64.5" font-family="Helvetica,sans-Serif" font-size="10.00">Bitmap</text>
</a>
</g>
</g>
<!-- Node5&#45;&gt;Node4 -->
<g id="edge1" class="edge">
<title>Node5&#45;&gt;Node4</title>
<path fill="none" stroke="midnightblue" d="M123,-47.12C123,-37.82 123,-27.06 123,-19.71"/>
<polygon fill="midnightblue" stroke="midnightblue" points="119.5,-47.41 123,-57.41 126.5,-47.41 119.5,-47.41"/>
</g>
<!-- Node6 -->
<g id="node3" class="node">
<title>Node6</title>
<g id="a_node3"><a xlink:href="../../d9/dea/classnap_1_1_resource.html" target="_top" xlink:title="Resource">
<polygon fill="white" stroke="black" points="0,-124.5 0,-143.5 58,-143.5 58,-124.5 0,-124.5"/>
<text text-anchor="middle" x="29" y="-131.5" font-family="Helvetica,sans-Serif" font-size="10.00">Resource</text>
</a>
</g>
</g>
<!-- Node6&#45;&gt;Node5 -->
<g id="edge2" class="edge">
<title>Node6&#45;&gt;Node5</title>
<path fill="none" stroke="midnightblue" d="M50.09,-118.42C68.67,-105.57 95.12,-87.28 110.52,-76.63"/>
<polygon fill="midnightblue" stroke="midnightblue" points="47.91,-115.67 41.68,-124.23 51.89,-121.43 47.91,-115.67"/>
</g>
<!-- Node7 -->
<g id="node4" class="node">
<title>Node7</title>
<g id="a_node4"><a xlink:href="../../de/d01/classnap_1_1rtti_1_1_object.html" target="_top" xlink:title="Object">
<polygon fill="white" stroke="black" points="6.5,-181.5 6.5,-200.5 51.5,-200.5 51.5,-181.5 6.5,-181.5"/>
<text text-anchor="middle" x="29" y="-188.5" font-family="Helvetica,sans-Serif" font-size="10.00">Object</text>
</a>
</g>
</g>
<!-- Node7&#45;&gt;Node6 -->
<g id="edge3" class="edge">
<title>Node7&#45;&gt;Node6</title>
<path fill="none" stroke="midnightblue" d="M29,-171.12C29,-161.82 29,-151.06 29,-143.71"/>
<polygon fill="midnightblue" stroke="midnightblue" points="25.5,-171.41 29,-181.41 32.5,-171.41 25.5,-171.41"/>
</g>
<!-- Node8 -->
<g id="node5" class="node">
<title>Node8</title>
<g id="a_node5"><a xlink:href="../../d9/d76/structnap_1_1_surface_descriptor.html" target="_top" xlink:title="SurfaceDescriptor">
<polygon fill="white" stroke="black" points="76,-124.5 76,-143.5 170,-143.5 170,-124.5 76,-124.5"/>
<text text-anchor="middle" x="123" y="-131.5" font-family="Helvetica,sans-Serif" font-size="10.00">SurfaceDescriptor</text>
</a>
</g>
</g>
<!-- Node8&#45;&gt;Node5 -->
<g id="edge4" class="edge">
<title>Node8&#45;&gt;Node5</title>
<path fill="none" stroke="#9a32cd" stroke-dasharray="5,2" d="M123,-114.04C123,-101.67 123,-86.12 123,-76.63"/>
<polygon fill="#9a32cd" stroke="#9a32cd" points="119.5,-114.23 123,-124.23 126.5,-114.23 119.5,-114.23"/>
<text text-anchor="middle" x="167.5" y="-98" font-family="Helvetica,sans-Serif" font-size="10.00"> mSurfaceDescriptor</text>
</g>
<!-- Node9 -->
<g id="node6" class="node">
<title>Node9</title>
<g id="a_node6"><a xlink:href="../../de/d80/classnap_1_1_signal.html" target="_top" xlink:title="Signal\&lt; Args \&gt;">
<polygon fill="white" stroke="black" points="194,-124.5 194,-143.5 276,-143.5 276,-124.5 194,-124.5"/>
<text text-anchor="middle" x="235" y="-131.5" font-family="Helvetica,sans-Serif" font-size="10.00">Signal&lt; Args &gt;</text>
</a>
</g>
</g>
<!-- Node9&#45;&gt;Node5 -->
<g id="edge5" class="edge">
<title>Node9&#45;&gt;Node5</title>
<path fill="none" stroke="#9a32cd" stroke-dasharray="5,2" d="M228,-114.87C224.46,-107.78 219.51,-100.14 213,-95 193.8,-79.83 166.2,-73.17 146.64,-70.25"/>
<polygon fill="#9a32cd" stroke="#9a32cd" points="224.99,-116.72 232.2,-124.49 231.41,-113.92 224.99,-116.72"/>
<text text-anchor="middle" x="261.5" y="-98" font-family="Helvetica,sans-Serif" font-size="10.00"> mBitmapUpdated</text>
</g>
</g>
</svg>
