<?xml version="1.0" encoding="UTF-8" standalone="no"?>
<!DOCTYPE svg PUBLIC "-//W3C//DTD SVG 1.1//EN"
 "http://www.w3.org/Graphics/SVG/1.1/DTD/svg11.dtd">
<!-- Generated by graphviz version 2.43.0 (0)
 -->
<!-- Title: BitmapFromFile Pages: 1 -->
<svg width="340pt" height="209pt"
 viewBox="0.00 0.00 340.00 209.00" xmlns="http://www.w3.org/2000/svg" xmlns:xlink="http://www.w3.org/1999/xlink">
<g id="graph0" class="graph" transform="scale(1 1) rotate(0) translate(4 205)">
<title>BitmapFromFile</title>
<polygon fill="white" stroke="transparent" points="-4,4 -4,-205 336,-205 336,4 -4,4"/>
<!-- Node1 -->
<g id="node1" class="node">
<title>Node1</title>
<g id="a_node1"><a xlink:title=" ">
<polygon fill="#bfbfbf" stroke="black" points="85,-0.5 85,-19.5 179,-19.5 179,-0.5 85,-0.5"/>
<text text-anchor="middle" x="132" y="-7.5" font-family="Helvetica,sans-Serif" font-size="10.00">BitmapFromFile</text>
</a>
</g>
</g>
<!-- Node2 -->
<g id="node2" class="node">
<title>Node2</title>
<g id="a_node2"><a xlink:href="../../df/dfc/classnap_1_1_bitmap.html" target="_top" xlink:title=" ">
<polygon fill="white" stroke="black" points="106,-57.5 106,-76.5 158,-76.5 158,-57.5 106,-57.5"/>
<text text-anchor="middle" x="132" y="-64.5" font-family="Helvetica,sans-Serif" font-size="10.00">Bitmap</text>
</a>
</g>
</g>
<!-- Node2&#45;&gt;Node1 -->
<g id="edge1" class="edge">
<title>Node2&#45;&gt;Node1</title>
<path fill="none" stroke="midnightblue" d="M132,-47.12C132,-37.82 132,-27.06 132,-19.71"/>
<polygon fill="midnightblue" stroke="midnightblue" points="128.5,-47.41 132,-57.41 135.5,-47.41 128.5,-47.41"/>
</g>
<!-- Node3 -->
<g id="node3" class="node">
<title>Node3</title>
<g id="a_node3"><a xlink:href="../../d9/dea/classnap_1_1_resource.html" target="_top" xlink:title=" ">
<polygon fill="white" stroke="black" points="0,-124.5 0,-143.5 62,-143.5 62,-124.5 0,-124.5"/>
<text text-anchor="middle" x="31" y="-131.5" font-family="Helvetica,sans-Serif" font-size="10.00">Resource</text>
</a>
</g>
</g>
<!-- Node3&#45;&gt;Node2 -->
<g id="edge2" class="edge">
<title>Node3&#45;&gt;Node2</title>
<path fill="none" stroke="midnightblue" d="M53.11,-118.77C73.11,-105.9 101.89,-87.38 118.59,-76.63"/>
<polygon fill="midnightblue" stroke="midnightblue" points="51.14,-115.88 44.62,-124.23 54.92,-121.77 51.14,-115.88"/>
</g>
<!-- Node4 -->
<g id="node4" class="node">
<title>Node4</title>
<g id="a_node4"><a xlink:href="../../de/d01/classnap_1_1rtti_1_1_object.html" target="_top" xlink:title=" ">
<polygon fill="white" stroke="black" points="7,-181.5 7,-200.5 55,-200.5 55,-181.5 7,-181.5"/>
<text text-anchor="middle" x="31" y="-188.5" font-family="Helvetica,sans-Serif" font-size="10.00">Object</text>
</a>
</g>
</g>
<!-- Node4&#45;&gt;Node3 -->
<g id="edge3" class="edge">
<title>Node4&#45;&gt;Node3</title>
<path fill="none" stroke="midnightblue" d="M31,-171.12C31,-161.82 31,-151.06 31,-143.71"/>
<polygon fill="midnightblue" stroke="midnightblue" points="27.5,-171.41 31,-181.41 34.5,-171.41 27.5,-171.41"/>
</g>
<!-- Node5 -->
<g id="node5" class="node">
<title>Node5</title>
<g id="a_node5"><a xlink:href="../../d9/d76/structnap_1_1_surface_descriptor.html" target="_top" xlink:title=" ">
<polygon fill="white" stroke="black" points="80,-124.5 80,-143.5 184,-143.5 184,-124.5 80,-124.5"/>
<text text-anchor="middle" x="132" y="-131.5" font-family="Helvetica,sans-Serif" font-size="10.00">SurfaceDescriptor</text>
</a>
</g>
</g>
<!-- Node5&#45;&gt;Node2 -->
<g id="edge4" class="edge">
<title>Node5&#45;&gt;Node2</title>
<path fill="none" stroke="#9a32cd" stroke-dasharray="5,2" d="M132,-114.04C132,-101.67 132,-86.12 132,-76.63"/>
<polygon fill="#9a32cd" stroke="#9a32cd" points="128.5,-114.23 132,-124.23 135.5,-114.23 128.5,-114.23"/>
<text text-anchor="middle" x="182" y="-98" font-family="Helvetica,sans-Serif" font-size="10.00"> mSurfaceDescriptor</text>
</g>
<!-- Node6 -->
<g id="node6" class="node">
<title>Node6</title>
<g id="a_node6"><a xlink:href="../../de/d80/classnap_1_1_signal.html" target="_top" xlink:title=" ">
<polygon fill="white" stroke="black" points="209.5,-124.5 209.5,-143.5 300.5,-143.5 300.5,-124.5 209.5,-124.5"/>
<text text-anchor="middle" x="255" y="-131.5" font-family="Helvetica,sans-Serif" font-size="10.00">Signal&lt; Args &gt;</text>
</a>
</g>
</g>
<!-- Node6&#45;&gt;Node2 -->
<g id="edge5" class="edge">
<title>Node6&#45;&gt;Node2</title>
<path fill="none" stroke="#9a32cd" stroke-dasharray="5,2" d="M248.08,-114.77C244.55,-107.67 239.59,-100.05 233,-95 211.24,-78.33 180.01,-71.94 158.05,-69.49"/>
<polygon fill="#9a32cd" stroke="#9a32cd" points="245.07,-116.63 252.25,-124.43 251.5,-113.86 245.07,-116.63"/>
<text text-anchor="middle" x="287" y="-98" font-family="Helvetica,sans-Serif" font-size="10.00"> mBitmapUpdated</text>
</g>
</g>
</svg>
