<?xml version="1.0" encoding="UTF-8" standalone="no"?>
<!DOCTYPE svg PUBLIC "-//W3C//DTD SVG 1.1//EN"
 "http://www.w3.org/Graphics/SVG/1.1/DTD/svg11.dtd">
<!-- Generated by graphviz version 2.48.0 (20210717.1556)
 -->
<!-- Title: Renderable2DGlyph Pages: 1 -->
<svg width="118pt" height="209pt"
 viewBox="0.00 0.00 118.00 209.00" xmlns="http://www.w3.org/2000/svg" xmlns:xlink="http://www.w3.org/1999/xlink">
<g id="graph0" class="graph" transform="scale(1 1) rotate(0) translate(4 205)">
<title>Renderable2DGlyph</title>
<polygon fill="white" stroke="transparent" points="-4,4 -4,-205 114,-205 114,4 -4,4"/>
<!-- Node3 -->
<g id="node1" class="node">
<title>Node3</title>
<polygon fill="#bfbfbf" stroke="black" points="3.5,-0.5 3.5,-19.5 106.5,-19.5 106.5,-0.5 3.5,-0.5"/>
<text text-anchor="middle" x="55" y="-7.5" font-family="Helvetica,sans-Serif" font-size="10.00">Renderable2DGlyph</text>
</g>
<!-- Node4 -->
<g id="node2" class="node">
<title>Node4</title>
<g id="a_node2"><a xlink:href="../../d7/d92/classnap_1_1_renderable_glyph.html" target="_top" xlink:title="RenderableGlyph">
<polygon fill="white" stroke="black" points="9.5,-57.5 9.5,-76.5 100.5,-76.5 100.5,-57.5 9.5,-57.5"/>
<text text-anchor="middle" x="55" y="-64.5" font-family="Helvetica,sans-Serif" font-size="10.00">RenderableGlyph</text>
</a>
</g>
</g>
<!-- Node4&#45;&gt;Node3 -->
<g id="edge1" class="edge">
<title>Node4&#45;&gt;Node3</title>
<path fill="none" stroke="midnightblue" d="M55,-47.12C55,-37.82 55,-27.06 55,-19.71"/>
<polygon fill="midnightblue" stroke="midnightblue" points="51.5,-47.41 55,-57.41 58.5,-47.41 51.5,-47.41"/>
</g>
<!-- Node5 -->
<g id="node3" class="node">
<title>Node5</title>
<g id="a_node3"><a xlink:href="../../d8/dd9/classnap_1_1_i_glyph_representation.html" target="_top" xlink:title="IGlyphRepresentation">
<polygon fill="white" stroke="black" points="0,-114.5 0,-133.5 110,-133.5 110,-114.5 0,-114.5"/>
<text text-anchor="middle" x="55" y="-121.5" font-family="Helvetica,sans-Serif" font-size="10.00">IGlyphRepresentation</text>
</a>
</g>
</g>
<!-- Node5&#45;&gt;Node4 -->
<g id="edge2" class="edge">
<title>Node5&#45;&gt;Node4</title>
<path fill="none" stroke="midnightblue" d="M55,-104.12C55,-94.82 55,-84.06 55,-76.71"/>
<polygon fill="midnightblue" stroke="midnightblue" points="51.5,-104.41 55,-114.41 58.5,-104.41 51.5,-104.41"/>
</g>
<!-- Node6 -->
<g id="node4" class="node">
<title>Node6</title>
<g id="a_node4"><a xlink:href="../../d0/dfd/classnap_1_1_core.html" target="_top" xlink:title="Core">
<polygon fill="white" stroke="black" points="36.5,-181.5 36.5,-200.5 73.5,-200.5 73.5,-181.5 36.5,-181.5"/>
<text text-anchor="middle" x="55" y="-188.5" font-family="Helvetica,sans-Serif" font-size="10.00">Core</text>
</a>
</g>
</g>
<!-- Node6&#45;&gt;Node5 -->
<g id="edge3" class="edge">
<title>Node6&#45;&gt;Node5</title>
<path fill="none" stroke="#9a32cd" stroke-dasharray="5,2" d="M55,-171.04C55,-158.67 55,-143.12 55,-133.63"/>
<polygon fill="#9a32cd" stroke="#9a32cd" points="51.5,-171.23 55,-181.23 58.5,-171.23 51.5,-171.23"/>
<text text-anchor="middle" x="71" y="-155" font-family="Helvetica,sans-Serif" font-size="10.00"> mCore</text>
</g>
</g>
</svg>
