<?xml version="1.0" encoding="UTF-8" standalone="no"?>
<!DOCTYPE svg PUBLIC "-//W3C//DTD SVG 1.1//EN"
 "http://www.w3.org/Graphics/SVG/1.1/DTD/svg11.dtd">
<!-- Generated by graphviz version 2.43.0 (0)
 -->
<!-- Title: SequenceTrackView Pages: 1 -->
<svg width="469pt" height="84pt"
 viewBox="0.00 0.00 469.00 84.00" xmlns="http://www.w3.org/2000/svg" xmlns:xlink="http://www.w3.org/1999/xlink">
<g id="graph0" class="graph" transform="scale(1 1) rotate(0) translate(4 80)">
<title>SequenceTrackView</title>
<polygon fill="white" stroke="transparent" points="-4,4 -4,-80 465,-80 465,4 -4,4"/>
<!-- Node1 -->
<g id="node1" class="node">
<title>Node1</title>
<g id="a_node1"><a xlink:title=" ">
<polygon fill="#bfbfbf" stroke="black" points="174,-56.5 174,-75.5 287,-75.5 287,-56.5 174,-56.5"/>
<text text-anchor="middle" x="230.5" y="-63.5" font-family="Helvetica,sans-Serif" font-size="10.00">SequenceTrackView</text>
</a>
</g>
</g>
<!-- Node2 -->
<g id="node2" class="node">
<title>Node2</title>
<g id="a_node2"><a xlink:href="../../dd/d4f/classnap_1_1_sequence_audio_track_view.html" target="_top" xlink:title=" ">
<polygon fill="white" stroke="black" points="0,-0.5 0,-19.5 141,-19.5 141,-0.5 0,-0.5"/>
<text text-anchor="middle" x="70.5" y="-7.5" font-family="Helvetica,sans-Serif" font-size="10.00">SequenceAudioTrackView</text>
</a>
</g>
</g>
<!-- Node1&#45;&gt;Node2 -->
<g id="edge1" class="edge">
<title>Node1&#45;&gt;Node2</title>
<path fill="none" stroke="midnightblue" d="M195.45,-53.17C165.33,-43 122.6,-28.59 95.73,-19.52"/>
<polygon fill="midnightblue" stroke="midnightblue" points="194.55,-56.56 205.15,-56.44 196.79,-49.93 194.55,-56.56"/>
</g>
<!-- Node3 -->
<g id="node3" class="node">
<title>Node3</title>
<g id="a_node3"><a xlink:href="../../d9/db2/classnap_1_1_sequence_curve_track_view.html" target="_top" xlink:title=" ">
<polygon fill="white" stroke="black" points="159.5,-0.5 159.5,-19.5 301.5,-19.5 301.5,-0.5 159.5,-0.5"/>
<text text-anchor="middle" x="230.5" y="-7.5" font-family="Helvetica,sans-Serif" font-size="10.00">SequenceCurveTrackView</text>
</a>
</g>
</g>
<!-- Node1&#45;&gt;Node3 -->
<g id="edge2" class="edge">
<title>Node1&#45;&gt;Node3</title>
<path fill="none" stroke="midnightblue" d="M230.5,-45.8C230.5,-36.91 230.5,-26.78 230.5,-19.75"/>
<polygon fill="midnightblue" stroke="midnightblue" points="227,-46.08 230.5,-56.08 234,-46.08 227,-46.08"/>
</g>
<!-- Node4 -->
<g id="node4" class="node">
<title>Node4</title>
<g id="a_node4"><a xlink:href="../../d0/d1b/classnap_1_1_sequence_event_track_view.html" target="_top" xlink:title=" ">
<polygon fill="white" stroke="black" points="320,-0.5 320,-19.5 461,-19.5 461,-0.5 320,-0.5"/>
<text text-anchor="middle" x="390.5" y="-7.5" font-family="Helvetica,sans-Serif" font-size="10.00">SequenceEventTrackView</text>
</a>
</g>
</g>
<!-- Node1&#45;&gt;Node4 -->
<g id="edge3" class="edge">
<title>Node1&#45;&gt;Node4</title>
<path fill="none" stroke="midnightblue" d="M265.55,-53.17C295.67,-43 338.4,-28.59 365.27,-19.52"/>
<polygon fill="midnightblue" stroke="midnightblue" points="264.21,-49.93 255.85,-56.44 266.45,-56.56 264.21,-49.93"/>
</g>
</g>
</svg>
