<?xml version="1.0" encoding="UTF-8" standalone="no"?>
<!DOCTYPE svg PUBLIC "-//W3C//DTD SVG 1.1//EN"
 "http://www.w3.org/Graphics/SVG/1.1/DTD/svg11.dtd">
<!-- Generated by graphviz version 2.48.0 (20210717.1556)
 -->
<!-- Title: SequenceTrackView Pages: 1 -->
<svg width="433pt" height="84pt"
 viewBox="0.00 0.00 432.50 84.00" xmlns="http://www.w3.org/2000/svg" xmlns:xlink="http://www.w3.org/1999/xlink">
<g id="graph0" class="graph" transform="scale(1 1) rotate(0) translate(4 80)">
<title>SequenceTrackView</title>
<polygon fill="white" stroke="transparent" points="-4,4 -4,-80 428.5,-80 428.5,4 -4,4"/>
<!-- Node0 -->
<g id="node1" class="node">
<title>Node0</title>
<polygon fill="#bfbfbf" stroke="black" points="160.5,-56.5 160.5,-75.5 265.5,-75.5 265.5,-56.5 160.5,-56.5"/>
<text text-anchor="middle" x="213" y="-63.5" font-family="Helvetica,sans-Serif" font-size="10.00">SequenceTrackView</text>
</g>
<!-- Node1 -->
<g id="node2" class="node">
<title>Node1</title>
<g id="a_node2"><a xlink:href="../../dd/d4f/classnap_1_1_sequence_audio_track_view.html" target="_top" xlink:title="SequenceAudioTrackView">
<polygon fill="white" stroke="black" points="0,-0.5 0,-19.5 130,-19.5 130,-0.5 0,-0.5"/>
<text text-anchor="middle" x="65" y="-7.5" font-family="Helvetica,sans-Serif" font-size="10.00">SequenceAudioTrackView</text>
</a>
</g>
</g>
<!-- Node0&#45;&gt;Node1 -->
<g id="edge1" class="edge">
<title>Node0&#45;&gt;Node1</title>
<path fill="none" stroke="midnightblue" d="M179.85,-52.91C152.03,-42.75 112.98,-28.51 88.34,-19.52"/>
<polygon fill="midnightblue" stroke="midnightblue" points="178.96,-56.3 189.55,-56.44 181.35,-49.73 178.96,-56.3"/>
</g>
<!-- Node2 -->
<g id="node3" class="node">
<title>Node2</title>
<g id="a_node3"><a xlink:href="../../d9/db2/classnap_1_1_sequence_curve_track_view.html" target="_top" xlink:title="SequenceCurveTrackView">
<polygon fill="white" stroke="black" points="148.5,-0.5 148.5,-19.5 277.5,-19.5 277.5,-0.5 148.5,-0.5"/>
<text text-anchor="middle" x="213" y="-7.5" font-family="Helvetica,sans-Serif" font-size="10.00">SequenceCurveTrackView</text>
</a>
</g>
</g>
<!-- Node0&#45;&gt;Node2 -->
<g id="edge2" class="edge">
<title>Node0&#45;&gt;Node2</title>
<path fill="none" stroke="midnightblue" d="M213,-45.8C213,-36.91 213,-26.78 213,-19.75"/>
<polygon fill="midnightblue" stroke="midnightblue" points="209.5,-46.08 213,-56.08 216.5,-46.08 209.5,-46.08"/>
</g>
<!-- Node3 -->
<g id="node4" class="node">
<title>Node3</title>
<g id="a_node4"><a xlink:href="../../d0/d1b/classnap_1_1_sequence_event_track_view.html" target="_top" xlink:title="SequenceEventTrackView">
<polygon fill="white" stroke="black" points="295.5,-0.5 295.5,-19.5 424.5,-19.5 424.5,-0.5 295.5,-0.5"/>
<text text-anchor="middle" x="360" y="-7.5" font-family="Helvetica,sans-Serif" font-size="10.00">SequenceEventTrackView</text>
</a>
</g>
</g>
<!-- Node0&#45;&gt;Node3 -->
<g id="edge3" class="edge">
<title>Node0&#45;&gt;Node3</title>
<path fill="none" stroke="midnightblue" d="M245.92,-52.91C273.56,-42.75 312.34,-28.51 336.82,-19.52"/>
<polygon fill="midnightblue" stroke="midnightblue" points="244.47,-49.71 236.29,-56.44 246.89,-56.28 244.47,-49.71"/>
</g>
</g>
</svg>
