<?xml version="1.0" encoding="UTF-8" standalone="no"?>
<!DOCTYPE svg PUBLIC "-//W3C//DTD SVG 1.1//EN"
 "http://www.w3.org/Graphics/SVG/1.1/DTD/svg11.dtd">
<!-- Generated by graphviz version 2.48.0 (20210717.1556)
 -->
<!-- Title: PolyLine Pages: 1 -->
<svg width="310pt" height="230pt"
 viewBox="0.00 0.00 309.50 230.00" xmlns="http://www.w3.org/2000/svg" xmlns:xlink="http://www.w3.org/1999/xlink">
<g id="graph0" class="graph" transform="scale(1 1) rotate(0) translate(4 226)">
<title>PolyLine</title>
<polygon fill="white" stroke="transparent" points="-4,4 -4,-226 305.5,-226 305.5,4 -4,4"/>
<!-- Node10 -->
<g id="node1" class="node">
<title>Node10</title>
<polygon fill="#bfbfbf" stroke="black" points="81,-0.5 81,-19.5 135,-19.5 135,-0.5 81,-0.5"/>
<text text-anchor="middle" x="108" y="-7.5" font-family="Helvetica,sans-Serif" font-size="10.00">PolyLine</text>
</g>
<!-- Node11 -->
<g id="node2" class="node">
<title>Node11</title>
<g id="a_node2"><a xlink:href="../../dd/dac/classnap_1_1_i_mesh.html" target="_top" xlink:title="IMesh">
<polygon fill="white" stroke="black" points="7.5,-67.5 7.5,-86.5 50.5,-86.5 50.5,-67.5 7.5,-67.5"/>
<text text-anchor="middle" x="29" y="-74.5" font-family="Helvetica,sans-Serif" font-size="10.00">IMesh</text>
</a>
</g>
</g>
<!-- Node11&#45;&gt;Node10 -->
<g id="edge1" class="edge">
<title>Node11&#45;&gt;Node10</title>
<path fill="none" stroke="midnightblue" d="M47.58,-60.71C63.14,-47.91 84.8,-30.09 97.51,-19.63"/>
<polygon fill="midnightblue" stroke="midnightblue" points="45.15,-58.18 39.65,-67.23 49.6,-63.58 45.15,-58.18"/>
</g>
<!-- Node12 -->
<g id="node3" class="node">
<title>Node12</title>
<g id="a_node3"><a xlink:href="../../d9/dea/classnap_1_1_resource.html" target="_top" xlink:title="Resource">
<polygon fill="white" stroke="black" points="0,-145.5 0,-164.5 58,-164.5 58,-145.5 0,-145.5"/>
<text text-anchor="middle" x="29" y="-152.5" font-family="Helvetica,sans-Serif" font-size="10.00">Resource</text>
</a>
</g>
</g>
<!-- Node12&#45;&gt;Node11 -->
<g id="edge2" class="edge">
<title>Node12&#45;&gt;Node11</title>
<path fill="none" stroke="midnightblue" d="M29,-135.22C29,-119.7 29,-98.36 29,-86.62"/>
<polygon fill="midnightblue" stroke="midnightblue" points="25.5,-135.28 29,-145.28 32.5,-135.28 25.5,-135.28"/>
</g>
<!-- Node13 -->
<g id="node4" class="node">
<title>Node13</title>
<g id="a_node4"><a xlink:href="../../de/d01/classnap_1_1rtti_1_1_object.html" target="_top" xlink:title="Object">
<polygon fill="white" stroke="black" points="6.5,-202.5 6.5,-221.5 51.5,-221.5 51.5,-202.5 6.5,-202.5"/>
<text text-anchor="middle" x="29" y="-209.5" font-family="Helvetica,sans-Serif" font-size="10.00">Object</text>
</a>
</g>
</g>
<!-- Node13&#45;&gt;Node12 -->
<g id="edge3" class="edge">
<title>Node13&#45;&gt;Node12</title>
<path fill="none" stroke="midnightblue" d="M29,-192.12C29,-182.82 29,-172.06 29,-164.71"/>
<polygon fill="midnightblue" stroke="midnightblue" points="25.5,-192.41 29,-202.41 32.5,-192.41 25.5,-192.41"/>
</g>
<!-- Node14 -->
<g id="node5" class="node">
<title>Node14</title>
<g id="a_node5"><a xlink:href="../../d5/dc6/classnap_1_1_render_service.html" target="_top" xlink:title="RenderService">
<polygon fill="white" stroke="black" points="68.5,-67.5 68.5,-86.5 147.5,-86.5 147.5,-67.5 68.5,-67.5"/>
<text text-anchor="middle" x="108" y="-74.5" font-family="Helvetica,sans-Serif" font-size="10.00">RenderService</text>
</a>
</g>
</g>
<!-- Node14&#45;&gt;Node10 -->
<g id="edge4" class="edge">
<title>Node14&#45;&gt;Node10</title>
<path fill="none" stroke="#9a32cd" stroke-dasharray="5,2" d="M108,-57.04C108,-44.67 108,-29.12 108,-19.63"/>
<polygon fill="#9a32cd" stroke="#9a32cd" points="104.5,-57.23 108,-67.23 111.5,-57.23 104.5,-57.23"/>
<text text-anchor="middle" x="145" y="-41" font-family="Helvetica,sans-Serif" font-size="10.00"> mRenderService</text>
</g>
<!-- Node15 -->
<g id="node6" class="node">
<title>Node15</title>
<g id="a_node6"><a xlink:href="../../d8/d8e/classnap_1_1_service.html" target="_top" xlink:title="Service">
<polygon fill="white" stroke="black" points="80,-145.5 80,-164.5 128,-164.5 128,-145.5 80,-145.5"/>
<text text-anchor="middle" x="104" y="-152.5" font-family="Helvetica,sans-Serif" font-size="10.00">Service</text>
</a>
</g>
</g>
<!-- Node15&#45;&gt;Node14 -->
<g id="edge5" class="edge">
<title>Node15&#45;&gt;Node14</title>
<path fill="none" stroke="midnightblue" d="M104.99,-135.22C105.81,-119.7 106.93,-98.36 107.55,-86.62"/>
<polygon fill="midnightblue" stroke="midnightblue" points="101.49,-135.11 104.46,-145.28 108.48,-135.48 101.49,-135.11"/>
</g>
<!-- Node16 -->
<g id="node7" class="node">
<title>Node16</title>
<g id="a_node7"><a xlink:href="../../de/d80/classnap_1_1_signal.html" target="_top" xlink:title="Signal\&lt; nap::RenderWindow &amp;\&gt;">
<polygon fill="white" stroke="black" points="146.5,-145.5 146.5,-164.5 301.5,-164.5 301.5,-145.5 146.5,-145.5"/>
<text text-anchor="middle" x="224" y="-152.5" font-family="Helvetica,sans-Serif" font-size="10.00">Signal&lt; nap::RenderWindow &amp;&gt;</text>
</a>
</g>
</g>
<!-- Node16&#45;&gt;Node14 -->
<g id="edge6" class="edge">
<title>Node16&#45;&gt;Node14</title>
<path fill="none" stroke="#9a32cd" stroke-dasharray="5,2" d="M202.29,-139.77C178.44,-124.15 140.9,-99.56 121.15,-86.62"/>
<polygon fill="#9a32cd" stroke="#9a32cd" points="200.41,-142.73 210.69,-145.28 204.25,-136.87 200.41,-142.73"/>
<text text-anchor="middle" x="216.5" y="-119" font-family="Helvetica,sans-Serif" font-size="10.00"> windowRemoved</text>
<text text-anchor="middle" x="216.5" y="-108" font-family="Helvetica,sans-Serif" font-size="10.00">windowAdded</text>
</g>
<!-- Node17 -->
<g id="node8" class="node">
<title>Node17</title>
<g id="a_node8"><a xlink:href="../../d1/d3f/structnap_1_1_poly_line_properties.html" target="_top" xlink:title="PolyLineProperties">
<polygon fill="white" stroke="black" points="166,-67.5 166,-86.5 264,-86.5 264,-67.5 166,-67.5"/>
<text text-anchor="middle" x="215" y="-74.5" font-family="Helvetica,sans-Serif" font-size="10.00">PolyLineProperties</text>
</a>
</g>
</g>
<!-- Node17&#45;&gt;Node10 -->
<g id="edge7" class="edge">
<title>Node17&#45;&gt;Node10</title>
<path fill="none" stroke="#9a32cd" stroke-dasharray="5,2" d="M205.01,-58.72C200.08,-51.47 193.57,-43.47 186,-38 170.9,-27.08 151.03,-20.29 135.12,-16.25"/>
<polygon fill="#9a32cd" stroke="#9a32cd" points="202.09,-60.65 210.36,-67.26 208.02,-56.93 202.09,-60.65"/>
<text text-anchor="middle" x="234" y="-41" font-family="Helvetica,sans-Serif" font-size="10.00"> mLineProperties</text>
</g>
</g>
</svg>
