<?xml version="1.0" encoding="UTF-8" standalone="no"?>
<!DOCTYPE svg PUBLIC "-//W3C//DTD SVG 1.1//EN"
 "http://www.w3.org/Graphics/SVG/1.1/DTD/svg11.dtd">
<!-- Generated by graphviz version 2.43.0 (0)
 -->
<!-- Title: UniformLeafInstance Pages: 1 -->
<svg width="416pt" height="196pt"
 viewBox="0.00 0.00 416.00 196.00" xmlns="http://www.w3.org/2000/svg" xmlns:xlink="http://www.w3.org/1999/xlink">
<g id="graph0" class="graph" transform="scale(1 1) rotate(0) translate(4 192)">
<title>UniformLeafInstance</title>
<polygon fill="white" stroke="transparent" points="-4,4 -4,-192 412,-192 412,4 -4,4"/>
<!-- Node1 -->
<g id="node1" class="node">
<title>Node1</title>
<g id="a_node1"><a xlink:title=" ">
<polygon fill="#bfbfbf" stroke="black" points="150.5,-112.5 150.5,-131.5 269.5,-131.5 269.5,-112.5 150.5,-112.5"/>
<text text-anchor="middle" x="210" y="-119.5" font-family="Helvetica,sans-Serif" font-size="10.00">UniformLeafInstance</text>
</a>
</g>
</g>
<!-- Node3 -->
<g id="node3" class="node">
<title>Node3</title>
<g id="a_node3"><a xlink:href="../../d8/da5/classnap_1_1_uniform_value_array_instance.html" target="_top" xlink:title=" ">
<polygon fill="white" stroke="black" points="56.5,-56.5 56.5,-75.5 207.5,-75.5 207.5,-56.5 56.5,-56.5"/>
<text text-anchor="middle" x="132" y="-63.5" font-family="Helvetica,sans-Serif" font-size="10.00">UniformValueArrayInstance</text>
</a>
</g>
</g>
<!-- Node1&#45;&gt;Node3 -->
<g id="edge2" class="edge">
<title>Node1&#45;&gt;Node3</title>
<path fill="none" stroke="midnightblue" d="M189.23,-106.62C174.98,-96.76 156.54,-83.99 144.5,-75.65"/>
<polygon fill="midnightblue" stroke="midnightblue" points="187.25,-109.51 197.47,-112.32 191.24,-103.75 187.25,-109.51"/>
</g>
<!-- Node5 -->
<g id="node5" class="node">
<title>Node5</title>
<g id="a_node5"><a xlink:href="../../d0/dac/classnap_1_1_uniform_value_instance.html" target="_top" xlink:title=" ">
<polygon fill="white" stroke="black" points="239.5,-56.5 239.5,-75.5 364.5,-75.5 364.5,-56.5 239.5,-56.5"/>
<text text-anchor="middle" x="302" y="-63.5" font-family="Helvetica,sans-Serif" font-size="10.00">UniformValueInstance</text>
</a>
</g>
</g>
<!-- Node1&#45;&gt;Node5 -->
<g id="edge4" class="edge">
<title>Node1&#45;&gt;Node5</title>
<path fill="none" stroke="midnightblue" d="M233.55,-107.18C250.48,-97.24 272.78,-84.15 287.26,-75.65"/>
<polygon fill="midnightblue" stroke="midnightblue" points="231.63,-104.24 224.78,-112.32 235.18,-110.28 231.63,-104.24"/>
</g>
<!-- Node2 -->
<g id="node2" class="node">
<title>Node2</title>
<g id="a_node2"><a xlink:href="../../d6/d6a/classnap_1_1_uniform_instance.html" target="_top" xlink:title=" ">
<polygon fill="white" stroke="black" points="161,-168.5 161,-187.5 259,-187.5 259,-168.5 161,-168.5"/>
<text text-anchor="middle" x="210" y="-175.5" font-family="Helvetica,sans-Serif" font-size="10.00">UniformInstance</text>
</a>
</g>
</g>
<!-- Node2&#45;&gt;Node1 -->
<g id="edge1" class="edge">
<title>Node2&#45;&gt;Node1</title>
<path fill="none" stroke="midnightblue" d="M210,-157.8C210,-148.91 210,-138.78 210,-131.75"/>
<polygon fill="midnightblue" stroke="midnightblue" points="206.5,-158.08 210,-168.08 213.5,-158.08 206.5,-158.08"/>
</g>
<!-- Node4 -->
<g id="node4" class="node">
<title>Node4</title>
<g id="a_node4"><a xlink:href="../../d3/d48/classnap_1_1_typed_uniform_value_array_instance.html" target="_top" xlink:title=" ">
<polygon fill="white" stroke="black" points="0,-0.5 0,-19.5 208,-19.5 208,-0.5 0,-0.5"/>
<text text-anchor="middle" x="104" y="-7.5" font-family="Helvetica,sans-Serif" font-size="10.00">TypedUniformValueArrayInstance&lt; T &gt;</text>
</a>
</g>
</g>
<!-- Node3&#45;&gt;Node4 -->
<g id="edge3" class="edge">
<title>Node3&#45;&gt;Node4</title>
<path fill="none" stroke="midnightblue" d="M122.66,-46.98C117.91,-37.82 112.34,-27.09 108.54,-19.75"/>
<polygon fill="midnightblue" stroke="midnightblue" points="119.67,-48.82 127.38,-56.08 125.88,-45.59 119.67,-48.82"/>
</g>
<!-- Node6 -->
<g id="node6" class="node">
<title>Node6</title>
<g id="a_node6"><a xlink:href="../../d7/d60/classnap_1_1_typed_uniform_value_instance.html" target="_top" xlink:title=" ">
<polygon fill="white" stroke="black" points="226,-0.5 226,-19.5 408,-19.5 408,-0.5 226,-0.5"/>
<text text-anchor="middle" x="317" y="-7.5" font-family="Helvetica,sans-Serif" font-size="10.00">TypedUniformValueInstance&lt; T &gt;</text>
</a>
</g>
</g>
<!-- Node5&#45;&gt;Node6 -->
<g id="edge5" class="edge">
<title>Node5&#45;&gt;Node6</title>
<path fill="none" stroke="midnightblue" d="M307.17,-46.4C309.68,-37.36 312.57,-26.94 314.57,-19.75"/>
<polygon fill="midnightblue" stroke="midnightblue" points="303.78,-45.51 304.48,-56.08 310.53,-47.38 303.78,-45.51"/>
</g>
</g>
</svg>
