<?xml version="1.0" encoding="UTF-8" standalone="no"?>
<!DOCTYPE svg PUBLIC "-//W3C//DTD SVG 1.1//EN"
 "http://www.w3.org/Graphics/SVG/1.1/DTD/svg11.dtd">
<!-- Generated by graphviz version 2.43.0 (0)
 -->
<!-- Title: PolyLine Pages: 1 -->
<svg width="341pt" height="230pt"
 viewBox="0.00 0.00 340.50 230.00" xmlns="http://www.w3.org/2000/svg" xmlns:xlink="http://www.w3.org/1999/xlink">
<g id="graph0" class="graph" transform="scale(1 1) rotate(0) translate(4 226)">
<title>PolyLine</title>
<polygon fill="white" stroke="transparent" points="-4,4 -4,-226 336.5,-226 336.5,4 -4,4"/>
<!-- Node1 -->
<g id="node1" class="node">
<title>Node1</title>
<g id="a_node1"><a xlink:title=" ">
<polygon fill="#bfbfbf" stroke="black" points="87,-0.5 87,-19.5 145,-19.5 145,-0.5 87,-0.5"/>
<text text-anchor="middle" x="116" y="-7.5" font-family="Helvetica,sans-Serif" font-size="10.00">PolyLine</text>
</a>
</g>
</g>
<!-- Node2 -->
<g id="node2" class="node">
<title>Node2</title>
<g id="a_node2"><a xlink:href="../../dd/dac/classnap_1_1_i_mesh.html" target="_top" xlink:title=" ">
<polygon fill="white" stroke="black" points="8,-67.5 8,-86.5 54,-86.5 54,-67.5 8,-67.5"/>
<text text-anchor="middle" x="31" y="-74.5" font-family="Helvetica,sans-Serif" font-size="10.00">IMesh</text>
</a>
</g>
</g>
<!-- Node2&#45;&gt;Node1 -->
<g id="edge1" class="edge">
<title>Node2&#45;&gt;Node1</title>
<path fill="none" stroke="midnightblue" d="M50.53,-61.07C67.3,-48.24 90.91,-30.19 104.72,-19.63"/>
<polygon fill="midnightblue" stroke="midnightblue" points="48.28,-58.38 42.46,-67.23 52.53,-63.94 48.28,-58.38"/>
</g>
<!-- Node3 -->
<g id="node3" class="node">
<title>Node3</title>
<g id="a_node3"><a xlink:href="../../d9/dea/classnap_1_1_resource.html" target="_top" xlink:title=" ">
<polygon fill="white" stroke="black" points="0,-145.5 0,-164.5 62,-164.5 62,-145.5 0,-145.5"/>
<text text-anchor="middle" x="31" y="-152.5" font-family="Helvetica,sans-Serif" font-size="10.00">Resource</text>
</a>
</g>
</g>
<!-- Node3&#45;&gt;Node2 -->
<g id="edge2" class="edge">
<title>Node3&#45;&gt;Node2</title>
<path fill="none" stroke="midnightblue" d="M31,-135.22C31,-119.7 31,-98.36 31,-86.62"/>
<polygon fill="midnightblue" stroke="midnightblue" points="27.5,-135.28 31,-145.28 34.5,-135.28 27.5,-135.28"/>
</g>
<!-- Node4 -->
<g id="node4" class="node">
<title>Node4</title>
<g id="a_node4"><a xlink:href="../../de/d01/classnap_1_1rtti_1_1_object.html" target="_top" xlink:title=" ">
<polygon fill="white" stroke="black" points="7,-202.5 7,-221.5 55,-221.5 55,-202.5 7,-202.5"/>
<text text-anchor="middle" x="31" y="-209.5" font-family="Helvetica,sans-Serif" font-size="10.00">Object</text>
</a>
</g>
</g>
<!-- Node4&#45;&gt;Node3 -->
<g id="edge3" class="edge">
<title>Node4&#45;&gt;Node3</title>
<path fill="none" stroke="midnightblue" d="M31,-192.12C31,-182.82 31,-172.06 31,-164.71"/>
<polygon fill="midnightblue" stroke="midnightblue" points="27.5,-192.41 31,-202.41 34.5,-192.41 27.5,-192.41"/>
</g>
<!-- Node5 -->
<g id="node5" class="node">
<title>Node5</title>
<g id="a_node5"><a xlink:href="../../d5/dc6/classnap_1_1_render_service.html" target="_top" xlink:title=" ">
<polygon fill="white" stroke="black" points="72.5,-67.5 72.5,-86.5 159.5,-86.5 159.5,-67.5 72.5,-67.5"/>
<text text-anchor="middle" x="116" y="-74.5" font-family="Helvetica,sans-Serif" font-size="10.00">RenderService</text>
</a>
</g>
</g>
<!-- Node5&#45;&gt;Node1 -->
<g id="edge4" class="edge">
<title>Node5&#45;&gt;Node1</title>
<path fill="none" stroke="#9a32cd" stroke-dasharray="5,2" d="M116,-57.04C116,-44.67 116,-29.12 116,-19.63"/>
<polygon fill="#9a32cd" stroke="#9a32cd" points="112.5,-57.23 116,-67.23 119.5,-57.23 112.5,-57.23"/>
<text text-anchor="middle" x="158" y="-41" font-family="Helvetica,sans-Serif" font-size="10.00"> mRenderService</text>
</g>
<!-- Node6 -->
<g id="node6" class="node">
<title>Node6</title>
<g id="a_node6"><a xlink:href="../../d8/d8e/classnap_1_1_service.html" target="_top" xlink:title=" ">
<polygon fill="white" stroke="black" points="84.5,-145.5 84.5,-164.5 137.5,-164.5 137.5,-145.5 84.5,-145.5"/>
<text text-anchor="middle" x="111" y="-152.5" font-family="Helvetica,sans-Serif" font-size="10.00">Service</text>
</a>
</g>
</g>
<!-- Node6&#45;&gt;Node5 -->
<g id="edge5" class="edge">
<title>Node6&#45;&gt;Node5</title>
<path fill="none" stroke="midnightblue" d="M112.24,-135.22C113.26,-119.7 114.66,-98.36 115.43,-86.62"/>
<polygon fill="midnightblue" stroke="midnightblue" points="108.74,-135.07 111.57,-145.28 115.72,-135.53 108.74,-135.07"/>
</g>
<!-- Node7 -->
<g id="node7" class="node">
<title>Node7</title>
<g id="a_node7"><a xlink:href="../../de/d80/classnap_1_1_signal.html" target="_top" xlink:title=" ">
<polygon fill="white" stroke="black" points="155.5,-145.5 155.5,-164.5 332.5,-164.5 332.5,-145.5 155.5,-145.5"/>
<text text-anchor="middle" x="244" y="-152.5" font-family="Helvetica,sans-Serif" font-size="10.00">Signal&lt; nap::RenderWindow &amp; &gt;</text>
</a>
</g>
</g>
<!-- Node7&#45;&gt;Node5 -->
<g id="edge6" class="edge">
<title>Node7&#45;&gt;Node5</title>
<path fill="none" stroke="#9a32cd" stroke-dasharray="5,2" d="M220.39,-139.98C194.09,-124.36 152.4,-99.61 130.51,-86.62"/>
<polygon fill="#9a32cd" stroke="#9a32cd" points="218.93,-143.19 229.32,-145.28 222.51,-137.17 218.93,-143.19"/>
<text text-anchor="middle" x="239" y="-119" font-family="Helvetica,sans-Serif" font-size="10.00"> windowRemoved</text>
<text text-anchor="middle" x="239" y="-108" font-family="Helvetica,sans-Serif" font-size="10.00">windowAdded</text>
</g>
<!-- Node8 -->
<g id="node8" class="node">
<title>Node8</title>
<g id="a_node8"><a xlink:href="../../d1/d3f/structnap_1_1_poly_line_properties.html" target="_top" xlink:title=" ">
<polygon fill="white" stroke="black" points="177.5,-67.5 177.5,-86.5 284.5,-86.5 284.5,-67.5 177.5,-67.5"/>
<text text-anchor="middle" x="231" y="-74.5" font-family="Helvetica,sans-Serif" font-size="10.00">PolyLineProperties</text>
</a>
</g>
</g>
<!-- Node8&#45;&gt;Node1 -->
<g id="edge7" class="edge">
<title>Node8&#45;&gt;Node1</title>
<path fill="none" stroke="#9a32cd" stroke-dasharray="5,2" d="M221.88,-58.37C217.37,-51.15 211.31,-43.28 204,-38 186.64,-25.46 163.34,-18.65 145.08,-15.01"/>
<polygon fill="#9a32cd" stroke="#9a32cd" points="219.08,-60.52 227.05,-67.5 225.17,-57.07 219.08,-60.52"/>
<text text-anchor="middle" x="255.5" y="-41" font-family="Helvetica,sans-Serif" font-size="10.00"> mLineProperties</text>
</g>
</g>
</svg>
