<?xml version="1.0" encoding="UTF-8" standalone="no"?>
<!DOCTYPE svg PUBLIC "-//W3C//DTD SVG 1.1//EN"
 "http://www.w3.org/Graphics/SVG/1.1/DTD/svg11.dtd">
<!-- Generated by graphviz version 2.43.0 (0)
 -->
<!-- Title: IMultiChannelOutput Pages: 1 -->
<svg width="533pt" height="154pt"
 viewBox="0.00 0.00 533.00 154.00" xmlns="http://www.w3.org/2000/svg" xmlns:xlink="http://www.w3.org/1999/xlink">
<g id="graph0" class="graph" transform="scale(1 1) rotate(0) translate(4 150)">
<title>IMultiChannelOutput</title>
<polygon fill="white" stroke="transparent" points="-4,4 -4,-150 529,-150 529,4 -4,4"/>
<!-- Node1 -->
<g id="node1" class="node">
<title>Node1</title>
<g id="a_node1"><a xlink:title=" ">
<polygon fill="#bfbfbf" stroke="black" points="0,-66.5 0,-85.5 117,-85.5 117,-66.5 0,-66.5"/>
<text text-anchor="middle" x="58.5" y="-73.5" font-family="Helvetica,sans-Serif" font-size="10.00">IMultiChannelOutput</text>
</a>
</g>
</g>
<!-- Node2 -->
<g id="node2" class="node">
<title>Node2</title>
<g id="a_node2"><a xlink:href="../../da/dde/classnap_1_1audio_1_1_audio_component_base_instance.html" target="_top" xlink:title=" ">
<polygon fill="white" stroke="black" points="153,-66.5 153,-85.5 319,-85.5 319,-66.5 153,-66.5"/>
<text text-anchor="middle" x="236" y="-73.5" font-family="Helvetica,sans-Serif" font-size="10.00">AudioComponentBaseInstance</text>
</a>
</g>
</g>
<!-- Node1&#45;&gt;Node2 -->
<g id="edge1" class="edge">
<title>Node1&#45;&gt;Node2</title>
<path fill="none" stroke="midnightblue" d="M127.49,-76C135.84,-76 144.44,-76 152.97,-76"/>
<polygon fill="midnightblue" stroke="midnightblue" points="127.45,-72.5 117.45,-76 127.45,-79.5 127.45,-72.5"/>
</g>
<!-- Node3 -->
<g id="node3" class="node">
<title>Node3</title>
<g id="a_node3"><a xlink:href="../../dc/d8b/classnap_1_1audio_1_1_audio_input_component_instance.html" target="_top" xlink:title=" ">
<polygon fill="white" stroke="black" points="356.5,-126.5 356.5,-145.5 523.5,-145.5 523.5,-126.5 356.5,-126.5"/>
<text text-anchor="middle" x="440" y="-133.5" font-family="Helvetica,sans-Serif" font-size="10.00">AudioInputComponentInstance</text>
</a>
</g>
</g>
<!-- Node2&#45;&gt;Node3 -->
<g id="edge2" class="edge">
<title>Node2&#45;&gt;Node3</title>
<path fill="none" stroke="midnightblue" d="M271.53,-89.14C294.88,-97.75 326.54,-108.86 355,-117 367.08,-120.45 380.27,-123.68 392.55,-126.47"/>
<polygon fill="midnightblue" stroke="midnightblue" points="272.65,-85.83 262.06,-85.62 270.21,-92.39 272.65,-85.83"/>
</g>
<!-- Node4 -->
<g id="node4" class="node">
<title>Node4</title>
<g id="a_node4"><a xlink:href="../../d5/d5b/classnap_1_1audio_1_1_playback_component_instance.html" target="_top" xlink:title=" ">
<polygon fill="white" stroke="black" points="361,-88.5 361,-107.5 519,-107.5 519,-88.5 361,-88.5"/>
<text text-anchor="middle" x="440" y="-95.5" font-family="Helvetica,sans-Serif" font-size="10.00">PlaybackComponentInstance</text>
</a>
</g>
</g>
<!-- Node2&#45;&gt;Node4 -->
<g id="edge3" class="edge">
<title>Node2&#45;&gt;Node4</title>
<path fill="none" stroke="midnightblue" d="M329.23,-86.04C339.79,-87.19 350.48,-88.36 360.83,-89.49"/>
<polygon fill="midnightblue" stroke="midnightblue" points="329.48,-82.55 319.16,-84.95 328.72,-89.51 329.48,-82.55"/>
</g>
<!-- Node5 -->
<g id="node5" class="node">
<title>Node5</title>
<g id="a_node5"><a xlink:href="../../d4/da3/classnap_1_1audio_1_1_sequence_player_audio_output_component_instance.html" target="_top" xlink:title=" ">
<polygon fill="white" stroke="black" points="362.5,-39 362.5,-69 517.5,-69 517.5,-39 362.5,-39"/>
<text text-anchor="start" x="370.5" y="-57" font-family="Helvetica,sans-Serif" font-size="10.00">SequencePlayerAudioOutput</text>
<text text-anchor="middle" x="440" y="-46" font-family="Helvetica,sans-Serif" font-size="10.00">ComponentInstance</text>
</a>
</g>
</g>
<!-- Node2&#45;&gt;Node5 -->
<g id="edge4" class="edge">
<title>Node2&#45;&gt;Node5</title>
<path fill="none" stroke="midnightblue" d="M329.29,-65.95C340.39,-64.74 351.62,-63.52 362.45,-62.34"/>
<polygon fill="midnightblue" stroke="midnightblue" points="328.72,-62.49 319.16,-67.05 329.48,-69.45 328.72,-62.49"/>
</g>
<!-- Node6 -->
<g id="node6" class="node">
<title>Node6</title>
<g id="a_node6"><a xlink:href="../../df/de7/classnap_1_1audio_1_1_video_audio_component_instance.html" target="_top" xlink:title=" ">
<polygon fill="white" stroke="black" points="355,-0.5 355,-19.5 525,-19.5 525,-0.5 355,-0.5"/>
<text text-anchor="middle" x="440" y="-7.5" font-family="Helvetica,sans-Serif" font-size="10.00">VideoAudioComponentInstance</text>
</a>
</g>
</g>
<!-- Node2&#45;&gt;Node6 -->
<g id="edge5" class="edge">
<title>Node2&#45;&gt;Node6</title>
<path fill="none" stroke="midnightblue" d="M268.32,-62.43C291.86,-52.56 325.07,-39.35 355,-30 367.45,-26.11 381.14,-22.56 393.79,-19.56"/>
<polygon fill="midnightblue" stroke="midnightblue" points="266.7,-59.31 258.86,-66.43 269.43,-65.75 266.7,-59.31"/>
</g>
</g>
</svg>
