<?xml version="1.0" encoding="UTF-8" standalone="no"?>
<!DOCTYPE svg PUBLIC "-//W3C//DTD SVG 1.1//EN"
 "http://www.w3.org/Graphics/SVG/1.1/DTD/svg11.dtd">
<!-- Generated by graphviz version 2.48.0 (20210717.1556)
 -->
<!-- Title: IMultiChannelOutput Pages: 1 -->
<svg width="486pt" height="154pt"
 viewBox="0.00 0.00 486.00 154.00" xmlns="http://www.w3.org/2000/svg" xmlns:xlink="http://www.w3.org/1999/xlink">
<g id="graph0" class="graph" transform="scale(1 1) rotate(0) translate(4 150)">
<title>IMultiChannelOutput</title>
<polygon fill="white" stroke="transparent" points="-4,4 -4,-150 482,-150 482,4 -4,4"/>
<!-- Node0 -->
<g id="node1" class="node">
<title>Node0</title>
<polygon fill="#bfbfbf" stroke="black" points="0,-66.5 0,-85.5 104,-85.5 104,-66.5 0,-66.5"/>
<text text-anchor="middle" x="52" y="-73.5" font-family="Helvetica,sans-Serif" font-size="10.00">IMultiChannelOutput</text>
</g>
<!-- Node1 -->
<g id="node2" class="node">
<title>Node1</title>
<g id="a_node2"><a xlink:href="../../da/dde/classnap_1_1audio_1_1_audio_component_base_instance.html" target="_top" xlink:title="AudioComponentBaseInstance">
<polygon fill="white" stroke="black" points="140,-66.5 140,-85.5 290,-85.5 290,-66.5 140,-66.5"/>
<text text-anchor="middle" x="215" y="-73.5" font-family="Helvetica,sans-Serif" font-size="10.00">AudioComponentBaseInstance</text>
</a>
</g>
</g>
<!-- Node0&#45;&gt;Node1 -->
<g id="edge1" class="edge">
<title>Node0&#45;&gt;Node1</title>
<path fill="none" stroke="midnightblue" d="M114.4,-76C122.74,-76 131.38,-76 139.93,-76"/>
<polygon fill="midnightblue" stroke="midnightblue" points="114.38,-72.5 104.38,-76 114.38,-79.5 114.38,-72.5"/>
</g>
<!-- Node2 -->
<g id="node3" class="node">
<title>Node2</title>
<g id="a_node3"><a xlink:href="../../dc/d8b/classnap_1_1audio_1_1_audio_input_component_instance.html" target="_top" xlink:title="AudioInputComponentInstance">
<polygon fill="white" stroke="black" points="327.5,-126.5 327.5,-145.5 476.5,-145.5 476.5,-126.5 327.5,-126.5"/>
<text text-anchor="middle" x="402" y="-133.5" font-family="Helvetica,sans-Serif" font-size="10.00">AudioInputComponentInstance</text>
</a>
</g>
</g>
<!-- Node1&#45;&gt;Node2 -->
<g id="edge2" class="edge">
<title>Node1&#45;&gt;Node2</title>
<path fill="none" stroke="midnightblue" d="M248.75,-89.27C270.46,-97.81 299.68,-108.79 326,-117 336.9,-120.4 348.83,-123.64 359.9,-126.44"/>
<polygon fill="midnightblue" stroke="midnightblue" points="249.93,-85.98 239.35,-85.55 247.35,-92.48 249.93,-85.98"/>
</g>
<!-- Node3 -->
<g id="node4" class="node">
<title>Node3</title>
<g id="a_node4"><a xlink:href="../../d5/d5b/classnap_1_1audio_1_1_playback_component_instance.html" target="_top" xlink:title="PlaybackComponentInstance">
<polygon fill="white" stroke="black" points="330.5,-88.5 330.5,-107.5 473.5,-107.5 473.5,-88.5 330.5,-88.5"/>
<text text-anchor="middle" x="402" y="-95.5" font-family="Helvetica,sans-Serif" font-size="10.00">PlaybackComponentInstance</text>
</a>
</g>
</g>
<!-- Node1&#45;&gt;Node3 -->
<g id="edge3" class="edge">
<title>Node1&#45;&gt;Node3</title>
<path fill="none" stroke="midnightblue" d="M300.21,-86.01C310.31,-87.21 320.53,-88.43 330.41,-89.61"/>
<polygon fill="midnightblue" stroke="midnightblue" points="300.52,-82.53 290.18,-84.82 299.7,-89.48 300.52,-82.53"/>
</g>
<!-- Node4 -->
<g id="node5" class="node">
<title>Node4</title>
<g id="a_node5"><a xlink:href="../../d4/da3/classnap_1_1audio_1_1_sequence_player_audio_output_component_instance.html" target="_top" xlink:title="SequencePlayerAudioOutput\lComponentInstance">
<polygon fill="white" stroke="black" points="331,-39 331,-69 473,-69 473,-39 331,-39"/>
<text text-anchor="start" x="339" y="-57" font-family="Helvetica,sans-Serif" font-size="10.00">SequencePlayerAudioOutput</text>
<text text-anchor="middle" x="402" y="-46" font-family="Helvetica,sans-Serif" font-size="10.00">ComponentInstance</text>
</a>
</g>
</g>
<!-- Node1&#45;&gt;Node4 -->
<g id="edge4" class="edge">
<title>Node1&#45;&gt;Node4</title>
<path fill="none" stroke="midnightblue" d="M300.29,-65.98C310.46,-64.77 320.77,-63.54 330.71,-62.36"/>
<polygon fill="midnightblue" stroke="midnightblue" points="299.7,-62.52 290.18,-67.18 300.52,-69.47 299.7,-62.52"/>
</g>
<!-- Node5 -->
<g id="node6" class="node">
<title>Node5</title>
<g id="a_node6"><a xlink:href="../../df/de7/classnap_1_1audio_1_1_video_audio_component_instance.html" target="_top" xlink:title="VideoAudioComponentInstance">
<polygon fill="white" stroke="black" points="326,-0.5 326,-19.5 478,-19.5 478,-0.5 326,-0.5"/>
<text text-anchor="middle" x="402" y="-7.5" font-family="Helvetica,sans-Serif" font-size="10.00">VideoAudioComponentInstance</text>
</a>
</g>
</g>
<!-- Node1&#45;&gt;Node5 -->
<g id="edge5" class="edge">
<title>Node1&#45;&gt;Node5</title>
<path fill="none" stroke="midnightblue" d="M246.16,-62.08C268.03,-52.32 298.47,-39.38 326,-30 337.23,-26.18 349.6,-22.62 361,-19.59"/>
<polygon fill="midnightblue" stroke="midnightblue" points="244.44,-59.02 236.76,-66.32 247.32,-65.4 244.44,-59.02"/>
</g>
</g>
</svg>
