<?xml version="1.0" encoding="UTF-8" standalone="no"?>
<!DOCTYPE svg PUBLIC "-//W3C//DTD SVG 1.1//EN"
 "http://www.w3.org/Graphics/SVG/1.1/DTD/svg11.dtd">
<!-- Generated by graphviz version 2.48.0 (20210717.1556)
 -->
<!-- Title: PointerInputComponentInstance Pages: 1 -->
<svg width="585pt" height="176pt"
 viewBox="0.00 0.00 585.00 175.50" xmlns="http://www.w3.org/2000/svg" xmlns:xlink="http://www.w3.org/1999/xlink">
<g id="graph0" class="graph" transform="scale(1 1) rotate(0) translate(4 171.5)">
<title>PointerInputComponentInstance</title>
<polygon fill="white" stroke="transparent" points="-4,4 -4,-171.5 581,-171.5 581,4 -4,4"/>
<!-- Node4 -->
<g id="node1" class="node">
<title>Node4</title>
<polygon fill="#bfbfbf" stroke="black" points="422,-79 422,-98 577,-98 577,-79 422,-79"/>
<text text-anchor="middle" x="499.5" y="-86" font-family="Helvetica,sans-Serif" font-size="10.00">PointerInputComponentInstance</text>
</g>
<!-- Node5 -->
<g id="node2" class="node">
<title>Node5</title>
<g id="a_node2"><a xlink:href="../../dc/da6/classnap_1_1_input_component_instance.html" target="_top" xlink:title="InputComponentInstance">
<polygon fill="white" stroke="black" points="222,-148 222,-167 346,-167 346,-148 222,-148"/>
<text text-anchor="middle" x="284" y="-155" font-family="Helvetica,sans-Serif" font-size="10.00">InputComponentInstance</text>
</a>
</g>
</g>
<!-- Node5&#45;&gt;Node4 -->
<g id="edge1" class="edge">
<title>Node5&#45;&gt;Node4</title>
<path fill="none" stroke="midnightblue" d="M325.78,-144.89C332.54,-142.77 339.47,-140.59 346,-138.5 389.26,-124.67 439.26,-108.18 469.87,-98.03"/>
<polygon fill="midnightblue" stroke="midnightblue" points="324.56,-141.6 316.06,-147.92 326.65,-148.29 324.56,-141.6"/>
</g>
<!-- Node6 -->
<g id="node3" class="node">
<title>Node6</title>
<g id="a_node3"><a xlink:href="../../d9/df2/classnap_1_1_component_instance.html" target="_top" xlink:title="ComponentInstance">
<polygon fill="white" stroke="black" points="82,-148 82,-167 185,-167 185,-148 82,-148"/>
<text text-anchor="middle" x="133.5" y="-155" font-family="Helvetica,sans-Serif" font-size="10.00">ComponentInstance</text>
</a>
</g>
</g>
<!-- Node6&#45;&gt;Node5 -->
<g id="edge2" class="edge">
<title>Node6&#45;&gt;Node5</title>
<path fill="none" stroke="midnightblue" d="M195.29,-157.5C204.03,-157.5 213.02,-157.5 221.76,-157.5"/>
<polygon fill="midnightblue" stroke="midnightblue" points="195.19,-154 185.19,-157.5 195.19,-161 195.19,-154"/>
</g>
<!-- Node7 -->
<g id="node4" class="node">
<title>Node7</title>
<g id="a_node4"><a xlink:href="../../de/d01/classnap_1_1rtti_1_1_object.html" target="_top" xlink:title="Object">
<polygon fill="white" stroke="black" points="0,-148 0,-167 45,-167 45,-148 0,-148"/>
<text text-anchor="middle" x="22.5" y="-155" font-family="Helvetica,sans-Serif" font-size="10.00">Object</text>
</a>
</g>
</g>
<!-- Node7&#45;&gt;Node6 -->
<g id="edge3" class="edge">
<title>Node7&#45;&gt;Node6</title>
<path fill="none" stroke="midnightblue" d="M55.05,-157.5C63.39,-157.5 72.6,-157.5 81.68,-157.5"/>
<polygon fill="midnightblue" stroke="midnightblue" points="55.03,-154 45.03,-157.5 55.03,-161 55.03,-154"/>
</g>
<!-- Node8 -->
<g id="node5" class="node">
<title>Node8</title>
<g id="a_node5"><a xlink:href="../../de/d80/classnap_1_1_signal.html" target="_top" xlink:title="Signal\&lt; const nap::\lPointerMoveEvent &amp;\&gt;">
<polygon fill="white" stroke="black" points="229,-98.5 229,-128.5 339,-128.5 339,-98.5 229,-98.5"/>
<text text-anchor="start" x="237" y="-116.5" font-family="Helvetica,sans-Serif" font-size="10.00">Signal&lt; const nap::</text>
<text text-anchor="middle" x="284" y="-105.5" font-family="Helvetica,sans-Serif" font-size="10.00">PointerMoveEvent &amp;&gt;</text>
</a>
</g>
</g>
<!-- Node8&#45;&gt;Node4 -->
<g id="edge4" class="edge">
<title>Node8&#45;&gt;Node4</title>
<path fill="none" stroke="#9a32cd" stroke-dasharray="5,2" d="M349.09,-106C371.98,-103.32 398,-100.27 421.84,-97.48"/>
<polygon fill="#9a32cd" stroke="#9a32cd" points="348.68,-102.52 339.15,-107.16 349.49,-109.47 348.68,-102.52"/>
<text text-anchor="middle" x="384" y="-106.5" font-family="Helvetica,sans-Serif" font-size="10.00"> moved</text>
</g>
<!-- Node9 -->
<g id="node6" class="node">
<title>Node9</title>
<g id="a_node6"><a xlink:href="../../de/d80/classnap_1_1_signal.html" target="_top" xlink:title="Signal\&lt; const nap::\lPointerPressEvent &amp;\&gt;">
<polygon fill="white" stroke="black" points="227.5,-49.5 227.5,-79.5 340.5,-79.5 340.5,-49.5 227.5,-49.5"/>
<text text-anchor="start" x="235.5" y="-67.5" font-family="Helvetica,sans-Serif" font-size="10.00">Signal&lt; const nap::</text>
<text text-anchor="middle" x="284" y="-56.5" font-family="Helvetica,sans-Serif" font-size="10.00">PointerPressEvent &amp;&gt;</text>
</a>
</g>
</g>
<!-- Node9&#45;&gt;Node4 -->
<g id="edge5" class="edge">
<title>Node9&#45;&gt;Node4</title>
<path fill="none" stroke="#9a32cd" stroke-dasharray="5,2" d="M350.67,-71.88C373.21,-74.42 398.62,-77.27 421.95,-79.89"/>
<polygon fill="#9a32cd" stroke="#9a32cd" points="350.87,-68.38 340.54,-70.74 350.08,-75.34 350.87,-68.38"/>
<text text-anchor="middle" x="384" y="-79.5" font-family="Helvetica,sans-Serif" font-size="10.00"> pressed</text>
</g>
<!-- Node10 -->
<g id="node7" class="node">
<title>Node10</title>
<g id="a_node7"><a xlink:href="../../de/d80/classnap_1_1_signal.html" target="_top" xlink:title="Signal\&lt; const nap::\lPointerReleaseEvent &amp;\&gt;">
<polygon fill="white" stroke="black" points="223,-0.5 223,-30.5 345,-30.5 345,-0.5 223,-0.5"/>
<text text-anchor="start" x="231" y="-18.5" font-family="Helvetica,sans-Serif" font-size="10.00">Signal&lt; const nap::</text>
<text text-anchor="middle" x="284" y="-7.5" font-family="Helvetica,sans-Serif" font-size="10.00">PointerReleaseEvent &amp;&gt;</text>
</a>
</g>
</g>
<!-- Node10&#45;&gt;Node4 -->
<g id="edge6" class="edge">
<title>Node10&#45;&gt;Node4</title>
<path fill="none" stroke="#9a32cd" stroke-dasharray="5,2" d="M338.49,-33.79C380.43,-48.13 437.11,-67.51 470.54,-78.94"/>
<polygon fill="#9a32cd" stroke="#9a32cd" points="339.57,-30.46 328.98,-30.54 337.31,-37.08 339.57,-30.46"/>
<text text-anchor="middle" x="384" y="-56.5" font-family="Helvetica,sans-Serif" font-size="10.00"> released</text>
</g>
</g>
</svg>
