<?xml version="1.0" encoding="UTF-8" standalone="no"?>
<!DOCTYPE svg PUBLIC "-//W3C//DTD SVG 1.1//EN"
 "http://www.w3.org/Graphics/SVG/1.1/DTD/svg11.dtd">
<!-- Generated by graphviz version 2.48.0 (20210717.1556)
 -->
<!-- Title: InputPinBase Pages: 1 -->
<svg width="152pt" height="84pt"
 viewBox="0.00 0.00 151.50 84.00" xmlns="http://www.w3.org/2000/svg" xmlns:xlink="http://www.w3.org/1999/xlink">
<g id="graph0" class="graph" transform="scale(1 1) rotate(0) translate(4 80)">
<title>InputPinBase</title>
<polygon fill="white" stroke="transparent" points="-4,4 -4,-80 147.5,-80 147.5,4 -4,4"/>
<!-- Node0 -->
<g id="node1" class="node">
<title>Node0</title>
<polygon fill="#bfbfbf" stroke="black" points="29,-56.5 29,-75.5 103,-75.5 103,-56.5 29,-56.5"/>
<text text-anchor="middle" x="66" y="-63.5" font-family="Helvetica,sans-Serif" font-size="10.00">InputPinBase</text>
</g>
<!-- Node1 -->
<g id="node2" class="node">
<title>Node1</title>
<g id="a_node2"><a xlink:href="../../d4/dd5/classnap_1_1audio_1_1_input_pin.html" target="_top" xlink:title="InputPin">
<polygon fill="white" stroke="black" points="0,-0.5 0,-19.5 52,-19.5 52,-0.5 0,-0.5"/>
<text text-anchor="middle" x="26" y="-7.5" font-family="Helvetica,sans-Serif" font-size="10.00">InputPin</text>
</a>
</g>
</g>
<!-- Node0&#45;&gt;Node1 -->
<g id="edge1" class="edge">
<title>Node0&#45;&gt;Node1</title>
<path fill="none" stroke="midnightblue" d="M53.3,-47.86C46.37,-38.5 38.09,-27.33 32.48,-19.75"/>
<polygon fill="midnightblue" stroke="midnightblue" points="50.63,-50.13 59.39,-56.08 56.25,-45.96 50.63,-50.13"/>
</g>
<!-- Node2 -->
<g id="node3" class="node">
<title>Node2</title>
<g id="a_node3"><a xlink:href="../../d8/d10/classnap_1_1audio_1_1_multi_input_pin.html" target="_top" xlink:title="MultiInputPin">
<polygon fill="white" stroke="black" points="70.5,-0.5 70.5,-19.5 143.5,-19.5 143.5,-0.5 70.5,-0.5"/>
<text text-anchor="middle" x="107" y="-7.5" font-family="Helvetica,sans-Serif" font-size="10.00">MultiInputPin</text>
</a>
</g>
</g>
<!-- Node0&#45;&gt;Node2 -->
<g id="edge2" class="edge">
<title>Node0&#45;&gt;Node2</title>
<path fill="none" stroke="midnightblue" d="M79.02,-47.86C86.12,-38.5 94.6,-27.33 100.36,-19.75"/>
<polygon fill="midnightblue" stroke="midnightblue" points="76.03,-46 72.77,-56.08 81.61,-50.24 76.03,-46"/>
</g>
</g>
</svg>
