<?xml version="1.0" encoding="UTF-8" standalone="no"?>
<!DOCTYPE svg PUBLIC "-//W3C//DTD SVG 1.1//EN"
 "http://www.w3.org/Graphics/SVG/1.1/DTD/svg11.dtd">
<!-- Generated by graphviz version 3.0.0 (20220226.1711)
 -->
<!-- Title: RenderableTextComponent Pages: 1 -->
<svg width="373pt" height="266pt"
 viewBox="0.00 0.00 372.50 266.00" xmlns="http://www.w3.org/2000/svg" xmlns:xlink="http://www.w3.org/1999/xlink">
<g id="graph0" class="graph" transform="scale(1 1) rotate(0) translate(4 262)">
<title>RenderableTextComponent</title>
<polygon fill="white" stroke="transparent" points="-4,4 -4,-262 368.5,-262 368.5,4 -4,4"/>
<!-- Node7 -->
<g id="node1" class="node">
<title>Node7</title>
<polygon fill="#bfbfbf" stroke="black" points="124.5,-0.5 124.5,-19.5 258.5,-19.5 258.5,-0.5 124.5,-0.5"/>
<text text-anchor="middle" x="191.5" y="-7.5" font-family="Helvetica,sans-Serif" font-size="10.00">RenderableTextComponent</text>
</g>
<!-- Node8 -->
<g id="node2" class="node">
<title>Node8</title>
<g id="a_node2"><a xlink:href="../../d1/d2c/classnap_1_1_renderable_component.html" target="_top" xlink:title="RenderableComponent">
<polygon fill="white" stroke="black" points="0,-67.5 0,-86.5 115,-86.5 115,-67.5 0,-67.5"/>
<text text-anchor="middle" x="57.5" y="-74.5" font-family="Helvetica,sans-Serif" font-size="10.00">RenderableComponent</text>
</a>
</g>
</g>
<!-- Node8&#45;&gt;Node7 -->
<g id="edge1" class="edge">
<title>Node8&#45;&gt;Node7</title>
<path fill="none" stroke="midnightblue" d="M84.42,-62.94C110.96,-50.07 150.77,-30.76 173.63,-19.67"/>
<polygon fill="midnightblue" stroke="midnightblue" points="82.76,-59.85 75.29,-67.37 85.82,-66.15 82.76,-59.85"/>
</g>
<!-- Node9 -->
<g id="node3" class="node">
<title>Node9</title>
<g id="a_node3"><a xlink:href="../../db/d6b/classnap_1_1_component.html" target="_top" xlink:title="Component">
<polygon fill="white" stroke="black" points="24.5,-124.5 24.5,-143.5 90.5,-143.5 90.5,-124.5 24.5,-124.5"/>
<text text-anchor="middle" x="57.5" y="-131.5" font-family="Helvetica,sans-Serif" font-size="10.00">Component</text>
</a>
</g>
</g>
<!-- Node9&#45;&gt;Node8 -->
<g id="edge2" class="edge">
<title>Node9&#45;&gt;Node8</title>
<path fill="none" stroke="midnightblue" d="M57.5,-114.12C57.5,-104.82 57.5,-94.06 57.5,-86.71"/>
<polygon fill="midnightblue" stroke="midnightblue" points="54,-114.41 57.5,-124.41 61,-114.41 54,-114.41"/>
</g>
<!-- Node10 -->
<g id="node4" class="node">
<title>Node10</title>
<g id="a_node4"><a xlink:href="../../d9/dea/classnap_1_1_resource.html" target="_top" xlink:title="Resource">
<polygon fill="white" stroke="black" points="28.5,-181.5 28.5,-200.5 86.5,-200.5 86.5,-181.5 28.5,-181.5"/>
<text text-anchor="middle" x="57.5" y="-188.5" font-family="Helvetica,sans-Serif" font-size="10.00">Resource</text>
</a>
</g>
</g>
<!-- Node10&#45;&gt;Node9 -->
<g id="edge3" class="edge">
<title>Node10&#45;&gt;Node9</title>
<path fill="none" stroke="midnightblue" d="M57.5,-171.12C57.5,-161.82 57.5,-151.06 57.5,-143.71"/>
<polygon fill="midnightblue" stroke="midnightblue" points="54,-171.41 57.5,-181.41 61,-171.41 54,-171.41"/>
</g>
<!-- Node11 -->
<g id="node5" class="node">
<title>Node11</title>
<g id="a_node5"><a xlink:href="../../de/d01/classnap_1_1rtti_1_1_object.html" target="_top" xlink:title="Object">
<polygon fill="white" stroke="black" points="35,-238.5 35,-257.5 80,-257.5 80,-238.5 35,-238.5"/>
<text text-anchor="middle" x="57.5" y="-245.5" font-family="Helvetica,sans-Serif" font-size="10.00">Object</text>
</a>
</g>
</g>
<!-- Node11&#45;&gt;Node10 -->
<g id="edge4" class="edge">
<title>Node11&#45;&gt;Node10</title>
<path fill="none" stroke="midnightblue" d="M57.5,-228.12C57.5,-218.82 57.5,-208.06 57.5,-200.71"/>
<polygon fill="midnightblue" stroke="midnightblue" points="54,-228.41 57.5,-238.41 61,-228.41 54,-228.41"/>
</g>
<!-- Node12 -->
<g id="node6" class="node">
<title>Node12</title>
<g id="a_node6"><a xlink:href="../../dd/d7c/classnap_1_1rtti_1_1_object_ptr.html" target="_top" xlink:title="ObjectPtr\&lt; nap::Font \&gt;">
<polygon fill="white" stroke="black" points="133,-67.5 133,-86.5 250,-86.5 250,-67.5 133,-67.5"/>
<text text-anchor="middle" x="191.5" y="-74.5" font-family="Helvetica,sans-Serif" font-size="10.00">ObjectPtr&lt; nap::Font &gt;</text>
</a>
</g>
</g>
<!-- Node12&#45;&gt;Node7 -->
<g id="edge5" class="edge">
<title>Node12&#45;&gt;Node7</title>
<path fill="none" stroke="#9a32cd" stroke-dasharray="5,2" d="M191.5,-57.04C191.5,-44.67 191.5,-29.12 191.5,-19.63"/>
<polygon fill="#9a32cd" stroke="#9a32cd" points="188,-57.23 191.5,-67.23 195,-57.23 188,-57.23"/>
<text text-anchor="middle" x="207" y="-41" font-family="Helvetica,sans-Serif" font-size="10.00"> mFont</text>
</g>
<!-- Node13 -->
<g id="node7" class="node">
<title>Node13</title>
<g id="a_node7"><a xlink:href="../../d7/dcb/classnap_1_1rtti_1_1_object_ptr_base.html" target="_top" xlink:title="ObjectPtrBase">
<polygon fill="white" stroke="black" points="151.5,-124.5 151.5,-143.5 231.5,-143.5 231.5,-124.5 151.5,-124.5"/>
<text text-anchor="middle" x="191.5" y="-131.5" font-family="Helvetica,sans-Serif" font-size="10.00">ObjectPtrBase</text>
</a>
</g>
</g>
<!-- Node13&#45;&gt;Node12 -->
<g id="edge6" class="edge">
<title>Node13&#45;&gt;Node12</title>
<path fill="none" stroke="midnightblue" d="M191.5,-114.12C191.5,-104.82 191.5,-94.06 191.5,-86.71"/>
<polygon fill="midnightblue" stroke="midnightblue" points="188,-114.41 191.5,-124.41 195,-114.41 188,-114.41"/>
</g>
<!-- Node14 -->
<g id="node8" class="node">
<title>Node14</title>
<g id="a_node8"><a xlink:href="../../d4/dd7/classnap_1_1_r_g_b_color.html" target="_top" xlink:title="RGBColor\&lt; float \&gt;">
<polygon fill="white" stroke="black" points="268.5,-67.5 268.5,-86.5 364.5,-86.5 364.5,-67.5 268.5,-67.5"/>
<text text-anchor="middle" x="316.5" y="-74.5" font-family="Helvetica,sans-Serif" font-size="10.00">RGBColor&lt; float &gt;</text>
</a>
</g>
</g>
<!-- Node14&#45;&gt;Node7 -->
<g id="edge7" class="edge">
<title>Node14&#45;&gt;Node7</title>
<path fill="none" stroke="#9a32cd" stroke-dasharray="5,2" d="M290.74,-62.6C265.98,-49.73 229.31,-30.66 208.17,-19.67"/>
<polygon fill="#9a32cd" stroke="#9a32cd" points="289.41,-65.86 299.9,-67.37 292.64,-59.65 289.41,-65.86"/>
<text text-anchor="middle" x="278.5" y="-41" font-family="Helvetica,sans-Serif" font-size="10.00"> mColor</text>
</g>
<!-- Node15 -->
<g id="node9" class="node">
<title>Node15</title>
<g id="a_node9"><a xlink:href="../../d6/d3d/classnap_1_1_color.html" target="_top" xlink:title="Color\&lt; float, 3 \&gt;">
<polygon fill="white" stroke="black" points="273.5,-124.5 273.5,-143.5 359.5,-143.5 359.5,-124.5 273.5,-124.5"/>
<text text-anchor="middle" x="316.5" y="-131.5" font-family="Helvetica,sans-Serif" font-size="10.00">Color&lt; float, 3 &gt;</text>
</a>
</g>
</g>
<!-- Node15&#45;&gt;Node14 -->
<g id="edge8" class="edge">
<title>Node15&#45;&gt;Node14</title>
<path fill="none" stroke="midnightblue" d="M316.5,-114.12C316.5,-104.82 316.5,-94.06 316.5,-86.71"/>
<polygon fill="midnightblue" stroke="midnightblue" points="313,-114.41 316.5,-124.41 320,-114.41 313,-114.41"/>
</g>
<!-- Node16 -->
<g id="node10" class="node">
<title>Node16</title>
<g id="a_node10"><a xlink:href="../../d8/d6a/classnap_1_1_base_color.html" target="_top" xlink:title="BaseColor">
<polygon fill="white" stroke="black" points="285.5,-181.5 285.5,-200.5 347.5,-200.5 347.5,-181.5 285.5,-181.5"/>
<text text-anchor="middle" x="316.5" y="-188.5" font-family="Helvetica,sans-Serif" font-size="10.00">BaseColor</text>
</a>
</g>
</g>
<!-- Node16&#45;&gt;Node15 -->
<g id="edge9" class="edge">
<title>Node16&#45;&gt;Node15</title>
<path fill="none" stroke="midnightblue" d="M316.5,-171.12C316.5,-161.82 316.5,-151.06 316.5,-143.71"/>
<polygon fill="midnightblue" stroke="midnightblue" points="313,-171.41 316.5,-181.41 320,-171.41 313,-171.41"/>
</g>
</g>
</svg>
