<?xml version="1.0" encoding="UTF-8" standalone="no"?>
<!DOCTYPE svg PUBLIC "-//W3C//DTD SVG 1.1//EN"
 "http://www.w3.org/Graphics/SVG/1.1/DTD/svg11.dtd">
<!-- Generated by graphviz version 2.48.0 (20210717.1556)
 -->
<!-- Title: TypedBufferBindingNumericInstance&lt; T &gt; Pages: 1 -->
<svg width="329pt" height="386pt"
 viewBox="0.00 0.00 328.50 386.00" xmlns="http://www.w3.org/2000/svg" xmlns:xlink="http://www.w3.org/1999/xlink">
<g id="graph0" class="graph" transform="scale(1 1) rotate(0) translate(4 382)">
<title>TypedBufferBindingNumericInstance&lt; T &gt;</title>
<polygon fill="white" stroke="transparent" points="-4,4 -4,-382 324.5,-382 324.5,4 -4,4"/>
<!-- Node3 -->
<g id="node1" class="node">
<title>Node3</title>
<polygon fill="#bfbfbf" stroke="black" points="117,-0.5 117,-30.5 253,-30.5 253,-0.5 117,-0.5"/>
<text text-anchor="start" x="125" y="-18.5" font-family="Helvetica,sans-Serif" font-size="10.00">TypedBufferBindingNumeric</text>
<text text-anchor="middle" x="185" y="-7.5" font-family="Helvetica,sans-Serif" font-size="10.00">Instance&lt; T &gt;</text>
</g>
<!-- Node4 -->
<g id="node2" class="node">
<title>Node4</title>
<g id="a_node2"><a xlink:href="../../de/dc7/classnap_1_1_buffer_binding_numeric_instance.html" target="_top" xlink:title="BufferBindingNumericInstance">
<polygon fill="white" stroke="black" points="112,-68.5 112,-87.5 258,-87.5 258,-68.5 112,-68.5"/>
<text text-anchor="middle" x="185" y="-75.5" font-family="Helvetica,sans-Serif" font-size="10.00">BufferBindingNumericInstance</text>
</a>
</g>
</g>
<!-- Node4&#45;&gt;Node3 -->
<g id="edge1" class="edge">
<title>Node4&#45;&gt;Node3</title>
<path fill="none" stroke="midnightblue" d="M185,-58.22C185,-49.36 185,-38.96 185,-30.76"/>
<polygon fill="midnightblue" stroke="midnightblue" points="181.5,-58.33 185,-68.33 188.5,-58.33 181.5,-58.33"/>
</g>
<!-- Node5 -->
<g id="node3" class="node">
<title>Node5</title>
<g id="a_node3"><a xlink:href="../../da/d5c/classnap_1_1_buffer_binding_instance.html" target="_top" xlink:title="BufferBindingInstance">
<polygon fill="white" stroke="black" points="61,-141 61,-160 171,-160 171,-141 61,-141"/>
<text text-anchor="middle" x="116" y="-148" font-family="Helvetica,sans-Serif" font-size="10.00">BufferBindingInstance</text>
</a>
</g>
</g>
<!-- Node5&#45;&gt;Node4 -->
<g id="edge2" class="edge">
<title>Node5&#45;&gt;Node4</title>
<path fill="none" stroke="midnightblue" d="M131.47,-133.69C145.37,-119.49 165.26,-99.17 176.47,-87.72"/>
<polygon fill="midnightblue" stroke="midnightblue" points="128.95,-131.26 124.46,-140.86 133.96,-136.16 128.95,-131.26"/>
</g>
<!-- Node6 -->
<g id="node4" class="node">
<title>Node6</title>
<g id="a_node4"><a xlink:href="../../dd/df4/classnap_1_1_g_p_u_buffer.html" target="_top" xlink:title="GPUBuffer">
<polygon fill="white" stroke="black" points="85,-213.5 85,-232.5 147,-232.5 147,-213.5 85,-213.5"/>
<text text-anchor="middle" x="116" y="-220.5" font-family="Helvetica,sans-Serif" font-size="10.00">GPUBuffer</text>
</a>
</g>
</g>
<!-- Node6&#45;&gt;Node5 -->
<g id="edge3" class="edge">
<title>Node6&#45;&gt;Node5</title>
<path fill="none" stroke="#9a32cd" stroke-dasharray="5,2" d="M116,-202.94C116,-189.03 116,-170.82 116,-160.22"/>
<polygon fill="#9a32cd" stroke="#9a32cd" points="112.5,-203.36 116,-213.36 119.5,-203.36 112.5,-203.36"/>
<text text-anchor="middle" x="134.5" y="-187" font-family="Helvetica,sans-Serif" font-size="10.00"> mBuffer</text>
</g>
<!-- Node7 -->
<g id="node5" class="node">
<title>Node7</title>
<g id="a_node5"><a xlink:href="../../d9/dea/classnap_1_1_resource.html" target="_top" xlink:title="Resource">
<polygon fill="white" stroke="black" points="0,-280.5 0,-299.5 58,-299.5 58,-280.5 0,-280.5"/>
<text text-anchor="middle" x="29" y="-287.5" font-family="Helvetica,sans-Serif" font-size="10.00">Resource</text>
</a>
</g>
</g>
<!-- Node7&#45;&gt;Node6 -->
<g id="edge4" class="edge">
<title>Node7&#45;&gt;Node6</title>
<path fill="none" stroke="midnightblue" d="M48.99,-274.07C66.16,-261.24 90.32,-243.19 104.45,-232.63"/>
<polygon fill="midnightblue" stroke="midnightblue" points="46.65,-271.44 40.73,-280.23 50.84,-277.05 46.65,-271.44"/>
</g>
<!-- Node8 -->
<g id="node6" class="node">
<title>Node8</title>
<g id="a_node6"><a xlink:href="../../de/d01/classnap_1_1rtti_1_1_object.html" target="_top" xlink:title="Object">
<polygon fill="white" stroke="black" points="6.5,-358.5 6.5,-377.5 51.5,-377.5 51.5,-358.5 6.5,-358.5"/>
<text text-anchor="middle" x="29" y="-365.5" font-family="Helvetica,sans-Serif" font-size="10.00">Object</text>
</a>
</g>
</g>
<!-- Node8&#45;&gt;Node7 -->
<g id="edge5" class="edge">
<title>Node8&#45;&gt;Node7</title>
<path fill="none" stroke="midnightblue" d="M29,-348.22C29,-332.7 29,-311.36 29,-299.62"/>
<polygon fill="midnightblue" stroke="midnightblue" points="25.5,-348.28 29,-358.28 32.5,-348.28 25.5,-348.28"/>
</g>
<!-- Node9 -->
<g id="node7" class="node">
<title>Node9</title>
<g id="a_node7"><a xlink:href="../../d5/dc6/classnap_1_1_render_service.html" target="_top" xlink:title="RenderService">
<polygon fill="white" stroke="black" points="76.5,-280.5 76.5,-299.5 155.5,-299.5 155.5,-280.5 76.5,-280.5"/>
<text text-anchor="middle" x="116" y="-287.5" font-family="Helvetica,sans-Serif" font-size="10.00">RenderService</text>
</a>
</g>
</g>
<!-- Node9&#45;&gt;Node6 -->
<g id="edge6" class="edge">
<title>Node9&#45;&gt;Node6</title>
<path fill="none" stroke="#9a32cd" stroke-dasharray="5,2" d="M116,-270.04C116,-257.67 116,-242.12 116,-232.63"/>
<polygon fill="#9a32cd" stroke="#9a32cd" points="112.5,-270.23 116,-280.23 119.5,-270.23 112.5,-270.23"/>
<text text-anchor="middle" x="153" y="-254" font-family="Helvetica,sans-Serif" font-size="10.00"> mRenderService</text>
</g>
<!-- Node10 -->
<g id="node8" class="node">
<title>Node10</title>
<g id="a_node8"><a xlink:href="../../d8/d8e/classnap_1_1_service.html" target="_top" xlink:title="Service">
<polygon fill="white" stroke="black" points="81,-358.5 81,-377.5 129,-377.5 129,-358.5 81,-358.5"/>
<text text-anchor="middle" x="105" y="-365.5" font-family="Helvetica,sans-Serif" font-size="10.00">Service</text>
</a>
</g>
</g>
<!-- Node10&#45;&gt;Node9 -->
<g id="edge7" class="edge">
<title>Node10&#45;&gt;Node9</title>
<path fill="none" stroke="midnightblue" d="M107.72,-348.22C109.96,-332.7 113.05,-311.36 114.75,-299.62"/>
<polygon fill="midnightblue" stroke="midnightblue" points="104.23,-347.88 106.26,-358.28 111.16,-348.89 104.23,-347.88"/>
</g>
<!-- Node11 -->
<g id="node9" class="node">
<title>Node11</title>
<g id="a_node9"><a xlink:href="../../de/d80/classnap_1_1_signal.html" target="_top" xlink:title="Signal\&lt; nap::RenderWindow &amp;\&gt;">
<polygon fill="white" stroke="black" points="147.5,-358.5 147.5,-377.5 302.5,-377.5 302.5,-358.5 147.5,-358.5"/>
<text text-anchor="middle" x="225" y="-365.5" font-family="Helvetica,sans-Serif" font-size="10.00">Signal&lt; nap::RenderWindow &amp;&gt;</text>
</a>
</g>
</g>
<!-- Node11&#45;&gt;Node9 -->
<g id="edge8" class="edge">
<title>Node11&#45;&gt;Node9</title>
<path fill="none" stroke="#9a32cd" stroke-dasharray="5,2" d="M204,-352.36C181.57,-336.72 146.75,-312.44 128.36,-299.62"/>
<polygon fill="#9a32cd" stroke="#9a32cd" points="202.29,-355.43 212.5,-358.28 206.3,-349.69 202.29,-355.43"/>
<text text-anchor="middle" x="221.5" y="-332" font-family="Helvetica,sans-Serif" font-size="10.00"> windowRemoved</text>
<text text-anchor="middle" x="221.5" y="-321" font-family="Helvetica,sans-Serif" font-size="10.00">windowAdded</text>
</g>
<!-- Node12 -->
<g id="node10" class="node">
<title>Node12</title>
<g id="a_node10"><a xlink:href="../../de/d80/classnap_1_1_signal.html" target="_top" xlink:title="Signal\&lt; Args \&gt;">
<polygon fill="white" stroke="black" points="174,-280.5 174,-299.5 256,-299.5 256,-280.5 174,-280.5"/>
<text text-anchor="middle" x="215" y="-287.5" font-family="Helvetica,sans-Serif" font-size="10.00">Signal&lt; Args &gt;</text>
</a>
</g>
</g>
<!-- Node12&#45;&gt;Node6 -->
<g id="edge9" class="edge">
<title>Node12&#45;&gt;Node6</title>
<path fill="none" stroke="#9a32cd" stroke-dasharray="5,2" d="M207.75,-270.75C204.2,-263.76 199.31,-256.23 193,-251 179.91,-240.16 162.17,-233.55 147.02,-229.58"/>
<polygon fill="#9a32cd" stroke="#9a32cd" points="204.73,-272.56 212,-280.26 211.12,-269.7 204.73,-272.56"/>
<text text-anchor="middle" x="235.5" y="-254" font-family="Helvetica,sans-Serif" font-size="10.00"> bufferChanged</text>
</g>
<!-- Node13 -->
<g id="node11" class="node">
<title>Node13</title>
<g id="a_node11"><a xlink:href="../../d8/d24/classnap_1_1_shader_variable_value_array_declaration.html" target="_top" xlink:title="ShaderVariableValueArray\lDeclaration">
<polygon fill="white" stroke="black" points="189.5,-135.5 189.5,-165.5 320.5,-165.5 320.5,-135.5 189.5,-135.5"/>
<text text-anchor="start" x="197.5" y="-153.5" font-family="Helvetica,sans-Serif" font-size="10.00">ShaderVariableValueArray</text>
<text text-anchor="middle" x="255" y="-142.5" font-family="Helvetica,sans-Serif" font-size="10.00">Declaration</text>
</a>
</g>
</g>
<!-- Node13&#45;&gt;Node4 -->
<g id="edge10" class="edge">
<title>Node13&#45;&gt;Node4</title>
<path fill="none" stroke="#9a32cd" stroke-dasharray="5,2" d="M233.79,-128.14C220.4,-114.65 203.81,-97.94 193.83,-87.89"/>
<polygon fill="#9a32cd" stroke="#9a32cd" points="231.3,-130.6 240.83,-135.23 236.27,-125.67 231.3,-130.6"/>
<text text-anchor="middle" x="253.5" y="-109" font-family="Helvetica,sans-Serif" font-size="10.00"> mDeclaration</text>
</g>
<!-- Node14 -->
<g id="node12" class="node">
<title>Node14</title>
<g id="a_node12"><a xlink:href="../../dc/d72/classnap_1_1_shader_variable_declaration.html" target="_top" xlink:title="ShaderVariableDeclaration">
<polygon fill="white" stroke="black" points="189.5,-213.5 189.5,-232.5 320.5,-232.5 320.5,-213.5 189.5,-213.5"/>
<text text-anchor="middle" x="255" y="-220.5" font-family="Helvetica,sans-Serif" font-size="10.00">ShaderVariableDeclaration</text>
</a>
</g>
</g>
<!-- Node14&#45;&gt;Node13 -->
<g id="edge11" class="edge">
<title>Node14&#45;&gt;Node13</title>
<path fill="none" stroke="midnightblue" d="M255,-203.24C255,-191.41 255,-176.38 255,-165.58"/>
<polygon fill="midnightblue" stroke="midnightblue" points="251.5,-203.36 255,-213.36 258.5,-203.36 251.5,-203.36"/>
</g>
</g>
</svg>
