<?xml version="1.0" encoding="UTF-8" standalone="no"?>
<!DOCTYPE svg PUBLIC "-//W3C//DTD SVG 1.1//EN"
 "http://www.w3.org/Graphics/SVG/1.1/DTD/svg11.dtd">
<!-- Generated by graphviz version 2.43.0 (0)
 -->
<!-- Title: TypedBufferBindingNumericInstance&lt; T &gt; Pages: 1 -->
<svg width="357pt" height="386pt"
 viewBox="0.00 0.00 357.00 386.00" xmlns="http://www.w3.org/2000/svg" xmlns:xlink="http://www.w3.org/1999/xlink">
<g id="graph0" class="graph" transform="scale(1 1) rotate(0) translate(4 382)">
<title>TypedBufferBindingNumericInstance&lt; T &gt;</title>
<polygon fill="white" stroke="transparent" points="-4,4 -4,-382 353,-382 353,4 -4,4"/>
<!-- Node1 -->
<g id="node1" class="node">
<title>Node1</title>
<g id="a_node1"><a xlink:title=" ">
<polygon fill="#bfbfbf" stroke="black" points="123,-0.5 123,-30.5 275,-30.5 275,-0.5 123,-0.5"/>
<text text-anchor="start" x="131" y="-18.5" font-family="Helvetica,sans-Serif" font-size="10.00">TypedBufferBindingNumeric</text>
<text text-anchor="middle" x="199" y="-7.5" font-family="Helvetica,sans-Serif" font-size="10.00">Instance&lt; T &gt;</text>
</a>
</g>
</g>
<!-- Node2 -->
<g id="node2" class="node">
<title>Node2</title>
<g id="a_node2"><a xlink:href="../../de/dc7/classnap_1_1_buffer_binding_numeric_instance.html" target="_top" xlink:title=" ">
<polygon fill="white" stroke="black" points="116.5,-68.5 116.5,-87.5 281.5,-87.5 281.5,-68.5 116.5,-68.5"/>
<text text-anchor="middle" x="199" y="-75.5" font-family="Helvetica,sans-Serif" font-size="10.00">BufferBindingNumericInstance</text>
</a>
</g>
</g>
<!-- Node2&#45;&gt;Node1 -->
<g id="edge1" class="edge">
<title>Node2&#45;&gt;Node1</title>
<path fill="none" stroke="midnightblue" d="M199,-58.22C199,-49.36 199,-38.96 199,-30.76"/>
<polygon fill="midnightblue" stroke="midnightblue" points="195.5,-58.33 199,-68.33 202.5,-58.33 195.5,-58.33"/>
</g>
<!-- Node3 -->
<g id="node3" class="node">
<title>Node3</title>
<g id="a_node3"><a xlink:href="../../da/d5c/classnap_1_1_buffer_binding_instance.html" target="_top" xlink:title=" ">
<polygon fill="white" stroke="black" points="62,-141 62,-160 186,-160 186,-141 62,-141"/>
<text text-anchor="middle" x="124" y="-148" font-family="Helvetica,sans-Serif" font-size="10.00">BufferBindingInstance</text>
</a>
</g>
</g>
<!-- Node3&#45;&gt;Node2 -->
<g id="edge2" class="edge">
<title>Node3&#45;&gt;Node2</title>
<path fill="none" stroke="midnightblue" d="M140.82,-133.69C155.92,-119.49 177.54,-99.17 189.73,-87.72"/>
<polygon fill="midnightblue" stroke="midnightblue" points="138.09,-131.46 133.2,-140.86 142.88,-136.56 138.09,-131.46"/>
</g>
<!-- Node4 -->
<g id="node4" class="node">
<title>Node4</title>
<g id="a_node4"><a xlink:href="../../dd/df4/classnap_1_1_g_p_u_buffer.html" target="_top" xlink:title=" ">
<polygon fill="white" stroke="black" points="90.5,-213.5 90.5,-232.5 157.5,-232.5 157.5,-213.5 90.5,-213.5"/>
<text text-anchor="middle" x="124" y="-220.5" font-family="Helvetica,sans-Serif" font-size="10.00">GPUBuffer</text>
</a>
</g>
</g>
<!-- Node4&#45;&gt;Node3 -->
<g id="edge3" class="edge">
<title>Node4&#45;&gt;Node3</title>
<path fill="none" stroke="#9a32cd" stroke-dasharray="5,2" d="M124,-202.94C124,-189.03 124,-170.82 124,-160.22"/>
<polygon fill="#9a32cd" stroke="#9a32cd" points="120.5,-203.36 124,-213.36 127.5,-203.36 120.5,-203.36"/>
<text text-anchor="middle" x="145.5" y="-187" font-family="Helvetica,sans-Serif" font-size="10.00"> mBuffer</text>
</g>
<!-- Node5 -->
<g id="node5" class="node">
<title>Node5</title>
<g id="a_node5"><a xlink:href="../../d9/dea/classnap_1_1_resource.html" target="_top" xlink:title=" ">
<polygon fill="white" stroke="black" points="0,-280.5 0,-299.5 62,-299.5 62,-280.5 0,-280.5"/>
<text text-anchor="middle" x="31" y="-287.5" font-family="Helvetica,sans-Serif" font-size="10.00">Resource</text>
</a>
</g>
</g>
<!-- Node5&#45;&gt;Node4 -->
<g id="edge4" class="edge">
<title>Node5&#45;&gt;Node4</title>
<path fill="none" stroke="midnightblue" d="M51.86,-274.42C70.25,-261.57 96.41,-243.28 111.66,-232.63"/>
<polygon fill="midnightblue" stroke="midnightblue" points="49.73,-271.64 43.54,-280.23 53.74,-277.37 49.73,-271.64"/>
</g>
<!-- Node6 -->
<g id="node6" class="node">
<title>Node6</title>
<g id="a_node6"><a xlink:href="../../de/d01/classnap_1_1rtti_1_1_object.html" target="_top" xlink:title=" ">
<polygon fill="white" stroke="black" points="7,-358.5 7,-377.5 55,-377.5 55,-358.5 7,-358.5"/>
<text text-anchor="middle" x="31" y="-365.5" font-family="Helvetica,sans-Serif" font-size="10.00">Object</text>
</a>
</g>
</g>
<!-- Node6&#45;&gt;Node5 -->
<g id="edge5" class="edge">
<title>Node6&#45;&gt;Node5</title>
<path fill="none" stroke="midnightblue" d="M31,-348.22C31,-332.7 31,-311.36 31,-299.62"/>
<polygon fill="midnightblue" stroke="midnightblue" points="27.5,-348.28 31,-358.28 34.5,-348.28 27.5,-348.28"/>
</g>
<!-- Node7 -->
<g id="node7" class="node">
<title>Node7</title>
<g id="a_node7"><a xlink:href="../../d5/dc6/classnap_1_1_render_service.html" target="_top" xlink:title=" ">
<polygon fill="white" stroke="black" points="80.5,-280.5 80.5,-299.5 167.5,-299.5 167.5,-280.5 80.5,-280.5"/>
<text text-anchor="middle" x="124" y="-287.5" font-family="Helvetica,sans-Serif" font-size="10.00">RenderService</text>
</a>
</g>
</g>
<!-- Node7&#45;&gt;Node4 -->
<g id="edge6" class="edge">
<title>Node7&#45;&gt;Node4</title>
<path fill="none" stroke="#9a32cd" stroke-dasharray="5,2" d="M124,-270.04C124,-257.67 124,-242.12 124,-232.63"/>
<polygon fill="#9a32cd" stroke="#9a32cd" points="120.5,-270.23 124,-280.23 127.5,-270.23 120.5,-270.23"/>
<text text-anchor="middle" x="166" y="-254" font-family="Helvetica,sans-Serif" font-size="10.00"> mRenderService</text>
</g>
<!-- Node8 -->
<g id="node8" class="node">
<title>Node8</title>
<g id="a_node8"><a xlink:href="../../d8/d8e/classnap_1_1_service.html" target="_top" xlink:title=" ">
<polygon fill="white" stroke="black" points="85.5,-358.5 85.5,-377.5 138.5,-377.5 138.5,-358.5 85.5,-358.5"/>
<text text-anchor="middle" x="112" y="-365.5" font-family="Helvetica,sans-Serif" font-size="10.00">Service</text>
</a>
</g>
</g>
<!-- Node8&#45;&gt;Node7 -->
<g id="edge7" class="edge">
<title>Node8&#45;&gt;Node7</title>
<path fill="none" stroke="midnightblue" d="M114.96,-348.22C117.42,-332.7 120.79,-311.36 122.64,-299.62"/>
<polygon fill="midnightblue" stroke="midnightblue" points="111.48,-347.86 113.38,-358.28 118.39,-348.95 111.48,-347.86"/>
</g>
<!-- Node9 -->
<g id="node9" class="node">
<title>Node9</title>
<g id="a_node9"><a xlink:href="../../de/d80/classnap_1_1_signal.html" target="_top" xlink:title=" ">
<polygon fill="white" stroke="black" points="156.5,-358.5 156.5,-377.5 333.5,-377.5 333.5,-358.5 156.5,-358.5"/>
<text text-anchor="middle" x="245" y="-365.5" font-family="Helvetica,sans-Serif" font-size="10.00">Signal&lt; nap::RenderWindow &amp; &gt;</text>
</a>
</g>
</g>
<!-- Node9&#45;&gt;Node7 -->
<g id="edge8" class="edge">
<title>Node9&#45;&gt;Node7</title>
<path fill="none" stroke="#9a32cd" stroke-dasharray="5,2" d="M222.35,-352.77C197.47,-337.15 158.32,-312.56 137.72,-299.62"/>
<polygon fill="#9a32cd" stroke="#9a32cd" points="220.79,-355.93 231.12,-358.28 224.51,-350 220.79,-355.93"/>
<text text-anchor="middle" x="243" y="-332" font-family="Helvetica,sans-Serif" font-size="10.00"> windowRemoved</text>
<text text-anchor="middle" x="243" y="-321" font-family="Helvetica,sans-Serif" font-size="10.00">windowAdded</text>
</g>
<!-- Node10 -->
<g id="node10" class="node">
<title>Node10</title>
<g id="a_node10"><a xlink:href="../../de/d80/classnap_1_1_signal.html" target="_top" xlink:title=" ">
<polygon fill="white" stroke="black" points="185.5,-280.5 185.5,-299.5 276.5,-299.5 276.5,-280.5 185.5,-280.5"/>
<text text-anchor="middle" x="231" y="-287.5" font-family="Helvetica,sans-Serif" font-size="10.00">Signal&lt; Args &gt;</text>
</a>
</g>
</g>
<!-- Node10&#45;&gt;Node4 -->
<g id="edge9" class="edge">
<title>Node10&#45;&gt;Node4</title>
<path fill="none" stroke="#9a32cd" stroke-dasharray="5,2" d="M223.83,-270.66C220.29,-263.66 215.39,-256.13 209,-251 194.39,-239.27 174.61,-232.59 157.8,-228.82"/>
<polygon fill="#9a32cd" stroke="#9a32cd" points="220.8,-272.47 228.05,-280.2 227.21,-269.64 220.8,-272.47"/>
<text text-anchor="middle" x="256.5" y="-254" font-family="Helvetica,sans-Serif" font-size="10.00"> bufferChanged</text>
</g>
<!-- Node11 -->
<g id="node11" class="node">
<title>Node11</title>
<g id="a_node11"><a xlink:href="../../d8/d24/classnap_1_1_shader_variable_value_array_declaration.html" target="_top" xlink:title=" ">
<polygon fill="white" stroke="black" points="204.5,-135.5 204.5,-165.5 347.5,-165.5 347.5,-135.5 204.5,-135.5"/>
<text text-anchor="start" x="212.5" y="-153.5" font-family="Helvetica,sans-Serif" font-size="10.00">ShaderVariableValueArray</text>
<text text-anchor="middle" x="276" y="-142.5" font-family="Helvetica,sans-Serif" font-size="10.00">Declaration</text>
</a>
</g>
</g>
<!-- Node11&#45;&gt;Node2 -->
<g id="edge10" class="edge">
<title>Node11&#45;&gt;Node2</title>
<path fill="none" stroke="#9a32cd" stroke-dasharray="5,2" d="M252.67,-128.14C237.94,-114.65 219.69,-97.94 208.71,-87.89"/>
<polygon fill="#9a32cd" stroke="#9a32cd" points="250.68,-131.06 260.42,-135.23 255.41,-125.9 250.68,-131.06"/>
<text text-anchor="middle" x="275" y="-109" font-family="Helvetica,sans-Serif" font-size="10.00"> mDeclaration</text>
</g>
<!-- Node12 -->
<g id="node12" class="node">
<title>Node12</title>
<g id="a_node12"><a xlink:href="../../dc/d72/classnap_1_1_shader_variable_declaration.html" target="_top" xlink:title=" ">
<polygon fill="white" stroke="black" points="203,-213.5 203,-232.5 349,-232.5 349,-213.5 203,-213.5"/>
<text text-anchor="middle" x="276" y="-220.5" font-family="Helvetica,sans-Serif" font-size="10.00">ShaderVariableDeclaration</text>
</a>
</g>
</g>
<!-- Node12&#45;&gt;Node11 -->
<g id="edge11" class="edge">
<title>Node12&#45;&gt;Node11</title>
<path fill="none" stroke="midnightblue" d="M276,-203.24C276,-191.41 276,-176.38 276,-165.58"/>
<polygon fill="midnightblue" stroke="midnightblue" points="272.5,-203.36 276,-213.36 279.5,-203.36 272.5,-203.36"/>
</g>
</g>
</svg>
