<?xml version="1.0" encoding="UTF-8" standalone="no"?>
<!DOCTYPE svg PUBLIC "-//W3C//DTD SVG 1.1//EN"
 "http://www.w3.org/Graphics/SVG/1.1/DTD/svg11.dtd">
<!-- Generated by graphviz version 2.48.0 (20210717.1556)
 -->
<!-- Title: TypedBufferBindingNumeric&lt; T &gt; Pages: 1 -->
<svg width="507pt" height="375pt"
 viewBox="0.00 0.00 506.50 375.00" xmlns="http://www.w3.org/2000/svg" xmlns:xlink="http://www.w3.org/1999/xlink">
<g id="graph0" class="graph" transform="scale(1 1) rotate(0) translate(4 371)">
<title>TypedBufferBindingNumeric&lt; T &gt;</title>
<polygon fill="white" stroke="transparent" points="-4,4 -4,-371 502.5,-371 502.5,4 -4,4"/>
<!-- Node5 -->
<g id="node1" class="node">
<title>Node5</title>
<polygon fill="#bfbfbf" stroke="black" points="260.5,-0.5 260.5,-19.5 419.5,-19.5 419.5,-0.5 260.5,-0.5"/>
<text text-anchor="middle" x="340" y="-7.5" font-family="Helvetica,sans-Serif" font-size="10.00">TypedBufferBindingNumeric&lt; T &gt;</text>
</g>
<!-- Node6 -->
<g id="node2" class="node">
<title>Node6</title>
<g id="a_node2"><a xlink:href="../../df/db8/classnap_1_1_buffer_binding_numeric.html" target="_top" xlink:title="BufferBindingNumeric">
<polygon fill="white" stroke="black" points="209,-73 209,-92 319,-92 319,-73 209,-73"/>
<text text-anchor="middle" x="264" y="-80" font-family="Helvetica,sans-Serif" font-size="10.00">BufferBindingNumeric</text>
</a>
</g>
</g>
<!-- Node6&#45;&gt;Node5 -->
<g id="edge1" class="edge">
<title>Node6&#45;&gt;Node5</title>
<path fill="none" stroke="midnightblue" d="M281.04,-65.69C296.35,-51.49 318.26,-31.17 330.6,-19.72"/>
<polygon fill="midnightblue" stroke="midnightblue" points="278.27,-63.49 273.32,-72.86 283.03,-68.62 278.27,-63.49"/>
</g>
<!-- Node7 -->
<g id="node3" class="node">
<title>Node7</title>
<g id="a_node3"><a xlink:href="../../d0/d99/classnap_1_1_buffer_binding.html" target="_top" xlink:title="BufferBinding">
<polygon fill="white" stroke="black" points="227,-135.5 227,-154.5 301,-154.5 301,-135.5 227,-135.5"/>
<text text-anchor="middle" x="264" y="-142.5" font-family="Helvetica,sans-Serif" font-size="10.00">BufferBinding</text>
</a>
</g>
</g>
<!-- Node7&#45;&gt;Node6 -->
<g id="edge2" class="edge">
<title>Node7&#45;&gt;Node6</title>
<path fill="none" stroke="midnightblue" d="M264,-125C264,-114 264,-100.68 264,-92.15"/>
<polygon fill="midnightblue" stroke="midnightblue" points="260.5,-125.33 264,-135.33 267.5,-125.33 260.5,-125.33"/>
</g>
<!-- Node8 -->
<g id="node4" class="node">
<title>Node8</title>
<g id="a_node4"><a xlink:href="../../d9/dea/classnap_1_1_resource.html" target="_top" xlink:title="Resource">
<polygon fill="white" stroke="black" points="267,-269.5 267,-288.5 325,-288.5 325,-269.5 267,-269.5"/>
<text text-anchor="middle" x="296" y="-276.5" font-family="Helvetica,sans-Serif" font-size="10.00">Resource</text>
</a>
</g>
</g>
<!-- Node8&#45;&gt;Node7 -->
<g id="edge3" class="edge">
<title>Node8&#45;&gt;Node7</title>
<path fill="none" stroke="midnightblue" d="M297.74,-259.3C299.02,-237.65 298.83,-201.34 287,-173 284.06,-165.95 278.57,-159.4 273.69,-154.51"/>
<polygon fill="midnightblue" stroke="midnightblue" points="294.24,-259.18 296.97,-269.42 301.22,-259.72 294.24,-259.18"/>
</g>
<!-- Node10 -->
<g id="node6" class="node">
<title>Node10</title>
<g id="a_node6"><a xlink:href="../../dd/df4/classnap_1_1_g_p_u_buffer.html" target="_top" xlink:title="GPUBuffer">
<polygon fill="white" stroke="black" points="192,-202.5 192,-221.5 254,-221.5 254,-202.5 192,-202.5"/>
<text text-anchor="middle" x="223" y="-209.5" font-family="Helvetica,sans-Serif" font-size="10.00">GPUBuffer</text>
</a>
</g>
</g>
<!-- Node8&#45;&gt;Node10 -->
<g id="edge6" class="edge">
<title>Node8&#45;&gt;Node10</title>
<path fill="none" stroke="midnightblue" d="M284.72,-261.25C279.52,-254.22 272.95,-246.24 266,-240 258,-232.82 247.86,-226.35 239.43,-221.54"/>
<polygon fill="midnightblue" stroke="midnightblue" points="281.89,-263.31 290.52,-269.46 287.61,-259.27 281.89,-263.31"/>
</g>
<!-- Node9 -->
<g id="node5" class="node">
<title>Node9</title>
<g id="a_node5"><a xlink:href="../../de/d01/classnap_1_1rtti_1_1_object.html" target="_top" xlink:title="Object">
<polygon fill="white" stroke="black" points="273.5,-347.5 273.5,-366.5 318.5,-366.5 318.5,-347.5 273.5,-347.5"/>
<text text-anchor="middle" x="296" y="-354.5" font-family="Helvetica,sans-Serif" font-size="10.00">Object</text>
</a>
</g>
</g>
<!-- Node9&#45;&gt;Node8 -->
<g id="edge4" class="edge">
<title>Node9&#45;&gt;Node8</title>
<path fill="none" stroke="midnightblue" d="M296,-337.22C296,-321.7 296,-300.36 296,-288.62"/>
<polygon fill="midnightblue" stroke="midnightblue" points="292.5,-337.28 296,-347.28 299.5,-337.28 292.5,-337.28"/>
</g>
<!-- Node10&#45;&gt;Node7 -->
<g id="edge5" class="edge">
<title>Node10&#45;&gt;Node7</title>
<path fill="none" stroke="#9a32cd" stroke-dasharray="5,2" d="M234.02,-193.53C241.95,-180.95 252.33,-164.51 258.56,-154.63"/>
<polygon fill="#9a32cd" stroke="#9a32cd" points="230.9,-191.91 228.53,-202.23 236.82,-195.64 230.9,-191.91"/>
<text text-anchor="middle" x="264.5" y="-176" font-family="Helvetica,sans-Serif" font-size="10.00"> mBuffer</text>
</g>
<!-- Node11 -->
<g id="node7" class="node">
<title>Node11</title>
<g id="a_node7"><a xlink:href="../../d5/dc6/classnap_1_1_render_service.html" target="_top" xlink:title="RenderService">
<polygon fill="white" stroke="black" points="61.5,-269.5 61.5,-288.5 140.5,-288.5 140.5,-269.5 61.5,-269.5"/>
<text text-anchor="middle" x="101" y="-276.5" font-family="Helvetica,sans-Serif" font-size="10.00">RenderService</text>
</a>
</g>
</g>
<!-- Node11&#45;&gt;Node10 -->
<g id="edge7" class="edge">
<title>Node11&#45;&gt;Node10</title>
<path fill="none" stroke="#9a32cd" stroke-dasharray="5,2" d="M106.94,-259.78C110.09,-252.68 114.65,-245.06 121,-240 141.2,-223.91 170.09,-217.35 191.97,-214.71"/>
<polygon fill="#9a32cd" stroke="#9a32cd" points="103.55,-258.84 103.29,-269.44 110.1,-261.32 103.55,-258.84"/>
<text text-anchor="middle" x="158" y="-243" font-family="Helvetica,sans-Serif" font-size="10.00"> mRenderService</text>
</g>
<!-- Node12 -->
<g id="node8" class="node">
<title>Node12</title>
<g id="a_node8"><a xlink:href="../../d8/d8e/classnap_1_1_service.html" target="_top" xlink:title="Service">
<polygon fill="white" stroke="black" points="0,-347.5 0,-366.5 48,-366.5 48,-347.5 0,-347.5"/>
<text text-anchor="middle" x="24" y="-354.5" font-family="Helvetica,sans-Serif" font-size="10.00">Service</text>
</a>
</g>
</g>
<!-- Node12&#45;&gt;Node11 -->
<g id="edge8" class="edge">
<title>Node12&#45;&gt;Node11</title>
<path fill="none" stroke="midnightblue" d="M40.34,-339.88C56.2,-324.22 79.68,-301.04 92.27,-288.62"/>
<polygon fill="midnightblue" stroke="midnightblue" points="37.49,-337.77 32.83,-347.28 42.41,-342.75 37.49,-337.77"/>
</g>
<!-- Node13 -->
<g id="node9" class="node">
<title>Node13</title>
<g id="a_node9"><a xlink:href="../../de/d80/classnap_1_1_signal.html" target="_top" xlink:title="Signal\&lt; nap::RenderWindow &amp;\&gt;">
<polygon fill="white" stroke="black" points="66.5,-347.5 66.5,-366.5 221.5,-366.5 221.5,-347.5 66.5,-347.5"/>
<text text-anchor="middle" x="144" y="-354.5" font-family="Helvetica,sans-Serif" font-size="10.00">Signal&lt; nap::RenderWindow &amp;&gt;</text>
</a>
</g>
</g>
<!-- Node13&#45;&gt;Node11 -->
<g id="edge9" class="edge">
<title>Node13&#45;&gt;Node11</title>
<path fill="none" stroke="#9a32cd" stroke-dasharray="5,2" d="M134.14,-338.57C125.3,-322.95 112.71,-300.7 105.88,-288.62"/>
<polygon fill="#9a32cd" stroke="#9a32cd" points="131.1,-340.3 139.07,-347.28 137.19,-336.85 131.1,-340.3"/>
<text text-anchor="middle" x="165.5" y="-321" font-family="Helvetica,sans-Serif" font-size="10.00"> windowRemoved</text>
<text text-anchor="middle" x="165.5" y="-310" font-family="Helvetica,sans-Serif" font-size="10.00">windowAdded</text>
</g>
<!-- Node14 -->
<g id="node10" class="node">
<title>Node14</title>
<g id="a_node10"><a xlink:href="../../de/d80/classnap_1_1_signal.html" target="_top" xlink:title="Signal\&lt; Args \&gt;">
<polygon fill="white" stroke="black" points="159,-269.5 159,-288.5 241,-288.5 241,-269.5 159,-269.5"/>
<text text-anchor="middle" x="200" y="-276.5" font-family="Helvetica,sans-Serif" font-size="10.00">Signal&lt; Args &gt;</text>
</a>
</g>
</g>
<!-- Node14&#45;&gt;Node10 -->
<g id="edge10" class="edge">
<title>Node14&#45;&gt;Node10</title>
<path fill="none" stroke="#9a32cd" stroke-dasharray="5,2" d="M198.1,-259.03C198.1,-252.8 198.79,-245.96 201,-240 203.61,-232.97 208.85,-226.42 213.56,-221.53"/>
<polygon fill="#9a32cd" stroke="#9a32cd" points="194.62,-259.46 198.67,-269.25 201.61,-259.07 194.62,-259.46"/>
<text text-anchor="middle" x="233.5" y="-243" font-family="Helvetica,sans-Serif" font-size="10.00"> bufferChanged</text>
</g>
<!-- Node15 -->
<g id="node11" class="node">
<title>Node15</title>
<g id="a_node11"><a xlink:href="../../dd/d7c/classnap_1_1rtti_1_1_object_ptr.html" target="_top" xlink:title="ObjectPtr\&lt; nap::TypedGPUBuffer\lNumeric\&lt; T \&gt; \&gt;">
<polygon fill="white" stroke="black" points="337.5,-67.5 337.5,-97.5 498.5,-97.5 498.5,-67.5 337.5,-67.5"/>
<text text-anchor="start" x="345.5" y="-85.5" font-family="Helvetica,sans-Serif" font-size="10.00">ObjectPtr&lt; nap::TypedGPUBuffer</text>
<text text-anchor="middle" x="418" y="-74.5" font-family="Helvetica,sans-Serif" font-size="10.00">Numeric&lt; T &gt; &gt;</text>
</a>
</g>
</g>
<!-- Node15&#45;&gt;Node5 -->
<g id="edge11" class="edge">
<title>Node15&#45;&gt;Node5</title>
<path fill="none" stroke="#9a32cd" stroke-dasharray="5,2" d="M394.78,-60.51C379.79,-46.96 361.06,-30.03 349.84,-19.89"/>
<polygon fill="#9a32cd" stroke="#9a32cd" points="392.45,-63.12 402.22,-67.23 397.14,-57.93 392.45,-63.12"/>
<text text-anchor="middle" x="400.5" y="-41" font-family="Helvetica,sans-Serif" font-size="10.00"> mBuffer</text>
</g>
<!-- Node16 -->
<g id="node12" class="node">
<title>Node16</title>
<g id="a_node12"><a xlink:href="../../d7/dcb/classnap_1_1rtti_1_1_object_ptr_base.html" target="_top" xlink:title="ObjectPtrBase">
<polygon fill="white" stroke="black" points="378,-135.5 378,-154.5 458,-154.5 458,-135.5 378,-135.5"/>
<text text-anchor="middle" x="418" y="-142.5" font-family="Helvetica,sans-Serif" font-size="10.00">ObjectPtrBase</text>
</a>
</g>
</g>
<!-- Node16&#45;&gt;Node15 -->
<g id="edge12" class="edge">
<title>Node16&#45;&gt;Node15</title>
<path fill="none" stroke="midnightblue" d="M418,-125.22C418,-116.36 418,-105.96 418,-97.76"/>
<polygon fill="midnightblue" stroke="midnightblue" points="414.5,-125.33 418,-135.33 421.5,-125.33 414.5,-125.33"/>
</g>
</g>
</svg>
