<?xml version="1.0" encoding="UTF-8" standalone="no"?>
<!DOCTYPE svg PUBLIC "-//W3C//DTD SVG 1.1//EN"
 "http://www.w3.org/Graphics/SVG/1.1/DTD/svg11.dtd">
<!-- Generated by graphviz version 2.43.0 (0)
 -->
<!-- Title: TypedBufferBindingNumeric&lt; T &gt; Pages: 1 -->
<svg width="556pt" height="375pt"
 viewBox="0.00 0.00 555.50 375.00" xmlns="http://www.w3.org/2000/svg" xmlns:xlink="http://www.w3.org/1999/xlink">
<g id="graph0" class="graph" transform="scale(1 1) rotate(0) translate(4 371)">
<title>TypedBufferBindingNumeric&lt; T &gt;</title>
<polygon fill="white" stroke="transparent" points="-4,4 -4,-371 551.5,-371 551.5,4 -4,4"/>
<!-- Node1 -->
<g id="node1" class="node">
<title>Node1</title>
<g id="a_node1"><a xlink:title=" ">
<polygon fill="#bfbfbf" stroke="black" points="284,-0.5 284,-19.5 465,-19.5 465,-0.5 284,-0.5"/>
<text text-anchor="middle" x="374.5" y="-7.5" font-family="Helvetica,sans-Serif" font-size="10.00">TypedBufferBindingNumeric&lt; T &gt;</text>
</a>
</g>
</g>
<!-- Node2 -->
<g id="node2" class="node">
<title>Node2</title>
<g id="a_node2"><a xlink:href="../../df/db8/classnap_1_1_buffer_binding_numeric.html" target="_top" xlink:title=" ">
<polygon fill="white" stroke="black" points="229.5,-73 229.5,-92 353.5,-92 353.5,-73 229.5,-73"/>
<text text-anchor="middle" x="291.5" y="-80" font-family="Helvetica,sans-Serif" font-size="10.00">BufferBindingNumeric</text>
</a>
</g>
</g>
<!-- Node2&#45;&gt;Node1 -->
<g id="edge1" class="edge">
<title>Node2&#45;&gt;Node1</title>
<path fill="none" stroke="midnightblue" d="M309.65,-66.08C326.38,-51.87 350.63,-31.27 364.24,-19.72"/>
<polygon fill="midnightblue" stroke="midnightblue" points="307.03,-63.71 301.68,-72.86 311.56,-69.05 307.03,-63.71"/>
</g>
<!-- Node3 -->
<g id="node3" class="node">
<title>Node3</title>
<g id="a_node3"><a xlink:href="../../d0/d99/classnap_1_1_buffer_binding.html" target="_top" xlink:title=" ">
<polygon fill="white" stroke="black" points="250,-135.5 250,-154.5 333,-154.5 333,-135.5 250,-135.5"/>
<text text-anchor="middle" x="291.5" y="-142.5" font-family="Helvetica,sans-Serif" font-size="10.00">BufferBinding</text>
</a>
</g>
</g>
<!-- Node3&#45;&gt;Node2 -->
<g id="edge2" class="edge">
<title>Node3&#45;&gt;Node2</title>
<path fill="none" stroke="midnightblue" d="M291.5,-125C291.5,-114 291.5,-100.68 291.5,-92.15"/>
<polygon fill="midnightblue" stroke="midnightblue" points="288,-125.33 291.5,-135.33 295,-125.33 288,-125.33"/>
</g>
<!-- Node4 -->
<g id="node4" class="node">
<title>Node4</title>
<g id="a_node4"><a xlink:href="../../d9/dea/classnap_1_1_resource.html" target="_top" xlink:title=" ">
<polygon fill="white" stroke="black" points="294.5,-269.5 294.5,-288.5 356.5,-288.5 356.5,-269.5 294.5,-269.5"/>
<text text-anchor="middle" x="325.5" y="-276.5" font-family="Helvetica,sans-Serif" font-size="10.00">Resource</text>
</a>
</g>
</g>
<!-- Node4&#45;&gt;Node3 -->
<g id="edge3" class="edge">
<title>Node4&#45;&gt;Node3</title>
<path fill="none" stroke="midnightblue" d="M328.4,-259.13C330.88,-237.31 332.28,-200.85 319.5,-173 316.12,-165.64 309.76,-159.24 303.95,-154.53"/>
<polygon fill="midnightblue" stroke="midnightblue" points="324.9,-258.96 327.04,-269.33 331.83,-259.89 324.9,-258.96"/>
</g>
<!-- Node6 -->
<g id="node6" class="node">
<title>Node6</title>
<g id="a_node6"><a xlink:href="../../dd/df4/classnap_1_1_g_p_u_buffer.html" target="_top" xlink:title=" ">
<polygon fill="white" stroke="black" points="214,-202.5 214,-221.5 281,-221.5 281,-202.5 214,-202.5"/>
<text text-anchor="middle" x="247.5" y="-209.5" font-family="Helvetica,sans-Serif" font-size="10.00">GPUBuffer</text>
</a>
</g>
</g>
<!-- Node4&#45;&gt;Node6 -->
<g id="edge6" class="edge">
<title>Node4&#45;&gt;Node6</title>
<path fill="none" stroke="midnightblue" d="M314.52,-260.57C309.58,-253.62 303.33,-245.88 296.5,-240 287.82,-232.52 276.73,-226.2 267.3,-221.56"/>
<polygon fill="midnightblue" stroke="midnightblue" points="311.9,-262.95 320.37,-269.32 317.72,-259.06 311.9,-262.95"/>
</g>
<!-- Node5 -->
<g id="node5" class="node">
<title>Node5</title>
<g id="a_node5"><a xlink:href="../../de/d01/classnap_1_1rtti_1_1_object.html" target="_top" xlink:title=" ">
<polygon fill="white" stroke="black" points="301.5,-347.5 301.5,-366.5 349.5,-366.5 349.5,-347.5 301.5,-347.5"/>
<text text-anchor="middle" x="325.5" y="-354.5" font-family="Helvetica,sans-Serif" font-size="10.00">Object</text>
</a>
</g>
</g>
<!-- Node5&#45;&gt;Node4 -->
<g id="edge4" class="edge">
<title>Node5&#45;&gt;Node4</title>
<path fill="none" stroke="midnightblue" d="M325.5,-337.22C325.5,-321.7 325.5,-300.36 325.5,-288.62"/>
<polygon fill="midnightblue" stroke="midnightblue" points="322,-337.28 325.5,-347.28 329,-337.28 322,-337.28"/>
</g>
<!-- Node6&#45;&gt;Node3 -->
<g id="edge5" class="edge">
<title>Node6&#45;&gt;Node3</title>
<path fill="none" stroke="#9a32cd" stroke-dasharray="5,2" d="M259.07,-193.9C267.62,-181.27 278.91,-164.6 285.66,-154.63"/>
<polygon fill="#9a32cd" stroke="#9a32cd" points="256.14,-191.99 253.43,-202.23 261.94,-195.91 256.14,-191.99"/>
<text text-anchor="middle" x="294" y="-176" font-family="Helvetica,sans-Serif" font-size="10.00"> mBuffer</text>
</g>
<!-- Node7 -->
<g id="node7" class="node">
<title>Node7</title>
<g id="a_node7"><a xlink:href="../../d5/dc6/classnap_1_1_render_service.html" target="_top" xlink:title=" ">
<polygon fill="white" stroke="black" points="70,-269.5 70,-288.5 157,-288.5 157,-269.5 70,-269.5"/>
<text text-anchor="middle" x="113.5" y="-276.5" font-family="Helvetica,sans-Serif" font-size="10.00">RenderService</text>
</a>
</g>
</g>
<!-- Node7&#45;&gt;Node6 -->
<g id="edge7" class="edge">
<title>Node7&#45;&gt;Node6</title>
<path fill="none" stroke="#9a32cd" stroke-dasharray="5,2" d="M118.37,-259.71C121.14,-252.6 125.31,-244.99 131.5,-240 154.76,-221.25 188.72,-215.06 213.89,-213.23"/>
<polygon fill="#9a32cd" stroke="#9a32cd" points="114.99,-258.8 115.27,-269.39 121.66,-260.94 114.99,-258.8"/>
<text text-anchor="middle" x="173.5" y="-243" font-family="Helvetica,sans-Serif" font-size="10.00"> mRenderService</text>
</g>
<!-- Node8 -->
<g id="node8" class="node">
<title>Node8</title>
<g id="a_node8"><a xlink:href="../../d8/d8e/classnap_1_1_service.html" target="_top" xlink:title=" ">
<polygon fill="white" stroke="black" points="0,-347.5 0,-366.5 53,-366.5 53,-347.5 0,-347.5"/>
<text text-anchor="middle" x="26.5" y="-354.5" font-family="Helvetica,sans-Serif" font-size="10.00">Service</text>
</a>
</g>
</g>
<!-- Node8&#45;&gt;Node7 -->
<g id="edge8" class="edge">
<title>Node8&#45;&gt;Node7</title>
<path fill="none" stroke="midnightblue" d="M44.47,-340.3C62.4,-324.64 89.28,-301.16 103.64,-288.62"/>
<polygon fill="midnightblue" stroke="midnightblue" points="41.71,-338.07 36.48,-347.28 46.31,-343.34 41.71,-338.07"/>
</g>
<!-- Node9 -->
<g id="node9" class="node">
<title>Node9</title>
<g id="a_node9"><a xlink:href="../../de/d80/classnap_1_1_signal.html" target="_top" xlink:title=" ">
<polygon fill="white" stroke="black" points="71,-347.5 71,-366.5 248,-366.5 248,-347.5 71,-347.5"/>
<text text-anchor="middle" x="159.5" y="-354.5" font-family="Helvetica,sans-Serif" font-size="10.00">Signal&lt; nap::RenderWindow &amp; &gt;</text>
</a>
</g>
</g>
<!-- Node9&#45;&gt;Node7 -->
<g id="edge9" class="edge">
<title>Node9&#45;&gt;Node7</title>
<path fill="none" stroke="#9a32cd" stroke-dasharray="5,2" d="M148.95,-338.57C139.5,-322.95 126.03,-300.7 118.72,-288.62"/>
<polygon fill="#9a32cd" stroke="#9a32cd" points="146.05,-340.54 154.22,-347.28 152.04,-336.91 146.05,-340.54"/>
<text text-anchor="middle" x="186.5" y="-321" font-family="Helvetica,sans-Serif" font-size="10.00"> windowRemoved</text>
<text text-anchor="middle" x="186.5" y="-310" font-family="Helvetica,sans-Serif" font-size="10.00">windowAdded</text>
</g>
<!-- Node10 -->
<g id="node10" class="node">
<title>Node10</title>
<g id="a_node10"><a xlink:href="../../de/d80/classnap_1_1_signal.html" target="_top" xlink:title=" ">
<polygon fill="white" stroke="black" points="175,-269.5 175,-288.5 266,-288.5 266,-269.5 175,-269.5"/>
<text text-anchor="middle" x="220.5" y="-276.5" font-family="Helvetica,sans-Serif" font-size="10.00">Signal&lt; Args &gt;</text>
</a>
</g>
</g>
<!-- Node10&#45;&gt;Node6 -->
<g id="edge10" class="edge">
<title>Node10&#45;&gt;Node6</title>
<path fill="none" stroke="#9a32cd" stroke-dasharray="5,2" d="M218.32,-259.16C218.28,-252.86 219.02,-245.94 221.5,-240 224.52,-232.8 230.42,-226.41 235.84,-221.66"/>
<polygon fill="#9a32cd" stroke="#9a32cd" points="214.85,-259.74 219.02,-269.48 221.83,-259.27 214.85,-259.74"/>
<text text-anchor="middle" x="259" y="-243" font-family="Helvetica,sans-Serif" font-size="10.00"> bufferChanged</text>
</g>
<!-- Node11 -->
<g id="node11" class="node">
<title>Node11</title>
<g id="a_node11"><a xlink:href="../../dd/d7c/classnap_1_1rtti_1_1_object_ptr.html" target="_top" xlink:title=" ">
<polygon fill="white" stroke="black" points="371.5,-67.5 371.5,-97.5 547.5,-97.5 547.5,-67.5 371.5,-67.5"/>
<text text-anchor="start" x="379.5" y="-85.5" font-family="Helvetica,sans-Serif" font-size="10.00">ObjectPtr&lt; nap::TypedGPUBuffer</text>
<text text-anchor="middle" x="459.5" y="-74.5" font-family="Helvetica,sans-Serif" font-size="10.00">Numeric&lt; T &gt; &gt;</text>
</a>
</g>
</g>
<!-- Node11&#45;&gt;Node1 -->
<g id="edge11" class="edge">
<title>Node11&#45;&gt;Node1</title>
<path fill="none" stroke="#9a32cd" stroke-dasharray="5,2" d="M434.19,-60.51C417.86,-46.96 397.45,-30.03 385.22,-19.89"/>
<polygon fill="#9a32cd" stroke="#9a32cd" points="432.37,-63.54 442.3,-67.23 436.84,-58.16 432.37,-63.54"/>
<text text-anchor="middle" x="442" y="-41" font-family="Helvetica,sans-Serif" font-size="10.00"> mBuffer</text>
</g>
<!-- Node12 -->
<g id="node12" class="node">
<title>Node12</title>
<g id="a_node12"><a xlink:href="../../d7/dcb/classnap_1_1rtti_1_1_object_ptr_base.html" target="_top" xlink:title=" ">
<polygon fill="white" stroke="black" points="416.5,-135.5 416.5,-154.5 502.5,-154.5 502.5,-135.5 416.5,-135.5"/>
<text text-anchor="middle" x="459.5" y="-142.5" font-family="Helvetica,sans-Serif" font-size="10.00">ObjectPtrBase</text>
</a>
</g>
</g>
<!-- Node12&#45;&gt;Node11 -->
<g id="edge12" class="edge">
<title>Node12&#45;&gt;Node11</title>
<path fill="none" stroke="midnightblue" d="M459.5,-125.22C459.5,-116.36 459.5,-105.96 459.5,-97.76"/>
<polygon fill="midnightblue" stroke="midnightblue" points="456,-125.33 459.5,-135.33 463,-125.33 456,-125.33"/>
</g>
</g>
</svg>
