<?xml version="1.0" encoding="UTF-8" standalone="no"?>
<!DOCTYPE svg PUBLIC "-//W3C//DTD SVG 1.1//EN"
 "http://www.w3.org/Graphics/SVG/1.1/DTD/svg11.dtd">
<!-- Generated by graphviz version 2.43.0 (0)
 -->
<!-- Title: SequencePlayerEventOutput Pages: 1 -->
<svg width="308pt" height="230pt"
 viewBox="0.00 0.00 307.50 230.00" xmlns="http://www.w3.org/2000/svg" xmlns:xlink="http://www.w3.org/1999/xlink">
<g id="graph0" class="graph" transform="scale(1 1) rotate(0) translate(4 226)">
<title>SequencePlayerEventOutput</title>
<polygon fill="white" stroke="transparent" points="-4,4 -4,-226 303.5,-226 303.5,4 -4,4"/>
<!-- Node1 -->
<g id="node1" class="node">
<title>Node1</title>
<g id="a_node1"><a xlink:title=" ">
<polygon fill="#bfbfbf" stroke="black" points="77.5,-0.5 77.5,-19.5 232.5,-19.5 232.5,-0.5 77.5,-0.5"/>
<text text-anchor="middle" x="155" y="-7.5" font-family="Helvetica,sans-Serif" font-size="10.00">SequencePlayerEventOutput</text>
</a>
</g>
</g>
<!-- Node2 -->
<g id="node2" class="node">
<title>Node2</title>
<g id="a_node2"><a xlink:href="../../de/dac/classnap_1_1_sequence_player_output.html" target="_top" xlink:title=" ">
<polygon fill="white" stroke="black" points="16,-73 16,-92 144,-92 144,-73 16,-73"/>
<text text-anchor="middle" x="80" y="-80" font-family="Helvetica,sans-Serif" font-size="10.00">SequencePlayerOutput</text>
</a>
</g>
</g>
<!-- Node2&#45;&gt;Node1 -->
<g id="edge1" class="edge">
<title>Node2&#45;&gt;Node1</title>
<path fill="none" stroke="midnightblue" d="M96.82,-65.69C111.92,-51.49 133.54,-31.17 145.73,-19.72"/>
<polygon fill="midnightblue" stroke="midnightblue" points="94.09,-63.46 89.2,-72.86 98.88,-68.56 94.09,-63.46"/>
</g>
<!-- Node3 -->
<g id="node3" class="node">
<title>Node3</title>
<g id="a_node3"><a xlink:href="../../d9/dea/classnap_1_1_resource.html" target="_top" xlink:title=" ">
<polygon fill="white" stroke="black" points="0,-145.5 0,-164.5 62,-164.5 62,-145.5 0,-145.5"/>
<text text-anchor="middle" x="31" y="-152.5" font-family="Helvetica,sans-Serif" font-size="10.00">Resource</text>
</a>
</g>
</g>
<!-- Node3&#45;&gt;Node2 -->
<g id="edge2" class="edge">
<title>Node3&#45;&gt;Node2</title>
<path fill="none" stroke="midnightblue" d="M42.82,-137C52.64,-122.87 66.2,-103.35 73.94,-92.22"/>
<polygon fill="midnightblue" stroke="midnightblue" points="39.84,-135.15 37.01,-145.36 45.59,-139.14 39.84,-135.15"/>
</g>
<!-- Node4 -->
<g id="node4" class="node">
<title>Node4</title>
<g id="a_node4"><a xlink:href="../../de/d01/classnap_1_1rtti_1_1_object.html" target="_top" xlink:title=" ">
<polygon fill="white" stroke="black" points="7,-202.5 7,-221.5 55,-221.5 55,-202.5 7,-202.5"/>
<text text-anchor="middle" x="31" y="-209.5" font-family="Helvetica,sans-Serif" font-size="10.00">Object</text>
</a>
</g>
</g>
<!-- Node4&#45;&gt;Node3 -->
<g id="edge3" class="edge">
<title>Node4&#45;&gt;Node3</title>
<path fill="none" stroke="midnightblue" d="M31,-192.12C31,-182.82 31,-172.06 31,-164.71"/>
<polygon fill="midnightblue" stroke="midnightblue" points="27.5,-192.41 31,-202.41 34.5,-192.41 27.5,-192.41"/>
</g>
<!-- Node5 -->
<g id="node5" class="node">
<title>Node5</title>
<g id="a_node5"><a xlink:href="../../df/dbe/classnap_1_1_sequence_service.html" target="_top" xlink:title=" ">
<polygon fill="white" stroke="black" points="80,-145.5 80,-164.5 180,-164.5 180,-145.5 80,-145.5"/>
<text text-anchor="middle" x="130" y="-152.5" font-family="Helvetica,sans-Serif" font-size="10.00">SequenceService</text>
</a>
</g>
</g>
<!-- Node5&#45;&gt;Node2 -->
<g id="edge4" class="edge">
<title>Node5&#45;&gt;Node2</title>
<path fill="none" stroke="#9a32cd" stroke-dasharray="5,2" d="M117.94,-137C107.92,-122.87 94.08,-103.35 86.18,-92.22"/>
<polygon fill="#9a32cd" stroke="#9a32cd" points="115.23,-139.22 123.87,-145.36 120.94,-135.17 115.23,-139.22"/>
<text text-anchor="middle" x="134.5" y="-119" font-family="Helvetica,sans-Serif" font-size="10.00"> mService</text>
</g>
<!-- Node6 -->
<g id="node6" class="node">
<title>Node6</title>
<g id="a_node6"><a xlink:href="../../d8/d8e/classnap_1_1_service.html" target="_top" xlink:title=" ">
<polygon fill="white" stroke="black" points="103.5,-202.5 103.5,-221.5 156.5,-221.5 156.5,-202.5 103.5,-202.5"/>
<text text-anchor="middle" x="130" y="-209.5" font-family="Helvetica,sans-Serif" font-size="10.00">Service</text>
</a>
</g>
</g>
<!-- Node6&#45;&gt;Node5 -->
<g id="edge5" class="edge">
<title>Node6&#45;&gt;Node5</title>
<path fill="none" stroke="midnightblue" d="M130,-192.12C130,-182.82 130,-172.06 130,-164.71"/>
<polygon fill="midnightblue" stroke="midnightblue" points="126.5,-192.41 130,-202.41 133.5,-192.41 126.5,-192.41"/>
</g>
<!-- Node7 -->
<g id="node7" class="node">
<title>Node7</title>
<g id="a_node7"><a xlink:href="../../de/d80/classnap_1_1_signal.html" target="_top" xlink:title=" ">
<polygon fill="white" stroke="black" points="162.5,-67.5 162.5,-97.5 299.5,-97.5 299.5,-67.5 162.5,-67.5"/>
<text text-anchor="start" x="170.5" y="-85.5" font-family="Helvetica,sans-Serif" font-size="10.00">Signal&lt; const nap::</text>
<text text-anchor="middle" x="231" y="-74.5" font-family="Helvetica,sans-Serif" font-size="10.00">SequenceEventBase &amp; &gt;</text>
</a>
</g>
</g>
<!-- Node7&#45;&gt;Node1 -->
<g id="edge6" class="edge">
<title>Node7&#45;&gt;Node1</title>
<path fill="none" stroke="#9a32cd" stroke-dasharray="5,2" d="M207.97,-60.14C193.43,-46.65 175.42,-29.94 164.59,-19.89"/>
<polygon fill="#9a32cd" stroke="#9a32cd" points="205.91,-63 215.62,-67.23 210.67,-57.87 205.91,-63"/>
<text text-anchor="middle" x="217.5" y="-41" font-family="Helvetica,sans-Serif" font-size="10.00"> mSignal</text>
</g>
</g>
</svg>
