<?xml version="1.0" encoding="UTF-8" standalone="no"?>
<!DOCTYPE svg PUBLIC "-//W3C//DTD SVG 1.1//EN"
 "http://www.w3.org/Graphics/SVG/1.1/DTD/svg11.dtd">
<!-- Generated by graphviz version 2.43.0 (0)
 -->
<!-- Title: SequenceEventTrackView Pages: 1 -->
<svg width="548pt" height="421pt"
 viewBox="0.00 0.00 548.00 421.00" xmlns="http://www.w3.org/2000/svg" xmlns:xlink="http://www.w3.org/1999/xlink">
<g id="graph0" class="graph" transform="scale(1 1) rotate(0) translate(4 417)">
<title>SequenceEventTrackView</title>
<polygon fill="white" stroke="transparent" points="-4,4 -4,-417 544,-417 544,4 -4,4"/>
<!-- Node1 -->
<g id="node1" class="node">
<title>Node1</title>
<g id="a_node1"><a xlink:title=" ">
<polygon fill="#bfbfbf" stroke="black" points="221.5,-0.5 221.5,-19.5 362.5,-19.5 362.5,-0.5 221.5,-0.5"/>
<text text-anchor="middle" x="292" y="-7.5" font-family="Helvetica,sans-Serif" font-size="10.00">SequenceEventTrackView</text>
</a>
</g>
</g>
<!-- Node2 -->
<g id="node2" class="node">
<title>Node2</title>
<g id="a_node2"><a xlink:href="../../d4/d58/classnap_1_1_sequence_track_view.html" target="_top" xlink:title=" ">
<polygon fill="white" stroke="black" points="235.5,-57.5 235.5,-76.5 348.5,-76.5 348.5,-57.5 235.5,-57.5"/>
<text text-anchor="middle" x="292" y="-64.5" font-family="Helvetica,sans-Serif" font-size="10.00">SequenceTrackView</text>
</a>
</g>
</g>
<!-- Node2&#45;&gt;Node1 -->
<g id="edge1" class="edge">
<title>Node2&#45;&gt;Node1</title>
<path fill="none" stroke="midnightblue" d="M292,-47.12C292,-37.82 292,-27.06 292,-19.71"/>
<polygon fill="midnightblue" stroke="midnightblue" points="288.5,-47.41 292,-57.41 295.5,-47.41 288.5,-47.41"/>
</g>
<!-- Node3 -->
<g id="node3" class="node">
<title>Node3</title>
<g id="a_node3"><a xlink:href="../../d0/d0a/classnap_1_1_sequence_g_u_i_service.html" target="_top" xlink:title=" ">
<polygon fill="white" stroke="black" points="398,-191.5 398,-210.5 516,-210.5 516,-191.5 398,-191.5"/>
<text text-anchor="middle" x="457" y="-198.5" font-family="Helvetica,sans-Serif" font-size="10.00">SequenceGUIService</text>
</a>
</g>
</g>
<!-- Node3&#45;&gt;Node2 -->
<g id="edge2" class="edge">
<title>Node3&#45;&gt;Node2</title>
<path fill="none" stroke="#9a32cd" stroke-dasharray="5,2" d="M449.95,-182.19C446.69,-175.38 442.34,-167.84 437,-162 399.98,-121.46 341.79,-90.85 311.62,-76.68"/>
<polygon fill="#9a32cd" stroke="#9a32cd" points="446.75,-183.6 453.94,-191.38 453.17,-180.81 446.75,-183.6"/>
<text text-anchor="middle" x="443.5" y="-131.5" font-family="Helvetica,sans-Serif" font-size="10.00"> mService</text>
</g>
<!-- Node5 -->
<g id="node5" class="node">
<title>Node5</title>
<g id="a_node5"><a xlink:href="../../d2/d74/classnap_1_1_sequence_editor_g_u_i_view.html" target="_top" xlink:title=" ">
<polygon fill="white" stroke="black" points="225,-124.5 225,-143.5 359,-143.5 359,-124.5 225,-124.5"/>
<text text-anchor="middle" x="292" y="-131.5" font-family="Helvetica,sans-Serif" font-size="10.00">SequenceEditorGUIView</text>
</a>
</g>
</g>
<!-- Node3&#45;&gt;Node5 -->
<g id="edge5" class="edge">
<title>Node3&#45;&gt;Node5</title>
<path fill="none" stroke="#9a32cd" stroke-dasharray="5,2" d="M425.51,-187.71C413.73,-183.1 400.25,-177.82 388,-173 362.48,-162.96 333.17,-151.34 313.72,-143.63"/>
<polygon fill="#9a32cd" stroke="#9a32cd" points="424.34,-191.01 434.93,-191.39 426.89,-184.49 424.34,-191.01"/>
<text text-anchor="middle" x="412.5" y="-165" font-family="Helvetica,sans-Serif" font-size="10.00"> mService</text>
</g>
<!-- Node4 -->
<g id="node4" class="node">
<title>Node4</title>
<g id="a_node4"><a xlink:href="../../d8/d8e/classnap_1_1_service.html" target="_top" xlink:title=" ">
<polygon fill="white" stroke="black" points="430.5,-258.5 430.5,-277.5 483.5,-277.5 483.5,-258.5 430.5,-258.5"/>
<text text-anchor="middle" x="457" y="-265.5" font-family="Helvetica,sans-Serif" font-size="10.00">Service</text>
</a>
</g>
</g>
<!-- Node4&#45;&gt;Node3 -->
<g id="edge3" class="edge">
<title>Node4&#45;&gt;Node3</title>
<path fill="none" stroke="midnightblue" d="M457,-248.04C457,-235.67 457,-220.12 457,-210.63"/>
<polygon fill="midnightblue" stroke="midnightblue" points="453.5,-248.23 457,-258.23 460.5,-248.23 453.5,-248.23"/>
</g>
<!-- Node5&#45;&gt;Node2 -->
<g id="edge4" class="edge">
<title>Node5&#45;&gt;Node2</title>
<path fill="none" stroke="#9a32cd" stroke-dasharray="5,2" d="M292,-114.04C292,-101.67 292,-86.12 292,-76.63"/>
<polygon fill="#9a32cd" stroke="#9a32cd" points="288.5,-114.23 292,-124.23 295.5,-114.23 288.5,-114.23"/>
<text text-anchor="middle" x="310.5" y="-98" font-family="Helvetica,sans-Serif" font-size="10.00"> mView</text>
</g>
<!-- Node6 -->
<g id="node6" class="node">
<title>Node6</title>
<g id="a_node6"><a xlink:href="../../db/d94/structnap_1_1_sequence_editor_g_u_i_state.html" target="_top" xlink:title=" ">
<polygon fill="white" stroke="black" points="48,-191.5 48,-210.5 184,-210.5 184,-191.5 48,-191.5"/>
<text text-anchor="middle" x="116" y="-198.5" font-family="Helvetica,sans-Serif" font-size="10.00">SequenceEditorGUIState</text>
</a>
</g>
</g>
<!-- Node6&#45;&gt;Node2 -->
<g id="edge20" class="edge">
<title>Node6&#45;&gt;Node2</title>
<path fill="none" stroke="#9a32cd" stroke-dasharray="5,2" d="M126.62,-182.71C137.58,-165.98 156,-140.77 177,-124 204.59,-101.97 242.27,-85.7 266.86,-76.54"/>
<polygon fill="#9a32cd" stroke="#9a32cd" points="123.47,-181.13 121.06,-191.45 129.38,-184.89 123.47,-181.13"/>
<text text-anchor="middle" x="196.5" y="-131.5" font-family="Helvetica,sans-Serif" font-size="10.00"> mState</text>
</g>
<!-- Node6&#45;&gt;Node5 -->
<g id="edge6" class="edge">
<title>Node6&#45;&gt;Node5</title>
<path fill="none" stroke="#9a32cd" stroke-dasharray="5,2" d="M139.94,-186.48C154.63,-178.58 174.02,-168.84 192,-162 211.66,-154.52 234.24,-148.23 252.96,-143.62"/>
<polygon fill="#9a32cd" stroke="#9a32cd" points="138.11,-183.49 131.02,-191.36 141.48,-189.63 138.11,-183.49"/>
<text text-anchor="middle" x="211.5" y="-165" font-family="Helvetica,sans-Serif" font-size="10.00"> mState</text>
</g>
<!-- Node7 -->
<g id="node7" class="node">
<title>Node7</title>
<g id="a_node7"><a xlink:href="../../d9/dde/classnap_1_1_sequence_editor.html" target="_top" xlink:title=" ">
<polygon fill="white" stroke="black" points="316,-258.5 316,-277.5 408,-277.5 408,-258.5 316,-258.5"/>
<text text-anchor="middle" x="362" y="-265.5" font-family="Helvetica,sans-Serif" font-size="10.00">SequenceEditor</text>
</a>
</g>
</g>
<!-- Node7&#45;&gt;Node5 -->
<g id="edge7" class="edge">
<title>Node7&#45;&gt;Node5</title>
<path fill="none" stroke="#9a32cd" stroke-dasharray="5,2" d="M356.61,-248.63C348.75,-222.54 333.99,-176.33 324,-162 319.01,-154.84 311.67,-148.46 305.28,-143.7"/>
<polygon fill="#9a32cd" stroke="#9a32cd" points="353.32,-249.84 359.52,-258.42 360.03,-247.84 353.32,-249.84"/>
<text text-anchor="middle" x="366" y="-198.5" font-family="Helvetica,sans-Serif" font-size="10.00"> mEditor</text>
</g>
<!-- Node8 -->
<g id="node8" class="node">
<title>Node8</title>
<g id="a_node8"><a xlink:href="../../d9/dea/classnap_1_1_resource.html" target="_top" xlink:title=" ">
<polygon fill="white" stroke="black" points="316,-331 316,-350 378,-350 378,-331 316,-331"/>
<text text-anchor="middle" x="347" y="-338" font-family="Helvetica,sans-Serif" font-size="10.00">Resource</text>
</a>
</g>
</g>
<!-- Node8&#45;&gt;Node7 -->
<g id="edge8" class="edge">
<title>Node8&#45;&gt;Node7</title>
<path fill="none" stroke="midnightblue" d="M350.97,-320.86C353.94,-306.9 357.87,-288.43 360.15,-277.72"/>
<polygon fill="midnightblue" stroke="midnightblue" points="347.5,-320.35 348.84,-330.86 354.34,-321.8 347.5,-320.35"/>
</g>
<!-- Node13 -->
<g id="node13" class="node">
<title>Node13</title>
<g id="a_node13"><a xlink:href="../../d0/dc5/classnap_1_1_window.html" target="_top" xlink:title=" ">
<polygon fill="white" stroke="black" points="234,-258.5 234,-277.5 290,-277.5 290,-258.5 234,-258.5"/>
<text text-anchor="middle" x="262" y="-265.5" font-family="Helvetica,sans-Serif" font-size="10.00">Window</text>
</a>
</g>
</g>
<!-- Node8&#45;&gt;Node13 -->
<g id="edge14" class="edge">
<title>Node8&#45;&gt;Node13</title>
<path fill="none" stroke="midnightblue" d="M340.27,-321.48C336.32,-312.87 330.59,-302.95 323,-296 313.69,-287.47 301.25,-281.31 290.03,-277.05"/>
<polygon fill="midnightblue" stroke="midnightblue" points="337.04,-322.84 344.1,-330.74 343.51,-320.16 337.04,-322.84"/>
</g>
<!-- Node9 -->
<g id="node9" class="node">
<title>Node9</title>
<g id="a_node9"><a xlink:href="../../de/d01/classnap_1_1rtti_1_1_object.html" target="_top" xlink:title=" ">
<polygon fill="white" stroke="black" points="323,-393.5 323,-412.5 371,-412.5 371,-393.5 323,-393.5"/>
<text text-anchor="middle" x="347" y="-400.5" font-family="Helvetica,sans-Serif" font-size="10.00">Object</text>
</a>
</g>
</g>
<!-- Node9&#45;&gt;Node8 -->
<g id="edge9" class="edge">
<title>Node9&#45;&gt;Node8</title>
<path fill="none" stroke="midnightblue" d="M347,-383C347,-372 347,-358.68 347,-350.15"/>
<polygon fill="midnightblue" stroke="midnightblue" points="343.5,-383.33 347,-393.33 350.5,-383.33 343.5,-383.33"/>
</g>
<!-- Node10 -->
<g id="node10" class="node">
<title>Node10</title>
<g id="a_node10"><a xlink:href="../../dd/d7c/classnap_1_1rtti_1_1_object_ptr.html" target="_top" xlink:title=" ">
<polygon fill="white" stroke="black" points="396,-325.5 396,-355.5 540,-355.5 540,-325.5 396,-325.5"/>
<text text-anchor="start" x="404" y="-343.5" font-family="Helvetica,sans-Serif" font-size="10.00">ObjectPtr&lt; nap::Sequence</text>
<text text-anchor="middle" x="468" y="-332.5" font-family="Helvetica,sans-Serif" font-size="10.00">Player &gt;</text>
</a>
</g>
</g>
<!-- Node10&#45;&gt;Node7 -->
<g id="edge10" class="edge">
<title>Node10&#45;&gt;Node7</title>
<path fill="none" stroke="#9a32cd" stroke-dasharray="5,2" d="M438.27,-319.73C417.38,-305.83 390.46,-287.93 374.83,-277.53"/>
<polygon fill="#9a32cd" stroke="#9a32cd" points="436.54,-322.78 446.8,-325.4 440.42,-316.95 436.54,-322.78"/>
<text text-anchor="middle" x="464.5" y="-299" font-family="Helvetica,sans-Serif" font-size="10.00"> mSequencePlayer</text>
</g>
<!-- Node11 -->
<g id="node11" class="node">
<title>Node11</title>
<g id="a_node11"><a xlink:href="../../d7/dcb/classnap_1_1rtti_1_1_object_ptr_base.html" target="_top" xlink:title=" ">
<polygon fill="white" stroke="black" points="425,-393.5 425,-412.5 511,-412.5 511,-393.5 425,-393.5"/>
<text text-anchor="middle" x="468" y="-400.5" font-family="Helvetica,sans-Serif" font-size="10.00">ObjectPtrBase</text>
</a>
</g>
</g>
<!-- Node11&#45;&gt;Node10 -->
<g id="edge11" class="edge">
<title>Node11&#45;&gt;Node10</title>
<path fill="none" stroke="midnightblue" d="M468,-383.22C468,-374.36 468,-363.96 468,-355.76"/>
<polygon fill="midnightblue" stroke="midnightblue" points="464.5,-383.33 468,-393.33 471.5,-383.33 464.5,-383.33"/>
</g>
<!-- Node12 -->
<g id="node12" class="node">
<title>Node12</title>
<g id="a_node12"><a xlink:href="../../d6/d4f/classnap_1_1_render_window.html" target="_top" xlink:title=" ">
<polygon fill="white" stroke="black" points="202,-191.5 202,-210.5 292,-210.5 292,-191.5 202,-191.5"/>
<text text-anchor="middle" x="247" y="-198.5" font-family="Helvetica,sans-Serif" font-size="10.00">RenderWindow</text>
</a>
</g>
</g>
<!-- Node12&#45;&gt;Node5 -->
<g id="edge12" class="edge">
<title>Node12&#45;&gt;Node5</title>
<path fill="none" stroke="#9a32cd" stroke-dasharray="5,2" d="M236.7,-182.24C234.21,-175.54 233.22,-168.07 237,-162 242.29,-153.51 251.11,-147.62 260.15,-143.56"/>
<polygon fill="#9a32cd" stroke="#9a32cd" points="233.55,-183.77 241.04,-191.27 239.86,-180.74 233.55,-183.77"/>
<text text-anchor="middle" x="280.5" y="-165" font-family="Helvetica,sans-Serif" font-size="10.00"> mRenderWindow</text>
</g>
<!-- Node13&#45;&gt;Node12 -->
<g id="edge13" class="edge">
<title>Node13&#45;&gt;Node12</title>
<path fill="none" stroke="midnightblue" d="M257.71,-248.41C254.84,-235.99 251.2,-220.22 248.99,-210.63"/>
<polygon fill="midnightblue" stroke="midnightblue" points="254.32,-249.28 259.98,-258.23 261.14,-247.7 254.32,-249.28"/>
</g>
<!-- Node14 -->
<g id="node14" class="node">
<title>Node14</title>
<g id="a_node14"><a xlink:href="../../de/d80/classnap_1_1_signal.html" target="_top" xlink:title=" ">
<polygon fill="white" stroke="black" points="186.5,-325.5 186.5,-355.5 297.5,-355.5 297.5,-325.5 186.5,-325.5"/>
<text text-anchor="start" x="194.5" y="-343.5" font-family="Helvetica,sans-Serif" font-size="10.00">Signal&lt; const nap::</text>
<text text-anchor="middle" x="242" y="-332.5" font-family="Helvetica,sans-Serif" font-size="10.00">WindowEvent &amp; &gt;</text>
</a>
</g>
</g>
<!-- Node14&#45;&gt;Node13 -->
<g id="edge15" class="edge">
<title>Node14&#45;&gt;Node13</title>
<path fill="none" stroke="#9a32cd" stroke-dasharray="5,2" d="M240.06,-315.27C240.22,-308.87 241,-302.07 243,-296 245.22,-289.25 249.75,-282.7 253.83,-277.75"/>
<polygon fill="#9a32cd" stroke="#9a32cd" points="236.56,-315.52 240.28,-325.44 243.56,-315.36 236.56,-315.52"/>
<text text-anchor="middle" x="283" y="-299" font-family="Helvetica,sans-Serif" font-size="10.00"> mWindowEvent</text>
</g>
<!-- Node15 -->
<g id="node15" class="node">
<title>Node15</title>
<g id="a_node15"><a xlink:href="../../d7/da9/classnap_1_1_i_render_target.html" target="_top" xlink:title=" ">
<polygon fill="white" stroke="black" points="0,-258.5 0,-277.5 84,-277.5 84,-258.5 0,-258.5"/>
<text text-anchor="middle" x="42" y="-265.5" font-family="Helvetica,sans-Serif" font-size="10.00">IRenderTarget</text>
</a>
</g>
</g>
<!-- Node15&#45;&gt;Node12 -->
<g id="edge16" class="edge">
<title>Node15&#45;&gt;Node12</title>
<path fill="none" stroke="midnightblue" d="M79.01,-255.27C119.63,-242.39 183.86,-222.02 219.99,-210.56"/>
<polygon fill="midnightblue" stroke="midnightblue" points="77.7,-252.01 69.22,-258.37 79.81,-258.68 77.7,-252.01"/>
</g>
<!-- Node16 -->
<g id="node16" class="node">
<title>Node16</title>
<g id="a_node16"><a xlink:href="../../d6/db8/classnap_1_1_r_g_b_a_color.html" target="_top" xlink:title=" ">
<polygon fill="white" stroke="black" points="102,-258.5 102,-277.5 216,-277.5 216,-258.5 102,-258.5"/>
<text text-anchor="middle" x="159" y="-265.5" font-family="Helvetica,sans-Serif" font-size="10.00">RGBAColor&lt; float &gt;</text>
</a>
</g>
</g>
<!-- Node16&#45;&gt;Node12 -->
<g id="edge17" class="edge">
<title>Node16&#45;&gt;Node12</title>
<path fill="none" stroke="#9a32cd" stroke-dasharray="5,2" d="M168.6,-249.51C173.15,-242.44 179.11,-234.63 186,-229 195.78,-221.01 208.29,-214.93 219.43,-210.58"/>
<polygon fill="#9a32cd" stroke="#9a32cd" points="165.4,-248.05 163.31,-258.43 171.42,-251.62 165.4,-248.05"/>
<text text-anchor="middle" x="218" y="-232" font-family="Helvetica,sans-Serif" font-size="10.00"> mClearColor</text>
</g>
<!-- Node17 -->
<g id="node17" class="node">
<title>Node17</title>
<g id="a_node17"><a xlink:href="../../d6/d3d/classnap_1_1_color.html" target="_top" xlink:title=" ">
<polygon fill="white" stroke="black" points="70,-331 70,-350 168,-350 168,-331 70,-331"/>
<text text-anchor="middle" x="119" y="-338" font-family="Helvetica,sans-Serif" font-size="10.00">Color&lt; float, 4 &gt;</text>
</a>
</g>
</g>
<!-- Node17&#45;&gt;Node16 -->
<g id="edge18" class="edge">
<title>Node17&#45;&gt;Node16</title>
<path fill="none" stroke="midnightblue" d="M128.88,-322.09C136.87,-308 147.8,-288.74 154.06,-277.72"/>
<polygon fill="midnightblue" stroke="midnightblue" points="125.8,-320.43 123.9,-330.86 131.88,-323.88 125.8,-320.43"/>
</g>
<!-- Node18 -->
<g id="node18" class="node">
<title>Node18</title>
<g id="a_node18"><a xlink:href="../../d8/d6a/classnap_1_1_base_color.html" target="_top" xlink:title=" ">
<polygon fill="white" stroke="black" points="86,-393.5 86,-412.5 152,-412.5 152,-393.5 86,-393.5"/>
<text text-anchor="middle" x="119" y="-400.5" font-family="Helvetica,sans-Serif" font-size="10.00">BaseColor</text>
</a>
</g>
</g>
<!-- Node18&#45;&gt;Node17 -->
<g id="edge19" class="edge">
<title>Node18&#45;&gt;Node17</title>
<path fill="none" stroke="midnightblue" d="M119,-383C119,-372 119,-358.68 119,-350.15"/>
<polygon fill="midnightblue" stroke="midnightblue" points="115.5,-383.33 119,-393.33 122.5,-383.33 115.5,-383.33"/>
</g>
</g>
</svg>
