<?xml version="1.0" encoding="UTF-8" standalone="no"?>
<!DOCTYPE svg PUBLIC "-//W3C//DTD SVG 1.1//EN"
 "http://www.w3.org/Graphics/SVG/1.1/DTD/svg11.dtd">
<!-- Generated by graphviz version 3.0.0 (20220226.1711)
 -->
<!-- Title: SerialPort Pages: 1 -->
<svg width="208pt" height="209pt"
 viewBox="0.00 0.00 208.00 209.00" xmlns="http://www.w3.org/2000/svg" xmlns:xlink="http://www.w3.org/1999/xlink">
<g id="graph0" class="graph" transform="scale(1 1) rotate(0) translate(4 205)">
<title>SerialPort</title>
<polygon fill="white" stroke="transparent" points="-4,4 -4,-205 204,-205 204,4 -4,4"/>
<!-- Node4 -->
<g id="node1" class="node">
<title>Node4</title>
<polygon fill="#bfbfbf" stroke="black" points="52.5,-0.5 52.5,-19.5 111.5,-19.5 111.5,-0.5 52.5,-0.5"/>
<text text-anchor="middle" x="82" y="-7.5" font-family="Helvetica,sans-Serif" font-size="10.00">SerialPort</text>
</g>
<!-- Node5 -->
<g id="node2" class="node">
<title>Node5</title>
<g id="a_node2"><a xlink:href="../../d3/dc5/classnap_1_1_device.html" target="_top" xlink:title="Device">
<polygon fill="white" stroke="black" points="6.5,-67.5 6.5,-86.5 51.5,-86.5 51.5,-67.5 6.5,-67.5"/>
<text text-anchor="middle" x="29" y="-74.5" font-family="Helvetica,sans-Serif" font-size="10.00">Device</text>
</a>
</g>
</g>
<!-- Node5&#45;&gt;Node4 -->
<g id="edge1" class="edge">
<title>Node5&#45;&gt;Node4</title>
<path fill="none" stroke="midnightblue" d="M42.64,-59.27C52.97,-46.6 66.75,-29.7 74.97,-19.63"/>
<polygon fill="midnightblue" stroke="midnightblue" points="39.75,-57.27 36.15,-67.23 45.18,-61.7 39.75,-57.27"/>
</g>
<!-- Node6 -->
<g id="node3" class="node">
<title>Node6</title>
<g id="a_node3"><a xlink:href="../../d9/dea/classnap_1_1_resource.html" target="_top" xlink:title="Resource">
<polygon fill="white" stroke="black" points="0,-124.5 0,-143.5 58,-143.5 58,-124.5 0,-124.5"/>
<text text-anchor="middle" x="29" y="-131.5" font-family="Helvetica,sans-Serif" font-size="10.00">Resource</text>
</a>
</g>
</g>
<!-- Node6&#45;&gt;Node5 -->
<g id="edge2" class="edge">
<title>Node6&#45;&gt;Node5</title>
<path fill="none" stroke="midnightblue" d="M29,-114.12C29,-104.82 29,-94.06 29,-86.71"/>
<polygon fill="midnightblue" stroke="midnightblue" points="25.5,-114.41 29,-124.41 32.5,-114.41 25.5,-114.41"/>
</g>
<!-- Node7 -->
<g id="node4" class="node">
<title>Node7</title>
<g id="a_node4"><a xlink:href="../../de/d01/classnap_1_1rtti_1_1_object.html" target="_top" xlink:title="Object">
<polygon fill="white" stroke="black" points="6.5,-181.5 6.5,-200.5 51.5,-200.5 51.5,-181.5 6.5,-181.5"/>
<text text-anchor="middle" x="29" y="-188.5" font-family="Helvetica,sans-Serif" font-size="10.00">Object</text>
</a>
</g>
</g>
<!-- Node7&#45;&gt;Node6 -->
<g id="edge3" class="edge">
<title>Node7&#45;&gt;Node6</title>
<path fill="none" stroke="midnightblue" d="M29,-171.12C29,-161.82 29,-151.06 29,-143.71"/>
<polygon fill="midnightblue" stroke="midnightblue" points="25.5,-171.41 29,-181.41 32.5,-171.41 25.5,-171.41"/>
</g>
<!-- Node8 -->
<g id="node5" class="node">
<title>Node8</title>
<g id="a_node5"><a xlink:href="../../de/d80/classnap_1_1_signal.html" target="_top" xlink:title="Signal\&lt; nap::SerialPort *\&gt;">
<polygon fill="white" stroke="black" points="70,-67.5 70,-86.5 200,-86.5 200,-67.5 70,-67.5"/>
<text text-anchor="middle" x="135" y="-74.5" font-family="Helvetica,sans-Serif" font-size="10.00">Signal&lt; nap::SerialPort *&gt;</text>
</a>
</g>
</g>
<!-- Node8&#45;&gt;Node4 -->
<g id="edge4" class="edge">
<title>Node8&#45;&gt;Node4</title>
<path fill="none" stroke="#9a32cd" stroke-dasharray="5,2" d="M121.36,-59.27C111.03,-46.6 97.25,-29.7 89.03,-19.63"/>
<polygon fill="#9a32cd" stroke="#9a32cd" points="118.82,-61.7 127.85,-67.23 124.25,-57.27 118.82,-61.7"/>
<text text-anchor="middle" x="135.5" y="-41" font-family="Helvetica,sans-Serif" font-size="10.00"> destructed</text>
</g>
</g>
</svg>
