<?xml version="1.0" encoding="UTF-8" standalone="no"?>
<!DOCTYPE svg PUBLIC "-//W3C//DTD SVG 1.1//EN"
 "http://www.w3.org/Graphics/SVG/1.1/DTD/svg11.dtd">
<!-- Generated by graphviz version 2.43.0 (0)
 -->
<!-- Title: PortalItemOperationalCalendar Pages: 1 -->
<svg width="344pt" height="241pt"
 viewBox="0.00 0.00 344.00 241.00" xmlns="http://www.w3.org/2000/svg" xmlns:xlink="http://www.w3.org/1999/xlink">
<g id="graph0" class="graph" transform="scale(1 1) rotate(0) translate(4 237)">
<title>PortalItemOperationalCalendar</title>
<polygon fill="white" stroke="transparent" points="-4,4 -4,-237 340,-237 340,4 -4,4"/>
<!-- Node1 -->
<g id="node1" class="node">
<title>Node1</title>
<g id="a_node1"><a xlink:title=" ">
<polygon fill="#bfbfbf" stroke="black" points="110,-0.5 110,-19.5 278,-19.5 278,-0.5 110,-0.5"/>
<text text-anchor="middle" x="194" y="-7.5" font-family="Helvetica,sans-Serif" font-size="10.00">PortalItemOperationalCalendar</text>
</a>
</g>
</g>
<!-- Node2 -->
<g id="node2" class="node">
<title>Node2</title>
<g id="a_node2"><a xlink:href="../../da/d65/classnap_1_1_portal_item.html" target="_top" xlink:title=" ">
<polygon fill="white" stroke="black" points="96,-73 96,-92 164,-92 164,-73 96,-73"/>
<text text-anchor="middle" x="130" y="-80" font-family="Helvetica,sans-Serif" font-size="10.00">PortalItem</text>
</a>
</g>
</g>
<!-- Node2&#45;&gt;Node1 -->
<g id="edge1" class="edge">
<title>Node2&#45;&gt;Node1</title>
<path fill="none" stroke="midnightblue" d="M144.71,-65.3C157.58,-51.12 175.79,-31.06 186.09,-19.72"/>
<polygon fill="midnightblue" stroke="midnightblue" points="141.98,-63.1 137.85,-72.86 147.16,-67.8 141.98,-63.1"/>
</g>
<!-- Node3 -->
<g id="node3" class="node">
<title>Node3</title>
<g id="a_node3"><a xlink:href="../../d9/dea/classnap_1_1_resource.html" target="_top" xlink:title=" ">
<polygon fill="white" stroke="black" points="0,-151 0,-170 62,-170 62,-151 0,-151"/>
<text text-anchor="middle" x="31" y="-158" font-family="Helvetica,sans-Serif" font-size="10.00">Resource</text>
</a>
</g>
</g>
<!-- Node3&#45;&gt;Node2 -->
<g id="edge2" class="edge">
<title>Node3&#45;&gt;Node2</title>
<path fill="none" stroke="midnightblue" d="M50.34,-144.65C70.73,-129 102.14,-104.88 118.78,-92.12"/>
<polygon fill="midnightblue" stroke="midnightblue" points="48.16,-141.92 42.36,-150.78 52.42,-147.47 48.16,-141.92"/>
</g>
<!-- Node4 -->
<g id="node4" class="node">
<title>Node4</title>
<g id="a_node4"><a xlink:href="../../de/d01/classnap_1_1rtti_1_1_object.html" target="_top" xlink:title=" ">
<polygon fill="white" stroke="black" points="7,-213.5 7,-232.5 55,-232.5 55,-213.5 7,-213.5"/>
<text text-anchor="middle" x="31" y="-220.5" font-family="Helvetica,sans-Serif" font-size="10.00">Object</text>
</a>
</g>
</g>
<!-- Node4&#45;&gt;Node3 -->
<g id="edge3" class="edge">
<title>Node4&#45;&gt;Node3</title>
<path fill="none" stroke="midnightblue" d="M31,-203C31,-192 31,-178.68 31,-170.15"/>
<polygon fill="midnightblue" stroke="midnightblue" points="27.5,-203.33 31,-213.33 34.5,-203.33 27.5,-203.33"/>
</g>
<!-- Node5 -->
<g id="node5" class="node">
<title>Node5</title>
<g id="a_node5"><a xlink:href="../../de/d80/classnap_1_1_signal.html" target="_top" xlink:title=" ">
<polygon fill="white" stroke="black" points="80.5,-145.5 80.5,-175.5 191.5,-175.5 191.5,-145.5 80.5,-145.5"/>
<text text-anchor="start" x="88.5" y="-163.5" font-family="Helvetica,sans-Serif" font-size="10.00">Signal&lt; const nap::</text>
<text text-anchor="middle" x="136" y="-152.5" font-family="Helvetica,sans-Serif" font-size="10.00">PortalItem &amp; &gt;</text>
</a>
</g>
</g>
<!-- Node5&#45;&gt;Node2 -->
<g id="edge4" class="edge">
<title>Node5&#45;&gt;Node2</title>
<path fill="none" stroke="#9a32cd" stroke-dasharray="5,2" d="M134.08,-135.17C132.91,-120.4 131.5,-102.45 130.68,-92.06"/>
<polygon fill="#9a32cd" stroke="#9a32cd" points="130.6,-135.51 134.87,-145.2 137.57,-134.96 130.6,-135.51"/>
<text text-anchor="middle" x="167.5" y="-119" font-family="Helvetica,sans-Serif" font-size="10.00"> updateSignal</text>
</g>
<!-- Node6 -->
<g id="node6" class="node">
<title>Node6</title>
<g id="a_node6"><a xlink:href="../../dd/d7c/classnap_1_1rtti_1_1_object_ptr.html" target="_top" xlink:title=" ">
<polygon fill="white" stroke="black" points="182,-67.5 182,-97.5 336,-97.5 336,-67.5 182,-67.5"/>
<text text-anchor="start" x="190" y="-85.5" font-family="Helvetica,sans-Serif" font-size="10.00">ObjectPtr&lt; nap::Operational</text>
<text text-anchor="middle" x="259" y="-74.5" font-family="Helvetica,sans-Serif" font-size="10.00">Calendar &gt;</text>
</a>
</g>
</g>
<!-- Node6&#45;&gt;Node1 -->
<g id="edge5" class="edge">
<title>Node6&#45;&gt;Node1</title>
<path fill="none" stroke="#9a32cd" stroke-dasharray="5,2" d="M238.96,-59.76C226.59,-46.34 211.38,-29.85 202.2,-19.89"/>
<polygon fill="#9a32cd" stroke="#9a32cd" points="236.49,-62.25 245.85,-67.23 241.64,-57.51 236.49,-62.25"/>
<text text-anchor="middle" x="257.5" y="-41" font-family="Helvetica,sans-Serif" font-size="10.00"> mCalendar</text>
</g>
<!-- Node7 -->
<g id="node7" class="node">
<title>Node7</title>
<g id="a_node7"><a xlink:href="../../d7/dcb/classnap_1_1rtti_1_1_object_ptr_base.html" target="_top" xlink:title=" ">
<polygon fill="white" stroke="black" points="216,-151 216,-170 302,-170 302,-151 216,-151"/>
<text text-anchor="middle" x="259" y="-158" font-family="Helvetica,sans-Serif" font-size="10.00">ObjectPtrBase</text>
</a>
</g>
</g>
<!-- Node7&#45;&gt;Node6 -->
<g id="edge6" class="edge">
<title>Node7&#45;&gt;Node6</title>
<path fill="none" stroke="midnightblue" d="M259,-140.78C259,-127.4 259,-109.69 259,-97.52"/>
<polygon fill="midnightblue" stroke="midnightblue" points="255.5,-140.78 259,-150.78 262.5,-140.78 255.5,-140.78"/>
</g>
</g>
</svg>
