<?xml version="1.0" encoding="UTF-8" standalone="no"?>
<!DOCTYPE svg PUBLIC "-//W3C//DTD SVG 1.1//EN"
 "http://www.w3.org/Graphics/SVG/1.1/DTD/svg11.dtd">
<!-- Generated by graphviz version 2.43.0 (0)
 -->
<!-- Title: WindowInputEvent Pages: 1 -->
<svg width="509pt" height="308pt"
 viewBox="0.00 0.00 508.50 308.00" xmlns="http://www.w3.org/2000/svg" xmlns:xlink="http://www.w3.org/1999/xlink">
<g id="graph0" class="graph" transform="scale(1 1) rotate(0) translate(4 304)">
<title>WindowInputEvent</title>
<polygon fill="white" stroke="transparent" points="-4,4 -4,-304 504.5,-304 504.5,4 -4,4"/>
<!-- Node1 -->
<g id="node1" class="node">
<title>Node1</title>
<g id="a_node1"><a xlink:title=" ">
<polygon fill="#bfbfbf" stroke="black" points="237.5,-168.5 237.5,-187.5 345.5,-187.5 345.5,-168.5 237.5,-168.5"/>
<text text-anchor="middle" x="291.5" y="-175.5" font-family="Helvetica,sans-Serif" font-size="10.00">WindowInputEvent</text>
</a>
</g>
</g>
<!-- Node4 -->
<g id="node4" class="node">
<title>Node4</title>
<g id="a_node4"><a xlink:href="../../d6/d0d/classnap_1_1_key_event.html" target="_top" xlink:title=" ">
<polygon fill="white" stroke="black" points="102.5,-112.5 102.5,-131.5 164.5,-131.5 164.5,-112.5 102.5,-112.5"/>
<text text-anchor="middle" x="133.5" y="-119.5" font-family="Helvetica,sans-Serif" font-size="10.00">KeyEvent</text>
</a>
</g>
</g>
<!-- Node1&#45;&gt;Node4 -->
<g id="edge3" class="edge">
<title>Node1&#45;&gt;Node4</title>
<path fill="none" stroke="midnightblue" d="M256.89,-165.17C227.14,-155 184.95,-140.59 158.42,-131.52"/>
<polygon fill="midnightblue" stroke="midnightblue" points="255.87,-168.52 266.46,-168.44 258.13,-161.9 255.87,-168.52"/>
</g>
<!-- Node7 -->
<g id="node7" class="node">
<title>Node7</title>
<g id="a_node7"><a xlink:href="../../d7/d77/classnap_1_1_mouse_wheel_event.html" target="_top" xlink:title=" ">
<polygon fill="white" stroke="black" points="183,-112.5 183,-131.5 290,-131.5 290,-112.5 183,-112.5"/>
<text text-anchor="middle" x="236.5" y="-119.5" font-family="Helvetica,sans-Serif" font-size="10.00">MouseWheelEvent</text>
</a>
</g>
</g>
<!-- Node1&#45;&gt;Node7 -->
<g id="edge6" class="edge">
<title>Node1&#45;&gt;Node7</title>
<path fill="none" stroke="midnightblue" d="M275.21,-161C265.46,-151.43 253.45,-139.64 245.41,-131.75"/>
<polygon fill="midnightblue" stroke="midnightblue" points="272.83,-163.57 282.42,-168.08 277.73,-158.58 272.83,-163.57"/>
</g>
<!-- Node8 -->
<g id="node8" class="node">
<title>Node8</title>
<g id="a_node8"><a xlink:href="../../d3/d85/classnap_1_1_pointer_event.html" target="_top" xlink:title=" ">
<polygon fill="white" stroke="black" points="308,-112.5 308,-131.5 387,-131.5 387,-112.5 308,-112.5"/>
<text text-anchor="middle" x="347.5" y="-119.5" font-family="Helvetica,sans-Serif" font-size="10.00">PointerEvent</text>
</a>
</g>
</g>
<!-- Node1&#45;&gt;Node8 -->
<g id="edge7" class="edge">
<title>Node1&#45;&gt;Node8</title>
<path fill="none" stroke="midnightblue" d="M307.83,-161.25C317.76,-151.67 330.09,-139.79 338.34,-131.83"/>
<polygon fill="midnightblue" stroke="midnightblue" points="305.27,-158.86 300.5,-168.32 310.13,-163.9 305.27,-158.86"/>
</g>
<!-- Node13 -->
<g id="node13" class="node">
<title>Node13</title>
<g id="a_node13"><a xlink:href="../../d0/d66/classnap_1_1_text_input_event.html" target="_top" xlink:title=" ">
<polygon fill="white" stroke="black" points="405,-112.5 405,-131.5 494,-131.5 494,-112.5 405,-112.5"/>
<text text-anchor="middle" x="449.5" y="-119.5" font-family="Helvetica,sans-Serif" font-size="10.00">TextInputEvent</text>
</a>
</g>
</g>
<!-- Node1&#45;&gt;Node13 -->
<g id="edge12" class="edge">
<title>Node1&#45;&gt;Node13</title>
<path fill="none" stroke="midnightblue" d="M326.11,-165.17C355.86,-155 398.05,-140.59 424.58,-131.52"/>
<polygon fill="midnightblue" stroke="midnightblue" points="324.87,-161.9 316.54,-168.44 327.13,-168.52 324.87,-161.9"/>
</g>
<!-- Node2 -->
<g id="node2" class="node">
<title>Node2</title>
<g id="a_node2"><a xlink:href="../../dc/dc0/classnap_1_1_input_event.html" target="_top" xlink:title=" ">
<polygon fill="white" stroke="black" points="257,-224.5 257,-243.5 326,-243.5 326,-224.5 257,-224.5"/>
<text text-anchor="middle" x="291.5" y="-231.5" font-family="Helvetica,sans-Serif" font-size="10.00">InputEvent</text>
</a>
</g>
</g>
<!-- Node2&#45;&gt;Node1 -->
<g id="edge1" class="edge">
<title>Node2&#45;&gt;Node1</title>
<path fill="none" stroke="midnightblue" d="M291.5,-213.8C291.5,-204.91 291.5,-194.78 291.5,-187.75"/>
<polygon fill="midnightblue" stroke="midnightblue" points="288,-214.08 291.5,-224.08 295,-214.08 288,-214.08"/>
</g>
<!-- Node3 -->
<g id="node3" class="node">
<title>Node3</title>
<g id="a_node3"><a xlink:href="../../d2/da2/classnap_1_1_event.html" target="_top" xlink:title=" ">
<polygon fill="white" stroke="black" points="269.5,-280.5 269.5,-299.5 313.5,-299.5 313.5,-280.5 269.5,-280.5"/>
<text text-anchor="middle" x="291.5" y="-287.5" font-family="Helvetica,sans-Serif" font-size="10.00">Event</text>
</a>
</g>
</g>
<!-- Node3&#45;&gt;Node2 -->
<g id="edge2" class="edge">
<title>Node3&#45;&gt;Node2</title>
<path fill="none" stroke="midnightblue" d="M291.5,-269.8C291.5,-260.91 291.5,-250.78 291.5,-243.75"/>
<polygon fill="midnightblue" stroke="midnightblue" points="288,-270.08 291.5,-280.08 295,-270.08 288,-270.08"/>
</g>
<!-- Node5 -->
<g id="node5" class="node">
<title>Node5</title>
<g id="a_node5"><a xlink:href="../../d1/ddb/classnap_1_1_key_press_event.html" target="_top" xlink:title=" ">
<polygon fill="white" stroke="black" points="0,-56.5 0,-75.5 89,-75.5 89,-56.5 0,-56.5"/>
<text text-anchor="middle" x="44.5" y="-63.5" font-family="Helvetica,sans-Serif" font-size="10.00">KeyPressEvent</text>
</a>
</g>
</g>
<!-- Node4&#45;&gt;Node5 -->
<g id="edge4" class="edge">
<title>Node4&#45;&gt;Node5</title>
<path fill="none" stroke="midnightblue" d="M110.26,-106.9C93.94,-97 72.63,-84.07 58.76,-75.65"/>
<polygon fill="midnightblue" stroke="midnightblue" points="108.84,-110.13 119.2,-112.32 112.47,-104.14 108.84,-110.13"/>
</g>
<!-- Node6 -->
<g id="node6" class="node">
<title>Node6</title>
<g id="a_node6"><a xlink:href="../../d6/d2d/classnap_1_1_key_release_event.html" target="_top" xlink:title=" ">
<polygon fill="white" stroke="black" points="107,-56.5 107,-75.5 208,-75.5 208,-56.5 107,-56.5"/>
<text text-anchor="middle" x="157.5" y="-63.5" font-family="Helvetica,sans-Serif" font-size="10.00">KeyReleaseEvent</text>
</a>
</g>
</g>
<!-- Node4&#45;&gt;Node6 -->
<g id="edge5" class="edge">
<title>Node4&#45;&gt;Node6</title>
<path fill="none" stroke="midnightblue" d="M141.64,-102.69C145.68,-93.59 150.38,-83.01 153.61,-75.75"/>
<polygon fill="midnightblue" stroke="midnightblue" points="138.33,-101.52 137.46,-112.08 144.72,-104.37 138.33,-101.52"/>
</g>
<!-- Node9 -->
<g id="node9" class="node">
<title>Node9</title>
<g id="a_node9"><a xlink:href="../../dd/d3f/classnap_1_1_pointer_click_event.html" target="_top" xlink:title=" ">
<polygon fill="white" stroke="black" points="273,-56.5 273,-75.5 376,-75.5 376,-56.5 273,-56.5"/>
<text text-anchor="middle" x="324.5" y="-63.5" font-family="Helvetica,sans-Serif" font-size="10.00">PointerClickEvent</text>
</a>
</g>
</g>
<!-- Node8&#45;&gt;Node9 -->
<g id="edge8" class="edge">
<title>Node8&#45;&gt;Node9</title>
<path fill="none" stroke="midnightblue" d="M339.7,-102.69C335.82,-93.59 331.32,-83.01 328.23,-75.75"/>
<polygon fill="midnightblue" stroke="midnightblue" points="336.56,-104.25 343.7,-112.08 343,-101.51 336.56,-104.25"/>
</g>
<!-- Node12 -->
<g id="node12" class="node">
<title>Node12</title>
<g id="a_node12"><a xlink:href="../../d0/d87/classnap_1_1_pointer_move_event.html" target="_top" xlink:title=" ">
<polygon fill="white" stroke="black" points="394.5,-56.5 394.5,-75.5 500.5,-75.5 500.5,-56.5 394.5,-56.5"/>
<text text-anchor="middle" x="447.5" y="-63.5" font-family="Helvetica,sans-Serif" font-size="10.00">PointerMoveEvent</text>
</a>
</g>
</g>
<!-- Node8&#45;&gt;Node12 -->
<g id="edge11" class="edge">
<title>Node8&#45;&gt;Node12</title>
<path fill="none" stroke="midnightblue" d="M372.59,-107.45C391.05,-97.48 415.6,-84.23 431.47,-75.65"/>
<polygon fill="midnightblue" stroke="midnightblue" points="370.7,-104.49 363.57,-112.32 374.03,-110.65 370.7,-104.49"/>
</g>
<!-- Node10 -->
<g id="node10" class="node">
<title>Node10</title>
<g id="a_node10"><a xlink:href="../../d5/dfd/classnap_1_1_pointer_press_event.html" target="_top" xlink:title=" ">
<polygon fill="white" stroke="black" points="207,-0.5 207,-19.5 312,-19.5 312,-0.5 207,-0.5"/>
<text text-anchor="middle" x="259.5" y="-7.5" font-family="Helvetica,sans-Serif" font-size="10.00">PointerPressEvent</text>
</a>
</g>
</g>
<!-- Node9&#45;&gt;Node10 -->
<g id="edge9" class="edge">
<title>Node9&#45;&gt;Node10</title>
<path fill="none" stroke="midnightblue" d="M306.23,-49.82C294.58,-40.15 279.9,-27.95 270.13,-19.83"/>
<polygon fill="midnightblue" stroke="midnightblue" points="304.13,-52.63 314.06,-56.32 308.6,-47.24 304.13,-52.63"/>
</g>
<!-- Node11 -->
<g id="node11" class="node">
<title>Node11</title>
<g id="a_node11"><a xlink:href="../../de/d98/classnap_1_1_pointer_release_event.html" target="_top" xlink:title=" ">
<polygon fill="white" stroke="black" points="330.5,-0.5 330.5,-19.5 448.5,-19.5 448.5,-0.5 330.5,-0.5"/>
<text text-anchor="middle" x="389.5" y="-7.5" font-family="Helvetica,sans-Serif" font-size="10.00">PointerReleaseEvent</text>
</a>
</g>
</g>
<!-- Node9&#45;&gt;Node11 -->
<g id="edge10" class="edge">
<title>Node9&#45;&gt;Node11</title>
<path fill="none" stroke="midnightblue" d="M342.77,-49.82C354.42,-40.15 369.1,-27.95 378.87,-19.83"/>
<polygon fill="midnightblue" stroke="midnightblue" points="340.4,-47.24 334.94,-56.32 344.87,-52.63 340.4,-47.24"/>
</g>
</g>
</svg>
