<?xml version="1.0" encoding="UTF-8" standalone="no"?>
<!DOCTYPE svg PUBLIC "-//W3C//DTD SVG 1.1//EN"
 "http://www.w3.org/Graphics/SVG/1.1/DTD/svg11.dtd">
<!-- Generated by graphviz version 2.48.0 (20210717.1556)
 -->
<!-- Title: WindowInputEvent Pages: 1 -->
<svg width="470pt" height="308pt"
 viewBox="0.00 0.00 469.50 308.00" xmlns="http://www.w3.org/2000/svg" xmlns:xlink="http://www.w3.org/1999/xlink">
<g id="graph0" class="graph" transform="scale(1 1) rotate(0) translate(4 304)">
<title>WindowInputEvent</title>
<polygon fill="white" stroke="transparent" points="-4,4 -4,-304 465.5,-304 465.5,4 -4,4"/>
<!-- Node0 -->
<g id="node1" class="node">
<title>Node0</title>
<polygon fill="#bfbfbf" stroke="black" points="224.5,-168.5 224.5,-187.5 320.5,-187.5 320.5,-168.5 224.5,-168.5"/>
<text text-anchor="middle" x="272.5" y="-175.5" font-family="Helvetica,sans-Serif" font-size="10.00">WindowInputEvent</text>
</g>
<!-- Node3 -->
<g id="node4" class="node">
<title>Node3</title>
<g id="a_node4"><a xlink:href="../../d6/d0d/classnap_1_1_key_event.html" target="_top" xlink:title="KeyEvent">
<polygon fill="white" stroke="black" points="96.5,-112.5 96.5,-131.5 154.5,-131.5 154.5,-112.5 96.5,-112.5"/>
<text text-anchor="middle" x="125.5" y="-119.5" font-family="Helvetica,sans-Serif" font-size="10.00">KeyEvent</text>
</a>
</g>
</g>
<!-- Node0&#45;&gt;Node3 -->
<g id="edge3" class="edge">
<title>Node0&#45;&gt;Node3</title>
<path fill="none" stroke="midnightblue" d="M239.58,-164.91C211.94,-154.75 173.16,-140.51 148.68,-131.52"/>
<polygon fill="midnightblue" stroke="midnightblue" points="238.61,-168.28 249.21,-168.44 241.03,-161.71 238.61,-168.28"/>
</g>
<!-- Node6 -->
<g id="node7" class="node">
<title>Node6</title>
<g id="a_node7"><a xlink:href="../../d7/d77/classnap_1_1_mouse_wheel_event.html" target="_top" xlink:title="MouseWheelEvent">
<polygon fill="white" stroke="black" points="172.5,-112.5 172.5,-131.5 270.5,-131.5 270.5,-112.5 172.5,-112.5"/>
<text text-anchor="middle" x="221.5" y="-119.5" font-family="Helvetica,sans-Serif" font-size="10.00">MouseWheelEvent</text>
</a>
</g>
</g>
<!-- Node0&#45;&gt;Node6 -->
<g id="edge6" class="edge">
<title>Node0&#45;&gt;Node6</title>
<path fill="none" stroke="midnightblue" d="M257.12,-160.72C248.13,-151.2 237.14,-139.56 229.76,-131.75"/>
<polygon fill="midnightblue" stroke="midnightblue" points="254.67,-163.22 264.08,-168.08 259.76,-158.41 254.67,-163.22"/>
</g>
<!-- Node7 -->
<g id="node8" class="node">
<title>Node7</title>
<g id="a_node8"><a xlink:href="../../d3/d85/classnap_1_1_pointer_event.html" target="_top" xlink:title="PointerEvent">
<polygon fill="white" stroke="black" points="289,-112.5 289,-131.5 360,-131.5 360,-112.5 289,-112.5"/>
<text text-anchor="middle" x="324.5" y="-119.5" font-family="Helvetica,sans-Serif" font-size="10.00">PointerEvent</text>
</a>
</g>
</g>
<!-- Node0&#45;&gt;Node7 -->
<g id="edge7" class="edge">
<title>Node0&#45;&gt;Node7</title>
<path fill="none" stroke="midnightblue" d="M288.18,-160.72C297.34,-151.2 308.55,-139.56 316.07,-131.75"/>
<polygon fill="midnightblue" stroke="midnightblue" points="285.5,-158.45 281.09,-168.08 290.54,-163.31 285.5,-158.45"/>
</g>
<!-- Node12 -->
<g id="node13" class="node">
<title>Node12</title>
<g id="a_node13"><a xlink:href="../../d0/d66/classnap_1_1_text_input_event.html" target="_top" xlink:title="TextInputEvent">
<polygon fill="white" stroke="black" points="378.5,-112.5 378.5,-131.5 458.5,-131.5 458.5,-112.5 378.5,-112.5"/>
<text text-anchor="middle" x="418.5" y="-119.5" font-family="Helvetica,sans-Serif" font-size="10.00">TextInputEvent</text>
</a>
</g>
</g>
<!-- Node0&#45;&gt;Node12 -->
<g id="edge12" class="edge">
<title>Node0&#45;&gt;Node12</title>
<path fill="none" stroke="midnightblue" d="M305.2,-164.91C332.65,-154.75 371.17,-140.51 395.47,-131.52"/>
<polygon fill="midnightblue" stroke="midnightblue" points="303.8,-161.69 295.63,-168.44 306.23,-168.26 303.8,-161.69"/>
</g>
<!-- Node1 -->
<g id="node2" class="node">
<title>Node1</title>
<g id="a_node2"><a xlink:href="../../dc/dc0/classnap_1_1_input_event.html" target="_top" xlink:title="InputEvent">
<polygon fill="white" stroke="black" points="241.5,-224.5 241.5,-243.5 303.5,-243.5 303.5,-224.5 241.5,-224.5"/>
<text text-anchor="middle" x="272.5" y="-231.5" font-family="Helvetica,sans-Serif" font-size="10.00">InputEvent</text>
</a>
</g>
</g>
<!-- Node1&#45;&gt;Node0 -->
<g id="edge1" class="edge">
<title>Node1&#45;&gt;Node0</title>
<path fill="none" stroke="midnightblue" d="M272.5,-213.8C272.5,-204.91 272.5,-194.78 272.5,-187.75"/>
<polygon fill="midnightblue" stroke="midnightblue" points="269,-214.08 272.5,-224.08 276,-214.08 269,-214.08"/>
</g>
<!-- Node2 -->
<g id="node3" class="node">
<title>Node2</title>
<g id="a_node3"><a xlink:href="../../d2/da2/classnap_1_1_event.html" target="_top" xlink:title="Event">
<polygon fill="white" stroke="black" points="252,-280.5 252,-299.5 293,-299.5 293,-280.5 252,-280.5"/>
<text text-anchor="middle" x="272.5" y="-287.5" font-family="Helvetica,sans-Serif" font-size="10.00">Event</text>
</a>
</g>
</g>
<!-- Node2&#45;&gt;Node1 -->
<g id="edge2" class="edge">
<title>Node2&#45;&gt;Node1</title>
<path fill="none" stroke="midnightblue" d="M272.5,-269.8C272.5,-260.91 272.5,-250.78 272.5,-243.75"/>
<polygon fill="midnightblue" stroke="midnightblue" points="269,-270.08 272.5,-280.08 276,-270.08 269,-270.08"/>
</g>
<!-- Node4 -->
<g id="node5" class="node">
<title>Node4</title>
<g id="a_node5"><a xlink:href="../../d1/ddb/classnap_1_1_key_press_event.html" target="_top" xlink:title="KeyPressEvent">
<polygon fill="white" stroke="black" points="0,-56.5 0,-75.5 83,-75.5 83,-56.5 0,-56.5"/>
<text text-anchor="middle" x="41.5" y="-63.5" font-family="Helvetica,sans-Serif" font-size="10.00">KeyPressEvent</text>
</a>
</g>
</g>
<!-- Node3&#45;&gt;Node4 -->
<g id="edge4" class="edge">
<title>Node3&#45;&gt;Node4</title>
<path fill="none" stroke="midnightblue" d="M103.57,-106.9C88.16,-97 68.05,-84.07 54.96,-75.65"/>
<polygon fill="midnightblue" stroke="midnightblue" points="101.7,-109.86 112,-112.32 105.48,-103.97 101.7,-109.86"/>
</g>
<!-- Node5 -->
<g id="node6" class="node">
<title>Node5</title>
<g id="a_node6"><a xlink:href="../../d6/d2d/classnap_1_1_key_release_event.html" target="_top" xlink:title="KeyReleaseEvent">
<polygon fill="white" stroke="black" points="101,-56.5 101,-75.5 194,-75.5 194,-56.5 101,-56.5"/>
<text text-anchor="middle" x="147.5" y="-63.5" font-family="Helvetica,sans-Serif" font-size="10.00">KeyReleaseEvent</text>
</a>
</g>
</g>
<!-- Node3&#45;&gt;Node5 -->
<g id="edge5" class="edge">
<title>Node3&#45;&gt;Node5</title>
<path fill="none" stroke="midnightblue" d="M132.96,-102.69C136.67,-93.59 140.98,-83.01 143.93,-75.75"/>
<polygon fill="midnightblue" stroke="midnightblue" points="129.66,-101.5 129.13,-112.08 136.15,-104.14 129.66,-101.5"/>
</g>
<!-- Node8 -->
<g id="node9" class="node">
<title>Node8</title>
<g id="a_node9"><a xlink:href="../../dd/d3f/classnap_1_1_pointer_click_event.html" target="_top" xlink:title="PointerClickEvent">
<polygon fill="white" stroke="black" points="256,-56.5 256,-75.5 349,-75.5 349,-56.5 256,-56.5"/>
<text text-anchor="middle" x="302.5" y="-63.5" font-family="Helvetica,sans-Serif" font-size="10.00">PointerClickEvent</text>
</a>
</g>
</g>
<!-- Node7&#45;&gt;Node8 -->
<g id="edge8" class="edge">
<title>Node7&#45;&gt;Node8</title>
<path fill="none" stroke="midnightblue" d="M317.04,-102.69C313.33,-93.59 309.02,-83.01 306.07,-75.75"/>
<polygon fill="midnightblue" stroke="midnightblue" points="313.85,-104.14 320.87,-112.08 320.34,-101.5 313.85,-104.14"/>
</g>
<!-- Node11 -->
<g id="node12" class="node">
<title>Node11</title>
<g id="a_node12"><a xlink:href="../../d0/d87/classnap_1_1_pointer_move_event.html" target="_top" xlink:title="PointerMoveEvent">
<polygon fill="white" stroke="black" points="367.5,-56.5 367.5,-75.5 461.5,-75.5 461.5,-56.5 367.5,-56.5"/>
<text text-anchor="middle" x="414.5" y="-63.5" font-family="Helvetica,sans-Serif" font-size="10.00">PointerMoveEvent</text>
</a>
</g>
</g>
<!-- Node7&#45;&gt;Node11 -->
<g id="edge11" class="edge">
<title>Node7&#45;&gt;Node11</title>
<path fill="none" stroke="midnightblue" d="M347.54,-107.18C364.1,-97.24 385.92,-84.15 400.08,-75.65"/>
<polygon fill="midnightblue" stroke="midnightblue" points="345.73,-104.18 338.96,-112.32 349.34,-110.18 345.73,-104.18"/>
</g>
<!-- Node9 -->
<g id="node10" class="node">
<title>Node9</title>
<g id="a_node10"><a xlink:href="../../d5/dfd/classnap_1_1_pointer_press_event.html" target="_top" xlink:title="PointerPressEvent">
<polygon fill="white" stroke="black" points="194,-0.5 194,-19.5 291,-19.5 291,-0.5 194,-0.5"/>
<text text-anchor="middle" x="242.5" y="-7.5" font-family="Helvetica,sans-Serif" font-size="10.00">PointerPressEvent</text>
</a>
</g>
</g>
<!-- Node8&#45;&gt;Node9 -->
<g id="edge9" class="edge">
<title>Node8&#45;&gt;Node9</title>
<path fill="none" stroke="midnightblue" d="M285.32,-49.54C274.62,-39.91 261.24,-27.87 252.32,-19.83"/>
<polygon fill="midnightblue" stroke="midnightblue" points="283.09,-52.24 292.86,-56.32 287.77,-47.03 283.09,-52.24"/>
</g>
<!-- Node10 -->
<g id="node11" class="node">
<title>Node10</title>
<g id="a_node11"><a xlink:href="../../de/d98/classnap_1_1_pointer_release_event.html" target="_top" xlink:title="PointerReleaseEvent">
<polygon fill="white" stroke="black" points="309,-0.5 309,-19.5 416,-19.5 416,-0.5 309,-0.5"/>
<text text-anchor="middle" x="362.5" y="-7.5" font-family="Helvetica,sans-Serif" font-size="10.00">PointerReleaseEvent</text>
</a>
</g>
</g>
<!-- Node8&#45;&gt;Node10 -->
<g id="edge10" class="edge">
<title>Node8&#45;&gt;Node10</title>
<path fill="none" stroke="midnightblue" d="M319.68,-49.54C330.38,-39.91 343.76,-27.87 352.68,-19.83"/>
<polygon fill="midnightblue" stroke="midnightblue" points="317.23,-47.03 312.14,-56.32 321.91,-52.24 317.23,-47.03"/>
</g>
</g>
</svg>
