<?xml version="1.0" encoding="UTF-8" standalone="no"?>
<!DOCTYPE svg PUBLIC "-//W3C//DTD SVG 1.1//EN"
 "http://www.w3.org/Graphics/SVG/1.1/DTD/svg11.dtd">
<!-- Generated by graphviz version 2.43.0 (0)
 -->
<!-- Title: Hexagon Pages: 1 -->
<svg width="70pt" height="252pt"
 viewBox="0.00 0.00 70.00 252.00" xmlns="http://www.w3.org/2000/svg" xmlns:xlink="http://www.w3.org/1999/xlink">
<g id="graph0" class="graph" transform="scale(1 1) rotate(0) translate(4 248)">
<title>Hexagon</title>
<polygon fill="white" stroke="transparent" points="-4,4 -4,-248 66,-248 66,4 -4,4"/>
<!-- Node1 -->
<g id="node1" class="node">
<title>Node1</title>
<g id="a_node1"><a xlink:title=" ">
<polygon fill="#bfbfbf" stroke="black" points="1,-0.5 1,-19.5 61,-19.5 61,-0.5 1,-0.5"/>
<text text-anchor="middle" x="31" y="-7.5" font-family="Helvetica,sans-Serif" font-size="10.00">Hexagon</text>
</a>
</g>
</g>
<!-- Node2 -->
<g id="node2" class="node">
<title>Node2</title>
<g id="a_node2"><a xlink:href="../../db/d34/classnap_1_1_poly_line.html" target="_top" xlink:title=" ">
<polygon fill="white" stroke="black" points="2,-56.5 2,-75.5 60,-75.5 60,-56.5 2,-56.5"/>
<text text-anchor="middle" x="31" y="-63.5" font-family="Helvetica,sans-Serif" font-size="10.00">PolyLine</text>
</a>
</g>
</g>
<!-- Node2&#45;&gt;Node1 -->
<g id="edge1" class="edge">
<title>Node2&#45;&gt;Node1</title>
<path fill="none" stroke="midnightblue" d="M31,-45.8C31,-36.91 31,-26.78 31,-19.75"/>
<polygon fill="midnightblue" stroke="midnightblue" points="27.5,-46.08 31,-56.08 34.5,-46.08 27.5,-46.08"/>
</g>
<!-- Node3 -->
<g id="node3" class="node">
<title>Node3</title>
<g id="a_node3"><a xlink:href="../../dd/dac/classnap_1_1_i_mesh.html" target="_top" xlink:title=" ">
<polygon fill="white" stroke="black" points="8,-112.5 8,-131.5 54,-131.5 54,-112.5 8,-112.5"/>
<text text-anchor="middle" x="31" y="-119.5" font-family="Helvetica,sans-Serif" font-size="10.00">IMesh</text>
</a>
</g>
</g>
<!-- Node3&#45;&gt;Node2 -->
<g id="edge2" class="edge">
<title>Node3&#45;&gt;Node2</title>
<path fill="none" stroke="midnightblue" d="M31,-101.8C31,-92.91 31,-82.78 31,-75.75"/>
<polygon fill="midnightblue" stroke="midnightblue" points="27.5,-102.08 31,-112.08 34.5,-102.08 27.5,-102.08"/>
</g>
<!-- Node4 -->
<g id="node4" class="node">
<title>Node4</title>
<g id="a_node4"><a xlink:href="../../d9/dea/classnap_1_1_resource.html" target="_top" xlink:title=" ">
<polygon fill="white" stroke="black" points="0,-168.5 0,-187.5 62,-187.5 62,-168.5 0,-168.5"/>
<text text-anchor="middle" x="31" y="-175.5" font-family="Helvetica,sans-Serif" font-size="10.00">Resource</text>
</a>
</g>
</g>
<!-- Node4&#45;&gt;Node3 -->
<g id="edge3" class="edge">
<title>Node4&#45;&gt;Node3</title>
<path fill="none" stroke="midnightblue" d="M31,-157.8C31,-148.91 31,-138.78 31,-131.75"/>
<polygon fill="midnightblue" stroke="midnightblue" points="27.5,-158.08 31,-168.08 34.5,-158.08 27.5,-158.08"/>
</g>
<!-- Node5 -->
<g id="node5" class="node">
<title>Node5</title>
<g id="a_node5"><a xlink:href="../../de/d01/classnap_1_1rtti_1_1_object.html" target="_top" xlink:title=" ">
<polygon fill="white" stroke="black" points="7,-224.5 7,-243.5 55,-243.5 55,-224.5 7,-224.5"/>
<text text-anchor="middle" x="31" y="-231.5" font-family="Helvetica,sans-Serif" font-size="10.00">Object</text>
</a>
</g>
</g>
<!-- Node5&#45;&gt;Node4 -->
<g id="edge4" class="edge">
<title>Node5&#45;&gt;Node4</title>
<path fill="none" stroke="midnightblue" d="M31,-213.8C31,-204.91 31,-194.78 31,-187.75"/>
<polygon fill="midnightblue" stroke="midnightblue" points="27.5,-214.08 31,-224.08 34.5,-214.08 27.5,-214.08"/>
</g>
</g>
</svg>
