<?xml version="1.0" encoding="UTF-8" standalone="no"?>
<!DOCTYPE svg PUBLIC "-//W3C//DTD SVG 1.1//EN"
 "http://www.w3.org/Graphics/SVG/1.1/DTD/svg11.dtd">
<!-- Generated by graphviz version 3.0.0 (20220226.1711)
 -->
<!-- Title: ObjectPtrBase Pages: 1 -->
<svg width="297pt" height="2032pt"
 viewBox="0.00 0.00 297.00 2031.50" xmlns="http://www.w3.org/2000/svg" xmlns:xlink="http://www.w3.org/1999/xlink">
<g id="graph0" class="graph" transform="scale(1 1) rotate(0) translate(4 2027.5)">
<title>ObjectPtrBase</title>
<polygon fill="white" stroke="transparent" points="-4,4 -4,-2027.5 293,-2027.5 293,4 -4,4"/>
<!-- Node0 -->
<g id="node1" class="node">
<title>Node0</title>
<polygon fill="#bfbfbf" stroke="black" points="0,-1023 0,-1042 80,-1042 80,-1023 0,-1023"/>
<text text-anchor="middle" x="40" y="-1030" font-family="Helvetica,sans-Serif" font-size="10.00">ObjectPtrBase</text>
</g>
<!-- Node1 -->
<g id="node2" class="node">
<title>Node1</title>
<g id="a_node2"><a xlink:href="../../dd/d7c/classnap_1_1rtti_1_1_object_ptr.html" target="_top" xlink:title="ObjectPtr\&lt; T \&gt;">
<polygon fill="white" stroke="black" points="162,-2004 162,-2023 243,-2023 243,-2004 162,-2004"/>
<text text-anchor="middle" x="202.5" y="-2011" font-family="Helvetica,sans-Serif" font-size="10.00">ObjectPtr&lt; T &gt;</text>
</a>
</g>
</g>
<!-- Node0&#45;&gt;Node1 -->
<g id="edge1" class="edge">
<title>Node0&#45;&gt;Node1</title>
<path fill="none" stroke="midnightblue" d="M41.15,-1052.26C42.36,-1183.02 51.97,-1920.75 116,-1994.5 127.26,-2007.47 145.24,-2012.7 161.81,-2014.48"/>
<polygon fill="midnightblue" stroke="midnightblue" points="44.65,-1052.08 41.07,-1042.11 37.65,-1052.14 44.65,-1052.08"/>
</g>
<!-- Node2 -->
<g id="node3" class="node">
<title>Node2</title>
<g id="a_node3"><a xlink:href="../../dd/d7c/classnap_1_1rtti_1_1_object_ptr.html" target="_top" xlink:title="ObjectPtr\&lt; ComponentType \&gt;">
<polygon fill="white" stroke="black" points="129.5,-1966 129.5,-1985 275.5,-1985 275.5,-1966 129.5,-1966"/>
<text text-anchor="middle" x="202.5" y="-1973" font-family="Helvetica,sans-Serif" font-size="10.00">ObjectPtr&lt; ComponentType &gt;</text>
</a>
</g>
</g>
<!-- Node0&#45;&gt;Node2 -->
<g id="edge2" class="edge">
<title>Node0&#45;&gt;Node2</title>
<path fill="none" stroke="midnightblue" d="M41.22,-1052.26C42.83,-1179.98 54.5,-1885.89 116,-1956.5 119.8,-1960.86 124.35,-1964.34 129.35,-1967.11"/>
<polygon fill="midnightblue" stroke="midnightblue" points="44.72,-1051.98 41.1,-1042.02 37.72,-1052.06 44.72,-1051.98"/>
</g>
<!-- Node3 -->
<g id="node4" class="node">
<title>Node3</title>
<g id="a_node4"><a xlink:href="../../dd/d7c/classnap_1_1rtti_1_1_object_ptr.html" target="_top" xlink:title="ObjectPtr\&lt; nap::audio\l::AudioBufferResource \&gt;">
<polygon fill="white" stroke="black" points="141.5,-1916.5 141.5,-1946.5 263.5,-1946.5 263.5,-1916.5 141.5,-1916.5"/>
<text text-anchor="start" x="149.5" y="-1934.5" font-family="Helvetica,sans-Serif" font-size="10.00">ObjectPtr&lt; nap::audio</text>
<text text-anchor="middle" x="202.5" y="-1923.5" font-family="Helvetica,sans-Serif" font-size="10.00">::AudioBufferResource &gt;</text>
</a>
</g>
</g>
<!-- Node0&#45;&gt;Node3 -->
<g id="edge3" class="edge">
<title>Node0&#45;&gt;Node3</title>
<path fill="none" stroke="midnightblue" d="M41.37,-1052.31C43.83,-1176.01 59.62,-1839.37 116,-1907.5 122.59,-1915.46 131.58,-1920.89 141.27,-1924.58"/>
<polygon fill="midnightblue" stroke="midnightblue" points="44.86,-1051.99 41.17,-1042.06 37.86,-1052.13 44.86,-1051.99"/>
</g>
<!-- Node4 -->
<g id="node5" class="node">
<title>Node4</title>
<g id="a_node5"><a xlink:href="../../dd/d7c/classnap_1_1rtti_1_1_object_ptr.html" target="_top" xlink:title="ObjectPtr\&lt; nap::audio\l::AudioComponentBase \&gt;">
<polygon fill="white" stroke="black" points="138.5,-1867.5 138.5,-1897.5 266.5,-1897.5 266.5,-1867.5 138.5,-1867.5"/>
<text text-anchor="start" x="146.5" y="-1885.5" font-family="Helvetica,sans-Serif" font-size="10.00">ObjectPtr&lt; nap::audio</text>
<text text-anchor="middle" x="202.5" y="-1874.5" font-family="Helvetica,sans-Serif" font-size="10.00">::AudioComponentBase &gt;</text>
</a>
</g>
</g>
<!-- Node0&#45;&gt;Node4 -->
<g id="edge4" class="edge">
<title>Node0&#45;&gt;Node4</title>
<path fill="none" stroke="midnightblue" d="M41.48,-1052.27C44.58,-1171.64 63.16,-1793.28 116,-1857.5 121.9,-1864.67 129.72,-1869.85 138.26,-1873.58"/>
<polygon fill="midnightblue" stroke="midnightblue" points="44.98,-1051.96 41.23,-1042.05 37.98,-1052.14 44.98,-1051.96"/>
</g>
<!-- Node5 -->
<g id="node6" class="node">
<title>Node5</title>
<g id="a_node6"><a xlink:href="../../dd/d7c/classnap_1_1rtti_1_1_object_ptr.html" target="_top" xlink:title="ObjectPtr\&lt; nap::Component \&gt;">
<polygon fill="white" stroke="black" points="129,-1829 129,-1848 276,-1848 276,-1829 129,-1829"/>
<text text-anchor="middle" x="202.5" y="-1836" font-family="Helvetica,sans-Serif" font-size="10.00">ObjectPtr&lt; nap::Component &gt;</text>
</a>
</g>
</g>
<!-- Node0&#45;&gt;Node5 -->
<g id="edge5" class="edge">
<title>Node0&#45;&gt;Node5</title>
<path fill="none" stroke="midnightblue" d="M41.52,-1052.48C44.75,-1169.25 63.62,-1760.2 116,-1819.5 119.62,-1823.6 123.92,-1826.93 128.63,-1829.61"/>
<polygon fill="midnightblue" stroke="midnightblue" points="45.01,-1052.07 41.24,-1042.17 38.01,-1052.26 45.01,-1052.07"/>
</g>
<!-- Node6 -->
<g id="node7" class="node">
<title>Node6</title>
<g id="a_node7"><a xlink:href="../../dd/d7c/classnap_1_1rtti_1_1_object_ptr.html" target="_top" xlink:title="ObjectPtr\&lt; nap::CVAdapter \&gt;">
<polygon fill="white" stroke="black" points="130,-1791 130,-1810 275,-1810 275,-1791 130,-1791"/>
<text text-anchor="middle" x="202.5" y="-1798" font-family="Helvetica,sans-Serif" font-size="10.00">ObjectPtr&lt; nap::CVAdapter &gt;</text>
</a>
</g>
</g>
<!-- Node0&#45;&gt;Node6 -->
<g id="edge6" class="edge">
<title>Node0&#45;&gt;Node6</title>
<path fill="none" stroke="midnightblue" d="M41.62,-1052.23C45.31,-1165.02 66.09,-1725.28 116,-1781.5 119.94,-1785.94 124.66,-1789.46 129.83,-1792.25"/>
<polygon fill="midnightblue" stroke="midnightblue" points="45.11,-1052.11 41.29,-1042.23 38.12,-1052.33 45.11,-1052.11"/>
</g>
<!-- Node7 -->
<g id="node8" class="node">
<title>Node7</title>
<g id="a_node8"><a xlink:href="../../dd/d7c/classnap_1_1rtti_1_1_object_ptr.html" target="_top" xlink:title="ObjectPtr\&lt; nap::CVCapture\lComponent \&gt;">
<polygon fill="white" stroke="black" points="134.5,-1741.5 134.5,-1771.5 270.5,-1771.5 270.5,-1741.5 134.5,-1741.5"/>
<text text-anchor="start" x="142.5" y="-1759.5" font-family="Helvetica,sans-Serif" font-size="10.00">ObjectPtr&lt; nap::CVCapture</text>
<text text-anchor="middle" x="202.5" y="-1748.5" font-family="Helvetica,sans-Serif" font-size="10.00">Component &gt;</text>
</a>
</g>
</g>
<!-- Node0&#45;&gt;Node7 -->
<g id="edge7" class="edge">
<title>Node0&#45;&gt;Node7</title>
<path fill="none" stroke="midnightblue" d="M41.81,-1052.22C46.42,-1160.42 70.79,-1679.03 116,-1732.5 120.98,-1738.39 127.27,-1742.89 134.18,-1746.32"/>
<polygon fill="midnightblue" stroke="midnightblue" points="45.3,-1051.91 41.38,-1042.07 38.31,-1052.21 45.3,-1051.91"/>
</g>
<!-- Node8 -->
<g id="node9" class="node">
<title>Node8</title>
<g id="a_node9"><a xlink:href="../../dd/d7c/classnap_1_1rtti_1_1_object_ptr.html" target="_top" xlink:title="ObjectPtr\&lt; nap::CVCapture\lDevice \&gt;">
<polygon fill="white" stroke="black" points="134.5,-1692.5 134.5,-1722.5 270.5,-1722.5 270.5,-1692.5 134.5,-1692.5"/>
<text text-anchor="start" x="142.5" y="-1710.5" font-family="Helvetica,sans-Serif" font-size="10.00">ObjectPtr&lt; nap::CVCapture</text>
<text text-anchor="middle" x="202.5" y="-1699.5" font-family="Helvetica,sans-Serif" font-size="10.00">Device &gt;</text>
</a>
</g>
</g>
<!-- Node0&#45;&gt;Node8 -->
<g id="edge8" class="edge">
<title>Node0&#45;&gt;Node8</title>
<path fill="none" stroke="midnightblue" d="M42,-1052.41C47.39,-1156.27 74.27,-1633.01 116,-1682.5 120.99,-1688.41 127.28,-1692.97 134.19,-1696.47"/>
<polygon fill="midnightblue" stroke="midnightblue" points="45.49,-1052.15 41.49,-1042.35 38.5,-1052.51 45.49,-1052.15"/>
</g>
<!-- Node9 -->
<g id="node10" class="node">
<title>Node9</title>
<g id="a_node10"><a xlink:href="../../dd/d7c/classnap_1_1rtti_1_1_object_ptr.html" target="_top" xlink:title="ObjectPtr\&lt; nap::Entity \&gt;">
<polygon fill="white" stroke="black" points="141,-1654 141,-1673 264,-1673 264,-1654 141,-1654"/>
<text text-anchor="middle" x="202.5" y="-1661" font-family="Helvetica,sans-Serif" font-size="10.00">ObjectPtr&lt; nap::Entity &gt;</text>
</a>
</g>
</g>
<!-- Node0&#45;&gt;Node9 -->
<g id="edge9" class="edge">
<title>Node0&#45;&gt;Node9</title>
<path fill="none" stroke="midnightblue" d="M42.1,-1052.53C47.78,-1153.07 75.17,-1599.52 116,-1644.5 122.64,-1651.82 131.42,-1656.65 140.83,-1659.77"/>
<polygon fill="midnightblue" stroke="midnightblue" points="45.58,-1052.06 41.52,-1042.27 38.59,-1052.45 45.58,-1052.06"/>
</g>
<!-- Node10 -->
<g id="node11" class="node">
<title>Node10</title>
<g id="a_node11"><a xlink:href="../../dd/d7c/classnap_1_1rtti_1_1_object_ptr.html" target="_top" xlink:title="ObjectPtr\&lt; nap::EntityInstance \&gt;">
<polygon fill="white" stroke="black" points="122.5,-1616 122.5,-1635 282.5,-1635 282.5,-1616 122.5,-1616"/>
<text text-anchor="middle" x="202.5" y="-1623" font-family="Helvetica,sans-Serif" font-size="10.00">ObjectPtr&lt; nap::EntityInstance &gt;</text>
</a>
</g>
</g>
<!-- Node0&#45;&gt;Node10 -->
<g id="edge10" class="edge">
<title>Node0&#45;&gt;Node10</title>
<path fill="none" stroke="midnightblue" d="M40.67,-1052.19C39.58,-1143.3 39.72,-1523.13 116,-1606.5 119.39,-1610.2 123.32,-1613.27 127.61,-1615.79"/>
<polygon fill="midnightblue" stroke="midnightblue" points="44.17,-1052.17 40.81,-1042.13 37.17,-1052.08 44.17,-1052.17"/>
</g>
<!-- Node11 -->
<g id="node12" class="node">
<title>Node11</title>
<g id="a_node12"><a xlink:href="../../dd/d7c/classnap_1_1rtti_1_1_object_ptr.html" target="_top" xlink:title="ObjectPtr\&lt; nap::Font \&gt;">
<polygon fill="white" stroke="black" points="144,-1578 144,-1597 261,-1597 261,-1578 144,-1578"/>
<text text-anchor="middle" x="202.5" y="-1585" font-family="Helvetica,sans-Serif" font-size="10.00">ObjectPtr&lt; nap::Font &gt;</text>
</a>
</g>
</g>
<!-- Node0&#45;&gt;Node11 -->
<g id="edge11" class="edge">
<title>Node0&#45;&gt;Node11</title>
<path fill="none" stroke="midnightblue" d="M40.88,-1052.53C40.75,-1140.47 44.78,-1491.37 116,-1568.5 123.43,-1576.54 133.44,-1581.57 144,-1584.63"/>
<polygon fill="midnightblue" stroke="midnightblue" points="44.38,-1052.34 40.91,-1042.33 37.38,-1052.31 44.38,-1052.34"/>
</g>
<!-- Node12 -->
<g id="node13" class="node">
<title>Node12</title>
<g id="a_node13"><a xlink:href="../../dd/d7c/classnap_1_1rtti_1_1_object_ptr.html" target="_top" xlink:title="ObjectPtr\&lt; nap::GnomonMesh \&gt;">
<polygon fill="white" stroke="black" points="123.5,-1540 123.5,-1559 281.5,-1559 281.5,-1540 123.5,-1540"/>
<text text-anchor="middle" x="202.5" y="-1547" font-family="Helvetica,sans-Serif" font-size="10.00">ObjectPtr&lt; nap::GnomonMesh &gt;</text>
</a>
</g>
</g>
<!-- Node0&#45;&gt;Node12 -->
<g id="edge12" class="edge">
<title>Node0&#45;&gt;Node12</title>
<path fill="none" stroke="midnightblue" d="M41.11,-1052.16C41.97,-1135.6 49.63,-1459.37 116,-1530.5 119.53,-1534.28 123.63,-1537.39 128.08,-1539.94"/>
<polygon fill="midnightblue" stroke="midnightblue" points="44.61,-1052 41.02,-1042.03 37.61,-1052.06 44.61,-1052"/>
</g>
<!-- Node13 -->
<g id="node14" class="node">
<title>Node13</title>
<g id="a_node14"><a xlink:href="../../dd/d7c/classnap_1_1rtti_1_1_object_ptr.html" target="_top" xlink:title="ObjectPtr\&lt; nap::ICalendar \&gt;">
<polygon fill="white" stroke="black" points="133.5,-1502 133.5,-1521 271.5,-1521 271.5,-1502 133.5,-1502"/>
<text text-anchor="middle" x="202.5" y="-1509" font-family="Helvetica,sans-Serif" font-size="10.00">ObjectPtr&lt; nap::ICalendar &gt;</text>
</a>
</g>
</g>
<!-- Node0&#45;&gt;Node13 -->
<g id="edge13" class="edge">
<title>Node0&#45;&gt;Node13</title>
<path fill="none" stroke="midnightblue" d="M41.38,-1052.16C43.31,-1131.57 54.57,-1427.46 116,-1492.5 120.91,-1497.7 126.89,-1501.62 133.4,-1504.57"/>
<polygon fill="midnightblue" stroke="midnightblue" points="44.87,-1051.99 41.15,-1042.07 37.88,-1052.15 44.87,-1051.99"/>
</g>
<!-- Node14 -->
<g id="node15" class="node">
<title>Node14</title>
<g id="a_node15"><a xlink:href="../../dd/d7c/classnap_1_1rtti_1_1_object_ptr.html" target="_top" xlink:title="ObjectPtr\&lt; nap::IMesh \&gt;">
<polygon fill="white" stroke="black" points="140.5,-1464 140.5,-1483 264.5,-1483 264.5,-1464 140.5,-1464"/>
<text text-anchor="middle" x="202.5" y="-1471" font-family="Helvetica,sans-Serif" font-size="10.00">ObjectPtr&lt; nap::IMesh &gt;</text>
</a>
</g>
</g>
<!-- Node0&#45;&gt;Node14 -->
<g id="edge14" class="edge">
<title>Node0&#45;&gt;Node14</title>
<path fill="none" stroke="midnightblue" d="M41.7,-1052.43C44.78,-1128 59.56,-1395.59 116,-1454.5 122.63,-1461.42 131.17,-1466.08 140.29,-1469.18"/>
<polygon fill="midnightblue" stroke="midnightblue" points="45.18,-1051.87 41.3,-1042.01 38.19,-1052.14 45.18,-1051.87"/>
</g>
<!-- Node15 -->
<g id="node16" class="node">
<title>Node15</title>
<g id="a_node16"><a xlink:href="../../dd/d7c/classnap_1_1rtti_1_1_object_ptr.html" target="_top" xlink:title="ObjectPtr\&lt; nap::Instance\lPropertyValue \&gt;">
<polygon fill="white" stroke="black" points="140,-1414.5 140,-1444.5 265,-1444.5 265,-1414.5 140,-1414.5"/>
<text text-anchor="start" x="148" y="-1432.5" font-family="Helvetica,sans-Serif" font-size="10.00">ObjectPtr&lt; nap::Instance</text>
<text text-anchor="middle" x="202.5" y="-1421.5" font-family="Helvetica,sans-Serif" font-size="10.00">PropertyValue &gt;</text>
</a>
</g>
</g>
<!-- Node0&#45;&gt;Node15 -->
<g id="edge15" class="edge">
<title>Node0&#45;&gt;Node15</title>
<path fill="none" stroke="midnightblue" d="M42.33,-1052.18C47.4,-1121.33 67.68,-1351.86 116,-1404.5 122.48,-1411.56 130.84,-1416.67 139.79,-1420.36"/>
<polygon fill="midnightblue" stroke="midnightblue" points="45.82,-1051.91 41.62,-1042.19 38.84,-1052.41 45.82,-1051.91"/>
</g>
<!-- Node16 -->
<g id="node17" class="node">
<title>Node16</title>
<g id="a_node17"><a xlink:href="../../dd/d7c/classnap_1_1rtti_1_1_object_ptr.html" target="_top" xlink:title="ObjectPtr\&lt; nap::Material \&gt;">
<polygon fill="white" stroke="black" points="136.5,-1376 136.5,-1395 268.5,-1395 268.5,-1376 136.5,-1376"/>
<text text-anchor="middle" x="202.5" y="-1383" font-family="Helvetica,sans-Serif" font-size="10.00">ObjectPtr&lt; nap::Material &gt;</text>
</a>
</g>
</g>
<!-- Node0&#45;&gt;Node16 -->
<g id="edge16" class="edge">
<title>Node0&#45;&gt;Node16</title>
<path fill="none" stroke="midnightblue" d="M42.71,-1052.33C48.69,-1117.2 70.86,-1321.46 116,-1366.5 121.7,-1372.19 128.71,-1376.34 136.24,-1379.34"/>
<polygon fill="midnightblue" stroke="midnightblue" points="46.18,-1051.87 41.8,-1042.22 39.21,-1052.49 46.18,-1051.87"/>
</g>
<!-- Node17 -->
<g id="node18" class="node">
<title>Node17</title>
<g id="a_node18"><a xlink:href="../../dd/d7c/classnap_1_1rtti_1_1_object_ptr.html" target="_top" xlink:title="ObjectPtr\&lt; nap::Operational\lCalendar \&gt;">
<polygon fill="white" stroke="black" points="133.5,-1326.5 133.5,-1356.5 271.5,-1356.5 271.5,-1326.5 133.5,-1326.5"/>
<text text-anchor="start" x="141.5" y="-1344.5" font-family="Helvetica,sans-Serif" font-size="10.00">ObjectPtr&lt; nap::Operational</text>
<text text-anchor="middle" x="202.5" y="-1333.5" font-family="Helvetica,sans-Serif" font-size="10.00">Calendar &gt;</text>
</a>
</g>
</g>
<!-- Node0&#45;&gt;Node17 -->
<g id="edge17" class="edge">
<title>Node0&#45;&gt;Node17</title>
<path fill="none" stroke="midnightblue" d="M43.64,-1052.31C51.76,-1110.46 78.16,-1279.03 116,-1317.5 120.97,-1322.56 126.92,-1326.57 133.33,-1329.75"/>
<polygon fill="midnightblue" stroke="midnightblue" points="47.08,-1051.65 42.26,-1042.22 40.14,-1052.6 47.08,-1051.65"/>
</g>
<!-- Node18 -->
<g id="node19" class="node">
<title>Node18</title>
<g id="a_node19"><a xlink:href="../../dd/d7c/classnap_1_1rtti_1_1_object_ptr.html" target="_top" xlink:title="ObjectPtr\&lt; nap::OrthoCamera\lComponent \&gt;">
<polygon fill="white" stroke="black" points="129.5,-1277.5 129.5,-1307.5 275.5,-1307.5 275.5,-1277.5 129.5,-1277.5"/>
<text text-anchor="start" x="137.5" y="-1295.5" font-family="Helvetica,sans-Serif" font-size="10.00">ObjectPtr&lt; nap::OrthoCamera</text>
<text text-anchor="middle" x="202.5" y="-1284.5" font-family="Helvetica,sans-Serif" font-size="10.00">Component &gt;</text>
</a>
</g>
</g>
<!-- Node0&#45;&gt;Node18 -->
<g id="edge18" class="edge">
<title>Node0&#45;&gt;Node18</title>
<path fill="none" stroke="midnightblue" d="M41.38,-1052.36C43.34,-1097.3 54.53,-1207.52 116,-1267.5 119.98,-1271.39 124.54,-1274.68 129.43,-1277.46"/>
<polygon fill="midnightblue" stroke="midnightblue" points="44.87,-1052.07 41.05,-1042.19 37.88,-1052.29 44.87,-1052.07"/>
</g>
<!-- Node19 -->
<g id="node20" class="node">
<title>Node19</title>
<g id="a_node20"><a xlink:href="../../dd/d7c/classnap_1_1rtti_1_1_object_ptr.html" target="_top" xlink:title="ObjectPtr\&lt; nap::Parameter \&gt;">
<polygon fill="white" stroke="black" points="131,-1239 131,-1258 274,-1258 274,-1239 131,-1239"/>
<text text-anchor="middle" x="202.5" y="-1246" font-family="Helvetica,sans-Serif" font-size="10.00">ObjectPtr&lt; nap::Parameter &gt;</text>
</a>
</g>
</g>
<!-- Node0&#45;&gt;Node19 -->
<g id="edge19" class="edge">
<title>Node0&#45;&gt;Node19</title>
<path fill="none" stroke="midnightblue" d="M42.48,-1052.1C46.58,-1091.94 61.71,-1182.57 116,-1229.5 120.37,-1233.28 125.33,-1236.35 130.6,-1238.85"/>
<polygon fill="midnightblue" stroke="midnightblue" points="45.96,-1051.73 41.57,-1042.08 38.99,-1052.36 45.96,-1051.73"/>
</g>
<!-- Node20 -->
<g id="node21" class="node">
<title>Node20</title>
<g id="a_node21"><a xlink:href="../../dd/d7c/classnap_1_1rtti_1_1_object_ptr.html" target="_top" xlink:title="ObjectPtr\&lt; nap::Parameter\lBlendGroup \&gt;">
<polygon fill="white" stroke="black" points="135.5,-1189.5 135.5,-1219.5 269.5,-1219.5 269.5,-1189.5 135.5,-1189.5"/>
<text text-anchor="start" x="143.5" y="-1207.5" font-family="Helvetica,sans-Serif" font-size="10.00">ObjectPtr&lt; nap::Parameter</text>
<text text-anchor="middle" x="202.5" y="-1196.5" font-family="Helvetica,sans-Serif" font-size="10.00">BlendGroup &gt;</text>
</a>
</g>
</g>
<!-- Node0&#45;&gt;Node20 -->
<g id="edge20" class="edge">
<title>Node0&#45;&gt;Node20</title>
<path fill="none" stroke="midnightblue" d="M45.46,-1051.98C53.75,-1083.73 74.59,-1146.48 116,-1180.5 121.72,-1185.2 128.3,-1188.98 135.22,-1192.02"/>
<polygon fill="midnightblue" stroke="midnightblue" points="48.83,-1051.02 43.04,-1042.15 42.03,-1052.69 48.83,-1051.02"/>
</g>
<!-- Node21 -->
<g id="node22" class="node">
<title>Node21</title>
<g id="a_node22"><a xlink:href="../../dd/d7c/classnap_1_1rtti_1_1_object_ptr.html" target="_top" xlink:title="ObjectPtr\&lt; nap::Parameter\lButton \&gt;">
<polygon fill="white" stroke="black" points="135.5,-1140.5 135.5,-1170.5 269.5,-1170.5 269.5,-1140.5 135.5,-1140.5"/>
<text text-anchor="start" x="143.5" y="-1158.5" font-family="Helvetica,sans-Serif" font-size="10.00">ObjectPtr&lt; nap::Parameter</text>
<text text-anchor="middle" x="202.5" y="-1147.5" font-family="Helvetica,sans-Serif" font-size="10.00">Button &gt;</text>
</a>
</g>
</g>
<!-- Node0&#45;&gt;Node21 -->
<g id="edge21" class="edge">
<title>Node0&#45;&gt;Node21</title>
<path fill="none" stroke="midnightblue" d="M50.27,-1051.19C62.35,-1073.61 85.56,-1110.76 116,-1131.5 121.86,-1135.49 128.38,-1138.83 135.12,-1141.61"/>
<polygon fill="midnightblue" stroke="midnightblue" points="53.23,-1049.3 45.52,-1042.04 47.02,-1052.53 53.23,-1049.3"/>
</g>
<!-- Node22 -->
<g id="node23" class="node">
<title>Node22</title>
<g id="a_node23"><a xlink:href="../../dd/d7c/classnap_1_1rtti_1_1_object_ptr.html" target="_top" xlink:title="ObjectPtr\&lt; nap::Parameter\lGroup \&gt;">
<polygon fill="white" stroke="black" points="135.5,-1091.5 135.5,-1121.5 269.5,-1121.5 269.5,-1091.5 135.5,-1091.5"/>
<text text-anchor="start" x="143.5" y="-1109.5" font-family="Helvetica,sans-Serif" font-size="10.00">ObjectPtr&lt; nap::Parameter</text>
<text text-anchor="middle" x="202.5" y="-1098.5" font-family="Helvetica,sans-Serif" font-size="10.00">Group &gt;</text>
</a>
</g>
</g>
<!-- Node0&#45;&gt;Node22 -->
<g id="edge22" class="edge">
<title>Node0&#45;&gt;Node22</title>
<path fill="none" stroke="midnightblue" d="M61.25,-1048.56C75.79,-1059.43 96.22,-1073.41 116,-1082.5 123.28,-1085.85 131.14,-1088.83 139.03,-1091.45"/>
<polygon fill="midnightblue" stroke="midnightblue" points="63.1,-1045.57 53.03,-1042.27 58.84,-1051.13 63.1,-1045.57"/>
</g>
<!-- Node23 -->
<g id="node24" class="node">
<title>Node23</title>
<g id="a_node24"><a xlink:href="../../dd/d7c/classnap_1_1rtti_1_1_object_ptr.html" target="_top" xlink:title="ObjectPtr\&lt; nap::Parameter\lNumeric \&gt;">
<polygon fill="white" stroke="black" points="135.5,-1042.5 135.5,-1072.5 269.5,-1072.5 269.5,-1042.5 135.5,-1042.5"/>
<text text-anchor="start" x="143.5" y="-1060.5" font-family="Helvetica,sans-Serif" font-size="10.00">ObjectPtr&lt; nap::Parameter</text>
<text text-anchor="middle" x="202.5" y="-1049.5" font-family="Helvetica,sans-Serif" font-size="10.00">Numeric &gt;</text>
</a>
</g>
</g>
<!-- Node0&#45;&gt;Node23 -->
<g id="edge23" class="edge">
<title>Node0&#45;&gt;Node23</title>
<path fill="none" stroke="midnightblue" d="M90.33,-1040.18C104.57,-1042.4 120.35,-1044.86 135.44,-1047.21"/>
<polygon fill="midnightblue" stroke="midnightblue" points="90.68,-1036.7 80.26,-1038.62 89.6,-1043.61 90.68,-1036.7"/>
</g>
<!-- Node24 -->
<g id="node25" class="node">
<title>Node24</title>
<g id="a_node25"><a xlink:href="../../dd/d7c/classnap_1_1rtti_1_1_object_ptr.html" target="_top" xlink:title="ObjectPtr\&lt; nap::Parameter\lNumeric\&lt; T \&gt; \&gt;">
<polygon fill="white" stroke="black" points="135.5,-993.5 135.5,-1023.5 269.5,-1023.5 269.5,-993.5 135.5,-993.5"/>
<text text-anchor="start" x="143.5" y="-1011.5" font-family="Helvetica,sans-Serif" font-size="10.00">ObjectPtr&lt; nap::Parameter</text>
<text text-anchor="middle" x="202.5" y="-1000.5" font-family="Helvetica,sans-Serif" font-size="10.00">Numeric&lt; T &gt; &gt;</text>
</a>
</g>
</g>
<!-- Node0&#45;&gt;Node24 -->
<g id="edge24" class="edge">
<title>Node0&#45;&gt;Node24</title>
<path fill="none" stroke="midnightblue" d="M90.33,-1025.12C104.57,-1022.99 120.35,-1020.63 135.44,-1018.38"/>
<polygon fill="midnightblue" stroke="midnightblue" points="89.64,-1021.69 80.26,-1026.63 90.67,-1028.61 89.64,-1021.69"/>
</g>
<!-- Node25 -->
<g id="node26" class="node">
<title>Node25</title>
<polygon fill="white" stroke="#bfbfbf" points="135.5,-944.5 135.5,-974.5 269.5,-974.5 269.5,-944.5 135.5,-944.5"/>
<text text-anchor="start" x="143.5" y="-962.5" font-family="Helvetica,sans-Serif" font-size="10.00">ObjectPtr&lt; nap::Parameter</text>
<text text-anchor="middle" x="202.5" y="-951.5" font-family="Helvetica,sans-Serif" font-size="10.00">Simple&lt; std::string &gt; &gt;</text>
</g>
<!-- Node0&#45;&gt;Node25 -->
<g id="edge25" class="edge">
<title>Node0&#45;&gt;Node25</title>
<path fill="none" stroke="midnightblue" d="M61.91,-1016.82C76.46,-1006.49 96.66,-993.3 116,-984.5 124.16,-980.79 133.02,-977.47 141.83,-974.57"/>
<polygon fill="midnightblue" stroke="midnightblue" points="59.67,-1014.11 53.63,-1022.81 63.78,-1019.78 59.67,-1014.11"/>
</g>
<!-- Node26 -->
<g id="node27" class="node">
<title>Node26</title>
<g id="a_node27"><a xlink:href="../../dd/d7c/classnap_1_1rtti_1_1_object_ptr.html" target="_top" xlink:title="ObjectPtr\&lt; nap::Parameter\lSimple\&lt; T \&gt; \&gt;">
<polygon fill="white" stroke="black" points="135.5,-895.5 135.5,-925.5 269.5,-925.5 269.5,-895.5 135.5,-895.5"/>
<text text-anchor="start" x="143.5" y="-913.5" font-family="Helvetica,sans-Serif" font-size="10.00">ObjectPtr&lt; nap::Parameter</text>
<text text-anchor="middle" x="202.5" y="-902.5" font-family="Helvetica,sans-Serif" font-size="10.00">Simple&lt; T &gt; &gt;</text>
</a>
</g>
</g>
<!-- Node0&#45;&gt;Node26 -->
<g id="edge26" class="edge">
<title>Node0&#45;&gt;Node26</title>
<path fill="none" stroke="midnightblue" d="M50.59,-1013.91C62.85,-991.96 86.11,-955.89 116,-935.5 121.88,-931.49 128.4,-928.12 135.15,-925.28"/>
<polygon fill="midnightblue" stroke="midnightblue" points="47.41,-1012.42 45.75,-1022.89 53.57,-1015.75 47.41,-1012.42"/>
</g>
<!-- Node27 -->
<g id="node28" class="node">
<title>Node27</title>
<g id="a_node28"><a xlink:href="../../dd/d7c/classnap_1_1rtti_1_1_object_ptr.html" target="_top" xlink:title="ObjectPtr\&lt; nap::Parameter\lVec\&lt; T \&gt; \&gt;">
<polygon fill="white" stroke="black" points="135.5,-846.5 135.5,-876.5 269.5,-876.5 269.5,-846.5 135.5,-846.5"/>
<text text-anchor="start" x="143.5" y="-864.5" font-family="Helvetica,sans-Serif" font-size="10.00">ObjectPtr&lt; nap::Parameter</text>
<text text-anchor="middle" x="202.5" y="-853.5" font-family="Helvetica,sans-Serif" font-size="10.00">Vec&lt; T &gt; &gt;</text>
</a>
</g>
</g>
<!-- Node0&#45;&gt;Node27 -->
<g id="edge27" class="edge">
<title>Node0&#45;&gt;Node27</title>
<path fill="none" stroke="midnightblue" d="M45.7,-1012.87C54.25,-981.48 75.32,-920.1 116,-886.5 121.72,-881.77 128.31,-877.94 135.23,-874.83"/>
<polygon fill="midnightblue" stroke="midnightblue" points="42.3,-1012.07 43.19,-1022.63 49.07,-1013.82 42.3,-1012.07"/>
</g>
<!-- Node28 -->
<g id="node29" class="node">
<title>Node28</title>
<g id="a_node29"><a xlink:href="../../dd/d7c/classnap_1_1rtti_1_1_object_ptr.html" target="_top" xlink:title="ObjectPtr\&lt; nap::PerspCamera\lComponent \&gt;">
<polygon fill="white" stroke="black" points="128.5,-797.5 128.5,-827.5 276.5,-827.5 276.5,-797.5 128.5,-797.5"/>
<text text-anchor="start" x="136.5" y="-815.5" font-family="Helvetica,sans-Serif" font-size="10.00">ObjectPtr&lt; nap::PerspCamera</text>
<text text-anchor="middle" x="202.5" y="-804.5" font-family="Helvetica,sans-Serif" font-size="10.00">Component &gt;</text>
</a>
</g>
</g>
<!-- Node0&#45;&gt;Node28 -->
<g id="edge28" class="edge">
<title>Node0&#45;&gt;Node28</title>
<path fill="none" stroke="midnightblue" d="M42.9,-1012.58C47.72,-973.27 64.02,-885.35 116,-837.5 120.21,-833.62 124.99,-830.35 130.08,-827.58"/>
<polygon fill="midnightblue" stroke="midnightblue" points="39.4,-1012.4 41.78,-1022.72 46.36,-1013.16 39.4,-1012.4"/>
</g>
<!-- Node29 -->
<g id="node30" class="node">
<title>Node29</title>
<g id="a_node30"><a xlink:href="../../dd/d7c/classnap_1_1rtti_1_1_object_ptr.html" target="_top" xlink:title="ObjectPtr\&lt; nap::PortalWeb\lSocketServer \&gt;">
<polygon fill="white" stroke="black" points="135.5,-748.5 135.5,-778.5 269.5,-778.5 269.5,-748.5 135.5,-748.5"/>
<text text-anchor="start" x="143.5" y="-766.5" font-family="Helvetica,sans-Serif" font-size="10.00">ObjectPtr&lt; nap::PortalWeb</text>
<text text-anchor="middle" x="202.5" y="-755.5" font-family="Helvetica,sans-Serif" font-size="10.00">SocketServer &gt;</text>
</a>
</g>
</g>
<!-- Node0&#45;&gt;Node29 -->
<g id="edge29" class="edge">
<title>Node0&#45;&gt;Node29</title>
<path fill="none" stroke="midnightblue" d="M41.1,-1012.83C42.43,-966.81 52.3,-851.33 116,-788.5 121.51,-783.07 128.12,-778.81 135.2,-775.46"/>
<polygon fill="midnightblue" stroke="midnightblue" points="37.6,-1012.89 40.92,-1022.95 44.6,-1013.02 37.6,-1012.89"/>
</g>
<!-- Node30 -->
<g id="node31" class="node">
<title>Node30</title>
<g id="a_node31"><a xlink:href="../../dd/d7c/classnap_1_1rtti_1_1_object_ptr.html" target="_top" xlink:title="ObjectPtr\&lt; nap::PythonScript \&gt;">
<polygon fill="white" stroke="black" points="125.5,-710 125.5,-729 279.5,-729 279.5,-710 125.5,-710"/>
<text text-anchor="middle" x="202.5" y="-717" font-family="Helvetica,sans-Serif" font-size="10.00">ObjectPtr&lt; nap::PythonScript &gt;</text>
</a>
</g>
</g>
<!-- Node0&#45;&gt;Node30 -->
<g id="edge30" class="edge">
<title>Node0&#45;&gt;Node30</title>
<path fill="none" stroke="midnightblue" d="M43.38,-1012.83C50.93,-953.57 76.26,-778.42 116,-739.5 120.36,-735.23 125.44,-731.81 130.91,-729.08"/>
<polygon fill="midnightblue" stroke="midnightblue" points="39.9,-1012.42 42.14,-1022.78 46.85,-1013.29 39.9,-1012.42"/>
</g>
<!-- Node31 -->
<g id="node32" class="node">
<title>Node31</title>
<g id="a_node32"><a xlink:href="../../dd/d7c/classnap_1_1rtti_1_1_object_ptr.html" target="_top" xlink:title="ObjectPtr\&lt; nap::RenderTexture2D \&gt;">
<polygon fill="white" stroke="black" points="116,-672 116,-691 289,-691 289,-672 116,-672"/>
<text text-anchor="middle" x="202.5" y="-679" font-family="Helvetica,sans-Serif" font-size="10.00">ObjectPtr&lt; nap::RenderTexture2D &gt;</text>
</a>
</g>
</g>
<!-- Node0&#45;&gt;Node31 -->
<g id="edge31" class="edge">
<title>Node0&#45;&gt;Node31</title>
<path fill="none" stroke="midnightblue" d="M42.73,-1012.78C48.77,-948.3 71.08,-745.26 116,-700.5 119.77,-696.74 124.11,-693.66 128.79,-691.13"/>
<polygon fill="midnightblue" stroke="midnightblue" points="39.23,-1012.56 41.81,-1022.84 46.2,-1013.19 39.23,-1012.56"/>
</g>
<!-- Node32 -->
<g id="node33" class="node">
<title>Node32</title>
<g id="a_node33"><a xlink:href="../../dd/d7c/classnap_1_1rtti_1_1_object_ptr.html" target="_top" xlink:title="ObjectPtr\&lt; nap::RenderWindow \&gt;">
<polygon fill="white" stroke="black" points="121,-634 121,-653 284,-653 284,-634 121,-634"/>
<text text-anchor="middle" x="202.5" y="-641" font-family="Helvetica,sans-Serif" font-size="10.00">ObjectPtr&lt; nap::RenderWindow &gt;</text>
</a>
</g>
</g>
<!-- Node0&#45;&gt;Node32 -->
<g id="edge32" class="edge">
<title>Node0&#45;&gt;Node32</title>
<path fill="none" stroke="midnightblue" d="M42.23,-1012.82C46.95,-943.65 66.2,-713.23 116,-662.5 119.73,-658.7 124.03,-655.59 128.69,-653.04"/>
<polygon fill="midnightblue" stroke="midnightblue" points="38.73,-1012.6 41.57,-1022.81 45.72,-1013.06 38.73,-1012.6"/>
</g>
<!-- Node33 -->
<g id="node34" class="node">
<title>Node33</title>
<g id="a_node34"><a xlink:href="../../dd/d7c/classnap_1_1rtti_1_1_object_ptr.html" target="_top" xlink:title="ObjectPtr\&lt; nap::Sequence\lEditor \&gt;">
<polygon fill="white" stroke="black" points="136.5,-584.5 136.5,-614.5 268.5,-614.5 268.5,-584.5 136.5,-584.5"/>
<text text-anchor="start" x="144.5" y="-602.5" font-family="Helvetica,sans-Serif" font-size="10.00">ObjectPtr&lt; nap::Sequence</text>
<text text-anchor="middle" x="202.5" y="-591.5" font-family="Helvetica,sans-Serif" font-size="10.00">Editor &gt;</text>
</a>
</g>
</g>
<!-- Node0&#45;&gt;Node33 -->
<g id="edge33" class="edge">
<title>Node0&#45;&gt;Node33</title>
<path fill="none" stroke="midnightblue" d="M41.95,-1012.86C45.87,-939.53 63.22,-683 116,-624.5 121.59,-618.3 128.63,-613.6 136.26,-610.05"/>
<polygon fill="midnightblue" stroke="midnightblue" points="38.44,-1012.83 41.43,-1023 45.44,-1013.19 38.44,-1012.83"/>
</g>
<!-- Node34 -->
<g id="node35" class="node">
<title>Node34</title>
<g id="a_node35"><a xlink:href="../../dd/d7c/classnap_1_1rtti_1_1_object_ptr.html" target="_top" xlink:title="ObjectPtr\&lt; nap::Sequence\lPlayer \&gt;">
<polygon fill="white" stroke="black" points="136.5,-535.5 136.5,-565.5 268.5,-565.5 268.5,-535.5 136.5,-535.5"/>
<text text-anchor="start" x="144.5" y="-553.5" font-family="Helvetica,sans-Serif" font-size="10.00">ObjectPtr&lt; nap::Sequence</text>
<text text-anchor="middle" x="202.5" y="-542.5" font-family="Helvetica,sans-Serif" font-size="10.00">Player &gt;</text>
</a>
</g>
</g>
<!-- Node0&#45;&gt;Node34 -->
<g id="edge34" class="edge">
<title>Node0&#45;&gt;Node34</title>
<path fill="none" stroke="midnightblue" d="M41.53,-1012.56C44.05,-933.34 57.21,-641.92 116,-575.5 121.53,-569.25 128.54,-564.52 136.15,-560.95"/>
<polygon fill="midnightblue" stroke="midnightblue" points="38.03,-1012.56 41.23,-1022.66 45.03,-1012.77 38.03,-1012.56"/>
</g>
<!-- Node35 -->
<g id="node36" class="node">
<title>Node35</title>
<g id="a_node36"><a xlink:href="../../dd/d7c/classnap_1_1rtti_1_1_object_ptr.html" target="_top" xlink:title="ObjectPtr\&lt; nap::Sequence\lPlayerAudioOutput \&gt;">
<polygon fill="white" stroke="black" points="136.5,-486.5 136.5,-516.5 268.5,-516.5 268.5,-486.5 136.5,-486.5"/>
<text text-anchor="start" x="144.5" y="-504.5" font-family="Helvetica,sans-Serif" font-size="10.00">ObjectPtr&lt; nap::Sequence</text>
<text text-anchor="middle" x="202.5" y="-493.5" font-family="Helvetica,sans-Serif" font-size="10.00">PlayerAudioOutput &gt;</text>
</a>
</g>
</g>
<!-- Node0&#45;&gt;Node35 -->
<g id="edge35" class="edge">
<title>Node0&#45;&gt;Node35</title>
<path fill="none" stroke="midnightblue" d="M41.18,-1012.64C42.36,-928.33 51.09,-601 116,-526.5 121.59,-520.09 128.72,-515.28 136.48,-511.67"/>
<polygon fill="midnightblue" stroke="midnightblue" points="37.68,-1012.83 41.06,-1022.87 44.68,-1012.91 37.68,-1012.83"/>
</g>
<!-- Node36 -->
<g id="node37" class="node">
<title>Node36</title>
<g id="a_node37"><a xlink:href="../../dd/d7c/classnap_1_1rtti_1_1_object_ptr.html" target="_top" xlink:title="ObjectPtr\&lt; nap::Sequence\lPlayerClock \&gt;">
<polygon fill="white" stroke="black" points="136.5,-437.5 136.5,-467.5 268.5,-467.5 268.5,-437.5 136.5,-437.5"/>
<text text-anchor="start" x="144.5" y="-455.5" font-family="Helvetica,sans-Serif" font-size="10.00">ObjectPtr&lt; nap::Sequence</text>
<text text-anchor="middle" x="202.5" y="-444.5" font-family="Helvetica,sans-Serif" font-size="10.00">PlayerClock &gt;</text>
</a>
</g>
</g>
<!-- Node0&#45;&gt;Node36 -->
<g id="edge36" class="edge">
<title>Node0&#45;&gt;Node36</title>
<path fill="none" stroke="midnightblue" d="M40.89,-1012.73C40.82,-923.63 44.93,-560.12 116,-477.5 121.55,-471.05 128.66,-466.22 136.4,-462.61"/>
<polygon fill="midnightblue" stroke="midnightblue" points="37.39,-1012.83 40.92,-1022.82 44.39,-1012.81 37.39,-1012.83"/>
</g>
<!-- Node37 -->
<g id="node38" class="node">
<title>Node37</title>
<g id="a_node38"><a xlink:href="../../dd/d7c/classnap_1_1rtti_1_1_object_ptr.html" target="_top" xlink:title="ObjectPtr\&lt; nap::Shader \&gt;">
<polygon fill="white" stroke="black" points="138.5,-399 138.5,-418 266.5,-418 266.5,-399 138.5,-399"/>
<text text-anchor="middle" x="202.5" y="-406" font-family="Helvetica,sans-Serif" font-size="10.00">ObjectPtr&lt; nap::Shader &gt;</text>
</a>
</g>
</g>
<!-- Node0&#45;&gt;Node37 -->
<g id="edge37" class="edge">
<title>Node0&#45;&gt;Node37</title>
<path fill="none" stroke="midnightblue" d="M40.55,-1012.71C38.83,-918.59 36.32,-517.13 116,-428.5 122.01,-421.81 129.8,-417.14 138.21,-413.92"/>
<polygon fill="midnightblue" stroke="midnightblue" points="37.05,-1012.91 40.76,-1022.84 44.05,-1012.77 37.05,-1012.91"/>
</g>
<!-- Node38 -->
<g id="node39" class="node">
<title>Node38</title>
<g id="a_node39"><a xlink:href="../../dd/d7c/classnap_1_1rtti_1_1_object_ptr.html" target="_top" xlink:title="ObjectPtr\&lt; nap::Texture2D \&gt;">
<polygon fill="white" stroke="black" points="131.5,-361 131.5,-380 273.5,-380 273.5,-361 131.5,-361"/>
<text text-anchor="middle" x="202.5" y="-368" font-family="Helvetica,sans-Serif" font-size="10.00">ObjectPtr&lt; nap::Texture2D &gt;</text>
</a>
</g>
</g>
<!-- Node0&#45;&gt;Node38 -->
<g id="edge38" class="edge">
<title>Node0&#45;&gt;Node38</title>
<path fill="none" stroke="midnightblue" d="M41.97,-1012.44C47.18,-908.79 73.13,-437 116,-389.5 120.28,-384.76 125.45,-381.06 131.12,-378.19"/>
<polygon fill="midnightblue" stroke="midnightblue" points="38.46,-1012.57 41.46,-1022.73 45.45,-1012.92 38.46,-1012.57"/>
</g>
<!-- Node39 -->
<g id="node40" class="node">
<title>Node39</title>
<g id="a_node40"><a xlink:href="../../dd/d7c/classnap_1_1rtti_1_1_object_ptr.html" target="_top" xlink:title="ObjectPtr\&lt; nap::UDPThread \&gt;">
<polygon fill="white" stroke="black" points="129,-323 129,-342 276,-342 276,-323 129,-323"/>
<text text-anchor="middle" x="202.5" y="-330" font-family="Helvetica,sans-Serif" font-size="10.00">ObjectPtr&lt; nap::UDPThread &gt;</text>
</a>
</g>
</g>
<!-- Node0&#45;&gt;Node39 -->
<g id="edge39" class="edge">
<title>Node0&#45;&gt;Node39</title>
<path fill="none" stroke="midnightblue" d="M41.83,-1012.6C46.47,-905.66 70.61,-402.13 116,-351.5 119.65,-347.42 123.97,-344.12 128.69,-341.45"/>
<polygon fill="midnightblue" stroke="midnightblue" points="38.33,-1012.53 41.4,-1022.67 45.32,-1012.83 38.33,-1012.53"/>
</g>
<!-- Node40 -->
<g id="node41" class="node">
<title>Node40</title>
<g id="a_node41"><a xlink:href="../../dd/d7c/classnap_1_1rtti_1_1_object_ptr.html" target="_top" xlink:title="ObjectPtr\&lt; nap::VideoPlayer \&gt;">
<polygon fill="white" stroke="black" points="127.5,-285 127.5,-304 277.5,-304 277.5,-285 127.5,-285"/>
<text text-anchor="middle" x="202.5" y="-292" font-family="Helvetica,sans-Serif" font-size="10.00">ObjectPtr&lt; nap::VideoPlayer &gt;</text>
</a>
</g>
</g>
<!-- Node0&#45;&gt;Node40 -->
<g id="edge40" class="edge">
<title>Node0&#45;&gt;Node40</title>
<path fill="none" stroke="midnightblue" d="M41.7,-1012.89C45.78,-903.05 68.06,-367.28 116,-313.5 119.34,-309.75 123.24,-306.66 127.5,-304.11"/>
<polygon fill="midnightblue" stroke="midnightblue" points="38.2,-1012.79 41.33,-1022.91 45.19,-1013.04 38.2,-1012.79"/>
</g>
<!-- Node41 -->
<g id="node42" class="node">
<title>Node41</title>
<g id="a_node42"><a xlink:href="../../dd/d7c/classnap_1_1rtti_1_1_object_ptr.html" target="_top" xlink:title="ObjectPtr\&lt; nap::WebSocket\lClientEndPoint \&gt;">
<polygon fill="white" stroke="black" points="132.5,-235.5 132.5,-265.5 272.5,-265.5 272.5,-235.5 132.5,-235.5"/>
<text text-anchor="start" x="140.5" y="-253.5" font-family="Helvetica,sans-Serif" font-size="10.00">ObjectPtr&lt; nap::WebSocket</text>
<text text-anchor="middle" x="202.5" y="-242.5" font-family="Helvetica,sans-Serif" font-size="10.00">ClientEndPoint &gt;</text>
</a>
</g>
</g>
<!-- Node0&#45;&gt;Node41 -->
<g id="edge41" class="edge">
<title>Node0&#45;&gt;Node41</title>
<path fill="none" stroke="midnightblue" d="M41.66,-1012.63C45.59,-898.94 67.49,-333.97 116,-275.5 120.54,-270.02 126.21,-265.71 132.46,-262.32"/>
<polygon fill="midnightblue" stroke="midnightblue" points="38.15,-1012.85 41.31,-1022.96 45.14,-1013.08 38.15,-1012.85"/>
</g>
<!-- Node42 -->
<g id="node43" class="node">
<title>Node42</title>
<g id="a_node43"><a xlink:href="../../dd/d7c/classnap_1_1rtti_1_1_object_ptr.html" target="_top" xlink:title="ObjectPtr\&lt; nap::WebSocket\lInterface \&gt;">
<polygon fill="white" stroke="black" points="132.5,-186.5 132.5,-216.5 272.5,-216.5 272.5,-186.5 132.5,-186.5"/>
<text text-anchor="start" x="140.5" y="-204.5" font-family="Helvetica,sans-Serif" font-size="10.00">ObjectPtr&lt; nap::WebSocket</text>
<text text-anchor="middle" x="202.5" y="-193.5" font-family="Helvetica,sans-Serif" font-size="10.00">Interface &gt;</text>
</a>
</g>
</g>
<!-- Node0&#45;&gt;Node42 -->
<g id="edge42" class="edge">
<title>Node0&#45;&gt;Node42</title>
<path fill="none" stroke="midnightblue" d="M41.53,-1012.82C44.84,-895.29 64.35,-289.13 116,-226.5 120.53,-221.01 126.19,-216.69 132.43,-213.29"/>
<polygon fill="midnightblue" stroke="midnightblue" points="38.03,-1012.8 41.25,-1022.9 45.02,-1013 38.03,-1012.8"/>
</g>
<!-- Node43 -->
<g id="node44" class="node">
<title>Node43</title>
<g id="a_node44"><a xlink:href="../../dd/d7c/classnap_1_1rtti_1_1_object_ptr.html" target="_top" xlink:title="ObjectPtr\&lt; nap::WebSocket\lServerEndPoint \&gt;">
<polygon fill="white" stroke="black" points="132.5,-137.5 132.5,-167.5 272.5,-167.5 272.5,-137.5 132.5,-137.5"/>
<text text-anchor="start" x="140.5" y="-155.5" font-family="Helvetica,sans-Serif" font-size="10.00">ObjectPtr&lt; nap::WebSocket</text>
<text text-anchor="middle" x="202.5" y="-144.5" font-family="Helvetica,sans-Serif" font-size="10.00">ServerEndPoint &gt;</text>
</a>
</g>
</g>
<!-- Node0&#45;&gt;Node43 -->
<g id="edge43" class="edge">
<title>Node0&#45;&gt;Node43</title>
<path fill="none" stroke="midnightblue" d="M41.42,-1012.77C44.16,-890.97 61.25,-244.26 116,-177.5 120.51,-172 126.16,-167.67 132.4,-164.26"/>
<polygon fill="midnightblue" stroke="midnightblue" points="37.92,-1012.81 41.2,-1022.88 44.91,-1012.96 37.92,-1012.81"/>
</g>
<!-- Node44 -->
<g id="node45" class="node">
<title>Node44</title>
<g id="a_node45"><a xlink:href="../../dd/d7c/classnap_1_1rtti_1_1_object_ptr.html" target="_top" xlink:title="ObjectPtr\&lt; nap::WebSocket\lTicket \&gt;">
<polygon fill="white" stroke="black" points="132.5,-88.5 132.5,-118.5 272.5,-118.5 272.5,-88.5 132.5,-88.5"/>
<text text-anchor="start" x="140.5" y="-106.5" font-family="Helvetica,sans-Serif" font-size="10.00">ObjectPtr&lt; nap::WebSocket</text>
<text text-anchor="middle" x="202.5" y="-95.5" font-family="Helvetica,sans-Serif" font-size="10.00">Ticket &gt;</text>
</a>
</g>
</g>
<!-- Node0&#45;&gt;Node44 -->
<g id="edge44" class="edge">
<title>Node0&#45;&gt;Node44</title>
<path fill="none" stroke="midnightblue" d="M41.32,-1012.83C43.51,-887.12 58.12,-199.41 116,-128.5 120.5,-122.99 126.14,-118.65 132.37,-115.24"/>
<polygon fill="midnightblue" stroke="midnightblue" points="37.82,-1012.86 41.15,-1022.92 44.81,-1012.98 37.82,-1012.86"/>
</g>
<!-- Node45 -->
<g id="node46" class="node">
<title>Node45</title>
<g id="a_node46"><a xlink:href="../../dd/d7c/classnap_1_1rtti_1_1_object_ptr.html" target="_top" xlink:title="ObjectPtr\&lt; Object \&gt;">
<polygon fill="white" stroke="black" points="150.5,-50 150.5,-69 254.5,-69 254.5,-50 150.5,-50"/>
<text text-anchor="middle" x="202.5" y="-57" font-family="Helvetica,sans-Serif" font-size="10.00">ObjectPtr&lt; Object &gt;</text>
</a>
</g>
</g>
<!-- Node0&#45;&gt;Node45 -->
<g id="edge45" class="edge">
<title>Node0&#45;&gt;Node45</title>
<path fill="none" stroke="midnightblue" d="M41.18,-1012.93C42.53,-883.45 52.94,-152.89 116,-79.5 124.64,-69.44 137.29,-63.91 150.21,-60.99"/>
<polygon fill="midnightblue" stroke="midnightblue" points="37.68,-1012.95 41.08,-1022.98 44.68,-1013.02 37.68,-1012.95"/>
</g>
<!-- Node46 -->
<g id="node47" class="node">
<title>Node46</title>
<g id="a_node47"><a xlink:href="../../dd/d7c/classnap_1_1rtti_1_1_object_ptr.html" target="_top" xlink:title="ObjectPtr\&lt; TargetComponent\lType \&gt;">
<polygon fill="white" stroke="black" points="131,-0.5 131,-30.5 274,-30.5 274,-0.5 131,-0.5"/>
<text text-anchor="start" x="139" y="-18.5" font-family="Helvetica,sans-Serif" font-size="10.00">ObjectPtr&lt; TargetComponent</text>
<text text-anchor="middle" x="202.5" y="-7.5" font-family="Helvetica,sans-Serif" font-size="10.00">Type &gt;</text>
</a>
</g>
</g>
<!-- Node0&#45;&gt;Node46 -->
<g id="edge46" class="edge">
<title>Node0&#45;&gt;Node46</title>
<path fill="none" stroke="midnightblue" d="M41.17,-1012.6C42.45,-879.26 52.55,-118.82 116,-40.5 120.09,-35.45 125.14,-31.39 130.72,-28.12"/>
<polygon fill="midnightblue" stroke="midnightblue" points="37.66,-1012.89 41.07,-1022.92 44.66,-1012.95 37.66,-1012.89"/>
</g>
</g>
</svg>
