<?xml version="1.0" encoding="UTF-8" standalone="no"?>
<!DOCTYPE svg PUBLIC "-//W3C//DTD SVG 1.1//EN"
 "http://www.w3.org/Graphics/SVG/1.1/DTD/svg11.dtd">
<!-- Generated by graphviz version 2.48.0 (20210717.1556)
 -->
<!-- Title: ShaderVariableDeclaration Pages: 1 -->
<svg width="488pt" height="215pt"
 viewBox="0.00 0.00 488.00 214.50" xmlns="http://www.w3.org/2000/svg" xmlns:xlink="http://www.w3.org/1999/xlink">
<g id="graph0" class="graph" transform="scale(1 1) rotate(0) translate(4 210.5)">
<title>ShaderVariableDeclaration</title>
<polygon fill="white" stroke="transparent" points="-4,4 -4,-210.5 484,-210.5 484,4 -4,4"/>
<!-- Node0 -->
<g id="node1" class="node">
<title>Node0</title>
<polygon fill="#bfbfbf" stroke="black" points="0,-88.5 0,-107.5 131,-107.5 131,-88.5 0,-88.5"/>
<text text-anchor="middle" x="65.5" y="-95.5" font-family="Helvetica,sans-Serif" font-size="10.00">ShaderVariableDeclaration</text>
</g>
<!-- Node1 -->
<g id="node2" class="node">
<title>Node1</title>
<g id="a_node2"><a xlink:href="../../de/d72/classnap_1_1_shader_variable_struct_array_declaration.html" target="_top" xlink:title="ShaderVariableStructArray\lDeclaration">
<polygon fill="white" stroke="black" points="180,-176 180,-206 312,-206 312,-176 180,-176"/>
<text text-anchor="start" x="188" y="-194" font-family="Helvetica,sans-Serif" font-size="10.00">ShaderVariableStructArray</text>
<text text-anchor="middle" x="246" y="-183" font-family="Helvetica,sans-Serif" font-size="10.00">Declaration</text>
</a>
</g>
</g>
<!-- Node0&#45;&gt;Node1 -->
<g id="edge1" class="edge">
<title>Node0&#45;&gt;Node1</title>
<path fill="none" stroke="midnightblue" d="M85.65,-113.79C105.11,-129.17 136.62,-152.32 167,-167 173.89,-170.33 181.34,-173.32 188.82,-175.97"/>
<polygon fill="midnightblue" stroke="midnightblue" points="87.84,-111.05 77.85,-107.52 83.45,-116.51 87.84,-111.05"/>
</g>
<!-- Node2 -->
<g id="node3" class="node">
<title>Node2</title>
<g id="a_node3"><a xlink:href="../../d9/d70/classnap_1_1_shader_variable_struct_buffer_declaration.html" target="_top" xlink:title="ShaderVariableStructBuffer\lDeclaration">
<polygon fill="white" stroke="black" points="179,-127 179,-157 313,-157 313,-127 179,-127"/>
<text text-anchor="start" x="187" y="-145" font-family="Helvetica,sans-Serif" font-size="10.00">ShaderVariableStructBuffer</text>
<text text-anchor="middle" x="246" y="-134" font-family="Helvetica,sans-Serif" font-size="10.00">Declaration</text>
</a>
</g>
</g>
<!-- Node0&#45;&gt;Node2 -->
<g id="edge2" class="edge">
<title>Node0&#45;&gt;Node2</title>
<path fill="none" stroke="midnightblue" d="M115,-109.96C136.23,-115.19 161.39,-121.39 183.88,-126.93"/>
<polygon fill="midnightblue" stroke="midnightblue" points="115.78,-106.54 105.23,-107.55 114.1,-113.34 115.78,-106.54"/>
</g>
<!-- Node3 -->
<g id="node4" class="node">
<title>Node3</title>
<g id="a_node4"><a xlink:href="../../d1/d7d/classnap_1_1_shader_variable_struct_declaration.html" target="_top" xlink:title="ShaderVariableStructDeclaration">
<polygon fill="white" stroke="black" points="167,-88.5 167,-107.5 325,-107.5 325,-88.5 167,-88.5"/>
<text text-anchor="middle" x="246" y="-95.5" font-family="Helvetica,sans-Serif" font-size="10.00">ShaderVariableStructDeclaration</text>
</a>
</g>
</g>
<!-- Node0&#45;&gt;Node3 -->
<g id="edge3" class="edge">
<title>Node0&#45;&gt;Node3</title>
<path fill="none" stroke="midnightblue" d="M141.36,-98C149.78,-98 158.38,-98 166.84,-98"/>
<polygon fill="midnightblue" stroke="midnightblue" points="141.2,-94.5 131.19,-98 141.19,-101.5 141.2,-94.5"/>
</g>
<!-- Node5 -->
<g id="node6" class="node">
<title>Node5</title>
<g id="a_node6"><a xlink:href="../../d8/d24/classnap_1_1_shader_variable_value_array_declaration.html" target="_top" xlink:title="ShaderVariableValueArray\lDeclaration">
<polygon fill="white" stroke="black" points="180.5,-39 180.5,-69 311.5,-69 311.5,-39 180.5,-39"/>
<text text-anchor="start" x="188.5" y="-57" font-family="Helvetica,sans-Serif" font-size="10.00">ShaderVariableValueArray</text>
<text text-anchor="middle" x="246" y="-46" font-family="Helvetica,sans-Serif" font-size="10.00">Declaration</text>
</a>
</g>
</g>
<!-- Node0&#45;&gt;Node5 -->
<g id="edge5" class="edge">
<title>Node0&#45;&gt;Node5</title>
<path fill="none" stroke="midnightblue" d="M115,-86.04C136.23,-80.81 161.39,-74.61 183.88,-69.07"/>
<polygon fill="midnightblue" stroke="midnightblue" points="114.1,-82.66 105.23,-88.45 115.78,-89.46 114.1,-82.66"/>
</g>
<!-- Node6 -->
<g id="node7" class="node">
<title>Node6</title>
<g id="a_node7"><a xlink:href="../../d6/df3/classnap_1_1_shader_variable_value_declaration.html" target="_top" xlink:title="ShaderVariableValueDeclaration">
<polygon fill="white" stroke="black" points="168,-0.5 168,-19.5 324,-19.5 324,-0.5 168,-0.5"/>
<text text-anchor="middle" x="246" y="-7.5" font-family="Helvetica,sans-Serif" font-size="10.00">ShaderVariableValueDeclaration</text>
</a>
</g>
</g>
<!-- Node0&#45;&gt;Node6 -->
<g id="edge6" class="edge">
<title>Node0&#45;&gt;Node6</title>
<path fill="none" stroke="midnightblue" d="M85.81,-81.94C105.2,-66.56 136.51,-43.72 167,-30 176.43,-25.75 186.93,-22.29 197.09,-19.51"/>
<polygon fill="midnightblue" stroke="midnightblue" points="83.36,-79.42 77.78,-88.43 87.76,-84.87 83.36,-79.42"/>
</g>
<!-- Node4 -->
<g id="node5" class="node">
<title>Node4</title>
<g id="a_node5"><a xlink:href="../../dd/d6b/classnap_1_1_buffer_object_declaration.html" target="_top" xlink:title="BufferObjectDeclaration">
<polygon fill="white" stroke="black" points="361,-88.5 361,-107.5 480,-107.5 480,-88.5 361,-88.5"/>
<text text-anchor="middle" x="420.5" y="-95.5" font-family="Helvetica,sans-Serif" font-size="10.00">BufferObjectDeclaration</text>
</a>
</g>
</g>
<!-- Node3&#45;&gt;Node4 -->
<g id="edge4" class="edge">
<title>Node3&#45;&gt;Node4</title>
<path fill="none" stroke="midnightblue" d="M335.36,-98C344.04,-98 352.69,-98 360.96,-98"/>
<polygon fill="midnightblue" stroke="midnightblue" points="335.17,-94.5 325.17,-98 335.17,-101.5 335.17,-94.5"/>
</g>
</g>
</svg>
