<?xml version="1.0" encoding="UTF-8" standalone="no"?>
<!DOCTYPE svg PUBLIC "-//W3C//DTD SVG 1.1//EN"
 "http://www.w3.org/Graphics/SVG/1.1/DTD/svg11.dtd">
<!-- Generated by graphviz version 3.0.0 (20220226.1711)
 -->
<!-- Title: Renderable2DMipMapGlyph Pages: 1 -->
<svg width="145pt" height="209pt"
 viewBox="0.00 0.00 145.00 209.00" xmlns="http://www.w3.org/2000/svg" xmlns:xlink="http://www.w3.org/1999/xlink">
<g id="graph0" class="graph" transform="scale(1 1) rotate(0) translate(4 205)">
<title>Renderable2DMipMapGlyph</title>
<polygon fill="white" stroke="transparent" points="-4,4 -4,-205 141,-205 141,4 -4,4"/>
<!-- Node3 -->
<g id="node1" class="node">
<title>Node3</title>
<polygon fill="#bfbfbf" stroke="black" points="0,-0.5 0,-19.5 137,-19.5 137,-0.5 0,-0.5"/>
<text text-anchor="middle" x="68.5" y="-7.5" font-family="Helvetica,sans-Serif" font-size="10.00">Renderable2DMipMapGlyph</text>
</g>
<!-- Node4 -->
<g id="node2" class="node">
<title>Node4</title>
<g id="a_node2"><a xlink:href="../../d7/d92/classnap_1_1_renderable_glyph.html" target="_top" xlink:title="RenderableGlyph">
<polygon fill="white" stroke="black" points="23,-57.5 23,-76.5 114,-76.5 114,-57.5 23,-57.5"/>
<text text-anchor="middle" x="68.5" y="-64.5" font-family="Helvetica,sans-Serif" font-size="10.00">RenderableGlyph</text>
</a>
</g>
</g>
<!-- Node4&#45;&gt;Node3 -->
<g id="edge1" class="edge">
<title>Node4&#45;&gt;Node3</title>
<path fill="none" stroke="midnightblue" d="M68.5,-47.12C68.5,-37.82 68.5,-27.06 68.5,-19.71"/>
<polygon fill="midnightblue" stroke="midnightblue" points="65,-47.41 68.5,-57.41 72,-47.41 65,-47.41"/>
</g>
<!-- Node5 -->
<g id="node3" class="node">
<title>Node5</title>
<g id="a_node3"><a xlink:href="../../d8/dd9/classnap_1_1_i_glyph_representation.html" target="_top" xlink:title="IGlyphRepresentation">
<polygon fill="white" stroke="black" points="13.5,-114.5 13.5,-133.5 123.5,-133.5 123.5,-114.5 13.5,-114.5"/>
<text text-anchor="middle" x="68.5" y="-121.5" font-family="Helvetica,sans-Serif" font-size="10.00">IGlyphRepresentation</text>
</a>
</g>
</g>
<!-- Node5&#45;&gt;Node4 -->
<g id="edge2" class="edge">
<title>Node5&#45;&gt;Node4</title>
<path fill="none" stroke="midnightblue" d="M68.5,-104.12C68.5,-94.82 68.5,-84.06 68.5,-76.71"/>
<polygon fill="midnightblue" stroke="midnightblue" points="65,-104.41 68.5,-114.41 72,-104.41 65,-104.41"/>
</g>
<!-- Node6 -->
<g id="node4" class="node">
<title>Node6</title>
<g id="a_node4"><a xlink:href="../../d0/dfd/classnap_1_1_core.html" target="_top" xlink:title="Core">
<polygon fill="white" stroke="black" points="50,-181.5 50,-200.5 87,-200.5 87,-181.5 50,-181.5"/>
<text text-anchor="middle" x="68.5" y="-188.5" font-family="Helvetica,sans-Serif" font-size="10.00">Core</text>
</a>
</g>
</g>
<!-- Node6&#45;&gt;Node5 -->
<g id="edge3" class="edge">
<title>Node6&#45;&gt;Node5</title>
<path fill="none" stroke="#9a32cd" stroke-dasharray="5,2" d="M68.5,-171.04C68.5,-158.67 68.5,-143.12 68.5,-133.63"/>
<polygon fill="#9a32cd" stroke="#9a32cd" points="65,-171.23 68.5,-181.23 72,-171.23 65,-171.23"/>
<text text-anchor="middle" x="84.5" y="-155" font-family="Helvetica,sans-Serif" font-size="10.00"> mCore</text>
</g>
</g>
</svg>
