<?xml version="1.0" encoding="UTF-8" standalone="no"?>
<!DOCTYPE svg PUBLIC "-//W3C//DTD SVG 1.1//EN"
 "http://www.w3.org/Graphics/SVG/1.1/DTD/svg11.dtd">
<!-- Generated by graphviz version 2.43.0 (0)
 -->
<!-- Title: CalendarComponent Pages: 1 -->
<svg width="254pt" height="209pt"
 viewBox="0.00 0.00 254.00 209.00" xmlns="http://www.w3.org/2000/svg" xmlns:xlink="http://www.w3.org/1999/xlink">
<g id="graph0" class="graph" transform="scale(1 1) rotate(0) translate(4 205)">
<title>CalendarComponent</title>
<polygon fill="white" stroke="transparent" points="-4,4 -4,-205 250,-205 250,4 -4,4"/>
<!-- Node1 -->
<g id="node1" class="node">
<title>Node1</title>
<g id="a_node1"><a xlink:title=" ">
<polygon fill="#bfbfbf" stroke="black" points="43.5,-0.5 43.5,-19.5 159.5,-19.5 159.5,-0.5 43.5,-0.5"/>
<text text-anchor="middle" x="101.5" y="-7.5" font-family="Helvetica,sans-Serif" font-size="10.00">CalendarComponent</text>
</a>
</g>
</g>
<!-- Node2 -->
<g id="node2" class="node">
<title>Node2</title>
<g id="a_node2"><a xlink:href="../../db/d6b/classnap_1_1_component.html" target="_top" xlink:title=" ">
<polygon fill="white" stroke="black" points="0,-67.5 0,-86.5 73,-86.5 73,-67.5 0,-67.5"/>
<text text-anchor="middle" x="36.5" y="-74.5" font-family="Helvetica,sans-Serif" font-size="10.00">Component</text>
</a>
</g>
</g>
<!-- Node2&#45;&gt;Node1 -->
<g id="edge1" class="edge">
<title>Node2&#45;&gt;Node1</title>
<path fill="none" stroke="midnightblue" d="M52.5,-60C65.25,-47.25 82.61,-29.89 92.87,-19.63"/>
<polygon fill="midnightblue" stroke="midnightblue" points="49.86,-57.69 45.27,-67.23 54.81,-62.64 49.86,-57.69"/>
</g>
<!-- Node3 -->
<g id="node3" class="node">
<title>Node3</title>
<g id="a_node3"><a xlink:href="../../d9/dea/classnap_1_1_resource.html" target="_top" xlink:title=" ">
<polygon fill="white" stroke="black" points="5.5,-124.5 5.5,-143.5 67.5,-143.5 67.5,-124.5 5.5,-124.5"/>
<text text-anchor="middle" x="36.5" y="-131.5" font-family="Helvetica,sans-Serif" font-size="10.00">Resource</text>
</a>
</g>
</g>
<!-- Node3&#45;&gt;Node2 -->
<g id="edge2" class="edge">
<title>Node3&#45;&gt;Node2</title>
<path fill="none" stroke="midnightblue" d="M36.5,-114.12C36.5,-104.82 36.5,-94.06 36.5,-86.71"/>
<polygon fill="midnightblue" stroke="midnightblue" points="33,-114.41 36.5,-124.41 40,-114.41 33,-114.41"/>
</g>
<!-- Node4 -->
<g id="node4" class="node">
<title>Node4</title>
<g id="a_node4"><a xlink:href="../../de/d01/classnap_1_1rtti_1_1_object.html" target="_top" xlink:title=" ">
<polygon fill="white" stroke="black" points="12.5,-181.5 12.5,-200.5 60.5,-200.5 60.5,-181.5 12.5,-181.5"/>
<text text-anchor="middle" x="36.5" y="-188.5" font-family="Helvetica,sans-Serif" font-size="10.00">Object</text>
</a>
</g>
</g>
<!-- Node4&#45;&gt;Node3 -->
<g id="edge3" class="edge">
<title>Node4&#45;&gt;Node3</title>
<path fill="none" stroke="midnightblue" d="M36.5,-171.12C36.5,-161.82 36.5,-151.06 36.5,-143.71"/>
<polygon fill="midnightblue" stroke="midnightblue" points="33,-171.41 36.5,-181.41 40,-171.41 33,-171.41"/>
</g>
<!-- Node5 -->
<g id="node5" class="node">
<title>Node5</title>
<g id="a_node5"><a xlink:href="../../dd/d7c/classnap_1_1rtti_1_1_object_ptr.html" target="_top" xlink:title=" ">
<polygon fill="white" stroke="black" points="91,-67.5 91,-86.5 246,-86.5 246,-67.5 91,-67.5"/>
<text text-anchor="middle" x="168.5" y="-74.5" font-family="Helvetica,sans-Serif" font-size="10.00">ObjectPtr&lt; nap::ICalendar &gt;</text>
</a>
</g>
</g>
<!-- Node5&#45;&gt;Node1 -->
<g id="edge4" class="edge">
<title>Node5&#45;&gt;Node1</title>
<path fill="none" stroke="#9a32cd" stroke-dasharray="5,2" d="M152,-60C138.86,-47.25 120.98,-29.89 110.39,-19.63"/>
<polygon fill="#9a32cd" stroke="#9a32cd" points="149.85,-62.78 159.46,-67.23 154.72,-57.76 149.85,-62.78"/>
<text text-anchor="middle" x="168" y="-41" font-family="Helvetica,sans-Serif" font-size="10.00"> mCalendar</text>
</g>
<!-- Node6 -->
<g id="node6" class="node">
<title>Node6</title>
<g id="a_node6"><a xlink:href="../../d7/dcb/classnap_1_1rtti_1_1_object_ptr_base.html" target="_top" xlink:title=" ">
<polygon fill="white" stroke="black" points="125.5,-124.5 125.5,-143.5 211.5,-143.5 211.5,-124.5 125.5,-124.5"/>
<text text-anchor="middle" x="168.5" y="-131.5" font-family="Helvetica,sans-Serif" font-size="10.00">ObjectPtrBase</text>
</a>
</g>
</g>
<!-- Node6&#45;&gt;Node5 -->
<g id="edge5" class="edge">
<title>Node6&#45;&gt;Node5</title>
<path fill="none" stroke="midnightblue" d="M168.5,-114.12C168.5,-104.82 168.5,-94.06 168.5,-86.71"/>
<polygon fill="midnightblue" stroke="midnightblue" points="165,-114.41 168.5,-124.41 172,-114.41 165,-114.41"/>
</g>
</g>
</svg>
