<?xml version="1.0" encoding="UTF-8" standalone="no"?>
<!DOCTYPE svg PUBLIC "-//W3C//DTD SVG 1.1//EN"
 "http://www.w3.org/Graphics/SVG/1.1/DTD/svg11.dtd">
<!-- Generated by graphviz version 2.43.0 (0)
 -->
<!-- Title: Texture2D Pages: 1 -->
<svg width="195pt" height="252pt"
 viewBox="0.00 0.00 195.00 252.00" xmlns="http://www.w3.org/2000/svg" xmlns:xlink="http://www.w3.org/1999/xlink">
<g id="graph0" class="graph" transform="scale(1 1) rotate(0) translate(4 248)">
<title>Texture2D</title>
<polygon fill="white" stroke="transparent" points="-4,4 -4,-248 191,-248 191,4 -4,4"/>
<!-- Node1 -->
<g id="node1" class="node">
<title>Node1</title>
<g id="a_node1"><a xlink:title=" ">
<polygon fill="#bfbfbf" stroke="black" points="57.5,-112.5 57.5,-131.5 123.5,-131.5 123.5,-112.5 57.5,-112.5"/>
<text text-anchor="middle" x="90.5" y="-119.5" font-family="Helvetica,sans-Serif" font-size="10.00">Texture2D</text>
</a>
</g>
</g>
<!-- Node4 -->
<g id="node4" class="node">
<title>Node4</title>
<g id="a_node4"><a xlink:href="../../dd/d82/classnap_1_1_image.html" target="_top" xlink:title=" ">
<polygon fill="white" stroke="black" points="21,-56.5 21,-75.5 68,-75.5 68,-56.5 21,-56.5"/>
<text text-anchor="middle" x="44.5" y="-63.5" font-family="Helvetica,sans-Serif" font-size="10.00">Image</text>
</a>
</g>
</g>
<!-- Node1&#45;&gt;Node4 -->
<g id="edge3" class="edge">
<title>Node1&#45;&gt;Node4</title>
<path fill="none" stroke="midnightblue" d="M76.39,-104.43C68.32,-94.97 58.54,-83.48 51.95,-75.75"/>
<polygon fill="midnightblue" stroke="midnightblue" points="73.75,-106.74 82.9,-112.08 79.08,-102.2 73.75,-106.74"/>
</g>
<!-- Node6 -->
<g id="node6" class="node">
<title>Node6</title>
<g id="a_node6"><a xlink:href="../../d6/d5e/classnap_1_1_render_texture2_d.html" target="_top" xlink:title=" ">
<polygon fill="white" stroke="black" points="86,-56.5 86,-75.5 187,-75.5 187,-56.5 86,-56.5"/>
<text text-anchor="middle" x="136.5" y="-63.5" font-family="Helvetica,sans-Serif" font-size="10.00">RenderTexture2D</text>
</a>
</g>
</g>
<!-- Node1&#45;&gt;Node6 -->
<g id="edge5" class="edge">
<title>Node1&#45;&gt;Node6</title>
<path fill="none" stroke="midnightblue" d="M104.61,-104.43C112.68,-94.97 122.46,-83.48 129.05,-75.75"/>
<polygon fill="midnightblue" stroke="midnightblue" points="101.92,-102.2 98.1,-112.08 107.25,-106.74 101.92,-102.2"/>
</g>
<!-- Node2 -->
<g id="node2" class="node">
<title>Node2</title>
<g id="a_node2"><a xlink:href="../../d9/dea/classnap_1_1_resource.html" target="_top" xlink:title=" ">
<polygon fill="white" stroke="black" points="59.5,-168.5 59.5,-187.5 121.5,-187.5 121.5,-168.5 59.5,-168.5"/>
<text text-anchor="middle" x="90.5" y="-175.5" font-family="Helvetica,sans-Serif" font-size="10.00">Resource</text>
</a>
</g>
</g>
<!-- Node2&#45;&gt;Node1 -->
<g id="edge1" class="edge">
<title>Node2&#45;&gt;Node1</title>
<path fill="none" stroke="midnightblue" d="M90.5,-157.8C90.5,-148.91 90.5,-138.78 90.5,-131.75"/>
<polygon fill="midnightblue" stroke="midnightblue" points="87,-158.08 90.5,-168.08 94,-158.08 87,-158.08"/>
</g>
<!-- Node3 -->
<g id="node3" class="node">
<title>Node3</title>
<g id="a_node3"><a xlink:href="../../de/d01/classnap_1_1rtti_1_1_object.html" target="_top" xlink:title=" ">
<polygon fill="white" stroke="black" points="66.5,-224.5 66.5,-243.5 114.5,-243.5 114.5,-224.5 66.5,-224.5"/>
<text text-anchor="middle" x="90.5" y="-231.5" font-family="Helvetica,sans-Serif" font-size="10.00">Object</text>
</a>
</g>
</g>
<!-- Node3&#45;&gt;Node2 -->
<g id="edge2" class="edge">
<title>Node3&#45;&gt;Node2</title>
<path fill="none" stroke="midnightblue" d="M90.5,-213.8C90.5,-204.91 90.5,-194.78 90.5,-187.75"/>
<polygon fill="midnightblue" stroke="midnightblue" points="87,-214.08 90.5,-224.08 94,-214.08 87,-214.08"/>
</g>
<!-- Node5 -->
<g id="node5" class="node">
<title>Node5</title>
<g id="a_node5"><a xlink:href="../../d3/d21/classnap_1_1_image_from_file.html" target="_top" xlink:title=" ">
<polygon fill="white" stroke="black" points="0,-0.5 0,-19.5 89,-19.5 89,-0.5 0,-0.5"/>
<text text-anchor="middle" x="44.5" y="-7.5" font-family="Helvetica,sans-Serif" font-size="10.00">ImageFromFile</text>
</a>
</g>
</g>
<!-- Node4&#45;&gt;Node5 -->
<g id="edge4" class="edge">
<title>Node4&#45;&gt;Node5</title>
<path fill="none" stroke="midnightblue" d="M44.5,-45.8C44.5,-36.91 44.5,-26.78 44.5,-19.75"/>
<polygon fill="midnightblue" stroke="midnightblue" points="41,-46.08 44.5,-56.08 48,-46.08 41,-46.08"/>
</g>
</g>
</svg>
