<?xml version="1.0" encoding="UTF-8" standalone="no"?>
<!DOCTYPE svg PUBLIC "-//W3C//DTD SVG 1.1//EN"
 "http://www.w3.org/Graphics/SVG/1.1/DTD/svg11.dtd">
<!-- Generated by graphviz version 2.48.0 (20210717.1556)
 -->
<!-- Title: SequencePlayerAudioOutputComponentInstance Pages: 1 -->
<svg width="234pt" height="207pt"
 viewBox="0.00 0.00 233.50 207.00" xmlns="http://www.w3.org/2000/svg" xmlns:xlink="http://www.w3.org/1999/xlink">
<g id="graph0" class="graph" transform="scale(1 1) rotate(0) translate(4 203)">
<title>SequencePlayerAudioOutputComponentInstance</title>
<polygon fill="white" stroke="transparent" points="-4,4 -4,-203 229.5,-203 229.5,4 -4,4"/>
<!-- Node0 -->
<g id="node1" class="node">
<title>Node0</title>
<polygon fill="#bfbfbf" stroke="black" points="41.5,-0.5 41.5,-30.5 183.5,-30.5 183.5,-0.5 41.5,-0.5"/>
<text text-anchor="start" x="49.5" y="-18.5" font-family="Helvetica,sans-Serif" font-size="10.00">SequencePlayerAudioOutput</text>
<text text-anchor="middle" x="112.5" y="-7.5" font-family="Helvetica,sans-Serif" font-size="10.00">ComponentInstance</text>
</g>
<!-- Node1 -->
<g id="node2" class="node">
<title>Node1</title>
<g id="a_node2"><a xlink:href="../../da/dde/classnap_1_1audio_1_1_audio_component_base_instance.html" target="_top" xlink:title="AudioComponentBaseInstance">
<polygon fill="white" stroke="black" points="37.5,-67.5 37.5,-86.5 187.5,-86.5 187.5,-67.5 37.5,-67.5"/>
<text text-anchor="middle" x="112.5" y="-74.5" font-family="Helvetica,sans-Serif" font-size="10.00">AudioComponentBaseInstance</text>
</a>
</g>
</g>
<!-- Node1&#45;&gt;Node0 -->
<g id="edge1" class="edge">
<title>Node1&#45;&gt;Node0</title>
<path fill="none" stroke="midnightblue" d="M112.5,-57.23C112.5,-48.59 112.5,-38.5 112.5,-30.52"/>
<polygon fill="midnightblue" stroke="midnightblue" points="109,-57.48 112.5,-67.48 116,-57.48 109,-57.48"/>
</g>
<!-- Node2 -->
<g id="node3" class="node">
<title>Node2</title>
<g id="a_node3"><a xlink:href="../../d9/df2/classnap_1_1_component_instance.html" target="_top" xlink:title="ComponentInstance">
<polygon fill="white" stroke="black" points="0,-123.5 0,-142.5 103,-142.5 103,-123.5 0,-123.5"/>
<text text-anchor="middle" x="51.5" y="-130.5" font-family="Helvetica,sans-Serif" font-size="10.00">ComponentInstance</text>
</a>
</g>
</g>
<!-- Node2&#45;&gt;Node1 -->
<g id="edge2" class="edge">
<title>Node2&#45;&gt;Node1</title>
<path fill="none" stroke="midnightblue" d="M68.97,-116.54C79.84,-106.91 93.44,-94.87 102.52,-86.83"/>
<polygon fill="midnightblue" stroke="midnightblue" points="66.47,-114.07 61.3,-123.32 71.11,-119.32 66.47,-114.07"/>
</g>
<!-- Node3 -->
<g id="node4" class="node">
<title>Node3</title>
<g id="a_node4"><a xlink:href="../../de/d01/classnap_1_1rtti_1_1_object.html" target="_top" xlink:title="Object">
<polygon fill="white" stroke="black" points="29,-179.5 29,-198.5 74,-198.5 74,-179.5 29,-179.5"/>
<text text-anchor="middle" x="51.5" y="-186.5" font-family="Helvetica,sans-Serif" font-size="10.00">Object</text>
</a>
</g>
</g>
<!-- Node3&#45;&gt;Node2 -->
<g id="edge3" class="edge">
<title>Node3&#45;&gt;Node2</title>
<path fill="none" stroke="midnightblue" d="M51.5,-168.8C51.5,-159.91 51.5,-149.78 51.5,-142.75"/>
<polygon fill="midnightblue" stroke="midnightblue" points="48,-169.08 51.5,-179.08 55,-169.08 48,-169.08"/>
</g>
<!-- Node4 -->
<g id="node5" class="node">
<title>Node4</title>
<g id="a_node5"><a xlink:href="../../d6/d4a/classnap_1_1audio_1_1_i_multi_channel_output.html" target="_top" xlink:title="IMultiChannelOutput">
<polygon fill="white" stroke="black" points="121.5,-123.5 121.5,-142.5 225.5,-142.5 225.5,-123.5 121.5,-123.5"/>
<text text-anchor="middle" x="173.5" y="-130.5" font-family="Helvetica,sans-Serif" font-size="10.00">IMultiChannelOutput</text>
</a>
</g>
</g>
<!-- Node4&#45;&gt;Node1 -->
<g id="edge4" class="edge">
<title>Node4&#45;&gt;Node1</title>
<path fill="none" stroke="midnightblue" d="M156.03,-116.54C145.16,-106.91 131.56,-94.87 122.48,-86.83"/>
<polygon fill="midnightblue" stroke="midnightblue" points="153.89,-119.32 163.7,-123.32 158.53,-114.07 153.89,-119.32"/>
</g>
</g>
</svg>
