<?xml version="1.0" encoding="UTF-8" standalone="no"?>
<!DOCTYPE svg PUBLIC "-//W3C//DTD SVG 1.1//EN"
 "http://www.w3.org/Graphics/SVG/1.1/DTD/svg11.dtd">
<!-- Generated by graphviz version 2.48.0 (20210717.1556)
 -->
<!-- Title: Material Pages: 1 -->
<svg width="305pt" height="209pt"
 viewBox="0.00 0.00 305.00 209.00" xmlns="http://www.w3.org/2000/svg" xmlns:xlink="http://www.w3.org/1999/xlink">
<g id="graph0" class="graph" transform="scale(1 1) rotate(0) translate(4 205)">
<title>Material</title>
<polygon fill="white" stroke="transparent" points="-4,4 -4,-205 301,-205 301,4 -4,4"/>
<!-- Node5 -->
<g id="node1" class="node">
<title>Node5</title>
<polygon fill="#bfbfbf" stroke="black" points="147.5,-0.5 147.5,-19.5 198.5,-19.5 198.5,-0.5 147.5,-0.5"/>
<text text-anchor="middle" x="173" y="-7.5" font-family="Helvetica,sans-Serif" font-size="10.00">Material</text>
</g>
<!-- Node6 -->
<g id="node2" class="node">
<title>Node6</title>
<g id="a_node2"><a xlink:href="../../da/d69/classnap_1_1_base_material.html" target="_top" xlink:title="BaseMaterial">
<polygon fill="white" stroke="black" points="77,-67.5 77,-86.5 151,-86.5 151,-67.5 77,-67.5"/>
<text text-anchor="middle" x="114" y="-74.5" font-family="Helvetica,sans-Serif" font-size="10.00">BaseMaterial</text>
</a>
</g>
</g>
<!-- Node6&#45;&gt;Node5 -->
<g id="edge1" class="edge">
<title>Node6&#45;&gt;Node5</title>
<path fill="none" stroke="midnightblue" d="M128.85,-59.63C140.39,-46.92 155.94,-29.8 165.17,-19.63"/>
<polygon fill="midnightblue" stroke="midnightblue" points="126.09,-57.48 121.96,-67.23 131.27,-62.18 126.09,-57.48"/>
</g>
<!-- Node7 -->
<g id="node3" class="node">
<title>Node7</title>
<g id="a_node3"><a xlink:href="../../d9/dea/classnap_1_1_resource.html" target="_top" xlink:title="Resource">
<polygon fill="white" stroke="black" points="0,-124.5 0,-143.5 58,-143.5 58,-124.5 0,-124.5"/>
<text text-anchor="middle" x="29" y="-131.5" font-family="Helvetica,sans-Serif" font-size="10.00">Resource</text>
</a>
</g>
</g>
<!-- Node7&#45;&gt;Node6 -->
<g id="edge2" class="edge">
<title>Node7&#45;&gt;Node6</title>
<path fill="none" stroke="midnightblue" d="M50.91,-118.82C66.7,-108.61 87.5,-95.15 100.81,-86.53"/>
<polygon fill="midnightblue" stroke="midnightblue" points="48.78,-116.04 42.28,-124.41 52.58,-121.91 48.78,-116.04"/>
</g>
<!-- Node8 -->
<g id="node4" class="node">
<title>Node8</title>
<g id="a_node4"><a xlink:href="../../de/d01/classnap_1_1rtti_1_1_object.html" target="_top" xlink:title="Object">
<polygon fill="white" stroke="black" points="6.5,-181.5 6.5,-200.5 51.5,-200.5 51.5,-181.5 6.5,-181.5"/>
<text text-anchor="middle" x="29" y="-188.5" font-family="Helvetica,sans-Serif" font-size="10.00">Object</text>
</a>
</g>
</g>
<!-- Node8&#45;&gt;Node7 -->
<g id="edge3" class="edge">
<title>Node8&#45;&gt;Node7</title>
<path fill="none" stroke="midnightblue" d="M29,-171.12C29,-161.82 29,-151.06 29,-143.71"/>
<polygon fill="midnightblue" stroke="midnightblue" points="25.5,-171.41 29,-181.41 32.5,-171.41 25.5,-171.41"/>
</g>
<!-- Node9 -->
<g id="node5" class="node">
<title>Node9</title>
<g id="a_node5"><a xlink:href="../../d5/d6c/classnap_1_1_uniform_container.html" target="_top" xlink:title="UniformContainer">
<polygon fill="white" stroke="black" points="76.5,-124.5 76.5,-143.5 167.5,-143.5 167.5,-124.5 76.5,-124.5"/>
<text text-anchor="middle" x="122" y="-131.5" font-family="Helvetica,sans-Serif" font-size="10.00">UniformContainer</text>
</a>
</g>
</g>
<!-- Node9&#45;&gt;Node6 -->
<g id="edge4" class="edge">
<title>Node9&#45;&gt;Node6</title>
<path fill="none" stroke="midnightblue" d="M119.3,-114.42C117.94,-105.05 116.35,-94.14 115.27,-86.71"/>
<polygon fill="midnightblue" stroke="midnightblue" points="115.85,-115.01 120.75,-124.41 122.77,-114.01 115.85,-115.01"/>
</g>
<!-- Node10 -->
<g id="node6" class="node">
<title>Node10</title>
<g id="a_node6"><a xlink:href="../../dd/d7c/classnap_1_1rtti_1_1_object_ptr.html" target="_top" xlink:title="ObjectPtr\&lt; nap::Shader \&gt;">
<polygon fill="white" stroke="black" points="169,-67.5 169,-86.5 297,-86.5 297,-67.5 169,-67.5"/>
<text text-anchor="middle" x="233" y="-74.5" font-family="Helvetica,sans-Serif" font-size="10.00">ObjectPtr&lt; nap::Shader &gt;</text>
</a>
</g>
</g>
<!-- Node10&#45;&gt;Node5 -->
<g id="edge5" class="edge">
<title>Node10&#45;&gt;Node5</title>
<path fill="none" stroke="#9a32cd" stroke-dasharray="5,2" d="M217.89,-59.63C206.16,-46.92 190.35,-29.8 180.96,-19.63"/>
<polygon fill="#9a32cd" stroke="#9a32cd" points="215.55,-62.26 224.91,-67.23 220.7,-57.51 215.55,-62.26"/>
<text text-anchor="middle" x="228.5" y="-41" font-family="Helvetica,sans-Serif" font-size="10.00"> mShader</text>
</g>
<!-- Node11 -->
<g id="node7" class="node">
<title>Node11</title>
<g id="a_node7"><a xlink:href="../../d7/dcb/classnap_1_1rtti_1_1_object_ptr_base.html" target="_top" xlink:title="ObjectPtrBase">
<polygon fill="white" stroke="black" points="193,-124.5 193,-143.5 273,-143.5 273,-124.5 193,-124.5"/>
<text text-anchor="middle" x="233" y="-131.5" font-family="Helvetica,sans-Serif" font-size="10.00">ObjectPtrBase</text>
</a>
</g>
</g>
<!-- Node11&#45;&gt;Node10 -->
<g id="edge6" class="edge">
<title>Node11&#45;&gt;Node10</title>
<path fill="none" stroke="midnightblue" d="M233,-114.12C233,-104.82 233,-94.06 233,-86.71"/>
<polygon fill="midnightblue" stroke="midnightblue" points="229.5,-114.41 233,-124.41 236.5,-114.41 229.5,-114.41"/>
</g>
</g>
</svg>
