<?xml version="1.0" encoding="UTF-8" standalone="no"?>
<!DOCTYPE svg PUBLIC "-//W3C//DTD SVG 1.1//EN"
 "http://www.w3.org/Graphics/SVG/1.1/DTD/svg11.dtd">
<!-- Generated by graphviz version 2.48.0 (20210717.1556)
 -->
<!-- Title: SequencePlayerCurveOutput Pages: 1 -->
<svg width="317pt" height="219pt"
 viewBox="0.00 0.00 316.50 219.00" xmlns="http://www.w3.org/2000/svg" xmlns:xlink="http://www.w3.org/1999/xlink">
<g id="graph0" class="graph" transform="scale(1 1) rotate(0) translate(4 215)">
<title>SequencePlayerCurveOutput</title>
<polygon fill="white" stroke="transparent" points="-4,4 -4,-215 312.5,-215 312.5,4 -4,4"/>
<!-- Node4 -->
<g id="node1" class="node">
<title>Node4</title>
<polygon fill="#bfbfbf" stroke="black" points="91.5,-0.5 91.5,-19.5 232.5,-19.5 232.5,-0.5 91.5,-0.5"/>
<text text-anchor="middle" x="162" y="-7.5" font-family="Helvetica,sans-Serif" font-size="10.00">SequencePlayerCurveOutput</text>
</g>
<!-- Node5 -->
<g id="node2" class="node">
<title>Node5</title>
<g id="a_node2"><a xlink:href="../../de/dac/classnap_1_1_sequence_player_output.html" target="_top" xlink:title="SequencePlayerOutput">
<polygon fill="white" stroke="black" points="30.5,-67.5 30.5,-86.5 147.5,-86.5 147.5,-67.5 30.5,-67.5"/>
<text text-anchor="middle" x="89" y="-74.5" font-family="Helvetica,sans-Serif" font-size="10.00">SequencePlayerOutput</text>
</a>
</g>
</g>
<!-- Node5&#45;&gt;Node4 -->
<g id="edge1" class="edge">
<title>Node5&#45;&gt;Node4</title>
<path fill="none" stroke="midnightblue" d="M106.57,-60.36C120.92,-47.58 140.67,-29.99 152.31,-19.63"/>
<polygon fill="midnightblue" stroke="midnightblue" points="103.99,-57.97 98.85,-67.23 108.64,-63.2 103.99,-57.97"/>
</g>
<!-- Node6 -->
<g id="node3" class="node">
<title>Node6</title>
<g id="a_node3"><a xlink:href="../../d9/dea/classnap_1_1_resource.html" target="_top" xlink:title="Resource">
<polygon fill="white" stroke="black" points="0,-134.5 0,-153.5 58,-153.5 58,-134.5 0,-134.5"/>
<text text-anchor="middle" x="29" y="-141.5" font-family="Helvetica,sans-Serif" font-size="10.00">Resource</text>
</a>
</g>
</g>
<!-- Node6&#45;&gt;Node5 -->
<g id="edge2" class="edge">
<title>Node6&#45;&gt;Node5</title>
<path fill="none" stroke="midnightblue" d="M44.11,-126.63C55.84,-113.92 71.65,-96.8 81.04,-86.63"/>
<polygon fill="midnightblue" stroke="midnightblue" points="41.3,-124.51 37.09,-134.23 46.45,-129.26 41.3,-124.51"/>
</g>
<!-- Node7 -->
<g id="node4" class="node">
<title>Node7</title>
<g id="a_node4"><a xlink:href="../../de/d01/classnap_1_1rtti_1_1_object.html" target="_top" xlink:title="Object">
<polygon fill="white" stroke="black" points="6.5,-191.5 6.5,-210.5 51.5,-210.5 51.5,-191.5 6.5,-191.5"/>
<text text-anchor="middle" x="29" y="-198.5" font-family="Helvetica,sans-Serif" font-size="10.00">Object</text>
</a>
</g>
</g>
<!-- Node7&#45;&gt;Node6 -->
<g id="edge3" class="edge">
<title>Node7&#45;&gt;Node6</title>
<path fill="none" stroke="midnightblue" d="M29,-181.12C29,-171.82 29,-161.06 29,-153.71"/>
<polygon fill="midnightblue" stroke="midnightblue" points="25.5,-181.41 29,-191.41 32.5,-181.41 25.5,-181.41"/>
</g>
<!-- Node8 -->
<g id="node5" class="node">
<title>Node8</title>
<g id="a_node5"><a xlink:href="../../df/dbe/classnap_1_1_sequence_service.html" target="_top" xlink:title="SequenceService">
<polygon fill="white" stroke="black" points="76,-134.5 76,-153.5 168,-153.5 168,-134.5 76,-134.5"/>
<text text-anchor="middle" x="122" y="-141.5" font-family="Helvetica,sans-Serif" font-size="10.00">SequenceService</text>
</a>
</g>
</g>
<!-- Node8&#45;&gt;Node5 -->
<g id="edge4" class="edge">
<title>Node8&#45;&gt;Node5</title>
<path fill="none" stroke="#9a32cd" stroke-dasharray="5,2" d="M112.94,-125.16C106.58,-112.63 98.35,-96.41 93.38,-86.63"/>
<polygon fill="#9a32cd" stroke="#9a32cd" points="109.9,-126.9 117.55,-134.23 116.14,-123.73 109.9,-126.9"/>
<text text-anchor="middle" x="129.5" y="-108" font-family="Helvetica,sans-Serif" font-size="10.00"> mService</text>
</g>
<!-- Node9 -->
<g id="node6" class="node">
<title>Node9</title>
<g id="a_node6"><a xlink:href="../../d8/d8e/classnap_1_1_service.html" target="_top" xlink:title="Service">
<polygon fill="white" stroke="black" points="98,-191.5 98,-210.5 146,-210.5 146,-191.5 98,-191.5"/>
<text text-anchor="middle" x="122" y="-198.5" font-family="Helvetica,sans-Serif" font-size="10.00">Service</text>
</a>
</g>
</g>
<!-- Node9&#45;&gt;Node8 -->
<g id="edge5" class="edge">
<title>Node9&#45;&gt;Node8</title>
<path fill="none" stroke="midnightblue" d="M122,-181.12C122,-171.82 122,-161.06 122,-153.71"/>
<polygon fill="midnightblue" stroke="midnightblue" points="118.5,-181.41 122,-191.41 125.5,-181.41 118.5,-181.41"/>
</g>
<!-- Node10 -->
<g id="node7" class="node">
<title>Node10</title>
<g id="a_node7"><a xlink:href="../../dd/d7c/classnap_1_1rtti_1_1_object_ptr.html" target="_top" xlink:title="ObjectPtr\&lt; nap::Parameter \&gt;">
<polygon fill="white" stroke="black" points="165.5,-67.5 165.5,-86.5 308.5,-86.5 308.5,-67.5 165.5,-67.5"/>
<text text-anchor="middle" x="237" y="-74.5" font-family="Helvetica,sans-Serif" font-size="10.00">ObjectPtr&lt; nap::Parameter &gt;</text>
</a>
</g>
</g>
<!-- Node10&#45;&gt;Node4 -->
<g id="edge6" class="edge">
<title>Node10&#45;&gt;Node4</title>
<path fill="none" stroke="#9a32cd" stroke-dasharray="5,2" d="M218.95,-60.36C204.21,-47.58 183.91,-29.99 171.95,-19.63"/>
<polygon fill="#9a32cd" stroke="#9a32cd" points="217.04,-63.33 226.89,-67.23 221.62,-58.04 217.04,-63.33"/>
<text text-anchor="middle" x="232.5" y="-41" font-family="Helvetica,sans-Serif" font-size="10.00"> mParameter</text>
</g>
<!-- Node11 -->
<g id="node8" class="node">
<title>Node11</title>
<g id="a_node8"><a xlink:href="../../d7/dcb/classnap_1_1rtti_1_1_object_ptr_base.html" target="_top" xlink:title="ObjectPtrBase">
<polygon fill="white" stroke="black" points="197,-134.5 197,-153.5 277,-153.5 277,-134.5 197,-134.5"/>
<text text-anchor="middle" x="237" y="-141.5" font-family="Helvetica,sans-Serif" font-size="10.00">ObjectPtrBase</text>
</a>
</g>
</g>
<!-- Node11&#45;&gt;Node10 -->
<g id="edge7" class="edge">
<title>Node11&#45;&gt;Node10</title>
<path fill="none" stroke="midnightblue" d="M237,-124.04C237,-111.67 237,-96.12 237,-86.63"/>
<polygon fill="midnightblue" stroke="midnightblue" points="233.5,-124.23 237,-134.23 240.5,-124.23 233.5,-124.23"/>
</g>
</g>
</svg>
