<?xml version="1.0" encoding="UTF-8" standalone="no"?>
<!DOCTYPE svg PUBLIC "-//W3C//DTD SVG 1.1//EN"
 "http://www.w3.org/Graphics/SVG/1.1/DTD/svg11.dtd">
<!-- Generated by graphviz version 2.43.0 (0)
 -->
<!-- Title: SequencePlayerCurveOutput Pages: 1 -->
<svg width="340pt" height="219pt"
 viewBox="0.00 0.00 340.00 219.00" xmlns="http://www.w3.org/2000/svg" xmlns:xlink="http://www.w3.org/1999/xlink">
<g id="graph0" class="graph" transform="scale(1 1) rotate(0) translate(4 215)">
<title>SequencePlayerCurveOutput</title>
<polygon fill="white" stroke="transparent" points="-4,4 -4,-215 336,-215 336,4 -4,4"/>
<!-- Node1 -->
<g id="node1" class="node">
<title>Node1</title>
<g id="a_node1"><a xlink:title=" ">
<polygon fill="#bfbfbf" stroke="black" points="94,-0.5 94,-19.5 250,-19.5 250,-0.5 94,-0.5"/>
<text text-anchor="middle" x="172" y="-7.5" font-family="Helvetica,sans-Serif" font-size="10.00">SequencePlayerCurveOutput</text>
</a>
</g>
</g>
<!-- Node2 -->
<g id="node2" class="node">
<title>Node2</title>
<g id="a_node2"><a xlink:href="../../de/dac/classnap_1_1_sequence_player_output.html" target="_top" xlink:title=" ">
<polygon fill="white" stroke="black" points="28,-67.5 28,-86.5 156,-86.5 156,-67.5 28,-67.5"/>
<text text-anchor="middle" x="92" y="-74.5" font-family="Helvetica,sans-Serif" font-size="10.00">SequencePlayerOutput</text>
</a>
</g>
</g>
<!-- Node2&#45;&gt;Node1 -->
<g id="edge1" class="edge">
<title>Node2&#45;&gt;Node1</title>
<path fill="none" stroke="midnightblue" d="M110.81,-60.71C126.58,-47.91 148.51,-30.09 161.38,-19.63"/>
<polygon fill="midnightblue" stroke="midnightblue" points="108.34,-58.21 102.79,-67.23 112.76,-63.64 108.34,-58.21"/>
</g>
<!-- Node3 -->
<g id="node3" class="node">
<title>Node3</title>
<g id="a_node3"><a xlink:href="../../d9/dea/classnap_1_1_resource.html" target="_top" xlink:title=" ">
<polygon fill="white" stroke="black" points="0,-134.5 0,-153.5 62,-153.5 62,-134.5 0,-134.5"/>
<text text-anchor="middle" x="31" y="-141.5" font-family="Helvetica,sans-Serif" font-size="10.00">Resource</text>
</a>
</g>
</g>
<!-- Node3&#45;&gt;Node2 -->
<g id="edge2" class="edge">
<title>Node3&#45;&gt;Node2</title>
<path fill="none" stroke="midnightblue" d="M46.36,-126.63C58.29,-113.92 74.36,-96.8 83.9,-86.63"/>
<polygon fill="midnightblue" stroke="midnightblue" points="43.52,-124.55 39.23,-134.23 48.62,-129.34 43.52,-124.55"/>
</g>
<!-- Node4 -->
<g id="node4" class="node">
<title>Node4</title>
<g id="a_node4"><a xlink:href="../../de/d01/classnap_1_1rtti_1_1_object.html" target="_top" xlink:title=" ">
<polygon fill="white" stroke="black" points="7,-191.5 7,-210.5 55,-210.5 55,-191.5 7,-191.5"/>
<text text-anchor="middle" x="31" y="-198.5" font-family="Helvetica,sans-Serif" font-size="10.00">Object</text>
</a>
</g>
</g>
<!-- Node4&#45;&gt;Node3 -->
<g id="edge3" class="edge">
<title>Node4&#45;&gt;Node3</title>
<path fill="none" stroke="midnightblue" d="M31,-181.12C31,-171.82 31,-161.06 31,-153.71"/>
<polygon fill="midnightblue" stroke="midnightblue" points="27.5,-181.41 31,-191.41 34.5,-181.41 27.5,-181.41"/>
</g>
<!-- Node5 -->
<g id="node5" class="node">
<title>Node5</title>
<g id="a_node5"><a xlink:href="../../df/dbe/classnap_1_1_sequence_service.html" target="_top" xlink:title=" ">
<polygon fill="white" stroke="black" points="80,-134.5 80,-153.5 180,-153.5 180,-134.5 80,-134.5"/>
<text text-anchor="middle" x="130" y="-141.5" font-family="Helvetica,sans-Serif" font-size="10.00">SequenceService</text>
</a>
</g>
</g>
<!-- Node5&#45;&gt;Node2 -->
<g id="edge4" class="edge">
<title>Node5&#45;&gt;Node2</title>
<path fill="none" stroke="#9a32cd" stroke-dasharray="5,2" d="M119.79,-125.53C112.43,-112.95 102.82,-96.51 97.04,-86.63"/>
<polygon fill="#9a32cd" stroke="#9a32cd" points="116.81,-127.37 124.88,-134.23 122.85,-123.83 116.81,-127.37"/>
<text text-anchor="middle" x="138.5" y="-108" font-family="Helvetica,sans-Serif" font-size="10.00"> mService</text>
</g>
<!-- Node6 -->
<g id="node6" class="node">
<title>Node6</title>
<g id="a_node6"><a xlink:href="../../d8/d8e/classnap_1_1_service.html" target="_top" xlink:title=" ">
<polygon fill="white" stroke="black" points="103.5,-191.5 103.5,-210.5 156.5,-210.5 156.5,-191.5 103.5,-191.5"/>
<text text-anchor="middle" x="130" y="-198.5" font-family="Helvetica,sans-Serif" font-size="10.00">Service</text>
</a>
</g>
</g>
<!-- Node6&#45;&gt;Node5 -->
<g id="edge5" class="edge">
<title>Node6&#45;&gt;Node5</title>
<path fill="none" stroke="midnightblue" d="M130,-181.12C130,-171.82 130,-161.06 130,-153.71"/>
<polygon fill="midnightblue" stroke="midnightblue" points="126.5,-181.41 130,-191.41 133.5,-181.41 126.5,-181.41"/>
</g>
<!-- Node7 -->
<g id="node7" class="node">
<title>Node7</title>
<g id="a_node7"><a xlink:href="../../dd/d7c/classnap_1_1rtti_1_1_object_ptr.html" target="_top" xlink:title=" ">
<polygon fill="white" stroke="black" points="174,-67.5 174,-86.5 332,-86.5 332,-67.5 174,-67.5"/>
<text text-anchor="middle" x="253" y="-74.5" font-family="Helvetica,sans-Serif" font-size="10.00">ObjectPtr&lt; nap::Parameter &gt;</text>
</a>
</g>
</g>
<!-- Node7&#45;&gt;Node1 -->
<g id="edge6" class="edge">
<title>Node7&#45;&gt;Node1</title>
<path fill="none" stroke="#9a32cd" stroke-dasharray="5,2" d="M233.95,-60.71C217.99,-47.91 195.79,-30.09 182.75,-19.63"/>
<polygon fill="#9a32cd" stroke="#9a32cd" points="232.09,-63.7 242.08,-67.23 236.47,-58.25 232.09,-63.7"/>
<text text-anchor="middle" x="250" y="-41" font-family="Helvetica,sans-Serif" font-size="10.00"> mParameter</text>
</g>
<!-- Node8 -->
<g id="node8" class="node">
<title>Node8</title>
<g id="a_node8"><a xlink:href="../../d7/dcb/classnap_1_1rtti_1_1_object_ptr_base.html" target="_top" xlink:title=" ">
<polygon fill="white" stroke="black" points="210,-134.5 210,-153.5 296,-153.5 296,-134.5 210,-134.5"/>
<text text-anchor="middle" x="253" y="-141.5" font-family="Helvetica,sans-Serif" font-size="10.00">ObjectPtrBase</text>
</a>
</g>
</g>
<!-- Node8&#45;&gt;Node7 -->
<g id="edge7" class="edge">
<title>Node8&#45;&gt;Node7</title>
<path fill="none" stroke="midnightblue" d="M253,-124.04C253,-111.67 253,-96.12 253,-86.63"/>
<polygon fill="midnightblue" stroke="midnightblue" points="249.5,-124.23 253,-134.23 256.5,-124.23 249.5,-124.23"/>
</g>
</g>
</svg>
