<?xml version="1.0" encoding="UTF-8" standalone="no"?>
<!DOCTYPE svg PUBLIC "-//W3C//DTD SVG 1.1//EN"
 "http://www.w3.org/Graphics/SVG/1.1/DTD/svg11.dtd">
<!-- Generated by graphviz version 2.43.0 (0)
 -->
<!-- Title: IWebSocketClient Pages: 1 -->
<svg width="644pt" height="179pt"
 viewBox="0.00 0.00 644.00 179.00" xmlns="http://www.w3.org/2000/svg" xmlns:xlink="http://www.w3.org/1999/xlink">
<g id="graph0" class="graph" transform="scale(1 1) rotate(0) translate(4 175)">
<title>IWebSocketClient</title>
<polygon fill="white" stroke="transparent" points="-4,4 -4,-175 640,-175 640,4 -4,4"/>
<!-- Node1 -->
<g id="node1" class="node">
<title>Node1</title>
<g id="a_node1"><a xlink:title=" ">
<polygon fill="#bfbfbf" stroke="black" points="535,-65.5 535,-84.5 636,-84.5 636,-65.5 535,-65.5"/>
<text text-anchor="middle" x="585.5" y="-72.5" font-family="Helvetica,sans-Serif" font-size="10.00">IWebSocketClient</text>
</a>
</g>
</g>
<!-- Node2 -->
<g id="node2" class="node">
<title>Node2</title>
<g id="a_node2"><a xlink:href="../../d6/d44/classnap_1_1_web_socket_interface.html" target="_top" xlink:title=" ">
<polygon fill="white" stroke="black" points="299.5,-137.5 299.5,-156.5 412.5,-156.5 412.5,-137.5 299.5,-137.5"/>
<text text-anchor="middle" x="356" y="-144.5" font-family="Helvetica,sans-Serif" font-size="10.00">WebSocketInterface</text>
</a>
</g>
</g>
<!-- Node2&#45;&gt;Node1 -->
<g id="edge1" class="edge">
<title>Node2&#45;&gt;Node1</title>
<path fill="none" stroke="midnightblue" d="M412.96,-135.26C444.01,-128.1 483.1,-118.02 517,-106 534.02,-99.97 552.61,-91.26 565.96,-84.61"/>
<polygon fill="midnightblue" stroke="midnightblue" points="412.15,-131.86 403.17,-137.48 413.7,-138.68 412.15,-131.86"/>
</g>
<!-- Node3 -->
<g id="node3" class="node">
<title>Node3</title>
<g id="a_node3"><a xlink:href="../../d9/dea/classnap_1_1_resource.html" target="_top" xlink:title=" ">
<polygon fill="white" stroke="black" points="112,-151.5 112,-170.5 174,-170.5 174,-151.5 112,-151.5"/>
<text text-anchor="middle" x="143" y="-158.5" font-family="Helvetica,sans-Serif" font-size="10.00">Resource</text>
</a>
</g>
</g>
<!-- Node3&#45;&gt;Node2 -->
<g id="edge2" class="edge">
<title>Node3&#45;&gt;Node2</title>
<path fill="none" stroke="midnightblue" d="M184.32,-158.32C216.97,-156.16 263.32,-153.08 299.48,-150.68"/>
<polygon fill="midnightblue" stroke="midnightblue" points="183.98,-154.84 174.23,-158.99 184.44,-161.82 183.98,-154.84"/>
</g>
<!-- Node4 -->
<g id="node4" class="node">
<title>Node4</title>
<g id="a_node4"><a xlink:href="../../de/d01/classnap_1_1rtti_1_1_object.html" target="_top" xlink:title=" ">
<polygon fill="white" stroke="black" points="2.5,-151.5 2.5,-170.5 50.5,-170.5 50.5,-151.5 2.5,-151.5"/>
<text text-anchor="middle" x="26.5" y="-158.5" font-family="Helvetica,sans-Serif" font-size="10.00">Object</text>
</a>
</g>
</g>
<!-- Node4&#45;&gt;Node3 -->
<g id="edge3" class="edge">
<title>Node4&#45;&gt;Node3</title>
<path fill="none" stroke="midnightblue" d="M60.77,-161C76.92,-161 96.19,-161 111.9,-161"/>
<polygon fill="midnightblue" stroke="midnightblue" points="60.67,-157.5 50.67,-161 60.67,-164.5 60.67,-157.5"/>
</g>
<!-- Node5 -->
<g id="node5" class="node">
<title>Node5</title>
<g id="a_node5"><a xlink:href="../../dd/d2f/classnap_1_1_web_socket_service.html" target="_top" xlink:title=" ">
<polygon fill="white" stroke="black" points="90,-113.5 90,-132.5 196,-132.5 196,-113.5 90,-113.5"/>
<text text-anchor="middle" x="143" y="-120.5" font-family="Helvetica,sans-Serif" font-size="10.00">WebSocketService</text>
</a>
</g>
</g>
<!-- Node5&#45;&gt;Node2 -->
<g id="edge4" class="edge">
<title>Node5&#45;&gt;Node2</title>
<path fill="none" stroke="#9a32cd" stroke-dasharray="5,2" d="M206.35,-130.09C235.85,-133.45 270.79,-137.42 299.38,-140.67"/>
<polygon fill="#9a32cd" stroke="#9a32cd" points="206.49,-126.59 196.16,-128.93 205.7,-133.54 206.49,-126.59"/>
<text text-anchor="middle" x="238.5" y="-139" font-family="Helvetica,sans-Serif" font-size="10.00"> mService</text>
</g>
<!-- Node6 -->
<g id="node6" class="node">
<title>Node6</title>
<g id="a_node6"><a xlink:href="../../d8/d8e/classnap_1_1_service.html" target="_top" xlink:title=" ">
<polygon fill="white" stroke="black" points="0,-113.5 0,-132.5 53,-132.5 53,-113.5 0,-113.5"/>
<text text-anchor="middle" x="26.5" y="-120.5" font-family="Helvetica,sans-Serif" font-size="10.00">Service</text>
</a>
</g>
</g>
<!-- Node6&#45;&gt;Node5 -->
<g id="edge5" class="edge">
<title>Node6&#45;&gt;Node5</title>
<path fill="none" stroke="midnightblue" d="M63.34,-123C71.7,-123 80.77,-123 89.68,-123"/>
<polygon fill="midnightblue" stroke="midnightblue" points="63.2,-119.5 53.2,-123 63.2,-126.5 63.2,-119.5"/>
</g>
<!-- Node7 -->
<g id="node7" class="node">
<title>Node7</title>
<g id="a_node7"><a xlink:href="../../dd/d7c/classnap_1_1rtti_1_1_object_ptr.html" target="_top" xlink:title=" ">
<polygon fill="white" stroke="black" points="281,-88 281,-118 431,-118 431,-88 281,-88"/>
<text text-anchor="start" x="289" y="-106" font-family="Helvetica,sans-Serif" font-size="10.00">ObjectPtr&lt; nap::WebSocket</text>
<text text-anchor="middle" x="356" y="-95" font-family="Helvetica,sans-Serif" font-size="10.00">Ticket &gt;</text>
</a>
</g>
</g>
<!-- Node7&#45;&gt;Node1 -->
<g id="edge6" class="edge">
<title>Node7&#45;&gt;Node1</title>
<path fill="none" stroke="#9a32cd" stroke-dasharray="5,2" d="M441.27,-92.63C472.75,-88.75 507.46,-84.48 534.83,-81.11"/>
<polygon fill="#9a32cd" stroke="#9a32cd" points="440.67,-89.18 431.18,-93.87 441.53,-96.12 440.67,-89.18"/>
<text text-anchor="middle" x="483" y="-94" font-family="Helvetica,sans-Serif" font-size="10.00"> mTicket</text>
</g>
<!-- Node8 -->
<g id="node8" class="node">
<title>Node8</title>
<g id="a_node8"><a xlink:href="../../d7/dcb/classnap_1_1rtti_1_1_object_ptr_base.html" target="_top" xlink:title=" ">
<polygon fill="white" stroke="black" points="100,-71.5 100,-90.5 186,-90.5 186,-71.5 100,-71.5"/>
<text text-anchor="middle" x="143" y="-78.5" font-family="Helvetica,sans-Serif" font-size="10.00">ObjectPtrBase</text>
</a>
</g>
</g>
<!-- Node8&#45;&gt;Node7 -->
<g id="edge7" class="edge">
<title>Node8&#45;&gt;Node7</title>
<path fill="none" stroke="midnightblue" d="M196.39,-86.46C221.88,-89.12 252.97,-92.36 280.85,-95.27"/>
<polygon fill="midnightblue" stroke="midnightblue" points="196.5,-82.96 186.19,-85.4 195.77,-89.92 196.5,-82.96"/>
</g>
<!-- Node10 -->
<g id="node10" class="node">
<title>Node10</title>
<g id="a_node10"><a xlink:href="../../dd/d7c/classnap_1_1rtti_1_1_object_ptr.html" target="_top" xlink:title=" ">
<polygon fill="white" stroke="black" points="281,-39 281,-69 431,-69 431,-39 281,-39"/>
<text text-anchor="start" x="289" y="-57" font-family="Helvetica,sans-Serif" font-size="10.00">ObjectPtr&lt; nap::WebSocket</text>
<text text-anchor="middle" x="356" y="-46" font-family="Helvetica,sans-Serif" font-size="10.00">ClientEndPoint &gt;</text>
</a>
</g>
</g>
<!-- Node8&#45;&gt;Node10 -->
<g id="edge10" class="edge">
<title>Node8&#45;&gt;Node10</title>
<path fill="none" stroke="midnightblue" d="M196.39,-74.3C221.88,-71.03 252.97,-67.06 280.85,-63.49"/>
<polygon fill="midnightblue" stroke="midnightblue" points="195.67,-70.86 186.19,-75.6 196.56,-77.8 195.67,-70.86"/>
</g>
<!-- Node9 -->
<g id="node9" class="node">
<title>Node9</title>
<g id="a_node9"><a xlink:href="../../d6/d2e/classnap_1_1_web_socket_connection.html" target="_top" xlink:title=" ">
<polygon fill="white" stroke="black" points="293.5,-0.5 293.5,-19.5 418.5,-19.5 418.5,-0.5 293.5,-0.5"/>
<text text-anchor="middle" x="356" y="-7.5" font-family="Helvetica,sans-Serif" font-size="10.00">WebSocketConnection</text>
</a>
</g>
</g>
<!-- Node9&#45;&gt;Node1 -->
<g id="edge8" class="edge">
<title>Node9&#45;&gt;Node1</title>
<path fill="none" stroke="#9a32cd" stroke-dasharray="5,2" d="M424.04,-21.51C452.99,-27.29 487.03,-35.17 517,-45 533.94,-50.55 552.38,-58.92 565.7,-65.41"/>
<polygon fill="#9a32cd" stroke="#9a32cd" points="424.51,-18.04 414.03,-19.56 423.17,-24.91 424.51,-18.04"/>
<text text-anchor="middle" x="483" y="-48" font-family="Helvetica,sans-Serif" font-size="10.00"> mConnection</text>
</g>
<!-- Node10&#45;&gt;Node1 -->
<g id="edge9" class="edge">
<title>Node10&#45;&gt;Node1</title>
<path fill="none" stroke="#9a32cd" stroke-dasharray="5,2" d="M441.14,-59.4C465.63,-61.21 492.41,-63.44 517,-66 522.76,-66.6 528.79,-67.3 534.77,-68.04"/>
<polygon fill="#9a32cd" stroke="#9a32cd" points="441.39,-55.9 431.16,-58.67 440.88,-62.89 441.39,-55.9"/>
<text text-anchor="middle" x="483" y="-69" font-family="Helvetica,sans-Serif" font-size="10.00"> mEndPoint</text>
</g>
</g>
</svg>
