<?xml version="1.0" encoding="UTF-8" standalone="no"?>
<!DOCTYPE svg PUBLIC "-//W3C//DTD SVG 1.1//EN"
 "http://www.w3.org/Graphics/SVG/1.1/DTD/svg11.dtd">
<!-- Generated by graphviz version 2.48.0 (20210717.1556)
 -->
<!-- Title: IWebSocketClient Pages: 1 -->
<svg width="603pt" height="179pt"
 viewBox="0.00 0.00 603.00 179.00" xmlns="http://www.w3.org/2000/svg" xmlns:xlink="http://www.w3.org/1999/xlink">
<g id="graph0" class="graph" transform="scale(1 1) rotate(0) translate(4 175)">
<title>IWebSocketClient</title>
<polygon fill="white" stroke="transparent" points="-4,4 -4,-175 599,-175 599,4 -4,4"/>
<!-- Node6 -->
<g id="node1" class="node">
<title>Node6</title>
<polygon fill="#bfbfbf" stroke="black" points="500,-65.5 500,-84.5 595,-84.5 595,-65.5 500,-65.5"/>
<text text-anchor="middle" x="547.5" y="-72.5" font-family="Helvetica,sans-Serif" font-size="10.00">IWebSocketClient</text>
</g>
<!-- Node7 -->
<g id="node2" class="node">
<title>Node7</title>
<g id="a_node2"><a xlink:href="../../d6/d44/classnap_1_1_web_socket_interface.html" target="_top" xlink:title="WebSocketInterface">
<polygon fill="white" stroke="black" points="281,-137.5 281,-156.5 385,-156.5 385,-137.5 281,-137.5"/>
<text text-anchor="middle" x="333" y="-144.5" font-family="Helvetica,sans-Serif" font-size="10.00">WebSocketInterface</text>
</a>
</g>
</g>
<!-- Node7&#45;&gt;Node6 -->
<g id="edge1" class="edge">
<title>Node7&#45;&gt;Node6</title>
<path fill="none" stroke="midnightblue" d="M385.94,-135.04C414.65,-127.82 450.75,-117.76 482,-106 498.28,-99.88 516.04,-91.18 528.8,-84.55"/>
<polygon fill="midnightblue" stroke="midnightblue" points="384.97,-131.67 376.1,-137.47 386.65,-138.47 384.97,-131.67"/>
</g>
<!-- Node8 -->
<g id="node3" class="node">
<title>Node8</title>
<g id="a_node3"><a xlink:href="../../d9/dea/classnap_1_1_resource.html" target="_top" xlink:title="Resource">
<polygon fill="white" stroke="black" points="105.5,-151.5 105.5,-170.5 163.5,-170.5 163.5,-151.5 105.5,-151.5"/>
<text text-anchor="middle" x="134.5" y="-158.5" font-family="Helvetica,sans-Serif" font-size="10.00">Resource</text>
</a>
</g>
</g>
<!-- Node8&#45;&gt;Node7 -->
<g id="edge2" class="edge">
<title>Node8&#45;&gt;Node7</title>
<path fill="none" stroke="midnightblue" d="M173.88,-158.27C204.36,-156.09 247.26,-153.04 280.69,-150.66"/>
<polygon fill="midnightblue" stroke="midnightblue" points="173.38,-154.79 163.65,-158.99 173.88,-161.77 173.38,-154.79"/>
</g>
<!-- Node9 -->
<g id="node4" class="node">
<title>Node9</title>
<g id="a_node4"><a xlink:href="../../de/d01/classnap_1_1rtti_1_1_object.html" target="_top" xlink:title="Object">
<polygon fill="white" stroke="black" points="1.5,-151.5 1.5,-170.5 46.5,-170.5 46.5,-151.5 1.5,-151.5"/>
<text text-anchor="middle" x="24" y="-158.5" font-family="Helvetica,sans-Serif" font-size="10.00">Object</text>
</a>
</g>
</g>
<!-- Node9&#45;&gt;Node8 -->
<g id="edge3" class="edge">
<title>Node9&#45;&gt;Node8</title>
<path fill="none" stroke="midnightblue" d="M56.78,-161C72.13,-161 90.39,-161 105.25,-161"/>
<polygon fill="midnightblue" stroke="midnightblue" points="56.7,-157.5 46.7,-161 56.7,-164.5 56.7,-157.5"/>
</g>
<!-- Node10 -->
<g id="node5" class="node">
<title>Node10</title>
<g id="a_node5"><a xlink:href="../../dd/d2f/classnap_1_1_web_socket_service.html" target="_top" xlink:title="WebSocketService">
<polygon fill="white" stroke="black" points="85,-113.5 85,-132.5 184,-132.5 184,-113.5 85,-113.5"/>
<text text-anchor="middle" x="134.5" y="-120.5" font-family="Helvetica,sans-Serif" font-size="10.00">WebSocketService</text>
</a>
</g>
</g>
<!-- Node10&#45;&gt;Node7 -->
<g id="edge4" class="edge">
<title>Node10&#45;&gt;Node7</title>
<path fill="none" stroke="#9a32cd" stroke-dasharray="5,2" d="M194,-130.15C221.62,-133.52 254.29,-137.51 280.9,-140.76"/>
<polygon fill="#9a32cd" stroke="#9a32cd" points="194.42,-126.67 184.07,-128.93 193.57,-133.62 194.42,-126.67"/>
<text text-anchor="middle" x="223.5" y="-138" font-family="Helvetica,sans-Serif" font-size="10.00"> mService</text>
</g>
<!-- Node11 -->
<g id="node6" class="node">
<title>Node11</title>
<g id="a_node6"><a xlink:href="../../d8/d8e/classnap_1_1_service.html" target="_top" xlink:title="Service">
<polygon fill="white" stroke="black" points="0,-113.5 0,-132.5 48,-132.5 48,-113.5 0,-113.5"/>
<text text-anchor="middle" x="24" y="-120.5" font-family="Helvetica,sans-Serif" font-size="10.00">Service</text>
</a>
</g>
</g>
<!-- Node11&#45;&gt;Node10 -->
<g id="edge5" class="edge">
<title>Node11&#45;&gt;Node10</title>
<path fill="none" stroke="midnightblue" d="M58.11,-123C66.49,-123 75.66,-123 84.63,-123"/>
<polygon fill="midnightblue" stroke="midnightblue" points="58.01,-119.5 48.01,-123 58.01,-126.5 58.01,-119.5"/>
</g>
<!-- Node12 -->
<g id="node7" class="node">
<title>Node12</title>
<g id="a_node7"><a xlink:href="../../dd/d7c/classnap_1_1rtti_1_1_object_ptr.html" target="_top" xlink:title="ObjectPtr\&lt; nap::WebSocket\lTicket \&gt;">
<polygon fill="white" stroke="black" points="263,-88 263,-118 403,-118 403,-88 263,-88"/>
<text text-anchor="start" x="271" y="-106" font-family="Helvetica,sans-Serif" font-size="10.00">ObjectPtr&lt; nap::WebSocket</text>
<text text-anchor="middle" x="333" y="-95" font-family="Helvetica,sans-Serif" font-size="10.00">Ticket &gt;</text>
</a>
</g>
</g>
<!-- Node12&#45;&gt;Node6 -->
<g id="edge6" class="edge">
<title>Node12&#45;&gt;Node6</title>
<path fill="none" stroke="#9a32cd" stroke-dasharray="5,2" d="M413.44,-92.53C442.53,-88.7 474.48,-84.49 499.78,-81.16"/>
<polygon fill="#9a32cd" stroke="#9a32cd" points="412.74,-89.09 403.29,-93.87 413.66,-96.03 412.74,-89.09"/>
<text text-anchor="middle" x="451.5" y="-94" font-family="Helvetica,sans-Serif" font-size="10.00"> mTicket</text>
</g>
<!-- Node13 -->
<g id="node8" class="node">
<title>Node13</title>
<g id="a_node8"><a xlink:href="../../d7/dcb/classnap_1_1rtti_1_1_object_ptr_base.html" target="_top" xlink:title="ObjectPtrBase">
<polygon fill="white" stroke="black" points="94.5,-71.5 94.5,-90.5 174.5,-90.5 174.5,-71.5 94.5,-71.5"/>
<text text-anchor="middle" x="134.5" y="-78.5" font-family="Helvetica,sans-Serif" font-size="10.00">ObjectPtrBase</text>
</a>
</g>
</g>
<!-- Node13&#45;&gt;Node12 -->
<g id="edge7" class="edge">
<title>Node13&#45;&gt;Node12</title>
<path fill="none" stroke="midnightblue" d="M184.92,-86.53C208.54,-89.18 237.21,-92.39 262.94,-95.27"/>
<polygon fill="midnightblue" stroke="midnightblue" points="185.12,-83.03 174.79,-85.4 184.34,-89.99 185.12,-83.03"/>
</g>
<!-- Node15 -->
<g id="node10" class="node">
<title>Node15</title>
<g id="a_node10"><a xlink:href="../../dd/d7c/classnap_1_1rtti_1_1_object_ptr.html" target="_top" xlink:title="ObjectPtr\&lt; nap::WebSocket\lClientEndPoint \&gt;">
<polygon fill="white" stroke="black" points="263,-39 263,-69 403,-69 403,-39 263,-39"/>
<text text-anchor="start" x="271" y="-57" font-family="Helvetica,sans-Serif" font-size="10.00">ObjectPtr&lt; nap::WebSocket</text>
<text text-anchor="middle" x="333" y="-46" font-family="Helvetica,sans-Serif" font-size="10.00">ClientEndPoint &gt;</text>
</a>
</g>
</g>
<!-- Node13&#45;&gt;Node15 -->
<g id="edge10" class="edge">
<title>Node13&#45;&gt;Node15</title>
<path fill="none" stroke="midnightblue" d="M184.92,-74.21C208.54,-70.96 237.21,-67.02 262.94,-63.49"/>
<polygon fill="midnightblue" stroke="midnightblue" points="184.22,-70.77 174.79,-75.6 185.18,-77.71 184.22,-70.77"/>
</g>
<!-- Node14 -->
<g id="node9" class="node">
<title>Node14</title>
<g id="a_node9"><a xlink:href="../../d6/d2e/classnap_1_1_web_socket_connection.html" target="_top" xlink:title="WebSocketConnection">
<polygon fill="white" stroke="black" points="275,-0.5 275,-19.5 391,-19.5 391,-0.5 275,-0.5"/>
<text text-anchor="middle" x="333" y="-7.5" font-family="Helvetica,sans-Serif" font-size="10.00">WebSocketConnection</text>
</a>
</g>
</g>
<!-- Node14&#45;&gt;Node6 -->
<g id="edge8" class="edge">
<title>Node14&#45;&gt;Node6</title>
<path fill="none" stroke="#9a32cd" stroke-dasharray="5,2" d="M395.8,-21.68C422.65,-27.5 454.24,-35.37 482,-45 498.22,-50.62 515.84,-58.99 528.56,-65.45"/>
<polygon fill="#9a32cd" stroke="#9a32cd" points="396.27,-18.2 385.76,-19.55 394.82,-25.05 396.27,-18.2"/>
<text text-anchor="middle" x="451.5" y="-48" font-family="Helvetica,sans-Serif" font-size="10.00"> mConnection</text>
</g>
<!-- Node15&#45;&gt;Node6 -->
<g id="edge9" class="edge">
<title>Node15&#45;&gt;Node6</title>
<path fill="none" stroke="#9a32cd" stroke-dasharray="5,2" d="M413.41,-59.59C435.63,-61.38 459.78,-63.55 482,-66 487.73,-66.63 493.74,-67.37 499.69,-68.14"/>
<polygon fill="#9a32cd" stroke="#9a32cd" points="413.59,-56.09 403.35,-58.79 413.04,-63.07 413.59,-56.09"/>
<text text-anchor="middle" x="451.5" y="-69" font-family="Helvetica,sans-Serif" font-size="10.00"> mEndPoint</text>
</g>
</g>
</svg>
