<?xml version="1.0" encoding="UTF-8" standalone="no"?>
<!DOCTYPE svg PUBLIC "-//W3C//DTD SVG 1.1//EN"
 "http://www.w3.org/Graphics/SVG/1.1/DTD/svg11.dtd">
<!-- Generated by graphviz version 3.0.0 (20220226.1711)
 -->
<!-- Title: TrackAction Pages: 1 -->
<svg width="363pt" height="1682pt"
 viewBox="0.00 0.00 363.00 1682.00" xmlns="http://www.w3.org/2000/svg" xmlns:xlink="http://www.w3.org/1999/xlink">
<g id="graph0" class="graph" transform="scale(1 1) rotate(0) translate(4 1678)">
<title>TrackAction</title>
<polygon fill="white" stroke="transparent" points="-4,4 -4,-1678 359,-1678 359,4 -4,4"/>
<!-- Node0 -->
<g id="node1" class="node">
<title>Node0</title>
<polygon fill="#bfbfbf" stroke="black" points="80,-816.5 80,-835.5 148,-835.5 148,-816.5 80,-816.5"/>
<text text-anchor="middle" x="114" y="-823.5" font-family="Helvetica,sans-Serif" font-size="10.00">TrackAction</text>
</g>
<!-- Node2 -->
<g id="node3" class="node">
<title>Node2</title>
<g id="a_node3"><a xlink:href="../../de/dea/classnap_1_1sequenceguiactions_1_1_assign_output_i_d_to_track.html" target="_top" xlink:title="AssignOutputIDToTrack">
<polygon fill="white" stroke="black" points="210,-1654.5 210,-1673.5 329,-1673.5 329,-1654.5 210,-1654.5"/>
<text text-anchor="middle" x="269.5" y="-1661.5" font-family="Helvetica,sans-Serif" font-size="10.00">AssignOutputIDToTrack</text>
</a>
</g>
</g>
<!-- Node0&#45;&gt;Node2 -->
<g id="edge2" class="edge">
<title>Node0&#45;&gt;Node2</title>
<path fill="none" stroke="midnightblue" d="M115.29,-845.67C117.21,-964.43 129.79,-1582.8 184,-1645 190.72,-1652.71 199.83,-1657.66 209.59,-1660.78"/>
<polygon fill="midnightblue" stroke="midnightblue" points="118.79,-845.45 115.13,-835.5 111.79,-845.56 118.79,-845.45"/>
</g>
<!-- Node3 -->
<g id="node4" class="node">
<title>Node3</title>
<g id="a_node4"><a xlink:href="../../d1/d16/classnap_1_1sequenceguiactions_1_1_change_min_max_curve.html" target="_top" xlink:title="ChangeMinMaxCurve\&lt; T \&gt;">
<polygon fill="white" stroke="black" points="204,-1616.5 204,-1635.5 335,-1635.5 335,-1616.5 204,-1616.5"/>
<text text-anchor="middle" x="269.5" y="-1623.5" font-family="Helvetica,sans-Serif" font-size="10.00">ChangeMinMaxCurve&lt; T &gt;</text>
</a>
</g>
</g>
<!-- Node0&#45;&gt;Node3 -->
<g id="edge3" class="edge">
<title>Node0&#45;&gt;Node3</title>
<path fill="none" stroke="midnightblue" d="M115.38,-845.82C117.76,-961.67 132.33,-1547.95 184,-1607 189.35,-1613.11 196.2,-1617.49 203.68,-1620.59"/>
<polygon fill="midnightblue" stroke="midnightblue" points="118.87,-845.52 115.17,-835.59 111.87,-845.66 118.87,-845.52"/>
</g>
<!-- Node4 -->
<g id="node5" class="node">
<title>Node4</title>
<g id="a_node5"><a xlink:href="../../d6/db2/classnap_1_1sequenceguiactions_1_1_change_track_name.html" target="_top" xlink:title="ChangeTrackName">
<polygon fill="white" stroke="black" points="220,-1578.5 220,-1597.5 319,-1597.5 319,-1578.5 220,-1578.5"/>
<text text-anchor="middle" x="269.5" y="-1585.5" font-family="Helvetica,sans-Serif" font-size="10.00">ChangeTrackName</text>
</a>
</g>
</g>
<!-- Node0&#45;&gt;Node4 -->
<g id="edge4" class="edge">
<title>Node0&#45;&gt;Node4</title>
<path fill="none" stroke="midnightblue" d="M115.47,-845.9C118.33,-958.54 134.85,-1513.09 184,-1569 193.03,-1579.28 206.32,-1584.65 219.7,-1587.3"/>
<polygon fill="midnightblue" stroke="midnightblue" points="118.97,-845.56 115.22,-835.64 111.97,-845.73 118.97,-845.56"/>
</g>
<!-- Node5 -->
<g id="node6" class="node">
<title>Node5</title>
<g id="a_node6"><a xlink:href="../../de/d18/classnap_1_1sequenceguiactions_1_1_curve_point_action_popup.html" target="_top" xlink:title="CurvePointActionPopup\&lt; T \&gt;">
<polygon fill="white" stroke="black" points="198.5,-1540.5 198.5,-1559.5 340.5,-1559.5 340.5,-1540.5 198.5,-1540.5"/>
<text text-anchor="middle" x="269.5" y="-1547.5" font-family="Helvetica,sans-Serif" font-size="10.00">CurvePointActionPopup&lt; T &gt;</text>
</a>
</g>
</g>
<!-- Node0&#45;&gt;Node5 -->
<g id="edge5" class="edge">
<title>Node0&#45;&gt;Node5</title>
<path fill="none" stroke="midnightblue" d="M115.58,-845.9C118.93,-955.05 137.35,-1478.2 184,-1531 188.08,-1535.62 193.02,-1539.25 198.44,-1542.08"/>
<polygon fill="midnightblue" stroke="midnightblue" points="119.07,-845.55 115.27,-835.66 112.07,-845.76 119.07,-845.55"/>
</g>
<!-- Node6 -->
<g id="node7" class="node">
<title>Node6</title>
<g id="a_node7"><a xlink:href="../../dc/d56/classnap_1_1sequenceguiactions_1_1_curve_type_popup.html" target="_top" xlink:title="CurveTypePopup">
<polygon fill="white" stroke="black" points="225,-1502.5 225,-1521.5 314,-1521.5 314,-1502.5 225,-1502.5"/>
<text text-anchor="middle" x="269.5" y="-1509.5" font-family="Helvetica,sans-Serif" font-size="10.00">CurveTypePopup</text>
</a>
</g>
</g>
<!-- Node0&#45;&gt;Node6 -->
<g id="edge6" class="edge">
<title>Node0&#45;&gt;Node6</title>
<path fill="none" stroke="midnightblue" d="M115.69,-845.8C119.55,-951.2 139.84,-1443.3 184,-1493 194.19,-1504.47 209.67,-1509.81 224.61,-1512.09"/>
<polygon fill="midnightblue" stroke="midnightblue" points="119.18,-845.49 115.33,-835.62 112.19,-845.74 119.18,-845.49"/>
</g>
<!-- Node7 -->
<g id="node8" class="node">
<title>Node7</title>
<g id="a_node8"><a xlink:href="../../d5/d4a/classnap_1_1sequenceguiactions_1_1_delete_track.html" target="_top" xlink:title="DeleteTrack">
<polygon fill="white" stroke="black" points="235.5,-1464.5 235.5,-1483.5 303.5,-1483.5 303.5,-1464.5 235.5,-1464.5"/>
<text text-anchor="middle" x="269.5" y="-1471.5" font-family="Helvetica,sans-Serif" font-size="10.00">DeleteTrack</text>
</a>
</g>
</g>
<!-- Node0&#45;&gt;Node7 -->
<g id="edge7" class="edge">
<title>Node0&#45;&gt;Node7</title>
<path fill="none" stroke="midnightblue" d="M115.81,-845.62C120.19,-946.98 142.32,-1408.37 184,-1455 196.73,-1469.24 217.62,-1474.02 235.45,-1475.23"/>
<polygon fill="midnightblue" stroke="midnightblue" points="119.31,-845.39 115.39,-835.55 112.31,-845.69 119.31,-845.39"/>
</g>
<!-- Node8 -->
<g id="node9" class="node">
<title>Node8</title>
<g id="a_node9"><a xlink:href="../../d1/dbc/classnap_1_1sequenceguiactions_1_1_dragging_control_point.html" target="_top" xlink:title="DraggingControlPoint">
<polygon fill="white" stroke="black" points="215.5,-1426.5 215.5,-1445.5 323.5,-1445.5 323.5,-1426.5 215.5,-1426.5"/>
<text text-anchor="middle" x="269.5" y="-1433.5" font-family="Helvetica,sans-Serif" font-size="10.00">DraggingControlPoint</text>
</a>
</g>
</g>
<!-- Node0&#45;&gt;Node8 -->
<g id="edge8" class="edge">
<title>Node0&#45;&gt;Node8</title>
<path fill="none" stroke="midnightblue" d="M115.98,-845.96C120.96,-944.22 144.86,-1373.52 184,-1417 192.15,-1426.05 203.6,-1431.28 215.45,-1434.19"/>
<polygon fill="midnightblue" stroke="midnightblue" points="119.47,-845.71 115.47,-835.89 112.48,-846.05 119.47,-845.71"/>
</g>
<!-- Node9 -->
<g id="node10" class="node">
<title>Node9</title>
<g id="a_node10"><a xlink:href="../../d0/d5e/classnap_1_1sequenceguiactions_1_1_dragging_left_audio_segment_handler.html" target="_top" xlink:title="DraggingLeftAudioSegment\lHandler">
<polygon fill="white" stroke="black" points="202.5,-1377 202.5,-1407 336.5,-1407 336.5,-1377 202.5,-1377"/>
<text text-anchor="start" x="210.5" y="-1395" font-family="Helvetica,sans-Serif" font-size="10.00">DraggingLeftAudioSegment</text>
<text text-anchor="middle" x="269.5" y="-1384" font-family="Helvetica,sans-Serif" font-size="10.00">Handler</text>
</a>
</g>
</g>
<!-- Node0&#45;&gt;Node9 -->
<g id="edge9" class="edge">
<title>Node0&#45;&gt;Node9</title>
<path fill="none" stroke="midnightblue" d="M114.71,-846.14C113.86,-934.58 114.89,-1287.65 184,-1368 189.07,-1373.9 195.48,-1378.4 202.48,-1381.82"/>
<polygon fill="midnightblue" stroke="midnightblue" points="118.21,-845.92 114.83,-835.88 111.21,-845.84 118.21,-845.92"/>
</g>
<!-- Node10 -->
<g id="node11" class="node">
<title>Node10</title>
<g id="a_node11"><a xlink:href="../../d8/d17/classnap_1_1sequenceguiactions_1_1_dragging_right_audio_segment_handler.html" target="_top" xlink:title="DraggingRightAudioSegment\lHandler">
<polygon fill="white" stroke="black" points="199,-1328 199,-1358 340,-1358 340,-1328 199,-1328"/>
<text text-anchor="start" x="207" y="-1346" font-family="Helvetica,sans-Serif" font-size="10.00">DraggingRightAudioSegment</text>
<text text-anchor="middle" x="269.5" y="-1335" font-family="Helvetica,sans-Serif" font-size="10.00">Handler</text>
</a>
</g>
</g>
<!-- Node0&#45;&gt;Node10 -->
<g id="edge10" class="edge">
<title>Node0&#45;&gt;Node10</title>
<path fill="none" stroke="midnightblue" d="M115.02,-845.83C115.51,-928.58 121.49,-1245.45 184,-1318 188.19,-1322.87 193.29,-1326.81 198.87,-1330"/>
<polygon fill="midnightblue" stroke="midnightblue" points="118.52,-845.74 114.98,-835.76 111.52,-845.77 118.52,-845.74"/>
</g>
<!-- Node11 -->
<g id="node12" class="node">
<title>Node11</title>
<g id="a_node12"><a xlink:href="../../dc/d74/classnap_1_1sequenceguiactions_1_1_dragging_segment.html" target="_top" xlink:title="DraggingSegment">
<polygon fill="white" stroke="black" points="222.5,-1289.5 222.5,-1308.5 316.5,-1308.5 316.5,-1289.5 222.5,-1289.5"/>
<text text-anchor="middle" x="269.5" y="-1296.5" font-family="Helvetica,sans-Serif" font-size="10.00">DraggingSegment</text>
</a>
</g>
</g>
<!-- Node0&#45;&gt;Node11 -->
<g id="edge11" class="edge">
<title>Node0&#45;&gt;Node11</title>
<path fill="none" stroke="midnightblue" d="M115.15,-845.9C116.18,-924.96 124.03,-1215.66 184,-1280 193.84,-1290.56 208.19,-1295.87 222.27,-1298.39"/>
<polygon fill="midnightblue" stroke="midnightblue" points="118.65,-845.79 115.05,-835.82 111.65,-845.86 118.65,-845.79"/>
</g>
<!-- Node12 -->
<g id="node13" class="node">
<title>Node12</title>
<g id="a_node13"><a xlink:href="../../d2/d10/classnap_1_1sequenceguiactions_1_1_dragging_segment_value.html" target="_top" xlink:title="DraggingSegmentValue">
<polygon fill="white" stroke="black" points="210,-1251.5 210,-1270.5 329,-1270.5 329,-1251.5 210,-1251.5"/>
<text text-anchor="middle" x="269.5" y="-1258.5" font-family="Helvetica,sans-Serif" font-size="10.00">DraggingSegmentValue</text>
</a>
</g>
</g>
<!-- Node0&#45;&gt;Node12 -->
<g id="edge12" class="edge">
<title>Node0&#45;&gt;Node12</title>
<path fill="none" stroke="midnightblue" d="M115.46,-846.12C117.61,-921.21 129,-1183.78 184,-1242 190.92,-1249.32 200,-1254.11 209.65,-1257.2"/>
<polygon fill="midnightblue" stroke="midnightblue" points="118.95,-845.64 115.19,-835.73 111.95,-845.82 118.95,-845.64"/>
</g>
<!-- Node13 -->
<g id="node14" class="node">
<title>Node13</title>
<g id="a_node14"><a xlink:href="../../d5/dfb/classnap_1_1sequenceguiactions_1_1_dragging_tan_point.html" target="_top" xlink:title="DraggingTanPoint">
<polygon fill="white" stroke="black" points="223,-1213.5 223,-1232.5 316,-1232.5 316,-1213.5 223,-1213.5"/>
<text text-anchor="middle" x="269.5" y="-1220.5" font-family="Helvetica,sans-Serif" font-size="10.00">DraggingTanPoint</text>
</a>
</g>
</g>
<!-- Node0&#45;&gt;Node13 -->
<g id="edge13" class="edge">
<title>Node0&#45;&gt;Node13</title>
<path fill="none" stroke="midnightblue" d="M115.81,-845.62C119.09,-915.63 133.78,-1151.7 184,-1204 194.1,-1214.52 208.68,-1219.8 222.89,-1222.29"/>
<polygon fill="midnightblue" stroke="midnightblue" points="119.3,-845.37 115.36,-835.54 112.31,-845.68 119.3,-845.37"/>
</g>
<!-- Node14 -->
<g id="node15" class="node">
<title>Node14</title>
<g id="a_node15"><a xlink:href="../../d9/da1/classnap_1_1sequenceguiactions_1_1_editing_audio_segment_popup.html" target="_top" xlink:title="EditingAudioSegmentPopup">
<polygon fill="white" stroke="black" points="200.5,-1175.5 200.5,-1194.5 338.5,-1194.5 338.5,-1175.5 200.5,-1175.5"/>
<text text-anchor="middle" x="269.5" y="-1182.5" font-family="Helvetica,sans-Serif" font-size="10.00">EditingAudioSegmentPopup</text>
</a>
</g>
</g>
<!-- Node0&#45;&gt;Node14 -->
<g id="edge14" class="edge">
<title>Node0&#45;&gt;Node14</title>
<path fill="none" stroke="midnightblue" d="M116.25,-845.73C120.81,-911.2 138.68,-1119.72 184,-1166 188.63,-1170.73 194.16,-1174.39 200.15,-1177.22"/>
<polygon fill="midnightblue" stroke="midnightblue" points="119.73,-845.3 115.57,-835.55 112.75,-845.76 119.73,-845.3"/>
</g>
<!-- Node15 -->
<g id="node16" class="node">
<title>Node15</title>
<g id="a_node16"><a xlink:href="../../dc/d2b/classnap_1_1sequenceguiactions_1_1_editing_curve_segment.html" target="_top" xlink:title="EditingCurveSegment">
<polygon fill="white" stroke="black" points="214.5,-1137.5 214.5,-1156.5 324.5,-1156.5 324.5,-1137.5 214.5,-1137.5"/>
<text text-anchor="middle" x="269.5" y="-1144.5" font-family="Helvetica,sans-Serif" font-size="10.00">EditingCurveSegment</text>
</a>
</g>
</g>
<!-- Node0&#45;&gt;Node15 -->
<g id="edge15" class="edge">
<title>Node0&#45;&gt;Node15</title>
<path fill="none" stroke="midnightblue" d="M116.81,-845.86C122.74,-906.52 143.56,-1087.7 184,-1128 192.2,-1136.17 203.11,-1141.15 214.36,-1144.11"/>
<polygon fill="midnightblue" stroke="midnightblue" points="120.27,-845.33 115.85,-835.7 113.31,-845.99 120.27,-845.33"/>
</g>
<!-- Node16 -->
<g id="node17" class="node">
<title>Node16</title>
<g id="a_node17"><a xlink:href="../../df/dec/classnap_1_1sequenceguiactions_1_1_editing_event_segment.html" target="_top" xlink:title="EditingEventSegment\&lt; T \&gt;">
<polygon fill="white" stroke="black" points="203,-1099.5 203,-1118.5 336,-1118.5 336,-1099.5 203,-1099.5"/>
<text text-anchor="middle" x="269.5" y="-1106.5" font-family="Helvetica,sans-Serif" font-size="10.00">EditingEventSegment&lt; T &gt;</text>
</a>
</g>
</g>
<!-- Node0&#45;&gt;Node16 -->
<g id="edge16" class="edge">
<title>Node0&#45;&gt;Node16</title>
<path fill="none" stroke="midnightblue" d="M117.51,-845.85C124.91,-901.22 148.38,-1055.58 184,-1090 189.41,-1095.22 195.93,-1099.13 202.91,-1102.04"/>
<polygon fill="midnightblue" stroke="midnightblue" points="120.94,-845.08 116.18,-835.62 114,-845.98 120.94,-845.08"/>
</g>
<!-- Node17 -->
<g id="node18" class="node">
<title>Node17</title>
<g id="a_node18"><a xlink:href="../../d9/d29/classnap_1_1sequenceguiactions_1_1_editing_segment_curve_value.html" target="_top" xlink:title="EditingSegmentCurveValue\&lt; T \&gt;">
<polygon fill="white" stroke="black" points="190.5,-1061.5 190.5,-1080.5 348.5,-1080.5 348.5,-1061.5 190.5,-1061.5"/>
<text text-anchor="middle" x="269.5" y="-1068.5" font-family="Helvetica,sans-Serif" font-size="10.00">EditingSegmentCurveValue&lt; T &gt;</text>
</a>
</g>
</g>
<!-- Node0&#45;&gt;Node17 -->
<g id="edge17" class="edge">
<title>Node0&#45;&gt;Node17</title>
<path fill="none" stroke="midnightblue" d="M114.83,-845.95C115.6,-890.05 123.96,-996.31 184,-1052 188.08,-1055.78 192.74,-1058.87 197.74,-1061.38"/>
<polygon fill="midnightblue" stroke="midnightblue" points="118.33,-845.9 114.77,-835.92 111.33,-845.94 118.33,-845.9"/>
</g>
<!-- Node18 -->
<g id="node19" class="node">
<title>Node18</title>
<g id="a_node19"><a xlink:href="../../d2/dcf/classnap_1_1sequenceguiactions_1_1_editing_segment_popup.html" target="_top" xlink:title="EditingSegmentPopup">
<polygon fill="white" stroke="black" points="213,-1023.5 213,-1042.5 326,-1042.5 326,-1023.5 213,-1023.5"/>
<text text-anchor="middle" x="269.5" y="-1030.5" font-family="Helvetica,sans-Serif" font-size="10.00">EditingSegmentPopup</text>
</a>
</g>
</g>
<!-- Node0&#45;&gt;Node18 -->
<g id="edge18" class="edge">
<title>Node0&#45;&gt;Node18</title>
<path fill="none" stroke="midnightblue" d="M116.26,-845.95C119.82,-884.54 133.31,-969.53 184,-1014 192.14,-1021.14 202.38,-1025.77 212.91,-1028.73"/>
<polygon fill="midnightblue" stroke="midnightblue" points="119.72,-845.25 115.45,-835.56 112.74,-845.8 119.72,-845.25"/>
</g>
<!-- Node19 -->
<g id="node20" class="node">
<title>Node19</title>
<g id="a_node20"><a xlink:href="../../dc/dd7/classnap_1_1sequenceguiactions_1_1_editing_tan_point_popup.html" target="_top" xlink:title="EditingTanPointPopup">
<polygon fill="white" stroke="black" points="213,-985.5 213,-1004.5 326,-1004.5 326,-985.5 213,-985.5"/>
<text text-anchor="middle" x="269.5" y="-992.5" font-family="Helvetica,sans-Serif" font-size="10.00">EditingTanPointPopup</text>
</a>
</g>
</g>
<!-- Node0&#45;&gt;Node19 -->
<g id="edge19" class="edge">
<title>Node0&#45;&gt;Node19</title>
<path fill="none" stroke="midnightblue" d="M118.26,-845.49C124.73,-877.81 142.34,-942.29 184,-976 192.3,-982.72 202.49,-987.17 212.89,-990.1"/>
<polygon fill="midnightblue" stroke="midnightblue" points="121.67,-844.7 116.41,-835.5 114.79,-845.97 121.67,-844.7"/>
</g>
<!-- Node20 -->
<g id="node21" class="node">
<title>Node20</title>
<g id="a_node21"><a xlink:href="../../d9/d40/classnap_1_1sequenceguiactions_1_1_hovering_control_point.html" target="_top" xlink:title="HoveringControlPoint">
<polygon fill="white" stroke="black" points="216,-947.5 216,-966.5 323,-966.5 323,-947.5 216,-947.5"/>
<text text-anchor="middle" x="269.5" y="-954.5" font-family="Helvetica,sans-Serif" font-size="10.00">HoveringControlPoint</text>
</a>
</g>
</g>
<!-- Node0&#45;&gt;Node20 -->
<g id="edge20" class="edge">
<title>Node0&#45;&gt;Node20</title>
<path fill="none" stroke="midnightblue" d="M121.44,-845.19C130.97,-870.53 151.31,-914.66 184,-938 193.3,-944.64 204.53,-949.01 215.72,-951.88"/>
<polygon fill="midnightblue" stroke="midnightblue" points="124.67,-843.83 118.01,-835.59 118.08,-846.19 124.67,-843.83"/>
</g>
<!-- Node21 -->
<g id="node22" class="node">
<title>Node21</title>
<g id="a_node22"><a xlink:href="../../d2/db3/classnap_1_1sequenceguiactions_1_1_hovering_curve.html" target="_top" xlink:title="HoveringCurve">
<polygon fill="white" stroke="black" points="231,-909.5 231,-928.5 308,-928.5 308,-909.5 231,-909.5"/>
<text text-anchor="middle" x="269.5" y="-916.5" font-family="Helvetica,sans-Serif" font-size="10.00">HoveringCurve</text>
</a>
</g>
</g>
<!-- Node0&#45;&gt;Node21 -->
<g id="edge21" class="edge">
<title>Node0&#45;&gt;Node21</title>
<path fill="none" stroke="midnightblue" d="M127.06,-844.23C139.34,-861.31 159.96,-886.21 184,-900 198.22,-908.15 215.65,-912.81 230.98,-915.47"/>
<polygon fill="midnightblue" stroke="midnightblue" points="129.7,-841.89 121.13,-835.67 123.95,-845.88 129.7,-841.89"/>
</g>
<!-- Node22 -->
<g id="node23" class="node">
<title>Node22</title>
<g id="a_node23"><a xlink:href="../../d2/d56/classnap_1_1sequenceguiactions_1_1_hovering_left_audio_segment_handler.html" target="_top" xlink:title="HoveringLeftAudioSegment\lHandler">
<polygon fill="white" stroke="black" points="203,-860 203,-890 336,-890 336,-860 203,-860"/>
<text text-anchor="start" x="211" y="-878" font-family="Helvetica,sans-Serif" font-size="10.00">HoveringLeftAudioSegment</text>
<text text-anchor="middle" x="269.5" y="-867" font-family="Helvetica,sans-Serif" font-size="10.00">Handler</text>
</a>
</g>
</g>
<!-- Node0&#45;&gt;Node22 -->
<g id="edge22" class="edge">
<title>Node0&#45;&gt;Node22</title>
<path fill="none" stroke="midnightblue" d="M149.71,-839.12C160.63,-843.1 172.77,-847.37 184,-851 193.43,-854.04 203.52,-857.09 213.33,-859.94"/>
<polygon fill="midnightblue" stroke="midnightblue" points="150.68,-835.75 140.09,-835.57 148.26,-842.32 150.68,-835.75"/>
</g>
<!-- Node23 -->
<g id="node24" class="node">
<title>Node23</title>
<g id="a_node24"><a xlink:href="../../df/d05/classnap_1_1sequenceguiactions_1_1_hovering_right_audio_segment_handler.html" target="_top" xlink:title="HoveringRightAudioSegment\lHandler">
<polygon fill="white" stroke="black" points="199.5,-811 199.5,-841 339.5,-841 339.5,-811 199.5,-811"/>
<text text-anchor="start" x="207.5" y="-829" font-family="Helvetica,sans-Serif" font-size="10.00">HoveringRightAudioSegment</text>
<text text-anchor="middle" x="269.5" y="-818" font-family="Helvetica,sans-Serif" font-size="10.00">Handler</text>
</a>
</g>
</g>
<!-- Node0&#45;&gt;Node23 -->
<g id="edge23" class="edge">
<title>Node0&#45;&gt;Node23</title>
<path fill="none" stroke="midnightblue" d="M158.58,-826C171.27,-826 185.46,-826 199.32,-826"/>
<polygon fill="midnightblue" stroke="midnightblue" points="158.31,-822.5 148.31,-826 158.31,-829.5 158.31,-822.5"/>
</g>
<!-- Node24 -->
<g id="node25" class="node">
<title>Node24</title>
<g id="a_node25"><a xlink:href="../../da/d1c/classnap_1_1sequenceguiactions_1_1_hovering_segment.html" target="_top" xlink:title="HoveringSegment">
<polygon fill="white" stroke="black" points="223.5,-772.5 223.5,-791.5 315.5,-791.5 315.5,-772.5 223.5,-772.5"/>
<text text-anchor="middle" x="269.5" y="-779.5" font-family="Helvetica,sans-Serif" font-size="10.00">HoveringSegment</text>
</a>
</g>
</g>
<!-- Node0&#45;&gt;Node24 -->
<g id="edge24" class="edge">
<title>Node0&#45;&gt;Node24</title>
<path fill="none" stroke="midnightblue" d="M148.44,-812.92C159.65,-808.8 172.27,-804.43 184,-801 196.7,-797.29 210.65,-793.88 223.5,-791.01"/>
<polygon fill="midnightblue" stroke="midnightblue" points="147.16,-809.66 139.02,-816.45 149.61,-816.22 147.16,-809.66"/>
</g>
<!-- Node25 -->
<g id="node26" class="node">
<title>Node25</title>
<g id="a_node26"><a xlink:href="../../d9/d7f/classnap_1_1sequenceguiactions_1_1_hovering_segment_value.html" target="_top" xlink:title="HoveringSegmentValue">
<polygon fill="white" stroke="black" points="211,-734.5 211,-753.5 328,-753.5 328,-734.5 211,-734.5"/>
<text text-anchor="middle" x="269.5" y="-741.5" font-family="Helvetica,sans-Serif" font-size="10.00">HoveringSegmentValue</text>
</a>
</g>
</g>
<!-- Node0&#45;&gt;Node25 -->
<g id="edge25" class="edge">
<title>Node0&#45;&gt;Node25</title>
<path fill="none" stroke="midnightblue" d="M129.48,-808.46C142.32,-794.07 162.36,-774.28 184,-763 192.27,-758.69 201.49,-755.35 210.71,-752.77"/>
<polygon fill="midnightblue" stroke="midnightblue" points="126.67,-806.35 122.79,-816.21 131.97,-810.93 126.67,-806.35"/>
</g>
<!-- Node26 -->
<g id="node27" class="node">
<title>Node26</title>
<g id="a_node27"><a xlink:href="../../d0/da6/classnap_1_1sequenceguiactions_1_1_hovering_tan_point.html" target="_top" xlink:title="HoveringTanPoint">
<polygon fill="white" stroke="black" points="223.5,-696.5 223.5,-715.5 315.5,-715.5 315.5,-696.5 223.5,-696.5"/>
<text text-anchor="middle" x="269.5" y="-703.5" font-family="Helvetica,sans-Serif" font-size="10.00">HoveringTanPoint</text>
</a>
</g>
</g>
<!-- Node0&#45;&gt;Node26 -->
<g id="edge26" class="edge">
<title>Node0&#45;&gt;Node26</title>
<path fill="none" stroke="midnightblue" d="M122.7,-807.02C133.09,-783.92 153.83,-745.48 184,-725 195.57,-717.15 209.89,-712.49 223.43,-709.75"/>
<polygon fill="midnightblue" stroke="midnightblue" points="119.39,-805.86 118.66,-816.43 125.82,-808.62 119.39,-805.86"/>
</g>
<!-- Node27 -->
<g id="node28" class="node">
<title>Node27</title>
<g id="a_node28"><a xlink:href="../../da/db4/classnap_1_1sequenceguiactions_1_1_inserting_audio_segment_popup.html" target="_top" xlink:title="InsertingAudioSegmentPopup">
<polygon fill="white" stroke="black" points="197,-658.5 197,-677.5 342,-677.5 342,-658.5 197,-658.5"/>
<text text-anchor="middle" x="269.5" y="-665.5" font-family="Helvetica,sans-Serif" font-size="10.00">InsertingAudioSegmentPopup</text>
</a>
</g>
</g>
<!-- Node0&#45;&gt;Node27 -->
<g id="edge27" class="edge">
<title>Node0&#45;&gt;Node27</title>
<path fill="none" stroke="midnightblue" d="M119.01,-806.64C126.35,-776.26 144.93,-717.67 184,-687 188.85,-683.19 194.31,-680.12 200.07,-677.64"/>
<polygon fill="midnightblue" stroke="midnightblue" points="115.58,-805.93 116.79,-816.46 122.41,-807.47 115.58,-805.93"/>
</g>
<!-- Node28 -->
<g id="node29" class="node">
<title>Node28</title>
<g id="a_node29"><a xlink:href="../../d9/d27/classnap_1_1sequenceguiactions_1_1_inserting_curve_point.html" target="_top" xlink:title="InsertingCurvePoint">
<polygon fill="white" stroke="black" points="219.5,-620.5 219.5,-639.5 319.5,-639.5 319.5,-620.5 219.5,-620.5"/>
<text text-anchor="middle" x="269.5" y="-627.5" font-family="Helvetica,sans-Serif" font-size="10.00">InsertingCurvePoint</text>
</a>
</g>
</g>
<!-- Node0&#45;&gt;Node28 -->
<g id="edge28" class="edge">
<title>Node0&#45;&gt;Node28</title>
<path fill="none" stroke="midnightblue" d="M116.77,-806.16C121.16,-769.31 135.95,-690.31 184,-649 193.81,-640.57 206.56,-635.66 219.17,-632.86"/>
<polygon fill="midnightblue" stroke="midnightblue" points="113.28,-805.84 115.72,-816.15 120.24,-806.57 113.28,-805.84"/>
</g>
<!-- Node29 -->
<g id="node30" class="node">
<title>Node29</title>
<g id="a_node30"><a xlink:href="../../dd/d2f/classnap_1_1sequenceguiactions_1_1_inserting_event_segment.html" target="_top" xlink:title="InsertingEventSegment">
<polygon fill="white" stroke="black" points="211.5,-582.5 211.5,-601.5 327.5,-601.5 327.5,-582.5 211.5,-582.5"/>
<text text-anchor="middle" x="269.5" y="-589.5" font-family="Helvetica,sans-Serif" font-size="10.00">InsertingEventSegment</text>
</a>
</g>
</g>
<!-- Node0&#45;&gt;Node29 -->
<g id="edge29" class="edge">
<title>Node0&#45;&gt;Node29</title>
<path fill="none" stroke="midnightblue" d="M115.2,-805.87C116.78,-763.21 126.76,-663.34 184,-611 191.66,-604 201.32,-599.39 211.36,-596.4"/>
<polygon fill="midnightblue" stroke="midnightblue" points="111.7,-805.99 114.95,-816.08 118.7,-806.17 111.7,-805.99"/>
</g>
<!-- Node30 -->
<g id="node31" class="node">
<title>Node30</title>
<g id="a_node31"><a xlink:href="../../de/d1f/classnap_1_1sequenceguiactions_1_1_inserting_segment_popup.html" target="_top" xlink:title="InsertingSegmentPopup">
<polygon fill="white" stroke="black" points="209.5,-544.5 209.5,-563.5 329.5,-563.5 329.5,-544.5 209.5,-544.5"/>
<text text-anchor="middle" x="269.5" y="-551.5" font-family="Helvetica,sans-Serif" font-size="10.00">InsertingSegmentPopup</text>
</a>
</g>
</g>
<!-- Node0&#45;&gt;Node30 -->
<g id="edge30" class="edge">
<title>Node0&#45;&gt;Node30</title>
<path fill="none" stroke="midnightblue" d="M117.74,-806.25C125.57,-752.56 149.74,-605.75 184,-573 191.07,-566.25 199.99,-561.7 209.37,-558.67"/>
<polygon fill="midnightblue" stroke="midnightblue" points="114.26,-805.83 116.31,-816.22 121.19,-806.81 114.26,-805.83"/>
</g>
<!-- Node31 -->
<g id="node32" class="node">
<title>Node31</title>
<g id="a_node32"><a xlink:href="../../d5/d15/classnap_1_1sequenceguiactions_1_1_move_track_down.html" target="_top" xlink:title="MoveTrackDown">
<polygon fill="white" stroke="black" points="226,-506.5 226,-525.5 313,-525.5 313,-506.5 226,-506.5"/>
<text text-anchor="middle" x="269.5" y="-513.5" font-family="Helvetica,sans-Serif" font-size="10.00">MoveTrackDown</text>
</a>
</g>
</g>
<!-- Node0&#45;&gt;Node31 -->
<g id="edge31" class="edge">
<title>Node0&#45;&gt;Node31</title>
<path fill="none" stroke="midnightblue" d="M117,-806.1C123.35,-746.89 144.97,-573.58 184,-535 195.01,-524.11 210.85,-518.91 225.83,-516.58"/>
<polygon fill="midnightblue" stroke="midnightblue" points="113.49,-806.04 115.93,-816.34 120.45,-806.76 113.49,-806.04"/>
</g>
<!-- Node32 -->
<g id="node33" class="node">
<title>Node32</title>
<g id="a_node33"><a xlink:href="../../dc/d02/classnap_1_1sequenceguiactions_1_1_move_track_up.html" target="_top" xlink:title="MoveTrackUp">
<polygon fill="white" stroke="black" points="232,-468.5 232,-487.5 307,-487.5 307,-468.5 232,-468.5"/>
<text text-anchor="middle" x="269.5" y="-475.5" font-family="Helvetica,sans-Serif" font-size="10.00">MoveTrackUp</text>
</a>
</g>
</g>
<!-- Node0&#45;&gt;Node32 -->
<g id="edge32" class="edge">
<title>Node0&#45;&gt;Node32</title>
<path fill="none" stroke="midnightblue" d="M116.41,-806.08C121.37,-741.81 140.13,-541.51 184,-497 196.35,-484.47 215.06,-479.43 231.74,-477.64"/>
<polygon fill="midnightblue" stroke="midnightblue" points="112.89,-806.2 115.64,-816.43 119.87,-806.72 112.89,-806.2"/>
</g>
<!-- Node33 -->
<g id="node34" class="node">
<title>Node33</title>
<g id="a_node34"><a xlink:href="../../df/d28/classnap_1_1sequenceguiactions_1_1_open_curve_point_action_popup.html" target="_top" xlink:title="OpenCurvePointActionPopup\&lt; T \&gt;">
<polygon fill="white" stroke="black" points="187,-430.5 187,-449.5 352,-449.5 352,-430.5 187,-430.5"/>
<text text-anchor="middle" x="269.5" y="-437.5" font-family="Helvetica,sans-Serif" font-size="10.00">OpenCurvePointActionPopup&lt; T &gt;</text>
</a>
</g>
</g>
<!-- Node0&#45;&gt;Node33 -->
<g id="edge33" class="edge">
<title>Node0&#45;&gt;Node33</title>
<path fill="none" stroke="midnightblue" d="M115.94,-806.07C119.61,-737.02 135.26,-509.49 184,-459 187.66,-455.21 191.89,-452.11 196.48,-449.57"/>
<polygon fill="midnightblue" stroke="midnightblue" points="112.43,-806.23 115.42,-816.4 119.42,-806.59 112.43,-806.23"/>
</g>
<!-- Node34 -->
<g id="node35" class="node">
<title>Node34</title>
<g id="a_node35"><a xlink:href="../../dc/dcb/classnap_1_1sequenceguiactions_1_1_open_curve_type_popup.html" target="_top" xlink:title="OpenCurveTypePopup">
<polygon fill="white" stroke="black" points="213,-392.5 213,-411.5 326,-411.5 326,-392.5 213,-392.5"/>
<text text-anchor="middle" x="269.5" y="-399.5" font-family="Helvetica,sans-Serif" font-size="10.00">OpenCurveTypePopup</text>
</a>
</g>
</g>
<!-- Node0&#45;&gt;Node34 -->
<g id="edge34" class="edge">
<title>Node0&#45;&gt;Node34</title>
<path fill="none" stroke="midnightblue" d="M115.56,-805.93C118.04,-732.18 130.41,-477.48 184,-421 191.66,-412.93 201.95,-407.94 212.71,-404.92"/>
<polygon fill="midnightblue" stroke="midnightblue" points="112.06,-806.05 115.24,-816.16 119.05,-806.27 112.06,-806.05"/>
</g>
<!-- Node35 -->
<g id="node36" class="node">
<title>Node35</title>
<g id="a_node36"><a xlink:href="../../d8/d1c/classnap_1_1sequenceguiactions_1_1_open_edit_audio_segment_popup.html" target="_top" xlink:title="OpenEditAudioSegmentPopup">
<polygon fill="white" stroke="black" points="195,-354.5 195,-373.5 344,-373.5 344,-354.5 195,-354.5"/>
<text text-anchor="middle" x="269.5" y="-361.5" font-family="Helvetica,sans-Serif" font-size="10.00">OpenEditAudioSegmentPopup</text>
</a>
</g>
</g>
<!-- Node0&#45;&gt;Node35 -->
<g id="edge35" class="edge">
<title>Node0&#45;&gt;Node35</title>
<path fill="none" stroke="midnightblue" d="M115.24,-806.1C116.58,-728.26 125.46,-445.58 184,-383 187.49,-379.27 191.55,-376.19 195.95,-373.66"/>
<polygon fill="midnightblue" stroke="midnightblue" points="111.73,-806.36 115.08,-816.41 118.73,-806.46 111.73,-806.36"/>
</g>
<!-- Node36 -->
<g id="node37" class="node">
<title>Node36</title>
<g id="a_node37"><a xlink:href="../../d1/dd0/classnap_1_1sequenceguiactions_1_1_open_edit_curve_segment_popup.html" target="_top" xlink:title="OpenEditCurveSegmentPopup">
<polygon fill="white" stroke="black" points="195.5,-316.5 195.5,-335.5 343.5,-335.5 343.5,-316.5 195.5,-316.5"/>
<text text-anchor="middle" x="269.5" y="-323.5" font-family="Helvetica,sans-Serif" font-size="10.00">OpenEditCurveSegmentPopup</text>
</a>
</g>
</g>
<!-- Node0&#45;&gt;Node36 -->
<g id="edge36" class="edge">
<title>Node0&#45;&gt;Node36</title>
<path fill="none" stroke="midnightblue" d="M114.97,-806C115.25,-723.87 120.56,-413.64 184,-345 187.47,-341.25 191.51,-338.15 195.9,-335.61"/>
<polygon fill="midnightblue" stroke="midnightblue" points="111.47,-806.4 114.95,-816.41 118.47,-806.41 111.47,-806.4"/>
</g>
<!-- Node37 -->
<g id="node38" class="node">
<title>Node37</title>
<g id="a_node38"><a xlink:href="../../d0/d65/classnap_1_1sequenceguiactions_1_1_open_edit_event_segment_popup.html" target="_top" xlink:title="OpenEditEventSegmentPopup\&lt; T \&gt;">
<polygon fill="white" stroke="black" points="184,-278.5 184,-297.5 355,-297.5 355,-278.5 184,-278.5"/>
<text text-anchor="middle" x="269.5" y="-285.5" font-family="Helvetica,sans-Serif" font-size="10.00">OpenEditEventSegmentPopup&lt; T &gt;</text>
</a>
</g>
</g>
<!-- Node0&#45;&gt;Node37 -->
<g id="edge37" class="edge">
<title>Node0&#45;&gt;Node37</title>
<path fill="none" stroke="midnightblue" d="M114.74,-806.35C114,-720.82 115.52,-381.86 184,-307 187.45,-303.23 191.48,-300.12 195.86,-297.57"/>
<polygon fill="midnightblue" stroke="midnightblue" points="111.24,-806.53 114.85,-816.49 118.24,-806.45 111.24,-806.53"/>
</g>
<!-- Node38 -->
<g id="node39" class="node">
<title>Node38</title>
<g id="a_node39"><a xlink:href="../../d9/d50/classnap_1_1sequenceguiactions_1_1_open_edit_segment_curve_value_popup.html" target="_top" xlink:title="OpenEditSegmentCurveValue\lPopup\&lt; T \&gt;">
<polygon fill="white" stroke="black" points="197,-229 197,-259 342,-259 342,-229 197,-229"/>
<text text-anchor="start" x="205" y="-247" font-family="Helvetica,sans-Serif" font-size="10.00">OpenEditSegmentCurveValue</text>
<text text-anchor="middle" x="269.5" y="-236" font-family="Helvetica,sans-Serif" font-size="10.00">Popup&lt; T &gt;</text>
</a>
</g>
</g>
<!-- Node0&#45;&gt;Node38 -->
<g id="edge38" class="edge">
<title>Node0&#45;&gt;Node38</title>
<path fill="none" stroke="midnightblue" d="M114.66,-806.18C113.53,-716.83 113.37,-352.31 184,-269 187.66,-264.68 192.03,-261.09 196.82,-258.1"/>
<polygon fill="midnightblue" stroke="midnightblue" points="111.16,-806.35 114.81,-816.29 118.16,-806.24 111.16,-806.35"/>
</g>
<!-- Node39 -->
<g id="node40" class="node">
<title>Node39</title>
<g id="a_node40"><a xlink:href="../../dc/dac/classnap_1_1sequenceguiactions_1_1_open_edit_segment_popup.html" target="_top" xlink:title="OpenEditSegmentPopup">
<polygon fill="white" stroke="black" points="207.5,-190.5 207.5,-209.5 331.5,-209.5 331.5,-190.5 207.5,-190.5"/>
<text text-anchor="middle" x="269.5" y="-197.5" font-family="Helvetica,sans-Serif" font-size="10.00">OpenEditSegmentPopup</text>
</a>
</g>
</g>
<!-- Node0&#45;&gt;Node39 -->
<g id="edge39" class="edge">
<title>Node0&#45;&gt;Node39</title>
<path fill="none" stroke="midnightblue" d="M115.91,-806.14C120.64,-706.46 143.8,-263.8 184,-219 190.23,-212.06 198.39,-207.37 207.2,-204.24"/>
<polygon fill="midnightblue" stroke="midnightblue" points="112.4,-806.16 115.43,-816.32 119.39,-806.49 112.4,-806.16"/>
</g>
<!-- Node40 -->
<g id="node41" class="node">
<title>Node40</title>
<g id="a_node41"><a xlink:href="../../da/d94/classnap_1_1sequenceguiactions_1_1_open_edit_tan_point_popup.html" target="_top" xlink:title="OpenEditTanPointPopup">
<polygon fill="white" stroke="black" points="208,-152.5 208,-171.5 331,-171.5 331,-152.5 208,-152.5"/>
<text text-anchor="middle" x="269.5" y="-159.5" font-family="Helvetica,sans-Serif" font-size="10.00">OpenEditTanPointPopup</text>
</a>
</g>
</g>
<!-- Node0&#45;&gt;Node40 -->
<g id="edge40" class="edge">
<title>Node0&#45;&gt;Node40</title>
<path fill="none" stroke="midnightblue" d="M115.77,-806.2C119.93,-702.92 141.29,-228.91 184,-181 190.3,-173.93 198.62,-169.19 207.58,-166.06"/>
<polygon fill="midnightblue" stroke="midnightblue" points="112.27,-806.08 115.37,-816.21 119.26,-806.35 112.27,-806.08"/>
</g>
<!-- Node41 -->
<g id="node42" class="node">
<title>Node41</title>
<g id="a_node42"><a xlink:href="../../dd/d8b/classnap_1_1sequenceguiactions_1_1_open_insert_curve_point_popup.html" target="_top" xlink:title="OpenInsertCurvePointPopup">
<polygon fill="white" stroke="black" points="200.5,-114.5 200.5,-133.5 338.5,-133.5 338.5,-114.5 200.5,-114.5"/>
<text text-anchor="middle" x="269.5" y="-121.5" font-family="Helvetica,sans-Serif" font-size="10.00">OpenInsertCurvePointPopup</text>
</a>
</g>
</g>
<!-- Node0&#45;&gt;Node41 -->
<g id="edge41" class="edge">
<title>Node0&#45;&gt;Node41</title>
<path fill="none" stroke="midnightblue" d="M115.65,-806.05C119.3,-698.83 138.81,-193.99 184,-143 188.59,-137.82 194.25,-133.89 200.47,-130.93"/>
<polygon fill="midnightblue" stroke="midnightblue" points="112.15,-806.03 115.31,-816.15 119.14,-806.27 112.15,-806.03"/>
</g>
<!-- Node42 -->
<g id="node43" class="node">
<title>Node42</title>
<g id="a_node43"><a xlink:href="../../d2/db3/classnap_1_1sequenceguiactions_1_1_open_insert_event_segment_popup.html" target="_top" xlink:title="OpenInsertEventSegmentPopup">
<polygon fill="white" stroke="black" points="192,-76.5 192,-95.5 347,-95.5 347,-76.5 192,-76.5"/>
<text text-anchor="middle" x="269.5" y="-83.5" font-family="Helvetica,sans-Serif" font-size="10.00">OpenInsertEventSegmentPopup</text>
</a>
</g>
</g>
<!-- Node0&#45;&gt;Node42 -->
<g id="edge42" class="edge">
<title>Node0&#45;&gt;Node42</title>
<path fill="none" stroke="midnightblue" d="M115.53,-806.34C118.65,-696.24 136.27,-159.15 184,-105 187.28,-101.28 191.12,-98.2 195.32,-95.66"/>
<polygon fill="midnightblue" stroke="midnightblue" points="112.03,-806.29 115.25,-816.38 119.02,-806.49 112.03,-806.29"/>
</g>
<!-- Node43 -->
<g id="node44" class="node">
<title>Node43</title>
<g id="a_node44"><a xlink:href="../../de/d4e/classnap_1_1sequenceguiactions_1_1_open_insert_segment_popup.html" target="_top" xlink:title="OpenInsertSegmentPopup">
<polygon fill="white" stroke="black" points="204,-38.5 204,-57.5 335,-57.5 335,-38.5 204,-38.5"/>
<text text-anchor="middle" x="269.5" y="-45.5" font-family="Helvetica,sans-Serif" font-size="10.00">OpenInsertSegmentPopup</text>
</a>
</g>
</g>
<!-- Node0&#45;&gt;Node43 -->
<g id="edge43" class="edge">
<title>Node0&#45;&gt;Node43</title>
<path fill="none" stroke="midnightblue" d="M115.43,-806.38C118.07,-692.95 133.75,-124.28 184,-67 189.35,-60.9 196.21,-56.52 203.7,-53.42"/>
<polygon fill="midnightblue" stroke="midnightblue" points="111.93,-806.34 115.2,-816.41 118.92,-806.5 111.93,-806.34"/>
</g>
<!-- Node44 -->
<g id="node45" class="node">
<title>Node44</title>
<g id="a_node45"><a xlink:href="../../dc/da3/classnap_1_1sequenceguiactions_1_1_start_dragging_segment.html" target="_top" xlink:title="StartDraggingSegment">
<polygon fill="white" stroke="black" points="212,-0.5 212,-19.5 327,-19.5 327,-0.5 212,-0.5"/>
<text text-anchor="middle" x="269.5" y="-7.5" font-family="Helvetica,sans-Serif" font-size="10.00">StartDraggingSegment</text>
</a>
</g>
</g>
<!-- Node0&#45;&gt;Node44 -->
<g id="edge44" class="edge">
<title>Node0&#45;&gt;Node44</title>
<path fill="none" stroke="midnightblue" d="M115.34,-806.14C117.53,-688.81 131.27,-89.36 184,-29 191.22,-20.73 201.2,-15.64 211.76,-12.57"/>
<polygon fill="midnightblue" stroke="midnightblue" points="111.84,-806.42 115.15,-816.48 118.83,-806.55 111.84,-806.42"/>
</g>
<!-- Node1 -->
<g id="node2" class="node">
<title>Node1</title>
<g id="a_node2"><a xlink:href="../../d6/d35/classnap_1_1sequenceguiactions_1_1_action.html" target="_top" xlink:title="Action">
<polygon fill="white" stroke="black" points="0,-816.5 0,-835.5 44,-835.5 44,-816.5 0,-816.5"/>
<text text-anchor="middle" x="22" y="-823.5" font-family="Helvetica,sans-Serif" font-size="10.00">Action</text>
</a>
</g>
</g>
<!-- Node1&#45;&gt;Node0 -->
<g id="edge1" class="edge">
<title>Node1&#45;&gt;Node0</title>
<path fill="none" stroke="midnightblue" d="M54.6,-826C62.78,-826 71.61,-826 79.86,-826"/>
<polygon fill="midnightblue" stroke="midnightblue" points="54.33,-822.5 44.33,-826 54.33,-829.5 54.33,-822.5"/>
</g>
</g>
</svg>
