<?xml version="1.0" encoding="UTF-8" standalone="no"?>
<!DOCTYPE svg PUBLIC "-//W3C//DTD SVG 1.1//EN"
 "http://www.w3.org/Graphics/SVG/1.1/DTD/svg11.dtd">
<!-- Generated by graphviz version 2.43.0 (0)
 -->
<!-- Title: TrackAction Pages: 1 -->
<svg width="391pt" height="1834pt"
 viewBox="0.00 0.00 391.00 1834.00" xmlns="http://www.w3.org/2000/svg" xmlns:xlink="http://www.w3.org/1999/xlink">
<g id="graph0" class="graph" transform="scale(1 1) rotate(0) translate(4 1830)">
<title>TrackAction</title>
<polygon fill="white" stroke="transparent" points="-4,4 -4,-1830 387,-1830 387,4 -4,4"/>
<!-- Node1 -->
<g id="node1" class="node">
<title>Node1</title>
<g id="a_node1"><a xlink:title=" ">
<polygon fill="#bfbfbf" stroke="black" points="83,-886.5 83,-905.5 156,-905.5 156,-886.5 83,-886.5"/>
<text text-anchor="middle" x="119.5" y="-893.5" font-family="Helvetica,sans-Serif" font-size="10.00">TrackAction</text>
</a>
</g>
</g>
<!-- Node3 -->
<g id="node3" class="node">
<title>Node3</title>
<g id="a_node3"><a xlink:href="../../de/dea/classnap_1_1sequenceguiactions_1_1_assign_output_i_d_to_track.html" target="_top" xlink:title=" ">
<polygon fill="white" stroke="black" points="223.5,-1806.5 223.5,-1825.5 351.5,-1825.5 351.5,-1806.5 223.5,-1806.5"/>
<text text-anchor="middle" x="287.5" y="-1813.5" font-family="Helvetica,sans-Serif" font-size="10.00">AssignOutputIDToTrack</text>
</a>
</g>
</g>
<!-- Node1&#45;&gt;Node3 -->
<g id="edge2" class="edge">
<title>Node1&#45;&gt;Node3</title>
<path fill="none" stroke="midnightblue" d="M120.67,-915.67C121.91,-1041.35 131.47,-1728.78 192,-1797 200.11,-1806.14 211.28,-1811.61 223.1,-1814.76"/>
<polygon fill="midnightblue" stroke="midnightblue" points="124.17,-915.55 120.57,-905.58 117.17,-915.61 124.17,-915.55"/>
</g>
<!-- Node4 -->
<g id="node4" class="node">
<title>Node4</title>
<g id="a_node4"><a xlink:href="../../d1/d16/classnap_1_1sequenceguiactions_1_1_change_min_max_curve.html" target="_top" xlink:title=" ">
<polygon fill="white" stroke="black" points="213,-1768.5 213,-1787.5 362,-1787.5 362,-1768.5 213,-1768.5"/>
<text text-anchor="middle" x="287.5" y="-1775.5" font-family="Helvetica,sans-Serif" font-size="10.00">ChangeMinMaxCurve&lt; T &gt;</text>
</a>
</g>
</g>
<!-- Node1&#45;&gt;Node4 -->
<g id="edge3" class="edge">
<title>Node1&#45;&gt;Node4</title>
<path fill="none" stroke="midnightblue" d="M120.74,-915.98C122.43,-1039.3 134.07,-1693.94 192,-1759 197.68,-1765.37 204.84,-1769.96 212.68,-1773.22"/>
<polygon fill="midnightblue" stroke="midnightblue" points="124.24,-915.69 120.61,-905.74 117.24,-915.78 124.24,-915.69"/>
</g>
<!-- Node5 -->
<g id="node5" class="node">
<title>Node5</title>
<g id="a_node5"><a xlink:href="../../d6/db2/classnap_1_1sequenceguiactions_1_1_change_track_name.html" target="_top" xlink:title=" ">
<polygon fill="white" stroke="black" points="233.5,-1730.5 233.5,-1749.5 341.5,-1749.5 341.5,-1730.5 233.5,-1730.5"/>
<text text-anchor="middle" x="287.5" y="-1737.5" font-family="Helvetica,sans-Serif" font-size="10.00">ChangeTrackName</text>
</a>
</g>
</g>
<!-- Node1&#45;&gt;Node5 -->
<g id="edge4" class="edge">
<title>Node1&#45;&gt;Node5</title>
<path fill="none" stroke="midnightblue" d="M120.82,-915.83C122.94,-1035.57 136.6,-1659.02 192,-1721 202.48,-1732.73 218.01,-1738.41 233.46,-1740.89"/>
<polygon fill="midnightblue" stroke="midnightblue" points="124.32,-915.52 120.65,-905.58 117.32,-915.64 124.32,-915.52"/>
</g>
<!-- Node6 -->
<g id="node6" class="node">
<title>Node6</title>
<g id="a_node6"><a xlink:href="../../de/d18/classnap_1_1sequenceguiactions_1_1_curve_point_action_popup.html" target="_top" xlink:title=" ">
<polygon fill="white" stroke="black" points="208,-1692.5 208,-1711.5 367,-1711.5 367,-1692.5 208,-1692.5"/>
<text text-anchor="middle" x="287.5" y="-1699.5" font-family="Helvetica,sans-Serif" font-size="10.00">CurvePointActionPopup&lt; T &gt;</text>
</a>
</g>
</g>
<!-- Node1&#45;&gt;Node6 -->
<g id="edge5" class="edge">
<title>Node1&#45;&gt;Node6</title>
<path fill="none" stroke="midnightblue" d="M120.91,-916C123.5,-1032.84 139.17,-1624.15 192,-1683 196.47,-1687.98 201.85,-1691.87 207.75,-1694.89"/>
<polygon fill="midnightblue" stroke="midnightblue" points="124.4,-915.6 120.69,-905.68 117.41,-915.75 124.4,-915.6"/>
</g>
<!-- Node7 -->
<g id="node7" class="node">
<title>Node7</title>
<g id="a_node7"><a xlink:href="../../dc/d56/classnap_1_1sequenceguiactions_1_1_curve_type_popup.html" target="_top" xlink:title=" ">
<polygon fill="white" stroke="black" points="238.5,-1654.5 238.5,-1673.5 336.5,-1673.5 336.5,-1654.5 238.5,-1654.5"/>
<text text-anchor="middle" x="287.5" y="-1661.5" font-family="Helvetica,sans-Serif" font-size="10.00">CurveTypePopup</text>
</a>
</g>
</g>
<!-- Node1&#45;&gt;Node7 -->
<g id="edge6" class="edge">
<title>Node1&#45;&gt;Node7</title>
<path fill="none" stroke="midnightblue" d="M121,-915.74C124.05,-1028.61 141.68,-1589.2 192,-1645 203.66,-1657.93 221.44,-1663.48 238.44,-1665.53"/>
<polygon fill="midnightblue" stroke="midnightblue" points="124.5,-915.64 120.74,-905.73 117.5,-915.82 124.5,-915.64"/>
</g>
<!-- Node8 -->
<g id="node8" class="node">
<title>Node8</title>
<g id="a_node8"><a xlink:href="../../d5/d4a/classnap_1_1sequenceguiactions_1_1_delete_track.html" target="_top" xlink:title=" ">
<polygon fill="white" stroke="black" points="250.5,-1616.5 250.5,-1635.5 324.5,-1635.5 324.5,-1616.5 250.5,-1616.5"/>
<text text-anchor="middle" x="287.5" y="-1623.5" font-family="Helvetica,sans-Serif" font-size="10.00">DeleteTrack</text>
</a>
</g>
</g>
<!-- Node1&#45;&gt;Node8 -->
<g id="edge7" class="edge">
<title>Node1&#45;&gt;Node8</title>
<path fill="none" stroke="midnightblue" d="M121.11,-915.75C124.66,-1025.2 144.22,-1554.29 192,-1607 206.38,-1622.87 230.01,-1627.62 250.04,-1628.4"/>
<polygon fill="midnightblue" stroke="midnightblue" points="124.61,-915.63 120.79,-905.75 117.61,-915.85 124.61,-915.63"/>
</g>
<!-- Node9 -->
<g id="node9" class="node">
<title>Node9</title>
<g id="a_node9"><a xlink:href="../../d1/dbc/classnap_1_1sequenceguiactions_1_1_dragging_control_point.html" target="_top" xlink:title=" ">
<polygon fill="white" stroke="black" points="227,-1578.5 227,-1597.5 348,-1597.5 348,-1578.5 227,-1578.5"/>
<text text-anchor="middle" x="287.5" y="-1585.5" font-family="Helvetica,sans-Serif" font-size="10.00">DraggingControlPoint</text>
</a>
</g>
</g>
<!-- Node1&#45;&gt;Node9 -->
<g id="edge8" class="edge">
<title>Node1&#45;&gt;Node9</title>
<path fill="none" stroke="midnightblue" d="M121.24,-916C125.33,-1022.44 146.8,-1519.41 192,-1569 201.02,-1578.89 213.63,-1584.46 226.71,-1587.44"/>
<polygon fill="midnightblue" stroke="midnightblue" points="124.72,-915.58 120.85,-905.72 117.73,-915.85 124.72,-915.58"/>
</g>
<!-- Node10 -->
<g id="node10" class="node">
<title>Node10</title>
<g id="a_node10"><a xlink:href="../../d0/d5e/classnap_1_1sequenceguiactions_1_1_dragging_left_audio_segment_handler.html" target="_top" xlink:title=" ">
<polygon fill="white" stroke="black" points="212.5,-1529 212.5,-1559 362.5,-1559 362.5,-1529 212.5,-1529"/>
<text text-anchor="start" x="220.5" y="-1547" font-family="Helvetica,sans-Serif" font-size="10.00">DraggingLeftAudioSegment</text>
<text text-anchor="middle" x="287.5" y="-1536" font-family="Helvetica,sans-Serif" font-size="10.00">Handler</text>
</a>
</g>
</g>
<!-- Node1&#45;&gt;Node10 -->
<g id="edge9" class="edge">
<title>Node1&#45;&gt;Node10</title>
<path fill="none" stroke="midnightblue" d="M121.46,-916.09C126.5,-1017.84 151.24,-1473.35 192,-1520 197.57,-1526.37 204.57,-1531.17 212.22,-1534.77"/>
<polygon fill="midnightblue" stroke="midnightblue" points="124.95,-915.76 120.97,-905.94 117.96,-916.1 124.95,-915.76"/>
</g>
<!-- Node11 -->
<g id="node11" class="node">
<title>Node11</title>
<g id="a_node11"><a xlink:href="../../d8/d17/classnap_1_1sequenceguiactions_1_1_dragging_right_audio_segment_handler.html" target="_top" xlink:title=" ">
<polygon fill="white" stroke="black" points="208.5,-1480 208.5,-1510 366.5,-1510 366.5,-1480 208.5,-1480"/>
<text text-anchor="start" x="216.5" y="-1498" font-family="Helvetica,sans-Serif" font-size="10.00">DraggingRightAudioSegment</text>
<text text-anchor="middle" x="287.5" y="-1487" font-family="Helvetica,sans-Serif" font-size="10.00">Handler</text>
</a>
</g>
</g>
<!-- Node1&#45;&gt;Node11 -->
<g id="edge10" class="edge">
<title>Node1&#45;&gt;Node11</title>
<path fill="none" stroke="midnightblue" d="M120.12,-915.61C118.77,-1006.39 117.71,-1384.96 192,-1470 196.58,-1475.24 202.11,-1479.44 208.18,-1482.81"/>
<polygon fill="midnightblue" stroke="midnightblue" points="123.62,-915.65 120.29,-905.59 116.62,-915.53 123.62,-915.65"/>
</g>
<!-- Node12 -->
<g id="node12" class="node">
<title>Node12</title>
<g id="a_node12"><a xlink:href="../../dc/d74/classnap_1_1sequenceguiactions_1_1_dragging_segment.html" target="_top" xlink:title=" ">
<polygon fill="white" stroke="black" points="235.5,-1441.5 235.5,-1460.5 339.5,-1460.5 339.5,-1441.5 235.5,-1441.5"/>
<text text-anchor="middle" x="287.5" y="-1448.5" font-family="Helvetica,sans-Serif" font-size="10.00">DraggingSegment</text>
</a>
</g>
</g>
<!-- Node1&#45;&gt;Node12 -->
<g id="edge11" class="edge">
<title>Node1&#45;&gt;Node12</title>
<path fill="none" stroke="midnightblue" d="M120.2,-916.06C119.3,-1004.11 120.31,-1355.43 192,-1432 203.09,-1443.85 219.35,-1449.45 235.26,-1451.83"/>
<polygon fill="midnightblue" stroke="midnightblue" points="123.7,-915.88 120.32,-905.84 116.7,-915.8 123.7,-915.88"/>
</g>
<!-- Node13 -->
<g id="node13" class="node">
<title>Node13</title>
<g id="a_node13"><a xlink:href="../../d2/d10/classnap_1_1sequenceguiactions_1_1_dragging_segment_value.html" target="_top" xlink:title=" ">
<polygon fill="white" stroke="black" points="222,-1403.5 222,-1422.5 353,-1422.5 353,-1403.5 222,-1403.5"/>
<text text-anchor="middle" x="287.5" y="-1410.5" font-family="Helvetica,sans-Serif" font-size="10.00">DraggingSegmentValue</text>
</a>
</g>
</g>
<!-- Node1&#45;&gt;Node13 -->
<g id="edge12" class="edge">
<title>Node1&#45;&gt;Node13</title>
<path fill="none" stroke="midnightblue" d="M120.42,-915.69C120.51,-999.23 125.22,-1323.39 192,-1394 199.93,-1402.39 210.46,-1407.64 221.59,-1410.83"/>
<polygon fill="midnightblue" stroke="midnightblue" points="123.92,-915.55 120.43,-905.55 116.92,-915.54 123.92,-915.55"/>
</g>
<!-- Node14 -->
<g id="node14" class="node">
<title>Node14</title>
<g id="a_node14"><a xlink:href="../../d5/dfb/classnap_1_1sequenceguiactions_1_1_dragging_tan_point.html" target="_top" xlink:title=" ">
<polygon fill="white" stroke="black" points="236.5,-1365.5 236.5,-1384.5 338.5,-1384.5 338.5,-1365.5 236.5,-1365.5"/>
<text text-anchor="middle" x="287.5" y="-1372.5" font-family="Helvetica,sans-Serif" font-size="10.00">DraggingTanPoint</text>
</a>
</g>
</g>
<!-- Node1&#45;&gt;Node14 -->
<g id="edge13" class="edge">
<title>Node1&#45;&gt;Node14</title>
<path fill="none" stroke="midnightblue" d="M120.68,-915.69C121.82,-995.2 130.23,-1291.43 192,-1356 203.45,-1367.97 220.18,-1373.52 236.39,-1375.83"/>
<polygon fill="midnightblue" stroke="midnightblue" points="124.18,-915.54 120.56,-905.58 117.18,-915.63 124.18,-915.54"/>
</g>
<!-- Node15 -->
<g id="node15" class="node">
<title>Node15</title>
<g id="a_node15"><a xlink:href="../../d8/d63/classnap_1_1sequenceguiactions_1_1_dragging_track_extension_handler.html" target="_top" xlink:title=" ">
<polygon fill="white" stroke="black" points="201,-1327.5 201,-1346.5 374,-1346.5 374,-1327.5 201,-1327.5"/>
<text text-anchor="middle" x="287.5" y="-1334.5" font-family="Helvetica,sans-Serif" font-size="10.00">DraggingTrackExtensionHandler</text>
</a>
</g>
</g>
<!-- Node1&#45;&gt;Node15 -->
<g id="edge14" class="edge">
<title>Node1&#45;&gt;Node15</title>
<path fill="none" stroke="midnightblue" d="M120.99,-915.96C123.27,-991.63 135.28,-1259.52 192,-1318 195.61,-1321.72 199.73,-1324.82 204.19,-1327.4"/>
<polygon fill="midnightblue" stroke="midnightblue" points="124.48,-915.42 120.7,-905.52 117.48,-915.62 124.48,-915.42"/>
</g>
<!-- Node16 -->
<g id="node16" class="node">
<title>Node16</title>
<g id="a_node16"><a xlink:href="../../d9/da1/classnap_1_1sequenceguiactions_1_1_editing_audio_segment_popup.html" target="_top" xlink:title=" ">
<polygon fill="white" stroke="black" points="211.5,-1289.5 211.5,-1308.5 363.5,-1308.5 363.5,-1289.5 211.5,-1289.5"/>
<text text-anchor="middle" x="287.5" y="-1296.5" font-family="Helvetica,sans-Serif" font-size="10.00">EditingAudioSegmentPopup</text>
</a>
</g>
</g>
<!-- Node1&#45;&gt;Node16 -->
<g id="edge15" class="edge">
<title>Node1&#45;&gt;Node16</title>
<path fill="none" stroke="midnightblue" d="M121.36,-915.98C124.83,-987.25 140.25,-1227.51 192,-1280 197.52,-1285.6 204.2,-1289.79 211.43,-1292.89"/>
<polygon fill="midnightblue" stroke="midnightblue" points="124.84,-915.54 120.88,-905.71 117.85,-915.86 124.84,-915.54"/>
</g>
<!-- Node17 -->
<g id="node17" class="node">
<title>Node17</title>
<g id="a_node17"><a xlink:href="../../dc/d2b/classnap_1_1sequenceguiactions_1_1_editing_curve_segment.html" target="_top" xlink:title=" ">
<polygon fill="white" stroke="black" points="226.5,-1251.5 226.5,-1270.5 348.5,-1270.5 348.5,-1251.5 226.5,-1251.5"/>
<text text-anchor="middle" x="287.5" y="-1258.5" font-family="Helvetica,sans-Serif" font-size="10.00">EditingCurveSegment</text>
</a>
</g>
</g>
<!-- Node1&#45;&gt;Node17 -->
<g id="edge16" class="edge">
<title>Node1&#45;&gt;Node17</title>
<path fill="none" stroke="midnightblue" d="M121.81,-916.12C126.58,-982.89 145.23,-1195.48 192,-1242 201.25,-1251.21 213.64,-1256.56 226.4,-1259.57"/>
<polygon fill="midnightblue" stroke="midnightblue" points="125.28,-915.48 121.1,-905.74 118.29,-915.96 125.28,-915.48"/>
</g>
<!-- Node18 -->
<g id="node18" class="node">
<title>Node18</title>
<g id="a_node18"><a xlink:href="../../df/dec/classnap_1_1sequenceguiactions_1_1_editing_event_segment.html" target="_top" xlink:title=" ">
<polygon fill="white" stroke="black" points="212.5,-1213.5 212.5,-1232.5 362.5,-1232.5 362.5,-1213.5 212.5,-1213.5"/>
<text text-anchor="middle" x="287.5" y="-1220.5" font-family="Helvetica,sans-Serif" font-size="10.00">EditingEventSegment&lt; T &gt;</text>
</a>
</g>
</g>
<!-- Node1&#45;&gt;Node18 -->
<g id="edge17" class="edge">
<title>Node1&#45;&gt;Node18</title>
<path fill="none" stroke="midnightblue" d="M122.34,-915.89C128.45,-977.47 150.09,-1163.32 192,-1204 197.76,-1209.59 204.69,-1213.76 212.14,-1216.83"/>
<polygon fill="midnightblue" stroke="midnightblue" points="125.79,-915.22 121.35,-905.6 118.83,-915.89 125.79,-915.22"/>
</g>
<!-- Node19 -->
<g id="node19" class="node">
<title>Node19</title>
<g id="a_node19"><a xlink:href="../../d9/d29/classnap_1_1sequenceguiactions_1_1_editing_segment_curve_value.html" target="_top" xlink:title=" ">
<polygon fill="white" stroke="black" points="198.5,-1175.5 198.5,-1194.5 376.5,-1194.5 376.5,-1175.5 198.5,-1175.5"/>
<text text-anchor="middle" x="287.5" y="-1182.5" font-family="Helvetica,sans-Serif" font-size="10.00">EditingSegmentCurveValue&lt; T &gt;</text>
</a>
</g>
</g>
<!-- Node1&#45;&gt;Node19 -->
<g id="edge18" class="edge">
<title>Node1&#45;&gt;Node19</title>
<path fill="none" stroke="midnightblue" d="M123,-915.62C130.56,-971.73 154.92,-1131.1 192,-1166 196.02,-1169.79 200.58,-1172.91 205.46,-1175.48"/>
<polygon fill="midnightblue" stroke="midnightblue" points="126.45,-915.02 121.68,-905.56 119.51,-915.93 126.45,-915.02"/>
</g>
<!-- Node20 -->
<g id="node20" class="node">
<title>Node20</title>
<g id="a_node20"><a xlink:href="../../d2/dcf/classnap_1_1sequenceguiactions_1_1_editing_segment_popup.html" target="_top" xlink:title=" ">
<polygon fill="white" stroke="black" points="225.5,-1137.5 225.5,-1156.5 349.5,-1156.5 349.5,-1137.5 225.5,-1137.5"/>
<text text-anchor="middle" x="287.5" y="-1144.5" font-family="Helvetica,sans-Serif" font-size="10.00">EditingSegmentPopup</text>
</a>
</g>
</g>
<!-- Node1&#45;&gt;Node20 -->
<g id="edge19" class="edge">
<title>Node1&#45;&gt;Node20</title>
<path fill="none" stroke="midnightblue" d="M120.29,-915.96C120.96,-961.07 129.31,-1071.31 192,-1128 201.19,-1136.31 212.96,-1141.4 225.05,-1144.44"/>
<polygon fill="midnightblue" stroke="midnightblue" points="123.79,-915.73 120.25,-905.74 116.79,-915.76 123.79,-915.73"/>
</g>
<!-- Node21 -->
<g id="node21" class="node">
<title>Node21</title>
<g id="a_node21"><a xlink:href="../../dc/dd7/classnap_1_1sequenceguiactions_1_1_editing_tan_point_popup.html" target="_top" xlink:title=" ">
<polygon fill="white" stroke="black" points="226.5,-1099.5 226.5,-1118.5 348.5,-1118.5 348.5,-1099.5 226.5,-1099.5"/>
<text text-anchor="middle" x="287.5" y="-1106.5" font-family="Helvetica,sans-Serif" font-size="10.00">EditingTanPointPopup</text>
</a>
</g>
</g>
<!-- Node1&#45;&gt;Node21 -->
<g id="edge20" class="edge">
<title>Node1&#45;&gt;Node21</title>
<path fill="none" stroke="midnightblue" d="M121.68,-915.92C125.15,-955.57 138.78,-1044.43 192,-1090 201.66,-1098.27 213.91,-1103.31 226.37,-1106.3"/>
<polygon fill="midnightblue" stroke="midnightblue" points="125.16,-915.63 120.93,-905.92 118.18,-916.15 125.16,-915.63"/>
</g>
<!-- Node22 -->
<g id="node22" class="node">
<title>Node22</title>
<g id="a_node22"><a xlink:href="../../d9/d40/classnap_1_1sequenceguiactions_1_1_hovering_control_point.html" target="_top" xlink:title=" ">
<polygon fill="white" stroke="black" points="227,-1061.5 227,-1080.5 348,-1080.5 348,-1061.5 227,-1061.5"/>
<text text-anchor="middle" x="287.5" y="-1068.5" font-family="Helvetica,sans-Serif" font-size="10.00">HoveringControlPoint</text>
</a>
</g>
</g>
<!-- Node1&#45;&gt;Node22 -->
<g id="edge21" class="edge">
<title>Node1&#45;&gt;Node22</title>
<path fill="none" stroke="midnightblue" d="M123.59,-915.45C129.98,-948.91 147.93,-1017.11 192,-1052 201.97,-1059.9 214.35,-1064.78 226.83,-1067.74"/>
<polygon fill="midnightblue" stroke="midnightblue" points="127.03,-914.78 121.84,-905.54 120.13,-915.99 127.03,-914.78"/>
</g>
<!-- Node23 -->
<g id="node23" class="node">
<title>Node23</title>
<g id="a_node23"><a xlink:href="../../d2/db3/classnap_1_1sequenceguiactions_1_1_hovering_curve.html" target="_top" xlink:title=" ">
<polygon fill="white" stroke="black" points="243,-1023.5 243,-1042.5 332,-1042.5 332,-1023.5 243,-1023.5"/>
<text text-anchor="middle" x="287.5" y="-1030.5" font-family="Helvetica,sans-Serif" font-size="10.00">HoveringCurve</text>
</a>
</g>
</g>
<!-- Node1&#45;&gt;Node23 -->
<g id="edge22" class="edge">
<title>Node1&#45;&gt;Node23</title>
<path fill="none" stroke="midnightblue" d="M126.72,-915.57C136.28,-942.27 157.2,-989.56 192,-1014 206.65,-1024.29 225.57,-1029.3 242.62,-1031.64"/>
<polygon fill="midnightblue" stroke="midnightblue" points="129.94,-914.17 123.42,-905.82 123.32,-916.42 129.94,-914.17"/>
</g>
<!-- Node24 -->
<g id="node24" class="node">
<title>Node24</title>
<g id="a_node24"><a xlink:href="../../d2/d56/classnap_1_1sequenceguiactions_1_1_hovering_left_audio_segment_handler.html" target="_top" xlink:title=" ">
<polygon fill="white" stroke="black" points="212.5,-974 212.5,-1004 362.5,-1004 362.5,-974 212.5,-974"/>
<text text-anchor="start" x="220.5" y="-992" font-family="Helvetica,sans-Serif" font-size="10.00">HoveringLeftAudioSegment</text>
<text text-anchor="middle" x="287.5" y="-981" font-family="Helvetica,sans-Serif" font-size="10.00">Handler</text>
</a>
</g>
</g>
<!-- Node1&#45;&gt;Node24 -->
<g id="edge23" class="edge">
<title>Node1&#45;&gt;Node24</title>
<path fill="none" stroke="midnightblue" d="M134.13,-913.59C147.29,-929.37 168.6,-951.97 192,-965 198.36,-968.54 205.25,-971.57 212.31,-974.16"/>
<polygon fill="midnightblue" stroke="midnightblue" points="136.71,-911.22 127.71,-905.64 131.27,-915.62 136.71,-911.22"/>
</g>
<!-- Node25 -->
<g id="node25" class="node">
<title>Node25</title>
<g id="a_node25"><a xlink:href="../../df/d05/classnap_1_1sequenceguiactions_1_1_hovering_right_audio_segment_handler.html" target="_top" xlink:title=" ">
<polygon fill="white" stroke="black" points="208.5,-925 208.5,-955 366.5,-955 366.5,-925 208.5,-925"/>
<text text-anchor="start" x="216.5" y="-943" font-family="Helvetica,sans-Serif" font-size="10.00">HoveringRightAudioSegment</text>
<text text-anchor="middle" x="287.5" y="-932" font-family="Helvetica,sans-Serif" font-size="10.00">Handler</text>
</a>
</g>
</g>
<!-- Node1&#45;&gt;Node25 -->
<g id="edge24" class="edge">
<title>Node1&#45;&gt;Node25</title>
<path fill="none" stroke="midnightblue" d="M166.05,-908.11C174.67,-910.4 183.61,-912.78 192,-915 204.14,-918.22 217.16,-921.67 229.53,-924.94"/>
<polygon fill="midnightblue" stroke="midnightblue" points="166.7,-904.66 156.14,-905.48 164.91,-911.43 166.7,-904.66"/>
</g>
<!-- Node26 -->
<g id="node26" class="node">
<title>Node26</title>
<g id="a_node26"><a xlink:href="../../da/d1c/classnap_1_1sequenceguiactions_1_1_hovering_segment.html" target="_top" xlink:title=" ">
<polygon fill="white" stroke="black" points="235.5,-886.5 235.5,-905.5 339.5,-905.5 339.5,-886.5 235.5,-886.5"/>
<text text-anchor="middle" x="287.5" y="-893.5" font-family="Helvetica,sans-Serif" font-size="10.00">HoveringSegment</text>
</a>
</g>
</g>
<!-- Node1&#45;&gt;Node26 -->
<g id="edge25" class="edge">
<title>Node1&#45;&gt;Node26</title>
<path fill="none" stroke="midnightblue" d="M166.24,-896C187.62,-896 213.16,-896 235.2,-896"/>
<polygon fill="midnightblue" stroke="midnightblue" points="166.11,-892.5 156.11,-896 166.11,-899.5 166.11,-892.5"/>
</g>
<!-- Node27 -->
<g id="node27" class="node">
<title>Node27</title>
<g id="a_node27"><a xlink:href="../../d9/d7f/classnap_1_1sequenceguiactions_1_1_hovering_segment_value.html" target="_top" xlink:title=" ">
<polygon fill="white" stroke="black" points="222,-848.5 222,-867.5 353,-867.5 353,-848.5 222,-848.5"/>
<text text-anchor="middle" x="287.5" y="-855.5" font-family="Helvetica,sans-Serif" font-size="10.00">HoveringSegmentValue</text>
</a>
</g>
</g>
<!-- Node1&#45;&gt;Node27 -->
<g id="edge26" class="edge">
<title>Node1&#45;&gt;Node27</title>
<path fill="none" stroke="midnightblue" d="M164.27,-883.91C173.41,-881.52 183,-879.1 192,-877 206.18,-873.69 221.63,-870.44 235.86,-867.59"/>
<polygon fill="midnightblue" stroke="midnightblue" points="163.35,-880.54 154.58,-886.49 165.14,-887.3 163.35,-880.54"/>
</g>
<!-- Node28 -->
<g id="node28" class="node">
<title>Node28</title>
<g id="a_node28"><a xlink:href="../../d0/da6/classnap_1_1sequenceguiactions_1_1_hovering_tan_point.html" target="_top" xlink:title=" ">
<polygon fill="white" stroke="black" points="236.5,-810.5 236.5,-829.5 338.5,-829.5 338.5,-810.5 236.5,-810.5"/>
<text text-anchor="middle" x="287.5" y="-817.5" font-family="Helvetica,sans-Serif" font-size="10.00">HoveringTanPoint</text>
</a>
</g>
</g>
<!-- Node1&#45;&gt;Node28 -->
<g id="edge27" class="edge">
<title>Node1&#45;&gt;Node28</title>
<path fill="none" stroke="midnightblue" d="M136.81,-879.19C150.37,-866.21 170.83,-848.86 192,-839 205.65,-832.64 221.39,-828.41 236.05,-825.59"/>
<polygon fill="midnightblue" stroke="midnightblue" points="134.33,-876.72 129.66,-886.23 139.24,-881.71 134.33,-876.72"/>
</g>
<!-- Node29 -->
<g id="node29" class="node">
<title>Node29</title>
<g id="a_node29"><a xlink:href="../../d9/d8f/classnap_1_1sequenceguiactions_1_1_hovering_track_extension_handler.html" target="_top" xlink:title=" ">
<polygon fill="white" stroke="black" points="201,-772.5 201,-791.5 374,-791.5 374,-772.5 201,-772.5"/>
<text text-anchor="middle" x="287.5" y="-779.5" font-family="Helvetica,sans-Serif" font-size="10.00">HoveringTrackExtensionHandler</text>
</a>
</g>
</g>
<!-- Node1&#45;&gt;Node29 -->
<g id="edge28" class="edge">
<title>Node1&#45;&gt;Node29</title>
<path fill="none" stroke="midnightblue" d="M129.24,-877.36C140.53,-855.44 162.31,-819.7 192,-801 198.09,-797.17 204.8,-794.08 211.75,-791.61"/>
<polygon fill="midnightblue" stroke="midnightblue" points="126.09,-875.83 124.8,-886.34 132.37,-878.93 126.09,-875.83"/>
</g>
<!-- Node30 -->
<g id="node30" class="node">
<title>Node30</title>
<g id="a_node30"><a xlink:href="../../da/db4/classnap_1_1sequenceguiactions_1_1_inserting_audio_segment_popup.html" target="_top" xlink:title=" ">
<polygon fill="white" stroke="black" points="207,-734.5 207,-753.5 368,-753.5 368,-734.5 207,-734.5"/>
<text text-anchor="middle" x="287.5" y="-741.5" font-family="Helvetica,sans-Serif" font-size="10.00">InsertingAudioSegmentPopup</text>
</a>
</g>
</g>
<!-- Node1&#45;&gt;Node30 -->
<g id="edge29" class="edge">
<title>Node1&#45;&gt;Node30</title>
<path fill="none" stroke="midnightblue" d="M125.27,-876.53C133.56,-847.05 153.53,-791.52 192,-763 197.11,-759.21 202.78,-756.13 208.74,-753.63"/>
<polygon fill="midnightblue" stroke="midnightblue" points="121.82,-875.88 122.65,-886.44 128.59,-877.67 121.82,-875.88"/>
</g>
<!-- Node31 -->
<g id="node31" class="node">
<title>Node31</title>
<g id="a_node31"><a xlink:href="../../d9/d27/classnap_1_1sequenceguiactions_1_1_inserting_curve_point.html" target="_top" xlink:title=" ">
<polygon fill="white" stroke="black" points="231,-696.5 231,-715.5 344,-715.5 344,-696.5 231,-696.5"/>
<text text-anchor="middle" x="287.5" y="-703.5" font-family="Helvetica,sans-Serif" font-size="10.00">InsertingCurvePoint</text>
</a>
</g>
</g>
<!-- Node1&#45;&gt;Node31 -->
<g id="edge30" class="edge">
<title>Node1&#45;&gt;Node31</title>
<path fill="none" stroke="midnightblue" d="M122.77,-876.23C128.01,-840.21 144.39,-764.02 192,-725 202.87,-716.09 216.78,-710.98 230.57,-708.14"/>
<polygon fill="midnightblue" stroke="midnightblue" points="119.26,-876.04 121.43,-886.41 126.2,-876.95 119.26,-876.04"/>
</g>
<!-- Node32 -->
<g id="node32" class="node">
<title>Node32</title>
<g id="a_node32"><a xlink:href="../../dd/d2f/classnap_1_1sequenceguiactions_1_1_inserting_event_segment.html" target="_top" xlink:title=" ">
<polygon fill="white" stroke="black" points="222,-658.5 222,-677.5 353,-677.5 353,-658.5 222,-658.5"/>
<text text-anchor="middle" x="287.5" y="-665.5" font-family="Helvetica,sans-Serif" font-size="10.00">InsertingEventSegment</text>
</a>
</g>
</g>
<!-- Node1&#45;&gt;Node32 -->
<g id="edge31" class="edge">
<title>Node1&#45;&gt;Node32</title>
<path fill="none" stroke="midnightblue" d="M121.07,-876.03C123.42,-834.15 135.07,-736.91 192,-687 200.43,-679.61 210.92,-674.78 221.82,-671.69"/>
<polygon fill="midnightblue" stroke="midnightblue" points="117.57,-876.14 120.63,-886.29 124.56,-876.45 117.57,-876.14"/>
</g>
<!-- Node33 -->
<g id="node33" class="node">
<title>Node33</title>
<g id="a_node33"><a xlink:href="../../de/d1f/classnap_1_1sequenceguiactions_1_1_inserting_segment_popup.html" target="_top" xlink:title=" ">
<polygon fill="white" stroke="black" points="221,-620.5 221,-639.5 354,-639.5 354,-620.5 221,-620.5"/>
<text text-anchor="middle" x="287.5" y="-627.5" font-family="Helvetica,sans-Serif" font-size="10.00">InsertingSegmentPopup</text>
</a>
</g>
</g>
<!-- Node1&#45;&gt;Node33 -->
<g id="edge32" class="edge">
<title>Node1&#45;&gt;Node33</title>
<path fill="none" stroke="midnightblue" d="M119.85,-876.36C119.44,-829.46 125.38,-710.29 192,-649 200.01,-641.64 210.04,-636.79 220.55,-633.65"/>
<polygon fill="midnightblue" stroke="midnightblue" points="116.35,-876.49 120.05,-886.41 123.35,-876.35 116.35,-876.49"/>
</g>
<!-- Node34 -->
<g id="node34" class="node">
<title>Node34</title>
<g id="a_node34"><a xlink:href="../../d5/d15/classnap_1_1sequenceguiactions_1_1_move_track_down.html" target="_top" xlink:title=" ">
<polygon fill="white" stroke="black" points="239,-582.5 239,-601.5 336,-601.5 336,-582.5 239,-582.5"/>
<text text-anchor="middle" x="287.5" y="-589.5" font-family="Helvetica,sans-Serif" font-size="10.00">MoveTrackDown</text>
</a>
</g>
</g>
<!-- Node1&#45;&gt;Node34 -->
<g id="edge33" class="edge">
<title>Node1&#45;&gt;Node34</title>
<path fill="none" stroke="midnightblue" d="M122.75,-876.07C129.75,-817.57 153.07,-648.13 192,-611 204.47,-599.1 222.21,-593.7 238.95,-591.5"/>
<polygon fill="midnightblue" stroke="midnightblue" points="119.25,-875.88 121.56,-886.22 126.2,-876.69 119.25,-875.88"/>
</g>
<!-- Node35 -->
<g id="node35" class="node">
<title>Node35</title>
<g id="a_node35"><a xlink:href="../../dc/d02/classnap_1_1sequenceguiactions_1_1_move_track_up.html" target="_top" xlink:title=" ">
<polygon fill="white" stroke="black" points="246,-544.5 246,-563.5 329,-563.5 329,-544.5 246,-544.5"/>
<text text-anchor="middle" x="287.5" y="-551.5" font-family="Helvetica,sans-Serif" font-size="10.00">MoveTrackUp</text>
</a>
</g>
</g>
<!-- Node1&#45;&gt;Node35 -->
<g id="edge34" class="edge">
<title>Node1&#45;&gt;Node35</title>
<path fill="none" stroke="midnightblue" d="M122.12,-875.98C127.7,-812.28 148.19,-615.97 192,-573 205.98,-559.29 226.92,-554.14 245.54,-552.6"/>
<polygon fill="midnightblue" stroke="midnightblue" points="118.61,-876 121.25,-886.26 125.58,-876.59 118.61,-876"/>
</g>
<!-- Node36 -->
<g id="node36" class="node">
<title>Node36</title>
<g id="a_node36"><a xlink:href="../../df/d28/classnap_1_1sequenceguiactions_1_1_open_curve_point_action_popup.html" target="_top" xlink:title=" ">
<polygon fill="white" stroke="black" points="195,-506.5 195,-525.5 380,-525.5 380,-506.5 195,-506.5"/>
<text text-anchor="middle" x="287.5" y="-513.5" font-family="Helvetica,sans-Serif" font-size="10.00">OpenCurvePointActionPopup&lt; T &gt;</text>
</a>
</g>
</g>
<!-- Node1&#45;&gt;Node36 -->
<g id="edge35" class="edge">
<title>Node1&#45;&gt;Node36</title>
<path fill="none" stroke="midnightblue" d="M121.62,-875.9C125.87,-807.28 143.28,-583.86 192,-535 195.66,-531.33 199.82,-528.26 204.31,-525.72"/>
<polygon fill="midnightblue" stroke="midnightblue" points="118.11,-876 121.01,-886.19 125.1,-876.41 118.11,-876"/>
</g>
<!-- Node37 -->
<g id="node37" class="node">
<title>Node37</title>
<g id="a_node37"><a xlink:href="../../dc/dcb/classnap_1_1sequenceguiactions_1_1_open_curve_type_popup.html" target="_top" xlink:title=" ">
<polygon fill="white" stroke="black" points="226,-468.5 226,-487.5 349,-487.5 349,-468.5 226,-468.5"/>
<text text-anchor="middle" x="287.5" y="-475.5" font-family="Helvetica,sans-Serif" font-size="10.00">OpenCurveTypePopup</text>
</a>
</g>
</g>
<!-- Node1&#45;&gt;Node37 -->
<g id="edge36" class="edge">
<title>Node1&#45;&gt;Node37</title>
<path fill="none" stroke="midnightblue" d="M121.2,-876.18C124.18,-803.35 138.26,-551.89 192,-497 201.01,-487.79 213.16,-482.41 225.73,-479.37"/>
<polygon fill="midnightblue" stroke="midnightblue" points="117.7,-876.15 120.81,-886.28 124.69,-876.42 117.7,-876.15"/>
</g>
<!-- Node38 -->
<g id="node38" class="node">
<title>Node38</title>
<g id="a_node38"><a xlink:href="../../d8/d1c/classnap_1_1sequenceguiactions_1_1_open_edit_audio_segment_popup.html" target="_top" xlink:title=" ">
<polygon fill="white" stroke="black" points="206.5,-430.5 206.5,-449.5 368.5,-449.5 368.5,-430.5 206.5,-430.5"/>
<text text-anchor="middle" x="287.5" y="-437.5" font-family="Helvetica,sans-Serif" font-size="10.00">OpenEditAudioSegmentPopup</text>
</a>
</g>
</g>
<!-- Node1&#45;&gt;Node38 -->
<g id="edge37" class="edge">
<title>Node1&#45;&gt;Node38</title>
<path fill="none" stroke="midnightblue" d="M120.87,-875.82C122.71,-798.15 133.37,-519.79 192,-459 196.18,-454.66 201.06,-451.17 206.35,-448.37"/>
<polygon fill="midnightblue" stroke="midnightblue" points="117.36,-876.07 120.65,-886.14 124.36,-876.22 117.36,-876.07"/>
</g>
<!-- Node39 -->
<g id="node39" class="node">
<title>Node39</title>
<g id="a_node39"><a xlink:href="../../d1/dd0/classnap_1_1sequenceguiactions_1_1_open_edit_curve_segment_popup.html" target="_top" xlink:title=" ">
<polygon fill="white" stroke="black" points="206,-392.5 206,-411.5 369,-411.5 369,-392.5 206,-392.5"/>
<text text-anchor="middle" x="287.5" y="-399.5" font-family="Helvetica,sans-Serif" font-size="10.00">OpenEditCurveSegmentPopup</text>
</a>
</g>
</g>
<!-- Node1&#45;&gt;Node39 -->
<g id="edge38" class="edge">
<title>Node1&#45;&gt;Node39</title>
<path fill="none" stroke="midnightblue" d="M120.58,-875.67C121.33,-793.59 128.42,-487.78 192,-421 196.04,-416.76 200.74,-413.32 205.85,-410.55"/>
<polygon fill="midnightblue" stroke="midnightblue" points="117.08,-876.08 120.51,-886.11 124.08,-876.13 117.08,-876.08"/>
</g>
<!-- Node40 -->
<g id="node40" class="node">
<title>Node40</title>
<g id="a_node40"><a xlink:href="../../d0/d65/classnap_1_1sequenceguiactions_1_1_open_edit_event_segment_popup.html" target="_top" xlink:title=" ">
<polygon fill="white" stroke="black" points="192,-354.5 192,-373.5 383,-373.5 383,-354.5 192,-354.5"/>
<text text-anchor="middle" x="287.5" y="-361.5" font-family="Helvetica,sans-Serif" font-size="10.00">OpenEditEventSegmentPopup&lt; T &gt;</text>
</a>
</g>
</g>
<!-- Node1&#45;&gt;Node40 -->
<g id="edge39" class="edge">
<title>Node1&#45;&gt;Node40</title>
<path fill="none" stroke="midnightblue" d="M120.33,-875.99C120.03,-790.37 123.33,-455.91 192,-383 195.44,-379.35 199.38,-376.29 203.64,-373.73"/>
<polygon fill="midnightblue" stroke="midnightblue" points="116.83,-876.19 120.39,-886.17 123.83,-876.15 116.83,-876.19"/>
</g>
<!-- Node41 -->
<g id="node41" class="node">
<title>Node41</title>
<g id="a_node41"><a xlink:href="../../d9/d50/classnap_1_1sequenceguiactions_1_1_open_edit_segment_curve_value_popup.html" target="_top" xlink:title=" ">
<polygon fill="white" stroke="black" points="207.5,-305 207.5,-335 367.5,-335 367.5,-305 207.5,-305"/>
<text text-anchor="start" x="215.5" y="-323" font-family="Helvetica,sans-Serif" font-size="10.00">OpenEditSegmentCurveValue</text>
<text text-anchor="middle" x="287.5" y="-312" font-family="Helvetica,sans-Serif" font-size="10.00">Popup&lt; T &gt;</text>
</a>
</g>
</g>
<!-- Node1&#45;&gt;Node41 -->
<g id="edge40" class="edge">
<title>Node1&#45;&gt;Node41</title>
<path fill="none" stroke="midnightblue" d="M120.23,-876.34C119.43,-787.71 120.66,-426.24 192,-345 196.37,-340.03 201.6,-335.99 207.33,-332.72"/>
<polygon fill="midnightblue" stroke="midnightblue" points="116.73,-876.41 120.34,-886.37 123.73,-876.33 116.73,-876.41"/>
</g>
<!-- Node42 -->
<g id="node42" class="node">
<title>Node42</title>
<g id="a_node42"><a xlink:href="../../dc/dac/classnap_1_1sequenceguiactions_1_1_open_edit_segment_popup.html" target="_top" xlink:title=" ">
<polygon fill="white" stroke="black" points="220.5,-266.5 220.5,-285.5 354.5,-285.5 354.5,-266.5 220.5,-266.5"/>
<text text-anchor="middle" x="287.5" y="-273.5" font-family="Helvetica,sans-Serif" font-size="10.00">OpenEditSegmentPopup</text>
</a>
</g>
</g>
<!-- Node1&#45;&gt;Node42 -->
<g id="edge41" class="edge">
<title>Node1&#45;&gt;Node42</title>
<path fill="none" stroke="midnightblue" d="M121.49,-876.31C126.62,-777.52 151.55,-338.82 192,-295 199.6,-286.76 209.7,-281.53 220.47,-278.3"/>
<polygon fill="midnightblue" stroke="midnightblue" points="117.99,-876.24 120.97,-886.4 124.98,-876.59 117.99,-876.24"/>
</g>
<!-- Node43 -->
<g id="node43" class="node">
<title>Node43</title>
<g id="a_node43"><a xlink:href="../../da/d94/classnap_1_1sequenceguiactions_1_1_open_edit_tan_point_popup.html" target="_top" xlink:title=" ">
<polygon fill="white" stroke="black" points="221.5,-228.5 221.5,-247.5 353.5,-247.5 353.5,-228.5 221.5,-228.5"/>
<text text-anchor="middle" x="287.5" y="-235.5" font-family="Helvetica,sans-Serif" font-size="10.00">OpenEditTanPointPopup</text>
</a>
</g>
</g>
<!-- Node1&#45;&gt;Node43 -->
<g id="edge42" class="edge">
<title>Node1&#45;&gt;Node43</title>
<path fill="none" stroke="midnightblue" d="M121.35,-876.05C125.94,-772.98 149.06,-303.85 192,-257 199.8,-248.49 210.26,-243.18 221.38,-239.98"/>
<polygon fill="midnightblue" stroke="midnightblue" points="117.85,-876.15 120.91,-886.29 124.84,-876.45 117.85,-876.15"/>
</g>
<!-- Node44 -->
<g id="node44" class="node">
<title>Node44</title>
<g id="a_node44"><a xlink:href="../../dd/d8b/classnap_1_1sequenceguiactions_1_1_open_insert_curve_point_popup.html" target="_top" xlink:title=" ">
<polygon fill="white" stroke="black" points="211,-190.5 211,-209.5 364,-209.5 364,-190.5 211,-190.5"/>
<text text-anchor="middle" x="287.5" y="-197.5" font-family="Helvetica,sans-Serif" font-size="10.00">OpenInsertCurvePointPopup</text>
</a>
</g>
</g>
<!-- Node1&#45;&gt;Node44 -->
<g id="edge43" class="edge">
<title>Node1&#45;&gt;Node44</title>
<path fill="none" stroke="midnightblue" d="M121.22,-876.2C125.24,-769.82 146.5,-268.95 192,-219 197.3,-213.19 203.83,-208.87 210.98,-205.69"/>
<polygon fill="midnightblue" stroke="midnightblue" points="117.72,-876.1 120.84,-886.22 124.71,-876.36 117.72,-876.1"/>
</g>
<!-- Node45 -->
<g id="node45" class="node">
<title>Node45</title>
<g id="a_node45"><a xlink:href="../../d2/db3/classnap_1_1sequenceguiactions_1_1_open_insert_event_segment_popup.html" target="_top" xlink:title=" ">
<polygon fill="white" stroke="black" points="202,-152.5 202,-171.5 373,-171.5 373,-152.5 202,-152.5"/>
<text text-anchor="middle" x="287.5" y="-159.5" font-family="Helvetica,sans-Serif" font-size="10.00">OpenInsertEventSegmentPopup</text>
</a>
</g>
</g>
<!-- Node1&#45;&gt;Node45 -->
<g id="edge44" class="edge">
<title>Node1&#45;&gt;Node45</title>
<path fill="none" stroke="midnightblue" d="M121.1,-876.15C124.61,-766.11 143.97,-234.02 192,-181 195.37,-177.28 199.25,-174.17 203.47,-171.58"/>
<polygon fill="midnightblue" stroke="midnightblue" points="117.59,-876.35 120.78,-886.45 124.59,-876.57 117.59,-876.35"/>
</g>
<!-- Node46 -->
<g id="node46" class="node">
<title>Node46</title>
<g id="a_node46"><a xlink:href="../../de/d4e/classnap_1_1sequenceguiactions_1_1_open_insert_segment_popup.html" target="_top" xlink:title=" ">
<polygon fill="white" stroke="black" points="216,-114.5 216,-133.5 359,-133.5 359,-114.5 216,-114.5"/>
<text text-anchor="middle" x="287.5" y="-121.5" font-family="Helvetica,sans-Serif" font-size="10.00">OpenInsertSegmentPopup</text>
</a>
</g>
</g>
<!-- Node1&#45;&gt;Node46 -->
<g id="edge45" class="edge">
<title>Node1&#45;&gt;Node46</title>
<path fill="none" stroke="midnightblue" d="M120.99,-876.17C124,-762.73 141.42,-199.11 192,-143 198.39,-135.91 206.61,-131.04 215.55,-127.75"/>
<polygon fill="midnightblue" stroke="midnightblue" points="117.49,-876.39 120.73,-886.48 124.49,-876.57 117.49,-876.39"/>
</g>
<!-- Node47 -->
<g id="node47" class="node">
<title>Node47</title>
<g id="a_node47"><a xlink:href="../../d7/d73/classnap_1_1sequenceguiactions_1_1_resize_track_height.html" target="_top" xlink:title=" ">
<polygon fill="white" stroke="black" points="234,-76.5 234,-95.5 341,-95.5 341,-76.5 234,-76.5"/>
<text text-anchor="middle" x="287.5" y="-83.5" font-family="Helvetica,sans-Serif" font-size="10.00">ResizeTrackHeight</text>
</a>
</g>
</g>
<!-- Node1&#45;&gt;Node47 -->
<g id="edge46" class="edge">
<title>Node1&#45;&gt;Node47</title>
<path fill="none" stroke="midnightblue" d="M120.9,-876.26C123.42,-759.67 138.87,-164.22 192,-105 202.62,-93.17 218.37,-87.5 233.98,-85.05"/>
<polygon fill="midnightblue" stroke="midnightblue" points="117.4,-876.2 120.69,-886.27 124.4,-876.35 117.4,-876.2"/>
</g>
<!-- Node48 -->
<g id="node48" class="node">
<title>Node48</title>
<g id="a_node48"><a xlink:href="../../d0/df7/classnap_1_1sequenceguiactions_1_1_show_load_preset_popup.html" target="_top" xlink:title=" ">
<polygon fill="white" stroke="black" points="224,-38.5 224,-57.5 351,-57.5 351,-38.5 224,-38.5"/>
<text text-anchor="middle" x="287.5" y="-45.5" font-family="Helvetica,sans-Serif" font-size="10.00">ShowLoadPresetPopup</text>
</a>
</g>
</g>
<!-- Node1&#45;&gt;Node48 -->
<g id="edge47" class="edge">
<title>Node1&#45;&gt;Node48</title>
<path fill="none" stroke="midnightblue" d="M120.81,-876.07C122.89,-755.75 136.34,-129.29 192,-67 200.25,-57.77 211.63,-52.28 223.63,-49.15"/>
<polygon fill="midnightblue" stroke="midnightblue" points="117.31,-876.31 120.64,-886.37 124.31,-876.43 117.31,-876.31"/>
</g>
<!-- Node49 -->
<g id="node49" class="node">
<title>Node49</title>
<g id="a_node49"><a xlink:href="../../dc/da3/classnap_1_1sequenceguiactions_1_1_start_dragging_segment.html" target="_top" xlink:title=" ">
<polygon fill="white" stroke="black" points="223.5,-0.5 223.5,-19.5 351.5,-19.5 351.5,-0.5 223.5,-0.5"/>
<text text-anchor="middle" x="287.5" y="-7.5" font-family="Helvetica,sans-Serif" font-size="10.00">StartDraggingSegment</text>
</a>
</g>
</g>
<!-- Node1&#45;&gt;Node49 -->
<g id="edge48" class="edge">
<title>Node1&#45;&gt;Node49</title>
<path fill="none" stroke="midnightblue" d="M120.74,-875.93C122.38,-752.04 133.81,-94.37 192,-29 200.12,-19.88 211.3,-14.41 223.12,-11.26"/>
<polygon fill="midnightblue" stroke="midnightblue" points="117.23,-876.17 120.61,-886.22 124.23,-876.26 117.23,-876.17"/>
</g>
<!-- Node2 -->
<g id="node2" class="node">
<title>Node2</title>
<g id="a_node2"><a xlink:href="../../d6/d35/classnap_1_1sequenceguiactions_1_1_action.html" target="_top" xlink:title=" ">
<polygon fill="white" stroke="black" points="0,-886.5 0,-905.5 47,-905.5 47,-886.5 0,-886.5"/>
<text text-anchor="middle" x="23.5" y="-893.5" font-family="Helvetica,sans-Serif" font-size="10.00">Action</text>
</a>
</g>
</g>
<!-- Node2&#45;&gt;Node1 -->
<g id="edge1" class="edge">
<title>Node2&#45;&gt;Node1</title>
<path fill="none" stroke="midnightblue" d="M57.26,-896C65.5,-896 74.38,-896 82.75,-896"/>
<polygon fill="midnightblue" stroke="midnightblue" points="57.25,-892.5 47.25,-896 57.25,-899.5 57.25,-892.5"/>
</g>
</g>
</svg>
