<?xml version="1.0" encoding="UTF-8" standalone="no"?>
<!DOCTYPE svg PUBLIC "-//W3C//DTD SVG 1.1//EN"
 "http://www.w3.org/Graphics/SVG/1.1/DTD/svg11.dtd">
<!-- Generated by graphviz version 2.48.0 (20210717.1556)
 -->
<!-- Title: SequenceTrackSegmentCurve&lt; T &gt; Pages: 1 -->
<svg width="178pt" height="196pt"
 viewBox="0.00 0.00 178.00 196.00" xmlns="http://www.w3.org/2000/svg" xmlns:xlink="http://www.w3.org/1999/xlink">
<g id="graph0" class="graph" transform="scale(1 1) rotate(0) translate(4 192)">
<title>SequenceTrackSegmentCurve&lt; T &gt;</title>
<polygon fill="white" stroke="transparent" points="-4,4 -4,-192 174,-192 174,4 -4,4"/>
<!-- Node0 -->
<g id="node1" class="node">
<title>Node0</title>
<polygon fill="#bfbfbf" stroke="black" points="0,-0.5 0,-19.5 170,-19.5 170,-0.5 0,-0.5"/>
<text text-anchor="middle" x="85" y="-7.5" font-family="Helvetica,sans-Serif" font-size="10.00">SequenceTrackSegmentCurve&lt; T &gt;</text>
</g>
<!-- Node1 -->
<g id="node2" class="node">
<title>Node1</title>
<g id="a_node2"><a xlink:href="../../de/d50/classnap_1_1_sequence_track_segment.html" target="_top" xlink:title="SequenceTrackSegment">
<polygon fill="white" stroke="black" points="23.5,-56.5 23.5,-75.5 146.5,-75.5 146.5,-56.5 23.5,-56.5"/>
<text text-anchor="middle" x="85" y="-63.5" font-family="Helvetica,sans-Serif" font-size="10.00">SequenceTrackSegment</text>
</a>
</g>
</g>
<!-- Node1&#45;&gt;Node0 -->
<g id="edge1" class="edge">
<title>Node1&#45;&gt;Node0</title>
<path fill="none" stroke="midnightblue" d="M85,-45.8C85,-36.91 85,-26.78 85,-19.75"/>
<polygon fill="midnightblue" stroke="midnightblue" points="81.5,-46.08 85,-56.08 88.5,-46.08 81.5,-46.08"/>
</g>
<!-- Node2 -->
<g id="node3" class="node">
<title>Node2</title>
<g id="a_node3"><a xlink:href="../../d9/dea/classnap_1_1_resource.html" target="_top" xlink:title="Resource">
<polygon fill="white" stroke="black" points="56,-112.5 56,-131.5 114,-131.5 114,-112.5 56,-112.5"/>
<text text-anchor="middle" x="85" y="-119.5" font-family="Helvetica,sans-Serif" font-size="10.00">Resource</text>
</a>
</g>
</g>
<!-- Node2&#45;&gt;Node1 -->
<g id="edge2" class="edge">
<title>Node2&#45;&gt;Node1</title>
<path fill="none" stroke="midnightblue" d="M85,-101.8C85,-92.91 85,-82.78 85,-75.75"/>
<polygon fill="midnightblue" stroke="midnightblue" points="81.5,-102.08 85,-112.08 88.5,-102.08 81.5,-102.08"/>
</g>
<!-- Node3 -->
<g id="node4" class="node">
<title>Node3</title>
<g id="a_node4"><a xlink:href="../../de/d01/classnap_1_1rtti_1_1_object.html" target="_top" xlink:title="Object">
<polygon fill="white" stroke="black" points="62.5,-168.5 62.5,-187.5 107.5,-187.5 107.5,-168.5 62.5,-168.5"/>
<text text-anchor="middle" x="85" y="-175.5" font-family="Helvetica,sans-Serif" font-size="10.00">Object</text>
</a>
</g>
</g>
<!-- Node3&#45;&gt;Node2 -->
<g id="edge3" class="edge">
<title>Node3&#45;&gt;Node2</title>
<path fill="none" stroke="midnightblue" d="M85,-157.8C85,-148.91 85,-138.78 85,-131.75"/>
<polygon fill="midnightblue" stroke="midnightblue" points="81.5,-158.08 85,-168.08 88.5,-158.08 81.5,-158.08"/>
</g>
</g>
</svg>
