<?xml version="1.0" encoding="UTF-8" standalone="no"?>
<!DOCTYPE svg PUBLIC "-//W3C//DTD SVG 1.1//EN"
 "http://www.w3.org/Graphics/SVG/1.1/DTD/svg11.dtd">
<!-- Generated by graphviz version 2.48.0 (20210717.1556)
 -->
<!-- Title: StructBufferDescriptor Pages: 1 -->
<svg width="165pt" height="152pt"
 viewBox="0.00 0.00 165.00 152.00" xmlns="http://www.w3.org/2000/svg" xmlns:xlink="http://www.w3.org/1999/xlink">
<g id="graph0" class="graph" transform="scale(1 1) rotate(0) translate(4 148)">
<title>StructBufferDescriptor</title>
<polygon fill="white" stroke="transparent" points="-4,4 -4,-148 161,-148 161,4 -4,4"/>
<!-- Node1 -->
<g id="node1" class="node">
<title>Node1</title>
<polygon fill="#bfbfbf" stroke="black" points="22.5,-0.5 22.5,-19.5 134.5,-19.5 134.5,-0.5 22.5,-0.5"/>
<text text-anchor="middle" x="78.5" y="-7.5" font-family="Helvetica,sans-Serif" font-size="10.00">StructBufferDescriptor</text>
</g>
<!-- Node2 -->
<g id="node2" class="node">
<title>Node2</title>
<g id="a_node2"><a xlink:href="../../dd/d7c/classnap_1_1rtti_1_1_object_ptr.html" target="_top" xlink:title="ObjectPtr\&lt; nap::UniformStruct \&gt;">
<polygon fill="white" stroke="black" points="0,-67.5 0,-86.5 157,-86.5 157,-67.5 0,-67.5"/>
<text text-anchor="middle" x="78.5" y="-74.5" font-family="Helvetica,sans-Serif" font-size="10.00">ObjectPtr&lt; nap::UniformStruct &gt;</text>
</a>
</g>
</g>
<!-- Node2&#45;&gt;Node1 -->
<g id="edge1" class="edge">
<title>Node2&#45;&gt;Node1</title>
<path fill="none" stroke="#9a32cd" stroke-dasharray="5,2" d="M78.5,-57.04C78.5,-44.67 78.5,-29.12 78.5,-19.63"/>
<polygon fill="#9a32cd" stroke="#9a32cd" points="75,-57.23 78.5,-67.23 82,-57.23 75,-57.23"/>
<text text-anchor="middle" x="102.5" y="-41" font-family="Helvetica,sans-Serif" font-size="10.00"> mElement</text>
</g>
<!-- Node3 -->
<g id="node3" class="node">
<title>Node3</title>
<g id="a_node3"><a xlink:href="../../d7/dcb/classnap_1_1rtti_1_1_object_ptr_base.html" target="_top" xlink:title="ObjectPtrBase">
<polygon fill="white" stroke="black" points="38.5,-124.5 38.5,-143.5 118.5,-143.5 118.5,-124.5 38.5,-124.5"/>
<text text-anchor="middle" x="78.5" y="-131.5" font-family="Helvetica,sans-Serif" font-size="10.00">ObjectPtrBase</text>
</a>
</g>
</g>
<!-- Node3&#45;&gt;Node2 -->
<g id="edge2" class="edge">
<title>Node3&#45;&gt;Node2</title>
<path fill="none" stroke="midnightblue" d="M78.5,-114.12C78.5,-104.82 78.5,-94.06 78.5,-86.71"/>
<polygon fill="midnightblue" stroke="midnightblue" points="75,-114.41 78.5,-124.41 82,-114.41 75,-114.41"/>
</g>
</g>
</svg>
