<?xml version="1.0" encoding="UTF-8" standalone="no"?>
<!DOCTYPE svg PUBLIC "-//W3C//DTD SVG 1.1//EN"
 "http://www.w3.org/Graphics/SVG/1.1/DTD/svg11.dtd">
<!-- Generated by graphviz version 2.43.0 (0)
 -->
<!-- Title: ComputeComponentInstance Pages: 1 -->
<svg width="689pt" height="364pt"
 viewBox="0.00 0.00 688.50 364.00" xmlns="http://www.w3.org/2000/svg" xmlns:xlink="http://www.w3.org/1999/xlink">
<g id="graph0" class="graph" transform="scale(1 1) rotate(0) translate(4 360)">
<title>ComputeComponentInstance</title>
<polygon fill="white" stroke="transparent" points="-4,4 -4,-360 684.5,-360 684.5,4 -4,4"/>
<!-- Node1 -->
<g id="node1" class="node">
<title>Node1</title>
<g id="a_node1"><a xlink:title=" ">
<polygon fill="#bfbfbf" stroke="black" points="44,-0.5 44,-19.5 202,-19.5 202,-0.5 44,-0.5"/>
<text text-anchor="middle" x="123" y="-7.5" font-family="Helvetica,sans-Serif" font-size="10.00">ComputeComponentInstance</text>
</a>
</g>
</g>
<!-- Node2 -->
<g id="node2" class="node">
<title>Node2</title>
<g id="a_node2"><a xlink:href="../../d9/df2/classnap_1_1_component_instance.html" target="_top" xlink:title=" ">
<polygon fill="white" stroke="black" points="0,-240.5 0,-259.5 114,-259.5 114,-240.5 0,-240.5"/>
<text text-anchor="middle" x="57" y="-247.5" font-family="Helvetica,sans-Serif" font-size="10.00">ComponentInstance</text>
</a>
</g>
</g>
<!-- Node2&#45;&gt;Node1 -->
<g id="edge1" class="edge">
<title>Node2&#45;&gt;Node1</title>
<path fill="none" stroke="midnightblue" d="M62.32,-230.5C65.91,-216.38 70,-196.37 70,-178.5 70,-178.5 70,-178.5 70,-76 70,-51.1 93.65,-30.46 109.35,-19.5"/>
<polygon fill="midnightblue" stroke="midnightblue" points="58.87,-229.84 59.63,-240.41 65.63,-231.68 58.87,-229.84"/>
</g>
<!-- Node3 -->
<g id="node3" class="node">
<title>Node3</title>
<g id="a_node3"><a xlink:href="../../de/d01/classnap_1_1rtti_1_1_object.html" target="_top" xlink:title=" ">
<polygon fill="white" stroke="black" points="36,-336.5 36,-355.5 84,-355.5 84,-336.5 36,-336.5"/>
<text text-anchor="middle" x="60" y="-343.5" font-family="Helvetica,sans-Serif" font-size="10.00">Object</text>
</a>
</g>
</g>
<!-- Node3&#45;&gt;Node2 -->
<g id="edge2" class="edge">
<title>Node3&#45;&gt;Node2</title>
<path fill="none" stroke="midnightblue" d="M59.4,-326.14C58.75,-305.91 57.76,-274.68 57.28,-259.65"/>
<polygon fill="midnightblue" stroke="midnightblue" points="55.91,-326.44 59.72,-336.33 62.9,-326.22 55.91,-326.44"/>
</g>
<!-- Node13 -->
<g id="node13" class="node">
<title>Node13</title>
<g id="a_node13"><a xlink:href="../../d9/dea/classnap_1_1_resource.html" target="_top" xlink:title=" ">
<polygon fill="white" stroke="black" points="540,-279.5 540,-298.5 602,-298.5 602,-279.5 540,-279.5"/>
<text text-anchor="middle" x="571" y="-286.5" font-family="Helvetica,sans-Serif" font-size="10.00">Resource</text>
</a>
</g>
</g>
<!-- Node3&#45;&gt;Node13 -->
<g id="edge14" class="edge">
<title>Node3&#45;&gt;Node13</title>
<path fill="none" stroke="midnightblue" d="M94.44,-341.29C188.68,-331.15 449.8,-303.04 539.93,-293.34"/>
<polygon fill="midnightblue" stroke="midnightblue" points="93.87,-337.83 84.3,-342.38 94.62,-344.79 93.87,-337.83"/>
</g>
<!-- Node4 -->
<g id="node4" class="node">
<title>Node4</title>
<g id="a_node4"><a xlink:href="../../d5/dc6/classnap_1_1_render_service.html" target="_top" xlink:title=" ">
<polygon fill="white" stroke="black" points="109.5,-201.5 109.5,-220.5 196.5,-220.5 196.5,-201.5 109.5,-201.5"/>
<text text-anchor="middle" x="153" y="-208.5" font-family="Helvetica,sans-Serif" font-size="10.00">RenderService</text>
</a>
</g>
</g>
<!-- Node4&#45;&gt;Node1 -->
<g id="edge3" class="edge">
<title>Node4&#45;&gt;Node1</title>
<path fill="none" stroke="#9a32cd" stroke-dasharray="5,2" d="M150.18,-191.3C143.88,-149.51 128.85,-49.83 124.32,-19.74"/>
<polygon fill="#9a32cd" stroke="#9a32cd" points="146.76,-192.08 151.71,-201.45 153.68,-191.04 146.76,-192.08"/>
<text text-anchor="middle" x="181" y="-108" font-family="Helvetica,sans-Serif" font-size="10.00"> mRenderService</text>
</g>
<!-- Node8 -->
<g id="node8" class="node">
<title>Node8</title>
<g id="a_node8"><a xlink:href="../../d4/d2c/classnap_1_1_base_material_instance.html" target="_top" xlink:title=" ">
<polygon fill="white" stroke="black" points="264,-134.5 264,-153.5 386,-153.5 386,-134.5 264,-134.5"/>
<text text-anchor="middle" x="325" y="-141.5" font-family="Helvetica,sans-Serif" font-size="10.00">BaseMaterialInstance</text>
</a>
</g>
</g>
<!-- Node4&#45;&gt;Node8 -->
<g id="edge9" class="edge">
<title>Node4&#45;&gt;Node8</title>
<path fill="none" stroke="#9a32cd" stroke-dasharray="5,2" d="M159.23,-191.5C162.54,-184.36 167.33,-176.78 174,-172 188.4,-161.69 228.59,-154.8 263.89,-150.57"/>
<polygon fill="#9a32cd" stroke="#9a32cd" points="155.79,-190.68 155.4,-201.27 162.31,-193.23 155.79,-190.68"/>
<text text-anchor="middle" x="216" y="-175" font-family="Helvetica,sans-Serif" font-size="10.00"> mRenderService</text>
</g>
<!-- Node5 -->
<g id="node5" class="node">
<title>Node5</title>
<g id="a_node5"><a xlink:href="../../d8/d8e/classnap_1_1_service.html" target="_top" xlink:title=" ">
<polygon fill="white" stroke="black" points="270.5,-279.5 270.5,-298.5 323.5,-298.5 323.5,-279.5 270.5,-279.5"/>
<text text-anchor="middle" x="297" y="-286.5" font-family="Helvetica,sans-Serif" font-size="10.00">Service</text>
</a>
</g>
</g>
<!-- Node5&#45;&gt;Node4 -->
<g id="edge4" class="edge">
<title>Node5&#45;&gt;Node4</title>
<path fill="none" stroke="midnightblue" d="M285.44,-271.17C277.27,-260.48 265.41,-247.17 252,-239 241.92,-232.86 215.75,-225.84 192.85,-220.5"/>
<polygon fill="midnightblue" stroke="midnightblue" points="282.68,-273.32 291.39,-279.36 288.34,-269.21 282.68,-273.32"/>
</g>
<!-- Node6 -->
<g id="node6" class="node">
<title>Node6</title>
<g id="a_node6"><a xlink:href="../../de/d80/classnap_1_1_signal.html" target="_top" xlink:title=" ">
<polygon fill="white" stroke="black" points="75.5,-279.5 75.5,-298.5 252.5,-298.5 252.5,-279.5 75.5,-279.5"/>
<text text-anchor="middle" x="164" y="-286.5" font-family="Helvetica,sans-Serif" font-size="10.00">Signal&lt; nap::RenderWindow &amp; &gt;</text>
</a>
</g>
</g>
<!-- Node6&#45;&gt;Node4 -->
<g id="edge5" class="edge">
<title>Node6&#45;&gt;Node4</title>
<path fill="none" stroke="#9a32cd" stroke-dasharray="5,2" d="M161.28,-269.22C159.04,-253.7 155.95,-232.36 154.25,-220.62"/>
<polygon fill="#9a32cd" stroke="#9a32cd" points="157.84,-269.89 162.74,-279.28 164.77,-268.88 157.84,-269.89"/>
<text text-anchor="middle" x="204" y="-253" font-family="Helvetica,sans-Serif" font-size="10.00"> windowRemoved</text>
<text text-anchor="middle" x="204" y="-242" font-family="Helvetica,sans-Serif" font-size="10.00">windowAdded</text>
</g>
<!-- Node7 -->
<g id="node7" class="node">
<title>Node7</title>
<g id="a_node7"><a xlink:href="../../db/db6/classnap_1_1_compute_material_instance.html" target="_top" xlink:title=" ">
<polygon fill="white" stroke="black" points="223.5,-67.5 223.5,-86.5 366.5,-86.5 366.5,-67.5 223.5,-67.5"/>
<text text-anchor="middle" x="295" y="-74.5" font-family="Helvetica,sans-Serif" font-size="10.00">ComputeMaterialInstance</text>
</a>
</g>
</g>
<!-- Node7&#45;&gt;Node1 -->
<g id="edge6" class="edge">
<title>Node7&#45;&gt;Node1</title>
<path fill="none" stroke="#9a32cd" stroke-dasharray="5,2" d="M262.64,-63.77C228.5,-50.87 175.59,-30.88 145.66,-19.56"/>
<polygon fill="#9a32cd" stroke="#9a32cd" points="261.57,-67.11 272.16,-67.37 264.04,-60.56 261.57,-67.11"/>
<text text-anchor="middle" x="289.5" y="-41" font-family="Helvetica,sans-Serif" font-size="10.00"> mComputeMaterialInstance</text>
</g>
<!-- Node8&#45;&gt;Node7 -->
<g id="edge7" class="edge">
<title>Node8&#45;&gt;Node7</title>
<path fill="none" stroke="midnightblue" d="M316.6,-124.79C310.83,-112.31 303.45,-96.31 298.98,-86.63"/>
<polygon fill="midnightblue" stroke="midnightblue" points="313.59,-126.62 320.95,-134.23 319.94,-123.69 313.59,-126.62"/>
</g>
<!-- Node9 -->
<g id="node9" class="node">
<title>Node9</title>
<g id="a_node9"><a xlink:href="../../d5/d6c/classnap_1_1_uniform_container.html" target="_top" xlink:title=" ">
<polygon fill="white" stroke="black" points="355,-279.5 355,-298.5 459,-298.5 459,-279.5 355,-279.5"/>
<text text-anchor="middle" x="407" y="-286.5" font-family="Helvetica,sans-Serif" font-size="10.00">UniformContainer</text>
</a>
</g>
</g>
<!-- Node9&#45;&gt;Node8 -->
<g id="edge8" class="edge">
<title>Node9&#45;&gt;Node8</title>
<path fill="none" stroke="midnightblue" d="M405.82,-269.25C403.37,-244.52 395.89,-200.79 373,-172 366.57,-163.92 357.03,-157.85 348.14,-153.53"/>
<polygon fill="midnightblue" stroke="midnightblue" points="402.35,-269.75 406.64,-279.43 409.32,-269.18 402.35,-269.75"/>
</g>
<!-- Node12 -->
<g id="node12" class="node">
<title>Node12</title>
<g id="a_node12"><a xlink:href="../../da/d69/classnap_1_1_base_material.html" target="_top" xlink:title=" ">
<polygon fill="white" stroke="black" points="599.5,-201.5 599.5,-220.5 680.5,-220.5 680.5,-201.5 599.5,-201.5"/>
<text text-anchor="middle" x="640" y="-208.5" font-family="Helvetica,sans-Serif" font-size="10.00">BaseMaterial</text>
</a>
</g>
</g>
<!-- Node9&#45;&gt;Node12 -->
<g id="edge15" class="edge">
<title>Node9&#45;&gt;Node12</title>
<path fill="none" stroke="midnightblue" d="M442.8,-276.32C490.01,-260.92 571.99,-234.18 613.82,-220.54"/>
<polygon fill="midnightblue" stroke="midnightblue" points="441.7,-273 433.28,-279.43 443.87,-279.66 441.7,-273"/>
</g>
<!-- Node10 -->
<g id="node10" class="node">
<title>Node10</title>
<g id="a_node10"><a xlink:href="../../d2/d1c/classnap_1_1_descriptor_set_cache.html" target="_top" xlink:title=" ">
<polygon fill="white" stroke="black" points="214.5,-201.5 214.5,-220.5 327.5,-220.5 327.5,-201.5 214.5,-201.5"/>
<text text-anchor="middle" x="271" y="-208.5" font-family="Helvetica,sans-Serif" font-size="10.00">DescriptorSetCache</text>
</a>
</g>
</g>
<!-- Node10&#45;&gt;Node8 -->
<g id="edge10" class="edge">
<title>Node10&#45;&gt;Node8</title>
<path fill="none" stroke="#9a32cd" stroke-dasharray="5,2" d="M262.49,-191.84C260.63,-185.17 260.21,-177.83 264,-172 269.56,-163.46 278.51,-157.6 287.85,-153.59"/>
<polygon fill="#9a32cd" stroke="#9a32cd" points="259.32,-193.37 266.17,-201.46 265.86,-190.87 259.32,-193.37"/>
<text text-anchor="middle" x="318.5" y="-175" font-family="Helvetica,sans-Serif" font-size="10.00"> mDescriptorSetCache</text>
</g>
<!-- Node11 -->
<g id="node11" class="node">
<title>Node11</title>
<g id="a_node11"><a xlink:href="../../df/d7a/classnap_1_1_base_material_instance_resource.html" target="_top" xlink:title=" ">
<polygon fill="white" stroke="black" points="414.5,-201.5 414.5,-220.5 581.5,-220.5 581.5,-201.5 414.5,-201.5"/>
<text text-anchor="middle" x="498" y="-208.5" font-family="Helvetica,sans-Serif" font-size="10.00">BaseMaterialInstanceResource</text>
</a>
</g>
</g>
<!-- Node11&#45;&gt;Node8 -->
<g id="edge11" class="edge">
<title>Node11&#45;&gt;Node8</title>
<path fill="none" stroke="#9a32cd" stroke-dasharray="5,2" d="M467.14,-197.62C448.13,-190.07 423.22,-180.3 401,-172 383.95,-165.63 364.62,-158.77 349.72,-153.56"/>
<polygon fill="#9a32cd" stroke="#9a32cd" points="465.92,-200.9 476.5,-201.35 468.51,-194.4 465.92,-200.9"/>
<text text-anchor="middle" x="456" y="-175" font-family="Helvetica,sans-Serif" font-size="10.00"> mResource</text>
</g>
<!-- Node12&#45;&gt;Node8 -->
<g id="edge12" class="edge">
<title>Node12&#45;&gt;Node8</title>
<path fill="none" stroke="#9a32cd" stroke-dasharray="5,2" d="M599.45,-198.82C569.17,-190.71 526.69,-179.83 489,-172 454.39,-164.81 415.35,-158.32 384.05,-153.5"/>
<polygon fill="#9a32cd" stroke="#9a32cd" points="598.66,-202.23 609.23,-201.46 600.49,-195.47 598.66,-202.23"/>
<text text-anchor="middle" x="561" y="-175" font-family="Helvetica,sans-Serif" font-size="10.00"> mMaterial</text>
</g>
<!-- Node13&#45;&gt;Node12 -->
<g id="edge13" class="edge">
<title>Node13&#45;&gt;Node12</title>
<path fill="none" stroke="midnightblue" d="M585.64,-271.88C599.86,-256.22 620.9,-233.04 632.18,-220.62"/>
<polygon fill="midnightblue" stroke="midnightblue" points="583.05,-269.53 578.92,-279.28 588.23,-274.23 583.05,-269.53"/>
</g>
</g>
</svg>
