<?xml version="1.0" encoding="UTF-8" standalone="no"?>
<!DOCTYPE svg PUBLIC "-//W3C//DTD SVG 1.1//EN"
 "http://www.w3.org/Graphics/SVG/1.1/DTD/svg11.dtd">
<!-- Generated by graphviz version 2.48.0 (20210717.1556)
 -->
<!-- Title: ComputeComponentInstance Pages: 1 -->
<svg width="636pt" height="364pt"
 viewBox="0.00 0.00 635.50 364.00" xmlns="http://www.w3.org/2000/svg" xmlns:xlink="http://www.w3.org/1999/xlink">
<g id="graph0" class="graph" transform="scale(1 1) rotate(0) translate(4 360)">
<title>ComputeComponentInstance</title>
<polygon fill="white" stroke="transparent" points="-4,4 -4,-360 631.5,-360 631.5,4 -4,4"/>
<!-- Node3 -->
<g id="node1" class="node">
<title>Node3</title>
<polygon fill="#bfbfbf" stroke="black" points="40.5,-0.5 40.5,-19.5 182.5,-19.5 182.5,-0.5 40.5,-0.5"/>
<text text-anchor="middle" x="111.5" y="-7.5" font-family="Helvetica,sans-Serif" font-size="10.00">ComputeComponentInstance</text>
</g>
<!-- Node4 -->
<g id="node2" class="node">
<title>Node4</title>
<g id="a_node2"><a xlink:href="../../d9/df2/classnap_1_1_component_instance.html" target="_top" xlink:title="ComponentInstance">
<polygon fill="white" stroke="black" points="0,-240.5 0,-259.5 103,-259.5 103,-240.5 0,-240.5"/>
<text text-anchor="middle" x="51.5" y="-247.5" font-family="Helvetica,sans-Serif" font-size="10.00">ComponentInstance</text>
</a>
</g>
</g>
<!-- Node4&#45;&gt;Node3 -->
<g id="edge1" class="edge">
<title>Node4&#45;&gt;Node3</title>
<path fill="none" stroke="midnightblue" d="M58.71,-231.07C63.72,-217.01 69.5,-196.82 69.5,-178.5 69.5,-178.5 69.5,-178.5 69.5,-76 69.5,-52.62 88.9,-31 101.33,-19.54"/>
<polygon fill="midnightblue" stroke="midnightblue" points="55.41,-229.9 55.14,-240.5 61.96,-232.39 55.41,-229.9"/>
</g>
<!-- Node5 -->
<g id="node3" class="node">
<title>Node5</title>
<g id="a_node3"><a xlink:href="../../de/d01/classnap_1_1rtti_1_1_object.html" target="_top" xlink:title="Object">
<polygon fill="white" stroke="black" points="38,-336.5 38,-355.5 83,-355.5 83,-336.5 38,-336.5"/>
<text text-anchor="middle" x="60.5" y="-343.5" font-family="Helvetica,sans-Serif" font-size="10.00">Object</text>
</a>
</g>
</g>
<!-- Node5&#45;&gt;Node4 -->
<g id="edge2" class="edge">
<title>Node5&#45;&gt;Node4</title>
<path fill="none" stroke="midnightblue" d="M58.69,-326.14C56.76,-305.91 53.77,-274.68 52.33,-259.65"/>
<polygon fill="midnightblue" stroke="midnightblue" points="55.23,-326.7 59.67,-336.33 62.2,-326.04 55.23,-326.7"/>
</g>
<!-- Node15 -->
<g id="node13" class="node">
<title>Node15</title>
<g id="a_node13"><a xlink:href="../../d9/dea/classnap_1_1_resource.html" target="_top" xlink:title="Resource">
<polygon fill="white" stroke="black" points="498.5,-279.5 498.5,-298.5 556.5,-298.5 556.5,-279.5 498.5,-279.5"/>
<text text-anchor="middle" x="527.5" y="-286.5" font-family="Helvetica,sans-Serif" font-size="10.00">Resource</text>
</a>
</g>
</g>
<!-- Node5&#45;&gt;Node15 -->
<g id="edge14" class="edge">
<title>Node5&#45;&gt;Node15</title>
<path fill="none" stroke="midnightblue" d="M93.08,-341.16C179.83,-330.95 415.46,-303.2 498.25,-293.44"/>
<polygon fill="midnightblue" stroke="midnightblue" points="92.55,-337.7 83.02,-342.35 93.37,-344.65 92.55,-337.7"/>
</g>
<!-- Node6 -->
<g id="node4" class="node">
<title>Node6</title>
<g id="a_node4"><a xlink:href="../../d5/dc6/classnap_1_1_render_service.html" target="_top" xlink:title="RenderService">
<polygon fill="white" stroke="black" points="102,-201.5 102,-220.5 181,-220.5 181,-201.5 102,-201.5"/>
<text text-anchor="middle" x="141.5" y="-208.5" font-family="Helvetica,sans-Serif" font-size="10.00">RenderService</text>
</a>
</g>
</g>
<!-- Node6&#45;&gt;Node3 -->
<g id="edge3" class="edge">
<title>Node6&#45;&gt;Node3</title>
<path fill="none" stroke="#9a32cd" stroke-dasharray="5,2" d="M138.68,-191.3C132.38,-149.51 117.35,-49.83 112.82,-19.74"/>
<polygon fill="#9a32cd" stroke="#9a32cd" points="135.26,-192.08 140.21,-201.45 142.18,-191.04 135.26,-192.08"/>
<text text-anchor="middle" x="164.5" y="-108" font-family="Helvetica,sans-Serif" font-size="10.00"> mRenderService</text>
</g>
<!-- Node10 -->
<g id="node8" class="node">
<title>Node10</title>
<g id="a_node8"><a xlink:href="../../d4/d2c/classnap_1_1_base_material_instance.html" target="_top" xlink:title="BaseMaterialInstance">
<polygon fill="white" stroke="black" points="243.5,-134.5 243.5,-153.5 353.5,-153.5 353.5,-134.5 243.5,-134.5"/>
<text text-anchor="middle" x="298.5" y="-141.5" font-family="Helvetica,sans-Serif" font-size="10.00">BaseMaterialInstance</text>
</a>
</g>
</g>
<!-- Node6&#45;&gt;Node10 -->
<g id="edge9" class="edge">
<title>Node6&#45;&gt;Node10</title>
<path fill="none" stroke="#9a32cd" stroke-dasharray="5,2" d="M147.77,-191.56C151.09,-184.43 155.88,-176.84 162.5,-172 175.43,-162.56 211.63,-155.64 243.43,-151.17"/>
<polygon fill="#9a32cd" stroke="#9a32cd" points="144.34,-190.72 143.93,-201.31 150.85,-193.29 144.34,-190.72"/>
<text text-anchor="middle" x="199.5" y="-175" font-family="Helvetica,sans-Serif" font-size="10.00"> mRenderService</text>
</g>
<!-- Node7 -->
<g id="node5" class="node">
<title>Node7</title>
<g id="a_node5"><a xlink:href="../../d8/d8e/classnap_1_1_service.html" target="_top" xlink:title="Service">
<polygon fill="white" stroke="black" points="250.5,-279.5 250.5,-298.5 298.5,-298.5 298.5,-279.5 250.5,-279.5"/>
<text text-anchor="middle" x="274.5" y="-286.5" font-family="Helvetica,sans-Serif" font-size="10.00">Service</text>
</a>
</g>
</g>
<!-- Node7&#45;&gt;Node6 -->
<g id="edge4" class="edge">
<title>Node7&#45;&gt;Node6</title>
<path fill="none" stroke="midnightblue" d="M262.85,-271.3C254.64,-260.67 242.78,-247.38 229.5,-239 214.9,-229.79 196.96,-223.55 181.09,-219.4"/>
<polygon fill="midnightblue" stroke="midnightblue" points="260.09,-273.46 268.84,-279.44 265.73,-269.31 260.09,-273.46"/>
</g>
<!-- Node8 -->
<g id="node6" class="node">
<title>Node8</title>
<g id="a_node6"><a xlink:href="../../de/d80/classnap_1_1_signal.html" target="_top" xlink:title="Signal\&lt; nap::RenderWindow &amp;\&gt;">
<polygon fill="white" stroke="black" points="77,-279.5 77,-298.5 232,-298.5 232,-279.5 77,-279.5"/>
<text text-anchor="middle" x="154.5" y="-286.5" font-family="Helvetica,sans-Serif" font-size="10.00">Signal&lt; nap::RenderWindow &amp;&gt;</text>
</a>
</g>
</g>
<!-- Node8&#45;&gt;Node6 -->
<g id="edge5" class="edge">
<title>Node8&#45;&gt;Node6</title>
<path fill="none" stroke="#9a32cd" stroke-dasharray="5,2" d="M151.29,-269.22C148.63,-253.7 144.98,-232.36 142.97,-220.62"/>
<polygon fill="#9a32cd" stroke="#9a32cd" points="147.87,-270.02 153.01,-279.28 154.77,-268.83 147.87,-270.02"/>
<text text-anchor="middle" x="188" y="-253" font-family="Helvetica,sans-Serif" font-size="10.00"> windowRemoved</text>
<text text-anchor="middle" x="188" y="-242" font-family="Helvetica,sans-Serif" font-size="10.00">windowAdded</text>
</g>
<!-- Node9 -->
<g id="node7" class="node">
<title>Node9</title>
<g id="a_node7"><a xlink:href="../../db/db6/classnap_1_1_compute_material_instance.html" target="_top" xlink:title="ComputeMaterialInstance">
<polygon fill="white" stroke="black" points="207,-67.5 207,-86.5 334,-86.5 334,-67.5 207,-67.5"/>
<text text-anchor="middle" x="270.5" y="-74.5" font-family="Helvetica,sans-Serif" font-size="10.00">ComputeMaterialInstance</text>
</a>
</g>
</g>
<!-- Node9&#45;&gt;Node3 -->
<g id="edge6" class="edge">
<title>Node9&#45;&gt;Node3</title>
<path fill="none" stroke="#9a32cd" stroke-dasharray="5,2" d="M239.77,-63.44C208.19,-50.53 159.88,-30.78 132.45,-19.56"/>
<polygon fill="#9a32cd" stroke="#9a32cd" points="238.81,-66.82 249.39,-67.37 241.45,-60.34 238.81,-66.82"/>
<text text-anchor="middle" x="262.5" y="-41" font-family="Helvetica,sans-Serif" font-size="10.00"> mComputeMaterialInstance</text>
</g>
<!-- Node10&#45;&gt;Node9 -->
<g id="edge7" class="edge">
<title>Node10&#45;&gt;Node9</title>
<path fill="none" stroke="midnightblue" d="M290.66,-124.79C285.28,-112.31 278.39,-96.31 274.22,-86.63"/>
<polygon fill="midnightblue" stroke="midnightblue" points="287.55,-126.43 294.72,-134.23 293.98,-123.66 287.55,-126.43"/>
</g>
<!-- Node11 -->
<g id="node9" class="node">
<title>Node11</title>
<g id="a_node9"><a xlink:href="../../d5/d6c/classnap_1_1_uniform_container.html" target="_top" xlink:title="UniformContainer">
<polygon fill="white" stroke="black" points="331,-279.5 331,-298.5 422,-298.5 422,-279.5 331,-279.5"/>
<text text-anchor="middle" x="376.5" y="-286.5" font-family="Helvetica,sans-Serif" font-size="10.00">UniformContainer</text>
</a>
</g>
</g>
<!-- Node11&#45;&gt;Node10 -->
<g id="edge8" class="edge">
<title>Node11&#45;&gt;Node10</title>
<path fill="none" stroke="midnightblue" d="M374.88,-269.04C371.92,-244.42 363.75,-201.17 341.5,-172 335.51,-164.15 326.53,-158 318.33,-153.57"/>
<polygon fill="midnightblue" stroke="midnightblue" points="371.42,-269.61 375.92,-279.2 378.38,-268.9 371.42,-269.61"/>
</g>
<!-- Node14 -->
<g id="node12" class="node">
<title>Node14</title>
<g id="a_node12"><a xlink:href="../../da/d69/classnap_1_1_base_material.html" target="_top" xlink:title="BaseMaterial">
<polygon fill="white" stroke="black" points="553.5,-201.5 553.5,-220.5 627.5,-220.5 627.5,-201.5 553.5,-201.5"/>
<text text-anchor="middle" x="590.5" y="-208.5" font-family="Helvetica,sans-Serif" font-size="10.00">BaseMaterial</text>
</a>
</g>
</g>
<!-- Node11&#45;&gt;Node14 -->
<g id="edge15" class="edge">
<title>Node11&#45;&gt;Node14</title>
<path fill="none" stroke="midnightblue" d="M410.2,-276.03C453.68,-260.59 528.28,-234.1 566.46,-220.54"/>
<polygon fill="midnightblue" stroke="midnightblue" points="408.88,-272.78 400.63,-279.43 411.23,-279.38 408.88,-272.78"/>
</g>
<!-- Node12 -->
<g id="node10" class="node">
<title>Node12</title>
<g id="a_node10"><a xlink:href="../../d2/d1c/classnap_1_1_descriptor_set_cache.html" target="_top" xlink:title="DescriptorSetCache">
<polygon fill="white" stroke="black" points="199.5,-201.5 199.5,-220.5 303.5,-220.5 303.5,-201.5 199.5,-201.5"/>
<text text-anchor="middle" x="251.5" y="-208.5" font-family="Helvetica,sans-Serif" font-size="10.00">DescriptorSetCache</text>
</a>
</g>
</g>
<!-- Node12&#45;&gt;Node10 -->
<g id="edge10" class="edge">
<title>Node12&#45;&gt;Node10</title>
<path fill="none" stroke="#9a32cd" stroke-dasharray="5,2" d="M241.68,-191.72C239.51,-185.13 238.81,-177.88 242.5,-172 247.84,-163.5 256.69,-157.61 265.79,-153.56"/>
<polygon fill="#9a32cd" stroke="#9a32cd" points="238.64,-193.5 245.88,-201.23 245.04,-190.67 238.64,-193.5"/>
<text text-anchor="middle" x="292" y="-175" font-family="Helvetica,sans-Serif" font-size="10.00"> mDescriptorSetCache</text>
</g>
<!-- Node13 -->
<g id="node11" class="node">
<title>Node13</title>
<g id="a_node11"><a xlink:href="../../df/d7a/classnap_1_1_base_material_instance_resource.html" target="_top" xlink:title="BaseMaterialInstanceResource">
<polygon fill="white" stroke="black" points="383.5,-201.5 383.5,-220.5 535.5,-220.5 535.5,-201.5 383.5,-201.5"/>
<text text-anchor="middle" x="459.5" y="-208.5" font-family="Helvetica,sans-Serif" font-size="10.00">BaseMaterialInstanceResource</text>
</a>
</g>
</g>
<!-- Node13&#45;&gt;Node10 -->
<g id="edge11" class="edge">
<title>Node13&#45;&gt;Node10</title>
<path fill="none" stroke="#9a32cd" stroke-dasharray="5,2" d="M430.25,-197.34C412.7,-189.82 389.9,-180.18 369.5,-172 353.59,-165.62 335.53,-158.75 321.6,-153.55"/>
<polygon fill="#9a32cd" stroke="#9a32cd" points="429.35,-200.76 439.92,-201.49 432.12,-194.33 429.35,-200.76"/>
<text text-anchor="middle" x="420" y="-175" font-family="Helvetica,sans-Serif" font-size="10.00"> mResource</text>
</g>
<!-- Node14&#45;&gt;Node10 -->
<g id="edge12" class="edge">
<title>Node14&#45;&gt;Node10</title>
<path fill="none" stroke="#9a32cd" stroke-dasharray="5,2" d="M552.2,-198.61C524.19,-190.53 485.19,-179.77 450.5,-172 418.46,-164.82 382.28,-158.33 353.26,-153.51"/>
<polygon fill="#9a32cd" stroke="#9a32cd" points="551.42,-202.03 562,-201.46 553.37,-195.31 551.42,-202.03"/>
<text text-anchor="middle" x="515.5" y="-175" font-family="Helvetica,sans-Serif" font-size="10.00"> mMaterial</text>
</g>
<!-- Node15&#45;&gt;Node14 -->
<g id="edge13" class="edge">
<title>Node15&#45;&gt;Node14</title>
<path fill="none" stroke="midnightblue" d="M541.23,-271.44C554.2,-255.79 573.15,-232.93 583.36,-220.62"/>
<polygon fill="midnightblue" stroke="midnightblue" points="538.41,-269.35 534.73,-279.28 543.8,-273.82 538.41,-269.35"/>
</g>
</g>
</svg>
