<?xml version="1.0" encoding="UTF-8" standalone="no"?>
<!DOCTYPE svg PUBLIC "-//W3C//DTD SVG 1.1//EN"
 "http://www.w3.org/Graphics/SVG/1.1/DTD/svg11.dtd">
<!-- Generated by graphviz version 2.48.0 (20210717.1556)
 -->
<!-- Title: ParameterBlendComponent Pages: 1 -->
<svg width="378pt" height="231pt"
 viewBox="0.00 0.00 378.00 231.00" xmlns="http://www.w3.org/2000/svg" xmlns:xlink="http://www.w3.org/1999/xlink">
<g id="graph0" class="graph" transform="scale(1 1) rotate(0) translate(4 227)">
<title>ParameterBlendComponent</title>
<polygon fill="white" stroke="transparent" points="-4,4 -4,-227 374,-227 374,4 -4,4"/>
<!-- Node4 -->
<g id="node1" class="node">
<title>Node4</title>
<polygon fill="#bfbfbf" stroke="black" points="83,-0.5 83,-19.5 219,-19.5 219,-0.5 83,-0.5"/>
<text text-anchor="middle" x="151" y="-7.5" font-family="Helvetica,sans-Serif" font-size="10.00">ParameterBlendComponent</text>
</g>
<!-- Node5 -->
<g id="node2" class="node">
<title>Node5</title>
<g id="a_node2"><a xlink:href="../../db/d6b/classnap_1_1_component.html" target="_top" xlink:title="Component">
<polygon fill="white" stroke="black" points="0,-84 0,-103 66,-103 66,-84 0,-84"/>
<text text-anchor="middle" x="33" y="-91" font-family="Helvetica,sans-Serif" font-size="10.00">Component</text>
</a>
</g>
</g>
<!-- Node5&#45;&gt;Node4 -->
<g id="edge1" class="edge">
<title>Node5&#45;&gt;Node4</title>
<path fill="none" stroke="midnightblue" d="M53.9,-78.06C78.43,-61.12 118.29,-33.59 138.46,-19.66"/>
<polygon fill="midnightblue" stroke="midnightblue" points="51.87,-75.22 45.63,-83.78 55.85,-80.97 51.87,-75.22"/>
</g>
<!-- Node6 -->
<g id="node3" class="node">
<title>Node6</title>
<g id="a_node3"><a xlink:href="../../d9/dea/classnap_1_1_resource.html" target="_top" xlink:title="Resource">
<polygon fill="white" stroke="black" points="4,-146.5 4,-165.5 62,-165.5 62,-146.5 4,-146.5"/>
<text text-anchor="middle" x="33" y="-153.5" font-family="Helvetica,sans-Serif" font-size="10.00">Resource</text>
</a>
</g>
</g>
<!-- Node6&#45;&gt;Node5 -->
<g id="edge2" class="edge">
<title>Node6&#45;&gt;Node5</title>
<path fill="none" stroke="midnightblue" d="M33,-136C33,-125 33,-111.68 33,-103.15"/>
<polygon fill="midnightblue" stroke="midnightblue" points="29.5,-136.33 33,-146.33 36.5,-136.33 29.5,-136.33"/>
</g>
<!-- Node7 -->
<g id="node4" class="node">
<title>Node7</title>
<g id="a_node4"><a xlink:href="../../de/d01/classnap_1_1rtti_1_1_object.html" target="_top" xlink:title="Object">
<polygon fill="white" stroke="black" points="10.5,-203.5 10.5,-222.5 55.5,-222.5 55.5,-203.5 10.5,-203.5"/>
<text text-anchor="middle" x="33" y="-210.5" font-family="Helvetica,sans-Serif" font-size="10.00">Object</text>
</a>
</g>
</g>
<!-- Node7&#45;&gt;Node6 -->
<g id="edge3" class="edge">
<title>Node7&#45;&gt;Node6</title>
<path fill="none" stroke="midnightblue" d="M33,-193.12C33,-183.82 33,-173.06 33,-165.71"/>
<polygon fill="midnightblue" stroke="midnightblue" points="29.5,-193.41 33,-203.41 36.5,-193.41 29.5,-193.41"/>
</g>
<!-- Node8 -->
<g id="node5" class="node">
<title>Node8</title>
<g id="a_node5"><a xlink:href="../../dd/d7c/classnap_1_1rtti_1_1_object_ptr.html" target="_top" xlink:title="ObjectPtr\&lt; nap::Parameter\lNumeric \&gt;">
<polygon fill="white" stroke="black" points="84,-78.5 84,-108.5 218,-108.5 218,-78.5 84,-78.5"/>
<text text-anchor="start" x="92" y="-96.5" font-family="Helvetica,sans-Serif" font-size="10.00">ObjectPtr&lt; nap::Parameter</text>
<text text-anchor="middle" x="151" y="-85.5" font-family="Helvetica,sans-Serif" font-size="10.00">Numeric &gt;</text>
</a>
</g>
</g>
<!-- Node8&#45;&gt;Node4 -->
<g id="edge4" class="edge">
<title>Node8&#45;&gt;Node4</title>
<path fill="none" stroke="#9a32cd" stroke-dasharray="5,2" d="M151,-68.25C151,-51.78 151,-30.99 151,-19.54"/>
<polygon fill="#9a32cd" stroke="#9a32cd" points="147.5,-68.3 151,-78.3 154.5,-68.3 147.5,-68.3"/>
<text text-anchor="middle" x="192.5" y="-52" font-family="Helvetica,sans-Serif" font-size="10.00"> mPresetIndex</text>
<text text-anchor="middle" x="192.5" y="-41" font-family="Helvetica,sans-Serif" font-size="10.00">mPresetBlendTime</text>
</g>
<!-- Node9 -->
<g id="node6" class="node">
<title>Node9</title>
<g id="a_node6"><a xlink:href="../../d7/dcb/classnap_1_1rtti_1_1_object_ptr_base.html" target="_top" xlink:title="ObjectPtrBase">
<polygon fill="white" stroke="black" points="203,-146.5 203,-165.5 283,-165.5 283,-146.5 203,-146.5"/>
<text text-anchor="middle" x="243" y="-153.5" font-family="Helvetica,sans-Serif" font-size="10.00">ObjectPtrBase</text>
</a>
</g>
</g>
<!-- Node9&#45;&gt;Node8 -->
<g id="edge5" class="edge">
<title>Node9&#45;&gt;Node8</title>
<path fill="none" stroke="midnightblue" d="M221.3,-140.73C206.52,-131.01 187.04,-118.2 172.33,-108.53"/>
<polygon fill="midnightblue" stroke="midnightblue" points="219.54,-143.76 229.82,-146.33 223.39,-137.91 219.54,-143.76"/>
</g>
<!-- Node10 -->
<g id="node7" class="node">
<title>Node10</title>
<g id="a_node7"><a xlink:href="../../dd/d7c/classnap_1_1rtti_1_1_object_ptr.html" target="_top" xlink:title="ObjectPtr\&lt; nap::Parameter\lBlendGroup \&gt;">
<polygon fill="white" stroke="black" points="236,-78.5 236,-108.5 370,-108.5 370,-78.5 236,-78.5"/>
<text text-anchor="start" x="244" y="-96.5" font-family="Helvetica,sans-Serif" font-size="10.00">ObjectPtr&lt; nap::Parameter</text>
<text text-anchor="middle" x="303" y="-85.5" font-family="Helvetica,sans-Serif" font-size="10.00">BlendGroup &gt;</text>
</a>
</g>
</g>
<!-- Node9&#45;&gt;Node10 -->
<g id="edge7" class="edge">
<title>Node9&#45;&gt;Node10</title>
<path fill="none" stroke="midnightblue" d="M258.76,-139.11C268.1,-129.69 279.82,-117.87 288.86,-108.76"/>
<polygon fill="midnightblue" stroke="midnightblue" points="256.15,-136.77 251.6,-146.33 261.12,-141.7 256.15,-136.77"/>
</g>
<!-- Node10&#45;&gt;Node4 -->
<g id="edge6" class="edge">
<title>Node10&#45;&gt;Node4</title>
<path fill="none" stroke="#9a32cd" stroke-dasharray="5,2" d="M281.96,-71.13C269.96,-59.95 254.12,-46.79 238,-38 223.14,-29.9 205.51,-23.85 190.01,-19.56"/>
<polygon fill="#9a32cd" stroke="#9a32cd" points="279.62,-73.74 289.26,-78.13 284.47,-68.68 279.62,-73.74"/>
<text text-anchor="middle" x="299.5" y="-46.5" font-family="Helvetica,sans-Serif" font-size="10.00"> mBlendGroup</text>
</g>
</g>
</svg>
