<?xml version="1.0" encoding="UTF-8" standalone="no"?>
<!DOCTYPE svg PUBLIC "-//W3C//DTD SVG 1.1//EN"
 "http://www.w3.org/Graphics/SVG/1.1/DTD/svg11.dtd">
<!-- Generated by graphviz version 2.43.0 (0)
 -->
<!-- Title: ParameterBlendComponent Pages: 1 -->
<svg width="411pt" height="231pt"
 viewBox="0.00 0.00 411.00 231.00" xmlns="http://www.w3.org/2000/svg" xmlns:xlink="http://www.w3.org/1999/xlink">
<g id="graph0" class="graph" transform="scale(1 1) rotate(0) translate(4 227)">
<title>ParameterBlendComponent</title>
<polygon fill="white" stroke="transparent" points="-4,4 -4,-227 407,-227 407,4 -4,4"/>
<!-- Node1 -->
<g id="node1" class="node">
<title>Node1</title>
<g id="a_node1"><a xlink:title=" ">
<polygon fill="#bfbfbf" stroke="black" points="89,-0.5 89,-19.5 240,-19.5 240,-0.5 89,-0.5"/>
<text text-anchor="middle" x="164.5" y="-7.5" font-family="Helvetica,sans-Serif" font-size="10.00">ParameterBlendComponent</text>
</a>
</g>
</g>
<!-- Node2 -->
<g id="node2" class="node">
<title>Node2</title>
<g id="a_node2"><a xlink:href="../../db/d6b/classnap_1_1_component.html" target="_top" xlink:title=" ">
<polygon fill="white" stroke="black" points="0,-84 0,-103 73,-103 73,-84 0,-84"/>
<text text-anchor="middle" x="36.5" y="-91" font-family="Helvetica,sans-Serif" font-size="10.00">Component</text>
</a>
</g>
</g>
<!-- Node2&#45;&gt;Node1 -->
<g id="edge1" class="edge">
<title>Node2&#45;&gt;Node1</title>
<path fill="none" stroke="midnightblue" d="M58.83,-78.28C85.4,-61.37 128.93,-33.65 150.9,-19.66"/>
<polygon fill="midnightblue" stroke="midnightblue" points="56.75,-75.45 50.2,-83.78 60.51,-81.36 56.75,-75.45"/>
</g>
<!-- Node3 -->
<g id="node3" class="node">
<title>Node3</title>
<g id="a_node3"><a xlink:href="../../d9/dea/classnap_1_1_resource.html" target="_top" xlink:title=" ">
<polygon fill="white" stroke="black" points="5.5,-146.5 5.5,-165.5 67.5,-165.5 67.5,-146.5 5.5,-146.5"/>
<text text-anchor="middle" x="36.5" y="-153.5" font-family="Helvetica,sans-Serif" font-size="10.00">Resource</text>
</a>
</g>
</g>
<!-- Node3&#45;&gt;Node2 -->
<g id="edge2" class="edge">
<title>Node3&#45;&gt;Node2</title>
<path fill="none" stroke="midnightblue" d="M36.5,-136C36.5,-125 36.5,-111.68 36.5,-103.15"/>
<polygon fill="midnightblue" stroke="midnightblue" points="33,-136.33 36.5,-146.33 40,-136.33 33,-136.33"/>
</g>
<!-- Node4 -->
<g id="node4" class="node">
<title>Node4</title>
<g id="a_node4"><a xlink:href="../../de/d01/classnap_1_1rtti_1_1_object.html" target="_top" xlink:title=" ">
<polygon fill="white" stroke="black" points="12.5,-203.5 12.5,-222.5 60.5,-222.5 60.5,-203.5 12.5,-203.5"/>
<text text-anchor="middle" x="36.5" y="-210.5" font-family="Helvetica,sans-Serif" font-size="10.00">Object</text>
</a>
</g>
</g>
<!-- Node4&#45;&gt;Node3 -->
<g id="edge3" class="edge">
<title>Node4&#45;&gt;Node3</title>
<path fill="none" stroke="midnightblue" d="M36.5,-193.12C36.5,-183.82 36.5,-173.06 36.5,-165.71"/>
<polygon fill="midnightblue" stroke="midnightblue" points="33,-193.41 36.5,-203.41 40,-193.41 33,-193.41"/>
</g>
<!-- Node5 -->
<g id="node5" class="node">
<title>Node5</title>
<g id="a_node5"><a xlink:href="../../dd/d7c/classnap_1_1rtti_1_1_object_ptr.html" target="_top" xlink:title=" ">
<polygon fill="white" stroke="black" points="91,-78.5 91,-108.5 238,-108.5 238,-78.5 91,-78.5"/>
<text text-anchor="start" x="99" y="-96.5" font-family="Helvetica,sans-Serif" font-size="10.00">ObjectPtr&lt; nap::Parameter</text>
<text text-anchor="middle" x="164.5" y="-85.5" font-family="Helvetica,sans-Serif" font-size="10.00">Numeric &gt;</text>
</a>
</g>
</g>
<!-- Node5&#45;&gt;Node1 -->
<g id="edge4" class="edge">
<title>Node5&#45;&gt;Node1</title>
<path fill="none" stroke="#9a32cd" stroke-dasharray="5,2" d="M164.5,-68.25C164.5,-51.78 164.5,-30.99 164.5,-19.54"/>
<polygon fill="#9a32cd" stroke="#9a32cd" points="161,-68.3 164.5,-78.3 168,-68.3 161,-68.3"/>
<text text-anchor="middle" x="211.5" y="-52" font-family="Helvetica,sans-Serif" font-size="10.00"> mPresetIndex</text>
<text text-anchor="middle" x="211.5" y="-41" font-family="Helvetica,sans-Serif" font-size="10.00">mPresetBlendTime</text>
</g>
<!-- Node6 -->
<g id="node6" class="node">
<title>Node6</title>
<g id="a_node6"><a xlink:href="../../d7/dcb/classnap_1_1rtti_1_1_object_ptr_base.html" target="_top" xlink:title=" ">
<polygon fill="white" stroke="black" points="221.5,-146.5 221.5,-165.5 307.5,-165.5 307.5,-146.5 221.5,-146.5"/>
<text text-anchor="middle" x="264.5" y="-153.5" font-family="Helvetica,sans-Serif" font-size="10.00">ObjectPtrBase</text>
</a>
</g>
</g>
<!-- Node6&#45;&gt;Node5 -->
<g id="edge5" class="edge">
<title>Node6&#45;&gt;Node5</title>
<path fill="none" stroke="midnightblue" d="M241.37,-141.01C225.25,-131.25 203.82,-118.29 187.68,-108.53"/>
<polygon fill="midnightblue" stroke="midnightblue" points="239.8,-144.15 250.17,-146.33 243.43,-138.16 239.8,-144.15"/>
</g>
<!-- Node7 -->
<g id="node7" class="node">
<title>Node7</title>
<g id="a_node7"><a xlink:href="../../dd/d7c/classnap_1_1rtti_1_1_object_ptr.html" target="_top" xlink:title=" ">
<polygon fill="white" stroke="black" points="256,-78.5 256,-108.5 403,-108.5 403,-78.5 256,-78.5"/>
<text text-anchor="start" x="264" y="-96.5" font-family="Helvetica,sans-Serif" font-size="10.00">ObjectPtr&lt; nap::Parameter</text>
<text text-anchor="middle" x="329.5" y="-85.5" font-family="Helvetica,sans-Serif" font-size="10.00">BlendGroup &gt;</text>
</a>
</g>
</g>
<!-- Node6&#45;&gt;Node7 -->
<g id="edge7" class="edge">
<title>Node6&#45;&gt;Node7</title>
<path fill="none" stroke="midnightblue" d="M281.33,-139.34C291.57,-129.81 304.53,-117.74 314.43,-108.53"/>
<polygon fill="midnightblue" stroke="midnightblue" points="278.75,-136.96 273.81,-146.33 283.52,-142.08 278.75,-136.96"/>
</g>
<!-- Node7&#45;&gt;Node1 -->
<g id="edge6" class="edge">
<title>Node7&#45;&gt;Node1</title>
<path fill="none" stroke="#9a32cd" stroke-dasharray="5,2" d="M308.3,-71.4C295.87,-60.06 279.34,-46.68 262.5,-38 246.5,-29.75 227.69,-23.79 210.85,-19.6"/>
<polygon fill="#9a32cd" stroke="#9a32cd" points="306.16,-74.18 315.84,-78.48 310.95,-69.08 306.16,-74.18"/>
<text text-anchor="middle" x="328.5" y="-46.5" font-family="Helvetica,sans-Serif" font-size="10.00"> mBlendGroup</text>
</g>
</g>
</svg>
