<?xml version="1.0" encoding="UTF-8" standalone="no"?>
<!DOCTYPE svg PUBLIC "-//W3C//DTD SVG 1.1//EN"
 "http://www.w3.org/Graphics/SVG/1.1/DTD/svg11.dtd">
<!-- Generated by graphviz version 2.48.0 (20210717.1556)
 -->
<!-- Title: LevelMeterComponentInstance Pages: 1 -->
<svg width="157pt" height="140pt"
 viewBox="0.00 0.00 157.00 140.00" xmlns="http://www.w3.org/2000/svg" xmlns:xlink="http://www.w3.org/1999/xlink">
<g id="graph0" class="graph" transform="scale(1 1) rotate(0) translate(4 136)">
<title>LevelMeterComponentInstance</title>
<polygon fill="white" stroke="transparent" points="-4,4 -4,-136 153,-136 153,4 -4,4"/>
<!-- Node3 -->
<g id="node1" class="node">
<title>Node3</title>
<polygon fill="#bfbfbf" stroke="black" points="0,-0.5 0,-19.5 149,-19.5 149,-0.5 0,-0.5"/>
<text text-anchor="middle" x="74.5" y="-7.5" font-family="Helvetica,sans-Serif" font-size="10.00">LevelMeterComponentInstance</text>
</g>
<!-- Node4 -->
<g id="node2" class="node">
<title>Node4</title>
<g id="a_node2"><a xlink:href="../../d9/df2/classnap_1_1_component_instance.html" target="_top" xlink:title="ComponentInstance">
<polygon fill="white" stroke="black" points="23,-56.5 23,-75.5 126,-75.5 126,-56.5 23,-56.5"/>
<text text-anchor="middle" x="74.5" y="-63.5" font-family="Helvetica,sans-Serif" font-size="10.00">ComponentInstance</text>
</a>
</g>
</g>
<!-- Node4&#45;&gt;Node3 -->
<g id="edge1" class="edge">
<title>Node4&#45;&gt;Node3</title>
<path fill="none" stroke="midnightblue" d="M74.5,-45.8C74.5,-36.91 74.5,-26.78 74.5,-19.75"/>
<polygon fill="midnightblue" stroke="midnightblue" points="71,-46.08 74.5,-56.08 78,-46.08 71,-46.08"/>
</g>
<!-- Node5 -->
<g id="node3" class="node">
<title>Node5</title>
<g id="a_node3"><a xlink:href="../../de/d01/classnap_1_1rtti_1_1_object.html" target="_top" xlink:title="Object">
<polygon fill="white" stroke="black" points="52,-112.5 52,-131.5 97,-131.5 97,-112.5 52,-112.5"/>
<text text-anchor="middle" x="74.5" y="-119.5" font-family="Helvetica,sans-Serif" font-size="10.00">Object</text>
</a>
</g>
</g>
<!-- Node5&#45;&gt;Node4 -->
<g id="edge2" class="edge">
<title>Node5&#45;&gt;Node4</title>
<path fill="none" stroke="midnightblue" d="M74.5,-101.8C74.5,-92.91 74.5,-82.78 74.5,-75.75"/>
<polygon fill="midnightblue" stroke="midnightblue" points="71,-102.08 74.5,-112.08 78,-102.08 71,-102.08"/>
</g>
</g>
</svg>
