<?xml version="1.0" encoding="UTF-8" standalone="no"?>
<!DOCTYPE svg PUBLIC "-//W3C//DTD SVG 1.1//EN"
 "http://www.w3.org/Graphics/SVG/1.1/DTD/svg11.dtd">
<!-- Generated by graphviz version 3.0.0 (20220226.1711)
 -->
<!-- Title: BufferPlayerNode Pages: 1 -->
<svg width="144pt" height="152pt"
 viewBox="0.00 0.00 143.50 152.00" xmlns="http://www.w3.org/2000/svg" xmlns:xlink="http://www.w3.org/1999/xlink">
<g id="graph0" class="graph" transform="scale(1 1) rotate(0) translate(4 148)">
<title>BufferPlayerNode</title>
<polygon fill="white" stroke="transparent" points="-4,4 -4,-148 139.5,-148 139.5,4 -4,4"/>
<!-- Node3 -->
<g id="node1" class="node">
<title>Node3</title>
<polygon fill="#bfbfbf" stroke="black" points="14.5,-0.5 14.5,-19.5 106.5,-19.5 106.5,-0.5 14.5,-0.5"/>
<text text-anchor="middle" x="60.5" y="-7.5" font-family="Helvetica,sans-Serif" font-size="10.00">BufferPlayerNode</text>
</g>
<!-- Node4 -->
<g id="node2" class="node">
<title>Node4</title>
<g id="a_node2"><a xlink:href="../../dc/d0d/classnap_1_1audio_1_1_node.html" target="_top" xlink:title="Node">
<polygon fill="white" stroke="black" points="7,-67.5 7,-86.5 46,-86.5 46,-67.5 7,-67.5"/>
<text text-anchor="middle" x="26.5" y="-74.5" font-family="Helvetica,sans-Serif" font-size="10.00">Node</text>
</a>
</g>
</g>
<!-- Node4&#45;&gt;Node3 -->
<g id="edge1" class="edge">
<title>Node4&#45;&gt;Node3</title>
<path fill="none" stroke="midnightblue" d="M35.83,-58.16C42.39,-45.63 50.87,-29.41 55.99,-19.63"/>
<polygon fill="midnightblue" stroke="midnightblue" points="32.62,-56.75 31.09,-67.23 38.82,-60 32.62,-56.75"/>
</g>
<!-- Node5 -->
<g id="node3" class="node">
<title>Node5</title>
<g id="a_node3"><a xlink:href="../../d4/d2d/classnap_1_1audio_1_1_process.html" target="_top" xlink:title="Process">
<polygon fill="white" stroke="black" points="0,-124.5 0,-143.5 53,-143.5 53,-124.5 0,-124.5"/>
<text text-anchor="middle" x="26.5" y="-131.5" font-family="Helvetica,sans-Serif" font-size="10.00">Process</text>
</a>
</g>
</g>
<!-- Node5&#45;&gt;Node4 -->
<g id="edge2" class="edge">
<title>Node5&#45;&gt;Node4</title>
<path fill="none" stroke="midnightblue" d="M26.5,-114.12C26.5,-104.82 26.5,-94.06 26.5,-86.71"/>
<polygon fill="midnightblue" stroke="midnightblue" points="23,-114.41 26.5,-124.41 30,-114.41 23,-114.41"/>
</g>
<!-- Node6 -->
<g id="node4" class="node">
<title>Node6</title>
<g id="a_node4"><a xlink:href="../../dc/d5a/classnap_1_1audio_1_1_output_pin.html" target="_top" xlink:title="OutputPin">
<polygon fill="white" stroke="black" points="64.5,-67.5 64.5,-86.5 124.5,-86.5 124.5,-67.5 64.5,-67.5"/>
<text text-anchor="middle" x="94.5" y="-74.5" font-family="Helvetica,sans-Serif" font-size="10.00">OutputPin</text>
</a>
</g>
</g>
<!-- Node6&#45;&gt;Node3 -->
<g id="edge3" class="edge">
<title>Node6&#45;&gt;Node3</title>
<path fill="none" stroke="#9a32cd" stroke-dasharray="5,2" d="M85.17,-58.16C78.61,-45.63 70.13,-29.41 65.01,-19.63"/>
<polygon fill="#9a32cd" stroke="#9a32cd" points="82.18,-60 89.91,-67.23 88.38,-56.75 82.18,-60"/>
<text text-anchor="middle" x="107.5" y="-41" font-family="Helvetica,sans-Serif" font-size="10.00"> audioOutput</text>
</g>
</g>
</svg>
