<?xml version="1.0" encoding="UTF-8" standalone="no"?>
<!DOCTYPE svg PUBLIC "-//W3C//DTD SVG 1.1//EN"
 "http://www.w3.org/Graphics/SVG/1.1/DTD/svg11.dtd">
<!-- Generated by graphviz version 2.48.0 (20210717.1556)
 -->
<!-- Title: PythonScriptComponent Pages: 1 -->
<svg width="246pt" height="209pt"
 viewBox="0.00 0.00 246.00 209.00" xmlns="http://www.w3.org/2000/svg" xmlns:xlink="http://www.w3.org/1999/xlink">
<g id="graph0" class="graph" transform="scale(1 1) rotate(0) translate(4 205)">
<title>PythonScriptComponent</title>
<polygon fill="white" stroke="transparent" points="-4,4 -4,-205 242,-205 242,4 -4,4"/>
<!-- Node4 -->
<g id="node1" class="node">
<title>Node4</title>
<polygon fill="#bfbfbf" stroke="black" points="35,-0.5 35,-19.5 157,-19.5 157,-0.5 35,-0.5"/>
<text text-anchor="middle" x="96" y="-7.5" font-family="Helvetica,sans-Serif" font-size="10.00">PythonScriptComponent</text>
</g>
<!-- Node5 -->
<g id="node2" class="node">
<title>Node5</title>
<g id="a_node2"><a xlink:href="../../db/d6b/classnap_1_1_component.html" target="_top" xlink:title="Component">
<polygon fill="white" stroke="black" points="0,-67.5 0,-86.5 66,-86.5 66,-67.5 0,-67.5"/>
<text text-anchor="middle" x="33" y="-74.5" font-family="Helvetica,sans-Serif" font-size="10.00">Component</text>
</a>
</g>
</g>
<!-- Node5&#45;&gt;Node4 -->
<g id="edge1" class="edge">
<title>Node5&#45;&gt;Node4</title>
<path fill="none" stroke="midnightblue" d="M48.51,-60C60.87,-47.25 77.69,-29.89 87.64,-19.63"/>
<polygon fill="midnightblue" stroke="midnightblue" points="45.94,-57.62 41.5,-67.23 50.97,-62.49 45.94,-57.62"/>
</g>
<!-- Node6 -->
<g id="node3" class="node">
<title>Node6</title>
<g id="a_node3"><a xlink:href="../../d9/dea/classnap_1_1_resource.html" target="_top" xlink:title="Resource">
<polygon fill="white" stroke="black" points="4,-124.5 4,-143.5 62,-143.5 62,-124.5 4,-124.5"/>
<text text-anchor="middle" x="33" y="-131.5" font-family="Helvetica,sans-Serif" font-size="10.00">Resource</text>
</a>
</g>
</g>
<!-- Node6&#45;&gt;Node5 -->
<g id="edge2" class="edge">
<title>Node6&#45;&gt;Node5</title>
<path fill="none" stroke="midnightblue" d="M33,-114.12C33,-104.82 33,-94.06 33,-86.71"/>
<polygon fill="midnightblue" stroke="midnightblue" points="29.5,-114.41 33,-124.41 36.5,-114.41 29.5,-114.41"/>
</g>
<!-- Node7 -->
<g id="node4" class="node">
<title>Node7</title>
<g id="a_node4"><a xlink:href="../../de/d01/classnap_1_1rtti_1_1_object.html" target="_top" xlink:title="Object">
<polygon fill="white" stroke="black" points="10.5,-181.5 10.5,-200.5 55.5,-200.5 55.5,-181.5 10.5,-181.5"/>
<text text-anchor="middle" x="33" y="-188.5" font-family="Helvetica,sans-Serif" font-size="10.00">Object</text>
</a>
</g>
</g>
<!-- Node7&#45;&gt;Node6 -->
<g id="edge3" class="edge">
<title>Node7&#45;&gt;Node6</title>
<path fill="none" stroke="midnightblue" d="M33,-171.12C33,-161.82 33,-151.06 33,-143.71"/>
<polygon fill="midnightblue" stroke="midnightblue" points="29.5,-171.41 33,-181.41 36.5,-171.41 29.5,-171.41"/>
</g>
<!-- Node8 -->
<g id="node5" class="node">
<title>Node8</title>
<g id="a_node5"><a xlink:href="../../dd/d7c/classnap_1_1rtti_1_1_object_ptr.html" target="_top" xlink:title="ObjectPtr\&lt; nap::PythonScript \&gt;">
<polygon fill="white" stroke="black" points="84,-67.5 84,-86.5 238,-86.5 238,-67.5 84,-67.5"/>
<text text-anchor="middle" x="161" y="-74.5" font-family="Helvetica,sans-Serif" font-size="10.00">ObjectPtr&lt; nap::PythonScript &gt;</text>
</a>
</g>
</g>
<!-- Node8&#45;&gt;Node4 -->
<g id="edge4" class="edge">
<title>Node8&#45;&gt;Node4</title>
<path fill="none" stroke="#9a32cd" stroke-dasharray="5,2" d="M145,-60C132.25,-47.25 114.89,-29.89 104.63,-19.63"/>
<polygon fill="#9a32cd" stroke="#9a32cd" points="142.69,-62.64 152.23,-67.23 147.64,-57.69 142.69,-62.64"/>
<text text-anchor="middle" x="167" y="-41" font-family="Helvetica,sans-Serif" font-size="10.00"> mPythonScript</text>
</g>
<!-- Node9 -->
<g id="node6" class="node">
<title>Node9</title>
<g id="a_node6"><a xlink:href="../../d7/dcb/classnap_1_1rtti_1_1_object_ptr_base.html" target="_top" xlink:title="ObjectPtrBase">
<polygon fill="white" stroke="black" points="121,-124.5 121,-143.5 201,-143.5 201,-124.5 121,-124.5"/>
<text text-anchor="middle" x="161" y="-131.5" font-family="Helvetica,sans-Serif" font-size="10.00">ObjectPtrBase</text>
</a>
</g>
</g>
<!-- Node9&#45;&gt;Node8 -->
<g id="edge5" class="edge">
<title>Node9&#45;&gt;Node8</title>
<path fill="none" stroke="midnightblue" d="M161,-114.12C161,-104.82 161,-94.06 161,-86.71"/>
<polygon fill="midnightblue" stroke="midnightblue" points="157.5,-114.41 161,-124.41 164.5,-114.41 157.5,-114.41"/>
</g>
</g>
</svg>
