<?xml version="1.0" encoding="UTF-8" standalone="no"?>
<!DOCTYPE svg PUBLIC "-//W3C//DTD SVG 1.1//EN"
 "http://www.w3.org/Graphics/SVG/1.1/DTD/svg11.dtd">
<!-- Generated by graphviz version 3.0.0 (20220226.1711)
 -->
<!-- Title: Component Pages: 1 -->
<svg width="74pt" height="140pt"
 viewBox="0.00 0.00 74.00 140.00" xmlns="http://www.w3.org/2000/svg" xmlns:xlink="http://www.w3.org/1999/xlink">
<g id="graph0" class="graph" transform="scale(1 1) rotate(0) translate(4 136)">
<title>Component</title>
<polygon fill="white" stroke="transparent" points="-4,4 -4,-136 70,-136 70,4 -4,4"/>
<!-- Node42 -->
<g id="node1" class="node">
<title>Node42</title>
<polygon fill="#bfbfbf" stroke="black" points="0,-0.5 0,-19.5 66,-19.5 66,-0.5 0,-0.5"/>
<text text-anchor="middle" x="33" y="-7.5" font-family="Helvetica,sans-Serif" font-size="10.00">Component</text>
</g>
<!-- Node43 -->
<g id="node2" class="node">
<title>Node43</title>
<g id="a_node2"><a xlink:href="../../d9/dea/classnap_1_1_resource.html" target="_top" xlink:title="Resource">
<polygon fill="white" stroke="black" points="4,-56.5 4,-75.5 62,-75.5 62,-56.5 4,-56.5"/>
<text text-anchor="middle" x="33" y="-63.5" font-family="Helvetica,sans-Serif" font-size="10.00">Resource</text>
</a>
</g>
</g>
<!-- Node43&#45;&gt;Node42 -->
<g id="edge1" class="edge">
<title>Node43&#45;&gt;Node42</title>
<path fill="none" stroke="midnightblue" d="M33,-45.8C33,-36.91 33,-26.78 33,-19.75"/>
<polygon fill="midnightblue" stroke="midnightblue" points="29.5,-46.08 33,-56.08 36.5,-46.08 29.5,-46.08"/>
</g>
<!-- Node44 -->
<g id="node3" class="node">
<title>Node44</title>
<g id="a_node3"><a xlink:href="../../de/d01/classnap_1_1rtti_1_1_object.html" target="_top" xlink:title="Object">
<polygon fill="white" stroke="black" points="10.5,-112.5 10.5,-131.5 55.5,-131.5 55.5,-112.5 10.5,-112.5"/>
<text text-anchor="middle" x="33" y="-119.5" font-family="Helvetica,sans-Serif" font-size="10.00">Object</text>
</a>
</g>
</g>
<!-- Node44&#45;&gt;Node43 -->
<g id="edge2" class="edge">
<title>Node44&#45;&gt;Node43</title>
<path fill="none" stroke="midnightblue" d="M33,-101.8C33,-92.91 33,-82.78 33,-75.75"/>
<polygon fill="midnightblue" stroke="midnightblue" points="29.5,-102.08 33,-112.08 36.5,-102.08 29.5,-102.08"/>
</g>
</g>
</svg>
