<?xml version="1.0" encoding="UTF-8" standalone="no"?>
<!DOCTYPE svg PUBLIC "-//W3C//DTD SVG 1.1//EN"
 "http://www.w3.org/Graphics/SVG/1.1/DTD/svg11.dtd">
<!-- Generated by graphviz version 2.48.0 (20210717.1556)
 -->
<!-- Title: MultiSampleBufferPlayerNode Pages: 1 -->
<svg width="154pt" height="140pt"
 viewBox="0.00 0.00 154.00 140.00" xmlns="http://www.w3.org/2000/svg" xmlns:xlink="http://www.w3.org/1999/xlink">
<g id="graph0" class="graph" transform="scale(1 1) rotate(0) translate(4 136)">
<title>MultiSampleBufferPlayerNode</title>
<polygon fill="white" stroke="transparent" points="-4,4 -4,-136 150,-136 150,4 -4,4"/>
<!-- Node3 -->
<g id="node1" class="node">
<title>Node3</title>
<polygon fill="#bfbfbf" stroke="black" points="0,-0.5 0,-19.5 146,-19.5 146,-0.5 0,-0.5"/>
<text text-anchor="middle" x="73" y="-7.5" font-family="Helvetica,sans-Serif" font-size="10.00">MultiSampleBufferPlayerNode</text>
</g>
<!-- Node4 -->
<g id="node2" class="node">
<title>Node4</title>
<g id="a_node2"><a xlink:href="../../dc/d0d/classnap_1_1audio_1_1_node.html" target="_top" xlink:title="Node">
<polygon fill="white" stroke="black" points="53.5,-56.5 53.5,-75.5 92.5,-75.5 92.5,-56.5 53.5,-56.5"/>
<text text-anchor="middle" x="73" y="-63.5" font-family="Helvetica,sans-Serif" font-size="10.00">Node</text>
</a>
</g>
</g>
<!-- Node4&#45;&gt;Node3 -->
<g id="edge1" class="edge">
<title>Node4&#45;&gt;Node3</title>
<path fill="none" stroke="midnightblue" d="M73,-45.8C73,-36.91 73,-26.78 73,-19.75"/>
<polygon fill="midnightblue" stroke="midnightblue" points="69.5,-46.08 73,-56.08 76.5,-46.08 69.5,-46.08"/>
</g>
<!-- Node5 -->
<g id="node3" class="node">
<title>Node5</title>
<g id="a_node3"><a xlink:href="../../d4/d2d/classnap_1_1audio_1_1_process.html" target="_top" xlink:title="Process">
<polygon fill="white" stroke="black" points="46.5,-112.5 46.5,-131.5 99.5,-131.5 99.5,-112.5 46.5,-112.5"/>
<text text-anchor="middle" x="73" y="-119.5" font-family="Helvetica,sans-Serif" font-size="10.00">Process</text>
</a>
</g>
</g>
<!-- Node5&#45;&gt;Node4 -->
<g id="edge2" class="edge">
<title>Node5&#45;&gt;Node4</title>
<path fill="none" stroke="midnightblue" d="M73,-101.8C73,-92.91 73,-82.78 73,-75.75"/>
<polygon fill="midnightblue" stroke="midnightblue" points="69.5,-102.08 73,-112.08 76.5,-102.08 69.5,-102.08"/>
</g>
</g>
</svg>
