<?xml version="1.0" encoding="UTF-8" standalone="no"?>
<!DOCTYPE svg PUBLIC "-//W3C//DTD SVG 1.1//EN"
 "http://www.w3.org/Graphics/SVG/1.1/DTD/svg11.dtd">
<!-- Generated by graphviz version 2.43.0 (0)
 -->
<!-- Title: RenderableTextComponentInstance Pages: 1 -->
<svg width="350pt" height="263pt"
 viewBox="0.00 0.00 350.00 263.00" xmlns="http://www.w3.org/2000/svg" xmlns:xlink="http://www.w3.org/1999/xlink">
<g id="graph0" class="graph" transform="scale(1 1) rotate(0) translate(4 259)">
<title>RenderableTextComponentInstance</title>
<polygon fill="white" stroke="transparent" points="-4,4 -4,-259 346,-259 346,4 -4,4"/>
<!-- Node1 -->
<g id="node1" class="node">
<title>Node1</title>
<g id="a_node1"><a xlink:title=" ">
<polygon fill="#bfbfbf" stroke="black" points="76,-67.5 76,-86.5 266,-86.5 266,-67.5 76,-67.5"/>
<text text-anchor="middle" x="171" y="-74.5" font-family="Helvetica,sans-Serif" font-size="10.00">RenderableTextComponentInstance</text>
</a>
</g>
</g>
<!-- Node5 -->
<g id="node5" class="node">
<title>Node5</title>
<g id="a_node5"><a xlink:href="../../dc/d0b/classnap_1_1_renderable2_d_text_component_instance.html" target="_top" xlink:title=" ">
<polygon fill="white" stroke="black" points="0,-0.5 0,-30.5 162,-30.5 162,-0.5 0,-0.5"/>
<text text-anchor="start" x="8" y="-18.5" font-family="Helvetica,sans-Serif" font-size="10.00">Renderable2DTextComponent</text>
<text text-anchor="middle" x="81" y="-7.5" font-family="Helvetica,sans-Serif" font-size="10.00">Instance</text>
</a>
</g>
</g>
<!-- Node1&#45;&gt;Node5 -->
<g id="edge4" class="edge">
<title>Node1&#45;&gt;Node5</title>
<path fill="none" stroke="midnightblue" d="M149.43,-61.74C135.12,-52.28 116.44,-39.93 102.21,-30.52"/>
<polygon fill="midnightblue" stroke="midnightblue" points="147.83,-64.88 158.11,-67.48 151.69,-59.04 147.83,-64.88"/>
</g>
<!-- Node6 -->
<g id="node6" class="node">
<title>Node6</title>
<g id="a_node6"><a xlink:href="../../d4/d70/classnap_1_1_renderable3_d_text_component_instance.html" target="_top" xlink:title=" ">
<polygon fill="white" stroke="black" points="180,-0.5 180,-30.5 342,-30.5 342,-0.5 180,-0.5"/>
<text text-anchor="start" x="188" y="-18.5" font-family="Helvetica,sans-Serif" font-size="10.00">Renderable3DTextComponent</text>
<text text-anchor="middle" x="261" y="-7.5" font-family="Helvetica,sans-Serif" font-size="10.00">Instance</text>
</a>
</g>
</g>
<!-- Node1&#45;&gt;Node6 -->
<g id="edge5" class="edge">
<title>Node1&#45;&gt;Node6</title>
<path fill="none" stroke="midnightblue" d="M192.57,-61.74C206.88,-52.28 225.56,-39.93 239.79,-30.52"/>
<polygon fill="midnightblue" stroke="midnightblue" points="190.31,-59.04 183.89,-67.48 194.17,-64.88 190.31,-59.04"/>
</g>
<!-- Node2 -->
<g id="node2" class="node">
<title>Node2</title>
<g id="a_node2"><a xlink:href="../../dd/da0/classnap_1_1_renderable_component_instance.html" target="_top" xlink:title=" ">
<polygon fill="white" stroke="black" points="86,-123.5 86,-142.5 256,-142.5 256,-123.5 86,-123.5"/>
<text text-anchor="middle" x="171" y="-130.5" font-family="Helvetica,sans-Serif" font-size="10.00">RenderableComponentInstance</text>
</a>
</g>
</g>
<!-- Node2&#45;&gt;Node1 -->
<g id="edge1" class="edge">
<title>Node2&#45;&gt;Node1</title>
<path fill="none" stroke="midnightblue" d="M171,-112.8C171,-103.91 171,-93.78 171,-86.75"/>
<polygon fill="midnightblue" stroke="midnightblue" points="167.5,-113.08 171,-123.08 174.5,-113.08 167.5,-113.08"/>
</g>
<!-- Node3 -->
<g id="node3" class="node">
<title>Node3</title>
<g id="a_node3"><a xlink:href="../../d9/df2/classnap_1_1_component_instance.html" target="_top" xlink:title=" ">
<polygon fill="white" stroke="black" points="114,-179.5 114,-198.5 228,-198.5 228,-179.5 114,-179.5"/>
<text text-anchor="middle" x="171" y="-186.5" font-family="Helvetica,sans-Serif" font-size="10.00">ComponentInstance</text>
</a>
</g>
</g>
<!-- Node3&#45;&gt;Node2 -->
<g id="edge2" class="edge">
<title>Node3&#45;&gt;Node2</title>
<path fill="none" stroke="midnightblue" d="M171,-168.8C171,-159.91 171,-149.78 171,-142.75"/>
<polygon fill="midnightblue" stroke="midnightblue" points="167.5,-169.08 171,-179.08 174.5,-169.08 167.5,-169.08"/>
</g>
<!-- Node4 -->
<g id="node4" class="node">
<title>Node4</title>
<g id="a_node4"><a xlink:href="../../de/d01/classnap_1_1rtti_1_1_object.html" target="_top" xlink:title=" ">
<polygon fill="white" stroke="black" points="147,-235.5 147,-254.5 195,-254.5 195,-235.5 147,-235.5"/>
<text text-anchor="middle" x="171" y="-242.5" font-family="Helvetica,sans-Serif" font-size="10.00">Object</text>
</a>
</g>
</g>
<!-- Node4&#45;&gt;Node3 -->
<g id="edge3" class="edge">
<title>Node4&#45;&gt;Node3</title>
<path fill="none" stroke="midnightblue" d="M171,-224.8C171,-215.91 171,-205.78 171,-198.75"/>
<polygon fill="midnightblue" stroke="midnightblue" points="167.5,-225.08 171,-235.08 174.5,-225.08 167.5,-225.08"/>
</g>
</g>
</svg>
