<?xml version="1.0" encoding="UTF-8" standalone="no"?>
<!DOCTYPE svg PUBLIC "-//W3C//DTD SVG 1.1//EN"
 "http://www.w3.org/Graphics/SVG/1.1/DTD/svg11.dtd">
<!-- Generated by graphviz version 2.48.0 (20210717.1556)
 -->
<!-- Title: RenderableTextComponentInstance Pages: 1 -->
<svg width="318pt" height="263pt"
 viewBox="0.00 0.00 318.00 263.00" xmlns="http://www.w3.org/2000/svg" xmlns:xlink="http://www.w3.org/1999/xlink">
<g id="graph0" class="graph" transform="scale(1 1) rotate(0) translate(4 259)">
<title>RenderableTextComponentInstance</title>
<polygon fill="white" stroke="transparent" points="-4,4 -4,-259 314,-259 314,4 -4,4"/>
<!-- Node0 -->
<g id="node1" class="node">
<title>Node0</title>
<polygon fill="#bfbfbf" stroke="black" points="70,-67.5 70,-86.5 240,-86.5 240,-67.5 70,-67.5"/>
<text text-anchor="middle" x="155" y="-74.5" font-family="Helvetica,sans-Serif" font-size="10.00">RenderableTextComponentInstance</text>
</g>
<!-- Node4 -->
<g id="node5" class="node">
<title>Node4</title>
<g id="a_node5"><a xlink:href="../../dc/d0b/classnap_1_1_renderable2_d_text_component_instance.html" target="_top" xlink:title="Renderable2DTextComponent\lInstance">
<polygon fill="white" stroke="black" points="0,-0.5 0,-30.5 146,-30.5 146,-0.5 0,-0.5"/>
<text text-anchor="start" x="8" y="-18.5" font-family="Helvetica,sans-Serif" font-size="10.00">Renderable2DTextComponent</text>
<text text-anchor="middle" x="73" y="-7.5" font-family="Helvetica,sans-Serif" font-size="10.00">Instance</text>
</a>
</g>
</g>
<!-- Node0&#45;&gt;Node4 -->
<g id="edge4" class="edge">
<title>Node0&#45;&gt;Node4</title>
<path fill="none" stroke="midnightblue" d="M134.97,-61.47C121.99,-52.05 105.17,-39.84 92.33,-30.52"/>
<polygon fill="midnightblue" stroke="midnightblue" points="133.1,-64.43 143.25,-67.48 137.21,-58.77 133.1,-64.43"/>
</g>
<!-- Node5 -->
<g id="node6" class="node">
<title>Node5</title>
<g id="a_node6"><a xlink:href="../../d4/d70/classnap_1_1_renderable3_d_text_component_instance.html" target="_top" xlink:title="Renderable3DTextComponent\lInstance">
<polygon fill="white" stroke="black" points="164,-0.5 164,-30.5 310,-30.5 310,-0.5 164,-0.5"/>
<text text-anchor="start" x="172" y="-18.5" font-family="Helvetica,sans-Serif" font-size="10.00">Renderable3DTextComponent</text>
<text text-anchor="middle" x="237" y="-7.5" font-family="Helvetica,sans-Serif" font-size="10.00">Instance</text>
</a>
</g>
</g>
<!-- Node0&#45;&gt;Node5 -->
<g id="edge5" class="edge">
<title>Node0&#45;&gt;Node5</title>
<path fill="none" stroke="midnightblue" d="M175.03,-61.47C188.01,-52.05 204.83,-39.84 217.67,-30.52"/>
<polygon fill="midnightblue" stroke="midnightblue" points="172.79,-58.77 166.75,-67.48 176.9,-64.43 172.79,-58.77"/>
</g>
<!-- Node1 -->
<g id="node2" class="node">
<title>Node1</title>
<g id="a_node2"><a xlink:href="../../dd/da0/classnap_1_1_renderable_component_instance.html" target="_top" xlink:title="RenderableComponentInstance">
<polygon fill="white" stroke="black" points="79,-123.5 79,-142.5 231,-142.5 231,-123.5 79,-123.5"/>
<text text-anchor="middle" x="155" y="-130.5" font-family="Helvetica,sans-Serif" font-size="10.00">RenderableComponentInstance</text>
</a>
</g>
</g>
<!-- Node1&#45;&gt;Node0 -->
<g id="edge1" class="edge">
<title>Node1&#45;&gt;Node0</title>
<path fill="none" stroke="midnightblue" d="M155,-112.8C155,-103.91 155,-93.78 155,-86.75"/>
<polygon fill="midnightblue" stroke="midnightblue" points="151.5,-113.08 155,-123.08 158.5,-113.08 151.5,-113.08"/>
</g>
<!-- Node2 -->
<g id="node3" class="node">
<title>Node2</title>
<g id="a_node3"><a xlink:href="../../d9/df2/classnap_1_1_component_instance.html" target="_top" xlink:title="ComponentInstance">
<polygon fill="white" stroke="black" points="103.5,-179.5 103.5,-198.5 206.5,-198.5 206.5,-179.5 103.5,-179.5"/>
<text text-anchor="middle" x="155" y="-186.5" font-family="Helvetica,sans-Serif" font-size="10.00">ComponentInstance</text>
</a>
</g>
</g>
<!-- Node2&#45;&gt;Node1 -->
<g id="edge2" class="edge">
<title>Node2&#45;&gt;Node1</title>
<path fill="none" stroke="midnightblue" d="M155,-168.8C155,-159.91 155,-149.78 155,-142.75"/>
<polygon fill="midnightblue" stroke="midnightblue" points="151.5,-169.08 155,-179.08 158.5,-169.08 151.5,-169.08"/>
</g>
<!-- Node3 -->
<g id="node4" class="node">
<title>Node3</title>
<g id="a_node4"><a xlink:href="../../de/d01/classnap_1_1rtti_1_1_object.html" target="_top" xlink:title="Object">
<polygon fill="white" stroke="black" points="132.5,-235.5 132.5,-254.5 177.5,-254.5 177.5,-235.5 132.5,-235.5"/>
<text text-anchor="middle" x="155" y="-242.5" font-family="Helvetica,sans-Serif" font-size="10.00">Object</text>
</a>
</g>
</g>
<!-- Node3&#45;&gt;Node2 -->
<g id="edge3" class="edge">
<title>Node3&#45;&gt;Node2</title>
<path fill="none" stroke="midnightblue" d="M155,-224.8C155,-215.91 155,-205.78 155,-198.75"/>
<polygon fill="midnightblue" stroke="midnightblue" points="151.5,-225.08 155,-235.08 158.5,-225.08 151.5,-225.08"/>
</g>
</g>
</svg>
