<?xml version="1.0" encoding="UTF-8" standalone="no"?>
<!DOCTYPE svg PUBLIC "-//W3C//DTD SVG 1.1//EN"
 "http://www.w3.org/Graphics/SVG/1.1/DTD/svg11.dtd">
<!-- Generated by graphviz version 2.43.0 (0)
 -->
<!-- Title: CalendarItem Pages: 1 -->
<svg width="431pt" height="180pt"
 viewBox="0.00 0.00 431.00 180.00" xmlns="http://www.w3.org/2000/svg" xmlns:xlink="http://www.w3.org/1999/xlink">
<g id="graph0" class="graph" transform="scale(1 1) rotate(0) translate(4 176)">
<title>CalendarItem</title>
<polygon fill="white" stroke="transparent" points="-4,4 -4,-176 427,-176 427,4 -4,4"/>
<!-- Node1 -->
<g id="node1" class="node">
<title>Node1</title>
<g id="a_node1"><a xlink:title=" ">
<polygon fill="#bfbfbf" stroke="black" points="182,-76.5 182,-95.5 265,-95.5 265,-76.5 182,-76.5"/>
<text text-anchor="middle" x="223.5" y="-83.5" font-family="Helvetica,sans-Serif" font-size="10.00">CalendarItem</text>
</a>
</g>
</g>
<!-- Node4 -->
<g id="node4" class="node">
<title>Node4</title>
<g id="a_node4"><a xlink:href="../../dd/d1e/classnap_1_1_daily_calendar_item.html" target="_top" xlink:title=" ">
<polygon fill="white" stroke="black" points="308,-152.5 308,-171.5 416,-171.5 416,-152.5 308,-152.5"/>
<text text-anchor="middle" x="362" y="-159.5" font-family="Helvetica,sans-Serif" font-size="10.00">DailyCalendarItem</text>
</a>
</g>
</g>
<!-- Node1&#45;&gt;Node4 -->
<g id="edge3" class="edge">
<title>Node1&#45;&gt;Node4</title>
<path fill="none" stroke="midnightblue" d="M242.98,-102.56C257.79,-115.11 279.56,-132.01 301,-143 308.2,-146.69 316.25,-149.83 324.05,-152.44"/>
<polygon fill="midnightblue" stroke="midnightblue" points="244.97,-99.66 235.12,-95.75 240.39,-104.95 244.97,-99.66"/>
</g>
<!-- Node5 -->
<g id="node5" class="node">
<title>Node5</title>
<g id="a_node5"><a xlink:href="../../d6/d5e/classnap_1_1_monthly_calendar_item.html" target="_top" xlink:title=" ">
<polygon fill="white" stroke="black" points="301,-114.5 301,-133.5 423,-133.5 423,-114.5 301,-114.5"/>
<text text-anchor="middle" x="362" y="-121.5" font-family="Helvetica,sans-Serif" font-size="10.00">MonthlyCalendarItem</text>
</a>
</g>
</g>
<!-- Node1&#45;&gt;Node5 -->
<g id="edge4" class="edge">
<title>Node1&#45;&gt;Node5</title>
<path fill="none" stroke="midnightblue" d="M268.75,-98.32C287.5,-103.54 309.03,-109.53 326.57,-114.41"/>
<polygon fill="midnightblue" stroke="midnightblue" points="269.52,-94.9 258.94,-95.59 267.64,-101.64 269.52,-94.9"/>
</g>
<!-- Node6 -->
<g id="node6" class="node">
<title>Node6</title>
<g id="a_node6"><a xlink:href="../../dc/dc6/classnap_1_1_unique_calendar_item.html" target="_top" xlink:title=" ">
<polygon fill="white" stroke="black" points="303.5,-76.5 303.5,-95.5 420.5,-95.5 420.5,-76.5 303.5,-76.5"/>
<text text-anchor="middle" x="362" y="-83.5" font-family="Helvetica,sans-Serif" font-size="10.00">UniqueCalendarItem</text>
</a>
</g>
</g>
<!-- Node1&#45;&gt;Node6 -->
<g id="edge5" class="edge">
<title>Node1&#45;&gt;Node6</title>
<path fill="none" stroke="midnightblue" d="M275.22,-86C284.4,-86 294.03,-86 303.4,-86"/>
<polygon fill="midnightblue" stroke="midnightblue" points="275.08,-82.5 265.08,-86 275.08,-89.5 275.08,-82.5"/>
</g>
<!-- Node7 -->
<g id="node7" class="node">
<title>Node7</title>
<g id="a_node7"><a xlink:href="../../dc/df7/classnap_1_1_weekly_calendar_item.html" target="_top" xlink:title=" ">
<polygon fill="white" stroke="black" points="302.5,-38.5 302.5,-57.5 421.5,-57.5 421.5,-38.5 302.5,-38.5"/>
<text text-anchor="middle" x="362" y="-45.5" font-family="Helvetica,sans-Serif" font-size="10.00">WeeklyCalendarItem</text>
</a>
</g>
</g>
<!-- Node1&#45;&gt;Node7 -->
<g id="edge6" class="edge">
<title>Node1&#45;&gt;Node7</title>
<path fill="none" stroke="midnightblue" d="M268.75,-73.68C287.5,-68.46 309.03,-62.47 326.57,-57.59"/>
<polygon fill="midnightblue" stroke="midnightblue" points="267.64,-70.36 258.94,-76.41 269.52,-77.1 267.64,-70.36"/>
</g>
<!-- Node8 -->
<g id="node8" class="node">
<title>Node8</title>
<g id="a_node8"><a xlink:href="../../d4/d63/classnap_1_1_yearly_calendar_item.html" target="_top" xlink:title=" ">
<polygon fill="white" stroke="black" points="306,-0.5 306,-19.5 418,-19.5 418,-0.5 306,-0.5"/>
<text text-anchor="middle" x="362" y="-7.5" font-family="Helvetica,sans-Serif" font-size="10.00">YearlyCalendarItem</text>
</a>
</g>
</g>
<!-- Node1&#45;&gt;Node8 -->
<g id="edge7" class="edge">
<title>Node1&#45;&gt;Node8</title>
<path fill="none" stroke="midnightblue" d="M242.98,-69.44C257.79,-56.89 279.56,-39.99 301,-29 308.2,-25.31 316.25,-22.17 324.05,-19.56"/>
<polygon fill="midnightblue" stroke="midnightblue" points="240.39,-67.05 235.12,-76.25 244.97,-72.34 240.39,-67.05"/>
</g>
<!-- Node2 -->
<g id="node2" class="node">
<title>Node2</title>
<g id="a_node2"><a xlink:href="../../d9/dea/classnap_1_1_resource.html" target="_top" xlink:title=" ">
<polygon fill="white" stroke="black" points="84,-76.5 84,-95.5 146,-95.5 146,-76.5 84,-76.5"/>
<text text-anchor="middle" x="115" y="-83.5" font-family="Helvetica,sans-Serif" font-size="10.00">Resource</text>
</a>
</g>
</g>
<!-- Node2&#45;&gt;Node1 -->
<g id="edge1" class="edge">
<title>Node2&#45;&gt;Node1</title>
<path fill="none" stroke="midnightblue" d="M156.46,-86C164.77,-86 173.53,-86 181.85,-86"/>
<polygon fill="midnightblue" stroke="midnightblue" points="156.23,-82.5 146.23,-86 156.23,-89.5 156.23,-82.5"/>
</g>
<!-- Node3 -->
<g id="node3" class="node">
<title>Node3</title>
<g id="a_node3"><a xlink:href="../../de/d01/classnap_1_1rtti_1_1_object.html" target="_top" xlink:title=" ">
<polygon fill="white" stroke="black" points="0,-76.5 0,-95.5 48,-95.5 48,-76.5 0,-76.5"/>
<text text-anchor="middle" x="24" y="-83.5" font-family="Helvetica,sans-Serif" font-size="10.00">Object</text>
</a>
</g>
</g>
<!-- Node3&#45;&gt;Node2 -->
<g id="edge2" class="edge">
<title>Node3&#45;&gt;Node2</title>
<path fill="none" stroke="midnightblue" d="M58.49,-86C66.78,-86 75.61,-86 83.73,-86"/>
<polygon fill="midnightblue" stroke="midnightblue" points="58.38,-82.5 48.38,-86 58.38,-89.5 58.38,-82.5"/>
</g>
</g>
</svg>
