<?xml version="1.0" encoding="UTF-8" standalone="no"?>
<!DOCTYPE svg PUBLIC "-//W3C//DTD SVG 1.1//EN"
 "http://www.w3.org/Graphics/SVG/1.1/DTD/svg11.dtd">
<!-- Generated by graphviz version 2.43.0 (0)
 -->
<!-- Title: BaseShader Pages: 1 -->
<svg width="342pt" height="173pt"
 viewBox="0.00 0.00 341.50 173.00" xmlns="http://www.w3.org/2000/svg" xmlns:xlink="http://www.w3.org/1999/xlink">
<g id="graph0" class="graph" transform="scale(1 1) rotate(0) translate(4 169)">
<title>BaseShader</title>
<polygon fill="white" stroke="transparent" points="-4,4 -4,-169 337.5,-169 337.5,4 -4,4"/>
<!-- Node1 -->
<g id="node1" class="node">
<title>Node1</title>
<g id="a_node1"><a xlink:title=" ">
<polygon fill="#bfbfbf" stroke="black" points="40,-0.5 40,-19.5 114,-19.5 114,-0.5 40,-0.5"/>
<text text-anchor="middle" x="77" y="-7.5" font-family="Helvetica,sans-Serif" font-size="10.00">BaseShader</text>
</a>
</g>
</g>
<!-- Node2 -->
<g id="node2" class="node">
<title>Node2</title>
<g id="a_node2"><a xlink:href="../../d9/dea/classnap_1_1_resource.html" target="_top" xlink:title=" ">
<polygon fill="white" stroke="black" points="0,-67.5 0,-86.5 62,-86.5 62,-67.5 0,-67.5"/>
<text text-anchor="middle" x="31" y="-74.5" font-family="Helvetica,sans-Serif" font-size="10.00">Resource</text>
</a>
</g>
</g>
<!-- Node2&#45;&gt;Node1 -->
<g id="edge1" class="edge">
<title>Node2&#45;&gt;Node1</title>
<path fill="none" stroke="midnightblue" d="M43.1,-58.9C52.04,-46.27 63.83,-29.6 70.89,-19.63"/>
<polygon fill="midnightblue" stroke="midnightblue" points="40.12,-57.05 37.2,-67.23 45.84,-61.09 40.12,-57.05"/>
</g>
<!-- Node3 -->
<g id="node3" class="node">
<title>Node3</title>
<g id="a_node3"><a xlink:href="../../de/d01/classnap_1_1rtti_1_1_object.html" target="_top" xlink:title=" ">
<polygon fill="white" stroke="black" points="7,-145.5 7,-164.5 55,-164.5 55,-145.5 7,-145.5"/>
<text text-anchor="middle" x="31" y="-152.5" font-family="Helvetica,sans-Serif" font-size="10.00">Object</text>
</a>
</g>
</g>
<!-- Node3&#45;&gt;Node2 -->
<g id="edge2" class="edge">
<title>Node3&#45;&gt;Node2</title>
<path fill="none" stroke="midnightblue" d="M31,-135.22C31,-119.7 31,-98.36 31,-86.62"/>
<polygon fill="midnightblue" stroke="midnightblue" points="27.5,-135.28 31,-145.28 34.5,-135.28 27.5,-135.28"/>
</g>
<!-- Node4 -->
<g id="node4" class="node">
<title>Node4</title>
<g id="a_node4"><a xlink:href="../../d5/dc6/classnap_1_1_render_service.html" target="_top" xlink:title=" ">
<polygon fill="white" stroke="black" points="80.5,-67.5 80.5,-86.5 167.5,-86.5 167.5,-67.5 80.5,-67.5"/>
<text text-anchor="middle" x="124" y="-74.5" font-family="Helvetica,sans-Serif" font-size="10.00">RenderService</text>
</a>
</g>
</g>
<!-- Node4&#45;&gt;Node1 -->
<g id="edge3" class="edge">
<title>Node4&#45;&gt;Node1</title>
<path fill="none" stroke="#9a32cd" stroke-dasharray="5,2" d="M111.64,-58.9C102.51,-46.27 90.45,-29.6 83.24,-19.63"/>
<polygon fill="#9a32cd" stroke="#9a32cd" points="108.97,-61.18 117.66,-67.23 114.64,-57.08 108.97,-61.18"/>
<text text-anchor="middle" x="146" y="-41" font-family="Helvetica,sans-Serif" font-size="10.00"> mRenderService</text>
</g>
<!-- Node5 -->
<g id="node5" class="node">
<title>Node5</title>
<g id="a_node5"><a xlink:href="../../d8/d8e/classnap_1_1_service.html" target="_top" xlink:title=" ">
<polygon fill="white" stroke="black" points="85.5,-145.5 85.5,-164.5 138.5,-164.5 138.5,-145.5 85.5,-145.5"/>
<text text-anchor="middle" x="112" y="-152.5" font-family="Helvetica,sans-Serif" font-size="10.00">Service</text>
</a>
</g>
</g>
<!-- Node5&#45;&gt;Node4 -->
<g id="edge4" class="edge">
<title>Node5&#45;&gt;Node4</title>
<path fill="none" stroke="midnightblue" d="M114.96,-135.22C117.42,-119.7 120.79,-98.36 122.64,-86.62"/>
<polygon fill="midnightblue" stroke="midnightblue" points="111.48,-134.86 113.38,-145.28 118.39,-135.95 111.48,-134.86"/>
</g>
<!-- Node6 -->
<g id="node6" class="node">
<title>Node6</title>
<g id="a_node6"><a xlink:href="../../de/d80/classnap_1_1_signal.html" target="_top" xlink:title=" ">
<polygon fill="white" stroke="black" points="156.5,-145.5 156.5,-164.5 333.5,-164.5 333.5,-145.5 156.5,-145.5"/>
<text text-anchor="middle" x="245" y="-152.5" font-family="Helvetica,sans-Serif" font-size="10.00">Signal&lt; nap::RenderWindow &amp; &gt;</text>
</a>
</g>
</g>
<!-- Node6&#45;&gt;Node4 -->
<g id="edge5" class="edge">
<title>Node6&#45;&gt;Node4</title>
<path fill="none" stroke="#9a32cd" stroke-dasharray="5,2" d="M222.35,-139.77C197.47,-124.15 158.32,-99.56 137.72,-86.62"/>
<polygon fill="#9a32cd" stroke="#9a32cd" points="220.79,-142.93 231.12,-145.28 224.51,-137 220.79,-142.93"/>
<text text-anchor="middle" x="243" y="-119" font-family="Helvetica,sans-Serif" font-size="10.00"> windowRemoved</text>
<text text-anchor="middle" x="243" y="-108" font-family="Helvetica,sans-Serif" font-size="10.00">windowAdded</text>
</g>
</g>
</svg>
