<?xml version="1.0" encoding="UTF-8" standalone="no"?>
<!DOCTYPE svg PUBLIC "-//W3C//DTD SVG 1.1//EN"
 "http://www.w3.org/Graphics/SVG/1.1/DTD/svg11.dtd">
<!-- Generated by graphviz version 2.43.0 (0)
 -->
<!-- Title: Snapshot Pages: 1 -->
<svg width="554pt" height="230pt"
 viewBox="0.00 0.00 554.00 230.00" xmlns="http://www.w3.org/2000/svg" xmlns:xlink="http://www.w3.org/1999/xlink">
<g id="graph0" class="graph" transform="scale(1 1) rotate(0) translate(4 226)">
<title>Snapshot</title>
<polygon fill="white" stroke="transparent" points="-4,4 -4,-226 550,-226 550,4 -4,4"/>
<!-- Node1 -->
<g id="node1" class="node">
<title>Node1</title>
<g id="a_node1"><a xlink:title=" ">
<polygon fill="#bfbfbf" stroke="black" points="214,-0.5 214,-19.5 276,-19.5 276,-0.5 214,-0.5"/>
<text text-anchor="middle" x="245" y="-7.5" font-family="Helvetica,sans-Serif" font-size="10.00">Snapshot</text>
</a>
</g>
</g>
<!-- Node2 -->
<g id="node2" class="node">
<title>Node2</title>
<g id="a_node2"><a xlink:href="../../d9/dea/classnap_1_1_resource.html" target="_top" xlink:title=" ">
<polygon fill="white" stroke="black" points="0,-67.5 0,-86.5 62,-86.5 62,-67.5 0,-67.5"/>
<text text-anchor="middle" x="31" y="-74.5" font-family="Helvetica,sans-Serif" font-size="10.00">Resource</text>
</a>
</g>
</g>
<!-- Node2&#45;&gt;Node1 -->
<g id="edge1" class="edge">
<title>Node2&#45;&gt;Node1</title>
<path fill="none" stroke="midnightblue" d="M63.44,-64.04C85.23,-56.2 114.67,-45.95 141,-38 165.29,-30.66 193.12,-23.5 213.88,-18.4"/>
<polygon fill="midnightblue" stroke="midnightblue" points="62.21,-60.76 54,-67.46 64.6,-67.34 62.21,-60.76"/>
</g>
<!-- Node3 -->
<g id="node3" class="node">
<title>Node3</title>
<g id="a_node3"><a xlink:href="../../de/d01/classnap_1_1rtti_1_1_object.html" target="_top" xlink:title=" ">
<polygon fill="white" stroke="black" points="7,-145.5 7,-164.5 55,-164.5 55,-145.5 7,-145.5"/>
<text text-anchor="middle" x="31" y="-152.5" font-family="Helvetica,sans-Serif" font-size="10.00">Object</text>
</a>
</g>
</g>
<!-- Node3&#45;&gt;Node2 -->
<g id="edge2" class="edge">
<title>Node3&#45;&gt;Node2</title>
<path fill="none" stroke="midnightblue" d="M31,-135.22C31,-119.7 31,-98.36 31,-86.62"/>
<polygon fill="midnightblue" stroke="midnightblue" points="27.5,-135.28 31,-145.28 34.5,-135.28 27.5,-135.28"/>
</g>
<!-- Node4 -->
<g id="node4" class="node">
<title>Node4</title>
<g id="a_node4"><a xlink:href="../../d5/dc6/classnap_1_1_render_service.html" target="_top" xlink:title=" ">
<polygon fill="white" stroke="black" points="80.5,-67.5 80.5,-86.5 167.5,-86.5 167.5,-67.5 80.5,-67.5"/>
<text text-anchor="middle" x="124" y="-74.5" font-family="Helvetica,sans-Serif" font-size="10.00">RenderService</text>
</a>
</g>
</g>
<!-- Node4&#45;&gt;Node1 -->
<g id="edge3" class="edge">
<title>Node4&#45;&gt;Node1</title>
<path fill="none" stroke="#9a32cd" stroke-dasharray="5,2" d="M135.72,-58.62C141.39,-51.35 148.76,-43.36 157,-38 174.15,-26.85 196.15,-20.1 213.86,-16.13"/>
<polygon fill="#9a32cd" stroke="#9a32cd" points="132.53,-57.04 129.5,-67.19 138.2,-61.15 132.53,-57.04"/>
<text text-anchor="middle" x="199" y="-41" font-family="Helvetica,sans-Serif" font-size="10.00"> mRenderService</text>
</g>
<!-- Node5 -->
<g id="node5" class="node">
<title>Node5</title>
<g id="a_node5"><a xlink:href="../../d8/d8e/classnap_1_1_service.html" target="_top" xlink:title=" ">
<polygon fill="white" stroke="black" points="85.5,-145.5 85.5,-164.5 138.5,-164.5 138.5,-145.5 85.5,-145.5"/>
<text text-anchor="middle" x="112" y="-152.5" font-family="Helvetica,sans-Serif" font-size="10.00">Service</text>
</a>
</g>
</g>
<!-- Node5&#45;&gt;Node4 -->
<g id="edge4" class="edge">
<title>Node5&#45;&gt;Node4</title>
<path fill="none" stroke="midnightblue" d="M114.96,-135.22C117.42,-119.7 120.79,-98.36 122.64,-86.62"/>
<polygon fill="midnightblue" stroke="midnightblue" points="111.48,-134.86 113.38,-145.28 118.39,-135.95 111.48,-134.86"/>
</g>
<!-- Node6 -->
<g id="node6" class="node">
<title>Node6</title>
<g id="a_node6"><a xlink:href="../../de/d80/classnap_1_1_signal.html" target="_top" xlink:title=" ">
<polygon fill="white" stroke="black" points="156.5,-145.5 156.5,-164.5 333.5,-164.5 333.5,-145.5 156.5,-145.5"/>
<text text-anchor="middle" x="245" y="-152.5" font-family="Helvetica,sans-Serif" font-size="10.00">Signal&lt; nap::RenderWindow &amp; &gt;</text>
</a>
</g>
</g>
<!-- Node6&#45;&gt;Node4 -->
<g id="edge5" class="edge">
<title>Node6&#45;&gt;Node4</title>
<path fill="none" stroke="#9a32cd" stroke-dasharray="5,2" d="M222.35,-139.77C197.47,-124.15 158.32,-99.56 137.72,-86.62"/>
<polygon fill="#9a32cd" stroke="#9a32cd" points="220.79,-142.93 231.12,-145.28 224.51,-137 220.79,-142.93"/>
<text text-anchor="middle" x="243" y="-119" font-family="Helvetica,sans-Serif" font-size="10.00"> windowRemoved</text>
<text text-anchor="middle" x="243" y="-108" font-family="Helvetica,sans-Serif" font-size="10.00">windowAdded</text>
</g>
<!-- Node7 -->
<g id="node7" class="node">
<title>Node7</title>
<g id="a_node7"><a xlink:title=" ">
<polygon fill="white" stroke="#bfbfbf" points="186,-67.5 186,-86.5 304,-86.5 304,-67.5 186,-67.5"/>
<text text-anchor="middle" x="245" y="-74.5" font-family="Helvetica,sans-Serif" font-size="10.00">Signal&lt; std::string &gt;</text>
</a>
</g>
</g>
<!-- Node7&#45;&gt;Node1 -->
<g id="edge6" class="edge">
<title>Node7&#45;&gt;Node1</title>
<path fill="none" stroke="#9a32cd" stroke-dasharray="5,2" d="M245,-57.04C245,-44.67 245,-29.12 245,-19.63"/>
<polygon fill="#9a32cd" stroke="#9a32cd" points="241.5,-57.23 245,-67.23 248.5,-57.23 241.5,-57.23"/>
<text text-anchor="middle" x="290.5" y="-41" font-family="Helvetica,sans-Serif" font-size="10.00"> onSnapshotSaved</text>
</g>
<!-- Node8 -->
<g id="node8" class="node">
<title>Node8</title>
<g id="a_node8"><a xlink:href="../../de/d80/classnap_1_1_signal.html" target="_top" xlink:title=" ">
<polygon fill="white" stroke="black" points="322.5,-67.5 322.5,-86.5 413.5,-86.5 413.5,-67.5 322.5,-67.5"/>
<text text-anchor="middle" x="368" y="-74.5" font-family="Helvetica,sans-Serif" font-size="10.00">Signal&lt; Args &gt;</text>
</a>
</g>
</g>
<!-- Node8&#45;&gt;Node1 -->
<g id="edge7" class="edge">
<title>Node8&#45;&gt;Node1</title>
<path fill="none" stroke="#9a32cd" stroke-dasharray="5,2" d="M358.79,-58.79C354.06,-51.43 347.67,-43.32 340,-38 321.12,-24.91 295.98,-18.12 276.3,-14.63"/>
<polygon fill="#9a32cd" stroke="#9a32cd" points="355.79,-60.59 363.86,-67.45 361.83,-57.05 355.79,-60.59"/>
<text text-anchor="middle" x="381.5" y="-41" font-family="Helvetica,sans-Serif" font-size="10.00"> onSnapshot</text>
</g>
<!-- Node9 -->
<g id="node9" class="node">
<title>Node9</title>
<g id="a_node9"><a xlink:href="../../d6/db8/classnap_1_1_r_g_b_a_color.html" target="_top" xlink:title=" ">
<polygon fill="white" stroke="black" points="432,-67.5 432,-86.5 546,-86.5 546,-67.5 432,-67.5"/>
<text text-anchor="middle" x="489" y="-74.5" font-family="Helvetica,sans-Serif" font-size="10.00">RGBAColor&lt; float &gt;</text>
</a>
</g>
</g>
<!-- Node9&#45;&gt;Node1 -->
<g id="edge8" class="edge">
<title>Node9&#45;&gt;Node1</title>
<path fill="none" stroke="#9a32cd" stroke-dasharray="5,2" d="M466.96,-62.13C452.89,-53.89 433.97,-43.92 416,-38 368.76,-22.43 311.13,-15.71 276.29,-12.9"/>
<polygon fill="#9a32cd" stroke="#9a32cd" points="465.48,-65.32 475.86,-67.48 469.09,-59.33 465.48,-65.32"/>
<text text-anchor="middle" x="473" y="-41" font-family="Helvetica,sans-Serif" font-size="10.00"> mClearColor</text>
</g>
<!-- Node10 -->
<g id="node10" class="node">
<title>Node10</title>
<g id="a_node10"><a xlink:href="../../d6/d3d/classnap_1_1_color.html" target="_top" xlink:title=" ">
<polygon fill="white" stroke="black" points="440,-145.5 440,-164.5 538,-164.5 538,-145.5 440,-145.5"/>
<text text-anchor="middle" x="489" y="-152.5" font-family="Helvetica,sans-Serif" font-size="10.00">Color&lt; float, 4 &gt;</text>
</a>
</g>
</g>
<!-- Node10&#45;&gt;Node9 -->
<g id="edge9" class="edge">
<title>Node10&#45;&gt;Node9</title>
<path fill="none" stroke="midnightblue" d="M489,-135.22C489,-119.7 489,-98.36 489,-86.62"/>
<polygon fill="midnightblue" stroke="midnightblue" points="485.5,-135.28 489,-145.28 492.5,-135.28 485.5,-135.28"/>
</g>
<!-- Node11 -->
<g id="node11" class="node">
<title>Node11</title>
<g id="a_node11"><a xlink:href="../../d8/d6a/classnap_1_1_base_color.html" target="_top" xlink:title=" ">
<polygon fill="white" stroke="black" points="456,-202.5 456,-221.5 522,-221.5 522,-202.5 456,-202.5"/>
<text text-anchor="middle" x="489" y="-209.5" font-family="Helvetica,sans-Serif" font-size="10.00">BaseColor</text>
</a>
</g>
</g>
<!-- Node11&#45;&gt;Node10 -->
<g id="edge10" class="edge">
<title>Node11&#45;&gt;Node10</title>
<path fill="none" stroke="midnightblue" d="M489,-192.12C489,-182.82 489,-172.06 489,-164.71"/>
<polygon fill="midnightblue" stroke="midnightblue" points="485.5,-192.41 489,-202.41 492.5,-192.41 485.5,-192.41"/>
</g>
</g>
</svg>
