<?xml version="1.0" encoding="UTF-8" standalone="no"?>
<!DOCTYPE svg PUBLIC "-//W3C//DTD SVG 1.1//EN"
 "http://www.w3.org/Graphics/SVG/1.1/DTD/svg11.dtd">
<!-- Generated by graphviz version 2.43.0 (0)
 -->
<!-- Title: WindowEvent Pages: 1 -->
<svg width="519pt" height="503pt"
 viewBox="0.00 0.00 519.00 503.00" xmlns="http://www.w3.org/2000/svg" xmlns:xlink="http://www.w3.org/1999/xlink">
<g id="graph0" class="graph" transform="scale(1 1) rotate(0) translate(4 499)">
<title>WindowEvent</title>
<polygon fill="white" stroke="transparent" points="-4,4 -4,-499 515,-499 515,4 -4,4"/>
<!-- Node1 -->
<g id="node1" class="node">
<title>Node1</title>
<g id="a_node1"><a xlink:title=" ">
<polygon fill="#bfbfbf" stroke="black" points="80,-228.5 80,-247.5 163,-247.5 163,-228.5 80,-228.5"/>
<text text-anchor="middle" x="121.5" y="-235.5" font-family="Helvetica,sans-Serif" font-size="10.00">WindowEvent</text>
</a>
</g>
</g>
<!-- Node3 -->
<g id="node3" class="node">
<title>Node3</title>
<g id="a_node3"><a xlink:href="../../d3/d68/classnap_1_1_parameterized_window_event.html" target="_top" xlink:title=" ">
<polygon fill="white" stroke="black" points="199,-456.5 199,-475.5 353,-475.5 353,-456.5 199,-456.5"/>
<text text-anchor="middle" x="276" y="-463.5" font-family="Helvetica,sans-Serif" font-size="10.00">ParameterizedWindowEvent</text>
</a>
</g>
</g>
<!-- Node1&#45;&gt;Node3 -->
<g id="edge2" class="edge">
<title>Node1&#45;&gt;Node3</title>
<path fill="none" stroke="midnightblue" d="M123.77,-257.8C127.54,-299.34 142.28,-395.99 199,-447 203.25,-450.82 208.15,-453.9 213.37,-456.37"/>
<polygon fill="midnightblue" stroke="midnightblue" points="127.25,-257.32 122.97,-247.63 120.27,-257.87 127.25,-257.32"/>
</g>
<!-- Node6 -->
<g id="node6" class="node">
<title>Node6</title>
<g id="a_node6"><a xlink:href="../../df/dc6/classnap_1_1_window_close_event.html" target="_top" xlink:title=" ">
<polygon fill="white" stroke="black" points="221,-418.5 221,-437.5 331,-437.5 331,-418.5 221,-418.5"/>
<text text-anchor="middle" x="276" y="-425.5" font-family="Helvetica,sans-Serif" font-size="10.00">WindowCloseEvent</text>
</a>
</g>
</g>
<!-- Node1&#45;&gt;Node6 -->
<g id="edge5" class="edge">
<title>Node1&#45;&gt;Node6</title>
<path fill="none" stroke="midnightblue" d="M125.65,-258.1C132.36,-294.03 151.54,-369.22 199,-409 205.36,-414.33 213,-418.2 220.96,-421"/>
<polygon fill="midnightblue" stroke="midnightblue" points="129.04,-257.17 123.89,-247.91 122.14,-258.36 129.04,-257.17"/>
</g>
<!-- Node7 -->
<g id="node7" class="node">
<title>Node7</title>
<g id="a_node7"><a xlink:href="../../d7/d03/classnap_1_1_window_enter_event.html" target="_top" xlink:title=" ">
<polygon fill="white" stroke="black" points="221.5,-380.5 221.5,-399.5 330.5,-399.5 330.5,-380.5 221.5,-380.5"/>
<text text-anchor="middle" x="276" y="-387.5" font-family="Helvetica,sans-Serif" font-size="10.00">WindowEnterEvent</text>
</a>
</g>
</g>
<!-- Node1&#45;&gt;Node7 -->
<g id="edge6" class="edge">
<title>Node1&#45;&gt;Node7</title>
<path fill="none" stroke="midnightblue" d="M128.32,-257.7C138.02,-287.02 160.36,-341.82 199,-371 205.62,-376 213.4,-379.7 221.41,-382.43"/>
<polygon fill="midnightblue" stroke="midnightblue" points="131.55,-256.3 125.21,-247.81 124.87,-258.4 131.55,-256.3"/>
</g>
<!-- Node8 -->
<g id="node8" class="node">
<title>Node8</title>
<g id="a_node8"><a xlink:href="../../d4/d8b/classnap_1_1_window_exposed_event.html" target="_top" xlink:title=" ">
<polygon fill="white" stroke="black" points="213.5,-342.5 213.5,-361.5 338.5,-361.5 338.5,-342.5 213.5,-342.5"/>
<text text-anchor="middle" x="276" y="-349.5" font-family="Helvetica,sans-Serif" font-size="10.00">WindowExposedEvent</text>
</a>
</g>
</g>
<!-- Node1&#45;&gt;Node8 -->
<g id="edge7" class="edge">
<title>Node1&#45;&gt;Node8</title>
<path fill="none" stroke="midnightblue" d="M132.34,-256.41C144.9,-278.09 168.68,-313.61 199,-333 205.07,-336.88 211.89,-339.97 218.88,-342.43"/>
<polygon fill="midnightblue" stroke="midnightblue" points="135.31,-254.55 127.37,-247.52 129.2,-257.96 135.31,-254.55"/>
</g>
<!-- Node9 -->
<g id="node9" class="node">
<title>Node9</title>
<g id="a_node9"><a xlink:href="../../db/d67/classnap_1_1_window_focus_gained_event.html" target="_top" xlink:title=" ">
<polygon fill="white" stroke="black" points="203,-304.5 203,-323.5 349,-323.5 349,-304.5 203,-304.5"/>
<text text-anchor="middle" x="276" y="-311.5" font-family="Helvetica,sans-Serif" font-size="10.00">WindowFocusGainedEvent</text>
</a>
</g>
</g>
<!-- Node1&#45;&gt;Node9 -->
<g id="edge8" class="edge">
<title>Node1&#45;&gt;Node9</title>
<path fill="none" stroke="midnightblue" d="M140.29,-254.5C155,-267.3 176.98,-284.56 199,-295 207.11,-298.85 216.09,-301.97 224.95,-304.49"/>
<polygon fill="midnightblue" stroke="midnightblue" points="142.32,-251.61 132.53,-247.56 137.65,-256.83 142.32,-251.61"/>
</g>
<!-- Node10 -->
<g id="node10" class="node">
<title>Node10</title>
<g id="a_node10"><a xlink:href="../../d1/d41/classnap_1_1_window_focus_lost_event.html" target="_top" xlink:title=" ">
<polygon fill="white" stroke="black" points="210.5,-266.5 210.5,-285.5 341.5,-285.5 341.5,-266.5 210.5,-266.5"/>
<text text-anchor="middle" x="276" y="-273.5" font-family="Helvetica,sans-Serif" font-size="10.00">WindowFocusLostEvent</text>
</a>
</g>
</g>
<!-- Node1&#45;&gt;Node10 -->
<g id="edge9" class="edge">
<title>Node1&#45;&gt;Node10</title>
<path fill="none" stroke="midnightblue" d="M170.82,-250.04C192.12,-255.35 216.8,-261.5 236.79,-266.48"/>
<polygon fill="midnightblue" stroke="midnightblue" points="171.53,-246.61 160.98,-247.59 169.84,-253.4 171.53,-246.61"/>
</g>
<!-- Node11 -->
<g id="node11" class="node">
<title>Node11</title>
<g id="a_node11"><a xlink:href="../../dc/d3b/classnap_1_1_window_hidden_event.html" target="_top" xlink:title=" ">
<polygon fill="white" stroke="black" points="217,-228.5 217,-247.5 335,-247.5 335,-228.5 217,-228.5"/>
<text text-anchor="middle" x="276" y="-235.5" font-family="Helvetica,sans-Serif" font-size="10.00">WindowHiddenEvent</text>
</a>
</g>
</g>
<!-- Node1&#45;&gt;Node11 -->
<g id="edge10" class="edge">
<title>Node1&#45;&gt;Node11</title>
<path fill="none" stroke="midnightblue" d="M173.68,-238C187.53,-238 202.62,-238 216.82,-238"/>
<polygon fill="midnightblue" stroke="midnightblue" points="173.37,-234.5 163.37,-238 173.37,-241.5 173.37,-234.5"/>
</g>
<!-- Node12 -->
<g id="node12" class="node">
<title>Node12</title>
<g id="a_node12"><a xlink:href="../../da/d55/classnap_1_1_window_leave_event.html" target="_top" xlink:title=" ">
<polygon fill="white" stroke="black" points="219.5,-190.5 219.5,-209.5 332.5,-209.5 332.5,-190.5 219.5,-190.5"/>
<text text-anchor="middle" x="276" y="-197.5" font-family="Helvetica,sans-Serif" font-size="10.00">WindowLeaveEvent</text>
</a>
</g>
</g>
<!-- Node1&#45;&gt;Node12 -->
<g id="edge11" class="edge">
<title>Node1&#45;&gt;Node12</title>
<path fill="none" stroke="midnightblue" d="M170.82,-225.96C192.12,-220.65 216.8,-214.5 236.79,-209.52"/>
<polygon fill="midnightblue" stroke="midnightblue" points="169.84,-222.6 160.98,-228.41 171.53,-229.39 169.84,-222.6"/>
</g>
<!-- Node13 -->
<g id="node13" class="node">
<title>Node13</title>
<g id="a_node13"><a xlink:href="../../d7/d6a/classnap_1_1_window_maximized_event.html" target="_top" xlink:title=" ">
<polygon fill="white" stroke="black" points="207.5,-152.5 207.5,-171.5 344.5,-171.5 344.5,-152.5 207.5,-152.5"/>
<text text-anchor="middle" x="276" y="-159.5" font-family="Helvetica,sans-Serif" font-size="10.00">WindowMaximizedEvent</text>
</a>
</g>
</g>
<!-- Node1&#45;&gt;Node13 -->
<g id="edge12" class="edge">
<title>Node1&#45;&gt;Node13</title>
<path fill="none" stroke="midnightblue" d="M140.29,-221.5C155,-208.7 176.98,-191.44 199,-181 207.11,-177.15 216.09,-174.03 224.95,-171.51"/>
<polygon fill="midnightblue" stroke="midnightblue" points="137.65,-219.17 132.53,-228.44 142.32,-224.39 137.65,-219.17"/>
</g>
<!-- Node14 -->
<g id="node14" class="node">
<title>Node14</title>
<g id="a_node14"><a xlink:href="../../d0/db2/classnap_1_1_window_minimized_event.html" target="_top" xlink:title=" ">
<polygon fill="white" stroke="black" points="209,-114.5 209,-133.5 343,-133.5 343,-114.5 209,-114.5"/>
<text text-anchor="middle" x="276" y="-121.5" font-family="Helvetica,sans-Serif" font-size="10.00">WindowMinimizedEvent</text>
</a>
</g>
</g>
<!-- Node1&#45;&gt;Node14 -->
<g id="edge13" class="edge">
<title>Node1&#45;&gt;Node14</title>
<path fill="none" stroke="midnightblue" d="M132.34,-219.59C144.9,-197.91 168.68,-162.39 199,-143 205.07,-139.12 211.89,-136.03 218.88,-133.57"/>
<polygon fill="midnightblue" stroke="midnightblue" points="129.2,-218.04 127.37,-228.48 135.31,-221.45 129.2,-218.04"/>
</g>
<!-- Node15 -->
<g id="node15" class="node">
<title>Node15</title>
<g id="a_node15"><a xlink:href="../../d3/d8c/classnap_1_1_window_restored_event.html" target="_top" xlink:title=" ">
<polygon fill="white" stroke="black" points="212.5,-76.5 212.5,-95.5 339.5,-95.5 339.5,-76.5 212.5,-76.5"/>
<text text-anchor="middle" x="276" y="-83.5" font-family="Helvetica,sans-Serif" font-size="10.00">WindowRestoredEvent</text>
</a>
</g>
</g>
<!-- Node1&#45;&gt;Node15 -->
<g id="edge14" class="edge">
<title>Node1&#45;&gt;Node15</title>
<path fill="none" stroke="midnightblue" d="M128.32,-218.3C138.02,-188.98 160.36,-134.18 199,-105 204.1,-101.15 209.89,-98.07 215.94,-95.61"/>
<polygon fill="midnightblue" stroke="midnightblue" points="124.87,-217.6 125.21,-228.19 131.55,-219.7 124.87,-217.6"/>
</g>
<!-- Node16 -->
<g id="node16" class="node">
<title>Node16</title>
<g id="a_node16"><a xlink:href="../../dd/d16/classnap_1_1_window_shown_event.html" target="_top" xlink:title=" ">
<polygon fill="white" stroke="black" points="218,-38.5 218,-57.5 334,-57.5 334,-38.5 218,-38.5"/>
<text text-anchor="middle" x="276" y="-45.5" font-family="Helvetica,sans-Serif" font-size="10.00">WindowShownEvent</text>
</a>
</g>
</g>
<!-- Node1&#45;&gt;Node16 -->
<g id="edge15" class="edge">
<title>Node1&#45;&gt;Node16</title>
<path fill="none" stroke="midnightblue" d="M125.65,-217.9C132.36,-181.97 151.54,-106.78 199,-67 204.52,-62.37 211.02,-58.84 217.85,-56.16"/>
<polygon fill="midnightblue" stroke="midnightblue" points="122.14,-217.64 123.89,-228.09 129.04,-218.83 122.14,-217.64"/>
</g>
<!-- Node17 -->
<g id="node17" class="node">
<title>Node17</title>
<g id="a_node17"><a xlink:href="../../db/d02/classnap_1_1_window_take_focus_event.html" target="_top" xlink:title=" ">
<polygon fill="white" stroke="black" points="209.5,-0.5 209.5,-19.5 342.5,-19.5 342.5,-0.5 209.5,-0.5"/>
<text text-anchor="middle" x="276" y="-7.5" font-family="Helvetica,sans-Serif" font-size="10.00">WindowTakeFocusEvent</text>
</a>
</g>
</g>
<!-- Node1&#45;&gt;Node17 -->
<g id="edge16" class="edge">
<title>Node1&#45;&gt;Node17</title>
<path fill="none" stroke="midnightblue" d="M123.77,-218.2C127.54,-176.66 142.28,-80.01 199,-29 203.25,-25.18 208.15,-22.1 213.37,-19.63"/>
<polygon fill="midnightblue" stroke="midnightblue" points="120.27,-218.13 122.97,-228.37 127.25,-218.68 120.27,-218.13"/>
</g>
<!-- Node2 -->
<g id="node2" class="node">
<title>Node2</title>
<g id="a_node2"><a xlink:href="../../d2/da2/classnap_1_1_event.html" target="_top" xlink:title=" ">
<polygon fill="white" stroke="black" points="0,-228.5 0,-247.5 44,-247.5 44,-228.5 0,-228.5"/>
<text text-anchor="middle" x="22" y="-235.5" font-family="Helvetica,sans-Serif" font-size="10.00">Event</text>
</a>
</g>
</g>
<!-- Node2&#45;&gt;Node1 -->
<g id="edge1" class="edge">
<title>Node2&#45;&gt;Node1</title>
<path fill="none" stroke="midnightblue" d="M54.29,-238C62.38,-238 71.22,-238 79.73,-238"/>
<polygon fill="midnightblue" stroke="midnightblue" points="54.16,-234.5 44.16,-238 54.16,-241.5 54.16,-234.5"/>
</g>
<!-- Node4 -->
<g id="node4" class="node">
<title>Node4</title>
<g id="a_node4"><a xlink:href="../../d8/d4b/classnap_1_1_window_moved_event.html" target="_top" xlink:title=" ">
<polygon fill="white" stroke="black" points="392,-475.5 392,-494.5 508,-494.5 508,-475.5 392,-475.5"/>
<text text-anchor="middle" x="450" y="-482.5" font-family="Helvetica,sans-Serif" font-size="10.00">WindowMovedEvent</text>
</a>
</g>
</g>
<!-- Node3&#45;&gt;Node4 -->
<g id="edge3" class="edge">
<title>Node3&#45;&gt;Node4</title>
<path fill="none" stroke="midnightblue" d="M363.31,-475.53C373.04,-476.61 382.76,-477.68 391.98,-478.7"/>
<polygon fill="midnightblue" stroke="midnightblue" points="363.52,-472.04 353.19,-474.42 362.75,-478.99 363.52,-472.04"/>
</g>
<!-- Node5 -->
<g id="node5" class="node">
<title>Node5</title>
<g id="a_node5"><a xlink:href="../../d7/da9/classnap_1_1_window_resized_event.html" target="_top" xlink:title=" ">
<polygon fill="white" stroke="black" points="389,-437.5 389,-456.5 511,-456.5 511,-437.5 389,-437.5"/>
<text text-anchor="middle" x="450" y="-444.5" font-family="Helvetica,sans-Serif" font-size="10.00">WindowResizedEvent</text>
</a>
</g>
</g>
<!-- Node3&#45;&gt;Node5 -->
<g id="edge4" class="edge">
<title>Node3&#45;&gt;Node5</title>
<path fill="none" stroke="midnightblue" d="M363.32,-456.47C371.96,-455.51 380.59,-454.56 388.87,-453.64"/>
<polygon fill="midnightblue" stroke="midnightblue" points="362.75,-453.01 353.19,-457.58 363.52,-459.96 362.75,-453.01"/>
</g>
</g>
</svg>
