<?xml version="1.0" encoding="UTF-8" standalone="no"?>
<!DOCTYPE svg PUBLIC "-//W3C//DTD SVG 1.1//EN"
 "http://www.w3.org/Graphics/SVG/1.1/DTD/svg11.dtd">
<!-- Generated by graphviz version 2.48.0 (20210717.1556)
 -->
<!-- Title: WindowEvent Pages: 1 -->
<svg width="480pt" height="503pt"
 viewBox="0.00 0.00 480.00 503.00" xmlns="http://www.w3.org/2000/svg" xmlns:xlink="http://www.w3.org/1999/xlink">
<g id="graph0" class="graph" transform="scale(1 1) rotate(0) translate(4 499)">
<title>WindowEvent</title>
<polygon fill="white" stroke="transparent" points="-4,4 -4,-499 476,-499 476,4 -4,4"/>
<!-- Node0 -->
<g id="node1" class="node">
<title>Node0</title>
<polygon fill="#bfbfbf" stroke="black" points="77,-228.5 77,-247.5 152,-247.5 152,-228.5 77,-228.5"/>
<text text-anchor="middle" x="114.5" y="-235.5" font-family="Helvetica,sans-Serif" font-size="10.00">WindowEvent</text>
</g>
<!-- Node2 -->
<g id="node3" class="node">
<title>Node2</title>
<g id="a_node3"><a xlink:href="../../d3/d68/classnap_1_1_parameterized_window_event.html" target="_top" xlink:title="ParameterizedWindowEvent">
<polygon fill="white" stroke="black" points="188,-456.5 188,-475.5 326,-475.5 326,-456.5 188,-456.5"/>
<text text-anchor="middle" x="257" y="-463.5" font-family="Helvetica,sans-Serif" font-size="10.00">ParameterizedWindowEvent</text>
</a>
</g>
</g>
<!-- Node0&#45;&gt;Node2 -->
<g id="edge2" class="edge">
<title>Node0&#45;&gt;Node2</title>
<path fill="none" stroke="midnightblue" d="M116.47,-257.65C119.6,-298.92 132.76,-395.05 188,-447 192.11,-450.86 196.93,-453.95 202.09,-456.42"/>
<polygon fill="midnightblue" stroke="midnightblue" points="119.96,-257.31 115.83,-247.55 112.97,-257.75 119.96,-257.31"/>
</g>
<!-- Node5 -->
<g id="node6" class="node">
<title>Node5</title>
<g id="a_node6"><a xlink:href="../../df/dc6/classnap_1_1_window_close_event.html" target="_top" xlink:title="WindowCloseEvent">
<polygon fill="white" stroke="black" points="207,-418.5 207,-437.5 307,-437.5 307,-418.5 207,-418.5"/>
<text text-anchor="middle" x="257" y="-425.5" font-family="Helvetica,sans-Serif" font-size="10.00">WindowCloseEvent</text>
</a>
</g>
</g>
<!-- Node0&#45;&gt;Node5 -->
<g id="edge5" class="edge">
<title>Node0&#45;&gt;Node5</title>
<path fill="none" stroke="midnightblue" d="M118.26,-257.95C124.26,-293.64 141.89,-368.47 188,-409 193.43,-413.77 199.97,-417.36 206.82,-420.05"/>
<polygon fill="midnightblue" stroke="midnightblue" points="121.68,-257.18 116.7,-247.83 114.76,-258.25 121.68,-257.18"/>
</g>
<!-- Node6 -->
<g id="node7" class="node">
<title>Node6</title>
<g id="a_node7"><a xlink:href="../../d7/d03/classnap_1_1_window_enter_event.html" target="_top" xlink:title="WindowEnterEvent">
<polygon fill="white" stroke="black" points="208,-380.5 208,-399.5 306,-399.5 306,-380.5 208,-380.5"/>
<text text-anchor="middle" x="257" y="-387.5" font-family="Helvetica,sans-Serif" font-size="10.00">WindowEnterEvent</text>
</a>
</g>
</g>
<!-- Node0&#45;&gt;Node6 -->
<g id="edge6" class="edge">
<title>Node0&#45;&gt;Node6</title>
<path fill="none" stroke="midnightblue" d="M120.82,-257.55C129.75,-286.68 150.59,-341.24 188,-371 193.85,-375.66 200.77,-379.17 207.93,-381.83"/>
<polygon fill="midnightblue" stroke="midnightblue" points="124.11,-256.36 117.96,-247.74 117.39,-258.32 124.11,-256.36"/>
</g>
<!-- Node7 -->
<g id="node8" class="node">
<title>Node7</title>
<g id="a_node8"><a xlink:href="../../d4/d8b/classnap_1_1_window_exposed_event.html" target="_top" xlink:title="WindowExposedEvent">
<polygon fill="white" stroke="black" points="200.5,-342.5 200.5,-361.5 313.5,-361.5 313.5,-342.5 200.5,-342.5"/>
<text text-anchor="middle" x="257" y="-349.5" font-family="Helvetica,sans-Serif" font-size="10.00">WindowExposedEvent</text>
</a>
</g>
</g>
<!-- Node0&#45;&gt;Node7 -->
<g id="edge7" class="edge">
<title>Node0&#45;&gt;Node7</title>
<path fill="none" stroke="midnightblue" d="M124.85,-256.6C136.65,-278.18 158.96,-313.31 188,-333 193.68,-336.85 200.13,-339.93 206.74,-342.38"/>
<polygon fill="midnightblue" stroke="midnightblue" points="127.94,-254.96 120.18,-247.74 121.75,-258.22 127.94,-254.96"/>
</g>
<!-- Node8 -->
<g id="node9" class="node">
<title>Node8</title>
<g id="a_node9"><a xlink:href="../../db/d67/classnap_1_1_window_focus_gained_event.html" target="_top" xlink:title="WindowFocusGainedEvent">
<polygon fill="white" stroke="black" points="190.5,-304.5 190.5,-323.5 323.5,-323.5 323.5,-304.5 190.5,-304.5"/>
<text text-anchor="middle" x="257" y="-311.5" font-family="Helvetica,sans-Serif" font-size="10.00">WindowFocusGainedEvent</text>
</a>
</g>
</g>
<!-- Node0&#45;&gt;Node8 -->
<g id="edge8" class="edge">
<title>Node0&#45;&gt;Node8</title>
<path fill="none" stroke="midnightblue" d="M132.76,-254.81C146.66,-267.5 167.23,-284.47 188,-295 195.43,-298.77 203.72,-301.88 211.87,-304.41"/>
<polygon fill="midnightblue" stroke="midnightblue" points="135.09,-252.2 125.4,-247.92 130.31,-257.31 135.09,-252.2"/>
</g>
<!-- Node9 -->
<g id="node10" class="node">
<title>Node9</title>
<g id="a_node10"><a xlink:href="../../d1/d41/classnap_1_1_window_focus_lost_event.html" target="_top" xlink:title="WindowFocusLostEvent">
<polygon fill="white" stroke="black" points="196.5,-266.5 196.5,-285.5 317.5,-285.5 317.5,-266.5 196.5,-266.5"/>
<text text-anchor="middle" x="257" y="-273.5" font-family="Helvetica,sans-Serif" font-size="10.00">WindowFocusLostEvent</text>
</a>
</g>
</g>
<!-- Node0&#45;&gt;Node9 -->
<g id="edge9" class="edge">
<title>Node0&#45;&gt;Node9</title>
<path fill="none" stroke="midnightblue" d="M160.78,-250.25C180.14,-255.48 202.42,-261.51 220.56,-266.41"/>
<polygon fill="midnightblue" stroke="midnightblue" points="161.52,-246.82 150.95,-247.59 159.69,-253.58 161.52,-246.82"/>
</g>
<!-- Node10 -->
<g id="node11" class="node">
<title>Node10</title>
<g id="a_node11"><a xlink:href="../../dc/d3b/classnap_1_1_window_hidden_event.html" target="_top" xlink:title="WindowHiddenEvent">
<polygon fill="white" stroke="black" points="204.5,-228.5 204.5,-247.5 309.5,-247.5 309.5,-228.5 204.5,-228.5"/>
<text text-anchor="middle" x="257" y="-235.5" font-family="Helvetica,sans-Serif" font-size="10.00">WindowHiddenEvent</text>
</a>
</g>
</g>
<!-- Node0&#45;&gt;Node10 -->
<g id="edge10" class="edge">
<title>Node0&#45;&gt;Node10</title>
<path fill="none" stroke="midnightblue" d="M162.1,-238C175.62,-238 190.48,-238 204.3,-238"/>
<polygon fill="midnightblue" stroke="midnightblue" points="162.05,-234.5 152.05,-238 162.05,-241.5 162.05,-234.5"/>
</g>
<!-- Node11 -->
<g id="node12" class="node">
<title>Node11</title>
<g id="a_node12"><a xlink:href="../../da/d55/classnap_1_1_window_leave_event.html" target="_top" xlink:title="WindowLeaveEvent">
<polygon fill="white" stroke="black" points="207,-190.5 207,-209.5 307,-209.5 307,-190.5 207,-190.5"/>
<text text-anchor="middle" x="257" y="-197.5" font-family="Helvetica,sans-Serif" font-size="10.00">WindowLeaveEvent</text>
</a>
</g>
</g>
<!-- Node0&#45;&gt;Node11 -->
<g id="edge11" class="edge">
<title>Node0&#45;&gt;Node11</title>
<path fill="none" stroke="midnightblue" d="M160.78,-225.75C180.14,-220.52 202.42,-214.49 220.56,-209.59"/>
<polygon fill="midnightblue" stroke="midnightblue" points="159.69,-222.42 150.95,-228.41 161.52,-229.18 159.69,-222.42"/>
</g>
<!-- Node12 -->
<g id="node13" class="node">
<title>Node12</title>
<g id="a_node13"><a xlink:href="../../d7/d6a/classnap_1_1_window_maximized_event.html" target="_top" xlink:title="WindowMaximizedEvent">
<polygon fill="white" stroke="black" points="196,-152.5 196,-171.5 318,-171.5 318,-152.5 196,-152.5"/>
<text text-anchor="middle" x="257" y="-159.5" font-family="Helvetica,sans-Serif" font-size="10.00">WindowMaximizedEvent</text>
</a>
</g>
</g>
<!-- Node0&#45;&gt;Node12 -->
<g id="edge12" class="edge">
<title>Node0&#45;&gt;Node12</title>
<path fill="none" stroke="midnightblue" d="M132.76,-221.19C146.66,-208.5 167.23,-191.53 188,-181 195.43,-177.23 203.72,-174.12 211.87,-171.59"/>
<polygon fill="midnightblue" stroke="midnightblue" points="130.31,-218.69 125.4,-228.08 135.09,-223.8 130.31,-218.69"/>
</g>
<!-- Node13 -->
<g id="node14" class="node">
<title>Node13</title>
<g id="a_node14"><a xlink:href="../../d0/db2/classnap_1_1_window_minimized_event.html" target="_top" xlink:title="WindowMinimizedEvent">
<polygon fill="white" stroke="black" points="197.5,-114.5 197.5,-133.5 316.5,-133.5 316.5,-114.5 197.5,-114.5"/>
<text text-anchor="middle" x="257" y="-121.5" font-family="Helvetica,sans-Serif" font-size="10.00">WindowMinimizedEvent</text>
</a>
</g>
</g>
<!-- Node0&#45;&gt;Node13 -->
<g id="edge13" class="edge">
<title>Node0&#45;&gt;Node13</title>
<path fill="none" stroke="midnightblue" d="M124.85,-219.4C136.65,-197.82 158.96,-162.69 188,-143 193.68,-139.15 200.13,-136.07 206.74,-133.62"/>
<polygon fill="midnightblue" stroke="midnightblue" points="121.75,-217.78 120.18,-228.26 127.94,-221.04 121.75,-217.78"/>
</g>
<!-- Node14 -->
<g id="node15" class="node">
<title>Node14</title>
<g id="a_node15"><a xlink:href="../../d3/d8c/classnap_1_1_window_restored_event.html" target="_top" xlink:title="WindowRestoredEvent">
<polygon fill="white" stroke="black" points="200,-76.5 200,-95.5 314,-95.5 314,-76.5 200,-76.5"/>
<text text-anchor="middle" x="257" y="-83.5" font-family="Helvetica,sans-Serif" font-size="10.00">WindowRestoredEvent</text>
</a>
</g>
</g>
<!-- Node0&#45;&gt;Node14 -->
<g id="edge14" class="edge">
<title>Node0&#45;&gt;Node14</title>
<path fill="none" stroke="midnightblue" d="M120.82,-218.45C129.75,-189.32 150.59,-134.76 188,-105 192.89,-101.11 198.53,-98.01 204.43,-95.55"/>
<polygon fill="midnightblue" stroke="midnightblue" points="117.39,-217.68 117.96,-228.26 124.11,-219.64 117.39,-217.68"/>
</g>
<!-- Node15 -->
<g id="node16" class="node">
<title>Node15</title>
<g id="a_node16"><a xlink:href="../../dd/d16/classnap_1_1_window_shown_event.html" target="_top" xlink:title="WindowShownEvent">
<polygon fill="white" stroke="black" points="205,-38.5 205,-57.5 309,-57.5 309,-38.5 205,-38.5"/>
<text text-anchor="middle" x="257" y="-45.5" font-family="Helvetica,sans-Serif" font-size="10.00">WindowShownEvent</text>
</a>
</g>
</g>
<!-- Node0&#45;&gt;Node15 -->
<g id="edge15" class="edge">
<title>Node0&#45;&gt;Node15</title>
<path fill="none" stroke="midnightblue" d="M118.26,-218.05C124.26,-182.36 141.89,-107.53 188,-67 192.88,-62.71 198.65,-59.38 204.74,-56.8"/>
<polygon fill="midnightblue" stroke="midnightblue" points="114.76,-217.75 116.7,-228.17 121.68,-218.82 114.76,-217.75"/>
</g>
<!-- Node16 -->
<g id="node17" class="node">
<title>Node16</title>
<g id="a_node17"><a xlink:href="../../db/d02/classnap_1_1_window_take_focus_event.html" target="_top" xlink:title="WindowTakeFocusEvent">
<polygon fill="white" stroke="black" points="195.5,-0.5 195.5,-19.5 318.5,-19.5 318.5,-0.5 195.5,-0.5"/>
<text text-anchor="middle" x="257" y="-7.5" font-family="Helvetica,sans-Serif" font-size="10.00">WindowTakeFocusEvent</text>
</a>
</g>
</g>
<!-- Node0&#45;&gt;Node16 -->
<g id="edge16" class="edge">
<title>Node0&#45;&gt;Node16</title>
<path fill="none" stroke="midnightblue" d="M116.47,-218.35C119.6,-177.08 132.76,-80.95 188,-29 192.11,-25.14 196.93,-22.05 202.09,-19.58"/>
<polygon fill="midnightblue" stroke="midnightblue" points="112.97,-218.25 115.83,-228.45 119.96,-218.69 112.97,-218.25"/>
</g>
<!-- Node1 -->
<g id="node2" class="node">
<title>Node1</title>
<g id="a_node2"><a xlink:href="../../d2/da2/classnap_1_1_event.html" target="_top" xlink:title="Event">
<polygon fill="white" stroke="black" points="0,-228.5 0,-247.5 41,-247.5 41,-228.5 0,-228.5"/>
<text text-anchor="middle" x="20.5" y="-235.5" font-family="Helvetica,sans-Serif" font-size="10.00">Event</text>
</a>
</g>
</g>
<!-- Node1&#45;&gt;Node0 -->
<g id="edge1" class="edge">
<title>Node1&#45;&gt;Node0</title>
<path fill="none" stroke="midnightblue" d="M51.22,-238C59.42,-238 68.4,-238 76.93,-238"/>
<polygon fill="midnightblue" stroke="midnightblue" points="51.01,-234.5 41.01,-238 51.01,-241.5 51.01,-234.5"/>
</g>
<!-- Node3 -->
<g id="node4" class="node">
<title>Node3</title>
<g id="a_node4"><a xlink:href="../../d8/d4b/classnap_1_1_window_moved_event.html" target="_top" xlink:title="WindowMovedEvent">
<polygon fill="white" stroke="black" points="365.5,-475.5 365.5,-494.5 468.5,-494.5 468.5,-475.5 365.5,-475.5"/>
<text text-anchor="middle" x="417" y="-482.5" font-family="Helvetica,sans-Serif" font-size="10.00">WindowMovedEvent</text>
</a>
</g>
</g>
<!-- Node2&#45;&gt;Node3 -->
<g id="edge3" class="edge">
<title>Node2&#45;&gt;Node3</title>
<path fill="none" stroke="midnightblue" d="M336.5,-475.44C346.23,-476.61 355.98,-477.78 365.14,-478.88"/>
<polygon fill="midnightblue" stroke="midnightblue" points="336.73,-471.94 326.38,-474.22 335.89,-478.89 336.73,-471.94"/>
</g>
<!-- Node4 -->
<g id="node5" class="node">
<title>Node4</title>
<g id="a_node5"><a xlink:href="../../d7/da9/classnap_1_1_window_resized_event.html" target="_top" xlink:title="WindowResizedEvent">
<polygon fill="white" stroke="black" points="362,-437.5 362,-456.5 472,-456.5 472,-437.5 362,-437.5"/>
<text text-anchor="middle" x="417" y="-444.5" font-family="Helvetica,sans-Serif" font-size="10.00">WindowResizedEvent</text>
</a>
</g>
</g>
<!-- Node2&#45;&gt;Node4 -->
<g id="edge4" class="edge">
<title>Node2&#45;&gt;Node4</title>
<path fill="none" stroke="midnightblue" d="M336.43,-456.57C345.01,-455.54 353.6,-454.5 361.79,-453.52"/>
<polygon fill="midnightblue" stroke="midnightblue" points="335.89,-453.11 326.38,-457.78 336.73,-460.06 335.89,-453.11"/>
</g>
</g>
</svg>
