<?xml version="1.0" encoding="UTF-8" standalone="no"?>
<!DOCTYPE svg PUBLIC "-//W3C//DTD SVG 1.1//EN"
 "http://www.w3.org/Graphics/SVG/1.1/DTD/svg11.dtd">
<!-- Generated by graphviz version 2.48.0 (20210717.1556)
 -->
<!-- Title: Component Pages: 1 -->
<svg width="791pt" height="978pt"
 viewBox="0.00 0.00 791.00 978.00" xmlns="http://www.w3.org/2000/svg" xmlns:xlink="http://www.w3.org/1999/xlink">
<g id="graph0" class="graph" transform="scale(1 1) rotate(0) translate(4 974)">
<title>Component</title>
<polygon fill="white" stroke="transparent" points="-4,4 -4,-974 787,-974 787,4 -4,4"/>
<!-- Node0 -->
<g id="node1" class="node">
<title>Node0</title>
<polygon fill="#bfbfbf" stroke="black" points="175,-475.5 175,-494.5 241,-494.5 241,-475.5 175,-475.5"/>
<text text-anchor="middle" x="208" y="-482.5" font-family="Helvetica,sans-Serif" font-size="10.00">Component</text>
</g>
<!-- Node3 -->
<g id="node4" class="node">
<title>Node3</title>
<g id="a_node4"><a xlink:href="../../da/d42/classnap_1_1_a_p_i_component.html" target="_top" xlink:title="APIComponent">
<polygon fill="white" stroke="black" points="309,-950.5 309,-969.5 391,-969.5 391,-950.5 309,-950.5"/>
<text text-anchor="middle" x="350" y="-957.5" font-family="Helvetica,sans-Serif" font-size="10.00">APIComponent</text>
</a>
</g>
</g>
<!-- Node0&#45;&gt;Node3 -->
<g id="edge3" class="edge">
<title>Node0&#45;&gt;Node3</title>
<path fill="none" stroke="midnightblue" d="M209.16,-504.92C210.21,-584.08 218.08,-875.22 277,-941 285.11,-950.05 296.97,-955.02 308.73,-957.68"/>
<polygon fill="midnightblue" stroke="midnightblue" points="212.66,-504.79 209.05,-494.83 205.66,-504.87 212.66,-504.79"/>
</g>
<!-- Node4 -->
<g id="node5" class="node">
<title>Node4</title>
<g id="a_node5"><a xlink:href="../../d4/dc5/classnap_1_1_art_net_input_component.html" target="_top" xlink:title="ArtNetInputComponent">
<polygon fill="white" stroke="black" points="292.5,-912.5 292.5,-931.5 407.5,-931.5 407.5,-912.5 292.5,-912.5"/>
<text text-anchor="middle" x="350" y="-919.5" font-family="Helvetica,sans-Serif" font-size="10.00">ArtNetInputComponent</text>
</a>
</g>
</g>
<!-- Node0&#45;&gt;Node4 -->
<g id="edge4" class="edge">
<title>Node0&#45;&gt;Node4</title>
<path fill="none" stroke="midnightblue" d="M209.47,-505.15C211.62,-580.36 222.94,-843.44 277,-903 281.26,-907.69 286.52,-911.28 292.25,-914.02"/>
<polygon fill="midnightblue" stroke="midnightblue" points="212.95,-504.65 209.19,-494.75 205.96,-504.84 212.95,-504.65"/>
</g>
<!-- Node5 -->
<g id="node6" class="node">
<title>Node5</title>
<g id="a_node6"><a xlink:href="../../d5/dcb/classnap_1_1audio_1_1_audio_component_base.html" target="_top" xlink:title="AudioComponentBase">
<polygon fill="white" stroke="black" points="293.5,-874.5 293.5,-893.5 406.5,-893.5 406.5,-874.5 293.5,-874.5"/>
<text text-anchor="middle" x="350" y="-881.5" font-family="Helvetica,sans-Serif" font-size="10.00">AudioComponentBase</text>
</a>
</g>
</g>
<!-- Node0&#45;&gt;Node5 -->
<g id="edge5" class="edge">
<title>Node0&#45;&gt;Node5</title>
<path fill="none" stroke="midnightblue" d="M209.8,-504.66C213.07,-574.81 227.61,-811.45 277,-865 281.56,-869.94 287.23,-873.66 293.39,-876.45"/>
<polygon fill="midnightblue" stroke="midnightblue" points="213.29,-504.39 209.36,-494.56 206.3,-504.7 213.29,-504.39"/>
</g>
<!-- Node10 -->
<g id="node11" class="node">
<title>Node10</title>
<g id="a_node11"><a xlink:href="../../d7/db8/classnap_1_1audio_1_1_level_meter_component.html" target="_top" xlink:title="LevelMeterComponent">
<polygon fill="white" stroke="black" points="293.5,-836.5 293.5,-855.5 406.5,-855.5 406.5,-836.5 293.5,-836.5"/>
<text text-anchor="middle" x="350" y="-843.5" font-family="Helvetica,sans-Serif" font-size="10.00">LevelMeterComponent</text>
</a>
</g>
</g>
<!-- Node0&#45;&gt;Node10 -->
<g id="edge10" class="edge">
<title>Node0&#45;&gt;Node10</title>
<path fill="none" stroke="midnightblue" d="M210.24,-504.78C214.75,-570.42 232.41,-779.57 277,-827 281.6,-831.9 287.31,-835.59 293.48,-838.36"/>
<polygon fill="midnightblue" stroke="midnightblue" points="213.72,-504.32 209.57,-494.57 206.73,-504.78 213.72,-504.32"/>
</g>
<!-- Node11 -->
<g id="node12" class="node">
<title>Node11</title>
<g id="a_node12"><a xlink:href="../../df/d82/classnap_1_1audio_1_1_output_component.html" target="_top" xlink:title="OutputComponent">
<polygon fill="white" stroke="black" points="302.5,-798.5 302.5,-817.5 397.5,-817.5 397.5,-798.5 302.5,-798.5"/>
<text text-anchor="middle" x="350" y="-805.5" font-family="Helvetica,sans-Serif" font-size="10.00">OutputComponent</text>
</a>
</g>
</g>
<!-- Node0&#45;&gt;Node11 -->
<g id="edge11" class="edge">
<title>Node0&#45;&gt;Node11</title>
<path fill="none" stroke="midnightblue" d="M210.79,-504.92C216.64,-565.78 237.18,-747.64 277,-789 283.81,-796.08 292.93,-800.63 302.38,-803.53"/>
<polygon fill="midnightblue" stroke="midnightblue" points="214.25,-504.36 209.84,-494.73 207.28,-505.01 214.25,-504.36"/>
</g>
<!-- Node12 -->
<g id="node13" class="node">
<title>Node12</title>
<g id="a_node13"><a xlink:href="../../df/d2e/classnap_1_1_calendar_component.html" target="_top" xlink:title="CalendarComponent">
<polygon fill="white" stroke="black" points="298,-760.5 298,-779.5 402,-779.5 402,-760.5 298,-760.5"/>
<text text-anchor="middle" x="350" y="-767.5" font-family="Helvetica,sans-Serif" font-size="10.00">CalendarComponent</text>
</a>
</g>
</g>
<!-- Node0&#45;&gt;Node12 -->
<g id="edge12" class="edge">
<title>Node0&#45;&gt;Node12</title>
<path fill="none" stroke="midnightblue" d="M211.43,-504.58C218.67,-559.89 241.82,-715.55 277,-751 282.74,-756.78 290.01,-760.87 297.72,-763.74"/>
<polygon fill="midnightblue" stroke="midnightblue" points="214.9,-504.13 210.16,-494.65 207.96,-505.02 214.9,-504.13"/>
</g>
<!-- Node13 -->
<g id="node14" class="node">
<title>Node13</title>
<g id="a_node14"><a xlink:href="../../d4/dac/classnap_1_1_camera_controller.html" target="_top" xlink:title="CameraController">
<polygon fill="white" stroke="black" points="304,-722.5 304,-741.5 396,-741.5 396,-722.5 304,-722.5"/>
<text text-anchor="middle" x="350" y="-729.5" font-family="Helvetica,sans-Serif" font-size="10.00">CameraController</text>
</a>
</g>
</g>
<!-- Node0&#45;&gt;Node13 -->
<g id="edge13" class="edge">
<title>Node0&#45;&gt;Node13</title>
<path fill="none" stroke="midnightblue" d="M208.82,-504.96C209.57,-549.1 217.77,-655.63 277,-713 284.34,-720.11 294,-724.64 303.86,-727.5"/>
<polygon fill="midnightblue" stroke="midnightblue" points="212.32,-504.9 208.77,-494.92 205.32,-504.94 212.32,-504.9"/>
</g>
<!-- Node14 -->
<g id="node15" class="node">
<title>Node14</title>
<g id="a_node15"><a xlink:href="../../dd/d8e/classnap_1_1_compute_component.html" target="_top" xlink:title="ComputeComponent">
<polygon fill="white" stroke="black" points="297.5,-684.5 297.5,-703.5 402.5,-703.5 402.5,-684.5 297.5,-684.5"/>
<text text-anchor="middle" x="350" y="-691.5" font-family="Helvetica,sans-Serif" font-size="10.00">ComputeComponent</text>
</a>
</g>
</g>
<!-- Node0&#45;&gt;Node14 -->
<g id="edge14" class="edge">
<title>Node0&#45;&gt;Node14</title>
<path fill="none" stroke="midnightblue" d="M210.23,-504.99C213.7,-543.68 226.94,-629.06 277,-675 282.81,-680.33 289.94,-684.2 297.43,-687"/>
<polygon fill="midnightblue" stroke="midnightblue" points="213.68,-504.27 209.43,-494.57 206.7,-504.81 213.68,-504.27"/>
</g>
<!-- Node15 -->
<g id="node16" class="node">
<title>Node15</title>
<g id="a_node16"><a xlink:href="../../d6/d2c/classnap_1_1_c_v_capture_component.html" target="_top" xlink:title="CVCaptureComponent">
<polygon fill="white" stroke="black" points="293.5,-646.5 293.5,-665.5 406.5,-665.5 406.5,-646.5 293.5,-646.5"/>
<text text-anchor="middle" x="350" y="-653.5" font-family="Helvetica,sans-Serif" font-size="10.00">CVCaptureComponent</text>
</a>
</g>
</g>
<!-- Node0&#45;&gt;Node15 -->
<g id="edge15" class="edge">
<title>Node0&#45;&gt;Node15</title>
<path fill="none" stroke="midnightblue" d="M212.18,-504.57C218.51,-537.06 235.8,-602.01 277,-637 281.83,-641.1 287.45,-644.33 293.37,-646.87"/>
<polygon fill="midnightblue" stroke="midnightblue" points="215.59,-503.76 210.38,-494.53 208.7,-505 215.59,-503.76"/>
</g>
<!-- Node16 -->
<g id="node17" class="node">
<title>Node16</title>
<g id="a_node17"><a xlink:href="../../de/d67/classnap_1_1_c_v_classify_component.html" target="_top" xlink:title="CVClassifyComponent">
<polygon fill="white" stroke="black" points="293,-608.5 293,-627.5 407,-627.5 407,-608.5 293,-608.5"/>
<text text-anchor="middle" x="350" y="-615.5" font-family="Helvetica,sans-Serif" font-size="10.00">CVClassifyComponent</text>
</a>
</g>
</g>
<!-- Node0&#45;&gt;Node16 -->
<g id="edge16" class="edge">
<title>Node0&#45;&gt;Node16</title>
<path fill="none" stroke="midnightblue" d="M215.3,-504.35C224.64,-529.93 244.62,-574.62 277,-599 282.16,-602.89 288.06,-605.98 294.2,-608.45"/>
<polygon fill="midnightblue" stroke="midnightblue" points="218.53,-502.97 211.94,-494.67 211.91,-505.26 218.53,-502.97"/>
</g>
<!-- Node17 -->
<g id="node18" class="node">
<title>Node17</title>
<g id="a_node18"><a xlink:href="../../dd/d73/classnap_1_1_default_input_router_component.html" target="_top" xlink:title="DefaultInputRouterComponent">
<polygon fill="white" stroke="black" points="277,-570.5 277,-589.5 423,-589.5 423,-570.5 277,-570.5"/>
<text text-anchor="middle" x="350" y="-577.5" font-family="Helvetica,sans-Serif" font-size="10.00">DefaultInputRouterComponent</text>
</a>
</g>
</g>
<!-- Node0&#45;&gt;Node17 -->
<g id="edge17" class="edge">
<title>Node0&#45;&gt;Node17</title>
<path fill="none" stroke="midnightblue" d="M220.63,-503.26C232.67,-520.66 253.05,-546.33 277,-561 283.28,-564.85 290.34,-567.92 297.51,-570.38"/>
<polygon fill="midnightblue" stroke="midnightblue" points="223.3,-500.94 214.84,-494.56 217.47,-504.82 223.3,-500.94"/>
</g>
<!-- Node18 -->
<g id="node19" class="node">
<title>Node18</title>
<g id="a_node19"><a xlink:href="../../da/d47/classnap_1_1_first_person_controller.html" target="_top" xlink:title="FirstPersonController">
<polygon fill="white" stroke="black" points="296,-532.5 296,-551.5 404,-551.5 404,-532.5 296,-532.5"/>
<text text-anchor="middle" x="350" y="-539.5" font-family="Helvetica,sans-Serif" font-size="10.00">FirstPersonController</text>
</a>
</g>
</g>
<!-- Node0&#45;&gt;Node18 -->
<g id="edge18" class="edge">
<title>Node0&#45;&gt;Node18</title>
<path fill="none" stroke="midnightblue" d="M232.22,-499.9C245.03,-507.62 261.46,-516.72 277,-523 286.11,-526.68 296.16,-529.85 305.78,-532.49"/>
<polygon fill="midnightblue" stroke="midnightblue" points="233.93,-496.85 223.59,-494.58 230.26,-502.8 233.93,-496.85"/>
</g>
<!-- Node19 -->
<g id="node20" class="node">
<title>Node19</title>
<g id="a_node20"><a xlink:href="../../de/d9a/classnap_1_1_input_component.html" target="_top" xlink:title="InputComponent">
<polygon fill="white" stroke="black" points="306.5,-494.5 306.5,-513.5 393.5,-513.5 393.5,-494.5 306.5,-494.5"/>
<text text-anchor="middle" x="350" y="-501.5" font-family="Helvetica,sans-Serif" font-size="10.00">InputComponent</text>
</a>
</g>
</g>
<!-- Node0&#45;&gt;Node19 -->
<g id="edge19" class="edge">
<title>Node0&#45;&gt;Node19</title>
<path fill="none" stroke="midnightblue" d="M251.06,-490.71C268.56,-493.08 288.85,-495.84 306.41,-498.22"/>
<polygon fill="midnightblue" stroke="midnightblue" points="251.5,-487.24 241.12,-489.36 250.56,-494.17 251.5,-487.24"/>
</g>
<!-- Node23 -->
<g id="node24" class="node">
<title>Node23</title>
<g id="a_node24"><a xlink:href="../../d9/d65/classnap_1_1_midi_input_component.html" target="_top" xlink:title="MidiInputComponent">
<polygon fill="white" stroke="black" points="297.5,-456.5 297.5,-475.5 402.5,-475.5 402.5,-456.5 297.5,-456.5"/>
<text text-anchor="middle" x="350" y="-463.5" font-family="Helvetica,sans-Serif" font-size="10.00">MidiInputComponent</text>
</a>
</g>
</g>
<!-- Node0&#45;&gt;Node23 -->
<g id="edge23" class="edge">
<title>Node0&#45;&gt;Node23</title>
<path fill="none" stroke="midnightblue" d="M251.29,-479.26C265.77,-477.3 282.14,-475.07 297.28,-473.02"/>
<polygon fill="midnightblue" stroke="midnightblue" points="250.56,-475.83 241.12,-480.64 251.5,-482.76 250.56,-475.83"/>
</g>
<!-- Node24 -->
<g id="node25" class="node">
<title>Node24</title>
<g id="a_node25"><a xlink:href="../../d3/d93/classnap_1_1_orbit_controller.html" target="_top" xlink:title="OrbitController">
<polygon fill="white" stroke="black" points="310.5,-418.5 310.5,-437.5 389.5,-437.5 389.5,-418.5 310.5,-418.5"/>
<text text-anchor="middle" x="350" y="-425.5" font-family="Helvetica,sans-Serif" font-size="10.00">OrbitController</text>
</a>
</g>
</g>
<!-- Node0&#45;&gt;Node24 -->
<g id="edge24" class="edge">
<title>Node0&#45;&gt;Node24</title>
<path fill="none" stroke="midnightblue" d="M232.22,-470.1C245.03,-462.38 261.46,-453.28 277,-447 287.55,-442.74 299.35,-439.16 310.3,-436.3"/>
<polygon fill="midnightblue" stroke="midnightblue" points="230.26,-467.2 223.59,-475.42 233.93,-473.15 230.26,-467.2"/>
</g>
<!-- Node25 -->
<g id="node26" class="node">
<title>Node25</title>
<g id="a_node26"><a xlink:href="../../de/dac/classnap_1_1_ortho_camera_component.html" target="_top" xlink:title="OrthoCameraComponent">
<polygon fill="white" stroke="black" points="288,-380.5 288,-399.5 412,-399.5 412,-380.5 288,-380.5"/>
<text text-anchor="middle" x="350" y="-387.5" font-family="Helvetica,sans-Serif" font-size="10.00">OrthoCameraComponent</text>
</a>
</g>
</g>
<!-- Node0&#45;&gt;Node25 -->
<g id="edge25" class="edge">
<title>Node0&#45;&gt;Node25</title>
<path fill="none" stroke="midnightblue" d="M220.63,-466.74C232.67,-449.34 253.05,-423.67 277,-409 283.28,-405.15 290.34,-402.08 297.51,-399.62"/>
<polygon fill="midnightblue" stroke="midnightblue" points="217.47,-465.18 214.84,-475.44 223.3,-469.06 217.47,-465.18"/>
</g>
<!-- Node26 -->
<g id="node27" class="node">
<title>Node26</title>
<g id="a_node27"><a xlink:href="../../d9/d75/classnap_1_1_ortho_controller.html" target="_top" xlink:title="OrthoController">
<polygon fill="white" stroke="black" points="309,-342.5 309,-361.5 391,-361.5 391,-342.5 309,-342.5"/>
<text text-anchor="middle" x="350" y="-349.5" font-family="Helvetica,sans-Serif" font-size="10.00">OrthoController</text>
</a>
</g>
</g>
<!-- Node0&#45;&gt;Node26 -->
<g id="edge26" class="edge">
<title>Node0&#45;&gt;Node26</title>
<path fill="none" stroke="midnightblue" d="M215.3,-465.65C224.64,-440.07 244.62,-395.38 277,-371 286.19,-364.08 297.69,-359.67 308.79,-356.87"/>
<polygon fill="midnightblue" stroke="midnightblue" points="211.91,-464.74 211.94,-475.33 218.53,-467.03 211.91,-464.74"/>
</g>
<!-- Node27 -->
<g id="node28" class="node">
<title>Node27</title>
<g id="a_node28"><a xlink:href="../../d4/df7/classnap_1_1_o_s_c_input_component.html" target="_top" xlink:title="OSCInputComponent">
<polygon fill="white" stroke="black" points="296,-304.5 296,-323.5 404,-323.5 404,-304.5 296,-304.5"/>
<text text-anchor="middle" x="350" y="-311.5" font-family="Helvetica,sans-Serif" font-size="10.00">OSCInputComponent</text>
</a>
</g>
</g>
<!-- Node0&#45;&gt;Node27 -->
<g id="edge27" class="edge">
<title>Node0&#45;&gt;Node27</title>
<path fill="none" stroke="midnightblue" d="M212.18,-465.43C218.51,-432.94 235.8,-367.99 277,-333 282.52,-328.31 289.07,-324.77 295.93,-322.09"/>
<polygon fill="midnightblue" stroke="midnightblue" points="208.7,-465 210.38,-475.47 215.59,-466.24 208.7,-465"/>
</g>
<!-- Node28 -->
<g id="node29" class="node">
<title>Node28</title>
<g id="a_node29"><a xlink:href="../../de/de6/classnap_1_1_parameter_blend_component.html" target="_top" xlink:title="ParameterBlendComponent">
<polygon fill="white" stroke="black" points="282,-266.5 282,-285.5 418,-285.5 418,-266.5 282,-266.5"/>
<text text-anchor="middle" x="350" y="-273.5" font-family="Helvetica,sans-Serif" font-size="10.00">ParameterBlendComponent</text>
</a>
</g>
</g>
<!-- Node0&#45;&gt;Node28 -->
<g id="edge28" class="edge">
<title>Node0&#45;&gt;Node28</title>
<path fill="none" stroke="midnightblue" d="M210.23,-465.01C213.7,-426.32 226.94,-340.94 277,-295 281.19,-291.15 286.07,-288.07 291.27,-285.6"/>
<polygon fill="midnightblue" stroke="midnightblue" points="206.7,-465.19 209.43,-475.43 213.68,-465.73 206.7,-465.19"/>
</g>
<!-- Node29 -->
<g id="node30" class="node">
<title>Node29</title>
<g id="a_node30"><a xlink:href="../../d6/d3d/classnap_1_1_persp_camera_component.html" target="_top" xlink:title="PerspCameraComponent">
<polygon fill="white" stroke="black" points="287.5,-228.5 287.5,-247.5 412.5,-247.5 412.5,-228.5 287.5,-228.5"/>
<text text-anchor="middle" x="350" y="-235.5" font-family="Helvetica,sans-Serif" font-size="10.00">PerspCameraComponent</text>
</a>
</g>
</g>
<!-- Node0&#45;&gt;Node29 -->
<g id="edge29" class="edge">
<title>Node0&#45;&gt;Node29</title>
<path fill="none" stroke="midnightblue" d="M208.82,-465.04C209.57,-420.9 217.77,-314.37 277,-257 280.99,-253.13 285.68,-250.03 290.7,-247.54"/>
<polygon fill="midnightblue" stroke="midnightblue" points="205.32,-465.06 208.77,-475.08 212.32,-465.1 205.32,-465.06"/>
</g>
<!-- Node30 -->
<g id="node31" class="node">
<title>Node30</title>
<g id="a_node31"><a xlink:href="../../de/d63/classnap_1_1_portal_component.html" target="_top" xlink:title="PortalComponent">
<polygon fill="white" stroke="black" points="304,-190.5 304,-209.5 396,-209.5 396,-190.5 304,-190.5"/>
<text text-anchor="middle" x="350" y="-197.5" font-family="Helvetica,sans-Serif" font-size="10.00">PortalComponent</text>
</a>
</g>
</g>
<!-- Node0&#45;&gt;Node30 -->
<g id="edge30" class="edge">
<title>Node0&#45;&gt;Node30</title>
<path fill="none" stroke="midnightblue" d="M211.43,-465.42C218.67,-410.11 241.82,-254.45 277,-219 284.19,-211.75 293.8,-207.17 303.65,-204.29"/>
<polygon fill="midnightblue" stroke="midnightblue" points="207.96,-464.98 210.16,-475.35 214.9,-465.87 207.96,-464.98"/>
</g>
<!-- Node31 -->
<g id="node32" class="node">
<title>Node31</title>
<g id="a_node32"><a xlink:href="../../d0/d2b/classnap_1_1_python_script_component.html" target="_top" xlink:title="PythonScriptComponent">
<polygon fill="white" stroke="black" points="289,-152.5 289,-171.5 411,-171.5 411,-152.5 289,-152.5"/>
<text text-anchor="middle" x="350" y="-159.5" font-family="Helvetica,sans-Serif" font-size="10.00">PythonScriptComponent</text>
</a>
</g>
</g>
<!-- Node0&#45;&gt;Node31 -->
<g id="edge31" class="edge">
<title>Node0&#45;&gt;Node31</title>
<path fill="none" stroke="midnightblue" d="M210.79,-465.08C216.64,-404.22 237.18,-222.36 277,-181 280.68,-177.18 285.02,-174.1 289.73,-171.61"/>
<polygon fill="midnightblue" stroke="midnightblue" points="207.28,-464.99 209.84,-475.27 214.25,-465.64 207.28,-464.99"/>
</g>
<!-- Node32 -->
<g id="node33" class="node">
<title>Node32</title>
<g id="a_node33"><a xlink:href="../../d1/d2c/classnap_1_1_renderable_component.html" target="_top" xlink:title="RenderableComponent">
<polygon fill="white" stroke="black" points="292.5,-114.5 292.5,-133.5 407.5,-133.5 407.5,-114.5 292.5,-114.5"/>
<text text-anchor="middle" x="350" y="-121.5" font-family="Helvetica,sans-Serif" font-size="10.00">RenderableComponent</text>
</a>
</g>
</g>
<!-- Node0&#45;&gt;Node32 -->
<g id="edge32" class="edge">
<title>Node0&#45;&gt;Node32</title>
<path fill="none" stroke="midnightblue" d="M210.24,-465.22C214.75,-399.58 232.41,-190.43 277,-143 281.34,-138.38 286.65,-134.84 292.41,-132.13"/>
<polygon fill="midnightblue" stroke="midnightblue" points="206.73,-465.22 209.57,-475.43 213.72,-465.68 206.73,-465.22"/>
</g>
<!-- Node41 -->
<g id="node42" class="node">
<title>Node41</title>
<g id="a_node42"><a xlink:href="../../d1/de7/classnap_1_1_rotate_component.html" target="_top" xlink:title="RotateComponent">
<polygon fill="white" stroke="black" points="302.5,-76.5 302.5,-95.5 397.5,-95.5 397.5,-76.5 302.5,-76.5"/>
<text text-anchor="middle" x="350" y="-83.5" font-family="Helvetica,sans-Serif" font-size="10.00">RotateComponent</text>
</a>
</g>
</g>
<!-- Node0&#45;&gt;Node41 -->
<g id="edge41" class="edge">
<title>Node0&#45;&gt;Node41</title>
<path fill="none" stroke="midnightblue" d="M209.8,-465.34C213.07,-395.19 227.61,-158.55 277,-105 283.66,-97.78 292.71,-93.17 302.15,-90.26"/>
<polygon fill="midnightblue" stroke="midnightblue" points="206.3,-465.3 209.36,-475.44 213.29,-465.61 206.3,-465.3"/>
</g>
<!-- Node42 -->
<g id="node43" class="node">
<title>Node42</title>
<g id="a_node43"><a xlink:href="../../de/d34/classnap_1_1_transform_component.html" target="_top" xlink:title="TransformComponent">
<polygon fill="white" stroke="black" points="295.5,-38.5 295.5,-57.5 404.5,-57.5 404.5,-38.5 295.5,-38.5"/>
<text text-anchor="middle" x="350" y="-45.5" font-family="Helvetica,sans-Serif" font-size="10.00">TransformComponent</text>
</a>
</g>
</g>
<!-- Node0&#45;&gt;Node42 -->
<g id="edge42" class="edge">
<title>Node0&#45;&gt;Node42</title>
<path fill="none" stroke="midnightblue" d="M209.47,-464.85C211.62,-389.64 222.94,-126.56 277,-67 282.04,-61.45 288.49,-57.44 295.46,-54.55"/>
<polygon fill="midnightblue" stroke="midnightblue" points="205.96,-465.16 209.19,-475.25 212.95,-465.35 205.96,-465.16"/>
</g>
<!-- Node43 -->
<g id="node44" class="node">
<title>Node43</title>
<g id="a_node44"><a xlink:href="../../d7/d5b/classnap_1_1_web_socket_component.html" target="_top" xlink:title="WebSocketComponent">
<polygon fill="white" stroke="black" points="291.5,-0.5 291.5,-19.5 408.5,-19.5 408.5,-0.5 291.5,-0.5"/>
<text text-anchor="middle" x="350" y="-7.5" font-family="Helvetica,sans-Serif" font-size="10.00">WebSocketComponent</text>
</a>
</g>
</g>
<!-- Node0&#45;&gt;Node43 -->
<g id="edge43" class="edge">
<title>Node0&#45;&gt;Node43</title>
<path fill="none" stroke="midnightblue" d="M209.16,-465.08C210.21,-385.92 218.08,-94.78 277,-29 281.05,-24.47 286.05,-20.97 291.5,-18.26"/>
<polygon fill="midnightblue" stroke="midnightblue" points="205.66,-465.13 209.05,-475.17 212.66,-465.21 205.66,-465.13"/>
</g>
<!-- Node1 -->
<g id="node2" class="node">
<title>Node1</title>
<g id="a_node2"><a xlink:href="../../d9/dea/classnap_1_1_resource.html" target="_top" xlink:title="Resource">
<polygon fill="white" stroke="black" points="81,-475.5 81,-494.5 139,-494.5 139,-475.5 81,-475.5"/>
<text text-anchor="middle" x="110" y="-482.5" font-family="Helvetica,sans-Serif" font-size="10.00">Resource</text>
</a>
</g>
</g>
<!-- Node1&#45;&gt;Node0 -->
<g id="edge1" class="edge">
<title>Node1&#45;&gt;Node0</title>
<path fill="none" stroke="midnightblue" d="M149.09,-485C157.57,-485 166.49,-485 174.71,-485"/>
<polygon fill="midnightblue" stroke="midnightblue" points="149.03,-481.5 139.03,-485 149.03,-488.5 149.03,-481.5"/>
</g>
<!-- Node2 -->
<g id="node3" class="node">
<title>Node2</title>
<g id="a_node3"><a xlink:href="../../de/d01/classnap_1_1rtti_1_1_object.html" target="_top" xlink:title="Object">
<polygon fill="white" stroke="black" points="0,-475.5 0,-494.5 45,-494.5 45,-475.5 0,-475.5"/>
<text text-anchor="middle" x="22.5" y="-482.5" font-family="Helvetica,sans-Serif" font-size="10.00">Object</text>
</a>
</g>
</g>
<!-- Node2&#45;&gt;Node1 -->
<g id="edge2" class="edge">
<title>Node2&#45;&gt;Node1</title>
<path fill="none" stroke="midnightblue" d="M55.31,-485C63.73,-485 72.76,-485 80.96,-485"/>
<polygon fill="midnightblue" stroke="midnightblue" points="55.08,-481.5 45.08,-485 55.08,-488.5 55.08,-481.5"/>
</g>
<!-- Node6 -->
<g id="node7" class="node">
<title>Node6</title>
<g id="a_node7"><a xlink:href="../../db/d0a/classnap_1_1audio_1_1_audio_input_component.html" target="_top" xlink:title="AudioInputComponent">
<polygon fill="white" stroke="black" points="474,-934.5 474,-953.5 586,-953.5 586,-934.5 474,-934.5"/>
<text text-anchor="middle" x="530" y="-941.5" font-family="Helvetica,sans-Serif" font-size="10.00">AudioInputComponent</text>
</a>
</g>
</g>
<!-- Node5&#45;&gt;Node6 -->
<g id="edge6" class="edge">
<title>Node5&#45;&gt;Node6</title>
<path fill="none" stroke="midnightblue" d="M405.09,-896.44C411.22,-898.38 417.3,-900.57 423,-903 440.25,-910.36 441.78,-917.58 459,-925 467.56,-928.69 477.02,-931.83 486.14,-934.44"/>
<polygon fill="midnightblue" stroke="midnightblue" points="406.05,-893.07 395.47,-893.57 404.05,-899.78 406.05,-893.07"/>
</g>
<!-- Node7 -->
<g id="node8" class="node">
<title>Node7</title>
<g id="a_node8"><a xlink:href="../../d3/d49/classnap_1_1audio_1_1_playback_component.html" target="_top" xlink:title="PlaybackComponent">
<polygon fill="white" stroke="black" points="476.5,-896.5 476.5,-915.5 583.5,-915.5 583.5,-896.5 476.5,-896.5"/>
<text text-anchor="middle" x="530" y="-903.5" font-family="Helvetica,sans-Serif" font-size="10.00">PlaybackComponent</text>
</a>
</g>
</g>
<!-- Node5&#45;&gt;Node7 -->
<g id="edge7" class="edge">
<title>Node5&#45;&gt;Node7</title>
<path fill="none" stroke="midnightblue" d="M416.92,-892.15C436.53,-894.57 457.76,-897.19 476.4,-899.5"/>
<polygon fill="midnightblue" stroke="midnightblue" points="417.19,-888.65 406.83,-890.9 416.33,-895.6 417.19,-888.65"/>
</g>
<!-- Node8 -->
<g id="node9" class="node">
<title>Node8</title>
<g id="a_node9"><a xlink:href="../../d2/d14/classnap_1_1audio_1_1_sequence_player_audio_output_component.html" target="_top" xlink:title="SequencePlayerAudioOutput\lComponent">
<polygon fill="white" stroke="black" points="459,-847 459,-877 601,-877 601,-847 459,-847"/>
<text text-anchor="start" x="467" y="-865" font-family="Helvetica,sans-Serif" font-size="10.00">SequencePlayerAudioOutput</text>
<text text-anchor="middle" x="530" y="-854" font-family="Helvetica,sans-Serif" font-size="10.00">Component</text>
</a>
</g>
</g>
<!-- Node5&#45;&gt;Node8 -->
<g id="edge8" class="edge">
<title>Node5&#45;&gt;Node8</title>
<path fill="none" stroke="midnightblue" d="M417.09,-875.83C430.74,-874.14 445.16,-872.36 458.94,-870.66"/>
<polygon fill="midnightblue" stroke="midnightblue" points="416.33,-872.4 406.83,-877.1 417.19,-879.35 416.33,-872.4"/>
</g>
<!-- Node9 -->
<g id="node10" class="node">
<title>Node9</title>
<g id="a_node10"><a xlink:href="../../db/df8/classnap_1_1audio_1_1_video_audio_component.html" target="_top" xlink:title="VideoAudioComponent">
<polygon fill="white" stroke="black" points="472,-808.5 472,-827.5 588,-827.5 588,-808.5 472,-808.5"/>
<text text-anchor="middle" x="530" y="-815.5" font-family="Helvetica,sans-Serif" font-size="10.00">VideoAudioComponent</text>
</a>
</g>
</g>
<!-- Node5&#45;&gt;Node9 -->
<g id="edge9" class="edge">
<title>Node5&#45;&gt;Node9</title>
<path fill="none" stroke="midnightblue" d="M407.62,-871.31C412.92,-869.45 418.13,-867.36 423,-865 441,-856.29 441.09,-846.9 459,-838 467.49,-833.78 477.01,-830.32 486.24,-827.53"/>
<polygon fill="midnightblue" stroke="midnightblue" points="406.48,-868 398.04,-874.39 408.63,-874.66 406.48,-868"/>
</g>
<!-- Node20 -->
<g id="node21" class="node">
<title>Node20</title>
<g id="a_node21"><a xlink:href="../../d1/d39/classnap_1_1_controller_input_component.html" target="_top" xlink:title="ControllerInputComponent">
<polygon fill="white" stroke="black" points="466,-532.5 466,-551.5 594,-551.5 594,-532.5 466,-532.5"/>
<text text-anchor="middle" x="530" y="-539.5" font-family="Helvetica,sans-Serif" font-size="10.00">ControllerInputComponent</text>
</a>
</g>
</g>
<!-- Node19&#45;&gt;Node20 -->
<g id="edge20" class="edge">
<title>Node19&#45;&gt;Node20</title>
<path fill="none" stroke="midnightblue" d="M403.56,-515.22C429.2,-520.69 459.72,-527.21 484.23,-532.44"/>
<polygon fill="midnightblue" stroke="midnightblue" points="404.15,-511.77 393.64,-513.1 402.68,-518.61 404.15,-511.77"/>
</g>
<!-- Node21 -->
<g id="node22" class="node">
<title>Node21</title>
<g id="a_node22"><a xlink:href="../../df/dd0/classnap_1_1_key_input_component.html" target="_top" xlink:title="KeyInputComponent">
<polygon fill="white" stroke="black" points="478,-494.5 478,-513.5 582,-513.5 582,-494.5 478,-494.5"/>
<text text-anchor="middle" x="530" y="-501.5" font-family="Helvetica,sans-Serif" font-size="10.00">KeyInputComponent</text>
</a>
</g>
</g>
<!-- Node19&#45;&gt;Node21 -->
<g id="edge21" class="edge">
<title>Node19&#45;&gt;Node21</title>
<path fill="none" stroke="midnightblue" d="M403.74,-504C427.16,-504 454.61,-504 477.84,-504"/>
<polygon fill="midnightblue" stroke="midnightblue" points="403.64,-500.5 393.64,-504 403.64,-507.5 403.64,-500.5"/>
</g>
<!-- Node22 -->
<g id="node23" class="node">
<title>Node22</title>
<g id="a_node23"><a xlink:href="../../da/d57/classnap_1_1_pointer_input_component.html" target="_top" xlink:title="PointerInputComponent">
<polygon fill="white" stroke="black" points="471,-456.5 471,-475.5 589,-475.5 589,-456.5 471,-456.5"/>
<text text-anchor="middle" x="530" y="-463.5" font-family="Helvetica,sans-Serif" font-size="10.00">PointerInputComponent</text>
</a>
</g>
</g>
<!-- Node19&#45;&gt;Node22 -->
<g id="edge22" class="edge">
<title>Node19&#45;&gt;Node22</title>
<path fill="none" stroke="midnightblue" d="M403.56,-492.78C429.2,-487.31 459.72,-480.79 484.23,-475.56"/>
<polygon fill="midnightblue" stroke="midnightblue" points="402.68,-489.39 393.64,-494.9 404.15,-496.23 402.68,-489.39"/>
</g>
<!-- Node33 -->
<g id="node34" class="node">
<title>Node33</title>
<g id="a_node34"><a xlink:href="../../d4/d61/classnap_1_1_renderable_mesh_component.html" target="_top" xlink:title="RenderableMeshComponent">
<polygon fill="white" stroke="black" points="460.5,-209.5 460.5,-228.5 599.5,-228.5 599.5,-209.5 460.5,-209.5"/>
<text text-anchor="middle" x="530" y="-216.5" font-family="Helvetica,sans-Serif" font-size="10.00">RenderableMeshComponent</text>
</a>
</g>
</g>
<!-- Node32&#45;&gt;Node33 -->
<g id="edge33" class="edge">
<title>Node32&#45;&gt;Node33</title>
<path fill="none" stroke="midnightblue" d="M414.53,-137.73C417.5,-139.3 420.34,-141.05 423,-143 447.16,-160.72 434.9,-182.2 459,-200 464.27,-203.89 470.28,-206.98 476.52,-209.45"/>
<polygon fill="midnightblue" stroke="midnightblue" points="415.89,-134.5 405.34,-133.54 412.98,-140.87 415.89,-134.5"/>
</g>
<!-- Node34 -->
<g id="node35" class="node">
<title>Node34</title>
<g id="a_node35"><a xlink:href="../../d6/d4f/classnap_1_1_renderable_text_component.html" target="_top" xlink:title="RenderableTextComponent">
<polygon fill="white" stroke="black" points="463,-171.5 463,-190.5 597,-190.5 597,-171.5 463,-171.5"/>
<text text-anchor="middle" x="530" y="-178.5" font-family="Helvetica,sans-Serif" font-size="10.00">RenderableTextComponent</text>
</a>
</g>
</g>
<!-- Node32&#45;&gt;Node34 -->
<g id="edge34" class="edge">
<title>Node32&#45;&gt;Node34</title>
<path fill="none" stroke="midnightblue" d="M403.47,-136.34C410.12,-138.35 416.77,-140.57 423,-143 439.86,-149.57 442.17,-155.37 459,-162 468.14,-165.6 478.21,-168.77 487.79,-171.44"/>
<polygon fill="midnightblue" stroke="midnightblue" points="404.35,-132.96 393.77,-133.57 402.43,-139.69 404.35,-132.96"/>
</g>
<!-- Node37 -->
<g id="node38" class="node">
<title>Node37</title>
<g id="a_node38"><a xlink:href="../../de/d8e/classnap_1_1_render_bloom_component.html" target="_top" xlink:title="RenderBloomComponent">
<polygon fill="white" stroke="black" points="467.5,-133.5 467.5,-152.5 592.5,-152.5 592.5,-133.5 467.5,-133.5"/>
<text text-anchor="middle" x="530" y="-140.5" font-family="Helvetica,sans-Serif" font-size="10.00">RenderBloomComponent</text>
</a>
</g>
</g>
<!-- Node32&#45;&gt;Node37 -->
<g id="edge37" class="edge">
<title>Node32&#45;&gt;Node37</title>
<path fill="none" stroke="midnightblue" d="M417.8,-131.13C434.1,-132.87 451.46,-134.72 467.5,-136.44"/>
<polygon fill="midnightblue" stroke="midnightblue" points="418.12,-127.65 407.81,-130.06 417.38,-134.61 418.12,-127.65"/>
</g>
<!-- Node38 -->
<g id="node39" class="node">
<title>Node38</title>
<g id="a_node39"><a xlink:href="../../d8/dc2/classnap_1_1_render_gnomon_component.html" target="_top" xlink:title="RenderGnomonComponent">
<polygon fill="white" stroke="black" points="463,-95.5 463,-114.5 597,-114.5 597,-95.5 463,-95.5"/>
<text text-anchor="middle" x="530" y="-102.5" font-family="Helvetica,sans-Serif" font-size="10.00">RenderGnomonComponent</text>
</a>
</g>
</g>
<!-- Node32&#45;&gt;Node38 -->
<g id="edge38" class="edge">
<title>Node32&#45;&gt;Node38</title>
<path fill="none" stroke="midnightblue" d="M417.83,-116.87C432.54,-115.3 448.12,-113.63 462.8,-112.07"/>
<polygon fill="midnightblue" stroke="midnightblue" points="417.38,-113.39 407.81,-117.94 418.12,-120.35 417.38,-113.39"/>
</g>
<!-- Node39 -->
<g id="node40" class="node">
<title>Node39</title>
<g id="a_node40"><a xlink:href="../../dc/d0b/classnap_1_1_render_to_texture_component.html" target="_top" xlink:title="RenderToTextureComponent">
<polygon fill="white" stroke="black" points="460,-57.5 460,-76.5 600,-76.5 600,-57.5 460,-57.5"/>
<text text-anchor="middle" x="530" y="-64.5" font-family="Helvetica,sans-Serif" font-size="10.00">RenderToTextureComponent</text>
</a>
</g>
</g>
<!-- Node32&#45;&gt;Node39 -->
<g id="edge39" class="edge">
<title>Node32&#45;&gt;Node39</title>
<path fill="none" stroke="midnightblue" d="M403.47,-111.66C410.12,-109.65 416.77,-107.43 423,-105 439.86,-98.43 442.17,-92.63 459,-86 468.14,-82.4 478.21,-79.23 487.79,-76.56"/>
<polygon fill="midnightblue" stroke="midnightblue" points="402.43,-108.31 393.77,-114.43 404.35,-115.04 402.43,-108.31"/>
</g>
<!-- Node40 -->
<g id="node41" class="node">
<title>Node40</title>
<g id="a_node41"><a xlink:href="../../d1/d5d/classnap_1_1_render_video_component.html" target="_top" xlink:title="RenderVideoComponent">
<polygon fill="white" stroke="black" points="469,-19.5 469,-38.5 591,-38.5 591,-19.5 469,-19.5"/>
<text text-anchor="middle" x="530" y="-26.5" font-family="Helvetica,sans-Serif" font-size="10.00">RenderVideoComponent</text>
</a>
</g>
</g>
<!-- Node32&#45;&gt;Node40 -->
<g id="edge40" class="edge">
<title>Node32&#45;&gt;Node40</title>
<path fill="none" stroke="midnightblue" d="M414.53,-110.27C417.5,-108.7 420.34,-106.95 423,-105 447.16,-87.28 434.9,-65.8 459,-48 464.27,-44.11 470.28,-41.02 476.52,-38.55"/>
<polygon fill="midnightblue" stroke="midnightblue" points="412.98,-107.13 405.34,-114.46 415.89,-113.5 412.98,-107.13"/>
</g>
<!-- Node35 -->
<g id="node36" class="node">
<title>Node35</title>
<g id="a_node36"><a xlink:href="../../dc/d02/classnap_1_1_renderable2_d_text_component.html" target="_top" xlink:title="Renderable2DTextComponent">
<polygon fill="white" stroke="black" points="637,-190.5 637,-209.5 783,-209.5 783,-190.5 637,-190.5"/>
<text text-anchor="middle" x="710" y="-197.5" font-family="Helvetica,sans-Serif" font-size="10.00">Renderable2DTextComponent</text>
</a>
</g>
</g>
<!-- Node34&#45;&gt;Node35 -->
<g id="edge35" class="edge">
<title>Node34&#45;&gt;Node35</title>
<path fill="none" stroke="midnightblue" d="M607.17,-189.13C617,-190.18 627.04,-191.25 636.8,-192.29"/>
<polygon fill="midnightblue" stroke="midnightblue" points="607.34,-185.63 597.03,-188.05 606.6,-192.59 607.34,-185.63"/>
</g>
<!-- Node36 -->
<g id="node37" class="node">
<title>Node36</title>
<g id="a_node37"><a xlink:href="../../d2/d4e/classnap_1_1_renderable3_d_text_component.html" target="_top" xlink:title="Renderable3DTextComponent">
<polygon fill="white" stroke="black" points="637,-152.5 637,-171.5 783,-171.5 783,-152.5 637,-152.5"/>
<text text-anchor="middle" x="710" y="-159.5" font-family="Helvetica,sans-Serif" font-size="10.00">Renderable3DTextComponent</text>
</a>
</g>
</g>
<!-- Node34&#45;&gt;Node36 -->
<g id="edge36" class="edge">
<title>Node34&#45;&gt;Node36</title>
<path fill="none" stroke="midnightblue" d="M607.17,-172.87C617,-171.82 627.04,-170.75 636.8,-169.71"/>
<polygon fill="midnightblue" stroke="midnightblue" points="606.6,-169.41 597.03,-173.95 607.34,-176.37 606.6,-169.41"/>
</g>
</g>
</svg>
