<?xml version="1.0" encoding="UTF-8" standalone="no"?>
<!DOCTYPE svg PUBLIC "-//W3C//DTD SVG 1.1//EN"
 "http://www.w3.org/Graphics/SVG/1.1/DTD/svg11.dtd">
<!-- Generated by graphviz version 3.0.0 (20220226.1711)
 -->
<!-- Title: Component Pages: 1 -->
<svg width="791pt" height="940pt"
 viewBox="0.00 0.00 791.00 940.00" xmlns="http://www.w3.org/2000/svg" xmlns:xlink="http://www.w3.org/1999/xlink">
<g id="graph0" class="graph" transform="scale(1 1) rotate(0) translate(4 936)">
<title>Component</title>
<polygon fill="white" stroke="transparent" points="-4,4 -4,-936 787,-936 787,4 -4,4"/>
<!-- Node0 -->
<g id="node1" class="node">
<title>Node0</title>
<polygon fill="#bfbfbf" stroke="black" points="175,-456.5 175,-475.5 241,-475.5 241,-456.5 175,-456.5"/>
<text text-anchor="middle" x="208" y="-463.5" font-family="Helvetica,sans-Serif" font-size="10.00">Component</text>
</g>
<!-- Node3 -->
<g id="node4" class="node">
<title>Node3</title>
<g id="a_node4"><a xlink:href="../../da/d42/classnap_1_1_a_p_i_component.html" target="_top" xlink:title="APIComponent">
<polygon fill="white" stroke="black" points="309,-912.5 309,-931.5 391,-931.5 391,-912.5 309,-912.5"/>
<text text-anchor="middle" x="350" y="-919.5" font-family="Helvetica,sans-Serif" font-size="10.00">APIComponent</text>
</a>
</g>
</g>
<!-- Node0&#45;&gt;Node3 -->
<g id="edge3" class="edge">
<title>Node0&#45;&gt;Node3</title>
<path fill="none" stroke="midnightblue" d="M209.31,-486.07C210.9,-563.32 220.52,-840.34 277,-903 285.14,-912.03 297.01,-916.99 308.77,-919.65"/>
<polygon fill="midnightblue" stroke="midnightblue" points="212.8,-485.74 209.12,-475.8 205.8,-485.87 212.8,-485.74"/>
</g>
<!-- Node4 -->
<g id="node5" class="node">
<title>Node4</title>
<g id="a_node5"><a xlink:href="../../d4/dc5/classnap_1_1_art_net_input_component.html" target="_top" xlink:title="ArtNetInputComponent">
<polygon fill="white" stroke="black" points="292.5,-874.5 292.5,-893.5 407.5,-893.5 407.5,-874.5 292.5,-874.5"/>
<text text-anchor="middle" x="350" y="-881.5" font-family="Helvetica,sans-Serif" font-size="10.00">ArtNetInputComponent</text>
</a>
</g>
</g>
<!-- Node0&#45;&gt;Node4 -->
<g id="edge4" class="edge">
<title>Node0&#45;&gt;Node4</title>
<path fill="none" stroke="midnightblue" d="M209.62,-485.71C212.31,-558.15 225.23,-808.4 277,-865 281.28,-869.67 286.55,-873.26 292.29,-875.99"/>
<polygon fill="midnightblue" stroke="midnightblue" points="213.12,-485.54 209.27,-475.67 206.12,-485.78 213.12,-485.54"/>
</g>
<!-- Node5 -->
<g id="node6" class="node">
<title>Node5</title>
<g id="a_node6"><a xlink:href="../../d5/dcb/classnap_1_1audio_1_1_audio_component_base.html" target="_top" xlink:title="AudioComponentBase">
<polygon fill="white" stroke="black" points="293.5,-836.5 293.5,-855.5 406.5,-855.5 406.5,-836.5 293.5,-836.5"/>
<text text-anchor="middle" x="350" y="-843.5" font-family="Helvetica,sans-Serif" font-size="10.00">AudioComponentBase</text>
</a>
</g>
</g>
<!-- Node0&#45;&gt;Node5 -->
<g id="edge5" class="edge">
<title>Node0&#45;&gt;Node5</title>
<path fill="none" stroke="midnightblue" d="M210.02,-485.99C213.93,-554.23 230.08,-776.58 277,-827 281.58,-831.92 287.27,-835.63 293.43,-838.41"/>
<polygon fill="midnightblue" stroke="midnightblue" points="213.51,-485.55 209.47,-475.76 206.52,-485.93 213.51,-485.55"/>
</g>
<!-- Node10 -->
<g id="node11" class="node">
<title>Node10</title>
<g id="a_node11"><a xlink:href="../../d7/db8/classnap_1_1audio_1_1_level_meter_component.html" target="_top" xlink:title="LevelMeterComponent">
<polygon fill="white" stroke="black" points="293.5,-798.5 293.5,-817.5 406.5,-817.5 406.5,-798.5 293.5,-798.5"/>
<text text-anchor="middle" x="350" y="-805.5" font-family="Helvetica,sans-Serif" font-size="10.00">LevelMeterComponent</text>
</a>
</g>
</g>
<!-- Node0&#45;&gt;Node10 -->
<g id="edge10" class="edge">
<title>Node0&#45;&gt;Node10</title>
<path fill="none" stroke="midnightblue" d="M210.5,-485.91C215.67,-549.26 234.81,-744.62 277,-789 281.54,-793.78 287.13,-797.41 293.17,-800.15"/>
<polygon fill="midnightblue" stroke="midnightblue" points="213.97,-485.38 209.69,-475.68 206.99,-485.93 213.97,-485.38"/>
</g>
<!-- Node11 -->
<g id="node12" class="node">
<title>Node11</title>
<g id="a_node12"><a xlink:href="../../df/d82/classnap_1_1audio_1_1_output_component.html" target="_top" xlink:title="OutputComponent">
<polygon fill="white" stroke="black" points="302.5,-760.5 302.5,-779.5 397.5,-779.5 397.5,-760.5 302.5,-760.5"/>
<text text-anchor="middle" x="350" y="-767.5" font-family="Helvetica,sans-Serif" font-size="10.00">OutputComponent</text>
</a>
</g>
</g>
<!-- Node0&#45;&gt;Node11 -->
<g id="edge11" class="edge">
<title>Node0&#45;&gt;Node11</title>
<path fill="none" stroke="midnightblue" d="M211.1,-485.82C217.64,-543.99 239.52,-712.62 277,-751 283.86,-758.03 293,-762.56 302.45,-765.46"/>
<polygon fill="midnightblue" stroke="midnightblue" points="214.56,-485.28 209.99,-475.72 207.6,-486.05 214.56,-485.28"/>
</g>
<!-- Node12 -->
<g id="node13" class="node">
<title>Node12</title>
<g id="a_node13"><a xlink:href="../../df/d2e/classnap_1_1_calendar_component.html" target="_top" xlink:title="CalendarComponent">
<polygon fill="white" stroke="black" points="298,-722.5 298,-741.5 402,-741.5 402,-722.5 298,-722.5"/>
<text text-anchor="middle" x="350" y="-729.5" font-family="Helvetica,sans-Serif" font-size="10.00">CalendarComponent</text>
</a>
</g>
</g>
<!-- Node0&#45;&gt;Node12 -->
<g id="edge12" class="edge">
<title>Node0&#45;&gt;Node12</title>
<path fill="none" stroke="midnightblue" d="M208.27,-485.97C207.72,-532.68 213.17,-649.84 277,-713 282.79,-718.73 290.09,-722.79 297.81,-725.65"/>
<polygon fill="midnightblue" stroke="midnightblue" points="211.78,-485.77 208.51,-475.69 204.78,-485.61 211.78,-485.77"/>
</g>
<!-- Node13 -->
<g id="node14" class="node">
<title>Node13</title>
<g id="a_node14"><a xlink:href="../../d4/dac/classnap_1_1_camera_controller.html" target="_top" xlink:title="CameraController">
<polygon fill="white" stroke="black" points="304,-684.5 304,-703.5 396,-703.5 396,-684.5 304,-684.5"/>
<text text-anchor="middle" x="350" y="-691.5" font-family="Helvetica,sans-Serif" font-size="10.00">CameraController</text>
</a>
</g>
</g>
<!-- Node0&#45;&gt;Node13 -->
<g id="edge13" class="edge">
<title>Node0&#45;&gt;Node13</title>
<path fill="none" stroke="midnightblue" d="M209.45,-485.68C211.5,-527.01 222.24,-623.26 277,-675 284.42,-682.01 294.12,-686.51 303.98,-689.37"/>
<polygon fill="midnightblue" stroke="midnightblue" points="212.94,-485.43 209.07,-475.57 205.95,-485.69 212.94,-485.43"/>
</g>
<!-- Node14 -->
<g id="node15" class="node">
<title>Node14</title>
<g id="a_node15"><a xlink:href="../../d6/d2c/classnap_1_1_c_v_capture_component.html" target="_top" xlink:title="CVCaptureComponent">
<polygon fill="white" stroke="black" points="293.5,-646.5 293.5,-665.5 406.5,-665.5 406.5,-646.5 293.5,-646.5"/>
<text text-anchor="middle" x="350" y="-653.5" font-family="Helvetica,sans-Serif" font-size="10.00">CVCaptureComponent</text>
</a>
</g>
</g>
<!-- Node0&#45;&gt;Node14 -->
<g id="edge14" class="edge">
<title>Node0&#45;&gt;Node14</title>
<path fill="none" stroke="midnightblue" d="M211.14,-485.99C216.05,-521.74 231.48,-596.66 277,-637 281.74,-641.2 287.3,-644.49 293.2,-647.06"/>
<polygon fill="midnightblue" stroke="midnightblue" points="214.59,-485.34 209.89,-475.85 207.64,-486.2 214.59,-485.34"/>
</g>
<!-- Node15 -->
<g id="node16" class="node">
<title>Node15</title>
<g id="a_node16"><a xlink:href="../../de/d67/classnap_1_1_c_v_classify_component.html" target="_top" xlink:title="CVClassifyComponent">
<polygon fill="white" stroke="black" points="293,-608.5 293,-627.5 407,-627.5 407,-608.5 293,-608.5"/>
<text text-anchor="middle" x="350" y="-615.5" font-family="Helvetica,sans-Serif" font-size="10.00">CVClassifyComponent</text>
</a>
</g>
</g>
<!-- Node0&#45;&gt;Node15 -->
<g id="edge15" class="edge">
<title>Node0&#45;&gt;Node15</title>
<path fill="none" stroke="midnightblue" d="M213.58,-485.6C221.43,-514.79 240.29,-569.43 277,-599 281.83,-602.89 287.38,-605.99 293.22,-608.46"/>
<polygon fill="midnightblue" stroke="midnightblue" points="216.93,-484.6 211.09,-475.76 210.15,-486.31 216.93,-484.6"/>
</g>
<!-- Node16 -->
<g id="node17" class="node">
<title>Node16</title>
<g id="a_node17"><a xlink:href="../../dd/d73/classnap_1_1_default_input_router_component.html" target="_top" xlink:title="DefaultInputRouterComponent">
<polygon fill="white" stroke="black" points="277,-570.5 277,-589.5 423,-589.5 423,-570.5 277,-570.5"/>
<text text-anchor="middle" x="350" y="-577.5" font-family="Helvetica,sans-Serif" font-size="10.00">DefaultInputRouterComponent</text>
</a>
</g>
</g>
<!-- Node0&#45;&gt;Node16 -->
<g id="edge16" class="edge">
<title>Node0&#45;&gt;Node16</title>
<path fill="none" stroke="midnightblue" d="M217.57,-484.97C228.35,-506.65 248.89,-541.61 277,-561 282.64,-564.89 289.03,-567.98 295.62,-570.44"/>
<polygon fill="midnightblue" stroke="midnightblue" points="220.66,-483.31 213.2,-475.79 214.34,-486.32 220.66,-483.31"/>
</g>
<!-- Node17 -->
<g id="node18" class="node">
<title>Node17</title>
<g id="a_node18"><a xlink:href="../../da/d47/classnap_1_1_first_person_controller.html" target="_top" xlink:title="FirstPersonController">
<polygon fill="white" stroke="black" points="296,-532.5 296,-551.5 404,-551.5 404,-532.5 296,-532.5"/>
<text text-anchor="middle" x="350" y="-539.5" font-family="Helvetica,sans-Serif" font-size="10.00">FirstPersonController</text>
</a>
</g>
</g>
<!-- Node0&#45;&gt;Node17 -->
<g id="edge17" class="edge">
<title>Node0&#45;&gt;Node17</title>
<path fill="none" stroke="midnightblue" d="M224.88,-482.87C237.79,-495.63 257.06,-512.68 277,-523 284.35,-526.8 292.52,-529.89 300.65,-532.39"/>
<polygon fill="midnightblue" stroke="midnightblue" points="227.22,-480.25 217.72,-475.57 222.22,-485.16 227.22,-480.25"/>
</g>
<!-- Node18 -->
<g id="node19" class="node">
<title>Node18</title>
<g id="a_node19"><a xlink:href="../../de/d9a/classnap_1_1_input_component.html" target="_top" xlink:title="InputComponent">
<polygon fill="white" stroke="black" points="306.5,-494.5 306.5,-513.5 393.5,-513.5 393.5,-494.5 306.5,-494.5"/>
<text text-anchor="middle" x="350" y="-501.5" font-family="Helvetica,sans-Serif" font-size="10.00">InputComponent</text>
</a>
</g>
</g>
<!-- Node0&#45;&gt;Node18 -->
<g id="edge18" class="edge">
<title>Node0&#45;&gt;Node18</title>
<path fill="none" stroke="midnightblue" d="M250.99,-477.84C259.59,-480.23 268.58,-482.71 277,-485 288.48,-488.12 301,-491.45 312.34,-494.44"/>
<polygon fill="midnightblue" stroke="midnightblue" points="251.72,-474.4 241.14,-475.08 249.83,-481.15 251.72,-474.4"/>
</g>
<!-- Node22 -->
<g id="node23" class="node">
<title>Node22</title>
<g id="a_node23"><a xlink:href="../../d9/d65/classnap_1_1_midi_input_component.html" target="_top" xlink:title="MidiInputComponent">
<polygon fill="white" stroke="black" points="297.5,-456.5 297.5,-475.5 402.5,-475.5 402.5,-456.5 297.5,-456.5"/>
<text text-anchor="middle" x="350" y="-463.5" font-family="Helvetica,sans-Serif" font-size="10.00">MidiInputComponent</text>
</a>
</g>
</g>
<!-- Node0&#45;&gt;Node22 -->
<g id="edge22" class="edge">
<title>Node0&#45;&gt;Node22</title>
<path fill="none" stroke="midnightblue" d="M251.29,-466C265.77,-466 282.14,-466 297.28,-466"/>
<polygon fill="midnightblue" stroke="midnightblue" points="251.12,-462.5 241.12,-466 251.12,-469.5 251.12,-462.5"/>
</g>
<!-- Node23 -->
<g id="node24" class="node">
<title>Node23</title>
<g id="a_node24"><a xlink:href="../../d3/d93/classnap_1_1_orbit_controller.html" target="_top" xlink:title="OrbitController">
<polygon fill="white" stroke="black" points="310.5,-418.5 310.5,-437.5 389.5,-437.5 389.5,-418.5 310.5,-418.5"/>
<text text-anchor="middle" x="350" y="-425.5" font-family="Helvetica,sans-Serif" font-size="10.00">OrbitController</text>
</a>
</g>
</g>
<!-- Node0&#45;&gt;Node23 -->
<g id="edge23" class="edge">
<title>Node0&#45;&gt;Node23</title>
<path fill="none" stroke="midnightblue" d="M250.99,-454.16C259.59,-451.77 268.58,-449.29 277,-447 288.48,-443.88 301,-440.55 312.34,-437.56"/>
<polygon fill="midnightblue" stroke="midnightblue" points="249.83,-450.85 241.14,-456.92 251.72,-457.6 249.83,-450.85"/>
</g>
<!-- Node24 -->
<g id="node25" class="node">
<title>Node24</title>
<g id="a_node25"><a xlink:href="../../de/dac/classnap_1_1_ortho_camera_component.html" target="_top" xlink:title="OrthoCameraComponent">
<polygon fill="white" stroke="black" points="288,-380.5 288,-399.5 412,-399.5 412,-380.5 288,-380.5"/>
<text text-anchor="middle" x="350" y="-387.5" font-family="Helvetica,sans-Serif" font-size="10.00">OrthoCameraComponent</text>
</a>
</g>
</g>
<!-- Node0&#45;&gt;Node24 -->
<g id="edge24" class="edge">
<title>Node0&#45;&gt;Node24</title>
<path fill="none" stroke="midnightblue" d="M224.88,-449.13C237.79,-436.37 257.06,-419.32 277,-409 284.35,-405.2 292.52,-402.11 300.65,-399.61"/>
<polygon fill="midnightblue" stroke="midnightblue" points="222.22,-446.84 217.72,-456.43 227.22,-451.75 222.22,-446.84"/>
</g>
<!-- Node25 -->
<g id="node26" class="node">
<title>Node25</title>
<g id="a_node26"><a xlink:href="../../d9/d75/classnap_1_1_ortho_controller.html" target="_top" xlink:title="OrthoController">
<polygon fill="white" stroke="black" points="309,-342.5 309,-361.5 391,-361.5 391,-342.5 309,-342.5"/>
<text text-anchor="middle" x="350" y="-349.5" font-family="Helvetica,sans-Serif" font-size="10.00">OrthoController</text>
</a>
</g>
</g>
<!-- Node0&#45;&gt;Node25 -->
<g id="edge25" class="edge">
<title>Node0&#45;&gt;Node25</title>
<path fill="none" stroke="midnightblue" d="M217.57,-447.03C228.35,-425.35 248.89,-390.39 277,-371 286.37,-364.54 297.8,-360.28 308.77,-357.46"/>
<polygon fill="midnightblue" stroke="midnightblue" points="214.34,-445.68 213.2,-456.21 220.66,-448.69 214.34,-445.68"/>
</g>
<!-- Node26 -->
<g id="node27" class="node">
<title>Node26</title>
<g id="a_node27"><a xlink:href="../../d4/df7/classnap_1_1_o_s_c_input_component.html" target="_top" xlink:title="OSCInputComponent">
<polygon fill="white" stroke="black" points="296,-304.5 296,-323.5 404,-323.5 404,-304.5 296,-304.5"/>
<text text-anchor="middle" x="350" y="-311.5" font-family="Helvetica,sans-Serif" font-size="10.00">OSCInputComponent</text>
</a>
</g>
</g>
<!-- Node0&#45;&gt;Node26 -->
<g id="edge26" class="edge">
<title>Node0&#45;&gt;Node26</title>
<path fill="none" stroke="midnightblue" d="M213.58,-446.4C221.43,-417.21 240.29,-362.57 277,-333 282.54,-328.54 289.02,-325.12 295.78,-322.5"/>
<polygon fill="midnightblue" stroke="midnightblue" points="210.15,-445.69 211.09,-456.24 216.93,-447.4 210.15,-445.69"/>
</g>
<!-- Node27 -->
<g id="node28" class="node">
<title>Node27</title>
<g id="a_node28"><a xlink:href="../../de/de6/classnap_1_1_parameter_blend_component.html" target="_top" xlink:title="ParameterBlendComponent">
<polygon fill="white" stroke="black" points="282,-266.5 282,-285.5 418,-285.5 418,-266.5 282,-266.5"/>
<text text-anchor="middle" x="350" y="-273.5" font-family="Helvetica,sans-Serif" font-size="10.00">ParameterBlendComponent</text>
</a>
</g>
</g>
<!-- Node0&#45;&gt;Node27 -->
<g id="edge27" class="edge">
<title>Node0&#45;&gt;Node27</title>
<path fill="none" stroke="midnightblue" d="M211.14,-446.01C216.05,-410.26 231.48,-335.34 277,-295 281.35,-291.14 286.4,-288.05 291.77,-285.58"/>
<polygon fill="midnightblue" stroke="midnightblue" points="207.64,-445.8 209.89,-456.15 214.59,-446.66 207.64,-445.8"/>
</g>
<!-- Node28 -->
<g id="node29" class="node">
<title>Node28</title>
<g id="a_node29"><a xlink:href="../../d6/d3d/classnap_1_1_persp_camera_component.html" target="_top" xlink:title="PerspCameraComponent">
<polygon fill="white" stroke="black" points="287.5,-228.5 287.5,-247.5 412.5,-247.5 412.5,-228.5 287.5,-228.5"/>
<text text-anchor="middle" x="350" y="-235.5" font-family="Helvetica,sans-Serif" font-size="10.00">PerspCameraComponent</text>
</a>
</g>
</g>
<!-- Node0&#45;&gt;Node28 -->
<g id="edge28" class="edge">
<title>Node0&#45;&gt;Node28</title>
<path fill="none" stroke="midnightblue" d="M209.45,-446.32C211.5,-404.99 222.24,-308.74 277,-257 281.04,-253.18 285.75,-250.11 290.8,-247.64"/>
<polygon fill="midnightblue" stroke="midnightblue" points="205.95,-446.31 209.07,-456.43 212.94,-446.57 205.95,-446.31"/>
</g>
<!-- Node29 -->
<g id="node30" class="node">
<title>Node29</title>
<g id="a_node30"><a xlink:href="../../de/d63/classnap_1_1_portal_component.html" target="_top" xlink:title="PortalComponent">
<polygon fill="white" stroke="black" points="304,-190.5 304,-209.5 396,-209.5 396,-190.5 304,-190.5"/>
<text text-anchor="middle" x="350" y="-197.5" font-family="Helvetica,sans-Serif" font-size="10.00">PortalComponent</text>
</a>
</g>
</g>
<!-- Node0&#45;&gt;Node29 -->
<g id="edge29" class="edge">
<title>Node0&#45;&gt;Node29</title>
<path fill="none" stroke="midnightblue" d="M208.27,-446.03C207.72,-399.32 213.17,-282.16 277,-219 284.26,-211.82 293.9,-207.26 303.75,-204.39"/>
<polygon fill="midnightblue" stroke="midnightblue" points="204.78,-446.39 208.51,-456.31 211.78,-446.23 204.78,-446.39"/>
</g>
<!-- Node30 -->
<g id="node31" class="node">
<title>Node30</title>
<g id="a_node31"><a xlink:href="../../d0/d2b/classnap_1_1_python_script_component.html" target="_top" xlink:title="PythonScriptComponent">
<polygon fill="white" stroke="black" points="289,-152.5 289,-171.5 411,-171.5 411,-152.5 289,-152.5"/>
<text text-anchor="middle" x="350" y="-159.5" font-family="Helvetica,sans-Serif" font-size="10.00">PythonScriptComponent</text>
</a>
</g>
</g>
<!-- Node0&#45;&gt;Node30 -->
<g id="edge30" class="edge">
<title>Node0&#45;&gt;Node30</title>
<path fill="none" stroke="midnightblue" d="M211.1,-446.18C217.64,-388.01 239.52,-219.38 277,-181 280.7,-177.21 285.07,-174.14 289.78,-171.67"/>
<polygon fill="midnightblue" stroke="midnightblue" points="207.6,-445.95 209.99,-456.28 214.56,-446.72 207.6,-445.95"/>
</g>
<!-- Node31 -->
<g id="node32" class="node">
<title>Node31</title>
<g id="a_node32"><a xlink:href="../../d1/d2c/classnap_1_1_renderable_component.html" target="_top" xlink:title="RenderableComponent">
<polygon fill="white" stroke="black" points="292.5,-114.5 292.5,-133.5 407.5,-133.5 407.5,-114.5 292.5,-114.5"/>
<text text-anchor="middle" x="350" y="-121.5" font-family="Helvetica,sans-Serif" font-size="10.00">RenderableComponent</text>
</a>
</g>
</g>
<!-- Node0&#45;&gt;Node31 -->
<g id="edge31" class="edge">
<title>Node0&#45;&gt;Node31</title>
<path fill="none" stroke="midnightblue" d="M210.5,-446.09C215.67,-382.74 234.81,-187.38 277,-143 281.36,-138.41 286.7,-134.88 292.46,-132.17"/>
<polygon fill="midnightblue" stroke="midnightblue" points="206.99,-446.07 209.69,-456.32 213.97,-446.62 206.99,-446.07"/>
</g>
<!-- Node39 -->
<g id="node40" class="node">
<title>Node39</title>
<g id="a_node40"><a xlink:href="../../d1/de7/classnap_1_1_rotate_component.html" target="_top" xlink:title="RotateComponent">
<polygon fill="white" stroke="black" points="302.5,-76.5 302.5,-95.5 397.5,-95.5 397.5,-76.5 302.5,-76.5"/>
<text text-anchor="middle" x="350" y="-83.5" font-family="Helvetica,sans-Serif" font-size="10.00">RotateComponent</text>
</a>
</g>
</g>
<!-- Node0&#45;&gt;Node39 -->
<g id="edge39" class="edge">
<title>Node0&#45;&gt;Node39</title>
<path fill="none" stroke="midnightblue" d="M210.02,-446.01C213.93,-377.77 230.08,-155.42 277,-105 283.69,-97.81 292.76,-93.21 302.2,-90.3"/>
<polygon fill="midnightblue" stroke="midnightblue" points="206.52,-446.07 209.47,-456.24 213.51,-446.45 206.52,-446.07"/>
</g>
<!-- Node40 -->
<g id="node41" class="node">
<title>Node40</title>
<g id="a_node41"><a xlink:href="../../de/d34/classnap_1_1_transform_component.html" target="_top" xlink:title="TransformComponent">
<polygon fill="white" stroke="black" points="295.5,-38.5 295.5,-57.5 404.5,-57.5 404.5,-38.5 295.5,-38.5"/>
<text text-anchor="middle" x="350" y="-45.5" font-family="Helvetica,sans-Serif" font-size="10.00">TransformComponent</text>
</a>
</g>
</g>
<!-- Node0&#45;&gt;Node40 -->
<g id="edge40" class="edge">
<title>Node0&#45;&gt;Node40</title>
<path fill="none" stroke="midnightblue" d="M209.62,-446.29C212.31,-373.85 225.23,-123.6 277,-67 282.06,-61.47 288.52,-57.47 295.49,-54.59"/>
<polygon fill="midnightblue" stroke="midnightblue" points="206.12,-446.22 209.27,-456.33 213.12,-446.46 206.12,-446.22"/>
</g>
<!-- Node41 -->
<g id="node42" class="node">
<title>Node41</title>
<g id="a_node42"><a xlink:href="../../d7/d5b/classnap_1_1_web_socket_component.html" target="_top" xlink:title="WebSocketComponent">
<polygon fill="white" stroke="black" points="291.5,-0.5 291.5,-19.5 408.5,-19.5 408.5,-0.5 291.5,-0.5"/>
<text text-anchor="middle" x="350" y="-7.5" font-family="Helvetica,sans-Serif" font-size="10.00">WebSocketComponent</text>
</a>
</g>
</g>
<!-- Node0&#45;&gt;Node41 -->
<g id="edge41" class="edge">
<title>Node0&#45;&gt;Node41</title>
<path fill="none" stroke="midnightblue" d="M209.31,-445.93C210.9,-368.68 220.52,-91.66 277,-29 280.98,-24.58 285.86,-21.14 291.18,-18.46"/>
<polygon fill="midnightblue" stroke="midnightblue" points="205.8,-446.13 209.12,-456.2 212.8,-446.26 205.8,-446.13"/>
</g>
<!-- Node1 -->
<g id="node2" class="node">
<title>Node1</title>
<g id="a_node2"><a xlink:href="../../d9/dea/classnap_1_1_resource.html" target="_top" xlink:title="Resource">
<polygon fill="white" stroke="black" points="81,-456.5 81,-475.5 139,-475.5 139,-456.5 81,-456.5"/>
<text text-anchor="middle" x="110" y="-463.5" font-family="Helvetica,sans-Serif" font-size="10.00">Resource</text>
</a>
</g>
</g>
<!-- Node1&#45;&gt;Node0 -->
<g id="edge1" class="edge">
<title>Node1&#45;&gt;Node0</title>
<path fill="none" stroke="midnightblue" d="M149.09,-466C157.57,-466 166.49,-466 174.71,-466"/>
<polygon fill="midnightblue" stroke="midnightblue" points="149.03,-462.5 139.03,-466 149.03,-469.5 149.03,-462.5"/>
</g>
<!-- Node2 -->
<g id="node3" class="node">
<title>Node2</title>
<g id="a_node3"><a xlink:href="../../de/d01/classnap_1_1rtti_1_1_object.html" target="_top" xlink:title="Object">
<polygon fill="white" stroke="black" points="0,-456.5 0,-475.5 45,-475.5 45,-456.5 0,-456.5"/>
<text text-anchor="middle" x="22.5" y="-463.5" font-family="Helvetica,sans-Serif" font-size="10.00">Object</text>
</a>
</g>
</g>
<!-- Node2&#45;&gt;Node1 -->
<g id="edge2" class="edge">
<title>Node2&#45;&gt;Node1</title>
<path fill="none" stroke="midnightblue" d="M55.31,-466C63.73,-466 72.76,-466 80.96,-466"/>
<polygon fill="midnightblue" stroke="midnightblue" points="55.08,-462.5 45.08,-466 55.08,-469.5 55.08,-462.5"/>
</g>
<!-- Node6 -->
<g id="node7" class="node">
<title>Node6</title>
<g id="a_node7"><a xlink:href="../../db/d0a/classnap_1_1audio_1_1_audio_input_component.html" target="_top" xlink:title="AudioInputComponent">
<polygon fill="white" stroke="black" points="474,-896.5 474,-915.5 586,-915.5 586,-896.5 474,-896.5"/>
<text text-anchor="middle" x="530" y="-903.5" font-family="Helvetica,sans-Serif" font-size="10.00">AudioInputComponent</text>
</a>
</g>
</g>
<!-- Node5&#45;&gt;Node6 -->
<g id="edge6" class="edge">
<title>Node5&#45;&gt;Node6</title>
<path fill="none" stroke="midnightblue" d="M405.09,-858.44C411.22,-860.38 417.3,-862.57 423,-865 440.25,-872.36 441.78,-879.58 459,-887 467.56,-890.69 477.02,-893.83 486.14,-896.44"/>
<polygon fill="midnightblue" stroke="midnightblue" points="406.05,-855.07 395.47,-855.57 404.05,-861.78 406.05,-855.07"/>
</g>
<!-- Node7 -->
<g id="node8" class="node">
<title>Node7</title>
<g id="a_node8"><a xlink:href="../../d3/d49/classnap_1_1audio_1_1_playback_component.html" target="_top" xlink:title="PlaybackComponent">
<polygon fill="white" stroke="black" points="476.5,-858.5 476.5,-877.5 583.5,-877.5 583.5,-858.5 476.5,-858.5"/>
<text text-anchor="middle" x="530" y="-865.5" font-family="Helvetica,sans-Serif" font-size="10.00">PlaybackComponent</text>
</a>
</g>
</g>
<!-- Node5&#45;&gt;Node7 -->
<g id="edge7" class="edge">
<title>Node5&#45;&gt;Node7</title>
<path fill="none" stroke="midnightblue" d="M416.92,-854.15C436.53,-856.57 457.76,-859.19 476.4,-861.5"/>
<polygon fill="midnightblue" stroke="midnightblue" points="417.19,-850.65 406.83,-852.9 416.33,-857.6 417.19,-850.65"/>
</g>
<!-- Node8 -->
<g id="node9" class="node">
<title>Node8</title>
<g id="a_node9"><a xlink:href="../../d2/d14/classnap_1_1audio_1_1_sequence_player_audio_output_component.html" target="_top" xlink:title="SequencePlayerAudioOutput\lComponent">
<polygon fill="white" stroke="black" points="459,-809 459,-839 601,-839 601,-809 459,-809"/>
<text text-anchor="start" x="467" y="-827" font-family="Helvetica,sans-Serif" font-size="10.00">SequencePlayerAudioOutput</text>
<text text-anchor="middle" x="530" y="-816" font-family="Helvetica,sans-Serif" font-size="10.00">Component</text>
</a>
</g>
</g>
<!-- Node5&#45;&gt;Node8 -->
<g id="edge8" class="edge">
<title>Node5&#45;&gt;Node8</title>
<path fill="none" stroke="midnightblue" d="M417.09,-837.83C430.74,-836.14 445.16,-834.36 458.94,-832.66"/>
<polygon fill="midnightblue" stroke="midnightblue" points="416.33,-834.4 406.83,-839.1 417.19,-841.35 416.33,-834.4"/>
</g>
<!-- Node9 -->
<g id="node10" class="node">
<title>Node9</title>
<g id="a_node10"><a xlink:href="../../db/df8/classnap_1_1audio_1_1_video_audio_component.html" target="_top" xlink:title="VideoAudioComponent">
<polygon fill="white" stroke="black" points="472,-770.5 472,-789.5 588,-789.5 588,-770.5 472,-770.5"/>
<text text-anchor="middle" x="530" y="-777.5" font-family="Helvetica,sans-Serif" font-size="10.00">VideoAudioComponent</text>
</a>
</g>
</g>
<!-- Node5&#45;&gt;Node9 -->
<g id="edge9" class="edge">
<title>Node5&#45;&gt;Node9</title>
<path fill="none" stroke="midnightblue" d="M407.62,-833.31C412.92,-831.45 418.13,-829.36 423,-827 441,-818.29 441.09,-808.9 459,-800 467.49,-795.78 477.01,-792.32 486.24,-789.53"/>
<polygon fill="midnightblue" stroke="midnightblue" points="406.48,-830 398.04,-836.39 408.63,-836.66 406.48,-830"/>
</g>
<!-- Node19 -->
<g id="node20" class="node">
<title>Node19</title>
<g id="a_node20"><a xlink:href="../../d1/d39/classnap_1_1_controller_input_component.html" target="_top" xlink:title="ControllerInputComponent">
<polygon fill="white" stroke="black" points="466,-532.5 466,-551.5 594,-551.5 594,-532.5 466,-532.5"/>
<text text-anchor="middle" x="530" y="-539.5" font-family="Helvetica,sans-Serif" font-size="10.00">ControllerInputComponent</text>
</a>
</g>
</g>
<!-- Node18&#45;&gt;Node19 -->
<g id="edge19" class="edge">
<title>Node18&#45;&gt;Node19</title>
<path fill="none" stroke="midnightblue" d="M403.56,-515.22C429.2,-520.69 459.72,-527.21 484.23,-532.44"/>
<polygon fill="midnightblue" stroke="midnightblue" points="404.15,-511.77 393.64,-513.1 402.68,-518.61 404.15,-511.77"/>
</g>
<!-- Node20 -->
<g id="node21" class="node">
<title>Node20</title>
<g id="a_node21"><a xlink:href="../../df/dd0/classnap_1_1_key_input_component.html" target="_top" xlink:title="KeyInputComponent">
<polygon fill="white" stroke="black" points="478,-494.5 478,-513.5 582,-513.5 582,-494.5 478,-494.5"/>
<text text-anchor="middle" x="530" y="-501.5" font-family="Helvetica,sans-Serif" font-size="10.00">KeyInputComponent</text>
</a>
</g>
</g>
<!-- Node18&#45;&gt;Node20 -->
<g id="edge20" class="edge">
<title>Node18&#45;&gt;Node20</title>
<path fill="none" stroke="midnightblue" d="M403.74,-504C427.16,-504 454.61,-504 477.84,-504"/>
<polygon fill="midnightblue" stroke="midnightblue" points="403.64,-500.5 393.64,-504 403.64,-507.5 403.64,-500.5"/>
</g>
<!-- Node21 -->
<g id="node22" class="node">
<title>Node21</title>
<g id="a_node22"><a xlink:href="../../da/d57/classnap_1_1_pointer_input_component.html" target="_top" xlink:title="PointerInputComponent">
<polygon fill="white" stroke="black" points="471,-456.5 471,-475.5 589,-475.5 589,-456.5 471,-456.5"/>
<text text-anchor="middle" x="530" y="-463.5" font-family="Helvetica,sans-Serif" font-size="10.00">PointerInputComponent</text>
</a>
</g>
</g>
<!-- Node18&#45;&gt;Node21 -->
<g id="edge21" class="edge">
<title>Node18&#45;&gt;Node21</title>
<path fill="none" stroke="midnightblue" d="M403.56,-492.78C429.2,-487.31 459.72,-480.79 484.23,-475.56"/>
<polygon fill="midnightblue" stroke="midnightblue" points="402.68,-489.39 393.64,-494.9 404.15,-496.23 402.68,-489.39"/>
</g>
<!-- Node32 -->
<g id="node33" class="node">
<title>Node32</title>
<g id="a_node33"><a xlink:href="../../d4/d61/classnap_1_1_renderable_mesh_component.html" target="_top" xlink:title="RenderableMeshComponent">
<polygon fill="white" stroke="black" points="460.5,-190.5 460.5,-209.5 599.5,-209.5 599.5,-190.5 460.5,-190.5"/>
<text text-anchor="middle" x="530" y="-197.5" font-family="Helvetica,sans-Serif" font-size="10.00">RenderableMeshComponent</text>
</a>
</g>
</g>
<!-- Node31&#45;&gt;Node32 -->
<g id="edge32" class="edge">
<title>Node31&#45;&gt;Node32</title>
<path fill="none" stroke="midnightblue" d="M411.3,-137.15C415.37,-138.87 419.31,-140.81 423,-143 443.01,-154.87 439.03,-169.06 459,-181 465.49,-184.88 472.78,-187.98 480.14,-190.46"/>
<polygon fill="midnightblue" stroke="midnightblue" points="412.23,-133.76 401.63,-133.53 409.77,-140.32 412.23,-133.76"/>
</g>
<!-- Node33 -->
<g id="node34" class="node">
<title>Node33</title>
<g id="a_node34"><a xlink:href="../../d6/d4f/classnap_1_1_renderable_text_component.html" target="_top" xlink:title="RenderableTextComponent">
<polygon fill="white" stroke="black" points="463,-152.5 463,-171.5 597,-171.5 597,-152.5 463,-152.5"/>
<text text-anchor="middle" x="530" y="-159.5" font-family="Helvetica,sans-Serif" font-size="10.00">RenderableTextComponent</text>
</a>
</g>
</g>
<!-- Node31&#45;&gt;Node33 -->
<g id="edge33" class="edge">
<title>Node31&#45;&gt;Node33</title>
<path fill="none" stroke="midnightblue" d="M405.72,-135.68C430.96,-141.07 460.55,-147.39 484.41,-152.48"/>
<polygon fill="midnightblue" stroke="midnightblue" points="406.43,-132.25 395.92,-133.59 404.97,-139.1 406.43,-132.25"/>
</g>
<!-- Node36 -->
<g id="node37" class="node">
<title>Node36</title>
<g id="a_node37"><a xlink:href="../../d8/dc2/classnap_1_1_render_gnomon_component.html" target="_top" xlink:title="RenderGnomonComponent">
<polygon fill="white" stroke="black" points="463,-114.5 463,-133.5 597,-133.5 597,-114.5 463,-114.5"/>
<text text-anchor="middle" x="530" y="-121.5" font-family="Helvetica,sans-Serif" font-size="10.00">RenderGnomonComponent</text>
</a>
</g>
</g>
<!-- Node31&#45;&gt;Node36 -->
<g id="edge36" class="edge">
<title>Node31&#45;&gt;Node36</title>
<path fill="none" stroke="midnightblue" d="M417.83,-124C432.54,-124 448.12,-124 462.8,-124"/>
<polygon fill="midnightblue" stroke="midnightblue" points="417.81,-120.5 407.81,-124 417.81,-127.5 417.81,-120.5"/>
</g>
<!-- Node37 -->
<g id="node38" class="node">
<title>Node37</title>
<g id="a_node38"><a xlink:href="../../dc/d0b/classnap_1_1_render_to_texture_component.html" target="_top" xlink:title="RenderToTextureComponent">
<polygon fill="white" stroke="black" points="460,-76.5 460,-95.5 600,-95.5 600,-76.5 460,-76.5"/>
<text text-anchor="middle" x="530" y="-83.5" font-family="Helvetica,sans-Serif" font-size="10.00">RenderToTextureComponent</text>
</a>
</g>
</g>
<!-- Node31&#45;&gt;Node37 -->
<g id="edge37" class="edge">
<title>Node31&#45;&gt;Node37</title>
<path fill="none" stroke="midnightblue" d="M405.72,-112.32C430.96,-106.93 460.55,-100.61 484.41,-95.52"/>
<polygon fill="midnightblue" stroke="midnightblue" points="404.97,-108.9 395.92,-114.41 406.43,-115.75 404.97,-108.9"/>
</g>
<!-- Node38 -->
<g id="node39" class="node">
<title>Node38</title>
<g id="a_node39"><a xlink:href="../../d1/d5d/classnap_1_1_render_video_component.html" target="_top" xlink:title="RenderVideoComponent">
<polygon fill="white" stroke="black" points="469,-38.5 469,-57.5 591,-57.5 591,-38.5 469,-38.5"/>
<text text-anchor="middle" x="530" y="-45.5" font-family="Helvetica,sans-Serif" font-size="10.00">RenderVideoComponent</text>
</a>
</g>
</g>
<!-- Node31&#45;&gt;Node38 -->
<g id="edge38" class="edge">
<title>Node31&#45;&gt;Node38</title>
<path fill="none" stroke="midnightblue" d="M411.3,-110.85C415.37,-109.13 419.31,-107.19 423,-105 443.01,-93.13 439.03,-78.94 459,-67 465.49,-63.12 472.78,-60.02 480.14,-57.54"/>
<polygon fill="midnightblue" stroke="midnightblue" points="409.77,-107.68 401.63,-114.47 412.23,-114.24 409.77,-107.68"/>
</g>
<!-- Node34 -->
<g id="node35" class="node">
<title>Node34</title>
<g id="a_node35"><a xlink:href="../../dc/d02/classnap_1_1_renderable2_d_text_component.html" target="_top" xlink:title="Renderable2DTextComponent">
<polygon fill="white" stroke="black" points="637,-171.5 637,-190.5 783,-190.5 783,-171.5 637,-171.5"/>
<text text-anchor="middle" x="710" y="-178.5" font-family="Helvetica,sans-Serif" font-size="10.00">Renderable2DTextComponent</text>
</a>
</g>
</g>
<!-- Node33&#45;&gt;Node34 -->
<g id="edge34" class="edge">
<title>Node33&#45;&gt;Node34</title>
<path fill="none" stroke="midnightblue" d="M607.17,-170.13C617,-171.18 627.04,-172.25 636.8,-173.29"/>
<polygon fill="midnightblue" stroke="midnightblue" points="607.34,-166.63 597.03,-169.05 606.6,-173.59 607.34,-166.63"/>
</g>
<!-- Node35 -->
<g id="node36" class="node">
<title>Node35</title>
<g id="a_node36"><a xlink:href="../../d2/d4e/classnap_1_1_renderable3_d_text_component.html" target="_top" xlink:title="Renderable3DTextComponent">
<polygon fill="white" stroke="black" points="637,-133.5 637,-152.5 783,-152.5 783,-133.5 637,-133.5"/>
<text text-anchor="middle" x="710" y="-140.5" font-family="Helvetica,sans-Serif" font-size="10.00">Renderable3DTextComponent</text>
</a>
</g>
</g>
<!-- Node33&#45;&gt;Node35 -->
<g id="edge35" class="edge">
<title>Node33&#45;&gt;Node35</title>
<path fill="none" stroke="midnightblue" d="M607.17,-153.87C617,-152.82 627.04,-151.75 636.8,-150.71"/>
<polygon fill="midnightblue" stroke="midnightblue" points="606.6,-150.41 597.03,-154.95 607.34,-157.37 606.6,-150.41"/>
</g>
</g>
</svg>
