<?xml version="1.0" encoding="UTF-8" standalone="no"?>
<!DOCTYPE svg PUBLIC "-//W3C//DTD SVG 1.1//EN"
 "http://www.w3.org/Graphics/SVG/1.1/DTD/svg11.dtd">
<!-- Generated by graphviz version 2.48.0 (20210717.1556)
 -->
<!-- Title: SequencePlayerAudioOutput Pages: 1 -->
<svg width="176pt" height="209pt"
 viewBox="0.00 0.00 176.00 209.00" xmlns="http://www.w3.org/2000/svg" xmlns:xlink="http://www.w3.org/1999/xlink">
<g id="graph0" class="graph" transform="scale(1 1) rotate(0) translate(4 205)">
<title>SequencePlayerAudioOutput</title>
<polygon fill="white" stroke="transparent" points="-4,4 -4,-205 172,-205 172,4 -4,4"/>
<!-- Node4 -->
<g id="node1" class="node">
<title>Node4</title>
<polygon fill="#bfbfbf" stroke="black" points="4,-0.5 4,-19.5 146,-19.5 146,-0.5 4,-0.5"/>
<text text-anchor="middle" x="75" y="-7.5" font-family="Helvetica,sans-Serif" font-size="10.00">SequencePlayerAudioOutput</text>
</g>
<!-- Node5 -->
<g id="node2" class="node">
<title>Node5</title>
<g id="a_node2"><a xlink:href="../../de/dac/classnap_1_1_sequence_player_output.html" target="_top" xlink:title="SequencePlayerOutput">
<polygon fill="white" stroke="black" points="16.5,-57.5 16.5,-76.5 133.5,-76.5 133.5,-57.5 16.5,-57.5"/>
<text text-anchor="middle" x="75" y="-64.5" font-family="Helvetica,sans-Serif" font-size="10.00">SequencePlayerOutput</text>
</a>
</g>
</g>
<!-- Node5&#45;&gt;Node4 -->
<g id="edge1" class="edge">
<title>Node5&#45;&gt;Node4</title>
<path fill="none" stroke="midnightblue" d="M75,-47.12C75,-37.82 75,-27.06 75,-19.71"/>
<polygon fill="midnightblue" stroke="midnightblue" points="71.5,-47.41 75,-57.41 78.5,-47.41 71.5,-47.41"/>
</g>
<!-- Node6 -->
<g id="node3" class="node">
<title>Node6</title>
<g id="a_node3"><a xlink:href="../../d9/dea/classnap_1_1_resource.html" target="_top" xlink:title="Resource">
<polygon fill="white" stroke="black" points="0,-124.5 0,-143.5 58,-143.5 58,-124.5 0,-124.5"/>
<text text-anchor="middle" x="29" y="-131.5" font-family="Helvetica,sans-Serif" font-size="10.00">Resource</text>
</a>
</g>
</g>
<!-- Node6&#45;&gt;Node5 -->
<g id="edge2" class="edge">
<title>Node6&#45;&gt;Node5</title>
<path fill="none" stroke="midnightblue" d="M41.1,-115.9C50.04,-103.27 61.83,-86.6 68.89,-76.63"/>
<polygon fill="midnightblue" stroke="midnightblue" points="38.12,-114.05 35.2,-124.23 43.84,-118.09 38.12,-114.05"/>
</g>
<!-- Node7 -->
<g id="node4" class="node">
<title>Node7</title>
<g id="a_node4"><a xlink:href="../../de/d01/classnap_1_1rtti_1_1_object.html" target="_top" xlink:title="Object">
<polygon fill="white" stroke="black" points="6.5,-181.5 6.5,-200.5 51.5,-200.5 51.5,-181.5 6.5,-181.5"/>
<text text-anchor="middle" x="29" y="-188.5" font-family="Helvetica,sans-Serif" font-size="10.00">Object</text>
</a>
</g>
</g>
<!-- Node7&#45;&gt;Node6 -->
<g id="edge3" class="edge">
<title>Node7&#45;&gt;Node6</title>
<path fill="none" stroke="midnightblue" d="M29,-171.12C29,-161.82 29,-151.06 29,-143.71"/>
<polygon fill="midnightblue" stroke="midnightblue" points="25.5,-171.41 29,-181.41 32.5,-171.41 25.5,-171.41"/>
</g>
<!-- Node8 -->
<g id="node5" class="node">
<title>Node8</title>
<g id="a_node5"><a xlink:href="../../df/dbe/classnap_1_1_sequence_service.html" target="_top" xlink:title="SequenceService">
<polygon fill="white" stroke="black" points="76,-124.5 76,-143.5 168,-143.5 168,-124.5 76,-124.5"/>
<text text-anchor="middle" x="122" y="-131.5" font-family="Helvetica,sans-Serif" font-size="10.00">SequenceService</text>
</a>
</g>
</g>
<!-- Node8&#45;&gt;Node5 -->
<g id="edge4" class="edge">
<title>Node8&#45;&gt;Node5</title>
<path fill="none" stroke="#9a32cd" stroke-dasharray="5,2" d="M109.64,-115.9C100.51,-103.27 88.45,-86.6 81.24,-76.63"/>
<polygon fill="#9a32cd" stroke="#9a32cd" points="106.97,-118.18 115.66,-124.23 112.64,-114.08 106.97,-118.18"/>
<text text-anchor="middle" x="123.5" y="-98" font-family="Helvetica,sans-Serif" font-size="10.00"> mService</text>
</g>
<!-- Node9 -->
<g id="node6" class="node">
<title>Node9</title>
<g id="a_node6"><a xlink:href="../../d8/d8e/classnap_1_1_service.html" target="_top" xlink:title="Service">
<polygon fill="white" stroke="black" points="98,-181.5 98,-200.5 146,-200.5 146,-181.5 98,-181.5"/>
<text text-anchor="middle" x="122" y="-188.5" font-family="Helvetica,sans-Serif" font-size="10.00">Service</text>
</a>
</g>
</g>
<!-- Node9&#45;&gt;Node8 -->
<g id="edge5" class="edge">
<title>Node9&#45;&gt;Node8</title>
<path fill="none" stroke="midnightblue" d="M122,-171.12C122,-161.82 122,-151.06 122,-143.71"/>
<polygon fill="midnightblue" stroke="midnightblue" points="118.5,-171.41 122,-181.41 125.5,-171.41 118.5,-171.41"/>
</g>
</g>
</svg>
