<?xml version="1.0" encoding="UTF-8" standalone="no"?>
<!DOCTYPE svg PUBLIC "-//W3C//DTD SVG 1.1//EN"
 "http://www.w3.org/Graphics/SVG/1.1/DTD/svg11.dtd">
<!-- Generated by graphviz version 2.43.0 (0)
 -->
<!-- Title: SequencePlayerAudioOutput Pages: 1 -->
<svg width="188pt" height="209pt"
 viewBox="0.00 0.00 188.00 209.00" xmlns="http://www.w3.org/2000/svg" xmlns:xlink="http://www.w3.org/1999/xlink">
<g id="graph0" class="graph" transform="scale(1 1) rotate(0) translate(4 205)">
<title>SequencePlayerAudioOutput</title>
<polygon fill="white" stroke="transparent" points="-4,4 -4,-205 184,-205 184,4 -4,4"/>
<!-- Node1 -->
<g id="node1" class="node">
<title>Node1</title>
<g id="a_node1"><a xlink:title=" ">
<polygon fill="#bfbfbf" stroke="black" points="2.5,-0.5 2.5,-19.5 157.5,-19.5 157.5,-0.5 2.5,-0.5"/>
<text text-anchor="middle" x="80" y="-7.5" font-family="Helvetica,sans-Serif" font-size="10.00">SequencePlayerAudioOutput</text>
</a>
</g>
</g>
<!-- Node2 -->
<g id="node2" class="node">
<title>Node2</title>
<g id="a_node2"><a xlink:href="../../de/dac/classnap_1_1_sequence_player_output.html" target="_top" xlink:title=" ">
<polygon fill="white" stroke="black" points="16,-57.5 16,-76.5 144,-76.5 144,-57.5 16,-57.5"/>
<text text-anchor="middle" x="80" y="-64.5" font-family="Helvetica,sans-Serif" font-size="10.00">SequencePlayerOutput</text>
</a>
</g>
</g>
<!-- Node2&#45;&gt;Node1 -->
<g id="edge1" class="edge">
<title>Node2&#45;&gt;Node1</title>
<path fill="none" stroke="midnightblue" d="M80,-47.12C80,-37.82 80,-27.06 80,-19.71"/>
<polygon fill="midnightblue" stroke="midnightblue" points="76.5,-47.41 80,-57.41 83.5,-47.41 76.5,-47.41"/>
</g>
<!-- Node3 -->
<g id="node3" class="node">
<title>Node3</title>
<g id="a_node3"><a xlink:href="../../d9/dea/classnap_1_1_resource.html" target="_top" xlink:title=" ">
<polygon fill="white" stroke="black" points="0,-124.5 0,-143.5 62,-143.5 62,-124.5 0,-124.5"/>
<text text-anchor="middle" x="31" y="-131.5" font-family="Helvetica,sans-Serif" font-size="10.00">Resource</text>
</a>
</g>
</g>
<!-- Node3&#45;&gt;Node2 -->
<g id="edge2" class="edge">
<title>Node3&#45;&gt;Node2</title>
<path fill="none" stroke="midnightblue" d="M43.89,-115.9C53.41,-103.27 65.98,-86.6 73.5,-76.63"/>
<polygon fill="midnightblue" stroke="midnightblue" points="40.83,-114.14 37.61,-124.23 46.42,-118.36 40.83,-114.14"/>
</g>
<!-- Node4 -->
<g id="node4" class="node">
<title>Node4</title>
<g id="a_node4"><a xlink:href="../../de/d01/classnap_1_1rtti_1_1_object.html" target="_top" xlink:title=" ">
<polygon fill="white" stroke="black" points="7,-181.5 7,-200.5 55,-200.5 55,-181.5 7,-181.5"/>
<text text-anchor="middle" x="31" y="-188.5" font-family="Helvetica,sans-Serif" font-size="10.00">Object</text>
</a>
</g>
</g>
<!-- Node4&#45;&gt;Node3 -->
<g id="edge3" class="edge">
<title>Node4&#45;&gt;Node3</title>
<path fill="none" stroke="midnightblue" d="M31,-171.12C31,-161.82 31,-151.06 31,-143.71"/>
<polygon fill="midnightblue" stroke="midnightblue" points="27.5,-171.41 31,-181.41 34.5,-171.41 27.5,-171.41"/>
</g>
<!-- Node5 -->
<g id="node5" class="node">
<title>Node5</title>
<g id="a_node5"><a xlink:href="../../df/dbe/classnap_1_1_sequence_service.html" target="_top" xlink:title=" ">
<polygon fill="white" stroke="black" points="80,-124.5 80,-143.5 180,-143.5 180,-124.5 80,-124.5"/>
<text text-anchor="middle" x="130" y="-131.5" font-family="Helvetica,sans-Serif" font-size="10.00">SequenceService</text>
</a>
</g>
</g>
<!-- Node5&#45;&gt;Node2 -->
<g id="edge4" class="edge">
<title>Node5&#45;&gt;Node2</title>
<path fill="none" stroke="#9a32cd" stroke-dasharray="5,2" d="M117.13,-116.27C107.38,-103.6 94.39,-86.7 86.64,-76.63"/>
<polygon fill="#9a32cd" stroke="#9a32cd" points="114.39,-118.44 123.26,-124.23 119.93,-114.17 114.39,-118.44"/>
<text text-anchor="middle" x="132.5" y="-98" font-family="Helvetica,sans-Serif" font-size="10.00"> mService</text>
</g>
<!-- Node6 -->
<g id="node6" class="node">
<title>Node6</title>
<g id="a_node6"><a xlink:href="../../d8/d8e/classnap_1_1_service.html" target="_top" xlink:title=" ">
<polygon fill="white" stroke="black" points="103.5,-181.5 103.5,-200.5 156.5,-200.5 156.5,-181.5 103.5,-181.5"/>
<text text-anchor="middle" x="130" y="-188.5" font-family="Helvetica,sans-Serif" font-size="10.00">Service</text>
</a>
</g>
</g>
<!-- Node6&#45;&gt;Node5 -->
<g id="edge5" class="edge">
<title>Node6&#45;&gt;Node5</title>
<path fill="none" stroke="midnightblue" d="M130,-171.12C130,-161.82 130,-151.06 130,-143.71"/>
<polygon fill="midnightblue" stroke="midnightblue" points="126.5,-171.41 130,-181.41 133.5,-171.41 126.5,-171.41"/>
</g>
</g>
</svg>
