<?xml version="1.0" encoding="UTF-8" standalone="no"?>
<!DOCTYPE svg PUBLIC "-//W3C//DTD SVG 1.1//EN"
 "http://www.w3.org/Graphics/SVG/1.1/DTD/svg11.dtd">
<!-- Generated by graphviz version 2.43.0 (0)
 -->
<!-- Title: SequencePlayer Pages: 1 -->
<svg width="652pt" height="437pt"
 viewBox="0.00 0.00 652.00 436.78" xmlns="http://www.w3.org/2000/svg" xmlns:xlink="http://www.w3.org/1999/xlink">
<g id="graph0" class="graph" transform="scale(1 1) rotate(0) translate(4 432.78)">
<title>SequencePlayer</title>
<polygon fill="white" stroke="transparent" points="-4,4 -4,-432.78 648,-432.78 648,4 -4,4"/>
<!-- Node1 -->
<g id="node1" class="node">
<title>Node1</title>
<g id="a_node1"><a xlink:title=" ">
<polygon fill="#bfbfbf" stroke="black" points="549,-203 549,-222 644,-222 644,-203 549,-203"/>
<text text-anchor="middle" x="596.5" y="-210" font-family="Helvetica,sans-Serif" font-size="10.00">SequencePlayer</text>
</a>
</g>
</g>
<!-- Node2 -->
<g id="node2" class="node">
<title>Node2</title>
<g id="a_node2"><a xlink:href="../../d3/dc5/classnap_1_1_device.html" target="_top" xlink:title=" ">
<polygon fill="white" stroke="black" points="275,-404 275,-423 325,-423 325,-404 275,-404"/>
<text text-anchor="middle" x="300" y="-411" font-family="Helvetica,sans-Serif" font-size="10.00">Device</text>
</a>
</g>
</g>
<!-- Node2&#45;&gt;Node1 -->
<g id="edge1" class="edge">
<title>Node2&#45;&gt;Node1</title>
<path fill="none" stroke="midnightblue" d="M335.21,-421.2C384.03,-430.08 474.07,-438.35 531,-394.5 587.83,-350.72 594.72,-252.96 595.45,-222.05"/>
<polygon fill="midnightblue" stroke="midnightblue" points="335.64,-417.72 325.15,-419.26 334.31,-424.6 335.64,-417.72"/>
</g>
<!-- Node3 -->
<g id="node3" class="node">
<title>Node3</title>
<g id="a_node3"><a xlink:href="../../d9/dea/classnap_1_1_resource.html" target="_top" xlink:title=" ">
<polygon fill="white" stroke="black" points="97,-404 97,-423 159,-423 159,-404 97,-404"/>
<text text-anchor="middle" x="128" y="-411" font-family="Helvetica,sans-Serif" font-size="10.00">Resource</text>
</a>
</g>
</g>
<!-- Node3&#45;&gt;Node2 -->
<g id="edge2" class="edge">
<title>Node3&#45;&gt;Node2</title>
<path fill="none" stroke="midnightblue" d="M169.18,-413.5C202,-413.5 247.3,-413.5 274.79,-413.5"/>
<polygon fill="midnightblue" stroke="midnightblue" points="169,-410 159,-413.5 169,-417 169,-410"/>
</g>
<!-- Node4 -->
<g id="node4" class="node">
<title>Node4</title>
<g id="a_node4"><a xlink:href="../../de/d01/classnap_1_1rtti_1_1_object.html" target="_top" xlink:title=" ">
<polygon fill="white" stroke="black" points="0,-404 0,-423 48,-423 48,-404 0,-404"/>
<text text-anchor="middle" x="24" y="-411" font-family="Helvetica,sans-Serif" font-size="10.00">Object</text>
</a>
</g>
</g>
<!-- Node4&#45;&gt;Node3 -->
<g id="edge3" class="edge">
<title>Node4&#45;&gt;Node3</title>
<path fill="none" stroke="midnightblue" d="M58.17,-413.5C70.66,-413.5 84.79,-413.5 96.97,-413.5"/>
<polygon fill="midnightblue" stroke="midnightblue" points="58.15,-410 48.15,-413.5 58.15,-417 58.15,-410"/>
</g>
<!-- Node5 -->
<g id="node5" class="node">
<title>Node5</title>
<g id="a_node5"><a xlink:href="../../de/d80/classnap_1_1_signal.html" target="_top" xlink:title=" ">
<polygon fill="white" stroke="black" points="209,-356 209,-375 391,-375 391,-356 209,-356"/>
<text text-anchor="middle" x="300" y="-363" font-family="Helvetica,sans-Serif" font-size="10.00">Signal&lt; nap::SequencePlayer &amp; &gt;</text>
</a>
</g>
</g>
<!-- Node5&#45;&gt;Node1 -->
<g id="edge4" class="edge">
<title>Node5&#45;&gt;Node1</title>
<path fill="none" stroke="#9a32cd" stroke-dasharray="5,2" d="M400.98,-359.04C452.96,-353.98 509.94,-345.24 531,-330.5 569.83,-303.32 587.63,-245.05 593.34,-222.08"/>
<polygon fill="#9a32cd" stroke="#9a32cd" points="400.63,-355.55 391,-359.97 401.29,-362.52 400.63,-355.55"/>
<text text-anchor="middle" x="470.5" y="-382.5" font-family="Helvetica,sans-Serif" font-size="10.00"> postTick</text>
<text text-anchor="middle" x="470.5" y="-371.5" font-family="Helvetica,sans-Serif" font-size="10.00">edited</text>
<text text-anchor="middle" x="470.5" y="-360.5" font-family="Helvetica,sans-Serif" font-size="10.00">preTick</text>
</g>
<!-- Node6 -->
<g id="node6" class="node">
<title>Node6</title>
<g id="a_node6"><a xlink:href="../../de/d80/classnap_1_1_signal.html" target="_top" xlink:title=" ">
<polygon fill="white" stroke="black" points="220,-306.5 220,-336.5 380,-336.5 380,-306.5 220,-306.5"/>
<text text-anchor="start" x="228" y="-324.5" font-family="Helvetica,sans-Serif" font-size="10.00">Signal&lt; nap::SequencePlayer</text>
<text text-anchor="middle" x="300" y="-313.5" font-family="Helvetica,sans-Serif" font-size="10.00"> &amp;, bool &gt;</text>
</a>
</g>
</g>
<!-- Node6&#45;&gt;Node1 -->
<g id="edge5" class="edge">
<title>Node6&#45;&gt;Node1</title>
<path fill="none" stroke="#9a32cd" stroke-dasharray="5,2" d="M390.37,-310C434.39,-301.92 487.27,-288.49 531,-266.5 553.7,-255.09 575.34,-234.24 586.87,-222.06"/>
<polygon fill="#9a32cd" stroke="#9a32cd" points="389.49,-306.61 380.25,-311.8 390.71,-313.5 389.49,-306.61"/>
<text text-anchor="middle" x="470.5" y="-318.5" font-family="Helvetica,sans-Serif" font-size="10.00"> playStateChanged</text>
<text text-anchor="middle" x="470.5" y="-307.5" font-family="Helvetica,sans-Serif" font-size="10.00">pauseStateChanged</text>
</g>
<!-- Node7 -->
<g id="node7" class="node">
<title>Node7</title>
<g id="a_node7"><a xlink:href="../../dd/d7c/classnap_1_1rtti_1_1_object_ptr.html" target="_top" xlink:title=" ">
<polygon fill="white" stroke="black" points="228,-257.5 228,-287.5 372,-287.5 372,-257.5 228,-257.5"/>
<text text-anchor="start" x="236" y="-275.5" font-family="Helvetica,sans-Serif" font-size="10.00">ObjectPtr&lt; nap::Sequence</text>
<text text-anchor="middle" x="300" y="-264.5" font-family="Helvetica,sans-Serif" font-size="10.00">PlayerClock &gt;</text>
</a>
</g>
</g>
<!-- Node7&#45;&gt;Node1 -->
<g id="edge6" class="edge">
<title>Node7&#45;&gt;Node1</title>
<path fill="none" stroke="#9a32cd" stroke-dasharray="5,2" d="M382.2,-257.34C426.29,-248.92 481.72,-238.05 531,-227.5 538.98,-225.79 547.5,-223.88 555.64,-222"/>
<polygon fill="#9a32cd" stroke="#9a32cd" points="381.28,-253.95 372.11,-259.26 382.58,-260.83 381.28,-253.95"/>
<text text-anchor="middle" x="470.5" y="-254.5" font-family="Helvetica,sans-Serif" font-size="10.00"> mClock</text>
</g>
<!-- Node8 -->
<g id="node8" class="node">
<title>Node8</title>
<g id="a_node8"><a xlink:href="../../d7/dcb/classnap_1_1rtti_1_1_object_ptr_base.html" target="_top" xlink:title=" ">
<polygon fill="white" stroke="black" points="85,-263 85,-282 171,-282 171,-263 85,-263"/>
<text text-anchor="middle" x="128" y="-270" font-family="Helvetica,sans-Serif" font-size="10.00">ObjectPtrBase</text>
</a>
</g>
</g>
<!-- Node8&#45;&gt;Node7 -->
<g id="edge7" class="edge">
<title>Node8&#45;&gt;Node7</title>
<path fill="none" stroke="midnightblue" d="M181.38,-272.5C196.01,-272.5 212.16,-272.5 227.69,-272.5"/>
<polygon fill="midnightblue" stroke="midnightblue" points="181.02,-269 171.02,-272.5 181.02,-276 181.02,-269"/>
</g>
<!-- Node9 -->
<g id="node9" class="node">
<title>Node9</title>
<g id="a_node9"><a xlink:title=" ">
<polygon fill="white" stroke="#bfbfbf" points="208,-186.5 208,-238.5 392,-238.5 392,-186.5 208,-186.5"/>
<text text-anchor="start" x="216" y="-226.5" font-family="Helvetica,sans-Serif" font-size="10.00">Signal&lt; std::function</text>
<text text-anchor="start" x="216" y="-215.5" font-family="Helvetica,sans-Serif" font-size="10.00">&lt; void(const std::string</text>
<text text-anchor="start" x="216" y="-204.5" font-family="Helvetica,sans-Serif" font-size="10.00"> &amp;, std::unique_ptr&lt; nap</text>
<text text-anchor="middle" x="300" y="-193.5" font-family="Helvetica,sans-Serif" font-size="10.00">::SequencePlayerAdapter &gt;)&gt; &amp; &gt;</text>
</a>
</g>
</g>
<!-- Node9&#45;&gt;Node1 -->
<g id="edge8" class="edge">
<title>Node9&#45;&gt;Node1</title>
<path fill="none" stroke="#9a32cd" stroke-dasharray="5,2" d="M402.32,-212.5C452.03,-212.5 509.5,-212.5 548.75,-212.5"/>
<polygon fill="#9a32cd" stroke="#9a32cd" points="402.16,-209 392.16,-212.5 402.16,-216 402.16,-209"/>
<text text-anchor="middle" x="470.5" y="-215.5" font-family="Helvetica,sans-Serif" font-size="10.00"> adaptersCreated</text>
</g>
<!-- Node10 -->
<g id="node10" class="node">
<title>Node10</title>
<g id="a_node10"><a xlink:href="../../de/d80/classnap_1_1_signal.html" target="_top" xlink:title=" ">
<polygon fill="white" stroke="black" points="220,-137.5 220,-167.5 380,-167.5 380,-137.5 220,-137.5"/>
<text text-anchor="start" x="228" y="-155.5" font-family="Helvetica,sans-Serif" font-size="10.00">Signal&lt; nap::SequencePlayer</text>
<text text-anchor="middle" x="300" y="-144.5" font-family="Helvetica,sans-Serif" font-size="10.00"> &amp;, double &gt;</text>
</a>
</g>
</g>
<!-- Node10&#45;&gt;Node1 -->
<g id="edge9" class="edge">
<title>Node10&#45;&gt;Node1</title>
<path fill="none" stroke="#9a32cd" stroke-dasharray="5,2" d="M390.26,-169.2C432.93,-177.38 484.68,-187.59 531,-197.5 538.98,-199.21 547.5,-201.12 555.64,-203"/>
<polygon fill="#9a32cd" stroke="#9a32cd" points="390.66,-165.72 380.18,-167.28 389.34,-172.59 390.66,-165.72"/>
<text text-anchor="middle" x="470.5" y="-200.5" font-family="Helvetica,sans-Serif" font-size="10.00"> playerTimeChanged</text>
</g>
<!-- Node11 -->
<g id="node11" class="node">
<title>Node11</title>
<g id="a_node11"><a xlink:href="../../de/d80/classnap_1_1_signal.html" target="_top" xlink:title=" ">
<polygon fill="white" stroke="black" points="220,-88.5 220,-118.5 380,-118.5 380,-88.5 220,-88.5"/>
<text text-anchor="start" x="228" y="-106.5" font-family="Helvetica,sans-Serif" font-size="10.00">Signal&lt; nap::SequencePlayer</text>
<text text-anchor="middle" x="300" y="-95.5" font-family="Helvetica,sans-Serif" font-size="10.00"> &amp;, float &gt;</text>
</a>
</g>
</g>
<!-- Node11&#45;&gt;Node1 -->
<g id="edge10" class="edge">
<title>Node11&#45;&gt;Node1</title>
<path fill="none" stroke="#9a32cd" stroke-dasharray="5,2" d="M390.19,-114.33C434.29,-122.15 487.28,-135.38 531,-157.5 553.85,-169.06 575.44,-190.31 586.92,-202.74"/>
<polygon fill="#9a32cd" stroke="#9a32cd" points="390.51,-110.83 380.06,-112.59 389.33,-117.73 390.51,-110.83"/>
<text text-anchor="middle" x="470.5" y="-160.5" font-family="Helvetica,sans-Serif" font-size="10.00"> playbackSpeedChanged</text>
</g>
<!-- Node12 -->
<g id="node12" class="node">
<title>Node12</title>
<g id="a_node12"><a xlink:href="../../df/dbe/classnap_1_1_sequence_service.html" target="_top" xlink:title=" ">
<polygon fill="white" stroke="black" points="250,-50 250,-69 350,-69 350,-50 250,-50"/>
<text text-anchor="middle" x="300" y="-57" font-family="Helvetica,sans-Serif" font-size="10.00">SequenceService</text>
</a>
</g>
</g>
<!-- Node12&#45;&gt;Node1 -->
<g id="edge11" class="edge">
<title>Node12&#45;&gt;Node1</title>
<path fill="none" stroke="#9a32cd" stroke-dasharray="5,2" d="M360.68,-57.84C410.43,-59.31 481.01,-68.36 531,-103.5 566.98,-128.79 586.11,-181.09 592.76,-202.77"/>
<polygon fill="#9a32cd" stroke="#9a32cd" points="360.46,-54.33 350.39,-57.63 360.32,-61.33 360.46,-54.33"/>
<text text-anchor="middle" x="470.5" y="-106.5" font-family="Helvetica,sans-Serif" font-size="10.00"> mService</text>
</g>
<!-- Node13 -->
<g id="node13" class="node">
<title>Node13</title>
<g id="a_node13"><a xlink:href="../../d8/d8e/classnap_1_1_service.html" target="_top" xlink:title=" ">
<polygon fill="white" stroke="black" points="101.5,-50 101.5,-69 154.5,-69 154.5,-50 101.5,-50"/>
<text text-anchor="middle" x="128" y="-57" font-family="Helvetica,sans-Serif" font-size="10.00">Service</text>
</a>
</g>
</g>
<!-- Node13&#45;&gt;Node12 -->
<g id="edge12" class="edge">
<title>Node13&#45;&gt;Node12</title>
<path fill="none" stroke="midnightblue" d="M164.86,-59.5C189.6,-59.5 222.79,-59.5 249.97,-59.5"/>
<polygon fill="midnightblue" stroke="midnightblue" points="164.82,-56 154.82,-59.5 164.82,-63 164.82,-56"/>
</g>
<!-- Node14 -->
<g id="node14" class="node">
<title>Node14</title>
<g id="a_node14"><a xlink:title=" ">
<polygon fill="white" stroke="#bfbfbf" points="220,-0.5 220,-30.5 380,-30.5 380,-0.5 220,-0.5"/>
<text text-anchor="start" x="228" y="-18.5" font-family="Helvetica,sans-Serif" font-size="10.00">Signal&lt; nap::SequencePlayer</text>
<text text-anchor="middle" x="300" y="-7.5" font-family="Helvetica,sans-Serif" font-size="10.00"> &amp;, std::string &gt;</text>
</a>
</g>
</g>
<!-- Node14&#45;&gt;Node1 -->
<g id="edge13" class="edge">
<title>Node14&#45;&gt;Node1</title>
<path fill="none" stroke="#9a32cd" stroke-dasharray="5,2" d="M390.19,-7.07C436.64,-7.36 491.78,-15.61 531,-46.5 582.25,-86.86 592.84,-173.46 594.97,-202.66"/>
<polygon fill="#9a32cd" stroke="#9a32cd" points="390.09,-3.57 380.11,-7.13 390.13,-10.57 390.09,-3.57"/>
<text text-anchor="middle" x="470.5" y="-49.5" font-family="Helvetica,sans-Serif" font-size="10.00"> sequenceLoaded</text>
</g>
</g>
</svg>
