<?xml version="1.0" encoding="UTF-8" standalone="no"?>
<!DOCTYPE svg PUBLIC "-//W3C//DTD SVG 1.1//EN"
 "http://www.w3.org/Graphics/SVG/1.1/DTD/svg11.dtd">
<!-- Generated by graphviz version 2.48.0 (20210717.1556)
 -->
<!-- Title: BaseShader Pages: 1 -->
<svg width="536pt" height="218pt"
 viewBox="0.00 0.00 536.00 218.00" xmlns="http://www.w3.org/2000/svg" xmlns:xlink="http://www.w3.org/1999/xlink">
<g id="graph0" class="graph" transform="scale(1 1) rotate(0) translate(4 214)">
<title>BaseShader</title>
<polygon fill="white" stroke="transparent" points="-4,4 -4,-214 532,-214 532,4 -4,4"/>
<!-- Node0 -->
<g id="node1" class="node">
<title>Node0</title>
<polygon fill="#bfbfbf" stroke="black" points="175,-114.5 175,-133.5 245,-133.5 245,-114.5 175,-114.5"/>
<text text-anchor="middle" x="210" y="-121.5" font-family="Helvetica,sans-Serif" font-size="10.00">BaseShader</text>
</g>
<!-- Node3 -->
<g id="node4" class="node">
<title>Node3</title>
<g id="a_node4"><a xlink:href="../../d5/d73/classnap_1_1_compute_shader.html" target="_top" xlink:title="ComputeShader">
<polygon fill="white" stroke="black" points="281,-161.5 281,-180.5 367,-180.5 367,-161.5 281,-161.5"/>
<text text-anchor="middle" x="324" y="-168.5" font-family="Helvetica,sans-Serif" font-size="10.00">ComputeShader</text>
</a>
</g>
</g>
<!-- Node0&#45;&gt;Node3 -->
<g id="edge3" class="edge">
<title>Node0&#45;&gt;Node3</title>
<path fill="none" stroke="midnightblue" d="M243.01,-137.43C261.19,-145.06 283.54,-154.44 299.98,-161.34"/>
<polygon fill="midnightblue" stroke="midnightblue" points="244.24,-134.15 233.66,-133.51 241.53,-140.61 244.24,-134.15"/>
</g>
<!-- Node5 -->
<g id="node6" class="node">
<title>Node5</title>
<g id="a_node6"><a xlink:href="../../dd/d44/classnap_1_1_shader.html" target="_top" xlink:title="Shader">
<polygon fill="white" stroke="black" points="300.5,-95.5 300.5,-114.5 347.5,-114.5 347.5,-95.5 300.5,-95.5"/>
<text text-anchor="middle" x="324" y="-102.5" font-family="Helvetica,sans-Serif" font-size="10.00">Shader</text>
</a>
</g>
</g>
<!-- Node0&#45;&gt;Node5 -->
<g id="edge5" class="edge">
<title>Node0&#45;&gt;Node5</title>
<path fill="none" stroke="midnightblue" d="M255.14,-116.51C270.61,-113.89 287.34,-111.05 300.31,-108.85"/>
<polygon fill="midnightblue" stroke="midnightblue" points="254.49,-113.07 245.21,-118.2 255.66,-119.97 254.49,-113.07"/>
</g>
<!-- Node1 -->
<g id="node2" class="node">
<title>Node1</title>
<g id="a_node2"><a xlink:href="../../d9/dea/classnap_1_1_resource.html" target="_top" xlink:title="Resource">
<polygon fill="white" stroke="black" points="81,-114.5 81,-133.5 139,-133.5 139,-114.5 81,-114.5"/>
<text text-anchor="middle" x="110" y="-121.5" font-family="Helvetica,sans-Serif" font-size="10.00">Resource</text>
</a>
</g>
</g>
<!-- Node1&#45;&gt;Node0 -->
<g id="edge1" class="edge">
<title>Node1&#45;&gt;Node0</title>
<path fill="none" stroke="midnightblue" d="M149.34,-124C157.69,-124 166.47,-124 174.64,-124"/>
<polygon fill="midnightblue" stroke="midnightblue" points="149.08,-120.5 139.08,-124 149.08,-127.5 149.08,-120.5"/>
</g>
<!-- Node2 -->
<g id="node3" class="node">
<title>Node2</title>
<g id="a_node3"><a xlink:href="../../de/d01/classnap_1_1rtti_1_1_object.html" target="_top" xlink:title="Object">
<polygon fill="white" stroke="black" points="0,-114.5 0,-133.5 45,-133.5 45,-114.5 0,-114.5"/>
<text text-anchor="middle" x="22.5" y="-121.5" font-family="Helvetica,sans-Serif" font-size="10.00">Object</text>
</a>
</g>
</g>
<!-- Node2&#45;&gt;Node1 -->
<g id="edge2" class="edge">
<title>Node2&#45;&gt;Node1</title>
<path fill="none" stroke="midnightblue" d="M55.31,-124C63.73,-124 72.76,-124 80.96,-124"/>
<polygon fill="midnightblue" stroke="midnightblue" points="55.08,-120.5 45.08,-124 55.08,-127.5 55.08,-120.5"/>
</g>
<!-- Node4 -->
<g id="node5" class="node">
<title>Node4</title>
<g id="a_node5"><a xlink:href="../../d7/de3/classnap_1_1_compute_shader_from_file.html" target="_top" xlink:title="ComputeShaderFromFile">
<polygon fill="white" stroke="black" points="403,-190.5 403,-209.5 528,-209.5 528,-190.5 403,-190.5"/>
<text text-anchor="middle" x="465.5" y="-197.5" font-family="Helvetica,sans-Serif" font-size="10.00">ComputeShaderFromFile</text>
</a>
</g>
</g>
<!-- Node3&#45;&gt;Node4 -->
<g id="edge4" class="edge">
<title>Node3&#45;&gt;Node4</title>
<path fill="none" stroke="midnightblue" d="M377.36,-181.88C390.89,-184.7 405.35,-187.7 418.52,-190.44"/>
<polygon fill="midnightblue" stroke="midnightblue" points="377.74,-178.39 367.23,-179.78 376.31,-185.24 377.74,-178.39"/>
</g>
<!-- Node6 -->
<g id="node7" class="node">
<title>Node6</title>
<g id="a_node7"><a xlink:href="../../dd/d51/classnap_1_1_color_adjustment_shader.html" target="_top" xlink:title="ColorAdjustmentShader">
<polygon fill="white" stroke="black" points="406,-152.5 406,-171.5 525,-171.5 525,-152.5 406,-152.5"/>
<text text-anchor="middle" x="465.5" y="-159.5" font-family="Helvetica,sans-Serif" font-size="10.00">ColorAdjustmentShader</text>
</a>
</g>
</g>
<!-- Node5&#45;&gt;Node6 -->
<g id="edge6" class="edge">
<title>Node5&#45;&gt;Node6</title>
<path fill="none" stroke="midnightblue" d="M351.73,-119.29C366.58,-126.9 385.53,-136.09 403,-143 411.73,-146.45 421.35,-149.68 430.34,-152.47"/>
<polygon fill="midnightblue" stroke="midnightblue" points="353.1,-116.06 342.62,-114.55 349.88,-122.27 353.1,-116.06"/>
</g>
<!-- Node7 -->
<g id="node8" class="node">
<title>Node7</title>
<g id="a_node8"><a xlink:href="../../d7/de0/classnap_1_1_constant_shader.html" target="_top" xlink:title="ConstantShader">
<polygon fill="white" stroke="black" points="422.5,-114.5 422.5,-133.5 508.5,-133.5 508.5,-114.5 422.5,-114.5"/>
<text text-anchor="middle" x="465.5" y="-121.5" font-family="Helvetica,sans-Serif" font-size="10.00">ConstantShader</text>
</a>
</g>
</g>
<!-- Node5&#45;&gt;Node7 -->
<g id="edge7" class="edge">
<title>Node5&#45;&gt;Node7</title>
<path fill="none" stroke="midnightblue" d="M357.83,-109.47C377.1,-112.1 401.66,-115.44 422.35,-118.26"/>
<polygon fill="midnightblue" stroke="midnightblue" points="358.1,-105.98 347.72,-108.09 357.16,-112.91 358.1,-105.98"/>
</g>
<!-- Node8 -->
<g id="node9" class="node">
<title>Node8</title>
<g id="a_node9"><a xlink:href="../../d4/d6c/classnap_1_1_font_shader.html" target="_top" xlink:title="FontShader">
<polygon fill="white" stroke="black" points="432,-76.5 432,-95.5 499,-95.5 499,-76.5 432,-76.5"/>
<text text-anchor="middle" x="465.5" y="-83.5" font-family="Helvetica,sans-Serif" font-size="10.00">FontShader</text>
</a>
</g>
</g>
<!-- Node5&#45;&gt;Node8 -->
<g id="edge8" class="edge">
<title>Node5&#45;&gt;Node8</title>
<path fill="none" stroke="midnightblue" d="M357.75,-100.54C380.09,-97.5 409.57,-93.48 431.89,-90.44"/>
<polygon fill="midnightblue" stroke="midnightblue" points="357.16,-97.09 347.72,-101.91 358.1,-104.02 357.16,-97.09"/>
</g>
<!-- Node9 -->
<g id="node10" class="node">
<title>Node9</title>
<g id="a_node10"><a xlink:href="../../dd/dee/classnap_1_1_gnomon_shader.html" target="_top" xlink:title="GnomonShader">
<polygon fill="white" stroke="black" points="423.5,-38.5 423.5,-57.5 507.5,-57.5 507.5,-38.5 423.5,-38.5"/>
<text text-anchor="middle" x="465.5" y="-45.5" font-family="Helvetica,sans-Serif" font-size="10.00">GnomonShader</text>
</a>
</g>
</g>
<!-- Node5&#45;&gt;Node9 -->
<g id="edge9" class="edge">
<title>Node5&#45;&gt;Node9</title>
<path fill="none" stroke="midnightblue" d="M351.73,-90.71C366.58,-83.1 385.53,-73.91 403,-67 411.73,-63.55 421.35,-60.32 430.34,-57.53"/>
<polygon fill="midnightblue" stroke="midnightblue" points="349.88,-87.73 342.62,-95.45 353.1,-93.94 349.88,-87.73"/>
</g>
<!-- Node10 -->
<g id="node11" class="node">
<title>Node10</title>
<g id="a_node11"><a xlink:href="../../d6/d49/classnap_1_1_shader_from_file.html" target="_top" xlink:title="ShaderFromFile">
<polygon fill="white" stroke="black" points="422.5,-0.5 422.5,-19.5 508.5,-19.5 508.5,-0.5 422.5,-0.5"/>
<text text-anchor="middle" x="465.5" y="-7.5" font-family="Helvetica,sans-Serif" font-size="10.00">ShaderFromFile</text>
</a>
</g>
</g>
<!-- Node5&#45;&gt;Node10 -->
<g id="edge10" class="edge">
<title>Node5&#45;&gt;Node10</title>
<path fill="none" stroke="midnightblue" d="M338.91,-87.23C353.25,-70.03 377.12,-44.38 403,-29 409.44,-25.18 416.72,-22.05 423.96,-19.52"/>
<polygon fill="midnightblue" stroke="midnightblue" points="335.9,-85.38 332.32,-95.35 341.34,-89.79 335.9,-85.38"/>
</g>
</g>
</svg>
