<?xml version="1.0" encoding="UTF-8" standalone="no"?>
<!DOCTYPE svg PUBLIC "-//W3C//DTD SVG 1.1//EN"
 "http://www.w3.org/Graphics/SVG/1.1/DTD/svg11.dtd">
<!-- Generated by graphviz version 2.43.0 (0)
 -->
<!-- Title: BaseShader Pages: 1 -->
<svg width="568pt" height="218pt"
 viewBox="0.00 0.00 568.00 218.00" xmlns="http://www.w3.org/2000/svg" xmlns:xlink="http://www.w3.org/1999/xlink">
<g id="graph0" class="graph" transform="scale(1 1) rotate(0) translate(4 214)">
<title>BaseShader</title>
<polygon fill="white" stroke="transparent" points="-4,4 -4,-214 564,-214 564,4 -4,4"/>
<!-- Node1 -->
<g id="node1" class="node">
<title>Node1</title>
<g id="a_node1"><a xlink:title=" ">
<polygon fill="#bfbfbf" stroke="black" points="182,-114.5 182,-133.5 256,-133.5 256,-114.5 182,-114.5"/>
<text text-anchor="middle" x="219" y="-121.5" font-family="Helvetica,sans-Serif" font-size="10.00">BaseShader</text>
</a>
</g>
</g>
<!-- Node4 -->
<g id="node4" class="node">
<title>Node4</title>
<g id="a_node4"><a xlink:href="../../d5/d73/classnap_1_1_compute_shader.html" target="_top" xlink:title=" ">
<polygon fill="white" stroke="black" points="292,-161.5 292,-180.5 387,-180.5 387,-161.5 292,-161.5"/>
<text text-anchor="middle" x="339.5" y="-168.5" font-family="Helvetica,sans-Serif" font-size="10.00">ComputeShader</text>
</a>
</g>
</g>
<!-- Node1&#45;&gt;Node4 -->
<g id="edge3" class="edge">
<title>Node1&#45;&gt;Node4</title>
<path fill="none" stroke="midnightblue" d="M253.33,-137.22C272.67,-144.89 296.59,-154.38 314.15,-161.34"/>
<polygon fill="midnightblue" stroke="midnightblue" points="254.57,-133.94 243.98,-133.51 251.99,-140.45 254.57,-133.94"/>
</g>
<!-- Node6 -->
<g id="node6" class="node">
<title>Node6</title>
<g id="a_node6"><a xlink:href="../../dd/d44/classnap_1_1_shader.html" target="_top" xlink:title=" ">
<polygon fill="white" stroke="black" points="314.5,-95.5 314.5,-114.5 364.5,-114.5 364.5,-95.5 314.5,-95.5"/>
<text text-anchor="middle" x="339.5" y="-102.5" font-family="Helvetica,sans-Serif" font-size="10.00">Shader</text>
</a>
</g>
</g>
<!-- Node1&#45;&gt;Node6 -->
<g id="edge5" class="edge">
<title>Node1&#45;&gt;Node6</title>
<path fill="none" stroke="midnightblue" d="M266.23,-116.59C282.73,-113.94 300.63,-111.07 314.5,-108.85"/>
<polygon fill="midnightblue" stroke="midnightblue" points="265.52,-113.16 256.2,-118.2 266.63,-120.07 265.52,-113.16"/>
</g>
<!-- Node2 -->
<g id="node2" class="node">
<title>Node2</title>
<g id="a_node2"><a xlink:href="../../d9/dea/classnap_1_1_resource.html" target="_top" xlink:title=" ">
<polygon fill="white" stroke="black" points="84,-114.5 84,-133.5 146,-133.5 146,-114.5 84,-114.5"/>
<text text-anchor="middle" x="115" y="-121.5" font-family="Helvetica,sans-Serif" font-size="10.00">Resource</text>
</a>
</g>
</g>
<!-- Node2&#45;&gt;Node1 -->
<g id="edge1" class="edge">
<title>Node2&#45;&gt;Node1</title>
<path fill="none" stroke="midnightblue" d="M156.07,-124C164.52,-124 173.38,-124 181.67,-124"/>
<polygon fill="midnightblue" stroke="midnightblue" points="156.05,-120.5 146.05,-124 156.05,-127.5 156.05,-120.5"/>
</g>
<!-- Node3 -->
<g id="node3" class="node">
<title>Node3</title>
<g id="a_node3"><a xlink:href="../../de/d01/classnap_1_1rtti_1_1_object.html" target="_top" xlink:title=" ">
<polygon fill="white" stroke="black" points="0,-114.5 0,-133.5 48,-133.5 48,-114.5 0,-114.5"/>
<text text-anchor="middle" x="24" y="-121.5" font-family="Helvetica,sans-Serif" font-size="10.00">Object</text>
</a>
</g>
</g>
<!-- Node3&#45;&gt;Node2 -->
<g id="edge2" class="edge">
<title>Node3&#45;&gt;Node2</title>
<path fill="none" stroke="midnightblue" d="M58.49,-124C66.78,-124 75.61,-124 83.73,-124"/>
<polygon fill="midnightblue" stroke="midnightblue" points="58.38,-120.5 48.38,-124 58.38,-127.5 58.38,-120.5"/>
</g>
<!-- Node5 -->
<g id="node5" class="node">
<title>Node5</title>
<g id="a_node5"><a xlink:href="../../d7/de3/classnap_1_1_compute_shader_from_file.html" target="_top" xlink:title=" ">
<polygon fill="white" stroke="black" points="423,-190.5 423,-209.5 560,-209.5 560,-190.5 423,-190.5"/>
<text text-anchor="middle" x="491.5" y="-197.5" font-family="Helvetica,sans-Serif" font-size="10.00">ComputeShaderFromFile</text>
</a>
</g>
</g>
<!-- Node4&#45;&gt;Node5 -->
<g id="edge4" class="edge">
<title>Node4&#45;&gt;Node5</title>
<path fill="none" stroke="midnightblue" d="M397.03,-181.93C411.59,-184.74 427.14,-187.75 441.29,-190.49"/>
<polygon fill="midnightblue" stroke="midnightblue" points="397.62,-178.48 387.14,-180.02 396.29,-185.35 397.62,-178.48"/>
</g>
<!-- Node7 -->
<g id="node7" class="node">
<title>Node7</title>
<g id="a_node7"><a xlink:href="../../dd/d51/classnap_1_1_color_adjustment_shader.html" target="_top" xlink:title=" ">
<polygon fill="white" stroke="black" points="425.5,-152.5 425.5,-171.5 557.5,-171.5 557.5,-152.5 425.5,-152.5"/>
<text text-anchor="middle" x="491.5" y="-159.5" font-family="Helvetica,sans-Serif" font-size="10.00">ColorAdjustmentShader</text>
</a>
</g>
</g>
<!-- Node6&#45;&gt;Node7 -->
<g id="edge6" class="edge">
<title>Node6&#45;&gt;Node7</title>
<path fill="none" stroke="midnightblue" d="M368.34,-119.15C384.12,-126.84 404.37,-136.14 423,-143 432.48,-146.49 442.91,-149.72 452.68,-152.48"/>
<polygon fill="midnightblue" stroke="midnightblue" points="369.66,-115.9 359.15,-114.62 366.57,-122.18 369.66,-115.9"/>
</g>
<!-- Node8 -->
<g id="node8" class="node">
<title>Node8</title>
<g id="a_node8"><a xlink:href="../../d7/de0/classnap_1_1_constant_shader.html" target="_top" xlink:title=" ">
<polygon fill="white" stroke="black" points="444.5,-114.5 444.5,-133.5 538.5,-133.5 538.5,-114.5 444.5,-114.5"/>
<text text-anchor="middle" x="491.5" y="-121.5" font-family="Helvetica,sans-Serif" font-size="10.00">ConstantShader</text>
</a>
</g>
</g>
<!-- Node6&#45;&gt;Node8 -->
<g id="edge7" class="edge">
<title>Node6&#45;&gt;Node8</title>
<path fill="none" stroke="midnightblue" d="M374.79,-109.34C395.42,-111.96 421.93,-115.31 444.37,-118.16"/>
<polygon fill="midnightblue" stroke="midnightblue" points="374.96,-105.84 364.6,-108.05 374.08,-112.78 374.96,-105.84"/>
</g>
<!-- Node9 -->
<g id="node9" class="node">
<title>Node9</title>
<g id="a_node9"><a xlink:href="../../d4/d6c/classnap_1_1_font_shader.html" target="_top" xlink:title=" ">
<polygon fill="white" stroke="black" points="456,-76.5 456,-95.5 527,-95.5 527,-76.5 456,-76.5"/>
<text text-anchor="middle" x="491.5" y="-83.5" font-family="Helvetica,sans-Serif" font-size="10.00">FontShader</text>
</a>
</g>
</g>
<!-- Node6&#45;&gt;Node9 -->
<g id="edge8" class="edge">
<title>Node6&#45;&gt;Node9</title>
<path fill="none" stroke="midnightblue" d="M374.79,-100.66C399.05,-97.58 431.48,-93.48 455.84,-90.39"/>
<polygon fill="midnightblue" stroke="midnightblue" points="374.08,-97.22 364.6,-101.95 374.96,-104.16 374.08,-97.22"/>
</g>
<!-- Node10 -->
<g id="node10" class="node">
<title>Node10</title>
<g id="a_node10"><a xlink:href="../../dd/dee/classnap_1_1_gnomon_shader.html" target="_top" xlink:title=" ">
<polygon fill="white" stroke="black" points="445.5,-38.5 445.5,-57.5 537.5,-57.5 537.5,-38.5 445.5,-38.5"/>
<text text-anchor="middle" x="491.5" y="-45.5" font-family="Helvetica,sans-Serif" font-size="10.00">GnomonShader</text>
</a>
</g>
</g>
<!-- Node6&#45;&gt;Node10 -->
<g id="edge9" class="edge">
<title>Node6&#45;&gt;Node10</title>
<path fill="none" stroke="midnightblue" d="M368.34,-90.85C384.12,-83.16 404.37,-73.86 423,-67 432.48,-63.51 442.91,-60.28 452.68,-57.52"/>
<polygon fill="midnightblue" stroke="midnightblue" points="366.57,-87.82 359.15,-95.38 369.66,-94.1 366.57,-87.82"/>
</g>
<!-- Node11 -->
<g id="node11" class="node">
<title>Node11</title>
<g id="a_node11"><a xlink:href="../../d6/d49/classnap_1_1_shader_from_file.html" target="_top" xlink:title=" ">
<polygon fill="white" stroke="black" points="445.5,-0.5 445.5,-19.5 537.5,-19.5 537.5,-0.5 445.5,-0.5"/>
<text text-anchor="middle" x="491.5" y="-7.5" font-family="Helvetica,sans-Serif" font-size="10.00">ShaderFromFile</text>
</a>
</g>
</g>
<!-- Node6&#45;&gt;Node11 -->
<g id="edge10" class="edge">
<title>Node6&#45;&gt;Node11</title>
<path fill="none" stroke="midnightblue" d="M354.93,-87.59C370.15,-70.31 395.68,-44.26 423,-29 429.91,-25.14 437.66,-22.02 445.38,-19.5"/>
<polygon fill="midnightblue" stroke="midnightblue" points="352.18,-85.42 348.32,-95.28 357.49,-89.98 352.18,-85.42"/>
</g>
</g>
</svg>
