<?xml version="1.0" encoding="UTF-8" standalone="no"?>
<!DOCTYPE svg PUBLIC "-//W3C//DTD SVG 1.1//EN"
 "http://www.w3.org/Graphics/SVG/1.1/DTD/svg11.dtd">
<!-- Generated by graphviz version 3.0.0 (20220226.1711)
 -->
<!-- Title: Node Pages: 1 -->
<svg width="318pt" height="484pt"
 viewBox="0.00 0.00 318.00 484.00" xmlns="http://www.w3.org/2000/svg" xmlns:xlink="http://www.w3.org/1999/xlink">
<g id="graph0" class="graph" transform="scale(1 1) rotate(0) translate(4 480)">
<title>Node</title>
<polygon fill="white" stroke="transparent" points="-4,4 -4,-480 314,-480 314,4 -4,4"/>
<!-- Node0 -->
<g id="node1" class="node">
<title>Node0</title>
<polygon fill="#bfbfbf" stroke="black" points="89,-228.5 89,-247.5 128,-247.5 128,-228.5 89,-228.5"/>
<text text-anchor="middle" x="108.5" y="-235.5" font-family="Helvetica,sans-Serif" font-size="10.00">Node</text>
</g>
<!-- Node2 -->
<g id="node3" class="node">
<title>Node2</title>
<g id="a_node3"><a xlink:href="../../d0/dc1/classnap_1_1audio_1_1_buffer_player_node.html" target="_top" xlink:title="BufferPlayerNode">
<polygon fill="white" stroke="black" points="191,-456.5 191,-475.5 283,-475.5 283,-456.5 191,-456.5"/>
<text text-anchor="middle" x="237" y="-463.5" font-family="Helvetica,sans-Serif" font-size="10.00">BufferPlayerNode</text>
</a>
</g>
</g>
<!-- Node0&#45;&gt;Node2 -->
<g id="edge2" class="edge">
<title>Node0&#45;&gt;Node2</title>
<path fill="none" stroke="midnightblue" d="M112.06,-257.53C118.56,-304.15 137.09,-420.02 164,-447 171.21,-454.23 180.83,-458.81 190.68,-461.68"/>
<polygon fill="midnightblue" stroke="midnightblue" points="115.51,-256.94 110.7,-247.5 108.58,-257.88 115.51,-256.94"/>
</g>
<!-- Node3 -->
<g id="node4" class="node">
<title>Node3</title>
<g id="a_node4"><a xlink:href="../../d4/d37/classnap_1_1audio_1_1_control_node.html" target="_top" xlink:title="ControlNode">
<polygon fill="white" stroke="black" points="202,-418.5 202,-437.5 272,-437.5 272,-418.5 202,-418.5"/>
<text text-anchor="middle" x="237" y="-425.5" font-family="Helvetica,sans-Serif" font-size="10.00">ControlNode</text>
</a>
</g>
</g>
<!-- Node0&#45;&gt;Node3 -->
<g id="edge3" class="edge">
<title>Node0&#45;&gt;Node3</title>
<path fill="none" stroke="midnightblue" d="M109.93,-257.88C111.82,-293.46 121,-368.12 164,-409 174.12,-418.62 188.51,-423.5 201.78,-425.94"/>
<polygon fill="midnightblue" stroke="midnightblue" points="113.43,-257.65 109.54,-247.79 106.43,-257.92 113.43,-257.65"/>
</g>
<!-- Node4 -->
<g id="node5" class="node">
<title>Node4</title>
<g id="a_node5"><a xlink:href="../../db/d66/classnap_1_1audio_1_1_filter_node.html" target="_top" xlink:title="FilterNode">
<polygon fill="white" stroke="black" points="206.5,-380.5 206.5,-399.5 267.5,-399.5 267.5,-380.5 206.5,-380.5"/>
<text text-anchor="middle" x="237" y="-387.5" font-family="Helvetica,sans-Serif" font-size="10.00">FilterNode</text>
</a>
</g>
</g>
<!-- Node0&#45;&gt;Node4 -->
<g id="edge4" class="edge">
<title>Node0&#45;&gt;Node4</title>
<path fill="none" stroke="midnightblue" d="M112.05,-257.9C116.86,-287.08 130.05,-341.22 164,-371 175.57,-381.14 191.94,-385.96 206.15,-388.21"/>
<polygon fill="midnightblue" stroke="midnightblue" points="115.47,-257.1 110.55,-247.72 108.55,-258.12 115.47,-257.1"/>
</g>
<!-- Node5 -->
<g id="node6" class="node">
<title>Node5</title>
<g id="a_node6"><a xlink:href="../../d4/d5f/classnap_1_1audio_1_1_gain_node.html" target="_top" xlink:title="GainNode">
<polygon fill="white" stroke="black" points="207.5,-342.5 207.5,-361.5 266.5,-361.5 266.5,-342.5 207.5,-342.5"/>
<text text-anchor="middle" x="237" y="-349.5" font-family="Helvetica,sans-Serif" font-size="10.00">GainNode</text>
</a>
</g>
</g>
<!-- Node0&#45;&gt;Node5 -->
<g id="edge5" class="edge">
<title>Node0&#45;&gt;Node5</title>
<path fill="none" stroke="midnightblue" d="M115.57,-257.53C123.32,-279.22 138.83,-313.7 164,-333 176.42,-342.52 193.18,-347.28 207.41,-349.66"/>
<polygon fill="midnightblue" stroke="midnightblue" points="118.79,-256.14 112.3,-247.77 112.16,-258.36 118.79,-256.14"/>
</g>
<!-- Node6 -->
<g id="node7" class="node">
<title>Node6</title>
<g id="a_node7"><a xlink:href="../../d3/d8d/classnap_1_1audio_1_1_input_node.html" target="_top" xlink:title="InputNode">
<polygon fill="white" stroke="black" points="207,-304.5 207,-323.5 267,-323.5 267,-304.5 207,-304.5"/>
<text text-anchor="middle" x="237" y="-311.5" font-family="Helvetica,sans-Serif" font-size="10.00">InputNode</text>
</a>
</g>
</g>
<!-- Node0&#45;&gt;Node6 -->
<g id="edge6" class="edge">
<title>Node0&#45;&gt;Node6</title>
<path fill="none" stroke="midnightblue" d="M122.12,-255.7C132.11,-268.43 147.14,-285.05 164,-295 177.03,-302.68 193.19,-307.31 206.89,-310.07"/>
<polygon fill="midnightblue" stroke="midnightblue" points="124.87,-253.52 116.06,-247.63 119.27,-257.73 124.87,-253.52"/>
</g>
<!-- Node7 -->
<g id="node8" class="node">
<title>Node7</title>
<g id="a_node8"><a xlink:href="../../d8/d36/classnap_1_1audio_1_1_level_meter_node.html" target="_top" xlink:title="LevelMeterNode">
<polygon fill="white" stroke="black" points="194,-266.5 194,-285.5 280,-285.5 280,-266.5 194,-266.5"/>
<text text-anchor="middle" x="237" y="-273.5" font-family="Helvetica,sans-Serif" font-size="10.00">LevelMeterNode</text>
</a>
</g>
</g>
<!-- Node0&#45;&gt;Node7 -->
<g id="edge7" class="edge">
<title>Node0&#45;&gt;Node7</title>
<path fill="none" stroke="midnightblue" d="M137.49,-248.22C145.96,-251.19 155.32,-254.35 164,-257 174.88,-260.33 186.79,-263.61 197.73,-266.49"/>
<polygon fill="midnightblue" stroke="midnightblue" points="138.64,-244.92 128.05,-244.87 136.3,-251.51 138.64,-244.92"/>
</g>
<!-- Node8 -->
<g id="node9" class="node">
<title>Node8</title>
<g id="a_node9"><a xlink:href="../../d7/d34/classnap_1_1audio_1_1_mix_node.html" target="_top" xlink:title="MixNode">
<polygon fill="white" stroke="black" points="209.5,-228.5 209.5,-247.5 264.5,-247.5 264.5,-228.5 209.5,-228.5"/>
<text text-anchor="middle" x="237" y="-235.5" font-family="Helvetica,sans-Serif" font-size="10.00">MixNode</text>
</a>
</g>
</g>
<!-- Node0&#45;&gt;Node8 -->
<g id="edge8" class="edge">
<title>Node0&#45;&gt;Node8</title>
<path fill="none" stroke="midnightblue" d="M138.26,-238C159.6,-238 188.48,-238 209.31,-238"/>
<polygon fill="midnightblue" stroke="midnightblue" points="138.17,-234.5 128.17,-238 138.17,-241.5 138.17,-234.5"/>
</g>
<!-- Node9 -->
<g id="node10" class="node">
<title>Node9</title>
<g id="a_node10"><a xlink:href="../../d8/d4c/classnap_1_1audio_1_1_multiply_node.html" target="_top" xlink:title="MultiplyNode">
<polygon fill="white" stroke="black" points="200.5,-190.5 200.5,-209.5 273.5,-209.5 273.5,-190.5 200.5,-190.5"/>
<text text-anchor="middle" x="237" y="-197.5" font-family="Helvetica,sans-Serif" font-size="10.00">MultiplyNode</text>
</a>
</g>
</g>
<!-- Node0&#45;&gt;Node9 -->
<g id="edge9" class="edge">
<title>Node0&#45;&gt;Node9</title>
<path fill="none" stroke="midnightblue" d="M137.49,-227.78C145.96,-224.81 155.32,-221.65 164,-219 175.74,-215.41 188.69,-211.87 200.32,-208.83"/>
<polygon fill="midnightblue" stroke="midnightblue" points="136.3,-224.49 128.05,-231.13 138.64,-231.08 136.3,-224.49"/>
</g>
<!-- Node10 -->
<g id="node11" class="node">
<title>Node10</title>
<g id="a_node11"><a xlink:href="../../da/d0f/classnap_1_1audio_1_1_multi_sample_buffer_player_node.html" target="_top" xlink:title="MultiSampleBufferPlayerNode">
<polygon fill="white" stroke="black" points="164,-152.5 164,-171.5 310,-171.5 310,-152.5 164,-152.5"/>
<text text-anchor="middle" x="237" y="-159.5" font-family="Helvetica,sans-Serif" font-size="10.00">MultiSampleBufferPlayerNode</text>
</a>
</g>
</g>
<!-- Node0&#45;&gt;Node10 -->
<g id="edge10" class="edge">
<title>Node0&#45;&gt;Node10</title>
<path fill="none" stroke="midnightblue" d="M122.12,-220.3C132.11,-207.57 147.14,-190.95 164,-181 170.57,-177.12 177.94,-174.03 185.38,-171.55"/>
<polygon fill="midnightblue" stroke="midnightblue" points="119.27,-218.27 116.06,-228.37 124.87,-222.48 119.27,-218.27"/>
</g>
<!-- Node11 -->
<g id="node12" class="node">
<title>Node11</title>
<g id="a_node12"><a xlink:href="../../d2/da1/classnap_1_1audio_1_1_output_node.html" target="_top" xlink:title="OutputNode">
<polygon fill="white" stroke="black" points="203,-114.5 203,-133.5 271,-133.5 271,-114.5 203,-114.5"/>
<text text-anchor="middle" x="237" y="-121.5" font-family="Helvetica,sans-Serif" font-size="10.00">OutputNode</text>
</a>
</g>
</g>
<!-- Node0&#45;&gt;Node11 -->
<g id="edge11" class="edge">
<title>Node0&#45;&gt;Node11</title>
<path fill="none" stroke="midnightblue" d="M115.57,-218.47C123.32,-196.78 138.83,-162.3 164,-143 175.08,-134.51 189.63,-129.8 202.74,-127.19"/>
<polygon fill="midnightblue" stroke="midnightblue" points="112.16,-217.64 112.3,-228.23 118.79,-219.86 112.16,-217.64"/>
</g>
<!-- Node12 -->
<g id="node13" class="node">
<title>Node12</title>
<g id="a_node13"><a xlink:href="../../d6/d23/classnap_1_1audio_1_1_pull_node.html" target="_top" xlink:title="PullNode">
<polygon fill="white" stroke="black" points="209,-76.5 209,-95.5 265,-95.5 265,-76.5 209,-76.5"/>
<text text-anchor="middle" x="237" y="-83.5" font-family="Helvetica,sans-Serif" font-size="10.00">PullNode</text>
</a>
</g>
</g>
<!-- Node0&#45;&gt;Node12 -->
<g id="edge12" class="edge">
<title>Node0&#45;&gt;Node12</title>
<path fill="none" stroke="midnightblue" d="M112.05,-218.1C116.86,-188.92 130.05,-134.78 164,-105 176.34,-94.17 194.16,-89.41 208.98,-87.36"/>
<polygon fill="midnightblue" stroke="midnightblue" points="108.55,-217.88 110.55,-228.28 115.47,-218.9 108.55,-217.88"/>
</g>
<!-- Node13 -->
<g id="node14" class="node">
<title>Node13</title>
<g id="a_node14"><a xlink:href="../../d9/d58/classnap_1_1audio_1_1_stereo_panner_node.html" target="_top" xlink:title="StereoPannerNode">
<polygon fill="white" stroke="black" points="188,-38.5 188,-57.5 286,-57.5 286,-38.5 188,-38.5"/>
<text text-anchor="middle" x="237" y="-45.5" font-family="Helvetica,sans-Serif" font-size="10.00">StereoPannerNode</text>
</a>
</g>
</g>
<!-- Node0&#45;&gt;Node13 -->
<g id="edge13" class="edge">
<title>Node0&#45;&gt;Node13</title>
<path fill="none" stroke="midnightblue" d="M109.93,-218.12C111.82,-182.54 121,-107.88 164,-67 170.65,-60.68 179.15,-56.4 187.96,-53.52"/>
<polygon fill="midnightblue" stroke="midnightblue" points="106.43,-218.08 109.54,-228.21 113.43,-218.35 106.43,-218.08"/>
</g>
<!-- Node14 -->
<g id="node15" class="node">
<title>Node14</title>
<g id="a_node15"><a xlink:href="../../d9/d05/classnap_1_1audio_1_1_video_node.html" target="_top" xlink:title="VideoNode">
<polygon fill="white" stroke="black" points="205,-0.5 205,-19.5 269,-19.5 269,-0.5 205,-0.5"/>
<text text-anchor="middle" x="237" y="-7.5" font-family="Helvetica,sans-Serif" font-size="10.00">VideoNode</text>
</a>
</g>
</g>
<!-- Node0&#45;&gt;Node14 -->
<g id="edge14" class="edge">
<title>Node0&#45;&gt;Node14</title>
<path fill="none" stroke="midnightblue" d="M112.06,-218.47C118.56,-171.85 137.09,-55.98 164,-29 174.68,-18.29 190.64,-13.4 204.82,-11.25"/>
<polygon fill="midnightblue" stroke="midnightblue" points="108.58,-218.12 110.7,-228.5 115.51,-219.06 108.58,-218.12"/>
</g>
<!-- Node1 -->
<g id="node2" class="node">
<title>Node1</title>
<g id="a_node2"><a xlink:href="../../d4/d2d/classnap_1_1audio_1_1_process.html" target="_top" xlink:title="Process">
<polygon fill="white" stroke="black" points="0,-228.5 0,-247.5 53,-247.5 53,-228.5 0,-228.5"/>
<text text-anchor="middle" x="26.5" y="-235.5" font-family="Helvetica,sans-Serif" font-size="10.00">Process</text>
</a>
</g>
</g>
<!-- Node1&#45;&gt;Node0 -->
<g id="edge1" class="edge">
<title>Node1&#45;&gt;Node0</title>
<path fill="none" stroke="midnightblue" d="M63.37,-238C72.19,-238 81.28,-238 88.9,-238"/>
<polygon fill="midnightblue" stroke="midnightblue" points="63.25,-234.5 53.25,-238 63.25,-241.5 63.25,-234.5"/>
</g>
</g>
</svg>
