<?xml version="1.0" encoding="UTF-8" standalone="no"?>
<!DOCTYPE svg PUBLIC "-//W3C//DTD SVG 1.1//EN"
 "http://www.w3.org/Graphics/SVG/1.1/DTD/svg11.dtd">
<!-- Generated by graphviz version 2.43.0 (0)
 -->
<!-- Title: Node Pages: 1 -->
<svg width="340pt" height="484pt"
 viewBox="0.00 0.00 340.00 484.00" xmlns="http://www.w3.org/2000/svg" xmlns:xlink="http://www.w3.org/1999/xlink">
<g id="graph0" class="graph" transform="scale(1 1) rotate(0) translate(4 480)">
<title>Node</title>
<polygon fill="white" stroke="transparent" points="-4,4 -4,-480 336,-480 336,4 -4,4"/>
<!-- Node1 -->
<g id="node1" class="node">
<title>Node1</title>
<g id="a_node1"><a xlink:title=" ">
<polygon fill="#bfbfbf" stroke="black" points="90,-228.5 90,-247.5 132,-247.5 132,-228.5 90,-228.5"/>
<text text-anchor="middle" x="111" y="-235.5" font-family="Helvetica,sans-Serif" font-size="10.00">Node</text>
</a>
</g>
</g>
<!-- Node3 -->
<g id="node3" class="node">
<title>Node3</title>
<g id="a_node3"><a xlink:href="../../d0/dc1/classnap_1_1audio_1_1_buffer_player_node.html" target="_top" xlink:title=" ">
<polygon fill="white" stroke="black" points="199,-456.5 199,-475.5 301,-475.5 301,-456.5 199,-456.5"/>
<text text-anchor="middle" x="250" y="-463.5" font-family="Helvetica,sans-Serif" font-size="10.00">BufferPlayerNode</text>
</a>
</g>
</g>
<!-- Node1&#45;&gt;Node3 -->
<g id="edge2" class="edge">
<title>Node1&#45;&gt;Node3</title>
<path fill="none" stroke="midnightblue" d="M111.09,-257.7C110.32,-299.07 114.74,-395.39 168,-447 176.4,-455.14 187.6,-460.03 198.97,-462.92"/>
<polygon fill="midnightblue" stroke="midnightblue" points="114.59,-257.68 111.41,-247.58 107.6,-257.46 114.59,-257.68"/>
</g>
<!-- Node4 -->
<g id="node4" class="node">
<title>Node4</title>
<g id="a_node4"><a xlink:href="../../d4/d37/classnap_1_1audio_1_1_control_node.html" target="_top" xlink:title=" ">
<polygon fill="white" stroke="black" points="211.5,-418.5 211.5,-437.5 288.5,-437.5 288.5,-418.5 211.5,-418.5"/>
<text text-anchor="middle" x="250" y="-425.5" font-family="Helvetica,sans-Serif" font-size="10.00">ControlNode</text>
</a>
</g>
</g>
<!-- Node1&#45;&gt;Node4 -->
<g id="edge3" class="edge">
<title>Node1&#45;&gt;Node4</title>
<path fill="none" stroke="midnightblue" d="M112.51,-258.01C114.56,-293.81 124.17,-368.79 168,-409 179.71,-419.74 196.31,-424.76 211.44,-426.99"/>
<polygon fill="midnightblue" stroke="midnightblue" points="116,-257.7 112.08,-247.86 109.01,-258 116,-257.7"/>
</g>
<!-- Node5 -->
<g id="node5" class="node">
<title>Node5</title>
<g id="a_node5"><a xlink:href="../../db/d66/classnap_1_1audio_1_1_filter_node.html" target="_top" xlink:title=" ">
<polygon fill="white" stroke="black" points="216.5,-380.5 216.5,-399.5 283.5,-399.5 283.5,-380.5 216.5,-380.5"/>
<text text-anchor="middle" x="250" y="-387.5" font-family="Helvetica,sans-Serif" font-size="10.00">FilterNode</text>
</a>
</g>
</g>
<!-- Node1&#45;&gt;Node5 -->
<g id="edge4" class="edge">
<title>Node1&#45;&gt;Node5</title>
<path fill="none" stroke="midnightblue" d="M114.68,-258.03C119.71,-287.38 133.36,-341.74 168,-371 181.35,-382.28 200.18,-387.14 216.32,-389.13"/>
<polygon fill="midnightblue" stroke="midnightblue" points="118.09,-257.14 113.11,-247.79 111.17,-258.2 118.09,-257.14"/>
</g>
<!-- Node6 -->
<g id="node6" class="node">
<title>Node6</title>
<g id="a_node6"><a xlink:href="../../d4/d5f/classnap_1_1audio_1_1_gain_node.html" target="_top" xlink:title=" ">
<polygon fill="white" stroke="black" points="217.5,-342.5 217.5,-361.5 282.5,-361.5 282.5,-342.5 217.5,-342.5"/>
<text text-anchor="middle" x="250" y="-349.5" font-family="Helvetica,sans-Serif" font-size="10.00">GainNode</text>
</a>
</g>
</g>
<!-- Node1&#45;&gt;Node6 -->
<g id="edge5" class="edge">
<title>Node1&#45;&gt;Node6</title>
<path fill="none" stroke="midnightblue" d="M118.06,-257.03C125.99,-278.8 142.02,-313.89 168,-333 182.19,-343.44 201.26,-348.25 217.32,-350.42"/>
<polygon fill="midnightblue" stroke="midnightblue" points="121.36,-255.87 114.81,-247.54 114.74,-258.14 121.36,-255.87"/>
</g>
<!-- Node7 -->
<g id="node7" class="node">
<title>Node7</title>
<g id="a_node7"><a xlink:href="../../d3/d8d/classnap_1_1audio_1_1_input_node.html" target="_top" xlink:title=" ">
<polygon fill="white" stroke="black" points="216.5,-304.5 216.5,-323.5 283.5,-323.5 283.5,-304.5 216.5,-304.5"/>
<text text-anchor="middle" x="250" y="-311.5" font-family="Helvetica,sans-Serif" font-size="10.00">InputNode</text>
</a>
</g>
</g>
<!-- Node1&#45;&gt;Node7 -->
<g id="edge6" class="edge">
<title>Node1&#45;&gt;Node7</title>
<path fill="none" stroke="midnightblue" d="M124.99,-255.83C135.26,-268.63 150.71,-285.28 168,-295 182.73,-303.28 200.91,-307.96 216.32,-310.61"/>
<polygon fill="midnightblue" stroke="midnightblue" points="127.62,-253.51 118.75,-247.71 122.07,-257.77 127.62,-253.51"/>
</g>
<!-- Node8 -->
<g id="node8" class="node">
<title>Node8</title>
<g id="a_node8"><a xlink:href="../../d8/d36/classnap_1_1audio_1_1_level_meter_node.html" target="_top" xlink:title=" ">
<polygon fill="white" stroke="black" points="201.5,-266.5 201.5,-285.5 298.5,-285.5 298.5,-266.5 201.5,-266.5"/>
<text text-anchor="middle" x="250" y="-273.5" font-family="Helvetica,sans-Serif" font-size="10.00">LevelMeterNode</text>
</a>
</g>
</g>
<!-- Node1&#45;&gt;Node8 -->
<g id="edge7" class="edge">
<title>Node1&#45;&gt;Node8</title>
<path fill="none" stroke="midnightblue" d="M141.57,-248.63C150.05,-251.51 159.34,-254.52 168,-257 179.8,-260.38 192.7,-263.61 204.66,-266.41"/>
<polygon fill="midnightblue" stroke="midnightblue" points="142.66,-245.3 132.07,-245.33 140.37,-251.92 142.66,-245.3"/>
</g>
<!-- Node9 -->
<g id="node9" class="node">
<title>Node9</title>
<g id="a_node9"><a xlink:href="../../d7/d34/classnap_1_1audio_1_1_mix_node.html" target="_top" xlink:title=" ">
<polygon fill="white" stroke="black" points="220,-228.5 220,-247.5 280,-247.5 280,-228.5 220,-228.5"/>
<text text-anchor="middle" x="250" y="-235.5" font-family="Helvetica,sans-Serif" font-size="10.00">MixNode</text>
</a>
</g>
</g>
<!-- Node1&#45;&gt;Node9 -->
<g id="edge8" class="edge">
<title>Node1&#45;&gt;Node9</title>
<path fill="none" stroke="midnightblue" d="M142.48,-238C165.57,-238 197.08,-238 219.84,-238"/>
<polygon fill="midnightblue" stroke="midnightblue" points="142.21,-234.5 132.21,-238 142.21,-241.5 142.21,-234.5"/>
</g>
<!-- Node10 -->
<g id="node10" class="node">
<title>Node10</title>
<g id="a_node10"><a xlink:href="../../d8/d4c/classnap_1_1audio_1_1_multiply_node.html" target="_top" xlink:title=" ">
<polygon fill="white" stroke="black" points="209,-190.5 209,-209.5 291,-209.5 291,-190.5 209,-190.5"/>
<text text-anchor="middle" x="250" y="-197.5" font-family="Helvetica,sans-Serif" font-size="10.00">MultiplyNode</text>
</a>
</g>
</g>
<!-- Node1&#45;&gt;Node10 -->
<g id="edge9" class="edge">
<title>Node1&#45;&gt;Node10</title>
<path fill="none" stroke="midnightblue" d="M141.57,-227.37C150.05,-224.49 159.34,-221.48 168,-219 181.19,-215.22 195.75,-211.63 208.84,-208.61"/>
<polygon fill="midnightblue" stroke="midnightblue" points="140.37,-224.08 132.07,-230.67 142.66,-230.7 140.37,-224.08"/>
</g>
<!-- Node11 -->
<g id="node11" class="node">
<title>Node11</title>
<g id="a_node11"><a xlink:href="../../da/d0f/classnap_1_1audio_1_1_multi_sample_buffer_player_node.html" target="_top" xlink:title=" ">
<polygon fill="white" stroke="black" points="168,-152.5 168,-171.5 332,-171.5 332,-152.5 168,-152.5"/>
<text text-anchor="middle" x="250" y="-159.5" font-family="Helvetica,sans-Serif" font-size="10.00">MultiSampleBufferPlayerNode</text>
</a>
</g>
</g>
<!-- Node1&#45;&gt;Node11 -->
<g id="edge10" class="edge">
<title>Node1&#45;&gt;Node11</title>
<path fill="none" stroke="midnightblue" d="M124.99,-220.17C135.26,-207.37 150.71,-190.72 168,-181 174.92,-177.11 182.61,-174.01 190.42,-171.54"/>
<polygon fill="midnightblue" stroke="midnightblue" points="122.07,-218.23 118.75,-228.29 127.62,-222.49 122.07,-218.23"/>
</g>
<!-- Node12 -->
<g id="node12" class="node">
<title>Node12</title>
<g id="a_node12"><a xlink:href="../../d2/da1/classnap_1_1audio_1_1_output_node.html" target="_top" xlink:title=" ">
<polygon fill="white" stroke="black" points="212.5,-114.5 212.5,-133.5 287.5,-133.5 287.5,-114.5 212.5,-114.5"/>
<text text-anchor="middle" x="250" y="-121.5" font-family="Helvetica,sans-Serif" font-size="10.00">OutputNode</text>
</a>
</g>
</g>
<!-- Node1&#45;&gt;Node12 -->
<g id="edge11" class="edge">
<title>Node1&#45;&gt;Node12</title>
<path fill="none" stroke="midnightblue" d="M118.06,-218.97C125.99,-197.2 142.02,-162.11 168,-143 180.68,-133.67 197.25,-128.84 212.09,-126.37"/>
<polygon fill="midnightblue" stroke="midnightblue" points="114.74,-217.86 114.81,-228.46 121.36,-220.13 114.74,-217.86"/>
</g>
<!-- Node13 -->
<g id="node13" class="node">
<title>Node13</title>
<g id="a_node13"><a xlink:href="../../d6/d23/classnap_1_1audio_1_1_pull_node.html" target="_top" xlink:title=" ">
<polygon fill="white" stroke="black" points="220,-76.5 220,-95.5 280,-95.5 280,-76.5 220,-76.5"/>
<text text-anchor="middle" x="250" y="-83.5" font-family="Helvetica,sans-Serif" font-size="10.00">PullNode</text>
</a>
</g>
</g>
<!-- Node1&#45;&gt;Node13 -->
<g id="edge12" class="edge">
<title>Node1&#45;&gt;Node13</title>
<path fill="none" stroke="midnightblue" d="M114.68,-217.97C119.71,-188.62 133.36,-134.26 168,-105 182.35,-92.88 203.01,-88.17 219.87,-86.47"/>
<polygon fill="midnightblue" stroke="midnightblue" points="111.17,-217.8 113.11,-228.21 118.09,-218.86 111.17,-217.8"/>
</g>
<!-- Node14 -->
<g id="node14" class="node">
<title>Node14</title>
<g id="a_node14"><a xlink:href="../../d9/d58/classnap_1_1audio_1_1_stereo_panner_node.html" target="_top" xlink:title=" ">
<polygon fill="white" stroke="black" points="196.5,-38.5 196.5,-57.5 303.5,-57.5 303.5,-38.5 196.5,-38.5"/>
<text text-anchor="middle" x="250" y="-45.5" font-family="Helvetica,sans-Serif" font-size="10.00">StereoPannerNode</text>
</a>
</g>
</g>
<!-- Node1&#45;&gt;Node14 -->
<g id="edge13" class="edge">
<title>Node1&#45;&gt;Node14</title>
<path fill="none" stroke="midnightblue" d="M112.51,-217.99C114.56,-182.19 124.17,-107.21 168,-67 175.88,-59.77 185.97,-55.14 196.33,-52.2"/>
<polygon fill="midnightblue" stroke="midnightblue" points="109.01,-218 112.08,-228.14 116,-218.3 109.01,-218"/>
</g>
<!-- Node15 -->
<g id="node15" class="node">
<title>Node15</title>
<g id="a_node15"><a xlink:href="../../d9/d05/classnap_1_1audio_1_1_video_node.html" target="_top" xlink:title=" ">
<polygon fill="white" stroke="black" points="215,-0.5 215,-19.5 285,-19.5 285,-0.5 215,-0.5"/>
<text text-anchor="middle" x="250" y="-7.5" font-family="Helvetica,sans-Serif" font-size="10.00">VideoNode</text>
</a>
</g>
</g>
<!-- Node1&#45;&gt;Node15 -->
<g id="edge14" class="edge">
<title>Node1&#45;&gt;Node15</title>
<path fill="none" stroke="midnightblue" d="M111.09,-218.3C110.32,-176.93 114.74,-80.61 168,-29 180.34,-17.04 198.71,-12.09 214.84,-10.22"/>
<polygon fill="midnightblue" stroke="midnightblue" points="107.6,-218.54 111.41,-228.42 114.59,-218.32 107.6,-218.54"/>
</g>
<!-- Node2 -->
<g id="node2" class="node">
<title>Node2</title>
<g id="a_node2"><a xlink:href="../../d4/d2d/classnap_1_1audio_1_1_process.html" target="_top" xlink:title=" ">
<polygon fill="white" stroke="black" points="0,-228.5 0,-247.5 54,-247.5 54,-228.5 0,-228.5"/>
<text text-anchor="middle" x="27" y="-235.5" font-family="Helvetica,sans-Serif" font-size="10.00">Process</text>
</a>
</g>
</g>
<!-- Node2&#45;&gt;Node1 -->
<g id="edge1" class="edge">
<title>Node2&#45;&gt;Node1</title>
<path fill="none" stroke="midnightblue" d="M64.44,-238C73.18,-238 82.21,-238 89.9,-238"/>
<polygon fill="midnightblue" stroke="midnightblue" points="64.4,-234.5 54.4,-238 64.4,-241.5 64.4,-234.5"/>
</g>
</g>
</svg>
