<?xml version="1.0" encoding="UTF-8" standalone="no"?>
<!DOCTYPE svg PUBLIC "-//W3C//DTD SVG 1.1//EN"
 "http://www.w3.org/Graphics/SVG/1.1/DTD/svg11.dtd">
<!-- Generated by graphviz version 3.0.0 (20220226.1711)
 -->
<!-- Title: TransformComponent Pages: 1 -->
<svg width="196pt" height="209pt"
 viewBox="0.00 0.00 196.00 209.00" xmlns="http://www.w3.org/2000/svg" xmlns:xlink="http://www.w3.org/1999/xlink">
<g id="graph0" class="graph" transform="scale(1 1) rotate(0) translate(4 205)">
<title>TransformComponent</title>
<polygon fill="white" stroke="transparent" points="-4,4 -4,-205 192,-205 192,4 -4,4"/>
<!-- Node4 -->
<g id="node1" class="node">
<title>Node4</title>
<polygon fill="#bfbfbf" stroke="black" points="55.5,-0.5 55.5,-19.5 164.5,-19.5 164.5,-0.5 55.5,-0.5"/>
<text text-anchor="middle" x="110" y="-7.5" font-family="Helvetica,sans-Serif" font-size="10.00">TransformComponent</text>
</g>
<!-- Node5 -->
<g id="node2" class="node">
<title>Node5</title>
<g id="a_node2"><a xlink:href="../../db/d6b/classnap_1_1_component.html" target="_top" xlink:title="Component">
<polygon fill="white" stroke="black" points="0,-67.5 0,-86.5 66,-86.5 66,-67.5 0,-67.5"/>
<text text-anchor="middle" x="33" y="-74.5" font-family="Helvetica,sans-Serif" font-size="10.00">Component</text>
</a>
</g>
</g>
<!-- Node5&#45;&gt;Node4 -->
<g id="edge1" class="edge">
<title>Node5&#45;&gt;Node4</title>
<path fill="none" stroke="midnightblue" d="M51.11,-60.71C66.28,-47.91 87.39,-30.09 99.78,-19.63"/>
<polygon fill="midnightblue" stroke="midnightblue" points="48.77,-58.11 43.38,-67.23 53.28,-63.46 48.77,-58.11"/>
</g>
<!-- Node6 -->
<g id="node3" class="node">
<title>Node6</title>
<g id="a_node3"><a xlink:href="../../d9/dea/classnap_1_1_resource.html" target="_top" xlink:title="Resource">
<polygon fill="white" stroke="black" points="4,-124.5 4,-143.5 62,-143.5 62,-124.5 4,-124.5"/>
<text text-anchor="middle" x="33" y="-131.5" font-family="Helvetica,sans-Serif" font-size="10.00">Resource</text>
</a>
</g>
</g>
<!-- Node6&#45;&gt;Node5 -->
<g id="edge2" class="edge">
<title>Node6&#45;&gt;Node5</title>
<path fill="none" stroke="midnightblue" d="M33,-114.12C33,-104.82 33,-94.06 33,-86.71"/>
<polygon fill="midnightblue" stroke="midnightblue" points="29.5,-114.41 33,-124.41 36.5,-114.41 29.5,-114.41"/>
</g>
<!-- Node7 -->
<g id="node4" class="node">
<title>Node7</title>
<g id="a_node4"><a xlink:href="../../de/d01/classnap_1_1rtti_1_1_object.html" target="_top" xlink:title="Object">
<polygon fill="white" stroke="black" points="10.5,-181.5 10.5,-200.5 55.5,-200.5 55.5,-181.5 10.5,-181.5"/>
<text text-anchor="middle" x="33" y="-188.5" font-family="Helvetica,sans-Serif" font-size="10.00">Object</text>
</a>
</g>
</g>
<!-- Node7&#45;&gt;Node6 -->
<g id="edge3" class="edge">
<title>Node7&#45;&gt;Node6</title>
<path fill="none" stroke="midnightblue" d="M33,-171.12C33,-161.82 33,-151.06 33,-143.71"/>
<polygon fill="midnightblue" stroke="midnightblue" points="29.5,-171.41 33,-181.41 36.5,-171.41 29.5,-171.41"/>
</g>
<!-- Node8 -->
<g id="node5" class="node">
<title>Node8</title>
<g id="a_node5"><a xlink:href="../../d1/d9e/structnap_1_1_transform_properties.html" target="_top" xlink:title="TransformProperties">
<polygon fill="white" stroke="black" points="84,-67.5 84,-86.5 188,-86.5 188,-67.5 84,-67.5"/>
<text text-anchor="middle" x="136" y="-74.5" font-family="Helvetica,sans-Serif" font-size="10.00">TransformProperties</text>
</a>
</g>
</g>
<!-- Node8&#45;&gt;Node4 -->
<g id="edge4" class="edge">
<title>Node8&#45;&gt;Node4</title>
<path fill="none" stroke="#9a32cd" stroke-dasharray="5,2" d="M128.72,-57.79C123.72,-45.31 117.33,-29.31 113.45,-19.63"/>
<polygon fill="#9a32cd" stroke="#9a32cd" points="125.53,-59.25 132.49,-67.23 132.03,-56.65 125.53,-59.25"/>
<text text-anchor="middle" x="152" y="-41" font-family="Helvetica,sans-Serif" font-size="10.00"> mProperties</text>
</g>
</g>
</svg>
