<?xml version="1.0" encoding="UTF-8" standalone="no"?>
<!DOCTYPE svg PUBLIC "-//W3C//DTD SVG 1.1//EN"
 "http://www.w3.org/Graphics/SVG/1.1/DTD/svg11.dtd">
<!-- Generated by graphviz version 3.0.0 (20220226.1711)
 -->
<!-- Title: ComponentInstance Pages: 1 -->
<svg width="795pt" height="914pt"
 viewBox="0.00 0.00 795.00 914.00" xmlns="http://www.w3.org/2000/svg" xmlns:xlink="http://www.w3.org/1999/xlink">
<g id="graph0" class="graph" transform="scale(1 1) rotate(0) translate(4 910)">
<title>ComponentInstance</title>
<polygon fill="white" stroke="transparent" points="-4,4 -4,-910 791,-910 791,4 -4,4"/>
<!-- Node0 -->
<g id="node1" class="node">
<title>Node0</title>
<polygon fill="#bfbfbf" stroke="black" points="81,-437.5 81,-456.5 184,-456.5 184,-437.5 81,-437.5"/>
<text text-anchor="middle" x="132.5" y="-444.5" font-family="Helvetica,sans-Serif" font-size="10.00">ComponentInstance</text>
</g>
<!-- Node2 -->
<g id="node3" class="node">
<title>Node2</title>
<g id="a_node3"><a xlink:href="../../dc/de6/classnap_1_1_a_p_i_component_instance.html" target="_top" xlink:title="APIComponentInstance">
<polygon fill="white" stroke="black" points="247,-886.5 247,-905.5 366,-905.5 366,-886.5 247,-886.5"/>
<text text-anchor="middle" x="306.5" y="-893.5" font-family="Helvetica,sans-Serif" font-size="10.00">APIComponentInstance</text>
</a>
</g>
</g>
<!-- Node0&#45;&gt;Node2 -->
<g id="edge2" class="edge">
<title>Node0&#45;&gt;Node2</title>
<path fill="none" stroke="midnightblue" d="M134.69,-466.86C139.68,-543.31 161.44,-817.25 220,-877 227.24,-884.38 236.66,-889.19 246.6,-892.26"/>
<polygon fill="midnightblue" stroke="midnightblue" points="138.17,-466.46 134.05,-456.7 131.19,-466.9 138.17,-466.46"/>
</g>
<!-- Node3 -->
<g id="node4" class="node">
<title>Node3</title>
<g id="a_node4"><a xlink:href="../../d5/dd2/classnap_1_1_art_net_input_component_instance.html" target="_top" xlink:title="ArtNetInputComponentInstance">
<polygon fill="white" stroke="black" points="230.5,-848.5 230.5,-867.5 382.5,-867.5 382.5,-848.5 230.5,-848.5"/>
<text text-anchor="middle" x="306.5" y="-855.5" font-family="Helvetica,sans-Serif" font-size="10.00">ArtNetInputComponentInstance</text>
</a>
</g>
</g>
<!-- Node0&#45;&gt;Node3 -->
<g id="edge3" class="edge">
<title>Node0&#45;&gt;Node3</title>
<path fill="none" stroke="midnightblue" d="M135.11,-466.92C141.37,-539.07 166.36,-785.28 220,-839 223.76,-842.77 228.09,-845.86 232.76,-848.39"/>
<polygon fill="midnightblue" stroke="midnightblue" points="138.57,-466.23 134.24,-456.55 131.59,-466.81 138.57,-466.23"/>
</g>
<!-- Node4 -->
<g id="node5" class="node">
<title>Node4</title>
<g id="a_node5"><a xlink:href="../../da/dde/classnap_1_1audio_1_1_audio_component_base_instance.html" target="_top" xlink:title="AudioComponentBaseInstance">
<polygon fill="white" stroke="black" points="231.5,-810.5 231.5,-829.5 381.5,-829.5 381.5,-810.5 231.5,-810.5"/>
<text text-anchor="middle" x="306.5" y="-817.5" font-family="Helvetica,sans-Serif" font-size="10.00">AudioComponentBaseInstance</text>
</a>
</g>
</g>
<!-- Node0&#45;&gt;Node4 -->
<g id="edge4" class="edge">
<title>Node0&#45;&gt;Node4</title>
<path fill="none" stroke="midnightblue" d="M135.6,-466.72C143.16,-534.04 171.18,-753.19 220,-801 223.8,-804.72 228.16,-807.78 232.86,-810.29"/>
<polygon fill="midnightblue" stroke="midnightblue" points="139.06,-466.19 134.49,-456.63 132.1,-466.95 139.06,-466.19"/>
</g>
<!-- Node9 -->
<g id="node10" class="node">
<title>Node9</title>
<g id="a_node10"><a xlink:href="../../db/d7c/classnap_1_1audio_1_1_level_meter_component_instance.html" target="_top" xlink:title="LevelMeterComponentInstance">
<polygon fill="white" stroke="black" points="232,-772.5 232,-791.5 381,-791.5 381,-772.5 232,-772.5"/>
<text text-anchor="middle" x="306.5" y="-779.5" font-family="Helvetica,sans-Serif" font-size="10.00">LevelMeterComponentInstance</text>
</a>
</g>
</g>
<!-- Node0&#45;&gt;Node9 -->
<g id="edge9" class="edge">
<title>Node0&#45;&gt;Node9</title>
<path fill="none" stroke="midnightblue" d="M136.2,-466.6C145.18,-528.95 176,-721.08 220,-763 223.96,-766.78 228.5,-769.87 233.38,-772.39"/>
<polygon fill="midnightblue" stroke="midnightblue" points="139.64,-465.94 134.78,-456.53 132.71,-466.92 139.64,-465.94"/>
</g>
<!-- Node10 -->
<g id="node11" class="node">
<title>Node10</title>
<g id="a_node11"><a xlink:href="../../de/d9c/classnap_1_1audio_1_1_output_component_instance.html" target="_top" xlink:title="OutputComponentInstance">
<polygon fill="white" stroke="black" points="240.5,-734.5 240.5,-753.5 372.5,-753.5 372.5,-734.5 240.5,-734.5"/>
<text text-anchor="middle" x="306.5" y="-741.5" font-family="Helvetica,sans-Serif" font-size="10.00">OutputComponentInstance</text>
</a>
</g>
</g>
<!-- Node0&#45;&gt;Node10 -->
<g id="edge10" class="edge">
<title>Node0&#45;&gt;Node10</title>
<path fill="none" stroke="midnightblue" d="M133.34,-466.66C134.07,-517.54 143.41,-654.52 220,-725 225.82,-730.35 232.8,-734.32 240.23,-737.23"/>
<polygon fill="midnightblue" stroke="midnightblue" points="136.84,-466.64 133.3,-456.66 129.84,-466.67 136.84,-466.64"/>
</g>
<!-- Node11 -->
<g id="node12" class="node">
<title>Node11</title>
<g id="a_node12"><a xlink:href="../../d7/df3/classnap_1_1_calendar_component_instance.html" target="_top" xlink:title="CalendarComponentInstance">
<polygon fill="white" stroke="black" points="236,-696.5 236,-715.5 377,-715.5 377,-696.5 236,-696.5"/>
<text text-anchor="middle" x="306.5" y="-703.5" font-family="Helvetica,sans-Serif" font-size="10.00">CalendarComponentInstance</text>
</a>
</g>
</g>
<!-- Node0&#45;&gt;Node11 -->
<g id="edge11" class="edge">
<title>Node0&#45;&gt;Node11</title>
<path fill="none" stroke="midnightblue" d="M134.46,-466.72C137.83,-512.76 152.88,-627.92 220,-687 224.68,-691.12 230.05,-694.41 235.78,-697.02"/>
<polygon fill="midnightblue" stroke="midnightblue" points="137.95,-466.34 133.84,-456.57 130.96,-466.77 137.95,-466.34"/>
</g>
<!-- Node12 -->
<g id="node13" class="node">
<title>Node12</title>
<g id="a_node13"><a xlink:href="../../d6/df5/classnap_1_1_camera_component_instance.html" target="_top" xlink:title="CameraComponentInstance">
<polygon fill="white" stroke="black" points="238,-658.5 238,-677.5 375,-677.5 375,-658.5 238,-658.5"/>
<text text-anchor="middle" x="306.5" y="-665.5" font-family="Helvetica,sans-Serif" font-size="10.00">CameraComponentInstance</text>
</a>
</g>
</g>
<!-- Node0&#45;&gt;Node12 -->
<g id="edge12" class="edge">
<title>Node0&#45;&gt;Node12</title>
<path fill="none" stroke="midnightblue" d="M135.99,-466.89C142.21,-507.72 162.29,-601.14 220,-649 225.27,-653.37 231.32,-656.79 237.73,-659.46"/>
<polygon fill="midnightblue" stroke="midnightblue" points="139.44,-466.27 134.59,-456.85 132.51,-467.24 139.44,-466.27"/>
</g>
<!-- Node15 -->
<g id="node16" class="node">
<title>Node15</title>
<g id="a_node16"><a xlink:href="../../d7/d74/classnap_1_1_camera_controller_instance.html" target="_top" xlink:title="CameraControllerInstance">
<polygon fill="white" stroke="black" points="242.5,-620.5 242.5,-639.5 370.5,-639.5 370.5,-620.5 242.5,-620.5"/>
<text text-anchor="middle" x="306.5" y="-627.5" font-family="Helvetica,sans-Serif" font-size="10.00">CameraControllerInstance</text>
</a>
</g>
</g>
<!-- Node0&#45;&gt;Node15 -->
<g id="edge15" class="edge">
<title>Node0&#45;&gt;Node15</title>
<path fill="none" stroke="midnightblue" d="M138.03,-466.46C147.19,-501.22 171.29,-573.81 220,-611 226.65,-616.07 234.39,-619.85 242.44,-622.64"/>
<polygon fill="midnightblue" stroke="midnightblue" points="141.39,-465.46 135.57,-456.6 134.6,-467.15 141.39,-465.46"/>
</g>
<!-- Node16 -->
<g id="node17" class="node">
<title>Node16</title>
<g id="a_node17"><a xlink:href="../../d6/d02/classnap_1_1_c_v_capture_component_instance.html" target="_top" xlink:title="CVCaptureComponentInstance">
<polygon fill="white" stroke="black" points="231.5,-582.5 231.5,-601.5 381.5,-601.5 381.5,-582.5 231.5,-582.5"/>
<text text-anchor="middle" x="306.5" y="-589.5" font-family="Helvetica,sans-Serif" font-size="10.00">CVCaptureComponentInstance</text>
</a>
</g>
</g>
<!-- Node0&#45;&gt;Node16 -->
<g id="edge16" class="edge">
<title>Node0&#45;&gt;Node16</title>
<path fill="none" stroke="midnightblue" d="M141.2,-466.24C153.47,-494.33 180.22,-546.14 220,-573 225.67,-576.83 231.99,-579.9 238.55,-582.36"/>
<polygon fill="midnightblue" stroke="midnightblue" points="144.3,-464.6 137.2,-456.73 137.85,-467.31 144.3,-464.6"/>
</g>
<!-- Node17 -->
<g id="node18" class="node">
<title>Node17</title>
<g id="a_node18"><a xlink:href="../../da/d07/classnap_1_1_c_v_classify_component_instance.html" target="_top" xlink:title="CVClassifyComponentInstance">
<polygon fill="white" stroke="black" points="231,-544.5 231,-563.5 382,-563.5 382,-544.5 231,-544.5"/>
<text text-anchor="middle" x="306.5" y="-551.5" font-family="Helvetica,sans-Serif" font-size="10.00">CVClassifyComponentInstance</text>
</a>
</g>
</g>
<!-- Node0&#45;&gt;Node17 -->
<g id="edge17" class="edge">
<title>Node0&#45;&gt;Node17</title>
<path fill="none" stroke="midnightblue" d="M146.23,-464.82C161.47,-484.78 188.87,-516.63 220,-534 227.85,-538.38 236.63,-541.81 245.48,-544.48"/>
<polygon fill="midnightblue" stroke="midnightblue" points="148.89,-462.52 140.12,-456.57 143.26,-466.69 148.89,-462.52"/>
</g>
<!-- Node18 -->
<g id="node19" class="node">
<title>Node18</title>
<g id="a_node19"><a xlink:href="../../d8/d98/classnap_1_1_default_input_router_component_instance.html" target="_top" xlink:title="DefaultInputRouterComponent\lInstance">
<polygon fill="white" stroke="black" points="233.5,-495 233.5,-525 379.5,-525 379.5,-495 233.5,-495"/>
<text text-anchor="start" x="241.5" y="-513" font-family="Helvetica,sans-Serif" font-size="10.00">DefaultInputRouterComponent</text>
<text text-anchor="middle" x="306.5" y="-502" font-family="Helvetica,sans-Serif" font-size="10.00">Instance</text>
</a>
</g>
</g>
<!-- Node0&#45;&gt;Node18 -->
<g id="edge18" class="edge">
<title>Node0&#45;&gt;Node18</title>
<path fill="none" stroke="midnightblue" d="M162.65,-460.93C179.25,-468.58 200.55,-477.92 220,-485 229.59,-488.49 239.92,-491.85 249.97,-494.9"/>
<polygon fill="midnightblue" stroke="midnightblue" points="164.02,-457.71 153.47,-456.66 161.06,-464.05 164.02,-457.71"/>
</g>
<!-- Node19 -->
<g id="node20" class="node">
<title>Node19</title>
<g id="a_node20"><a xlink:href="../../d7/daf/classnap_1_1_first_person_controller_instance.html" target="_top" xlink:title="FirstPersonControllerInstance">
<polygon fill="white" stroke="black" points="234,-456.5 234,-475.5 379,-475.5 379,-456.5 234,-456.5"/>
<text text-anchor="middle" x="306.5" y="-463.5" font-family="Helvetica,sans-Serif" font-size="10.00">FirstPersonControllerInstance</text>
</a>
</g>
</g>
<!-- Node0&#45;&gt;Node19 -->
<g id="edge19" class="edge">
<title>Node0&#45;&gt;Node19</title>
<path fill="none" stroke="midnightblue" d="M194.25,-453.71C207.05,-455.12 220.68,-456.63 233.84,-458.08"/>
<polygon fill="midnightblue" stroke="midnightblue" points="194.5,-450.22 184.18,-452.6 193.73,-457.17 194.5,-450.22"/>
</g>
<!-- Node20 -->
<g id="node21" class="node">
<title>Node20</title>
<g id="a_node21"><a xlink:href="../../dc/da6/classnap_1_1_input_component_instance.html" target="_top" xlink:title="InputComponentInstance">
<polygon fill="white" stroke="black" points="244.5,-418.5 244.5,-437.5 368.5,-437.5 368.5,-418.5 244.5,-418.5"/>
<text text-anchor="middle" x="306.5" y="-425.5" font-family="Helvetica,sans-Serif" font-size="10.00">InputComponentInstance</text>
</a>
</g>
</g>
<!-- Node0&#45;&gt;Node20 -->
<g id="edge20" class="edge">
<title>Node0&#45;&gt;Node20</title>
<path fill="none" stroke="midnightblue" d="M194.56,-440.25C210.69,-438.47 228.1,-436.55 244.24,-434.77"/>
<polygon fill="midnightblue" stroke="midnightblue" points="193.73,-436.83 184.18,-441.4 194.5,-443.78 193.73,-436.83"/>
</g>
<!-- Node24 -->
<g id="node25" class="node">
<title>Node24</title>
<g id="a_node25"><a xlink:href="../../d7/d13/classnap_1_1_midi_input_component_instance.html" target="_top" xlink:title="MidiInputComponentInstance">
<polygon fill="white" stroke="black" points="235.5,-380.5 235.5,-399.5 377.5,-399.5 377.5,-380.5 235.5,-380.5"/>
<text text-anchor="middle" x="306.5" y="-387.5" font-family="Helvetica,sans-Serif" font-size="10.00">MidiInputComponentInstance</text>
</a>
</g>
</g>
<!-- Node0&#45;&gt;Node24 -->
<g id="edge24" class="edge">
<title>Node0&#45;&gt;Node24</title>
<path fill="none" stroke="midnightblue" d="M161.5,-433.03C178.17,-425.14 199.93,-415.57 220,-409 231.13,-405.36 243.3,-402.19 254.87,-399.54"/>
<polygon fill="midnightblue" stroke="midnightblue" points="159.81,-429.96 152.32,-437.45 162.85,-436.27 159.81,-429.96"/>
</g>
<!-- Node25 -->
<g id="node26" class="node">
<title>Node25</title>
<g id="a_node26"><a xlink:href="../../dd/d4b/classnap_1_1_orbit_controller_instance.html" target="_top" xlink:title="OrbitControllerInstance">
<polygon fill="white" stroke="black" points="248.5,-342.5 248.5,-361.5 364.5,-361.5 364.5,-342.5 248.5,-342.5"/>
<text text-anchor="middle" x="306.5" y="-349.5" font-family="Helvetica,sans-Serif" font-size="10.00">OrbitControllerInstance</text>
</a>
</g>
</g>
<!-- Node0&#45;&gt;Node25 -->
<g id="edge25" class="edge">
<title>Node0&#45;&gt;Node25</title>
<path fill="none" stroke="midnightblue" d="M148.37,-429.57C164.3,-412.06 191.2,-385.62 220,-371 228.81,-366.53 238.66,-363.1 248.45,-360.48"/>
<polygon fill="midnightblue" stroke="midnightblue" points="145.48,-427.56 141.47,-437.36 150.72,-432.2 145.48,-427.56"/>
</g>
<!-- Node26 -->
<g id="node27" class="node">
<title>Node26</title>
<g id="a_node27"><a xlink:href="../../dc/d66/classnap_1_1_ortho_controller_instance.html" target="_top" xlink:title="OrthoControllerInstance">
<polygon fill="white" stroke="black" points="247,-304.5 247,-323.5 366,-323.5 366,-304.5 247,-304.5"/>
<text text-anchor="middle" x="306.5" y="-311.5" font-family="Helvetica,sans-Serif" font-size="10.00">OrthoControllerInstance</text>
</a>
</g>
</g>
<!-- Node0&#45;&gt;Node26 -->
<g id="edge26" class="edge">
<title>Node0&#45;&gt;Node26</title>
<path fill="none" stroke="midnightblue" d="M142.45,-428.11C155.67,-402.38 182.89,-356.8 220,-333 228.06,-327.83 237.34,-324.05 246.74,-321.3"/>
<polygon fill="midnightblue" stroke="midnightblue" points="139.25,-426.69 137.94,-437.21 145.52,-429.8 139.25,-426.69"/>
</g>
<!-- Node27 -->
<g id="node28" class="node">
<title>Node27</title>
<g id="a_node28"><a xlink:href="../../db/d52/classnap_1_1_o_s_c_input_component_instance.html" target="_top" xlink:title="OSCInputComponentInstance">
<polygon fill="white" stroke="black" points="234,-266.5 234,-285.5 379,-285.5 379,-266.5 234,-266.5"/>
<text text-anchor="middle" x="306.5" y="-273.5" font-family="Helvetica,sans-Serif" font-size="10.00">OSCInputComponentInstance</text>
</a>
</g>
</g>
<!-- Node0&#45;&gt;Node27 -->
<g id="edge27" class="edge">
<title>Node0&#45;&gt;Node27</title>
<path fill="none" stroke="midnightblue" d="M138.88,-427.58C149.02,-394.83 174.14,-328.87 220,-295 225.26,-291.12 231.17,-288 237.35,-285.51"/>
<polygon fill="midnightblue" stroke="midnightblue" points="135.48,-426.74 136.01,-437.32 142.2,-428.72 135.48,-426.74"/>
</g>
<!-- Node28 -->
<g id="node29" class="node">
<title>Node28</title>
<g id="a_node29"><a xlink:href="../../d6/d8f/classnap_1_1_parameter_blend_component_instance.html" target="_top" xlink:title="ParameterBlendComponentInstance">
<polygon fill="white" stroke="black" points="220,-228.5 220,-247.5 393,-247.5 393,-228.5 220,-228.5"/>
<text text-anchor="middle" x="306.5" y="-235.5" font-family="Helvetica,sans-Serif" font-size="10.00">ParameterBlendComponentInstance</text>
</a>
</g>
</g>
<!-- Node0&#45;&gt;Node28 -->
<g id="edge28" class="edge">
<title>Node0&#45;&gt;Node28</title>
<path fill="none" stroke="midnightblue" d="M136.57,-427.22C143.7,-388.25 165.16,-301.45 220,-257 224.73,-253.17 230.06,-250.07 235.7,-247.57"/>
<polygon fill="midnightblue" stroke="midnightblue" points="133.08,-426.83 134.86,-437.28 139.98,-428.01 133.08,-426.83"/>
</g>
<!-- Node29 -->
<g id="node30" class="node">
<title>Node29</title>
<g id="a_node30"><a xlink:href="../../db/d0d/classnap_1_1_portal_component_instance.html" target="_top" xlink:title="PortalComponentInstance">
<polygon fill="white" stroke="black" points="242.5,-190.5 242.5,-209.5 370.5,-209.5 370.5,-190.5 242.5,-190.5"/>
<text text-anchor="middle" x="306.5" y="-197.5" font-family="Helvetica,sans-Serif" font-size="10.00">PortalComponentInstance</text>
</a>
</g>
</g>
<!-- Node0&#45;&gt;Node29 -->
<g id="edge29" class="edge">
<title>Node0&#45;&gt;Node29</title>
<path fill="none" stroke="midnightblue" d="M134.88,-427.36C139.1,-382.99 155.8,-274.56 220,-219 226.44,-213.43 234.15,-209.38 242.27,-206.47"/>
<polygon fill="midnightblue" stroke="midnightblue" points="131.39,-427.16 134.04,-437.41 138.36,-427.74 131.39,-427.16"/>
</g>
<!-- Node30 -->
<g id="node31" class="node">
<title>Node30</title>
<g id="a_node31"><a xlink:href="../../d0/d33/classnap_1_1_python_script_component_instance.html" target="_top" xlink:title="PythonScriptComponentInstance">
<polygon fill="white" stroke="black" points="227,-152.5 227,-171.5 386,-171.5 386,-152.5 227,-152.5"/>
<text text-anchor="middle" x="306.5" y="-159.5" font-family="Helvetica,sans-Serif" font-size="10.00">PythonScriptComponentInstance</text>
</a>
</g>
</g>
<!-- Node0&#45;&gt;Node30 -->
<g id="edge30" class="edge">
<title>Node0&#45;&gt;Node30</title>
<path fill="none" stroke="midnightblue" d="M133.67,-427.21C135.22,-377.73 146.46,-247.81 220,-181 224.16,-177.22 228.91,-174.13 233.98,-171.62"/>
<polygon fill="midnightblue" stroke="midnightblue" points="130.16,-427.42 133.45,-437.49 137.16,-427.57 130.16,-427.42"/>
</g>
<!-- Node31 -->
<g id="node32" class="node">
<title>Node31</title>
<g id="a_node32"><a xlink:href="../../dd/da0/classnap_1_1_renderable_component_instance.html" target="_top" xlink:title="RenderableComponentInstance">
<polygon fill="white" stroke="black" points="230.5,-114.5 230.5,-133.5 382.5,-133.5 382.5,-114.5 230.5,-114.5"/>
<text text-anchor="middle" x="306.5" y="-121.5" font-family="Helvetica,sans-Serif" font-size="10.00">RenderableComponentInstance</text>
</a>
</g>
</g>
<!-- Node0&#45;&gt;Node31 -->
<g id="edge31" class="edge">
<title>Node0&#45;&gt;Node31</title>
<path fill="none" stroke="midnightblue" d="M132.72,-427.01C131.77,-372.7 137.06,-221.22 220,-143 223.98,-139.24 228.54,-136.17 233.42,-133.66"/>
<polygon fill="midnightblue" stroke="midnightblue" points="129.23,-427.43 133,-437.33 136.23,-427.24 129.23,-427.43"/>
</g>
<!-- Node39 -->
<g id="node40" class="node">
<title>Node39</title>
<g id="a_node40"><a xlink:href="../../df/d71/classnap_1_1_rotate_component_instance.html" target="_top" xlink:title="RotateComponentInstance">
<polygon fill="white" stroke="black" points="241,-76.5 241,-95.5 372,-95.5 372,-76.5 241,-76.5"/>
<text text-anchor="middle" x="306.5" y="-83.5" font-family="Helvetica,sans-Serif" font-size="10.00">RotateComponentInstance</text>
</a>
</g>
</g>
<!-- Node0&#45;&gt;Node39 -->
<g id="edge39" class="edge">
<title>Node0&#45;&gt;Node39</title>
<path fill="none" stroke="midnightblue" d="M135.8,-427.1C143.84,-361.09 172.76,-150.89 220,-105 225.89,-99.28 233.1,-95.13 240.81,-92.13"/>
<polygon fill="midnightblue" stroke="midnightblue" points="132.29,-427.02 134.58,-437.37 139.24,-427.85 132.29,-427.02"/>
</g>
<!-- Node40 -->
<g id="node41" class="node">
<title>Node40</title>
<g id="a_node41"><a xlink:href="../../d2/d51/classnap_1_1_transform_component_instance.html" target="_top" xlink:title="TransformComponentInstance">
<polygon fill="white" stroke="black" points="233.5,-38.5 233.5,-57.5 379.5,-57.5 379.5,-38.5 233.5,-38.5"/>
<text text-anchor="middle" x="306.5" y="-45.5" font-family="Helvetica,sans-Serif" font-size="10.00">TransformComponentInstance</text>
</a>
</g>
</g>
<!-- Node0&#45;&gt;Node40 -->
<g id="edge40" class="edge">
<title>Node0&#45;&gt;Node40</title>
<path fill="none" stroke="midnightblue" d="M135.25,-427.22C141.9,-356.68 167.86,-118.87 220,-67 223.88,-63.14 228.36,-59.99 233.19,-57.42"/>
<polygon fill="midnightblue" stroke="midnightblue" points="131.75,-427.11 134.32,-437.39 138.72,-427.75 131.75,-427.11"/>
</g>
<!-- Node41 -->
<g id="node42" class="node">
<title>Node41</title>
<g id="a_node42"><a xlink:href="../../d4/d37/classnap_1_1_web_socket_component_instance.html" target="_top" xlink:title="WebSocketComponentInstance">
<polygon fill="white" stroke="black" points="229.5,-0.5 229.5,-19.5 383.5,-19.5 383.5,-0.5 229.5,-0.5"/>
<text text-anchor="middle" x="306.5" y="-7.5" font-family="Helvetica,sans-Serif" font-size="10.00">WebSocketComponentInstance</text>
</a>
</g>
</g>
<!-- Node0&#45;&gt;Node41 -->
<g id="edge41" class="edge">
<title>Node0&#45;&gt;Node41</title>
<path fill="none" stroke="midnightblue" d="M134.81,-427.2C140.18,-352.2 162.98,-86.86 220,-29 223.74,-25.21 228.05,-22.1 232.71,-19.56"/>
<polygon fill="midnightblue" stroke="midnightblue" points="131.32,-426.98 134.12,-437.19 138.3,-427.46 131.32,-426.98"/>
</g>
<!-- Node1 -->
<g id="node2" class="node">
<title>Node1</title>
<g id="a_node2"><a xlink:href="../../de/d01/classnap_1_1rtti_1_1_object.html" target="_top" xlink:title="Object">
<polygon fill="white" stroke="black" points="0,-437.5 0,-456.5 45,-456.5 45,-437.5 0,-437.5"/>
<text text-anchor="middle" x="22.5" y="-444.5" font-family="Helvetica,sans-Serif" font-size="10.00">Object</text>
</a>
</g>
</g>
<!-- Node1&#45;&gt;Node0 -->
<g id="edge1" class="edge">
<title>Node1&#45;&gt;Node0</title>
<path fill="none" stroke="midnightblue" d="M55.17,-447C63.25,-447 72.14,-447 80.9,-447"/>
<polygon fill="midnightblue" stroke="midnightblue" points="55.1,-443.5 45.1,-447 55.1,-450.5 55.1,-443.5"/>
</g>
<!-- Node5 -->
<g id="node6" class="node">
<title>Node5</title>
<g id="a_node6"><a xlink:href="../../dc/d8b/classnap_1_1audio_1_1_audio_input_component_instance.html" target="_top" xlink:title="AudioInputComponentInstance">
<polygon fill="white" stroke="black" points="442.5,-870.5 442.5,-889.5 591.5,-889.5 591.5,-870.5 442.5,-870.5"/>
<text text-anchor="middle" x="517" y="-877.5" font-family="Helvetica,sans-Serif" font-size="10.00">AudioInputComponentInstance</text>
</a>
</g>
</g>
<!-- Node4&#45;&gt;Node5 -->
<g id="edge5" class="edge">
<title>Node4&#45;&gt;Node5</title>
<path fill="none" stroke="midnightblue" d="M373.06,-832.22C379.89,-834.19 386.65,-836.44 393,-839 410.39,-846.02 411.6,-854.01 429,-861 438.47,-864.8 448.84,-867.91 459.01,-870.42"/>
<polygon fill="midnightblue" stroke="midnightblue" points="373.61,-828.75 363.05,-829.54 371.8,-835.51 373.61,-828.75"/>
</g>
<!-- Node6 -->
<g id="node7" class="node">
<title>Node6</title>
<g id="a_node7"><a xlink:href="../../d5/d5b/classnap_1_1audio_1_1_playback_component_instance.html" target="_top" xlink:title="PlaybackComponentInstance">
<polygon fill="white" stroke="black" points="445.5,-832.5 445.5,-851.5 588.5,-851.5 588.5,-832.5 445.5,-832.5"/>
<text text-anchor="middle" x="517" y="-839.5" font-family="Helvetica,sans-Serif" font-size="10.00">PlaybackComponentInstance</text>
</a>
</g>
</g>
<!-- Node4&#45;&gt;Node6 -->
<g id="edge6" class="edge">
<title>Node4&#45;&gt;Node6</title>
<path fill="none" stroke="midnightblue" d="M391.92,-828.91C409.63,-830.78 428.14,-832.73 445.29,-834.54"/>
<polygon fill="midnightblue" stroke="midnightblue" points="391.91,-825.39 381.6,-827.82 391.17,-832.35 391.91,-825.39"/>
</g>
<!-- Node7 -->
<g id="node8" class="node">
<title>Node7</title>
<g id="a_node8"><a xlink:href="../../d4/da3/classnap_1_1audio_1_1_sequence_player_audio_output_component_instance.html" target="_top" xlink:title="SequencePlayerAudioOutput\lComponentInstance">
<polygon fill="white" stroke="black" points="446,-783 446,-813 588,-813 588,-783 446,-783"/>
<text text-anchor="start" x="454" y="-801" font-family="Helvetica,sans-Serif" font-size="10.00">SequencePlayerAudioOutput</text>
<text text-anchor="middle" x="517" y="-790" font-family="Helvetica,sans-Serif" font-size="10.00">ComponentInstance</text>
</a>
</g>
</g>
<!-- Node4&#45;&gt;Node7 -->
<g id="edge7" class="edge">
<title>Node4&#45;&gt;Node7</title>
<path fill="none" stroke="midnightblue" d="M391.78,-811.11C409.78,-809.21 428.59,-807.22 445.98,-805.39"/>
<polygon fill="midnightblue" stroke="midnightblue" points="391.17,-807.65 381.6,-812.18 391.91,-814.61 391.17,-807.65"/>
</g>
<!-- Node8 -->
<g id="node9" class="node">
<title>Node8</title>
<g id="a_node9"><a xlink:href="../../df/de7/classnap_1_1audio_1_1_video_audio_component_instance.html" target="_top" xlink:title="VideoAudioComponentInstance">
<polygon fill="white" stroke="black" points="441,-744.5 441,-763.5 593,-763.5 593,-744.5 441,-744.5"/>
<text text-anchor="middle" x="517" y="-751.5" font-family="Helvetica,sans-Serif" font-size="10.00">VideoAudioComponentInstance</text>
</a>
</g>
</g>
<!-- Node4&#45;&gt;Node8 -->
<g id="edge8" class="edge">
<title>Node4&#45;&gt;Node8</title>
<path fill="none" stroke="midnightblue" d="M376,-807.54C381.86,-805.65 387.6,-803.48 393,-801 411.17,-792.64 410.86,-782.42 429,-774 438.28,-769.69 448.55,-766.28 458.7,-763.58"/>
<polygon fill="midnightblue" stroke="midnightblue" points="374.68,-804.28 366.08,-810.47 376.66,-811 374.68,-804.28"/>
</g>
<!-- Node13 -->
<g id="node14" class="node">
<title>Node13</title>
<g id="a_node14"><a xlink:href="../../de/daa/classnap_1_1_ortho_camera_component_instance.html" target="_top" xlink:title="OrthoCameraComponentInstance">
<polygon fill="white" stroke="black" points="436.5,-677.5 436.5,-696.5 597.5,-696.5 597.5,-677.5 436.5,-677.5"/>
<text text-anchor="middle" x="517" y="-684.5" font-family="Helvetica,sans-Serif" font-size="10.00">OrthoCameraComponentInstance</text>
</a>
</g>
</g>
<!-- Node12&#45;&gt;Node13 -->
<g id="edge13" class="edge">
<title>Node12&#45;&gt;Node13</title>
<path fill="none" stroke="midnightblue" d="M385.41,-675.1C402.03,-676.61 419.61,-678.22 436.31,-679.74"/>
<polygon fill="midnightblue" stroke="midnightblue" points="385.47,-671.59 375.19,-674.17 384.84,-678.56 385.47,-671.59"/>
</g>
<!-- Node14 -->
<g id="node15" class="node">
<title>Node14</title>
<g id="a_node15"><a xlink:href="../../d2/d87/classnap_1_1_persp_camera_component_instance.html" target="_top" xlink:title="PerspCameraComponentInstance">
<polygon fill="white" stroke="black" points="436,-639.5 436,-658.5 598,-658.5 598,-639.5 436,-639.5"/>
<text text-anchor="middle" x="517" y="-646.5" font-family="Helvetica,sans-Serif" font-size="10.00">PerspCameraComponentInstance</text>
</a>
</g>
</g>
<!-- Node12&#45;&gt;Node14 -->
<g id="edge14" class="edge">
<title>Node12&#45;&gt;Node14</title>
<path fill="none" stroke="midnightblue" d="M385.34,-660.91C401.86,-659.4 419.33,-657.81 435.94,-656.3"/>
<polygon fill="midnightblue" stroke="midnightblue" points="384.84,-657.44 375.19,-661.83 385.47,-664.41 384.84,-657.44"/>
</g>
<!-- Node21 -->
<g id="node22" class="node">
<title>Node21</title>
<g id="a_node22"><a xlink:href="../../d1/dd4/classnap_1_1_controller_input_component_instance.html" target="_top" xlink:title="ControllerInputComponent\lInstance">
<polygon fill="white" stroke="black" points="453,-457 453,-487 581,-487 581,-457 453,-457"/>
<text text-anchor="start" x="461" y="-475" font-family="Helvetica,sans-Serif" font-size="10.00">ControllerInputComponent</text>
<text text-anchor="middle" x="517" y="-464" font-family="Helvetica,sans-Serif" font-size="10.00">Instance</text>
</a>
</g>
</g>
<!-- Node20&#45;&gt;Node21 -->
<g id="edge21" class="edge">
<title>Node20&#45;&gt;Node21</title>
<path fill="none" stroke="midnightblue" d="M362.64,-439.64C390.3,-445.47 423.94,-452.57 452.66,-458.63"/>
<polygon fill="midnightblue" stroke="midnightblue" points="363.25,-436.19 352.74,-437.55 361.8,-443.04 363.25,-436.19"/>
</g>
<!-- Node22 -->
<g id="node23" class="node">
<title>Node22</title>
<g id="a_node23"><a xlink:href="../../d3/d36/classnap_1_1_key_input_component_instance.html" target="_top" xlink:title="KeyInputComponentInstance">
<polygon fill="white" stroke="black" points="446.5,-418.5 446.5,-437.5 587.5,-437.5 587.5,-418.5 446.5,-418.5"/>
<text text-anchor="middle" x="517" y="-425.5" font-family="Helvetica,sans-Serif" font-size="10.00">KeyInputComponentInstance</text>
</a>
</g>
</g>
<!-- Node20&#45;&gt;Node22 -->
<g id="edge22" class="edge">
<title>Node20&#45;&gt;Node22</title>
<path fill="none" stroke="midnightblue" d="M378.85,-428C400.7,-428 424.7,-428 446.42,-428"/>
<polygon fill="midnightblue" stroke="midnightblue" points="378.65,-424.5 368.65,-428 378.65,-431.5 378.65,-424.5"/>
</g>
<!-- Node23 -->
<g id="node24" class="node">
<title>Node23</title>
<g id="a_node24"><a xlink:href="../../df/d36/classnap_1_1_pointer_input_component_instance.html" target="_top" xlink:title="PointerInputComponentInstance">
<polygon fill="white" stroke="black" points="439.5,-380.5 439.5,-399.5 594.5,-399.5 594.5,-380.5 439.5,-380.5"/>
<text text-anchor="middle" x="517" y="-387.5" font-family="Helvetica,sans-Serif" font-size="10.00">PointerInputComponentInstance</text>
</a>
</g>
</g>
<!-- Node20&#45;&gt;Node23 -->
<g id="edge23" class="edge">
<title>Node20&#45;&gt;Node23</title>
<path fill="none" stroke="midnightblue" d="M369.76,-416.65C399.67,-411.2 435.13,-404.74 463.63,-399.54"/>
<polygon fill="midnightblue" stroke="midnightblue" points="369.05,-413.22 359.84,-418.46 370.31,-420.11 369.05,-413.22"/>
</g>
<!-- Node32 -->
<g id="node33" class="node">
<title>Node32</title>
<g id="a_node33"><a xlink:href="../../d9/d73/classnap_1_1_renderable_mesh_component_instance.html" target="_top" xlink:title="RenderableMeshComponentInstance">
<polygon fill="white" stroke="black" points="429,-190.5 429,-209.5 605,-209.5 605,-190.5 429,-190.5"/>
<text text-anchor="middle" x="517" y="-197.5" font-family="Helvetica,sans-Serif" font-size="10.00">RenderableMeshComponentInstance</text>
</a>
</g>
</g>
<!-- Node31&#45;&gt;Node32 -->
<g id="edge32" class="edge">
<title>Node31&#45;&gt;Node32</title>
<path fill="none" stroke="midnightblue" d="M380.45,-137.01C384.8,-138.76 389.02,-140.75 393,-143 413.24,-154.47 408.74,-169.57 429,-181 435.87,-184.87 443.45,-187.96 451.19,-190.42"/>
<polygon fill="midnightblue" stroke="midnightblue" points="381.34,-133.61 370.74,-133.54 378.98,-140.2 381.34,-133.61"/>
</g>
<!-- Node33 -->
<g id="node34" class="node">
<title>Node33</title>
<g id="a_node34"><a xlink:href="../../db/d63/classnap_1_1_renderable_text_component_instance.html" target="_top" xlink:title="RenderableTextComponentInstance">
<polygon fill="white" stroke="black" points="432,-152.5 432,-171.5 602,-171.5 602,-152.5 432,-152.5"/>
<text text-anchor="middle" x="517" y="-159.5" font-family="Helvetica,sans-Serif" font-size="10.00">RenderableTextComponentInstance</text>
</a>
</g>
</g>
<!-- Node31&#45;&gt;Node33 -->
<g id="edge33" class="edge">
<title>Node31&#45;&gt;Node33</title>
<path fill="none" stroke="midnightblue" d="M369.76,-135.35C399.67,-140.8 435.13,-147.26 463.63,-152.46"/>
<polygon fill="midnightblue" stroke="midnightblue" points="370.31,-131.89 359.84,-133.54 369.05,-138.78 370.31,-131.89"/>
</g>
<!-- Node36 -->
<g id="node37" class="node">
<title>Node36</title>
<g id="a_node37"><a xlink:href="../../db/dce/classnap_1_1_render_gnomon_component_instance.html" target="_top" xlink:title="RenderGnomonComponentInstance">
<polygon fill="white" stroke="black" points="432,-114.5 432,-133.5 602,-133.5 602,-114.5 432,-114.5"/>
<text text-anchor="middle" x="517" y="-121.5" font-family="Helvetica,sans-Serif" font-size="10.00">RenderGnomonComponentInstance</text>
</a>
</g>
</g>
<!-- Node31&#45;&gt;Node36 -->
<g id="edge36" class="edge">
<title>Node31&#45;&gt;Node36</title>
<path fill="none" stroke="midnightblue" d="M392.93,-124C405.71,-124 418.88,-124 431.65,-124"/>
<polygon fill="midnightblue" stroke="midnightblue" points="392.77,-120.5 382.77,-124 392.77,-127.5 392.77,-120.5"/>
</g>
<!-- Node37 -->
<g id="node38" class="node">
<title>Node37</title>
<g id="a_node38"><a xlink:href="../../d5/d30/classnap_1_1_render_to_texture_component_instance.html" target="_top" xlink:title="RenderToTextureComponent\lInstance">
<polygon fill="white" stroke="black" points="447,-65 447,-95 587,-95 587,-65 447,-65"/>
<text text-anchor="start" x="455" y="-83" font-family="Helvetica,sans-Serif" font-size="10.00">RenderToTextureComponent</text>
<text text-anchor="middle" x="517" y="-72" font-family="Helvetica,sans-Serif" font-size="10.00">Instance</text>
</a>
</g>
</g>
<!-- Node31&#45;&gt;Node37 -->
<g id="edge37" class="edge">
<title>Node31&#45;&gt;Node37</title>
<path fill="none" stroke="midnightblue" d="M362.7,-112.35C388.44,-106.92 419.34,-100.4 446.64,-94.64"/>
<polygon fill="midnightblue" stroke="midnightblue" points="361.8,-108.96 352.74,-114.45 363.25,-115.81 361.8,-108.96"/>
</g>
<!-- Node38 -->
<g id="node39" class="node">
<title>Node38</title>
<g id="a_node39"><a xlink:href="../../df/d41/classnap_1_1_render_video_component_instance.html" target="_top" xlink:title="RenderVideoComponentInstance">
<polygon fill="white" stroke="black" points="438,-26.5 438,-45.5 596,-45.5 596,-26.5 438,-26.5"/>
<text text-anchor="middle" x="517" y="-33.5" font-family="Helvetica,sans-Serif" font-size="10.00">RenderVideoComponentInstance</text>
</a>
</g>
</g>
<!-- Node31&#45;&gt;Node38 -->
<g id="edge38" class="edge">
<title>Node31&#45;&gt;Node38</title>
<path fill="none" stroke="midnightblue" d="M383.2,-110.51C386.61,-108.87 389.9,-107.04 393,-105 415.86,-89.93 406.11,-70.03 429,-55 434.95,-51.1 441.56,-47.98 448.42,-45.5"/>
<polygon fill="midnightblue" stroke="midnightblue" points="381.79,-107.3 373.92,-114.39 384.5,-113.76 381.79,-107.3"/>
</g>
<!-- Node34 -->
<g id="node35" class="node">
<title>Node34</title>
<g id="a_node35"><a xlink:href="../../dc/d0b/classnap_1_1_renderable2_d_text_component_instance.html" target="_top" xlink:title="Renderable2DTextComponent\lInstance">
<polygon fill="white" stroke="black" points="641,-171 641,-201 787,-201 787,-171 641,-171"/>
<text text-anchor="start" x="649" y="-189" font-family="Helvetica,sans-Serif" font-size="10.00">Renderable2DTextComponent</text>
<text text-anchor="middle" x="714" y="-178" font-family="Helvetica,sans-Serif" font-size="10.00">Instance</text>
</a>
</g>
</g>
<!-- Node33&#45;&gt;Node34 -->
<g id="edge34" class="edge">
<title>Node33&#45;&gt;Node34</title>
<path fill="none" stroke="midnightblue" d="M605.62,-172.78C617.39,-174.23 629.36,-175.71 640.82,-177.12"/>
<polygon fill="midnightblue" stroke="midnightblue" points="605.7,-169.27 595.35,-171.52 604.85,-176.22 605.7,-169.27"/>
</g>
<!-- Node35 -->
<g id="node36" class="node">
<title>Node35</title>
<g id="a_node36"><a xlink:href="../../d4/d70/classnap_1_1_renderable3_d_text_component_instance.html" target="_top" xlink:title="Renderable3DTextComponent\lInstance">
<polygon fill="white" stroke="black" points="641,-122 641,-152 787,-152 787,-122 641,-122"/>
<text text-anchor="start" x="649" y="-140" font-family="Helvetica,sans-Serif" font-size="10.00">Renderable3DTextComponent</text>
<text text-anchor="middle" x="714" y="-129" font-family="Helvetica,sans-Serif" font-size="10.00">Instance</text>
</a>
</g>
</g>
<!-- Node33&#45;&gt;Node35 -->
<g id="edge35" class="edge">
<title>Node33&#45;&gt;Node35</title>
<path fill="none" stroke="midnightblue" d="M602.46,-151.17C615.25,-149.53 628.36,-147.85 640.86,-146.25"/>
<polygon fill="midnightblue" stroke="midnightblue" points="601.75,-147.73 592.28,-152.48 602.64,-154.68 601.75,-147.73"/>
</g>
</g>
</svg>
