<?xml version="1.0" encoding="UTF-8" standalone="no"?>
<!DOCTYPE svg PUBLIC "-//W3C//DTD SVG 1.1//EN"
 "http://www.w3.org/Graphics/SVG/1.1/DTD/svg11.dtd">
<!-- Generated by graphviz version 2.43.0 (0)
 -->
<!-- Title: ComponentInstance Pages: 1 -->
<svg width="864pt" height="952pt"
 viewBox="0.00 0.00 864.00 952.00" xmlns="http://www.w3.org/2000/svg" xmlns:xlink="http://www.w3.org/1999/xlink">
<g id="graph0" class="graph" transform="scale(1 1) rotate(0) translate(4 948)">
<title>ComponentInstance</title>
<polygon fill="white" stroke="transparent" points="-4,4 -4,-948 860,-948 860,4 -4,4"/>
<!-- Node1 -->
<g id="node1" class="node">
<title>Node1</title>
<g id="a_node1"><a xlink:title=" ">
<polygon fill="#bfbfbf" stroke="black" points="84,-456.5 84,-475.5 198,-475.5 198,-456.5 84,-456.5"/>
<text text-anchor="middle" x="141" y="-463.5" font-family="Helvetica,sans-Serif" font-size="10.00">ComponentInstance</text>
</a>
</g>
</g>
<!-- Node3 -->
<g id="node3" class="node">
<title>Node3</title>
<g id="a_node3"><a xlink:href="../../dc/de6/classnap_1_1_a_p_i_component_instance.html" target="_top" xlink:title=" ">
<polygon fill="white" stroke="black" points="265,-924.5 265,-943.5 395,-943.5 395,-924.5 265,-924.5"/>
<text text-anchor="middle" x="330" y="-931.5" font-family="Helvetica,sans-Serif" font-size="10.00">APIComponentInstance</text>
</a>
</g>
</g>
<!-- Node1&#45;&gt;Node3 -->
<g id="edge2" class="edge">
<title>Node1&#45;&gt;Node3</title>
<path fill="none" stroke="midnightblue" d="M143.22,-485.78C148.47,-564.34 171.78,-853.07 234,-915 242.34,-923.31 253.23,-928.49 264.64,-931.64"/>
<polygon fill="midnightblue" stroke="midnightblue" points="146.71,-485.52 142.57,-475.76 139.72,-485.97 146.71,-485.52"/>
</g>
<!-- Node4 -->
<g id="node4" class="node">
<title>Node4</title>
<g id="a_node4"><a xlink:href="../../d5/dd2/classnap_1_1_art_net_input_component_instance.html" target="_top" xlink:title=" ">
<polygon fill="white" stroke="black" points="245,-886.5 245,-905.5 415,-905.5 415,-886.5 245,-886.5"/>
<text text-anchor="middle" x="330" y="-893.5" font-family="Helvetica,sans-Serif" font-size="10.00">ArtNetInputComponentInstance</text>
</a>
</g>
</g>
<!-- Node1&#45;&gt;Node4 -->
<g id="edge3" class="edge">
<title>Node1&#45;&gt;Node4</title>
<path fill="none" stroke="midnightblue" d="M143.64,-485.98C150.17,-560.53 176.8,-821.09 234,-877 237.85,-880.76 242.22,-883.88 246.92,-886.46"/>
<polygon fill="midnightblue" stroke="midnightblue" points="147.1,-485.34 142.76,-475.67 140.12,-485.93 147.1,-485.34"/>
</g>
<!-- Node5 -->
<g id="node5" class="node">
<title>Node5</title>
<g id="a_node5"><a xlink:href="../../da/dde/classnap_1_1audio_1_1_audio_component_base_instance.html" target="_top" xlink:title=" ">
<polygon fill="white" stroke="black" points="247,-848.5 247,-867.5 413,-867.5 413,-848.5 247,-848.5"/>
<text text-anchor="middle" x="330" y="-855.5" font-family="Helvetica,sans-Serif" font-size="10.00">AudioComponentBaseInstance</text>
</a>
</g>
</g>
<!-- Node1&#45;&gt;Node5 -->
<g id="edge4" class="edge">
<title>Node1&#45;&gt;Node5</title>
<path fill="none" stroke="midnightblue" d="M144.12,-485.92C151.98,-555.91 181.72,-789 234,-839 237.89,-842.72 242.29,-845.81 247.02,-848.36"/>
<polygon fill="midnightblue" stroke="midnightblue" points="147.58,-485.37 143.01,-475.81 140.62,-486.13 147.58,-485.37"/>
</g>
<!-- Node10 -->
<g id="node10" class="node">
<title>Node10</title>
<g id="a_node10"><a xlink:href="../../db/d7c/classnap_1_1audio_1_1_level_meter_component_instance.html" target="_top" xlink:title=" ">
<polygon fill="white" stroke="black" points="245.5,-810.5 245.5,-829.5 414.5,-829.5 414.5,-810.5 245.5,-810.5"/>
<text text-anchor="middle" x="330" y="-817.5" font-family="Helvetica,sans-Serif" font-size="10.00">LevelMeterComponentInstance</text>
</a>
</g>
</g>
<!-- Node1&#45;&gt;Node10 -->
<g id="edge9" class="edge">
<title>Node1&#45;&gt;Node10</title>
<path fill="none" stroke="midnightblue" d="M144.72,-485.98C154.03,-551.29 186.65,-756.88 234,-801 238.06,-804.78 242.65,-807.91 247.57,-810.48"/>
<polygon fill="midnightblue" stroke="midnightblue" points="148.15,-485.21 143.3,-475.79 141.22,-486.18 148.15,-485.21"/>
</g>
<!-- Node11 -->
<g id="node11" class="node">
<title>Node11</title>
<g id="a_node11"><a xlink:href="../../de/d9c/classnap_1_1audio_1_1_output_component_instance.html" target="_top" xlink:title=" ">
<polygon fill="white" stroke="black" points="256.5,-772.5 256.5,-791.5 403.5,-791.5 403.5,-772.5 256.5,-772.5"/>
<text text-anchor="middle" x="330" y="-779.5" font-family="Helvetica,sans-Serif" font-size="10.00">OutputComponentInstance</text>
</a>
</g>
</g>
<!-- Node1&#45;&gt;Node11 -->
<g id="edge10" class="edge">
<title>Node1&#45;&gt;Node11</title>
<path fill="none" stroke="midnightblue" d="M141.7,-485.67C142.02,-539.08 150.72,-687.89 234,-763 240.37,-768.75 247.97,-772.96 256.06,-776.01"/>
<polygon fill="midnightblue" stroke="midnightblue" points="145.2,-485.53 141.74,-475.51 138.2,-485.5 145.2,-485.53"/>
</g>
<!-- Node12 -->
<g id="node12" class="node">
<title>Node12</title>
<g id="a_node12"><a xlink:href="../../d7/df3/classnap_1_1_calendar_component_instance.html" target="_top" xlink:title=" ">
<polygon fill="white" stroke="black" points="251,-734.5 251,-753.5 409,-753.5 409,-734.5 251,-734.5"/>
<text text-anchor="middle" x="330" y="-741.5" font-family="Helvetica,sans-Serif" font-size="10.00">CalendarComponentInstance</text>
</a>
</g>
</g>
<!-- Node1&#45;&gt;Node12 -->
<g id="edge11" class="edge">
<title>Node1&#45;&gt;Node12</title>
<path fill="none" stroke="midnightblue" d="M142.73,-485.74C145.66,-534.48 160.35,-661.25 234,-725 238.96,-729.29 244.61,-732.72 250.63,-735.44"/>
<polygon fill="midnightblue" stroke="midnightblue" points="146.22,-485.4 142.23,-475.59 139.23,-485.75 146.22,-485.4"/>
</g>
<!-- Node13 -->
<g id="node13" class="node">
<title>Node13</title>
<g id="a_node13"><a xlink:href="../../d6/df5/classnap_1_1_camera_component_instance.html" target="_top" xlink:title=" ">
<polygon fill="white" stroke="black" points="254,-696.5 254,-715.5 406,-715.5 406,-696.5 254,-696.5"/>
<text text-anchor="middle" x="330" y="-703.5" font-family="Helvetica,sans-Serif" font-size="10.00">CameraComponentInstance</text>
</a>
</g>
</g>
<!-- Node1&#45;&gt;Node13 -->
<g id="edge12" class="edge">
<title>Node1&#45;&gt;Node13</title>
<path fill="none" stroke="midnightblue" d="M144.09,-485.78C149.8,-529.45 169.85,-634.39 234,-687 239.85,-691.8 246.58,-695.5 253.7,-698.34"/>
<polygon fill="midnightblue" stroke="midnightblue" points="147.56,-485.36 142.9,-475.84 140.61,-486.19 147.56,-485.36"/>
</g>
<!-- Node16 -->
<g id="node16" class="node">
<title>Node16</title>
<g id="a_node16"><a xlink:href="../../d7/d74/classnap_1_1_camera_controller_instance.html" target="_top" xlink:title=" ">
<polygon fill="white" stroke="black" points="258,-658.5 258,-677.5 402,-677.5 402,-658.5 258,-658.5"/>
<text text-anchor="middle" x="330" y="-665.5" font-family="Helvetica,sans-Serif" font-size="10.00">CameraControllerInstance</text>
</a>
</g>
</g>
<!-- Node1&#45;&gt;Node16 -->
<g id="edge15" class="edge">
<title>Node1&#45;&gt;Node16</title>
<path fill="none" stroke="midnightblue" d="M145.94,-485.72C154.62,-523.77 179.17,-607.22 234,-649 241.09,-654.4 249.32,-658.38 257.9,-661.3"/>
<polygon fill="midnightblue" stroke="midnightblue" points="149.34,-484.91 143.82,-475.87 142.5,-486.38 149.34,-484.91"/>
</g>
<!-- Node17 -->
<g id="node17" class="node">
<title>Node17</title>
<g id="a_node17"><a xlink:href="../../dc/df3/classnap_1_1_compute_component_instance.html" target="_top" xlink:title=" ">
<polygon fill="white" stroke="black" points="251,-620.5 251,-639.5 409,-639.5 409,-620.5 251,-620.5"/>
<text text-anchor="middle" x="330" y="-627.5" font-family="Helvetica,sans-Serif" font-size="10.00">ComputeComponentInstance</text>
</a>
</g>
</g>
<!-- Node1&#45;&gt;Node17 -->
<g id="edge16" class="edge">
<title>Node1&#45;&gt;Node17</title>
<path fill="none" stroke="midnightblue" d="M148.45,-485.11C160.17,-516.71 188.06,-579.48 234,-611 239.55,-614.81 245.68,-617.89 252.08,-620.38"/>
<polygon fill="midnightblue" stroke="midnightblue" points="151.75,-483.93 145.1,-475.68 145.15,-486.28 151.75,-483.93"/>
</g>
<!-- Node18 -->
<g id="node18" class="node">
<title>Node18</title>
<g id="a_node18"><a xlink:href="../../d6/d02/classnap_1_1_c_v_capture_component_instance.html" target="_top" xlink:title=" ">
<polygon fill="white" stroke="black" points="247,-582.5 247,-601.5 413,-601.5 413,-582.5 247,-582.5"/>
<text text-anchor="middle" x="330" y="-589.5" font-family="Helvetica,sans-Serif" font-size="10.00">CVCaptureComponentInstance</text>
</a>
</g>
</g>
<!-- Node1&#45;&gt;Node18 -->
<g id="edge17" class="edge">
<title>Node1&#45;&gt;Node18</title>
<path fill="none" stroke="midnightblue" d="M152.29,-484.21C167.06,-508.55 196.66,-551.17 234,-573 240.53,-576.82 247.71,-579.88 255.09,-582.34"/>
<polygon fill="midnightblue" stroke="midnightblue" points="155.3,-482.41 147.21,-475.57 149.26,-485.96 155.3,-482.41"/>
</g>
<!-- Node19 -->
<g id="node19" class="node">
<title>Node19</title>
<g id="a_node19"><a xlink:href="../../da/d07/classnap_1_1_c_v_classify_component_instance.html" target="_top" xlink:title=" ">
<polygon fill="white" stroke="black" points="247,-544.5 247,-563.5 413,-563.5 413,-544.5 247,-544.5"/>
<text text-anchor="middle" x="330" y="-551.5" font-family="Helvetica,sans-Serif" font-size="10.00">CVClassifyComponentInstance</text>
</a>
</g>
</g>
<!-- Node1&#45;&gt;Node19 -->
<g id="edge18" class="edge">
<title>Node1&#45;&gt;Node19</title>
<path fill="none" stroke="midnightblue" d="M159.5,-482.58C176.99,-498.22 205.35,-521.14 234,-534 243.69,-538.35 254.36,-541.77 264.95,-544.45"/>
<polygon fill="midnightblue" stroke="midnightblue" points="161.57,-479.73 151.83,-475.56 156.84,-484.89 161.57,-479.73"/>
</g>
<!-- Node20 -->
<g id="node20" class="node">
<title>Node20</title>
<g id="a_node20"><a xlink:href="../../d8/d98/classnap_1_1_default_input_router_component_instance.html" target="_top" xlink:title=" ">
<polygon fill="white" stroke="black" points="247,-495 247,-525 413,-525 413,-495 247,-495"/>
<text text-anchor="start" x="255" y="-513" font-family="Helvetica,sans-Serif" font-size="10.00">DefaultInputRouterComponent</text>
<text text-anchor="middle" x="330" y="-502" font-family="Helvetica,sans-Serif" font-size="10.00">Instance</text>
</a>
</g>
</g>
<!-- Node1&#45;&gt;Node20 -->
<g id="edge19" class="edge">
<title>Node1&#45;&gt;Node20</title>
<path fill="none" stroke="midnightblue" d="M192.51,-477.88C214.82,-483.13 241.3,-489.36 264.97,-494.93"/>
<polygon fill="midnightblue" stroke="midnightblue" points="193.11,-474.43 182.58,-475.55 191.51,-481.24 193.11,-474.43"/>
</g>
<!-- Node21 -->
<g id="node21" class="node">
<title>Node21</title>
<g id="a_node21"><a xlink:href="../../d7/daf/classnap_1_1_first_person_controller_instance.html" target="_top" xlink:title=" ">
<polygon fill="white" stroke="black" points="250,-456.5 250,-475.5 410,-475.5 410,-456.5 250,-456.5"/>
<text text-anchor="middle" x="330" y="-463.5" font-family="Helvetica,sans-Serif" font-size="10.00">FirstPersonControllerInstance</text>
</a>
</g>
</g>
<!-- Node1&#45;&gt;Node21 -->
<g id="edge20" class="edge">
<title>Node1&#45;&gt;Node21</title>
<path fill="none" stroke="midnightblue" d="M208.21,-466C221.66,-466 235.93,-466 249.77,-466"/>
<polygon fill="midnightblue" stroke="midnightblue" points="208.11,-462.5 198.11,-466 208.11,-469.5 208.11,-462.5"/>
</g>
<!-- Node22 -->
<g id="node22" class="node">
<title>Node22</title>
<g id="a_node22"><a xlink:href="../../dc/da6/classnap_1_1_input_component_instance.html" target="_top" xlink:title=" ">
<polygon fill="white" stroke="black" points="260.5,-418.5 260.5,-437.5 399.5,-437.5 399.5,-418.5 260.5,-418.5"/>
<text text-anchor="middle" x="330" y="-425.5" font-family="Helvetica,sans-Serif" font-size="10.00">InputComponentInstance</text>
</a>
</g>
</g>
<!-- Node1&#45;&gt;Node22 -->
<g id="edge21" class="edge">
<title>Node1&#45;&gt;Node22</title>
<path fill="none" stroke="midnightblue" d="M197.72,-454.43C209.69,-451.97 222.26,-449.39 234,-447 249.33,-443.88 266.06,-440.52 281.15,-437.51"/>
<polygon fill="midnightblue" stroke="midnightblue" points="196.93,-451.02 187.85,-456.47 198.35,-457.88 196.93,-451.02"/>
</g>
<!-- Node26 -->
<g id="node26" class="node">
<title>Node26</title>
<g id="a_node26"><a xlink:href="../../d7/d13/classnap_1_1_midi_input_component_instance.html" target="_top" xlink:title=" ">
<polygon fill="white" stroke="black" points="250,-380.5 250,-399.5 410,-399.5 410,-380.5 250,-380.5"/>
<text text-anchor="middle" x="330" y="-387.5" font-family="Helvetica,sans-Serif" font-size="10.00">MidiInputComponentInstance</text>
</a>
</g>
</g>
<!-- Node1&#45;&gt;Node26 -->
<g id="edge25" class="edge">
<title>Node1&#45;&gt;Node26</title>
<path fill="none" stroke="midnightblue" d="M162.82,-450.07C180.75,-437.11 207.81,-419.34 234,-409 243.78,-405.14 254.44,-402.03 264.98,-399.54"/>
<polygon fill="midnightblue" stroke="midnightblue" points="160.29,-447.58 154.33,-456.34 164.45,-453.21 160.29,-447.58"/>
</g>
<!-- Node27 -->
<g id="node27" class="node">
<title>Node27</title>
<g id="a_node27"><a xlink:href="../../dd/d4b/classnap_1_1_orbit_controller_instance.html" target="_top" xlink:title=" ">
<polygon fill="white" stroke="black" points="265,-342.5 265,-361.5 395,-361.5 395,-342.5 265,-342.5"/>
<text text-anchor="middle" x="330" y="-349.5" font-family="Helvetica,sans-Serif" font-size="10.00">OrbitControllerInstance</text>
</a>
</g>
</g>
<!-- Node1&#45;&gt;Node27 -->
<g id="edge26" class="edge">
<title>Node1&#45;&gt;Node27</title>
<path fill="none" stroke="midnightblue" d="M154.16,-447.95C169.89,-426.08 199.43,-389.86 234,-371 243.45,-365.84 254.11,-362.08 264.79,-359.33"/>
<polygon fill="midnightblue" stroke="midnightblue" points="151.15,-446.14 148.28,-456.34 156.88,-450.15 151.15,-446.14"/>
</g>
<!-- Node28 -->
<g id="node28" class="node">
<title>Node28</title>
<g id="a_node28"><a xlink:href="../../dc/d66/classnap_1_1_ortho_controller_instance.html" target="_top" xlink:title=" ">
<polygon fill="white" stroke="black" points="263.5,-304.5 263.5,-323.5 396.5,-323.5 396.5,-304.5 263.5,-304.5"/>
<text text-anchor="middle" x="330" y="-311.5" font-family="Helvetica,sans-Serif" font-size="10.00">OrthoControllerInstance</text>
</a>
</g>
</g>
<!-- Node1&#45;&gt;Node28 -->
<g id="edge27" class="edge">
<title>Node1&#45;&gt;Node28</title>
<path fill="none" stroke="midnightblue" d="M149.6,-446.83C162.36,-417.35 190.96,-361.29 234,-333 242.71,-327.27 252.78,-323.2 263.03,-320.33"/>
<polygon fill="midnightblue" stroke="midnightblue" points="146.24,-445.82 145.63,-456.4 152.7,-448.51 146.24,-445.82"/>
</g>
<!-- Node29 -->
<g id="node29" class="node">
<title>Node29</title>
<g id="a_node29"><a xlink:href="../../db/d52/classnap_1_1_o_s_c_input_component_instance.html" target="_top" xlink:title=" ">
<polygon fill="white" stroke="black" points="250.5,-266.5 250.5,-285.5 409.5,-285.5 409.5,-266.5 250.5,-266.5"/>
<text text-anchor="middle" x="330" y="-273.5" font-family="Helvetica,sans-Serif" font-size="10.00">OSCInputComponentInstance</text>
</a>
</g>
</g>
<!-- Node1&#45;&gt;Node29 -->
<g id="edge28" class="edge">
<title>Node1&#45;&gt;Node29</title>
<path fill="none" stroke="midnightblue" d="M146.6,-446.57C156.21,-410.54 181.95,-333.54 234,-295 239.14,-291.2 244.84,-288.1 250.83,-285.59"/>
<polygon fill="midnightblue" stroke="midnightblue" points="143.19,-445.8 144.13,-456.35 149.97,-447.51 143.19,-445.8"/>
</g>
<!-- Node30 -->
<g id="node30" class="node">
<title>Node30</title>
<g id="a_node30"><a xlink:href="../../d6/d8f/classnap_1_1_parameter_blend_component_instance.html" target="_top" xlink:title=" ">
<polygon fill="white" stroke="black" points="234,-228.5 234,-247.5 426,-247.5 426,-228.5 234,-228.5"/>
<text text-anchor="middle" x="330" y="-235.5" font-family="Helvetica,sans-Serif" font-size="10.00">ParameterBlendComponentInstance</text>
</a>
</g>
</g>
<!-- Node1&#45;&gt;Node30 -->
<g id="edge29" class="edge">
<title>Node1&#45;&gt;Node30</title>
<path fill="none" stroke="midnightblue" d="M144.62,-446.16C151.27,-404.16 172.85,-306.13 234,-257 238.72,-253.21 243.99,-250.11 249.57,-247.58"/>
<polygon fill="midnightblue" stroke="midnightblue" points="141.13,-445.81 143.15,-456.21 148.06,-446.83 141.13,-445.81"/>
</g>
<!-- Node31 -->
<g id="node31" class="node">
<title>Node31</title>
<g id="a_node31"><a xlink:href="../../db/d0d/classnap_1_1_portal_component_instance.html" target="_top" xlink:title=" ">
<polygon fill="white" stroke="black" points="258.5,-190.5 258.5,-209.5 401.5,-209.5 401.5,-190.5 258.5,-190.5"/>
<text text-anchor="middle" x="330" y="-197.5" font-family="Helvetica,sans-Serif" font-size="10.00">PortalComponentInstance</text>
</a>
</g>
</g>
<!-- Node1&#45;&gt;Node31 -->
<g id="edge30" class="edge">
<title>Node1&#45;&gt;Node31</title>
<path fill="none" stroke="midnightblue" d="M143.12,-446.22C146.91,-399 163.38,-279.19 234,-219 241.04,-213 249.44,-208.7 258.29,-205.65"/>
<polygon fill="midnightblue" stroke="midnightblue" points="139.62,-446.12 142.42,-456.34 146.6,-446.61 139.62,-446.12"/>
</g>
<!-- Node32 -->
<g id="node32" class="node">
<title>Node32</title>
<g id="a_node32"><a xlink:href="../../d0/d33/classnap_1_1_python_script_component_instance.html" target="_top" xlink:title=" ">
<polygon fill="white" stroke="black" points="242,-152.5 242,-171.5 418,-171.5 418,-152.5 242,-152.5"/>
<text text-anchor="middle" x="330" y="-159.5" font-family="Helvetica,sans-Serif" font-size="10.00">PythonScriptComponentInstance</text>
</a>
</g>
</g>
<!-- Node1&#45;&gt;Node32 -->
<g id="edge31" class="edge">
<title>Node1&#45;&gt;Node32</title>
<path fill="none" stroke="midnightblue" d="M142,-446.08C143.15,-393.92 153.89,-252.4 234,-181 238.14,-177.31 242.8,-174.25 247.76,-171.73"/>
<polygon fill="midnightblue" stroke="midnightblue" points="138.5,-446.28 141.88,-456.32 145.5,-446.36 138.5,-446.28"/>
</g>
<!-- Node33 -->
<g id="node33" class="node">
<title>Node33</title>
<g id="a_node33"><a xlink:href="../../dd/da0/classnap_1_1_renderable_component_instance.html" target="_top" xlink:title=" ">
<polygon fill="white" stroke="black" points="245,-114.5 245,-133.5 415,-133.5 415,-114.5 245,-114.5"/>
<text text-anchor="middle" x="330" y="-121.5" font-family="Helvetica,sans-Serif" font-size="10.00">RenderableComponentInstance</text>
</a>
</g>
</g>
<!-- Node1&#45;&gt;Node33 -->
<g id="edge32" class="edge">
<title>Node1&#45;&gt;Node33</title>
<path fill="none" stroke="midnightblue" d="M144.89,-446.31C154.62,-382.86 188.12,-185.34 234,-143 238.08,-139.24 242.68,-136.13 247.61,-133.56"/>
<polygon fill="midnightblue" stroke="midnightblue" points="141.43,-445.82 143.4,-456.23 148.35,-446.86 141.43,-445.82"/>
</g>
<!-- Node42 -->
<g id="node42" class="node">
<title>Node42</title>
<g id="a_node42"><a xlink:href="../../df/d71/classnap_1_1_rotate_component_instance.html" target="_top" xlink:title=" ">
<polygon fill="white" stroke="black" points="257,-76.5 257,-95.5 403,-95.5 403,-76.5 257,-76.5"/>
<text text-anchor="middle" x="330" y="-83.5" font-family="Helvetica,sans-Serif" font-size="10.00">RotateComponentInstance</text>
</a>
</g>
</g>
<!-- Node1&#45;&gt;Node42 -->
<g id="edge41" class="edge">
<title>Node1&#45;&gt;Node42</title>
<path fill="none" stroke="midnightblue" d="M144.33,-445.84C152.67,-377.04 183.34,-153.09 234,-105 240.47,-98.86 248.33,-94.45 256.73,-91.32"/>
<polygon fill="midnightblue" stroke="midnightblue" points="140.8,-445.82 143.1,-456.16 147.75,-446.64 140.8,-445.82"/>
</g>
<!-- Node43 -->
<g id="node43" class="node">
<title>Node43</title>
<g id="a_node43"><a xlink:href="../../d2/d51/classnap_1_1_transform_component_instance.html" target="_top" xlink:title=" ">
<polygon fill="white" stroke="black" points="248.5,-38.5 248.5,-57.5 411.5,-57.5 411.5,-38.5 248.5,-38.5"/>
<text text-anchor="middle" x="330" y="-45.5" font-family="Helvetica,sans-Serif" font-size="10.00">TransformComponentInstance</text>
</a>
</g>
</g>
<!-- Node1&#45;&gt;Node43 -->
<g id="edge42" class="edge">
<title>Node1&#45;&gt;Node43</title>
<path fill="none" stroke="midnightblue" d="M143.77,-446.13C150.7,-373.1 178.33,-121.06 234,-67 238.22,-62.9 243.07,-59.56 248.28,-56.86"/>
<polygon fill="midnightblue" stroke="midnightblue" points="140.27,-445.97 142.84,-456.25 147.24,-446.62 140.27,-445.97"/>
</g>
<!-- Node44 -->
<g id="node44" class="node">
<title>Node44</title>
<g id="a_node44"><a xlink:href="../../d4/d37/classnap_1_1_web_socket_component_instance.html" target="_top" xlink:title=" ">
<polygon fill="white" stroke="black" points="246.5,-0.5 246.5,-19.5 413.5,-19.5 413.5,-0.5 246.5,-0.5"/>
<text text-anchor="middle" x="330" y="-7.5" font-family="Helvetica,sans-Serif" font-size="10.00">WebSocketComponentInstance</text>
</a>
</g>
</g>
<!-- Node1&#45;&gt;Node44 -->
<g id="edge43" class="edge">
<title>Node1&#45;&gt;Node44</title>
<path fill="none" stroke="midnightblue" d="M143.34,-446.27C148.97,-369.11 173.34,-89.05 234,-29 237.71,-25.33 241.91,-22.27 246.43,-19.73"/>
<polygon fill="midnightblue" stroke="midnightblue" points="139.83,-446.27 142.61,-456.49 146.81,-446.76 139.83,-446.27"/>
</g>
<!-- Node2 -->
<g id="node2" class="node">
<title>Node2</title>
<g id="a_node2"><a xlink:href="../../de/d01/classnap_1_1rtti_1_1_object.html" target="_top" xlink:title=" ">
<polygon fill="white" stroke="black" points="0,-456.5 0,-475.5 48,-475.5 48,-456.5 0,-456.5"/>
<text text-anchor="middle" x="24" y="-463.5" font-family="Helvetica,sans-Serif" font-size="10.00">Object</text>
</a>
</g>
</g>
<!-- Node2&#45;&gt;Node1 -->
<g id="edge1" class="edge">
<title>Node2&#45;&gt;Node1</title>
<path fill="none" stroke="midnightblue" d="M58.33,-466C66.38,-466 75.19,-466 83.96,-466"/>
<polygon fill="midnightblue" stroke="midnightblue" points="58.27,-462.5 48.27,-466 58.27,-469.5 58.27,-462.5"/>
</g>
<!-- Node6 -->
<g id="node6" class="node">
<title>Node6</title>
<g id="a_node6"><a xlink:href="../../dc/d8b/classnap_1_1audio_1_1_audio_input_component_instance.html" target="_top" xlink:title=" ">
<polygon fill="white" stroke="black" points="476.5,-908.5 476.5,-927.5 643.5,-927.5 643.5,-908.5 476.5,-908.5"/>
<text text-anchor="middle" x="560" y="-915.5" font-family="Helvetica,sans-Serif" font-size="10.00">AudioInputComponentInstance</text>
</a>
</g>
</g>
<!-- Node5&#45;&gt;Node6 -->
<g id="edge5" class="edge">
<title>Node5&#45;&gt;Node6</title>
<path fill="none" stroke="midnightblue" d="M404.71,-870.06C412.01,-872.05 419.22,-874.35 426,-877 443.46,-883.83 444.52,-892.2 462,-899 471.92,-902.86 482.72,-905.96 493.4,-908.45"/>
<polygon fill="midnightblue" stroke="midnightblue" points="405.3,-866.59 394.75,-867.53 403.58,-873.38 405.3,-866.59"/>
</g>
<!-- Node7 -->
<g id="node7" class="node">
<title>Node7</title>
<g id="a_node7"><a xlink:href="../../d5/d5b/classnap_1_1audio_1_1_playback_component_instance.html" target="_top" xlink:title=" ">
<polygon fill="white" stroke="black" points="481,-870.5 481,-889.5 639,-889.5 639,-870.5 481,-870.5"/>
<text text-anchor="middle" x="560" y="-877.5" font-family="Helvetica,sans-Serif" font-size="10.00">PlaybackComponentInstance</text>
</a>
</g>
</g>
<!-- Node5&#45;&gt;Node7 -->
<g id="edge6" class="edge">
<title>Node5&#45;&gt;Node7</title>
<path fill="none" stroke="midnightblue" d="M423.51,-866.93C442.58,-868.77 462.49,-870.69 480.99,-872.47"/>
<polygon fill="midnightblue" stroke="midnightblue" points="423.6,-863.42 413.31,-865.94 422.93,-870.39 423.6,-863.42"/>
</g>
<!-- Node8 -->
<g id="node8" class="node">
<title>Node8</title>
<g id="a_node8"><a xlink:href="../../d4/da3/classnap_1_1audio_1_1_sequence_player_audio_output_component_instance.html" target="_top" xlink:title=" ">
<polygon fill="white" stroke="black" points="482.5,-821 482.5,-851 637.5,-851 637.5,-821 482.5,-821"/>
<text text-anchor="start" x="490.5" y="-839" font-family="Helvetica,sans-Serif" font-size="10.00">SequencePlayerAudioOutput</text>
<text text-anchor="middle" x="560" y="-828" font-family="Helvetica,sans-Serif" font-size="10.00">ComponentInstance</text>
</a>
</g>
</g>
<!-- Node5&#45;&gt;Node8 -->
<g id="edge7" class="edge">
<title>Node5&#45;&gt;Node8</title>
<path fill="none" stroke="midnightblue" d="M423.42,-849.08C442.91,-847.2 463.28,-845.24 482.13,-843.42"/>
<polygon fill="midnightblue" stroke="midnightblue" points="422.93,-845.61 413.31,-850.06 423.6,-852.58 422.93,-845.61"/>
</g>
<!-- Node9 -->
<g id="node9" class="node">
<title>Node9</title>
<g id="a_node9"><a xlink:href="../../df/de7/classnap_1_1audio_1_1_video_audio_component_instance.html" target="_top" xlink:title=" ">
<polygon fill="white" stroke="black" points="475,-782.5 475,-801.5 645,-801.5 645,-782.5 475,-782.5"/>
<text text-anchor="middle" x="560" y="-789.5" font-family="Helvetica,sans-Serif" font-size="10.00">VideoAudioComponentInstance</text>
</a>
</g>
</g>
<!-- Node5&#45;&gt;Node9 -->
<g id="edge8" class="edge">
<title>Node5&#45;&gt;Node9</title>
<path fill="none" stroke="midnightblue" d="M408.11,-845.66C414.27,-843.75 420.31,-841.55 426,-839 444.26,-830.84 443.77,-820.22 462,-812 471.72,-807.62 482.42,-804.19 493.06,-801.5"/>
<polygon fill="midnightblue" stroke="midnightblue" points="407.02,-842.34 398.35,-848.43 408.93,-849.07 407.02,-842.34"/>
</g>
<!-- Node14 -->
<g id="node14" class="node">
<title>Node14</title>
<g id="a_node14"><a xlink:href="../../de/daa/classnap_1_1_ortho_camera_component_instance.html" target="_top" xlink:title=" ">
<polygon fill="white" stroke="black" points="470.5,-715.5 470.5,-734.5 649.5,-734.5 649.5,-715.5 470.5,-715.5"/>
<text text-anchor="middle" x="560" y="-722.5" font-family="Helvetica,sans-Serif" font-size="10.00">OrthoCameraComponentInstance</text>
</a>
</g>
</g>
<!-- Node13&#45;&gt;Node14 -->
<g id="edge13" class="edge">
<title>Node13&#45;&gt;Node14</title>
<path fill="none" stroke="midnightblue" d="M416.51,-713.13C434.09,-714.59 452.64,-716.14 470.33,-717.61"/>
<polygon fill="midnightblue" stroke="midnightblue" points="416.54,-709.62 406.29,-712.27 415.96,-716.59 416.54,-709.62"/>
</g>
<!-- Node15 -->
<g id="node15" class="node">
<title>Node15</title>
<g id="a_node15"><a xlink:href="../../d2/d87/classnap_1_1_persp_camera_component_instance.html" target="_top" xlink:title=" ">
<polygon fill="white" stroke="black" points="470.5,-677.5 470.5,-696.5 649.5,-696.5 649.5,-677.5 470.5,-677.5"/>
<text text-anchor="middle" x="560" y="-684.5" font-family="Helvetica,sans-Serif" font-size="10.00">PerspCameraComponentInstance</text>
</a>
</g>
</g>
<!-- Node13&#45;&gt;Node15 -->
<g id="edge14" class="edge">
<title>Node13&#45;&gt;Node15</title>
<path fill="none" stroke="midnightblue" d="M416.51,-698.87C434.09,-697.41 452.64,-695.86 470.33,-694.39"/>
<polygon fill="midnightblue" stroke="midnightblue" points="415.96,-695.41 406.29,-699.73 416.54,-702.38 415.96,-695.41"/>
</g>
<!-- Node23 -->
<g id="node23" class="node">
<title>Node23</title>
<g id="a_node23"><a xlink:href="../../d1/dd4/classnap_1_1_controller_input_component_instance.html" target="_top" xlink:title=" ">
<polygon fill="white" stroke="black" points="487,-457 487,-487 633,-487 633,-457 487,-457"/>
<text text-anchor="start" x="495" y="-475" font-family="Helvetica,sans-Serif" font-size="10.00">ControllerInputComponent</text>
<text text-anchor="middle" x="560" y="-464" font-family="Helvetica,sans-Serif" font-size="10.00">Instance</text>
</a>
</g>
</g>
<!-- Node22&#45;&gt;Node23 -->
<g id="edge22" class="edge">
<title>Node22&#45;&gt;Node23</title>
<path fill="none" stroke="midnightblue" d="M390.59,-439.5C420,-445.18 455.72,-452.07 486.68,-458.04"/>
<polygon fill="midnightblue" stroke="midnightblue" points="390.95,-436.01 380.47,-437.55 389.63,-442.88 390.95,-436.01"/>
</g>
<!-- Node24 -->
<g id="node24" class="node">
<title>Node24</title>
<g id="a_node24"><a xlink:href="../../d3/d36/classnap_1_1_key_input_component_instance.html" target="_top" xlink:title=" ">
<polygon fill="white" stroke="black" points="481.5,-418.5 481.5,-437.5 638.5,-437.5 638.5,-418.5 481.5,-418.5"/>
<text text-anchor="middle" x="560" y="-425.5" font-family="Helvetica,sans-Serif" font-size="10.00">KeyInputComponentInstance</text>
</a>
</g>
</g>
<!-- Node22&#45;&gt;Node24 -->
<g id="edge23" class="edge">
<title>Node22&#45;&gt;Node24</title>
<path fill="none" stroke="midnightblue" d="M409.82,-428C432.94,-428 458.19,-428 481.24,-428"/>
<polygon fill="midnightblue" stroke="midnightblue" points="409.72,-424.5 399.72,-428 409.72,-431.5 409.72,-424.5"/>
</g>
<!-- Node25 -->
<g id="node25" class="node">
<title>Node25</title>
<g id="a_node25"><a xlink:href="../../df/d36/classnap_1_1_pointer_input_component_instance.html" target="_top" xlink:title=" ">
<polygon fill="white" stroke="black" points="473.5,-380.5 473.5,-399.5 646.5,-399.5 646.5,-380.5 473.5,-380.5"/>
<text text-anchor="middle" x="560" y="-387.5" font-family="Helvetica,sans-Serif" font-size="10.00">PointerInputComponentInstance</text>
</a>
</g>
</g>
<!-- Node22&#45;&gt;Node25 -->
<g id="edge24" class="edge">
<title>Node22&#45;&gt;Node25</title>
<path fill="none" stroke="midnightblue" d="M398.23,-416.8C431.12,-411.31 470.29,-404.78 501.74,-399.54"/>
<polygon fill="midnightblue" stroke="midnightblue" points="397.53,-413.36 388.24,-418.46 398.68,-420.27 397.53,-413.36"/>
</g>
<!-- Node34 -->
<g id="node34" class="node">
<title>Node34</title>
<g id="a_node34"><a xlink:href="../../d9/d73/classnap_1_1_renderable_mesh_component_instance.html" target="_top" xlink:title=" ">
<polygon fill="white" stroke="black" points="462,-209.5 462,-228.5 658,-228.5 658,-209.5 462,-209.5"/>
<text text-anchor="middle" x="560" y="-216.5" font-family="Helvetica,sans-Serif" font-size="10.00">RenderableMeshComponentInstance</text>
</a>
</g>
</g>
<!-- Node33&#45;&gt;Node34 -->
<g id="edge33" class="edge">
<title>Node33&#45;&gt;Node34</title>
<path fill="none" stroke="midnightblue" d="M417.28,-137.81C420.31,-139.37 423.23,-141.09 426,-143 450.69,-159.98 437.28,-183.07 462,-200 467.52,-203.78 473.61,-206.85 479.97,-209.34"/>
<polygon fill="midnightblue" stroke="midnightblue" points="418.48,-134.51 407.93,-133.61 415.62,-140.9 418.48,-134.51"/>
</g>
<!-- Node35 -->
<g id="node35" class="node">
<title>Node35</title>
<g id="a_node35"><a xlink:href="../../db/d63/classnap_1_1_renderable_text_component_instance.html" target="_top" xlink:title=" ">
<polygon fill="white" stroke="black" points="465,-171.5 465,-190.5 655,-190.5 655,-171.5 465,-171.5"/>
<text text-anchor="middle" x="560" y="-178.5" font-family="Helvetica,sans-Serif" font-size="10.00">RenderableTextComponentInstance</text>
</a>
</g>
</g>
<!-- Node33&#45;&gt;Node35 -->
<g id="edge34" class="edge">
<title>Node33&#45;&gt;Node35</title>
<path fill="none" stroke="midnightblue" d="M402.17,-135.89C410.3,-137.94 418.39,-140.3 426,-143 443.05,-149.06 444.94,-155.97 462,-162 472.84,-165.83 484.65,-168.96 496.18,-171.48"/>
<polygon fill="midnightblue" stroke="midnightblue" points="402.81,-132.45 392.27,-133.55 401.19,-139.26 402.81,-132.45"/>
</g>
<!-- Node38 -->
<g id="node38" class="node">
<title>Node38</title>
<g id="a_node38"><a xlink:href="../../dc/ddf/classnap_1_1_render_bloom_component_instance.html" target="_top" xlink:title=" ">
<polygon fill="white" stroke="black" points="470,-133.5 470,-152.5 650,-152.5 650,-133.5 470,-133.5"/>
<text text-anchor="middle" x="560" y="-140.5" font-family="Helvetica,sans-Serif" font-size="10.00">RenderBloomComponentInstance</text>
</a>
</g>
</g>
<!-- Node33&#45;&gt;Node38 -->
<g id="edge37" class="edge">
<title>Node33&#45;&gt;Node38</title>
<path fill="none" stroke="midnightblue" d="M425.34,-131.86C440.03,-133.09 455.17,-134.35 469.74,-135.56"/>
<polygon fill="midnightblue" stroke="midnightblue" points="425.51,-128.36 415.25,-131.02 424.93,-135.34 425.51,-128.36"/>
</g>
<!-- Node39 -->
<g id="node39" class="node">
<title>Node39</title>
<g id="a_node39"><a xlink:href="../../db/dce/classnap_1_1_render_gnomon_component_instance.html" target="_top" xlink:title=" ">
<polygon fill="white" stroke="black" points="465,-95.5 465,-114.5 655,-114.5 655,-95.5 465,-95.5"/>
<text text-anchor="middle" x="560" y="-102.5" font-family="Helvetica,sans-Serif" font-size="10.00">RenderGnomonComponentInstance</text>
</a>
</g>
</g>
<!-- Node33&#45;&gt;Node39 -->
<g id="edge38" class="edge">
<title>Node33&#45;&gt;Node39</title>
<path fill="none" stroke="midnightblue" d="M425.55,-116.12C438.49,-115.04 451.78,-113.93 464.72,-112.86"/>
<polygon fill="midnightblue" stroke="midnightblue" points="424.93,-112.66 415.25,-116.98 425.51,-119.64 424.93,-112.66"/>
</g>
<!-- Node40 -->
<g id="node40" class="node">
<title>Node40</title>
<g id="a_node40"><a xlink:href="../../d5/d30/classnap_1_1_render_to_texture_component_instance.html" target="_top" xlink:title=" ">
<polygon fill="white" stroke="black" points="483,-46 483,-76 637,-76 637,-46 483,-46"/>
<text text-anchor="start" x="491" y="-64" font-family="Helvetica,sans-Serif" font-size="10.00">RenderToTextureComponent</text>
<text text-anchor="middle" x="560" y="-53" font-family="Helvetica,sans-Serif" font-size="10.00">Instance</text>
</a>
</g>
</g>
<!-- Node33&#45;&gt;Node40 -->
<g id="edge39" class="edge">
<title>Node33&#45;&gt;Node40</title>
<path fill="none" stroke="midnightblue" d="M402.17,-112.11C410.3,-110.06 418.39,-107.7 426,-105 443.05,-98.94 445.13,-92.52 462,-86 471.57,-82.3 481.88,-78.98 492.08,-76.05"/>
<polygon fill="midnightblue" stroke="midnightblue" points="401.19,-108.74 392.27,-114.45 402.81,-115.55 401.19,-108.74"/>
</g>
<!-- Node41 -->
<g id="node41" class="node">
<title>Node41</title>
<g id="a_node41"><a xlink:href="../../df/d41/classnap_1_1_render_video_component_instance.html" target="_top" xlink:title=" ">
<polygon fill="white" stroke="black" points="472,-7.5 472,-26.5 648,-26.5 648,-7.5 472,-7.5"/>
<text text-anchor="middle" x="560" y="-14.5" font-family="Helvetica,sans-Serif" font-size="10.00">RenderVideoComponentInstance</text>
</a>
</g>
</g>
<!-- Node33&#45;&gt;Node41 -->
<g id="edge40" class="edge">
<title>Node33&#45;&gt;Node41</title>
<path fill="none" stroke="midnightblue" d="M418.46,-109.93C421.08,-108.44 423.6,-106.8 426,-105 453.67,-84.24 434.29,-56.7 462,-36 467.09,-32.2 472.73,-29.1 478.66,-26.58"/>
<polygon fill="midnightblue" stroke="midnightblue" points="416.65,-106.92 409.22,-114.48 419.74,-113.2 416.65,-106.92"/>
</g>
<!-- Node36 -->
<g id="node36" class="node">
<title>Node36</title>
<g id="a_node36"><a xlink:href="../../dc/d0b/classnap_1_1_renderable2_d_text_component_instance.html" target="_top" xlink:title=" ">
<polygon fill="white" stroke="black" points="694,-190 694,-220 856,-220 856,-190 694,-190"/>
<text text-anchor="start" x="702" y="-208" font-family="Helvetica,sans-Serif" font-size="10.00">Renderable2DTextComponent</text>
<text text-anchor="middle" x="775" y="-197" font-family="Helvetica,sans-Serif" font-size="10.00">Instance</text>
</a>
</g>
</g>
<!-- Node35&#45;&gt;Node36 -->
<g id="edge35" class="edge">
<title>Node35&#45;&gt;Node36</title>
<path fill="none" stroke="midnightblue" d="M655.64,-191.66C668.37,-193.1 681.33,-194.56 693.78,-195.96"/>
<polygon fill="midnightblue" stroke="midnightblue" points="655.82,-188.16 645.49,-190.52 655.03,-195.12 655.82,-188.16"/>
</g>
<!-- Node37 -->
<g id="node37" class="node">
<title>Node37</title>
<g id="a_node37"><a xlink:href="../../d4/d70/classnap_1_1_renderable3_d_text_component_instance.html" target="_top" xlink:title=" ">
<polygon fill="white" stroke="black" points="694,-141 694,-171 856,-171 856,-141 694,-141"/>
<text text-anchor="start" x="702" y="-159" font-family="Helvetica,sans-Serif" font-size="10.00">Renderable3DTextComponent</text>
<text text-anchor="middle" x="775" y="-148" font-family="Helvetica,sans-Serif" font-size="10.00">Instance</text>
</a>
</g>
</g>
<!-- Node35&#45;&gt;Node37 -->
<g id="edge36" class="edge">
<title>Node35&#45;&gt;Node37</title>
<path fill="none" stroke="midnightblue" d="M652.14,-170.3C666,-168.68 680.2,-167.01 693.8,-165.41"/>
<polygon fill="midnightblue" stroke="midnightblue" points="651.66,-166.84 642.13,-171.48 652.47,-173.79 651.66,-166.84"/>
</g>
</g>
</svg>
