<?xml version="1.0" encoding="UTF-8" standalone="no"?>
<!DOCTYPE svg PUBLIC "-//W3C//DTD SVG 1.1//EN"
 "http://www.w3.org/Graphics/SVG/1.1/DTD/svg11.dtd">
<!-- Generated by graphviz version 2.43.0 (0)
 -->
<!-- Title: WindowMovedEvent Pages: 1 -->
<svg width="162pt" height="196pt"
 viewBox="0.00 0.00 162.00 196.00" xmlns="http://www.w3.org/2000/svg" xmlns:xlink="http://www.w3.org/1999/xlink">
<g id="graph0" class="graph" transform="scale(1 1) rotate(0) translate(4 192)">
<title>WindowMovedEvent</title>
<polygon fill="white" stroke="transparent" points="-4,4 -4,-192 158,-192 158,4 -4,4"/>
<!-- Node1 -->
<g id="node1" class="node">
<title>Node1</title>
<g id="a_node1"><a xlink:title=" ">
<polygon fill="#bfbfbf" stroke="black" points="19,-0.5 19,-19.5 135,-19.5 135,-0.5 19,-0.5"/>
<text text-anchor="middle" x="77" y="-7.5" font-family="Helvetica,sans-Serif" font-size="10.00">WindowMovedEvent</text>
</a>
</g>
</g>
<!-- Node2 -->
<g id="node2" class="node">
<title>Node2</title>
<g id="a_node2"><a xlink:href="../../d3/d68/classnap_1_1_parameterized_window_event.html" target="_top" xlink:title=" ">
<polygon fill="white" stroke="black" points="0,-56.5 0,-75.5 154,-75.5 154,-56.5 0,-56.5"/>
<text text-anchor="middle" x="77" y="-63.5" font-family="Helvetica,sans-Serif" font-size="10.00">ParameterizedWindowEvent</text>
</a>
</g>
</g>
<!-- Node2&#45;&gt;Node1 -->
<g id="edge1" class="edge">
<title>Node2&#45;&gt;Node1</title>
<path fill="none" stroke="midnightblue" d="M77,-45.8C77,-36.91 77,-26.78 77,-19.75"/>
<polygon fill="midnightblue" stroke="midnightblue" points="73.5,-46.08 77,-56.08 80.5,-46.08 73.5,-46.08"/>
</g>
<!-- Node3 -->
<g id="node3" class="node">
<title>Node3</title>
<g id="a_node3"><a xlink:href="../../d5/dea/classnap_1_1_window_event.html" target="_top" xlink:title=" ">
<polygon fill="white" stroke="black" points="35.5,-112.5 35.5,-131.5 118.5,-131.5 118.5,-112.5 35.5,-112.5"/>
<text text-anchor="middle" x="77" y="-119.5" font-family="Helvetica,sans-Serif" font-size="10.00">WindowEvent</text>
</a>
</g>
</g>
<!-- Node3&#45;&gt;Node2 -->
<g id="edge2" class="edge">
<title>Node3&#45;&gt;Node2</title>
<path fill="none" stroke="midnightblue" d="M77,-101.8C77,-92.91 77,-82.78 77,-75.75"/>
<polygon fill="midnightblue" stroke="midnightblue" points="73.5,-102.08 77,-112.08 80.5,-102.08 73.5,-102.08"/>
</g>
<!-- Node4 -->
<g id="node4" class="node">
<title>Node4</title>
<g id="a_node4"><a xlink:href="../../d2/da2/classnap_1_1_event.html" target="_top" xlink:title=" ">
<polygon fill="white" stroke="black" points="55,-168.5 55,-187.5 99,-187.5 99,-168.5 55,-168.5"/>
<text text-anchor="middle" x="77" y="-175.5" font-family="Helvetica,sans-Serif" font-size="10.00">Event</text>
</a>
</g>
</g>
<!-- Node4&#45;&gt;Node3 -->
<g id="edge3" class="edge">
<title>Node4&#45;&gt;Node3</title>
<path fill="none" stroke="midnightblue" d="M77,-157.8C77,-148.91 77,-138.78 77,-131.75"/>
<polygon fill="midnightblue" stroke="midnightblue" points="73.5,-158.08 77,-168.08 80.5,-158.08 73.5,-158.08"/>
</g>
</g>
</svg>
