<?xml version="1.0" encoding="UTF-8" standalone="no"?>
<!DOCTYPE svg PUBLIC "-//W3C//DTD SVG 1.1//EN"
 "http://www.w3.org/Graphics/SVG/1.1/DTD/svg11.dtd">
<!-- Generated by graphviz version 2.48.0 (20210717.1556)
 -->
<!-- Title: MaterialInstanceResource Pages: 1 -->
<svg width="310pt" height="152pt"
 viewBox="0.00 0.00 310.00 152.00" xmlns="http://www.w3.org/2000/svg" xmlns:xlink="http://www.w3.org/1999/xlink">
<g id="graph0" class="graph" transform="scale(1 1) rotate(0) translate(4 148)">
<title>MaterialInstanceResource</title>
<polygon fill="white" stroke="transparent" points="-4,4 -4,-148 306,-148 306,4 -4,4"/>
<!-- Node2 -->
<g id="node1" class="node">
<title>Node2</title>
<polygon fill="#bfbfbf" stroke="black" points="59.5,-0.5 59.5,-19.5 188.5,-19.5 188.5,-0.5 59.5,-0.5"/>
<text text-anchor="middle" x="124" y="-7.5" font-family="Helvetica,sans-Serif" font-size="10.00">MaterialInstanceResource</text>
</g>
<!-- Node3 -->
<g id="node2" class="node">
<title>Node3</title>
<g id="a_node2"><a xlink:href="../../df/d7a/classnap_1_1_base_material_instance_resource.html" target="_top" xlink:title="BaseMaterialInstanceResource">
<polygon fill="white" stroke="black" points="0,-67.5 0,-86.5 152,-86.5 152,-67.5 0,-67.5"/>
<text text-anchor="middle" x="76" y="-74.5" font-family="Helvetica,sans-Serif" font-size="10.00">BaseMaterialInstanceResource</text>
</a>
</g>
</g>
<!-- Node3&#45;&gt;Node2 -->
<g id="edge1" class="edge">
<title>Node3&#45;&gt;Node2</title>
<path fill="none" stroke="midnightblue" d="M88.62,-58.9C97.95,-46.27 110.26,-29.6 117.63,-19.63"/>
<polygon fill="midnightblue" stroke="midnightblue" points="85.6,-57.11 82.47,-67.23 91.23,-61.27 85.6,-57.11"/>
</g>
<!-- Node4 -->
<g id="node3" class="node">
<title>Node4</title>
<g id="a_node3"><a xlink:href="../../dd/d7c/classnap_1_1rtti_1_1_object_ptr.html" target="_top" xlink:title="ObjectPtr\&lt; nap::Material \&gt;">
<polygon fill="white" stroke="black" points="170,-67.5 170,-86.5 302,-86.5 302,-67.5 170,-67.5"/>
<text text-anchor="middle" x="236" y="-74.5" font-family="Helvetica,sans-Serif" font-size="10.00">ObjectPtr&lt; nap::Material &gt;</text>
</a>
</g>
</g>
<!-- Node4&#45;&gt;Node2 -->
<g id="edge2" class="edge">
<title>Node4&#45;&gt;Node2</title>
<path fill="none" stroke="#9a32cd" stroke-dasharray="5,2" d="M212.08,-62.12C189.89,-49.24 157.56,-30.48 138.87,-19.63"/>
<polygon fill="#9a32cd" stroke="#9a32cd" points="210.49,-65.24 220.9,-67.23 214,-59.19 210.49,-65.24"/>
<text text-anchor="middle" x="209" y="-41" font-family="Helvetica,sans-Serif" font-size="10.00"> mMaterial</text>
</g>
<!-- Node5 -->
<g id="node4" class="node">
<title>Node5</title>
<g id="a_node4"><a xlink:href="../../d7/dcb/classnap_1_1rtti_1_1_object_ptr_base.html" target="_top" xlink:title="ObjectPtrBase">
<polygon fill="white" stroke="black" points="196,-124.5 196,-143.5 276,-143.5 276,-124.5 196,-124.5"/>
<text text-anchor="middle" x="236" y="-131.5" font-family="Helvetica,sans-Serif" font-size="10.00">ObjectPtrBase</text>
</a>
</g>
</g>
<!-- Node5&#45;&gt;Node4 -->
<g id="edge3" class="edge">
<title>Node5&#45;&gt;Node4</title>
<path fill="none" stroke="midnightblue" d="M236,-114.12C236,-104.82 236,-94.06 236,-86.71"/>
<polygon fill="midnightblue" stroke="midnightblue" points="232.5,-114.41 236,-124.41 239.5,-114.41 232.5,-114.41"/>
</g>
</g>
</svg>
