<?xml version="1.0" encoding="UTF-8" standalone="no"?>
<!DOCTYPE svg PUBLIC "-//W3C//DTD SVG 1.1//EN"
 "http://www.w3.org/Graphics/SVG/1.1/DTD/svg11.dtd">
<!-- Generated by graphviz version 3.0.0 (20220226.1711)
 -->
<!-- Title: ObjectLink Pages: 1 -->
<svg width="147pt" height="106pt"
 viewBox="0.00 0.00 146.50 106.00" xmlns="http://www.w3.org/2000/svg" xmlns:xlink="http://www.w3.org/1999/xlink">
<g id="graph0" class="graph" transform="scale(1 1) rotate(0) translate(4 102)">
<title>ObjectLink</title>
<polygon fill="white" stroke="transparent" points="-4,4 -4,-102 142.5,-102 142.5,4 -4,4"/>
<!-- Node1 -->
<g id="node1" class="node">
<title>Node1</title>
<polygon fill="#bfbfbf" stroke="black" points="24,-0.5 24,-19.5 87,-19.5 87,-0.5 24,-0.5"/>
<text text-anchor="middle" x="55.5" y="-7.5" font-family="Helvetica,sans-Serif" font-size="10.00">ObjectLink</text>
</g>
<!-- Node2 -->
<g id="node2" class="node">
<title>Node2</title>
<g id="a_node2"><a xlink:href="../../de/d01/classnap_1_1rtti_1_1_object.html" target="_top" xlink:title="Object">
<polygon fill="white" stroke="black" points="0,-78.5 0,-97.5 45,-97.5 45,-78.5 0,-78.5"/>
<text text-anchor="middle" x="22.5" y="-85.5" font-family="Helvetica,sans-Serif" font-size="10.00">Object</text>
</a>
</g>
</g>
<!-- Node2&#45;&gt;Node1 -->
<g id="edge1" class="edge">
<title>Node2&#45;&gt;Node1</title>
<path fill="none" stroke="#9a32cd" stroke-dasharray="5,2" d="M19.34,-68.19C18.6,-58.7 19.08,-47.27 23.5,-38 27.13,-30.39 34.04,-24.13 40.51,-19.56"/>
<polygon fill="#9a32cd" stroke="#9a32cd" points="15.87,-68.7 20.59,-78.18 22.82,-67.83 15.87,-68.7"/>
<text text-anchor="middle" x="45" y="-52" font-family="Helvetica,sans-Serif" font-size="10.00"> mSource</text>
<text text-anchor="middle" x="45" y="-41" font-family="Helvetica,sans-Serif" font-size="10.00">mTarget</text>
</g>
<!-- Node3 -->
<g id="node3" class="node">
<title>Node3</title>
<g id="a_node3"><a xlink:href="../../d5/d81/classnap_1_1rtti_1_1_path.html" target="_top" xlink:title="Path">
<polygon fill="white" stroke="black" points="70,-78.5 70,-97.5 107,-97.5 107,-78.5 70,-78.5"/>
<text text-anchor="middle" x="88.5" y="-85.5" font-family="Helvetica,sans-Serif" font-size="10.00">Path</text>
</a>
</g>
</g>
<!-- Node3&#45;&gt;Node1 -->
<g id="edge2" class="edge">
<title>Node3&#45;&gt;Node1</title>
<path fill="none" stroke="#9a32cd" stroke-dasharray="5,2" d="M80.54,-68.67C73.79,-53.11 64.39,-31.47 59.24,-19.62"/>
<polygon fill="#9a32cd" stroke="#9a32cd" points="77.52,-70.5 84.71,-78.28 83.94,-67.72 77.52,-70.5"/>
<text text-anchor="middle" x="107" y="-46.5" font-family="Helvetica,sans-Serif" font-size="10.00"> mSourcePath</text>
</g>
</g>
</svg>
