<?xml version="1.0" encoding="UTF-8" standalone="no"?>
<!DOCTYPE svg PUBLIC "-//W3C//DTD SVG 1.1//EN"
 "http://www.w3.org/Graphics/SVG/1.1/DTD/svg11.dtd">
<!-- Generated by graphviz version 3.0.0 (20220226.1711)
 -->
<!-- Title: SequenceTrackSegment Pages: 1 -->
<svg width="718pt" height="104pt"
 viewBox="0.00 0.00 718.00 104.00" xmlns="http://www.w3.org/2000/svg" xmlns:xlink="http://www.w3.org/1999/xlink">
<g id="graph0" class="graph" transform="scale(1 1) rotate(0) translate(4 100)">
<title>SequenceTrackSegment</title>
<polygon fill="white" stroke="transparent" points="-4,4 -4,-100 714,-100 714,4 -4,4"/>
<!-- Node0 -->
<g id="node1" class="node">
<title>Node0</title>
<polygon fill="#bfbfbf" stroke="black" points="175,-38.5 175,-57.5 298,-57.5 298,-38.5 175,-38.5"/>
<text text-anchor="middle" x="236.5" y="-45.5" font-family="Helvetica,sans-Serif" font-size="10.00">SequenceTrackSegment</text>
</g>
<!-- Node3 -->
<g id="node4" class="node">
<title>Node3</title>
<g id="a_node4"><a xlink:href="../../d4/db8/classnap_1_1_sequence_track_segment_audio.html" target="_top" xlink:title="SequenceTrackSegmentAudio">
<polygon fill="white" stroke="black" points="345,-76.5 345,-95.5 493,-95.5 493,-76.5 345,-76.5"/>
<text text-anchor="middle" x="419" y="-83.5" font-family="Helvetica,sans-Serif" font-size="10.00">SequenceTrackSegmentAudio</text>
</a>
</g>
</g>
<!-- Node0&#45;&gt;Node3 -->
<g id="edge3" class="edge">
<title>Node0&#45;&gt;Node3</title>
<path fill="none" stroke="midnightblue" d="M292.98,-59.68C318.58,-65.07 348.58,-71.39 372.78,-76.48"/>
<polygon fill="midnightblue" stroke="midnightblue" points="293.55,-56.22 283.05,-57.59 292.11,-63.07 293.55,-56.22"/>
</g>
<!-- Node4 -->
<g id="node5" class="node">
<title>Node4</title>
<g id="a_node5"><a xlink:href="../../dc/dd1/classnap_1_1_sequence_track_segment_curve.html" target="_top" xlink:title="SequenceTrackSegmentCurve\&lt; T \&gt;">
<polygon fill="white" stroke="black" points="334,-38.5 334,-57.5 504,-57.5 504,-38.5 334,-38.5"/>
<text text-anchor="middle" x="419" y="-45.5" font-family="Helvetica,sans-Serif" font-size="10.00">SequenceTrackSegmentCurve&lt; T &gt;</text>
</a>
</g>
</g>
<!-- Node0&#45;&gt;Node4 -->
<g id="edge4" class="edge">
<title>Node0&#45;&gt;Node4</title>
<path fill="none" stroke="midnightblue" d="M308.21,-48C316.61,-48 325.25,-48 333.81,-48"/>
<polygon fill="midnightblue" stroke="midnightblue" points="308.11,-44.5 298.11,-48 308.11,-51.5 308.11,-44.5"/>
</g>
<!-- Node5 -->
<g id="node6" class="node">
<title>Node5</title>
<g id="a_node6"><a xlink:href="../../d9/d16/classnap_1_1_sequence_track_segment_event_base.html" target="_top" xlink:title="SequenceTrackSegmentEventBase">
<polygon fill="white" stroke="black" points="334,-0.5 334,-19.5 504,-19.5 504,-0.5 334,-0.5"/>
<text text-anchor="middle" x="419" y="-7.5" font-family="Helvetica,sans-Serif" font-size="10.00">SequenceTrackSegmentEventBase</text>
</a>
</g>
</g>
<!-- Node0&#45;&gt;Node5 -->
<g id="edge5" class="edge">
<title>Node0&#45;&gt;Node5</title>
<path fill="none" stroke="midnightblue" d="M292.98,-36.32C318.58,-30.93 348.58,-24.61 372.78,-19.52"/>
<polygon fill="midnightblue" stroke="midnightblue" points="292.11,-32.93 283.05,-38.41 293.55,-39.78 292.11,-32.93"/>
</g>
<!-- Node1 -->
<g id="node2" class="node">
<title>Node1</title>
<g id="a_node2"><a xlink:href="../../d9/dea/classnap_1_1_resource.html" target="_top" xlink:title="Resource">
<polygon fill="white" stroke="black" points="81,-38.5 81,-57.5 139,-57.5 139,-38.5 81,-38.5"/>
<text text-anchor="middle" x="110" y="-45.5" font-family="Helvetica,sans-Serif" font-size="10.00">Resource</text>
</a>
</g>
</g>
<!-- Node1&#45;&gt;Node0 -->
<g id="edge1" class="edge">
<title>Node1&#45;&gt;Node0</title>
<path fill="none" stroke="midnightblue" d="M149.43,-48C157.49,-48 166.18,-48 174.83,-48"/>
<polygon fill="midnightblue" stroke="midnightblue" points="149.25,-44.5 139.25,-48 149.25,-51.5 149.25,-44.5"/>
</g>
<!-- Node2 -->
<g id="node3" class="node">
<title>Node2</title>
<g id="a_node3"><a xlink:href="../../de/d01/classnap_1_1rtti_1_1_object.html" target="_top" xlink:title="Object">
<polygon fill="white" stroke="black" points="0,-38.5 0,-57.5 45,-57.5 45,-38.5 0,-38.5"/>
<text text-anchor="middle" x="22.5" y="-45.5" font-family="Helvetica,sans-Serif" font-size="10.00">Object</text>
</a>
</g>
</g>
<!-- Node2&#45;&gt;Node1 -->
<g id="edge2" class="edge">
<title>Node2&#45;&gt;Node1</title>
<path fill="none" stroke="midnightblue" d="M55.31,-48C63.73,-48 72.76,-48 80.96,-48"/>
<polygon fill="midnightblue" stroke="midnightblue" points="55.08,-44.5 45.08,-48 55.08,-51.5 55.08,-44.5"/>
</g>
<!-- Node6 -->
<g id="node7" class="node">
<title>Node6</title>
<g id="a_node7"><a xlink:href="../../de/df2/classnap_1_1_sequence_track_segment_event.html" target="_top" xlink:title="SequenceTrackSegmentEvent\&lt; T \&gt;">
<polygon fill="white" stroke="black" points="540,-0.5 540,-19.5 710,-19.5 710,-0.5 540,-0.5"/>
<text text-anchor="middle" x="625" y="-7.5" font-family="Helvetica,sans-Serif" font-size="10.00">SequenceTrackSegmentEvent&lt; T &gt;</text>
</a>
</g>
</g>
<!-- Node5&#45;&gt;Node6 -->
<g id="edge6" class="edge">
<title>Node5&#45;&gt;Node6</title>
<path fill="none" stroke="midnightblue" d="M514.4,-10C522.85,-10 531.36,-10 539.71,-10"/>
<polygon fill="midnightblue" stroke="midnightblue" points="514.15,-6.5 504.15,-10 514.15,-13.5 514.15,-6.5"/>
</g>
</g>
</svg>
