<?xml version="1.0" encoding="UTF-8" standalone="no"?>
<!DOCTYPE svg PUBLIC "-//W3C//DTD SVG 1.1//EN"
 "http://www.w3.org/Graphics/SVG/1.1/DTD/svg11.dtd">
<!-- Generated by graphviz version 3.0.0 (20220226.1711)
 -->
<!-- Title: SafeOwnerBase Pages: 1 -->
<svg width="269pt" height="323pt"
 viewBox="0.00 0.00 269.00 322.50" xmlns="http://www.w3.org/2000/svg" xmlns:xlink="http://www.w3.org/1999/xlink">
<g id="graph0" class="graph" transform="scale(1 1) rotate(0) translate(4 318.5)">
<title>SafeOwnerBase</title>
<polygon fill="white" stroke="transparent" points="-4,4 -4,-318.5 265,-318.5 265,4 -4,4"/>
<!-- Node0 -->
<g id="node1" class="node">
<title>Node0</title>
<polygon fill="#bfbfbf" stroke="black" points="0,-153 0,-172 86,-172 86,-153 0,-153"/>
<text text-anchor="middle" x="43" y="-160" font-family="Helvetica,sans-Serif" font-size="10.00">SafeOwnerBase</text>
</g>
<!-- Node1 -->
<g id="node2" class="node">
<title>Node1</title>
<g id="a_node2"><a xlink:href="../../df/d53/classnap_1_1audio_1_1_safe_owner.html" target="_top" xlink:title="SafeOwner\&lt; T \&gt;">
<polygon fill="white" stroke="black" points="148,-295 148,-314 235,-314 235,-295 148,-295"/>
<text text-anchor="middle" x="191.5" y="-302" font-family="Helvetica,sans-Serif" font-size="10.00">SafeOwner&lt; T &gt;</text>
</a>
</g>
</g>
<!-- Node0&#45;&gt;Node1 -->
<g id="edge1" class="edge">
<title>Node0&#45;&gt;Node1</title>
<path fill="none" stroke="midnightblue" d="M51.02,-181.78C61.94,-209.03 85.6,-258.51 122,-285.5 129.53,-291.09 138.63,-295.03 147.7,-297.82"/>
<polygon fill="midnightblue" stroke="midnightblue" points="54.2,-180.28 47.34,-172.2 47.66,-182.79 54.2,-180.28"/>
</g>
<!-- Node2 -->
<g id="node3" class="node">
<title>Node2</title>
<g id="a_node3"><a xlink:href="../../df/d53/classnap_1_1audio_1_1_safe_owner.html" target="_top" xlink:title="SafeOwner\&lt; nap::audio\l::ControlNode \&gt;">
<polygon fill="white" stroke="black" points="132.5,-245.5 132.5,-275.5 250.5,-275.5 250.5,-245.5 132.5,-245.5"/>
<text text-anchor="start" x="140.5" y="-263.5" font-family="Helvetica,sans-Serif" font-size="10.00">SafeOwner&lt; nap::audio</text>
<text text-anchor="middle" x="191.5" y="-252.5" font-family="Helvetica,sans-Serif" font-size="10.00">::ControlNode &gt;</text>
</a>
</g>
</g>
<!-- Node0&#45;&gt;Node2 -->
<g id="edge2" class="edge">
<title>Node0&#45;&gt;Node2</title>
<path fill="none" stroke="midnightblue" d="M58.37,-179.85C72.9,-196.43 96.76,-221.1 122,-236.5 127.49,-239.85 133.5,-242.82 139.63,-245.42"/>
<polygon fill="midnightblue" stroke="midnightblue" points="60.82,-177.34 51.66,-172.02 55.5,-181.89 60.82,-177.34"/>
</g>
<!-- Node3 -->
<g id="node4" class="node">
<title>Node3</title>
<g id="a_node4"><a xlink:href="../../df/d53/classnap_1_1audio_1_1_safe_owner.html" target="_top" xlink:title="SafeOwner\&lt; nap::audio\l::FilterNode \&gt;">
<polygon fill="white" stroke="black" points="132.5,-196.5 132.5,-226.5 250.5,-226.5 250.5,-196.5 132.5,-196.5"/>
<text text-anchor="start" x="140.5" y="-214.5" font-family="Helvetica,sans-Serif" font-size="10.00">SafeOwner&lt; nap::audio</text>
<text text-anchor="middle" x="191.5" y="-203.5" font-family="Helvetica,sans-Serif" font-size="10.00">::FilterNode &gt;</text>
</a>
</g>
</g>
<!-- Node0&#45;&gt;Node3 -->
<g id="edge3" class="edge">
<title>Node0&#45;&gt;Node3</title>
<path fill="none" stroke="midnightblue" d="M82.3,-175.31C101.67,-181.79 125.31,-189.7 145.54,-196.46"/>
<polygon fill="midnightblue" stroke="midnightblue" points="83.19,-171.92 72.59,-172.06 80.97,-178.56 83.19,-171.92"/>
</g>
<!-- Node4 -->
<g id="node5" class="node">
<title>Node4</title>
<g id="a_node5"><a xlink:href="../../df/d53/classnap_1_1audio_1_1_safe_owner.html" target="_top" xlink:title="SafeOwner\&lt; nap::audio\l::LevelMeterNode \&gt;">
<polygon fill="white" stroke="black" points="132.5,-147.5 132.5,-177.5 250.5,-177.5 250.5,-147.5 132.5,-147.5"/>
<text text-anchor="start" x="140.5" y="-165.5" font-family="Helvetica,sans-Serif" font-size="10.00">SafeOwner&lt; nap::audio</text>
<text text-anchor="middle" x="191.5" y="-154.5" font-family="Helvetica,sans-Serif" font-size="10.00">::LevelMeterNode &gt;</text>
</a>
</g>
</g>
<!-- Node0&#45;&gt;Node4 -->
<g id="edge4" class="edge">
<title>Node0&#45;&gt;Node4</title>
<path fill="none" stroke="midnightblue" d="M96.4,-162.5C108.08,-162.5 120.53,-162.5 132.42,-162.5"/>
<polygon fill="midnightblue" stroke="midnightblue" points="96.37,-159 86.37,-162.5 96.37,-166 96.37,-159"/>
</g>
<!-- Node5 -->
<g id="node6" class="node">
<title>Node5</title>
<g id="a_node6"><a xlink:href="../../df/d53/classnap_1_1audio_1_1_safe_owner.html" target="_top" xlink:title="SafeOwner\&lt; nap::audio\l::MultiSampleBuffer \&gt;">
<polygon fill="white" stroke="black" points="132.5,-98.5 132.5,-128.5 250.5,-128.5 250.5,-98.5 132.5,-98.5"/>
<text text-anchor="start" x="140.5" y="-116.5" font-family="Helvetica,sans-Serif" font-size="10.00">SafeOwner&lt; nap::audio</text>
<text text-anchor="middle" x="191.5" y="-105.5" font-family="Helvetica,sans-Serif" font-size="10.00">::MultiSampleBuffer &gt;</text>
</a>
</g>
</g>
<!-- Node0&#45;&gt;Node5 -->
<g id="edge5" class="edge">
<title>Node0&#45;&gt;Node5</title>
<path fill="none" stroke="midnightblue" d="M82.3,-149.69C101.67,-143.21 125.31,-135.3 145.54,-128.54"/>
<polygon fill="midnightblue" stroke="midnightblue" points="80.97,-146.44 72.59,-152.94 83.19,-153.08 80.97,-146.44"/>
</g>
<!-- Node6 -->
<g id="node7" class="node">
<title>Node6</title>
<g id="a_node7"><a xlink:href="../../df/d53/classnap_1_1audio_1_1_safe_owner.html" target="_top" xlink:title="SafeOwner\&lt; nap::audio\l::VideoNode \&gt;">
<polygon fill="white" stroke="black" points="132.5,-49.5 132.5,-79.5 250.5,-79.5 250.5,-49.5 132.5,-49.5"/>
<text text-anchor="start" x="140.5" y="-67.5" font-family="Helvetica,sans-Serif" font-size="10.00">SafeOwner&lt; nap::audio</text>
<text text-anchor="middle" x="191.5" y="-56.5" font-family="Helvetica,sans-Serif" font-size="10.00">::VideoNode &gt;</text>
</a>
</g>
</g>
<!-- Node0&#45;&gt;Node6 -->
<g id="edge6" class="edge">
<title>Node0&#45;&gt;Node6</title>
<path fill="none" stroke="midnightblue" d="M58.93,-144.94C73.57,-128.65 97.24,-104.72 122,-89.5 128.04,-85.79 134.71,-82.5 141.46,-79.64"/>
<polygon fill="midnightblue" stroke="midnightblue" points="56.11,-142.84 52.14,-152.67 61.37,-147.46 56.11,-142.84"/>
</g>
<!-- Node7 -->
<g id="node8" class="node">
<title>Node7</title>
<g id="a_node8"><a xlink:href="../../df/d53/classnap_1_1audio_1_1_safe_owner.html" target="_top" xlink:title="SafeOwner\&lt; nap::Sequence\lPlayerAudioClockProcess \&gt;">
<polygon fill="white" stroke="black" points="122,-0.5 122,-30.5 261,-30.5 261,-0.5 122,-0.5"/>
<text text-anchor="start" x="130" y="-18.5" font-family="Helvetica,sans-Serif" font-size="10.00">SafeOwner&lt; nap::Sequence</text>
<text text-anchor="middle" x="191.5" y="-7.5" font-family="Helvetica,sans-Serif" font-size="10.00">PlayerAudioClockProcess &gt;</text>
</a>
</g>
</g>
<!-- Node0&#45;&gt;Node7 -->
<g id="edge7" class="edge">
<title>Node0&#45;&gt;Node7</title>
<path fill="none" stroke="midnightblue" d="M51.53,-143.37C62.93,-116.72 87.03,-68.55 122,-40.5 126.74,-36.7 132.11,-33.44 137.71,-30.66"/>
<polygon fill="midnightblue" stroke="midnightblue" points="48.24,-142.17 47.66,-152.75 54.71,-144.83 48.24,-142.17"/>
</g>
</g>
</svg>
