<?xml version="1.0" encoding="UTF-8" standalone="no"?>
<!DOCTYPE svg PUBLIC "-//W3C//DTD SVG 1.1//EN"
 "http://www.w3.org/Graphics/SVG/1.1/DTD/svg11.dtd">
<!-- Generated by graphviz version 3.0.0 (20220226.1711)
 -->
<!-- Title: OperationalCalendar Pages: 1 -->
<svg width="217pt" height="296pt"
 viewBox="0.00 0.00 217.00 296.00" xmlns="http://www.w3.org/2000/svg" xmlns:xlink="http://www.w3.org/1999/xlink">
<g id="graph0" class="graph" transform="scale(1 1) rotate(0) translate(4 292)">
<title>OperationalCalendar</title>
<polygon fill="white" stroke="transparent" points="-4,4 -4,-292 213,-292 213,4 -4,4"/>
<!-- Node4 -->
<g id="node1" class="node">
<title>Node4</title>
<polygon fill="#bfbfbf" stroke="black" points="70,-0.5 70,-19.5 174,-19.5 174,-0.5 70,-0.5"/>
<text text-anchor="middle" x="122" y="-7.5" font-family="Helvetica,sans-Serif" font-size="10.00">OperationalCalendar</text>
</g>
<!-- Node5 -->
<g id="node2" class="node">
<title>Node5</title>
<g id="a_node2"><a xlink:href="../../d3/dd1/classnap_1_1_i_calendar.html" target="_top" xlink:title="ICalendar">
<polygon fill="white" stroke="black" points="61.5,-133.5 61.5,-152.5 118.5,-152.5 118.5,-133.5 61.5,-133.5"/>
<text text-anchor="middle" x="90" y="-140.5" font-family="Helvetica,sans-Serif" font-size="10.00">ICalendar</text>
</a>
</g>
</g>
<!-- Node5&#45;&gt;Node4 -->
<g id="edge1" class="edge">
<title>Node5&#45;&gt;Node4</title>
<path fill="none" stroke="midnightblue" d="M94.53,-123.47C101.52,-94.83 114.69,-40.92 119.85,-19.8"/>
<polygon fill="midnightblue" stroke="midnightblue" points="91.07,-122.86 92.1,-133.4 97.87,-124.52 91.07,-122.86"/>
</g>
<!-- Node6 -->
<g id="node3" class="node">
<title>Node6</title>
<g id="a_node3"><a xlink:href="../../d9/dea/classnap_1_1_resource.html" target="_top" xlink:title="Resource">
<polygon fill="white" stroke="black" points="0,-211.5 0,-230.5 58,-230.5 58,-211.5 0,-211.5"/>
<text text-anchor="middle" x="29" y="-218.5" font-family="Helvetica,sans-Serif" font-size="10.00">Resource</text>
</a>
</g>
</g>
<!-- Node6&#45;&gt;Node5 -->
<g id="edge2" class="edge">
<title>Node6&#45;&gt;Node5</title>
<path fill="none" stroke="midnightblue" d="M42.29,-203.44C54.85,-187.79 73.2,-164.93 83.08,-152.62"/>
<polygon fill="midnightblue" stroke="midnightblue" points="39.53,-201.29 36,-211.28 44.99,-205.67 39.53,-201.29"/>
</g>
<!-- Node7 -->
<g id="node4" class="node">
<title>Node7</title>
<g id="a_node4"><a xlink:href="../../de/d01/classnap_1_1rtti_1_1_object.html" target="_top" xlink:title="Object">
<polygon fill="white" stroke="black" points="6.5,-268.5 6.5,-287.5 51.5,-287.5 51.5,-268.5 6.5,-268.5"/>
<text text-anchor="middle" x="29" y="-275.5" font-family="Helvetica,sans-Serif" font-size="10.00">Object</text>
</a>
</g>
</g>
<!-- Node7&#45;&gt;Node6 -->
<g id="edge3" class="edge">
<title>Node7&#45;&gt;Node6</title>
<path fill="none" stroke="midnightblue" d="M29,-258.12C29,-248.82 29,-238.06 29,-230.71"/>
<polygon fill="midnightblue" stroke="midnightblue" points="25.5,-258.41 29,-268.41 32.5,-258.41 25.5,-258.41"/>
</g>
<!-- Node8 -->
<g id="node5" class="node">
<title>Node8</title>
<g id="a_node5"><a xlink:href="../../d0/dfd/classnap_1_1_core.html" target="_top" xlink:title="Core">
<polygon fill="white" stroke="black" points="76.5,-211.5 76.5,-230.5 113.5,-230.5 113.5,-211.5 76.5,-211.5"/>
<text text-anchor="middle" x="95" y="-218.5" font-family="Helvetica,sans-Serif" font-size="10.00">Core</text>
</a>
</g>
</g>
<!-- Node8&#45;&gt;Node5 -->
<g id="edge4" class="edge">
<title>Node8&#45;&gt;Node5</title>
<path fill="none" stroke="#9a32cd" stroke-dasharray="5,2" d="M93.76,-201.22C92.74,-185.7 91.34,-164.36 90.57,-152.62"/>
<polygon fill="#9a32cd" stroke="#9a32cd" points="90.28,-201.53 94.43,-211.28 97.26,-201.07 90.28,-201.53"/>
<text text-anchor="middle" x="110" y="-179.5" font-family="Helvetica,sans-Serif" font-size="10.00"> mCore</text>
</g>
<!-- Node9 -->
<g id="node6" class="node">
<title>Node9</title>
<g id="a_node6"><a xlink:href="../../d1/d8d/structnap_1_1_calendar_item_1_1_point.html" target="_top" xlink:title="Point">
<polygon fill="white" stroke="black" points="136.5,-133.5 136.5,-152.5 175.5,-152.5 175.5,-133.5 136.5,-133.5"/>
<text text-anchor="middle" x="156" y="-140.5" font-family="Helvetica,sans-Serif" font-size="10.00">Point</text>
</a>
</g>
</g>
<!-- Node9&#45;&gt;Node4 -->
<g id="edge5" class="edge">
<title>Node9&#45;&gt;Node4</title>
<path fill="none" stroke="#9a32cd" stroke-dasharray="5,2" d="M151.19,-123.47C143.76,-94.83 129.76,-40.92 124.28,-19.8"/>
<polygon fill="#9a32cd" stroke="#9a32cd" points="147.87,-124.6 153.77,-133.4 154.64,-122.85 147.87,-124.6"/>
<text text-anchor="middle" x="178.5" y="-107" font-family="Helvetica,sans-Serif" font-size="10.00"> mFriday</text>
<text text-anchor="middle" x="178.5" y="-96" font-family="Helvetica,sans-Serif" font-size="10.00">mWednesday</text>
<text text-anchor="middle" x="178.5" y="-85" font-family="Helvetica,sans-Serif" font-size="10.00">mSunday</text>
<text text-anchor="middle" x="178.5" y="-74" font-family="Helvetica,sans-Serif" font-size="10.00">mMonday</text>
<text text-anchor="middle" x="178.5" y="-63" font-family="Helvetica,sans-Serif" font-size="10.00">mSaturday</text>
<text text-anchor="middle" x="178.5" y="-52" font-family="Helvetica,sans-Serif" font-size="10.00">mThursday</text>
<text text-anchor="middle" x="178.5" y="-41" font-family="Helvetica,sans-Serif" font-size="10.00">mTuesday</text>
</g>
<!-- Node10 -->
<g id="node7" class="node">
<title>Node10</title>
<g id="a_node7"><a xlink:href="../../d4/db2/structnap_1_1_calendar_item_1_1_time.html" target="_top" xlink:title="Time">
<polygon fill="white" stroke="black" points="137,-211.5 137,-230.5 175,-230.5 175,-211.5 137,-211.5"/>
<text text-anchor="middle" x="156" y="-218.5" font-family="Helvetica,sans-Serif" font-size="10.00">Time</text>
</a>
</g>
</g>
<!-- Node10&#45;&gt;Node9 -->
<g id="edge6" class="edge">
<title>Node10&#45;&gt;Node9</title>
<path fill="none" stroke="#9a32cd" stroke-dasharray="5,2" d="M156,-201.22C156,-185.7 156,-164.36 156,-152.62"/>
<polygon fill="#9a32cd" stroke="#9a32cd" points="152.5,-201.28 156,-211.28 159.5,-201.28 152.5,-201.28"/>
<text text-anchor="middle" x="178.5" y="-185" font-family="Helvetica,sans-Serif" font-size="10.00"> mTime</text>
<text text-anchor="middle" x="178.5" y="-174" font-family="Helvetica,sans-Serif" font-size="10.00">mDuration</text>
</g>
</g>
</svg>
