<?xml version="1.0" encoding="UTF-8" standalone="no"?>
<!DOCTYPE svg PUBLIC "-//W3C//DTD SVG 1.1//EN"
 "http://www.w3.org/Graphics/SVG/1.1/DTD/svg11.dtd">
<!-- Generated by graphviz version 2.43.0 (0)
 -->
<!-- Title: ComputeComponent Pages: 1 -->
<svg width="480pt" height="230pt"
 viewBox="0.00 0.00 480.00 230.00" xmlns="http://www.w3.org/2000/svg" xmlns:xlink="http://www.w3.org/1999/xlink">
<g id="graph0" class="graph" transform="scale(1 1) rotate(0) translate(4 226)">
<title>ComputeComponent</title>
<polygon fill="white" stroke="transparent" points="-4,4 -4,-226 476,-226 476,4 -4,4"/>
<!-- Node1 -->
<g id="node1" class="node">
<title>Node1</title>
<g id="a_node1"><a xlink:title=" ">
<polygon fill="#bfbfbf" stroke="black" points="52,-0.5 52,-19.5 169,-19.5 169,-0.5 52,-0.5"/>
<text text-anchor="middle" x="110.5" y="-7.5" font-family="Helvetica,sans-Serif" font-size="10.00">ComputeComponent</text>
</a>
</g>
</g>
<!-- Node2 -->
<g id="node2" class="node">
<title>Node2</title>
<g id="a_node2"><a xlink:href="../../db/d6b/classnap_1_1_component.html" target="_top" xlink:title=" ">
<polygon fill="white" stroke="black" points="0,-78.5 0,-97.5 73,-97.5 73,-78.5 0,-78.5"/>
<text text-anchor="middle" x="36.5" y="-85.5" font-family="Helvetica,sans-Serif" font-size="10.00">Component</text>
</a>
</g>
</g>
<!-- Node2&#45;&gt;Node1 -->
<g id="edge1" class="edge">
<title>Node2&#45;&gt;Node1</title>
<path fill="none" stroke="midnightblue" d="M52.2,-70.88C67.45,-55.22 90.01,-32.04 102.11,-19.62"/>
<polygon fill="midnightblue" stroke="midnightblue" points="49.46,-68.68 44.99,-78.28 54.47,-73.56 49.46,-68.68"/>
</g>
<!-- Node3 -->
<g id="node3" class="node">
<title>Node3</title>
<g id="a_node3"><a xlink:href="../../d9/dea/classnap_1_1_resource.html" target="_top" xlink:title=" ">
<polygon fill="white" stroke="black" points="5.5,-145.5 5.5,-164.5 67.5,-164.5 67.5,-145.5 5.5,-145.5"/>
<text text-anchor="middle" x="36.5" y="-152.5" font-family="Helvetica,sans-Serif" font-size="10.00">Resource</text>
</a>
</g>
</g>
<!-- Node3&#45;&gt;Node2 -->
<g id="edge2" class="edge">
<title>Node3&#45;&gt;Node2</title>
<path fill="none" stroke="midnightblue" d="M36.5,-135.04C36.5,-122.67 36.5,-107.12 36.5,-97.63"/>
<polygon fill="midnightblue" stroke="midnightblue" points="33,-135.23 36.5,-145.23 40,-135.23 33,-135.23"/>
</g>
<!-- Node4 -->
<g id="node4" class="node">
<title>Node4</title>
<g id="a_node4"><a xlink:href="../../de/d01/classnap_1_1rtti_1_1_object.html" target="_top" xlink:title=" ">
<polygon fill="white" stroke="black" points="12.5,-202.5 12.5,-221.5 60.5,-221.5 60.5,-202.5 12.5,-202.5"/>
<text text-anchor="middle" x="36.5" y="-209.5" font-family="Helvetica,sans-Serif" font-size="10.00">Object</text>
</a>
</g>
</g>
<!-- Node4&#45;&gt;Node3 -->
<g id="edge3" class="edge">
<title>Node4&#45;&gt;Node3</title>
<path fill="none" stroke="midnightblue" d="M36.5,-192.12C36.5,-182.82 36.5,-172.06 36.5,-164.71"/>
<polygon fill="midnightblue" stroke="midnightblue" points="33,-192.41 36.5,-202.41 40,-192.41 33,-192.41"/>
</g>
<!-- Node5 -->
<g id="node5" class="node">
<title>Node5</title>
<g id="a_node5"><a xlink:href="../../d9/d09/classnap_1_1_compute_material_instance_resource.html" target="_top" xlink:title=" ">
<polygon fill="white" stroke="black" points="91.5,-78.5 91.5,-97.5 279.5,-97.5 279.5,-78.5 91.5,-78.5"/>
<text text-anchor="middle" x="185.5" y="-85.5" font-family="Helvetica,sans-Serif" font-size="10.00">ComputeMaterialInstanceResource</text>
</a>
</g>
</g>
<!-- Node5&#45;&gt;Node1 -->
<g id="edge4" class="edge">
<title>Node5&#45;&gt;Node1</title>
<path fill="none" stroke="#9a32cd" stroke-dasharray="5,2" d="M169.59,-70.88C154.13,-55.22 131.27,-32.04 119,-19.62"/>
<polygon fill="#9a32cd" stroke="#9a32cd" points="167.38,-73.62 176.9,-78.28 172.36,-68.71 167.38,-73.62"/>
<text text-anchor="start" x="157.5" y="-52" font-family="Helvetica,sans-Serif" font-size="10.00"> mComputeMaterialInstance</text>
<text text-anchor="middle" x="227" y="-41" font-family="Helvetica,sans-Serif" font-size="10.00">Resource</text>
</g>
<!-- Node6 -->
<g id="node6" class="node">
<title>Node6</title>
<g id="a_node6"><a xlink:href="../../df/d7a/classnap_1_1_base_material_instance_resource.html" target="_top" xlink:title=" ">
<polygon fill="white" stroke="black" points="94,-145.5 94,-164.5 261,-164.5 261,-145.5 94,-145.5"/>
<text text-anchor="middle" x="177.5" y="-152.5" font-family="Helvetica,sans-Serif" font-size="10.00">BaseMaterialInstanceResource</text>
</a>
</g>
</g>
<!-- Node6&#45;&gt;Node5 -->
<g id="edge5" class="edge">
<title>Node6&#45;&gt;Node5</title>
<path fill="none" stroke="midnightblue" d="M179.83,-135.04C181.36,-122.67 183.27,-107.12 184.44,-97.63"/>
<polygon fill="midnightblue" stroke="midnightblue" points="176.33,-134.88 178.58,-145.23 183.27,-135.74 176.33,-134.88"/>
</g>
<!-- Node7 -->
<g id="node7" class="node">
<title>Node7</title>
<g id="a_node7"><a xlink:href="../../dd/d7c/classnap_1_1rtti_1_1_object_ptr.html" target="_top" xlink:title=" ">
<polygon fill="white" stroke="black" points="279,-145.5 279,-164.5 472,-164.5 472,-145.5 279,-145.5"/>
<text text-anchor="middle" x="375.5" y="-152.5" font-family="Helvetica,sans-Serif" font-size="10.00">ObjectPtr&lt; nap::ComputeMaterial &gt;</text>
</a>
</g>
</g>
<!-- Node7&#45;&gt;Node5 -->
<g id="edge6" class="edge">
<title>Node7&#45;&gt;Node5</title>
<path fill="none" stroke="#9a32cd" stroke-dasharray="5,2" d="M340.72,-142.1C303.05,-129.21 243.88,-108.97 210.53,-97.56"/>
<polygon fill="#9a32cd" stroke="#9a32cd" points="339.67,-145.44 350.27,-145.37 341.94,-138.82 339.67,-145.44"/>
<text text-anchor="middle" x="341.5" y="-119" font-family="Helvetica,sans-Serif" font-size="10.00"> mComputeMaterial</text>
</g>
<!-- Node8 -->
<g id="node8" class="node">
<title>Node8</title>
<g id="a_node8"><a xlink:href="../../d7/dcb/classnap_1_1rtti_1_1_object_ptr_base.html" target="_top" xlink:title=" ">
<polygon fill="white" stroke="black" points="332.5,-202.5 332.5,-221.5 418.5,-221.5 418.5,-202.5 332.5,-202.5"/>
<text text-anchor="middle" x="375.5" y="-209.5" font-family="Helvetica,sans-Serif" font-size="10.00">ObjectPtrBase</text>
</a>
</g>
</g>
<!-- Node8&#45;&gt;Node7 -->
<g id="edge7" class="edge">
<title>Node8&#45;&gt;Node7</title>
<path fill="none" stroke="midnightblue" d="M375.5,-192.12C375.5,-182.82 375.5,-172.06 375.5,-164.71"/>
<polygon fill="midnightblue" stroke="midnightblue" points="372,-192.41 375.5,-202.41 379,-192.41 372,-192.41"/>
</g>
</g>
</svg>
