<?xml version="1.0" encoding="UTF-8" standalone="no"?>
<!DOCTYPE svg PUBLIC "-//W3C//DTD SVG 1.1//EN"
 "http://www.w3.org/Graphics/SVG/1.1/DTD/svg11.dtd">
<!-- Generated by graphviz version 3.0.0 (20220226.1711)
 -->
<!-- Title: UniformLeafInstance Pages: 1 -->
<svg width="372pt" height="196pt"
 viewBox="0.00 0.00 371.50 196.00" xmlns="http://www.w3.org/2000/svg" xmlns:xlink="http://www.w3.org/1999/xlink">
<g id="graph0" class="graph" transform="scale(1 1) rotate(0) translate(4 192)">
<title>UniformLeafInstance</title>
<polygon fill="white" stroke="transparent" points="-4,4 -4,-192 367.5,-192 367.5,4 -4,4"/>
<!-- Node0 -->
<g id="node1" class="node">
<title>Node0</title>
<polygon fill="#bfbfbf" stroke="black" points="135,-112.5 135,-131.5 239,-131.5 239,-112.5 135,-112.5"/>
<text text-anchor="middle" x="187" y="-119.5" font-family="Helvetica,sans-Serif" font-size="10.00">UniformLeafInstance</text>
</g>
<!-- Node2 -->
<g id="node3" class="node">
<title>Node2</title>
<g id="a_node3"><a xlink:href="../../d8/da5/classnap_1_1_uniform_value_array_instance.html" target="_top" xlink:title="UniformValueArrayInstance">
<polygon fill="white" stroke="black" points="50,-56.5 50,-75.5 184,-75.5 184,-56.5 50,-56.5"/>
<text text-anchor="middle" x="117" y="-63.5" font-family="Helvetica,sans-Serif" font-size="10.00">UniformValueArrayInstance</text>
</a>
</g>
</g>
<!-- Node0&#45;&gt;Node2 -->
<g id="edge2" class="edge">
<title>Node0&#45;&gt;Node2</title>
<path fill="none" stroke="midnightblue" d="M167.69,-106.1C155.09,-96.38 139.07,-84.03 128.45,-75.83"/>
<polygon fill="midnightblue" stroke="midnightblue" points="165.7,-108.99 175.75,-112.32 169.97,-103.44 165.7,-108.99"/>
</g>
<!-- Node4 -->
<g id="node5" class="node">
<title>Node4</title>
<g id="a_node5"><a xlink:href="../../d0/dac/classnap_1_1_uniform_value_instance.html" target="_top" xlink:title="UniformValueInstance">
<polygon fill="white" stroke="black" points="214.5,-56.5 214.5,-75.5 325.5,-75.5 325.5,-56.5 214.5,-56.5"/>
<text text-anchor="middle" x="270" y="-63.5" font-family="Helvetica,sans-Serif" font-size="10.00">UniformValueInstance</text>
</a>
</g>
</g>
<!-- Node0&#45;&gt;Node4 -->
<g id="edge4" class="edge">
<title>Node0&#45;&gt;Node4</title>
<path fill="none" stroke="midnightblue" d="M209.1,-106.62C224.26,-96.76 243.88,-83.99 256.7,-75.65"/>
<polygon fill="midnightblue" stroke="midnightblue" points="206.81,-103.94 200.34,-112.32 210.63,-109.8 206.81,-103.94"/>
</g>
<!-- Node1 -->
<g id="node2" class="node">
<title>Node1</title>
<g id="a_node2"><a xlink:href="../../d6/d6a/classnap_1_1_uniform_instance.html" target="_top" xlink:title="UniformInstance">
<polygon fill="white" stroke="black" points="144,-168.5 144,-187.5 230,-187.5 230,-168.5 144,-168.5"/>
<text text-anchor="middle" x="187" y="-175.5" font-family="Helvetica,sans-Serif" font-size="10.00">UniformInstance</text>
</a>
</g>
</g>
<!-- Node1&#45;&gt;Node0 -->
<g id="edge1" class="edge">
<title>Node1&#45;&gt;Node0</title>
<path fill="none" stroke="midnightblue" d="M187,-157.8C187,-148.91 187,-138.78 187,-131.75"/>
<polygon fill="midnightblue" stroke="midnightblue" points="183.5,-158.08 187,-168.08 190.5,-158.08 183.5,-158.08"/>
</g>
<!-- Node3 -->
<g id="node4" class="node">
<title>Node3</title>
<g id="a_node4"><a xlink:href="../../d3/d48/classnap_1_1_typed_uniform_value_array_instance.html" target="_top" xlink:title="TypedUniformValueArrayInstance\&lt; T \&gt;">
<polygon fill="white" stroke="black" points="0,-0.5 0,-19.5 184,-19.5 184,-0.5 0,-0.5"/>
<text text-anchor="middle" x="92" y="-7.5" font-family="Helvetica,sans-Serif" font-size="10.00">TypedUniformValueArrayInstance&lt; T &gt;</text>
</a>
</g>
</g>
<!-- Node2&#45;&gt;Node3 -->
<g id="edge3" class="edge">
<title>Node2&#45;&gt;Node3</title>
<path fill="none" stroke="midnightblue" d="M108.66,-46.98C104.42,-37.82 99.45,-27.09 96.05,-19.75"/>
<polygon fill="midnightblue" stroke="midnightblue" points="105.49,-48.48 112.87,-56.08 111.85,-45.54 105.49,-48.48"/>
</g>
<!-- Node5 -->
<g id="node6" class="node">
<title>Node5</title>
<g id="a_node6"><a xlink:href="../../d7/d60/classnap_1_1_typed_uniform_value_instance.html" target="_top" xlink:title="TypedUniformValueInstance\&lt; T \&gt;">
<polygon fill="white" stroke="black" points="202.5,-0.5 202.5,-19.5 363.5,-19.5 363.5,-0.5 202.5,-0.5"/>
<text text-anchor="middle" x="283" y="-7.5" font-family="Helvetica,sans-Serif" font-size="10.00">TypedUniformValueInstance&lt; T &gt;</text>
</a>
</g>
</g>
<!-- Node4&#45;&gt;Node5 -->
<g id="edge5" class="edge">
<title>Node4&#45;&gt;Node5</title>
<path fill="none" stroke="midnightblue" d="M274.55,-46.1C276.71,-37.14 279.18,-26.86 280.89,-19.75"/>
<polygon fill="midnightblue" stroke="midnightblue" points="271.08,-45.54 272.15,-56.08 277.89,-47.18 271.08,-45.54"/>
</g>
</g>
</svg>
