<?xml version="1.0" encoding="UTF-8" standalone="no"?>
<!DOCTYPE svg PUBLIC "-//W3C//DTD SVG 1.1//EN"
 "http://www.w3.org/Graphics/SVG/1.1/DTD/svg11.dtd">
<!-- Generated by graphviz version 3.0.0 (20220226.1711)
 -->
<!-- Title: IWebSocketServer Pages: 1 -->
<svg width="370pt" height="252pt"
 viewBox="0.00 0.00 369.50 252.00" xmlns="http://www.w3.org/2000/svg" xmlns:xlink="http://www.w3.org/1999/xlink">
<g id="graph0" class="graph" transform="scale(1 1) rotate(0) translate(4 248)">
<title>IWebSocketServer</title>
<polygon fill="white" stroke="transparent" points="-4,4 -4,-248 365.5,-248 365.5,4 -4,4"/>
<!-- Node0 -->
<g id="node1" class="node">
<title>Node0</title>
<polygon fill="#bfbfbf" stroke="black" points="139.5,-56.5 139.5,-75.5 236.5,-75.5 236.5,-56.5 139.5,-56.5"/>
<text text-anchor="middle" x="188" y="-63.5" font-family="Helvetica,sans-Serif" font-size="10.00">IWebSocketServer</text>
</g>
<!-- Node4 -->
<g id="node5" class="node">
<title>Node4</title>
<g id="a_node5"><a xlink:href="../../d0/d37/classnap_1_1_a_p_i_web_socket_server.html" target="_top" xlink:title="APIWebSocketServer">
<polygon fill="white" stroke="black" points="0,-0.5 0,-19.5 110,-19.5 110,-0.5 0,-0.5"/>
<text text-anchor="middle" x="55" y="-7.5" font-family="Helvetica,sans-Serif" font-size="10.00">APIWebSocketServer</text>
</a>
</g>
</g>
<!-- Node0&#45;&gt;Node4 -->
<g id="edge4" class="edge">
<title>Node0&#45;&gt;Node4</title>
<path fill="none" stroke="midnightblue" d="M157.55,-52.64C132.59,-42.5 97.92,-28.43 75.98,-19.52"/>
<polygon fill="midnightblue" stroke="midnightblue" points="156.34,-55.92 166.93,-56.44 158.98,-49.44 156.34,-55.92"/>
</g>
<!-- Node5 -->
<g id="node6" class="node">
<title>Node5</title>
<g id="a_node6"><a xlink:href="../../d7/d1c/classnap_1_1_portal_web_socket_server.html" target="_top" xlink:title="PortalWebSocketServer">
<polygon fill="white" stroke="black" points="128,-0.5 128,-19.5 248,-19.5 248,-0.5 128,-0.5"/>
<text text-anchor="middle" x="188" y="-7.5" font-family="Helvetica,sans-Serif" font-size="10.00">PortalWebSocketServer</text>
</a>
</g>
</g>
<!-- Node0&#45;&gt;Node5 -->
<g id="edge5" class="edge">
<title>Node0&#45;&gt;Node5</title>
<path fill="none" stroke="midnightblue" d="M188,-45.8C188,-36.91 188,-26.78 188,-19.75"/>
<polygon fill="midnightblue" stroke="midnightblue" points="184.5,-46.08 188,-56.08 191.5,-46.08 184.5,-46.08"/>
</g>
<!-- Node6 -->
<g id="node7" class="node">
<title>Node6</title>
<g id="a_node7"><a xlink:href="../../de/d44/classnap_1_1_web_socket_server.html" target="_top" xlink:title="WebSocketServer">
<polygon fill="white" stroke="black" points="266.5,-0.5 266.5,-19.5 361.5,-19.5 361.5,-0.5 266.5,-0.5"/>
<text text-anchor="middle" x="314" y="-7.5" font-family="Helvetica,sans-Serif" font-size="10.00">WebSocketServer</text>
</a>
</g>
</g>
<!-- Node0&#45;&gt;Node6 -->
<g id="edge6" class="edge">
<title>Node0&#45;&gt;Node6</title>
<path fill="none" stroke="midnightblue" d="M217.16,-52.5C240.78,-42.38 273.43,-28.39 294.13,-19.52"/>
<polygon fill="midnightblue" stroke="midnightblue" points="215.78,-49.29 207.97,-56.44 218.54,-55.72 215.78,-49.29"/>
</g>
<!-- Node1 -->
<g id="node2" class="node">
<title>Node1</title>
<g id="a_node2"><a xlink:href="../../d6/d44/classnap_1_1_web_socket_interface.html" target="_top" xlink:title="WebSocketInterface">
<polygon fill="white" stroke="black" points="136,-112.5 136,-131.5 240,-131.5 240,-112.5 136,-112.5"/>
<text text-anchor="middle" x="188" y="-119.5" font-family="Helvetica,sans-Serif" font-size="10.00">WebSocketInterface</text>
</a>
</g>
</g>
<!-- Node1&#45;&gt;Node0 -->
<g id="edge1" class="edge">
<title>Node1&#45;&gt;Node0</title>
<path fill="none" stroke="midnightblue" d="M188,-101.8C188,-92.91 188,-82.78 188,-75.75"/>
<polygon fill="midnightblue" stroke="midnightblue" points="184.5,-102.08 188,-112.08 191.5,-102.08 184.5,-102.08"/>
</g>
<!-- Node2 -->
<g id="node3" class="node">
<title>Node2</title>
<g id="a_node3"><a xlink:href="../../d9/dea/classnap_1_1_resource.html" target="_top" xlink:title="Resource">
<polygon fill="white" stroke="black" points="159,-168.5 159,-187.5 217,-187.5 217,-168.5 159,-168.5"/>
<text text-anchor="middle" x="188" y="-175.5" font-family="Helvetica,sans-Serif" font-size="10.00">Resource</text>
</a>
</g>
</g>
<!-- Node2&#45;&gt;Node1 -->
<g id="edge2" class="edge">
<title>Node2&#45;&gt;Node1</title>
<path fill="none" stroke="midnightblue" d="M188,-157.8C188,-148.91 188,-138.78 188,-131.75"/>
<polygon fill="midnightblue" stroke="midnightblue" points="184.5,-158.08 188,-168.08 191.5,-158.08 184.5,-158.08"/>
</g>
<!-- Node3 -->
<g id="node4" class="node">
<title>Node3</title>
<g id="a_node4"><a xlink:href="../../de/d01/classnap_1_1rtti_1_1_object.html" target="_top" xlink:title="Object">
<polygon fill="white" stroke="black" points="165.5,-224.5 165.5,-243.5 210.5,-243.5 210.5,-224.5 165.5,-224.5"/>
<text text-anchor="middle" x="188" y="-231.5" font-family="Helvetica,sans-Serif" font-size="10.00">Object</text>
</a>
</g>
</g>
<!-- Node3&#45;&gt;Node2 -->
<g id="edge3" class="edge">
<title>Node3&#45;&gt;Node2</title>
<path fill="none" stroke="midnightblue" d="M188,-213.8C188,-204.91 188,-194.78 188,-187.75"/>
<polygon fill="midnightblue" stroke="midnightblue" points="184.5,-214.08 188,-224.08 191.5,-214.08 184.5,-214.08"/>
</g>
</g>
</svg>
