<?xml version="1.0" encoding="UTF-8" standalone="no"?>
<!DOCTYPE svg PUBLIC "-//W3C//DTD SVG 1.1//EN"
 "http://www.w3.org/Graphics/SVG/1.1/DTD/svg11.dtd">
<!-- Generated by graphviz version 3.0.0 (20220226.1711)
 -->
<!-- Title: Renderable3DTextComponentInstance Pages: 1 -->
<svg width="396pt" height="298pt"
 viewBox="0.00 0.00 395.50 298.00" xmlns="http://www.w3.org/2000/svg" xmlns:xlink="http://www.w3.org/1999/xlink">
<g id="graph0" class="graph" transform="scale(1 1) rotate(0) translate(4 294)">
<title>Renderable3DTextComponentInstance</title>
<polygon fill="white" stroke="transparent" points="-4,4 -4,-294 391.5,-294 391.5,4 -4,4"/>
<!-- Node5 -->
<g id="node1" class="node">
<title>Node5</title>
<polygon fill="#bfbfbf" stroke="black" points="135,-0.5 135,-30.5 281,-30.5 281,-0.5 135,-0.5"/>
<text text-anchor="start" x="143" y="-18.5" font-family="Helvetica,sans-Serif" font-size="10.00">Renderable3DTextComponent</text>
<text text-anchor="middle" x="208" y="-7.5" font-family="Helvetica,sans-Serif" font-size="10.00">Instance</text>
</g>
<!-- Node6 -->
<g id="node2" class="node">
<title>Node6</title>
<g id="a_node2"><a xlink:href="../../db/d63/classnap_1_1_renderable_text_component_instance.html" target="_top" xlink:title="RenderableTextComponentInstance">
<polygon fill="white" stroke="black" points="123,-68.5 123,-87.5 293,-87.5 293,-68.5 123,-68.5"/>
<text text-anchor="middle" x="208" y="-75.5" font-family="Helvetica,sans-Serif" font-size="10.00">RenderableTextComponentInstance</text>
</a>
</g>
</g>
<!-- Node6&#45;&gt;Node5 -->
<g id="edge1" class="edge">
<title>Node6&#45;&gt;Node5</title>
<path fill="none" stroke="midnightblue" d="M208,-58.22C208,-49.36 208,-38.96 208,-30.76"/>
<polygon fill="midnightblue" stroke="midnightblue" points="204.5,-58.33 208,-68.33 211.5,-58.33 204.5,-58.33"/>
</g>
<!-- Node7 -->
<g id="node3" class="node">
<title>Node7</title>
<g id="a_node3"><a xlink:href="../../dd/da0/classnap_1_1_renderable_component_instance.html" target="_top" xlink:title="RenderableComponentInstance">
<polygon fill="white" stroke="black" points="0,-135.5 0,-154.5 152,-154.5 152,-135.5 0,-135.5"/>
<text text-anchor="middle" x="76" y="-142.5" font-family="Helvetica,sans-Serif" font-size="10.00">RenderableComponentInstance</text>
</a>
</g>
</g>
<!-- Node7&#45;&gt;Node6 -->
<g id="edge2" class="edge">
<title>Node7&#45;&gt;Node6</title>
<path fill="none" stroke="midnightblue" d="M102.51,-130.94C128.66,-118.07 167.88,-98.76 190.4,-87.67"/>
<polygon fill="midnightblue" stroke="midnightblue" points="100.95,-127.81 93.53,-135.37 104.05,-134.09 100.95,-127.81"/>
</g>
<!-- Node8 -->
<g id="node4" class="node">
<title>Node8</title>
<g id="a_node4"><a xlink:href="../../d9/df2/classnap_1_1_component_instance.html" target="_top" xlink:title="ComponentInstance">
<polygon fill="white" stroke="black" points="24.5,-213.5 24.5,-232.5 127.5,-232.5 127.5,-213.5 24.5,-213.5"/>
<text text-anchor="middle" x="76" y="-220.5" font-family="Helvetica,sans-Serif" font-size="10.00">ComponentInstance</text>
</a>
</g>
</g>
<!-- Node8&#45;&gt;Node7 -->
<g id="edge3" class="edge">
<title>Node8&#45;&gt;Node7</title>
<path fill="none" stroke="midnightblue" d="M76,-203.22C76,-187.7 76,-166.36 76,-154.62"/>
<polygon fill="midnightblue" stroke="midnightblue" points="72.5,-203.28 76,-213.28 79.5,-203.28 72.5,-203.28"/>
</g>
<!-- Node9 -->
<g id="node5" class="node">
<title>Node9</title>
<g id="a_node5"><a xlink:href="../../de/d01/classnap_1_1rtti_1_1_object.html" target="_top" xlink:title="Object">
<polygon fill="white" stroke="black" points="53.5,-270.5 53.5,-289.5 98.5,-289.5 98.5,-270.5 53.5,-270.5"/>
<text text-anchor="middle" x="76" y="-277.5" font-family="Helvetica,sans-Serif" font-size="10.00">Object</text>
</a>
</g>
</g>
<!-- Node9&#45;&gt;Node8 -->
<g id="edge4" class="edge">
<title>Node9&#45;&gt;Node8</title>
<path fill="none" stroke="midnightblue" d="M76,-260.12C76,-250.82 76,-240.06 76,-232.71"/>
<polygon fill="midnightblue" stroke="midnightblue" points="72.5,-260.41 76,-270.41 79.5,-260.41 72.5,-260.41"/>
</g>
<!-- Node10 -->
<g id="node6" class="node">
<title>Node10</title>
<g id="a_node6"><a xlink:href="../../d5/dc6/classnap_1_1_render_service.html" target="_top" xlink:title="RenderService">
<polygon fill="white" stroke="black" points="170.5,-135.5 170.5,-154.5 249.5,-154.5 249.5,-135.5 170.5,-135.5"/>
<text text-anchor="middle" x="210" y="-142.5" font-family="Helvetica,sans-Serif" font-size="10.00">RenderService</text>
</a>
</g>
</g>
<!-- Node10&#45;&gt;Node6 -->
<g id="edge5" class="edge">
<title>Node10&#45;&gt;Node6</title>
<path fill="none" stroke="#9a32cd" stroke-dasharray="5,2" d="M209.28,-125.37C209.18,-122.57 209.09,-119.71 209,-117 208.68,-106.97 208.39,-95.46 208.2,-87.75"/>
<polygon fill="#9a32cd" stroke="#9a32cd" points="205.79,-125.63 209.66,-135.49 212.79,-125.36 205.79,-125.63"/>
<text text-anchor="middle" x="246" y="-109" font-family="Helvetica,sans-Serif" font-size="10.00"> mRenderService</text>
</g>
<!-- Node11 -->
<g id="node7" class="node">
<title>Node11</title>
<g id="a_node7"><a xlink:href="../../d8/d8e/classnap_1_1_service.html" target="_top" xlink:title="Service">
<polygon fill="white" stroke="black" points="166,-213.5 166,-232.5 214,-232.5 214,-213.5 166,-213.5"/>
<text text-anchor="middle" x="190" y="-220.5" font-family="Helvetica,sans-Serif" font-size="10.00">Service</text>
</a>
</g>
</g>
<!-- Node11&#45;&gt;Node10 -->
<g id="edge6" class="edge">
<title>Node11&#45;&gt;Node10</title>
<path fill="none" stroke="midnightblue" d="M194.94,-203.22C199.03,-187.7 204.64,-166.36 207.73,-154.62"/>
<polygon fill="midnightblue" stroke="midnightblue" points="191.45,-202.72 192.29,-213.28 198.22,-204.5 191.45,-202.72"/>
</g>
<!-- Node12 -->
<g id="node8" class="node">
<title>Node12</title>
<g id="a_node8"><a xlink:href="../../de/d80/classnap_1_1_signal.html" target="_top" xlink:title="Signal\&lt; nap::RenderWindow &amp;\&gt;">
<polygon fill="white" stroke="black" points="232.5,-213.5 232.5,-232.5 387.5,-232.5 387.5,-213.5 232.5,-213.5"/>
<text text-anchor="middle" x="310" y="-220.5" font-family="Helvetica,sans-Serif" font-size="10.00">Signal&lt; nap::RenderWindow &amp;&gt;</text>
</a>
</g>
</g>
<!-- Node12&#45;&gt;Node10 -->
<g id="edge7" class="edge">
<title>Node12&#45;&gt;Node10</title>
<path fill="none" stroke="#9a32cd" stroke-dasharray="5,2" d="M290.46,-207.15C269.87,-191.5 238.14,-167.38 221.34,-154.62"/>
<polygon fill="#9a32cd" stroke="#9a32cd" points="288.45,-210.02 298.53,-213.28 292.68,-204.44 288.45,-210.02"/>
<text text-anchor="middle" x="308.5" y="-187" font-family="Helvetica,sans-Serif" font-size="10.00"> windowRemoved</text>
<text text-anchor="middle" x="308.5" y="-176" font-family="Helvetica,sans-Serif" font-size="10.00">windowAdded</text>
</g>
<!-- Node13 -->
<g id="node9" class="node">
<title>Node13</title>
<g id="a_node9"><a xlink:href="../../d0/dec/classnap_1_1_font_instance.html" target="_top" xlink:title="FontInstance">
<polygon fill="white" stroke="black" points="268.5,-135.5 268.5,-154.5 341.5,-154.5 341.5,-135.5 268.5,-135.5"/>
<text text-anchor="middle" x="305" y="-142.5" font-family="Helvetica,sans-Serif" font-size="10.00">FontInstance</text>
</a>
</g>
</g>
<!-- Node13&#45;&gt;Node6 -->
<g id="edge8" class="edge">
<title>Node13&#45;&gt;Node6</title>
<path fill="none" stroke="#9a32cd" stroke-dasharray="5,2" d="M297.73,-125.78C294.18,-118.79 289.29,-111.25 283,-106 272.91,-97.57 259.98,-91.68 247.71,-87.61"/>
<polygon fill="#9a32cd" stroke="#9a32cd" points="294.7,-127.58 301.99,-135.27 301.09,-124.72 294.7,-127.58"/>
<text text-anchor="middle" x="307.5" y="-109" font-family="Helvetica,sans-Serif" font-size="10.00"> mFont</text>
</g>
</g>
</svg>
