<?xml version="1.0" encoding="UTF-8" standalone="no"?>
<!DOCTYPE svg PUBLIC "-//W3C//DTD SVG 1.1//EN"
 "http://www.w3.org/Graphics/SVG/1.1/DTD/svg11.dtd">
<!-- Generated by graphviz version 2.43.0 (0)
 -->
<!-- Title: StereoPannerNode Pages: 1 -->
<svg width="242pt" height="163pt"
 viewBox="0.00 0.00 242.00 163.00" xmlns="http://www.w3.org/2000/svg" xmlns:xlink="http://www.w3.org/1999/xlink">
<g id="graph0" class="graph" transform="scale(1 1) rotate(0) translate(4 159)">
<title>StereoPannerNode</title>
<polygon fill="white" stroke="transparent" points="-4,4 -4,-159 238,-159 238,4 -4,4"/>
<!-- Node1 -->
<g id="node1" class="node">
<title>Node1</title>
<g id="a_node1"><a xlink:title=" ">
<polygon fill="#bfbfbf" stroke="black" points="54.5,-0.5 54.5,-19.5 161.5,-19.5 161.5,-0.5 54.5,-0.5"/>
<text text-anchor="middle" x="108" y="-7.5" font-family="Helvetica,sans-Serif" font-size="10.00">StereoPannerNode</text>
</a>
</g>
</g>
<!-- Node2 -->
<g id="node2" class="node">
<title>Node2</title>
<g id="a_node2"><a xlink:href="../../dc/d0d/classnap_1_1audio_1_1_node.html" target="_top" xlink:title=" ">
<polygon fill="white" stroke="black" points="11,-78.5 11,-97.5 53,-97.5 53,-78.5 11,-78.5"/>
<text text-anchor="middle" x="32" y="-85.5" font-family="Helvetica,sans-Serif" font-size="10.00">Node</text>
</a>
</g>
</g>
<!-- Node2&#45;&gt;Node1 -->
<g id="edge1" class="edge">
<title>Node2&#45;&gt;Node1</title>
<path fill="none" stroke="midnightblue" d="M48.12,-70.88C63.78,-55.22 86.96,-32.04 99.38,-19.62"/>
<polygon fill="midnightblue" stroke="midnightblue" points="45.31,-68.74 40.72,-78.28 50.26,-73.69 45.31,-68.74"/>
</g>
<!-- Node3 -->
<g id="node3" class="node">
<title>Node3</title>
<g id="a_node3"><a xlink:href="../../d4/d2d/classnap_1_1audio_1_1_process.html" target="_top" xlink:title=" ">
<polygon fill="white" stroke="black" points="0,-135.5 0,-154.5 54,-154.5 54,-135.5 0,-135.5"/>
<text text-anchor="middle" x="27" y="-142.5" font-family="Helvetica,sans-Serif" font-size="10.00">Process</text>
</a>
</g>
</g>
<!-- Node3&#45;&gt;Node2 -->
<g id="edge2" class="edge">
<title>Node3&#45;&gt;Node2</title>
<path fill="none" stroke="midnightblue" d="M28.69,-125.42C29.54,-116.05 30.53,-105.14 31.21,-97.71"/>
<polygon fill="midnightblue" stroke="midnightblue" points="25.2,-125.13 27.78,-135.41 32.17,-125.76 25.2,-125.13"/>
</g>
<!-- Node4 -->
<g id="node4" class="node">
<title>Node4</title>
<g id="a_node4"><a xlink:href="../../d4/dd5/classnap_1_1audio_1_1_input_pin.html" target="_top" xlink:title=" ">
<polygon fill="white" stroke="black" points="80,-78.5 80,-97.5 136,-97.5 136,-78.5 80,-78.5"/>
<text text-anchor="middle" x="108" y="-85.5" font-family="Helvetica,sans-Serif" font-size="10.00">InputPin</text>
</a>
</g>
</g>
<!-- Node4&#45;&gt;Node1 -->
<g id="edge3" class="edge">
<title>Node4&#45;&gt;Node1</title>
<path fill="none" stroke="#9a32cd" stroke-dasharray="5,2" d="M108,-68.22C108,-52.7 108,-31.36 108,-19.62"/>
<polygon fill="#9a32cd" stroke="#9a32cd" points="104.5,-68.28 108,-78.28 111.5,-68.28 104.5,-68.28"/>
<text text-anchor="middle" x="132" y="-52" font-family="Helvetica,sans-Serif" font-size="10.00"> leftInput</text>
<text text-anchor="middle" x="132" y="-41" font-family="Helvetica,sans-Serif" font-size="10.00">rightInput</text>
</g>
<!-- Node5 -->
<g id="node5" class="node">
<title>Node5</title>
<g id="a_node5"><a xlink:href="../../d4/dc6/classnap_1_1audio_1_1_input_pin_base.html" target="_top" xlink:title=" ">
<polygon fill="white" stroke="black" points="72,-135.5 72,-154.5 152,-154.5 152,-135.5 72,-135.5"/>
<text text-anchor="middle" x="112" y="-142.5" font-family="Helvetica,sans-Serif" font-size="10.00">InputPinBase</text>
</a>
</g>
</g>
<!-- Node5&#45;&gt;Node4 -->
<g id="edge4" class="edge">
<title>Node5&#45;&gt;Node4</title>
<path fill="none" stroke="midnightblue" d="M110.65,-125.42C109.97,-116.05 109.17,-105.14 108.63,-97.71"/>
<polygon fill="midnightblue" stroke="midnightblue" points="107.16,-125.69 111.38,-135.41 114.14,-125.18 107.16,-125.69"/>
</g>
<!-- Node6 -->
<g id="node6" class="node">
<title>Node6</title>
<g id="a_node6"><a xlink:href="../../dc/d5a/classnap_1_1audio_1_1_output_pin.html" target="_top" xlink:title=" ">
<polygon fill="white" stroke="black" points="154.5,-78.5 154.5,-97.5 219.5,-97.5 219.5,-78.5 154.5,-78.5"/>
<text text-anchor="middle" x="187" y="-85.5" font-family="Helvetica,sans-Serif" font-size="10.00">OutputPin</text>
</a>
</g>
</g>
<!-- Node6&#45;&gt;Node1 -->
<g id="edge5" class="edge">
<title>Node6&#45;&gt;Node1</title>
<path fill="none" stroke="#9a32cd" stroke-dasharray="5,2" d="M180.14,-68.93C175.61,-58.87 168.88,-46.66 160,-38 151.92,-30.12 141.07,-23.99 131.37,-19.58"/>
<polygon fill="#9a32cd" stroke="#9a32cd" points="177,-70.5 184.05,-78.4 183.47,-67.82 177,-70.5"/>
<text text-anchor="middle" x="204.5" y="-52" font-family="Helvetica,sans-Serif" font-size="10.00"> rightOutput</text>
<text text-anchor="middle" x="204.5" y="-41" font-family="Helvetica,sans-Serif" font-size="10.00">leftOutput</text>
</g>
</g>
</svg>
