<?xml version="1.0" encoding="UTF-8" standalone="no"?>
<!DOCTYPE svg PUBLIC "-//W3C//DTD SVG 1.1//EN"
 "http://www.w3.org/Graphics/SVG/1.1/DTD/svg11.dtd">
<!-- Generated by graphviz version 2.48.0 (20210717.1556)
 -->
<!-- Title: StereoPannerNode Pages: 1 -->
<svg width="225pt" height="163pt"
 viewBox="0.00 0.00 224.50 163.00" xmlns="http://www.w3.org/2000/svg" xmlns:xlink="http://www.w3.org/1999/xlink">
<g id="graph0" class="graph" transform="scale(1 1) rotate(0) translate(4 159)">
<title>StereoPannerNode</title>
<polygon fill="white" stroke="transparent" points="-4,4 -4,-159 220.5,-159 220.5,4 -4,4"/>
<!-- Node3 -->
<g id="node1" class="node">
<title>Node3</title>
<polygon fill="#bfbfbf" stroke="black" points="55.5,-0.5 55.5,-19.5 153.5,-19.5 153.5,-0.5 55.5,-0.5"/>
<text text-anchor="middle" x="104.5" y="-7.5" font-family="Helvetica,sans-Serif" font-size="10.00">StereoPannerNode</text>
</g>
<!-- Node4 -->
<g id="node2" class="node">
<title>Node4</title>
<g id="a_node2"><a xlink:href="../../dc/d0d/classnap_1_1audio_1_1_node.html" target="_top" xlink:title="Node">
<polygon fill="white" stroke="black" points="12,-78.5 12,-97.5 51,-97.5 51,-78.5 12,-78.5"/>
<text text-anchor="middle" x="31.5" y="-85.5" font-family="Helvetica,sans-Serif" font-size="10.00">Node</text>
</a>
</g>
</g>
<!-- Node4&#45;&gt;Node3 -->
<g id="edge1" class="edge">
<title>Node4&#45;&gt;Node3</title>
<path fill="none" stroke="midnightblue" d="M46.99,-70.88C62.03,-55.22 84.29,-32.04 96.22,-19.62"/>
<polygon fill="midnightblue" stroke="midnightblue" points="44.28,-68.65 39.87,-78.28 49.33,-73.49 44.28,-68.65"/>
</g>
<!-- Node5 -->
<g id="node3" class="node">
<title>Node5</title>
<g id="a_node3"><a xlink:href="../../d4/d2d/classnap_1_1audio_1_1_process.html" target="_top" xlink:title="Process">
<polygon fill="white" stroke="black" points="0,-135.5 0,-154.5 53,-154.5 53,-135.5 0,-135.5"/>
<text text-anchor="middle" x="26.5" y="-142.5" font-family="Helvetica,sans-Serif" font-size="10.00">Process</text>
</a>
</g>
</g>
<!-- Node5&#45;&gt;Node4 -->
<g id="edge2" class="edge">
<title>Node5&#45;&gt;Node4</title>
<path fill="none" stroke="midnightblue" d="M28.19,-125.42C29.04,-116.05 30.03,-105.14 30.71,-97.71"/>
<polygon fill="midnightblue" stroke="midnightblue" points="24.7,-125.13 27.28,-135.41 31.67,-125.76 24.7,-125.13"/>
</g>
<!-- Node6 -->
<g id="node4" class="node">
<title>Node6</title>
<g id="a_node4"><a xlink:href="../../d4/dd5/classnap_1_1audio_1_1_input_pin.html" target="_top" xlink:title="InputPin">
<polygon fill="white" stroke="black" points="78.5,-78.5 78.5,-97.5 130.5,-97.5 130.5,-78.5 78.5,-78.5"/>
<text text-anchor="middle" x="104.5" y="-85.5" font-family="Helvetica,sans-Serif" font-size="10.00">InputPin</text>
</a>
</g>
</g>
<!-- Node6&#45;&gt;Node3 -->
<g id="edge3" class="edge">
<title>Node6&#45;&gt;Node3</title>
<path fill="none" stroke="#9a32cd" stroke-dasharray="5,2" d="M104.5,-68.22C104.5,-52.7 104.5,-31.36 104.5,-19.62"/>
<polygon fill="#9a32cd" stroke="#9a32cd" points="101,-68.28 104.5,-78.28 108,-68.28 101,-68.28"/>
<text text-anchor="middle" x="124.5" y="-52" font-family="Helvetica,sans-Serif" font-size="10.00"> leftInput</text>
<text text-anchor="middle" x="124.5" y="-41" font-family="Helvetica,sans-Serif" font-size="10.00">rightInput</text>
</g>
<!-- Node7 -->
<g id="node5" class="node">
<title>Node7</title>
<g id="a_node5"><a xlink:href="../../d4/dc6/classnap_1_1audio_1_1_input_pin_base.html" target="_top" xlink:title="InputPinBase">
<polygon fill="white" stroke="black" points="71.5,-135.5 71.5,-154.5 145.5,-154.5 145.5,-135.5 71.5,-135.5"/>
<text text-anchor="middle" x="108.5" y="-142.5" font-family="Helvetica,sans-Serif" font-size="10.00">InputPinBase</text>
</a>
</g>
</g>
<!-- Node7&#45;&gt;Node6 -->
<g id="edge4" class="edge">
<title>Node7&#45;&gt;Node6</title>
<path fill="none" stroke="midnightblue" d="M107.15,-125.42C106.47,-116.05 105.67,-105.14 105.13,-97.71"/>
<polygon fill="midnightblue" stroke="midnightblue" points="103.66,-125.69 107.88,-135.41 110.64,-125.18 103.66,-125.69"/>
</g>
<!-- Node8 -->
<g id="node6" class="node">
<title>Node8</title>
<g id="a_node6"><a xlink:href="../../dc/d5a/classnap_1_1audio_1_1_output_pin.html" target="_top" xlink:title="OutputPin">
<polygon fill="white" stroke="black" points="148.5,-78.5 148.5,-97.5 208.5,-97.5 208.5,-78.5 148.5,-78.5"/>
<text text-anchor="middle" x="178.5" y="-85.5" font-family="Helvetica,sans-Serif" font-size="10.00">OutputPin</text>
</a>
</g>
</g>
<!-- Node8&#45;&gt;Node3 -->
<g id="edge5" class="edge">
<title>Node8&#45;&gt;Node3</title>
<path fill="none" stroke="#9a32cd" stroke-dasharray="5,2" d="M170.21,-69.16C164.96,-59.19 157.49,-47 148.5,-38 141.03,-30.52 131.09,-24.2 122.56,-19.56"/>
<polygon fill="#9a32cd" stroke="#9a32cd" points="167.1,-70.78 174.68,-78.19 173.38,-67.67 167.1,-70.78"/>
<text text-anchor="middle" x="190.5" y="-52" font-family="Helvetica,sans-Serif" font-size="10.00"> rightOutput</text>
<text text-anchor="middle" x="190.5" y="-41" font-family="Helvetica,sans-Serif" font-size="10.00">leftOutput</text>
</g>
</g>
</svg>
