<?xml version="1.0" encoding="UTF-8" standalone="no"?>
<!DOCTYPE svg PUBLIC "-//W3C//DTD SVG 1.1//EN"
 "http://www.w3.org/Graphics/SVG/1.1/DTD/svg11.dtd">
<!-- Generated by graphviz version 2.48.0 (20210717.1556)
 -->
<!-- Title: BaseMaterialInstance Pages: 1 -->
<svg width="242pt" height="140pt"
 viewBox="0.00 0.00 241.50 140.00" xmlns="http://www.w3.org/2000/svg" xmlns:xlink="http://www.w3.org/1999/xlink">
<g id="graph0" class="graph" transform="scale(1 1) rotate(0) translate(4 136)">
<title>BaseMaterialInstance</title>
<polygon fill="white" stroke="transparent" points="-4,4 -4,-136 237.5,-136 237.5,4 -4,4"/>
<!-- Node0 -->
<g id="node1" class="node">
<title>Node0</title>
<polygon fill="#bfbfbf" stroke="black" points="71.5,-56.5 71.5,-75.5 181.5,-75.5 181.5,-56.5 71.5,-56.5"/>
<text text-anchor="middle" x="126.5" y="-63.5" font-family="Helvetica,sans-Serif" font-size="10.00">BaseMaterialInstance</text>
</g>
<!-- Node2 -->
<g id="node3" class="node">
<title>Node2</title>
<g id="a_node3"><a xlink:href="../../db/db6/classnap_1_1_compute_material_instance.html" target="_top" xlink:title="ComputeMaterialInstance">
<polygon fill="white" stroke="black" points="0,-0.5 0,-19.5 127,-19.5 127,-0.5 0,-0.5"/>
<text text-anchor="middle" x="63.5" y="-7.5" font-family="Helvetica,sans-Serif" font-size="10.00">ComputeMaterialInstance</text>
</a>
</g>
</g>
<!-- Node0&#45;&gt;Node2 -->
<g id="edge2" class="edge">
<title>Node0&#45;&gt;Node2</title>
<path fill="none" stroke="midnightblue" d="M108.46,-49.54C97.23,-39.91 83.18,-27.87 73.81,-19.83"/>
<polygon fill="midnightblue" stroke="midnightblue" points="106.51,-52.47 116.38,-56.32 111.06,-47.16 106.51,-52.47"/>
</g>
<!-- Node3 -->
<g id="node4" class="node">
<title>Node3</title>
<g id="a_node4"><a xlink:href="../../d0/daa/classnap_1_1_material_instance.html" target="_top" xlink:title="MaterialInstance">
<polygon fill="white" stroke="black" points="145.5,-0.5 145.5,-19.5 233.5,-19.5 233.5,-0.5 145.5,-0.5"/>
<text text-anchor="middle" x="189.5" y="-7.5" font-family="Helvetica,sans-Serif" font-size="10.00">MaterialInstance</text>
</a>
</g>
</g>
<!-- Node0&#45;&gt;Node3 -->
<g id="edge3" class="edge">
<title>Node0&#45;&gt;Node3</title>
<path fill="none" stroke="midnightblue" d="M144.54,-49.54C155.77,-39.91 169.82,-27.87 179.19,-19.83"/>
<polygon fill="midnightblue" stroke="midnightblue" points="141.94,-47.16 136.62,-56.32 146.49,-52.47 141.94,-47.16"/>
</g>
<!-- Node1 -->
<g id="node2" class="node">
<title>Node1</title>
<g id="a_node2"><a xlink:href="../../d5/d6c/classnap_1_1_uniform_container.html" target="_top" xlink:title="UniformContainer">
<polygon fill="white" stroke="black" points="81,-112.5 81,-131.5 172,-131.5 172,-112.5 81,-112.5"/>
<text text-anchor="middle" x="126.5" y="-119.5" font-family="Helvetica,sans-Serif" font-size="10.00">UniformContainer</text>
</a>
</g>
</g>
<!-- Node1&#45;&gt;Node0 -->
<g id="edge1" class="edge">
<title>Node1&#45;&gt;Node0</title>
<path fill="none" stroke="midnightblue" d="M126.5,-101.8C126.5,-92.91 126.5,-82.78 126.5,-75.75"/>
<polygon fill="midnightblue" stroke="midnightblue" points="123,-102.08 126.5,-112.08 130,-102.08 123,-102.08"/>
</g>
</g>
</svg>
