<?xml version="1.0" encoding="UTF-8" standalone="no"?>
<!DOCTYPE svg PUBLIC "-//W3C//DTD SVG 1.1//EN"
 "http://www.w3.org/Graphics/SVG/1.1/DTD/svg11.dtd">
<!-- Generated by graphviz version 2.48.0 (20210717.1556)
 -->
<!-- Title: TweenHandle&lt; T &gt; Pages: 1 -->
<svg width="177pt" height="219pt"
 viewBox="0.00 0.00 177.00 219.00" xmlns="http://www.w3.org/2000/svg" xmlns:xlink="http://www.w3.org/1999/xlink">
<g id="graph0" class="graph" transform="scale(1 1) rotate(0) translate(4 215)">
<title>TweenHandle&lt; T &gt;</title>
<polygon fill="white" stroke="transparent" points="-4,4 -4,-215 173,-215 173,4 -4,4"/>
<!-- Node2 -->
<g id="node1" class="node">
<title>Node2</title>
<polygon fill="#bfbfbf" stroke="black" points="36,-0.5 36,-19.5 134,-19.5 134,-0.5 36,-0.5"/>
<text text-anchor="middle" x="85" y="-7.5" font-family="Helvetica,sans-Serif" font-size="10.00">TweenHandle&lt; T &gt;</text>
</g>
<!-- Node3 -->
<g id="node2" class="node">
<title>Node3</title>
<g id="a_node2"><a xlink:href="../../d0/dc0/classnap_1_1_tween_handle_base.html" target="_top" xlink:title="TweenHandleBase">
<polygon fill="white" stroke="black" points="36.5,-57.5 36.5,-76.5 133.5,-76.5 133.5,-57.5 36.5,-57.5"/>
<text text-anchor="middle" x="85" y="-64.5" font-family="Helvetica,sans-Serif" font-size="10.00">TweenHandleBase</text>
</a>
</g>
</g>
<!-- Node3&#45;&gt;Node2 -->
<g id="edge1" class="edge">
<title>Node3&#45;&gt;Node2</title>
<path fill="none" stroke="midnightblue" d="M85,-47.12C85,-37.82 85,-27.06 85,-19.71"/>
<polygon fill="midnightblue" stroke="midnightblue" points="81.5,-47.41 85,-57.41 88.5,-47.41 81.5,-47.41"/>
</g>
<!-- Node4 -->
<g id="node3" class="node">
<title>Node4</title>
<g id="a_node3"><a xlink:href="../../d9/d00/classnap_1_1_tween_base.html" target="_top" xlink:title="TweenBase">
<polygon fill="white" stroke="black" points="7.5,-124.5 7.5,-143.5 74.5,-143.5 74.5,-124.5 7.5,-124.5"/>
<text text-anchor="middle" x="41" y="-131.5" font-family="Helvetica,sans-Serif" font-size="10.00">TweenBase</text>
</a>
</g>
</g>
<!-- Node4&#45;&gt;Node3 -->
<g id="edge2" class="edge">
<title>Node4&#45;&gt;Node3</title>
<path fill="none" stroke="#9a32cd" stroke-dasharray="5,2" d="M39.84,-114.19C40.23,-107.72 41.59,-100.68 45,-95 49.75,-87.1 57.8,-81 65.44,-76.62"/>
<polygon fill="#9a32cd" stroke="#9a32cd" points="36.34,-114.22 39.91,-124.2 43.34,-114.17 36.34,-114.22"/>
<text text-anchor="middle" x="76" y="-98" font-family="Helvetica,sans-Serif" font-size="10.00"> mTweenBase</text>
</g>
<!-- Node5 -->
<g id="node4" class="node">
<title>Node5</title>
<g id="a_node4"><a xlink:href="../../de/d80/classnap_1_1_signal.html" target="_top" xlink:title="Signal\&lt; Args \&gt;">
<polygon fill="white" stroke="black" points="0,-191.5 0,-210.5 82,-210.5 82,-191.5 0,-191.5"/>
<text text-anchor="middle" x="41" y="-198.5" font-family="Helvetica,sans-Serif" font-size="10.00">Signal&lt; Args &gt;</text>
</a>
</g>
</g>
<!-- Node5&#45;&gt;Node4 -->
<g id="edge3" class="edge">
<title>Node5&#45;&gt;Node4</title>
<path fill="none" stroke="#9a32cd" stroke-dasharray="5,2" d="M41,-181.04C41,-168.67 41,-153.12 41,-143.63"/>
<polygon fill="#9a32cd" stroke="#9a32cd" points="37.5,-181.23 41,-191.23 44.5,-181.23 37.5,-181.23"/>
<text text-anchor="middle" x="68.5" y="-165" font-family="Helvetica,sans-Serif" font-size="10.00"> KilledSignal</text>
</g>
<!-- Node6 -->
<g id="node5" class="node">
<title>Node6</title>
<g id="a_node5"><a xlink:href="../../d7/d05/classnap_1_1_tween_service.html" target="_top" xlink:title="TweenService">
<polygon fill="white" stroke="black" points="93,-124.5 93,-143.5 169,-143.5 169,-124.5 93,-124.5"/>
<text text-anchor="middle" x="131" y="-131.5" font-family="Helvetica,sans-Serif" font-size="10.00">TweenService</text>
</a>
</g>
</g>
<!-- Node6&#45;&gt;Node3 -->
<g id="edge4" class="edge">
<title>Node6&#45;&gt;Node3</title>
<path fill="none" stroke="#9a32cd" stroke-dasharray="5,2" d="M120.61,-115.59C116.54,-109.02 111.71,-101.55 107,-95 102.48,-88.72 96.98,-81.97 92.61,-76.79"/>
<polygon fill="#9a32cd" stroke="#9a32cd" points="117.76,-117.63 125.95,-124.36 123.74,-113.99 117.76,-117.63"/>
<text text-anchor="middle" x="135.5" y="-98" font-family="Helvetica,sans-Serif" font-size="10.00"> mService</text>
</g>
<!-- Node7 -->
<g id="node6" class="node">
<title>Node7</title>
<g id="a_node6"><a xlink:href="../../d8/d8e/classnap_1_1_service.html" target="_top" xlink:title="Service">
<polygon fill="white" stroke="black" points="107,-191.5 107,-210.5 155,-210.5 155,-191.5 107,-191.5"/>
<text text-anchor="middle" x="131" y="-198.5" font-family="Helvetica,sans-Serif" font-size="10.00">Service</text>
</a>
</g>
</g>
<!-- Node7&#45;&gt;Node6 -->
<g id="edge5" class="edge">
<title>Node7&#45;&gt;Node6</title>
<path fill="none" stroke="midnightblue" d="M131,-181.04C131,-168.67 131,-153.12 131,-143.63"/>
<polygon fill="midnightblue" stroke="midnightblue" points="127.5,-181.23 131,-191.23 134.5,-181.23 127.5,-181.23"/>
</g>
</g>
</svg>
