<?xml version="1.0" encoding="UTF-8" standalone="no"?>
<!DOCTYPE svg PUBLIC "-//W3C//DTD SVG 1.1//EN"
 "http://www.w3.org/Graphics/SVG/1.1/DTD/svg11.dtd">
<!-- Generated by graphviz version 2.43.0 (0)
 -->
<!-- Title: TweenHandle&lt; T &gt; Pages: 1 -->
<svg width="190pt" height="219pt"
 viewBox="0.00 0.00 190.00 219.00" xmlns="http://www.w3.org/2000/svg" xmlns:xlink="http://www.w3.org/1999/xlink">
<g id="graph0" class="graph" transform="scale(1 1) rotate(0) translate(4 215)">
<title>TweenHandle&lt; T &gt;</title>
<polygon fill="white" stroke="transparent" points="-4,4 -4,-215 186,-215 186,4 -4,4"/>
<!-- Node1 -->
<g id="node1" class="node">
<title>Node1</title>
<g id="a_node1"><a xlink:title=" ">
<polygon fill="#bfbfbf" stroke="black" points="37.5,-0.5 37.5,-19.5 147.5,-19.5 147.5,-0.5 37.5,-0.5"/>
<text text-anchor="middle" x="92.5" y="-7.5" font-family="Helvetica,sans-Serif" font-size="10.00">TweenHandle&lt; T &gt;</text>
</a>
</g>
</g>
<!-- Node2 -->
<g id="node2" class="node">
<title>Node2</title>
<g id="a_node2"><a xlink:href="../../d0/dc0/classnap_1_1_tween_handle_base.html" target="_top" xlink:title=" ">
<polygon fill="white" stroke="black" points="39.5,-57.5 39.5,-76.5 145.5,-76.5 145.5,-57.5 39.5,-57.5"/>
<text text-anchor="middle" x="92.5" y="-64.5" font-family="Helvetica,sans-Serif" font-size="10.00">TweenHandleBase</text>
</a>
</g>
</g>
<!-- Node2&#45;&gt;Node1 -->
<g id="edge1" class="edge">
<title>Node2&#45;&gt;Node1</title>
<path fill="none" stroke="midnightblue" d="M92.5,-47.12C92.5,-37.82 92.5,-27.06 92.5,-19.71"/>
<polygon fill="midnightblue" stroke="midnightblue" points="89,-47.41 92.5,-57.41 96,-47.41 89,-47.41"/>
</g>
<!-- Node3 -->
<g id="node3" class="node">
<title>Node3</title>
<g id="a_node3"><a xlink:href="../../d9/d00/classnap_1_1_tween_base.html" target="_top" xlink:title=" ">
<polygon fill="white" stroke="black" points="10,-124.5 10,-143.5 81,-143.5 81,-124.5 10,-124.5"/>
<text text-anchor="middle" x="45.5" y="-131.5" font-family="Helvetica,sans-Serif" font-size="10.00">TweenBase</text>
</a>
</g>
</g>
<!-- Node3&#45;&gt;Node2 -->
<g id="edge2" class="edge">
<title>Node3&#45;&gt;Node2</title>
<path fill="none" stroke="#9a32cd" stroke-dasharray="5,2" d="M44.22,-114.37C44.58,-107.83 45.95,-100.7 49.5,-95 54.54,-86.92 62.98,-80.85 71.05,-76.54"/>
<polygon fill="#9a32cd" stroke="#9a32cd" points="40.72,-114.52 44.37,-124.47 47.72,-114.42 40.72,-114.52"/>
<text text-anchor="middle" x="83.5" y="-98" font-family="Helvetica,sans-Serif" font-size="10.00"> mTweenBase</text>
</g>
<!-- Node4 -->
<g id="node4" class="node">
<title>Node4</title>
<g id="a_node4"><a xlink:href="../../de/d80/classnap_1_1_signal.html" target="_top" xlink:title=" ">
<polygon fill="white" stroke="black" points="0,-191.5 0,-210.5 91,-210.5 91,-191.5 0,-191.5"/>
<text text-anchor="middle" x="45.5" y="-198.5" font-family="Helvetica,sans-Serif" font-size="10.00">Signal&lt; Args &gt;</text>
</a>
</g>
</g>
<!-- Node4&#45;&gt;Node3 -->
<g id="edge3" class="edge">
<title>Node4&#45;&gt;Node3</title>
<path fill="none" stroke="#9a32cd" stroke-dasharray="5,2" d="M45.5,-181.04C45.5,-168.67 45.5,-153.12 45.5,-143.63"/>
<polygon fill="#9a32cd" stroke="#9a32cd" points="42,-181.23 45.5,-191.23 49,-181.23 42,-181.23"/>
<text text-anchor="middle" x="76" y="-165" font-family="Helvetica,sans-Serif" font-size="10.00"> KilledSignal</text>
</g>
<!-- Node5 -->
<g id="node5" class="node">
<title>Node5</title>
<g id="a_node5"><a xlink:href="../../d7/d05/classnap_1_1_tween_service.html" target="_top" xlink:title=" ">
<polygon fill="white" stroke="black" points="99,-124.5 99,-143.5 182,-143.5 182,-124.5 99,-124.5"/>
<text text-anchor="middle" x="140.5" y="-131.5" font-family="Helvetica,sans-Serif" font-size="10.00">TweenService</text>
</a>
</g>
</g>
<!-- Node5&#45;&gt;Node2 -->
<g id="edge4" class="edge">
<title>Node5&#45;&gt;Node2</title>
<path fill="none" stroke="#9a32cd" stroke-dasharray="5,2" d="M130.85,-115.39C126.98,-108.8 122.3,-101.37 117.5,-95 112.58,-88.47 106.33,-81.72 101.31,-76.6"/>
<polygon fill="#9a32cd" stroke="#9a32cd" points="127.88,-117.26 135.86,-124.23 133.97,-113.8 127.88,-117.26"/>
<text text-anchor="middle" x="148" y="-98" font-family="Helvetica,sans-Serif" font-size="10.00"> mService</text>
</g>
<!-- Node6 -->
<g id="node6" class="node">
<title>Node6</title>
<g id="a_node6"><a xlink:href="../../d8/d8e/classnap_1_1_service.html" target="_top" xlink:title=" ">
<polygon fill="white" stroke="black" points="114,-191.5 114,-210.5 167,-210.5 167,-191.5 114,-191.5"/>
<text text-anchor="middle" x="140.5" y="-198.5" font-family="Helvetica,sans-Serif" font-size="10.00">Service</text>
</a>
</g>
</g>
<!-- Node6&#45;&gt;Node5 -->
<g id="edge5" class="edge">
<title>Node6&#45;&gt;Node5</title>
<path fill="none" stroke="midnightblue" d="M140.5,-181.04C140.5,-168.67 140.5,-153.12 140.5,-143.63"/>
<polygon fill="midnightblue" stroke="midnightblue" points="137,-181.23 140.5,-191.23 144,-181.23 137,-181.23"/>
</g>
</g>
</svg>
