<?xml version="1.0" encoding="UTF-8" standalone="no"?>
<!DOCTYPE svg PUBLIC "-//W3C//DTD SVG 1.1//EN"
 "http://www.w3.org/Graphics/SVG/1.1/DTD/svg11.dtd">
<!-- Generated by graphviz version 2.48.0 (20210717.1556)
 -->
<!-- Title: UnresolvedPointer Pages: 1 -->
<svg width="131pt" height="95pt"
 viewBox="0.00 0.00 130.50 95.00" xmlns="http://www.w3.org/2000/svg" xmlns:xlink="http://www.w3.org/1999/xlink">
<g id="graph0" class="graph" transform="scale(1 1) rotate(0) translate(4 91)">
<title>UnresolvedPointer</title>
<polygon fill="white" stroke="transparent" points="-4,4 -4,-91 126.5,-91 126.5,4 -4,4"/>
<!-- Node1 -->
<g id="node1" class="node">
<title>Node1</title>
<polygon fill="#bfbfbf" stroke="black" points="6,-0.5 6,-19.5 101,-19.5 101,-0.5 6,-0.5"/>
<text text-anchor="middle" x="53.5" y="-7.5" font-family="Helvetica,sans-Serif" font-size="10.00">UnresolvedPointer</text>
</g>
<!-- Node2 -->
<g id="node2" class="node">
<title>Node2</title>
<g id="a_node2"><a xlink:href="../../de/d01/classnap_1_1rtti_1_1_object.html" target="_top" xlink:title="Object">
<polygon fill="white" stroke="black" points="0,-67.5 0,-86.5 45,-86.5 45,-67.5 0,-67.5"/>
<text text-anchor="middle" x="22.5" y="-74.5" font-family="Helvetica,sans-Serif" font-size="10.00">Object</text>
</a>
</g>
</g>
<!-- Node2&#45;&gt;Node1 -->
<g id="edge1" class="edge">
<title>Node2&#45;&gt;Node1</title>
<path fill="none" stroke="#9a32cd" stroke-dasharray="5,2" d="M20.08,-57.06C20.02,-50.75 20.81,-43.84 23.5,-38 26.96,-30.49 33.61,-24.17 39.76,-19.53"/>
<polygon fill="#9a32cd" stroke="#9a32cd" points="16.62,-57.71 20.86,-67.41 23.6,-57.18 16.62,-57.71"/>
<text text-anchor="middle" x="43.5" y="-41" font-family="Helvetica,sans-Serif" font-size="10.00"> mObject</text>
</g>
<!-- Node3 -->
<g id="node3" class="node">
<title>Node3</title>
<g id="a_node3"><a xlink:href="../../d5/d81/classnap_1_1rtti_1_1_path.html" target="_top" xlink:title="Path">
<polygon fill="white" stroke="black" points="67,-67.5 67,-86.5 104,-86.5 104,-67.5 67,-67.5"/>
<text text-anchor="middle" x="85.5" y="-74.5" font-family="Helvetica,sans-Serif" font-size="10.00">Path</text>
</a>
</g>
</g>
<!-- Node3&#45;&gt;Node1 -->
<g id="edge2" class="edge">
<title>Node3&#45;&gt;Node1</title>
<path fill="none" stroke="#9a32cd" stroke-dasharray="5,2" d="M76.72,-58.16C70.55,-45.63 62.56,-29.41 57.75,-19.63"/>
<polygon fill="#9a32cd" stroke="#9a32cd" points="73.63,-59.81 81.18,-67.23 79.91,-56.72 73.63,-59.81"/>
<text text-anchor="middle" x="96.5" y="-41" font-family="Helvetica,sans-Serif" font-size="10.00"> mRTTIPath</text>
</g>
</g>
</svg>
