<?xml version="1.0" encoding="UTF-8" standalone="no"?>
<!DOCTYPE svg PUBLIC "-//W3C//DTD SVG 1.1//EN"
 "http://www.w3.org/Graphics/SVG/1.1/DTD/svg11.dtd">
<!-- Generated by graphviz version 2.43.0 (0)
 -->
<!-- Title: Renderable2DMipMapGlyph Pages: 1 -->
<svg width="161pt" height="209pt"
 viewBox="0.00 0.00 161.00 209.00" xmlns="http://www.w3.org/2000/svg" xmlns:xlink="http://www.w3.org/1999/xlink">
<g id="graph0" class="graph" transform="scale(1 1) rotate(0) translate(4 205)">
<title>Renderable2DMipMapGlyph</title>
<polygon fill="white" stroke="transparent" points="-4,4 -4,-205 157,-205 157,4 -4,4"/>
<!-- Node1 -->
<g id="node1" class="node">
<title>Node1</title>
<g id="a_node1"><a xlink:title=" ">
<polygon fill="#bfbfbf" stroke="black" points="0,-0.5 0,-19.5 153,-19.5 153,-0.5 0,-0.5"/>
<text text-anchor="middle" x="76.5" y="-7.5" font-family="Helvetica,sans-Serif" font-size="10.00">Renderable2DMipMapGlyph</text>
</a>
</g>
</g>
<!-- Node2 -->
<g id="node2" class="node">
<title>Node2</title>
<g id="a_node2"><a xlink:href="../../d7/d92/classnap_1_1_renderable_glyph.html" target="_top" xlink:title=" ">
<polygon fill="white" stroke="black" points="26,-57.5 26,-76.5 127,-76.5 127,-57.5 26,-57.5"/>
<text text-anchor="middle" x="76.5" y="-64.5" font-family="Helvetica,sans-Serif" font-size="10.00">RenderableGlyph</text>
</a>
</g>
</g>
<!-- Node2&#45;&gt;Node1 -->
<g id="edge1" class="edge">
<title>Node2&#45;&gt;Node1</title>
<path fill="none" stroke="midnightblue" d="M76.5,-47.12C76.5,-37.82 76.5,-27.06 76.5,-19.71"/>
<polygon fill="midnightblue" stroke="midnightblue" points="73,-47.41 76.5,-57.41 80,-47.41 73,-47.41"/>
</g>
<!-- Node3 -->
<g id="node3" class="node">
<title>Node3</title>
<g id="a_node3"><a xlink:href="../../d8/dd9/classnap_1_1_i_glyph_representation.html" target="_top" xlink:title=" ">
<polygon fill="white" stroke="black" points="15.5,-114.5 15.5,-133.5 137.5,-133.5 137.5,-114.5 15.5,-114.5"/>
<text text-anchor="middle" x="76.5" y="-121.5" font-family="Helvetica,sans-Serif" font-size="10.00">IGlyphRepresentation</text>
</a>
</g>
</g>
<!-- Node3&#45;&gt;Node2 -->
<g id="edge2" class="edge">
<title>Node3&#45;&gt;Node2</title>
<path fill="none" stroke="midnightblue" d="M76.5,-104.12C76.5,-94.82 76.5,-84.06 76.5,-76.71"/>
<polygon fill="midnightblue" stroke="midnightblue" points="73,-104.41 76.5,-114.41 80,-104.41 73,-104.41"/>
</g>
<!-- Node4 -->
<g id="node4" class="node">
<title>Node4</title>
<g id="a_node4"><a xlink:href="../../d0/dfd/classnap_1_1_core.html" target="_top" xlink:title=" ">
<polygon fill="white" stroke="black" points="57,-181.5 57,-200.5 96,-200.5 96,-181.5 57,-181.5"/>
<text text-anchor="middle" x="76.5" y="-188.5" font-family="Helvetica,sans-Serif" font-size="10.00">Core</text>
</a>
</g>
</g>
<!-- Node4&#45;&gt;Node3 -->
<g id="edge3" class="edge">
<title>Node4&#45;&gt;Node3</title>
<path fill="none" stroke="#9a32cd" stroke-dasharray="5,2" d="M76.5,-171.04C76.5,-158.67 76.5,-143.12 76.5,-133.63"/>
<polygon fill="#9a32cd" stroke="#9a32cd" points="73,-171.23 76.5,-181.23 80,-171.23 73,-171.23"/>
<text text-anchor="middle" x="94.5" y="-155" font-family="Helvetica,sans-Serif" font-size="10.00"> mCore</text>
</g>
</g>
</svg>
