<?xml version="1.0" encoding="UTF-8" standalone="no"?>
<!DOCTYPE svg PUBLIC "-//W3C//DTD SVG 1.1//EN"
 "http://www.w3.org/Graphics/SVG/1.1/DTD/svg11.dtd">
<!-- Generated by graphviz version 2.48.0 (20210717.1556)
 -->
<!-- Title: ReadState Pages: 1 -->
<svg width="261pt" height="95pt"
 viewBox="0.00 0.00 261.00 95.00" xmlns="http://www.w3.org/2000/svg" xmlns:xlink="http://www.w3.org/1999/xlink">
<g id="graph0" class="graph" transform="scale(1 1) rotate(0) translate(4 91)">
<title>ReadState</title>
<polygon fill="white" stroke="transparent" points="-4,4 -4,-91 257,-91 257,4 -4,4"/>
<!-- Node1 -->
<g id="node1" class="node">
<title>Node1</title>
<polygon fill="#bfbfbf" stroke="black" points="83,-0.5 83,-19.5 145,-19.5 145,-0.5 83,-0.5"/>
<text text-anchor="middle" x="114" y="-7.5" font-family="Helvetica,sans-Serif" font-size="10.00">ReadState</text>
</g>
<!-- Node2 -->
<g id="node2" class="node">
<title>Node2</title>
<g id="a_node2"><a xlink:href="../../d3/dcd/classnap_1_1rtti_1_1_factory.html" target="_top" xlink:title="Factory">
<polygon fill="white" stroke="black" points="0,-67.5 0,-86.5 50,-86.5 50,-67.5 0,-67.5"/>
<text text-anchor="middle" x="25" y="-74.5" font-family="Helvetica,sans-Serif" font-size="10.00">Factory</text>
</a>
</g>
</g>
<!-- Node2&#45;&gt;Node1 -->
<g id="edge1" class="edge">
<title>Node2&#45;&gt;Node1</title>
<path fill="none" stroke="#9a32cd" stroke-dasharray="5,2" d="M39.75,-60.23C46.97,-52.98 56.03,-44.56 65,-38 74.56,-31 86.14,-24.54 95.64,-19.7"/>
<polygon fill="#9a32cd" stroke="#9a32cd" points="37.17,-57.87 32.73,-67.49 42.2,-62.74 37.17,-57.87"/>
<text text-anchor="middle" x="87.5" y="-41" font-family="Helvetica,sans-Serif" font-size="10.00"> mFactory</text>
</g>
<!-- Node3 -->
<g id="node3" class="node">
<title>Node3</title>
<g id="a_node3"><a xlink:href="../../d5/ddd/structnap_1_1rtti_1_1_deserialize_result.html" target="_top" xlink:title="DeserializeResult">
<polygon fill="white" stroke="black" points="68,-67.5 68,-86.5 160,-86.5 160,-67.5 68,-67.5"/>
<text text-anchor="middle" x="114" y="-74.5" font-family="Helvetica,sans-Serif" font-size="10.00">DeserializeResult</text>
</a>
</g>
</g>
<!-- Node3&#45;&gt;Node1 -->
<g id="edge2" class="edge">
<title>Node3&#45;&gt;Node1</title>
<path fill="none" stroke="#9a32cd" stroke-dasharray="5,2" d="M114,-57.04C114,-44.67 114,-29.12 114,-19.63"/>
<polygon fill="#9a32cd" stroke="#9a32cd" points="110.5,-57.23 114,-67.23 117.5,-57.23 110.5,-57.23"/>
<text text-anchor="middle" x="134" y="-41" font-family="Helvetica,sans-Serif" font-size="10.00"> mResult</text>
</g>
<!-- Node4 -->
<g id="node4" class="node">
<title>Node4</title>
<g id="a_node4"><a xlink:href="../../d5/d81/classnap_1_1rtti_1_1_path.html" target="_top" xlink:title="Path">
<polygon fill="white" stroke="black" points="178.5,-67.5 178.5,-86.5 215.5,-86.5 215.5,-67.5 178.5,-67.5"/>
<text text-anchor="middle" x="197" y="-74.5" font-family="Helvetica,sans-Serif" font-size="10.00">Path</text>
</a>
</g>
</g>
<!-- Node4&#45;&gt;Node1 -->
<g id="edge3" class="edge">
<title>Node4&#45;&gt;Node1</title>
<path fill="none" stroke="#9a32cd" stroke-dasharray="5,2" d="M181.82,-59.65C174.88,-52.61 166.36,-44.51 158,-38 149.23,-31.17 138.63,-24.63 130.04,-19.69"/>
<polygon fill="#9a32cd" stroke="#9a32cd" points="179.68,-62.48 189.12,-67.28 184.73,-57.64 179.68,-62.48"/>
<text text-anchor="middle" x="211.5" y="-41" font-family="Helvetica,sans-Serif" font-size="10.00"> mCurrentRTTIPath</text>
</g>
</g>
</svg>
