<?xml version="1.0" encoding="UTF-8" standalone="no"?>
<!DOCTYPE svg PUBLIC "-//W3C//DTD SVG 1.1//EN"
 "http://www.w3.org/Graphics/SVG/1.1/DTD/svg11.dtd">
<!-- Generated by graphviz version 2.48.0 (20210717.1556)
 -->
<!-- Title: ShaderStorageBufferObject Pages: 1 -->
<svg width="473pt" height="307pt"
 viewBox="0.00 0.00 472.50 307.00" xmlns="http://www.w3.org/2000/svg" xmlns:xlink="http://www.w3.org/1999/xlink">
<g id="graph0" class="graph" transform="scale(1 1) rotate(0) translate(4 303)">
<title>ShaderStorageBufferObject</title>
<polygon fill="white" stroke="transparent" points="-4,4 -4,-303 468.5,-303 468.5,4 -4,4"/>
<!-- Node1 -->
<g id="node1" class="node">
<title>Node1</title>
<polygon fill="#bfbfbf" stroke="black" points="128,-0.5 128,-19.5 262,-19.5 262,-0.5 128,-0.5"/>
<text text-anchor="middle" x="195" y="-7.5" font-family="Helvetica,sans-Serif" font-size="10.00">ShaderStorageBufferObject</text>
</g>
<!-- Node2 -->
<g id="node2" class="node">
<title>Node2</title>
<g id="a_node2"><a xlink:href="../../dd/d6b/classnap_1_1_buffer_object_declaration.html" target="_top" xlink:title="BufferObjectDeclaration">
<polygon fill="white" stroke="black" points="69.5,-67.5 69.5,-86.5 188.5,-86.5 188.5,-67.5 69.5,-67.5"/>
<text text-anchor="middle" x="129" y="-74.5" font-family="Helvetica,sans-Serif" font-size="10.00">BufferObjectDeclaration</text>
</a>
</g>
</g>
<!-- Node2&#45;&gt;Node1 -->
<g id="edge1" class="edge">
<title>Node2&#45;&gt;Node1</title>
<path fill="none" stroke="#9a32cd" stroke-dasharray="5,2" d="M144.98,-59.9C151.74,-53.11 159.73,-45.14 167,-38 173.17,-31.94 180.17,-25.19 185.63,-19.96"/>
<polygon fill="#9a32cd" stroke="#9a32cd" points="142.28,-57.64 137.71,-67.2 147.24,-62.58 142.28,-57.64"/>
<text text-anchor="middle" x="197.5" y="-41" font-family="Helvetica,sans-Serif" font-size="10.00"> mDeclaration</text>
</g>
<!-- Node3 -->
<g id="node3" class="node">
<title>Node3</title>
<g id="a_node3"><a xlink:href="../../d1/d7d/classnap_1_1_shader_variable_struct_declaration.html" target="_top" xlink:title="ShaderVariableStructDeclaration">
<polygon fill="white" stroke="black" points="0,-134.5 0,-153.5 158,-153.5 158,-134.5 0,-134.5"/>
<text text-anchor="middle" x="79" y="-141.5" font-family="Helvetica,sans-Serif" font-size="10.00">ShaderVariableStructDeclaration</text>
</a>
</g>
</g>
<!-- Node3&#45;&gt;Node2 -->
<g id="edge2" class="edge">
<title>Node3&#45;&gt;Node2</title>
<path fill="none" stroke="midnightblue" d="M91.87,-126.27C101.62,-113.6 114.61,-96.7 122.36,-86.63"/>
<polygon fill="midnightblue" stroke="midnightblue" points="89.07,-124.17 85.74,-134.23 94.61,-128.44 89.07,-124.17"/>
</g>
<!-- Node4 -->
<g id="node4" class="node">
<title>Node4</title>
<g id="a_node4"><a xlink:href="../../dc/d72/classnap_1_1_shader_variable_declaration.html" target="_top" xlink:title="ShaderVariableDeclaration">
<polygon fill="white" stroke="black" points="12.5,-201.5 12.5,-220.5 143.5,-220.5 143.5,-201.5 12.5,-201.5"/>
<text text-anchor="middle" x="78" y="-208.5" font-family="Helvetica,sans-Serif" font-size="10.00">ShaderVariableDeclaration</text>
</a>
</g>
</g>
<!-- Node4&#45;&gt;Node3 -->
<g id="edge3" class="edge">
<title>Node4&#45;&gt;Node3</title>
<path fill="none" stroke="midnightblue" d="M78.29,-191.04C78.48,-178.67 78.72,-163.12 78.87,-153.63"/>
<polygon fill="midnightblue" stroke="midnightblue" points="74.79,-191.18 78.13,-201.23 81.79,-191.29 74.79,-191.18"/>
</g>
<!-- Node5 -->
<g id="node5" class="node">
<title>Node5</title>
<g id="a_node5"><a xlink:href="../../da/d5c/classnap_1_1_buffer_binding_instance.html" target="_top" xlink:title="BufferBindingInstance">
<polygon fill="white" stroke="black" points="209,-67.5 209,-86.5 319,-86.5 319,-67.5 209,-67.5"/>
<text text-anchor="middle" x="264" y="-74.5" font-family="Helvetica,sans-Serif" font-size="10.00">BufferBindingInstance</text>
</a>
</g>
</g>
<!-- Node5&#45;&gt;Node1 -->
<g id="edge4" class="edge">
<title>Node5&#45;&gt;Node1</title>
<path fill="none" stroke="#9a32cd" stroke-dasharray="5,2" d="M249.49,-59.79C243.09,-52.88 235.37,-44.85 228,-38 221.06,-31.55 212.81,-24.8 206.3,-19.66"/>
<polygon fill="#9a32cd" stroke="#9a32cd" points="246.97,-62.22 256.29,-67.25 252.14,-57.5 246.97,-62.22"/>
<text text-anchor="middle" x="273.5" y="-41" font-family="Helvetica,sans-Serif" font-size="10.00"> mBufferBinding</text>
</g>
<!-- Node6 -->
<g id="node6" class="node">
<title>Node6</title>
<g id="a_node6"><a xlink:href="../../dd/df4/classnap_1_1_g_p_u_buffer.html" target="_top" xlink:title="GPUBuffer">
<polygon fill="white" stroke="black" points="238,-134.5 238,-153.5 300,-153.5 300,-134.5 238,-134.5"/>
<text text-anchor="middle" x="269" y="-141.5" font-family="Helvetica,sans-Serif" font-size="10.00">GPUBuffer</text>
</a>
</g>
</g>
<!-- Node6&#45;&gt;Node5 -->
<g id="edge5" class="edge">
<title>Node6&#45;&gt;Node5</title>
<path fill="none" stroke="#9a32cd" stroke-dasharray="5,2" d="M267.54,-124.04C266.59,-111.67 265.39,-96.12 264.66,-86.63"/>
<polygon fill="#9a32cd" stroke="#9a32cd" points="264.07,-124.53 268.33,-134.23 271.05,-123.99 264.07,-124.53"/>
<text text-anchor="middle" x="285.5" y="-108" font-family="Helvetica,sans-Serif" font-size="10.00"> mBuffer</text>
</g>
<!-- Node7 -->
<g id="node7" class="node">
<title>Node7</title>
<g id="a_node7"><a xlink:href="../../d9/dea/classnap_1_1_resource.html" target="_top" xlink:title="Resource">
<polygon fill="white" stroke="black" points="162,-201.5 162,-220.5 220,-220.5 220,-201.5 162,-201.5"/>
<text text-anchor="middle" x="191" y="-208.5" font-family="Helvetica,sans-Serif" font-size="10.00">Resource</text>
</a>
</g>
</g>
<!-- Node7&#45;&gt;Node6 -->
<g id="edge6" class="edge">
<title>Node7&#45;&gt;Node6</title>
<path fill="none" stroke="midnightblue" d="M209.34,-194.71C224.71,-181.91 246.09,-164.09 258.65,-153.63"/>
<polygon fill="midnightblue" stroke="midnightblue" points="206.96,-192.14 201.52,-201.23 211.44,-197.52 206.96,-192.14"/>
</g>
<!-- Node8 -->
<g id="node8" class="node">
<title>Node8</title>
<g id="a_node8"><a xlink:href="../../de/d01/classnap_1_1rtti_1_1_object.html" target="_top" xlink:title="Object">
<polygon fill="white" stroke="black" points="168.5,-279.5 168.5,-298.5 213.5,-298.5 213.5,-279.5 168.5,-279.5"/>
<text text-anchor="middle" x="191" y="-286.5" font-family="Helvetica,sans-Serif" font-size="10.00">Object</text>
</a>
</g>
</g>
<!-- Node8&#45;&gt;Node7 -->
<g id="edge7" class="edge">
<title>Node8&#45;&gt;Node7</title>
<path fill="none" stroke="midnightblue" d="M191,-269.22C191,-253.7 191,-232.36 191,-220.62"/>
<polygon fill="midnightblue" stroke="midnightblue" points="187.5,-269.28 191,-279.28 194.5,-269.28 187.5,-269.28"/>
</g>
<!-- Node9 -->
<g id="node9" class="node">
<title>Node9</title>
<g id="a_node9"><a xlink:href="../../d5/dc6/classnap_1_1_render_service.html" target="_top" xlink:title="RenderService">
<polygon fill="white" stroke="black" points="238.5,-201.5 238.5,-220.5 317.5,-220.5 317.5,-201.5 238.5,-201.5"/>
<text text-anchor="middle" x="278" y="-208.5" font-family="Helvetica,sans-Serif" font-size="10.00">RenderService</text>
</a>
</g>
</g>
<!-- Node9&#45;&gt;Node6 -->
<g id="edge8" class="edge">
<title>Node9&#45;&gt;Node6</title>
<path fill="none" stroke="#9a32cd" stroke-dasharray="5,2" d="M275.37,-191.04C273.66,-178.67 271.51,-163.12 270.19,-153.63"/>
<polygon fill="#9a32cd" stroke="#9a32cd" points="271.95,-191.81 276.79,-201.23 278.88,-190.85 271.95,-191.81"/>
<text text-anchor="middle" x="312" y="-175" font-family="Helvetica,sans-Serif" font-size="10.00"> mRenderService</text>
</g>
<!-- Node10 -->
<g id="node10" class="node">
<title>Node10</title>
<g id="a_node10"><a xlink:href="../../d8/d8e/classnap_1_1_service.html" target="_top" xlink:title="Service">
<polygon fill="white" stroke="black" points="243,-279.5 243,-298.5 291,-298.5 291,-279.5 243,-279.5"/>
<text text-anchor="middle" x="267" y="-286.5" font-family="Helvetica,sans-Serif" font-size="10.00">Service</text>
</a>
</g>
</g>
<!-- Node10&#45;&gt;Node9 -->
<g id="edge9" class="edge">
<title>Node10&#45;&gt;Node9</title>
<path fill="none" stroke="midnightblue" d="M269.72,-269.22C271.96,-253.7 275.05,-232.36 276.75,-220.62"/>
<polygon fill="midnightblue" stroke="midnightblue" points="266.23,-268.88 268.26,-279.28 273.16,-269.89 266.23,-268.88"/>
</g>
<!-- Node11 -->
<g id="node11" class="node">
<title>Node11</title>
<g id="a_node11"><a xlink:href="../../de/d80/classnap_1_1_signal.html" target="_top" xlink:title="Signal\&lt; nap::RenderWindow &amp;\&gt;">
<polygon fill="white" stroke="black" points="309.5,-279.5 309.5,-298.5 464.5,-298.5 464.5,-279.5 309.5,-279.5"/>
<text text-anchor="middle" x="387" y="-286.5" font-family="Helvetica,sans-Serif" font-size="10.00">Signal&lt; nap::RenderWindow &amp;&gt;</text>
</a>
</g>
</g>
<!-- Node11&#45;&gt;Node9 -->
<g id="edge10" class="edge">
<title>Node11&#45;&gt;Node9</title>
<path fill="none" stroke="#9a32cd" stroke-dasharray="5,2" d="M366,-273.36C343.57,-257.72 308.75,-233.44 290.36,-220.62"/>
<polygon fill="#9a32cd" stroke="#9a32cd" points="364.29,-276.43 374.5,-279.28 368.3,-270.69 364.29,-276.43"/>
<text text-anchor="middle" x="383.5" y="-253" font-family="Helvetica,sans-Serif" font-size="10.00"> windowRemoved</text>
<text text-anchor="middle" x="383.5" y="-242" font-family="Helvetica,sans-Serif" font-size="10.00">windowAdded</text>
</g>
<!-- Node12 -->
<g id="node12" class="node">
<title>Node12</title>
<g id="a_node12"><a xlink:href="../../de/d80/classnap_1_1_signal.html" target="_top" xlink:title="Signal\&lt; Args \&gt;">
<polygon fill="white" stroke="black" points="336,-201.5 336,-220.5 418,-220.5 418,-201.5 336,-201.5"/>
<text text-anchor="middle" x="377" y="-208.5" font-family="Helvetica,sans-Serif" font-size="10.00">Signal&lt; Args &gt;</text>
</a>
</g>
</g>
<!-- Node12&#45;&gt;Node6 -->
<g id="edge11" class="edge">
<title>Node12&#45;&gt;Node6</title>
<path fill="none" stroke="#9a32cd" stroke-dasharray="5,2" d="M369.11,-192.15C365.17,-185.01 359.78,-177.26 353,-172 337.74,-160.18 317.16,-153.45 300.18,-149.67"/>
<polygon fill="#9a32cd" stroke="#9a32cd" points="366.01,-193.78 373.57,-201.2 372.29,-190.69 366.01,-193.78"/>
<text text-anchor="middle" x="395.5" y="-175" font-family="Helvetica,sans-Serif" font-size="10.00"> bufferChanged</text>
</g>
</g>
</svg>
