<?xml version="1.0" encoding="UTF-8" standalone="no"?>
<!DOCTYPE svg PUBLIC "-//W3C//DTD SVG 1.1//EN"
 "http://www.w3.org/Graphics/SVG/1.1/DTD/svg11.dtd">
<!-- Generated by graphviz version 2.43.0 (0)
 -->
<!-- Title: ShaderStorageBufferObject Pages: 1 -->
<svg width="519pt" height="307pt"
 viewBox="0.00 0.00 519.00 307.00" xmlns="http://www.w3.org/2000/svg" xmlns:xlink="http://www.w3.org/1999/xlink">
<g id="graph0" class="graph" transform="scale(1 1) rotate(0) translate(4 303)">
<title>ShaderStorageBufferObject</title>
<polygon fill="white" stroke="transparent" points="-4,4 -4,-303 515,-303 515,4 -4,4"/>
<!-- Node1 -->
<g id="node1" class="node">
<title>Node1</title>
<g id="a_node1"><a xlink:title=" ">
<polygon fill="#bfbfbf" stroke="black" points="137,-0.5 137,-19.5 286,-19.5 286,-0.5 137,-0.5"/>
<text text-anchor="middle" x="211.5" y="-7.5" font-family="Helvetica,sans-Serif" font-size="10.00">ShaderStorageBufferObject</text>
</a>
</g>
</g>
<!-- Node2 -->
<g id="node2" class="node">
<title>Node2</title>
<g id="a_node2"><a xlink:href="../../dd/d6b/classnap_1_1_buffer_object_declaration.html" target="_top" xlink:title=" ">
<polygon fill="white" stroke="black" points="71.5,-67.5 71.5,-86.5 205.5,-86.5 205.5,-67.5 71.5,-67.5"/>
<text text-anchor="middle" x="138.5" y="-74.5" font-family="Helvetica,sans-Serif" font-size="10.00">BufferObjectDeclaration</text>
</a>
</g>
</g>
<!-- Node2&#45;&gt;Node1 -->
<g id="edge1" class="edge">
<title>Node2&#45;&gt;Node1</title>
<path fill="none" stroke="#9a32cd" stroke-dasharray="5,2" d="M155.38,-60.6C163.02,-53.66 172.18,-45.38 180.5,-38 187.44,-31.84 195.32,-24.97 201.41,-19.71"/>
<polygon fill="#9a32cd" stroke="#9a32cd" points="152.84,-58.18 147.8,-67.5 157.55,-63.35 152.84,-58.18"/>
<text text-anchor="middle" x="215.5" y="-41" font-family="Helvetica,sans-Serif" font-size="10.00"> mDeclaration</text>
</g>
<!-- Node3 -->
<g id="node3" class="node">
<title>Node3</title>
<g id="a_node3"><a xlink:href="../../d1/d7d/classnap_1_1_shader_variable_struct_declaration.html" target="_top" xlink:title=" ">
<polygon fill="white" stroke="black" points="0,-134.5 0,-153.5 175,-153.5 175,-134.5 0,-134.5"/>
<text text-anchor="middle" x="87.5" y="-141.5" font-family="Helvetica,sans-Serif" font-size="10.00">ShaderVariableStructDeclaration</text>
</a>
</g>
</g>
<!-- Node3&#45;&gt;Node2 -->
<g id="edge2" class="edge">
<title>Node3&#45;&gt;Node2</title>
<path fill="none" stroke="midnightblue" d="M100.63,-126.27C110.57,-113.6 123.83,-96.7 131.73,-86.63"/>
<polygon fill="midnightblue" stroke="midnightblue" points="97.8,-124.21 94.38,-134.23 103.3,-128.53 97.8,-124.21"/>
</g>
<!-- Node4 -->
<g id="node4" class="node">
<title>Node4</title>
<g id="a_node4"><a xlink:href="../../dc/d72/classnap_1_1_shader_variable_declaration.html" target="_top" xlink:title=" ">
<polygon fill="white" stroke="black" points="13.5,-201.5 13.5,-220.5 159.5,-220.5 159.5,-201.5 13.5,-201.5"/>
<text text-anchor="middle" x="86.5" y="-208.5" font-family="Helvetica,sans-Serif" font-size="10.00">ShaderVariableDeclaration</text>
</a>
</g>
</g>
<!-- Node4&#45;&gt;Node3 -->
<g id="edge3" class="edge">
<title>Node4&#45;&gt;Node3</title>
<path fill="none" stroke="midnightblue" d="M86.79,-191.04C86.98,-178.67 87.22,-163.12 87.37,-153.63"/>
<polygon fill="midnightblue" stroke="midnightblue" points="83.29,-191.18 86.63,-201.23 90.29,-191.29 83.29,-191.18"/>
</g>
<!-- Node5 -->
<g id="node5" class="node">
<title>Node5</title>
<g id="a_node5"><a xlink:href="../../da/d5c/classnap_1_1_buffer_binding_instance.html" target="_top" xlink:title=" ">
<polygon fill="white" stroke="black" points="225.5,-67.5 225.5,-86.5 349.5,-86.5 349.5,-67.5 225.5,-67.5"/>
<text text-anchor="middle" x="287.5" y="-74.5" font-family="Helvetica,sans-Serif" font-size="10.00">BufferBindingInstance</text>
</a>
</g>
</g>
<!-- Node5&#45;&gt;Node1 -->
<g id="edge4" class="edge">
<title>Node5&#45;&gt;Node1</title>
<path fill="none" stroke="#9a32cd" stroke-dasharray="5,2" d="M273.05,-59.8C266.46,-52.78 258.38,-44.67 250.5,-38 242.58,-31.3 233.01,-24.65 225.33,-19.63"/>
<polygon fill="#9a32cd" stroke="#9a32cd" points="270.66,-62.38 279.99,-67.38 275.82,-57.65 270.66,-62.38"/>
<text text-anchor="middle" x="302" y="-41" font-family="Helvetica,sans-Serif" font-size="10.00"> mBufferBinding</text>
</g>
<!-- Node6 -->
<g id="node6" class="node">
<title>Node6</title>
<g id="a_node6"><a xlink:href="../../dd/df4/classnap_1_1_g_p_u_buffer.html" target="_top" xlink:title=" ">
<polygon fill="white" stroke="black" points="259,-134.5 259,-153.5 326,-153.5 326,-134.5 259,-134.5"/>
<text text-anchor="middle" x="292.5" y="-141.5" font-family="Helvetica,sans-Serif" font-size="10.00">GPUBuffer</text>
</a>
</g>
</g>
<!-- Node6&#45;&gt;Node5 -->
<g id="edge5" class="edge">
<title>Node6&#45;&gt;Node5</title>
<path fill="none" stroke="#9a32cd" stroke-dasharray="5,2" d="M291.04,-124.04C290.09,-111.67 288.89,-96.12 288.16,-86.63"/>
<polygon fill="#9a32cd" stroke="#9a32cd" points="287.57,-124.53 291.83,-134.23 294.55,-123.99 287.57,-124.53"/>
<text text-anchor="middle" x="312" y="-108" font-family="Helvetica,sans-Serif" font-size="10.00"> mBuffer</text>
</g>
<!-- Node7 -->
<g id="node7" class="node">
<title>Node7</title>
<g id="a_node7"><a xlink:href="../../d9/dea/classnap_1_1_resource.html" target="_top" xlink:title=" ">
<polygon fill="white" stroke="black" points="177.5,-201.5 177.5,-220.5 239.5,-220.5 239.5,-201.5 177.5,-201.5"/>
<text text-anchor="middle" x="208.5" y="-208.5" font-family="Helvetica,sans-Serif" font-size="10.00">Resource</text>
</a>
</g>
</g>
<!-- Node7&#45;&gt;Node6 -->
<g id="edge6" class="edge">
<title>Node7&#45;&gt;Node6</title>
<path fill="none" stroke="midnightblue" d="M227.8,-195.07C244.38,-182.24 267.71,-164.19 281.35,-153.63"/>
<polygon fill="midnightblue" stroke="midnightblue" points="225.6,-192.35 219.83,-201.23 229.88,-197.88 225.6,-192.35"/>
</g>
<!-- Node8 -->
<g id="node8" class="node">
<title>Node8</title>
<g id="a_node8"><a xlink:href="../../de/d01/classnap_1_1rtti_1_1_object.html" target="_top" xlink:title=" ">
<polygon fill="white" stroke="black" points="184.5,-279.5 184.5,-298.5 232.5,-298.5 232.5,-279.5 184.5,-279.5"/>
<text text-anchor="middle" x="208.5" y="-286.5" font-family="Helvetica,sans-Serif" font-size="10.00">Object</text>
</a>
</g>
</g>
<!-- Node8&#45;&gt;Node7 -->
<g id="edge7" class="edge">
<title>Node8&#45;&gt;Node7</title>
<path fill="none" stroke="midnightblue" d="M208.5,-269.22C208.5,-253.7 208.5,-232.36 208.5,-220.62"/>
<polygon fill="midnightblue" stroke="midnightblue" points="205,-269.28 208.5,-279.28 212,-269.28 205,-269.28"/>
</g>
<!-- Node9 -->
<g id="node9" class="node">
<title>Node9</title>
<g id="a_node9"><a xlink:href="../../d5/dc6/classnap_1_1_render_service.html" target="_top" xlink:title=" ">
<polygon fill="white" stroke="black" points="258,-201.5 258,-220.5 345,-220.5 345,-201.5 258,-201.5"/>
<text text-anchor="middle" x="301.5" y="-208.5" font-family="Helvetica,sans-Serif" font-size="10.00">RenderService</text>
</a>
</g>
</g>
<!-- Node9&#45;&gt;Node6 -->
<g id="edge8" class="edge">
<title>Node9&#45;&gt;Node6</title>
<path fill="none" stroke="#9a32cd" stroke-dasharray="5,2" d="M298.87,-191.04C297.16,-178.67 295.01,-163.12 293.69,-153.63"/>
<polygon fill="#9a32cd" stroke="#9a32cd" points="295.45,-191.81 300.29,-201.23 302.38,-190.85 295.45,-191.81"/>
<text text-anchor="middle" x="340.5" y="-175" font-family="Helvetica,sans-Serif" font-size="10.00"> mRenderService</text>
</g>
<!-- Node10 -->
<g id="node10" class="node">
<title>Node10</title>
<g id="a_node10"><a xlink:href="../../d8/d8e/classnap_1_1_service.html" target="_top" xlink:title=" ">
<polygon fill="white" stroke="black" points="263,-279.5 263,-298.5 316,-298.5 316,-279.5 263,-279.5"/>
<text text-anchor="middle" x="289.5" y="-286.5" font-family="Helvetica,sans-Serif" font-size="10.00">Service</text>
</a>
</g>
</g>
<!-- Node10&#45;&gt;Node9 -->
<g id="edge9" class="edge">
<title>Node10&#45;&gt;Node9</title>
<path fill="none" stroke="midnightblue" d="M292.46,-269.22C294.92,-253.7 298.29,-232.36 300.14,-220.62"/>
<polygon fill="midnightblue" stroke="midnightblue" points="288.98,-268.86 290.88,-279.28 295.89,-269.95 288.98,-268.86"/>
</g>
<!-- Node11 -->
<g id="node11" class="node">
<title>Node11</title>
<g id="a_node11"><a xlink:href="../../de/d80/classnap_1_1_signal.html" target="_top" xlink:title=" ">
<polygon fill="white" stroke="black" points="334,-279.5 334,-298.5 511,-298.5 511,-279.5 334,-279.5"/>
<text text-anchor="middle" x="422.5" y="-286.5" font-family="Helvetica,sans-Serif" font-size="10.00">Signal&lt; nap::RenderWindow &amp; &gt;</text>
</a>
</g>
</g>
<!-- Node11&#45;&gt;Node9 -->
<g id="edge10" class="edge">
<title>Node11&#45;&gt;Node9</title>
<path fill="none" stroke="#9a32cd" stroke-dasharray="5,2" d="M399.85,-273.77C374.97,-258.15 335.82,-233.56 315.22,-220.62"/>
<polygon fill="#9a32cd" stroke="#9a32cd" points="398.29,-276.93 408.62,-279.28 402.01,-271 398.29,-276.93"/>
<text text-anchor="middle" x="420.5" y="-253" font-family="Helvetica,sans-Serif" font-size="10.00"> windowRemoved</text>
<text text-anchor="middle" x="420.5" y="-242" font-family="Helvetica,sans-Serif" font-size="10.00">windowAdded</text>
</g>
<!-- Node12 -->
<g id="node12" class="node">
<title>Node12</title>
<g id="a_node12"><a xlink:href="../../de/d80/classnap_1_1_signal.html" target="_top" xlink:title=" ">
<polygon fill="white" stroke="black" points="363,-201.5 363,-220.5 454,-220.5 454,-201.5 363,-201.5"/>
<text text-anchor="middle" x="408.5" y="-208.5" font-family="Helvetica,sans-Serif" font-size="10.00">Signal&lt; Args &gt;</text>
</a>
</g>
</g>
<!-- Node12&#45;&gt;Node6 -->
<g id="edge11" class="edge">
<title>Node12&#45;&gt;Node6</title>
<path fill="none" stroke="#9a32cd" stroke-dasharray="5,2" d="M401.53,-191.83C398,-184.74 393.04,-177.11 386.5,-172 369.23,-158.52 345.5,-151.77 326.2,-148.39"/>
<polygon fill="#9a32cd" stroke="#9a32cd" points="398.52,-193.69 405.72,-201.47 404.94,-190.9 398.52,-193.69"/>
<text text-anchor="middle" x="433" y="-175" font-family="Helvetica,sans-Serif" font-size="10.00"> bufferChanged</text>
</g>
</g>
</svg>
