<?xml version="1.0" encoding="UTF-8" standalone="no"?>
<!DOCTYPE svg PUBLIC "-//W3C//DTD SVG 1.1//EN"
 "http://www.w3.org/Graphics/SVG/1.1/DTD/svg11.dtd">
<!-- Generated by graphviz version 2.43.0 (0)
 -->
<!-- Title: ObjectLink Pages: 1 -->
<svg width="155pt" height="106pt"
 viewBox="0.00 0.00 155.00 106.00" xmlns="http://www.w3.org/2000/svg" xmlns:xlink="http://www.w3.org/1999/xlink">
<g id="graph0" class="graph" transform="scale(1 1) rotate(0) translate(4 102)">
<title>ObjectLink</title>
<polygon fill="white" stroke="transparent" points="-4,4 -4,-102 151,-102 151,4 -4,4"/>
<!-- Node1 -->
<g id="node1" class="node">
<title>Node1</title>
<g id="a_node1"><a xlink:title=" ">
<polygon fill="#bfbfbf" stroke="black" points="24,-0.5 24,-19.5 92,-19.5 92,-0.5 24,-0.5"/>
<text text-anchor="middle" x="58" y="-7.5" font-family="Helvetica,sans-Serif" font-size="10.00">ObjectLink</text>
</a>
</g>
</g>
<!-- Node2 -->
<g id="node2" class="node">
<title>Node2</title>
<g id="a_node2"><a xlink:href="../../de/d01/classnap_1_1rtti_1_1_object.html" target="_top" xlink:title=" ">
<polygon fill="white" stroke="black" points="0,-78.5 0,-97.5 48,-97.5 48,-78.5 0,-78.5"/>
<text text-anchor="middle" x="24" y="-85.5" font-family="Helvetica,sans-Serif" font-size="10.00">Object</text>
</a>
</g>
</g>
<!-- Node2&#45;&gt;Node1 -->
<g id="edge1" class="edge">
<title>Node2&#45;&gt;Node1</title>
<path fill="none" stroke="#9a32cd" stroke-dasharray="5,2" d="M20.78,-68.16C20.03,-58.66 20.51,-47.24 25,-38 28.69,-30.41 35.64,-24.23 42.21,-19.7"/>
<polygon fill="#9a32cd" stroke="#9a32cd" points="17.32,-68.69 22.06,-78.17 24.26,-67.8 17.32,-68.69"/>
<text text-anchor="middle" x="48" y="-52" font-family="Helvetica,sans-Serif" font-size="10.00"> mSource</text>
<text text-anchor="middle" x="48" y="-41" font-family="Helvetica,sans-Serif" font-size="10.00">mTarget</text>
</g>
<!-- Node3 -->
<g id="node3" class="node">
<title>Node3</title>
<g id="a_node3"><a xlink:href="../../d5/d81/classnap_1_1rtti_1_1_path.html" target="_top" xlink:title=" ">
<polygon fill="white" stroke="black" points="74,-78.5 74,-97.5 112,-97.5 112,-78.5 74,-78.5"/>
<text text-anchor="middle" x="93" y="-85.5" font-family="Helvetica,sans-Serif" font-size="10.00">Path</text>
</a>
</g>
</g>
<!-- Node3&#45;&gt;Node1 -->
<g id="edge2" class="edge">
<title>Node3&#45;&gt;Node1</title>
<path fill="none" stroke="#9a32cd" stroke-dasharray="5,2" d="M85.03,-68.94C80.9,-59.66 75.74,-48.2 71,-38 68.19,-31.96 64.94,-25.21 62.39,-19.97"/>
<polygon fill="#9a32cd" stroke="#9a32cd" points="81.92,-70.57 89.18,-78.29 88.32,-67.73 81.92,-70.57"/>
<text text-anchor="middle" x="113.5" y="-46.5" font-family="Helvetica,sans-Serif" font-size="10.00"> mSourcePath</text>
</g>
</g>
</svg>
