<?xml version="1.0" encoding="UTF-8" standalone="no"?>
<!DOCTYPE svg PUBLIC "-//W3C//DTD SVG 1.1//EN"
 "http://www.w3.org/Graphics/SVG/1.1/DTD/svg11.dtd">
<!-- Generated by graphviz version 2.43.0 (0)
 -->
<!-- Title: BaseMaterial Pages: 1 -->
<svg width="210pt" height="196pt"
 viewBox="0.00 0.00 209.50 196.00" xmlns="http://www.w3.org/2000/svg" xmlns:xlink="http://www.w3.org/1999/xlink">
<g id="graph0" class="graph" transform="scale(1 1) rotate(0) translate(4 192)">
<title>BaseMaterial</title>
<polygon fill="white" stroke="transparent" points="-4,4 -4,-192 205.5,-192 205.5,4 -4,4"/>
<!-- Node1 -->
<g id="node1" class="node">
<title>Node1</title>
<g id="a_node1"><a xlink:title=" ">
<polygon fill="#bfbfbf" stroke="black" points="58,-56.5 58,-75.5 139,-75.5 139,-56.5 58,-56.5"/>
<text text-anchor="middle" x="98.5" y="-63.5" font-family="Helvetica,sans-Serif" font-size="10.00">BaseMaterial</text>
</a>
</g>
</g>
<!-- Node5 -->
<g id="node5" class="node">
<title>Node5</title>
<g id="a_node5"><a xlink:href="../../de/d68/classnap_1_1_compute_material.html" target="_top" xlink:title=" ">
<polygon fill="white" stroke="black" points="0,-0.5 0,-19.5 101,-19.5 101,-0.5 0,-0.5"/>
<text text-anchor="middle" x="50.5" y="-7.5" font-family="Helvetica,sans-Serif" font-size="10.00">ComputeMaterial</text>
</a>
</g>
</g>
<!-- Node1&#45;&gt;Node5 -->
<g id="edge4" class="edge">
<title>Node1&#45;&gt;Node5</title>
<path fill="none" stroke="midnightblue" d="M83.77,-48.43C75.36,-38.97 65.15,-27.48 58.28,-19.75"/>
<polygon fill="midnightblue" stroke="midnightblue" points="81.31,-50.93 90.57,-56.08 86.55,-46.28 81.31,-50.93"/>
</g>
<!-- Node6 -->
<g id="node6" class="node">
<title>Node6</title>
<g id="a_node6"><a xlink:href="../../d2/de3/classnap_1_1_material.html" target="_top" xlink:title=" ">
<polygon fill="white" stroke="black" points="119,-0.5 119,-19.5 176,-19.5 176,-0.5 119,-0.5"/>
<text text-anchor="middle" x="147.5" y="-7.5" font-family="Helvetica,sans-Serif" font-size="10.00">Material</text>
</a>
</g>
</g>
<!-- Node1&#45;&gt;Node6 -->
<g id="edge5" class="edge">
<title>Node1&#45;&gt;Node6</title>
<path fill="none" stroke="midnightblue" d="M113.53,-48.43C122.12,-38.97 132.54,-27.48 139.56,-19.75"/>
<polygon fill="midnightblue" stroke="midnightblue" points="110.72,-46.33 106.59,-56.08 115.9,-51.03 110.72,-46.33"/>
</g>
<!-- Node2 -->
<g id="node2" class="node">
<title>Node2</title>
<g id="a_node2"><a xlink:href="../../d9/dea/classnap_1_1_resource.html" target="_top" xlink:title=" ">
<polygon fill="white" stroke="black" points="17.5,-112.5 17.5,-131.5 79.5,-131.5 79.5,-112.5 17.5,-112.5"/>
<text text-anchor="middle" x="48.5" y="-119.5" font-family="Helvetica,sans-Serif" font-size="10.00">Resource</text>
</a>
</g>
</g>
<!-- Node2&#45;&gt;Node1 -->
<g id="edge1" class="edge">
<title>Node2&#45;&gt;Node1</title>
<path fill="none" stroke="midnightblue" d="M63.58,-104.72C72.39,-95.2 83.17,-83.56 90.4,-75.75"/>
<polygon fill="midnightblue" stroke="midnightblue" points="60.98,-102.37 56.76,-112.08 66.12,-107.12 60.98,-102.37"/>
</g>
<!-- Node3 -->
<g id="node3" class="node">
<title>Node3</title>
<g id="a_node3"><a xlink:href="../../de/d01/classnap_1_1rtti_1_1_object.html" target="_top" xlink:title=" ">
<polygon fill="white" stroke="black" points="24.5,-168.5 24.5,-187.5 72.5,-187.5 72.5,-168.5 24.5,-168.5"/>
<text text-anchor="middle" x="48.5" y="-175.5" font-family="Helvetica,sans-Serif" font-size="10.00">Object</text>
</a>
</g>
</g>
<!-- Node3&#45;&gt;Node2 -->
<g id="edge2" class="edge">
<title>Node3&#45;&gt;Node2</title>
<path fill="none" stroke="midnightblue" d="M48.5,-157.8C48.5,-148.91 48.5,-138.78 48.5,-131.75"/>
<polygon fill="midnightblue" stroke="midnightblue" points="45,-158.08 48.5,-168.08 52,-158.08 45,-158.08"/>
</g>
<!-- Node4 -->
<g id="node4" class="node">
<title>Node4</title>
<g id="a_node4"><a xlink:href="../../d5/d6c/classnap_1_1_uniform_container.html" target="_top" xlink:title=" ">
<polygon fill="white" stroke="black" points="97.5,-112.5 97.5,-131.5 201.5,-131.5 201.5,-112.5 97.5,-112.5"/>
<text text-anchor="middle" x="149.5" y="-119.5" font-family="Helvetica,sans-Serif" font-size="10.00">UniformContainer</text>
</a>
</g>
</g>
<!-- Node4&#45;&gt;Node1 -->
<g id="edge3" class="edge">
<title>Node4&#45;&gt;Node1</title>
<path fill="none" stroke="midnightblue" d="M134.12,-104.72C125.13,-95.2 114.14,-83.56 106.76,-75.75"/>
<polygon fill="midnightblue" stroke="midnightblue" points="131.67,-107.22 141.08,-112.08 136.76,-102.41 131.67,-107.22"/>
</g>
</g>
</svg>
