<?xml version="1.0" encoding="UTF-8" standalone="no"?>
<!DOCTYPE svg PUBLIC "-//W3C//DTD SVG 1.1//EN"
 "http://www.w3.org/Graphics/SVG/1.1/DTD/svg11.dtd">
<!-- Generated by graphviz version 2.43.0 (0)
 -->
<!-- Title: ControllerButtonEvent Pages: 1 -->
<svg width="342pt" height="252pt"
 viewBox="0.00 0.00 341.50 252.00" xmlns="http://www.w3.org/2000/svg" xmlns:xlink="http://www.w3.org/1999/xlink">
<g id="graph0" class="graph" transform="scale(1 1) rotate(0) translate(4 248)">
<title>ControllerButtonEvent</title>
<polygon fill="white" stroke="transparent" points="-4,4 -4,-248 337.5,-248 337.5,4 -4,4"/>
<!-- Node1 -->
<g id="node1" class="node">
<title>Node1</title>
<g id="a_node1"><a xlink:title=" ">
<polygon fill="#bfbfbf" stroke="black" points="101,-56.5 101,-75.5 226,-75.5 226,-56.5 101,-56.5"/>
<text text-anchor="middle" x="163.5" y="-63.5" font-family="Helvetica,sans-Serif" font-size="10.00">ControllerButtonEvent</text>
</a>
</g>
</g>
<!-- Node5 -->
<g id="node5" class="node">
<title>Node5</title>
<g id="a_node5"><a xlink:href="../../d9/d4a/classnap_1_1_controller_button_press_event.html" target="_top" xlink:title=" ">
<polygon fill="white" stroke="black" points="0,-0.5 0,-19.5 151,-19.5 151,-0.5 0,-0.5"/>
<text text-anchor="middle" x="75.5" y="-7.5" font-family="Helvetica,sans-Serif" font-size="10.00">ControllerButtonPressEvent</text>
</a>
</g>
</g>
<!-- Node1&#45;&gt;Node5 -->
<g id="edge4" class="edge">
<title>Node1&#45;&gt;Node5</title>
<path fill="none" stroke="midnightblue" d="M140.52,-50.9C124.39,-41 103.32,-28.07 89.6,-19.65"/>
<polygon fill="midnightblue" stroke="midnightblue" points="139.01,-54.08 149.36,-56.32 142.67,-48.11 139.01,-54.08"/>
</g>
<!-- Node6 -->
<g id="node6" class="node">
<title>Node6</title>
<g id="a_node6"><a xlink:href="../../de/da1/classnap_1_1_controller_button_release_event.html" target="_top" xlink:title=" ">
<polygon fill="white" stroke="black" points="169.5,-0.5 169.5,-19.5 333.5,-19.5 333.5,-0.5 169.5,-0.5"/>
<text text-anchor="middle" x="251.5" y="-7.5" font-family="Helvetica,sans-Serif" font-size="10.00">ControllerButtonReleaseEvent</text>
</a>
</g>
</g>
<!-- Node1&#45;&gt;Node6 -->
<g id="edge5" class="edge">
<title>Node1&#45;&gt;Node6</title>
<path fill="none" stroke="midnightblue" d="M186.48,-50.9C202.61,-41 223.68,-28.07 237.4,-19.65"/>
<polygon fill="midnightblue" stroke="midnightblue" points="184.33,-48.11 177.64,-56.32 187.99,-54.08 184.33,-48.11"/>
</g>
<!-- Node2 -->
<g id="node2" class="node">
<title>Node2</title>
<g id="a_node2"><a xlink:href="../../d6/ded/classnap_1_1_controller_event.html" target="_top" xlink:title=" ">
<polygon fill="white" stroke="black" points="117.5,-112.5 117.5,-131.5 209.5,-131.5 209.5,-112.5 117.5,-112.5"/>
<text text-anchor="middle" x="163.5" y="-119.5" font-family="Helvetica,sans-Serif" font-size="10.00">ControllerEvent</text>
</a>
</g>
</g>
<!-- Node2&#45;&gt;Node1 -->
<g id="edge1" class="edge">
<title>Node2&#45;&gt;Node1</title>
<path fill="none" stroke="midnightblue" d="M163.5,-101.8C163.5,-92.91 163.5,-82.78 163.5,-75.75"/>
<polygon fill="midnightblue" stroke="midnightblue" points="160,-102.08 163.5,-112.08 167,-102.08 160,-102.08"/>
</g>
<!-- Node3 -->
<g id="node3" class="node">
<title>Node3</title>
<g id="a_node3"><a xlink:href="../../dc/dc0/classnap_1_1_input_event.html" target="_top" xlink:title=" ">
<polygon fill="white" stroke="black" points="129,-168.5 129,-187.5 198,-187.5 198,-168.5 129,-168.5"/>
<text text-anchor="middle" x="163.5" y="-175.5" font-family="Helvetica,sans-Serif" font-size="10.00">InputEvent</text>
</a>
</g>
</g>
<!-- Node3&#45;&gt;Node2 -->
<g id="edge2" class="edge">
<title>Node3&#45;&gt;Node2</title>
<path fill="none" stroke="midnightblue" d="M163.5,-157.8C163.5,-148.91 163.5,-138.78 163.5,-131.75"/>
<polygon fill="midnightblue" stroke="midnightblue" points="160,-158.08 163.5,-168.08 167,-158.08 160,-158.08"/>
</g>
<!-- Node4 -->
<g id="node4" class="node">
<title>Node4</title>
<g id="a_node4"><a xlink:href="../../d2/da2/classnap_1_1_event.html" target="_top" xlink:title=" ">
<polygon fill="white" stroke="black" points="141.5,-224.5 141.5,-243.5 185.5,-243.5 185.5,-224.5 141.5,-224.5"/>
<text text-anchor="middle" x="163.5" y="-231.5" font-family="Helvetica,sans-Serif" font-size="10.00">Event</text>
</a>
</g>
</g>
<!-- Node4&#45;&gt;Node3 -->
<g id="edge3" class="edge">
<title>Node4&#45;&gt;Node3</title>
<path fill="none" stroke="midnightblue" d="M163.5,-213.8C163.5,-204.91 163.5,-194.78 163.5,-187.75"/>
<polygon fill="midnightblue" stroke="midnightblue" points="160,-214.08 163.5,-224.08 167,-214.08 160,-214.08"/>
</g>
</g>
</svg>
