<?xml version="1.0" encoding="UTF-8" standalone="no"?>
<!DOCTYPE svg PUBLIC "-//W3C//DTD SVG 1.1//EN"
 "http://www.w3.org/Graphics/SVG/1.1/DTD/svg11.dtd">
<!-- Generated by graphviz version 2.48.0 (20210717.1556)
 -->
<!-- Title: VideoAudioComponent Pages: 1 -->
<svg width="290pt" height="266pt"
 viewBox="0.00 0.00 289.50 266.00" xmlns="http://www.w3.org/2000/svg" xmlns:xlink="http://www.w3.org/1999/xlink">
<g id="graph0" class="graph" transform="scale(1 1) rotate(0) translate(4 262)">
<title>VideoAudioComponent</title>
<polygon fill="white" stroke="transparent" points="-4,4 -4,-262 285.5,-262 285.5,4 -4,4"/>
<!-- Node5 -->
<g id="node1" class="node">
<title>Node5</title>
<polygon fill="#bfbfbf" stroke="black" points="72.5,-0.5 72.5,-19.5 188.5,-19.5 188.5,-0.5 72.5,-0.5"/>
<text text-anchor="middle" x="130.5" y="-7.5" font-family="Helvetica,sans-Serif" font-size="10.00">VideoAudioComponent</text>
</g>
<!-- Node6 -->
<g id="node2" class="node">
<title>Node6</title>
<g id="a_node2"><a xlink:href="../../d5/dcb/classnap_1_1audio_1_1_audio_component_base.html" target="_top" xlink:title="AudioComponentBase">
<polygon fill="white" stroke="black" points="0,-67.5 0,-86.5 113,-86.5 113,-67.5 0,-67.5"/>
<text text-anchor="middle" x="56.5" y="-74.5" font-family="Helvetica,sans-Serif" font-size="10.00">AudioComponentBase</text>
</a>
</g>
</g>
<!-- Node6&#45;&gt;Node5 -->
<g id="edge1" class="edge">
<title>Node6&#45;&gt;Node5</title>
<path fill="none" stroke="midnightblue" d="M74.31,-60.36C88.86,-47.58 108.88,-29.99 120.68,-19.63"/>
<polygon fill="midnightblue" stroke="midnightblue" points="71.68,-58 66.48,-67.23 76.3,-63.26 71.68,-58"/>
</g>
<!-- Node7 -->
<g id="node3" class="node">
<title>Node7</title>
<g id="a_node3"><a xlink:href="../../db/d6b/classnap_1_1_component.html" target="_top" xlink:title="Component">
<polygon fill="white" stroke="black" points="23.5,-124.5 23.5,-143.5 89.5,-143.5 89.5,-124.5 23.5,-124.5"/>
<text text-anchor="middle" x="56.5" y="-131.5" font-family="Helvetica,sans-Serif" font-size="10.00">Component</text>
</a>
</g>
</g>
<!-- Node7&#45;&gt;Node6 -->
<g id="edge2" class="edge">
<title>Node7&#45;&gt;Node6</title>
<path fill="none" stroke="midnightblue" d="M56.5,-114.12C56.5,-104.82 56.5,-94.06 56.5,-86.71"/>
<polygon fill="midnightblue" stroke="midnightblue" points="53,-114.41 56.5,-124.41 60,-114.41 53,-114.41"/>
</g>
<!-- Node8 -->
<g id="node4" class="node">
<title>Node8</title>
<g id="a_node4"><a xlink:href="../../d9/dea/classnap_1_1_resource.html" target="_top" xlink:title="Resource">
<polygon fill="white" stroke="black" points="27.5,-181.5 27.5,-200.5 85.5,-200.5 85.5,-181.5 27.5,-181.5"/>
<text text-anchor="middle" x="56.5" y="-188.5" font-family="Helvetica,sans-Serif" font-size="10.00">Resource</text>
</a>
</g>
</g>
<!-- Node8&#45;&gt;Node7 -->
<g id="edge3" class="edge">
<title>Node8&#45;&gt;Node7</title>
<path fill="none" stroke="midnightblue" d="M56.5,-171.12C56.5,-161.82 56.5,-151.06 56.5,-143.71"/>
<polygon fill="midnightblue" stroke="midnightblue" points="53,-171.41 56.5,-181.41 60,-171.41 53,-171.41"/>
</g>
<!-- Node9 -->
<g id="node5" class="node">
<title>Node9</title>
<g id="a_node5"><a xlink:href="../../de/d01/classnap_1_1rtti_1_1_object.html" target="_top" xlink:title="Object">
<polygon fill="white" stroke="black" points="34,-238.5 34,-257.5 79,-257.5 79,-238.5 34,-238.5"/>
<text text-anchor="middle" x="56.5" y="-245.5" font-family="Helvetica,sans-Serif" font-size="10.00">Object</text>
</a>
</g>
</g>
<!-- Node9&#45;&gt;Node8 -->
<g id="edge4" class="edge">
<title>Node9&#45;&gt;Node8</title>
<path fill="none" stroke="midnightblue" d="M56.5,-228.12C56.5,-218.82 56.5,-208.06 56.5,-200.71"/>
<polygon fill="midnightblue" stroke="midnightblue" points="53,-228.41 56.5,-238.41 60,-228.41 53,-228.41"/>
</g>
<!-- Node10 -->
<g id="node6" class="node">
<title>Node10</title>
<g id="a_node6"><a xlink:href="../../dd/d7c/classnap_1_1rtti_1_1_object_ptr.html" target="_top" xlink:title="ObjectPtr\&lt; nap::VideoPlayer \&gt;">
<polygon fill="white" stroke="black" points="131.5,-67.5 131.5,-86.5 281.5,-86.5 281.5,-67.5 131.5,-67.5"/>
<text text-anchor="middle" x="206.5" y="-74.5" font-family="Helvetica,sans-Serif" font-size="10.00">ObjectPtr&lt; nap::VideoPlayer &gt;</text>
</a>
</g>
</g>
<!-- Node10&#45;&gt;Node5 -->
<g id="edge5" class="edge">
<title>Node10&#45;&gt;Node5</title>
<path fill="none" stroke="#9a32cd" stroke-dasharray="5,2" d="M188.63,-60.71C173.65,-47.91 152.82,-30.09 140.59,-19.63"/>
<polygon fill="#9a32cd" stroke="#9a32cd" points="186.38,-63.39 196.25,-67.23 190.93,-58.07 186.38,-63.39"/>
<text text-anchor="middle" x="205.5" y="-41" font-family="Helvetica,sans-Serif" font-size="10.00"> mVideoPlayer</text>
</g>
<!-- Node11 -->
<g id="node7" class="node">
<title>Node11</title>
<g id="a_node7"><a xlink:href="../../d7/dcb/classnap_1_1rtti_1_1_object_ptr_base.html" target="_top" xlink:title="ObjectPtrBase">
<polygon fill="white" stroke="black" points="166.5,-124.5 166.5,-143.5 246.5,-143.5 246.5,-124.5 166.5,-124.5"/>
<text text-anchor="middle" x="206.5" y="-131.5" font-family="Helvetica,sans-Serif" font-size="10.00">ObjectPtrBase</text>
</a>
</g>
</g>
<!-- Node11&#45;&gt;Node10 -->
<g id="edge6" class="edge">
<title>Node11&#45;&gt;Node10</title>
<path fill="none" stroke="midnightblue" d="M206.5,-114.12C206.5,-104.82 206.5,-94.06 206.5,-86.71"/>
<polygon fill="midnightblue" stroke="midnightblue" points="203,-114.41 206.5,-124.41 210,-114.41 203,-114.41"/>
</g>
</g>
</svg>
