<?xml version="1.0" encoding="UTF-8" standalone="no"?>
<!DOCTYPE svg PUBLIC "-//W3C//DTD SVG 1.1//EN"
 "http://www.w3.org/Graphics/SVG/1.1/DTD/svg11.dtd">
<!-- Generated by graphviz version 2.43.0 (0)
 -->
<!-- Title: VideoAudioComponent Pages: 1 -->
<svg width="318pt" height="266pt"
 viewBox="0.00 0.00 318.00 266.00" xmlns="http://www.w3.org/2000/svg" xmlns:xlink="http://www.w3.org/1999/xlink">
<g id="graph0" class="graph" transform="scale(1 1) rotate(0) translate(4 262)">
<title>VideoAudioComponent</title>
<polygon fill="white" stroke="transparent" points="-4,4 -4,-262 314,-262 314,4 -4,4"/>
<!-- Node1 -->
<g id="node1" class="node">
<title>Node1</title>
<g id="a_node1"><a xlink:title=" ">
<polygon fill="#bfbfbf" stroke="black" points="79.5,-0.5 79.5,-19.5 207.5,-19.5 207.5,-0.5 79.5,-0.5"/>
<text text-anchor="middle" x="143.5" y="-7.5" font-family="Helvetica,sans-Serif" font-size="10.00">VideoAudioComponent</text>
</a>
</g>
</g>
<!-- Node2 -->
<g id="node2" class="node">
<title>Node2</title>
<g id="a_node2"><a xlink:href="../../d5/dcb/classnap_1_1audio_1_1_audio_component_base.html" target="_top" xlink:title=" ">
<polygon fill="white" stroke="black" points="0,-67.5 0,-86.5 125,-86.5 125,-67.5 0,-67.5"/>
<text text-anchor="middle" x="62.5" y="-74.5" font-family="Helvetica,sans-Serif" font-size="10.00">AudioComponentBase</text>
</a>
</g>
</g>
<!-- Node2&#45;&gt;Node1 -->
<g id="edge1" class="edge">
<title>Node2&#45;&gt;Node1</title>
<path fill="none" stroke="midnightblue" d="M81.55,-60.71C97.51,-47.91 119.71,-30.09 132.75,-19.63"/>
<polygon fill="midnightblue" stroke="midnightblue" points="79.03,-58.25 73.42,-67.23 83.41,-63.7 79.03,-58.25"/>
</g>
<!-- Node3 -->
<g id="node3" class="node">
<title>Node3</title>
<g id="a_node3"><a xlink:href="../../db/d6b/classnap_1_1_component.html" target="_top" xlink:title=" ">
<polygon fill="white" stroke="black" points="26,-124.5 26,-143.5 99,-143.5 99,-124.5 26,-124.5"/>
<text text-anchor="middle" x="62.5" y="-131.5" font-family="Helvetica,sans-Serif" font-size="10.00">Component</text>
</a>
</g>
</g>
<!-- Node3&#45;&gt;Node2 -->
<g id="edge2" class="edge">
<title>Node3&#45;&gt;Node2</title>
<path fill="none" stroke="midnightblue" d="M62.5,-114.12C62.5,-104.82 62.5,-94.06 62.5,-86.71"/>
<polygon fill="midnightblue" stroke="midnightblue" points="59,-114.41 62.5,-124.41 66,-114.41 59,-114.41"/>
</g>
<!-- Node4 -->
<g id="node4" class="node">
<title>Node4</title>
<g id="a_node4"><a xlink:href="../../d9/dea/classnap_1_1_resource.html" target="_top" xlink:title=" ">
<polygon fill="white" stroke="black" points="31.5,-181.5 31.5,-200.5 93.5,-200.5 93.5,-181.5 31.5,-181.5"/>
<text text-anchor="middle" x="62.5" y="-188.5" font-family="Helvetica,sans-Serif" font-size="10.00">Resource</text>
</a>
</g>
</g>
<!-- Node4&#45;&gt;Node3 -->
<g id="edge3" class="edge">
<title>Node4&#45;&gt;Node3</title>
<path fill="none" stroke="midnightblue" d="M62.5,-171.12C62.5,-161.82 62.5,-151.06 62.5,-143.71"/>
<polygon fill="midnightblue" stroke="midnightblue" points="59,-171.41 62.5,-181.41 66,-171.41 59,-171.41"/>
</g>
<!-- Node5 -->
<g id="node5" class="node">
<title>Node5</title>
<g id="a_node5"><a xlink:href="../../de/d01/classnap_1_1rtti_1_1_object.html" target="_top" xlink:title=" ">
<polygon fill="white" stroke="black" points="38.5,-238.5 38.5,-257.5 86.5,-257.5 86.5,-238.5 38.5,-238.5"/>
<text text-anchor="middle" x="62.5" y="-245.5" font-family="Helvetica,sans-Serif" font-size="10.00">Object</text>
</a>
</g>
</g>
<!-- Node5&#45;&gt;Node4 -->
<g id="edge4" class="edge">
<title>Node5&#45;&gt;Node4</title>
<path fill="none" stroke="midnightblue" d="M62.5,-228.12C62.5,-218.82 62.5,-208.06 62.5,-200.71"/>
<polygon fill="midnightblue" stroke="midnightblue" points="59,-228.41 62.5,-238.41 66,-228.41 59,-228.41"/>
</g>
<!-- Node6 -->
<g id="node6" class="node">
<title>Node6</title>
<g id="a_node6"><a xlink:href="../../dd/d7c/classnap_1_1rtti_1_1_object_ptr.html" target="_top" xlink:title=" ">
<polygon fill="white" stroke="black" points="143,-67.5 143,-86.5 310,-86.5 310,-67.5 143,-67.5"/>
<text text-anchor="middle" x="226.5" y="-74.5" font-family="Helvetica,sans-Serif" font-size="10.00">ObjectPtr&lt; nap::VideoPlayer &gt;</text>
</a>
</g>
</g>
<!-- Node6&#45;&gt;Node1 -->
<g id="edge5" class="edge">
<title>Node6&#45;&gt;Node1</title>
<path fill="none" stroke="#9a32cd" stroke-dasharray="5,2" d="M207.43,-61.07C191.05,-48.24 168,-30.19 154.52,-19.63"/>
<polygon fill="#9a32cd" stroke="#9a32cd" points="205.28,-63.82 215.31,-67.23 209.59,-58.31 205.28,-63.82"/>
<text text-anchor="middle" x="226.5" y="-41" font-family="Helvetica,sans-Serif" font-size="10.00"> mVideoPlayer</text>
</g>
<!-- Node7 -->
<g id="node7" class="node">
<title>Node7</title>
<g id="a_node7"><a xlink:href="../../d7/dcb/classnap_1_1rtti_1_1_object_ptr_base.html" target="_top" xlink:title=" ">
<polygon fill="white" stroke="black" points="183.5,-124.5 183.5,-143.5 269.5,-143.5 269.5,-124.5 183.5,-124.5"/>
<text text-anchor="middle" x="226.5" y="-131.5" font-family="Helvetica,sans-Serif" font-size="10.00">ObjectPtrBase</text>
</a>
</g>
</g>
<!-- Node7&#45;&gt;Node6 -->
<g id="edge6" class="edge">
<title>Node7&#45;&gt;Node6</title>
<path fill="none" stroke="midnightblue" d="M226.5,-114.12C226.5,-104.82 226.5,-94.06 226.5,-86.71"/>
<polygon fill="midnightblue" stroke="midnightblue" points="223,-114.41 226.5,-124.41 230,-114.41 223,-114.41"/>
</g>
</g>
</svg>
