<?xml version="1.0" encoding="UTF-8" standalone="no"?>
<!DOCTYPE svg PUBLIC "-//W3C//DTD SVG 1.1//EN"
 "http://www.w3.org/Graphics/SVG/1.1/DTD/svg11.dtd">
<!-- Generated by graphviz version 2.43.0 (0)
 -->
<!-- Title: RenderTarget Pages: 1 -->
<svg width="514pt" height="209pt"
 viewBox="0.00 0.00 514.00 209.00" xmlns="http://www.w3.org/2000/svg" xmlns:xlink="http://www.w3.org/1999/xlink">
<g id="graph0" class="graph" transform="scale(1 1) rotate(0) translate(4 205)">
<title>RenderTarget</title>
<polygon fill="white" stroke="transparent" points="-4,4 -4,-205 510,-205 510,4 -4,4"/>
<!-- Node1 -->
<g id="node1" class="node">
<title>Node1</title>
<g id="a_node1"><a xlink:title=" ">
<polygon fill="#bfbfbf" stroke="black" points="97.5,-0.5 97.5,-19.5 178.5,-19.5 178.5,-0.5 97.5,-0.5"/>
<text text-anchor="middle" x="138" y="-7.5" font-family="Helvetica,sans-Serif" font-size="10.00">RenderTarget</text>
</a>
</g>
</g>
<!-- Node2 -->
<g id="node2" class="node">
<title>Node2</title>
<g id="a_node2"><a xlink:href="../../d9/dea/classnap_1_1_resource.html" target="_top" xlink:title=" ">
<polygon fill="white" stroke="black" points="0,-67.5 0,-86.5 62,-86.5 62,-67.5 0,-67.5"/>
<text text-anchor="middle" x="31" y="-74.5" font-family="Helvetica,sans-Serif" font-size="10.00">Resource</text>
</a>
</g>
</g>
<!-- Node2&#45;&gt;Node1 -->
<g id="edge1" class="edge">
<title>Node2&#45;&gt;Node1</title>
<path fill="none" stroke="midnightblue" d="M54.14,-61.94C75.33,-49.07 106.02,-30.43 123.8,-19.63"/>
<polygon fill="midnightblue" stroke="midnightblue" points="52.16,-59.05 45.43,-67.23 55.79,-65.03 52.16,-59.05"/>
</g>
<!-- Node3 -->
<g id="node3" class="node">
<title>Node3</title>
<g id="a_node3"><a xlink:href="../../de/d01/classnap_1_1rtti_1_1_object.html" target="_top" xlink:title=" ">
<polygon fill="white" stroke="black" points="7,-124.5 7,-143.5 55,-143.5 55,-124.5 7,-124.5"/>
<text text-anchor="middle" x="31" y="-131.5" font-family="Helvetica,sans-Serif" font-size="10.00">Object</text>
</a>
</g>
</g>
<!-- Node3&#45;&gt;Node2 -->
<g id="edge2" class="edge">
<title>Node3&#45;&gt;Node2</title>
<path fill="none" stroke="midnightblue" d="M31,-114.12C31,-104.82 31,-94.06 31,-86.71"/>
<polygon fill="midnightblue" stroke="midnightblue" points="27.5,-114.41 31,-124.41 34.5,-114.41 27.5,-114.41"/>
</g>
<!-- Node4 -->
<g id="node4" class="node">
<title>Node4</title>
<g id="a_node4"><a xlink:href="../../d7/da9/classnap_1_1_i_render_target.html" target="_top" xlink:title=" ">
<polygon fill="white" stroke="black" points="80,-67.5 80,-86.5 164,-86.5 164,-67.5 80,-67.5"/>
<text text-anchor="middle" x="122" y="-74.5" font-family="Helvetica,sans-Serif" font-size="10.00">IRenderTarget</text>
</a>
</g>
</g>
<!-- Node4&#45;&gt;Node1 -->
<g id="edge3" class="edge">
<title>Node4&#45;&gt;Node1</title>
<path fill="none" stroke="midnightblue" d="M126.57,-57.41C129.63,-44.99 133.52,-29.22 135.88,-19.63"/>
<polygon fill="midnightblue" stroke="midnightblue" points="123.15,-56.69 124.16,-67.23 129.95,-58.36 123.15,-56.69"/>
</g>
<!-- Node5 -->
<g id="node5" class="node">
<title>Node5</title>
<g id="a_node5"><a xlink:href="../../dd/d7c/classnap_1_1rtti_1_1_object_ptr.html" target="_top" xlink:title=" ">
<polygon fill="white" stroke="black" points="182,-67.5 182,-86.5 374,-86.5 374,-67.5 182,-67.5"/>
<text text-anchor="middle" x="278" y="-74.5" font-family="Helvetica,sans-Serif" font-size="10.00">ObjectPtr&lt; nap::RenderTexture2D &gt;</text>
</a>
</g>
</g>
<!-- Node5&#45;&gt;Node1 -->
<g id="edge4" class="edge">
<title>Node5&#45;&gt;Node1</title>
<path fill="none" stroke="#9a32cd" stroke-dasharray="5,2" d="M250.24,-63.11C222.51,-50.24 180.66,-30.81 156.67,-19.67"/>
<polygon fill="#9a32cd" stroke="#9a32cd" points="248.87,-66.33 259.41,-67.37 251.81,-59.98 248.87,-66.33"/>
<text text-anchor="middle" x="254.5" y="-41" font-family="Helvetica,sans-Serif" font-size="10.00"> mColorTexture</text>
</g>
<!-- Node6 -->
<g id="node6" class="node">
<title>Node6</title>
<g id="a_node6"><a xlink:href="../../d7/dcb/classnap_1_1rtti_1_1_object_ptr_base.html" target="_top" xlink:title=" ">
<polygon fill="white" stroke="black" points="235,-124.5 235,-143.5 321,-143.5 321,-124.5 235,-124.5"/>
<text text-anchor="middle" x="278" y="-131.5" font-family="Helvetica,sans-Serif" font-size="10.00">ObjectPtrBase</text>
</a>
</g>
</g>
<!-- Node6&#45;&gt;Node5 -->
<g id="edge5" class="edge">
<title>Node6&#45;&gt;Node5</title>
<path fill="none" stroke="midnightblue" d="M278,-114.12C278,-104.82 278,-94.06 278,-86.71"/>
<polygon fill="midnightblue" stroke="midnightblue" points="274.5,-114.41 278,-124.41 281.5,-114.41 274.5,-114.41"/>
</g>
<!-- Node7 -->
<g id="node7" class="node">
<title>Node7</title>
<g id="a_node7"><a xlink:href="../../d6/db8/classnap_1_1_r_g_b_a_color.html" target="_top" xlink:title=" ">
<polygon fill="white" stroke="black" points="392,-67.5 392,-86.5 506,-86.5 506,-67.5 392,-67.5"/>
<text text-anchor="middle" x="449" y="-74.5" font-family="Helvetica,sans-Serif" font-size="10.00">RGBAColor&lt; float &gt;</text>
</a>
</g>
</g>
<!-- Node7&#45;&gt;Node1 -->
<g id="edge6" class="edge">
<title>Node7&#45;&gt;Node1</title>
<path fill="none" stroke="#9a32cd" stroke-dasharray="5,2" d="M407.6,-64.83C376.93,-56.78 334.03,-45.96 296,-38 256.37,-29.7 210.75,-22.12 178.75,-17.11"/>
<polygon fill="#9a32cd" stroke="#9a32cd" points="406.95,-68.28 417.51,-67.45 408.74,-61.51 406.95,-68.28"/>
<text text-anchor="middle" x="374" y="-41" font-family="Helvetica,sans-Serif" font-size="10.00"> mClearColor</text>
</g>
<!-- Node8 -->
<g id="node8" class="node">
<title>Node8</title>
<g id="a_node8"><a xlink:href="../../d6/d3d/classnap_1_1_color.html" target="_top" xlink:title=" ">
<polygon fill="white" stroke="black" points="400,-124.5 400,-143.5 498,-143.5 498,-124.5 400,-124.5"/>
<text text-anchor="middle" x="449" y="-131.5" font-family="Helvetica,sans-Serif" font-size="10.00">Color&lt; float, 4 &gt;</text>
</a>
</g>
</g>
<!-- Node8&#45;&gt;Node7 -->
<g id="edge7" class="edge">
<title>Node8&#45;&gt;Node7</title>
<path fill="none" stroke="midnightblue" d="M449,-114.12C449,-104.82 449,-94.06 449,-86.71"/>
<polygon fill="midnightblue" stroke="midnightblue" points="445.5,-114.41 449,-124.41 452.5,-114.41 445.5,-114.41"/>
</g>
<!-- Node9 -->
<g id="node9" class="node">
<title>Node9</title>
<g id="a_node9"><a xlink:href="../../d8/d6a/classnap_1_1_base_color.html" target="_top" xlink:title=" ">
<polygon fill="white" stroke="black" points="416,-181.5 416,-200.5 482,-200.5 482,-181.5 416,-181.5"/>
<text text-anchor="middle" x="449" y="-188.5" font-family="Helvetica,sans-Serif" font-size="10.00">BaseColor</text>
</a>
</g>
</g>
<!-- Node9&#45;&gt;Node8 -->
<g id="edge8" class="edge">
<title>Node9&#45;&gt;Node8</title>
<path fill="none" stroke="midnightblue" d="M449,-171.12C449,-161.82 449,-151.06 449,-143.71"/>
<polygon fill="midnightblue" stroke="midnightblue" points="445.5,-171.41 449,-181.41 452.5,-171.41 445.5,-171.41"/>
</g>
</g>
</svg>
