<?xml version="1.0" encoding="UTF-8" standalone="no"?>
<!DOCTYPE svg PUBLIC "-//W3C//DTD SVG 1.1//EN"
 "http://www.w3.org/Graphics/SVG/1.1/DTD/svg11.dtd">
<!-- Generated by graphviz version 3.0.0 (20220226.1711)
 -->
<!-- Title: ComponentInstanceProperties Pages: 1 -->
<svg width="170pt" height="163pt"
 viewBox="0.00 0.00 169.50 163.00" xmlns="http://www.w3.org/2000/svg" xmlns:xlink="http://www.w3.org/1999/xlink">
<g id="graph0" class="graph" transform="scale(1 1) rotate(0) translate(4 159)">
<title>ComponentInstanceProperties</title>
<polygon fill="white" stroke="transparent" points="-4,4 -4,-159 165.5,-159 165.5,4 -4,4"/>
<!-- Node1 -->
<g id="node1" class="node">
<title>Node1</title>
<polygon fill="#bfbfbf" stroke="black" points="0,-0.5 0,-19.5 147,-19.5 147,-0.5 0,-0.5"/>
<text text-anchor="middle" x="73.5" y="-7.5" font-family="Helvetica,sans-Serif" font-size="10.00">ComponentInstanceProperties</text>
</g>
<!-- Node2 -->
<g id="node2" class="node">
<title>Node2</title>
<g id="a_node2"><a xlink:href="../../d1/dcd/classnap_1_1_component_ptr.html" target="_top" xlink:title="ComponentPtr\&lt; nap::\lComponent \&gt;">
<polygon fill="white" stroke="black" points="18.5,-67.5 18.5,-97.5 128.5,-97.5 128.5,-67.5 18.5,-67.5"/>
<text text-anchor="start" x="26.5" y="-85.5" font-family="Helvetica,sans-Serif" font-size="10.00">ComponentPtr&lt; nap::</text>
<text text-anchor="middle" x="73.5" y="-74.5" font-family="Helvetica,sans-Serif" font-size="10.00">Component &gt;</text>
</a>
</g>
</g>
<!-- Node2&#45;&gt;Node1 -->
<g id="edge1" class="edge">
<title>Node2&#45;&gt;Node1</title>
<path fill="none" stroke="#9a32cd" stroke-dasharray="5,2" d="M73.5,-57.09C73.5,-44.21 73.5,-29.2 73.5,-19.89"/>
<polygon fill="#9a32cd" stroke="#9a32cd" points="70,-57.23 73.5,-67.23 77,-57.23 70,-57.23"/>
<text text-anchor="middle" x="117.5" y="-41" font-family="Helvetica,sans-Serif" font-size="10.00"> mTargetComponent</text>
</g>
<!-- Node3 -->
<g id="node3" class="node">
<title>Node3</title>
<g id="a_node3"><a xlink:href="../../da/d10/classnap_1_1_component_ptr_base.html" target="_top" xlink:title="ComponentPtrBase">
<polygon fill="white" stroke="black" points="23,-135.5 23,-154.5 124,-154.5 124,-135.5 23,-135.5"/>
<text text-anchor="middle" x="73.5" y="-142.5" font-family="Helvetica,sans-Serif" font-size="10.00">ComponentPtrBase</text>
</a>
</g>
</g>
<!-- Node3&#45;&gt;Node2 -->
<g id="edge2" class="edge">
<title>Node3&#45;&gt;Node2</title>
<path fill="none" stroke="midnightblue" d="M73.5,-125.22C73.5,-116.36 73.5,-105.96 73.5,-97.76"/>
<polygon fill="midnightblue" stroke="midnightblue" points="70,-125.33 73.5,-135.33 77,-125.33 70,-125.33"/>
</g>
</g>
</svg>
