<?xml version="1.0" encoding="UTF-8" standalone="no"?>
<!DOCTYPE svg PUBLIC "-//W3C//DTD SVG 1.1//EN"
 "http://www.w3.org/Graphics/SVG/1.1/DTD/svg11.dtd">
<!-- Generated by graphviz version 2.48.0 (20210717.1556)
 -->
<!-- Title: SequenceTrack Pages: 1 -->
<svg width="462pt" height="263pt"
 viewBox="0.00 0.00 461.50 263.00" xmlns="http://www.w3.org/2000/svg" xmlns:xlink="http://www.w3.org/1999/xlink">
<g id="graph0" class="graph" transform="scale(1 1) rotate(0) translate(4 259)">
<title>SequenceTrack</title>
<polygon fill="white" stroke="transparent" points="-4,4 -4,-259 457.5,-259 457.5,4 -4,4"/>
<!-- Node0 -->
<g id="node1" class="node">
<title>Node0</title>
<polygon fill="#bfbfbf" stroke="black" points="230.5,-123.5 230.5,-142.5 314.5,-142.5 314.5,-123.5 230.5,-123.5"/>
<text text-anchor="middle" x="272.5" y="-130.5" font-family="Helvetica,sans-Serif" font-size="10.00">SequenceTrack</text>
</g>
<!-- Node3 -->
<g id="node4" class="node">
<title>Node3</title>
<g id="a_node4"><a xlink:href="../../d6/de8/classnap_1_1_base_sequence_track_curve.html" target="_top" xlink:title="BaseSequenceTrackCurve">
<polygon fill="white" stroke="black" points="69,-67.5 69,-86.5 200,-86.5 200,-67.5 69,-67.5"/>
<text text-anchor="middle" x="134.5" y="-74.5" font-family="Helvetica,sans-Serif" font-size="10.00">BaseSequenceTrackCurve</text>
</a>
</g>
</g>
<!-- Node0&#45;&gt;Node3 -->
<g id="edge3" class="edge">
<title>Node0&#45;&gt;Node3</title>
<path fill="none" stroke="midnightblue" d="M241.25,-119.77C215.33,-109.63 179.14,-95.47 156.26,-86.52"/>
<polygon fill="midnightblue" stroke="midnightblue" points="240.05,-123.06 250.63,-123.44 242.6,-116.54 240.05,-123.06"/>
</g>
<!-- Node6 -->
<g id="node7" class="node">
<title>Node6</title>
<g id="a_node7"><a xlink:href="../../d9/d10/classnap_1_1_sequence_track_audio.html" target="_top" xlink:title="SequenceTrackAudio">
<polygon fill="white" stroke="black" points="218,-67.5 218,-86.5 327,-86.5 327,-67.5 218,-67.5"/>
<text text-anchor="middle" x="272.5" y="-74.5" font-family="Helvetica,sans-Serif" font-size="10.00">SequenceTrackAudio</text>
</a>
</g>
</g>
<!-- Node0&#45;&gt;Node6 -->
<g id="edge6" class="edge">
<title>Node0&#45;&gt;Node6</title>
<path fill="none" stroke="midnightblue" d="M272.5,-112.8C272.5,-103.91 272.5,-93.78 272.5,-86.75"/>
<polygon fill="midnightblue" stroke="midnightblue" points="269,-113.08 272.5,-123.08 276,-113.08 269,-113.08"/>
</g>
<!-- Node7 -->
<g id="node8" class="node">
<title>Node7</title>
<g id="a_node8"><a xlink:href="../../de/d9d/classnap_1_1_sequence_track_event.html" target="_top" xlink:title="SequenceTrackEvent">
<polygon fill="white" stroke="black" points="345.5,-67.5 345.5,-86.5 453.5,-86.5 453.5,-67.5 345.5,-67.5"/>
<text text-anchor="middle" x="399.5" y="-74.5" font-family="Helvetica,sans-Serif" font-size="10.00">SequenceTrackEvent</text>
</a>
</g>
</g>
<!-- Node0&#45;&gt;Node7 -->
<g id="edge7" class="edge">
<title>Node0&#45;&gt;Node7</title>
<path fill="none" stroke="midnightblue" d="M301.89,-119.5C325.7,-109.38 358.61,-95.39 379.47,-86.52"/>
<polygon fill="midnightblue" stroke="midnightblue" points="300.46,-116.31 292.62,-123.44 303.2,-122.75 300.46,-116.31"/>
</g>
<!-- Node1 -->
<g id="node2" class="node">
<title>Node1</title>
<g id="a_node2"><a xlink:href="../../d9/dea/classnap_1_1_resource.html" target="_top" xlink:title="Resource">
<polygon fill="white" stroke="black" points="243.5,-179.5 243.5,-198.5 301.5,-198.5 301.5,-179.5 243.5,-179.5"/>
<text text-anchor="middle" x="272.5" y="-186.5" font-family="Helvetica,sans-Serif" font-size="10.00">Resource</text>
</a>
</g>
</g>
<!-- Node1&#45;&gt;Node0 -->
<g id="edge1" class="edge">
<title>Node1&#45;&gt;Node0</title>
<path fill="none" stroke="midnightblue" d="M272.5,-168.8C272.5,-159.91 272.5,-149.78 272.5,-142.75"/>
<polygon fill="midnightblue" stroke="midnightblue" points="269,-169.08 272.5,-179.08 276,-169.08 269,-169.08"/>
</g>
<!-- Node2 -->
<g id="node3" class="node">
<title>Node2</title>
<g id="a_node3"><a xlink:href="../../de/d01/classnap_1_1rtti_1_1_object.html" target="_top" xlink:title="Object">
<polygon fill="white" stroke="black" points="250,-235.5 250,-254.5 295,-254.5 295,-235.5 250,-235.5"/>
<text text-anchor="middle" x="272.5" y="-242.5" font-family="Helvetica,sans-Serif" font-size="10.00">Object</text>
</a>
</g>
</g>
<!-- Node2&#45;&gt;Node1 -->
<g id="edge2" class="edge">
<title>Node2&#45;&gt;Node1</title>
<path fill="none" stroke="midnightblue" d="M272.5,-224.8C272.5,-215.91 272.5,-205.78 272.5,-198.75"/>
<polygon fill="midnightblue" stroke="midnightblue" points="269,-225.08 272.5,-235.08 276,-225.08 269,-225.08"/>
</g>
<!-- Node4 -->
<g id="node5" class="node">
<title>Node4</title>
<g id="a_node5"><a xlink:href="../../d7/d62/classnap_1_1_sequence_track_curve.html" target="_top" xlink:title="SequenceTrackCurve\&lt; T \&gt;">
<polygon fill="white" stroke="black" points="0,-6 0,-25 131,-25 131,-6 0,-6"/>
<text text-anchor="middle" x="65.5" y="-13" font-family="Helvetica,sans-Serif" font-size="10.00">SequenceTrackCurve&lt; T &gt;</text>
</a>
</g>
</g>
<!-- Node3&#45;&gt;Node4 -->
<g id="edge4" class="edge">
<title>Node3&#45;&gt;Node4</title>
<path fill="none" stroke="midnightblue" d="M116.7,-60.65C103.54,-49.31 86.12,-34.28 75.37,-25.01"/>
<polygon fill="midnightblue" stroke="midnightblue" points="114.76,-63.6 124.61,-67.48 119.33,-58.29 114.76,-63.6"/>
</g>
<!-- Node5 -->
<g id="node6" class="node">
<title>Node5</title>
<g id="a_node6"><a xlink:href="../../d7/d62/classnap_1_1_sequence_track_curve.html" target="_top" xlink:title="SequenceTrackCurve\l\&lt; CURVE_TYPE \&gt;">
<polygon fill="white" stroke="black" points="149.5,-0.5 149.5,-30.5 257.5,-30.5 257.5,-0.5 149.5,-0.5"/>
<text text-anchor="start" x="157.5" y="-18.5" font-family="Helvetica,sans-Serif" font-size="10.00">SequenceTrackCurve</text>
<text text-anchor="middle" x="203.5" y="-7.5" font-family="Helvetica,sans-Serif" font-size="10.00">&lt; CURVE_TYPE &gt;</text>
</a>
</g>
</g>
<!-- Node3&#45;&gt;Node5 -->
<g id="edge5" class="edge">
<title>Node3&#45;&gt;Node5</title>
<path fill="none" stroke="midnightblue" d="M151.99,-60.92C162.82,-51.58 176.64,-39.66 187.24,-30.52"/>
<polygon fill="midnightblue" stroke="midnightblue" points="149.67,-58.29 144.39,-67.48 154.24,-63.6 149.67,-58.29"/>
</g>
</g>
</svg>
