<?xml version="1.0" encoding="UTF-8" standalone="no"?>
<!DOCTYPE svg PUBLIC "-//W3C//DTD SVG 1.1//EN"
 "http://www.w3.org/Graphics/SVG/1.1/DTD/svg11.dtd">
<!-- Generated by graphviz version 2.48.0 (20210717.1556)
 -->
<!-- Title: CameraComponentInstance Pages: 1 -->
<svg width="350pt" height="196pt"
 viewBox="0.00 0.00 349.50 196.00" xmlns="http://www.w3.org/2000/svg" xmlns:xlink="http://www.w3.org/1999/xlink">
<g id="graph0" class="graph" transform="scale(1 1) rotate(0) translate(4 192)">
<title>CameraComponentInstance</title>
<polygon fill="white" stroke="transparent" points="-4,4 -4,-192 345.5,-192 345.5,4 -4,4"/>
<!-- Node0 -->
<g id="node1" class="node">
<title>Node0</title>
<polygon fill="#bfbfbf" stroke="black" points="102,-56.5 102,-75.5 239,-75.5 239,-56.5 102,-56.5"/>
<text text-anchor="middle" x="170.5" y="-63.5" font-family="Helvetica,sans-Serif" font-size="10.00">CameraComponentInstance</text>
</g>
<!-- Node3 -->
<g id="node4" class="node">
<title>Node3</title>
<g id="a_node4"><a xlink:href="../../de/daa/classnap_1_1_ortho_camera_component_instance.html" target="_top" xlink:title="OrthoCameraComponentInstance">
<polygon fill="white" stroke="black" points="0,-0.5 0,-19.5 161,-19.5 161,-0.5 0,-0.5"/>
<text text-anchor="middle" x="80.5" y="-7.5" font-family="Helvetica,sans-Serif" font-size="10.00">OrthoCameraComponentInstance</text>
</a>
</g>
</g>
<!-- Node0&#45;&gt;Node3 -->
<g id="edge3" class="edge">
<title>Node0&#45;&gt;Node3</title>
<path fill="none" stroke="midnightblue" d="M147.46,-51.18C130.9,-41.24 109.08,-28.15 94.92,-19.65"/>
<polygon fill="midnightblue" stroke="midnightblue" points="145.66,-54.18 156.04,-56.32 149.27,-48.18 145.66,-54.18"/>
</g>
<!-- Node4 -->
<g id="node5" class="node">
<title>Node4</title>
<g id="a_node5"><a xlink:href="../../d2/d87/classnap_1_1_persp_camera_component_instance.html" target="_top" xlink:title="PerspCameraComponentInstance">
<polygon fill="white" stroke="black" points="179.5,-0.5 179.5,-19.5 341.5,-19.5 341.5,-0.5 179.5,-0.5"/>
<text text-anchor="middle" x="260.5" y="-7.5" font-family="Helvetica,sans-Serif" font-size="10.00">PerspCameraComponentInstance</text>
</a>
</g>
</g>
<!-- Node0&#45;&gt;Node4 -->
<g id="edge4" class="edge">
<title>Node0&#45;&gt;Node4</title>
<path fill="none" stroke="midnightblue" d="M193.54,-51.18C210.1,-41.24 231.92,-28.15 246.08,-19.65"/>
<polygon fill="midnightblue" stroke="midnightblue" points="191.73,-48.18 184.96,-56.32 195.34,-54.18 191.73,-48.18"/>
</g>
<!-- Node1 -->
<g id="node2" class="node">
<title>Node1</title>
<g id="a_node2"><a xlink:href="../../d9/df2/classnap_1_1_component_instance.html" target="_top" xlink:title="ComponentInstance">
<polygon fill="white" stroke="black" points="119,-112.5 119,-131.5 222,-131.5 222,-112.5 119,-112.5"/>
<text text-anchor="middle" x="170.5" y="-119.5" font-family="Helvetica,sans-Serif" font-size="10.00">ComponentInstance</text>
</a>
</g>
</g>
<!-- Node1&#45;&gt;Node0 -->
<g id="edge1" class="edge">
<title>Node1&#45;&gt;Node0</title>
<path fill="none" stroke="midnightblue" d="M170.5,-101.8C170.5,-92.91 170.5,-82.78 170.5,-75.75"/>
<polygon fill="midnightblue" stroke="midnightblue" points="167,-102.08 170.5,-112.08 174,-102.08 167,-102.08"/>
</g>
<!-- Node2 -->
<g id="node3" class="node">
<title>Node2</title>
<g id="a_node3"><a xlink:href="../../de/d01/classnap_1_1rtti_1_1_object.html" target="_top" xlink:title="Object">
<polygon fill="white" stroke="black" points="148,-168.5 148,-187.5 193,-187.5 193,-168.5 148,-168.5"/>
<text text-anchor="middle" x="170.5" y="-175.5" font-family="Helvetica,sans-Serif" font-size="10.00">Object</text>
</a>
</g>
</g>
<!-- Node2&#45;&gt;Node1 -->
<g id="edge2" class="edge">
<title>Node2&#45;&gt;Node1</title>
<path fill="none" stroke="midnightblue" d="M170.5,-157.8C170.5,-148.91 170.5,-138.78 170.5,-131.75"/>
<polygon fill="midnightblue" stroke="midnightblue" points="167,-158.08 170.5,-168.08 174,-158.08 167,-158.08"/>
</g>
</g>
</svg>
