<?xml version="1.0" encoding="UTF-8" standalone="no"?>
<!DOCTYPE svg PUBLIC "-//W3C//DTD SVG 1.1//EN"
 "http://www.w3.org/Graphics/SVG/1.1/DTD/svg11.dtd">
<!-- Generated by graphviz version 2.43.0 (0)
 -->
<!-- Title: ComponentInstancePtrInitProxy&lt; TargetComponentType, SourceComponentType &gt; Pages: 1 -->
<svg width="397pt" height="185pt"
 viewBox="0.00 0.00 397.00 185.00" xmlns="http://www.w3.org/2000/svg" xmlns:xlink="http://www.w3.org/1999/xlink">
<g id="graph0" class="graph" transform="scale(1 1) rotate(0) translate(4 181)">
<title>ComponentInstancePtrInitProxy&lt; TargetComponentType, SourceComponentType &gt;</title>
<polygon fill="white" stroke="transparent" points="-4,4 -4,-181 393,-181 393,4 -4,4"/>
<!-- Node1 -->
<g id="node1" class="node">
<title>Node1</title>
<g id="a_node1"><a xlink:title=" ">
<polygon fill="#bfbfbf" stroke="black" points="92.5,-0.5 92.5,-41.5 259.5,-41.5 259.5,-0.5 92.5,-0.5"/>
<text text-anchor="start" x="100.5" y="-29.5" font-family="Helvetica,sans-Serif" font-size="10.00">ComponentInstancePtrInit</text>
<text text-anchor="start" x="100.5" y="-18.5" font-family="Helvetica,sans-Serif" font-size="10.00">Proxy&lt; TargetComponentType,</text>
<text text-anchor="middle" x="176" y="-7.5" font-family="Helvetica,sans-Serif" font-size="10.00"> SourceComponentType &gt;</text>
</a>
</g>
</g>
<!-- Node2 -->
<g id="node2" class="node">
<title>Node2</title>
<g id="a_node2"><a xlink:href="../../d1/dcd/classnap_1_1_component_ptr.html" target="_top" xlink:title=" ">
<polygon fill="white" stroke="black" points="0,-89.5 0,-119.5 184,-119.5 184,-89.5 0,-89.5"/>
<text text-anchor="start" x="8" y="-107.5" font-family="Helvetica,sans-Serif" font-size="10.00">ComponentPtr&lt; TargetComponent</text>
<text text-anchor="middle" x="92" y="-96.5" font-family="Helvetica,sans-Serif" font-size="10.00">Type &gt;</text>
</a>
</g>
</g>
<!-- Node2&#45;&gt;Node1 -->
<g id="edge1" class="edge">
<title>Node2&#45;&gt;Node1</title>
<path fill="none" stroke="#9a32cd" stroke-dasharray="5,2" d="M88,-79.34C88.05,-72.62 89.29,-65.63 93,-60 97.97,-52.45 104.84,-46.39 112.52,-41.51"/>
<polygon fill="#9a32cd" stroke="#9a32cd" points="84.52,-79.72 88.73,-89.44 91.5,-79.22 84.52,-79.72"/>
<text text-anchor="middle" x="165.5" y="-63" font-family="Helvetica,sans-Serif" font-size="10.00"> mComponentMemberPointer</text>
</g>
<!-- Node3 -->
<g id="node3" class="node">
<title>Node3</title>
<g id="a_node3"><a xlink:href="../../d9/df2/classnap_1_1_component_instance.html" target="_top" xlink:title=" ">
<polygon fill="white" stroke="black" points="203,-95 203,-114 317,-114 317,-95 203,-95"/>
<text text-anchor="middle" x="260" y="-102" font-family="Helvetica,sans-Serif" font-size="10.00">ComponentInstance</text>
</a>
</g>
</g>
<!-- Node3&#45;&gt;Node1 -->
<g id="edge2" class="edge">
<title>Node3&#45;&gt;Node1</title>
<path fill="none" stroke="#9a32cd" stroke-dasharray="5,2" d="M253.61,-85.61C249.97,-77.16 244.77,-67.34 238,-60 231.58,-53.04 223.61,-46.89 215.53,-41.68"/>
<polygon fill="#9a32cd" stroke="#9a32cd" points="250.38,-86.95 257.28,-94.98 256.9,-84.39 250.38,-86.95"/>
<text text-anchor="middle" x="317" y="-63" font-family="Helvetica,sans-Serif" font-size="10.00"> mSourceComponentInstance</text>
</g>
<!-- Node4 -->
<g id="node4" class="node">
<title>Node4</title>
<g id="a_node4"><a xlink:href="../../de/d01/classnap_1_1rtti_1_1_object.html" target="_top" xlink:title=" ">
<polygon fill="white" stroke="black" points="236,-157.5 236,-176.5 284,-176.5 284,-157.5 236,-157.5"/>
<text text-anchor="middle" x="260" y="-164.5" font-family="Helvetica,sans-Serif" font-size="10.00">Object</text>
</a>
</g>
</g>
<!-- Node4&#45;&gt;Node3 -->
<g id="edge3" class="edge">
<title>Node4&#45;&gt;Node3</title>
<path fill="none" stroke="midnightblue" d="M260,-147C260,-136 260,-122.68 260,-114.15"/>
<polygon fill="midnightblue" stroke="midnightblue" points="256.5,-147.33 260,-157.33 263.5,-147.33 256.5,-147.33"/>
</g>
</g>
</svg>
