<?xml version="1.0" encoding="UTF-8" standalone="no"?>
<!DOCTYPE svg PUBLIC "-//W3C//DTD SVG 1.1//EN"
 "http://www.w3.org/Graphics/SVG/1.1/DTD/svg11.dtd">
<!-- Generated by graphviz version 3.0.0 (20220226.1711)
 -->
<!-- Title: WebSocketConnectionFailedEvent Pages: 1 -->
<svg width="234pt" height="220pt"
 viewBox="0.00 0.00 234.00 220.00" xmlns="http://www.w3.org/2000/svg" xmlns:xlink="http://www.w3.org/1999/xlink">
<g id="graph0" class="graph" transform="scale(1 1) rotate(0) translate(4 216)">
<title>WebSocketConnectionFailedEvent</title>
<polygon fill="white" stroke="transparent" points="-4,4 -4,-216 230,-216 230,4 -4,4"/>
<!-- Node4 -->
<g id="node1" class="node">
<title>Node4</title>
<polygon fill="#bfbfbf" stroke="black" points="65.5,-0.5 65.5,-30.5 208.5,-30.5 208.5,-0.5 65.5,-0.5"/>
<text text-anchor="start" x="73.5" y="-18.5" font-family="Helvetica,sans-Serif" font-size="10.00">WebSocketConnectionFailed</text>
<text text-anchor="middle" x="137" y="-7.5" font-family="Helvetica,sans-Serif" font-size="10.00">Event</text>
</g>
<!-- Node5 -->
<g id="node2" class="node">
<title>Node5</title>
<g id="a_node2"><a xlink:href="../../de/d42/classnap_1_1_web_socket_connection_event.html" target="_top" xlink:title="WebSocketConnectionEvent">
<polygon fill="white" stroke="black" points="67,-68.5 67,-87.5 207,-87.5 207,-68.5 67,-68.5"/>
<text text-anchor="middle" x="137" y="-75.5" font-family="Helvetica,sans-Serif" font-size="10.00">WebSocketConnectionEvent</text>
</a>
</g>
</g>
<!-- Node5&#45;&gt;Node4 -->
<g id="edge1" class="edge">
<title>Node5&#45;&gt;Node4</title>
<path fill="none" stroke="midnightblue" d="M137,-58.22C137,-49.36 137,-38.96 137,-30.76"/>
<polygon fill="midnightblue" stroke="midnightblue" points="133.5,-58.33 137,-68.33 140.5,-58.33 133.5,-58.33"/>
</g>
<!-- Node6 -->
<g id="node3" class="node">
<title>Node6</title>
<g id="a_node3"><a xlink:href="../../d6/d83/classnap_1_1_web_socket_event.html" target="_top" xlink:title="WebSocketEvent">
<polygon fill="white" stroke="black" points="0,-135.5 0,-154.5 92,-154.5 92,-135.5 0,-135.5"/>
<text text-anchor="middle" x="46" y="-142.5" font-family="Helvetica,sans-Serif" font-size="10.00">WebSocketEvent</text>
</a>
</g>
</g>
<!-- Node6&#45;&gt;Node5 -->
<g id="edge2" class="edge">
<title>Node6&#45;&gt;Node5</title>
<path fill="none" stroke="midnightblue" d="M66.41,-129.42C84.4,-116.57 110.01,-98.28 124.92,-87.63"/>
<polygon fill="midnightblue" stroke="midnightblue" points="64.38,-126.57 58.27,-135.23 68.44,-132.27 64.38,-126.57"/>
</g>
<!-- Node7 -->
<g id="node4" class="node">
<title>Node7</title>
<g id="a_node4"><a xlink:href="../../d2/da2/classnap_1_1_event.html" target="_top" xlink:title="Event">
<polygon fill="white" stroke="black" points="25.5,-192.5 25.5,-211.5 66.5,-211.5 66.5,-192.5 25.5,-192.5"/>
<text text-anchor="middle" x="46" y="-199.5" font-family="Helvetica,sans-Serif" font-size="10.00">Event</text>
</a>
</g>
</g>
<!-- Node7&#45;&gt;Node6 -->
<g id="edge3" class="edge">
<title>Node7&#45;&gt;Node6</title>
<path fill="none" stroke="midnightblue" d="M46,-182.12C46,-172.82 46,-162.06 46,-154.71"/>
<polygon fill="midnightblue" stroke="midnightblue" points="42.5,-182.41 46,-192.41 49.5,-182.41 42.5,-182.41"/>
</g>
<!-- Node8 -->
<g id="node5" class="node">
<title>Node8</title>
<g id="a_node5"><a xlink:href="../../d6/d2e/classnap_1_1_web_socket_connection.html" target="_top" xlink:title="WebSocketConnection">
<polygon fill="white" stroke="black" points="110,-135.5 110,-154.5 226,-154.5 226,-135.5 110,-135.5"/>
<text text-anchor="middle" x="168" y="-142.5" font-family="Helvetica,sans-Serif" font-size="10.00">WebSocketConnection</text>
</a>
</g>
</g>
<!-- Node8&#45;&gt;Node5 -->
<g id="edge4" class="edge">
<title>Node8&#45;&gt;Node5</title>
<path fill="none" stroke="#9a32cd" stroke-dasharray="5,2" d="M159.49,-126.16C153.51,-113.63 145.78,-97.41 141.11,-87.63"/>
<polygon fill="#9a32cd" stroke="#9a32cd" points="156.36,-127.71 163.82,-135.23 162.67,-124.7 156.36,-127.71"/>
<text text-anchor="middle" x="184.5" y="-109" font-family="Helvetica,sans-Serif" font-size="10.00"> mConnection</text>
</g>
</g>
</svg>
