<?xml version="1.0" encoding="UTF-8" standalone="no"?>
<!DOCTYPE svg PUBLIC "-//W3C//DTD SVG 1.1//EN"
 "http://www.w3.org/Graphics/SVG/1.1/DTD/svg11.dtd">
<!-- Generated by graphviz version 3.0.0 (20220226.1711)
 -->
<!-- Title: SequencePlayerEventOutput Pages: 1 -->
<svg width="282pt" height="230pt"
 viewBox="0.00 0.00 282.00 230.00" xmlns="http://www.w3.org/2000/svg" xmlns:xlink="http://www.w3.org/1999/xlink">
<g id="graph0" class="graph" transform="scale(1 1) rotate(0) translate(4 226)">
<title>SequencePlayerEventOutput</title>
<polygon fill="white" stroke="transparent" points="-4,4 -4,-226 278,-226 278,4 -4,4"/>
<!-- Node4 -->
<g id="node1" class="node">
<title>Node4</title>
<polygon fill="#bfbfbf" stroke="black" points="73.5,-0.5 73.5,-19.5 214.5,-19.5 214.5,-0.5 73.5,-0.5"/>
<text text-anchor="middle" x="144" y="-7.5" font-family="Helvetica,sans-Serif" font-size="10.00">SequencePlayerEventOutput</text>
</g>
<!-- Node5 -->
<g id="node2" class="node">
<title>Node5</title>
<g id="a_node2"><a xlink:href="../../de/dac/classnap_1_1_sequence_player_output.html" target="_top" xlink:title="SequencePlayerOutput">
<polygon fill="white" stroke="black" points="16.5,-73 16.5,-92 133.5,-92 133.5,-73 16.5,-73"/>
<text text-anchor="middle" x="75" y="-80" font-family="Helvetica,sans-Serif" font-size="10.00">SequencePlayerOutput</text>
</a>
</g>
</g>
<!-- Node5&#45;&gt;Node4 -->
<g id="edge1" class="edge">
<title>Node5&#45;&gt;Node4</title>
<path fill="none" stroke="midnightblue" d="M90.47,-65.69C104.37,-51.49 124.26,-31.17 135.47,-19.72"/>
<polygon fill="midnightblue" stroke="midnightblue" points="87.95,-63.26 83.46,-72.86 92.96,-68.16 87.95,-63.26"/>
</g>
<!-- Node6 -->
<g id="node3" class="node">
<title>Node6</title>
<g id="a_node3"><a xlink:href="../../d9/dea/classnap_1_1_resource.html" target="_top" xlink:title="Resource">
<polygon fill="white" stroke="black" points="0,-145.5 0,-164.5 58,-164.5 58,-145.5 0,-145.5"/>
<text text-anchor="middle" x="29" y="-152.5" font-family="Helvetica,sans-Serif" font-size="10.00">Resource</text>
</a>
</g>
</g>
<!-- Node6&#45;&gt;Node5 -->
<g id="edge2" class="edge">
<title>Node6&#45;&gt;Node5</title>
<path fill="none" stroke="midnightblue" d="M40.36,-136.59C49.55,-122.5 62.12,-103.24 69.31,-92.22"/>
<polygon fill="midnightblue" stroke="midnightblue" points="37.17,-135.07 34.64,-145.36 43.04,-138.89 37.17,-135.07"/>
</g>
<!-- Node7 -->
<g id="node4" class="node">
<title>Node7</title>
<g id="a_node4"><a xlink:href="../../de/d01/classnap_1_1rtti_1_1_object.html" target="_top" xlink:title="Object">
<polygon fill="white" stroke="black" points="6.5,-202.5 6.5,-221.5 51.5,-221.5 51.5,-202.5 6.5,-202.5"/>
<text text-anchor="middle" x="29" y="-209.5" font-family="Helvetica,sans-Serif" font-size="10.00">Object</text>
</a>
</g>
</g>
<!-- Node7&#45;&gt;Node6 -->
<g id="edge3" class="edge">
<title>Node7&#45;&gt;Node6</title>
<path fill="none" stroke="midnightblue" d="M29,-192.12C29,-182.82 29,-172.06 29,-164.71"/>
<polygon fill="midnightblue" stroke="midnightblue" points="25.5,-192.41 29,-202.41 32.5,-192.41 25.5,-192.41"/>
</g>
<!-- Node8 -->
<g id="node5" class="node">
<title>Node8</title>
<g id="a_node5"><a xlink:href="../../df/dbe/classnap_1_1_sequence_service.html" target="_top" xlink:title="SequenceService">
<polygon fill="white" stroke="black" points="76,-145.5 76,-164.5 168,-164.5 168,-145.5 76,-145.5"/>
<text text-anchor="middle" x="122" y="-152.5" font-family="Helvetica,sans-Serif" font-size="10.00">SequenceService</text>
</a>
</g>
</g>
<!-- Node8&#45;&gt;Node5 -->
<g id="edge4" class="edge">
<title>Node8&#45;&gt;Node5</title>
<path fill="none" stroke="#9a32cd" stroke-dasharray="5,2" d="M110.66,-137C101.25,-122.87 88.23,-103.35 80.81,-92.22"/>
<polygon fill="#9a32cd" stroke="#9a32cd" points="107.78,-138.98 116.24,-145.36 113.6,-135.09 107.78,-138.98"/>
<text text-anchor="middle" x="124.5" y="-119" font-family="Helvetica,sans-Serif" font-size="10.00"> mService</text>
</g>
<!-- Node9 -->
<g id="node6" class="node">
<title>Node9</title>
<g id="a_node6"><a xlink:href="../../d8/d8e/classnap_1_1_service.html" target="_top" xlink:title="Service">
<polygon fill="white" stroke="black" points="98,-202.5 98,-221.5 146,-221.5 146,-202.5 98,-202.5"/>
<text text-anchor="middle" x="122" y="-209.5" font-family="Helvetica,sans-Serif" font-size="10.00">Service</text>
</a>
</g>
</g>
<!-- Node9&#45;&gt;Node8 -->
<g id="edge5" class="edge">
<title>Node9&#45;&gt;Node8</title>
<path fill="none" stroke="midnightblue" d="M122,-192.12C122,-182.82 122,-172.06 122,-164.71"/>
<polygon fill="midnightblue" stroke="midnightblue" points="118.5,-192.41 122,-202.41 125.5,-192.41 118.5,-192.41"/>
</g>
<!-- Node10 -->
<g id="node7" class="node">
<title>Node10</title>
<g id="a_node7"><a xlink:href="../../de/d80/classnap_1_1_signal.html" target="_top" xlink:title="Signal\&lt; const nap::\lSequenceEventBase &amp;\&gt;">
<polygon fill="white" stroke="black" points="152,-67.5 152,-97.5 274,-97.5 274,-67.5 152,-67.5"/>
<text text-anchor="start" x="160" y="-85.5" font-family="Helvetica,sans-Serif" font-size="10.00">Signal&lt; const nap::</text>
<text text-anchor="middle" x="213" y="-74.5" font-family="Helvetica,sans-Serif" font-size="10.00">SequenceEventBase &amp;&gt;</text>
</a>
</g>
</g>
<!-- Node10&#45;&gt;Node4 -->
<g id="edge6" class="edge">
<title>Node10&#45;&gt;Node4</title>
<path fill="none" stroke="#9a32cd" stroke-dasharray="5,2" d="M191.72,-59.76C178.59,-46.34 162.45,-29.85 152.7,-19.89"/>
<polygon fill="#9a32cd" stroke="#9a32cd" points="189.54,-62.53 199.04,-67.23 194.54,-57.64 189.54,-62.53"/>
<text text-anchor="middle" x="199.5" y="-41" font-family="Helvetica,sans-Serif" font-size="10.00"> mSignal</text>
</g>
</g>
</svg>
