<?xml version="1.0" encoding="UTF-8" standalone="no"?>
<!DOCTYPE svg PUBLIC "-//W3C//DTD SVG 1.1//EN"
 "http://www.w3.org/Graphics/SVG/1.1/DTD/svg11.dtd">
<!-- Generated by graphviz version 3.0.0 (20220226.1711)
 -->
<!-- Title: SequencePlayerIndependentClock Pages: 1 -->
<svg width="172pt" height="220pt"
 viewBox="0.00 0.00 172.00 220.00" xmlns="http://www.w3.org/2000/svg" xmlns:xlink="http://www.w3.org/1999/xlink">
<g id="graph0" class="graph" transform="scale(1 1) rotate(0) translate(4 216)">
<title>SequencePlayerIndependentClock</title>
<polygon fill="white" stroke="transparent" points="-4,4 -4,-216 168,-216 168,4 -4,4"/>
<!-- Node4 -->
<g id="node1" class="node">
<title>Node4</title>
<polygon fill="#bfbfbf" stroke="black" points="24,-0.5 24,-30.5 164,-30.5 164,-0.5 24,-0.5"/>
<text text-anchor="start" x="32" y="-18.5" font-family="Helvetica,sans-Serif" font-size="10.00">SequencePlayerIndependent</text>
<text text-anchor="middle" x="94" y="-7.5" font-family="Helvetica,sans-Serif" font-size="10.00">Clock</text>
</g>
<!-- Node5 -->
<g id="node2" class="node">
<title>Node5</title>
<g id="a_node2"><a xlink:href="../../dd/dcd/classnap_1_1_sequence_player_clock.html" target="_top" xlink:title="SequencePlayerClock">
<polygon fill="white" stroke="black" points="37.5,-68.5 37.5,-87.5 150.5,-87.5 150.5,-68.5 37.5,-68.5"/>
<text text-anchor="middle" x="94" y="-75.5" font-family="Helvetica,sans-Serif" font-size="10.00">SequencePlayerClock</text>
</a>
</g>
</g>
<!-- Node5&#45;&gt;Node4 -->
<g id="edge1" class="edge">
<title>Node5&#45;&gt;Node4</title>
<path fill="none" stroke="midnightblue" d="M94,-58.22C94,-49.36 94,-38.96 94,-30.76"/>
<polygon fill="midnightblue" stroke="midnightblue" points="90.5,-58.33 94,-68.33 97.5,-58.33 90.5,-58.33"/>
</g>
<!-- Node6 -->
<g id="node3" class="node">
<title>Node6</title>
<g id="a_node3"><a xlink:href="../../d9/dea/classnap_1_1_resource.html" target="_top" xlink:title="Resource">
<polygon fill="white" stroke="black" points="0,-135.5 0,-154.5 58,-154.5 58,-135.5 0,-135.5"/>
<text text-anchor="middle" x="29" y="-142.5" font-family="Helvetica,sans-Serif" font-size="10.00">Resource</text>
</a>
</g>
</g>
<!-- Node6&#45;&gt;Node5 -->
<g id="edge2" class="edge">
<title>Node6&#45;&gt;Node5</title>
<path fill="none" stroke="midnightblue" d="M45,-128C57.75,-115.25 75.11,-97.89 85.37,-87.63"/>
<polygon fill="midnightblue" stroke="midnightblue" points="42.36,-125.69 37.77,-135.23 47.31,-130.64 42.36,-125.69"/>
</g>
<!-- Node7 -->
<g id="node4" class="node">
<title>Node7</title>
<g id="a_node4"><a xlink:href="../../de/d01/classnap_1_1rtti_1_1_object.html" target="_top" xlink:title="Object">
<polygon fill="white" stroke="black" points="6.5,-192.5 6.5,-211.5 51.5,-211.5 51.5,-192.5 6.5,-192.5"/>
<text text-anchor="middle" x="29" y="-199.5" font-family="Helvetica,sans-Serif" font-size="10.00">Object</text>
</a>
</g>
</g>
<!-- Node7&#45;&gt;Node6 -->
<g id="edge3" class="edge">
<title>Node7&#45;&gt;Node6</title>
<path fill="none" stroke="midnightblue" d="M29,-182.12C29,-172.82 29,-162.06 29,-154.71"/>
<polygon fill="midnightblue" stroke="midnightblue" points="25.5,-182.41 29,-192.41 32.5,-182.41 25.5,-182.41"/>
</g>
<!-- Node8 -->
<g id="node5" class="node">
<title>Node8</title>
<g id="a_node5"><a xlink:href="../../db/dc3/classnap_1_1_slot.html" target="_top" xlink:title="Slot\&lt; double \&gt;">
<polygon fill="white" stroke="black" points="76,-135.5 76,-154.5 156,-154.5 156,-135.5 76,-135.5"/>
<text text-anchor="middle" x="116" y="-142.5" font-family="Helvetica,sans-Serif" font-size="10.00">Slot&lt; double &gt;</text>
</a>
</g>
</g>
<!-- Node8&#45;&gt;Node5 -->
<g id="edge4" class="edge">
<title>Node8&#45;&gt;Node5</title>
<path fill="none" stroke="#9a32cd" stroke-dasharray="5,2" d="M109.71,-125.41C105.5,-112.99 100.17,-97.22 96.92,-87.63"/>
<polygon fill="#9a32cd" stroke="#9a32cd" points="106.51,-126.88 113.03,-135.23 113.14,-124.64 106.51,-126.88"/>
<text text-anchor="middle" x="120.5" y="-109" font-family="Helvetica,sans-Serif" font-size="10.00"> mSlot</text>
</g>
</g>
</svg>
