<?xml version="1.0" encoding="UTF-8" standalone="no"?>
<!DOCTYPE svg PUBLIC "-//W3C//DTD SVG 1.1//EN"
 "http://www.w3.org/Graphics/SVG/1.1/DTD/svg11.dtd">
<!-- Generated by graphviz version 3.0.0 (20220226.1711)
 -->
<!-- Title: CalendarItem Pages: 1 -->
<svg width="401pt" height="180pt"
 viewBox="0.00 0.00 401.00 180.00" xmlns="http://www.w3.org/2000/svg" xmlns:xlink="http://www.w3.org/1999/xlink">
<g id="graph0" class="graph" transform="scale(1 1) rotate(0) translate(4 176)">
<title>CalendarItem</title>
<polygon fill="white" stroke="transparent" points="-4,4 -4,-176 397,-176 397,4 -4,4"/>
<!-- Node0 -->
<g id="node1" class="node">
<title>Node0</title>
<polygon fill="#bfbfbf" stroke="black" points="175,-76.5 175,-95.5 249,-95.5 249,-76.5 175,-76.5"/>
<text text-anchor="middle" x="212" y="-83.5" font-family="Helvetica,sans-Serif" font-size="10.00">CalendarItem</text>
</g>
<!-- Node3 -->
<g id="node4" class="node">
<title>Node3</title>
<g id="a_node4"><a xlink:href="../../dd/d1e/classnap_1_1_daily_calendar_item.html" target="_top" xlink:title="DailyCalendarItem">
<polygon fill="white" stroke="black" points="291.5,-152.5 291.5,-171.5 386.5,-171.5 386.5,-152.5 291.5,-152.5"/>
<text text-anchor="middle" x="339" y="-159.5" font-family="Helvetica,sans-Serif" font-size="10.00">DailyCalendarItem</text>
</a>
</g>
</g>
<!-- Node0&#45;&gt;Node3 -->
<g id="edge3" class="edge">
<title>Node0&#45;&gt;Node3</title>
<path fill="none" stroke="midnightblue" d="M230.34,-102.41C244.25,-114.88 264.73,-131.74 285,-143 291.58,-146.65 299,-149.83 306.15,-152.48"/>
<polygon fill="midnightblue" stroke="midnightblue" points="232.7,-99.83 222.96,-95.65 227.98,-104.99 232.7,-99.83"/>
</g>
<!-- Node4 -->
<g id="node5" class="node">
<title>Node4</title>
<g id="a_node5"><a xlink:href="../../d6/d5e/classnap_1_1_monthly_calendar_item.html" target="_top" xlink:title="MonthlyCalendarItem">
<polygon fill="white" stroke="black" points="285,-114.5 285,-133.5 393,-133.5 393,-114.5 285,-114.5"/>
<text text-anchor="middle" x="339" y="-121.5" font-family="Helvetica,sans-Serif" font-size="10.00">MonthlyCalendarItem</text>
</a>
</g>
</g>
<!-- Node0&#45;&gt;Node4 -->
<g id="edge4" class="edge">
<title>Node0&#45;&gt;Node4</title>
<path fill="none" stroke="midnightblue" d="M254.23,-98.54C271.24,-103.7 290.63,-109.6 306.47,-114.41"/>
<polygon fill="midnightblue" stroke="midnightblue" points="255.13,-95.15 244.54,-95.59 253.09,-101.85 255.13,-95.15"/>
</g>
<!-- Node5 -->
<g id="node6" class="node">
<title>Node5</title>
<g id="a_node6"><a xlink:href="../../dc/dc6/classnap_1_1_unique_calendar_item.html" target="_top" xlink:title="UniqueCalendarItem">
<polygon fill="white" stroke="black" points="287,-76.5 287,-95.5 391,-95.5 391,-76.5 287,-76.5"/>
<text text-anchor="middle" x="339" y="-83.5" font-family="Helvetica,sans-Serif" font-size="10.00">UniqueCalendarItem</text>
</a>
</g>
</g>
<!-- Node0&#45;&gt;Node5 -->
<g id="edge5" class="edge">
<title>Node0&#45;&gt;Node5</title>
<path fill="none" stroke="midnightblue" d="M259.32,-86C268.2,-86 277.55,-86 286.59,-86"/>
<polygon fill="midnightblue" stroke="midnightblue" points="259.16,-82.5 249.16,-86 259.16,-89.5 259.16,-82.5"/>
</g>
<!-- Node6 -->
<g id="node7" class="node">
<title>Node6</title>
<g id="a_node7"><a xlink:href="../../dc/df7/classnap_1_1_weekly_calendar_item.html" target="_top" xlink:title="WeeklyCalendarItem">
<polygon fill="white" stroke="black" points="285.5,-38.5 285.5,-57.5 392.5,-57.5 392.5,-38.5 285.5,-38.5"/>
<text text-anchor="middle" x="339" y="-45.5" font-family="Helvetica,sans-Serif" font-size="10.00">WeeklyCalendarItem</text>
</a>
</g>
</g>
<!-- Node0&#45;&gt;Node6 -->
<g id="edge6" class="edge">
<title>Node0&#45;&gt;Node6</title>
<path fill="none" stroke="midnightblue" d="M254.23,-73.46C271.24,-68.3 290.63,-62.4 306.47,-57.59"/>
<polygon fill="midnightblue" stroke="midnightblue" points="253.09,-70.15 244.54,-76.41 255.13,-76.85 253.09,-70.15"/>
</g>
<!-- Node7 -->
<g id="node8" class="node">
<title>Node7</title>
<g id="a_node8"><a xlink:href="../../d4/d63/classnap_1_1_yearly_calendar_item.html" target="_top" xlink:title="YearlyCalendarItem">
<polygon fill="white" stroke="black" points="288.5,-0.5 288.5,-19.5 389.5,-19.5 389.5,-0.5 288.5,-0.5"/>
<text text-anchor="middle" x="339" y="-7.5" font-family="Helvetica,sans-Serif" font-size="10.00">YearlyCalendarItem</text>
</a>
</g>
</g>
<!-- Node0&#45;&gt;Node7 -->
<g id="edge7" class="edge">
<title>Node0&#45;&gt;Node7</title>
<path fill="none" stroke="midnightblue" d="M230.34,-69.59C244.25,-57.12 264.73,-40.26 285,-29 291.58,-25.35 299,-22.17 306.15,-19.52"/>
<polygon fill="midnightblue" stroke="midnightblue" points="227.98,-67.01 222.96,-76.35 232.7,-72.17 227.98,-67.01"/>
</g>
<!-- Node1 -->
<g id="node2" class="node">
<title>Node1</title>
<g id="a_node2"><a xlink:href="../../d9/dea/classnap_1_1_resource.html" target="_top" xlink:title="Resource">
<polygon fill="white" stroke="black" points="81,-76.5 81,-95.5 139,-95.5 139,-76.5 81,-76.5"/>
<text text-anchor="middle" x="110" y="-83.5" font-family="Helvetica,sans-Serif" font-size="10.00">Resource</text>
</a>
</g>
</g>
<!-- Node1&#45;&gt;Node0 -->
<g id="edge1" class="edge">
<title>Node1&#45;&gt;Node0</title>
<path fill="none" stroke="midnightblue" d="M149.4,-86C157.76,-86 166.59,-86 174.86,-86"/>
<polygon fill="midnightblue" stroke="midnightblue" points="149.12,-82.5 139.12,-86 149.12,-89.5 149.12,-82.5"/>
</g>
<!-- Node2 -->
<g id="node3" class="node">
<title>Node2</title>
<g id="a_node3"><a xlink:href="../../de/d01/classnap_1_1rtti_1_1_object.html" target="_top" xlink:title="Object">
<polygon fill="white" stroke="black" points="0,-76.5 0,-95.5 45,-95.5 45,-76.5 0,-76.5"/>
<text text-anchor="middle" x="22.5" y="-83.5" font-family="Helvetica,sans-Serif" font-size="10.00">Object</text>
</a>
</g>
</g>
<!-- Node2&#45;&gt;Node1 -->
<g id="edge2" class="edge">
<title>Node2&#45;&gt;Node1</title>
<path fill="none" stroke="midnightblue" d="M55.31,-86C63.73,-86 72.76,-86 80.96,-86"/>
<polygon fill="midnightblue" stroke="midnightblue" points="55.08,-82.5 45.08,-86 55.08,-89.5 55.08,-82.5"/>
</g>
</g>
</svg>
