<?xml version="1.0" encoding="UTF-8" standalone="no"?>
<!DOCTYPE svg PUBLIC "-//W3C//DTD SVG 1.1//EN"
 "http://www.w3.org/Graphics/SVG/1.1/DTD/svg11.dtd">
<!-- Generated by graphviz version 2.43.0 (0)
 -->
<!-- Title: BufferBindingStructInstance Pages: 1 -->
<svg width="342pt" height="297pt"
 viewBox="0.00 0.00 341.50 297.00" xmlns="http://www.w3.org/2000/svg" xmlns:xlink="http://www.w3.org/1999/xlink">
<g id="graph0" class="graph" transform="scale(1 1) rotate(0) translate(4 293)">
<title>BufferBindingStructInstance</title>
<polygon fill="white" stroke="transparent" points="-4,4 -4,-293 337.5,-293 337.5,4 -4,4"/>
<!-- Node1 -->
<g id="node1" class="node">
<title>Node1</title>
<g id="a_node1"><a xlink:title=" ">
<polygon fill="#bfbfbf" stroke="black" points="48,-0.5 48,-19.5 200,-19.5 200,-0.5 48,-0.5"/>
<text text-anchor="middle" x="124" y="-7.5" font-family="Helvetica,sans-Serif" font-size="10.00">BufferBindingStructInstance</text>
</a>
</g>
</g>
<!-- Node2 -->
<g id="node2" class="node">
<title>Node2</title>
<g id="a_node2"><a xlink:href="../../da/d5c/classnap_1_1_buffer_binding_instance.html" target="_top" xlink:title=" ">
<polygon fill="white" stroke="black" points="62,-57.5 62,-76.5 186,-76.5 186,-57.5 62,-57.5"/>
<text text-anchor="middle" x="124" y="-64.5" font-family="Helvetica,sans-Serif" font-size="10.00">BufferBindingInstance</text>
</a>
</g>
</g>
<!-- Node2&#45;&gt;Node1 -->
<g id="edge1" class="edge">
<title>Node2&#45;&gt;Node1</title>
<path fill="none" stroke="midnightblue" d="M124,-47.12C124,-37.82 124,-27.06 124,-19.71"/>
<polygon fill="midnightblue" stroke="midnightblue" points="120.5,-47.41 124,-57.41 127.5,-47.41 120.5,-47.41"/>
</g>
<!-- Node3 -->
<g id="node3" class="node">
<title>Node3</title>
<g id="a_node3"><a xlink:href="../../dd/df4/classnap_1_1_g_p_u_buffer.html" target="_top" xlink:title=" ">
<polygon fill="white" stroke="black" points="90.5,-124.5 90.5,-143.5 157.5,-143.5 157.5,-124.5 90.5,-124.5"/>
<text text-anchor="middle" x="124" y="-131.5" font-family="Helvetica,sans-Serif" font-size="10.00">GPUBuffer</text>
</a>
</g>
</g>
<!-- Node3&#45;&gt;Node2 -->
<g id="edge2" class="edge">
<title>Node3&#45;&gt;Node2</title>
<path fill="none" stroke="#9a32cd" stroke-dasharray="5,2" d="M124,-114.04C124,-101.67 124,-86.12 124,-76.63"/>
<polygon fill="#9a32cd" stroke="#9a32cd" points="120.5,-114.23 124,-124.23 127.5,-114.23 120.5,-114.23"/>
<text text-anchor="middle" x="145.5" y="-98" font-family="Helvetica,sans-Serif" font-size="10.00"> mBuffer</text>
</g>
<!-- Node4 -->
<g id="node4" class="node">
<title>Node4</title>
<g id="a_node4"><a xlink:href="../../d9/dea/classnap_1_1_resource.html" target="_top" xlink:title=" ">
<polygon fill="white" stroke="black" points="0,-191.5 0,-210.5 62,-210.5 62,-191.5 0,-191.5"/>
<text text-anchor="middle" x="31" y="-198.5" font-family="Helvetica,sans-Serif" font-size="10.00">Resource</text>
</a>
</g>
</g>
<!-- Node4&#45;&gt;Node3 -->
<g id="edge3" class="edge">
<title>Node4&#45;&gt;Node3</title>
<path fill="none" stroke="midnightblue" d="M51.86,-185.42C70.25,-172.57 96.41,-154.28 111.66,-143.63"/>
<polygon fill="midnightblue" stroke="midnightblue" points="49.73,-182.64 43.54,-191.23 53.74,-188.37 49.73,-182.64"/>
</g>
<!-- Node5 -->
<g id="node5" class="node">
<title>Node5</title>
<g id="a_node5"><a xlink:href="../../de/d01/classnap_1_1rtti_1_1_object.html" target="_top" xlink:title=" ">
<polygon fill="white" stroke="black" points="7,-269.5 7,-288.5 55,-288.5 55,-269.5 7,-269.5"/>
<text text-anchor="middle" x="31" y="-276.5" font-family="Helvetica,sans-Serif" font-size="10.00">Object</text>
</a>
</g>
</g>
<!-- Node5&#45;&gt;Node4 -->
<g id="edge4" class="edge">
<title>Node5&#45;&gt;Node4</title>
<path fill="none" stroke="midnightblue" d="M31,-259.22C31,-243.7 31,-222.36 31,-210.62"/>
<polygon fill="midnightblue" stroke="midnightblue" points="27.5,-259.28 31,-269.28 34.5,-259.28 27.5,-259.28"/>
</g>
<!-- Node6 -->
<g id="node6" class="node">
<title>Node6</title>
<g id="a_node6"><a xlink:href="../../d5/dc6/classnap_1_1_render_service.html" target="_top" xlink:title=" ">
<polygon fill="white" stroke="black" points="80.5,-191.5 80.5,-210.5 167.5,-210.5 167.5,-191.5 80.5,-191.5"/>
<text text-anchor="middle" x="124" y="-198.5" font-family="Helvetica,sans-Serif" font-size="10.00">RenderService</text>
</a>
</g>
</g>
<!-- Node6&#45;&gt;Node3 -->
<g id="edge5" class="edge">
<title>Node6&#45;&gt;Node3</title>
<path fill="none" stroke="#9a32cd" stroke-dasharray="5,2" d="M124,-181.04C124,-168.67 124,-153.12 124,-143.63"/>
<polygon fill="#9a32cd" stroke="#9a32cd" points="120.5,-181.23 124,-191.23 127.5,-181.23 120.5,-181.23"/>
<text text-anchor="middle" x="166" y="-165" font-family="Helvetica,sans-Serif" font-size="10.00"> mRenderService</text>
</g>
<!-- Node7 -->
<g id="node7" class="node">
<title>Node7</title>
<g id="a_node7"><a xlink:href="../../d8/d8e/classnap_1_1_service.html" target="_top" xlink:title=" ">
<polygon fill="white" stroke="black" points="85.5,-269.5 85.5,-288.5 138.5,-288.5 138.5,-269.5 85.5,-269.5"/>
<text text-anchor="middle" x="112" y="-276.5" font-family="Helvetica,sans-Serif" font-size="10.00">Service</text>
</a>
</g>
</g>
<!-- Node7&#45;&gt;Node6 -->
<g id="edge6" class="edge">
<title>Node7&#45;&gt;Node6</title>
<path fill="none" stroke="midnightblue" d="M114.96,-259.22C117.42,-243.7 120.79,-222.36 122.64,-210.62"/>
<polygon fill="midnightblue" stroke="midnightblue" points="111.48,-258.86 113.38,-269.28 118.39,-259.95 111.48,-258.86"/>
</g>
<!-- Node8 -->
<g id="node8" class="node">
<title>Node8</title>
<g id="a_node8"><a xlink:href="../../de/d80/classnap_1_1_signal.html" target="_top" xlink:title=" ">
<polygon fill="white" stroke="black" points="156.5,-269.5 156.5,-288.5 333.5,-288.5 333.5,-269.5 156.5,-269.5"/>
<text text-anchor="middle" x="245" y="-276.5" font-family="Helvetica,sans-Serif" font-size="10.00">Signal&lt; nap::RenderWindow &amp; &gt;</text>
</a>
</g>
</g>
<!-- Node8&#45;&gt;Node6 -->
<g id="edge7" class="edge">
<title>Node8&#45;&gt;Node6</title>
<path fill="none" stroke="#9a32cd" stroke-dasharray="5,2" d="M222.35,-263.77C197.47,-248.15 158.32,-223.56 137.72,-210.62"/>
<polygon fill="#9a32cd" stroke="#9a32cd" points="220.79,-266.93 231.12,-269.28 224.51,-261 220.79,-266.93"/>
<text text-anchor="middle" x="242" y="-243" font-family="Helvetica,sans-Serif" font-size="10.00"> windowRemoved</text>
<text text-anchor="middle" x="242" y="-232" font-family="Helvetica,sans-Serif" font-size="10.00">windowAdded</text>
</g>
<!-- Node9 -->
<g id="node9" class="node">
<title>Node9</title>
<g id="a_node9"><a xlink:href="../../de/d80/classnap_1_1_signal.html" target="_top" xlink:title=" ">
<polygon fill="white" stroke="black" points="185.5,-191.5 185.5,-210.5 276.5,-210.5 276.5,-191.5 185.5,-191.5"/>
<text text-anchor="middle" x="231" y="-198.5" font-family="Helvetica,sans-Serif" font-size="10.00">Signal&lt; Args &gt;</text>
</a>
</g>
</g>
<!-- Node9&#45;&gt;Node3 -->
<g id="edge8" class="edge">
<title>Node9&#45;&gt;Node3</title>
<path fill="none" stroke="#9a32cd" stroke-dasharray="5,2" d="M223.83,-181.66C220.29,-174.66 215.39,-167.13 209,-162 194.39,-150.27 174.61,-143.59 157.8,-139.82"/>
<polygon fill="#9a32cd" stroke="#9a32cd" points="220.8,-183.47 228.05,-191.2 227.21,-180.64 220.8,-183.47"/>
<text text-anchor="middle" x="255.5" y="-165" font-family="Helvetica,sans-Serif" font-size="10.00"> bufferChanged</text>
</g>
</g>
</svg>
