<?xml version="1.0" encoding="UTF-8" standalone="no"?>
<!DOCTYPE svg PUBLIC "-//W3C//DTD SVG 1.1//EN"
 "http://www.w3.org/Graphics/SVG/1.1/DTD/svg11.dtd">
<!-- Generated by graphviz version 2.48.0 (20210717.1556)
 -->
<!-- Title: BufferBindingStructInstance Pages: 1 -->
<svg width="311pt" height="297pt"
 viewBox="0.00 0.00 310.50 297.00" xmlns="http://www.w3.org/2000/svg" xmlns:xlink="http://www.w3.org/1999/xlink">
<g id="graph0" class="graph" transform="scale(1 1) rotate(0) translate(4 293)">
<title>BufferBindingStructInstance</title>
<polygon fill="white" stroke="transparent" points="-4,4 -4,-293 306.5,-293 306.5,4 -4,4"/>
<!-- Node2 -->
<g id="node1" class="node">
<title>Node2</title>
<polygon fill="#bfbfbf" stroke="black" points="47.5,-0.5 47.5,-19.5 184.5,-19.5 184.5,-0.5 47.5,-0.5"/>
<text text-anchor="middle" x="116" y="-7.5" font-family="Helvetica,sans-Serif" font-size="10.00">BufferBindingStructInstance</text>
</g>
<!-- Node3 -->
<g id="node2" class="node">
<title>Node3</title>
<g id="a_node2"><a xlink:href="../../da/d5c/classnap_1_1_buffer_binding_instance.html" target="_top" xlink:title="BufferBindingInstance">
<polygon fill="white" stroke="black" points="61,-57.5 61,-76.5 171,-76.5 171,-57.5 61,-57.5"/>
<text text-anchor="middle" x="116" y="-64.5" font-family="Helvetica,sans-Serif" font-size="10.00">BufferBindingInstance</text>
</a>
</g>
</g>
<!-- Node3&#45;&gt;Node2 -->
<g id="edge1" class="edge">
<title>Node3&#45;&gt;Node2</title>
<path fill="none" stroke="midnightblue" d="M116,-47.12C116,-37.82 116,-27.06 116,-19.71"/>
<polygon fill="midnightblue" stroke="midnightblue" points="112.5,-47.41 116,-57.41 119.5,-47.41 112.5,-47.41"/>
</g>
<!-- Node4 -->
<g id="node3" class="node">
<title>Node4</title>
<g id="a_node3"><a xlink:href="../../dd/df4/classnap_1_1_g_p_u_buffer.html" target="_top" xlink:title="GPUBuffer">
<polygon fill="white" stroke="black" points="85,-124.5 85,-143.5 147,-143.5 147,-124.5 85,-124.5"/>
<text text-anchor="middle" x="116" y="-131.5" font-family="Helvetica,sans-Serif" font-size="10.00">GPUBuffer</text>
</a>
</g>
</g>
<!-- Node4&#45;&gt;Node3 -->
<g id="edge2" class="edge">
<title>Node4&#45;&gt;Node3</title>
<path fill="none" stroke="#9a32cd" stroke-dasharray="5,2" d="M116,-114.04C116,-101.67 116,-86.12 116,-76.63"/>
<polygon fill="#9a32cd" stroke="#9a32cd" points="112.5,-114.23 116,-124.23 119.5,-114.23 112.5,-114.23"/>
<text text-anchor="middle" x="134.5" y="-98" font-family="Helvetica,sans-Serif" font-size="10.00"> mBuffer</text>
</g>
<!-- Node5 -->
<g id="node4" class="node">
<title>Node5</title>
<g id="a_node4"><a xlink:href="../../d9/dea/classnap_1_1_resource.html" target="_top" xlink:title="Resource">
<polygon fill="white" stroke="black" points="0,-191.5 0,-210.5 58,-210.5 58,-191.5 0,-191.5"/>
<text text-anchor="middle" x="29" y="-198.5" font-family="Helvetica,sans-Serif" font-size="10.00">Resource</text>
</a>
</g>
</g>
<!-- Node5&#45;&gt;Node4 -->
<g id="edge3" class="edge">
<title>Node5&#45;&gt;Node4</title>
<path fill="none" stroke="midnightblue" d="M48.99,-185.07C66.16,-172.24 90.32,-154.19 104.45,-143.63"/>
<polygon fill="midnightblue" stroke="midnightblue" points="46.65,-182.44 40.73,-191.23 50.84,-188.05 46.65,-182.44"/>
</g>
<!-- Node6 -->
<g id="node5" class="node">
<title>Node6</title>
<g id="a_node5"><a xlink:href="../../de/d01/classnap_1_1rtti_1_1_object.html" target="_top" xlink:title="Object">
<polygon fill="white" stroke="black" points="6.5,-269.5 6.5,-288.5 51.5,-288.5 51.5,-269.5 6.5,-269.5"/>
<text text-anchor="middle" x="29" y="-276.5" font-family="Helvetica,sans-Serif" font-size="10.00">Object</text>
</a>
</g>
</g>
<!-- Node6&#45;&gt;Node5 -->
<g id="edge4" class="edge">
<title>Node6&#45;&gt;Node5</title>
<path fill="none" stroke="midnightblue" d="M29,-259.22C29,-243.7 29,-222.36 29,-210.62"/>
<polygon fill="midnightblue" stroke="midnightblue" points="25.5,-259.28 29,-269.28 32.5,-259.28 25.5,-259.28"/>
</g>
<!-- Node7 -->
<g id="node6" class="node">
<title>Node7</title>
<g id="a_node6"><a xlink:href="../../d5/dc6/classnap_1_1_render_service.html" target="_top" xlink:title="RenderService">
<polygon fill="white" stroke="black" points="76.5,-191.5 76.5,-210.5 155.5,-210.5 155.5,-191.5 76.5,-191.5"/>
<text text-anchor="middle" x="116" y="-198.5" font-family="Helvetica,sans-Serif" font-size="10.00">RenderService</text>
</a>
</g>
</g>
<!-- Node7&#45;&gt;Node4 -->
<g id="edge5" class="edge">
<title>Node7&#45;&gt;Node4</title>
<path fill="none" stroke="#9a32cd" stroke-dasharray="5,2" d="M116,-181.04C116,-168.67 116,-153.12 116,-143.63"/>
<polygon fill="#9a32cd" stroke="#9a32cd" points="112.5,-181.23 116,-191.23 119.5,-181.23 112.5,-181.23"/>
<text text-anchor="middle" x="153" y="-165" font-family="Helvetica,sans-Serif" font-size="10.00"> mRenderService</text>
</g>
<!-- Node8 -->
<g id="node7" class="node">
<title>Node8</title>
<g id="a_node7"><a xlink:href="../../d8/d8e/classnap_1_1_service.html" target="_top" xlink:title="Service">
<polygon fill="white" stroke="black" points="81,-269.5 81,-288.5 129,-288.5 129,-269.5 81,-269.5"/>
<text text-anchor="middle" x="105" y="-276.5" font-family="Helvetica,sans-Serif" font-size="10.00">Service</text>
</a>
</g>
</g>
<!-- Node8&#45;&gt;Node7 -->
<g id="edge6" class="edge">
<title>Node8&#45;&gt;Node7</title>
<path fill="none" stroke="midnightblue" d="M107.72,-259.22C109.96,-243.7 113.05,-222.36 114.75,-210.62"/>
<polygon fill="midnightblue" stroke="midnightblue" points="104.23,-258.88 106.26,-269.28 111.16,-259.89 104.23,-258.88"/>
</g>
<!-- Node9 -->
<g id="node8" class="node">
<title>Node9</title>
<g id="a_node8"><a xlink:href="../../de/d80/classnap_1_1_signal.html" target="_top" xlink:title="Signal\&lt; nap::RenderWindow &amp;\&gt;">
<polygon fill="white" stroke="black" points="147.5,-269.5 147.5,-288.5 302.5,-288.5 302.5,-269.5 147.5,-269.5"/>
<text text-anchor="middle" x="225" y="-276.5" font-family="Helvetica,sans-Serif" font-size="10.00">Signal&lt; nap::RenderWindow &amp;&gt;</text>
</a>
</g>
</g>
<!-- Node9&#45;&gt;Node7 -->
<g id="edge7" class="edge">
<title>Node9&#45;&gt;Node7</title>
<path fill="none" stroke="#9a32cd" stroke-dasharray="5,2" d="M204,-263.36C181.57,-247.72 146.75,-223.44 128.36,-210.62"/>
<polygon fill="#9a32cd" stroke="#9a32cd" points="202.29,-266.43 212.5,-269.28 206.3,-260.69 202.29,-266.43"/>
<text text-anchor="middle" x="220.5" y="-243" font-family="Helvetica,sans-Serif" font-size="10.00"> windowRemoved</text>
<text text-anchor="middle" x="220.5" y="-232" font-family="Helvetica,sans-Serif" font-size="10.00">windowAdded</text>
</g>
<!-- Node10 -->
<g id="node9" class="node">
<title>Node10</title>
<g id="a_node9"><a xlink:href="../../de/d80/classnap_1_1_signal.html" target="_top" xlink:title="Signal\&lt; Args \&gt;">
<polygon fill="white" stroke="black" points="174,-191.5 174,-210.5 256,-210.5 256,-191.5 174,-191.5"/>
<text text-anchor="middle" x="215" y="-198.5" font-family="Helvetica,sans-Serif" font-size="10.00">Signal&lt; Args &gt;</text>
</a>
</g>
</g>
<!-- Node10&#45;&gt;Node4 -->
<g id="edge8" class="edge">
<title>Node10&#45;&gt;Node4</title>
<path fill="none" stroke="#9a32cd" stroke-dasharray="5,2" d="M207.75,-181.75C204.2,-174.76 199.31,-167.23 193,-162 179.91,-151.16 162.17,-144.55 147.02,-140.58"/>
<polygon fill="#9a32cd" stroke="#9a32cd" points="204.73,-183.56 212,-191.26 211.12,-180.7 204.73,-183.56"/>
<text text-anchor="middle" x="234.5" y="-165" font-family="Helvetica,sans-Serif" font-size="10.00"> bufferChanged</text>
</g>
</g>
</svg>
