<?xml version="1.0" encoding="UTF-8" standalone="no"?>
<!DOCTYPE svg PUBLIC "-//W3C//DTD SVG 1.1//EN"
 "http://www.w3.org/Graphics/SVG/1.1/DTD/svg11.dtd">
<!-- Generated by graphviz version 3.0.0 (20220226.1711)
 -->
<!-- Title: SequencePlayerAudioOutput Pages: 1 -->
<svg width="150pt" height="196pt"
 viewBox="0.00 0.00 150.00 196.00" xmlns="http://www.w3.org/2000/svg" xmlns:xlink="http://www.w3.org/1999/xlink">
<g id="graph0" class="graph" transform="scale(1 1) rotate(0) translate(4 192)">
<title>SequencePlayerAudioOutput</title>
<polygon fill="white" stroke="transparent" points="-4,4 -4,-192 146,-192 146,4 -4,4"/>
<!-- Node0 -->
<g id="node1" class="node">
<title>Node0</title>
<polygon fill="#bfbfbf" stroke="black" points="0,-0.5 0,-19.5 142,-19.5 142,-0.5 0,-0.5"/>
<text text-anchor="middle" x="71" y="-7.5" font-family="Helvetica,sans-Serif" font-size="10.00">SequencePlayerAudioOutput</text>
</g>
<!-- Node1 -->
<g id="node2" class="node">
<title>Node1</title>
<g id="a_node2"><a xlink:href="../../de/dac/classnap_1_1_sequence_player_output.html" target="_top" xlink:title="SequencePlayerOutput">
<polygon fill="white" stroke="black" points="12.5,-56.5 12.5,-75.5 129.5,-75.5 129.5,-56.5 12.5,-56.5"/>
<text text-anchor="middle" x="71" y="-63.5" font-family="Helvetica,sans-Serif" font-size="10.00">SequencePlayerOutput</text>
</a>
</g>
</g>
<!-- Node1&#45;&gt;Node0 -->
<g id="edge1" class="edge">
<title>Node1&#45;&gt;Node0</title>
<path fill="none" stroke="midnightblue" d="M71,-45.8C71,-36.91 71,-26.78 71,-19.75"/>
<polygon fill="midnightblue" stroke="midnightblue" points="67.5,-46.08 71,-56.08 74.5,-46.08 67.5,-46.08"/>
</g>
<!-- Node2 -->
<g id="node3" class="node">
<title>Node2</title>
<g id="a_node3"><a xlink:href="../../d9/dea/classnap_1_1_resource.html" target="_top" xlink:title="Resource">
<polygon fill="white" stroke="black" points="42,-112.5 42,-131.5 100,-131.5 100,-112.5 42,-112.5"/>
<text text-anchor="middle" x="71" y="-119.5" font-family="Helvetica,sans-Serif" font-size="10.00">Resource</text>
</a>
</g>
</g>
<!-- Node2&#45;&gt;Node1 -->
<g id="edge2" class="edge">
<title>Node2&#45;&gt;Node1</title>
<path fill="none" stroke="midnightblue" d="M71,-101.8C71,-92.91 71,-82.78 71,-75.75"/>
<polygon fill="midnightblue" stroke="midnightblue" points="67.5,-102.08 71,-112.08 74.5,-102.08 67.5,-102.08"/>
</g>
<!-- Node3 -->
<g id="node4" class="node">
<title>Node3</title>
<g id="a_node4"><a xlink:href="../../de/d01/classnap_1_1rtti_1_1_object.html" target="_top" xlink:title="Object">
<polygon fill="white" stroke="black" points="48.5,-168.5 48.5,-187.5 93.5,-187.5 93.5,-168.5 48.5,-168.5"/>
<text text-anchor="middle" x="71" y="-175.5" font-family="Helvetica,sans-Serif" font-size="10.00">Object</text>
</a>
</g>
</g>
<!-- Node3&#45;&gt;Node2 -->
<g id="edge3" class="edge">
<title>Node3&#45;&gt;Node2</title>
<path fill="none" stroke="midnightblue" d="M71,-157.8C71,-148.91 71,-138.78 71,-131.75"/>
<polygon fill="midnightblue" stroke="midnightblue" points="67.5,-158.08 71,-168.08 74.5,-158.08 67.5,-158.08"/>
</g>
</g>
</svg>
