<?xml version="1.0" encoding="UTF-8" standalone="no"?>
<!DOCTYPE svg PUBLIC "-//W3C//DTD SVG 1.1//EN"
 "http://www.w3.org/Graphics/SVG/1.1/DTD/svg11.dtd">
<!-- Generated by graphviz version 2.48.0 (20210717.1556)
 -->
<!-- Title: FillPolicy&lt; T &gt; Pages: 1 -->
<svg width="88pt" height="196pt"
 viewBox="0.00 0.00 88.00 196.00" xmlns="http://www.w3.org/2000/svg" xmlns:xlink="http://www.w3.org/1999/xlink">
<g id="graph0" class="graph" transform="scale(1 1) rotate(0) translate(4 192)">
<title>FillPolicy&lt; T &gt;</title>
<polygon fill="white" stroke="transparent" points="-4,4 -4,-192 84,-192 84,4 -4,4"/>
<!-- Node6 -->
<g id="node1" class="node">
<title>Node6</title>
<polygon fill="#bfbfbf" stroke="black" points="0,-0.5 0,-19.5 80,-19.5 80,-0.5 0,-0.5"/>
<text text-anchor="middle" x="40" y="-7.5" font-family="Helvetica,sans-Serif" font-size="10.00">FillPolicy&lt; T &gt;</text>
</g>
<!-- Node7 -->
<g id="node2" class="node">
<title>Node7</title>
<g id="a_node2"><a xlink:href="../../de/d80/classnap_1_1_base_fill_policy.html" target="_top" xlink:title="BaseFillPolicy">
<polygon fill="white" stroke="black" points="0.5,-56.5 0.5,-75.5 79.5,-75.5 79.5,-56.5 0.5,-56.5"/>
<text text-anchor="middle" x="40" y="-63.5" font-family="Helvetica,sans-Serif" font-size="10.00">BaseFillPolicy</text>
</a>
</g>
</g>
<!-- Node7&#45;&gt;Node6 -->
<g id="edge1" class="edge">
<title>Node7&#45;&gt;Node6</title>
<path fill="none" stroke="midnightblue" d="M40,-45.8C40,-36.91 40,-26.78 40,-19.75"/>
<polygon fill="midnightblue" stroke="midnightblue" points="36.5,-46.08 40,-56.08 43.5,-46.08 36.5,-46.08"/>
</g>
<!-- Node8 -->
<g id="node3" class="node">
<title>Node8</title>
<g id="a_node3"><a xlink:href="../../d9/dea/classnap_1_1_resource.html" target="_top" xlink:title="Resource">
<polygon fill="white" stroke="black" points="11,-112.5 11,-131.5 69,-131.5 69,-112.5 11,-112.5"/>
<text text-anchor="middle" x="40" y="-119.5" font-family="Helvetica,sans-Serif" font-size="10.00">Resource</text>
</a>
</g>
</g>
<!-- Node8&#45;&gt;Node7 -->
<g id="edge2" class="edge">
<title>Node8&#45;&gt;Node7</title>
<path fill="none" stroke="midnightblue" d="M40,-101.8C40,-92.91 40,-82.78 40,-75.75"/>
<polygon fill="midnightblue" stroke="midnightblue" points="36.5,-102.08 40,-112.08 43.5,-102.08 36.5,-102.08"/>
</g>
<!-- Node9 -->
<g id="node4" class="node">
<title>Node9</title>
<g id="a_node4"><a xlink:href="../../de/d01/classnap_1_1rtti_1_1_object.html" target="_top" xlink:title="Object">
<polygon fill="white" stroke="black" points="17.5,-168.5 17.5,-187.5 62.5,-187.5 62.5,-168.5 17.5,-168.5"/>
<text text-anchor="middle" x="40" y="-175.5" font-family="Helvetica,sans-Serif" font-size="10.00">Object</text>
</a>
</g>
</g>
<!-- Node9&#45;&gt;Node8 -->
<g id="edge3" class="edge">
<title>Node9&#45;&gt;Node8</title>
<path fill="none" stroke="midnightblue" d="M40,-157.8C40,-148.91 40,-138.78 40,-131.75"/>
<polygon fill="midnightblue" stroke="midnightblue" points="36.5,-158.08 40,-168.08 43.5,-158.08 36.5,-158.08"/>
</g>
</g>
</svg>
