<?xml version="1.0" encoding="UTF-8" standalone="no"?>
<!DOCTYPE svg PUBLIC "-//W3C//DTD SVG 1.1//EN"
 "http://www.w3.org/Graphics/SVG/1.1/DTD/svg11.dtd">
<!-- Generated by graphviz version 3.0.0 (20220226.1711)
 -->
<!-- Title: TypedUniformValueInstance&lt; T &gt; Pages: 1 -->
<svg width="254pt" height="209pt"
 viewBox="0.00 0.00 253.50 209.00" xmlns="http://www.w3.org/2000/svg" xmlns:xlink="http://www.w3.org/1999/xlink">
<g id="graph0" class="graph" transform="scale(1 1) rotate(0) translate(4 205)">
<title>TypedUniformValueInstance&lt; T &gt;</title>
<polygon fill="white" stroke="transparent" points="-4,4 -4,-205 249.5,-205 249.5,4 -4,4"/>
<!-- Node4 -->
<g id="node1" class="node">
<title>Node4</title>
<polygon fill="#bfbfbf" stroke="black" points="36.5,-0.5 36.5,-19.5 197.5,-19.5 197.5,-0.5 36.5,-0.5"/>
<text text-anchor="middle" x="117" y="-7.5" font-family="Helvetica,sans-Serif" font-size="10.00">TypedUniformValueInstance&lt; T &gt;</text>
</g>
<!-- Node5 -->
<g id="node2" class="node">
<title>Node5</title>
<g id="a_node2"><a xlink:href="../../d0/dac/classnap_1_1_uniform_value_instance.html" target="_top" xlink:title="UniformValueInstance">
<polygon fill="white" stroke="black" points="61.5,-57.5 61.5,-76.5 172.5,-76.5 172.5,-57.5 61.5,-57.5"/>
<text text-anchor="middle" x="117" y="-64.5" font-family="Helvetica,sans-Serif" font-size="10.00">UniformValueInstance</text>
</a>
</g>
</g>
<!-- Node5&#45;&gt;Node4 -->
<g id="edge1" class="edge">
<title>Node5&#45;&gt;Node4</title>
<path fill="none" stroke="midnightblue" d="M117,-47.12C117,-37.82 117,-27.06 117,-19.71"/>
<polygon fill="midnightblue" stroke="midnightblue" points="113.5,-47.41 117,-57.41 120.5,-47.41 113.5,-47.41"/>
</g>
<!-- Node6 -->
<g id="node3" class="node">
<title>Node6</title>
<g id="a_node3"><a xlink:href="../../dd/d94/classnap_1_1_uniform_leaf_instance.html" target="_top" xlink:title="UniformLeafInstance">
<polygon fill="white" stroke="black" points="0,-124.5 0,-143.5 104,-143.5 104,-124.5 0,-124.5"/>
<text text-anchor="middle" x="52" y="-131.5" font-family="Helvetica,sans-Serif" font-size="10.00">UniformLeafInstance</text>
</a>
</g>
</g>
<!-- Node6&#45;&gt;Node5 -->
<g id="edge2" class="edge">
<title>Node6&#45;&gt;Node5</title>
<path fill="none" stroke="midnightblue" d="M68,-117C80.75,-104.25 98.11,-86.89 108.37,-76.63"/>
<polygon fill="midnightblue" stroke="midnightblue" points="65.36,-114.69 60.77,-124.23 70.31,-119.64 65.36,-114.69"/>
</g>
<!-- Node7 -->
<g id="node4" class="node">
<title>Node7</title>
<g id="a_node4"><a xlink:href="../../d6/d6a/classnap_1_1_uniform_instance.html" target="_top" xlink:title="UniformInstance">
<polygon fill="white" stroke="black" points="9,-181.5 9,-200.5 95,-200.5 95,-181.5 9,-181.5"/>
<text text-anchor="middle" x="52" y="-188.5" font-family="Helvetica,sans-Serif" font-size="10.00">UniformInstance</text>
</a>
</g>
</g>
<!-- Node7&#45;&gt;Node6 -->
<g id="edge3" class="edge">
<title>Node7&#45;&gt;Node6</title>
<path fill="none" stroke="midnightblue" d="M52,-171.12C52,-161.82 52,-151.06 52,-143.71"/>
<polygon fill="midnightblue" stroke="midnightblue" points="48.5,-171.41 52,-181.41 55.5,-171.41 48.5,-171.41"/>
</g>
<!-- Node8 -->
<g id="node5" class="node">
<title>Node8</title>
<g id="a_node5"><a xlink:href="../../d5/dff/classnap_1_1_uniform_value_declaration.html" target="_top" xlink:title="UniformValueDeclaration">
<polygon fill="white" stroke="black" points="122.5,-124.5 122.5,-143.5 245.5,-143.5 245.5,-124.5 122.5,-124.5"/>
<text text-anchor="middle" x="184" y="-131.5" font-family="Helvetica,sans-Serif" font-size="10.00">UniformValueDeclaration</text>
</a>
</g>
</g>
<!-- Node8&#45;&gt;Node5 -->
<g id="edge4" class="edge">
<title>Node8&#45;&gt;Node5</title>
<path fill="none" stroke="#9a32cd" stroke-dasharray="5,2" d="M167.5,-117C154.36,-104.25 136.48,-86.89 125.89,-76.63"/>
<polygon fill="#9a32cd" stroke="#9a32cd" points="165.35,-119.78 174.96,-124.23 170.22,-114.76 165.35,-119.78"/>
<text text-anchor="middle" x="185.5" y="-98" font-family="Helvetica,sans-Serif" font-size="10.00"> mDeclaration</text>
</g>
<!-- Node9 -->
<g id="node6" class="node">
<title>Node9</title>
<g id="a_node6"><a xlink:href="../../d9/dfc/classnap_1_1_uniform_declaration.html" target="_top" xlink:title="UniformDeclaration">
<polygon fill="white" stroke="black" points="135,-181.5 135,-200.5 233,-200.5 233,-181.5 135,-181.5"/>
<text text-anchor="middle" x="184" y="-188.5" font-family="Helvetica,sans-Serif" font-size="10.00">UniformDeclaration</text>
</a>
</g>
</g>
<!-- Node9&#45;&gt;Node8 -->
<g id="edge5" class="edge">
<title>Node9&#45;&gt;Node8</title>
<path fill="none" stroke="midnightblue" d="M184,-171.12C184,-161.82 184,-151.06 184,-143.71"/>
<polygon fill="midnightblue" stroke="midnightblue" points="180.5,-171.41 184,-181.41 187.5,-171.41 180.5,-171.41"/>
</g>
</g>
</svg>
