<?xml version="1.0" encoding="UTF-8" standalone="no"?>
<!DOCTYPE svg PUBLIC "-//W3C//DTD SVG 1.1//EN"
 "http://www.w3.org/Graphics/SVG/1.1/DTD/svg11.dtd">
<!-- Generated by graphviz version 2.48.0 (20210717.1556)
 -->
<!-- Title: Parameter Pages: 1 -->
<svg width="70pt" height="140pt"
 viewBox="0.00 0.00 70.00 140.00" xmlns="http://www.w3.org/2000/svg" xmlns:xlink="http://www.w3.org/1999/xlink">
<g id="graph0" class="graph" transform="scale(1 1) rotate(0) translate(4 136)">
<title>Parameter</title>
<polygon fill="white" stroke="transparent" points="-4,4 -4,-136 66,-136 66,4 -4,4"/>
<!-- Node9 -->
<g id="node1" class="node">
<title>Node9</title>
<polygon fill="#bfbfbf" stroke="black" points="0,-0.5 0,-19.5 62,-19.5 62,-0.5 0,-0.5"/>
<text text-anchor="middle" x="31" y="-7.5" font-family="Helvetica,sans-Serif" font-size="10.00">Parameter</text>
</g>
<!-- Node10 -->
<g id="node2" class="node">
<title>Node10</title>
<g id="a_node2"><a xlink:href="../../d9/dea/classnap_1_1_resource.html" target="_top" xlink:title="Resource">
<polygon fill="white" stroke="black" points="2,-56.5 2,-75.5 60,-75.5 60,-56.5 2,-56.5"/>
<text text-anchor="middle" x="31" y="-63.5" font-family="Helvetica,sans-Serif" font-size="10.00">Resource</text>
</a>
</g>
</g>
<!-- Node10&#45;&gt;Node9 -->
<g id="edge1" class="edge">
<title>Node10&#45;&gt;Node9</title>
<path fill="none" stroke="midnightblue" d="M31,-45.8C31,-36.91 31,-26.78 31,-19.75"/>
<polygon fill="midnightblue" stroke="midnightblue" points="27.5,-46.08 31,-56.08 34.5,-46.08 27.5,-46.08"/>
</g>
<!-- Node11 -->
<g id="node3" class="node">
<title>Node11</title>
<g id="a_node3"><a xlink:href="../../de/d01/classnap_1_1rtti_1_1_object.html" target="_top" xlink:title="Object">
<polygon fill="white" stroke="black" points="8.5,-112.5 8.5,-131.5 53.5,-131.5 53.5,-112.5 8.5,-112.5"/>
<text text-anchor="middle" x="31" y="-119.5" font-family="Helvetica,sans-Serif" font-size="10.00">Object</text>
</a>
</g>
</g>
<!-- Node11&#45;&gt;Node10 -->
<g id="edge2" class="edge">
<title>Node11&#45;&gt;Node10</title>
<path fill="none" stroke="midnightblue" d="M31,-101.8C31,-92.91 31,-82.78 31,-75.75"/>
<polygon fill="midnightblue" stroke="midnightblue" points="27.5,-102.08 31,-112.08 34.5,-102.08 27.5,-102.08"/>
</g>
</g>
</svg>
