<?xml version="1.0" encoding="UTF-8" standalone="no"?>
<!DOCTYPE svg PUBLIC "-//W3C//DTD SVG 1.1//EN"
 "http://www.w3.org/Graphics/SVG/1.1/DTD/svg11.dtd">
<!-- Generated by graphviz version 3.0.0 (20220226.1711)
 -->
<!-- Title: IRenderTarget Pages: 1 -->
<svg width="316pt" height="84pt"
 viewBox="0.00 0.00 316.00 84.00" xmlns="http://www.w3.org/2000/svg" xmlns:xlink="http://www.w3.org/1999/xlink">
<g id="graph0" class="graph" transform="scale(1 1) rotate(0) translate(4 80)">
<title>IRenderTarget</title>
<polygon fill="white" stroke="transparent" points="-4,4 -4,-80 312,-80 312,4 -4,4"/>
<!-- Node0 -->
<g id="node1" class="node">
<title>Node0</title>
<polygon fill="#bfbfbf" stroke="black" points="94.5,-56.5 94.5,-75.5 171.5,-75.5 171.5,-56.5 94.5,-56.5"/>
<text text-anchor="middle" x="133" y="-63.5" font-family="Helvetica,sans-Serif" font-size="10.00">IRenderTarget</text>
</g>
<!-- Node1 -->
<g id="node2" class="node">
<title>Node1</title>
<g id="a_node2"><a xlink:href="../../de/dd1/classnap_1_1_render_target.html" target="_top" xlink:title="RenderTarget">
<polygon fill="white" stroke="black" points="0,-0.5 0,-19.5 74,-19.5 74,-0.5 0,-0.5"/>
<text text-anchor="middle" x="37" y="-7.5" font-family="Helvetica,sans-Serif" font-size="10.00">RenderTarget</text>
</a>
</g>
</g>
<!-- Node0&#45;&gt;Node1 -->
<g id="edge1" class="edge">
<title>Node0&#45;&gt;Node1</title>
<path fill="none" stroke="midnightblue" d="M108.43,-51.18C90.76,-41.24 67.49,-28.15 52.39,-19.65"/>
<polygon fill="midnightblue" stroke="midnightblue" points="107.14,-54.47 117.58,-56.32 110.58,-48.37 107.14,-54.47"/>
</g>
<!-- Node2 -->
<g id="node3" class="node">
<title>Node2</title>
<g id="a_node3"><a xlink:href="../../d6/d4f/classnap_1_1_render_window.html" target="_top" xlink:title="RenderWindow">
<polygon fill="white" stroke="black" points="92,-0.5 92,-19.5 174,-19.5 174,-0.5 92,-0.5"/>
<text text-anchor="middle" x="133" y="-7.5" font-family="Helvetica,sans-Serif" font-size="10.00">RenderWindow</text>
</a>
</g>
</g>
<!-- Node0&#45;&gt;Node2 -->
<g id="edge2" class="edge">
<title>Node0&#45;&gt;Node2</title>
<path fill="none" stroke="midnightblue" d="M133,-45.8C133,-36.91 133,-26.78 133,-19.75"/>
<polygon fill="midnightblue" stroke="midnightblue" points="129.5,-46.08 133,-56.08 136.5,-46.08 129.5,-46.08"/>
</g>
<!-- Node3 -->
<g id="node4" class="node">
<title>Node3</title>
<g id="a_node4"><a xlink:href="../../d1/d8d/classnap_1_1_snapshot_render_target.html" target="_top" xlink:title="SnapshotRenderTarget">
<polygon fill="white" stroke="black" points="192,-0.5 192,-19.5 308,-19.5 308,-0.5 192,-0.5"/>
<text text-anchor="middle" x="250" y="-7.5" font-family="Helvetica,sans-Serif" font-size="10.00">SnapshotRenderTarget</text>
</a>
</g>
</g>
<!-- Node0&#45;&gt;Node3 -->
<g id="edge3" class="edge">
<title>Node0&#45;&gt;Node3</title>
<path fill="none" stroke="midnightblue" d="M160.66,-52.23C182.55,-42.13 212.5,-28.31 231.55,-19.52"/>
<polygon fill="midnightblue" stroke="midnightblue" points="159.15,-49.08 151.54,-56.44 162.09,-55.43 159.15,-49.08"/>
</g>
</g>
</svg>
