<?xml version="1.0" encoding="UTF-8" standalone="no"?>
<!DOCTYPE svg PUBLIC "-//W3C//DTD SVG 1.1//EN"
 "http://www.w3.org/Graphics/SVG/1.1/DTD/svg11.dtd">
<!-- Generated by graphviz version 2.48.0 (20210717.1556)
 -->
<!-- Title: DeleteTrack Pages: 1 -->
<svg width="76pt" height="140pt"
 viewBox="0.00 0.00 76.00 140.00" xmlns="http://www.w3.org/2000/svg" xmlns:xlink="http://www.w3.org/1999/xlink">
<g id="graph0" class="graph" transform="scale(1 1) rotate(0) translate(4 136)">
<title>DeleteTrack</title>
<polygon fill="white" stroke="transparent" points="-4,4 -4,-136 72,-136 72,4 -4,4"/>
<!-- Node3 -->
<g id="node1" class="node">
<title>Node3</title>
<polygon fill="#bfbfbf" stroke="black" points="0,-0.5 0,-19.5 68,-19.5 68,-0.5 0,-0.5"/>
<text text-anchor="middle" x="34" y="-7.5" font-family="Helvetica,sans-Serif" font-size="10.00">DeleteTrack</text>
</g>
<!-- Node4 -->
<g id="node2" class="node">
<title>Node4</title>
<g id="a_node2"><a xlink:href="../../d5/d0e/classnap_1_1sequenceguiactions_1_1_track_action.html" target="_top" xlink:title="TrackAction">
<polygon fill="white" stroke="black" points="0,-56.5 0,-75.5 68,-75.5 68,-56.5 0,-56.5"/>
<text text-anchor="middle" x="34" y="-63.5" font-family="Helvetica,sans-Serif" font-size="10.00">TrackAction</text>
</a>
</g>
</g>
<!-- Node4&#45;&gt;Node3 -->
<g id="edge1" class="edge">
<title>Node4&#45;&gt;Node3</title>
<path fill="none" stroke="midnightblue" d="M34,-45.8C34,-36.91 34,-26.78 34,-19.75"/>
<polygon fill="midnightblue" stroke="midnightblue" points="30.5,-46.08 34,-56.08 37.5,-46.08 30.5,-46.08"/>
</g>
<!-- Node5 -->
<g id="node3" class="node">
<title>Node5</title>
<g id="a_node3"><a xlink:href="../../d6/d35/classnap_1_1sequenceguiactions_1_1_action.html" target="_top" xlink:title="Action">
<polygon fill="white" stroke="black" points="12,-112.5 12,-131.5 56,-131.5 56,-112.5 12,-112.5"/>
<text text-anchor="middle" x="34" y="-119.5" font-family="Helvetica,sans-Serif" font-size="10.00">Action</text>
</a>
</g>
</g>
<!-- Node5&#45;&gt;Node4 -->
<g id="edge2" class="edge">
<title>Node5&#45;&gt;Node4</title>
<path fill="none" stroke="midnightblue" d="M34,-101.8C34,-92.91 34,-82.78 34,-75.75"/>
<polygon fill="midnightblue" stroke="midnightblue" points="30.5,-102.08 34,-112.08 37.5,-102.08 30.5,-102.08"/>
</g>
</g>
</svg>
