<?xml version="1.0" encoding="UTF-8" standalone="no"?>
<!DOCTYPE svg PUBLIC "-//W3C//DTD SVG 1.1//EN"
 "http://www.w3.org/Graphics/SVG/1.1/DTD/svg11.dtd">
<!-- Generated by graphviz version 3.0.0 (20220226.1711)
 -->
<!-- Title: ICalendar Pages: 1 -->
<svg width="186pt" height="196pt"
 viewBox="0.00 0.00 185.50 196.00" xmlns="http://www.w3.org/2000/svg" xmlns:xlink="http://www.w3.org/1999/xlink">
<g id="graph0" class="graph" transform="scale(1 1) rotate(0) translate(4 192)">
<title>ICalendar</title>
<polygon fill="white" stroke="transparent" points="-4,4 -4,-192 181.5,-192 181.5,4 -4,4"/>
<!-- Node0 -->
<g id="node1" class="node">
<title>Node0</title>
<polygon fill="#bfbfbf" stroke="black" points="48,-56.5 48,-75.5 105,-75.5 105,-56.5 48,-56.5"/>
<text text-anchor="middle" x="76.5" y="-63.5" font-family="Helvetica,sans-Serif" font-size="10.00">ICalendar</text>
</g>
<!-- Node3 -->
<g id="node4" class="node">
<title>Node3</title>
<g id="a_node4"><a xlink:href="../../d9/da7/classnap_1_1_calendar.html" target="_top" xlink:title="Calendar">
<polygon fill="white" stroke="black" points="0,-0.5 0,-19.5 55,-19.5 55,-0.5 0,-0.5"/>
<text text-anchor="middle" x="27.5" y="-7.5" font-family="Helvetica,sans-Serif" font-size="10.00">Calendar</text>
</a>
</g>
</g>
<!-- Node0&#45;&gt;Node3 -->
<g id="edge3" class="edge">
<title>Node0&#45;&gt;Node3</title>
<path fill="none" stroke="midnightblue" d="M61.47,-48.43C52.88,-38.97 42.46,-27.48 35.44,-19.75"/>
<polygon fill="midnightblue" stroke="midnightblue" points="59.1,-51.03 68.41,-56.08 64.28,-46.33 59.1,-51.03"/>
</g>
<!-- Node4 -->
<g id="node5" class="node">
<title>Node4</title>
<g id="a_node5"><a xlink:href="../../d0/d64/classnap_1_1_operational_calendar.html" target="_top" xlink:title="OperationalCalendar">
<polygon fill="white" stroke="black" points="73.5,-0.5 73.5,-19.5 177.5,-19.5 177.5,-0.5 73.5,-0.5"/>
<text text-anchor="middle" x="125.5" y="-7.5" font-family="Helvetica,sans-Serif" font-size="10.00">OperationalCalendar</text>
</a>
</g>
</g>
<!-- Node0&#45;&gt;Node4 -->
<g id="edge4" class="edge">
<title>Node0&#45;&gt;Node4</title>
<path fill="none" stroke="midnightblue" d="M91.53,-48.43C100.12,-38.97 110.54,-27.48 117.56,-19.75"/>
<polygon fill="midnightblue" stroke="midnightblue" points="88.72,-46.33 84.59,-56.08 93.9,-51.03 88.72,-46.33"/>
</g>
<!-- Node1 -->
<g id="node2" class="node">
<title>Node1</title>
<g id="a_node2"><a xlink:href="../../d9/dea/classnap_1_1_resource.html" target="_top" xlink:title="Resource">
<polygon fill="white" stroke="black" points="47.5,-112.5 47.5,-131.5 105.5,-131.5 105.5,-112.5 47.5,-112.5"/>
<text text-anchor="middle" x="76.5" y="-119.5" font-family="Helvetica,sans-Serif" font-size="10.00">Resource</text>
</a>
</g>
</g>
<!-- Node1&#45;&gt;Node0 -->
<g id="edge1" class="edge">
<title>Node1&#45;&gt;Node0</title>
<path fill="none" stroke="midnightblue" d="M76.5,-101.8C76.5,-92.91 76.5,-82.78 76.5,-75.75"/>
<polygon fill="midnightblue" stroke="midnightblue" points="73,-102.08 76.5,-112.08 80,-102.08 73,-102.08"/>
</g>
<!-- Node2 -->
<g id="node3" class="node">
<title>Node2</title>
<g id="a_node3"><a xlink:href="../../de/d01/classnap_1_1rtti_1_1_object.html" target="_top" xlink:title="Object">
<polygon fill="white" stroke="black" points="54,-168.5 54,-187.5 99,-187.5 99,-168.5 54,-168.5"/>
<text text-anchor="middle" x="76.5" y="-175.5" font-family="Helvetica,sans-Serif" font-size="10.00">Object</text>
</a>
</g>
</g>
<!-- Node2&#45;&gt;Node1 -->
<g id="edge2" class="edge">
<title>Node2&#45;&gt;Node1</title>
<path fill="none" stroke="midnightblue" d="M76.5,-157.8C76.5,-148.91 76.5,-138.78 76.5,-131.75"/>
<polygon fill="midnightblue" stroke="midnightblue" points="73,-158.08 76.5,-168.08 80,-158.08 73,-158.08"/>
</g>
</g>
</svg>
