<?xml version="1.0" encoding="UTF-8" standalone="no"?>
<!DOCTYPE svg PUBLIC "-//W3C//DTD SVG 1.1//EN"
 "http://www.w3.org/Graphics/SVG/1.1/DTD/svg11.dtd">
<!-- Generated by graphviz version 3.0.0 (20220226.1711)
 -->
<!-- Title: KeyEvent Pages: 1 -->
<svg width="202pt" height="252pt"
 viewBox="0.00 0.00 202.00 252.00" xmlns="http://www.w3.org/2000/svg" xmlns:xlink="http://www.w3.org/1999/xlink">
<g id="graph0" class="graph" transform="scale(1 1) rotate(0) translate(4 248)">
<title>KeyEvent</title>
<polygon fill="white" stroke="transparent" points="-4,4 -4,-248 198,-248 198,4 -4,4"/>
<!-- Node0 -->
<g id="node1" class="node">
<title>Node0</title>
<polygon fill="#bfbfbf" stroke="black" points="65.5,-56.5 65.5,-75.5 123.5,-75.5 123.5,-56.5 65.5,-56.5"/>
<text text-anchor="middle" x="94.5" y="-63.5" font-family="Helvetica,sans-Serif" font-size="10.00">KeyEvent</text>
</g>
<!-- Node4 -->
<g id="node5" class="node">
<title>Node4</title>
<g id="a_node5"><a xlink:href="../../d1/ddb/classnap_1_1_key_press_event.html" target="_top" xlink:title="KeyPressEvent">
<polygon fill="white" stroke="black" points="0,-0.5 0,-19.5 83,-19.5 83,-0.5 0,-0.5"/>
<text text-anchor="middle" x="41.5" y="-7.5" font-family="Helvetica,sans-Serif" font-size="10.00">KeyPressEvent</text>
</a>
</g>
</g>
<!-- Node0&#45;&gt;Node4 -->
<g id="edge4" class="edge">
<title>Node0&#45;&gt;Node4</title>
<path fill="none" stroke="midnightblue" d="M78.52,-48.72C69.18,-39.2 57.75,-27.56 50.09,-19.75"/>
<polygon fill="midnightblue" stroke="midnightblue" points="76.25,-51.4 85.75,-56.08 81.24,-46.49 76.25,-51.4"/>
</g>
<!-- Node5 -->
<g id="node6" class="node">
<title>Node5</title>
<g id="a_node6"><a xlink:href="../../d6/d2d/classnap_1_1_key_release_event.html" target="_top" xlink:title="KeyReleaseEvent">
<polygon fill="white" stroke="black" points="101,-0.5 101,-19.5 194,-19.5 194,-0.5 101,-0.5"/>
<text text-anchor="middle" x="147.5" y="-7.5" font-family="Helvetica,sans-Serif" font-size="10.00">KeyReleaseEvent</text>
</a>
</g>
</g>
<!-- Node0&#45;&gt;Node5 -->
<g id="edge5" class="edge">
<title>Node0&#45;&gt;Node5</title>
<path fill="none" stroke="midnightblue" d="M110.48,-48.72C119.82,-39.2 131.25,-27.56 138.91,-19.75"/>
<polygon fill="midnightblue" stroke="midnightblue" points="107.76,-46.49 103.25,-56.08 112.75,-51.4 107.76,-46.49"/>
</g>
<!-- Node1 -->
<g id="node2" class="node">
<title>Node1</title>
<g id="a_node2"><a xlink:href="../../d6/d58/classnap_1_1_window_input_event.html" target="_top" xlink:title="WindowInputEvent">
<polygon fill="white" stroke="black" points="46.5,-112.5 46.5,-131.5 142.5,-131.5 142.5,-112.5 46.5,-112.5"/>
<text text-anchor="middle" x="94.5" y="-119.5" font-family="Helvetica,sans-Serif" font-size="10.00">WindowInputEvent</text>
</a>
</g>
</g>
<!-- Node1&#45;&gt;Node0 -->
<g id="edge1" class="edge">
<title>Node1&#45;&gt;Node0</title>
<path fill="none" stroke="midnightblue" d="M94.5,-101.8C94.5,-92.91 94.5,-82.78 94.5,-75.75"/>
<polygon fill="midnightblue" stroke="midnightblue" points="91,-102.08 94.5,-112.08 98,-102.08 91,-102.08"/>
</g>
<!-- Node2 -->
<g id="node3" class="node">
<title>Node2</title>
<g id="a_node3"><a xlink:href="../../dc/dc0/classnap_1_1_input_event.html" target="_top" xlink:title="InputEvent">
<polygon fill="white" stroke="black" points="63.5,-168.5 63.5,-187.5 125.5,-187.5 125.5,-168.5 63.5,-168.5"/>
<text text-anchor="middle" x="94.5" y="-175.5" font-family="Helvetica,sans-Serif" font-size="10.00">InputEvent</text>
</a>
</g>
</g>
<!-- Node2&#45;&gt;Node1 -->
<g id="edge2" class="edge">
<title>Node2&#45;&gt;Node1</title>
<path fill="none" stroke="midnightblue" d="M94.5,-157.8C94.5,-148.91 94.5,-138.78 94.5,-131.75"/>
<polygon fill="midnightblue" stroke="midnightblue" points="91,-158.08 94.5,-168.08 98,-158.08 91,-158.08"/>
</g>
<!-- Node3 -->
<g id="node4" class="node">
<title>Node3</title>
<g id="a_node4"><a xlink:href="../../d2/da2/classnap_1_1_event.html" target="_top" xlink:title="Event">
<polygon fill="white" stroke="black" points="74,-224.5 74,-243.5 115,-243.5 115,-224.5 74,-224.5"/>
<text text-anchor="middle" x="94.5" y="-231.5" font-family="Helvetica,sans-Serif" font-size="10.00">Event</text>
</a>
</g>
</g>
<!-- Node3&#45;&gt;Node2 -->
<g id="edge3" class="edge">
<title>Node3&#45;&gt;Node2</title>
<path fill="none" stroke="midnightblue" d="M94.5,-213.8C94.5,-204.91 94.5,-194.78 94.5,-187.75"/>
<polygon fill="midnightblue" stroke="midnightblue" points="91,-214.08 94.5,-224.08 98,-214.08 91,-214.08"/>
</g>
</g>
</svg>
