<?xml version="1.0" encoding="UTF-8" standalone="no"?>
<!DOCTYPE svg PUBLIC "-//W3C//DTD SVG 1.1//EN"
 "http://www.w3.org/Graphics/SVG/1.1/DTD/svg11.dtd">
<!-- Generated by graphviz version 2.43.0 (0)
 -->
<!-- Title: KeyEvent Pages: 1 -->
<svg width="216pt" height="252pt"
 viewBox="0.00 0.00 216.00 252.00" xmlns="http://www.w3.org/2000/svg" xmlns:xlink="http://www.w3.org/1999/xlink">
<g id="graph0" class="graph" transform="scale(1 1) rotate(0) translate(4 248)">
<title>KeyEvent</title>
<polygon fill="white" stroke="transparent" points="-4,4 -4,-248 212,-248 212,4 -4,4"/>
<!-- Node1 -->
<g id="node1" class="node">
<title>Node1</title>
<g id="a_node1"><a xlink:title=" ">
<polygon fill="#bfbfbf" stroke="black" points="69.5,-56.5 69.5,-75.5 131.5,-75.5 131.5,-56.5 69.5,-56.5"/>
<text text-anchor="middle" x="100.5" y="-63.5" font-family="Helvetica,sans-Serif" font-size="10.00">KeyEvent</text>
</a>
</g>
</g>
<!-- Node5 -->
<g id="node5" class="node">
<title>Node5</title>
<g id="a_node5"><a xlink:href="../../d1/ddb/classnap_1_1_key_press_event.html" target="_top" xlink:title=" ">
<polygon fill="white" stroke="black" points="0,-0.5 0,-19.5 89,-19.5 89,-0.5 0,-0.5"/>
<text text-anchor="middle" x="44.5" y="-7.5" font-family="Helvetica,sans-Serif" font-size="10.00">KeyPressEvent</text>
</a>
</g>
</g>
<!-- Node1&#45;&gt;Node5 -->
<g id="edge4" class="edge">
<title>Node1&#45;&gt;Node5</title>
<path fill="none" stroke="midnightblue" d="M84.17,-49.25C74.24,-39.67 61.91,-27.79 53.66,-19.83"/>
<polygon fill="midnightblue" stroke="midnightblue" points="81.87,-51.9 91.5,-56.32 86.73,-46.86 81.87,-51.9"/>
</g>
<!-- Node6 -->
<g id="node6" class="node">
<title>Node6</title>
<g id="a_node6"><a xlink:href="../../d6/d2d/classnap_1_1_key_release_event.html" target="_top" xlink:title=" ">
<polygon fill="white" stroke="black" points="107,-0.5 107,-19.5 208,-19.5 208,-0.5 107,-0.5"/>
<text text-anchor="middle" x="157.5" y="-7.5" font-family="Helvetica,sans-Serif" font-size="10.00">KeyReleaseEvent</text>
</a>
</g>
</g>
<!-- Node1&#45;&gt;Node6 -->
<g id="edge5" class="edge">
<title>Node1&#45;&gt;Node6</title>
<path fill="none" stroke="midnightblue" d="M117.12,-49.25C127.23,-39.67 139.78,-27.79 148.18,-19.83"/>
<polygon fill="midnightblue" stroke="midnightblue" points="114.51,-46.91 109.66,-56.32 119.32,-51.99 114.51,-46.91"/>
</g>
<!-- Node2 -->
<g id="node2" class="node">
<title>Node2</title>
<g id="a_node2"><a xlink:href="../../d6/d58/classnap_1_1_window_input_event.html" target="_top" xlink:title=" ">
<polygon fill="white" stroke="black" points="46.5,-112.5 46.5,-131.5 154.5,-131.5 154.5,-112.5 46.5,-112.5"/>
<text text-anchor="middle" x="100.5" y="-119.5" font-family="Helvetica,sans-Serif" font-size="10.00">WindowInputEvent</text>
</a>
</g>
</g>
<!-- Node2&#45;&gt;Node1 -->
<g id="edge1" class="edge">
<title>Node2&#45;&gt;Node1</title>
<path fill="none" stroke="midnightblue" d="M100.5,-101.8C100.5,-92.91 100.5,-82.78 100.5,-75.75"/>
<polygon fill="midnightblue" stroke="midnightblue" points="97,-102.08 100.5,-112.08 104,-102.08 97,-102.08"/>
</g>
<!-- Node3 -->
<g id="node3" class="node">
<title>Node3</title>
<g id="a_node3"><a xlink:href="../../dc/dc0/classnap_1_1_input_event.html" target="_top" xlink:title=" ">
<polygon fill="white" stroke="black" points="66,-168.5 66,-187.5 135,-187.5 135,-168.5 66,-168.5"/>
<text text-anchor="middle" x="100.5" y="-175.5" font-family="Helvetica,sans-Serif" font-size="10.00">InputEvent</text>
</a>
</g>
</g>
<!-- Node3&#45;&gt;Node2 -->
<g id="edge2" class="edge">
<title>Node3&#45;&gt;Node2</title>
<path fill="none" stroke="midnightblue" d="M100.5,-157.8C100.5,-148.91 100.5,-138.78 100.5,-131.75"/>
<polygon fill="midnightblue" stroke="midnightblue" points="97,-158.08 100.5,-168.08 104,-158.08 97,-158.08"/>
</g>
<!-- Node4 -->
<g id="node4" class="node">
<title>Node4</title>
<g id="a_node4"><a xlink:href="../../d2/da2/classnap_1_1_event.html" target="_top" xlink:title=" ">
<polygon fill="white" stroke="black" points="78.5,-224.5 78.5,-243.5 122.5,-243.5 122.5,-224.5 78.5,-224.5"/>
<text text-anchor="middle" x="100.5" y="-231.5" font-family="Helvetica,sans-Serif" font-size="10.00">Event</text>
</a>
</g>
</g>
<!-- Node4&#45;&gt;Node3 -->
<g id="edge3" class="edge">
<title>Node4&#45;&gt;Node3</title>
<path fill="none" stroke="midnightblue" d="M100.5,-213.8C100.5,-204.91 100.5,-194.78 100.5,-187.75"/>
<polygon fill="midnightblue" stroke="midnightblue" points="97,-214.08 100.5,-224.08 104,-214.08 97,-214.08"/>
</g>
</g>
</svg>
