<?xml version="1.0" encoding="UTF-8" standalone="no"?>
<!DOCTYPE svg PUBLIC "-//W3C//DTD SVG 1.1//EN"
 "http://www.w3.org/Graphics/SVG/1.1/DTD/svg11.dtd">
<!-- Generated by graphviz version 2.48.0 (20210717.1556)
 -->
<!-- Title: StructFillPolicy::Entry&lt; T &gt; Pages: 1 -->
<svg width="216pt" height="220pt"
 viewBox="0.00 0.00 216.00 220.00" xmlns="http://www.w3.org/2000/svg" xmlns:xlink="http://www.w3.org/1999/xlink">
<g id="graph0" class="graph" transform="scale(1 1) rotate(0) translate(4 216)">
<title>StructFillPolicy::Entry&lt; T &gt;</title>
<polygon fill="white" stroke="transparent" points="-4,4 -4,-216 212,-216 212,4 -4,4"/>
<!-- Node4 -->
<g id="node1" class="node">
<title>Node4</title>
<polygon fill="#bfbfbf" stroke="black" points="19.5,-0.5 19.5,-19.5 154.5,-19.5 154.5,-0.5 19.5,-0.5"/>
<text text-anchor="middle" x="87" y="-7.5" font-family="Helvetica,sans-Serif" font-size="10.00">StructFillPolicy::Entry&lt; T &gt;</text>
</g>
<!-- Node5 -->
<g id="node2" class="node">
<title>Node5</title>
<g id="a_node2"><a xlink:href="../../d2/d21/classnap_1_1_struct_fill_policy_1_1_base_entry.html" target="_top" xlink:title="BaseEntry">
<polygon fill="white" stroke="black" points="0,-73 0,-92 62,-92 62,-73 0,-73"/>
<text text-anchor="middle" x="31" y="-80" font-family="Helvetica,sans-Serif" font-size="10.00">BaseEntry</text>
</a>
</g>
</g>
<!-- Node5&#45;&gt;Node4 -->
<g id="edge1" class="edge">
<title>Node5&#45;&gt;Node4</title>
<path fill="none" stroke="midnightblue" d="M44.19,-64.9C55.43,-50.74 71.15,-30.96 80.08,-19.72"/>
<polygon fill="midnightblue" stroke="midnightblue" points="41.35,-62.85 37.87,-72.86 46.83,-67.2 41.35,-62.85"/>
</g>
<!-- Node6 -->
<g id="node3" class="node">
<title>Node6</title>
<g id="a_node3"><a xlink:href="../../d9/dea/classnap_1_1_resource.html" target="_top" xlink:title="Resource">
<polygon fill="white" stroke="black" points="2,-135.5 2,-154.5 60,-154.5 60,-135.5 2,-135.5"/>
<text text-anchor="middle" x="31" y="-142.5" font-family="Helvetica,sans-Serif" font-size="10.00">Resource</text>
</a>
</g>
</g>
<!-- Node6&#45;&gt;Node5 -->
<g id="edge2" class="edge">
<title>Node6&#45;&gt;Node5</title>
<path fill="none" stroke="midnightblue" d="M31,-125C31,-114 31,-100.68 31,-92.15"/>
<polygon fill="midnightblue" stroke="midnightblue" points="27.5,-125.33 31,-135.33 34.5,-125.33 27.5,-125.33"/>
</g>
<!-- Node7 -->
<g id="node4" class="node">
<title>Node7</title>
<g id="a_node4"><a xlink:href="../../de/d01/classnap_1_1rtti_1_1_object.html" target="_top" xlink:title="Object">
<polygon fill="white" stroke="black" points="8.5,-192.5 8.5,-211.5 53.5,-211.5 53.5,-192.5 8.5,-192.5"/>
<text text-anchor="middle" x="31" y="-199.5" font-family="Helvetica,sans-Serif" font-size="10.00">Object</text>
</a>
</g>
</g>
<!-- Node7&#45;&gt;Node6 -->
<g id="edge3" class="edge">
<title>Node7&#45;&gt;Node6</title>
<path fill="none" stroke="midnightblue" d="M31,-182.12C31,-172.82 31,-162.06 31,-154.71"/>
<polygon fill="midnightblue" stroke="midnightblue" points="27.5,-182.41 31,-192.41 34.5,-182.41 27.5,-182.41"/>
</g>
<!-- Node8 -->
<g id="node5" class="node">
<title>Node8</title>
<g id="a_node5"><a xlink:href="../../dd/d7c/classnap_1_1rtti_1_1_object_ptr.html" target="_top" xlink:title="ObjectPtr\&lt; nap::FillPolicy\l\&lt; T \&gt; \&gt;">
<polygon fill="white" stroke="black" points="80,-67.5 80,-97.5 208,-97.5 208,-67.5 80,-67.5"/>
<text text-anchor="start" x="88" y="-85.5" font-family="Helvetica,sans-Serif" font-size="10.00">ObjectPtr&lt; nap::FillPolicy</text>
<text text-anchor="middle" x="144" y="-74.5" font-family="Helvetica,sans-Serif" font-size="10.00">&lt; T &gt; &gt;</text>
</a>
</g>
</g>
<!-- Node8&#45;&gt;Node4 -->
<g id="edge4" class="edge">
<title>Node8&#45;&gt;Node4</title>
<path fill="none" stroke="#9a32cd" stroke-dasharray="5,2" d="M126.12,-59.38C115.33,-46.04 102.16,-29.76 94.19,-19.89"/>
<polygon fill="#9a32cd" stroke="#9a32cd" points="123.46,-61.66 132.47,-67.23 128.9,-57.26 123.46,-61.66"/>
<text text-anchor="middle" x="144" y="-41" font-family="Helvetica,sans-Serif" font-size="10.00"> mFillPolicy</text>
</g>
<!-- Node9 -->
<g id="node6" class="node">
<title>Node9</title>
<g id="a_node6"><a xlink:href="../../d7/dcb/classnap_1_1rtti_1_1_object_ptr_base.html" target="_top" xlink:title="ObjectPtrBase">
<polygon fill="white" stroke="black" points="104,-135.5 104,-154.5 184,-154.5 184,-135.5 104,-135.5"/>
<text text-anchor="middle" x="144" y="-142.5" font-family="Helvetica,sans-Serif" font-size="10.00">ObjectPtrBase</text>
</a>
</g>
</g>
<!-- Node9&#45;&gt;Node8 -->
<g id="edge5" class="edge">
<title>Node9&#45;&gt;Node8</title>
<path fill="none" stroke="midnightblue" d="M144,-125.22C144,-116.36 144,-105.96 144,-97.76"/>
<polygon fill="midnightblue" stroke="midnightblue" points="140.5,-125.33 144,-135.33 147.5,-125.33 140.5,-125.33"/>
</g>
</g>
</svg>
