<?xml version="1.0" encoding="UTF-8" standalone="no"?>
<!DOCTYPE svg PUBLIC "-//W3C//DTD SVG 1.1//EN"
 "http://www.w3.org/Graphics/SVG/1.1/DTD/svg11.dtd">
<!-- Generated by graphviz version 2.43.0 (0)
 -->
<!-- Title: StructFillPolicy::Entry&lt; T &gt; Pages: 1 -->
<svg width="232pt" height="220pt"
 viewBox="0.00 0.00 232.00 220.00" xmlns="http://www.w3.org/2000/svg" xmlns:xlink="http://www.w3.org/1999/xlink">
<g id="graph0" class="graph" transform="scale(1 1) rotate(0) translate(4 216)">
<title>StructFillPolicy::Entry&lt; T &gt;</title>
<polygon fill="white" stroke="transparent" points="-4,4 -4,-216 228,-216 228,4 -4,4"/>
<!-- Node1 -->
<g id="node1" class="node">
<title>Node1</title>
<g id="a_node1"><a xlink:title=" ">
<polygon fill="#bfbfbf" stroke="black" points="19,-0.5 19,-19.5 167,-19.5 167,-0.5 19,-0.5"/>
<text text-anchor="middle" x="93" y="-7.5" font-family="Helvetica,sans-Serif" font-size="10.00">StructFillPolicy::Entry&lt; T &gt;</text>
</a>
</g>
</g>
<!-- Node2 -->
<g id="node2" class="node">
<title>Node2</title>
<g id="a_node2"><a xlink:href="../../d2/d21/classnap_1_1_struct_fill_policy_1_1_base_entry.html" target="_top" xlink:title=" ">
<polygon fill="white" stroke="black" points="0,-73 0,-92 66,-92 66,-73 0,-73"/>
<text text-anchor="middle" x="33" y="-80" font-family="Helvetica,sans-Serif" font-size="10.00">BaseEntry</text>
</a>
</g>
</g>
<!-- Node2&#45;&gt;Node1 -->
<g id="edge1" class="edge">
<title>Node2&#45;&gt;Node1</title>
<path fill="none" stroke="midnightblue" d="M47.13,-64.9C59.18,-50.74 76.02,-30.96 85.58,-19.72"/>
<polygon fill="midnightblue" stroke="midnightblue" points="44.17,-62.97 40.36,-72.86 49.5,-67.51 44.17,-62.97"/>
</g>
<!-- Node3 -->
<g id="node3" class="node">
<title>Node3</title>
<g id="a_node3"><a xlink:href="../../d9/dea/classnap_1_1_resource.html" target="_top" xlink:title=" ">
<polygon fill="white" stroke="black" points="2,-135.5 2,-154.5 64,-154.5 64,-135.5 2,-135.5"/>
<text text-anchor="middle" x="33" y="-142.5" font-family="Helvetica,sans-Serif" font-size="10.00">Resource</text>
</a>
</g>
</g>
<!-- Node3&#45;&gt;Node2 -->
<g id="edge2" class="edge">
<title>Node3&#45;&gt;Node2</title>
<path fill="none" stroke="midnightblue" d="M33,-125C33,-114 33,-100.68 33,-92.15"/>
<polygon fill="midnightblue" stroke="midnightblue" points="29.5,-125.33 33,-135.33 36.5,-125.33 29.5,-125.33"/>
</g>
<!-- Node4 -->
<g id="node4" class="node">
<title>Node4</title>
<g id="a_node4"><a xlink:href="../../de/d01/classnap_1_1rtti_1_1_object.html" target="_top" xlink:title=" ">
<polygon fill="white" stroke="black" points="9,-192.5 9,-211.5 57,-211.5 57,-192.5 9,-192.5"/>
<text text-anchor="middle" x="33" y="-199.5" font-family="Helvetica,sans-Serif" font-size="10.00">Object</text>
</a>
</g>
</g>
<!-- Node4&#45;&gt;Node3 -->
<g id="edge3" class="edge">
<title>Node4&#45;&gt;Node3</title>
<path fill="none" stroke="midnightblue" d="M33,-182.12C33,-172.82 33,-162.06 33,-154.71"/>
<polygon fill="midnightblue" stroke="midnightblue" points="29.5,-182.41 33,-192.41 36.5,-182.41 29.5,-182.41"/>
</g>
<!-- Node5 -->
<g id="node5" class="node">
<title>Node5</title>
<g id="a_node5"><a xlink:href="../../dd/d7c/classnap_1_1rtti_1_1_object_ptr.html" target="_top" xlink:title=" ">
<polygon fill="white" stroke="black" points="84,-67.5 84,-97.5 224,-97.5 224,-67.5 84,-67.5"/>
<text text-anchor="start" x="92" y="-85.5" font-family="Helvetica,sans-Serif" font-size="10.00">ObjectPtr&lt; nap::FillPolicy</text>
<text text-anchor="middle" x="154" y="-74.5" font-family="Helvetica,sans-Serif" font-size="10.00">&lt; T &gt; &gt;</text>
</a>
</g>
</g>
<!-- Node5&#45;&gt;Node1 -->
<g id="edge4" class="edge">
<title>Node5&#45;&gt;Node1</title>
<path fill="none" stroke="#9a32cd" stroke-dasharray="5,2" d="M134.86,-59.38C123.31,-46.04 109.23,-29.76 100.69,-19.89"/>
<polygon fill="#9a32cd" stroke="#9a32cd" points="132.47,-61.96 141.66,-67.23 137.76,-57.38 132.47,-61.96"/>
<text text-anchor="middle" x="154.5" y="-41" font-family="Helvetica,sans-Serif" font-size="10.00"> mFillPolicy</text>
</g>
<!-- Node6 -->
<g id="node6" class="node">
<title>Node6</title>
<g id="a_node6"><a xlink:href="../../d7/dcb/classnap_1_1rtti_1_1_object_ptr_base.html" target="_top" xlink:title=" ">
<polygon fill="white" stroke="black" points="111,-135.5 111,-154.5 197,-154.5 197,-135.5 111,-135.5"/>
<text text-anchor="middle" x="154" y="-142.5" font-family="Helvetica,sans-Serif" font-size="10.00">ObjectPtrBase</text>
</a>
</g>
</g>
<!-- Node6&#45;&gt;Node5 -->
<g id="edge5" class="edge">
<title>Node6&#45;&gt;Node5</title>
<path fill="none" stroke="midnightblue" d="M154,-125.22C154,-116.36 154,-105.96 154,-97.76"/>
<polygon fill="midnightblue" stroke="midnightblue" points="150.5,-125.33 154,-135.33 157.5,-125.33 150.5,-125.33"/>
</g>
</g>
</svg>
