<?xml version="1.0" encoding="UTF-8" standalone="no"?>
<!DOCTYPE svg PUBLIC "-//W3C//DTD SVG 1.1//EN"
 "http://www.w3.org/Graphics/SVG/1.1/DTD/svg11.dtd">
<!-- Generated by graphviz version 2.43.0 (0)
 -->
<!-- Title: AudioInputComponent Pages: 1 -->
<svg width="133pt" height="252pt"
 viewBox="0.00 0.00 133.00 252.00" xmlns="http://www.w3.org/2000/svg" xmlns:xlink="http://www.w3.org/1999/xlink">
<g id="graph0" class="graph" transform="scale(1 1) rotate(0) translate(4 248)">
<title>AudioInputComponent</title>
<polygon fill="white" stroke="transparent" points="-4,4 -4,-248 129,-248 129,4 -4,4"/>
<!-- Node1 -->
<g id="node1" class="node">
<title>Node1</title>
<g id="a_node1"><a xlink:title=" ">
<polygon fill="#bfbfbf" stroke="black" points="0,-0.5 0,-19.5 125,-19.5 125,-0.5 0,-0.5"/>
<text text-anchor="middle" x="62.5" y="-7.5" font-family="Helvetica,sans-Serif" font-size="10.00">AudioInputComponent</text>
</a>
</g>
</g>
<!-- Node2 -->
<g id="node2" class="node">
<title>Node2</title>
<g id="a_node2"><a xlink:href="../../d5/dcb/classnap_1_1audio_1_1_audio_component_base.html" target="_top" xlink:title=" ">
<polygon fill="white" stroke="black" points="0,-56.5 0,-75.5 125,-75.5 125,-56.5 0,-56.5"/>
<text text-anchor="middle" x="62.5" y="-63.5" font-family="Helvetica,sans-Serif" font-size="10.00">AudioComponentBase</text>
</a>
</g>
</g>
<!-- Node2&#45;&gt;Node1 -->
<g id="edge1" class="edge">
<title>Node2&#45;&gt;Node1</title>
<path fill="none" stroke="midnightblue" d="M62.5,-45.8C62.5,-36.91 62.5,-26.78 62.5,-19.75"/>
<polygon fill="midnightblue" stroke="midnightblue" points="59,-46.08 62.5,-56.08 66,-46.08 59,-46.08"/>
</g>
<!-- Node3 -->
<g id="node3" class="node">
<title>Node3</title>
<g id="a_node3"><a xlink:href="../../db/d6b/classnap_1_1_component.html" target="_top" xlink:title=" ">
<polygon fill="white" stroke="black" points="26,-112.5 26,-131.5 99,-131.5 99,-112.5 26,-112.5"/>
<text text-anchor="middle" x="62.5" y="-119.5" font-family="Helvetica,sans-Serif" font-size="10.00">Component</text>
</a>
</g>
</g>
<!-- Node3&#45;&gt;Node2 -->
<g id="edge2" class="edge">
<title>Node3&#45;&gt;Node2</title>
<path fill="none" stroke="midnightblue" d="M62.5,-101.8C62.5,-92.91 62.5,-82.78 62.5,-75.75"/>
<polygon fill="midnightblue" stroke="midnightblue" points="59,-102.08 62.5,-112.08 66,-102.08 59,-102.08"/>
</g>
<!-- Node4 -->
<g id="node4" class="node">
<title>Node4</title>
<g id="a_node4"><a xlink:href="../../d9/dea/classnap_1_1_resource.html" target="_top" xlink:title=" ">
<polygon fill="white" stroke="black" points="31.5,-168.5 31.5,-187.5 93.5,-187.5 93.5,-168.5 31.5,-168.5"/>
<text text-anchor="middle" x="62.5" y="-175.5" font-family="Helvetica,sans-Serif" font-size="10.00">Resource</text>
</a>
</g>
</g>
<!-- Node4&#45;&gt;Node3 -->
<g id="edge3" class="edge">
<title>Node4&#45;&gt;Node3</title>
<path fill="none" stroke="midnightblue" d="M62.5,-157.8C62.5,-148.91 62.5,-138.78 62.5,-131.75"/>
<polygon fill="midnightblue" stroke="midnightblue" points="59,-158.08 62.5,-168.08 66,-158.08 59,-158.08"/>
</g>
<!-- Node5 -->
<g id="node5" class="node">
<title>Node5</title>
<g id="a_node5"><a xlink:href="../../de/d01/classnap_1_1rtti_1_1_object.html" target="_top" xlink:title=" ">
<polygon fill="white" stroke="black" points="38.5,-224.5 38.5,-243.5 86.5,-243.5 86.5,-224.5 38.5,-224.5"/>
<text text-anchor="middle" x="62.5" y="-231.5" font-family="Helvetica,sans-Serif" font-size="10.00">Object</text>
</a>
</g>
</g>
<!-- Node5&#45;&gt;Node4 -->
<g id="edge4" class="edge">
<title>Node5&#45;&gt;Node4</title>
<path fill="none" stroke="midnightblue" d="M62.5,-213.8C62.5,-204.91 62.5,-194.78 62.5,-187.75"/>
<polygon fill="midnightblue" stroke="midnightblue" points="59,-214.08 62.5,-224.08 66,-214.08 59,-214.08"/>
</g>
</g>
</svg>
