<?xml version="1.0" encoding="UTF-8" standalone="no"?>
<!DOCTYPE svg PUBLIC "-//W3C//DTD SVG 1.1//EN"
 "http://www.w3.org/Graphics/SVG/1.1/DTD/svg11.dtd">
<!-- Generated by graphviz version 2.43.0 (0)
 -->
<!-- Title: MixNode Pages: 1 -->
<svg width="243pt" height="152pt"
 viewBox="0.00 0.00 242.50 152.00" xmlns="http://www.w3.org/2000/svg" xmlns:xlink="http://www.w3.org/1999/xlink">
<g id="graph0" class="graph" transform="scale(1 1) rotate(0) translate(4 148)">
<title>MixNode</title>
<polygon fill="white" stroke="transparent" points="-4,4 -4,-148 238.5,-148 238.5,4 -4,4"/>
<!-- Node1 -->
<g id="node1" class="node">
<title>Node1</title>
<g id="a_node1"><a xlink:title=" ">
<polygon fill="#bfbfbf" stroke="black" points="81,-0.5 81,-19.5 141,-19.5 141,-0.5 81,-0.5"/>
<text text-anchor="middle" x="111" y="-7.5" font-family="Helvetica,sans-Serif" font-size="10.00">MixNode</text>
</a>
</g>
</g>
<!-- Node2 -->
<g id="node2" class="node">
<title>Node2</title>
<g id="a_node2"><a xlink:href="../../dc/d0d/classnap_1_1audio_1_1_node.html" target="_top" xlink:title=" ">
<polygon fill="white" stroke="black" points="8,-67.5 8,-86.5 50,-86.5 50,-67.5 8,-67.5"/>
<text text-anchor="middle" x="29" y="-74.5" font-family="Helvetica,sans-Serif" font-size="10.00">Node</text>
</a>
</g>
</g>
<!-- Node2&#45;&gt;Node1 -->
<g id="edge1" class="edge">
<title>Node2&#45;&gt;Node1</title>
<path fill="none" stroke="midnightblue" d="M48.28,-60.71C64.44,-47.91 86.92,-30.09 100.12,-19.63"/>
<polygon fill="midnightblue" stroke="midnightblue" points="45.72,-58.28 40.06,-67.23 50.07,-63.76 45.72,-58.28"/>
</g>
<!-- Node3 -->
<g id="node3" class="node">
<title>Node3</title>
<g id="a_node3"><a xlink:href="../../d4/d2d/classnap_1_1audio_1_1_process.html" target="_top" xlink:title=" ">
<polygon fill="white" stroke="black" points="0,-124.5 0,-143.5 54,-143.5 54,-124.5 0,-124.5"/>
<text text-anchor="middle" x="27" y="-131.5" font-family="Helvetica,sans-Serif" font-size="10.00">Process</text>
</a>
</g>
</g>
<!-- Node3&#45;&gt;Node2 -->
<g id="edge2" class="edge">
<title>Node3&#45;&gt;Node2</title>
<path fill="none" stroke="midnightblue" d="M27.69,-114.12C28.02,-104.82 28.42,-94.06 28.68,-86.71"/>
<polygon fill="midnightblue" stroke="midnightblue" points="24.18,-114.29 27.31,-124.41 31.17,-114.54 24.18,-114.29"/>
</g>
<!-- Node4 -->
<g id="node4" class="node">
<title>Node4</title>
<g id="a_node4"><a xlink:href="../../d8/d10/classnap_1_1audio_1_1_multi_input_pin.html" target="_top" xlink:title=" ">
<polygon fill="white" stroke="black" points="70.5,-67.5 70.5,-86.5 151.5,-86.5 151.5,-67.5 70.5,-67.5"/>
<text text-anchor="middle" x="111" y="-74.5" font-family="Helvetica,sans-Serif" font-size="10.00">MultiInputPin</text>
</a>
</g>
</g>
<!-- Node4&#45;&gt;Node1 -->
<g id="edge3" class="edge">
<title>Node4&#45;&gt;Node1</title>
<path fill="none" stroke="#9a32cd" stroke-dasharray="5,2" d="M111,-57.04C111,-44.67 111,-29.12 111,-19.63"/>
<polygon fill="#9a32cd" stroke="#9a32cd" points="107.5,-57.23 111,-67.23 114.5,-57.23 107.5,-57.23"/>
<text text-anchor="middle" x="128" y="-41" font-family="Helvetica,sans-Serif" font-size="10.00"> inputs</text>
</g>
<!-- Node5 -->
<g id="node5" class="node">
<title>Node5</title>
<g id="a_node5"><a xlink:href="../../d4/dc6/classnap_1_1audio_1_1_input_pin_base.html" target="_top" xlink:title=" ">
<polygon fill="white" stroke="black" points="72,-124.5 72,-143.5 152,-143.5 152,-124.5 72,-124.5"/>
<text text-anchor="middle" x="112" y="-131.5" font-family="Helvetica,sans-Serif" font-size="10.00">InputPinBase</text>
</a>
</g>
</g>
<!-- Node5&#45;&gt;Node4 -->
<g id="edge4" class="edge">
<title>Node5&#45;&gt;Node4</title>
<path fill="none" stroke="midnightblue" d="M111.66,-114.12C111.49,-104.82 111.29,-94.06 111.16,-86.71"/>
<polygon fill="midnightblue" stroke="midnightblue" points="108.16,-114.47 111.84,-124.41 115.16,-114.34 108.16,-114.47"/>
</g>
<!-- Node6 -->
<g id="node6" class="node">
<title>Node6</title>
<g id="a_node6"><a xlink:href="../../dc/d5a/classnap_1_1audio_1_1_output_pin.html" target="_top" xlink:title=" ">
<polygon fill="white" stroke="black" points="169.5,-67.5 169.5,-86.5 234.5,-86.5 234.5,-67.5 169.5,-67.5"/>
<text text-anchor="middle" x="202" y="-74.5" font-family="Helvetica,sans-Serif" font-size="10.00">OutputPin</text>
</a>
</g>
</g>
<!-- Node6&#45;&gt;Node1 -->
<g id="edge5" class="edge">
<title>Node6&#45;&gt;Node1</title>
<path fill="none" stroke="#9a32cd" stroke-dasharray="5,2" d="M181.47,-61.25C171.65,-54.2 159.72,-45.65 149,-38 140.44,-31.89 130.77,-25.02 123.33,-19.74"/>
<polygon fill="#9a32cd" stroke="#9a32cd" points="179.64,-64.24 189.8,-67.23 183.72,-58.56 179.64,-64.24"/>
<text text-anchor="middle" x="195" y="-41" font-family="Helvetica,sans-Serif" font-size="10.00"> audioOutput</text>
</g>
</g>
</svg>
