<?xml version="1.0" encoding="UTF-8" standalone="no"?>
<!DOCTYPE svg PUBLIC "-//W3C//DTD SVG 1.1//EN"
 "http://www.w3.org/Graphics/SVG/1.1/DTD/svg11.dtd">
<!-- Generated by graphviz version 2.48.0 (20210717.1556)
 -->
<!-- Title: MixNode Pages: 1 -->
<svg width="230pt" height="152pt"
 viewBox="0.00 0.00 229.50 152.00" xmlns="http://www.w3.org/2000/svg" xmlns:xlink="http://www.w3.org/1999/xlink">
<g id="graph0" class="graph" transform="scale(1 1) rotate(0) translate(4 148)">
<title>MixNode</title>
<polygon fill="white" stroke="transparent" points="-4,4 -4,-148 225.5,-148 225.5,4 -4,4"/>
<!-- Node3 -->
<g id="node1" class="node">
<title>Node3</title>
<polygon fill="#bfbfbf" stroke="black" points="79,-0.5 79,-19.5 134,-19.5 134,-0.5 79,-0.5"/>
<text text-anchor="middle" x="106.5" y="-7.5" font-family="Helvetica,sans-Serif" font-size="10.00">MixNode</text>
</g>
<!-- Node4 -->
<g id="node2" class="node">
<title>Node4</title>
<g id="a_node2"><a xlink:href="../../dc/d0d/classnap_1_1audio_1_1_node.html" target="_top" xlink:title="Node">
<polygon fill="white" stroke="black" points="9,-67.5 9,-86.5 48,-86.5 48,-67.5 9,-67.5"/>
<text text-anchor="middle" x="28.5" y="-74.5" font-family="Helvetica,sans-Serif" font-size="10.00">Node</text>
</a>
</g>
</g>
<!-- Node4&#45;&gt;Node3 -->
<g id="edge1" class="edge">
<title>Node4&#45;&gt;Node3</title>
<path fill="none" stroke="midnightblue" d="M46.84,-60.71C62.21,-47.91 83.59,-30.09 96.15,-19.63"/>
<polygon fill="midnightblue" stroke="midnightblue" points="44.46,-58.14 39.02,-67.23 48.94,-63.52 44.46,-58.14"/>
</g>
<!-- Node5 -->
<g id="node3" class="node">
<title>Node5</title>
<g id="a_node3"><a xlink:href="../../d4/d2d/classnap_1_1audio_1_1_process.html" target="_top" xlink:title="Process">
<polygon fill="white" stroke="black" points="0,-124.5 0,-143.5 53,-143.5 53,-124.5 0,-124.5"/>
<text text-anchor="middle" x="26.5" y="-131.5" font-family="Helvetica,sans-Serif" font-size="10.00">Process</text>
</a>
</g>
</g>
<!-- Node5&#45;&gt;Node4 -->
<g id="edge2" class="edge">
<title>Node5&#45;&gt;Node4</title>
<path fill="none" stroke="midnightblue" d="M27.19,-114.12C27.52,-104.82 27.92,-94.06 28.18,-86.71"/>
<polygon fill="midnightblue" stroke="midnightblue" points="23.68,-114.29 26.81,-124.41 30.67,-114.54 23.68,-114.29"/>
</g>
<!-- Node6 -->
<g id="node4" class="node">
<title>Node6</title>
<g id="a_node4"><a xlink:href="../../d8/d10/classnap_1_1audio_1_1_multi_input_pin.html" target="_top" xlink:title="MultiInputPin">
<polygon fill="white" stroke="black" points="70,-67.5 70,-86.5 143,-86.5 143,-67.5 70,-67.5"/>
<text text-anchor="middle" x="106.5" y="-74.5" font-family="Helvetica,sans-Serif" font-size="10.00">MultiInputPin</text>
</a>
</g>
</g>
<!-- Node6&#45;&gt;Node3 -->
<g id="edge3" class="edge">
<title>Node6&#45;&gt;Node3</title>
<path fill="none" stroke="#9a32cd" stroke-dasharray="5,2" d="M106.5,-57.04C106.5,-44.67 106.5,-29.12 106.5,-19.63"/>
<polygon fill="#9a32cd" stroke="#9a32cd" points="103,-57.23 106.5,-67.23 110,-57.23 103,-57.23"/>
<text text-anchor="middle" x="121.5" y="-41" font-family="Helvetica,sans-Serif" font-size="10.00"> inputs</text>
</g>
<!-- Node7 -->
<g id="node5" class="node">
<title>Node7</title>
<g id="a_node5"><a xlink:href="../../d4/dc6/classnap_1_1audio_1_1_input_pin_base.html" target="_top" xlink:title="InputPinBase">
<polygon fill="white" stroke="black" points="71.5,-124.5 71.5,-143.5 145.5,-143.5 145.5,-124.5 71.5,-124.5"/>
<text text-anchor="middle" x="108.5" y="-131.5" font-family="Helvetica,sans-Serif" font-size="10.00">InputPinBase</text>
</a>
</g>
</g>
<!-- Node7&#45;&gt;Node6 -->
<g id="edge4" class="edge">
<title>Node7&#45;&gt;Node6</title>
<path fill="none" stroke="midnightblue" d="M107.81,-114.12C107.48,-104.82 107.08,-94.06 106.82,-86.71"/>
<polygon fill="midnightblue" stroke="midnightblue" points="104.33,-114.54 108.19,-124.41 111.32,-114.29 104.33,-114.54"/>
</g>
<!-- Node8 -->
<g id="node6" class="node">
<title>Node8</title>
<g id="a_node6"><a xlink:href="../../dc/d5a/classnap_1_1audio_1_1_output_pin.html" target="_top" xlink:title="OutputPin">
<polygon fill="white" stroke="black" points="161.5,-67.5 161.5,-86.5 221.5,-86.5 221.5,-67.5 161.5,-67.5"/>
<text text-anchor="middle" x="191.5" y="-74.5" font-family="Helvetica,sans-Serif" font-size="10.00">OutputPin</text>
</a>
</g>
</g>
<!-- Node8&#45;&gt;Node3 -->
<g id="edge5" class="edge">
<title>Node8&#45;&gt;Node3</title>
<path fill="none" stroke="#9a32cd" stroke-dasharray="5,2" d="M171.97,-61.07C155.2,-48.24 131.59,-30.19 117.78,-19.63"/>
<polygon fill="#9a32cd" stroke="#9a32cd" points="169.97,-63.94 180.04,-67.23 174.22,-58.38 169.97,-63.94"/>
<text text-anchor="middle" x="181.5" y="-41" font-family="Helvetica,sans-Serif" font-size="10.00"> audioOutput</text>
</g>
</g>
</svg>
