<?xml version="1.0" encoding="UTF-8" standalone="no"?>
<!DOCTYPE svg PUBLIC "-//W3C//DTD SVG 1.1//EN"
 "http://www.w3.org/Graphics/SVG/1.1/DTD/svg11.dtd">
<!-- Generated by graphviz version 2.48.0 (20210717.1556)
 -->
<!-- Title: SequenceTrackSegmentEvent&lt; T &gt; Pages: 1 -->
<svg width="178pt" height="252pt"
 viewBox="0.00 0.00 178.00 252.00" xmlns="http://www.w3.org/2000/svg" xmlns:xlink="http://www.w3.org/1999/xlink">
<g id="graph0" class="graph" transform="scale(1 1) rotate(0) translate(4 248)">
<title>SequenceTrackSegmentEvent&lt; T &gt;</title>
<polygon fill="white" stroke="transparent" points="-4,4 -4,-248 174,-248 174,4 -4,4"/>
<!-- Node5 -->
<g id="node1" class="node">
<title>Node5</title>
<polygon fill="#bfbfbf" stroke="black" points="0,-0.5 0,-19.5 170,-19.5 170,-0.5 0,-0.5"/>
<text text-anchor="middle" x="85" y="-7.5" font-family="Helvetica,sans-Serif" font-size="10.00">SequenceTrackSegmentEvent&lt; T &gt;</text>
</g>
<!-- Node6 -->
<g id="node2" class="node">
<title>Node6</title>
<g id="a_node2"><a xlink:href="../../d9/d16/classnap_1_1_sequence_track_segment_event_base.html" target="_top" xlink:title="SequenceTrackSegmentEventBase">
<polygon fill="white" stroke="black" points="0,-56.5 0,-75.5 170,-75.5 170,-56.5 0,-56.5"/>
<text text-anchor="middle" x="85" y="-63.5" font-family="Helvetica,sans-Serif" font-size="10.00">SequenceTrackSegmentEventBase</text>
</a>
</g>
</g>
<!-- Node6&#45;&gt;Node5 -->
<g id="edge1" class="edge">
<title>Node6&#45;&gt;Node5</title>
<path fill="none" stroke="midnightblue" d="M85,-45.8C85,-36.91 85,-26.78 85,-19.75"/>
<polygon fill="midnightblue" stroke="midnightblue" points="81.5,-46.08 85,-56.08 88.5,-46.08 81.5,-46.08"/>
</g>
<!-- Node7 -->
<g id="node3" class="node">
<title>Node7</title>
<g id="a_node3"><a xlink:href="../../de/d50/classnap_1_1_sequence_track_segment.html" target="_top" xlink:title="SequenceTrackSegment">
<polygon fill="white" stroke="black" points="23.5,-112.5 23.5,-131.5 146.5,-131.5 146.5,-112.5 23.5,-112.5"/>
<text text-anchor="middle" x="85" y="-119.5" font-family="Helvetica,sans-Serif" font-size="10.00">SequenceTrackSegment</text>
</a>
</g>
</g>
<!-- Node7&#45;&gt;Node6 -->
<g id="edge2" class="edge">
<title>Node7&#45;&gt;Node6</title>
<path fill="none" stroke="midnightblue" d="M85,-101.8C85,-92.91 85,-82.78 85,-75.75"/>
<polygon fill="midnightblue" stroke="midnightblue" points="81.5,-102.08 85,-112.08 88.5,-102.08 81.5,-102.08"/>
</g>
<!-- Node8 -->
<g id="node4" class="node">
<title>Node8</title>
<g id="a_node4"><a xlink:href="../../d9/dea/classnap_1_1_resource.html" target="_top" xlink:title="Resource">
<polygon fill="white" stroke="black" points="56,-168.5 56,-187.5 114,-187.5 114,-168.5 56,-168.5"/>
<text text-anchor="middle" x="85" y="-175.5" font-family="Helvetica,sans-Serif" font-size="10.00">Resource</text>
</a>
</g>
</g>
<!-- Node8&#45;&gt;Node7 -->
<g id="edge3" class="edge">
<title>Node8&#45;&gt;Node7</title>
<path fill="none" stroke="midnightblue" d="M85,-157.8C85,-148.91 85,-138.78 85,-131.75"/>
<polygon fill="midnightblue" stroke="midnightblue" points="81.5,-158.08 85,-168.08 88.5,-158.08 81.5,-158.08"/>
</g>
<!-- Node9 -->
<g id="node5" class="node">
<title>Node9</title>
<g id="a_node5"><a xlink:href="../../de/d01/classnap_1_1rtti_1_1_object.html" target="_top" xlink:title="Object">
<polygon fill="white" stroke="black" points="62.5,-224.5 62.5,-243.5 107.5,-243.5 107.5,-224.5 62.5,-224.5"/>
<text text-anchor="middle" x="85" y="-231.5" font-family="Helvetica,sans-Serif" font-size="10.00">Object</text>
</a>
</g>
</g>
<!-- Node9&#45;&gt;Node8 -->
<g id="edge4" class="edge">
<title>Node9&#45;&gt;Node8</title>
<path fill="none" stroke="midnightblue" d="M85,-213.8C85,-204.91 85,-194.78 85,-187.75"/>
<polygon fill="midnightblue" stroke="midnightblue" points="81.5,-214.08 85,-224.08 88.5,-214.08 81.5,-214.08"/>
</g>
</g>
</svg>
