<?xml version="1.0" encoding="UTF-8" standalone="no"?>
<!DOCTYPE svg PUBLIC "-//W3C//DTD SVG 1.1//EN"
 "http://www.w3.org/Graphics/SVG/1.1/DTD/svg11.dtd">
<!-- Generated by graphviz version 3.0.0 (20220226.1711)
 -->
<!-- Title: Parameter Pages: 1 -->
<svg width="548pt" height="180pt"
 viewBox="0.00 0.00 548.00 180.00" xmlns="http://www.w3.org/2000/svg" xmlns:xlink="http://www.w3.org/1999/xlink">
<g id="graph0" class="graph" transform="scale(1 1) rotate(0) translate(4 176)">
<title>Parameter</title>
<polygon fill="white" stroke="transparent" points="-4,4 -4,-176 544,-176 544,4 -4,4"/>
<!-- Node0 -->
<g id="node1" class="node">
<title>Node0</title>
<polygon fill="#bfbfbf" stroke="black" points="175,-76.5 175,-95.5 237,-95.5 237,-76.5 175,-76.5"/>
<text text-anchor="middle" x="206" y="-83.5" font-family="Helvetica,sans-Serif" font-size="10.00">Parameter</text>
</g>
<!-- Node3 -->
<g id="node4" class="node">
<title>Node3</title>
<g id="a_node4"><a xlink:href="../../d0/d8a/classnap_1_1_parameter_button.html" target="_top" xlink:title="ParameterButton">
<polygon fill="white" stroke="black" points="288.5,-152.5 288.5,-171.5 378.5,-171.5 378.5,-152.5 288.5,-152.5"/>
<text text-anchor="middle" x="333.5" y="-159.5" font-family="Helvetica,sans-Serif" font-size="10.00">ParameterButton</text>
</a>
</g>
</g>
<!-- Node0&#45;&gt;Node3 -->
<g id="edge3" class="edge">
<title>Node0&#45;&gt;Node3</title>
<path fill="none" stroke="midnightblue" d="M222.9,-103.04C235.45,-115.62 253.97,-132.34 273,-143 279.72,-146.76 287.28,-149.9 294.71,-152.47"/>
<polygon fill="midnightblue" stroke="midnightblue" points="225.38,-100.57 215.9,-95.83 220.36,-105.45 225.38,-100.57"/>
</g>
<!-- Node4 -->
<g id="node5" class="node">
<title>Node4</title>
<g id="a_node5"><a xlink:href="../../d9/d38/classnap_1_1_parameter_enum_base.html" target="_top" xlink:title="ParameterEnumBase">
<polygon fill="white" stroke="black" points="278.5,-114.5 278.5,-133.5 388.5,-133.5 388.5,-114.5 278.5,-114.5"/>
<text text-anchor="middle" x="333.5" y="-121.5" font-family="Helvetica,sans-Serif" font-size="10.00">ParameterEnumBase</text>
</a>
</g>
</g>
<!-- Node0&#45;&gt;Node4 -->
<g id="edge4" class="edge">
<title>Node0&#45;&gt;Node4</title>
<path fill="none" stroke="midnightblue" d="M246.97,-98.1C264.41,-103.38 284.57,-109.49 300.93,-114.44"/>
<polygon fill="midnightblue" stroke="midnightblue" points="247.65,-94.65 237.06,-95.1 245.62,-101.35 247.65,-94.65"/>
</g>
<!-- Node6 -->
<g id="node7" class="node">
<title>Node6</title>
<g id="a_node7"><a xlink:href="../../d0/d33/classnap_1_1_parameter_numeric.html" target="_top" xlink:title="ParameterNumeric\&lt; T \&gt;">
<polygon fill="white" stroke="black" points="273,-76.5 273,-95.5 394,-95.5 394,-76.5 273,-76.5"/>
<text text-anchor="middle" x="333.5" y="-83.5" font-family="Helvetica,sans-Serif" font-size="10.00">ParameterNumeric&lt; T &gt;</text>
</a>
</g>
</g>
<!-- Node0&#45;&gt;Node6 -->
<g id="edge6" class="edge">
<title>Node0&#45;&gt;Node6</title>
<path fill="none" stroke="midnightblue" d="M247.11,-86C255.33,-86 264.16,-86 272.9,-86"/>
<polygon fill="midnightblue" stroke="midnightblue" points="247.06,-82.5 237.06,-86 247.06,-89.5 247.06,-82.5"/>
</g>
<!-- Node7 -->
<g id="node8" class="node">
<title>Node7</title>
<g id="a_node8"><a xlink:href="../../da/dda/classnap_1_1_parameter_simple.html" target="_top" xlink:title="ParameterSimple\&lt; T \&gt;">
<polygon fill="white" stroke="black" points="276,-38.5 276,-57.5 391,-57.5 391,-38.5 276,-38.5"/>
<text text-anchor="middle" x="333.5" y="-45.5" font-family="Helvetica,sans-Serif" font-size="10.00">ParameterSimple&lt; T &gt;</text>
</a>
</g>
</g>
<!-- Node0&#45;&gt;Node7 -->
<g id="edge7" class="edge">
<title>Node0&#45;&gt;Node7</title>
<path fill="none" stroke="midnightblue" d="M246.97,-73.9C264.41,-68.62 284.57,-62.51 300.93,-57.56"/>
<polygon fill="midnightblue" stroke="midnightblue" points="245.62,-70.65 237.06,-76.9 247.65,-77.35 245.62,-70.65"/>
</g>
<!-- Node8 -->
<g id="node9" class="node">
<title>Node8</title>
<g id="a_node9"><a xlink:href="../../da/d1e/classnap_1_1_parameter_vec.html" target="_top" xlink:title="ParameterVec\&lt; T \&gt;">
<polygon fill="white" stroke="black" points="282.5,-0.5 282.5,-19.5 384.5,-19.5 384.5,-0.5 282.5,-0.5"/>
<text text-anchor="middle" x="333.5" y="-7.5" font-family="Helvetica,sans-Serif" font-size="10.00">ParameterVec&lt; T &gt;</text>
</a>
</g>
</g>
<!-- Node0&#45;&gt;Node8 -->
<g id="edge8" class="edge">
<title>Node0&#45;&gt;Node8</title>
<path fill="none" stroke="midnightblue" d="M222.9,-68.96C235.45,-56.38 253.97,-39.66 273,-29 279.72,-25.24 287.28,-22.1 294.71,-19.53"/>
<polygon fill="midnightblue" stroke="midnightblue" points="220.36,-66.55 215.9,-76.17 225.38,-71.43 220.36,-66.55"/>
</g>
<!-- Node1 -->
<g id="node2" class="node">
<title>Node1</title>
<g id="a_node2"><a xlink:href="../../d9/dea/classnap_1_1_resource.html" target="_top" xlink:title="Resource">
<polygon fill="white" stroke="black" points="81,-76.5 81,-95.5 139,-95.5 139,-76.5 81,-76.5"/>
<text text-anchor="middle" x="110" y="-83.5" font-family="Helvetica,sans-Serif" font-size="10.00">Resource</text>
</a>
</g>
</g>
<!-- Node1&#45;&gt;Node0 -->
<g id="edge1" class="edge">
<title>Node1&#45;&gt;Node0</title>
<path fill="none" stroke="midnightblue" d="M149.31,-86C157.82,-86 166.72,-86 174.85,-86"/>
<polygon fill="midnightblue" stroke="midnightblue" points="149.2,-82.5 139.2,-86 149.2,-89.5 149.2,-82.5"/>
</g>
<!-- Node2 -->
<g id="node3" class="node">
<title>Node2</title>
<g id="a_node3"><a xlink:href="../../de/d01/classnap_1_1rtti_1_1_object.html" target="_top" xlink:title="Object">
<polygon fill="white" stroke="black" points="0,-76.5 0,-95.5 45,-95.5 45,-76.5 0,-76.5"/>
<text text-anchor="middle" x="22.5" y="-83.5" font-family="Helvetica,sans-Serif" font-size="10.00">Object</text>
</a>
</g>
</g>
<!-- Node2&#45;&gt;Node1 -->
<g id="edge2" class="edge">
<title>Node2&#45;&gt;Node1</title>
<path fill="none" stroke="midnightblue" d="M55.31,-86C63.73,-86 72.76,-86 80.96,-86"/>
<polygon fill="midnightblue" stroke="midnightblue" points="55.08,-82.5 45.08,-86 55.08,-89.5 55.08,-82.5"/>
</g>
<!-- Node5 -->
<g id="node6" class="node">
<title>Node5</title>
<g id="a_node6"><a xlink:href="../../dc/d3b/classnap_1_1_parameter_enum.html" target="_top" xlink:title="ParameterEnum\&lt; T \&gt;">
<polygon fill="white" stroke="black" points="430,-114.5 430,-133.5 540,-133.5 540,-114.5 430,-114.5"/>
<text text-anchor="middle" x="485" y="-121.5" font-family="Helvetica,sans-Serif" font-size="10.00">ParameterEnum&lt; T &gt;</text>
</a>
</g>
</g>
<!-- Node4&#45;&gt;Node5 -->
<g id="edge5" class="edge">
<title>Node4&#45;&gt;Node5</title>
<path fill="none" stroke="midnightblue" d="M399.06,-124C409.34,-124 419.89,-124 429.89,-124"/>
<polygon fill="midnightblue" stroke="midnightblue" points="398.9,-120.5 388.9,-124 398.9,-127.5 398.9,-120.5"/>
</g>
</g>
</svg>
