<?xml version="1.0" encoding="UTF-8" standalone="no"?>
<!DOCTYPE svg PUBLIC "-//W3C//DTD SVG 1.1//EN"
 "http://www.w3.org/Graphics/SVG/1.1/DTD/svg11.dtd">
<!-- Generated by graphviz version 2.43.0 (0)
 -->
<!-- Title: DefaultInputRouterComponentInstance Pages: 1 -->
<svg width="250pt" height="163pt"
 viewBox="0.00 0.00 250.00 163.00" xmlns="http://www.w3.org/2000/svg" xmlns:xlink="http://www.w3.org/1999/xlink">
<g id="graph0" class="graph" transform="scale(1 1) rotate(0) translate(4 159)">
<title>DefaultInputRouterComponentInstance</title>
<polygon fill="white" stroke="transparent" points="-4,4 -4,-159 246,-159 246,4 -4,4"/>
<!-- Node1 -->
<g id="node1" class="node">
<title>Node1</title>
<g id="a_node1"><a xlink:title=" ">
<polygon fill="#bfbfbf" stroke="black" points="38,-0.5 38,-30.5 204,-30.5 204,-0.5 38,-0.5"/>
<text text-anchor="start" x="46" y="-18.5" font-family="Helvetica,sans-Serif" font-size="10.00">DefaultInputRouterComponent</text>
<text text-anchor="middle" x="121" y="-7.5" font-family="Helvetica,sans-Serif" font-size="10.00">Instance</text>
</a>
</g>
</g>
<!-- Node2 -->
<g id="node2" class="node">
<title>Node2</title>
<g id="a_node2"><a xlink:href="../../d9/df2/classnap_1_1_component_instance.html" target="_top" xlink:title=" ">
<polygon fill="white" stroke="black" points="0,-78.5 0,-97.5 114,-97.5 114,-78.5 0,-78.5"/>
<text text-anchor="middle" x="57" y="-85.5" font-family="Helvetica,sans-Serif" font-size="10.00">ComponentInstance</text>
</a>
</g>
</g>
<!-- Node2&#45;&gt;Node1 -->
<g id="edge1" class="edge">
<title>Node2&#45;&gt;Node1</title>
<path fill="none" stroke="midnightblue" d="M71.76,-70.74C82.78,-58.6 97.7,-42.16 108.22,-30.58"/>
<polygon fill="midnightblue" stroke="midnightblue" points="68.98,-68.6 64.85,-78.36 74.16,-73.3 68.98,-68.6"/>
</g>
<!-- Node3 -->
<g id="node3" class="node">
<title>Node3</title>
<g id="a_node3"><a xlink:href="../../de/d01/classnap_1_1rtti_1_1_object.html" target="_top" xlink:title=" ">
<polygon fill="white" stroke="black" points="33,-135.5 33,-154.5 81,-154.5 81,-135.5 33,-135.5"/>
<text text-anchor="middle" x="57" y="-142.5" font-family="Helvetica,sans-Serif" font-size="10.00">Object</text>
</a>
</g>
</g>
<!-- Node3&#45;&gt;Node2 -->
<g id="edge2" class="edge">
<title>Node3&#45;&gt;Node2</title>
<path fill="none" stroke="midnightblue" d="M57,-125.12C57,-115.82 57,-105.06 57,-97.71"/>
<polygon fill="midnightblue" stroke="midnightblue" points="53.5,-125.41 57,-135.41 60.5,-125.41 53.5,-125.41"/>
</g>
<!-- Node4 -->
<g id="node4" class="node">
<title>Node4</title>
<g id="a_node4"><a xlink:href="../../df/d35/classnap_1_1_default_input_router.html" target="_top" xlink:title=" ">
<polygon fill="white" stroke="black" points="132,-78.5 132,-97.5 242,-97.5 242,-78.5 132,-78.5"/>
<text text-anchor="middle" x="187" y="-85.5" font-family="Helvetica,sans-Serif" font-size="10.00">DefaultInputRouter</text>
</a>
</g>
</g>
<!-- Node4&#45;&gt;Node1 -->
<g id="edge3" class="edge">
<title>Node4&#45;&gt;Node1</title>
<path fill="none" stroke="#9a32cd" stroke-dasharray="5,2" d="M171.78,-70.74C160.41,-58.6 145.02,-42.16 134.18,-30.58"/>
<polygon fill="#9a32cd" stroke="#9a32cd" points="169.52,-73.45 178.91,-78.36 174.63,-68.66 169.52,-73.45"/>
<text text-anchor="middle" x="195" y="-52" font-family="Helvetica,sans-Serif" font-size="10.00"> mInputRouter</text>
</g>
<!-- Node5 -->
<g id="node5" class="node">
<title>Node5</title>
<g id="a_node5"><a xlink:href="../../db/d68/classnap_1_1_input_router.html" target="_top" xlink:title=" ">
<polygon fill="white" stroke="black" points="150,-135.5 150,-154.5 224,-154.5 224,-135.5 150,-135.5"/>
<text text-anchor="middle" x="187" y="-142.5" font-family="Helvetica,sans-Serif" font-size="10.00">InputRouter</text>
</a>
</g>
</g>
<!-- Node5&#45;&gt;Node4 -->
<g id="edge4" class="edge">
<title>Node5&#45;&gt;Node4</title>
<path fill="none" stroke="midnightblue" d="M187,-125.12C187,-115.82 187,-105.06 187,-97.71"/>
<polygon fill="midnightblue" stroke="midnightblue" points="183.5,-125.41 187,-135.41 190.5,-125.41 183.5,-125.41"/>
</g>
</g>
</svg>
