<?xml version="1.0" encoding="UTF-8" standalone="no"?>
<!DOCTYPE svg PUBLIC "-//W3C//DTD SVG 1.1//EN"
 "http://www.w3.org/Graphics/SVG/1.1/DTD/svg11.dtd">
<!-- Generated by graphviz version 2.48.0 (20210717.1556)
 -->
<!-- Title: IMesh Pages: 1 -->
<svg width="487pt" height="408pt"
 viewBox="0.00 0.00 487.00 408.00" xmlns="http://www.w3.org/2000/svg" xmlns:xlink="http://www.w3.org/1999/xlink">
<g id="graph0" class="graph" transform="scale(1 1) rotate(0) translate(4 404)">
<title>IMesh</title>
<polygon fill="white" stroke="transparent" points="-4,4 -4,-404 483,-404 483,4 -4,4"/>
<!-- Node0 -->
<g id="node1" class="node">
<title>Node0</title>
<polygon fill="#bfbfbf" stroke="black" points="175,-190.5 175,-209.5 218,-209.5 218,-190.5 175,-190.5"/>
<text text-anchor="middle" x="196.5" y="-197.5" font-family="Helvetica,sans-Serif" font-size="10.00">IMesh</text>
</g>
<!-- Node3 -->
<g id="node4" class="node">
<title>Node3</title>
<g id="a_node4"><a xlink:href="../../df/de6/classnap_1_1_box_mesh.html" target="_top" xlink:title="BoxMesh">
<polygon fill="white" stroke="black" points="283,-380.5 283,-399.5 341,-399.5 341,-380.5 283,-380.5"/>
<text text-anchor="middle" x="312" y="-387.5" font-family="Helvetica,sans-Serif" font-size="10.00">BoxMesh</text>
</a>
</g>
</g>
<!-- Node0&#45;&gt;Node3 -->
<g id="edge3" class="edge">
<title>Node0&#45;&gt;Node3</title>
<path fill="none" stroke="midnightblue" d="M198.48,-220.09C201.3,-255.45 212.14,-329.03 254,-371 261.73,-378.75 272.71,-383.34 282.97,-386.06"/>
<polygon fill="midnightblue" stroke="midnightblue" points="201.95,-219.42 197.81,-209.66 194.96,-219.87 201.95,-219.42"/>
</g>
<!-- Node4 -->
<g id="node5" class="node">
<title>Node4</title>
<g id="a_node5"><a xlink:href="../../d3/de8/classnap_1_1_geometry_from_file.html" target="_top" xlink:title="GeometryFromFile">
<polygon fill="white" stroke="black" points="263,-342.5 263,-361.5 361,-361.5 361,-342.5 263,-342.5"/>
<text text-anchor="middle" x="312" y="-349.5" font-family="Helvetica,sans-Serif" font-size="10.00">GeometryFromFile</text>
</a>
</g>
</g>
<!-- Node0&#45;&gt;Node4 -->
<g id="edge4" class="edge">
<title>Node0&#45;&gt;Node4</title>
<path fill="none" stroke="midnightblue" d="M200.62,-219.64C206.21,-248.48 220.64,-302.2 254,-333 258.22,-336.89 263.25,-339.99 268.56,-342.45"/>
<polygon fill="midnightblue" stroke="midnightblue" points="204.03,-218.81 198.83,-209.58 197.13,-220.04 204.03,-218.81"/>
</g>
<!-- Node5 -->
<g id="node6" class="node">
<title>Node5</title>
<g id="a_node6"><a xlink:href="../../d2/de2/classnap_1_1_gnomon_mesh.html" target="_top" xlink:title="GnomonMesh">
<polygon fill="white" stroke="black" points="273.5,-304.5 273.5,-323.5 350.5,-323.5 350.5,-304.5 273.5,-304.5"/>
<text text-anchor="middle" x="312" y="-311.5" font-family="Helvetica,sans-Serif" font-size="10.00">GnomonMesh</text>
</a>
</g>
</g>
<!-- Node0&#45;&gt;Node5 -->
<g id="edge5" class="edge">
<title>Node0&#45;&gt;Node5</title>
<path fill="none" stroke="midnightblue" d="M204.22,-219.25C212.64,-240.67 229.07,-274.92 254,-295 259.69,-299.58 266.53,-303.08 273.46,-305.74"/>
<polygon fill="midnightblue" stroke="midnightblue" points="207.4,-217.76 200.63,-209.61 200.84,-220.21 207.4,-217.76"/>
</g>
<!-- Node6 -->
<g id="node7" class="node">
<title>Node6</title>
<g id="a_node7"><a xlink:href="../../d0/d32/classnap_1_1_mesh.html" target="_top" xlink:title="Mesh">
<polygon fill="white" stroke="black" points="291.5,-266.5 291.5,-285.5 332.5,-285.5 332.5,-266.5 291.5,-266.5"/>
<text text-anchor="middle" x="312" y="-273.5" font-family="Helvetica,sans-Serif" font-size="10.00">Mesh</text>
</a>
</g>
</g>
<!-- Node0&#45;&gt;Node6 -->
<g id="edge6" class="edge">
<title>Node0&#45;&gt;Node6</title>
<path fill="none" stroke="midnightblue" d="M211.27,-217.8C221.78,-230.31 237.27,-246.61 254,-257 265.43,-264.1 279.82,-268.87 291.27,-271.85"/>
<polygon fill="midnightblue" stroke="midnightblue" points="213.85,-215.42 204.84,-209.86 208.42,-219.83 213.85,-215.42"/>
</g>
<!-- Node7 -->
<g id="node8" class="node">
<title>Node7</title>
<g id="a_node8"><a xlink:href="../../db/d48/classnap_1_1_mesh_from_file.html" target="_top" xlink:title="MeshFromFile">
<polygon fill="white" stroke="black" points="272.5,-228.5 272.5,-247.5 351.5,-247.5 351.5,-228.5 272.5,-228.5"/>
<text text-anchor="middle" x="312" y="-235.5" font-family="Helvetica,sans-Serif" font-size="10.00">MeshFromFile</text>
</a>
</g>
</g>
<!-- Node0&#45;&gt;Node7 -->
<g id="edge7" class="edge">
<title>Node0&#45;&gt;Node7</title>
<path fill="none" stroke="midnightblue" d="M227.71,-210.17C236.21,-213.03 245.47,-216.14 254,-219 263.2,-222.08 273.24,-225.43 282.29,-228.45"/>
<polygon fill="midnightblue" stroke="midnightblue" points="228.75,-206.83 218.16,-206.96 226.52,-213.47 228.75,-206.83"/>
</g>
<!-- Node8 -->
<g id="node9" class="node">
<title>Node8</title>
<g id="a_node9"><a xlink:href="../../de/dd6/classnap_1_1_plane_mesh.html" target="_top" xlink:title="PlaneMesh">
<polygon fill="white" stroke="black" points="279.5,-190.5 279.5,-209.5 344.5,-209.5 344.5,-190.5 279.5,-190.5"/>
<text text-anchor="middle" x="312" y="-197.5" font-family="Helvetica,sans-Serif" font-size="10.00">PlaneMesh</text>
</a>
</g>
</g>
<!-- Node0&#45;&gt;Node8 -->
<g id="edge8" class="edge">
<title>Node0&#45;&gt;Node8</title>
<path fill="none" stroke="midnightblue" d="M228.4,-200C244.25,-200 263.52,-200 279.46,-200"/>
<polygon fill="midnightblue" stroke="midnightblue" points="228.05,-196.5 218.05,-200 228.05,-203.5 228.05,-196.5"/>
</g>
<!-- Node9 -->
<g id="node10" class="node">
<title>Node9</title>
<g id="a_node10"><a xlink:href="../../db/d34/classnap_1_1_poly_line.html" target="_top" xlink:title="PolyLine">
<polygon fill="white" stroke="black" points="285,-152.5 285,-171.5 339,-171.5 339,-152.5 285,-152.5"/>
<text text-anchor="middle" x="312" y="-159.5" font-family="Helvetica,sans-Serif" font-size="10.00">PolyLine</text>
</a>
</g>
</g>
<!-- Node0&#45;&gt;Node9 -->
<g id="edge9" class="edge">
<title>Node0&#45;&gt;Node9</title>
<path fill="none" stroke="midnightblue" d="M227.71,-189.83C236.21,-186.97 245.47,-183.86 254,-181 264.09,-177.62 275.19,-173.92 284.89,-170.69"/>
<polygon fill="midnightblue" stroke="midnightblue" points="226.52,-186.53 218.16,-193.04 228.75,-193.17 226.52,-186.53"/>
</g>
<!-- Node16 -->
<g id="node17" class="node">
<title>Node16</title>
<g id="a_node17"><a xlink:href="../../de/d85/classnap_1_1_scatter_points_mesh.html" target="_top" xlink:title="ScatterPointsMesh">
<polygon fill="white" stroke="black" points="262,-114.5 262,-133.5 362,-133.5 362,-114.5 262,-114.5"/>
<text text-anchor="middle" x="312" y="-121.5" font-family="Helvetica,sans-Serif" font-size="10.00">ScatterPointsMesh</text>
</a>
</g>
</g>
<!-- Node0&#45;&gt;Node16 -->
<g id="edge16" class="edge">
<title>Node0&#45;&gt;Node16</title>
<path fill="none" stroke="midnightblue" d="M211.27,-182.2C221.78,-169.69 237.27,-153.39 254,-143 260.11,-139.2 267.07,-136.07 273.98,-133.52"/>
<polygon fill="midnightblue" stroke="midnightblue" points="208.42,-180.17 204.84,-190.14 213.85,-184.58 208.42,-180.17"/>
</g>
<!-- Node17 -->
<g id="node18" class="node">
<title>Node17</title>
<g id="a_node18"><a xlink:href="../../d6/d7b/classnap_1_1_sphere_mesh.html" target="_top" xlink:title="SphereMesh">
<polygon fill="white" stroke="black" points="276.5,-76.5 276.5,-95.5 347.5,-95.5 347.5,-76.5 276.5,-76.5"/>
<text text-anchor="middle" x="312" y="-83.5" font-family="Helvetica,sans-Serif" font-size="10.00">SphereMesh</text>
</a>
</g>
</g>
<!-- Node0&#45;&gt;Node17 -->
<g id="edge17" class="edge">
<title>Node0&#45;&gt;Node17</title>
<path fill="none" stroke="midnightblue" d="M204.22,-180.75C212.64,-159.33 229.07,-125.08 254,-105 260.5,-99.77 268.5,-95.95 276.44,-93.17"/>
<polygon fill="midnightblue" stroke="midnightblue" points="200.84,-179.79 200.63,-190.39 207.4,-182.24 200.84,-179.79"/>
</g>
<!-- Node18 -->
<g id="node19" class="node">
<title>Node18</title>
<g id="a_node19"><a xlink:href="../../d6/d9c/classnap_1_1_triangle_mesh.html" target="_top" xlink:title="TriangleMesh">
<polygon fill="white" stroke="black" points="275,-38.5 275,-57.5 349,-57.5 349,-38.5 275,-38.5"/>
<text text-anchor="middle" x="312" y="-45.5" font-family="Helvetica,sans-Serif" font-size="10.00">TriangleMesh</text>
</a>
</g>
</g>
<!-- Node0&#45;&gt;Node18 -->
<g id="edge18" class="edge">
<title>Node0&#45;&gt;Node18</title>
<path fill="none" stroke="midnightblue" d="M200.62,-180.36C206.21,-151.52 220.64,-97.8 254,-67 259.83,-61.62 267.22,-57.76 274.73,-55"/>
<polygon fill="midnightblue" stroke="midnightblue" points="197.13,-179.96 198.83,-190.42 204.03,-181.19 197.13,-179.96"/>
</g>
<!-- Node19 -->
<g id="node20" class="node">
<title>Node19</title>
<g id="a_node20"><a xlink:href="../../de/d45/classnap_1_1_visualize_normals_mesh.html" target="_top" xlink:title="VisualizeNormalsMesh">
<polygon fill="white" stroke="black" points="254,-0.5 254,-19.5 370,-19.5 370,-0.5 254,-0.5"/>
<text text-anchor="middle" x="312" y="-7.5" font-family="Helvetica,sans-Serif" font-size="10.00">VisualizeNormalsMesh</text>
</a>
</g>
</g>
<!-- Node0&#45;&gt;Node19 -->
<g id="edge19" class="edge">
<title>Node0&#45;&gt;Node19</title>
<path fill="none" stroke="midnightblue" d="M198.48,-179.91C201.3,-144.55 212.14,-70.97 254,-29 257.9,-25.09 262.63,-21.98 267.68,-19.51"/>
<polygon fill="midnightblue" stroke="midnightblue" points="194.96,-180.13 197.81,-190.34 201.95,-180.58 194.96,-180.13"/>
</g>
<!-- Node1 -->
<g id="node2" class="node">
<title>Node1</title>
<g id="a_node2"><a xlink:href="../../d9/dea/classnap_1_1_resource.html" target="_top" xlink:title="Resource">
<polygon fill="white" stroke="black" points="81,-190.5 81,-209.5 139,-209.5 139,-190.5 81,-190.5"/>
<text text-anchor="middle" x="110" y="-197.5" font-family="Helvetica,sans-Serif" font-size="10.00">Resource</text>
</a>
</g>
</g>
<!-- Node1&#45;&gt;Node0 -->
<g id="edge1" class="edge">
<title>Node1&#45;&gt;Node0</title>
<path fill="none" stroke="midnightblue" d="M149.32,-200C158.16,-200 167.23,-200 174.97,-200"/>
<polygon fill="midnightblue" stroke="midnightblue" points="149.14,-196.5 139.14,-200 149.14,-203.5 149.14,-196.5"/>
</g>
<!-- Node2 -->
<g id="node3" class="node">
<title>Node2</title>
<g id="a_node3"><a xlink:href="../../de/d01/classnap_1_1rtti_1_1_object.html" target="_top" xlink:title="Object">
<polygon fill="white" stroke="black" points="0,-190.5 0,-209.5 45,-209.5 45,-190.5 0,-190.5"/>
<text text-anchor="middle" x="22.5" y="-197.5" font-family="Helvetica,sans-Serif" font-size="10.00">Object</text>
</a>
</g>
</g>
<!-- Node2&#45;&gt;Node1 -->
<g id="edge2" class="edge">
<title>Node2&#45;&gt;Node1</title>
<path fill="none" stroke="midnightblue" d="M55.31,-200C63.73,-200 72.76,-200 80.96,-200"/>
<polygon fill="midnightblue" stroke="midnightblue" points="55.08,-196.5 45.08,-200 55.08,-203.5 55.08,-196.5"/>
</g>
<!-- Node10 -->
<g id="node11" class="node">
<title>Node10</title>
<g id="a_node11"><a xlink:href="../../da/dc5/classnap_1_1_circle.html" target="_top" xlink:title="Circle">
<polygon fill="white" stroke="black" points="422,-247.5 422,-266.5 463,-266.5 463,-247.5 422,-247.5"/>
<text text-anchor="middle" x="442.5" y="-254.5" font-family="Helvetica,sans-Serif" font-size="10.00">Circle</text>
</a>
</g>
</g>
<!-- Node9&#45;&gt;Node10 -->
<g id="edge10" class="edge">
<title>Node9&#45;&gt;Node10</title>
<path fill="none" stroke="midnightblue" d="M348.93,-169.82C356.38,-172.54 363.83,-176.17 370,-181 393.59,-199.48 384.07,-217.59 406,-238 410.61,-242.29 416.36,-245.91 421.89,-248.8"/>
<polygon fill="midnightblue" stroke="midnightblue" points="349.82,-166.43 339.23,-166.74 347.71,-173.1 349.82,-166.43"/>
</g>
<!-- Node11 -->
<g id="node12" class="node">
<title>Node11</title>
<g id="a_node12"><a xlink:href="../../d7/d4f/classnap_1_1_hexagon.html" target="_top" xlink:title="Hexagon">
<polygon fill="white" stroke="black" points="415,-209.5 415,-228.5 470,-228.5 470,-209.5 415,-209.5"/>
<text text-anchor="middle" x="442.5" y="-216.5" font-family="Helvetica,sans-Serif" font-size="10.00">Hexagon</text>
</a>
</g>
</g>
<!-- Node9&#45;&gt;Node11 -->
<g id="edge11" class="edge">
<title>Node9&#45;&gt;Node11</title>
<path fill="none" stroke="midnightblue" d="M348.67,-172.87C355.82,-175.33 363.21,-178.09 370,-181 371.38,-181.59 402.82,-198.35 423.54,-209.41"/>
<polygon fill="midnightblue" stroke="midnightblue" points="349.76,-169.54 339.16,-169.71 347.55,-176.19 349.76,-169.54"/>
</g>
<!-- Node12 -->
<g id="node13" class="node">
<title>Node12</title>
<g id="a_node13"><a xlink:href="../../de/d34/classnap_1_1_line.html" target="_top" xlink:title="Line">
<polygon fill="white" stroke="black" points="425,-171.5 425,-190.5 460,-190.5 460,-171.5 425,-171.5"/>
<text text-anchor="middle" x="442.5" y="-178.5" font-family="Helvetica,sans-Serif" font-size="10.00">Line</text>
</a>
</g>
</g>
<!-- Node9&#45;&gt;Node12 -->
<g id="edge12" class="edge">
<title>Node9&#45;&gt;Node12</title>
<path fill="none" stroke="midnightblue" d="M349.17,-167.35C374.03,-171.02 405.87,-175.73 424.92,-178.55"/>
<polygon fill="midnightblue" stroke="midnightblue" points="349.41,-163.85 339,-165.84 348.38,-170.77 349.41,-163.85"/>
</g>
<!-- Node13 -->
<g id="node14" class="node">
<title>Node13</title>
<g id="a_node14"><a xlink:href="../../d5/db8/classnap_1_1_line_from_file.html" target="_top" xlink:title="LineFromFile">
<polygon fill="white" stroke="black" points="406,-133.5 406,-152.5 479,-152.5 479,-133.5 406,-133.5"/>
<text text-anchor="middle" x="442.5" y="-140.5" font-family="Helvetica,sans-Serif" font-size="10.00">LineFromFile</text>
</a>
</g>
</g>
<!-- Node9&#45;&gt;Node13 -->
<g id="edge13" class="edge">
<title>Node9&#45;&gt;Node13</title>
<path fill="none" stroke="midnightblue" d="M348.99,-156.68C366.74,-154.05 388.08,-150.9 405.8,-148.28"/>
<polygon fill="midnightblue" stroke="midnightblue" points="348.38,-153.23 339,-158.16 349.41,-160.15 348.38,-153.23"/>
</g>
<!-- Node14 -->
<g id="node15" class="node">
<title>Node14</title>
<g id="a_node15"><a xlink:href="../../dd/d77/classnap_1_1_rectangle.html" target="_top" xlink:title="Rectangle">
<polygon fill="white" stroke="black" points="412.5,-95.5 412.5,-114.5 472.5,-114.5 472.5,-95.5 412.5,-95.5"/>
<text text-anchor="middle" x="442.5" y="-102.5" font-family="Helvetica,sans-Serif" font-size="10.00">Rectangle</text>
</a>
</g>
</g>
<!-- Node9&#45;&gt;Node14 -->
<g id="edge14" class="edge">
<title>Node9&#45;&gt;Node14</title>
<path fill="none" stroke="midnightblue" d="M348.67,-151.13C355.82,-148.67 363.21,-145.91 370,-143 371.38,-142.41 402.82,-125.65 423.54,-114.59"/>
<polygon fill="midnightblue" stroke="midnightblue" points="347.55,-147.81 339.16,-154.29 349.76,-154.46 347.55,-147.81"/>
</g>
<!-- Node15 -->
<g id="node16" class="node">
<title>Node15</title>
<g id="a_node16"><a xlink:href="../../d9/d8d/classnap_1_1_triangle_line.html" target="_top" xlink:title="TriangleLine">
<polygon fill="white" stroke="black" points="408.5,-57.5 408.5,-76.5 476.5,-76.5 476.5,-57.5 408.5,-57.5"/>
<text text-anchor="middle" x="442.5" y="-64.5" font-family="Helvetica,sans-Serif" font-size="10.00">TriangleLine</text>
</a>
</g>
</g>
<!-- Node9&#45;&gt;Node15 -->
<g id="edge15" class="edge">
<title>Node9&#45;&gt;Node15</title>
<path fill="none" stroke="midnightblue" d="M348.93,-154.18C356.38,-151.46 363.83,-147.83 370,-143 393.59,-124.52 384.07,-106.41 406,-86 409.89,-82.38 414.6,-79.24 419.3,-76.6"/>
<polygon fill="midnightblue" stroke="midnightblue" points="347.71,-150.9 339.23,-157.26 349.82,-157.57 347.71,-150.9"/>
</g>
</g>
</svg>
