<?xml version="1.0" encoding="UTF-8" standalone="no"?>
<!DOCTYPE svg PUBLIC "-//W3C//DTD SVG 1.1//EN"
 "http://www.w3.org/Graphics/SVG/1.1/DTD/svg11.dtd">
<!-- Generated by graphviz version 2.43.0 (0)
 -->
<!-- Title: IMesh Pages: 1 -->
<svg width="515pt" height="408pt"
 viewBox="0.00 0.00 515.00 408.00" xmlns="http://www.w3.org/2000/svg" xmlns:xlink="http://www.w3.org/1999/xlink">
<g id="graph0" class="graph" transform="scale(1 1) rotate(0) translate(4 404)">
<title>IMesh</title>
<polygon fill="white" stroke="transparent" points="-4,4 -4,-404 511,-404 511,4 -4,4"/>
<!-- Node1 -->
<g id="node1" class="node">
<title>Node1</title>
<g id="a_node1"><a xlink:title=" ">
<polygon fill="#bfbfbf" stroke="black" points="182,-190.5 182,-209.5 228,-209.5 228,-190.5 182,-190.5"/>
<text text-anchor="middle" x="205" y="-197.5" font-family="Helvetica,sans-Serif" font-size="10.00">IMesh</text>
</a>
</g>
</g>
<!-- Node4 -->
<g id="node4" class="node">
<title>Node4</title>
<g id="a_node4"><a xlink:href="../../df/de6/classnap_1_1_box_mesh.html" target="_top" xlink:title=" ">
<polygon fill="white" stroke="black" points="297,-380.5 297,-399.5 359,-399.5 359,-380.5 297,-380.5"/>
<text text-anchor="middle" x="328" y="-387.5" font-family="Helvetica,sans-Serif" font-size="10.00">BoxMesh</text>
</a>
</g>
</g>
<!-- Node1&#45;&gt;Node4 -->
<g id="edge3" class="edge">
<title>Node1&#45;&gt;Node4</title>
<path fill="none" stroke="midnightblue" d="M207.02,-219.76C209.92,-255.15 221.08,-329.52 264,-371 272.79,-379.49 285.24,-384.21 296.75,-386.82"/>
<polygon fill="midnightblue" stroke="midnightblue" points="210.51,-219.47 206.34,-209.73 203.52,-219.95 210.51,-219.47"/>
</g>
<!-- Node5 -->
<g id="node5" class="node">
<title>Node5</title>
<g id="a_node5"><a xlink:href="../../d3/de8/classnap_1_1_geometry_from_file.html" target="_top" xlink:title=" ">
<polygon fill="white" stroke="black" points="274.5,-342.5 274.5,-361.5 381.5,-361.5 381.5,-342.5 274.5,-342.5"/>
<text text-anchor="middle" x="328" y="-349.5" font-family="Helvetica,sans-Serif" font-size="10.00">GeometryFromFile</text>
</a>
</g>
</g>
<!-- Node1&#45;&gt;Node5 -->
<g id="edge4" class="edge">
<title>Node1&#45;&gt;Node5</title>
<path fill="none" stroke="midnightblue" d="M209.24,-219.77C215.04,-248.79 229.91,-302.73 264,-333 268.36,-336.87 273.48,-339.95 278.89,-342.4"/>
<polygon fill="midnightblue" stroke="midnightblue" points="212.63,-218.86 207.39,-209.65 205.75,-220.12 212.63,-218.86"/>
</g>
<!-- Node6 -->
<g id="node6" class="node">
<title>Node6</title>
<g id="a_node6"><a xlink:href="../../d2/de2/classnap_1_1_gnomon_mesh.html" target="_top" xlink:title=" ">
<polygon fill="white" stroke="black" points="286,-304.5 286,-323.5 370,-323.5 370,-304.5 286,-304.5"/>
<text text-anchor="middle" x="328" y="-311.5" font-family="Helvetica,sans-Serif" font-size="10.00">GnomonMesh</text>
</a>
</g>
</g>
<!-- Node1&#45;&gt;Node6 -->
<g id="edge5" class="edge">
<title>Node1&#45;&gt;Node6</title>
<path fill="none" stroke="midnightblue" d="M212.81,-219.09C221.44,-240.62 238.37,-275.2 264,-295 270.42,-299.96 278.12,-303.63 285.91,-306.34"/>
<polygon fill="midnightblue" stroke="midnightblue" points="216.06,-217.79 209.23,-209.69 209.52,-220.28 216.06,-217.79"/>
</g>
<!-- Node7 -->
<g id="node7" class="node">
<title>Node7</title>
<g id="a_node7"><a xlink:href="../../d0/d32/classnap_1_1_mesh.html" target="_top" xlink:title=" ">
<polygon fill="white" stroke="black" points="306.5,-266.5 306.5,-285.5 349.5,-285.5 349.5,-266.5 306.5,-266.5"/>
<text text-anchor="middle" x="328" y="-273.5" font-family="Helvetica,sans-Serif" font-size="10.00">Mesh</text>
</a>
</g>
</g>
<!-- Node1&#45;&gt;Node7 -->
<g id="edge6" class="edge">
<title>Node1&#45;&gt;Node7</title>
<path fill="none" stroke="midnightblue" d="M219.77,-217.5C230.57,-230.13 246.63,-246.71 264,-257 277.07,-264.74 293.57,-269.57 306.4,-272.42"/>
<polygon fill="midnightblue" stroke="midnightblue" points="222.25,-215 213.19,-209.51 216.85,-219.45 222.25,-215"/>
</g>
<!-- Node8 -->
<g id="node8" class="node">
<title>Node8</title>
<g id="a_node8"><a xlink:href="../../db/d48/classnap_1_1_mesh_from_file.html" target="_top" xlink:title=" ">
<polygon fill="white" stroke="black" points="285.5,-228.5 285.5,-247.5 370.5,-247.5 370.5,-228.5 285.5,-228.5"/>
<text text-anchor="middle" x="328" y="-235.5" font-family="Helvetica,sans-Serif" font-size="10.00">MeshFromFile</text>
</a>
</g>
</g>
<!-- Node1&#45;&gt;Node8 -->
<g id="edge7" class="edge">
<title>Node1&#45;&gt;Node8</title>
<path fill="none" stroke="midnightblue" d="M237.84,-210.58C246.33,-213.36 255.5,-216.33 264,-219 274.03,-222.15 284.98,-225.49 294.91,-228.48"/>
<polygon fill="midnightblue" stroke="midnightblue" points="238.86,-207.23 228.27,-207.43 236.67,-213.88 238.86,-207.23"/>
</g>
<!-- Node9 -->
<g id="node9" class="node">
<title>Node9</title>
<g id="a_node9"><a xlink:href="../../de/dd6/classnap_1_1_plane_mesh.html" target="_top" xlink:title=" ">
<polygon fill="white" stroke="black" points="293,-190.5 293,-209.5 363,-209.5 363,-190.5 293,-190.5"/>
<text text-anchor="middle" x="328" y="-197.5" font-family="Helvetica,sans-Serif" font-size="10.00">PlaneMesh</text>
</a>
</g>
</g>
<!-- Node1&#45;&gt;Node9 -->
<g id="edge8" class="edge">
<title>Node1&#45;&gt;Node9</title>
<path fill="none" stroke="midnightblue" d="M238.57,-200C255.28,-200 275.63,-200 292.59,-200"/>
<polygon fill="midnightblue" stroke="midnightblue" points="238.19,-196.5 228.19,-200 238.19,-203.5 238.19,-196.5"/>
</g>
<!-- Node10 -->
<g id="node10" class="node">
<title>Node10</title>
<g id="a_node10"><a xlink:href="../../db/d34/classnap_1_1_poly_line.html" target="_top" xlink:title=" ">
<polygon fill="white" stroke="black" points="299,-152.5 299,-171.5 357,-171.5 357,-152.5 299,-152.5"/>
<text text-anchor="middle" x="328" y="-159.5" font-family="Helvetica,sans-Serif" font-size="10.00">PolyLine</text>
</a>
</g>
</g>
<!-- Node1&#45;&gt;Node10 -->
<g id="edge9" class="edge">
<title>Node1&#45;&gt;Node10</title>
<path fill="none" stroke="midnightblue" d="M237.84,-189.42C246.33,-186.64 255.5,-183.67 264,-181 275.33,-177.44 287.86,-173.63 298.73,-170.37"/>
<polygon fill="midnightblue" stroke="midnightblue" points="236.67,-186.12 228.27,-192.57 238.86,-192.77 236.67,-186.12"/>
</g>
<!-- Node17 -->
<g id="node17" class="node">
<title>Node17</title>
<g id="a_node17"><a xlink:href="../../de/d85/classnap_1_1_scatter_points_mesh.html" target="_top" xlink:title=" ">
<polygon fill="white" stroke="black" points="274.5,-114.5 274.5,-133.5 381.5,-133.5 381.5,-114.5 274.5,-114.5"/>
<text text-anchor="middle" x="328" y="-121.5" font-family="Helvetica,sans-Serif" font-size="10.00">ScatterPointsMesh</text>
</a>
</g>
</g>
<!-- Node1&#45;&gt;Node17 -->
<g id="edge16" class="edge">
<title>Node1&#45;&gt;Node17</title>
<path fill="none" stroke="midnightblue" d="M219.77,-182.5C230.57,-169.87 246.63,-153.29 264,-143 270.49,-139.16 277.82,-136.03 285.12,-133.51"/>
<polygon fill="midnightblue" stroke="midnightblue" points="216.85,-180.55 213.19,-190.49 222.25,-185 216.85,-180.55"/>
</g>
<!-- Node18 -->
<g id="node18" class="node">
<title>Node18</title>
<g id="a_node18"><a xlink:href="../../d6/d7b/classnap_1_1_sphere_mesh.html" target="_top" xlink:title=" ">
<polygon fill="white" stroke="black" points="289.5,-76.5 289.5,-95.5 366.5,-95.5 366.5,-76.5 289.5,-76.5"/>
<text text-anchor="middle" x="328" y="-83.5" font-family="Helvetica,sans-Serif" font-size="10.00">SphereMesh</text>
</a>
</g>
</g>
<!-- Node1&#45;&gt;Node18 -->
<g id="edge17" class="edge">
<title>Node1&#45;&gt;Node18</title>
<path fill="none" stroke="midnightblue" d="M212.81,-180.91C221.44,-159.38 238.37,-124.8 264,-105 271.32,-99.34 280.32,-95.36 289.2,-92.57"/>
<polygon fill="midnightblue" stroke="midnightblue" points="209.52,-179.72 209.23,-190.31 216.06,-182.21 209.52,-179.72"/>
</g>
<!-- Node19 -->
<g id="node19" class="node">
<title>Node19</title>
<g id="a_node19"><a xlink:href="../../d6/d9c/classnap_1_1_triangle_mesh.html" target="_top" xlink:title=" ">
<polygon fill="white" stroke="black" points="287.5,-38.5 287.5,-57.5 368.5,-57.5 368.5,-38.5 287.5,-38.5"/>
<text text-anchor="middle" x="328" y="-45.5" font-family="Helvetica,sans-Serif" font-size="10.00">TriangleMesh</text>
</a>
</g>
</g>
<!-- Node1&#45;&gt;Node19 -->
<g id="edge18" class="edge">
<title>Node1&#45;&gt;Node19</title>
<path fill="none" stroke="midnightblue" d="M209.24,-180.23C215.04,-151.21 229.91,-97.27 264,-67 270.58,-61.16 278.9,-57.11 287.32,-54.31"/>
<polygon fill="midnightblue" stroke="midnightblue" points="205.75,-179.88 207.39,-190.35 212.63,-181.14 205.75,-179.88"/>
</g>
<!-- Node20 -->
<g id="node20" class="node">
<title>Node20</title>
<g id="a_node20"><a xlink:href="../../de/d45/classnap_1_1_visualize_normals_mesh.html" target="_top" xlink:title=" ">
<polygon fill="white" stroke="black" points="264,-0.5 264,-19.5 392,-19.5 392,-0.5 264,-0.5"/>
<text text-anchor="middle" x="328" y="-7.5" font-family="Helvetica,sans-Serif" font-size="10.00">VisualizeNormalsMesh</text>
</a>
</g>
</g>
<!-- Node1&#45;&gt;Node20 -->
<g id="edge19" class="edge">
<title>Node1&#45;&gt;Node20</title>
<path fill="none" stroke="midnightblue" d="M207.02,-180.24C209.92,-144.85 221.08,-70.48 264,-29 268.03,-25.11 272.82,-22.01 277.94,-19.55"/>
<polygon fill="midnightblue" stroke="midnightblue" points="203.52,-180.05 206.34,-190.27 210.51,-180.53 203.52,-180.05"/>
</g>
<!-- Node2 -->
<g id="node2" class="node">
<title>Node2</title>
<g id="a_node2"><a xlink:href="../../d9/dea/classnap_1_1_resource.html" target="_top" xlink:title=" ">
<polygon fill="white" stroke="black" points="84,-190.5 84,-209.5 146,-209.5 146,-190.5 84,-190.5"/>
<text text-anchor="middle" x="115" y="-197.5" font-family="Helvetica,sans-Serif" font-size="10.00">Resource</text>
</a>
</g>
</g>
<!-- Node2&#45;&gt;Node1 -->
<g id="edge1" class="edge">
<title>Node2&#45;&gt;Node1</title>
<path fill="none" stroke="midnightblue" d="M156.44,-200C165.24,-200 174.23,-200 182,-200"/>
<polygon fill="midnightblue" stroke="midnightblue" points="156.28,-196.5 146.28,-200 156.28,-203.5 156.28,-196.5"/>
</g>
<!-- Node3 -->
<g id="node3" class="node">
<title>Node3</title>
<g id="a_node3"><a xlink:href="../../de/d01/classnap_1_1rtti_1_1_object.html" target="_top" xlink:title=" ">
<polygon fill="white" stroke="black" points="0,-190.5 0,-209.5 48,-209.5 48,-190.5 0,-190.5"/>
<text text-anchor="middle" x="24" y="-197.5" font-family="Helvetica,sans-Serif" font-size="10.00">Object</text>
</a>
</g>
</g>
<!-- Node3&#45;&gt;Node2 -->
<g id="edge2" class="edge">
<title>Node3&#45;&gt;Node2</title>
<path fill="none" stroke="midnightblue" d="M58.49,-200C66.78,-200 75.61,-200 83.73,-200"/>
<polygon fill="midnightblue" stroke="midnightblue" points="58.38,-196.5 48.38,-200 58.38,-203.5 58.38,-196.5"/>
</g>
<!-- Node11 -->
<g id="node11" class="node">
<title>Node11</title>
<g id="a_node11"><a xlink:href="../../da/dc5/classnap_1_1_circle.html" target="_top" xlink:title=" ">
<polygon fill="white" stroke="black" points="445.5,-247.5 445.5,-266.5 489.5,-266.5 489.5,-247.5 445.5,-247.5"/>
<text text-anchor="middle" x="467.5" y="-254.5" font-family="Helvetica,sans-Serif" font-size="10.00">Circle</text>
</a>
</g>
</g>
<!-- Node10&#45;&gt;Node11 -->
<g id="edge10" class="edge">
<title>Node10&#45;&gt;Node11</title>
<path fill="none" stroke="midnightblue" d="M366.86,-168.68C375.7,-171.47 384.67,-175.42 392,-181 415.85,-199.14 405.73,-217.95 428,-238 432.99,-242.49 439.22,-246.17 445.22,-249.06"/>
<polygon fill="midnightblue" stroke="midnightblue" points="367.59,-165.25 357.02,-165.99 365.75,-172.01 367.59,-165.25"/>
</g>
<!-- Node12 -->
<g id="node12" class="node">
<title>Node12</title>
<g id="a_node12"><a xlink:href="../../d7/d4f/classnap_1_1_hexagon.html" target="_top" xlink:title=" ">
<polygon fill="white" stroke="black" points="437.5,-209.5 437.5,-228.5 497.5,-228.5 497.5,-209.5 437.5,-209.5"/>
<text text-anchor="middle" x="467.5" y="-216.5" font-family="Helvetica,sans-Serif" font-size="10.00">Hexagon</text>
</a>
</g>
</g>
<!-- Node10&#45;&gt;Node12 -->
<g id="edge11" class="edge">
<title>Node10&#45;&gt;Node12</title>
<path fill="none" stroke="midnightblue" d="M366.66,-172.06C375.11,-174.68 383.95,-177.7 392,-181 408.74,-187.87 411.89,-191.77 428,-200 434.11,-203.12 440.8,-206.45 446.86,-209.44"/>
<polygon fill="midnightblue" stroke="midnightblue" points="367.58,-168.69 357,-169.19 365.59,-175.4 367.58,-168.69"/>
</g>
<!-- Node13 -->
<g id="node13" class="node">
<title>Node13</title>
<g id="a_node13"><a xlink:href="../../de/d34/classnap_1_1_line.html" target="_top" xlink:title=" ">
<polygon fill="white" stroke="black" points="449,-171.5 449,-190.5 486,-190.5 486,-171.5 449,-171.5"/>
<text text-anchor="middle" x="467.5" y="-178.5" font-family="Helvetica,sans-Serif" font-size="10.00">Line</text>
</a>
</g>
</g>
<!-- Node10&#45;&gt;Node13 -->
<g id="edge12" class="edge">
<title>Node10&#45;&gt;Node13</title>
<path fill="none" stroke="midnightblue" d="M367.33,-167.3C394.02,-170.98 428.37,-175.73 448.85,-178.56"/>
<polygon fill="midnightblue" stroke="midnightblue" points="367.54,-163.79 357.16,-165.89 366.58,-170.73 367.54,-163.79"/>
</g>
<!-- Node14 -->
<g id="node14" class="node">
<title>Node14</title>
<g id="a_node14"><a xlink:href="../../d5/db8/classnap_1_1_line_from_file.html" target="_top" xlink:title=" ">
<polygon fill="white" stroke="black" points="428,-133.5 428,-152.5 507,-152.5 507,-133.5 428,-133.5"/>
<text text-anchor="middle" x="467.5" y="-140.5" font-family="Helvetica,sans-Serif" font-size="10.00">LineFromFile</text>
</a>
</g>
</g>
<!-- Node10&#45;&gt;Node14 -->
<g id="edge13" class="edge">
<title>Node10&#45;&gt;Node14</title>
<path fill="none" stroke="midnightblue" d="M367.23,-156.72C386.17,-154.1 408.98,-150.95 427.96,-148.33"/>
<polygon fill="midnightblue" stroke="midnightblue" points="366.58,-153.27 357.16,-158.11 367.54,-160.21 366.58,-153.27"/>
</g>
<!-- Node15 -->
<g id="node15" class="node">
<title>Node15</title>
<g id="a_node15"><a xlink:href="../../dd/d77/classnap_1_1_rectangle.html" target="_top" xlink:title=" ">
<polygon fill="white" stroke="black" points="435,-95.5 435,-114.5 500,-114.5 500,-95.5 435,-95.5"/>
<text text-anchor="middle" x="467.5" y="-102.5" font-family="Helvetica,sans-Serif" font-size="10.00">Rectangle</text>
</a>
</g>
</g>
<!-- Node10&#45;&gt;Node15 -->
<g id="edge14" class="edge">
<title>Node10&#45;&gt;Node15</title>
<path fill="none" stroke="midnightblue" d="M366.66,-151.94C375.11,-149.32 383.95,-146.3 392,-143 408.74,-136.13 411.89,-132.23 428,-124 434.11,-120.88 440.8,-117.55 446.86,-114.56"/>
<polygon fill="midnightblue" stroke="midnightblue" points="365.59,-148.6 357,-154.81 367.58,-155.31 365.59,-148.6"/>
</g>
<!-- Node16 -->
<g id="node16" class="node">
<title>Node16</title>
<g id="a_node16"><a xlink:href="../../d9/d8d/classnap_1_1_triangle_line.html" target="_top" xlink:title=" ">
<polygon fill="white" stroke="black" points="430,-57.5 430,-76.5 505,-76.5 505,-57.5 430,-57.5"/>
<text text-anchor="middle" x="467.5" y="-64.5" font-family="Helvetica,sans-Serif" font-size="10.00">TriangleLine</text>
</a>
</g>
</g>
<!-- Node10&#45;&gt;Node16 -->
<g id="edge15" class="edge">
<title>Node10&#45;&gt;Node16</title>
<path fill="none" stroke="midnightblue" d="M366.86,-155.32C375.7,-152.53 384.67,-148.58 392,-143 415.85,-124.86 405.73,-106.05 428,-86 432.1,-82.31 437.05,-79.17 442.01,-76.56"/>
<polygon fill="midnightblue" stroke="midnightblue" points="365.75,-151.99 357.02,-158.01 367.59,-158.75 365.75,-151.99"/>
</g>
</g>
</svg>
