<?xml version="1.0" encoding="UTF-8" standalone="no"?>
<!DOCTYPE svg PUBLIC "-//W3C//DTD SVG 1.1//EN"
 "http://www.w3.org/Graphics/SVG/1.1/DTD/svg11.dtd">
<!-- Generated by graphviz version 2.48.0 (20210717.1556)
 -->
<!-- Title: KeyInputComponentInstance Pages: 1 -->
<svg width="571pt" height="127pt"
 viewBox="0.00 0.00 571.00 126.50" xmlns="http://www.w3.org/2000/svg" xmlns:xlink="http://www.w3.org/1999/xlink">
<g id="graph0" class="graph" transform="scale(1 1) rotate(0) translate(4 122.5)">
<title>KeyInputComponentInstance</title>
<polygon fill="white" stroke="transparent" points="-4,4 -4,-122.5 567,-122.5 567,4 -4,4"/>
<!-- Node4 -->
<g id="node1" class="node">
<title>Node4</title>
<polygon fill="#bfbfbf" stroke="black" points="422,-55 422,-74 563,-74 563,-55 422,-55"/>
<text text-anchor="middle" x="492.5" y="-62" font-family="Helvetica,sans-Serif" font-size="10.00">KeyInputComponentInstance</text>
</g>
<!-- Node5 -->
<g id="node2" class="node">
<title>Node5</title>
<g id="a_node2"><a xlink:href="../../dc/da6/classnap_1_1_input_component_instance.html" target="_top" xlink:title="InputComponentInstance">
<polygon fill="white" stroke="black" points="222,-99 222,-118 346,-118 346,-99 222,-99"/>
<text text-anchor="middle" x="284" y="-106" font-family="Helvetica,sans-Serif" font-size="10.00">InputComponentInstance</text>
</a>
</g>
</g>
<!-- Node5&#45;&gt;Node4 -->
<g id="edge1" class="edge">
<title>Node5&#45;&gt;Node4</title>
<path fill="none" stroke="midnightblue" d="M339.87,-96.81C373.28,-89.69 415.41,-80.71 446.78,-74.03"/>
<polygon fill="midnightblue" stroke="midnightblue" points="338.86,-93.45 329.81,-98.95 340.32,-100.29 338.86,-93.45"/>
</g>
<!-- Node6 -->
<g id="node3" class="node">
<title>Node6</title>
<g id="a_node3"><a xlink:href="../../d9/df2/classnap_1_1_component_instance.html" target="_top" xlink:title="ComponentInstance">
<polygon fill="white" stroke="black" points="82,-99 82,-118 185,-118 185,-99 82,-99"/>
<text text-anchor="middle" x="133.5" y="-106" font-family="Helvetica,sans-Serif" font-size="10.00">ComponentInstance</text>
</a>
</g>
</g>
<!-- Node6&#45;&gt;Node5 -->
<g id="edge2" class="edge">
<title>Node6&#45;&gt;Node5</title>
<path fill="none" stroke="midnightblue" d="M195.29,-108.5C204.03,-108.5 213.02,-108.5 221.76,-108.5"/>
<polygon fill="midnightblue" stroke="midnightblue" points="195.19,-105 185.19,-108.5 195.19,-112 195.19,-105"/>
</g>
<!-- Node7 -->
<g id="node4" class="node">
<title>Node7</title>
<g id="a_node4"><a xlink:href="../../de/d01/classnap_1_1rtti_1_1_object.html" target="_top" xlink:title="Object">
<polygon fill="white" stroke="black" points="0,-99 0,-118 45,-118 45,-99 0,-99"/>
<text text-anchor="middle" x="22.5" y="-106" font-family="Helvetica,sans-Serif" font-size="10.00">Object</text>
</a>
</g>
</g>
<!-- Node7&#45;&gt;Node6 -->
<g id="edge3" class="edge">
<title>Node7&#45;&gt;Node6</title>
<path fill="none" stroke="midnightblue" d="M55.05,-108.5C63.39,-108.5 72.6,-108.5 81.68,-108.5"/>
<polygon fill="midnightblue" stroke="midnightblue" points="55.03,-105 45.03,-108.5 55.03,-112 55.03,-105"/>
</g>
<!-- Node8 -->
<g id="node5" class="node">
<title>Node8</title>
<g id="a_node5"><a xlink:href="../../de/d80/classnap_1_1_signal.html" target="_top" xlink:title="Signal\&lt; const nap::\lKeyReleaseEvent &amp;\&gt;">
<polygon fill="white" stroke="black" points="229.5,-49.5 229.5,-79.5 338.5,-79.5 338.5,-49.5 229.5,-49.5"/>
<text text-anchor="start" x="237.5" y="-67.5" font-family="Helvetica,sans-Serif" font-size="10.00">Signal&lt; const nap::</text>
<text text-anchor="middle" x="284" y="-56.5" font-family="Helvetica,sans-Serif" font-size="10.00">KeyReleaseEvent &amp;&gt;</text>
</a>
</g>
</g>
<!-- Node8&#45;&gt;Node4 -->
<g id="edge4" class="edge">
<title>Node8&#45;&gt;Node4</title>
<path fill="none" stroke="#9a32cd" stroke-dasharray="5,2" d="M348.76,-64.5C371.87,-64.5 398.09,-64.5 421.7,-64.5"/>
<polygon fill="#9a32cd" stroke="#9a32cd" points="348.72,-61 338.72,-64.5 348.72,-68 348.72,-61"/>
<text text-anchor="middle" x="384" y="-67.5" font-family="Helvetica,sans-Serif" font-size="10.00"> released</text>
</g>
<!-- Node9 -->
<g id="node6" class="node">
<title>Node9</title>
<g id="a_node6"><a xlink:href="../../de/d80/classnap_1_1_signal.html" target="_top" xlink:title="Signal\&lt; const nap::\lKeyPressEvent &amp;\&gt;">
<polygon fill="white" stroke="black" points="233.5,-0.5 233.5,-30.5 334.5,-30.5 334.5,-0.5 233.5,-0.5"/>
<text text-anchor="start" x="241.5" y="-18.5" font-family="Helvetica,sans-Serif" font-size="10.00">Signal&lt; const nap::</text>
<text text-anchor="middle" x="284" y="-7.5" font-family="Helvetica,sans-Serif" font-size="10.00">KeyPressEvent &amp;&gt;</text>
</a>
</g>
</g>
<!-- Node9&#45;&gt;Node4 -->
<g id="edge5" class="edge">
<title>Node9&#45;&gt;Node4</title>
<path fill="none" stroke="#9a32cd" stroke-dasharray="5,2" d="M344.61,-29.64C378.82,-37.76 420.87,-47.74 451.2,-54.94"/>
<polygon fill="#9a32cd" stroke="#9a32cd" points="345.26,-26.2 334.72,-27.3 343.65,-33.01 345.26,-26.2"/>
<text text-anchor="middle" x="384" y="-46.5" font-family="Helvetica,sans-Serif" font-size="10.00"> pressed</text>
</g>
</g>
</svg>
