<?xml version="1.0" encoding="UTF-8" standalone="no"?>
<!DOCTYPE svg PUBLIC "-//W3C//DTD SVG 1.1//EN"
 "http://www.w3.org/Graphics/SVG/1.1/DTD/svg11.dtd">
<!-- Generated by graphviz version 2.43.0 (0)
 -->
<!-- Title: KeyInputComponentInstance Pages: 1 -->
<svg width="622pt" height="127pt"
 viewBox="0.00 0.00 622.00 126.50" xmlns="http://www.w3.org/2000/svg" xmlns:xlink="http://www.w3.org/1999/xlink">
<g id="graph0" class="graph" transform="scale(1 1) rotate(0) translate(4 122.5)">
<title>KeyInputComponentInstance</title>
<polygon fill="white" stroke="transparent" points="-4,4 -4,-122.5 618,-122.5 618,4 -4,4"/>
<!-- Node1 -->
<g id="node1" class="node">
<title>Node1</title>
<g id="a_node1"><a xlink:title=" ">
<polygon fill="#bfbfbf" stroke="black" points="457,-55 457,-74 614,-74 614,-55 457,-55"/>
<text text-anchor="middle" x="535.5" y="-62" font-family="Helvetica,sans-Serif" font-size="10.00">KeyInputComponentInstance</text>
</a>
</g>
</g>
<!-- Node2 -->
<g id="node2" class="node">
<title>Node2</title>
<g id="a_node2"><a xlink:href="../../dc/da6/classnap_1_1_input_component_instance.html" target="_top" xlink:title=" ">
<polygon fill="white" stroke="black" points="236,-99 236,-118 375,-118 375,-99 236,-99"/>
<text text-anchor="middle" x="305.5" y="-106" font-family="Helvetica,sans-Serif" font-size="10.00">InputComponentInstance</text>
</a>
</g>
</g>
<!-- Node2&#45;&gt;Node1 -->
<g id="edge1" class="edge">
<title>Node2&#45;&gt;Node1</title>
<path fill="none" stroke="midnightblue" d="M366.13,-96.99C403.16,-89.85 450.19,-80.77 485.12,-74.03"/>
<polygon fill="midnightblue" stroke="midnightblue" points="365.13,-93.62 355.97,-98.95 366.45,-100.49 365.13,-93.62"/>
</g>
<!-- Node3 -->
<g id="node3" class="node">
<title>Node3</title>
<g id="a_node3"><a xlink:href="../../d9/df2/classnap_1_1_component_instance.html" target="_top" xlink:title=" ">
<polygon fill="white" stroke="black" points="85,-99 85,-118 199,-118 199,-99 85,-99"/>
<text text-anchor="middle" x="142" y="-106" font-family="Helvetica,sans-Serif" font-size="10.00">ComponentInstance</text>
</a>
</g>
</g>
<!-- Node3&#45;&gt;Node2 -->
<g id="edge2" class="edge">
<title>Node3&#45;&gt;Node2</title>
<path fill="none" stroke="midnightblue" d="M209.19,-108.5C217.95,-108.5 226.95,-108.5 235.76,-108.5"/>
<polygon fill="midnightblue" stroke="midnightblue" points="209.03,-105 199.03,-108.5 209.03,-112 209.03,-105"/>
</g>
<!-- Node4 -->
<g id="node4" class="node">
<title>Node4</title>
<g id="a_node4"><a xlink:href="../../de/d01/classnap_1_1rtti_1_1_object.html" target="_top" xlink:title=" ">
<polygon fill="white" stroke="black" points="0,-99 0,-118 48,-118 48,-99 0,-99"/>
<text text-anchor="middle" x="24" y="-106" font-family="Helvetica,sans-Serif" font-size="10.00">Object</text>
</a>
</g>
</g>
<!-- Node4&#45;&gt;Node3 -->
<g id="edge3" class="edge">
<title>Node4&#45;&gt;Node3</title>
<path fill="none" stroke="midnightblue" d="M58.2,-108.5C66.5,-108.5 75.64,-108.5 84.72,-108.5"/>
<polygon fill="midnightblue" stroke="midnightblue" points="58.2,-105 48.2,-108.5 58.2,-112 58.2,-105"/>
</g>
<!-- Node5 -->
<g id="node5" class="node">
<title>Node5</title>
<g id="a_node5"><a xlink:href="../../de/d80/classnap_1_1_signal.html" target="_top" xlink:title=" ">
<polygon fill="white" stroke="black" points="250,-49.5 250,-79.5 361,-79.5 361,-49.5 250,-49.5"/>
<text text-anchor="start" x="258" y="-67.5" font-family="Helvetica,sans-Serif" font-size="10.00">Signal&lt; const nap::</text>
<text text-anchor="middle" x="305.5" y="-56.5" font-family="Helvetica,sans-Serif" font-size="10.00">KeyPressEvent &amp; &gt;</text>
</a>
</g>
</g>
<!-- Node5&#45;&gt;Node1 -->
<g id="edge4" class="edge">
<title>Node5&#45;&gt;Node1</title>
<path fill="none" stroke="#9a32cd" stroke-dasharray="5,2" d="M371.43,-64.5C397.96,-64.5 428.88,-64.5 456.62,-64.5"/>
<polygon fill="#9a32cd" stroke="#9a32cd" points="371.11,-61 361.11,-64.5 371.11,-68 371.11,-61"/>
<text text-anchor="middle" x="416" y="-67.5" font-family="Helvetica,sans-Serif" font-size="10.00"> pressed</text>
</g>
<!-- Node6 -->
<g id="node6" class="node">
<title>Node6</title>
<g id="a_node6"><a xlink:href="../../de/d80/classnap_1_1_signal.html" target="_top" xlink:title=" ">
<polygon fill="white" stroke="black" points="244,-0.5 244,-30.5 367,-30.5 367,-0.5 244,-0.5"/>
<text text-anchor="start" x="252" y="-18.5" font-family="Helvetica,sans-Serif" font-size="10.00">Signal&lt; const nap::</text>
<text text-anchor="middle" x="305.5" y="-7.5" font-family="Helvetica,sans-Serif" font-size="10.00">KeyReleaseEvent &amp; &gt;</text>
</a>
</g>
</g>
<!-- Node6&#45;&gt;Node1 -->
<g id="edge5" class="edge">
<title>Node6&#45;&gt;Node1</title>
<path fill="none" stroke="#9a32cd" stroke-dasharray="5,2" d="M377.19,-30.69C414.02,-38.61 457.94,-48.05 490,-54.94"/>
<polygon fill="#9a32cd" stroke="#9a32cd" points="377.51,-27.18 367,-28.5 376.04,-34.03 377.51,-27.18"/>
<text text-anchor="middle" x="416" y="-46.5" font-family="Helvetica,sans-Serif" font-size="10.00"> released</text>
</g>
</g>
</svg>
