<?xml version="1.0" encoding="UTF-8" standalone="no"?>
<!DOCTYPE svg PUBLIC "-//W3C//DTD SVG 1.1//EN"
 "http://www.w3.org/Graphics/SVG/1.1/DTD/svg11.dtd">
<!-- Generated by graphviz version 2.48.0 (20210717.1556)
 -->
<!-- Title: ComputeMaterialInstance Pages: 1 -->
<svg width="917pt" height="186pt"
 viewBox="0.00 0.00 917.00 186.00" xmlns="http://www.w3.org/2000/svg" xmlns:xlink="http://www.w3.org/1999/xlink">
<g id="graph0" class="graph" transform="scale(1 1) rotate(0) translate(4 182)">
<title>ComputeMaterialInstance</title>
<polygon fill="white" stroke="transparent" points="-4,4 -4,-182 913,-182 913,4 -4,4"/>
<!-- Node3 -->
<g id="node1" class="node">
<title>Node3</title>
<polygon fill="#bfbfbf" stroke="black" points="782,-76.5 782,-95.5 909,-95.5 909,-76.5 782,-76.5"/>
<text text-anchor="middle" x="845.5" y="-83.5" font-family="Helvetica,sans-Serif" font-size="10.00">ComputeMaterialInstance</text>
</g>
<!-- Node4 -->
<g id="node2" class="node">
<title>Node4</title>
<g id="a_node2"><a xlink:href="../../d4/d2c/classnap_1_1_base_material_instance.html" target="_top" xlink:title="BaseMaterialInstance">
<polygon fill="white" stroke="black" points="635,-76.5 635,-95.5 745,-95.5 745,-76.5 635,-76.5"/>
<text text-anchor="middle" x="690" y="-83.5" font-family="Helvetica,sans-Serif" font-size="10.00">BaseMaterialInstance</text>
</a>
</g>
</g>
<!-- Node4&#45;&gt;Node3 -->
<g id="edge1" class="edge">
<title>Node4&#45;&gt;Node3</title>
<path fill="none" stroke="midnightblue" d="M755.33,-86C764.14,-86 773.18,-86 781.95,-86"/>
<polygon fill="midnightblue" stroke="midnightblue" points="755.12,-82.5 745.12,-86 755.12,-89.5 755.12,-82.5"/>
</g>
<!-- Node5 -->
<g id="node3" class="node">
<title>Node5</title>
<g id="a_node3"><a xlink:href="../../d5/d6c/classnap_1_1_uniform_container.html" target="_top" xlink:title="UniformContainer">
<polygon fill="white" stroke="black" points="114,-158.5 114,-177.5 205,-177.5 205,-158.5 114,-158.5"/>
<text text-anchor="middle" x="159.5" y="-165.5" font-family="Helvetica,sans-Serif" font-size="10.00">UniformContainer</text>
</a>
</g>
</g>
<!-- Node5&#45;&gt;Node4 -->
<g id="edge2" class="edge">
<title>Node5&#45;&gt;Node4</title>
<path fill="none" stroke="midnightblue" d="M215.26,-171.46C302.72,-175.17 478.21,-175.2 617,-128 639.33,-120.41 662.42,-105.46 676.24,-95.59"/>
<polygon fill="midnightblue" stroke="midnightblue" points="215.19,-167.95 205.04,-170.99 214.87,-174.94 215.19,-167.95"/>
</g>
<!-- Node11 -->
<g id="node9" class="node">
<title>Node11</title>
<g id="a_node9"><a xlink:href="../../da/d69/classnap_1_1_base_material.html" target="_top" xlink:title="BaseMaterial">
<polygon fill="white" stroke="black" points="387,-114.5 387,-133.5 461,-133.5 461,-114.5 387,-114.5"/>
<text text-anchor="middle" x="424" y="-121.5" font-family="Helvetica,sans-Serif" font-size="10.00">BaseMaterial</text>
</a>
</g>
</g>
<!-- Node5&#45;&gt;Node11 -->
<g id="edge11" class="edge">
<title>Node5&#45;&gt;Node11</title>
<path fill="none" stroke="midnightblue" d="M214.99,-158.87C266.47,-150.24 342.25,-137.54 386.72,-130.08"/>
<polygon fill="midnightblue" stroke="midnightblue" points="214.31,-155.43 205.03,-160.54 215.47,-162.33 214.31,-155.43"/>
</g>
<!-- Node6 -->
<g id="node4" class="node">
<title>Node6</title>
<g id="a_node4"><a xlink:href="../../d5/dc6/classnap_1_1_render_service.html" target="_top" xlink:title="RenderService">
<polygon fill="white" stroke="black" points="384.5,-76.5 384.5,-95.5 463.5,-95.5 463.5,-76.5 384.5,-76.5"/>
<text text-anchor="middle" x="424" y="-83.5" font-family="Helvetica,sans-Serif" font-size="10.00">RenderService</text>
</a>
</g>
</g>
<!-- Node6&#45;&gt;Node4 -->
<g id="edge3" class="edge">
<title>Node6&#45;&gt;Node4</title>
<path fill="none" stroke="#9a32cd" stroke-dasharray="5,2" d="M473.9,-86C519.48,-86 587.36,-86 634.63,-86"/>
<polygon fill="#9a32cd" stroke="#9a32cd" points="473.67,-82.5 463.67,-86 473.67,-89.5 473.67,-82.5"/>
<text text-anchor="middle" x="567.5" y="-89" font-family="Helvetica,sans-Serif" font-size="10.00"> mRenderService</text>
</g>
<!-- Node7 -->
<g id="node5" class="node">
<title>Node7</title>
<g id="a_node5"><a xlink:href="../../d8/d8e/classnap_1_1_service.html" target="_top" xlink:title="Service">
<polygon fill="white" stroke="black" points="135.5,-76.5 135.5,-95.5 183.5,-95.5 183.5,-76.5 135.5,-76.5"/>
<text text-anchor="middle" x="159.5" y="-83.5" font-family="Helvetica,sans-Serif" font-size="10.00">Service</text>
</a>
</g>
</g>
<!-- Node7&#45;&gt;Node6 -->
<g id="edge4" class="edge">
<title>Node7&#45;&gt;Node6</title>
<path fill="none" stroke="midnightblue" d="M194.1,-86C242.8,-86 332.77,-86 384.21,-86"/>
<polygon fill="midnightblue" stroke="midnightblue" points="193.8,-82.5 183.8,-86 193.8,-89.5 193.8,-82.5"/>
</g>
<!-- Node8 -->
<g id="node6" class="node">
<title>Node8</title>
<g id="a_node6"><a xlink:href="../../de/d80/classnap_1_1_signal.html" target="_top" xlink:title="Signal\&lt; nap::RenderWindow &amp;\&gt;">
<polygon fill="white" stroke="black" points="82,-38.5 82,-57.5 237,-57.5 237,-38.5 82,-38.5"/>
<text text-anchor="middle" x="159.5" y="-45.5" font-family="Helvetica,sans-Serif" font-size="10.00">Signal&lt; nap::RenderWindow &amp;&gt;</text>
</a>
</g>
</g>
<!-- Node8&#45;&gt;Node6 -->
<g id="edge5" class="edge">
<title>Node8&#45;&gt;Node6</title>
<path fill="none" stroke="#9a32cd" stroke-dasharray="5,2" d="M247.27,-49.13C274.04,-50.82 303.46,-54.04 330,-60 338.38,-61.88 339.82,-64.39 348,-67 359.64,-70.72 372.48,-74.2 384.2,-77.14"/>
<polygon fill="#9a32cd" stroke="#9a32cd" points="247.33,-45.63 237.15,-48.56 246.93,-52.62 247.33,-45.63"/>
<text text-anchor="middle" x="292.5" y="-74" font-family="Helvetica,sans-Serif" font-size="10.00"> windowRemoved</text>
<text text-anchor="middle" x="292.5" y="-63" font-family="Helvetica,sans-Serif" font-size="10.00">windowAdded</text>
</g>
<!-- Node9 -->
<g id="node7" class="node">
<title>Node9</title>
<g id="a_node7"><a xlink:href="../../d2/d1c/classnap_1_1_descriptor_set_cache.html" target="_top" xlink:title="DescriptorSetCache">
<polygon fill="white" stroke="black" points="372,-38.5 372,-57.5 476,-57.5 476,-38.5 372,-38.5"/>
<text text-anchor="middle" x="424" y="-45.5" font-family="Helvetica,sans-Serif" font-size="10.00">DescriptorSetCache</text>
</a>
</g>
</g>
<!-- Node9&#45;&gt;Node4 -->
<g id="edge6" class="edge">
<title>Node9&#45;&gt;Node4</title>
<path fill="none" stroke="#9a32cd" stroke-dasharray="5,2" d="M486.44,-54C524.21,-58.02 573.54,-63.88 617,-71 626.45,-72.55 636.54,-74.48 646.09,-76.43"/>
<polygon fill="#9a32cd" stroke="#9a32cd" points="486.41,-50.48 476.1,-52.91 485.68,-57.44 486.41,-50.48"/>
<text text-anchor="middle" x="567.5" y="-74" font-family="Helvetica,sans-Serif" font-size="10.00"> mDescriptorSetCache</text>
</g>
<!-- Node10 -->
<g id="node8" class="node">
<title>Node10</title>
<g id="a_node8"><a xlink:href="../../df/d7a/classnap_1_1_base_material_instance_resource.html" target="_top" xlink:title="BaseMaterialInstanceResource">
<polygon fill="white" stroke="black" points="348,-0.5 348,-19.5 500,-19.5 500,-0.5 348,-0.5"/>
<text text-anchor="middle" x="424" y="-7.5" font-family="Helvetica,sans-Serif" font-size="10.00">BaseMaterialInstanceResource</text>
</a>
</g>
</g>
<!-- Node10&#45;&gt;Node4 -->
<g id="edge7" class="edge">
<title>Node10&#45;&gt;Node4</title>
<path fill="none" stroke="#9a32cd" stroke-dasharray="5,2" d="M509.97,-17.77C543.99,-22.63 583.08,-30.45 617,-43 639.26,-51.23 662.36,-66.41 676.21,-76.36"/>
<polygon fill="#9a32cd" stroke="#9a32cd" points="510.44,-14.3 500.06,-16.42 509.49,-21.24 510.44,-14.3"/>
<text text-anchor="middle" x="567.5" y="-46" font-family="Helvetica,sans-Serif" font-size="10.00"> mResource</text>
</g>
<!-- Node11&#45;&gt;Node4 -->
<g id="edge8" class="edge">
<title>Node11&#45;&gt;Node4</title>
<path fill="none" stroke="#9a32cd" stroke-dasharray="5,2" d="M471.19,-119.11C510.16,-114.78 567.36,-107.92 617,-100 625.3,-98.68 634.11,-97.1 642.6,-95.5"/>
<polygon fill="#9a32cd" stroke="#9a32cd" points="470.75,-115.64 461.2,-120.21 471.52,-122.6 470.75,-115.64"/>
<text text-anchor="middle" x="567.5" y="-116" font-family="Helvetica,sans-Serif" font-size="10.00"> mMaterial</text>
</g>
<!-- Node12 -->
<g id="node10" class="node">
<title>Node12</title>
<g id="a_node10"><a xlink:href="../../d9/dea/classnap_1_1_resource.html" target="_top" xlink:title="Resource">
<polygon fill="white" stroke="black" points="130.5,-114.5 130.5,-133.5 188.5,-133.5 188.5,-114.5 130.5,-114.5"/>
<text text-anchor="middle" x="159.5" y="-121.5" font-family="Helvetica,sans-Serif" font-size="10.00">Resource</text>
</a>
</g>
</g>
<!-- Node12&#45;&gt;Node11 -->
<g id="edge9" class="edge">
<title>Node12&#45;&gt;Node11</title>
<path fill="none" stroke="midnightblue" d="M198.76,-124C249.2,-124 337.34,-124 386.76,-124"/>
<polygon fill="midnightblue" stroke="midnightblue" points="198.59,-120.5 188.59,-124 198.59,-127.5 198.59,-120.5"/>
</g>
<!-- Node13 -->
<g id="node11" class="node">
<title>Node13</title>
<g id="a_node11"><a xlink:href="../../de/d01/classnap_1_1rtti_1_1_object.html" target="_top" xlink:title="Object">
<polygon fill="white" stroke="black" points="0,-114.5 0,-133.5 45,-133.5 45,-114.5 0,-114.5"/>
<text text-anchor="middle" x="22.5" y="-121.5" font-family="Helvetica,sans-Serif" font-size="10.00">Object</text>
</a>
</g>
</g>
<!-- Node13&#45;&gt;Node12 -->
<g id="edge10" class="edge">
<title>Node13&#45;&gt;Node12</title>
<path fill="none" stroke="midnightblue" d="M55.36,-124C78.11,-124 108.42,-124 130.29,-124"/>
<polygon fill="midnightblue" stroke="midnightblue" points="55.19,-120.5 45.19,-124 55.19,-127.5 55.19,-120.5"/>
</g>
</g>
</svg>
