<?xml version="1.0" encoding="UTF-8" standalone="no"?>
<!DOCTYPE svg PUBLIC "-//W3C//DTD SVG 1.1//EN"
 "http://www.w3.org/Graphics/SVG/1.1/DTD/svg11.dtd">
<!-- Generated by graphviz version 2.43.0 (0)
 -->
<!-- Title: ComputeMaterialInstance Pages: 1 -->
<svg width="1008pt" height="186pt"
 viewBox="0.00 0.00 1008.00 186.00" xmlns="http://www.w3.org/2000/svg" xmlns:xlink="http://www.w3.org/1999/xlink">
<g id="graph0" class="graph" transform="scale(1 1) rotate(0) translate(4 182)">
<title>ComputeMaterialInstance</title>
<polygon fill="white" stroke="transparent" points="-4,4 -4,-182 1004,-182 1004,4 -4,4"/>
<!-- Node1 -->
<g id="node1" class="node">
<title>Node1</title>
<g id="a_node1"><a xlink:title=" ">
<polygon fill="#bfbfbf" stroke="black" points="857,-76.5 857,-95.5 1000,-95.5 1000,-76.5 857,-76.5"/>
<text text-anchor="middle" x="928.5" y="-83.5" font-family="Helvetica,sans-Serif" font-size="10.00">ComputeMaterialInstance</text>
</a>
</g>
</g>
<!-- Node2 -->
<g id="node2" class="node">
<title>Node2</title>
<g id="a_node2"><a xlink:href="../../d4/d2c/classnap_1_1_base_material_instance.html" target="_top" xlink:title=" ">
<polygon fill="white" stroke="black" points="698,-76.5 698,-95.5 820,-95.5 820,-76.5 698,-76.5"/>
<text text-anchor="middle" x="759" y="-83.5" font-family="Helvetica,sans-Serif" font-size="10.00">BaseMaterialInstance</text>
</a>
</g>
</g>
<!-- Node2&#45;&gt;Node1 -->
<g id="edge1" class="edge">
<title>Node2&#45;&gt;Node1</title>
<path fill="none" stroke="midnightblue" d="M830.57,-86C839.27,-86 848.16,-86 856.86,-86"/>
<polygon fill="midnightblue" stroke="midnightblue" points="830.47,-82.5 820.47,-86 830.47,-89.5 830.47,-82.5"/>
</g>
<!-- Node3 -->
<g id="node3" class="node">
<title>Node3</title>
<g id="a_node3"><a xlink:href="../../d5/d6c/classnap_1_1_uniform_container.html" target="_top" xlink:title=" ">
<polygon fill="white" stroke="black" points="121.5,-158.5 121.5,-177.5 225.5,-177.5 225.5,-158.5 121.5,-158.5"/>
<text text-anchor="middle" x="173.5" y="-165.5" font-family="Helvetica,sans-Serif" font-size="10.00">UniformContainer</text>
</a>
</g>
</g>
<!-- Node3&#45;&gt;Node2 -->
<g id="edge2" class="edge">
<title>Node3&#45;&gt;Node2</title>
<path fill="none" stroke="midnightblue" d="M236,-171.89C332.89,-176.09 525.9,-176.64 680,-128 703.91,-120.45 728.99,-105.49 744.06,-95.61"/>
<polygon fill="midnightblue" stroke="midnightblue" points="235.95,-168.38 225.8,-171.42 235.63,-175.38 235.95,-168.38"/>
</g>
<!-- Node9 -->
<g id="node9" class="node">
<title>Node9</title>
<g id="a_node9"><a xlink:href="../../da/d69/classnap_1_1_base_material.html" target="_top" xlink:title=" ">
<polygon fill="white" stroke="black" points="429,-114.5 429,-133.5 510,-133.5 510,-114.5 429,-114.5"/>
<text text-anchor="middle" x="469.5" y="-121.5" font-family="Helvetica,sans-Serif" font-size="10.00">BaseMaterial</text>
</a>
</g>
</g>
<!-- Node3&#45;&gt;Node9 -->
<g id="edge11" class="edge">
<title>Node3&#45;&gt;Node9</title>
<path fill="none" stroke="midnightblue" d="M235.85,-158.82C293.83,-150.14 379.11,-137.38 428.71,-129.96"/>
<polygon fill="midnightblue" stroke="midnightblue" points="235.08,-155.39 225.71,-160.34 236.12,-162.32 235.08,-155.39"/>
</g>
<!-- Node4 -->
<g id="node4" class="node">
<title>Node4</title>
<g id="a_node4"><a xlink:href="../../d5/dc6/classnap_1_1_render_service.html" target="_top" xlink:title=" ">
<polygon fill="white" stroke="black" points="426,-76.5 426,-95.5 513,-95.5 513,-76.5 426,-76.5"/>
<text text-anchor="middle" x="469.5" y="-83.5" font-family="Helvetica,sans-Serif" font-size="10.00">RenderService</text>
</a>
</g>
</g>
<!-- Node4&#45;&gt;Node2 -->
<g id="edge3" class="edge">
<title>Node4&#45;&gt;Node2</title>
<path fill="none" stroke="#9a32cd" stroke-dasharray="5,2" d="M523.37,-86C572.68,-86 646.18,-86 697.74,-86"/>
<polygon fill="#9a32cd" stroke="#9a32cd" points="523.23,-82.5 513.23,-86 523.23,-89.5 523.23,-82.5"/>
<text text-anchor="middle" x="625.5" y="-89" font-family="Helvetica,sans-Serif" font-size="10.00"> mRenderService</text>
</g>
<!-- Node5 -->
<g id="node5" class="node">
<title>Node5</title>
<g id="a_node5"><a xlink:href="../../d8/d8e/classnap_1_1_service.html" target="_top" xlink:title=" ">
<polygon fill="white" stroke="black" points="147,-76.5 147,-95.5 200,-95.5 200,-76.5 147,-76.5"/>
<text text-anchor="middle" x="173.5" y="-83.5" font-family="Helvetica,sans-Serif" font-size="10.00">Service</text>
</a>
</g>
</g>
<!-- Node5&#45;&gt;Node4 -->
<g id="edge4" class="edge">
<title>Node5&#45;&gt;Node4</title>
<path fill="none" stroke="midnightblue" d="M210.27,-86C264.6,-86 367.77,-86 425.9,-86"/>
<polygon fill="midnightblue" stroke="midnightblue" points="210.08,-82.5 200.08,-86 210.08,-89.5 210.08,-82.5"/>
</g>
<!-- Node6 -->
<g id="node6" class="node">
<title>Node6</title>
<g id="a_node6"><a xlink:href="../../de/d80/classnap_1_1_signal.html" target="_top" xlink:title=" ">
<polygon fill="white" stroke="black" points="85,-38.5 85,-57.5 262,-57.5 262,-38.5 85,-38.5"/>
<text text-anchor="middle" x="173.5" y="-45.5" font-family="Helvetica,sans-Serif" font-size="10.00">Signal&lt; nap::RenderWindow &amp; &gt;</text>
</a>
</g>
</g>
<!-- Node6&#45;&gt;Node4 -->
<g id="edge5" class="edge">
<title>Node6&#45;&gt;Node4</title>
<path fill="none" stroke="#9a32cd" stroke-dasharray="5,2" d="M272.77,-48.23C303.54,-49.86 337.43,-53.28 368,-60 376.38,-61.84 377.8,-64.47 386,-67 398.78,-70.94 412.9,-74.47 425.79,-77.4"/>
<polygon fill="#9a32cd" stroke="#9a32cd" points="272.62,-44.71 262.47,-47.74 272.29,-51.71 272.62,-44.71"/>
<text text-anchor="middle" x="324" y="-74" font-family="Helvetica,sans-Serif" font-size="10.00"> windowRemoved</text>
<text text-anchor="middle" x="324" y="-63" font-family="Helvetica,sans-Serif" font-size="10.00">windowAdded</text>
</g>
<!-- Node7 -->
<g id="node7" class="node">
<title>Node7</title>
<g id="a_node7"><a xlink:href="../../d2/d1c/classnap_1_1_descriptor_set_cache.html" target="_top" xlink:title=" ">
<polygon fill="white" stroke="black" points="413,-38.5 413,-57.5 526,-57.5 526,-38.5 413,-38.5"/>
<text text-anchor="middle" x="469.5" y="-45.5" font-family="Helvetica,sans-Serif" font-size="10.00">DescriptorSetCache</text>
</a>
</g>
</g>
<!-- Node7&#45;&gt;Node2 -->
<g id="edge6" class="edge">
<title>Node7&#45;&gt;Node2</title>
<path fill="none" stroke="#9a32cd" stroke-dasharray="5,2" d="M536.19,-53.84C577.57,-57.86 632.04,-63.77 680,-71 690.36,-72.56 701.45,-74.52 711.91,-76.5"/>
<polygon fill="#9a32cd" stroke="#9a32cd" points="536.52,-50.36 526.24,-52.89 535.86,-57.32 536.52,-50.36"/>
<text text-anchor="middle" x="625.5" y="-74" font-family="Helvetica,sans-Serif" font-size="10.00"> mDescriptorSetCache</text>
</g>
<!-- Node8 -->
<g id="node8" class="node">
<title>Node8</title>
<g id="a_node8"><a xlink:href="../../df/d7a/classnap_1_1_base_material_instance_resource.html" target="_top" xlink:title=" ">
<polygon fill="white" stroke="black" points="386,-0.5 386,-19.5 553,-19.5 553,-0.5 386,-0.5"/>
<text text-anchor="middle" x="469.5" y="-7.5" font-family="Helvetica,sans-Serif" font-size="10.00">BaseMaterialInstanceResource</text>
</a>
</g>
</g>
<!-- Node8&#45;&gt;Node2 -->
<g id="edge7" class="edge">
<title>Node8&#45;&gt;Node2</title>
<path fill="none" stroke="#9a32cd" stroke-dasharray="5,2" d="M563.51,-16.91C600.49,-21.52 642.97,-29.21 680,-42 704.25,-50.38 729.64,-66.23 744.63,-76.45"/>
<polygon fill="#9a32cd" stroke="#9a32cd" points="563.58,-13.39 553.24,-15.68 562.75,-20.34 563.58,-13.39"/>
<text text-anchor="middle" x="625.5" y="-45" font-family="Helvetica,sans-Serif" font-size="10.00"> mResource</text>
</g>
<!-- Node9&#45;&gt;Node2 -->
<g id="edge8" class="edge">
<title>Node9&#45;&gt;Node2</title>
<path fill="none" stroke="#9a32cd" stroke-dasharray="5,2" d="M520.46,-119.18C562.98,-114.86 625.62,-107.99 680,-100 688.98,-98.68 698.52,-97.11 707.73,-95.51"/>
<polygon fill="#9a32cd" stroke="#9a32cd" points="519.97,-115.71 510.37,-120.19 520.67,-122.67 519.97,-115.71"/>
<text text-anchor="middle" x="625.5" y="-116" font-family="Helvetica,sans-Serif" font-size="10.00"> mMaterial</text>
</g>
<!-- Node10 -->
<g id="node10" class="node">
<title>Node10</title>
<g id="a_node10"><a xlink:href="../../d9/dea/classnap_1_1_resource.html" target="_top" xlink:title=" ">
<polygon fill="white" stroke="black" points="142.5,-114.5 142.5,-133.5 204.5,-133.5 204.5,-114.5 142.5,-114.5"/>
<text text-anchor="middle" x="173.5" y="-121.5" font-family="Helvetica,sans-Serif" font-size="10.00">Resource</text>
</a>
</g>
</g>
<!-- Node10&#45;&gt;Node9 -->
<g id="edge9" class="edge">
<title>Node10&#45;&gt;Node9</title>
<path fill="none" stroke="midnightblue" d="M214.9,-124C271.3,-124 372.99,-124 428.94,-124"/>
<polygon fill="midnightblue" stroke="midnightblue" points="214.58,-120.5 204.58,-124 214.58,-127.5 214.58,-120.5"/>
</g>
<!-- Node11 -->
<g id="node11" class="node">
<title>Node11</title>
<g id="a_node11"><a xlink:href="../../de/d01/classnap_1_1rtti_1_1_object.html" target="_top" xlink:title=" ">
<polygon fill="white" stroke="black" points="0,-114.5 0,-133.5 48,-133.5 48,-114.5 0,-114.5"/>
<text text-anchor="middle" x="24" y="-121.5" font-family="Helvetica,sans-Serif" font-size="10.00">Object</text>
</a>
</g>
</g>
<!-- Node11&#45;&gt;Node10 -->
<g id="edge10" class="edge">
<title>Node11&#45;&gt;Node10</title>
<path fill="none" stroke="midnightblue" d="M58.26,-124C83.54,-124 118.03,-124 142.47,-124"/>
<polygon fill="midnightblue" stroke="midnightblue" points="58.05,-120.5 48.05,-124 58.05,-127.5 58.05,-120.5"/>
</g>
</g>
</svg>
