<?xml version="1.0" encoding="UTF-8" standalone="no"?>
<!DOCTYPE svg PUBLIC "-//W3C//DTD SVG 1.1//EN"
 "http://www.w3.org/Graphics/SVG/1.1/DTD/svg11.dtd">
<!-- Generated by graphviz version 2.48.0 (20210717.1556)
 -->
<!-- Title: OpenInsertEventSegmentPopup Pages: 1 -->
<svg width="163pt" height="140pt"
 viewBox="0.00 0.00 163.00 140.00" xmlns="http://www.w3.org/2000/svg" xmlns:xlink="http://www.w3.org/1999/xlink">
<g id="graph0" class="graph" transform="scale(1 1) rotate(0) translate(4 136)">
<title>OpenInsertEventSegmentPopup</title>
<polygon fill="white" stroke="transparent" points="-4,4 -4,-136 159,-136 159,4 -4,4"/>
<!-- Node3 -->
<g id="node1" class="node">
<title>Node3</title>
<polygon fill="#bfbfbf" stroke="black" points="0,-0.5 0,-19.5 155,-19.5 155,-0.5 0,-0.5"/>
<text text-anchor="middle" x="77.5" y="-7.5" font-family="Helvetica,sans-Serif" font-size="10.00">OpenInsertEventSegmentPopup</text>
</g>
<!-- Node4 -->
<g id="node2" class="node">
<title>Node4</title>
<g id="a_node2"><a xlink:href="../../d5/d0e/classnap_1_1sequenceguiactions_1_1_track_action.html" target="_top" xlink:title="TrackAction">
<polygon fill="white" stroke="black" points="43.5,-56.5 43.5,-75.5 111.5,-75.5 111.5,-56.5 43.5,-56.5"/>
<text text-anchor="middle" x="77.5" y="-63.5" font-family="Helvetica,sans-Serif" font-size="10.00">TrackAction</text>
</a>
</g>
</g>
<!-- Node4&#45;&gt;Node3 -->
<g id="edge1" class="edge">
<title>Node4&#45;&gt;Node3</title>
<path fill="none" stroke="midnightblue" d="M77.5,-45.8C77.5,-36.91 77.5,-26.78 77.5,-19.75"/>
<polygon fill="midnightblue" stroke="midnightblue" points="74,-46.08 77.5,-56.08 81,-46.08 74,-46.08"/>
</g>
<!-- Node5 -->
<g id="node3" class="node">
<title>Node5</title>
<g id="a_node3"><a xlink:href="../../d6/d35/classnap_1_1sequenceguiactions_1_1_action.html" target="_top" xlink:title="Action">
<polygon fill="white" stroke="black" points="55.5,-112.5 55.5,-131.5 99.5,-131.5 99.5,-112.5 55.5,-112.5"/>
<text text-anchor="middle" x="77.5" y="-119.5" font-family="Helvetica,sans-Serif" font-size="10.00">Action</text>
</a>
</g>
</g>
<!-- Node5&#45;&gt;Node4 -->
<g id="edge2" class="edge">
<title>Node5&#45;&gt;Node4</title>
<path fill="none" stroke="midnightblue" d="M77.5,-101.8C77.5,-92.91 77.5,-82.78 77.5,-75.75"/>
<polygon fill="midnightblue" stroke="midnightblue" points="74,-102.08 77.5,-112.08 81,-102.08 74,-102.08"/>
</g>
</g>
</svg>
