<?xml version="1.0" encoding="UTF-8" standalone="no"?>
<!DOCTYPE svg PUBLIC "-//W3C//DTD SVG 1.1//EN"
 "http://www.w3.org/Graphics/SVG/1.1/DTD/svg11.dtd">
<!-- Generated by graphviz version 2.43.0 (0)
 -->
<!-- Title: PortalItem Pages: 1 -->
<svg width="608pt" height="268pt"
 viewBox="0.00 0.00 608.00 267.50" xmlns="http://www.w3.org/2000/svg" xmlns:xlink="http://www.w3.org/1999/xlink">
<g id="graph0" class="graph" transform="scale(1 1) rotate(0) translate(4 263.5)">
<title>PortalItem</title>
<polygon fill="white" stroke="transparent" points="-4,4 -4,-263.5 604,-263.5 604,4 -4,4"/>
<!-- Node1 -->
<g id="node1" class="node">
<title>Node1</title>
<g id="a_node1"><a xlink:title=" ">
<polygon fill="#bfbfbf" stroke="black" points="182,-126 182,-145 250,-145 250,-126 182,-126"/>
<text text-anchor="middle" x="216" y="-133" font-family="Helvetica,sans-Serif" font-size="10.00">PortalItem</text>
</a>
</g>
</g>
<!-- Node4 -->
<g id="node4" class="node">
<title>Node4</title>
<g id="a_node4"><a xlink:href="../../dc/d60/classnap_1_1_portal_item_button.html" target="_top" xlink:title=" ">
<polygon fill="white" stroke="black" points="320,-240 320,-259 420,-259 420,-240 320,-240"/>
<text text-anchor="middle" x="370" y="-247" font-family="Helvetica,sans-Serif" font-size="10.00">PortalItemButton</text>
</a>
</g>
</g>
<!-- Node1&#45;&gt;Node4 -->
<g id="edge3" class="edge">
<title>Node1&#45;&gt;Node4</title>
<path fill="none" stroke="midnightblue" d="M225.49,-154.3C236.34,-176.11 257.22,-211.49 286,-230.5 295.99,-237.1 307.97,-241.43 319.68,-244.26"/>
<polygon fill="midnightblue" stroke="midnightblue" points="228.56,-152.6 221.1,-145.08 222.24,-155.61 228.56,-152.6"/>
</g>
<!-- Node5 -->
<g id="node5" class="node">
<title>Node5</title>
<g id="a_node5"><a xlink:href="../../dd/ddc/classnap_1_1_portal_item_color.html" target="_top" xlink:title=" ">
<polygon fill="white" stroke="black" points="309,-202 309,-221 431,-221 431,-202 309,-202"/>
<text text-anchor="middle" x="370" y="-209" font-family="Helvetica,sans-Serif" font-size="10.00">PortalItemColor&lt; T &gt;</text>
</a>
</g>
</g>
<!-- Node1&#45;&gt;Node5 -->
<g id="edge4" class="edge">
<title>Node1&#45;&gt;Node5</title>
<path fill="none" stroke="midnightblue" d="M233.07,-152.54C246.14,-165.4 265.68,-182.49 286,-192.5 293.82,-196.35 302.45,-199.44 311.09,-201.91"/>
<polygon fill="midnightblue" stroke="midnightblue" points="235.33,-149.85 225.82,-145.18 230.34,-154.76 235.33,-149.85"/>
</g>
<!-- Node6 -->
<g id="node6" class="node">
<title>Node6</title>
<g id="a_node6"><a xlink:href="../../d2/d50/classnap_1_1_portal_item_numeric.html" target="_top" xlink:title=" ">
<polygon fill="white" stroke="black" points="301.5,-164 301.5,-183 438.5,-183 438.5,-164 301.5,-164"/>
<text text-anchor="middle" x="370" y="-171" font-family="Helvetica,sans-Serif" font-size="10.00">PortalItemNumeric&lt; T &gt;</text>
</a>
</g>
</g>
<!-- Node1&#45;&gt;Node6 -->
<g id="edge5" class="edge">
<title>Node1&#45;&gt;Node6</title>
<path fill="none" stroke="midnightblue" d="M260.09,-147.68C268.66,-150.01 277.6,-152.38 286,-154.5 298.9,-157.75 312.99,-161.06 325.84,-163.99"/>
<polygon fill="midnightblue" stroke="midnightblue" points="260.83,-144.25 250.26,-144.98 258.98,-151 260.83,-144.25"/>
</g>
<!-- Node7 -->
<g id="node7" class="node">
<title>Node7</title>
<g id="a_node7"><a xlink:href="../../d8/d3b/classnap_1_1_portal_item_operational_calendar.html" target="_top" xlink:title=" ">
<polygon fill="white" stroke="black" points="286,-126 286,-145 454,-145 454,-126 286,-126"/>
<text text-anchor="middle" x="370" y="-133" font-family="Helvetica,sans-Serif" font-size="10.00">PortalItemOperationalCalendar</text>
</a>
</g>
</g>
<!-- Node1&#45;&gt;Node7 -->
<g id="edge6" class="edge">
<title>Node1&#45;&gt;Node7</title>
<path fill="none" stroke="midnightblue" d="M260.52,-135.5C268.55,-135.5 277.17,-135.5 285.91,-135.5"/>
<polygon fill="midnightblue" stroke="midnightblue" points="260.36,-132 250.36,-135.5 260.36,-139 260.36,-132"/>
</g>
<!-- Node8 -->
<g id="node8" class="node">
<title>Node8</title>
<g id="a_node8"><a xlink:href="../../d0/d9b/classnap_1_1_portal_item_simple.html" target="_top" xlink:title=" ">
<polygon fill="white" stroke="black" points="305,-88 305,-107 435,-107 435,-88 305,-88"/>
<text text-anchor="middle" x="370" y="-95" font-family="Helvetica,sans-Serif" font-size="10.00">PortalItemSimple&lt; T &gt;</text>
</a>
</g>
</g>
<!-- Node1&#45;&gt;Node8 -->
<g id="edge7" class="edge">
<title>Node1&#45;&gt;Node8</title>
<path fill="none" stroke="midnightblue" d="M260.09,-123.32C268.66,-120.99 277.6,-118.62 286,-116.5 298.9,-113.25 312.99,-109.94 325.84,-107.01"/>
<polygon fill="midnightblue" stroke="midnightblue" points="258.98,-120 250.26,-126.02 260.83,-126.75 258.98,-120"/>
</g>
<!-- Node9 -->
<g id="node9" class="node">
<title>Node9</title>
<g id="a_node9"><a xlink:href="../../d4/da8/classnap_1_1_portal_item_vec.html" target="_top" xlink:title=" ">
<polygon fill="white" stroke="black" points="313.5,-50 313.5,-69 426.5,-69 426.5,-50 313.5,-50"/>
<text text-anchor="middle" x="370" y="-57" font-family="Helvetica,sans-Serif" font-size="10.00">PortalItemVec&lt; T &gt;</text>
</a>
</g>
</g>
<!-- Node1&#45;&gt;Node9 -->
<g id="edge8" class="edge">
<title>Node1&#45;&gt;Node9</title>
<path fill="none" stroke="midnightblue" d="M233.07,-118.46C246.14,-105.6 265.68,-88.51 286,-78.5 294.49,-74.32 303.92,-71.04 313.29,-68.48"/>
<polygon fill="midnightblue" stroke="midnightblue" points="230.34,-116.24 225.82,-125.82 235.33,-121.15 230.34,-116.24"/>
</g>
<!-- Node10 -->
<g id="node10" class="node">
<title>Node10</title>
<g id="a_node10"><a xlink:title=" ">
<polygon fill="white" stroke="#bfbfbf" points="306,-0.5 306,-30.5 434,-30.5 434,-0.5 306,-0.5"/>
<text text-anchor="start" x="314" y="-18.5" font-family="Helvetica,sans-Serif" font-size="10.00">PortalItemSimple&lt; std</text>
<text text-anchor="middle" x="370" y="-7.5" font-family="Helvetica,sans-Serif" font-size="10.00">::string &gt;</text>
</a>
</g>
</g>
<!-- Node1&#45;&gt;Node10 -->
<g id="edge9" class="edge">
<title>Node1&#45;&gt;Node10</title>
<path fill="none" stroke="midnightblue" d="M225.89,-116.7C237,-95.19 258.02,-60.37 286,-40.5 292.01,-36.23 298.76,-32.68 305.75,-29.73"/>
<polygon fill="midnightblue" stroke="midnightblue" points="222.68,-115.3 221.37,-125.81 228.95,-118.41 222.68,-115.3"/>
</g>
<!-- Node2 -->
<g id="node2" class="node">
<title>Node2</title>
<g id="a_node2"><a xlink:href="../../d9/dea/classnap_1_1_resource.html" target="_top" xlink:title=" ">
<polygon fill="white" stroke="black" points="84,-126 84,-145 146,-145 146,-126 84,-126"/>
<text text-anchor="middle" x="115" y="-133" font-family="Helvetica,sans-Serif" font-size="10.00">Resource</text>
</a>
</g>
</g>
<!-- Node2&#45;&gt;Node1 -->
<g id="edge1" class="edge">
<title>Node2&#45;&gt;Node1</title>
<path fill="none" stroke="midnightblue" d="M156.33,-135.5C164.81,-135.5 173.66,-135.5 181.84,-135.5"/>
<polygon fill="midnightblue" stroke="midnightblue" points="156.24,-132 146.24,-135.5 156.24,-139 156.24,-132"/>
</g>
<!-- Node3 -->
<g id="node3" class="node">
<title>Node3</title>
<g id="a_node3"><a xlink:href="../../de/d01/classnap_1_1rtti_1_1_object.html" target="_top" xlink:title=" ">
<polygon fill="white" stroke="black" points="0,-126 0,-145 48,-145 48,-126 0,-126"/>
<text text-anchor="middle" x="24" y="-133" font-family="Helvetica,sans-Serif" font-size="10.00">Object</text>
</a>
</g>
</g>
<!-- Node3&#45;&gt;Node2 -->
<g id="edge2" class="edge">
<title>Node3&#45;&gt;Node2</title>
<path fill="none" stroke="midnightblue" d="M58.49,-135.5C66.78,-135.5 75.61,-135.5 83.73,-135.5"/>
<polygon fill="midnightblue" stroke="midnightblue" points="58.38,-132 48.38,-135.5 58.38,-139 58.38,-132"/>
</g>
<!-- Node11 -->
<g id="node11" class="node">
<title>Node11</title>
<g id="a_node11"><a xlink:href="../../d3/da2/classnap_1_1_portal_item_text_area.html" target="_top" xlink:title=" ">
<polygon fill="white" stroke="black" points="490,-6 490,-25 600,-25 600,-6 490,-6"/>
<text text-anchor="middle" x="545" y="-13" font-family="Helvetica,sans-Serif" font-size="10.00">PortalItemTextArea</text>
</a>
</g>
</g>
<!-- Node10&#45;&gt;Node11 -->
<g id="edge10" class="edge">
<title>Node10&#45;&gt;Node11</title>
<path fill="none" stroke="midnightblue" d="M444.82,-15.5C459.98,-15.5 475.66,-15.5 489.96,-15.5"/>
<polygon fill="midnightblue" stroke="midnightblue" points="444.44,-12 434.44,-15.5 444.44,-19 444.44,-12"/>
</g>
</g>
</svg>
