<?xml version="1.0" encoding="UTF-8" standalone="no"?>
<!DOCTYPE svg PUBLIC "-//W3C//DTD SVG 1.1//EN"
 "http://www.w3.org/Graphics/SVG/1.1/DTD/svg11.dtd">
<!-- Generated by graphviz version 3.0.0 (20220226.1711)
 -->
<!-- Title: PointerClickEvent Pages: 1 -->
<svg width="230pt" height="308pt"
 viewBox="0.00 0.00 230.00 308.00" xmlns="http://www.w3.org/2000/svg" xmlns:xlink="http://www.w3.org/1999/xlink">
<g id="graph0" class="graph" transform="scale(1 1) rotate(0) translate(4 304)">
<title>PointerClickEvent</title>
<polygon fill="white" stroke="transparent" points="-4,4 -4,-304 226,-304 226,4 -4,4"/>
<!-- Node0 -->
<g id="node1" class="node">
<title>Node0</title>
<polygon fill="#bfbfbf" stroke="black" points="62,-56.5 62,-75.5 155,-75.5 155,-56.5 62,-56.5"/>
<text text-anchor="middle" x="108.5" y="-63.5" font-family="Helvetica,sans-Serif" font-size="10.00">PointerClickEvent</text>
</g>
<!-- Node5 -->
<g id="node6" class="node">
<title>Node5</title>
<g id="a_node6"><a xlink:href="../../d5/dfd/classnap_1_1_pointer_press_event.html" target="_top" xlink:title="PointerPressEvent">
<polygon fill="white" stroke="black" points="0,-0.5 0,-19.5 97,-19.5 97,-0.5 0,-0.5"/>
<text text-anchor="middle" x="48.5" y="-7.5" font-family="Helvetica,sans-Serif" font-size="10.00">PointerPressEvent</text>
</a>
</g>
</g>
<!-- Node0&#45;&gt;Node5 -->
<g id="edge5" class="edge">
<title>Node0&#45;&gt;Node5</title>
<path fill="none" stroke="midnightblue" d="M91.32,-49.54C80.62,-39.91 67.24,-27.87 58.32,-19.83"/>
<polygon fill="midnightblue" stroke="midnightblue" points="89.09,-52.24 98.86,-56.32 93.77,-47.03 89.09,-52.24"/>
</g>
<!-- Node6 -->
<g id="node7" class="node">
<title>Node6</title>
<g id="a_node7"><a xlink:href="../../de/d98/classnap_1_1_pointer_release_event.html" target="_top" xlink:title="PointerReleaseEvent">
<polygon fill="white" stroke="black" points="115,-0.5 115,-19.5 222,-19.5 222,-0.5 115,-0.5"/>
<text text-anchor="middle" x="168.5" y="-7.5" font-family="Helvetica,sans-Serif" font-size="10.00">PointerReleaseEvent</text>
</a>
</g>
</g>
<!-- Node0&#45;&gt;Node6 -->
<g id="edge6" class="edge">
<title>Node0&#45;&gt;Node6</title>
<path fill="none" stroke="midnightblue" d="M125.68,-49.54C136.38,-39.91 149.76,-27.87 158.68,-19.83"/>
<polygon fill="midnightblue" stroke="midnightblue" points="123.23,-47.03 118.14,-56.32 127.91,-52.24 123.23,-47.03"/>
</g>
<!-- Node1 -->
<g id="node2" class="node">
<title>Node1</title>
<g id="a_node2"><a xlink:href="../../d3/d85/classnap_1_1_pointer_event.html" target="_top" xlink:title="PointerEvent">
<polygon fill="white" stroke="black" points="73,-112.5 73,-131.5 144,-131.5 144,-112.5 73,-112.5"/>
<text text-anchor="middle" x="108.5" y="-119.5" font-family="Helvetica,sans-Serif" font-size="10.00">PointerEvent</text>
</a>
</g>
</g>
<!-- Node1&#45;&gt;Node0 -->
<g id="edge1" class="edge">
<title>Node1&#45;&gt;Node0</title>
<path fill="none" stroke="midnightblue" d="M108.5,-101.8C108.5,-92.91 108.5,-82.78 108.5,-75.75"/>
<polygon fill="midnightblue" stroke="midnightblue" points="105,-102.08 108.5,-112.08 112,-102.08 105,-102.08"/>
</g>
<!-- Node2 -->
<g id="node3" class="node">
<title>Node2</title>
<g id="a_node3"><a xlink:href="../../d6/d58/classnap_1_1_window_input_event.html" target="_top" xlink:title="WindowInputEvent">
<polygon fill="white" stroke="black" points="60.5,-168.5 60.5,-187.5 156.5,-187.5 156.5,-168.5 60.5,-168.5"/>
<text text-anchor="middle" x="108.5" y="-175.5" font-family="Helvetica,sans-Serif" font-size="10.00">WindowInputEvent</text>
</a>
</g>
</g>
<!-- Node2&#45;&gt;Node1 -->
<g id="edge2" class="edge">
<title>Node2&#45;&gt;Node1</title>
<path fill="none" stroke="midnightblue" d="M108.5,-157.8C108.5,-148.91 108.5,-138.78 108.5,-131.75"/>
<polygon fill="midnightblue" stroke="midnightblue" points="105,-158.08 108.5,-168.08 112,-158.08 105,-158.08"/>
</g>
<!-- Node3 -->
<g id="node4" class="node">
<title>Node3</title>
<g id="a_node4"><a xlink:href="../../dc/dc0/classnap_1_1_input_event.html" target="_top" xlink:title="InputEvent">
<polygon fill="white" stroke="black" points="77.5,-224.5 77.5,-243.5 139.5,-243.5 139.5,-224.5 77.5,-224.5"/>
<text text-anchor="middle" x="108.5" y="-231.5" font-family="Helvetica,sans-Serif" font-size="10.00">InputEvent</text>
</a>
</g>
</g>
<!-- Node3&#45;&gt;Node2 -->
<g id="edge3" class="edge">
<title>Node3&#45;&gt;Node2</title>
<path fill="none" stroke="midnightblue" d="M108.5,-213.8C108.5,-204.91 108.5,-194.78 108.5,-187.75"/>
<polygon fill="midnightblue" stroke="midnightblue" points="105,-214.08 108.5,-224.08 112,-214.08 105,-214.08"/>
</g>
<!-- Node4 -->
<g id="node5" class="node">
<title>Node4</title>
<g id="a_node5"><a xlink:href="../../d2/da2/classnap_1_1_event.html" target="_top" xlink:title="Event">
<polygon fill="white" stroke="black" points="88,-280.5 88,-299.5 129,-299.5 129,-280.5 88,-280.5"/>
<text text-anchor="middle" x="108.5" y="-287.5" font-family="Helvetica,sans-Serif" font-size="10.00">Event</text>
</a>
</g>
</g>
<!-- Node4&#45;&gt;Node3 -->
<g id="edge4" class="edge">
<title>Node4&#45;&gt;Node3</title>
<path fill="none" stroke="midnightblue" d="M108.5,-269.8C108.5,-260.91 108.5,-250.78 108.5,-243.75"/>
<polygon fill="midnightblue" stroke="midnightblue" points="105,-270.08 108.5,-280.08 112,-270.08 105,-270.08"/>
</g>
</g>
</svg>
