<?xml version="1.0" encoding="UTF-8" standalone="no"?>
<!DOCTYPE svg PUBLIC "-//W3C//DTD SVG 1.1//EN"
 "http://www.w3.org/Graphics/SVG/1.1/DTD/svg11.dtd">
<!-- Generated by graphviz version 3.0.0 (20220226.1711)
 -->
<!-- Title: PointerInputComponent Pages: 1 -->
<svg width="126pt" height="252pt"
 viewBox="0.00 0.00 126.00 252.00" xmlns="http://www.w3.org/2000/svg" xmlns:xlink="http://www.w3.org/1999/xlink">
<g id="graph0" class="graph" transform="scale(1 1) rotate(0) translate(4 248)">
<title>PointerInputComponent</title>
<polygon fill="white" stroke="transparent" points="-4,4 -4,-248 122,-248 122,4 -4,4"/>
<!-- Node0 -->
<g id="node1" class="node">
<title>Node0</title>
<polygon fill="#bfbfbf" stroke="black" points="0,-0.5 0,-19.5 118,-19.5 118,-0.5 0,-0.5"/>
<text text-anchor="middle" x="59" y="-7.5" font-family="Helvetica,sans-Serif" font-size="10.00">PointerInputComponent</text>
</g>
<!-- Node1 -->
<g id="node2" class="node">
<title>Node1</title>
<g id="a_node2"><a xlink:href="../../de/d9a/classnap_1_1_input_component.html" target="_top" xlink:title="InputComponent">
<polygon fill="white" stroke="black" points="15.5,-56.5 15.5,-75.5 102.5,-75.5 102.5,-56.5 15.5,-56.5"/>
<text text-anchor="middle" x="59" y="-63.5" font-family="Helvetica,sans-Serif" font-size="10.00">InputComponent</text>
</a>
</g>
</g>
<!-- Node1&#45;&gt;Node0 -->
<g id="edge1" class="edge">
<title>Node1&#45;&gt;Node0</title>
<path fill="none" stroke="midnightblue" d="M59,-45.8C59,-36.91 59,-26.78 59,-19.75"/>
<polygon fill="midnightblue" stroke="midnightblue" points="55.5,-46.08 59,-56.08 62.5,-46.08 55.5,-46.08"/>
</g>
<!-- Node2 -->
<g id="node3" class="node">
<title>Node2</title>
<g id="a_node3"><a xlink:href="../../db/d6b/classnap_1_1_component.html" target="_top" xlink:title="Component">
<polygon fill="white" stroke="black" points="26,-112.5 26,-131.5 92,-131.5 92,-112.5 26,-112.5"/>
<text text-anchor="middle" x="59" y="-119.5" font-family="Helvetica,sans-Serif" font-size="10.00">Component</text>
</a>
</g>
</g>
<!-- Node2&#45;&gt;Node1 -->
<g id="edge2" class="edge">
<title>Node2&#45;&gt;Node1</title>
<path fill="none" stroke="midnightblue" d="M59,-101.8C59,-92.91 59,-82.78 59,-75.75"/>
<polygon fill="midnightblue" stroke="midnightblue" points="55.5,-102.08 59,-112.08 62.5,-102.08 55.5,-102.08"/>
</g>
<!-- Node3 -->
<g id="node4" class="node">
<title>Node3</title>
<g id="a_node4"><a xlink:href="../../d9/dea/classnap_1_1_resource.html" target="_top" xlink:title="Resource">
<polygon fill="white" stroke="black" points="30,-168.5 30,-187.5 88,-187.5 88,-168.5 30,-168.5"/>
<text text-anchor="middle" x="59" y="-175.5" font-family="Helvetica,sans-Serif" font-size="10.00">Resource</text>
</a>
</g>
</g>
<!-- Node3&#45;&gt;Node2 -->
<g id="edge3" class="edge">
<title>Node3&#45;&gt;Node2</title>
<path fill="none" stroke="midnightblue" d="M59,-157.8C59,-148.91 59,-138.78 59,-131.75"/>
<polygon fill="midnightblue" stroke="midnightblue" points="55.5,-158.08 59,-168.08 62.5,-158.08 55.5,-158.08"/>
</g>
<!-- Node4 -->
<g id="node5" class="node">
<title>Node4</title>
<g id="a_node5"><a xlink:href="../../de/d01/classnap_1_1rtti_1_1_object.html" target="_top" xlink:title="Object">
<polygon fill="white" stroke="black" points="36.5,-224.5 36.5,-243.5 81.5,-243.5 81.5,-224.5 36.5,-224.5"/>
<text text-anchor="middle" x="59" y="-231.5" font-family="Helvetica,sans-Serif" font-size="10.00">Object</text>
</a>
</g>
</g>
<!-- Node4&#45;&gt;Node3 -->
<g id="edge4" class="edge">
<title>Node4&#45;&gt;Node3</title>
<path fill="none" stroke="midnightblue" d="M59,-213.8C59,-204.91 59,-194.78 59,-187.75"/>
<polygon fill="midnightblue" stroke="midnightblue" points="55.5,-214.08 59,-224.08 62.5,-214.08 55.5,-214.08"/>
</g>
</g>
</svg>
