<?xml version="1.0" encoding="UTF-8" standalone="no"?>
<!DOCTYPE svg PUBLIC "-//W3C//DTD SVG 1.1//EN"
 "http://www.w3.org/Graphics/SVG/1.1/DTD/svg11.dtd">
<!-- Generated by graphviz version 2.43.0 (0)
 -->
<!-- Title: PortalItemButton Pages: 1 -->
<svg width="339pt" height="241pt"
 viewBox="0.00 0.00 338.50 241.00" xmlns="http://www.w3.org/2000/svg" xmlns:xlink="http://www.w3.org/1999/xlink">
<g id="graph0" class="graph" transform="scale(1 1) rotate(0) translate(4 237)">
<title>PortalItemButton</title>
<polygon fill="white" stroke="transparent" points="-4,4 -4,-237 334.5,-237 334.5,4 -4,4"/>
<!-- Node1 -->
<g id="node1" class="node">
<title>Node1</title>
<g id="a_node1"><a xlink:title=" ">
<polygon fill="#bfbfbf" stroke="black" points="143,-0.5 143,-19.5 243,-19.5 243,-0.5 143,-0.5"/>
<text text-anchor="middle" x="193" y="-7.5" font-family="Helvetica,sans-Serif" font-size="10.00">PortalItemButton</text>
</a>
</g>
</g>
<!-- Node2 -->
<g id="node2" class="node">
<title>Node2</title>
<g id="a_node2"><a xlink:href="../../da/d65/classnap_1_1_portal_item.html" target="_top" xlink:title=" ">
<polygon fill="white" stroke="black" points="97,-73 97,-92 165,-92 165,-73 97,-73"/>
<text text-anchor="middle" x="131" y="-80" font-family="Helvetica,sans-Serif" font-size="10.00">PortalItem</text>
</a>
</g>
</g>
<!-- Node2&#45;&gt;Node1 -->
<g id="edge1" class="edge">
<title>Node2&#45;&gt;Node1</title>
<path fill="none" stroke="midnightblue" d="M145.25,-65.3C157.72,-51.12 175.36,-31.06 185.34,-19.72"/>
<polygon fill="midnightblue" stroke="midnightblue" points="142.58,-63.03 138.6,-72.86 147.83,-67.66 142.58,-63.03"/>
</g>
<!-- Node3 -->
<g id="node3" class="node">
<title>Node3</title>
<g id="a_node3"><a xlink:href="../../d9/dea/classnap_1_1_resource.html" target="_top" xlink:title=" ">
<polygon fill="white" stroke="black" points="0,-151 0,-170 62,-170 62,-151 0,-151"/>
<text text-anchor="middle" x="31" y="-158" font-family="Helvetica,sans-Serif" font-size="10.00">Resource</text>
</a>
</g>
</g>
<!-- Node3&#45;&gt;Node2 -->
<g id="edge2" class="edge">
<title>Node3&#45;&gt;Node2</title>
<path fill="none" stroke="midnightblue" d="M50.54,-144.65C71.13,-129 102.86,-104.88 119.66,-92.12"/>
<polygon fill="midnightblue" stroke="midnightblue" points="48.32,-141.94 42.47,-150.78 52.55,-147.52 48.32,-141.94"/>
</g>
<!-- Node4 -->
<g id="node4" class="node">
<title>Node4</title>
<g id="a_node4"><a xlink:href="../../de/d01/classnap_1_1rtti_1_1_object.html" target="_top" xlink:title=" ">
<polygon fill="white" stroke="black" points="7,-213.5 7,-232.5 55,-232.5 55,-213.5 7,-213.5"/>
<text text-anchor="middle" x="31" y="-220.5" font-family="Helvetica,sans-Serif" font-size="10.00">Object</text>
</a>
</g>
</g>
<!-- Node4&#45;&gt;Node3 -->
<g id="edge3" class="edge">
<title>Node4&#45;&gt;Node3</title>
<path fill="none" stroke="midnightblue" d="M31,-203C31,-192 31,-178.68 31,-170.15"/>
<polygon fill="midnightblue" stroke="midnightblue" points="27.5,-203.33 31,-213.33 34.5,-203.33 27.5,-203.33"/>
</g>
<!-- Node5 -->
<g id="node5" class="node">
<title>Node5</title>
<g id="a_node5"><a xlink:href="../../de/d80/classnap_1_1_signal.html" target="_top" xlink:title=" ">
<polygon fill="white" stroke="black" points="80.5,-145.5 80.5,-175.5 191.5,-175.5 191.5,-145.5 80.5,-145.5"/>
<text text-anchor="start" x="88.5" y="-163.5" font-family="Helvetica,sans-Serif" font-size="10.00">Signal&lt; const nap::</text>
<text text-anchor="middle" x="136" y="-152.5" font-family="Helvetica,sans-Serif" font-size="10.00">PortalItem &amp; &gt;</text>
</a>
</g>
</g>
<!-- Node5&#45;&gt;Node2 -->
<g id="edge4" class="edge">
<title>Node5&#45;&gt;Node2</title>
<path fill="none" stroke="#9a32cd" stroke-dasharray="5,2" d="M134.4,-135.17C133.43,-120.4 132.25,-102.45 131.56,-92.06"/>
<polygon fill="#9a32cd" stroke="#9a32cd" points="130.91,-135.46 135.06,-145.2 137.9,-135 130.91,-135.46"/>
<text text-anchor="middle" x="167.5" y="-119" font-family="Helvetica,sans-Serif" font-size="10.00"> updateSignal</text>
</g>
<!-- Node6 -->
<g id="node6" class="node">
<title>Node6</title>
<g id="a_node6"><a xlink:href="../../dd/d7c/classnap_1_1rtti_1_1_object_ptr.html" target="_top" xlink:title=" ">
<polygon fill="white" stroke="black" points="183.5,-67.5 183.5,-97.5 330.5,-97.5 330.5,-67.5 183.5,-67.5"/>
<text text-anchor="start" x="191.5" y="-85.5" font-family="Helvetica,sans-Serif" font-size="10.00">ObjectPtr&lt; nap::Parameter</text>
<text text-anchor="middle" x="257" y="-74.5" font-family="Helvetica,sans-Serif" font-size="10.00">Button &gt;</text>
</a>
</g>
</g>
<!-- Node6&#45;&gt;Node1 -->
<g id="edge5" class="edge">
<title>Node6&#45;&gt;Node1</title>
<path fill="none" stroke="#9a32cd" stroke-dasharray="5,2" d="M237.27,-59.76C225.09,-46.34 210.11,-29.85 201.07,-19.89"/>
<polygon fill="#9a32cd" stroke="#9a32cd" points="234.74,-62.18 244.05,-67.23 239.92,-57.48 234.74,-62.18"/>
<text text-anchor="middle" x="259" y="-41" font-family="Helvetica,sans-Serif" font-size="10.00"> mParameter</text>
</g>
<!-- Node7 -->
<g id="node7" class="node">
<title>Node7</title>
<g id="a_node7"><a xlink:href="../../d7/dcb/classnap_1_1rtti_1_1_object_ptr_base.html" target="_top" xlink:title=" ">
<polygon fill="white" stroke="black" points="214,-151 214,-170 300,-170 300,-151 214,-151"/>
<text text-anchor="middle" x="257" y="-158" font-family="Helvetica,sans-Serif" font-size="10.00">ObjectPtrBase</text>
</a>
</g>
</g>
<!-- Node7&#45;&gt;Node6 -->
<g id="edge6" class="edge">
<title>Node7&#45;&gt;Node6</title>
<path fill="none" stroke="midnightblue" d="M257,-140.78C257,-127.4 257,-109.69 257,-97.52"/>
<polygon fill="midnightblue" stroke="midnightblue" points="253.5,-140.78 257,-150.78 260.5,-140.78 253.5,-140.78"/>
</g>
</g>
</svg>
