<?xml version="1.0" encoding="UTF-8" standalone="no"?>
<!DOCTYPE svg PUBLIC "-//W3C//DTD SVG 1.1//EN"
 "http://www.w3.org/Graphics/SVG/1.1/DTD/svg11.dtd">
<!-- Generated by graphviz version 3.0.0 (20220226.1711)
 -->
<!-- Title: PortalItemButton Pages: 1 -->
<svg width="314pt" height="241pt"
 viewBox="0.00 0.00 314.00 241.00" xmlns="http://www.w3.org/2000/svg" xmlns:xlink="http://www.w3.org/1999/xlink">
<g id="graph0" class="graph" transform="scale(1 1) rotate(0) translate(4 237)">
<title>PortalItemButton</title>
<polygon fill="white" stroke="transparent" points="-4,4 -4,-237 310,-237 310,4 -4,4"/>
<!-- Node4 -->
<g id="node1" class="node">
<title>Node4</title>
<polygon fill="#bfbfbf" stroke="black" points="135.5,-0.5 135.5,-19.5 224.5,-19.5 224.5,-0.5 135.5,-0.5"/>
<text text-anchor="middle" x="180" y="-7.5" font-family="Helvetica,sans-Serif" font-size="10.00">PortalItemButton</text>
</g>
<!-- Node5 -->
<g id="node2" class="node">
<title>Node5</title>
<g id="a_node2"><a xlink:href="../../da/d65/classnap_1_1_portal_item.html" target="_top" xlink:title="PortalItem">
<polygon fill="white" stroke="black" points="92.5,-73 92.5,-92 153.5,-92 153.5,-73 92.5,-73"/>
<text text-anchor="middle" x="123" y="-80" font-family="Helvetica,sans-Serif" font-size="10.00">PortalItem</text>
</a>
</g>
</g>
<!-- Node5&#45;&gt;Node4 -->
<g id="edge1" class="edge">
<title>Node5&#45;&gt;Node4</title>
<path fill="none" stroke="midnightblue" d="M136.42,-64.9C147.87,-50.74 163.86,-30.96 172.95,-19.72"/>
<polygon fill="midnightblue" stroke="midnightblue" points="133.55,-62.88 129.99,-72.86 139,-67.28 133.55,-62.88"/>
</g>
<!-- Node6 -->
<g id="node3" class="node">
<title>Node6</title>
<g id="a_node3"><a xlink:href="../../d9/dea/classnap_1_1_resource.html" target="_top" xlink:title="Resource">
<polygon fill="white" stroke="black" points="0,-151 0,-170 58,-170 58,-151 0,-151"/>
<text text-anchor="middle" x="29" y="-158" font-family="Helvetica,sans-Serif" font-size="10.00">Resource</text>
</a>
</g>
</g>
<!-- Node6&#45;&gt;Node5 -->
<g id="edge2" class="edge">
<title>Node6&#45;&gt;Node5</title>
<path fill="none" stroke="midnightblue" d="M47.63,-144.44C66.99,-128.78 96.62,-104.83 112.34,-92.12"/>
<polygon fill="midnightblue" stroke="midnightblue" points="45.36,-141.77 39.78,-150.78 49.76,-147.22 45.36,-141.77"/>
</g>
<!-- Node7 -->
<g id="node4" class="node">
<title>Node7</title>
<g id="a_node4"><a xlink:href="../../de/d01/classnap_1_1rtti_1_1_object.html" target="_top" xlink:title="Object">
<polygon fill="white" stroke="black" points="6.5,-213.5 6.5,-232.5 51.5,-232.5 51.5,-213.5 6.5,-213.5"/>
<text text-anchor="middle" x="29" y="-220.5" font-family="Helvetica,sans-Serif" font-size="10.00">Object</text>
</a>
</g>
</g>
<!-- Node7&#45;&gt;Node6 -->
<g id="edge3" class="edge">
<title>Node7&#45;&gt;Node6</title>
<path fill="none" stroke="midnightblue" d="M29,-203C29,-192 29,-178.68 29,-170.15"/>
<polygon fill="midnightblue" stroke="midnightblue" points="25.5,-203.33 29,-213.33 32.5,-203.33 25.5,-203.33"/>
</g>
<!-- Node8 -->
<g id="node5" class="node">
<title>Node8</title>
<g id="a_node5"><a xlink:href="../../de/d80/classnap_1_1_signal.html" target="_top" xlink:title="Signal\&lt; const nap::\lPortalItem &amp;\&gt;">
<polygon fill="white" stroke="black" points="76.5,-145.5 76.5,-175.5 177.5,-175.5 177.5,-145.5 76.5,-145.5"/>
<text text-anchor="start" x="84.5" y="-163.5" font-family="Helvetica,sans-Serif" font-size="10.00">Signal&lt; const nap::</text>
<text text-anchor="middle" x="127" y="-152.5" font-family="Helvetica,sans-Serif" font-size="10.00">PortalItem &amp;&gt;</text>
</a>
</g>
</g>
<!-- Node8&#45;&gt;Node5 -->
<g id="edge4" class="edge">
<title>Node8&#45;&gt;Node5</title>
<path fill="none" stroke="#9a32cd" stroke-dasharray="5,2" d="M125.72,-135.17C124.94,-120.4 124,-102.45 123.45,-92.06"/>
<polygon fill="#9a32cd" stroke="#9a32cd" points="122.23,-135.4 126.25,-145.2 129.22,-135.03 122.23,-135.4"/>
<text text-anchor="middle" x="156" y="-119" font-family="Helvetica,sans-Serif" font-size="10.00"> updateSignal</text>
</g>
<!-- Node9 -->
<g id="node6" class="node">
<title>Node9</title>
<g id="a_node6"><a xlink:href="../../dd/d7c/classnap_1_1rtti_1_1_object_ptr.html" target="_top" xlink:title="ObjectPtr\&lt; nap::Parameter\lButton \&gt;">
<polygon fill="white" stroke="black" points="172,-67.5 172,-97.5 306,-97.5 306,-67.5 172,-67.5"/>
<text text-anchor="start" x="180" y="-85.5" font-family="Helvetica,sans-Serif" font-size="10.00">ObjectPtr&lt; nap::Parameter</text>
<text text-anchor="middle" x="239" y="-74.5" font-family="Helvetica,sans-Serif" font-size="10.00">Button &gt;</text>
</a>
</g>
</g>
<!-- Node9&#45;&gt;Node4 -->
<g id="edge5" class="edge">
<title>Node9&#45;&gt;Node4</title>
<path fill="none" stroke="#9a32cd" stroke-dasharray="5,2" d="M220.49,-59.38C209.32,-46.04 195.7,-29.76 187.44,-19.89"/>
<polygon fill="#9a32cd" stroke="#9a32cd" points="217.96,-61.81 227.06,-67.23 223.33,-57.32 217.96,-61.81"/>
<text text-anchor="middle" x="240.5" y="-41" font-family="Helvetica,sans-Serif" font-size="10.00"> mParameter</text>
</g>
<!-- Node10 -->
<g id="node7" class="node">
<title>Node10</title>
<g id="a_node7"><a xlink:href="../../d7/dcb/classnap_1_1rtti_1_1_object_ptr_base.html" target="_top" xlink:title="ObjectPtrBase">
<polygon fill="white" stroke="black" points="199,-151 199,-170 279,-170 279,-151 199,-151"/>
<text text-anchor="middle" x="239" y="-158" font-family="Helvetica,sans-Serif" font-size="10.00">ObjectPtrBase</text>
</a>
</g>
</g>
<!-- Node10&#45;&gt;Node9 -->
<g id="edge6" class="edge">
<title>Node10&#45;&gt;Node9</title>
<path fill="none" stroke="midnightblue" d="M239,-140.78C239,-127.4 239,-109.69 239,-97.52"/>
<polygon fill="midnightblue" stroke="midnightblue" points="235.5,-140.78 239,-150.78 242.5,-140.78 235.5,-140.78"/>
</g>
</g>
</svg>
