<?xml version="1.0" encoding="UTF-8" standalone="no"?>
<!DOCTYPE svg PUBLIC "-//W3C//DTD SVG 1.1//EN"
 "http://www.w3.org/Graphics/SVG/1.1/DTD/svg11.dtd">
<!-- Generated by graphviz version 3.0.0 (20220226.1711)
 -->
<!-- Title: Resource Pages: 1 -->
<svg width="422pt" height="1738pt"
 viewBox="0.00 0.00 422.00 1738.00" xmlns="http://www.w3.org/2000/svg" xmlns:xlink="http://www.w3.org/1999/xlink">
<g id="graph0" class="graph" transform="scale(1 1) rotate(0) translate(4 1734)">
<title>Resource</title>
<polygon fill="white" stroke="transparent" points="-4,4 -4,-1734 418,-1734 418,4 -4,4"/>
<!-- Node0 -->
<g id="node1" class="node">
<title>Node0</title>
<polygon fill="#bfbfbf" stroke="black" points="81,-855.5 81,-874.5 139,-874.5 139,-855.5 81,-855.5"/>
<text text-anchor="middle" x="110" y="-862.5" font-family="Helvetica,sans-Serif" font-size="10.00">Resource</text>
</g>
<!-- Node2 -->
<g id="node3" class="node">
<title>Node2</title>
<g id="a_node3"><a xlink:href="../../de/d18/classnap_1_1_a_p_i_base_value.html" target="_top" xlink:title="APIBaseValue">
<polygon fill="white" stroke="black" points="196.5,-1710.5 196.5,-1729.5 276.5,-1729.5 276.5,-1710.5 196.5,-1710.5"/>
<text text-anchor="middle" x="236.5" y="-1717.5" font-family="Helvetica,sans-Serif" font-size="10.00">APIBaseValue</text>
</a>
</g>
</g>
<!-- Node0&#45;&gt;Node2 -->
<g id="edge2" class="edge">
<title>Node0&#45;&gt;Node2</title>
<path fill="none" stroke="midnightblue" d="M111.21,-885.01C112.65,-1005.83 122.63,-1635.1 175,-1701 180.41,-1707.81 188.24,-1712.23 196.49,-1715.08"/>
<polygon fill="midnightblue" stroke="midnightblue" points="114.71,-884.63 111.09,-874.67 107.71,-884.71 114.71,-884.63"/>
</g>
<!-- Node4 -->
<g id="node5" class="node">
<title>Node4</title>
<g id="a_node5"><a xlink:href="../../de/dae/classnap_1_1_a_p_i_message.html" target="_top" xlink:title="APIMessage">
<polygon fill="white" stroke="black" points="200.5,-1672.5 200.5,-1691.5 272.5,-1691.5 272.5,-1672.5 200.5,-1672.5"/>
<text text-anchor="middle" x="236.5" y="-1679.5" font-family="Helvetica,sans-Serif" font-size="10.00">APIMessage</text>
</a>
</g>
</g>
<!-- Node0&#45;&gt;Node4 -->
<g id="edge4" class="edge">
<title>Node0&#45;&gt;Node4</title>
<path fill="none" stroke="midnightblue" d="M111.28,-884.83C113.13,-1001.96 124.99,-1600.3 175,-1663 181.25,-1670.83 190.7,-1675.5 200.28,-1678.26"/>
<polygon fill="midnightblue" stroke="midnightblue" points="114.78,-884.71 111.13,-874.77 107.78,-884.82 114.78,-884.71"/>
</g>
<!-- Node5 -->
<g id="node6" class="node">
<title>Node5</title>
<g id="a_node6"><a xlink:href="../../d3/d6c/classnap_1_1_a_p_i_signature.html" target="_top" xlink:title="APISignature">
<polygon fill="white" stroke="black" points="199.5,-1634.5 199.5,-1653.5 273.5,-1653.5 273.5,-1634.5 199.5,-1634.5"/>
<text text-anchor="middle" x="236.5" y="-1641.5" font-family="Helvetica,sans-Serif" font-size="10.00">APISignature</text>
</a>
</g>
</g>
<!-- Node0&#45;&gt;Node5 -->
<g id="edge5" class="edge">
<title>Node0&#45;&gt;Node5</title>
<path fill="none" stroke="midnightblue" d="M111.36,-884.58C113.63,-997.79 127.34,-1565.48 175,-1625 181.06,-1632.56 190.1,-1637.17 199.36,-1639.96"/>
<polygon fill="midnightblue" stroke="midnightblue" points="114.86,-884.5 111.17,-874.57 107.86,-884.63 114.86,-884.5"/>
</g>
<!-- Node6 -->
<g id="node7" class="node">
<title>Node6</title>
<g id="a_node7"><a xlink:href="../../df/dac/classnap_1_1audio_1_1_audio_buffer_resource.html" target="_top" xlink:title="AudioBufferResource">
<polygon fill="white" stroke="red" points="183,-1596.5 183,-1615.5 290,-1615.5 290,-1596.5 183,-1596.5"/>
<text text-anchor="middle" x="236.5" y="-1603.5" font-family="Helvetica,sans-Serif" font-size="10.00">AudioBufferResource</text>
</a>
</g>
</g>
<!-- Node0&#45;&gt;Node6 -->
<g id="edge6" class="edge">
<title>Node0&#45;&gt;Node6</title>
<path fill="none" stroke="midnightblue" d="M111.46,-884.62C114.18,-994.52 129.72,-1530.71 175,-1587 178.11,-1590.86 181.99,-1593.95 186.28,-1596.42"/>
<polygon fill="midnightblue" stroke="midnightblue" points="114.95,-884.51 111.21,-874.6 107.96,-884.68 114.95,-884.51"/>
</g>
<!-- Node9 -->
<g id="node8" class="node">
<title>Node9</title>
<g id="a_node8"><a xlink:href="../../d7/db2/classnap_1_1_base_vertex_attribute.html" target="_top" xlink:title="BaseVertexAttribute">
<polygon fill="white" stroke="red" points="184.5,-1558.5 184.5,-1577.5 288.5,-1577.5 288.5,-1558.5 184.5,-1558.5"/>
<text text-anchor="middle" x="236.5" y="-1565.5" font-family="Helvetica,sans-Serif" font-size="10.00">BaseVertexAttribute</text>
</a>
</g>
</g>
<!-- Node0&#45;&gt;Node9 -->
<g id="edge7" class="edge">
<title>Node0&#45;&gt;Node9</title>
<path fill="none" stroke="midnightblue" d="M111.57,-884.91C114.78,-991.94 132.13,-1495.98 175,-1549 178.11,-1552.85 182,-1555.94 186.3,-1558.41"/>
<polygon fill="midnightblue" stroke="midnightblue" points="115.06,-884.73 111.27,-874.84 108.07,-884.93 115.06,-884.73"/>
</g>
<!-- Node12 -->
<g id="node9" class="node">
<title>Node12</title>
<g id="a_node9"><a xlink:href="../../df/dfc/classnap_1_1_bitmap.html" target="_top" xlink:title="Bitmap">
<polygon fill="white" stroke="red" points="213,-1520.5 213,-1539.5 260,-1539.5 260,-1520.5 213,-1520.5"/>
<text text-anchor="middle" x="236.5" y="-1527.5" font-family="Helvetica,sans-Serif" font-size="10.00">Bitmap</text>
</a>
</g>
</g>
<!-- Node0&#45;&gt;Node12 -->
<g id="edge8" class="edge">
<title>Node0&#45;&gt;Node12</title>
<path fill="none" stroke="midnightblue" d="M111.69,-885.08C115.42,-988.83 134.52,-1461.22 175,-1511 184.1,-1522.19 199.73,-1526.9 212.82,-1528.84"/>
<polygon fill="midnightblue" stroke="midnightblue" points="115.18,-884.64 111.33,-874.77 108.18,-884.89 115.18,-884.64"/>
</g>
<!-- Node14 -->
<g id="node10" class="node">
<title>Node14</title>
<g id="a_node10"><a xlink:href="../../df/d37/classnap_1_1_calendar_item.html" target="_top" xlink:title="CalendarItem">
<polygon fill="white" stroke="red" points="199.5,-1482.5 199.5,-1501.5 273.5,-1501.5 273.5,-1482.5 199.5,-1482.5"/>
<text text-anchor="middle" x="236.5" y="-1489.5" font-family="Helvetica,sans-Serif" font-size="10.00">CalendarItem</text>
</a>
</g>
</g>
<!-- Node0&#45;&gt;Node14 -->
<g id="edge9" class="edge">
<title>Node0&#45;&gt;Node14</title>
<path fill="none" stroke="midnightblue" d="M111.81,-884.83C116.04,-984.34 136.86,-1426.38 175,-1473 181.13,-1480.5 190.2,-1485.09 199.46,-1487.88"/>
<polygon fill="midnightblue" stroke="midnightblue" points="115.3,-884.51 111.38,-874.67 108.3,-884.8 115.3,-884.51"/>
</g>
<!-- Node20 -->
<g id="node11" class="node">
<title>Node20</title>
<g id="a_node11"><a xlink:href="../../db/d6b/classnap_1_1_component.html" target="_top" xlink:title="Component">
<polygon fill="white" stroke="red" points="203.5,-1444.5 203.5,-1463.5 269.5,-1463.5 269.5,-1444.5 203.5,-1444.5"/>
<text text-anchor="middle" x="236.5" y="-1451.5" font-family="Helvetica,sans-Serif" font-size="10.00">Component</text>
</a>
</g>
</g>
<!-- Node0&#45;&gt;Node20 -->
<g id="edge10" class="edge">
<title>Node0&#45;&gt;Node20</title>
<path fill="none" stroke="midnightblue" d="M111.95,-884.77C116.72,-980.33 139.21,-1391.56 175,-1435 182,-1443.5 192.76,-1448.25 203.28,-1450.9"/>
<polygon fill="midnightblue" stroke="midnightblue" points="115.43,-884.33 111.45,-874.51 108.44,-884.67 115.43,-884.33"/>
</g>
<!-- Node60 -->
<g id="node12" class="node">
<title>Node60</title>
<g id="a_node12"><a xlink:href="../../d5/dc7/classnap_1_1_c_v_adapter.html" target="_top" xlink:title="CVAdapter">
<polygon fill="white" stroke="red" points="204.5,-1406.5 204.5,-1425.5 268.5,-1425.5 268.5,-1406.5 204.5,-1406.5"/>
<text text-anchor="middle" x="236.5" y="-1413.5" font-family="Helvetica,sans-Serif" font-size="10.00">CVAdapter</text>
</a>
</g>
</g>
<!-- Node0&#45;&gt;Node60 -->
<g id="edge11" class="edge">
<title>Node0&#45;&gt;Node60</title>
<path fill="none" stroke="midnightblue" d="M110.62,-884.72C109.35,-971.3 108.59,-1317.04 175,-1397 182.25,-1405.72 193.45,-1410.5 204.26,-1413.1"/>
<polygon fill="midnightblue" stroke="midnightblue" points="114.12,-884.73 110.79,-874.67 107.12,-884.61 114.12,-884.73"/>
</g>
<!-- Node64 -->
<g id="node13" class="node">
<title>Node64</title>
<g id="a_node13"><a xlink:href="../../d3/dc5/classnap_1_1_device.html" target="_top" xlink:title="Device">
<polygon fill="white" stroke="red" points="214,-1368.5 214,-1387.5 259,-1387.5 259,-1368.5 214,-1368.5"/>
<text text-anchor="middle" x="236.5" y="-1375.5" font-family="Helvetica,sans-Serif" font-size="10.00">Device</text>
</a>
</g>
</g>
<!-- Node0&#45;&gt;Node64 -->
<g id="edge12" class="edge">
<title>Node0&#45;&gt;Node64</title>
<path fill="none" stroke="midnightblue" d="M110.82,-884.87C110.49,-967.81 113.32,-1285.42 175,-1359 184.48,-1370.31 200.61,-1374.98 213.83,-1376.87"/>
<polygon fill="midnightblue" stroke="midnightblue" points="114.32,-884.8 110.89,-874.78 107.32,-884.75 114.32,-884.8"/>
</g>
<!-- Node80 -->
<g id="node14" class="node">
<title>Node80</title>
<g id="a_node14"><a xlink:href="../../dc/db6/classnap_1_1_entity.html" target="_top" xlink:title="Entity">
<polygon fill="white" stroke="black" points="215.5,-1330.5 215.5,-1349.5 257.5,-1349.5 257.5,-1330.5 215.5,-1330.5"/>
<text text-anchor="middle" x="236.5" y="-1337.5" font-family="Helvetica,sans-Serif" font-size="10.00">Entity</text>
</a>
</g>
</g>
<!-- Node0&#45;&gt;Node80 -->
<g id="edge13" class="edge">
<title>Node0&#45;&gt;Node80</title>
<path fill="none" stroke="midnightblue" d="M111.06,-884.84C111.71,-963.66 117.98,-1253.71 175,-1321 184.89,-1332.67 201.88,-1337.27 215.34,-1339.04"/>
<polygon fill="midnightblue" stroke="midnightblue" points="114.56,-884.77 111,-874.79 107.56,-884.81 114.56,-884.77"/>
</g>
<!-- Node81 -->
<g id="node15" class="node">
<title>Node81</title>
<g id="a_node15"><a xlink:href="../../da/dad/classnap_1_1_font.html" target="_top" xlink:title="Font">
<polygon fill="white" stroke="black" points="218.5,-1292.5 218.5,-1311.5 254.5,-1311.5 254.5,-1292.5 218.5,-1292.5"/>
<text text-anchor="middle" x="236.5" y="-1299.5" font-family="Helvetica,sans-Serif" font-size="10.00">Font</text>
</a>
</g>
</g>
<!-- Node0&#45;&gt;Node81 -->
<g id="edge14" class="edge">
<title>Node0&#45;&gt;Node81</title>
<path fill="none" stroke="midnightblue" d="M111.35,-885.06C113.05,-959.95 122.7,-1222.05 175,-1283 185.68,-1295.45 204.43,-1299.84 218.23,-1301.34"/>
<polygon fill="midnightblue" stroke="midnightblue" points="114.84,-884.63 111.14,-874.7 107.84,-884.77 114.84,-884.63"/>
</g>
<!-- Node82 -->
<g id="node16" class="node">
<title>Node82</title>
<g id="a_node16"><a xlink:href="../../d3/dd1/classnap_1_1_i_calendar.html" target="_top" xlink:title="ICalendar">
<polygon fill="white" stroke="red" points="208,-1254.5 208,-1273.5 265,-1273.5 265,-1254.5 208,-1254.5"/>
<text text-anchor="middle" x="236.5" y="-1261.5" font-family="Helvetica,sans-Serif" font-size="10.00">ICalendar</text>
</a>
</g>
</g>
<!-- Node0&#45;&gt;Node82 -->
<g id="edge15" class="edge">
<title>Node0&#45;&gt;Node82</title>
<path fill="none" stroke="midnightblue" d="M111.67,-884.58C114.44,-954.42 127.23,-1190.17 175,-1245 183.24,-1254.46 196.14,-1259.27 207.92,-1261.68"/>
<polygon fill="midnightblue" stroke="midnightblue" points="115.16,-884.37 111.29,-874.51 108.17,-884.64 115.16,-884.37"/>
</g>
<!-- Node85 -->
<g id="node17" class="node">
<title>Node85</title>
<g id="a_node17"><a xlink:href="../../db/d8c/classnap_1_1_icon.html" target="_top" xlink:title="Icon">
<polygon fill="white" stroke="black" points="219,-1216.5 219,-1235.5 254,-1235.5 254,-1216.5 219,-1216.5"/>
<text text-anchor="middle" x="236.5" y="-1223.5" font-family="Helvetica,sans-Serif" font-size="10.00">Icon</text>
</a>
</g>
</g>
<!-- Node0&#45;&gt;Node85 -->
<g id="edge16" class="edge">
<title>Node0&#45;&gt;Node85</title>
<path fill="none" stroke="midnightblue" d="M112.08,-884.69C116.04,-950.05 131.89,-1158.41 175,-1207 186.03,-1219.43 205.1,-1223.81 218.88,-1225.31"/>
<polygon fill="midnightblue" stroke="midnightblue" points="115.56,-884.31 111.49,-874.53 108.57,-884.72 115.56,-884.31"/>
</g>
<!-- Node86 -->
<g id="node18" class="node">
<title>Node86</title>
<g id="a_node18"><a xlink:href="../../dd/dac/classnap_1_1_i_mesh.html" target="_top" xlink:title="IMesh">
<polygon fill="white" stroke="red" points="215,-1178.5 215,-1197.5 258,-1197.5 258,-1178.5 215,-1178.5"/>
<text text-anchor="middle" x="236.5" y="-1185.5" font-family="Helvetica,sans-Serif" font-size="10.00">IMesh</text>
</a>
</g>
</g>
<!-- Node0&#45;&gt;Node86 -->
<g id="edge17" class="edge">
<title>Node0&#45;&gt;Node86</title>
<path fill="none" stroke="midnightblue" d="M112.59,-884.83C117.85,-945.43 136.52,-1126.6 175,-1169 185.06,-1180.09 201.51,-1184.76 214.72,-1186.7"/>
<polygon fill="midnightblue" stroke="midnightblue" points="116.07,-884.36 111.74,-874.69 109.09,-884.94 116.07,-884.36"/>
</g>
<!-- Node104 -->
<g id="node19" class="node">
<title>Node104</title>
<g id="a_node19"><a xlink:href="../../d2/de3/classnap_1_1_material.html" target="_top" xlink:title="Material">
<polygon fill="white" stroke="black" points="211,-1140.5 211,-1159.5 262,-1159.5 262,-1140.5 211,-1140.5"/>
<text text-anchor="middle" x="236.5" y="-1147.5" font-family="Helvetica,sans-Serif" font-size="10.00">Material</text>
</a>
</g>
</g>
<!-- Node0&#45;&gt;Node104 -->
<g id="edge18" class="edge">
<title>Node0&#45;&gt;Node104</title>
<path fill="none" stroke="midnightblue" d="M113.24,-884.84C119.88,-940.2 141.1,-1094.7 175,-1131 184.24,-1140.9 198.57,-1145.67 210.96,-1147.96"/>
<polygon fill="midnightblue" stroke="midnightblue" points="116.68,-884.13 112.05,-874.61 109.73,-884.95 116.68,-884.13"/>
</g>
<!-- Node105 -->
<g id="node20" class="node">
<title>Node105</title>
<g id="a_node20"><a xlink:href="../../d3/d76/classnap_1_1math_1_1_f_curve.html" target="_top" xlink:title="FCurve\&lt; T, V \&gt;">
<polygon fill="white" stroke="black" points="195,-1102.5 195,-1121.5 278,-1121.5 278,-1102.5 195,-1102.5"/>
<text text-anchor="middle" x="236.5" y="-1109.5" font-family="Helvetica,sans-Serif" font-size="10.00">FCurve&lt; T, V &gt;</text>
</a>
</g>
</g>
<!-- Node0&#45;&gt;Node105 -->
<g id="edge19" class="edge">
<title>Node0&#45;&gt;Node105</title>
<path fill="none" stroke="midnightblue" d="M110.63,-885.01C110.95,-928.86 117.98,-1034.21 175,-1093 180.44,-1098.61 187.52,-1102.57 194.91,-1105.36"/>
<polygon fill="midnightblue" stroke="midnightblue" points="114.13,-884.82 110.68,-874.8 107.13,-884.79 114.13,-884.82"/>
</g>
<!-- Node106 -->
<g id="node21" class="node">
<title>Node106</title>
<g id="a_node21"><a xlink:href="../../d5/de5/classnap_1_1_parameter.html" target="_top" xlink:title="Parameter">
<polygon fill="white" stroke="red" points="205.5,-1064.5 205.5,-1083.5 267.5,-1083.5 267.5,-1064.5 205.5,-1064.5"/>
<text text-anchor="middle" x="236.5" y="-1071.5" font-family="Helvetica,sans-Serif" font-size="10.00">Parameter</text>
</a>
</g>
</g>
<!-- Node0&#45;&gt;Node106 -->
<g id="edge20" class="edge">
<title>Node0&#45;&gt;Node106</title>
<path fill="none" stroke="midnightblue" d="M112,-885.3C115,-923.84 127,-1007.98 175,-1055 183.18,-1063.01 194.7,-1067.65 205.49,-1070.33"/>
<polygon fill="midnightblue" stroke="midnightblue" points="115.46,-884.64 111.33,-874.89 108.48,-885.09 115.46,-884.64"/>
</g>
<!-- Node113 -->
<g id="node22" class="node">
<title>Node113</title>
<g id="a_node22"><a xlink:href="../../d9/dc5/classnap_1_1_parameter_blend_group.html" target="_top" xlink:title="ParameterBlendGroup">
<polygon fill="white" stroke="black" points="180,-1026.5 180,-1045.5 293,-1045.5 293,-1026.5 180,-1026.5"/>
<text text-anchor="middle" x="236.5" y="-1033.5" font-family="Helvetica,sans-Serif" font-size="10.00">ParameterBlendGroup</text>
</a>
</g>
</g>
<!-- Node0&#45;&gt;Node113 -->
<g id="edge21" class="edge">
<title>Node0&#45;&gt;Node113</title>
<path fill="none" stroke="midnightblue" d="M113.9,-884.81C119.66,-917.12 135.6,-981.15 175,-1017 179.23,-1020.85 184.24,-1023.92 189.54,-1026.37"/>
<polygon fill="midnightblue" stroke="midnightblue" points="117.33,-884.1 112.26,-874.8 110.42,-885.23 117.33,-884.1"/>
</g>
<!-- Node114 -->
<g id="node23" class="node">
<title>Node114</title>
<g id="a_node23"><a xlink:href="../../dd/d92/classnap_1_1_parameter_group.html" target="_top" xlink:title="ParameterGroup">
<polygon fill="white" stroke="black" points="192.5,-988.5 192.5,-1007.5 280.5,-1007.5 280.5,-988.5 192.5,-988.5"/>
<text text-anchor="middle" x="236.5" y="-995.5" font-family="Helvetica,sans-Serif" font-size="10.00">ParameterGroup</text>
</a>
</g>
</g>
<!-- Node0&#45;&gt;Node114 -->
<g id="edge22" class="edge">
<title>Node0&#45;&gt;Node114</title>
<path fill="none" stroke="midnightblue" d="M116.77,-884.12C125.39,-909.45 144,-953.84 175,-979 180.13,-983.16 186.18,-986.42 192.43,-988.96"/>
<polygon fill="midnightblue" stroke="midnightblue" points="120.09,-882.99 113.69,-874.54 113.43,-885.14 120.09,-882.99"/>
</g>
<!-- Node115 -->
<g id="node24" class="node">
<title>Node115</title>
<g id="a_node24"><a xlink:href="../../da/d64/classnap_1_1_parameter_g_u_i.html" target="_top" xlink:title="ParameterGUI">
<polygon fill="white" stroke="black" points="197.5,-950.5 197.5,-969.5 275.5,-969.5 275.5,-950.5 197.5,-950.5"/>
<text text-anchor="middle" x="236.5" y="-957.5" font-family="Helvetica,sans-Serif" font-size="10.00">ParameterGUI</text>
</a>
</g>
</g>
<!-- Node0&#45;&gt;Node115 -->
<g id="edge23" class="edge">
<title>Node0&#45;&gt;Node115</title>
<path fill="none" stroke="midnightblue" d="M122.03,-883.31C133.31,-900.55 152.35,-925.91 175,-941 181.69,-945.46 189.48,-948.91 197.21,-951.58"/>
<polygon fill="midnightblue" stroke="midnightblue" points="124.89,-881.28 116.59,-874.69 118.97,-885.02 124.89,-881.28"/>
</g>
<!-- Node116 -->
<g id="node25" class="node">
<title>Node116</title>
<g id="a_node25"><a xlink:href="../../da/d65/classnap_1_1_portal_item.html" target="_top" xlink:title="PortalItem">
<polygon fill="white" stroke="red" points="206,-912.5 206,-931.5 267,-931.5 267,-912.5 206,-912.5"/>
<text text-anchor="middle" x="236.5" y="-919.5" font-family="Helvetica,sans-Serif" font-size="10.00">PortalItem</text>
</a>
</g>
</g>
<!-- Node0&#45;&gt;Node116 -->
<g id="edge24" class="edge">
<title>Node0&#45;&gt;Node116</title>
<path fill="none" stroke="midnightblue" d="M133.67,-880.21C145.61,-887.77 160.71,-896.62 175,-903 184.75,-907.35 195.8,-911.14 205.76,-914.16"/>
<polygon fill="midnightblue" stroke="midnightblue" points="135.52,-877.24 125.23,-874.75 131.72,-883.12 135.52,-877.24"/>
</g>
<!-- Node125 -->
<g id="node26" class="node">
<title>Node125</title>
<g id="a_node26"><a xlink:href="../../dc/d4a/classnap_1_1_public_key.html" target="_top" xlink:title="PublicKey">
<polygon fill="white" stroke="black" points="206,-874.5 206,-893.5 267,-893.5 267,-874.5 206,-874.5"/>
<text text-anchor="middle" x="236.5" y="-881.5" font-family="Helvetica,sans-Serif" font-size="10.00">PublicKey</text>
</a>
</g>
</g>
<!-- Node0&#45;&gt;Node125 -->
<g id="edge25" class="edge">
<title>Node0&#45;&gt;Node125</title>
<path fill="none" stroke="midnightblue" d="M149.22,-870.83C167.35,-873.6 188.7,-876.86 205.62,-879.44"/>
<polygon fill="midnightblue" stroke="midnightblue" points="149.66,-867.36 139.25,-869.31 148.61,-874.28 149.66,-867.36"/>
</g>
<!-- Node126 -->
<g id="node27" class="node">
<title>Node126</title>
<g id="a_node27"><a xlink:href="../../d6/de6/classnap_1_1_python_script.html" target="_top" xlink:title="PythonScript">
<polygon fill="white" stroke="black" points="200,-836.5 200,-855.5 273,-855.5 273,-836.5 200,-836.5"/>
<text text-anchor="middle" x="236.5" y="-843.5" font-family="Helvetica,sans-Serif" font-size="10.00">PythonScript</text>
</a>
</g>
</g>
<!-- Node0&#45;&gt;Node126 -->
<g id="edge26" class="edge">
<title>Node0&#45;&gt;Node126</title>
<path fill="none" stroke="midnightblue" d="M149.39,-859.14C165.45,-856.69 184.01,-853.86 199.77,-851.45"/>
<polygon fill="midnightblue" stroke="midnightblue" points="148.61,-855.72 139.25,-860.69 149.66,-862.64 148.61,-855.72"/>
</g>
<!-- Node127 -->
<g id="node28" class="node">
<title>Node127</title>
<g id="a_node28"><a xlink:href="../../de/dd1/classnap_1_1_render_target.html" target="_top" xlink:title="RenderTarget">
<polygon fill="white" stroke="black" points="199.5,-798.5 199.5,-817.5 273.5,-817.5 273.5,-798.5 199.5,-798.5"/>
<text text-anchor="middle" x="236.5" y="-805.5" font-family="Helvetica,sans-Serif" font-size="10.00">RenderTarget</text>
</a>
</g>
</g>
<!-- Node0&#45;&gt;Node127 -->
<g id="edge27" class="edge">
<title>Node0&#45;&gt;Node127</title>
<path fill="none" stroke="midnightblue" d="M133.67,-849.79C145.61,-842.23 160.71,-833.38 175,-827 183.04,-823.41 191.97,-820.21 200.43,-817.5"/>
<polygon fill="midnightblue" stroke="midnightblue" points="131.72,-846.88 125.23,-855.25 135.52,-852.76 131.72,-846.88"/>
</g>
<!-- Node128 -->
<g id="node29" class="node">
<title>Node128</title>
<g id="a_node29"><a xlink:href="../../d4/def/classnap_1_1_sampler.html" target="_top" xlink:title="Sampler">
<polygon fill="white" stroke="red" points="210,-760.5 210,-779.5 263,-779.5 263,-760.5 210,-760.5"/>
<text text-anchor="middle" x="236.5" y="-767.5" font-family="Helvetica,sans-Serif" font-size="10.00">Sampler</text>
</a>
</g>
</g>
<!-- Node0&#45;&gt;Node128 -->
<g id="edge28" class="edge">
<title>Node0&#45;&gt;Node128</title>
<path fill="none" stroke="midnightblue" d="M122.03,-846.69C133.31,-829.45 152.35,-804.09 175,-789 185.45,-782.04 198.59,-777.51 209.95,-774.63"/>
<polygon fill="midnightblue" stroke="midnightblue" points="118.97,-844.98 116.59,-855.31 124.89,-848.72 118.97,-844.98"/>
</g>
<!-- Node132 -->
<g id="node30" class="node">
<title>Node132</title>
<g id="a_node30"><a xlink:href="../../d7/d68/classnap_1_1_scene.html" target="_top" xlink:title="Scene">
<polygon fill="white" stroke="black" points="214.5,-722.5 214.5,-741.5 258.5,-741.5 258.5,-722.5 214.5,-722.5"/>
<text text-anchor="middle" x="236.5" y="-729.5" font-family="Helvetica,sans-Serif" font-size="10.00">Scene</text>
</a>
</g>
</g>
<!-- Node0&#45;&gt;Node132 -->
<g id="edge29" class="edge">
<title>Node0&#45;&gt;Node132</title>
<path fill="none" stroke="midnightblue" d="M116.77,-845.88C125.39,-820.55 144,-776.16 175,-751 186.2,-741.91 201.78,-737.15 214.32,-734.67"/>
<polygon fill="midnightblue" stroke="midnightblue" points="113.43,-844.86 113.69,-855.46 120.09,-847.01 113.43,-844.86"/>
</g>
<!-- Node133 -->
<g id="node31" class="node">
<title>Node133</title>
<g id="a_node31"><a xlink:href="../../d6/db3/classnap_1_1_s_d_o_argument.html" target="_top" xlink:title="SDOArgument">
<polygon fill="white" stroke="red" points="196.5,-684.5 196.5,-703.5 276.5,-703.5 276.5,-684.5 196.5,-684.5"/>
<text text-anchor="middle" x="236.5" y="-691.5" font-family="Helvetica,sans-Serif" font-size="10.00">SDOArgument</text>
</a>
</g>
</g>
<!-- Node0&#45;&gt;Node133 -->
<g id="edge30" class="edge">
<title>Node0&#45;&gt;Node133</title>
<path fill="none" stroke="midnightblue" d="M113.9,-845.19C119.66,-812.88 135.6,-748.85 175,-713 181.03,-707.52 188.62,-703.62 196.38,-700.84"/>
<polygon fill="midnightblue" stroke="midnightblue" points="110.42,-844.77 112.26,-855.2 117.33,-845.9 110.42,-844.77"/>
</g>
<!-- Node135 -->
<g id="node32" class="node">
<title>Node135</title>
<g id="a_node32"><a xlink:href="../../d2/de6/classnap_1_1_s_d_o_group.html" target="_top" xlink:title="SDOGroup">
<polygon fill="white" stroke="black" points="204.5,-646.5 204.5,-665.5 268.5,-665.5 268.5,-646.5 204.5,-646.5"/>
<text text-anchor="middle" x="236.5" y="-653.5" font-family="Helvetica,sans-Serif" font-size="10.00">SDOGroup</text>
</a>
</g>
</g>
<!-- Node0&#45;&gt;Node135 -->
<g id="edge31" class="edge">
<title>Node0&#45;&gt;Node135</title>
<path fill="none" stroke="midnightblue" d="M112,-844.7C115,-806.16 127,-722.02 175,-675 182.86,-667.3 193.82,-662.71 204.24,-659.99"/>
<polygon fill="midnightblue" stroke="midnightblue" points="108.48,-844.91 111.33,-855.11 115.46,-845.36 108.48,-844.91"/>
</g>
<!-- Node136 -->
<g id="node33" class="node">
<title>Node136</title>
<g id="a_node33"><a xlink:href="../../d9/da0/classnap_1_1_sequence.html" target="_top" xlink:title="Sequence">
<polygon fill="white" stroke="black" points="206.5,-608.5 206.5,-627.5 266.5,-627.5 266.5,-608.5 206.5,-608.5"/>
<text text-anchor="middle" x="236.5" y="-615.5" font-family="Helvetica,sans-Serif" font-size="10.00">Sequence</text>
</a>
</g>
</g>
<!-- Node0&#45;&gt;Node136 -->
<g id="edge32" class="edge">
<title>Node0&#45;&gt;Node136</title>
<path fill="none" stroke="midnightblue" d="M110.63,-844.99C110.95,-801.14 117.98,-695.79 175,-637 183.2,-628.54 195.12,-623.84 206.21,-621.22"/>
<polygon fill="midnightblue" stroke="midnightblue" points="107.13,-845.21 110.68,-855.2 114.13,-845.18 107.13,-845.21"/>
</g>
<!-- Node137 -->
<g id="node34" class="node">
<title>Node137</title>
<g id="a_node34"><a xlink:href="../../d9/dde/classnap_1_1_sequence_editor.html" target="_top" xlink:title="SequenceEditor">
<polygon fill="white" stroke="black" points="193.5,-570.5 193.5,-589.5 279.5,-589.5 279.5,-570.5 193.5,-570.5"/>
<text text-anchor="middle" x="236.5" y="-577.5" font-family="Helvetica,sans-Serif" font-size="10.00">SequenceEditor</text>
</a>
</g>
</g>
<!-- Node0&#45;&gt;Node137 -->
<g id="edge33" class="edge">
<title>Node0&#45;&gt;Node137</title>
<path fill="none" stroke="midnightblue" d="M113.24,-845.16C119.88,-789.8 141.1,-635.3 175,-599 180.03,-593.61 186.58,-589.74 193.5,-586.96"/>
<polygon fill="midnightblue" stroke="midnightblue" points="109.73,-845.05 112.05,-855.39 116.68,-845.87 109.73,-845.05"/>
</g>
<!-- Node138 -->
<g id="node35" class="node">
<title>Node138</title>
<g id="a_node35"><a xlink:href="../../dd/d58/classnap_1_1_sequence_editor_g_u_i.html" target="_top" xlink:title="SequenceEditorGUI">
<polygon fill="white" stroke="black" points="185.5,-532.5 185.5,-551.5 287.5,-551.5 287.5,-532.5 185.5,-532.5"/>
<text text-anchor="middle" x="236.5" y="-539.5" font-family="Helvetica,sans-Serif" font-size="10.00">SequenceEditorGUI</text>
</a>
</g>
</g>
<!-- Node0&#45;&gt;Node138 -->
<g id="edge34" class="edge">
<title>Node0&#45;&gt;Node138</title>
<path fill="none" stroke="midnightblue" d="M112.59,-845.17C117.85,-784.57 136.52,-603.4 175,-561 178.48,-557.17 182.72,-554.1 187.32,-551.65"/>
<polygon fill="midnightblue" stroke="midnightblue" points="109.09,-845.06 111.74,-855.31 116.07,-845.64 109.09,-845.06"/>
</g>
<!-- Node139 -->
<g id="node36" class="node">
<title>Node139</title>
<g id="a_node36"><a xlink:href="../../d5/d9c/classnap_1_1_sequence_marker.html" target="_top" xlink:title="SequenceMarker">
<polygon fill="white" stroke="black" points="191.5,-494.5 191.5,-513.5 281.5,-513.5 281.5,-494.5 191.5,-494.5"/>
<text text-anchor="middle" x="236.5" y="-501.5" font-family="Helvetica,sans-Serif" font-size="10.00">SequenceMarker</text>
</a>
</g>
</g>
<!-- Node0&#45;&gt;Node139 -->
<g id="edge35" class="edge">
<title>Node0&#45;&gt;Node139</title>
<path fill="none" stroke="midnightblue" d="M112.08,-845.31C116.04,-779.95 131.89,-571.59 175,-523 179.46,-517.98 185.23,-514.27 191.43,-511.53"/>
<polygon fill="midnightblue" stroke="midnightblue" points="108.57,-845.28 111.49,-855.47 115.56,-845.69 108.57,-845.28"/>
</g>
<!-- Node140 -->
<g id="node37" class="node">
<title>Node140</title>
<g id="a_node37"><a xlink:href="../../dd/dcd/classnap_1_1_sequence_player_clock.html" target="_top" xlink:title="SequencePlayerClock">
<polygon fill="white" stroke="red" points="180,-456.5 180,-475.5 293,-475.5 293,-456.5 180,-456.5"/>
<text text-anchor="middle" x="236.5" y="-463.5" font-family="Helvetica,sans-Serif" font-size="10.00">SequencePlayerClock</text>
</a>
</g>
</g>
<!-- Node0&#45;&gt;Node140 -->
<g id="edge36" class="edge">
<title>Node0&#45;&gt;Node140</title>
<path fill="none" stroke="midnightblue" d="M111.67,-845.42C114.44,-775.58 127.23,-539.83 175,-485 178.4,-481.1 182.59,-477.99 187.17,-475.51"/>
<polygon fill="midnightblue" stroke="midnightblue" points="108.17,-845.36 111.29,-855.49 115.16,-845.63 108.17,-845.36"/>
</g>
<!-- Node144 -->
<g id="node38" class="node">
<title>Node144</title>
<g id="a_node38"><a xlink:href="../../de/dac/classnap_1_1_sequence_player_output.html" target="_top" xlink:title="SequencePlayerOutput">
<polygon fill="white" stroke="red" points="178,-418.5 178,-437.5 295,-437.5 295,-418.5 178,-418.5"/>
<text text-anchor="middle" x="236.5" y="-425.5" font-family="Helvetica,sans-Serif" font-size="10.00">SequencePlayerOutput</text>
</a>
</g>
</g>
<!-- Node0&#45;&gt;Node144 -->
<g id="edge37" class="edge">
<title>Node0&#45;&gt;Node144</title>
<path fill="none" stroke="midnightblue" d="M111.35,-844.94C113.05,-770.05 122.7,-507.95 175,-447 178.3,-443.16 182.36,-440.08 186.82,-437.62"/>
<polygon fill="midnightblue" stroke="midnightblue" points="107.84,-845.23 111.14,-855.3 114.84,-845.37 107.84,-845.23"/>
</g>
<!-- Node148 -->
<g id="node39" class="node">
<title>Node148</title>
<g id="a_node39"><a xlink:href="../../d5/d30/classnap_1_1_sequence_track.html" target="_top" xlink:title="SequenceTrack">
<polygon fill="white" stroke="red" points="194.5,-380.5 194.5,-399.5 278.5,-399.5 278.5,-380.5 194.5,-380.5"/>
<text text-anchor="middle" x="236.5" y="-387.5" font-family="Helvetica,sans-Serif" font-size="10.00">SequenceTrack</text>
</a>
</g>
</g>
<!-- Node0&#45;&gt;Node148 -->
<g id="edge38" class="edge">
<title>Node0&#45;&gt;Node148</title>
<path fill="none" stroke="midnightblue" d="M111.06,-845.16C111.71,-766.34 117.98,-476.29 175,-409 180.05,-403.04 186.96,-398.92 194.3,-396.08"/>
<polygon fill="midnightblue" stroke="midnightblue" points="107.56,-845.19 111,-855.21 114.56,-845.23 107.56,-845.19"/>
</g>
<!-- Node154 -->
<g id="node40" class="node">
<title>Node154</title>
<g id="a_node40"><a xlink:href="../../de/d50/classnap_1_1_sequence_track_segment.html" target="_top" xlink:title="SequenceTrackSegment">
<polygon fill="white" stroke="red" points="175,-342.5 175,-361.5 298,-361.5 298,-342.5 175,-342.5"/>
<text text-anchor="middle" x="236.5" y="-349.5" font-family="Helvetica,sans-Serif" font-size="10.00">SequenceTrackSegment</text>
</a>
</g>
</g>
<!-- Node0&#45;&gt;Node154 -->
<g id="edge39" class="edge">
<title>Node0&#45;&gt;Node154</title>
<path fill="none" stroke="midnightblue" d="M110.82,-845.13C110.49,-762.19 113.32,-444.58 175,-371 178.25,-367.12 182.29,-364.02 186.73,-361.55"/>
<polygon fill="midnightblue" stroke="midnightblue" points="107.32,-845.25 110.89,-855.22 114.32,-845.2 107.32,-845.25"/>
</g>
<!-- Node159 -->
<g id="node41" class="node">
<title>Node159</title>
<g id="a_node41"><a xlink:href="../../dd/d44/classnap_1_1_shader.html" target="_top" xlink:title="Shader">
<polygon fill="white" stroke="red" points="213,-304.5 213,-323.5 260,-323.5 260,-304.5 213,-304.5"/>
<text text-anchor="middle" x="236.5" y="-311.5" font-family="Helvetica,sans-Serif" font-size="10.00">Shader</text>
</a>
</g>
</g>
<!-- Node0&#45;&gt;Node159 -->
<g id="edge40" class="edge">
<title>Node0&#45;&gt;Node159</title>
<path fill="none" stroke="midnightblue" d="M110.62,-845.28C109.35,-758.7 108.59,-412.96 175,-333 184.21,-321.91 199.84,-317.19 212.9,-315.23"/>
<polygon fill="midnightblue" stroke="midnightblue" points="107.12,-845.39 110.79,-855.33 114.12,-845.27 107.12,-845.39"/>
</g>
<!-- Node165 -->
<g id="node42" class="node">
<title>Node165</title>
<g id="a_node42"><a xlink:href="../../da/d9f/classnap_1_1_snapshot.html" target="_top" xlink:title="Snapshot">
<polygon fill="white" stroke="black" points="207.5,-266.5 207.5,-285.5 265.5,-285.5 265.5,-266.5 207.5,-266.5"/>
<text text-anchor="middle" x="236.5" y="-273.5" font-family="Helvetica,sans-Serif" font-size="10.00">Snapshot</text>
</a>
</g>
</g>
<!-- Node0&#45;&gt;Node165 -->
<g id="edge41" class="edge">
<title>Node0&#45;&gt;Node165</title>
<path fill="none" stroke="midnightblue" d="M111.95,-845.23C116.72,-749.67 139.21,-338.44 175,-295 182.91,-285.4 195.63,-280.57 207.36,-278.17"/>
<polygon fill="midnightblue" stroke="midnightblue" points="108.44,-845.33 111.45,-855.49 115.43,-845.67 108.44,-845.33"/>
</g>
<!-- Node166 -->
<g id="node43" class="node">
<title>Node166</title>
<g id="a_node43"><a xlink:href="../../d6/d0e/classnap_1_1_texture2_d.html" target="_top" xlink:title="Texture2D">
<polygon fill="white" stroke="red" points="206,-228.5 206,-247.5 267,-247.5 267,-228.5 206,-228.5"/>
<text text-anchor="middle" x="236.5" y="-235.5" font-family="Helvetica,sans-Serif" font-size="10.00">Texture2D</text>
</a>
</g>
</g>
<!-- Node0&#45;&gt;Node166 -->
<g id="edge42" class="edge">
<title>Node0&#45;&gt;Node166</title>
<path fill="none" stroke="midnightblue" d="M111.81,-845.17C116.04,-745.66 136.86,-303.62 175,-257 182.53,-247.8 194.47,-242.98 205.77,-240.48"/>
<polygon fill="midnightblue" stroke="midnightblue" points="108.3,-845.2 111.38,-855.33 115.3,-845.49 108.3,-845.2"/>
</g>
<!-- Node170 -->
<g id="node44" class="node">
<title>Node170</title>
<g id="a_node44"><a xlink:href="../../d7/da3/classnap_1_1_u_d_p_adapter.html" target="_top" xlink:title="UDPAdapter">
<polygon fill="white" stroke="red" points="201,-190.5 201,-209.5 272,-209.5 272,-190.5 201,-190.5"/>
<text text-anchor="middle" x="236.5" y="-197.5" font-family="Helvetica,sans-Serif" font-size="10.00">UDPAdapter</text>
</a>
</g>
</g>
<!-- Node0&#45;&gt;Node170 -->
<g id="edge43" class="edge">
<title>Node0&#45;&gt;Node170</title>
<path fill="none" stroke="midnightblue" d="M111.69,-844.92C115.42,-741.17 134.52,-268.78 175,-219 181.39,-211.14 191,-206.48 200.69,-203.73"/>
<polygon fill="midnightblue" stroke="midnightblue" points="108.18,-845.11 111.33,-855.23 115.18,-845.36 108.18,-845.11"/>
</g>
<!-- Node173 -->
<g id="node45" class="node">
<title>Node173</title>
<g id="a_node45"><a xlink:href="../../d7/da4/classnap_1_1_uniform.html" target="_top" xlink:title="Uniform">
<polygon fill="white" stroke="red" points="211.5,-152.5 211.5,-171.5 261.5,-171.5 261.5,-152.5 211.5,-152.5"/>
<text text-anchor="middle" x="236.5" y="-159.5" font-family="Helvetica,sans-Serif" font-size="10.00">Uniform</text>
</a>
</g>
</g>
<!-- Node0&#45;&gt;Node173 -->
<g id="edge44" class="edge">
<title>Node0&#45;&gt;Node173</title>
<path fill="none" stroke="midnightblue" d="M111.57,-845.09C114.78,-738.06 132.13,-234.02 175,-181 183.72,-170.21 198.51,-165.44 211.29,-163.38"/>
<polygon fill="midnightblue" stroke="midnightblue" points="108.07,-845.07 111.27,-855.16 115.06,-845.27 108.07,-845.07"/>
</g>
<!-- Node180 -->
<g id="node46" class="node">
<title>Node180</title>
<g id="a_node46"><a xlink:href="../../dd/dbc/classnap_1_1_video_file.html" target="_top" xlink:title="VideoFile">
<polygon fill="white" stroke="black" points="208,-114.5 208,-133.5 265,-133.5 265,-114.5 208,-114.5"/>
<text text-anchor="middle" x="236.5" y="-121.5" font-family="Helvetica,sans-Serif" font-size="10.00">VideoFile</text>
</a>
</g>
</g>
<!-- Node0&#45;&gt;Node180 -->
<g id="edge45" class="edge">
<title>Node0&#45;&gt;Node180</title>
<path fill="none" stroke="midnightblue" d="M111.46,-845.38C114.18,-735.48 129.72,-199.29 175,-143 182.94,-133.14 195.95,-128.3 207.88,-125.96"/>
<polygon fill="midnightblue" stroke="midnightblue" points="107.96,-845.32 111.21,-855.4 114.95,-845.49 107.96,-845.32"/>
</g>
<!-- Node181 -->
<g id="node47" class="node">
<title>Node181</title>
<g id="a_node47"><a xlink:href="../../d6/d44/classnap_1_1_web_socket_interface.html" target="_top" xlink:title="WebSocketInterface">
<polygon fill="white" stroke="red" points="184.5,-76.5 184.5,-95.5 288.5,-95.5 288.5,-76.5 184.5,-76.5"/>
<text text-anchor="middle" x="236.5" y="-83.5" font-family="Helvetica,sans-Serif" font-size="10.00">WebSocketInterface</text>
</a>
</g>
</g>
<!-- Node0&#45;&gt;Node181 -->
<g id="edge46" class="edge">
<title>Node0&#45;&gt;Node181</title>
<path fill="none" stroke="midnightblue" d="M111.36,-845.42C113.63,-732.21 127.34,-164.52 175,-105 178.1,-101.13 181.97,-98.04 186.26,-95.56"/>
<polygon fill="midnightblue" stroke="midnightblue" points="107.86,-845.37 111.17,-855.43 114.86,-845.5 107.86,-845.37"/>
</g>
<!-- Node189 -->
<g id="node48" class="node">
<title>Node189</title>
<g id="a_node48"><a xlink:href="../../df/d49/classnap_1_1_web_socket_ticket.html" target="_top" xlink:title="WebSocketTicket">
<polygon fill="white" stroke="black" points="189.5,-38.5 189.5,-57.5 283.5,-57.5 283.5,-38.5 189.5,-38.5"/>
<text text-anchor="middle" x="236.5" y="-45.5" font-family="Helvetica,sans-Serif" font-size="10.00">WebSocketTicket</text>
</a>
</g>
</g>
<!-- Node0&#45;&gt;Node189 -->
<g id="edge47" class="edge">
<title>Node0&#45;&gt;Node189</title>
<path fill="none" stroke="midnightblue" d="M111.28,-845.17C113.13,-728.04 124.99,-129.7 175,-67 178.84,-62.18 183.9,-58.56 189.46,-55.84"/>
<polygon fill="midnightblue" stroke="midnightblue" points="107.78,-845.18 111.13,-855.23 114.78,-845.29 107.78,-845.18"/>
</g>
<!-- Node190 -->
<g id="node49" class="node">
<title>Node190</title>
<g id="a_node49"><a xlink:href="../../d0/dc5/classnap_1_1_window.html" target="_top" xlink:title="Window">
<polygon fill="white" stroke="red" points="211,-0.5 211,-19.5 262,-19.5 262,-0.5 211,-0.5"/>
<text text-anchor="middle" x="236.5" y="-7.5" font-family="Helvetica,sans-Serif" font-size="10.00">Window</text>
</a>
</g>
</g>
<!-- Node0&#45;&gt;Node190 -->
<g id="edge48" class="edge">
<title>Node0&#45;&gt;Node190</title>
<path fill="none" stroke="midnightblue" d="M111.21,-844.99C112.65,-724.17 122.63,-94.9 175,-29 183.56,-18.23 198.19,-13.44 210.91,-11.37"/>
<polygon fill="midnightblue" stroke="midnightblue" points="107.71,-845.29 111.09,-855.33 114.71,-845.37 107.71,-845.29"/>
</g>
<!-- Node1 -->
<g id="node2" class="node">
<title>Node1</title>
<g id="a_node2"><a xlink:href="../../de/d01/classnap_1_1rtti_1_1_object.html" target="_top" xlink:title="Object">
<polygon fill="white" stroke="black" points="0,-855.5 0,-874.5 45,-874.5 45,-855.5 0,-855.5"/>
<text text-anchor="middle" x="22.5" y="-862.5" font-family="Helvetica,sans-Serif" font-size="10.00">Object</text>
</a>
</g>
</g>
<!-- Node1&#45;&gt;Node0 -->
<g id="edge1" class="edge">
<title>Node1&#45;&gt;Node0</title>
<path fill="none" stroke="midnightblue" d="M55.31,-865C63.73,-865 72.76,-865 80.96,-865"/>
<polygon fill="midnightblue" stroke="midnightblue" points="55.08,-861.5 45.08,-865 55.08,-868.5 55.08,-861.5"/>
</g>
<!-- Node3 -->
<g id="node4" class="node">
<title>Node3</title>
<g id="a_node4"><a xlink:href="../../da/d8d/classnap_1_1_a_p_i_value.html" target="_top" xlink:title="APIValue\&lt; T \&gt;">
<polygon fill="white" stroke="black" points="334,-1710.5 334,-1729.5 414,-1729.5 414,-1710.5 334,-1710.5"/>
<text text-anchor="middle" x="374" y="-1717.5" font-family="Helvetica,sans-Serif" font-size="10.00">APIValue&lt; T &gt;</text>
</a>
</g>
</g>
<!-- Node2&#45;&gt;Node3 -->
<g id="edge3" class="edge">
<title>Node2&#45;&gt;Node3</title>
<path fill="none" stroke="midnightblue" d="M287.11,-1720C302.53,-1720 319.3,-1720 333.9,-1720"/>
<polygon fill="midnightblue" stroke="midnightblue" points="286.69,-1716.5 276.69,-1720 286.69,-1723.5 286.69,-1716.5"/>
</g>
</g>
</svg>
