<?xml version="1.0" encoding="UTF-8" standalone="no"?>
<!DOCTYPE svg PUBLIC "-//W3C//DTD SVG 1.1//EN"
 "http://www.w3.org/Graphics/SVG/1.1/DTD/svg11.dtd">
<!-- Generated by graphviz version 3.0.0 (20220226.1711)
 -->
<!-- Title: RenderableComponent Pages: 1 -->
<svg width="758pt" height="180pt"
 viewBox="0.00 0.00 758.00 180.00" xmlns="http://www.w3.org/2000/svg" xmlns:xlink="http://www.w3.org/1999/xlink">
<g id="graph0" class="graph" transform="scale(1 1) rotate(0) translate(4 176)">
<title>RenderableComponent</title>
<polygon fill="white" stroke="transparent" points="-4,4 -4,-176 754,-176 754,4 -4,4"/>
<!-- Node0 -->
<g id="node1" class="node">
<title>Node0</title>
<polygon fill="#bfbfbf" stroke="black" points="277,-76.5 277,-95.5 392,-95.5 392,-76.5 277,-76.5"/>
<text text-anchor="middle" x="334.5" y="-83.5" font-family="Helvetica,sans-Serif" font-size="10.00">RenderableComponent</text>
</g>
<!-- Node4 -->
<g id="node5" class="node">
<title>Node4</title>
<g id="a_node5"><a xlink:href="../../d4/d61/classnap_1_1_renderable_mesh_component.html" target="_top" xlink:title="RenderableMeshComponent">
<polygon fill="white" stroke="black" points="428.5,-152.5 428.5,-171.5 567.5,-171.5 567.5,-152.5 428.5,-152.5"/>
<text text-anchor="middle" x="498" y="-159.5" font-family="Helvetica,sans-Serif" font-size="10.00">RenderableMeshComponent</text>
</a>
</g>
</g>
<!-- Node0&#45;&gt;Node4 -->
<g id="edge4" class="edge">
<title>Node0&#45;&gt;Node4</title>
<path fill="none" stroke="midnightblue" d="M356.96,-101.67C375.11,-114.31 402.22,-131.78 428,-143 436.43,-146.67 445.75,-149.8 454.75,-152.41"/>
<polygon fill="midnightblue" stroke="midnightblue" points="358.51,-98.48 348.33,-95.55 354.46,-104.19 358.51,-98.48"/>
</g>
<!-- Node5 -->
<g id="node6" class="node">
<title>Node5</title>
<g id="a_node6"><a xlink:href="../../d6/d4f/classnap_1_1_renderable_text_component.html" target="_top" xlink:title="RenderableTextComponent">
<polygon fill="white" stroke="black" points="431,-114.5 431,-133.5 565,-133.5 565,-114.5 431,-114.5"/>
<text text-anchor="middle" x="498" y="-121.5" font-family="Helvetica,sans-Serif" font-size="10.00">RenderableTextComponent</text>
</a>
</g>
</g>
<!-- Node0&#45;&gt;Node5 -->
<g id="edge5" class="edge">
<title>Node0&#45;&gt;Node5</title>
<path fill="none" stroke="midnightblue" d="M386.06,-97.9C408.76,-103.24 435.18,-109.45 456.54,-114.48"/>
<polygon fill="midnightblue" stroke="midnightblue" points="386.79,-94.47 376.25,-95.59 385.19,-101.29 386.79,-94.47"/>
</g>
<!-- Node8 -->
<g id="node9" class="node">
<title>Node8</title>
<g id="a_node9"><a xlink:href="../../d8/dc2/classnap_1_1_render_gnomon_component.html" target="_top" xlink:title="RenderGnomonComponent">
<polygon fill="white" stroke="black" points="431,-76.5 431,-95.5 565,-95.5 565,-76.5 431,-76.5"/>
<text text-anchor="middle" x="498" y="-83.5" font-family="Helvetica,sans-Serif" font-size="10.00">RenderGnomonComponent</text>
</a>
</g>
</g>
<!-- Node0&#45;&gt;Node8 -->
<g id="edge8" class="edge">
<title>Node0&#45;&gt;Node8</title>
<path fill="none" stroke="midnightblue" d="M402.5,-86C411.89,-86 421.54,-86 430.91,-86"/>
<polygon fill="midnightblue" stroke="midnightblue" points="402.44,-82.5 392.44,-86 402.44,-89.5 402.44,-82.5"/>
</g>
<!-- Node9 -->
<g id="node10" class="node">
<title>Node9</title>
<g id="a_node10"><a xlink:href="../../dc/d0b/classnap_1_1_render_to_texture_component.html" target="_top" xlink:title="RenderToTextureComponent">
<polygon fill="white" stroke="black" points="428,-38.5 428,-57.5 568,-57.5 568,-38.5 428,-38.5"/>
<text text-anchor="middle" x="498" y="-45.5" font-family="Helvetica,sans-Serif" font-size="10.00">RenderToTextureComponent</text>
</a>
</g>
</g>
<!-- Node0&#45;&gt;Node9 -->
<g id="edge9" class="edge">
<title>Node0&#45;&gt;Node9</title>
<path fill="none" stroke="midnightblue" d="M386.06,-74.1C408.76,-68.76 435.18,-62.55 456.54,-57.52"/>
<polygon fill="midnightblue" stroke="midnightblue" points="385.19,-70.71 376.25,-76.41 386.79,-77.53 385.19,-70.71"/>
</g>
<!-- Node10 -->
<g id="node11" class="node">
<title>Node10</title>
<g id="a_node11"><a xlink:href="../../d1/d5d/classnap_1_1_render_video_component.html" target="_top" xlink:title="RenderVideoComponent">
<polygon fill="white" stroke="black" points="437,-0.5 437,-19.5 559,-19.5 559,-0.5 437,-0.5"/>
<text text-anchor="middle" x="498" y="-7.5" font-family="Helvetica,sans-Serif" font-size="10.00">RenderVideoComponent</text>
</a>
</g>
</g>
<!-- Node0&#45;&gt;Node10 -->
<g id="edge10" class="edge">
<title>Node0&#45;&gt;Node10</title>
<path fill="none" stroke="midnightblue" d="M356.96,-70.33C375.11,-57.69 402.22,-40.22 428,-29 436.43,-25.33 445.75,-22.2 454.75,-19.59"/>
<polygon fill="midnightblue" stroke="midnightblue" points="354.46,-67.81 348.33,-76.45 358.51,-73.52 354.46,-67.81"/>
</g>
<!-- Node1 -->
<g id="node2" class="node">
<title>Node1</title>
<g id="a_node2"><a xlink:href="../../db/d6b/classnap_1_1_component.html" target="_top" xlink:title="Component">
<polygon fill="white" stroke="black" points="175,-76.5 175,-95.5 241,-95.5 241,-76.5 175,-76.5"/>
<text text-anchor="middle" x="208" y="-83.5" font-family="Helvetica,sans-Serif" font-size="10.00">Component</text>
</a>
</g>
</g>
<!-- Node1&#45;&gt;Node0 -->
<g id="edge1" class="edge">
<title>Node1&#45;&gt;Node0</title>
<path fill="none" stroke="midnightblue" d="M251.2,-86C259.47,-86 268.26,-86 276.91,-86"/>
<polygon fill="midnightblue" stroke="midnightblue" points="251.06,-82.5 241.06,-86 251.06,-89.5 251.06,-82.5"/>
</g>
<!-- Node2 -->
<g id="node3" class="node">
<title>Node2</title>
<g id="a_node3"><a xlink:href="../../d9/dea/classnap_1_1_resource.html" target="_top" xlink:title="Resource">
<polygon fill="white" stroke="black" points="81,-76.5 81,-95.5 139,-95.5 139,-76.5 81,-76.5"/>
<text text-anchor="middle" x="110" y="-83.5" font-family="Helvetica,sans-Serif" font-size="10.00">Resource</text>
</a>
</g>
</g>
<!-- Node2&#45;&gt;Node1 -->
<g id="edge2" class="edge">
<title>Node2&#45;&gt;Node1</title>
<path fill="none" stroke="midnightblue" d="M149.09,-86C157.57,-86 166.49,-86 174.71,-86"/>
<polygon fill="midnightblue" stroke="midnightblue" points="149.03,-82.5 139.03,-86 149.03,-89.5 149.03,-82.5"/>
</g>
<!-- Node3 -->
<g id="node4" class="node">
<title>Node3</title>
<g id="a_node4"><a xlink:href="../../de/d01/classnap_1_1rtti_1_1_object.html" target="_top" xlink:title="Object">
<polygon fill="white" stroke="black" points="0,-76.5 0,-95.5 45,-95.5 45,-76.5 0,-76.5"/>
<text text-anchor="middle" x="22.5" y="-83.5" font-family="Helvetica,sans-Serif" font-size="10.00">Object</text>
</a>
</g>
</g>
<!-- Node3&#45;&gt;Node2 -->
<g id="edge3" class="edge">
<title>Node3&#45;&gt;Node2</title>
<path fill="none" stroke="midnightblue" d="M55.31,-86C63.73,-86 72.76,-86 80.96,-86"/>
<polygon fill="midnightblue" stroke="midnightblue" points="55.08,-82.5 45.08,-86 55.08,-89.5 55.08,-82.5"/>
</g>
<!-- Node6 -->
<g id="node7" class="node">
<title>Node6</title>
<g id="a_node7"><a xlink:href="../../dc/d02/classnap_1_1_renderable2_d_text_component.html" target="_top" xlink:title="Renderable2DTextComponent">
<polygon fill="white" stroke="black" points="604,-133.5 604,-152.5 750,-152.5 750,-133.5 604,-133.5"/>
<text text-anchor="middle" x="677" y="-140.5" font-family="Helvetica,sans-Serif" font-size="10.00">Renderable2DTextComponent</text>
</a>
</g>
</g>
<!-- Node5&#45;&gt;Node6 -->
<g id="edge6" class="edge">
<title>Node5&#45;&gt;Node6</title>
<path fill="none" stroke="midnightblue" d="M575.37,-132.2C584.87,-133.22 594.56,-134.26 603.99,-135.27"/>
<polygon fill="midnightblue" stroke="midnightblue" points="575.48,-128.69 565.16,-131.1 574.73,-135.65 575.48,-128.69"/>
</g>
<!-- Node7 -->
<g id="node8" class="node">
<title>Node7</title>
<g id="a_node8"><a xlink:href="../../d2/d4e/classnap_1_1_renderable3_d_text_component.html" target="_top" xlink:title="Renderable3DTextComponent">
<polygon fill="white" stroke="black" points="604,-95.5 604,-114.5 750,-114.5 750,-95.5 604,-95.5"/>
<text text-anchor="middle" x="677" y="-102.5" font-family="Helvetica,sans-Serif" font-size="10.00">Renderable3DTextComponent</text>
</a>
</g>
</g>
<!-- Node5&#45;&gt;Node7 -->
<g id="edge7" class="edge">
<title>Node5&#45;&gt;Node7</title>
<path fill="none" stroke="midnightblue" d="M575.37,-115.8C584.87,-114.78 594.56,-113.74 603.99,-112.73"/>
<polygon fill="midnightblue" stroke="midnightblue" points="574.73,-112.35 565.16,-116.9 575.48,-119.31 574.73,-112.35"/>
</g>
</g>
</svg>
