<?xml version="1.0" encoding="UTF-8" standalone="no"?>
<!DOCTYPE svg PUBLIC "-//W3C//DTD SVG 1.1//EN"
 "http://www.w3.org/Graphics/SVG/1.1/DTD/svg11.dtd">
<!-- Generated by graphviz version 2.48.0 (20210717.1556)
 -->
<!-- Title: RenderableComponent Pages: 1 -->
<svg width="758pt" height="218pt"
 viewBox="0.00 0.00 758.00 218.00" xmlns="http://www.w3.org/2000/svg" xmlns:xlink="http://www.w3.org/1999/xlink">
<g id="graph0" class="graph" transform="scale(1 1) rotate(0) translate(4 214)">
<title>RenderableComponent</title>
<polygon fill="white" stroke="transparent" points="-4,4 -4,-214 754,-214 754,4 -4,4"/>
<!-- Node0 -->
<g id="node1" class="node">
<title>Node0</title>
<polygon fill="#bfbfbf" stroke="black" points="277,-95.5 277,-114.5 392,-114.5 392,-95.5 277,-95.5"/>
<text text-anchor="middle" x="334.5" y="-102.5" font-family="Helvetica,sans-Serif" font-size="10.00">RenderableComponent</text>
</g>
<!-- Node4 -->
<g id="node5" class="node">
<title>Node4</title>
<g id="a_node5"><a xlink:href="../../d4/d61/classnap_1_1_renderable_mesh_component.html" target="_top" xlink:title="RenderableMeshComponent">
<polygon fill="white" stroke="black" points="428.5,-190.5 428.5,-209.5 567.5,-209.5 567.5,-190.5 428.5,-190.5"/>
<text text-anchor="middle" x="498" y="-197.5" font-family="Helvetica,sans-Serif" font-size="10.00">RenderableMeshComponent</text>
</a>
</g>
</g>
<!-- Node0&#45;&gt;Node4 -->
<g id="edge4" class="edge">
<title>Node0&#45;&gt;Node4</title>
<path fill="none" stroke="midnightblue" d="M351.61,-121.9C368.95,-139.13 398.08,-165.49 428,-181 435.39,-184.83 443.64,-187.96 451.79,-190.49"/>
<polygon fill="midnightblue" stroke="midnightblue" points="354.03,-119.36 344.52,-114.69 349.04,-124.27 354.03,-119.36"/>
</g>
<!-- Node5 -->
<g id="node6" class="node">
<title>Node5</title>
<g id="a_node6"><a xlink:href="../../d6/d4f/classnap_1_1_renderable_text_component.html" target="_top" xlink:title="RenderableTextComponent">
<polygon fill="white" stroke="black" points="431,-152.5 431,-171.5 565,-171.5 565,-152.5 431,-152.5"/>
<text text-anchor="middle" x="498" y="-159.5" font-family="Helvetica,sans-Serif" font-size="10.00">RenderableTextComponent</text>
</a>
</g>
</g>
<!-- Node0&#45;&gt;Node5 -->
<g id="edge5" class="edge">
<title>Node0&#45;&gt;Node5</title>
<path fill="none" stroke="midnightblue" d="M366.23,-118.72C384.06,-126.4 407.07,-135.85 428,-143 437.99,-146.41 448.96,-149.66 459.15,-152.46"/>
<polygon fill="midnightblue" stroke="midnightblue" points="367.46,-115.44 356.9,-114.66 364.67,-121.86 367.46,-115.44"/>
</g>
<!-- Node8 -->
<g id="node9" class="node">
<title>Node8</title>
<g id="a_node9"><a xlink:href="../../de/d8e/classnap_1_1_render_bloom_component.html" target="_top" xlink:title="RenderBloomComponent">
<polygon fill="white" stroke="black" points="435.5,-114.5 435.5,-133.5 560.5,-133.5 560.5,-114.5 435.5,-114.5"/>
<text text-anchor="middle" x="498" y="-121.5" font-family="Helvetica,sans-Serif" font-size="10.00">RenderBloomComponent</text>
</a>
</g>
</g>
<!-- Node0&#45;&gt;Node8 -->
<g id="edge8" class="edge">
<title>Node0&#45;&gt;Node8</title>
<path fill="none" stroke="midnightblue" d="M402.69,-112.9C413.52,-114.18 424.68,-115.49 435.36,-116.75"/>
<polygon fill="midnightblue" stroke="midnightblue" points="402.78,-109.39 392.44,-111.7 401.96,-116.34 402.78,-109.39"/>
</g>
<!-- Node9 -->
<g id="node10" class="node">
<title>Node9</title>
<g id="a_node10"><a xlink:href="../../d8/dc2/classnap_1_1_render_gnomon_component.html" target="_top" xlink:title="RenderGnomonComponent">
<polygon fill="white" stroke="black" points="431,-76.5 431,-95.5 565,-95.5 565,-76.5 431,-76.5"/>
<text text-anchor="middle" x="498" y="-83.5" font-family="Helvetica,sans-Serif" font-size="10.00">RenderGnomonComponent</text>
</a>
</g>
</g>
<!-- Node0&#45;&gt;Node9 -->
<g id="edge9" class="edge">
<title>Node0&#45;&gt;Node9</title>
<path fill="none" stroke="midnightblue" d="M402.5,-97.12C411.89,-96.01 421.54,-94.88 430.91,-93.77"/>
<polygon fill="midnightblue" stroke="midnightblue" points="401.96,-93.66 392.44,-98.3 402.78,-100.61 401.96,-93.66"/>
</g>
<!-- Node10 -->
<g id="node11" class="node">
<title>Node10</title>
<g id="a_node11"><a xlink:href="../../dc/d0b/classnap_1_1_render_to_texture_component.html" target="_top" xlink:title="RenderToTextureComponent">
<polygon fill="white" stroke="black" points="428,-38.5 428,-57.5 568,-57.5 568,-38.5 428,-38.5"/>
<text text-anchor="middle" x="498" y="-45.5" font-family="Helvetica,sans-Serif" font-size="10.00">RenderToTextureComponent</text>
</a>
</g>
</g>
<!-- Node0&#45;&gt;Node10 -->
<g id="edge10" class="edge">
<title>Node0&#45;&gt;Node10</title>
<path fill="none" stroke="midnightblue" d="M366.23,-91.28C384.06,-83.6 407.07,-74.15 428,-67 437.99,-63.59 448.96,-60.34 459.15,-57.54"/>
<polygon fill="midnightblue" stroke="midnightblue" points="364.67,-88.14 356.9,-95.34 367.46,-94.56 364.67,-88.14"/>
</g>
<!-- Node11 -->
<g id="node12" class="node">
<title>Node11</title>
<g id="a_node12"><a xlink:href="../../d1/d5d/classnap_1_1_render_video_component.html" target="_top" xlink:title="RenderVideoComponent">
<polygon fill="white" stroke="black" points="437,-0.5 437,-19.5 559,-19.5 559,-0.5 437,-0.5"/>
<text text-anchor="middle" x="498" y="-7.5" font-family="Helvetica,sans-Serif" font-size="10.00">RenderVideoComponent</text>
</a>
</g>
</g>
<!-- Node0&#45;&gt;Node11 -->
<g id="edge11" class="edge">
<title>Node0&#45;&gt;Node11</title>
<path fill="none" stroke="midnightblue" d="M351.61,-88.1C368.95,-70.87 398.08,-44.51 428,-29 435.39,-25.17 443.64,-22.04 451.79,-19.51"/>
<polygon fill="midnightblue" stroke="midnightblue" points="349.04,-85.73 344.52,-95.31 354.03,-90.64 349.04,-85.73"/>
</g>
<!-- Node1 -->
<g id="node2" class="node">
<title>Node1</title>
<g id="a_node2"><a xlink:href="../../db/d6b/classnap_1_1_component.html" target="_top" xlink:title="Component">
<polygon fill="white" stroke="black" points="175,-95.5 175,-114.5 241,-114.5 241,-95.5 175,-95.5"/>
<text text-anchor="middle" x="208" y="-102.5" font-family="Helvetica,sans-Serif" font-size="10.00">Component</text>
</a>
</g>
</g>
<!-- Node1&#45;&gt;Node0 -->
<g id="edge1" class="edge">
<title>Node1&#45;&gt;Node0</title>
<path fill="none" stroke="midnightblue" d="M251.2,-105C259.47,-105 268.26,-105 276.91,-105"/>
<polygon fill="midnightblue" stroke="midnightblue" points="251.06,-101.5 241.06,-105 251.06,-108.5 251.06,-101.5"/>
</g>
<!-- Node2 -->
<g id="node3" class="node">
<title>Node2</title>
<g id="a_node3"><a xlink:href="../../d9/dea/classnap_1_1_resource.html" target="_top" xlink:title="Resource">
<polygon fill="white" stroke="black" points="81,-95.5 81,-114.5 139,-114.5 139,-95.5 81,-95.5"/>
<text text-anchor="middle" x="110" y="-102.5" font-family="Helvetica,sans-Serif" font-size="10.00">Resource</text>
</a>
</g>
</g>
<!-- Node2&#45;&gt;Node1 -->
<g id="edge2" class="edge">
<title>Node2&#45;&gt;Node1</title>
<path fill="none" stroke="midnightblue" d="M149.09,-105C157.57,-105 166.49,-105 174.71,-105"/>
<polygon fill="midnightblue" stroke="midnightblue" points="149.03,-101.5 139.03,-105 149.03,-108.5 149.03,-101.5"/>
</g>
<!-- Node3 -->
<g id="node4" class="node">
<title>Node3</title>
<g id="a_node4"><a xlink:href="../../de/d01/classnap_1_1rtti_1_1_object.html" target="_top" xlink:title="Object">
<polygon fill="white" stroke="black" points="0,-95.5 0,-114.5 45,-114.5 45,-95.5 0,-95.5"/>
<text text-anchor="middle" x="22.5" y="-102.5" font-family="Helvetica,sans-Serif" font-size="10.00">Object</text>
</a>
</g>
</g>
<!-- Node3&#45;&gt;Node2 -->
<g id="edge3" class="edge">
<title>Node3&#45;&gt;Node2</title>
<path fill="none" stroke="midnightblue" d="M55.31,-105C63.73,-105 72.76,-105 80.96,-105"/>
<polygon fill="midnightblue" stroke="midnightblue" points="55.08,-101.5 45.08,-105 55.08,-108.5 55.08,-101.5"/>
</g>
<!-- Node6 -->
<g id="node7" class="node">
<title>Node6</title>
<g id="a_node7"><a xlink:href="../../dc/d02/classnap_1_1_renderable2_d_text_component.html" target="_top" xlink:title="Renderable2DTextComponent">
<polygon fill="white" stroke="black" points="604,-171.5 604,-190.5 750,-190.5 750,-171.5 604,-171.5"/>
<text text-anchor="middle" x="677" y="-178.5" font-family="Helvetica,sans-Serif" font-size="10.00">Renderable2DTextComponent</text>
</a>
</g>
</g>
<!-- Node5&#45;&gt;Node6 -->
<g id="edge6" class="edge">
<title>Node5&#45;&gt;Node6</title>
<path fill="none" stroke="midnightblue" d="M575.37,-170.2C584.87,-171.22 594.56,-172.26 603.99,-173.27"/>
<polygon fill="midnightblue" stroke="midnightblue" points="575.48,-166.69 565.16,-169.1 574.73,-173.65 575.48,-166.69"/>
</g>
<!-- Node7 -->
<g id="node8" class="node">
<title>Node7</title>
<g id="a_node8"><a xlink:href="../../d2/d4e/classnap_1_1_renderable3_d_text_component.html" target="_top" xlink:title="Renderable3DTextComponent">
<polygon fill="white" stroke="black" points="604,-133.5 604,-152.5 750,-152.5 750,-133.5 604,-133.5"/>
<text text-anchor="middle" x="677" y="-140.5" font-family="Helvetica,sans-Serif" font-size="10.00">Renderable3DTextComponent</text>
</a>
</g>
</g>
<!-- Node5&#45;&gt;Node7 -->
<g id="edge7" class="edge">
<title>Node5&#45;&gt;Node7</title>
<path fill="none" stroke="midnightblue" d="M575.37,-153.8C584.87,-152.78 594.56,-151.74 603.99,-150.73"/>
<polygon fill="midnightblue" stroke="midnightblue" points="574.73,-150.35 565.16,-154.9 575.48,-157.31 574.73,-150.35"/>
</g>
</g>
</svg>
