<?xml version="1.0" encoding="UTF-8" standalone="no"?>
<!DOCTYPE svg PUBLIC "-//W3C//DTD SVG 1.1//EN"
 "http://www.w3.org/Graphics/SVG/1.1/DTD/svg11.dtd">
<!-- Generated by graphviz version 2.48.0 (20210717.1556)
 -->
<!-- Title: Rectangle Pages: 1 -->
<svg width="68pt" height="252pt"
 viewBox="0.00 0.00 68.00 252.00" xmlns="http://www.w3.org/2000/svg" xmlns:xlink="http://www.w3.org/1999/xlink">
<g id="graph0" class="graph" transform="scale(1 1) rotate(0) translate(4 248)">
<title>Rectangle</title>
<polygon fill="white" stroke="transparent" points="-4,4 -4,-248 64,-248 64,4 -4,4"/>
<!-- Node0 -->
<g id="node1" class="node">
<title>Node0</title>
<polygon fill="#bfbfbf" stroke="black" points="0,-0.5 0,-19.5 60,-19.5 60,-0.5 0,-0.5"/>
<text text-anchor="middle" x="30" y="-7.5" font-family="Helvetica,sans-Serif" font-size="10.00">Rectangle</text>
</g>
<!-- Node1 -->
<g id="node2" class="node">
<title>Node1</title>
<g id="a_node2"><a xlink:href="../../db/d34/classnap_1_1_poly_line.html" target="_top" xlink:title="PolyLine">
<polygon fill="white" stroke="black" points="3,-56.5 3,-75.5 57,-75.5 57,-56.5 3,-56.5"/>
<text text-anchor="middle" x="30" y="-63.5" font-family="Helvetica,sans-Serif" font-size="10.00">PolyLine</text>
</a>
</g>
</g>
<!-- Node1&#45;&gt;Node0 -->
<g id="edge1" class="edge">
<title>Node1&#45;&gt;Node0</title>
<path fill="none" stroke="midnightblue" d="M30,-45.8C30,-36.91 30,-26.78 30,-19.75"/>
<polygon fill="midnightblue" stroke="midnightblue" points="26.5,-46.08 30,-56.08 33.5,-46.08 26.5,-46.08"/>
</g>
<!-- Node2 -->
<g id="node3" class="node">
<title>Node2</title>
<g id="a_node3"><a xlink:href="../../dd/dac/classnap_1_1_i_mesh.html" target="_top" xlink:title="IMesh">
<polygon fill="white" stroke="black" points="8.5,-112.5 8.5,-131.5 51.5,-131.5 51.5,-112.5 8.5,-112.5"/>
<text text-anchor="middle" x="30" y="-119.5" font-family="Helvetica,sans-Serif" font-size="10.00">IMesh</text>
</a>
</g>
</g>
<!-- Node2&#45;&gt;Node1 -->
<g id="edge2" class="edge">
<title>Node2&#45;&gt;Node1</title>
<path fill="none" stroke="midnightblue" d="M30,-101.8C30,-92.91 30,-82.78 30,-75.75"/>
<polygon fill="midnightblue" stroke="midnightblue" points="26.5,-102.08 30,-112.08 33.5,-102.08 26.5,-102.08"/>
</g>
<!-- Node3 -->
<g id="node4" class="node">
<title>Node3</title>
<g id="a_node4"><a xlink:href="../../d9/dea/classnap_1_1_resource.html" target="_top" xlink:title="Resource">
<polygon fill="white" stroke="black" points="1,-168.5 1,-187.5 59,-187.5 59,-168.5 1,-168.5"/>
<text text-anchor="middle" x="30" y="-175.5" font-family="Helvetica,sans-Serif" font-size="10.00">Resource</text>
</a>
</g>
</g>
<!-- Node3&#45;&gt;Node2 -->
<g id="edge3" class="edge">
<title>Node3&#45;&gt;Node2</title>
<path fill="none" stroke="midnightblue" d="M30,-157.8C30,-148.91 30,-138.78 30,-131.75"/>
<polygon fill="midnightblue" stroke="midnightblue" points="26.5,-158.08 30,-168.08 33.5,-158.08 26.5,-158.08"/>
</g>
<!-- Node4 -->
<g id="node5" class="node">
<title>Node4</title>
<g id="a_node5"><a xlink:href="../../de/d01/classnap_1_1rtti_1_1_object.html" target="_top" xlink:title="Object">
<polygon fill="white" stroke="black" points="7.5,-224.5 7.5,-243.5 52.5,-243.5 52.5,-224.5 7.5,-224.5"/>
<text text-anchor="middle" x="30" y="-231.5" font-family="Helvetica,sans-Serif" font-size="10.00">Object</text>
</a>
</g>
</g>
<!-- Node4&#45;&gt;Node3 -->
<g id="edge4" class="edge">
<title>Node4&#45;&gt;Node3</title>
<path fill="none" stroke="midnightblue" d="M30,-213.8C30,-204.91 30,-194.78 30,-187.75"/>
<polygon fill="midnightblue" stroke="midnightblue" points="26.5,-214.08 30,-224.08 33.5,-214.08 26.5,-214.08"/>
</g>
</g>
</svg>
