<?xml version="1.0" encoding="UTF-8" standalone="no"?>
<!DOCTYPE svg PUBLIC "-//W3C//DTD SVG 1.1//EN"
 "http://www.w3.org/Graphics/SVG/1.1/DTD/svg11.dtd">
<!-- Generated by graphviz version 2.48.0 (20210717.1556)
 -->
<!-- Title: OutputNode Pages: 1 -->
<svg width="154pt" height="152pt"
 viewBox="0.00 0.00 153.50 152.00" xmlns="http://www.w3.org/2000/svg" xmlns:xlink="http://www.w3.org/1999/xlink">
<g id="graph0" class="graph" transform="scale(1 1) rotate(0) translate(4 148)">
<title>OutputNode</title>
<polygon fill="white" stroke="transparent" points="-4,4 -4,-148 149.5,-148 149.5,4 -4,4"/>
<!-- Node3 -->
<g id="node1" class="node">
<title>Node3</title>
<polygon fill="#bfbfbf" stroke="black" points="28.5,-0.5 28.5,-19.5 96.5,-19.5 96.5,-0.5 28.5,-0.5"/>
<text text-anchor="middle" x="62.5" y="-7.5" font-family="Helvetica,sans-Serif" font-size="10.00">OutputNode</text>
</g>
<!-- Node4 -->
<g id="node2" class="node">
<title>Node4</title>
<g id="a_node2"><a xlink:href="../../dc/d0d/classnap_1_1audio_1_1_node.html" target="_top" xlink:title="Node">
<polygon fill="white" stroke="black" points="12,-67.5 12,-86.5 51,-86.5 51,-67.5 12,-67.5"/>
<text text-anchor="middle" x="31.5" y="-74.5" font-family="Helvetica,sans-Serif" font-size="10.00">Node</text>
</a>
</g>
</g>
<!-- Node4&#45;&gt;Node3 -->
<g id="edge1" class="edge">
<title>Node4&#45;&gt;Node3</title>
<path fill="none" stroke="midnightblue" d="M40.01,-58.16C45.99,-45.63 53.72,-29.41 58.39,-19.63"/>
<polygon fill="midnightblue" stroke="midnightblue" points="36.83,-56.7 35.68,-67.23 43.14,-59.71 36.83,-56.7"/>
</g>
<!-- Node5 -->
<g id="node3" class="node">
<title>Node5</title>
<g id="a_node3"><a xlink:href="../../d4/d2d/classnap_1_1audio_1_1_process.html" target="_top" xlink:title="Process">
<polygon fill="white" stroke="black" points="0,-124.5 0,-143.5 53,-143.5 53,-124.5 0,-124.5"/>
<text text-anchor="middle" x="26.5" y="-131.5" font-family="Helvetica,sans-Serif" font-size="10.00">Process</text>
</a>
</g>
</g>
<!-- Node5&#45;&gt;Node4 -->
<g id="edge2" class="edge">
<title>Node5&#45;&gt;Node4</title>
<path fill="none" stroke="midnightblue" d="M28.19,-114.42C29.04,-105.05 30.03,-94.14 30.71,-86.71"/>
<polygon fill="midnightblue" stroke="midnightblue" points="24.7,-114.13 27.28,-124.41 31.67,-114.76 24.7,-114.13"/>
</g>
<!-- Node6 -->
<g id="node4" class="node">
<title>Node6</title>
<g id="a_node4"><a xlink:href="../../d4/dd5/classnap_1_1audio_1_1_input_pin.html" target="_top" xlink:title="InputPin">
<polygon fill="white" stroke="black" points="78.5,-67.5 78.5,-86.5 130.5,-86.5 130.5,-67.5 78.5,-67.5"/>
<text text-anchor="middle" x="104.5" y="-74.5" font-family="Helvetica,sans-Serif" font-size="10.00">InputPin</text>
</a>
</g>
</g>
<!-- Node6&#45;&gt;Node3 -->
<g id="edge3" class="edge">
<title>Node6&#45;&gt;Node3</title>
<path fill="none" stroke="#9a32cd" stroke-dasharray="5,2" d="M93.21,-58.53C85.08,-45.95 74.46,-29.51 68.07,-19.63"/>
<polygon fill="#9a32cd" stroke="#9a32cd" points="90.47,-60.73 98.84,-67.23 96.35,-56.94 90.47,-60.73"/>
<text text-anchor="middle" x="110.5" y="-41" font-family="Helvetica,sans-Serif" font-size="10.00"> audioInput</text>
</g>
<!-- Node7 -->
<g id="node5" class="node">
<title>Node7</title>
<g id="a_node5"><a xlink:href="../../d4/dc6/classnap_1_1audio_1_1_input_pin_base.html" target="_top" xlink:title="InputPinBase">
<polygon fill="white" stroke="black" points="71.5,-124.5 71.5,-143.5 145.5,-143.5 145.5,-124.5 71.5,-124.5"/>
<text text-anchor="middle" x="108.5" y="-131.5" font-family="Helvetica,sans-Serif" font-size="10.00">InputPinBase</text>
</a>
</g>
</g>
<!-- Node7&#45;&gt;Node6 -->
<g id="edge4" class="edge">
<title>Node7&#45;&gt;Node6</title>
<path fill="none" stroke="midnightblue" d="M107.15,-114.42C106.47,-105.05 105.67,-94.14 105.13,-86.71"/>
<polygon fill="midnightblue" stroke="midnightblue" points="103.66,-114.69 107.88,-124.41 110.64,-114.18 103.66,-114.69"/>
</g>
</g>
</svg>
