<?xml version="1.0" encoding="UTF-8" standalone="no"?>
<!DOCTYPE svg PUBLIC "-//W3C//DTD SVG 1.1//EN"
 "http://www.w3.org/Graphics/SVG/1.1/DTD/svg11.dtd">
<!-- Generated by graphviz version 2.48.0 (20210717.1556)
 -->
<!-- Title: Material Pages: 1 -->
<svg width="176pt" height="196pt"
 viewBox="0.00 0.00 175.50 196.00" xmlns="http://www.w3.org/2000/svg" xmlns:xlink="http://www.w3.org/1999/xlink">
<g id="graph0" class="graph" transform="scale(1 1) rotate(0) translate(4 192)">
<title>Material</title>
<polygon fill="white" stroke="transparent" points="-4,4 -4,-192 171.5,-192 171.5,4 -4,4"/>
<!-- Node0 -->
<g id="node1" class="node">
<title>Node0</title>
<polygon fill="#bfbfbf" stroke="black" points="49.5,-0.5 49.5,-19.5 100.5,-19.5 100.5,-0.5 49.5,-0.5"/>
<text text-anchor="middle" x="75" y="-7.5" font-family="Helvetica,sans-Serif" font-size="10.00">Material</text>
</g>
<!-- Node1 -->
<g id="node2" class="node">
<title>Node1</title>
<g id="a_node2"><a xlink:href="../../da/d69/classnap_1_1_base_material.html" target="_top" xlink:title="BaseMaterial">
<polygon fill="white" stroke="black" points="38,-56.5 38,-75.5 112,-75.5 112,-56.5 38,-56.5"/>
<text text-anchor="middle" x="75" y="-63.5" font-family="Helvetica,sans-Serif" font-size="10.00">BaseMaterial</text>
</a>
</g>
</g>
<!-- Node1&#45;&gt;Node0 -->
<g id="edge1" class="edge">
<title>Node1&#45;&gt;Node0</title>
<path fill="none" stroke="midnightblue" d="M75,-45.8C75,-36.91 75,-26.78 75,-19.75"/>
<polygon fill="midnightblue" stroke="midnightblue" points="71.5,-46.08 75,-56.08 78.5,-46.08 71.5,-46.08"/>
</g>
<!-- Node2 -->
<g id="node3" class="node">
<title>Node2</title>
<g id="a_node3"><a xlink:href="../../d9/dea/classnap_1_1_resource.html" target="_top" xlink:title="Resource">
<polygon fill="white" stroke="black" points="0,-112.5 0,-131.5 58,-131.5 58,-112.5 0,-112.5"/>
<text text-anchor="middle" x="29" y="-119.5" font-family="Helvetica,sans-Serif" font-size="10.00">Resource</text>
</a>
</g>
</g>
<!-- Node2&#45;&gt;Node1 -->
<g id="edge2" class="edge">
<title>Node2&#45;&gt;Node1</title>
<path fill="none" stroke="midnightblue" d="M43.11,-104.43C51.18,-94.97 60.96,-83.48 67.55,-75.75"/>
<polygon fill="midnightblue" stroke="midnightblue" points="40.42,-102.2 36.6,-112.08 45.75,-106.74 40.42,-102.2"/>
</g>
<!-- Node3 -->
<g id="node4" class="node">
<title>Node3</title>
<g id="a_node4"><a xlink:href="../../de/d01/classnap_1_1rtti_1_1_object.html" target="_top" xlink:title="Object">
<polygon fill="white" stroke="black" points="6.5,-168.5 6.5,-187.5 51.5,-187.5 51.5,-168.5 6.5,-168.5"/>
<text text-anchor="middle" x="29" y="-175.5" font-family="Helvetica,sans-Serif" font-size="10.00">Object</text>
</a>
</g>
</g>
<!-- Node3&#45;&gt;Node2 -->
<g id="edge3" class="edge">
<title>Node3&#45;&gt;Node2</title>
<path fill="none" stroke="midnightblue" d="M29,-157.8C29,-148.91 29,-138.78 29,-131.75"/>
<polygon fill="midnightblue" stroke="midnightblue" points="25.5,-158.08 29,-168.08 32.5,-158.08 25.5,-158.08"/>
</g>
<!-- Node4 -->
<g id="node5" class="node">
<title>Node4</title>
<g id="a_node5"><a xlink:href="../../d5/d6c/classnap_1_1_uniform_container.html" target="_top" xlink:title="UniformContainer">
<polygon fill="white" stroke="black" points="76.5,-112.5 76.5,-131.5 167.5,-131.5 167.5,-112.5 76.5,-112.5"/>
<text text-anchor="middle" x="122" y="-119.5" font-family="Helvetica,sans-Serif" font-size="10.00">UniformContainer</text>
</a>
</g>
</g>
<!-- Node4&#45;&gt;Node1 -->
<g id="edge4" class="edge">
<title>Node4&#45;&gt;Node1</title>
<path fill="none" stroke="midnightblue" d="M107.58,-104.43C99.34,-94.97 89.35,-83.48 82.62,-75.75"/>
<polygon fill="midnightblue" stroke="midnightblue" points="105.03,-106.84 114.24,-112.08 110.31,-102.24 105.03,-106.84"/>
</g>
</g>
</svg>
