<?xml version="1.0" encoding="UTF-8" standalone="no"?>
<!DOCTYPE svg PUBLIC "-//W3C//DTD SVG 1.1//EN"
 "http://www.w3.org/Graphics/SVG/1.1/DTD/svg11.dtd">
<!-- Generated by graphviz version 3.0.0 (20220226.1711)
 -->
<!-- Title: TriangleLine Pages: 1 -->
<svg width="310pt" height="287pt"
 viewBox="0.00 0.00 309.50 287.00" xmlns="http://www.w3.org/2000/svg" xmlns:xlink="http://www.w3.org/1999/xlink">
<g id="graph0" class="graph" transform="scale(1 1) rotate(0) translate(4 283)">
<title>TriangleLine</title>
<polygon fill="white" stroke="transparent" points="-4,4 -4,-283 305.5,-283 305.5,4 -4,4"/>
<!-- Node5 -->
<g id="node1" class="node">
<title>Node5</title>
<polygon fill="#bfbfbf" stroke="black" points="74,-0.5 74,-19.5 142,-19.5 142,-0.5 74,-0.5"/>
<text text-anchor="middle" x="108" y="-7.5" font-family="Helvetica,sans-Serif" font-size="10.00">TriangleLine</text>
</g>
<!-- Node6 -->
<g id="node2" class="node">
<title>Node6</title>
<g id="a_node2"><a xlink:href="../../db/d34/classnap_1_1_poly_line.html" target="_top" xlink:title="PolyLine">
<polygon fill="white" stroke="black" points="81,-57.5 81,-76.5 135,-76.5 135,-57.5 81,-57.5"/>
<text text-anchor="middle" x="108" y="-64.5" font-family="Helvetica,sans-Serif" font-size="10.00">PolyLine</text>
</a>
</g>
</g>
<!-- Node6&#45;&gt;Node5 -->
<g id="edge1" class="edge">
<title>Node6&#45;&gt;Node5</title>
<path fill="none" stroke="midnightblue" d="M108,-47.12C108,-37.82 108,-27.06 108,-19.71"/>
<polygon fill="midnightblue" stroke="midnightblue" points="104.5,-47.41 108,-57.41 111.5,-47.41 104.5,-47.41"/>
</g>
<!-- Node7 -->
<g id="node3" class="node">
<title>Node7</title>
<g id="a_node3"><a xlink:href="../../dd/dac/classnap_1_1_i_mesh.html" target="_top" xlink:title="IMesh">
<polygon fill="white" stroke="black" points="7.5,-124.5 7.5,-143.5 50.5,-143.5 50.5,-124.5 7.5,-124.5"/>
<text text-anchor="middle" x="29" y="-131.5" font-family="Helvetica,sans-Serif" font-size="10.00">IMesh</text>
</a>
</g>
</g>
<!-- Node7&#45;&gt;Node6 -->
<g id="edge2" class="edge">
<title>Node7&#45;&gt;Node6</title>
<path fill="none" stroke="midnightblue" d="M47.58,-117.71C63.14,-104.91 84.8,-87.09 97.51,-76.63"/>
<polygon fill="midnightblue" stroke="midnightblue" points="45.15,-115.18 39.65,-124.23 49.6,-120.58 45.15,-115.18"/>
</g>
<!-- Node8 -->
<g id="node4" class="node">
<title>Node8</title>
<g id="a_node4"><a xlink:href="../../d9/dea/classnap_1_1_resource.html" target="_top" xlink:title="Resource">
<polygon fill="white" stroke="black" points="0,-202.5 0,-221.5 58,-221.5 58,-202.5 0,-202.5"/>
<text text-anchor="middle" x="29" y="-209.5" font-family="Helvetica,sans-Serif" font-size="10.00">Resource</text>
</a>
</g>
</g>
<!-- Node8&#45;&gt;Node7 -->
<g id="edge3" class="edge">
<title>Node8&#45;&gt;Node7</title>
<path fill="none" stroke="midnightblue" d="M29,-192.22C29,-176.7 29,-155.36 29,-143.62"/>
<polygon fill="midnightblue" stroke="midnightblue" points="25.5,-192.28 29,-202.28 32.5,-192.28 25.5,-192.28"/>
</g>
<!-- Node9 -->
<g id="node5" class="node">
<title>Node9</title>
<g id="a_node5"><a xlink:href="../../de/d01/classnap_1_1rtti_1_1_object.html" target="_top" xlink:title="Object">
<polygon fill="white" stroke="black" points="6.5,-259.5 6.5,-278.5 51.5,-278.5 51.5,-259.5 6.5,-259.5"/>
<text text-anchor="middle" x="29" y="-266.5" font-family="Helvetica,sans-Serif" font-size="10.00">Object</text>
</a>
</g>
</g>
<!-- Node9&#45;&gt;Node8 -->
<g id="edge4" class="edge">
<title>Node9&#45;&gt;Node8</title>
<path fill="none" stroke="midnightblue" d="M29,-249.12C29,-239.82 29,-229.06 29,-221.71"/>
<polygon fill="midnightblue" stroke="midnightblue" points="25.5,-249.41 29,-259.41 32.5,-249.41 25.5,-249.41"/>
</g>
<!-- Node10 -->
<g id="node6" class="node">
<title>Node10</title>
<g id="a_node6"><a xlink:href="../../d5/dc6/classnap_1_1_render_service.html" target="_top" xlink:title="RenderService">
<polygon fill="white" stroke="black" points="68.5,-124.5 68.5,-143.5 147.5,-143.5 147.5,-124.5 68.5,-124.5"/>
<text text-anchor="middle" x="108" y="-131.5" font-family="Helvetica,sans-Serif" font-size="10.00">RenderService</text>
</a>
</g>
</g>
<!-- Node10&#45;&gt;Node6 -->
<g id="edge5" class="edge">
<title>Node10&#45;&gt;Node6</title>
<path fill="none" stroke="#9a32cd" stroke-dasharray="5,2" d="M108,-114.04C108,-101.67 108,-86.12 108,-76.63"/>
<polygon fill="#9a32cd" stroke="#9a32cd" points="104.5,-114.23 108,-124.23 111.5,-114.23 104.5,-114.23"/>
<text text-anchor="middle" x="145" y="-98" font-family="Helvetica,sans-Serif" font-size="10.00"> mRenderService</text>
</g>
<!-- Node11 -->
<g id="node7" class="node">
<title>Node11</title>
<g id="a_node7"><a xlink:href="../../d8/d8e/classnap_1_1_service.html" target="_top" xlink:title="Service">
<polygon fill="white" stroke="black" points="80,-202.5 80,-221.5 128,-221.5 128,-202.5 80,-202.5"/>
<text text-anchor="middle" x="104" y="-209.5" font-family="Helvetica,sans-Serif" font-size="10.00">Service</text>
</a>
</g>
</g>
<!-- Node11&#45;&gt;Node10 -->
<g id="edge6" class="edge">
<title>Node11&#45;&gt;Node10</title>
<path fill="none" stroke="midnightblue" d="M104.99,-192.22C105.81,-176.7 106.93,-155.36 107.55,-143.62"/>
<polygon fill="midnightblue" stroke="midnightblue" points="101.49,-192.11 104.46,-202.28 108.48,-192.48 101.49,-192.11"/>
</g>
<!-- Node12 -->
<g id="node8" class="node">
<title>Node12</title>
<g id="a_node8"><a xlink:href="../../de/d80/classnap_1_1_signal.html" target="_top" xlink:title="Signal\&lt; nap::RenderWindow &amp;\&gt;">
<polygon fill="white" stroke="black" points="146.5,-202.5 146.5,-221.5 301.5,-221.5 301.5,-202.5 146.5,-202.5"/>
<text text-anchor="middle" x="224" y="-209.5" font-family="Helvetica,sans-Serif" font-size="10.00">Signal&lt; nap::RenderWindow &amp;&gt;</text>
</a>
</g>
</g>
<!-- Node12&#45;&gt;Node10 -->
<g id="edge7" class="edge">
<title>Node12&#45;&gt;Node10</title>
<path fill="none" stroke="#9a32cd" stroke-dasharray="5,2" d="M202.29,-196.77C178.44,-181.15 140.9,-156.56 121.15,-143.62"/>
<polygon fill="#9a32cd" stroke="#9a32cd" points="200.41,-199.73 210.69,-202.28 204.25,-193.87 200.41,-199.73"/>
<text text-anchor="middle" x="216.5" y="-176" font-family="Helvetica,sans-Serif" font-size="10.00"> windowRemoved</text>
<text text-anchor="middle" x="216.5" y="-165" font-family="Helvetica,sans-Serif" font-size="10.00">windowAdded</text>
</g>
<!-- Node13 -->
<g id="node9" class="node">
<title>Node13</title>
<g id="a_node9"><a xlink:href="../../d1/d3f/structnap_1_1_poly_line_properties.html" target="_top" xlink:title="PolyLineProperties">
<polygon fill="white" stroke="black" points="166,-124.5 166,-143.5 264,-143.5 264,-124.5 166,-124.5"/>
<text text-anchor="middle" x="215" y="-131.5" font-family="Helvetica,sans-Serif" font-size="10.00">PolyLineProperties</text>
</a>
</g>
</g>
<!-- Node13&#45;&gt;Node6 -->
<g id="edge8" class="edge">
<title>Node13&#45;&gt;Node6</title>
<path fill="none" stroke="#9a32cd" stroke-dasharray="5,2" d="M205.01,-115.72C200.08,-108.47 193.57,-100.47 186,-95 170.9,-84.08 151.03,-77.29 135.12,-73.25"/>
<polygon fill="#9a32cd" stroke="#9a32cd" points="202.09,-117.65 210.36,-124.26 208.02,-113.93 202.09,-117.65"/>
<text text-anchor="middle" x="234" y="-98" font-family="Helvetica,sans-Serif" font-size="10.00"> mLineProperties</text>
</g>
</g>
</svg>
