<?xml version="1.0" encoding="UTF-8" standalone="no"?>
<!DOCTYPE svg PUBLIC "-//W3C//DTD SVG 1.1//EN"
 "http://www.w3.org/Graphics/SVG/1.1/DTD/svg11.dtd">
<!-- Generated by graphviz version 2.43.0 (0)
 -->
<!-- Title: BufferBindingInstance Pages: 1 -->
<svg width="342pt" height="240pt"
 viewBox="0.00 0.00 341.50 240.00" xmlns="http://www.w3.org/2000/svg" xmlns:xlink="http://www.w3.org/1999/xlink">
<g id="graph0" class="graph" transform="scale(1 1) rotate(0) translate(4 236)">
<title>BufferBindingInstance</title>
<polygon fill="white" stroke="transparent" points="-4,4 -4,-236 337.5,-236 337.5,4 -4,4"/>
<!-- Node1 -->
<g id="node1" class="node">
<title>Node1</title>
<g id="a_node1"><a xlink:title=" ">
<polygon fill="#bfbfbf" stroke="black" points="62,-0.5 62,-19.5 186,-19.5 186,-0.5 62,-0.5"/>
<text text-anchor="middle" x="124" y="-7.5" font-family="Helvetica,sans-Serif" font-size="10.00">BufferBindingInstance</text>
</a>
</g>
</g>
<!-- Node2 -->
<g id="node2" class="node">
<title>Node2</title>
<g id="a_node2"><a xlink:href="../../dd/df4/classnap_1_1_g_p_u_buffer.html" target="_top" xlink:title=" ">
<polygon fill="white" stroke="black" points="90.5,-67.5 90.5,-86.5 157.5,-86.5 157.5,-67.5 90.5,-67.5"/>
<text text-anchor="middle" x="124" y="-74.5" font-family="Helvetica,sans-Serif" font-size="10.00">GPUBuffer</text>
</a>
</g>
</g>
<!-- Node2&#45;&gt;Node1 -->
<g id="edge1" class="edge">
<title>Node2&#45;&gt;Node1</title>
<path fill="none" stroke="#9a32cd" stroke-dasharray="5,2" d="M124,-57.04C124,-44.67 124,-29.12 124,-19.63"/>
<polygon fill="#9a32cd" stroke="#9a32cd" points="120.5,-57.23 124,-67.23 127.5,-57.23 120.5,-57.23"/>
<text text-anchor="middle" x="145.5" y="-41" font-family="Helvetica,sans-Serif" font-size="10.00"> mBuffer</text>
</g>
<!-- Node3 -->
<g id="node3" class="node">
<title>Node3</title>
<g id="a_node3"><a xlink:href="../../d9/dea/classnap_1_1_resource.html" target="_top" xlink:title=" ">
<polygon fill="white" stroke="black" points="0,-134.5 0,-153.5 62,-153.5 62,-134.5 0,-134.5"/>
<text text-anchor="middle" x="31" y="-141.5" font-family="Helvetica,sans-Serif" font-size="10.00">Resource</text>
</a>
</g>
</g>
<!-- Node3&#45;&gt;Node2 -->
<g id="edge2" class="edge">
<title>Node3&#45;&gt;Node2</title>
<path fill="none" stroke="midnightblue" d="M51.86,-128.42C70.25,-115.57 96.41,-97.28 111.66,-86.63"/>
<polygon fill="midnightblue" stroke="midnightblue" points="49.73,-125.64 43.54,-134.23 53.74,-131.37 49.73,-125.64"/>
</g>
<!-- Node4 -->
<g id="node4" class="node">
<title>Node4</title>
<g id="a_node4"><a xlink:href="../../de/d01/classnap_1_1rtti_1_1_object.html" target="_top" xlink:title=" ">
<polygon fill="white" stroke="black" points="7,-212.5 7,-231.5 55,-231.5 55,-212.5 7,-212.5"/>
<text text-anchor="middle" x="31" y="-219.5" font-family="Helvetica,sans-Serif" font-size="10.00">Object</text>
</a>
</g>
</g>
<!-- Node4&#45;&gt;Node3 -->
<g id="edge3" class="edge">
<title>Node4&#45;&gt;Node3</title>
<path fill="none" stroke="midnightblue" d="M31,-202.22C31,-186.7 31,-165.36 31,-153.62"/>
<polygon fill="midnightblue" stroke="midnightblue" points="27.5,-202.28 31,-212.28 34.5,-202.28 27.5,-202.28"/>
</g>
<!-- Node5 -->
<g id="node5" class="node">
<title>Node5</title>
<g id="a_node5"><a xlink:href="../../d5/dc6/classnap_1_1_render_service.html" target="_top" xlink:title=" ">
<polygon fill="white" stroke="black" points="80.5,-134.5 80.5,-153.5 167.5,-153.5 167.5,-134.5 80.5,-134.5"/>
<text text-anchor="middle" x="124" y="-141.5" font-family="Helvetica,sans-Serif" font-size="10.00">RenderService</text>
</a>
</g>
</g>
<!-- Node5&#45;&gt;Node2 -->
<g id="edge4" class="edge">
<title>Node5&#45;&gt;Node2</title>
<path fill="none" stroke="#9a32cd" stroke-dasharray="5,2" d="M124,-124.04C124,-111.67 124,-96.12 124,-86.63"/>
<polygon fill="#9a32cd" stroke="#9a32cd" points="120.5,-124.23 124,-134.23 127.5,-124.23 120.5,-124.23"/>
<text text-anchor="middle" x="166" y="-108" font-family="Helvetica,sans-Serif" font-size="10.00"> mRenderService</text>
</g>
<!-- Node6 -->
<g id="node6" class="node">
<title>Node6</title>
<g id="a_node6"><a xlink:href="../../d8/d8e/classnap_1_1_service.html" target="_top" xlink:title=" ">
<polygon fill="white" stroke="black" points="85.5,-212.5 85.5,-231.5 138.5,-231.5 138.5,-212.5 85.5,-212.5"/>
<text text-anchor="middle" x="112" y="-219.5" font-family="Helvetica,sans-Serif" font-size="10.00">Service</text>
</a>
</g>
</g>
<!-- Node6&#45;&gt;Node5 -->
<g id="edge5" class="edge">
<title>Node6&#45;&gt;Node5</title>
<path fill="none" stroke="midnightblue" d="M114.96,-202.22C117.42,-186.7 120.79,-165.36 122.64,-153.62"/>
<polygon fill="midnightblue" stroke="midnightblue" points="111.48,-201.86 113.38,-212.28 118.39,-202.95 111.48,-201.86"/>
</g>
<!-- Node7 -->
<g id="node7" class="node">
<title>Node7</title>
<g id="a_node7"><a xlink:href="../../de/d80/classnap_1_1_signal.html" target="_top" xlink:title=" ">
<polygon fill="white" stroke="black" points="156.5,-212.5 156.5,-231.5 333.5,-231.5 333.5,-212.5 156.5,-212.5"/>
<text text-anchor="middle" x="245" y="-219.5" font-family="Helvetica,sans-Serif" font-size="10.00">Signal&lt; nap::RenderWindow &amp; &gt;</text>
</a>
</g>
</g>
<!-- Node7&#45;&gt;Node5 -->
<g id="edge6" class="edge">
<title>Node7&#45;&gt;Node5</title>
<path fill="none" stroke="#9a32cd" stroke-dasharray="5,2" d="M222.35,-206.77C197.47,-191.15 158.32,-166.56 137.72,-153.62"/>
<polygon fill="#9a32cd" stroke="#9a32cd" points="220.79,-209.93 231.12,-212.28 224.51,-204 220.79,-209.93"/>
<text text-anchor="middle" x="242" y="-186" font-family="Helvetica,sans-Serif" font-size="10.00"> windowRemoved</text>
<text text-anchor="middle" x="242" y="-175" font-family="Helvetica,sans-Serif" font-size="10.00">windowAdded</text>
</g>
<!-- Node8 -->
<g id="node8" class="node">
<title>Node8</title>
<g id="a_node8"><a xlink:href="../../de/d80/classnap_1_1_signal.html" target="_top" xlink:title=" ">
<polygon fill="white" stroke="black" points="185.5,-134.5 185.5,-153.5 276.5,-153.5 276.5,-134.5 185.5,-134.5"/>
<text text-anchor="middle" x="231" y="-141.5" font-family="Helvetica,sans-Serif" font-size="10.00">Signal&lt; Args &gt;</text>
</a>
</g>
</g>
<!-- Node8&#45;&gt;Node2 -->
<g id="edge7" class="edge">
<title>Node8&#45;&gt;Node2</title>
<path fill="none" stroke="#9a32cd" stroke-dasharray="5,2" d="M223.83,-124.66C220.29,-117.66 215.39,-110.13 209,-105 194.39,-93.27 174.61,-86.59 157.8,-82.82"/>
<polygon fill="#9a32cd" stroke="#9a32cd" points="220.8,-126.47 228.05,-134.2 227.21,-123.64 220.8,-126.47"/>
<text text-anchor="middle" x="255.5" y="-108" font-family="Helvetica,sans-Serif" font-size="10.00"> bufferChanged</text>
</g>
</g>
</svg>
