<?xml version="1.0" encoding="UTF-8" standalone="no"?>
<!DOCTYPE svg PUBLIC "-//W3C//DTD SVG 1.1//EN"
 "http://www.w3.org/Graphics/SVG/1.1/DTD/svg11.dtd">
<!-- Generated by graphviz version 2.48.0 (20210717.1556)
 -->
<!-- Title: BufferBindingInstance Pages: 1 -->
<svg width="311pt" height="240pt"
 viewBox="0.00 0.00 310.50 240.00" xmlns="http://www.w3.org/2000/svg" xmlns:xlink="http://www.w3.org/1999/xlink">
<g id="graph0" class="graph" transform="scale(1 1) rotate(0) translate(4 236)">
<title>BufferBindingInstance</title>
<polygon fill="white" stroke="transparent" points="-4,4 -4,-236 306.5,-236 306.5,4 -4,4"/>
<!-- Node4 -->
<g id="node1" class="node">
<title>Node4</title>
<polygon fill="#bfbfbf" stroke="black" points="61,-0.5 61,-19.5 171,-19.5 171,-0.5 61,-0.5"/>
<text text-anchor="middle" x="116" y="-7.5" font-family="Helvetica,sans-Serif" font-size="10.00">BufferBindingInstance</text>
</g>
<!-- Node5 -->
<g id="node2" class="node">
<title>Node5</title>
<g id="a_node2"><a xlink:href="../../dd/df4/classnap_1_1_g_p_u_buffer.html" target="_top" xlink:title="GPUBuffer">
<polygon fill="white" stroke="black" points="85,-67.5 85,-86.5 147,-86.5 147,-67.5 85,-67.5"/>
<text text-anchor="middle" x="116" y="-74.5" font-family="Helvetica,sans-Serif" font-size="10.00">GPUBuffer</text>
</a>
</g>
</g>
<!-- Node5&#45;&gt;Node4 -->
<g id="edge1" class="edge">
<title>Node5&#45;&gt;Node4</title>
<path fill="none" stroke="#9a32cd" stroke-dasharray="5,2" d="M116,-57.04C116,-44.67 116,-29.12 116,-19.63"/>
<polygon fill="#9a32cd" stroke="#9a32cd" points="112.5,-57.23 116,-67.23 119.5,-57.23 112.5,-57.23"/>
<text text-anchor="middle" x="134.5" y="-41" font-family="Helvetica,sans-Serif" font-size="10.00"> mBuffer</text>
</g>
<!-- Node6 -->
<g id="node3" class="node">
<title>Node6</title>
<g id="a_node3"><a xlink:href="../../d9/dea/classnap_1_1_resource.html" target="_top" xlink:title="Resource">
<polygon fill="white" stroke="black" points="0,-134.5 0,-153.5 58,-153.5 58,-134.5 0,-134.5"/>
<text text-anchor="middle" x="29" y="-141.5" font-family="Helvetica,sans-Serif" font-size="10.00">Resource</text>
</a>
</g>
</g>
<!-- Node6&#45;&gt;Node5 -->
<g id="edge2" class="edge">
<title>Node6&#45;&gt;Node5</title>
<path fill="none" stroke="midnightblue" d="M48.99,-128.07C66.16,-115.24 90.32,-97.19 104.45,-86.63"/>
<polygon fill="midnightblue" stroke="midnightblue" points="46.65,-125.44 40.73,-134.23 50.84,-131.05 46.65,-125.44"/>
</g>
<!-- Node7 -->
<g id="node4" class="node">
<title>Node7</title>
<g id="a_node4"><a xlink:href="../../de/d01/classnap_1_1rtti_1_1_object.html" target="_top" xlink:title="Object">
<polygon fill="white" stroke="black" points="6.5,-212.5 6.5,-231.5 51.5,-231.5 51.5,-212.5 6.5,-212.5"/>
<text text-anchor="middle" x="29" y="-219.5" font-family="Helvetica,sans-Serif" font-size="10.00">Object</text>
</a>
</g>
</g>
<!-- Node7&#45;&gt;Node6 -->
<g id="edge3" class="edge">
<title>Node7&#45;&gt;Node6</title>
<path fill="none" stroke="midnightblue" d="M29,-202.22C29,-186.7 29,-165.36 29,-153.62"/>
<polygon fill="midnightblue" stroke="midnightblue" points="25.5,-202.28 29,-212.28 32.5,-202.28 25.5,-202.28"/>
</g>
<!-- Node8 -->
<g id="node5" class="node">
<title>Node8</title>
<g id="a_node5"><a xlink:href="../../d5/dc6/classnap_1_1_render_service.html" target="_top" xlink:title="RenderService">
<polygon fill="white" stroke="black" points="76.5,-134.5 76.5,-153.5 155.5,-153.5 155.5,-134.5 76.5,-134.5"/>
<text text-anchor="middle" x="116" y="-141.5" font-family="Helvetica,sans-Serif" font-size="10.00">RenderService</text>
</a>
</g>
</g>
<!-- Node8&#45;&gt;Node5 -->
<g id="edge4" class="edge">
<title>Node8&#45;&gt;Node5</title>
<path fill="none" stroke="#9a32cd" stroke-dasharray="5,2" d="M116,-124.04C116,-111.67 116,-96.12 116,-86.63"/>
<polygon fill="#9a32cd" stroke="#9a32cd" points="112.5,-124.23 116,-134.23 119.5,-124.23 112.5,-124.23"/>
<text text-anchor="middle" x="153" y="-108" font-family="Helvetica,sans-Serif" font-size="10.00"> mRenderService</text>
</g>
<!-- Node9 -->
<g id="node6" class="node">
<title>Node9</title>
<g id="a_node6"><a xlink:href="../../d8/d8e/classnap_1_1_service.html" target="_top" xlink:title="Service">
<polygon fill="white" stroke="black" points="81,-212.5 81,-231.5 129,-231.5 129,-212.5 81,-212.5"/>
<text text-anchor="middle" x="105" y="-219.5" font-family="Helvetica,sans-Serif" font-size="10.00">Service</text>
</a>
</g>
</g>
<!-- Node9&#45;&gt;Node8 -->
<g id="edge5" class="edge">
<title>Node9&#45;&gt;Node8</title>
<path fill="none" stroke="midnightblue" d="M107.72,-202.22C109.96,-186.7 113.05,-165.36 114.75,-153.62"/>
<polygon fill="midnightblue" stroke="midnightblue" points="104.23,-201.88 106.26,-212.28 111.16,-202.89 104.23,-201.88"/>
</g>
<!-- Node10 -->
<g id="node7" class="node">
<title>Node10</title>
<g id="a_node7"><a xlink:href="../../de/d80/classnap_1_1_signal.html" target="_top" xlink:title="Signal\&lt; nap::RenderWindow &amp;\&gt;">
<polygon fill="white" stroke="black" points="147.5,-212.5 147.5,-231.5 302.5,-231.5 302.5,-212.5 147.5,-212.5"/>
<text text-anchor="middle" x="225" y="-219.5" font-family="Helvetica,sans-Serif" font-size="10.00">Signal&lt; nap::RenderWindow &amp;&gt;</text>
</a>
</g>
</g>
<!-- Node10&#45;&gt;Node8 -->
<g id="edge6" class="edge">
<title>Node10&#45;&gt;Node8</title>
<path fill="none" stroke="#9a32cd" stroke-dasharray="5,2" d="M204,-206.36C181.57,-190.72 146.75,-166.44 128.36,-153.62"/>
<polygon fill="#9a32cd" stroke="#9a32cd" points="202.29,-209.43 212.5,-212.28 206.3,-203.69 202.29,-209.43"/>
<text text-anchor="middle" x="220.5" y="-186" font-family="Helvetica,sans-Serif" font-size="10.00"> windowRemoved</text>
<text text-anchor="middle" x="220.5" y="-175" font-family="Helvetica,sans-Serif" font-size="10.00">windowAdded</text>
</g>
<!-- Node11 -->
<g id="node8" class="node">
<title>Node11</title>
<g id="a_node8"><a xlink:href="../../de/d80/classnap_1_1_signal.html" target="_top" xlink:title="Signal\&lt; Args \&gt;">
<polygon fill="white" stroke="black" points="174,-134.5 174,-153.5 256,-153.5 256,-134.5 174,-134.5"/>
<text text-anchor="middle" x="215" y="-141.5" font-family="Helvetica,sans-Serif" font-size="10.00">Signal&lt; Args &gt;</text>
</a>
</g>
</g>
<!-- Node11&#45;&gt;Node5 -->
<g id="edge7" class="edge">
<title>Node11&#45;&gt;Node5</title>
<path fill="none" stroke="#9a32cd" stroke-dasharray="5,2" d="M207.75,-124.75C204.2,-117.76 199.31,-110.23 193,-105 179.91,-94.16 162.17,-87.55 147.02,-83.58"/>
<polygon fill="#9a32cd" stroke="#9a32cd" points="204.73,-126.56 212,-134.26 211.12,-123.7 204.73,-126.56"/>
<text text-anchor="middle" x="234.5" y="-108" font-family="Helvetica,sans-Serif" font-size="10.00"> bufferChanged</text>
</g>
</g>
</svg>
