<?xml version="1.0" encoding="UTF-8" standalone="no"?>
<!DOCTYPE svg PUBLIC "-//W3C//DTD SVG 1.1//EN"
 "http://www.w3.org/Graphics/SVG/1.1/DTD/svg11.dtd">
<!-- Generated by graphviz version 3.0.0 (20220226.1711)
 -->
<!-- Title: CVAdapter Pages: 1 -->
<svg width="261pt" height="196pt"
 viewBox="0.00 0.00 260.50 196.00" xmlns="http://www.w3.org/2000/svg" xmlns:xlink="http://www.w3.org/1999/xlink">
<g id="graph0" class="graph" transform="scale(1 1) rotate(0) translate(4 192)">
<title>CVAdapter</title>
<polygon fill="white" stroke="transparent" points="-4,4 -4,-192 256.5,-192 256.5,4 -4,4"/>
<!-- Node0 -->
<g id="node1" class="node">
<title>Node0</title>
<polygon fill="#bfbfbf" stroke="black" points="99,-56.5 99,-75.5 163,-75.5 163,-56.5 99,-56.5"/>
<text text-anchor="middle" x="131" y="-63.5" font-family="Helvetica,sans-Serif" font-size="10.00">CVAdapter</text>
</g>
<!-- Node3 -->
<g id="node4" class="node">
<title>Node3</title>
<g id="a_node4"><a xlink:href="../../d4/d42/classnap_1_1_c_v_camera.html" target="_top" xlink:title="CVCamera">
<polygon fill="white" stroke="black" points="0,-0.5 0,-19.5 64,-19.5 64,-0.5 0,-0.5"/>
<text text-anchor="middle" x="32" y="-7.5" font-family="Helvetica,sans-Serif" font-size="10.00">CVCamera</text>
</a>
</g>
</g>
<!-- Node0&#45;&gt;Node3 -->
<g id="edge3" class="edge">
<title>Node0&#45;&gt;Node3</title>
<path fill="none" stroke="midnightblue" d="M106.16,-51.45C87.89,-41.48 63.58,-28.23 47.87,-19.65"/>
<polygon fill="midnightblue" stroke="midnightblue" points="104.64,-54.61 115.09,-56.32 107.99,-48.46 104.64,-54.61"/>
</g>
<!-- Node4 -->
<g id="node5" class="node">
<title>Node4</title>
<g id="a_node5"><a xlink:href="../../db/d93/classnap_1_1_c_v_network_stream.html" target="_top" xlink:title="CVNetworkStream">
<polygon fill="white" stroke="black" points="82.5,-0.5 82.5,-19.5 179.5,-19.5 179.5,-0.5 82.5,-0.5"/>
<text text-anchor="middle" x="131" y="-7.5" font-family="Helvetica,sans-Serif" font-size="10.00">CVNetworkStream</text>
</a>
</g>
</g>
<!-- Node0&#45;&gt;Node4 -->
<g id="edge4" class="edge">
<title>Node0&#45;&gt;Node4</title>
<path fill="none" stroke="midnightblue" d="M131,-45.8C131,-36.91 131,-26.78 131,-19.75"/>
<polygon fill="midnightblue" stroke="midnightblue" points="127.5,-46.08 131,-56.08 134.5,-46.08 127.5,-46.08"/>
</g>
<!-- Node5 -->
<g id="node6" class="node">
<title>Node5</title>
<g id="a_node6"><a xlink:href="../../da/db0/classnap_1_1_c_v_video.html" target="_top" xlink:title="CVVideo">
<polygon fill="white" stroke="black" points="197.5,-0.5 197.5,-19.5 252.5,-19.5 252.5,-0.5 197.5,-0.5"/>
<text text-anchor="middle" x="225" y="-7.5" font-family="Helvetica,sans-Serif" font-size="10.00">CVVideo</text>
</a>
</g>
</g>
<!-- Node0&#45;&gt;Node5 -->
<g id="edge5" class="edge">
<title>Node0&#45;&gt;Node5</title>
<path fill="none" stroke="midnightblue" d="M155.06,-51.18C172.36,-41.24 195.15,-28.15 209.93,-19.65"/>
<polygon fill="midnightblue" stroke="midnightblue" points="153.03,-48.31 146.1,-56.32 156.52,-54.38 153.03,-48.31"/>
</g>
<!-- Node1 -->
<g id="node2" class="node">
<title>Node1</title>
<g id="a_node2"><a xlink:href="../../d9/dea/classnap_1_1_resource.html" target="_top" xlink:title="Resource">
<polygon fill="white" stroke="black" points="102,-112.5 102,-131.5 160,-131.5 160,-112.5 102,-112.5"/>
<text text-anchor="middle" x="131" y="-119.5" font-family="Helvetica,sans-Serif" font-size="10.00">Resource</text>
</a>
</g>
</g>
<!-- Node1&#45;&gt;Node0 -->
<g id="edge1" class="edge">
<title>Node1&#45;&gt;Node0</title>
<path fill="none" stroke="midnightblue" d="M131,-101.8C131,-92.91 131,-82.78 131,-75.75"/>
<polygon fill="midnightblue" stroke="midnightblue" points="127.5,-102.08 131,-112.08 134.5,-102.08 127.5,-102.08"/>
</g>
<!-- Node2 -->
<g id="node3" class="node">
<title>Node2</title>
<g id="a_node3"><a xlink:href="../../de/d01/classnap_1_1rtti_1_1_object.html" target="_top" xlink:title="Object">
<polygon fill="white" stroke="black" points="108.5,-168.5 108.5,-187.5 153.5,-187.5 153.5,-168.5 108.5,-168.5"/>
<text text-anchor="middle" x="131" y="-175.5" font-family="Helvetica,sans-Serif" font-size="10.00">Object</text>
</a>
</g>
</g>
<!-- Node2&#45;&gt;Node1 -->
<g id="edge2" class="edge">
<title>Node2&#45;&gt;Node1</title>
<path fill="none" stroke="midnightblue" d="M131,-157.8C131,-148.91 131,-138.78 131,-131.75"/>
<polygon fill="midnightblue" stroke="midnightblue" points="127.5,-158.08 131,-168.08 134.5,-158.08 127.5,-158.08"/>
</g>
</g>
</svg>
