<?xml version="1.0" encoding="UTF-8" standalone="no"?>
<!DOCTYPE svg PUBLIC "-//W3C//DTD SVG 1.1//EN"
 "http://www.w3.org/Graphics/SVG/1.1/DTD/svg11.dtd">
<!-- Generated by graphviz version 2.43.0 (0)
 -->
<!-- Title: NodeManager Pages: 1 -->
<svg width="322pt" height="106pt"
 viewBox="0.00 0.00 322.00 106.00" xmlns="http://www.w3.org/2000/svg" xmlns:xlink="http://www.w3.org/1999/xlink">
<g id="graph0" class="graph" transform="scale(1 1) rotate(0) translate(4 102)">
<title>NodeManager</title>
<polygon fill="white" stroke="transparent" points="-4,4 -4,-102 318,-102 318,4 -4,4"/>
<!-- Node1 -->
<g id="node1" class="node">
<title>Node1</title>
<g id="a_node1"><a xlink:title=" ">
<polygon fill="#bfbfbf" stroke="black" points="102,-0.5 102,-19.5 187,-19.5 187,-0.5 102,-0.5"/>
<text text-anchor="middle" x="144.5" y="-7.5" font-family="Helvetica,sans-Serif" font-size="10.00">NodeManager</text>
</a>
</g>
</g>
<!-- Node2 -->
<g id="node2" class="node">
<title>Node2</title>
<g id="a_node2"><a xlink:href="../../de/d80/classnap_1_1_signal.html" target="_top" xlink:title=" ">
<polygon fill="white" stroke="black" points="0,-67.5 0,-97.5 113,-97.5 113,-67.5 0,-67.5"/>
<text text-anchor="start" x="8" y="-85.5" font-family="Helvetica,sans-Serif" font-size="10.00">Signal&lt; nap::audio</text>
<text text-anchor="middle" x="56.5" y="-74.5" font-family="Helvetica,sans-Serif" font-size="10.00">::NodeManager &amp; &gt;</text>
</a>
</g>
</g>
<!-- Node2&#45;&gt;Node1 -->
<g id="edge1" class="edge">
<title>Node2&#45;&gt;Node1</title>
<path fill="none" stroke="#9a32cd" stroke-dasharray="5,2" d="M52.05,-57.03C52.09,-50.3 53.44,-43.38 57.5,-38 67.88,-24.24 85.2,-17.3 101.66,-13.87"/>
<polygon fill="#9a32cd" stroke="#9a32cd" points="48.58,-57.51 52.87,-67.19 55.56,-56.94 48.58,-57.51"/>
<text text-anchor="middle" x="134.5" y="-41" font-family="Helvetica,sans-Serif" font-size="10.00"> mChannelCountChangedSignal</text>
</g>
<!-- Node3 -->
<g id="node3" class="node">
<title>Node3</title>
<g id="a_node3"><a xlink:href="../../de/d80/classnap_1_1_signal.html" target="_top" xlink:title=" ">
<polygon fill="white" stroke="black" points="153,-73 153,-92 314,-92 314,-73 153,-73"/>
<text text-anchor="middle" x="233.5" y="-80" font-family="Helvetica,sans-Serif" font-size="10.00">Signal&lt; DiscreteTimeValue &gt;</text>
</a>
</g>
</g>
<!-- Node3&#45;&gt;Node1 -->
<g id="edge2" class="edge">
<title>Node3&#45;&gt;Node1</title>
<path fill="none" stroke="#9a32cd" stroke-dasharray="5,2" d="M227.63,-63.1C224.11,-54.53 218.86,-44.76 211.5,-38 202.36,-29.6 190.26,-23.66 178.87,-19.53"/>
<polygon fill="#9a32cd" stroke="#9a32cd" points="224.4,-64.46 231.09,-72.67 230.98,-62.08 224.4,-64.46"/>
<text text-anchor="middle" x="259" y="-41" font-family="Helvetica,sans-Serif" font-size="10.00"> mUpdateSignal</text>
</g>
</g>
</svg>
