<?xml version="1.0" encoding="UTF-8" standalone="no"?>
<!DOCTYPE svg PUBLIC "-//W3C//DTD SVG 1.1//EN"
 "http://www.w3.org/Graphics/SVG/1.1/DTD/svg11.dtd">
<!-- Generated by graphviz version 2.43.0 (0)
 -->
<!-- Title: WebSocketServer Pages: 1 -->
<svg width="339pt" height="287pt"
 viewBox="0.00 0.00 339.00 287.00" xmlns="http://www.w3.org/2000/svg" xmlns:xlink="http://www.w3.org/1999/xlink">
<g id="graph0" class="graph" transform="scale(1 1) rotate(0) translate(4 283)">
<title>WebSocketServer</title>
<polygon fill="white" stroke="transparent" points="-4,4 -4,-283 335,-283 335,4 -4,4"/>
<!-- Node1 -->
<g id="node1" class="node">
<title>Node1</title>
<g id="a_node1"><a xlink:title=" ">
<polygon fill="#bfbfbf" stroke="black" points="129.5,-0.5 129.5,-19.5 230.5,-19.5 230.5,-0.5 129.5,-0.5"/>
<text text-anchor="middle" x="180" y="-7.5" font-family="Helvetica,sans-Serif" font-size="10.00">WebSocketServer</text>
</a>
</g>
</g>
<!-- Node2 -->
<g id="node2" class="node">
<title>Node2</title>
<g id="a_node2"><a xlink:href="../../dc/d3d/classnap_1_1_i_web_socket_server.html" target="_top" xlink:title=" ">
<polygon fill="white" stroke="black" points="128,-57.5 128,-76.5 232,-76.5 232,-57.5 128,-57.5"/>
<text text-anchor="middle" x="180" y="-64.5" font-family="Helvetica,sans-Serif" font-size="10.00">IWebSocketServer</text>
</a>
</g>
</g>
<!-- Node2&#45;&gt;Node1 -->
<g id="edge1" class="edge">
<title>Node2&#45;&gt;Node1</title>
<path fill="none" stroke="midnightblue" d="M180,-47.12C180,-37.82 180,-27.06 180,-19.71"/>
<polygon fill="midnightblue" stroke="midnightblue" points="176.5,-47.41 180,-57.41 183.5,-47.41 176.5,-47.41"/>
</g>
<!-- Node3 -->
<g id="node3" class="node">
<title>Node3</title>
<g id="a_node3"><a xlink:href="../../d6/d44/classnap_1_1_web_socket_interface.html" target="_top" xlink:title=" ">
<polygon fill="white" stroke="black" points="49.5,-130 49.5,-149 162.5,-149 162.5,-130 49.5,-130"/>
<text text-anchor="middle" x="106" y="-137" font-family="Helvetica,sans-Serif" font-size="10.00">WebSocketInterface</text>
</a>
</g>
</g>
<!-- Node3&#45;&gt;Node2 -->
<g id="edge2" class="edge">
<title>Node3&#45;&gt;Node2</title>
<path fill="none" stroke="midnightblue" d="M122.59,-122.69C137.5,-108.49 158.83,-88.17 170.85,-76.72"/>
<polygon fill="midnightblue" stroke="midnightblue" points="119.9,-120.42 115.07,-129.86 124.73,-125.49 119.9,-120.42"/>
</g>
<!-- Node4 -->
<g id="node4" class="node">
<title>Node4</title>
<g id="a_node4"><a xlink:href="../../d9/dea/classnap_1_1_resource.html" target="_top" xlink:title=" ">
<polygon fill="white" stroke="black" points="0,-202.5 0,-221.5 62,-221.5 62,-202.5 0,-202.5"/>
<text text-anchor="middle" x="31" y="-209.5" font-family="Helvetica,sans-Serif" font-size="10.00">Resource</text>
</a>
</g>
</g>
<!-- Node4&#45;&gt;Node3 -->
<g id="edge3" class="edge">
<title>Node4&#45;&gt;Node3</title>
<path fill="none" stroke="midnightblue" d="M47.82,-195.19C62.92,-180.99 84.54,-160.67 96.73,-149.22"/>
<polygon fill="midnightblue" stroke="midnightblue" points="45.09,-192.96 40.2,-202.36 49.88,-198.06 45.09,-192.96"/>
</g>
<!-- Node5 -->
<g id="node5" class="node">
<title>Node5</title>
<g id="a_node5"><a xlink:href="../../de/d01/classnap_1_1rtti_1_1_object.html" target="_top" xlink:title=" ">
<polygon fill="white" stroke="black" points="7,-259.5 7,-278.5 55,-278.5 55,-259.5 7,-259.5"/>
<text text-anchor="middle" x="31" y="-266.5" font-family="Helvetica,sans-Serif" font-size="10.00">Object</text>
</a>
</g>
</g>
<!-- Node5&#45;&gt;Node4 -->
<g id="edge4" class="edge">
<title>Node5&#45;&gt;Node4</title>
<path fill="none" stroke="midnightblue" d="M31,-249.12C31,-239.82 31,-229.06 31,-221.71"/>
<polygon fill="midnightblue" stroke="midnightblue" points="27.5,-249.41 31,-259.41 34.5,-249.41 27.5,-249.41"/>
</g>
<!-- Node6 -->
<g id="node6" class="node">
<title>Node6</title>
<g id="a_node6"><a xlink:href="../../dd/d2f/classnap_1_1_web_socket_service.html" target="_top" xlink:title=" ">
<polygon fill="white" stroke="black" points="80,-202.5 80,-221.5 186,-221.5 186,-202.5 80,-202.5"/>
<text text-anchor="middle" x="133" y="-209.5" font-family="Helvetica,sans-Serif" font-size="10.00">WebSocketService</text>
</a>
</g>
</g>
<!-- Node6&#45;&gt;Node3 -->
<g id="edge5" class="edge">
<title>Node6&#45;&gt;Node3</title>
<path fill="none" stroke="#9a32cd" stroke-dasharray="5,2" d="M126.02,-192.77C120.65,-178.76 113.48,-160.03 109.34,-149.22"/>
<polygon fill="#9a32cd" stroke="#9a32cd" points="122.84,-194.27 129.69,-202.36 129.38,-191.76 122.84,-194.27"/>
<text text-anchor="middle" x="146.5" y="-176" font-family="Helvetica,sans-Serif" font-size="10.00"> mService</text>
</g>
<!-- Node7 -->
<g id="node7" class="node">
<title>Node7</title>
<g id="a_node7"><a xlink:href="../../d8/d8e/classnap_1_1_service.html" target="_top" xlink:title=" ">
<polygon fill="white" stroke="black" points="106.5,-259.5 106.5,-278.5 159.5,-278.5 159.5,-259.5 106.5,-259.5"/>
<text text-anchor="middle" x="133" y="-266.5" font-family="Helvetica,sans-Serif" font-size="10.00">Service</text>
</a>
</g>
</g>
<!-- Node7&#45;&gt;Node6 -->
<g id="edge6" class="edge">
<title>Node7&#45;&gt;Node6</title>
<path fill="none" stroke="midnightblue" d="M133,-249.12C133,-239.82 133,-229.06 133,-221.71"/>
<polygon fill="midnightblue" stroke="midnightblue" points="129.5,-249.41 133,-259.41 136.5,-249.41 129.5,-249.41"/>
</g>
<!-- Node8 -->
<g id="node8" class="node">
<title>Node8</title>
<g id="a_node8"><a xlink:href="../../dd/d7c/classnap_1_1rtti_1_1_object_ptr.html" target="_top" xlink:title=" ">
<polygon fill="white" stroke="black" points="181,-124.5 181,-154.5 331,-154.5 331,-124.5 181,-124.5"/>
<text text-anchor="start" x="189" y="-142.5" font-family="Helvetica,sans-Serif" font-size="10.00">ObjectPtr&lt; nap::WebSocket</text>
<text text-anchor="middle" x="256" y="-131.5" font-family="Helvetica,sans-Serif" font-size="10.00">ServerEndPoint &gt;</text>
</a>
</g>
</g>
<!-- Node8&#45;&gt;Node2 -->
<g id="edge7" class="edge">
<title>Node8&#45;&gt;Node2</title>
<path fill="none" stroke="#9a32cd" stroke-dasharray="5,2" d="M232.97,-117.14C218.43,-103.65 200.42,-86.94 189.59,-76.89"/>
<polygon fill="#9a32cd" stroke="#9a32cd" points="230.91,-120 240.62,-124.23 235.67,-114.87 230.91,-120"/>
<text text-anchor="middle" x="249" y="-98" font-family="Helvetica,sans-Serif" font-size="10.00"> mEndPoint</text>
</g>
<!-- Node9 -->
<g id="node9" class="node">
<title>Node9</title>
<g id="a_node9"><a xlink:href="../../d7/dcb/classnap_1_1rtti_1_1_object_ptr_base.html" target="_top" xlink:title=" ">
<polygon fill="white" stroke="black" points="213,-202.5 213,-221.5 299,-221.5 299,-202.5 213,-202.5"/>
<text text-anchor="middle" x="256" y="-209.5" font-family="Helvetica,sans-Serif" font-size="10.00">ObjectPtrBase</text>
</a>
</g>
</g>
<!-- Node9&#45;&gt;Node8 -->
<g id="edge8" class="edge">
<title>Node9&#45;&gt;Node8</title>
<path fill="none" stroke="midnightblue" d="M256,-192.24C256,-180.41 256,-165.38 256,-154.58"/>
<polygon fill="midnightblue" stroke="midnightblue" points="252.5,-192.36 256,-202.36 259.5,-192.36 252.5,-192.36"/>
</g>
</g>
</svg>
