<?xml version="1.0" encoding="UTF-8" standalone="no"?>
<!DOCTYPE svg PUBLIC "-//W3C//DTD SVG 1.1//EN"
 "http://www.w3.org/Graphics/SVG/1.1/DTD/svg11.dtd">
<!-- Generated by graphviz version 3.0.0 (20220226.1711)
 -->
<!-- Title: WebSocketServer Pages: 1 -->
<svg width="320pt" height="287pt"
 viewBox="0.00 0.00 320.00 287.00" xmlns="http://www.w3.org/2000/svg" xmlns:xlink="http://www.w3.org/1999/xlink">
<g id="graph0" class="graph" transform="scale(1 1) rotate(0) translate(4 283)">
<title>WebSocketServer</title>
<polygon fill="white" stroke="transparent" points="-4,4 -4,-283 316,-283 316,4 -4,4"/>
<!-- Node5 -->
<g id="node1" class="node">
<title>Node5</title>
<polygon fill="#bfbfbf" stroke="black" points="123.5,-0.5 123.5,-19.5 218.5,-19.5 218.5,-0.5 123.5,-0.5"/>
<text text-anchor="middle" x="171" y="-7.5" font-family="Helvetica,sans-Serif" font-size="10.00">WebSocketServer</text>
</g>
<!-- Node6 -->
<g id="node2" class="node">
<title>Node6</title>
<g id="a_node2"><a xlink:href="../../dc/d3d/classnap_1_1_i_web_socket_server.html" target="_top" xlink:title="IWebSocketServer">
<polygon fill="white" stroke="black" points="122.5,-57.5 122.5,-76.5 219.5,-76.5 219.5,-57.5 122.5,-57.5"/>
<text text-anchor="middle" x="171" y="-64.5" font-family="Helvetica,sans-Serif" font-size="10.00">IWebSocketServer</text>
</a>
</g>
</g>
<!-- Node6&#45;&gt;Node5 -->
<g id="edge1" class="edge">
<title>Node6&#45;&gt;Node5</title>
<path fill="none" stroke="midnightblue" d="M171,-47.12C171,-37.82 171,-27.06 171,-19.71"/>
<polygon fill="midnightblue" stroke="midnightblue" points="167.5,-47.41 171,-57.41 174.5,-47.41 167.5,-47.41"/>
</g>
<!-- Node7 -->
<g id="node3" class="node">
<title>Node7</title>
<g id="a_node3"><a xlink:href="../../d6/d44/classnap_1_1_web_socket_interface.html" target="_top" xlink:title="WebSocketInterface">
<polygon fill="white" stroke="black" points="50,-130 50,-149 154,-149 154,-130 50,-130"/>
<text text-anchor="middle" x="102" y="-137" font-family="Helvetica,sans-Serif" font-size="10.00">WebSocketInterface</text>
</a>
</g>
</g>
<!-- Node7&#45;&gt;Node6 -->
<g id="edge2" class="edge">
<title>Node7&#45;&gt;Node6</title>
<path fill="none" stroke="midnightblue" d="M117.47,-122.69C131.37,-108.49 151.26,-88.17 162.47,-76.72"/>
<polygon fill="midnightblue" stroke="midnightblue" points="114.95,-120.26 110.46,-129.86 119.96,-125.16 114.95,-120.26"/>
</g>
<!-- Node8 -->
<g id="node4" class="node">
<title>Node8</title>
<g id="a_node4"><a xlink:href="../../d9/dea/classnap_1_1_resource.html" target="_top" xlink:title="Resource">
<polygon fill="white" stroke="black" points="0,-202.5 0,-221.5 58,-221.5 58,-202.5 0,-202.5"/>
<text text-anchor="middle" x="29" y="-209.5" font-family="Helvetica,sans-Serif" font-size="10.00">Resource</text>
</a>
</g>
</g>
<!-- Node8&#45;&gt;Node7 -->
<g id="edge3" class="edge">
<title>Node8&#45;&gt;Node7</title>
<path fill="none" stroke="midnightblue" d="M45.37,-195.19C60.07,-180.99 81.12,-160.67 92.98,-149.22"/>
<polygon fill="midnightblue" stroke="midnightblue" points="42.71,-192.89 37.95,-202.36 47.58,-197.93 42.71,-192.89"/>
</g>
<!-- Node9 -->
<g id="node5" class="node">
<title>Node9</title>
<g id="a_node5"><a xlink:href="../../de/d01/classnap_1_1rtti_1_1_object.html" target="_top" xlink:title="Object">
<polygon fill="white" stroke="black" points="6.5,-259.5 6.5,-278.5 51.5,-278.5 51.5,-259.5 6.5,-259.5"/>
<text text-anchor="middle" x="29" y="-266.5" font-family="Helvetica,sans-Serif" font-size="10.00">Object</text>
</a>
</g>
</g>
<!-- Node9&#45;&gt;Node8 -->
<g id="edge4" class="edge">
<title>Node9&#45;&gt;Node8</title>
<path fill="none" stroke="midnightblue" d="M29,-249.12C29,-239.82 29,-229.06 29,-221.71"/>
<polygon fill="midnightblue" stroke="midnightblue" points="25.5,-249.41 29,-259.41 32.5,-249.41 25.5,-249.41"/>
</g>
<!-- Node10 -->
<g id="node6" class="node">
<title>Node10</title>
<g id="a_node6"><a xlink:href="../../dd/d2f/classnap_1_1_web_socket_service.html" target="_top" xlink:title="WebSocketService">
<polygon fill="white" stroke="black" points="76.5,-202.5 76.5,-221.5 175.5,-221.5 175.5,-202.5 76.5,-202.5"/>
<text text-anchor="middle" x="126" y="-209.5" font-family="Helvetica,sans-Serif" font-size="10.00">WebSocketService</text>
</a>
</g>
</g>
<!-- Node10&#45;&gt;Node7 -->
<g id="edge5" class="edge">
<title>Node10&#45;&gt;Node7</title>
<path fill="none" stroke="#9a32cd" stroke-dasharray="5,2" d="M119.79,-192.77C115.03,-178.76 108.65,-160.03 104.97,-149.22"/>
<polygon fill="#9a32cd" stroke="#9a32cd" points="116.52,-194.02 123.06,-202.36 123.15,-191.76 116.52,-194.02"/>
<text text-anchor="middle" x="138.5" y="-176" font-family="Helvetica,sans-Serif" font-size="10.00"> mService</text>
</g>
<!-- Node11 -->
<g id="node7" class="node">
<title>Node11</title>
<g id="a_node7"><a xlink:href="../../d8/d8e/classnap_1_1_service.html" target="_top" xlink:title="Service">
<polygon fill="white" stroke="black" points="102,-259.5 102,-278.5 150,-278.5 150,-259.5 102,-259.5"/>
<text text-anchor="middle" x="126" y="-266.5" font-family="Helvetica,sans-Serif" font-size="10.00">Service</text>
</a>
</g>
</g>
<!-- Node11&#45;&gt;Node10 -->
<g id="edge6" class="edge">
<title>Node11&#45;&gt;Node10</title>
<path fill="none" stroke="midnightblue" d="M126,-249.12C126,-239.82 126,-229.06 126,-221.71"/>
<polygon fill="midnightblue" stroke="midnightblue" points="122.5,-249.41 126,-259.41 129.5,-249.41 122.5,-249.41"/>
</g>
<!-- Node12 -->
<g id="node8" class="node">
<title>Node12</title>
<g id="a_node8"><a xlink:href="../../dd/d7c/classnap_1_1rtti_1_1_object_ptr.html" target="_top" xlink:title="ObjectPtr\&lt; nap::WebSocket\lServerEndPoint \&gt;">
<polygon fill="white" stroke="black" points="172,-124.5 172,-154.5 312,-154.5 312,-124.5 172,-124.5"/>
<text text-anchor="start" x="180" y="-142.5" font-family="Helvetica,sans-Serif" font-size="10.00">ObjectPtr&lt; nap::WebSocket</text>
<text text-anchor="middle" x="242" y="-131.5" font-family="Helvetica,sans-Serif" font-size="10.00">ServerEndPoint &gt;</text>
</a>
</g>
</g>
<!-- Node12&#45;&gt;Node6 -->
<g id="edge7" class="edge">
<title>Node12&#45;&gt;Node6</title>
<path fill="none" stroke="#9a32cd" stroke-dasharray="5,2" d="M220.49,-117.14C206.91,-103.65 190.08,-86.94 179.96,-76.89"/>
<polygon fill="#9a32cd" stroke="#9a32cd" points="218.07,-119.67 227.63,-124.23 223,-114.7 218.07,-119.67"/>
<text text-anchor="middle" x="235" y="-98" font-family="Helvetica,sans-Serif" font-size="10.00"> mEndPoint</text>
</g>
<!-- Node13 -->
<g id="node9" class="node">
<title>Node13</title>
<g id="a_node9"><a xlink:href="../../d7/dcb/classnap_1_1rtti_1_1_object_ptr_base.html" target="_top" xlink:title="ObjectPtrBase">
<polygon fill="white" stroke="black" points="202,-202.5 202,-221.5 282,-221.5 282,-202.5 202,-202.5"/>
<text text-anchor="middle" x="242" y="-209.5" font-family="Helvetica,sans-Serif" font-size="10.00">ObjectPtrBase</text>
</a>
</g>
</g>
<!-- Node13&#45;&gt;Node12 -->
<g id="edge8" class="edge">
<title>Node13&#45;&gt;Node12</title>
<path fill="none" stroke="midnightblue" d="M242,-192.24C242,-180.41 242,-165.38 242,-154.58"/>
<polygon fill="midnightblue" stroke="midnightblue" points="238.5,-192.36 242,-202.36 245.5,-192.36 238.5,-192.36"/>
</g>
</g>
</svg>
