<?xml version="1.0" encoding="UTF-8" standalone="no"?>
<!DOCTYPE svg PUBLIC "-//W3C//DTD SVG 1.1//EN"
 "http://www.w3.org/Graphics/SVG/1.1/DTD/svg11.dtd">
<!-- Generated by graphviz version 2.43.0 (0)
 -->
<!-- Title: BaseVertexAttribute Pages: 1 -->
<svg width="330pt" height="207pt"
 viewBox="0.00 0.00 330.00 207.00" xmlns="http://www.w3.org/2000/svg" xmlns:xlink="http://www.w3.org/1999/xlink">
<g id="graph0" class="graph" transform="scale(1 1) rotate(0) translate(4 203)">
<title>BaseVertexAttribute</title>
<polygon fill="white" stroke="transparent" points="-4,4 -4,-203 326,-203 326,4 -4,4"/>
<!-- Node1 -->
<g id="node1" class="node">
<title>Node1</title>
<g id="a_node1"><a xlink:title=" ">
<polygon fill="#bfbfbf" stroke="black" points="119,-67.5 119,-86.5 234,-86.5 234,-67.5 119,-67.5"/>
<text text-anchor="middle" x="176.5" y="-74.5" font-family="Helvetica,sans-Serif" font-size="10.00">BaseVertexAttribute</text>
</a>
</g>
</g>
<!-- Node4 -->
<g id="node4" class="node">
<title>Node4</title>
<g id="a_node4"><a xlink:href="../../d7/da0/classnap_1_1_vertex_attribute.html" target="_top" xlink:title=" ">
<polygon fill="white" stroke="black" points="0,-6 0,-25 183,-25 183,-6 0,-6"/>
<text text-anchor="middle" x="91.5" y="-13" font-family="Helvetica,sans-Serif" font-size="10.00">VertexAttribute&lt; ELEMENTTYPE &gt;</text>
</a>
</g>
</g>
<!-- Node1&#45;&gt;Node4 -->
<g id="edge3" class="edge">
<title>Node1&#45;&gt;Node4</title>
<path fill="none" stroke="midnightblue" d="M155.95,-61.61C139.6,-50.17 117.28,-34.55 103.66,-25.01"/>
<polygon fill="midnightblue" stroke="midnightblue" points="154.12,-64.61 164.32,-67.48 158.14,-58.87 154.12,-64.61"/>
</g>
<!-- Node5 -->
<g id="node5" class="node">
<title>Node5</title>
<g id="a_node5"><a xlink:href="../../d7/da0/classnap_1_1_vertex_attribute.html" target="_top" xlink:title=" ">
<polygon fill="white" stroke="black" points="201,-0.5 201,-30.5 322,-30.5 322,-0.5 201,-0.5"/>
<text text-anchor="start" x="209" y="-18.5" font-family="Helvetica,sans-Serif" font-size="10.00">VertexAttribute&lt; glm</text>
<text text-anchor="middle" x="261.5" y="-7.5" font-family="Helvetica,sans-Serif" font-size="10.00">::vec3 &gt;</text>
</a>
</g>
</g>
<!-- Node1&#45;&gt;Node5 -->
<g id="edge4" class="edge">
<title>Node1&#45;&gt;Node5</title>
<path fill="none" stroke="midnightblue" d="M196.87,-61.74C210.38,-52.28 228.03,-39.93 241.47,-30.52"/>
<polygon fill="midnightblue" stroke="midnightblue" points="194.86,-58.87 188.68,-67.48 198.88,-64.61 194.86,-58.87"/>
</g>
<!-- Node2 -->
<g id="node2" class="node">
<title>Node2</title>
<g id="a_node2"><a xlink:href="../../d9/dea/classnap_1_1_resource.html" target="_top" xlink:title=" ">
<polygon fill="white" stroke="black" points="145.5,-123.5 145.5,-142.5 207.5,-142.5 207.5,-123.5 145.5,-123.5"/>
<text text-anchor="middle" x="176.5" y="-130.5" font-family="Helvetica,sans-Serif" font-size="10.00">Resource</text>
</a>
</g>
</g>
<!-- Node2&#45;&gt;Node1 -->
<g id="edge1" class="edge">
<title>Node2&#45;&gt;Node1</title>
<path fill="none" stroke="midnightblue" d="M176.5,-112.8C176.5,-103.91 176.5,-93.78 176.5,-86.75"/>
<polygon fill="midnightblue" stroke="midnightblue" points="173,-113.08 176.5,-123.08 180,-113.08 173,-113.08"/>
</g>
<!-- Node3 -->
<g id="node3" class="node">
<title>Node3</title>
<g id="a_node3"><a xlink:href="../../de/d01/classnap_1_1rtti_1_1_object.html" target="_top" xlink:title=" ">
<polygon fill="white" stroke="black" points="152.5,-179.5 152.5,-198.5 200.5,-198.5 200.5,-179.5 152.5,-179.5"/>
<text text-anchor="middle" x="176.5" y="-186.5" font-family="Helvetica,sans-Serif" font-size="10.00">Object</text>
</a>
</g>
</g>
<!-- Node3&#45;&gt;Node2 -->
<g id="edge2" class="edge">
<title>Node3&#45;&gt;Node2</title>
<path fill="none" stroke="midnightblue" d="M176.5,-168.8C176.5,-159.91 176.5,-149.78 176.5,-142.75"/>
<polygon fill="midnightblue" stroke="midnightblue" points="173,-169.08 176.5,-179.08 180,-169.08 173,-169.08"/>
</g>
</g>
</svg>
