<?xml version="1.0" encoding="UTF-8" standalone="no"?>
<!DOCTYPE svg PUBLIC "-//W3C//DTD SVG 1.1//EN"
 "http://www.w3.org/Graphics/SVG/1.1/DTD/svg11.dtd">
<!-- Generated by graphviz version 3.0.0 (20220226.1711)
 -->
<!-- Title: Renderable2DTextComponentInstance Pages: 1 -->
<svg width="178pt" height="263pt"
 viewBox="0.00 0.00 178.00 263.00" xmlns="http://www.w3.org/2000/svg" xmlns:xlink="http://www.w3.org/1999/xlink">
<g id="graph0" class="graph" transform="scale(1 1) rotate(0) translate(4 259)">
<title>Renderable2DTextComponentInstance</title>
<polygon fill="white" stroke="transparent" points="-4,4 -4,-259 174,-259 174,4 -4,4"/>
<!-- Node0 -->
<g id="node1" class="node">
<title>Node0</title>
<polygon fill="#bfbfbf" stroke="black" points="12,-0.5 12,-30.5 158,-30.5 158,-0.5 12,-0.5"/>
<text text-anchor="start" x="20" y="-18.5" font-family="Helvetica,sans-Serif" font-size="10.00">Renderable2DTextComponent</text>
<text text-anchor="middle" x="85" y="-7.5" font-family="Helvetica,sans-Serif" font-size="10.00">Instance</text>
</g>
<!-- Node1 -->
<g id="node2" class="node">
<title>Node1</title>
<g id="a_node2"><a xlink:href="../../db/d63/classnap_1_1_renderable_text_component_instance.html" target="_top" xlink:title="RenderableTextComponentInstance">
<polygon fill="white" stroke="black" points="0,-67.5 0,-86.5 170,-86.5 170,-67.5 0,-67.5"/>
<text text-anchor="middle" x="85" y="-74.5" font-family="Helvetica,sans-Serif" font-size="10.00">RenderableTextComponentInstance</text>
</a>
</g>
</g>
<!-- Node1&#45;&gt;Node0 -->
<g id="edge1" class="edge">
<title>Node1&#45;&gt;Node0</title>
<path fill="none" stroke="midnightblue" d="M85,-57.23C85,-48.59 85,-38.5 85,-30.52"/>
<polygon fill="midnightblue" stroke="midnightblue" points="81.5,-57.48 85,-67.48 88.5,-57.48 81.5,-57.48"/>
</g>
<!-- Node2 -->
<g id="node3" class="node">
<title>Node2</title>
<g id="a_node3"><a xlink:href="../../dd/da0/classnap_1_1_renderable_component_instance.html" target="_top" xlink:title="RenderableComponentInstance">
<polygon fill="white" stroke="black" points="9,-123.5 9,-142.5 161,-142.5 161,-123.5 9,-123.5"/>
<text text-anchor="middle" x="85" y="-130.5" font-family="Helvetica,sans-Serif" font-size="10.00">RenderableComponentInstance</text>
</a>
</g>
</g>
<!-- Node2&#45;&gt;Node1 -->
<g id="edge2" class="edge">
<title>Node2&#45;&gt;Node1</title>
<path fill="none" stroke="midnightblue" d="M85,-112.8C85,-103.91 85,-93.78 85,-86.75"/>
<polygon fill="midnightblue" stroke="midnightblue" points="81.5,-113.08 85,-123.08 88.5,-113.08 81.5,-113.08"/>
</g>
<!-- Node3 -->
<g id="node4" class="node">
<title>Node3</title>
<g id="a_node4"><a xlink:href="../../d9/df2/classnap_1_1_component_instance.html" target="_top" xlink:title="ComponentInstance">
<polygon fill="white" stroke="black" points="33.5,-179.5 33.5,-198.5 136.5,-198.5 136.5,-179.5 33.5,-179.5"/>
<text text-anchor="middle" x="85" y="-186.5" font-family="Helvetica,sans-Serif" font-size="10.00">ComponentInstance</text>
</a>
</g>
</g>
<!-- Node3&#45;&gt;Node2 -->
<g id="edge3" class="edge">
<title>Node3&#45;&gt;Node2</title>
<path fill="none" stroke="midnightblue" d="M85,-168.8C85,-159.91 85,-149.78 85,-142.75"/>
<polygon fill="midnightblue" stroke="midnightblue" points="81.5,-169.08 85,-179.08 88.5,-169.08 81.5,-169.08"/>
</g>
<!-- Node4 -->
<g id="node5" class="node">
<title>Node4</title>
<g id="a_node5"><a xlink:href="../../de/d01/classnap_1_1rtti_1_1_object.html" target="_top" xlink:title="Object">
<polygon fill="white" stroke="black" points="62.5,-235.5 62.5,-254.5 107.5,-254.5 107.5,-235.5 62.5,-235.5"/>
<text text-anchor="middle" x="85" y="-242.5" font-family="Helvetica,sans-Serif" font-size="10.00">Object</text>
</a>
</g>
</g>
<!-- Node4&#45;&gt;Node3 -->
<g id="edge4" class="edge">
<title>Node4&#45;&gt;Node3</title>
<path fill="none" stroke="midnightblue" d="M85,-224.8C85,-215.91 85,-205.78 85,-198.75"/>
<polygon fill="midnightblue" stroke="midnightblue" points="81.5,-225.08 85,-235.08 88.5,-225.08 81.5,-225.08"/>
</g>
</g>
</svg>
