<?xml version="1.0" encoding="UTF-8" standalone="no"?>
<!DOCTYPE svg PUBLIC "-//W3C//DTD SVG 1.1//EN"
 "http://www.w3.org/Graphics/SVG/1.1/DTD/svg11.dtd">
<!-- Generated by graphviz version 2.43.0 (0)
 -->
<!-- Title: WebSocketMessageReceivedEvent Pages: 1 -->
<svg width="381pt" height="163pt"
 viewBox="0.00 0.00 380.50 163.00" xmlns="http://www.w3.org/2000/svg" xmlns:xlink="http://www.w3.org/1999/xlink">
<g id="graph0" class="graph" transform="scale(1 1) rotate(0) translate(4 159)">
<title>WebSocketMessageReceivedEvent</title>
<polygon fill="white" stroke="transparent" points="-4,4 -4,-159 376.5,-159 376.5,4 -4,4"/>
<!-- Node1 -->
<g id="node1" class="node">
<title>Node1</title>
<g id="a_node1"><a xlink:title=" ">
<polygon fill="#bfbfbf" stroke="black" points="94,-0.5 94,-30.5 252,-30.5 252,-0.5 94,-0.5"/>
<text text-anchor="start" x="102" y="-18.5" font-family="Helvetica,sans-Serif" font-size="10.00">WebSocketMessageReceived</text>
<text text-anchor="middle" x="173" y="-7.5" font-family="Helvetica,sans-Serif" font-size="10.00">Event</text>
</a>
</g>
</g>
<!-- Node2 -->
<g id="node2" class="node">
<title>Node2</title>
<g id="a_node2"><a xlink:href="../../d6/d83/classnap_1_1_web_socket_event.html" target="_top" xlink:title=" ">
<polygon fill="white" stroke="black" points="0,-78.5 0,-97.5 98,-97.5 98,-78.5 0,-78.5"/>
<text text-anchor="middle" x="49" y="-85.5" font-family="Helvetica,sans-Serif" font-size="10.00">WebSocketEvent</text>
</a>
</g>
</g>
<!-- Node2&#45;&gt;Node1 -->
<g id="edge1" class="edge">
<title>Node2&#45;&gt;Node1</title>
<path fill="none" stroke="midnightblue" d="M73.09,-73.3C94.74,-60.99 126.39,-43 148.24,-30.58"/>
<polygon fill="midnightblue" stroke="midnightblue" points="71.17,-70.37 64.2,-78.36 74.63,-76.46 71.17,-70.37"/>
</g>
<!-- Node3 -->
<g id="node3" class="node">
<title>Node3</title>
<g id="a_node3"><a xlink:href="../../d2/da2/classnap_1_1_event.html" target="_top" xlink:title=" ">
<polygon fill="white" stroke="black" points="27,-135.5 27,-154.5 71,-154.5 71,-135.5 27,-135.5"/>
<text text-anchor="middle" x="49" y="-142.5" font-family="Helvetica,sans-Serif" font-size="10.00">Event</text>
</a>
</g>
</g>
<!-- Node3&#45;&gt;Node2 -->
<g id="edge2" class="edge">
<title>Node3&#45;&gt;Node2</title>
<path fill="none" stroke="midnightblue" d="M49,-125.12C49,-115.82 49,-105.06 49,-97.71"/>
<polygon fill="midnightblue" stroke="midnightblue" points="45.5,-125.41 49,-135.41 52.5,-125.41 45.5,-125.41"/>
</g>
<!-- Node4 -->
<g id="node4" class="node">
<title>Node4</title>
<g id="a_node4"><a xlink:href="../../df/dc6/classnap_1_1_web_socket_message.html" target="_top" xlink:title=" ">
<polygon fill="white" stroke="black" points="116.5,-78.5 116.5,-97.5 229.5,-97.5 229.5,-78.5 116.5,-78.5"/>
<text text-anchor="middle" x="173" y="-85.5" font-family="Helvetica,sans-Serif" font-size="10.00">WebSocketMessage</text>
</a>
</g>
</g>
<!-- Node4&#45;&gt;Node1 -->
<g id="edge3" class="edge">
<title>Node4&#45;&gt;Node1</title>
<path fill="none" stroke="#9a32cd" stroke-dasharray="5,2" d="M173,-68.24C173,-56.41 173,-41.38 173,-30.58"/>
<polygon fill="#9a32cd" stroke="#9a32cd" points="169.5,-68.36 173,-78.36 176.5,-68.36 169.5,-68.36"/>
<text text-anchor="middle" x="201.5" y="-52" font-family="Helvetica,sans-Serif" font-size="10.00"> mMessage</text>
</g>
<!-- Node5 -->
<g id="node5" class="node">
<title>Node5</title>
<g id="a_node5"><a xlink:href="../../d6/d2e/classnap_1_1_web_socket_connection.html" target="_top" xlink:title=" ">
<polygon fill="white" stroke="black" points="247.5,-78.5 247.5,-97.5 372.5,-97.5 372.5,-78.5 247.5,-78.5"/>
<text text-anchor="middle" x="310" y="-85.5" font-family="Helvetica,sans-Serif" font-size="10.00">WebSocketConnection</text>
</a>
</g>
</g>
<!-- Node5&#45;&gt;Node1 -->
<g id="edge4" class="edge">
<title>Node5&#45;&gt;Node1</title>
<path fill="none" stroke="#9a32cd" stroke-dasharray="5,2" d="M284.29,-73.77C260.31,-61.43 224.67,-43.09 200.22,-30.51"/>
<polygon fill="#9a32cd" stroke="#9a32cd" points="282.98,-77.03 293.47,-78.5 286.18,-70.81 282.98,-77.03"/>
<text text-anchor="middle" x="287" y="-52" font-family="Helvetica,sans-Serif" font-size="10.00"> mConnection</text>
</g>
</g>
</svg>
