<?xml version="1.0" encoding="UTF-8" standalone="no"?>
<!DOCTYPE svg PUBLIC "-//W3C//DTD SVG 1.1//EN"
 "http://www.w3.org/Graphics/SVG/1.1/DTD/svg11.dtd">
<!-- Generated by graphviz version 3.0.0 (20220226.1711)
 -->
<!-- Title: WebSocketMessageReceivedEvent Pages: 1 -->
<svg width="360pt" height="163pt"
 viewBox="0.00 0.00 360.00 163.00" xmlns="http://www.w3.org/2000/svg" xmlns:xlink="http://www.w3.org/1999/xlink">
<g id="graph0" class="graph" transform="scale(1 1) rotate(0) translate(4 159)">
<title>WebSocketMessageReceivedEvent</title>
<polygon fill="white" stroke="transparent" points="-4,4 -4,-159 356,-159 356,4 -4,4"/>
<!-- Node3 -->
<g id="node1" class="node">
<title>Node3</title>
<polygon fill="#bfbfbf" stroke="black" points="91,-0.5 91,-30.5 237,-30.5 237,-0.5 91,-0.5"/>
<text text-anchor="start" x="99" y="-18.5" font-family="Helvetica,sans-Serif" font-size="10.00">WebSocketMessageReceived</text>
<text text-anchor="middle" x="164" y="-7.5" font-family="Helvetica,sans-Serif" font-size="10.00">Event</text>
</g>
<!-- Node4 -->
<g id="node2" class="node">
<title>Node4</title>
<g id="a_node2"><a xlink:href="../../d6/d83/classnap_1_1_web_socket_event.html" target="_top" xlink:title="WebSocketEvent">
<polygon fill="white" stroke="black" points="0,-78.5 0,-97.5 92,-97.5 92,-78.5 0,-78.5"/>
<text text-anchor="middle" x="46" y="-85.5" font-family="Helvetica,sans-Serif" font-size="10.00">WebSocketEvent</text>
</a>
</g>
</g>
<!-- Node4&#45;&gt;Node3 -->
<g id="edge1" class="edge">
<title>Node4&#45;&gt;Node3</title>
<path fill="none" stroke="midnightblue" d="M69.21,-73.14C89.8,-60.83 119.74,-42.94 140.44,-30.58"/>
<polygon fill="midnightblue" stroke="midnightblue" points="67.26,-70.22 60.47,-78.36 70.85,-76.23 67.26,-70.22"/>
</g>
<!-- Node5 -->
<g id="node3" class="node">
<title>Node5</title>
<g id="a_node3"><a xlink:href="../../d2/da2/classnap_1_1_event.html" target="_top" xlink:title="Event">
<polygon fill="white" stroke="black" points="25.5,-135.5 25.5,-154.5 66.5,-154.5 66.5,-135.5 25.5,-135.5"/>
<text text-anchor="middle" x="46" y="-142.5" font-family="Helvetica,sans-Serif" font-size="10.00">Event</text>
</a>
</g>
</g>
<!-- Node5&#45;&gt;Node4 -->
<g id="edge2" class="edge">
<title>Node5&#45;&gt;Node4</title>
<path fill="none" stroke="midnightblue" d="M46,-125.12C46,-115.82 46,-105.06 46,-97.71"/>
<polygon fill="midnightblue" stroke="midnightblue" points="42.5,-125.41 46,-135.41 49.5,-125.41 42.5,-125.41"/>
</g>
<!-- Node6 -->
<g id="node4" class="node">
<title>Node6</title>
<g id="a_node4"><a xlink:href="../../df/dc6/classnap_1_1_web_socket_message.html" target="_top" xlink:title="WebSocketMessage">
<polygon fill="white" stroke="black" points="110.5,-78.5 110.5,-97.5 217.5,-97.5 217.5,-78.5 110.5,-78.5"/>
<text text-anchor="middle" x="164" y="-85.5" font-family="Helvetica,sans-Serif" font-size="10.00">WebSocketMessage</text>
</a>
</g>
</g>
<!-- Node6&#45;&gt;Node3 -->
<g id="edge3" class="edge">
<title>Node6&#45;&gt;Node3</title>
<path fill="none" stroke="#9a32cd" stroke-dasharray="5,2" d="M164,-68.24C164,-56.41 164,-41.38 164,-30.58"/>
<polygon fill="#9a32cd" stroke="#9a32cd" points="160.5,-68.36 164,-78.36 167.5,-68.36 160.5,-68.36"/>
<text text-anchor="middle" x="190" y="-52" font-family="Helvetica,sans-Serif" font-size="10.00"> mMessage</text>
</g>
<!-- Node7 -->
<g id="node5" class="node">
<title>Node7</title>
<g id="a_node5"><a xlink:href="../../d6/d2e/classnap_1_1_web_socket_connection.html" target="_top" xlink:title="WebSocketConnection">
<polygon fill="white" stroke="black" points="236,-78.5 236,-97.5 352,-97.5 352,-78.5 236,-78.5"/>
<text text-anchor="middle" x="294" y="-85.5" font-family="Helvetica,sans-Serif" font-size="10.00">WebSocketConnection</text>
</a>
</g>
</g>
<!-- Node7&#45;&gt;Node3 -->
<g id="edge4" class="edge">
<title>Node7&#45;&gt;Node3</title>
<path fill="none" stroke="#9a32cd" stroke-dasharray="5,2" d="M269.33,-73.62C246.66,-61.33 213.17,-43.17 190.07,-30.64"/>
<polygon fill="#9a32cd" stroke="#9a32cd" points="267.86,-76.81 278.32,-78.5 271.2,-70.65 267.86,-76.81"/>
<text text-anchor="middle" x="270.5" y="-52" font-family="Helvetica,sans-Serif" font-size="10.00"> mConnection</text>
</g>
</g>
</svg>
