<?xml version="1.0" encoding="UTF-8" standalone="no"?>
<!DOCTYPE svg PUBLIC "-//W3C//DTD SVG 1.1//EN"
 "http://www.w3.org/Graphics/SVG/1.1/DTD/svg11.dtd">
<!-- Generated by graphviz version 3.0.0 (20220226.1711)
 -->
<!-- Title: RenderableGlyph Pages: 1 -->
<svg width="266pt" height="140pt"
 viewBox="0.00 0.00 266.00 140.00" xmlns="http://www.w3.org/2000/svg" xmlns:xlink="http://www.w3.org/1999/xlink">
<g id="graph0" class="graph" transform="scale(1 1) rotate(0) translate(4 136)">
<title>RenderableGlyph</title>
<polygon fill="white" stroke="transparent" points="-4,4 -4,-136 262,-136 262,4 -4,4"/>
<!-- Node0 -->
<g id="node1" class="node">
<title>Node0</title>
<polygon fill="#bfbfbf" stroke="black" points="75,-56.5 75,-75.5 166,-75.5 166,-56.5 75,-56.5"/>
<text text-anchor="middle" x="120.5" y="-63.5" font-family="Helvetica,sans-Serif" font-size="10.00">RenderableGlyph</text>
</g>
<!-- Node2 -->
<g id="node3" class="node">
<title>Node2</title>
<g id="a_node3"><a xlink:href="../../d9/df1/classnap_1_1_renderable2_d_glyph.html" target="_top" xlink:title="Renderable2DGlyph">
<polygon fill="white" stroke="black" points="0,-0.5 0,-19.5 103,-19.5 103,-0.5 0,-0.5"/>
<text text-anchor="middle" x="51.5" y="-7.5" font-family="Helvetica,sans-Serif" font-size="10.00">Renderable2DGlyph</text>
</a>
</g>
</g>
<!-- Node0&#45;&gt;Node2 -->
<g id="edge2" class="edge">
<title>Node0&#45;&gt;Node2</title>
<path fill="none" stroke="midnightblue" d="M101.46,-50.1C89.04,-40.38 73.26,-28.03 62.79,-19.83"/>
<polygon fill="midnightblue" stroke="midnightblue" points="99.38,-52.92 109.41,-56.32 103.7,-47.4 99.38,-52.92"/>
</g>
<!-- Node3 -->
<g id="node4" class="node">
<title>Node3</title>
<g id="a_node4"><a xlink:href="../../d8/d34/classnap_1_1_renderable2_d_mip_map_glyph.html" target="_top" xlink:title="Renderable2DMipMapGlyph">
<polygon fill="white" stroke="black" points="121,-0.5 121,-19.5 258,-19.5 258,-0.5 121,-0.5"/>
<text text-anchor="middle" x="189.5" y="-7.5" font-family="Helvetica,sans-Serif" font-size="10.00">Renderable2DMipMapGlyph</text>
</a>
</g>
</g>
<!-- Node0&#45;&gt;Node3 -->
<g id="edge3" class="edge">
<title>Node0&#45;&gt;Node3</title>
<path fill="none" stroke="midnightblue" d="M139.54,-50.1C151.96,-40.38 167.74,-28.03 178.21,-19.83"/>
<polygon fill="midnightblue" stroke="midnightblue" points="137.3,-47.4 131.59,-56.32 141.62,-52.92 137.3,-47.4"/>
</g>
<!-- Node1 -->
<g id="node2" class="node">
<title>Node1</title>
<g id="a_node2"><a xlink:href="../../d8/dd9/classnap_1_1_i_glyph_representation.html" target="_top" xlink:title="IGlyphRepresentation">
<polygon fill="white" stroke="black" points="65.5,-112.5 65.5,-131.5 175.5,-131.5 175.5,-112.5 65.5,-112.5"/>
<text text-anchor="middle" x="120.5" y="-119.5" font-family="Helvetica,sans-Serif" font-size="10.00">IGlyphRepresentation</text>
</a>
</g>
</g>
<!-- Node1&#45;&gt;Node0 -->
<g id="edge1" class="edge">
<title>Node1&#45;&gt;Node0</title>
<path fill="none" stroke="midnightblue" d="M120.5,-101.8C120.5,-92.91 120.5,-82.78 120.5,-75.75"/>
<polygon fill="midnightblue" stroke="midnightblue" points="117,-102.08 120.5,-112.08 124,-102.08 117,-102.08"/>
</g>
</g>
</svg>
