<?xml version="1.0" encoding="UTF-8" standalone="no"?>
<!DOCTYPE svg PUBLIC "-//W3C//DTD SVG 1.1//EN"
 "http://www.w3.org/Graphics/SVG/1.1/DTD/svg11.dtd">
<!-- Generated by graphviz version 3.0.0 (20220226.1711)
 -->
<!-- Title: Shader Pages: 1 -->
<svg width="476pt" height="196pt"
 viewBox="0.00 0.00 476.00 196.00" xmlns="http://www.w3.org/2000/svg" xmlns:xlink="http://www.w3.org/1999/xlink">
<g id="graph0" class="graph" transform="scale(1 1) rotate(0) translate(4 192)">
<title>Shader</title>
<polygon fill="white" stroke="transparent" points="-4,4 -4,-192 472,-192 472,4 -4,4"/>
<!-- Node0 -->
<g id="node1" class="node">
<title>Node0</title>
<polygon fill="#bfbfbf" stroke="black" points="208.5,-56.5 208.5,-75.5 255.5,-75.5 255.5,-56.5 208.5,-56.5"/>
<text text-anchor="middle" x="232" y="-63.5" font-family="Helvetica,sans-Serif" font-size="10.00">Shader</text>
</g>
<!-- Node3 -->
<g id="node4" class="node">
<title>Node3</title>
<g id="a_node4"><a xlink:href="../../d7/de0/classnap_1_1_constant_shader.html" target="_top" xlink:title="ConstantShader">
<polygon fill="white" stroke="black" points="0,-0.5 0,-19.5 86,-19.5 86,-0.5 0,-0.5"/>
<text text-anchor="middle" x="43" y="-7.5" font-family="Helvetica,sans-Serif" font-size="10.00">ConstantShader</text>
</a>
</g>
</g>
<!-- Node0&#45;&gt;Node3 -->
<g id="edge3" class="edge">
<title>Node0&#45;&gt;Node3</title>
<path fill="none" stroke="midnightblue" d="M198.52,-55.43C162.86,-45.25 106.95,-29.27 72.77,-19.51"/>
<polygon fill="midnightblue" stroke="midnightblue" points="197.87,-58.89 208.45,-58.27 199.79,-52.16 197.87,-58.89"/>
</g>
<!-- Node4 -->
<g id="node5" class="node">
<title>Node4</title>
<g id="a_node5"><a xlink:href="../../d4/d6c/classnap_1_1_font_shader.html" target="_top" xlink:title="FontShader">
<polygon fill="white" stroke="black" points="104.5,-0.5 104.5,-19.5 171.5,-19.5 171.5,-0.5 104.5,-0.5"/>
<text text-anchor="middle" x="138" y="-7.5" font-family="Helvetica,sans-Serif" font-size="10.00">FontShader</text>
</a>
</g>
</g>
<!-- Node0&#45;&gt;Node4 -->
<g id="edge4" class="edge">
<title>Node0&#45;&gt;Node4</title>
<path fill="none" stroke="midnightblue" d="M207.94,-51.18C190.64,-41.24 167.85,-28.15 153.07,-19.65"/>
<polygon fill="midnightblue" stroke="midnightblue" points="206.48,-54.38 216.9,-56.32 209.97,-48.31 206.48,-54.38"/>
</g>
<!-- Node5 -->
<g id="node6" class="node">
<title>Node5</title>
<g id="a_node6"><a xlink:href="../../dd/dee/classnap_1_1_gnomon_shader.html" target="_top" xlink:title="GnomonShader">
<polygon fill="white" stroke="black" points="190,-0.5 190,-19.5 274,-19.5 274,-0.5 190,-0.5"/>
<text text-anchor="middle" x="232" y="-7.5" font-family="Helvetica,sans-Serif" font-size="10.00">GnomonShader</text>
</a>
</g>
</g>
<!-- Node0&#45;&gt;Node5 -->
<g id="edge5" class="edge">
<title>Node0&#45;&gt;Node5</title>
<path fill="none" stroke="midnightblue" d="M232,-45.8C232,-36.91 232,-26.78 232,-19.75"/>
<polygon fill="midnightblue" stroke="midnightblue" points="228.5,-46.08 232,-56.08 235.5,-46.08 228.5,-46.08"/>
</g>
<!-- Node6 -->
<g id="node7" class="node">
<title>Node6</title>
<g id="a_node7"><a xlink:href="../../d6/d49/classnap_1_1_shader_from_file.html" target="_top" xlink:title="ShaderFromFile">
<polygon fill="white" stroke="black" points="292,-0.5 292,-19.5 378,-19.5 378,-0.5 292,-0.5"/>
<text text-anchor="middle" x="335" y="-7.5" font-family="Helvetica,sans-Serif" font-size="10.00">ShaderFromFile</text>
</a>
</g>
</g>
<!-- Node0&#45;&gt;Node6 -->
<g id="edge6" class="edge">
<title>Node0&#45;&gt;Node6</title>
<path fill="none" stroke="midnightblue" d="M257.58,-51.59C276.62,-41.61 302.06,-28.27 318.49,-19.65"/>
<polygon fill="midnightblue" stroke="midnightblue" points="255.78,-48.58 248.55,-56.32 259.03,-54.78 255.78,-48.58"/>
</g>
<!-- Node7 -->
<g id="node8" class="node">
<title>Node7</title>
<g id="a_node8"><a xlink:href="../../d6/df5/classnap_1_1_video_shader.html" target="_top" xlink:title="VideoShader">
<polygon fill="white" stroke="black" points="396,-0.5 396,-19.5 468,-19.5 468,-0.5 396,-0.5"/>
<text text-anchor="middle" x="432" y="-7.5" font-family="Helvetica,sans-Serif" font-size="10.00">VideoShader</text>
</a>
</g>
</g>
<!-- Node0&#45;&gt;Node7 -->
<g id="edge7" class="edge">
<title>Node0&#45;&gt;Node7</title>
<path fill="none" stroke="midnightblue" d="M265.69,-55.9C303.3,-45.75 363.68,-29.45 400.41,-19.53"/>
<polygon fill="midnightblue" stroke="midnightblue" points="264.47,-52.61 255.73,-58.59 266.29,-59.37 264.47,-52.61"/>
</g>
<!-- Node1 -->
<g id="node2" class="node">
<title>Node1</title>
<g id="a_node2"><a xlink:href="../../d9/dea/classnap_1_1_resource.html" target="_top" xlink:title="Resource">
<polygon fill="white" stroke="black" points="203,-112.5 203,-131.5 261,-131.5 261,-112.5 203,-112.5"/>
<text text-anchor="middle" x="232" y="-119.5" font-family="Helvetica,sans-Serif" font-size="10.00">Resource</text>
</a>
</g>
</g>
<!-- Node1&#45;&gt;Node0 -->
<g id="edge1" class="edge">
<title>Node1&#45;&gt;Node0</title>
<path fill="none" stroke="midnightblue" d="M232,-101.8C232,-92.91 232,-82.78 232,-75.75"/>
<polygon fill="midnightblue" stroke="midnightblue" points="228.5,-102.08 232,-112.08 235.5,-102.08 228.5,-102.08"/>
</g>
<!-- Node2 -->
<g id="node3" class="node">
<title>Node2</title>
<g id="a_node3"><a xlink:href="../../de/d01/classnap_1_1rtti_1_1_object.html" target="_top" xlink:title="Object">
<polygon fill="white" stroke="black" points="209.5,-168.5 209.5,-187.5 254.5,-187.5 254.5,-168.5 209.5,-168.5"/>
<text text-anchor="middle" x="232" y="-175.5" font-family="Helvetica,sans-Serif" font-size="10.00">Object</text>
</a>
</g>
</g>
<!-- Node2&#45;&gt;Node1 -->
<g id="edge2" class="edge">
<title>Node2&#45;&gt;Node1</title>
<path fill="none" stroke="midnightblue" d="M232,-157.8C232,-148.91 232,-138.78 232,-131.75"/>
<polygon fill="midnightblue" stroke="midnightblue" points="228.5,-158.08 232,-168.08 235.5,-158.08 228.5,-158.08"/>
</g>
</g>
</svg>
