<?xml version="1.0" encoding="UTF-8" standalone="no"?>
<!DOCTYPE svg PUBLIC "-//W3C//DTD SVG 1.1//EN"
 "http://www.w3.org/Graphics/SVG/1.1/DTD/svg11.dtd">
<!-- Generated by graphviz version 2.43.0 (0)
 -->
<!-- Title: Shader Pages: 1 -->
<svg width="562pt" height="252pt"
 viewBox="0.00 0.00 562.00 252.00" xmlns="http://www.w3.org/2000/svg" xmlns:xlink="http://www.w3.org/1999/xlink">
<g id="graph0" class="graph" transform="scale(1 1) rotate(0) translate(4 248)">
<title>Shader</title>
<polygon fill="white" stroke="transparent" points="-4,4 -4,-248 558,-248 558,4 -4,4"/>
<!-- Node1 -->
<g id="node1" class="node">
<title>Node1</title>
<g id="a_node1"><a xlink:title=" ">
<polygon fill="#bfbfbf" stroke="black" points="273,-56.5 273,-75.5 323,-75.5 323,-56.5 273,-56.5"/>
<text text-anchor="middle" x="298" y="-63.5" font-family="Helvetica,sans-Serif" font-size="10.00">Shader</text>
</a>
</g>
</g>
<!-- Node5 -->
<g id="node5" class="node">
<title>Node5</title>
<g id="a_node5"><a xlink:href="../../dd/d51/classnap_1_1_color_adjustment_shader.html" target="_top" xlink:title=" ">
<polygon fill="white" stroke="black" points="0,-0.5 0,-19.5 132,-19.5 132,-0.5 0,-0.5"/>
<text text-anchor="middle" x="66" y="-7.5" font-family="Helvetica,sans-Serif" font-size="10.00">ColorAdjustmentShader</text>
</a>
</g>
</g>
<!-- Node1&#45;&gt;Node5 -->
<g id="edge4" class="edge">
<title>Node1&#45;&gt;Node5</title>
<path fill="none" stroke="midnightblue" d="M262.94,-56.84C219.71,-46.78 146.59,-29.76 102.65,-19.53"/>
<polygon fill="midnightblue" stroke="midnightblue" points="262.2,-60.26 272.73,-59.12 263.78,-53.44 262.2,-60.26"/>
</g>
<!-- Node6 -->
<g id="node6" class="node">
<title>Node6</title>
<g id="a_node6"><a xlink:href="../../d7/de0/classnap_1_1_constant_shader.html" target="_top" xlink:title=" ">
<polygon fill="white" stroke="black" points="150,-0.5 150,-19.5 244,-19.5 244,-0.5 150,-0.5"/>
<text text-anchor="middle" x="197" y="-7.5" font-family="Helvetica,sans-Serif" font-size="10.00">ConstantShader</text>
</a>
</g>
</g>
<!-- Node1&#45;&gt;Node6 -->
<g id="edge5" class="edge">
<title>Node1&#45;&gt;Node6</title>
<path fill="none" stroke="midnightblue" d="M272.92,-51.59C254.24,-41.61 229.3,-28.27 213.19,-19.65"/>
<polygon fill="midnightblue" stroke="midnightblue" points="271.3,-54.7 281.77,-56.32 274.6,-48.52 271.3,-54.7"/>
</g>
<!-- Node7 -->
<g id="node7" class="node">
<title>Node7</title>
<g id="a_node7"><a xlink:href="../../d4/d6c/classnap_1_1_font_shader.html" target="_top" xlink:title=" ">
<polygon fill="white" stroke="black" points="262.5,-0.5 262.5,-19.5 333.5,-19.5 333.5,-0.5 262.5,-0.5"/>
<text text-anchor="middle" x="298" y="-7.5" font-family="Helvetica,sans-Serif" font-size="10.00">FontShader</text>
</a>
</g>
</g>
<!-- Node1&#45;&gt;Node7 -->
<g id="edge6" class="edge">
<title>Node1&#45;&gt;Node7</title>
<path fill="none" stroke="midnightblue" d="M298,-45.8C298,-36.91 298,-26.78 298,-19.75"/>
<polygon fill="midnightblue" stroke="midnightblue" points="294.5,-46.08 298,-56.08 301.5,-46.08 294.5,-46.08"/>
</g>
<!-- Node8 -->
<g id="node8" class="node">
<title>Node8</title>
<g id="a_node8"><a xlink:href="../../dd/dee/classnap_1_1_gnomon_shader.html" target="_top" xlink:title=" ">
<polygon fill="white" stroke="black" points="352,-0.5 352,-19.5 444,-19.5 444,-0.5 352,-0.5"/>
<text text-anchor="middle" x="398" y="-7.5" font-family="Helvetica,sans-Serif" font-size="10.00">GnomonShader</text>
</a>
</g>
</g>
<!-- Node1&#45;&gt;Node8 -->
<g id="edge7" class="edge">
<title>Node1&#45;&gt;Node8</title>
<path fill="none" stroke="midnightblue" d="M323.09,-51.45C341.55,-41.48 366.1,-28.23 381.97,-19.65"/>
<polygon fill="midnightblue" stroke="midnightblue" points="321.2,-48.49 314.07,-56.32 324.53,-54.65 321.2,-48.49"/>
</g>
<!-- Node9 -->
<g id="node9" class="node">
<title>Node9</title>
<g id="a_node9"><a xlink:href="../../d6/d49/classnap_1_1_shader_from_file.html" target="_top" xlink:title=" ">
<polygon fill="white" stroke="black" points="462,-0.5 462,-19.5 554,-19.5 554,-0.5 462,-0.5"/>
<text text-anchor="middle" x="508" y="-7.5" font-family="Helvetica,sans-Serif" font-size="10.00">ShaderFromFile</text>
</a>
</g>
</g>
<!-- Node1&#45;&gt;Node9 -->
<g id="edge8" class="edge">
<title>Node1&#45;&gt;Node9</title>
<path fill="none" stroke="midnightblue" d="M333.04,-55.99C372.43,-45.86 435.92,-29.53 474.62,-19.58"/>
<polygon fill="midnightblue" stroke="midnightblue" points="332.14,-52.61 323.33,-58.49 333.89,-59.39 332.14,-52.61"/>
</g>
<!-- Node2 -->
<g id="node2" class="node">
<title>Node2</title>
<g id="a_node2"><a xlink:href="../../d4/dd0/classnap_1_1_base_shader.html" target="_top" xlink:title=" ">
<polygon fill="white" stroke="black" points="261,-112.5 261,-131.5 335,-131.5 335,-112.5 261,-112.5"/>
<text text-anchor="middle" x="298" y="-119.5" font-family="Helvetica,sans-Serif" font-size="10.00">BaseShader</text>
</a>
</g>
</g>
<!-- Node2&#45;&gt;Node1 -->
<g id="edge1" class="edge">
<title>Node2&#45;&gt;Node1</title>
<path fill="none" stroke="midnightblue" d="M298,-101.8C298,-92.91 298,-82.78 298,-75.75"/>
<polygon fill="midnightblue" stroke="midnightblue" points="294.5,-102.08 298,-112.08 301.5,-102.08 294.5,-102.08"/>
</g>
<!-- Node3 -->
<g id="node3" class="node">
<title>Node3</title>
<g id="a_node3"><a xlink:href="../../d9/dea/classnap_1_1_resource.html" target="_top" xlink:title=" ">
<polygon fill="white" stroke="black" points="267,-168.5 267,-187.5 329,-187.5 329,-168.5 267,-168.5"/>
<text text-anchor="middle" x="298" y="-175.5" font-family="Helvetica,sans-Serif" font-size="10.00">Resource</text>
</a>
</g>
</g>
<!-- Node3&#45;&gt;Node2 -->
<g id="edge2" class="edge">
<title>Node3&#45;&gt;Node2</title>
<path fill="none" stroke="midnightblue" d="M298,-157.8C298,-148.91 298,-138.78 298,-131.75"/>
<polygon fill="midnightblue" stroke="midnightblue" points="294.5,-158.08 298,-168.08 301.5,-158.08 294.5,-158.08"/>
</g>
<!-- Node4 -->
<g id="node4" class="node">
<title>Node4</title>
<g id="a_node4"><a xlink:href="../../de/d01/classnap_1_1rtti_1_1_object.html" target="_top" xlink:title=" ">
<polygon fill="white" stroke="black" points="274,-224.5 274,-243.5 322,-243.5 322,-224.5 274,-224.5"/>
<text text-anchor="middle" x="298" y="-231.5" font-family="Helvetica,sans-Serif" font-size="10.00">Object</text>
</a>
</g>
</g>
<!-- Node4&#45;&gt;Node3 -->
<g id="edge3" class="edge">
<title>Node4&#45;&gt;Node3</title>
<path fill="none" stroke="midnightblue" d="M298,-213.8C298,-204.91 298,-194.78 298,-187.75"/>
<polygon fill="midnightblue" stroke="midnightblue" points="294.5,-214.08 298,-224.08 301.5,-214.08 294.5,-214.08"/>
</g>
</g>
</svg>
