<?xml version="1.0" encoding="UTF-8" standalone="no"?>
<!DOCTYPE svg PUBLIC "-//W3C//DTD SVG 1.1//EN"
 "http://www.w3.org/Graphics/SVG/1.1/DTD/svg11.dtd">
<!-- Generated by graphviz version 3.0.0 (20220226.1711)
 -->
<!-- Title: Window Pages: 1 -->
<svg width="186pt" height="163pt"
 viewBox="0.00 0.00 185.50 163.00" xmlns="http://www.w3.org/2000/svg" xmlns:xlink="http://www.w3.org/1999/xlink">
<g id="graph0" class="graph" transform="scale(1 1) rotate(0) translate(4 159)">
<title>Window</title>
<polygon fill="white" stroke="transparent" points="-4,4 -4,-159 181.5,-159 181.5,4 -4,4"/>
<!-- Node4 -->
<g id="node1" class="node">
<title>Node4</title>
<polygon fill="#bfbfbf" stroke="black" points="52.5,-0.5 52.5,-19.5 103.5,-19.5 103.5,-0.5 52.5,-0.5"/>
<text text-anchor="middle" x="78" y="-7.5" font-family="Helvetica,sans-Serif" font-size="10.00">Window</text>
</g>
<!-- Node5 -->
<g id="node2" class="node">
<title>Node5</title>
<g id="a_node2"><a xlink:href="../../d9/dea/classnap_1_1_resource.html" target="_top" xlink:title="Resource">
<polygon fill="white" stroke="black" points="0,-73 0,-92 58,-92 58,-73 0,-73"/>
<text text-anchor="middle" x="29" y="-80" font-family="Helvetica,sans-Serif" font-size="10.00">Resource</text>
</a>
</g>
</g>
<!-- Node5&#45;&gt;Node4 -->
<g id="edge1" class="edge">
<title>Node5&#45;&gt;Node4</title>
<path fill="none" stroke="midnightblue" d="M40.82,-64.5C50.64,-50.37 64.2,-30.85 71.94,-19.72"/>
<polygon fill="midnightblue" stroke="midnightblue" points="37.84,-62.65 35.01,-72.86 43.59,-66.64 37.84,-62.65"/>
</g>
<!-- Node6 -->
<g id="node3" class="node">
<title>Node6</title>
<g id="a_node3"><a xlink:href="../../de/d01/classnap_1_1rtti_1_1_object.html" target="_top" xlink:title="Object">
<polygon fill="white" stroke="black" points="6.5,-135.5 6.5,-154.5 51.5,-154.5 51.5,-135.5 6.5,-135.5"/>
<text text-anchor="middle" x="29" y="-142.5" font-family="Helvetica,sans-Serif" font-size="10.00">Object</text>
</a>
</g>
</g>
<!-- Node6&#45;&gt;Node5 -->
<g id="edge2" class="edge">
<title>Node6&#45;&gt;Node5</title>
<path fill="none" stroke="midnightblue" d="M29,-125C29,-114 29,-100.68 29,-92.15"/>
<polygon fill="midnightblue" stroke="midnightblue" points="25.5,-125.33 29,-135.33 32.5,-125.33 25.5,-125.33"/>
</g>
<!-- Node7 -->
<g id="node4" class="node">
<title>Node7</title>
<g id="a_node4"><a xlink:href="../../de/d80/classnap_1_1_signal.html" target="_top" xlink:title="Signal\&lt; const nap::\lWindowEvent &amp;\&gt;">
<polygon fill="white" stroke="black" points="76.5,-67.5 76.5,-97.5 177.5,-97.5 177.5,-67.5 76.5,-67.5"/>
<text text-anchor="start" x="84.5" y="-85.5" font-family="Helvetica,sans-Serif" font-size="10.00">Signal&lt; const nap::</text>
<text text-anchor="middle" x="127" y="-74.5" font-family="Helvetica,sans-Serif" font-size="10.00">WindowEvent &amp;&gt;</text>
</a>
</g>
</g>
<!-- Node7&#45;&gt;Node4 -->
<g id="edge3" class="edge">
<title>Node7&#45;&gt;Node4</title>
<path fill="none" stroke="#9a32cd" stroke-dasharray="5,2" d="M111.37,-59.01C102.14,-45.73 90.97,-29.66 84.18,-19.89"/>
<polygon fill="#9a32cd" stroke="#9a32cd" points="108.5,-61.02 117.08,-67.23 114.25,-57.02 108.5,-61.02"/>
<text text-anchor="middle" x="138" y="-41" font-family="Helvetica,sans-Serif" font-size="10.00"> mWindowEvent</text>
</g>
</g>
</svg>
