<?xml version="1.0" encoding="UTF-8" standalone="no"?>
<!DOCTYPE svg PUBLIC "-//W3C//DTD SVG 1.1//EN"
 "http://www.w3.org/Graphics/SVG/1.1/DTD/svg11.dtd">
<!-- Generated by graphviz version 2.48.0 (20210717.1556)
 -->
<!-- Title: BaseFillPolicy Pages: 1 -->
<svg width="262pt" height="252pt"
 viewBox="0.00 0.00 261.50 252.00" xmlns="http://www.w3.org/2000/svg" xmlns:xlink="http://www.w3.org/1999/xlink">
<g id="graph0" class="graph" transform="scale(1 1) rotate(0) translate(4 248)">
<title>BaseFillPolicy</title>
<polygon fill="white" stroke="transparent" points="-4,4 -4,-248 257.5,-248 257.5,4 -4,4"/>
<!-- Node0 -->
<g id="node1" class="node">
<title>Node0</title>
<polygon fill="#bfbfbf" stroke="black" points="88,-112.5 88,-131.5 167,-131.5 167,-112.5 88,-112.5"/>
<text text-anchor="middle" x="127.5" y="-119.5" font-family="Helvetica,sans-Serif" font-size="10.00">BaseFillPolicy</text>
</g>
<!-- Node3 -->
<g id="node4" class="node">
<title>Node3</title>
<g id="a_node4"><a xlink:href="../../d0/d25/classnap_1_1_fill_policy.html" target="_top" xlink:title="FillPolicy\&lt; T \&gt;">
<polygon fill="white" stroke="black" points="87.5,-56.5 87.5,-75.5 167.5,-75.5 167.5,-56.5 87.5,-56.5"/>
<text text-anchor="middle" x="127.5" y="-63.5" font-family="Helvetica,sans-Serif" font-size="10.00">FillPolicy&lt; T &gt;</text>
</a>
</g>
</g>
<!-- Node0&#45;&gt;Node3 -->
<g id="edge3" class="edge">
<title>Node0&#45;&gt;Node3</title>
<path fill="none" stroke="midnightblue" d="M127.5,-101.8C127.5,-92.91 127.5,-82.78 127.5,-75.75"/>
<polygon fill="midnightblue" stroke="midnightblue" points="124,-102.08 127.5,-112.08 131,-102.08 124,-102.08"/>
</g>
<!-- Node1 -->
<g id="node2" class="node">
<title>Node1</title>
<g id="a_node2"><a xlink:href="../../d9/dea/classnap_1_1_resource.html" target="_top" xlink:title="Resource">
<polygon fill="white" stroke="black" points="98.5,-168.5 98.5,-187.5 156.5,-187.5 156.5,-168.5 98.5,-168.5"/>
<text text-anchor="middle" x="127.5" y="-175.5" font-family="Helvetica,sans-Serif" font-size="10.00">Resource</text>
</a>
</g>
</g>
<!-- Node1&#45;&gt;Node0 -->
<g id="edge1" class="edge">
<title>Node1&#45;&gt;Node0</title>
<path fill="none" stroke="midnightblue" d="M127.5,-157.8C127.5,-148.91 127.5,-138.78 127.5,-131.75"/>
<polygon fill="midnightblue" stroke="midnightblue" points="124,-158.08 127.5,-168.08 131,-158.08 124,-158.08"/>
</g>
<!-- Node2 -->
<g id="node3" class="node">
<title>Node2</title>
<g id="a_node3"><a xlink:href="../../de/d01/classnap_1_1rtti_1_1_object.html" target="_top" xlink:title="Object">
<polygon fill="white" stroke="black" points="105,-224.5 105,-243.5 150,-243.5 150,-224.5 105,-224.5"/>
<text text-anchor="middle" x="127.5" y="-231.5" font-family="Helvetica,sans-Serif" font-size="10.00">Object</text>
</a>
</g>
</g>
<!-- Node2&#45;&gt;Node1 -->
<g id="edge2" class="edge">
<title>Node2&#45;&gt;Node1</title>
<path fill="none" stroke="midnightblue" d="M127.5,-213.8C127.5,-204.91 127.5,-194.78 127.5,-187.75"/>
<polygon fill="midnightblue" stroke="midnightblue" points="124,-214.08 127.5,-224.08 131,-214.08 124,-214.08"/>
</g>
<!-- Node4 -->
<g id="node5" class="node">
<title>Node4</title>
<g id="a_node5"><a xlink:href="../../d1/d6f/classnap_1_1_constant_fill_policy.html" target="_top" xlink:title="ConstantFillPolicy\&lt; T \&gt;">
<polygon fill="white" stroke="black" points="0,-0.5 0,-19.5 119,-19.5 119,-0.5 0,-0.5"/>
<text text-anchor="middle" x="59.5" y="-7.5" font-family="Helvetica,sans-Serif" font-size="10.00">ConstantFillPolicy&lt; T &gt;</text>
</a>
</g>
</g>
<!-- Node3&#45;&gt;Node4 -->
<g id="edge4" class="edge">
<title>Node3&#45;&gt;Node4</title>
<path fill="none" stroke="midnightblue" d="M108.74,-50.1C96.5,-40.38 80.94,-28.03 70.62,-19.83"/>
<polygon fill="midnightblue" stroke="midnightblue" points="106.57,-52.85 116.57,-56.32 110.92,-47.36 106.57,-52.85"/>
</g>
<!-- Node5 -->
<g id="node6" class="node">
<title>Node5</title>
<g id="a_node6"><a xlink:href="../../d3/d93/classnap_1_1_random_fill_policy.html" target="_top" xlink:title="RandomFillPolicy\&lt; T \&gt;">
<polygon fill="white" stroke="black" points="137.5,-0.5 137.5,-19.5 253.5,-19.5 253.5,-0.5 137.5,-0.5"/>
<text text-anchor="middle" x="195.5" y="-7.5" font-family="Helvetica,sans-Serif" font-size="10.00">RandomFillPolicy&lt; T &gt;</text>
</a>
</g>
</g>
<!-- Node3&#45;&gt;Node5 -->
<g id="edge5" class="edge">
<title>Node3&#45;&gt;Node5</title>
<path fill="none" stroke="midnightblue" d="M146.26,-50.1C158.5,-40.38 174.06,-28.03 184.38,-19.83"/>
<polygon fill="midnightblue" stroke="midnightblue" points="144.08,-47.36 138.43,-56.32 148.43,-52.85 144.08,-47.36"/>
</g>
</g>
</svg>
