<?xml version="1.0" encoding="UTF-8" standalone="no"?>
<!DOCTYPE svg PUBLIC "-//W3C//DTD SVG 1.1//EN"
 "http://www.w3.org/Graphics/SVG/1.1/DTD/svg11.dtd">
<!-- Generated by graphviz version 3.0.0 (20220226.1711)
 -->
<!-- Title: SequencePlayerClock Pages: 1 -->
<svg width="484pt" height="116pt"
 viewBox="0.00 0.00 484.00 116.00" xmlns="http://www.w3.org/2000/svg" xmlns:xlink="http://www.w3.org/1999/xlink">
<g id="graph0" class="graph" transform="scale(1 1) rotate(0) translate(4 112)">
<title>SequencePlayerClock</title>
<polygon fill="white" stroke="transparent" points="-4,4 -4,-112 480,-112 480,4 -4,4"/>
<!-- Node0 -->
<g id="node1" class="node">
<title>Node0</title>
<polygon fill="#bfbfbf" stroke="black" points="175,-44.5 175,-63.5 288,-63.5 288,-44.5 175,-44.5"/>
<text text-anchor="middle" x="231.5" y="-51.5" font-family="Helvetica,sans-Serif" font-size="10.00">SequencePlayerClock</text>
</g>
<!-- Node3 -->
<g id="node4" class="node">
<title>Node3</title>
<g id="a_node4"><a xlink:href="../../d6/d0f/classnap_1_1_sequence_player_audio_clock.html" target="_top" xlink:title="SequencePlayerAudioClock">
<polygon fill="white" stroke="black" points="331.5,-88.5 331.5,-107.5 468.5,-107.5 468.5,-88.5 331.5,-88.5"/>
<text text-anchor="middle" x="400" y="-95.5" font-family="Helvetica,sans-Serif" font-size="10.00">SequencePlayerAudioClock</text>
</a>
</g>
</g>
<!-- Node0&#45;&gt;Node3 -->
<g id="edge3" class="edge">
<title>Node0&#45;&gt;Node3</title>
<path fill="none" stroke="midnightblue" d="M276.81,-66.29C291.78,-70.39 308.6,-74.95 324,-79 335.95,-82.15 349,-85.48 360.81,-88.47"/>
<polygon fill="midnightblue" stroke="midnightblue" points="277.36,-62.81 266.79,-63.53 275.5,-69.55 277.36,-62.81"/>
</g>
<!-- Node4 -->
<g id="node5" class="node">
<title>Node4</title>
<g id="a_node5"><a xlink:href="../../de/df4/classnap_1_1_sequence_player_independent_clock.html" target="_top" xlink:title="SequencePlayerIndependent\lClock">
<polygon fill="white" stroke="black" points="330,-39 330,-69 470,-69 470,-39 330,-39"/>
<text text-anchor="start" x="338" y="-57" font-family="Helvetica,sans-Serif" font-size="10.00">SequencePlayerIndependent</text>
<text text-anchor="middle" x="400" y="-46" font-family="Helvetica,sans-Serif" font-size="10.00">Clock</text>
</a>
</g>
</g>
<!-- Node0&#45;&gt;Node4 -->
<g id="edge4" class="edge">
<title>Node0&#45;&gt;Node4</title>
<path fill="none" stroke="midnightblue" d="M298.57,-54C308.88,-54 319.56,-54 329.93,-54"/>
<polygon fill="midnightblue" stroke="midnightblue" points="298.41,-50.5 288.41,-54 298.41,-57.5 298.41,-50.5"/>
</g>
<!-- Node5 -->
<g id="node6" class="node">
<title>Node5</title>
<g id="a_node6"><a xlink:href="../../d0/dd1/classnap_1_1_sequence_player_standard_clock.html" target="_top" xlink:title="SequencePlayerStandardClock">
<polygon fill="white" stroke="black" points="324,-0.5 324,-19.5 476,-19.5 476,-0.5 324,-0.5"/>
<text text-anchor="middle" x="400" y="-7.5" font-family="Helvetica,sans-Serif" font-size="10.00">SequencePlayerStandardClock</text>
</a>
</g>
</g>
<!-- Node0&#45;&gt;Node5 -->
<g id="edge5" class="edge">
<title>Node0&#45;&gt;Node5</title>
<path fill="none" stroke="midnightblue" d="M276.81,-41.71C291.78,-37.61 308.6,-33.05 324,-29 335.95,-25.85 349,-22.52 360.81,-19.53"/>
<polygon fill="midnightblue" stroke="midnightblue" points="275.5,-38.45 266.79,-44.47 277.36,-45.19 275.5,-38.45"/>
</g>
<!-- Node1 -->
<g id="node2" class="node">
<title>Node1</title>
<g id="a_node2"><a xlink:href="../../d9/dea/classnap_1_1_resource.html" target="_top" xlink:title="Resource">
<polygon fill="white" stroke="black" points="81,-44.5 81,-63.5 139,-63.5 139,-44.5 81,-44.5"/>
<text text-anchor="middle" x="110" y="-51.5" font-family="Helvetica,sans-Serif" font-size="10.00">Resource</text>
</a>
</g>
</g>
<!-- Node1&#45;&gt;Node0 -->
<g id="edge1" class="edge">
<title>Node1&#45;&gt;Node0</title>
<path fill="none" stroke="midnightblue" d="M149.06,-54C157.3,-54 166.17,-54 174.93,-54"/>
<polygon fill="midnightblue" stroke="midnightblue" points="149.02,-50.5 139.02,-54 149.02,-57.5 149.02,-50.5"/>
</g>
<!-- Node2 -->
<g id="node3" class="node">
<title>Node2</title>
<g id="a_node3"><a xlink:href="../../de/d01/classnap_1_1rtti_1_1_object.html" target="_top" xlink:title="Object">
<polygon fill="white" stroke="black" points="0,-44.5 0,-63.5 45,-63.5 45,-44.5 0,-44.5"/>
<text text-anchor="middle" x="22.5" y="-51.5" font-family="Helvetica,sans-Serif" font-size="10.00">Object</text>
</a>
</g>
</g>
<!-- Node2&#45;&gt;Node1 -->
<g id="edge2" class="edge">
<title>Node2&#45;&gt;Node1</title>
<path fill="none" stroke="midnightblue" d="M55.31,-54C63.73,-54 72.76,-54 80.96,-54"/>
<polygon fill="midnightblue" stroke="midnightblue" points="55.08,-50.5 45.08,-54 55.08,-57.5 55.08,-50.5"/>
</g>
</g>
</svg>
