<?xml version="1.0" encoding="UTF-8" standalone="no"?>
<!DOCTYPE svg PUBLIC "-//W3C//DTD SVG 1.1//EN"
 "http://www.w3.org/Graphics/SVG/1.1/DTD/svg11.dtd">
<!-- Generated by graphviz version 3.0.0 (20220226.1711)
 -->
<!-- Title: ColorPalette Pages: 1 -->
<svg width="141pt" height="319pt"
 viewBox="0.00 0.00 140.50 319.00" xmlns="http://www.w3.org/2000/svg" xmlns:xlink="http://www.w3.org/1999/xlink">
<g id="graph0" class="graph" transform="scale(1 1) rotate(0) translate(4 315)">
<title>ColorPalette</title>
<polygon fill="white" stroke="transparent" points="-4,4 -4,-315 136.5,-315 136.5,4 -4,4"/>
<!-- Node1 -->
<g id="node1" class="node">
<title>Node1</title>
<polygon fill="#bfbfbf" stroke="black" points="14.5,-0.5 14.5,-19.5 84.5,-19.5 84.5,-0.5 14.5,-0.5"/>
<text text-anchor="middle" x="49.5" y="-7.5" font-family="Helvetica,sans-Serif" font-size="10.00">ColorPalette</text>
</g>
<!-- Node2 -->
<g id="node2" class="node">
<title>Node2</title>
<g id="a_node2"><a xlink:href="../../d4/dd7/classnap_1_1_r_g_b_color.html" target="_top" xlink:title="RGBColor\&lt; uint8 \&gt;">
<polygon fill="white" stroke="black" points="0,-177.5 0,-196.5 99,-196.5 99,-177.5 0,-177.5"/>
<text text-anchor="middle" x="49.5" y="-184.5" font-family="Helvetica,sans-Serif" font-size="10.00">RGBColor&lt; uint8 &gt;</text>
</a>
</g>
</g>
<!-- Node2&#45;&gt;Node1 -->
<g id="edge1" class="edge">
<title>Node2&#45;&gt;Node1</title>
<path fill="none" stroke="#9a32cd" stroke-dasharray="5,2" d="M49.5,-166.95C49.5,-129.3 49.5,-46.65 49.5,-19.69"/>
<polygon fill="#9a32cd" stroke="#9a32cd" points="46,-167.08 49.5,-177.08 53,-167.08 46,-167.08"/>
<text text-anchor="middle" x="91" y="-151" font-family="Helvetica,sans-Serif" font-size="10.00"> mDarkColor</text>
<text text-anchor="middle" x="91" y="-140" font-family="Helvetica,sans-Serif" font-size="10.00">mHighlightColor1</text>
<text text-anchor="middle" x="91" y="-129" font-family="Helvetica,sans-Serif" font-size="10.00">mFront4Color</text>
<text text-anchor="middle" x="91" y="-118" font-family="Helvetica,sans-Serif" font-size="10.00">mHighlightColor2</text>
<text text-anchor="middle" x="91" y="-107" font-family="Helvetica,sans-Serif" font-size="10.00">mHighlightColor3</text>
<text text-anchor="middle" x="91" y="-96" font-family="Helvetica,sans-Serif" font-size="10.00">mFront2Color</text>
<text text-anchor="middle" x="91" y="-85" font-family="Helvetica,sans-Serif" font-size="10.00">mHighlightColor4</text>
<text text-anchor="middle" x="91" y="-74" font-family="Helvetica,sans-Serif" font-size="10.00">mFront3Color</text>
<text text-anchor="middle" x="91" y="-63" font-family="Helvetica,sans-Serif" font-size="10.00">mFront1Color</text>
<text text-anchor="middle" x="91" y="-52" font-family="Helvetica,sans-Serif" font-size="10.00">mBackgroundColor</text>
<text text-anchor="middle" x="91" y="-41" font-family="Helvetica,sans-Serif" font-size="10.00">...</text>
</g>
<!-- Node3 -->
<g id="node3" class="node">
<title>Node3</title>
<g id="a_node3"><a xlink:href="../../d6/d3d/classnap_1_1_color.html" target="_top" xlink:title="Color\&lt; uint8, 3 \&gt;">
<polygon fill="white" stroke="black" points="5,-234.5 5,-253.5 94,-253.5 94,-234.5 5,-234.5"/>
<text text-anchor="middle" x="49.5" y="-241.5" font-family="Helvetica,sans-Serif" font-size="10.00">Color&lt; uint8, 3 &gt;</text>
</a>
</g>
</g>
<!-- Node3&#45;&gt;Node2 -->
<g id="edge2" class="edge">
<title>Node3&#45;&gt;Node2</title>
<path fill="none" stroke="midnightblue" d="M49.5,-224.12C49.5,-214.82 49.5,-204.06 49.5,-196.71"/>
<polygon fill="midnightblue" stroke="midnightblue" points="46,-224.41 49.5,-234.41 53,-224.41 46,-224.41"/>
</g>
<!-- Node4 -->
<g id="node4" class="node">
<title>Node4</title>
<g id="a_node4"><a xlink:href="../../d8/d6a/classnap_1_1_base_color.html" target="_top" xlink:title="BaseColor">
<polygon fill="white" stroke="black" points="18.5,-291.5 18.5,-310.5 80.5,-310.5 80.5,-291.5 18.5,-291.5"/>
<text text-anchor="middle" x="49.5" y="-298.5" font-family="Helvetica,sans-Serif" font-size="10.00">BaseColor</text>
</a>
</g>
</g>
<!-- Node4&#45;&gt;Node3 -->
<g id="edge3" class="edge">
<title>Node4&#45;&gt;Node3</title>
<path fill="none" stroke="midnightblue" d="M49.5,-281.12C49.5,-271.82 49.5,-261.06 49.5,-253.71"/>
<polygon fill="midnightblue" stroke="midnightblue" points="46,-281.41 49.5,-291.41 53,-281.41 46,-281.41"/>
</g>
</g>
</svg>
