<?xml version="1.0" encoding="UTF-8" standalone="no"?>
<!DOCTYPE svg PUBLIC "-//W3C//DTD SVG 1.1//EN"
 "http://www.w3.org/Graphics/SVG/1.1/DTD/svg11.dtd">
<!-- Generated by graphviz version 3.0.0 (20220226.1711)
 -->
<!-- Title: ControllerAxisEvent Pages: 1 -->
<svg width="109pt" height="196pt"
 viewBox="0.00 0.00 109.00 196.00" xmlns="http://www.w3.org/2000/svg" xmlns:xlink="http://www.w3.org/1999/xlink">
<g id="graph0" class="graph" transform="scale(1 1) rotate(0) translate(4 192)">
<title>ControllerAxisEvent</title>
<polygon fill="white" stroke="transparent" points="-4,4 -4,-192 105,-192 105,4 -4,4"/>
<!-- Node4 -->
<g id="node1" class="node">
<title>Node4</title>
<polygon fill="#bfbfbf" stroke="black" points="0,-0.5 0,-19.5 101,-19.5 101,-0.5 0,-0.5"/>
<text text-anchor="middle" x="50.5" y="-7.5" font-family="Helvetica,sans-Serif" font-size="10.00">ControllerAxisEvent</text>
</g>
<!-- Node5 -->
<g id="node2" class="node">
<title>Node5</title>
<g id="a_node2"><a xlink:href="../../d6/ded/classnap_1_1_controller_event.html" target="_top" xlink:title="ControllerEvent">
<polygon fill="white" stroke="black" points="9.5,-56.5 9.5,-75.5 91.5,-75.5 91.5,-56.5 9.5,-56.5"/>
<text text-anchor="middle" x="50.5" y="-63.5" font-family="Helvetica,sans-Serif" font-size="10.00">ControllerEvent</text>
</a>
</g>
</g>
<!-- Node5&#45;&gt;Node4 -->
<g id="edge1" class="edge">
<title>Node5&#45;&gt;Node4</title>
<path fill="none" stroke="midnightblue" d="M50.5,-45.8C50.5,-36.91 50.5,-26.78 50.5,-19.75"/>
<polygon fill="midnightblue" stroke="midnightblue" points="47,-46.08 50.5,-56.08 54,-46.08 47,-46.08"/>
</g>
<!-- Node6 -->
<g id="node3" class="node">
<title>Node6</title>
<g id="a_node3"><a xlink:href="../../dc/dc0/classnap_1_1_input_event.html" target="_top" xlink:title="InputEvent">
<polygon fill="white" stroke="black" points="19.5,-112.5 19.5,-131.5 81.5,-131.5 81.5,-112.5 19.5,-112.5"/>
<text text-anchor="middle" x="50.5" y="-119.5" font-family="Helvetica,sans-Serif" font-size="10.00">InputEvent</text>
</a>
</g>
</g>
<!-- Node6&#45;&gt;Node5 -->
<g id="edge2" class="edge">
<title>Node6&#45;&gt;Node5</title>
<path fill="none" stroke="midnightblue" d="M50.5,-101.8C50.5,-92.91 50.5,-82.78 50.5,-75.75"/>
<polygon fill="midnightblue" stroke="midnightblue" points="47,-102.08 50.5,-112.08 54,-102.08 47,-102.08"/>
</g>
<!-- Node7 -->
<g id="node4" class="node">
<title>Node7</title>
<g id="a_node4"><a xlink:href="../../d2/da2/classnap_1_1_event.html" target="_top" xlink:title="Event">
<polygon fill="white" stroke="black" points="30,-168.5 30,-187.5 71,-187.5 71,-168.5 30,-168.5"/>
<text text-anchor="middle" x="50.5" y="-175.5" font-family="Helvetica,sans-Serif" font-size="10.00">Event</text>
</a>
</g>
</g>
<!-- Node7&#45;&gt;Node6 -->
<g id="edge3" class="edge">
<title>Node7&#45;&gt;Node6</title>
<path fill="none" stroke="midnightblue" d="M50.5,-157.8C50.5,-148.91 50.5,-138.78 50.5,-131.75"/>
<polygon fill="midnightblue" stroke="midnightblue" points="47,-158.08 50.5,-168.08 54,-158.08 47,-158.08"/>
</g>
</g>
</svg>
