<?xml version="1.0" encoding="UTF-8" standalone="no"?>
<!DOCTYPE svg PUBLIC "-//W3C//DTD SVG 1.1//EN"
 "http://www.w3.org/Graphics/SVG/1.1/DTD/svg11.dtd">
<!-- Generated by graphviz version 2.43.0 (0)
 -->
<!-- Title: UniformInstance Pages: 1 -->
<svg width="592pt" height="196pt"
 viewBox="0.00 0.00 592.00 196.00" xmlns="http://www.w3.org/2000/svg" xmlns:xlink="http://www.w3.org/1999/xlink">
<g id="graph0" class="graph" transform="scale(1 1) rotate(0) translate(4 192)">
<title>UniformInstance</title>
<polygon fill="white" stroke="transparent" points="-4,4 -4,-192 588,-192 588,4 -4,4"/>
<!-- Node1 -->
<g id="node1" class="node">
<title>Node1</title>
<g id="a_node1"><a xlink:title=" ">
<polygon fill="#bfbfbf" stroke="black" points="315,-168.5 315,-187.5 413,-187.5 413,-168.5 315,-168.5"/>
<text text-anchor="middle" x="364" y="-175.5" font-family="Helvetica,sans-Serif" font-size="10.00">UniformInstance</text>
</a>
</g>
</g>
<!-- Node2 -->
<g id="node2" class="node">
<title>Node2</title>
<g id="a_node2"><a xlink:href="../../dd/d94/classnap_1_1_uniform_leaf_instance.html" target="_top" xlink:title=" ">
<polygon fill="white" stroke="black" points="150.5,-112.5 150.5,-131.5 269.5,-131.5 269.5,-112.5 150.5,-112.5"/>
<text text-anchor="middle" x="210" y="-119.5" font-family="Helvetica,sans-Serif" font-size="10.00">UniformLeafInstance</text>
</a>
</g>
</g>
<!-- Node1&#45;&gt;Node2 -->
<g id="edge1" class="edge">
<title>Node1&#45;&gt;Node2</title>
<path fill="none" stroke="midnightblue" d="M329.89,-165.04C300.91,-154.88 260.04,-140.55 234.29,-131.52"/>
<polygon fill="midnightblue" stroke="midnightblue" points="329,-168.44 339.6,-168.44 331.32,-161.83 329,-168.44"/>
</g>
<!-- Node7 -->
<g id="node7" class="node">
<title>Node7</title>
<g id="a_node7"><a xlink:href="../../d4/da2/classnap_1_1_uniform_struct_array_instance.html" target="_top" xlink:title=" ">
<polygon fill="white" stroke="black" points="288,-112.5 288,-131.5 440,-131.5 440,-112.5 288,-112.5"/>
<text text-anchor="middle" x="364" y="-119.5" font-family="Helvetica,sans-Serif" font-size="10.00">UniformStructArrayInstance</text>
</a>
</g>
</g>
<!-- Node1&#45;&gt;Node7 -->
<g id="edge6" class="edge">
<title>Node1&#45;&gt;Node7</title>
<path fill="none" stroke="midnightblue" d="M364,-157.8C364,-148.91 364,-138.78 364,-131.75"/>
<polygon fill="midnightblue" stroke="midnightblue" points="360.5,-158.08 364,-168.08 367.5,-158.08 360.5,-158.08"/>
</g>
<!-- Node8 -->
<g id="node8" class="node">
<title>Node8</title>
<g id="a_node8"><a xlink:href="../../dd/d44/classnap_1_1_uniform_struct_instance.html" target="_top" xlink:title=" ">
<polygon fill="white" stroke="black" points="458,-112.5 458,-131.5 584,-131.5 584,-112.5 458,-112.5"/>
<text text-anchor="middle" x="521" y="-119.5" font-family="Helvetica,sans-Serif" font-size="10.00">UniformStructInstance</text>
</a>
</g>
</g>
<!-- Node1&#45;&gt;Node8 -->
<g id="edge7" class="edge">
<title>Node1&#45;&gt;Node8</title>
<path fill="none" stroke="midnightblue" d="M398.39,-165.17C427.95,-155 469.87,-140.59 496.24,-131.52"/>
<polygon fill="midnightblue" stroke="midnightblue" points="397.2,-161.88 388.88,-168.44 399.47,-168.5 397.2,-161.88"/>
</g>
<!-- Node3 -->
<g id="node3" class="node">
<title>Node3</title>
<g id="a_node3"><a xlink:href="../../d8/da5/classnap_1_1_uniform_value_array_instance.html" target="_top" xlink:title=" ">
<polygon fill="white" stroke="black" points="56.5,-56.5 56.5,-75.5 207.5,-75.5 207.5,-56.5 56.5,-56.5"/>
<text text-anchor="middle" x="132" y="-63.5" font-family="Helvetica,sans-Serif" font-size="10.00">UniformValueArrayInstance</text>
</a>
</g>
</g>
<!-- Node2&#45;&gt;Node3 -->
<g id="edge2" class="edge">
<title>Node2&#45;&gt;Node3</title>
<path fill="none" stroke="midnightblue" d="M189.23,-106.62C174.98,-96.76 156.54,-83.99 144.5,-75.65"/>
<polygon fill="midnightblue" stroke="midnightblue" points="187.25,-109.51 197.47,-112.32 191.24,-103.75 187.25,-109.51"/>
</g>
<!-- Node5 -->
<g id="node5" class="node">
<title>Node5</title>
<g id="a_node5"><a xlink:href="../../d0/dac/classnap_1_1_uniform_value_instance.html" target="_top" xlink:title=" ">
<polygon fill="white" stroke="black" points="239.5,-56.5 239.5,-75.5 364.5,-75.5 364.5,-56.5 239.5,-56.5"/>
<text text-anchor="middle" x="302" y="-63.5" font-family="Helvetica,sans-Serif" font-size="10.00">UniformValueInstance</text>
</a>
</g>
</g>
<!-- Node2&#45;&gt;Node5 -->
<g id="edge4" class="edge">
<title>Node2&#45;&gt;Node5</title>
<path fill="none" stroke="midnightblue" d="M233.55,-107.18C250.48,-97.24 272.78,-84.15 287.26,-75.65"/>
<polygon fill="midnightblue" stroke="midnightblue" points="231.63,-104.24 224.78,-112.32 235.18,-110.28 231.63,-104.24"/>
</g>
<!-- Node4 -->
<g id="node4" class="node">
<title>Node4</title>
<g id="a_node4"><a xlink:href="../../d3/d48/classnap_1_1_typed_uniform_value_array_instance.html" target="_top" xlink:title=" ">
<polygon fill="white" stroke="black" points="0,-0.5 0,-19.5 208,-19.5 208,-0.5 0,-0.5"/>
<text text-anchor="middle" x="104" y="-7.5" font-family="Helvetica,sans-Serif" font-size="10.00">TypedUniformValueArrayInstance&lt; T &gt;</text>
</a>
</g>
</g>
<!-- Node3&#45;&gt;Node4 -->
<g id="edge3" class="edge">
<title>Node3&#45;&gt;Node4</title>
<path fill="none" stroke="midnightblue" d="M122.66,-46.98C117.91,-37.82 112.34,-27.09 108.54,-19.75"/>
<polygon fill="midnightblue" stroke="midnightblue" points="119.67,-48.82 127.38,-56.08 125.88,-45.59 119.67,-48.82"/>
</g>
<!-- Node6 -->
<g id="node6" class="node">
<title>Node6</title>
<g id="a_node6"><a xlink:href="../../d7/d60/classnap_1_1_typed_uniform_value_instance.html" target="_top" xlink:title=" ">
<polygon fill="white" stroke="black" points="226,-0.5 226,-19.5 408,-19.5 408,-0.5 226,-0.5"/>
<text text-anchor="middle" x="317" y="-7.5" font-family="Helvetica,sans-Serif" font-size="10.00">TypedUniformValueInstance&lt; T &gt;</text>
</a>
</g>
</g>
<!-- Node5&#45;&gt;Node6 -->
<g id="edge5" class="edge">
<title>Node5&#45;&gt;Node6</title>
<path fill="none" stroke="midnightblue" d="M307.17,-46.4C309.68,-37.36 312.57,-26.94 314.57,-19.75"/>
<polygon fill="midnightblue" stroke="midnightblue" points="303.78,-45.51 304.48,-56.08 310.53,-47.38 303.78,-45.51"/>
</g>
</g>
</svg>
