<?xml version="1.0" encoding="UTF-8" standalone="no"?>
<!DOCTYPE svg PUBLIC "-//W3C//DTD SVG 1.1//EN"
 "http://www.w3.org/Graphics/SVG/1.1/DTD/svg11.dtd">
<!-- Generated by graphviz version 3.0.0 (20220226.1711)
 -->
<!-- Title: UniqueCalendarItem Pages: 1 -->
<svg width="163pt" height="240pt"
 viewBox="0.00 0.00 162.50 240.00" xmlns="http://www.w3.org/2000/svg" xmlns:xlink="http://www.w3.org/1999/xlink">
<g id="graph0" class="graph" transform="scale(1 1) rotate(0) translate(4 236)">
<title>UniqueCalendarItem</title>
<polygon fill="white" stroke="transparent" points="-4,4 -4,-236 158.5,-236 158.5,4 -4,4"/>
<!-- Node4 -->
<g id="node1" class="node">
<title>Node4</title>
<polygon fill="#bfbfbf" stroke="black" points="47,-0.5 47,-19.5 151,-19.5 151,-0.5 47,-0.5"/>
<text text-anchor="middle" x="99" y="-7.5" font-family="Helvetica,sans-Serif" font-size="10.00">UniqueCalendarItem</text>
</g>
<!-- Node5 -->
<g id="node2" class="node">
<title>Node5</title>
<g id="a_node2"><a xlink:href="../../df/d37/classnap_1_1_calendar_item.html" target="_top" xlink:title="CalendarItem">
<polygon fill="white" stroke="black" points="25,-67.5 25,-86.5 99,-86.5 99,-67.5 25,-67.5"/>
<text text-anchor="middle" x="62" y="-74.5" font-family="Helvetica,sans-Serif" font-size="10.00">CalendarItem</text>
</a>
</g>
</g>
<!-- Node5&#45;&gt;Node4 -->
<g id="edge1" class="edge">
<title>Node5&#45;&gt;Node4</title>
<path fill="none" stroke="midnightblue" d="M71.94,-58.53C79.11,-45.95 88.47,-29.51 94.09,-19.63"/>
<polygon fill="midnightblue" stroke="midnightblue" points="68.9,-56.81 66.99,-67.23 74.98,-60.27 68.9,-56.81"/>
</g>
<!-- Node6 -->
<g id="node3" class="node">
<title>Node6</title>
<g id="a_node3"><a xlink:href="../../d9/dea/classnap_1_1_resource.html" target="_top" xlink:title="Resource">
<polygon fill="white" stroke="black" points="0,-134.5 0,-153.5 58,-153.5 58,-134.5 0,-134.5"/>
<text text-anchor="middle" x="29" y="-141.5" font-family="Helvetica,sans-Serif" font-size="10.00">Resource</text>
</a>
</g>
</g>
<!-- Node6&#45;&gt;Node5 -->
<g id="edge2" class="edge">
<title>Node6&#45;&gt;Node5</title>
<path fill="none" stroke="midnightblue" d="M38.06,-125.16C44.42,-112.63 52.65,-96.41 57.62,-86.63"/>
<polygon fill="midnightblue" stroke="midnightblue" points="34.86,-123.73 33.45,-134.23 41.1,-126.9 34.86,-123.73"/>
</g>
<!-- Node7 -->
<g id="node4" class="node">
<title>Node7</title>
<g id="a_node4"><a xlink:href="../../de/d01/classnap_1_1rtti_1_1_object.html" target="_top" xlink:title="Object">
<polygon fill="white" stroke="black" points="6.5,-212.5 6.5,-231.5 51.5,-231.5 51.5,-212.5 6.5,-212.5"/>
<text text-anchor="middle" x="29" y="-219.5" font-family="Helvetica,sans-Serif" font-size="10.00">Object</text>
</a>
</g>
</g>
<!-- Node7&#45;&gt;Node6 -->
<g id="edge3" class="edge">
<title>Node7&#45;&gt;Node6</title>
<path fill="none" stroke="midnightblue" d="M29,-202.22C29,-186.7 29,-165.36 29,-153.62"/>
<polygon fill="midnightblue" stroke="midnightblue" points="25.5,-202.28 29,-212.28 32.5,-202.28 25.5,-202.28"/>
</g>
<!-- Node8 -->
<g id="node5" class="node">
<title>Node8</title>
<g id="a_node5"><a xlink:href="../../d1/d8d/structnap_1_1_calendar_item_1_1_point.html" target="_top" xlink:title="Point">
<polygon fill="white" stroke="black" points="76.5,-134.5 76.5,-153.5 115.5,-153.5 115.5,-134.5 76.5,-134.5"/>
<text text-anchor="middle" x="96" y="-141.5" font-family="Helvetica,sans-Serif" font-size="10.00">Point</text>
</a>
</g>
</g>
<!-- Node8&#45;&gt;Node5 -->
<g id="edge4" class="edge">
<title>Node8&#45;&gt;Node5</title>
<path fill="none" stroke="#9a32cd" stroke-dasharray="5,2" d="M86.67,-125.16C80.11,-112.63 71.63,-96.41 66.51,-86.63"/>
<polygon fill="#9a32cd" stroke="#9a32cd" points="83.68,-127 91.41,-134.23 89.88,-123.75 83.68,-127"/>
<text text-anchor="middle" x="99" y="-108" font-family="Helvetica,sans-Serif" font-size="10.00"> mPoint</text>
</g>
<!-- Node9 -->
<g id="node6" class="node">
<title>Node9</title>
<g id="a_node6"><a xlink:href="../../d4/db2/structnap_1_1_calendar_item_1_1_time.html" target="_top" xlink:title="Time">
<polygon fill="white" stroke="black" points="77,-212.5 77,-231.5 115,-231.5 115,-212.5 77,-212.5"/>
<text text-anchor="middle" x="96" y="-219.5" font-family="Helvetica,sans-Serif" font-size="10.00">Time</text>
</a>
</g>
</g>
<!-- Node9&#45;&gt;Node8 -->
<g id="edge5" class="edge">
<title>Node9&#45;&gt;Node8</title>
<path fill="none" stroke="#9a32cd" stroke-dasharray="5,2" d="M96,-202.22C96,-186.7 96,-165.36 96,-153.62"/>
<polygon fill="#9a32cd" stroke="#9a32cd" points="92.5,-202.28 96,-212.28 99.5,-202.28 92.5,-202.28"/>
<text text-anchor="middle" x="118.5" y="-186" font-family="Helvetica,sans-Serif" font-size="10.00"> mTime</text>
<text text-anchor="middle" x="118.5" y="-175" font-family="Helvetica,sans-Serif" font-size="10.00">mDuration</text>
</g>
<!-- Node10 -->
<g id="node7" class="node">
<title>Node10</title>
<g id="a_node7"><a xlink:href="../../d7/d59/classnap_1_1_date.html" target="_top" xlink:title="Date">
<polygon fill="white" stroke="black" points="117.5,-67.5 117.5,-86.5 154.5,-86.5 154.5,-67.5 117.5,-67.5"/>
<text text-anchor="middle" x="136" y="-74.5" font-family="Helvetica,sans-Serif" font-size="10.00">Date</text>
</a>
</g>
</g>
<!-- Node10&#45;&gt;Node4 -->
<g id="edge6" class="edge">
<title>Node10&#45;&gt;Node4</title>
<path fill="none" stroke="#9a32cd" stroke-dasharray="5,2" d="M126.06,-58.53C118.89,-45.95 109.53,-29.51 103.91,-19.63"/>
<polygon fill="#9a32cd" stroke="#9a32cd" points="123.02,-60.27 131.01,-67.23 129.1,-56.81 123.02,-60.27"/>
<text text-anchor="middle" x="135" y="-41" font-family="Helvetica,sans-Serif" font-size="10.00"> mDate</text>
</g>
</g>
</svg>
