<?xml version="1.0" encoding="UTF-8" standalone="no"?>
<!DOCTYPE svg PUBLIC "-//W3C//DTD SVG 1.1//EN"
 "http://www.w3.org/Graphics/SVG/1.1/DTD/svg11.dtd">
<!-- Generated by graphviz version 3.0.0 (20220226.1711)
 -->
<!-- Title: UniformValueArrayInstance Pages: 1 -->
<svg width="276pt" height="152pt"
 viewBox="0.00 0.00 276.00 152.00" xmlns="http://www.w3.org/2000/svg" xmlns:xlink="http://www.w3.org/1999/xlink">
<g id="graph0" class="graph" transform="scale(1 1) rotate(0) translate(4 148)">
<title>UniformValueArrayInstance</title>
<polygon fill="white" stroke="transparent" points="-4,4 -4,-148 272,-148 272,4 -4,4"/>
<!-- Node4 -->
<g id="node1" class="node">
<title>Node4</title>
<polygon fill="#bfbfbf" stroke="black" points="56,-0.5 56,-19.5 190,-19.5 190,-0.5 56,-0.5"/>
<text text-anchor="middle" x="123" y="-7.5" font-family="Helvetica,sans-Serif" font-size="10.00">UniformValueArrayInstance</text>
</g>
<!-- Node5 -->
<g id="node2" class="node">
<title>Node5</title>
<g id="a_node2"><a xlink:href="../../dd/d94/classnap_1_1_uniform_leaf_instance.html" target="_top" xlink:title="UniformLeafInstance">
<polygon fill="white" stroke="black" points="0,-67.5 0,-86.5 104,-86.5 104,-67.5 0,-67.5"/>
<text text-anchor="middle" x="52" y="-74.5" font-family="Helvetica,sans-Serif" font-size="10.00">UniformLeafInstance</text>
</a>
</g>
</g>
<!-- Node5&#45;&gt;Node4 -->
<g id="edge1" class="edge">
<title>Node5&#45;&gt;Node4</title>
<path fill="none" stroke="midnightblue" d="M69.09,-60.36C83.05,-47.58 102.26,-29.99 113.58,-19.63"/>
<polygon fill="midnightblue" stroke="midnightblue" points="66.59,-57.9 61.58,-67.23 71.31,-63.06 66.59,-57.9"/>
</g>
<!-- Node6 -->
<g id="node3" class="node">
<title>Node6</title>
<g id="a_node3"><a xlink:href="../../d6/d6a/classnap_1_1_uniform_instance.html" target="_top" xlink:title="UniformInstance">
<polygon fill="white" stroke="black" points="9,-124.5 9,-143.5 95,-143.5 95,-124.5 9,-124.5"/>
<text text-anchor="middle" x="52" y="-131.5" font-family="Helvetica,sans-Serif" font-size="10.00">UniformInstance</text>
</a>
</g>
</g>
<!-- Node6&#45;&gt;Node5 -->
<g id="edge2" class="edge">
<title>Node6&#45;&gt;Node5</title>
<path fill="none" stroke="midnightblue" d="M52,-114.12C52,-104.82 52,-94.06 52,-86.71"/>
<polygon fill="midnightblue" stroke="midnightblue" points="48.5,-114.41 52,-124.41 55.5,-114.41 48.5,-114.41"/>
</g>
<!-- Node7 -->
<g id="node4" class="node">
<title>Node7</title>
<g id="a_node4"><a xlink:href="../../d5/dad/classnap_1_1_uniform_value_array_declaration.html" target="_top" xlink:title="UniformValueArrayDeclaration">
<polygon fill="white" stroke="black" points="122,-67.5 122,-86.5 268,-86.5 268,-67.5 122,-67.5"/>
<text text-anchor="middle" x="195" y="-74.5" font-family="Helvetica,sans-Serif" font-size="10.00">UniformValueArrayDeclaration</text>
</a>
</g>
</g>
<!-- Node7&#45;&gt;Node4 -->
<g id="edge3" class="edge">
<title>Node7&#45;&gt;Node4</title>
<path fill="none" stroke="#9a32cd" stroke-dasharray="5,2" d="M177.67,-60.36C163.52,-47.58 144.04,-29.99 132.56,-19.63"/>
<polygon fill="#9a32cd" stroke="#9a32cd" points="175.52,-63.13 185.29,-67.23 180.21,-57.93 175.52,-63.13"/>
<text text-anchor="middle" x="194.5" y="-41" font-family="Helvetica,sans-Serif" font-size="10.00"> mDeclaration</text>
</g>
<!-- Node8 -->
<g id="node5" class="node">
<title>Node8</title>
<g id="a_node5"><a xlink:href="../../d9/dfc/classnap_1_1_uniform_declaration.html" target="_top" xlink:title="UniformDeclaration">
<polygon fill="white" stroke="black" points="146,-124.5 146,-143.5 244,-143.5 244,-124.5 146,-124.5"/>
<text text-anchor="middle" x="195" y="-131.5" font-family="Helvetica,sans-Serif" font-size="10.00">UniformDeclaration</text>
</a>
</g>
</g>
<!-- Node8&#45;&gt;Node7 -->
<g id="edge4" class="edge">
<title>Node8&#45;&gt;Node7</title>
<path fill="none" stroke="midnightblue" d="M195,-114.12C195,-104.82 195,-94.06 195,-86.71"/>
<polygon fill="midnightblue" stroke="midnightblue" points="191.5,-114.41 195,-124.41 198.5,-114.41 191.5,-114.41"/>
</g>
</g>
</svg>
