<?xml version="1.0" encoding="UTF-8" standalone="no"?>
<!DOCTYPE svg PUBLIC "-//W3C//DTD SVG 1.1//EN"
 "http://www.w3.org/Graphics/SVG/1.1/DTD/svg11.dtd">
<!-- Generated by graphviz version 3.0.0 (20220226.1711)
 -->
<!-- Title: ImageFromFile Pages: 1 -->
<svg width="311pt" height="287pt"
 viewBox="0.00 0.00 310.50 287.00" xmlns="http://www.w3.org/2000/svg" xmlns:xlink="http://www.w3.org/1999/xlink">
<g id="graph0" class="graph" transform="scale(1 1) rotate(0) translate(4 283)">
<title>ImageFromFile</title>
<polygon fill="white" stroke="transparent" points="-4,4 -4,-283 306.5,-283 306.5,4 -4,4"/>
<!-- Node5 -->
<g id="node1" class="node">
<title>Node5</title>
<polygon fill="#bfbfbf" stroke="black" points="31.5,-0.5 31.5,-19.5 112.5,-19.5 112.5,-0.5 31.5,-0.5"/>
<text text-anchor="middle" x="72" y="-7.5" font-family="Helvetica,sans-Serif" font-size="10.00">ImageFromFile</text>
</g>
<!-- Node6 -->
<g id="node2" class="node">
<title>Node6</title>
<g id="a_node2"><a xlink:href="../../dd/d82/classnap_1_1_image.html" target="_top" xlink:title="Image">
<polygon fill="white" stroke="black" points="50.5,-57.5 50.5,-76.5 93.5,-76.5 93.5,-57.5 50.5,-57.5"/>
<text text-anchor="middle" x="72" y="-64.5" font-family="Helvetica,sans-Serif" font-size="10.00">Image</text>
</a>
</g>
</g>
<!-- Node6&#45;&gt;Node5 -->
<g id="edge1" class="edge">
<title>Node6&#45;&gt;Node5</title>
<path fill="none" stroke="midnightblue" d="M72,-47.12C72,-37.82 72,-27.06 72,-19.71"/>
<polygon fill="midnightblue" stroke="midnightblue" points="68.5,-47.41 72,-57.41 75.5,-47.41 68.5,-47.41"/>
</g>
<!-- Node7 -->
<g id="node3" class="node">
<title>Node7</title>
<g id="a_node3"><a xlink:href="../../d6/d0e/classnap_1_1_texture2_d.html" target="_top" xlink:title="Texture2D">
<polygon fill="white" stroke="black" points="41.5,-114.5 41.5,-133.5 102.5,-133.5 102.5,-114.5 41.5,-114.5"/>
<text text-anchor="middle" x="72" y="-121.5" font-family="Helvetica,sans-Serif" font-size="10.00">Texture2D</text>
</a>
</g>
</g>
<!-- Node7&#45;&gt;Node6 -->
<g id="edge2" class="edge">
<title>Node7&#45;&gt;Node6</title>
<path fill="none" stroke="midnightblue" d="M72,-104.12C72,-94.82 72,-84.06 72,-76.71"/>
<polygon fill="midnightblue" stroke="midnightblue" points="68.5,-104.41 72,-114.41 75.5,-104.41 68.5,-104.41"/>
</g>
<!-- Node8 -->
<g id="node4" class="node">
<title>Node8</title>
<g id="a_node4"><a xlink:href="../../d9/dea/classnap_1_1_resource.html" target="_top" xlink:title="Resource">
<polygon fill="white" stroke="black" points="0,-181.5 0,-200.5 58,-200.5 58,-181.5 0,-181.5"/>
<text text-anchor="middle" x="29" y="-188.5" font-family="Helvetica,sans-Serif" font-size="10.00">Resource</text>
</a>
</g>
</g>
<!-- Node8&#45;&gt;Node7 -->
<g id="edge3" class="edge">
<title>Node8&#45;&gt;Node7</title>
<path fill="none" stroke="midnightblue" d="M40.55,-172.53C48.88,-159.95 59.76,-143.51 66.29,-133.63"/>
<polygon fill="midnightblue" stroke="midnightblue" points="37.4,-170.96 34.8,-181.23 43.24,-174.82 37.4,-170.96"/>
</g>
<!-- Node9 -->
<g id="node5" class="node">
<title>Node9</title>
<g id="a_node5"><a xlink:href="../../de/d01/classnap_1_1rtti_1_1_object.html" target="_top" xlink:title="Object">
<polygon fill="white" stroke="black" points="6.5,-259.5 6.5,-278.5 51.5,-278.5 51.5,-259.5 6.5,-259.5"/>
<text text-anchor="middle" x="29" y="-266.5" font-family="Helvetica,sans-Serif" font-size="10.00">Object</text>
</a>
</g>
</g>
<!-- Node9&#45;&gt;Node8 -->
<g id="edge4" class="edge">
<title>Node9&#45;&gt;Node8</title>
<path fill="none" stroke="midnightblue" d="M29,-249.22C29,-233.7 29,-212.36 29,-200.62"/>
<polygon fill="midnightblue" stroke="midnightblue" points="25.5,-249.28 29,-259.28 32.5,-249.28 25.5,-249.28"/>
</g>
<!-- Node10 -->
<g id="node6" class="node">
<title>Node10</title>
<g id="a_node6"><a xlink:href="../../d5/dc6/classnap_1_1_render_service.html" target="_top" xlink:title="RenderService">
<polygon fill="white" stroke="black" points="76.5,-181.5 76.5,-200.5 155.5,-200.5 155.5,-181.5 76.5,-181.5"/>
<text text-anchor="middle" x="116" y="-188.5" font-family="Helvetica,sans-Serif" font-size="10.00">RenderService</text>
</a>
</g>
</g>
<!-- Node10&#45;&gt;Node7 -->
<g id="edge5" class="edge">
<title>Node10&#45;&gt;Node7</title>
<path fill="none" stroke="#9a32cd" stroke-dasharray="5,2" d="M104.43,-172.9C95.88,-160.27 84.59,-143.6 77.84,-133.63"/>
<polygon fill="#9a32cd" stroke="#9a32cd" points="101.56,-174.91 110.07,-181.23 107.36,-170.99 101.56,-174.91"/>
<text text-anchor="middle" x="134" y="-155" font-family="Helvetica,sans-Serif" font-size="10.00"> mRenderService</text>
</g>
<!-- Node11 -->
<g id="node7" class="node">
<title>Node11</title>
<g id="a_node7"><a xlink:href="../../d8/d8e/classnap_1_1_service.html" target="_top" xlink:title="Service">
<polygon fill="white" stroke="black" points="81,-259.5 81,-278.5 129,-278.5 129,-259.5 81,-259.5"/>
<text text-anchor="middle" x="105" y="-266.5" font-family="Helvetica,sans-Serif" font-size="10.00">Service</text>
</a>
</g>
</g>
<!-- Node11&#45;&gt;Node10 -->
<g id="edge6" class="edge">
<title>Node11&#45;&gt;Node10</title>
<path fill="none" stroke="midnightblue" d="M107.72,-249.22C109.96,-233.7 113.05,-212.36 114.75,-200.62"/>
<polygon fill="midnightblue" stroke="midnightblue" points="104.23,-248.88 106.26,-259.28 111.16,-249.89 104.23,-248.88"/>
</g>
<!-- Node12 -->
<g id="node8" class="node">
<title>Node12</title>
<g id="a_node8"><a xlink:href="../../de/d80/classnap_1_1_signal.html" target="_top" xlink:title="Signal\&lt; nap::RenderWindow &amp;\&gt;">
<polygon fill="white" stroke="black" points="147.5,-259.5 147.5,-278.5 302.5,-278.5 302.5,-259.5 147.5,-259.5"/>
<text text-anchor="middle" x="225" y="-266.5" font-family="Helvetica,sans-Serif" font-size="10.00">Signal&lt; nap::RenderWindow &amp;&gt;</text>
</a>
</g>
</g>
<!-- Node12&#45;&gt;Node10 -->
<g id="edge7" class="edge">
<title>Node12&#45;&gt;Node10</title>
<path fill="none" stroke="#9a32cd" stroke-dasharray="5,2" d="M204,-253.36C181.57,-237.72 146.75,-213.44 128.36,-200.62"/>
<polygon fill="#9a32cd" stroke="#9a32cd" points="202.29,-256.43 212.5,-259.28 206.3,-250.69 202.29,-256.43"/>
<text text-anchor="middle" x="221.5" y="-233" font-family="Helvetica,sans-Serif" font-size="10.00"> windowRemoved</text>
<text text-anchor="middle" x="221.5" y="-222" font-family="Helvetica,sans-Serif" font-size="10.00">windowAdded</text>
</g>
</g>
</svg>
