<?xml version="1.0" encoding="UTF-8" standalone="no"?>
<!DOCTYPE svg PUBLIC "-//W3C//DTD SVG 1.1//EN"
 "http://www.w3.org/Graphics/SVG/1.1/DTD/svg11.dtd">
<!-- Generated by graphviz version 2.48.0 (20210717.1556)
 -->
<!-- Title: Process Pages: 1 -->
<svg width="416pt" height="484pt"
 viewBox="0.00 0.00 416.00 484.00" xmlns="http://www.w3.org/2000/svg" xmlns:xlink="http://www.w3.org/1999/xlink">
<g id="graph0" class="graph" transform="scale(1 1) rotate(0) translate(4 480)">
<title>Process</title>
<polygon fill="white" stroke="transparent" points="-4,4 -4,-480 412,-480 412,4 -4,4"/>
<!-- Node0 -->
<g id="node1" class="node">
<title>Node0</title>
<polygon fill="#bfbfbf" stroke="black" points="0,-190.5 0,-209.5 53,-209.5 53,-190.5 0,-190.5"/>
<text text-anchor="middle" x="26.5" y="-197.5" font-family="Helvetica,sans-Serif" font-size="10.00">Process</text>
</g>
<!-- Node1 -->
<g id="node2" class="node">
<title>Node1</title>
<g id="a_node2"><a xlink:href="../../dc/d0d/classnap_1_1audio_1_1_node.html" target="_top" xlink:title="Node">
<polygon fill="white" stroke="black" points="138,-228.5 138,-247.5 177,-247.5 177,-228.5 138,-228.5"/>
<text text-anchor="middle" x="157.5" y="-235.5" font-family="Helvetica,sans-Serif" font-size="10.00">Node</text>
</a>
</g>
</g>
<!-- Node0&#45;&gt;Node1 -->
<g id="edge1" class="edge">
<title>Node0&#45;&gt;Node1</title>
<path fill="none" stroke="midnightblue" d="M62.88,-211.1C71.42,-213.73 80.53,-216.5 89,-219 105.46,-223.86 124.27,-229.13 137.84,-232.88"/>
<polygon fill="midnightblue" stroke="midnightblue" points="63.78,-207.71 53.19,-208.1 61.71,-214.4 63.78,-207.71"/>
</g>
<!-- Node15 -->
<g id="node16" class="node">
<title>Node15</title>
<g id="a_node16"><a xlink:href="../../dd/d43/classnap_1_1audio_1_1_parent_process.html" target="_top" xlink:title="ParentProcess">
<polygon fill="white" stroke="black" points="117,-190.5 117,-209.5 198,-209.5 198,-190.5 117,-190.5"/>
<text text-anchor="middle" x="157.5" y="-197.5" font-family="Helvetica,sans-Serif" font-size="10.00">ParentProcess</text>
</a>
</g>
</g>
<!-- Node0&#45;&gt;Node15 -->
<g id="edge15" class="edge">
<title>Node0&#45;&gt;Node15</title>
<path fill="none" stroke="midnightblue" d="M63.65,-200C80.19,-200 99.83,-200 116.77,-200"/>
<polygon fill="midnightblue" stroke="midnightblue" points="63.3,-196.5 53.3,-200 63.29,-203.5 63.3,-196.5"/>
</g>
<!-- Node16 -->
<g id="node17" class="node">
<title>Node16</title>
<g id="a_node17"><a xlink:href="../../db/d23/classnap_1_1_sequence_player_audio_clock_process.html" target="_top" xlink:title="SequencePlayerAudioClock\lProcess">
<polygon fill="white" stroke="black" points="89,-141 89,-171 226,-171 226,-141 89,-141"/>
<text text-anchor="start" x="97" y="-159" font-family="Helvetica,sans-Serif" font-size="10.00">SequencePlayerAudioClock</text>
<text text-anchor="middle" x="157.5" y="-148" font-family="Helvetica,sans-Serif" font-size="10.00">Process</text>
</a>
</g>
</g>
<!-- Node0&#45;&gt;Node16 -->
<g id="edge16" class="edge">
<title>Node0&#45;&gt;Node16</title>
<path fill="none" stroke="midnightblue" d="M62.91,-187.92C78.22,-182.7 96.29,-176.54 112.45,-171.02"/>
<polygon fill="midnightblue" stroke="midnightblue" points="61.63,-184.66 53.3,-191.2 63.89,-191.29 61.63,-184.66"/>
</g>
<!-- Node2 -->
<g id="node3" class="node">
<title>Node2</title>
<g id="a_node3"><a xlink:href="../../d0/dc1/classnap_1_1audio_1_1_buffer_player_node.html" target="_top" xlink:title="BufferPlayerNode">
<polygon fill="white" stroke="black" points="289,-456.5 289,-475.5 381,-475.5 381,-456.5 289,-456.5"/>
<text text-anchor="middle" x="335" y="-463.5" font-family="Helvetica,sans-Serif" font-size="10.00">BufferPlayerNode</text>
</a>
</g>
</g>
<!-- Node1&#45;&gt;Node2 -->
<g id="edge2" class="edge">
<title>Node1&#45;&gt;Node2</title>
<path fill="none" stroke="midnightblue" d="M162.49,-257.61C171.98,-299.14 199.93,-396.35 262,-447 269.71,-453.29 279.3,-457.52 288.93,-460.35"/>
<polygon fill="midnightblue" stroke="midnightblue" points="165.87,-256.69 160.33,-247.66 159.03,-258.18 165.87,-256.69"/>
</g>
<!-- Node3 -->
<g id="node4" class="node">
<title>Node3</title>
<g id="a_node4"><a xlink:href="../../d4/d37/classnap_1_1audio_1_1_control_node.html" target="_top" xlink:title="ControlNode">
<polygon fill="white" stroke="black" points="300,-418.5 300,-437.5 370,-437.5 370,-418.5 300,-418.5"/>
<text text-anchor="middle" x="335" y="-425.5" font-family="Helvetica,sans-Serif" font-size="10.00">ControlNode</text>
</a>
</g>
</g>
<!-- Node1&#45;&gt;Node3 -->
<g id="edge3" class="edge">
<title>Node1&#45;&gt;Node3</title>
<path fill="none" stroke="midnightblue" d="M164.64,-257.17C177.06,-292.76 208.61,-369.06 262,-409 272.87,-417.13 286.94,-421.79 299.75,-424.45"/>
<polygon fill="midnightblue" stroke="midnightblue" points="167.9,-255.88 161.4,-247.51 161.27,-258.11 167.9,-255.88"/>
</g>
<!-- Node4 -->
<g id="node5" class="node">
<title>Node4</title>
<g id="a_node5"><a xlink:href="../../db/d66/classnap_1_1audio_1_1_filter_node.html" target="_top" xlink:title="FilterNode">
<polygon fill="white" stroke="black" points="304.5,-380.5 304.5,-399.5 365.5,-399.5 365.5,-380.5 304.5,-380.5"/>
<text text-anchor="middle" x="335" y="-387.5" font-family="Helvetica,sans-Serif" font-size="10.00">FilterNode</text>
</a>
</g>
</g>
<!-- Node1&#45;&gt;Node4 -->
<g id="edge4" class="edge">
<title>Node1&#45;&gt;Node4</title>
<path fill="none" stroke="midnightblue" d="M167.95,-256.9C183.49,-285.98 217.23,-341.43 262,-371 274.51,-379.27 290.47,-383.94 304.18,-386.58"/>
<polygon fill="midnightblue" stroke="midnightblue" points="170.94,-255.06 163.23,-247.8 164.73,-258.28 170.94,-255.06"/>
</g>
<!-- Node5 -->
<g id="node6" class="node">
<title>Node5</title>
<g id="a_node6"><a xlink:href="../../d4/d5f/classnap_1_1audio_1_1_gain_node.html" target="_top" xlink:title="GainNode">
<polygon fill="white" stroke="black" points="305.5,-342.5 305.5,-361.5 364.5,-361.5 364.5,-342.5 305.5,-342.5"/>
<text text-anchor="middle" x="335" y="-349.5" font-family="Helvetica,sans-Serif" font-size="10.00">GainNode</text>
</a>
</g>
</g>
<!-- Node1&#45;&gt;Node5 -->
<g id="edge5" class="edge">
<title>Node1&#45;&gt;Node5</title>
<path fill="none" stroke="midnightblue" d="M172.68,-255.42C191.06,-276.85 225.16,-312.86 262,-333 275.39,-340.32 291.73,-344.93 305.46,-347.77"/>
<polygon fill="midnightblue" stroke="midnightblue" points="175.33,-253.13 166.22,-247.73 169.97,-257.63 175.33,-253.13"/>
</g>
<!-- Node6 -->
<g id="node7" class="node">
<title>Node6</title>
<g id="a_node7"><a xlink:href="../../d3/d8d/classnap_1_1audio_1_1_input_node.html" target="_top" xlink:title="InputNode">
<polygon fill="white" stroke="black" points="305,-304.5 305,-323.5 365,-323.5 365,-304.5 305,-304.5"/>
<text text-anchor="middle" x="335" y="-311.5" font-family="Helvetica,sans-Serif" font-size="10.00">InputNode</text>
</a>
</g>
</g>
<!-- Node1&#45;&gt;Node6 -->
<g id="edge6" class="edge">
<title>Node1&#45;&gt;Node6</title>
<path fill="none" stroke="midnightblue" d="M181.63,-252.9C202.09,-265.55 233.1,-283.43 262,-295 275.68,-300.48 291.46,-304.84 304.75,-308"/>
<polygon fill="midnightblue" stroke="midnightblue" points="183.35,-249.85 173.02,-247.5 179.63,-255.78 183.35,-249.85"/>
</g>
<!-- Node7 -->
<g id="node8" class="node">
<title>Node7</title>
<g id="a_node8"><a xlink:href="../../d8/d36/classnap_1_1audio_1_1_level_meter_node.html" target="_top" xlink:title="LevelMeterNode">
<polygon fill="white" stroke="black" points="292,-266.5 292,-285.5 378,-285.5 378,-266.5 292,-266.5"/>
<text text-anchor="middle" x="335" y="-273.5" font-family="Helvetica,sans-Serif" font-size="10.00">LevelMeterNode</text>
</a>
</g>
</g>
<!-- Node1&#45;&gt;Node7 -->
<g id="edge7" class="edge">
<title>Node1&#45;&gt;Node7</title>
<path fill="none" stroke="midnightblue" d="M187.37,-244.25C215.78,-250.4 259.49,-259.87 291.8,-266.86"/>
<polygon fill="midnightblue" stroke="midnightblue" points="187.8,-240.76 177.28,-242.07 186.31,-247.6 187.8,-240.76"/>
</g>
<!-- Node8 -->
<g id="node9" class="node">
<title>Node8</title>
<g id="a_node9"><a xlink:href="../../d7/d34/classnap_1_1audio_1_1_mix_node.html" target="_top" xlink:title="MixNode">
<polygon fill="white" stroke="black" points="307.5,-228.5 307.5,-247.5 362.5,-247.5 362.5,-228.5 307.5,-228.5"/>
<text text-anchor="middle" x="335" y="-235.5" font-family="Helvetica,sans-Serif" font-size="10.00">MixNode</text>
</a>
</g>
</g>
<!-- Node1&#45;&gt;Node8 -->
<g id="edge8" class="edge">
<title>Node1&#45;&gt;Node8</title>
<path fill="none" stroke="midnightblue" d="M187.3,-238C220.62,-238 275.02,-238 307.38,-238"/>
<polygon fill="midnightblue" stroke="midnightblue" points="187.28,-234.5 177.28,-238 187.28,-241.5 187.28,-234.5"/>
</g>
<!-- Node9 -->
<g id="node10" class="node">
<title>Node9</title>
<g id="a_node10"><a xlink:href="../../d8/d4c/classnap_1_1audio_1_1_multiply_node.html" target="_top" xlink:title="MultiplyNode">
<polygon fill="white" stroke="black" points="298.5,-190.5 298.5,-209.5 371.5,-209.5 371.5,-190.5 298.5,-190.5"/>
<text text-anchor="middle" x="335" y="-197.5" font-family="Helvetica,sans-Serif" font-size="10.00">MultiplyNode</text>
</a>
</g>
</g>
<!-- Node1&#45;&gt;Node9 -->
<g id="edge9" class="edge">
<title>Node1&#45;&gt;Node9</title>
<path fill="none" stroke="midnightblue" d="M187.24,-231.78C217.64,-225.2 265.62,-214.8 298.39,-207.71"/>
<polygon fill="midnightblue" stroke="midnightblue" points="186.31,-228.4 177.28,-233.93 187.8,-235.24 186.31,-228.4"/>
</g>
<!-- Node10 -->
<g id="node11" class="node">
<title>Node10</title>
<g id="a_node11"><a xlink:href="../../da/d0f/classnap_1_1audio_1_1_multi_sample_buffer_player_node.html" target="_top" xlink:title="MultiSampleBufferPlayerNode">
<polygon fill="white" stroke="black" points="262,-152.5 262,-171.5 408,-171.5 408,-152.5 262,-152.5"/>
<text text-anchor="middle" x="335" y="-159.5" font-family="Helvetica,sans-Serif" font-size="10.00">MultiSampleBufferPlayerNode</text>
</a>
</g>
</g>
<!-- Node1&#45;&gt;Node10 -->
<g id="edge10" class="edge">
<title>Node1&#45;&gt;Node10</title>
<path fill="none" stroke="midnightblue" d="M187.04,-233.52C199.62,-230.67 214.2,-226.13 226,-219 245.91,-206.97 241.99,-192.87 262,-181 268.56,-177.11 275.92,-174 283.37,-171.53"/>
<polygon fill="midnightblue" stroke="midnightblue" points="186.16,-230.12 177.04,-235.53 187.54,-236.99 186.16,-230.12"/>
</g>
<!-- Node11 -->
<g id="node12" class="node">
<title>Node11</title>
<g id="a_node12"><a xlink:href="../../d2/da1/classnap_1_1audio_1_1_output_node.html" target="_top" xlink:title="OutputNode">
<polygon fill="white" stroke="black" points="301,-114.5 301,-133.5 369,-133.5 369,-114.5 301,-114.5"/>
<text text-anchor="middle" x="335" y="-121.5" font-family="Helvetica,sans-Serif" font-size="10.00">OutputNode</text>
</a>
</g>
</g>
<!-- Node1&#45;&gt;Node11 -->
<g id="edge11" class="edge">
<title>Node1&#45;&gt;Node11</title>
<path fill="none" stroke="midnightblue" d="M187.04,-235.39C200.14,-232.93 215.14,-228.17 226,-219 254.55,-194.88 233.25,-166.88 262,-143 272.84,-134 287.5,-129.21 300.77,-126.69"/>
<polygon fill="midnightblue" stroke="midnightblue" points="186.41,-231.95 177.05,-236.92 187.47,-238.87 186.41,-231.95"/>
</g>
<!-- Node12 -->
<g id="node13" class="node">
<title>Node12</title>
<g id="a_node13"><a xlink:href="../../d6/d23/classnap_1_1audio_1_1_pull_node.html" target="_top" xlink:title="PullNode">
<polygon fill="white" stroke="black" points="307,-76.5 307,-95.5 363,-95.5 363,-76.5 307,-76.5"/>
<text text-anchor="middle" x="335" y="-83.5" font-family="Helvetica,sans-Serif" font-size="10.00">PullNode</text>
</a>
</g>
</g>
<!-- Node1&#45;&gt;Node12 -->
<g id="edge12" class="edge">
<title>Node1&#45;&gt;Node12</title>
<path fill="none" stroke="midnightblue" d="M187.35,-236.08C200.65,-233.78 215.72,-228.96 226,-219 264.16,-182.03 223.54,-141.66 262,-105 273.98,-93.58 291.98,-88.83 306.98,-86.94"/>
<polygon fill="midnightblue" stroke="midnightblue" points="186.64,-232.64 177.19,-237.43 187.57,-239.58 186.64,-232.64"/>
</g>
<!-- Node13 -->
<g id="node14" class="node">
<title>Node13</title>
<g id="a_node14"><a xlink:href="../../d9/d58/classnap_1_1audio_1_1_stereo_panner_node.html" target="_top" xlink:title="StereoPannerNode">
<polygon fill="white" stroke="black" points="286,-38.5 286,-57.5 384,-57.5 384,-38.5 286,-38.5"/>
<text text-anchor="middle" x="335" y="-45.5" font-family="Helvetica,sans-Serif" font-size="10.00">StereoPannerNode</text>
</a>
</g>
</g>
<!-- Node1&#45;&gt;Node13 -->
<g id="edge13" class="edge">
<title>Node1&#45;&gt;Node13</title>
<path fill="none" stroke="midnightblue" d="M187.41,-236.45C200.85,-234.24 216.03,-229.4 226,-219 274.05,-168.89 213.54,-116.71 262,-67 268.5,-60.33 277.04,-55.92 285.95,-53.01"/>
<polygon fill="midnightblue" stroke="midnightblue" points="186.63,-233.02 177.13,-237.7 187.48,-239.96 186.63,-233.02"/>
</g>
<!-- Node14 -->
<g id="node15" class="node">
<title>Node14</title>
<g id="a_node15"><a xlink:href="../../d9/d05/classnap_1_1audio_1_1_video_node.html" target="_top" xlink:title="VideoNode">
<polygon fill="white" stroke="black" points="303,-0.5 303,-19.5 367,-19.5 367,-0.5 303,-0.5"/>
<text text-anchor="middle" x="335" y="-7.5" font-family="Helvetica,sans-Serif" font-size="10.00">VideoNode</text>
</a>
</g>
</g>
<!-- Node1&#45;&gt;Node14 -->
<g id="edge14" class="edge">
<title>Node1&#45;&gt;Node14</title>
<path fill="none" stroke="midnightblue" d="M187.61,-236.64C201.1,-234.48 216.26,-229.62 226,-219 284.07,-155.64 203.41,-91.89 262,-29 272.4,-17.84 288.51,-12.93 302.85,-10.88"/>
<polygon fill="midnightblue" stroke="midnightblue" points="186.81,-233.21 177.29,-237.85 187.63,-240.16 186.81,-233.21"/>
</g>
</g>
</svg>
