<?xml version="1.0" encoding="UTF-8" standalone="no"?>
<!DOCTYPE svg PUBLIC "-//W3C//DTD SVG 1.1//EN"
 "http://www.w3.org/Graphics/SVG/1.1/DTD/svg11.dtd">
<!-- Generated by graphviz version 3.0.0 (20220226.1711)
 -->
<!-- Title: SequencePlayerAudioOutputComponent Pages: 1 -->
<svg width="312pt" height="288pt"
 viewBox="0.00 0.00 311.50 288.00" xmlns="http://www.w3.org/2000/svg" xmlns:xlink="http://www.w3.org/1999/xlink">
<g id="graph0" class="graph" transform="scale(1 1) rotate(0) translate(4 284)">
<title>SequencePlayerAudioOutputComponent</title>
<polygon fill="white" stroke="transparent" points="-4,4 -4,-284 307.5,-284 307.5,4 -4,4"/>
<!-- Node5 -->
<g id="node1" class="node">
<title>Node5</title>
<polygon fill="#bfbfbf" stroke="black" points="55.5,-0.5 55.5,-30.5 197.5,-30.5 197.5,-0.5 55.5,-0.5"/>
<text text-anchor="start" x="63.5" y="-18.5" font-family="Helvetica,sans-Serif" font-size="10.00">SequencePlayerAudioOutput</text>
<text text-anchor="middle" x="126.5" y="-7.5" font-family="Helvetica,sans-Serif" font-size="10.00">Component</text>
</g>
<!-- Node6 -->
<g id="node2" class="node">
<title>Node6</title>
<g id="a_node2"><a xlink:href="../../d5/dcb/classnap_1_1audio_1_1_audio_component_base.html" target="_top" xlink:title="AudioComponentBase">
<polygon fill="white" stroke="black" points="0,-84 0,-103 113,-103 113,-84 0,-84"/>
<text text-anchor="middle" x="56.5" y="-91" font-family="Helvetica,sans-Serif" font-size="10.00">AudioComponentBase</text>
</a>
</g>
</g>
<!-- Node6&#45;&gt;Node5 -->
<g id="edge1" class="edge">
<title>Node6&#45;&gt;Node5</title>
<path fill="none" stroke="midnightblue" d="M71.57,-76.14C84.09,-62.55 101.71,-43.42 113.59,-30.52"/>
<polygon fill="midnightblue" stroke="midnightblue" points="68.73,-74.06 64.53,-83.78 73.88,-78.8 68.73,-74.06"/>
</g>
<!-- Node7 -->
<g id="node3" class="node">
<title>Node7</title>
<g id="a_node3"><a xlink:href="../../db/d6b/classnap_1_1_component.html" target="_top" xlink:title="Component">
<polygon fill="white" stroke="black" points="23.5,-146.5 23.5,-165.5 89.5,-165.5 89.5,-146.5 23.5,-146.5"/>
<text text-anchor="middle" x="56.5" y="-153.5" font-family="Helvetica,sans-Serif" font-size="10.00">Component</text>
</a>
</g>
</g>
<!-- Node7&#45;&gt;Node6 -->
<g id="edge2" class="edge">
<title>Node7&#45;&gt;Node6</title>
<path fill="none" stroke="midnightblue" d="M56.5,-136C56.5,-125 56.5,-111.68 56.5,-103.15"/>
<polygon fill="midnightblue" stroke="midnightblue" points="53,-136.33 56.5,-146.33 60,-136.33 53,-136.33"/>
</g>
<!-- Node8 -->
<g id="node4" class="node">
<title>Node8</title>
<g id="a_node4"><a xlink:href="../../d9/dea/classnap_1_1_resource.html" target="_top" xlink:title="Resource">
<polygon fill="white" stroke="black" points="27.5,-203.5 27.5,-222.5 85.5,-222.5 85.5,-203.5 27.5,-203.5"/>
<text text-anchor="middle" x="56.5" y="-210.5" font-family="Helvetica,sans-Serif" font-size="10.00">Resource</text>
</a>
</g>
</g>
<!-- Node8&#45;&gt;Node7 -->
<g id="edge3" class="edge">
<title>Node8&#45;&gt;Node7</title>
<path fill="none" stroke="midnightblue" d="M56.5,-193.12C56.5,-183.82 56.5,-173.06 56.5,-165.71"/>
<polygon fill="midnightblue" stroke="midnightblue" points="53,-193.41 56.5,-203.41 60,-193.41 53,-193.41"/>
</g>
<!-- Node9 -->
<g id="node5" class="node">
<title>Node9</title>
<g id="a_node5"><a xlink:href="../../de/d01/classnap_1_1rtti_1_1_object.html" target="_top" xlink:title="Object">
<polygon fill="white" stroke="black" points="34,-260.5 34,-279.5 79,-279.5 79,-260.5 34,-260.5"/>
<text text-anchor="middle" x="56.5" y="-267.5" font-family="Helvetica,sans-Serif" font-size="10.00">Object</text>
</a>
</g>
</g>
<!-- Node9&#45;&gt;Node8 -->
<g id="edge4" class="edge">
<title>Node9&#45;&gt;Node8</title>
<path fill="none" stroke="midnightblue" d="M56.5,-250.12C56.5,-240.82 56.5,-230.06 56.5,-222.71"/>
<polygon fill="midnightblue" stroke="midnightblue" points="53,-250.41 56.5,-260.41 60,-250.41 53,-250.41"/>
</g>
<!-- Node10 -->
<g id="node6" class="node">
<title>Node10</title>
<g id="a_node6"><a xlink:href="../../dd/d7c/classnap_1_1rtti_1_1_object_ptr.html" target="_top" xlink:title="ObjectPtr\&lt; nap::Sequence\lPlayerAudioOutput \&gt;">
<polygon fill="white" stroke="black" points="131.5,-78.5 131.5,-108.5 263.5,-108.5 263.5,-78.5 131.5,-78.5"/>
<text text-anchor="start" x="139.5" y="-96.5" font-family="Helvetica,sans-Serif" font-size="10.00">ObjectPtr&lt; nap::Sequence</text>
<text text-anchor="middle" x="197.5" y="-85.5" font-family="Helvetica,sans-Serif" font-size="10.00">PlayerAudioOutput &gt;</text>
</a>
</g>
</g>
<!-- Node10&#45;&gt;Node5 -->
<g id="edge5" class="edge">
<title>Node10&#45;&gt;Node5</title>
<path fill="none" stroke="#9a32cd" stroke-dasharray="5,2" d="M177.11,-70.67C165.11,-57.83 150.29,-41.97 139.79,-30.73"/>
<polygon fill="#9a32cd" stroke="#9a32cd" points="174.76,-73.29 184.15,-78.2 179.88,-68.51 174.76,-73.29"/>
<text text-anchor="middle" x="235" y="-52" font-family="Helvetica,sans-Serif" font-size="10.00"> mSequencePlayerAudioOutput</text>
</g>
<!-- Node11 -->
<g id="node7" class="node">
<title>Node11</title>
<g id="a_node7"><a xlink:href="../../d7/dcb/classnap_1_1rtti_1_1_object_ptr_base.html" target="_top" xlink:title="ObjectPtrBase">
<polygon fill="white" stroke="black" points="157.5,-146.5 157.5,-165.5 237.5,-165.5 237.5,-146.5 157.5,-146.5"/>
<text text-anchor="middle" x="197.5" y="-153.5" font-family="Helvetica,sans-Serif" font-size="10.00">ObjectPtrBase</text>
</a>
</g>
</g>
<!-- Node11&#45;&gt;Node10 -->
<g id="edge6" class="edge">
<title>Node11&#45;&gt;Node10</title>
<path fill="none" stroke="midnightblue" d="M197.5,-136.22C197.5,-127.36 197.5,-116.96 197.5,-108.76"/>
<polygon fill="midnightblue" stroke="midnightblue" points="194,-136.33 197.5,-146.33 201,-136.33 194,-136.33"/>
</g>
</g>
</svg>
