<?xml version="1.0" encoding="UTF-8" standalone="no"?>
<!DOCTYPE svg PUBLIC "-//W3C//DTD SVG 1.1//EN"
 "http://www.w3.org/Graphics/SVG/1.1/DTD/svg11.dtd">
<!-- Generated by graphviz version 3.0.0 (20220226.1711)
 -->
<!-- Title: RenderableMeshComponent Pages: 1 -->
<svg width="435pt" height="285pt"
 viewBox="0.00 0.00 434.50 285.00" xmlns="http://www.w3.org/2000/svg" xmlns:xlink="http://www.w3.org/1999/xlink">
<g id="graph0" class="graph" transform="scale(1 1) rotate(0) translate(4 281)">
<title>RenderableMeshComponent</title>
<polygon fill="white" stroke="transparent" points="-4,4 -4,-281 430.5,-281 430.5,4 -4,4"/>
<!-- Node5 -->
<g id="node1" class="node">
<title>Node5</title>
<polygon fill="#bfbfbf" stroke="black" points="118,-0.5 118,-19.5 257,-19.5 257,-0.5 118,-0.5"/>
<text text-anchor="middle" x="187.5" y="-7.5" font-family="Helvetica,sans-Serif" font-size="10.00">RenderableMeshComponent</text>
</g>
<!-- Node6 -->
<g id="node2" class="node">
<title>Node6</title>
<g id="a_node2"><a xlink:href="../../d1/d2c/classnap_1_1_renderable_component.html" target="_top" xlink:title="RenderableComponent">
<polygon fill="white" stroke="black" points="0,-67.5 0,-86.5 115,-86.5 115,-67.5 0,-67.5"/>
<text text-anchor="middle" x="57.5" y="-74.5" font-family="Helvetica,sans-Serif" font-size="10.00">RenderableComponent</text>
</a>
</g>
</g>
<!-- Node6&#45;&gt;Node5 -->
<g id="edge1" class="edge">
<title>Node6&#45;&gt;Node5</title>
<path fill="none" stroke="midnightblue" d="M83.95,-62.77C109.7,-49.9 148.08,-30.71 170.17,-19.67"/>
<polygon fill="midnightblue" stroke="midnightblue" points="82.14,-59.77 74.76,-67.37 85.27,-66.03 82.14,-59.77"/>
</g>
<!-- Node7 -->
<g id="node3" class="node">
<title>Node7</title>
<g id="a_node3"><a xlink:href="../../db/d6b/classnap_1_1_component.html" target="_top" xlink:title="Component">
<polygon fill="white" stroke="black" points="24.5,-143.5 24.5,-162.5 90.5,-162.5 90.5,-143.5 24.5,-143.5"/>
<text text-anchor="middle" x="57.5" y="-150.5" font-family="Helvetica,sans-Serif" font-size="10.00">Component</text>
</a>
</g>
</g>
<!-- Node7&#45;&gt;Node6 -->
<g id="edge2" class="edge">
<title>Node7&#45;&gt;Node6</title>
<path fill="none" stroke="midnightblue" d="M57.5,-133.07C57.5,-118.18 57.5,-98.11 57.5,-86.77"/>
<polygon fill="midnightblue" stroke="midnightblue" points="54,-133.22 57.5,-143.22 61,-133.22 54,-133.22"/>
</g>
<!-- Node8 -->
<g id="node4" class="node">
<title>Node8</title>
<g id="a_node4"><a xlink:href="../../d9/dea/classnap_1_1_resource.html" target="_top" xlink:title="Resource">
<polygon fill="white" stroke="black" points="28.5,-200.5 28.5,-219.5 86.5,-219.5 86.5,-200.5 28.5,-200.5"/>
<text text-anchor="middle" x="57.5" y="-207.5" font-family="Helvetica,sans-Serif" font-size="10.00">Resource</text>
</a>
</g>
</g>
<!-- Node8&#45;&gt;Node7 -->
<g id="edge3" class="edge">
<title>Node8&#45;&gt;Node7</title>
<path fill="none" stroke="midnightblue" d="M57.5,-190.12C57.5,-180.82 57.5,-170.06 57.5,-162.71"/>
<polygon fill="midnightblue" stroke="midnightblue" points="54,-190.41 57.5,-200.41 61,-190.41 54,-190.41"/>
</g>
<!-- Node9 -->
<g id="node5" class="node">
<title>Node9</title>
<g id="a_node5"><a xlink:href="../../de/d01/classnap_1_1rtti_1_1_object.html" target="_top" xlink:title="Object">
<polygon fill="white" stroke="black" points="35,-257.5 35,-276.5 80,-276.5 80,-257.5 35,-257.5"/>
<text text-anchor="middle" x="57.5" y="-264.5" font-family="Helvetica,sans-Serif" font-size="10.00">Object</text>
</a>
</g>
</g>
<!-- Node9&#45;&gt;Node8 -->
<g id="edge4" class="edge">
<title>Node9&#45;&gt;Node8</title>
<path fill="none" stroke="midnightblue" d="M57.5,-247.12C57.5,-237.82 57.5,-227.06 57.5,-219.71"/>
<polygon fill="midnightblue" stroke="midnightblue" points="54,-247.41 57.5,-257.41 61,-247.41 54,-247.41"/>
</g>
<!-- Node10 -->
<g id="node6" class="node">
<title>Node10</title>
<g id="a_node6"><a xlink:href="../../d5/da0/classnap_1_1math_1_1_rect.html" target="_top" xlink:title="Rect">
<polygon fill="white" stroke="black" points="133,-67.5 133,-86.5 170,-86.5 170,-67.5 133,-67.5"/>
<text text-anchor="middle" x="151.5" y="-74.5" font-family="Helvetica,sans-Serif" font-size="10.00">Rect</text>
</a>
</g>
</g>
<!-- Node10&#45;&gt;Node5 -->
<g id="edge5" class="edge">
<title>Node10&#45;&gt;Node5</title>
<path fill="none" stroke="#9a32cd" stroke-dasharray="5,2" d="M149.46,-56.92C149.55,-50.6 150.55,-43.72 153.5,-38 157.44,-30.36 164.61,-24.17 171.36,-19.66"/>
<polygon fill="#9a32cd" stroke="#9a32cd" points="145.98,-57.53 150.01,-67.33 152.97,-57.15 145.98,-57.53"/>
<text text-anchor="middle" x="178" y="-41" font-family="Helvetica,sans-Serif" font-size="10.00"> mClipRect</text>
</g>
<!-- Node11 -->
<g id="node7" class="node">
<title>Node11</title>
<g id="a_node7"><a xlink:href="../../d6/d4f/classnap_1_1_material_instance_resource.html" target="_top" xlink:title="MaterialInstanceResource">
<polygon fill="white" stroke="black" points="188,-67.5 188,-86.5 317,-86.5 317,-67.5 188,-67.5"/>
<text text-anchor="middle" x="252.5" y="-74.5" font-family="Helvetica,sans-Serif" font-size="10.00">MaterialInstanceResource</text>
</a>
</g>
</g>
<!-- Node11&#45;&gt;Node5 -->
<g id="edge6" class="edge">
<title>Node11&#45;&gt;Node5</title>
<path fill="none" stroke="#9a32cd" stroke-dasharray="5,2" d="M236.5,-60C223.75,-47.25 206.39,-29.89 196.13,-19.63"/>
<polygon fill="#9a32cd" stroke="#9a32cd" points="234.19,-62.64 243.73,-67.23 239.14,-57.69 234.19,-62.64"/>
<text text-anchor="middle" x="286.5" y="-41" font-family="Helvetica,sans-Serif" font-size="10.00"> mMaterialInstanceResource</text>
</g>
<!-- Node12 -->
<g id="node8" class="node">
<title>Node12</title>
<g id="a_node8"><a xlink:href="../../dd/d7c/classnap_1_1rtti_1_1_object_ptr.html" target="_top" xlink:title="ObjectPtr\&lt; nap::Material \&gt;">
<polygon fill="white" stroke="black" points="190.5,-143.5 190.5,-162.5 322.5,-162.5 322.5,-143.5 190.5,-143.5"/>
<text text-anchor="middle" x="256.5" y="-150.5" font-family="Helvetica,sans-Serif" font-size="10.00">ObjectPtr&lt; nap::Material &gt;</text>
</a>
</g>
</g>
<!-- Node12&#45;&gt;Node11 -->
<g id="edge7" class="edge">
<title>Node12&#45;&gt;Node11</title>
<path fill="none" stroke="#9a32cd" stroke-dasharray="5,2" d="M249.5,-133.61C248.67,-130.76 247.96,-127.83 247.5,-125 245.34,-111.72 248,-96.16 250.19,-86.7"/>
<polygon fill="#9a32cd" stroke="#9a32cd" points="246.22,-134.84 252.76,-143.18 252.85,-132.59 246.22,-134.84"/>
<text text-anchor="middle" x="270.5" y="-112.5" font-family="Helvetica,sans-Serif" font-size="10.00"> mMaterial</text>
</g>
<!-- Node13 -->
<g id="node9" class="node">
<title>Node13</title>
<g id="a_node9"><a xlink:href="../../d7/dcb/classnap_1_1rtti_1_1_object_ptr_base.html" target="_top" xlink:title="ObjectPtrBase">
<polygon fill="white" stroke="black" points="287.5,-200.5 287.5,-219.5 367.5,-219.5 367.5,-200.5 287.5,-200.5"/>
<text text-anchor="middle" x="327.5" y="-207.5" font-family="Helvetica,sans-Serif" font-size="10.00">ObjectPtrBase</text>
</a>
</g>
</g>
<!-- Node13&#45;&gt;Node12 -->
<g id="edge8" class="edge">
<title>Node13&#45;&gt;Node12</title>
<path fill="none" stroke="midnightblue" d="M308.13,-194C295.18,-183.96 278.58,-171.1 267.75,-162.71"/>
<polygon fill="midnightblue" stroke="midnightblue" points="306.36,-197.05 316.41,-200.41 310.64,-191.52 306.36,-197.05"/>
</g>
<!-- Node14 -->
<g id="node10" class="node">
<title>Node14</title>
<g id="a_node10"><a xlink:href="../../dd/d7c/classnap_1_1rtti_1_1_object_ptr.html" target="_top" xlink:title="ObjectPtr\&lt; nap::IMesh \&gt;">
<polygon fill="white" stroke="black" points="302.5,-105.5 302.5,-124.5 426.5,-124.5 426.5,-105.5 302.5,-105.5"/>
<text text-anchor="middle" x="364.5" y="-112.5" font-family="Helvetica,sans-Serif" font-size="10.00">ObjectPtr&lt; nap::IMesh &gt;</text>
</a>
</g>
</g>
<!-- Node13&#45;&gt;Node14 -->
<g id="edge10" class="edge">
<title>Node13&#45;&gt;Node14</title>
<path fill="none" stroke="midnightblue" d="M334.7,-190.9C342.66,-170.91 355.12,-139.56 361.09,-124.56"/>
<polygon fill="midnightblue" stroke="midnightblue" points="331.36,-189.83 330.91,-200.42 337.86,-192.42 331.36,-189.83"/>
</g>
<!-- Node14&#45;&gt;Node5 -->
<g id="edge9" class="edge">
<title>Node14&#45;&gt;Node5</title>
<path fill="none" stroke="#9a32cd" stroke-dasharray="5,2" d="M366.59,-95.21C367.38,-77.9 365.5,-52.73 350.5,-38 337.2,-24.94 295.37,-18.18 257.42,-14.69"/>
<polygon fill="#9a32cd" stroke="#9a32cd" points="363.09,-95.02 365.79,-105.26 370.07,-95.57 363.09,-95.02"/>
<text text-anchor="middle" x="385.5" y="-74.5" font-family="Helvetica,sans-Serif" font-size="10.00"> mMesh</text>
</g>
</g>
</svg>
