<?xml version="1.0" encoding="UTF-8" standalone="no"?>
<!DOCTYPE svg PUBLIC "-//W3C//DTD SVG 1.1//EN"
 "http://www.w3.org/Graphics/SVG/1.1/DTD/svg11.dtd">
<!-- Generated by graphviz version 3.0.0 (20220226.1711)
 -->
<!-- Title: BaseVertexAttribute Pages: 1 -->
<svg width="304pt" height="207pt"
 viewBox="0.00 0.00 304.00 207.00" xmlns="http://www.w3.org/2000/svg" xmlns:xlink="http://www.w3.org/1999/xlink">
<g id="graph0" class="graph" transform="scale(1 1) rotate(0) translate(4 203)">
<title>BaseVertexAttribute</title>
<polygon fill="white" stroke="transparent" points="-4,4 -4,-203 300,-203 300,4 -4,4"/>
<!-- Node0 -->
<g id="node1" class="node">
<title>Node0</title>
<polygon fill="#bfbfbf" stroke="black" points="111.5,-67.5 111.5,-86.5 215.5,-86.5 215.5,-67.5 111.5,-67.5"/>
<text text-anchor="middle" x="163.5" y="-74.5" font-family="Helvetica,sans-Serif" font-size="10.00">BaseVertexAttribute</text>
</g>
<!-- Node3 -->
<g id="node4" class="node">
<title>Node3</title>
<g id="a_node4"><a xlink:href="../../d7/da0/classnap_1_1_vertex_attribute.html" target="_top" xlink:title="VertexAttribute\&lt; ELEMENTTYPE \&gt;">
<polygon fill="white" stroke="black" points="0,-6 0,-25 171,-25 171,-6 0,-6"/>
<text text-anchor="middle" x="85.5" y="-13" font-family="Helvetica,sans-Serif" font-size="10.00">VertexAttribute&lt; ELEMENTTYPE &gt;</text>
</a>
</g>
</g>
<!-- Node0&#45;&gt;Node3 -->
<g id="edge3" class="edge">
<title>Node0&#45;&gt;Node3</title>
<path fill="none" stroke="midnightblue" d="M144.22,-61.29C129.26,-49.88 109.04,-34.46 96.65,-25.01"/>
<polygon fill="midnightblue" stroke="midnightblue" points="142.25,-64.19 152.32,-67.48 146.5,-58.63 142.25,-64.19"/>
</g>
<!-- Node4 -->
<g id="node5" class="node">
<title>Node4</title>
<g id="a_node5"><a xlink:href="../../d7/da0/classnap_1_1_vertex_attribute.html" target="_top" xlink:title="VertexAttribute\&lt; glm\l::vec3 \&gt;">
<polygon fill="white" stroke="black" points="189,-0.5 189,-30.5 296,-30.5 296,-0.5 189,-0.5"/>
<text text-anchor="start" x="197" y="-18.5" font-family="Helvetica,sans-Serif" font-size="10.00">VertexAttribute&lt; glm</text>
<text text-anchor="middle" x="242.5" y="-7.5" font-family="Helvetica,sans-Serif" font-size="10.00">::vec3 &gt;</text>
</a>
</g>
</g>
<!-- Node0&#45;&gt;Node4 -->
<g id="edge4" class="edge">
<title>Node0&#45;&gt;Node4</title>
<path fill="none" stroke="midnightblue" d="M183.16,-61.2C195.61,-51.81 211.63,-39.75 223.88,-30.52"/>
<polygon fill="midnightblue" stroke="midnightblue" points="180.7,-58.66 174.82,-67.48 184.91,-64.25 180.7,-58.66"/>
</g>
<!-- Node1 -->
<g id="node2" class="node">
<title>Node1</title>
<g id="a_node2"><a xlink:href="../../d9/dea/classnap_1_1_resource.html" target="_top" xlink:title="Resource">
<polygon fill="white" stroke="black" points="134.5,-123.5 134.5,-142.5 192.5,-142.5 192.5,-123.5 134.5,-123.5"/>
<text text-anchor="middle" x="163.5" y="-130.5" font-family="Helvetica,sans-Serif" font-size="10.00">Resource</text>
</a>
</g>
</g>
<!-- Node1&#45;&gt;Node0 -->
<g id="edge1" class="edge">
<title>Node1&#45;&gt;Node0</title>
<path fill="none" stroke="midnightblue" d="M163.5,-112.8C163.5,-103.91 163.5,-93.78 163.5,-86.75"/>
<polygon fill="midnightblue" stroke="midnightblue" points="160,-113.08 163.5,-123.08 167,-113.08 160,-113.08"/>
</g>
<!-- Node2 -->
<g id="node3" class="node">
<title>Node2</title>
<g id="a_node3"><a xlink:href="../../de/d01/classnap_1_1rtti_1_1_object.html" target="_top" xlink:title="Object">
<polygon fill="white" stroke="black" points="141,-179.5 141,-198.5 186,-198.5 186,-179.5 141,-179.5"/>
<text text-anchor="middle" x="163.5" y="-186.5" font-family="Helvetica,sans-Serif" font-size="10.00">Object</text>
</a>
</g>
</g>
<!-- Node2&#45;&gt;Node1 -->
<g id="edge2" class="edge">
<title>Node2&#45;&gt;Node1</title>
<path fill="none" stroke="midnightblue" d="M163.5,-168.8C163.5,-159.91 163.5,-149.78 163.5,-142.75"/>
<polygon fill="midnightblue" stroke="midnightblue" points="160,-169.08 163.5,-179.08 167,-169.08 160,-169.08"/>
</g>
</g>
</svg>
