<?xml version="1.0" encoding="UTF-8" standalone="no"?>
<!DOCTYPE svg PUBLIC "-//W3C//DTD SVG 1.1//EN"
 "http://www.w3.org/Graphics/SVG/1.1/DTD/svg11.dtd">
<!-- Generated by graphviz version 2.43.0 (0)
 -->
<!-- Title: OperationalCalendar Pages: 1 -->
<svg width="231pt" height="296pt"
 viewBox="0.00 0.00 231.00 296.00" xmlns="http://www.w3.org/2000/svg" xmlns:xlink="http://www.w3.org/1999/xlink">
<g id="graph0" class="graph" transform="scale(1 1) rotate(0) translate(4 292)">
<title>OperationalCalendar</title>
<polygon fill="white" stroke="transparent" points="-4,4 -4,-292 227,-292 227,4 -4,4"/>
<!-- Node1 -->
<g id="node1" class="node">
<title>Node1</title>
<g id="a_node1"><a xlink:title=" ">
<polygon fill="#bfbfbf" stroke="black" points="69.5,-0.5 69.5,-19.5 186.5,-19.5 186.5,-0.5 69.5,-0.5"/>
<text text-anchor="middle" x="128" y="-7.5" font-family="Helvetica,sans-Serif" font-size="10.00">OperationalCalendar</text>
</a>
</g>
</g>
<!-- Node2 -->
<g id="node2" class="node">
<title>Node2</title>
<g id="a_node2"><a xlink:href="../../d3/dd1/classnap_1_1_i_calendar.html" target="_top" xlink:title=" ">
<polygon fill="white" stroke="black" points="62.5,-133.5 62.5,-152.5 125.5,-152.5 125.5,-133.5 62.5,-133.5"/>
<text text-anchor="middle" x="94" y="-140.5" font-family="Helvetica,sans-Serif" font-size="10.00">ICalendar</text>
</a>
</g>
</g>
<!-- Node2&#45;&gt;Node1 -->
<g id="edge1" class="edge">
<title>Node2&#45;&gt;Node1</title>
<path fill="none" stroke="midnightblue" d="M98.81,-123.47C106.24,-94.83 120.24,-40.92 125.72,-19.8"/>
<polygon fill="midnightblue" stroke="midnightblue" points="95.36,-122.85 96.23,-133.4 102.13,-124.6 95.36,-122.85"/>
</g>
<!-- Node3 -->
<g id="node3" class="node">
<title>Node3</title>
<g id="a_node3"><a xlink:href="../../d9/dea/classnap_1_1_resource.html" target="_top" xlink:title=" ">
<polygon fill="white" stroke="black" points="0,-211.5 0,-230.5 62,-230.5 62,-211.5 0,-211.5"/>
<text text-anchor="middle" x="31" y="-218.5" font-family="Helvetica,sans-Serif" font-size="10.00">Resource</text>
</a>
</g>
</g>
<!-- Node3&#45;&gt;Node2 -->
<g id="edge2" class="edge">
<title>Node3&#45;&gt;Node2</title>
<path fill="none" stroke="midnightblue" d="M44.73,-203.44C57.7,-187.79 76.65,-164.93 86.86,-152.62"/>
<polygon fill="midnightblue" stroke="midnightblue" points="41.91,-201.35 38.23,-211.28 47.3,-205.82 41.91,-201.35"/>
</g>
<!-- Node4 -->
<g id="node4" class="node">
<title>Node4</title>
<g id="a_node4"><a xlink:href="../../de/d01/classnap_1_1rtti_1_1_object.html" target="_top" xlink:title=" ">
<polygon fill="white" stroke="black" points="7,-268.5 7,-287.5 55,-287.5 55,-268.5 7,-268.5"/>
<text text-anchor="middle" x="31" y="-275.5" font-family="Helvetica,sans-Serif" font-size="10.00">Object</text>
</a>
</g>
</g>
<!-- Node4&#45;&gt;Node3 -->
<g id="edge3" class="edge">
<title>Node4&#45;&gt;Node3</title>
<path fill="none" stroke="midnightblue" d="M31,-258.12C31,-248.82 31,-238.06 31,-230.71"/>
<polygon fill="midnightblue" stroke="midnightblue" points="27.5,-258.41 31,-268.41 34.5,-258.41 27.5,-258.41"/>
</g>
<!-- Node5 -->
<g id="node5" class="node">
<title>Node5</title>
<g id="a_node5"><a xlink:href="../../d0/dfd/classnap_1_1_core.html" target="_top" xlink:title=" ">
<polygon fill="white" stroke="black" points="80.5,-211.5 80.5,-230.5 119.5,-230.5 119.5,-211.5 80.5,-211.5"/>
<text text-anchor="middle" x="100" y="-218.5" font-family="Helvetica,sans-Serif" font-size="10.00">Core</text>
</a>
</g>
</g>
<!-- Node5&#45;&gt;Node2 -->
<g id="edge4" class="edge">
<title>Node5&#45;&gt;Node2</title>
<path fill="none" stroke="#9a32cd" stroke-dasharray="5,2" d="M98.52,-201.22C97.29,-185.7 95.61,-164.36 94.68,-152.62"/>
<polygon fill="#9a32cd" stroke="#9a32cd" points="95.04,-201.59 99.31,-211.28 102.01,-201.04 95.04,-201.59"/>
<text text-anchor="middle" x="116" y="-179.5" font-family="Helvetica,sans-Serif" font-size="10.00"> mCore</text>
</g>
<!-- Node6 -->
<g id="node6" class="node">
<title>Node6</title>
<g id="a_node6"><a xlink:href="../../d1/d8d/structnap_1_1_calendar_item_1_1_point.html" target="_top" xlink:title=" ">
<polygon fill="white" stroke="black" points="143.5,-133.5 143.5,-152.5 184.5,-152.5 184.5,-133.5 143.5,-133.5"/>
<text text-anchor="middle" x="164" y="-140.5" font-family="Helvetica,sans-Serif" font-size="10.00">Point</text>
</a>
</g>
</g>
<!-- Node6&#45;&gt;Node1 -->
<g id="edge5" class="edge">
<title>Node6&#45;&gt;Node1</title>
<path fill="none" stroke="#9a32cd" stroke-dasharray="5,2" d="M158.91,-123.47C151.04,-94.83 136.22,-40.92 130.42,-19.8"/>
<polygon fill="#9a32cd" stroke="#9a32cd" points="155.61,-124.69 161.64,-133.4 162.36,-122.83 155.61,-124.69"/>
<text text-anchor="middle" x="189.5" y="-107" font-family="Helvetica,sans-Serif" font-size="10.00"> mFriday</text>
<text text-anchor="middle" x="189.5" y="-96" font-family="Helvetica,sans-Serif" font-size="10.00">mWednesday</text>
<text text-anchor="middle" x="189.5" y="-85" font-family="Helvetica,sans-Serif" font-size="10.00">mSunday</text>
<text text-anchor="middle" x="189.5" y="-74" font-family="Helvetica,sans-Serif" font-size="10.00">mMonday</text>
<text text-anchor="middle" x="189.5" y="-63" font-family="Helvetica,sans-Serif" font-size="10.00">mSaturday</text>
<text text-anchor="middle" x="189.5" y="-52" font-family="Helvetica,sans-Serif" font-size="10.00">mThursday</text>
<text text-anchor="middle" x="189.5" y="-41" font-family="Helvetica,sans-Serif" font-size="10.00">mTuesday</text>
</g>
<!-- Node7 -->
<g id="node7" class="node">
<title>Node7</title>
<g id="a_node7"><a xlink:href="../../d4/db2/structnap_1_1_calendar_item_1_1_time.html" target="_top" xlink:title=" ">
<polygon fill="white" stroke="black" points="143.5,-211.5 143.5,-230.5 184.5,-230.5 184.5,-211.5 143.5,-211.5"/>
<text text-anchor="middle" x="164" y="-218.5" font-family="Helvetica,sans-Serif" font-size="10.00">Time</text>
</a>
</g>
</g>
<!-- Node7&#45;&gt;Node6 -->
<g id="edge6" class="edge">
<title>Node7&#45;&gt;Node6</title>
<path fill="none" stroke="#9a32cd" stroke-dasharray="5,2" d="M164,-201.22C164,-185.7 164,-164.36 164,-152.62"/>
<polygon fill="#9a32cd" stroke="#9a32cd" points="160.5,-201.28 164,-211.28 167.5,-201.28 160.5,-201.28"/>
<text text-anchor="middle" x="190" y="-185" font-family="Helvetica,sans-Serif" font-size="10.00"> mTime</text>
<text text-anchor="middle" x="190" y="-174" font-family="Helvetica,sans-Serif" font-size="10.00">mDuration</text>
</g>
</g>
</svg>
