<?xml version="1.0" encoding="UTF-8" standalone="no"?>
<!DOCTYPE svg PUBLIC "-//W3C//DTD SVG 1.1//EN"
 "http://www.w3.org/Graphics/SVG/1.1/DTD/svg11.dtd">
<!-- Generated by graphviz version 2.43.0 (0)
 -->
<!-- Title: UniqueCalendarItem Pages: 1 -->
<svg width="173pt" height="240pt"
 viewBox="0.00 0.00 173.00 240.00" xmlns="http://www.w3.org/2000/svg" xmlns:xlink="http://www.w3.org/1999/xlink">
<g id="graph0" class="graph" transform="scale(1 1) rotate(0) translate(4 236)">
<title>UniqueCalendarItem</title>
<polygon fill="white" stroke="transparent" points="-4,4 -4,-236 169,-236 169,4 -4,4"/>
<!-- Node1 -->
<g id="node1" class="node">
<title>Node1</title>
<g id="a_node1"><a xlink:title=" ">
<polygon fill="#bfbfbf" stroke="black" points="46.5,-0.5 46.5,-19.5 163.5,-19.5 163.5,-0.5 46.5,-0.5"/>
<text text-anchor="middle" x="105" y="-7.5" font-family="Helvetica,sans-Serif" font-size="10.00">UniqueCalendarItem</text>
</a>
</g>
</g>
<!-- Node2 -->
<g id="node2" class="node">
<title>Node2</title>
<g id="a_node2"><a xlink:href="../../df/d37/classnap_1_1_calendar_item.html" target="_top" xlink:title=" ">
<polygon fill="white" stroke="black" points="23.5,-67.5 23.5,-86.5 106.5,-86.5 106.5,-67.5 23.5,-67.5"/>
<text text-anchor="middle" x="65" y="-74.5" font-family="Helvetica,sans-Serif" font-size="10.00">CalendarItem</text>
</a>
</g>
</g>
<!-- Node2&#45;&gt;Node1 -->
<g id="edge1" class="edge">
<title>Node2&#45;&gt;Node1</title>
<path fill="none" stroke="midnightblue" d="M75.75,-58.53C83.49,-45.95 93.61,-29.51 99.69,-19.63"/>
<polygon fill="midnightblue" stroke="midnightblue" points="72.65,-56.88 70.39,-67.23 78.62,-60.55 72.65,-56.88"/>
</g>
<!-- Node3 -->
<g id="node3" class="node">
<title>Node3</title>
<g id="a_node3"><a xlink:href="../../d9/dea/classnap_1_1_resource.html" target="_top" xlink:title=" ">
<polygon fill="white" stroke="black" points="0,-134.5 0,-153.5 62,-153.5 62,-134.5 0,-134.5"/>
<text text-anchor="middle" x="31" y="-141.5" font-family="Helvetica,sans-Serif" font-size="10.00">Resource</text>
</a>
</g>
</g>
<!-- Node3&#45;&gt;Node2 -->
<g id="edge2" class="edge">
<title>Node3&#45;&gt;Node2</title>
<path fill="none" stroke="midnightblue" d="M40.33,-125.16C46.89,-112.63 55.37,-96.41 60.49,-86.63"/>
<polygon fill="midnightblue" stroke="midnightblue" points="37.12,-123.75 35.59,-134.23 43.32,-127 37.12,-123.75"/>
</g>
<!-- Node4 -->
<g id="node4" class="node">
<title>Node4</title>
<g id="a_node4"><a xlink:href="../../de/d01/classnap_1_1rtti_1_1_object.html" target="_top" xlink:title=" ">
<polygon fill="white" stroke="black" points="7,-212.5 7,-231.5 55,-231.5 55,-212.5 7,-212.5"/>
<text text-anchor="middle" x="31" y="-219.5" font-family="Helvetica,sans-Serif" font-size="10.00">Object</text>
</a>
</g>
</g>
<!-- Node4&#45;&gt;Node3 -->
<g id="edge3" class="edge">
<title>Node4&#45;&gt;Node3</title>
<path fill="none" stroke="midnightblue" d="M31,-202.22C31,-186.7 31,-165.36 31,-153.62"/>
<polygon fill="midnightblue" stroke="midnightblue" points="27.5,-202.28 31,-212.28 34.5,-202.28 27.5,-202.28"/>
</g>
<!-- Node5 -->
<g id="node5" class="node">
<title>Node5</title>
<g id="a_node5"><a xlink:href="../../d1/d8d/structnap_1_1_calendar_item_1_1_point.html" target="_top" xlink:title=" ">
<polygon fill="white" stroke="black" points="80.5,-134.5 80.5,-153.5 121.5,-153.5 121.5,-134.5 80.5,-134.5"/>
<text text-anchor="middle" x="101" y="-141.5" font-family="Helvetica,sans-Serif" font-size="10.00">Point</text>
</a>
</g>
</g>
<!-- Node5&#45;&gt;Node2 -->
<g id="edge4" class="edge">
<title>Node5&#45;&gt;Node2</title>
<path fill="none" stroke="#9a32cd" stroke-dasharray="5,2" d="M91.12,-125.16C84.18,-112.63 75.2,-96.41 69.78,-86.63"/>
<polygon fill="#9a32cd" stroke="#9a32cd" points="88.24,-127.18 96.14,-134.23 94.36,-123.79 88.24,-127.18"/>
<text text-anchor="middle" x="105" y="-108" font-family="Helvetica,sans-Serif" font-size="10.00"> mPoint</text>
</g>
<!-- Node6 -->
<g id="node6" class="node">
<title>Node6</title>
<g id="a_node6"><a xlink:href="../../d4/db2/structnap_1_1_calendar_item_1_1_time.html" target="_top" xlink:title=" ">
<polygon fill="white" stroke="black" points="80.5,-212.5 80.5,-231.5 121.5,-231.5 121.5,-212.5 80.5,-212.5"/>
<text text-anchor="middle" x="101" y="-219.5" font-family="Helvetica,sans-Serif" font-size="10.00">Time</text>
</a>
</g>
</g>
<!-- Node6&#45;&gt;Node5 -->
<g id="edge5" class="edge">
<title>Node6&#45;&gt;Node5</title>
<path fill="none" stroke="#9a32cd" stroke-dasharray="5,2" d="M101,-202.22C101,-186.7 101,-165.36 101,-153.62"/>
<polygon fill="#9a32cd" stroke="#9a32cd" points="97.5,-202.28 101,-212.28 104.5,-202.28 97.5,-202.28"/>
<text text-anchor="middle" x="127" y="-186" font-family="Helvetica,sans-Serif" font-size="10.00"> mTime</text>
<text text-anchor="middle" x="127" y="-175" font-family="Helvetica,sans-Serif" font-size="10.00">mDuration</text>
</g>
<!-- Node7 -->
<g id="node7" class="node">
<title>Node7</title>
<g id="a_node7"><a xlink:href="../../d7/d59/classnap_1_1_date.html" target="_top" xlink:title=" ">
<polygon fill="white" stroke="black" points="125,-67.5 125,-86.5 165,-86.5 165,-67.5 125,-67.5"/>
<text text-anchor="middle" x="145" y="-74.5" font-family="Helvetica,sans-Serif" font-size="10.00">Date</text>
</a>
</g>
</g>
<!-- Node7&#45;&gt;Node1 -->
<g id="edge6" class="edge">
<title>Node7&#45;&gt;Node1</title>
<path fill="none" stroke="#9a32cd" stroke-dasharray="5,2" d="M134.25,-58.53C126.51,-45.95 116.39,-29.51 110.31,-19.63"/>
<polygon fill="#9a32cd" stroke="#9a32cd" points="131.38,-60.55 139.61,-67.23 137.35,-56.88 131.38,-60.55"/>
<text text-anchor="middle" x="145.5" y="-41" font-family="Helvetica,sans-Serif" font-size="10.00"> mDate</text>
</g>
</g>
</svg>
