<?xml version="1.0" encoding="UTF-8" standalone="no"?>
<!DOCTYPE svg PUBLIC "-//W3C//DTD SVG 1.1//EN"
 "http://www.w3.org/Graphics/SVG/1.1/DTD/svg11.dtd">
<!-- Generated by graphviz version 3.0.0 (20220226.1711)
 -->
<!-- Title: SequenceTrackView Pages: 1 -->
<svg width="511pt" height="364pt"
 viewBox="0.00 0.00 510.50 364.00" xmlns="http://www.w3.org/2000/svg" xmlns:xlink="http://www.w3.org/1999/xlink">
<g id="graph0" class="graph" transform="scale(1 1) rotate(0) translate(4 360)">
<title>SequenceTrackView</title>
<polygon fill="white" stroke="transparent" points="-4,4 -4,-360 506.5,-360 506.5,4 -4,4"/>
<!-- Node4 -->
<g id="node1" class="node">
<title>Node4</title>
<polygon fill="#bfbfbf" stroke="black" points="219,-0.5 219,-19.5 324,-19.5 324,-0.5 219,-0.5"/>
<text text-anchor="middle" x="271.5" y="-7.5" font-family="Helvetica,sans-Serif" font-size="10.00">SequenceTrackView</text>
</g>
<!-- Node5 -->
<g id="node2" class="node">
<title>Node5</title>
<g id="a_node2"><a xlink:href="../../d0/d0a/classnap_1_1_sequence_g_u_i_service.html" target="_top" xlink:title="SequenceGUIService">
<polygon fill="white" stroke="black" points="369.5,-134.5 369.5,-153.5 477.5,-153.5 477.5,-134.5 369.5,-134.5"/>
<text text-anchor="middle" x="423.5" y="-141.5" font-family="Helvetica,sans-Serif" font-size="10.00">SequenceGUIService</text>
</a>
</g>
</g>
<!-- Node5&#45;&gt;Node4 -->
<g id="edge1" class="edge">
<title>Node5&#45;&gt;Node4</title>
<path fill="none" stroke="#9a32cd" stroke-dasharray="5,2" d="M416.62,-124.81C413.55,-118.14 409.48,-110.8 404.5,-105 370.42,-65.32 316.14,-33.9 288.65,-19.52"/>
<polygon fill="#9a32cd" stroke="#9a32cd" points="413.55,-126.55 420.62,-134.44 420.01,-123.87 413.55,-126.55"/>
<text text-anchor="middle" x="408" y="-74.5" font-family="Helvetica,sans-Serif" font-size="10.00"> mService</text>
</g>
<!-- Node7 -->
<g id="node4" class="node">
<title>Node7</title>
<g id="a_node4"><a xlink:href="../../d2/d74/classnap_1_1_sequence_editor_g_u_i_view.html" target="_top" xlink:title="SequenceEditorGUIView">
<polygon fill="white" stroke="black" points="210,-67.5 210,-86.5 333,-86.5 333,-67.5 210,-67.5"/>
<text text-anchor="middle" x="271.5" y="-74.5" font-family="Helvetica,sans-Serif" font-size="10.00">SequenceEditorGUIView</text>
</a>
</g>
</g>
<!-- Node5&#45;&gt;Node7 -->
<g id="edge4" class="edge">
<title>Node5&#45;&gt;Node7</title>
<path fill="none" stroke="#9a32cd" stroke-dasharray="5,2" d="M393.76,-130.28C363.66,-117.41 317.93,-97.85 291.77,-86.67"/>
<polygon fill="#9a32cd" stroke="#9a32cd" points="392.74,-133.65 403.32,-134.37 395.5,-127.22 392.74,-133.65"/>
<text text-anchor="middle" x="379" y="-108" font-family="Helvetica,sans-Serif" font-size="10.00"> mService</text>
</g>
<!-- Node6 -->
<g id="node3" class="node">
<title>Node6</title>
<g id="a_node3"><a xlink:href="../../d8/d8e/classnap_1_1_service.html" target="_top" xlink:title="Service">
<polygon fill="white" stroke="black" points="399.5,-201.5 399.5,-220.5 447.5,-220.5 447.5,-201.5 399.5,-201.5"/>
<text text-anchor="middle" x="423.5" y="-208.5" font-family="Helvetica,sans-Serif" font-size="10.00">Service</text>
</a>
</g>
</g>
<!-- Node6&#45;&gt;Node5 -->
<g id="edge2" class="edge">
<title>Node6&#45;&gt;Node5</title>
<path fill="none" stroke="midnightblue" d="M423.5,-191.04C423.5,-178.67 423.5,-163.12 423.5,-153.63"/>
<polygon fill="midnightblue" stroke="midnightblue" points="420,-191.23 423.5,-201.23 427,-191.23 420,-191.23"/>
</g>
<!-- Node7&#45;&gt;Node4 -->
<g id="edge3" class="edge">
<title>Node7&#45;&gt;Node4</title>
<path fill="none" stroke="#9a32cd" stroke-dasharray="5,2" d="M271.5,-57.04C271.5,-44.67 271.5,-29.12 271.5,-19.63"/>
<polygon fill="#9a32cd" stroke="#9a32cd" points="268,-57.23 271.5,-67.23 275,-57.23 268,-57.23"/>
<text text-anchor="middle" x="288" y="-41" font-family="Helvetica,sans-Serif" font-size="10.00"> mView</text>
</g>
<!-- Node8 -->
<g id="node5" class="node">
<title>Node8</title>
<g id="a_node5"><a xlink:href="../../db/d94/structnap_1_1_sequence_editor_g_u_i_state.html" target="_top" xlink:title="SequenceEditorGUIState">
<polygon fill="white" stroke="black" points="46,-134.5 46,-153.5 171,-153.5 171,-134.5 46,-134.5"/>
<text text-anchor="middle" x="108.5" y="-141.5" font-family="Helvetica,sans-Serif" font-size="10.00">SequenceEditorGUIState</text>
</a>
</g>
</g>
<!-- Node8&#45;&gt;Node4 -->
<g id="edge19" class="edge">
<title>Node8&#45;&gt;Node4</title>
<path fill="none" stroke="#9a32cd" stroke-dasharray="5,2" d="M118.61,-125.29C128.8,-108.64 145.79,-83.83 165.5,-67 190.83,-45.38 225.9,-28.91 248.65,-19.6"/>
<polygon fill="#9a32cd" stroke="#9a32cd" points="115.52,-123.64 113.44,-134.02 121.55,-127.2 115.52,-123.64"/>
<text text-anchor="middle" x="183" y="-74.5" font-family="Helvetica,sans-Serif" font-size="10.00"> mState</text>
</g>
<!-- Node8&#45;&gt;Node7 -->
<g id="edge5" class="edge">
<title>Node8&#45;&gt;Node7</title>
<path fill="none" stroke="#9a32cd" stroke-dasharray="5,2" d="M132.25,-129.42C146.52,-121.61 165.2,-112 182.5,-105 200.46,-97.73 221.14,-91.35 238.04,-86.61"/>
<polygon fill="#9a32cd" stroke="#9a32cd" points="130.19,-126.56 123.15,-134.48 133.59,-132.68 130.19,-126.56"/>
<text text-anchor="middle" x="200" y="-108" font-family="Helvetica,sans-Serif" font-size="10.00"> mState</text>
</g>
<!-- Node9 -->
<g id="node6" class="node">
<title>Node9</title>
<g id="a_node6"><a xlink:href="../../d9/dde/classnap_1_1_sequence_editor.html" target="_top" xlink:title="SequenceEditor">
<polygon fill="white" stroke="black" points="292.5,-201.5 292.5,-220.5 378.5,-220.5 378.5,-201.5 292.5,-201.5"/>
<text text-anchor="middle" x="335.5" y="-208.5" font-family="Helvetica,sans-Serif" font-size="10.00">SequenceEditor</text>
</a>
</g>
</g>
<!-- Node9&#45;&gt;Node7 -->
<g id="edge6" class="edge">
<title>Node9&#45;&gt;Node7</title>
<path fill="none" stroke="#9a32cd" stroke-dasharray="5,2" d="M332.24,-191.51C327.74,-169.53 318.11,-132.39 300.5,-105 295.96,-97.94 289.16,-91.48 283.29,-86.65"/>
<polygon fill="#9a32cd" stroke="#9a32cd" points="328.83,-192.32 334.14,-201.49 335.71,-191.01 328.83,-192.32"/>
<text text-anchor="middle" x="341" y="-141.5" font-family="Helvetica,sans-Serif" font-size="10.00"> mEditor</text>
</g>
<!-- Node10 -->
<g id="node7" class="node">
<title>Node10</title>
<g id="a_node7"><a xlink:href="../../d9/dea/classnap_1_1_resource.html" target="_top" xlink:title="Resource">
<polygon fill="white" stroke="black" points="294.5,-274 294.5,-293 352.5,-293 352.5,-274 294.5,-274"/>
<text text-anchor="middle" x="323.5" y="-281" font-family="Helvetica,sans-Serif" font-size="10.00">Resource</text>
</a>
</g>
</g>
<!-- Node10&#45;&gt;Node9 -->
<g id="edge7" class="edge">
<title>Node10&#45;&gt;Node9</title>
<path fill="none" stroke="midnightblue" d="M326.67,-263.86C329.05,-249.9 332.19,-231.43 334.02,-220.72"/>
<polygon fill="midnightblue" stroke="midnightblue" points="323.2,-263.41 324.97,-273.86 330.1,-264.58 323.2,-263.41"/>
</g>
<!-- Node15 -->
<g id="node12" class="node">
<title>Node15</title>
<g id="a_node12"><a xlink:href="../../d0/dc5/classnap_1_1_window.html" target="_top" xlink:title="Window">
<polygon fill="white" stroke="black" points="216,-201.5 216,-220.5 267,-220.5 267,-201.5 216,-201.5"/>
<text text-anchor="middle" x="241.5" y="-208.5" font-family="Helvetica,sans-Serif" font-size="10.00">Window</text>
</a>
</g>
</g>
<!-- Node10&#45;&gt;Node15 -->
<g id="edge13" class="edge">
<title>Node10&#45;&gt;Node15</title>
<path fill="none" stroke="midnightblue" d="M315.35,-264.63C310.76,-256.05 304.36,-246.12 296.5,-239 287.75,-231.08 276.24,-224.95 266.02,-220.55"/>
<polygon fill="midnightblue" stroke="midnightblue" points="312.33,-266.41 319.89,-273.82 318.6,-263.31 312.33,-266.41"/>
</g>
<!-- Node11 -->
<g id="node8" class="node">
<title>Node11</title>
<g id="a_node8"><a xlink:href="../../de/d01/classnap_1_1rtti_1_1_object.html" target="_top" xlink:title="Object">
<polygon fill="white" stroke="black" points="301,-336.5 301,-355.5 346,-355.5 346,-336.5 301,-336.5"/>
<text text-anchor="middle" x="323.5" y="-343.5" font-family="Helvetica,sans-Serif" font-size="10.00">Object</text>
</a>
</g>
</g>
<!-- Node11&#45;&gt;Node10 -->
<g id="edge8" class="edge">
<title>Node11&#45;&gt;Node10</title>
<path fill="none" stroke="midnightblue" d="M323.5,-326C323.5,-315 323.5,-301.68 323.5,-293.15"/>
<polygon fill="midnightblue" stroke="midnightblue" points="320,-326.33 323.5,-336.33 327,-326.33 320,-326.33"/>
</g>
<!-- Node12 -->
<g id="node9" class="node">
<title>Node12</title>
<g id="a_node9"><a xlink:href="../../dd/d7c/classnap_1_1rtti_1_1_object_ptr.html" target="_top" xlink:title="ObjectPtr\&lt; nap::Sequence\lPlayer \&gt;">
<polygon fill="white" stroke="black" points="370.5,-268.5 370.5,-298.5 502.5,-298.5 502.5,-268.5 370.5,-268.5"/>
<text text-anchor="start" x="378.5" y="-286.5" font-family="Helvetica,sans-Serif" font-size="10.00">ObjectPtr&lt; nap::Sequence</text>
<text text-anchor="middle" x="436.5" y="-275.5" font-family="Helvetica,sans-Serif" font-size="10.00">Player &gt;</text>
</a>
</g>
</g>
<!-- Node12&#45;&gt;Node9 -->
<g id="edge9" class="edge">
<title>Node12&#45;&gt;Node9</title>
<path fill="none" stroke="#9a32cd" stroke-dasharray="5,2" d="M407.71,-262.4C387.97,-248.62 362.76,-231.03 347.95,-220.69"/>
<polygon fill="#9a32cd" stroke="#9a32cd" points="405.86,-265.38 416.06,-268.23 409.86,-259.64 405.86,-265.38"/>
<text text-anchor="middle" x="431" y="-242" font-family="Helvetica,sans-Serif" font-size="10.00"> mSequencePlayer</text>
</g>
<!-- Node13 -->
<g id="node10" class="node">
<title>Node13</title>
<g id="a_node10"><a xlink:href="../../d7/dcb/classnap_1_1rtti_1_1_object_ptr_base.html" target="_top" xlink:title="ObjectPtrBase">
<polygon fill="white" stroke="black" points="396.5,-336.5 396.5,-355.5 476.5,-355.5 476.5,-336.5 396.5,-336.5"/>
<text text-anchor="middle" x="436.5" y="-343.5" font-family="Helvetica,sans-Serif" font-size="10.00">ObjectPtrBase</text>
</a>
</g>
</g>
<!-- Node13&#45;&gt;Node12 -->
<g id="edge10" class="edge">
<title>Node13&#45;&gt;Node12</title>
<path fill="none" stroke="midnightblue" d="M436.5,-326.22C436.5,-317.36 436.5,-306.96 436.5,-298.76"/>
<polygon fill="midnightblue" stroke="midnightblue" points="433,-326.33 436.5,-336.33 440,-326.33 433,-326.33"/>
</g>
<!-- Node14 -->
<g id="node11" class="node">
<title>Node14</title>
<g id="a_node11"><a xlink:href="../../d6/d4f/classnap_1_1_render_window.html" target="_top" xlink:title="RenderWindow">
<polygon fill="white" stroke="black" points="189.5,-134.5 189.5,-153.5 271.5,-153.5 271.5,-134.5 189.5,-134.5"/>
<text text-anchor="middle" x="230.5" y="-141.5" font-family="Helvetica,sans-Serif" font-size="10.00">RenderWindow</text>
</a>
</g>
</g>
<!-- Node14&#45;&gt;Node7 -->
<g id="edge11" class="edge">
<title>Node14&#45;&gt;Node7</title>
<path fill="none" stroke="#9a32cd" stroke-dasharray="5,2" d="M222.22,-124.78C220.46,-118.19 220.03,-110.93 223.5,-105 228.38,-96.66 236.88,-90.7 245.38,-86.54"/>
<polygon fill="#9a32cd" stroke="#9a32cd" points="218.97,-126.09 225.71,-134.27 225.54,-123.68 218.97,-126.09"/>
<text text-anchor="middle" x="262" y="-108" font-family="Helvetica,sans-Serif" font-size="10.00"> mRenderWindow</text>
</g>
<!-- Node15&#45;&gt;Node14 -->
<g id="edge12" class="edge">
<title>Node15&#45;&gt;Node14</title>
<path fill="none" stroke="midnightblue" d="M238.29,-191.04C236.2,-178.67 233.57,-163.12 231.96,-153.63"/>
<polygon fill="midnightblue" stroke="midnightblue" points="234.9,-191.96 240.02,-201.23 241.8,-190.79 234.9,-191.96"/>
</g>
<!-- Node16 -->
<g id="node13" class="node">
<title>Node16</title>
<g id="a_node13"><a xlink:href="../../de/d80/classnap_1_1_signal.html" target="_top" xlink:title="Signal\&lt; const nap::\lWindowEvent &amp;\&gt;">
<polygon fill="white" stroke="black" points="175,-268.5 175,-298.5 276,-298.5 276,-268.5 175,-268.5"/>
<text text-anchor="start" x="183" y="-286.5" font-family="Helvetica,sans-Serif" font-size="10.00">Signal&lt; const nap::</text>
<text text-anchor="middle" x="225.5" y="-275.5" font-family="Helvetica,sans-Serif" font-size="10.00">WindowEvent &amp;&gt;</text>
</a>
</g>
</g>
<!-- Node16&#45;&gt;Node15 -->
<g id="edge14" class="edge">
<title>Node16&#45;&gt;Node15</title>
<path fill="none" stroke="#9a32cd" stroke-dasharray="5,2" d="M224,-258.11C224.17,-251.8 224.85,-245.07 226.5,-239 228.3,-232.38 232.05,-225.63 235.35,-220.53"/>
<polygon fill="#9a32cd" stroke="#9a32cd" points="220.5,-258.19 224.12,-268.15 227.5,-258.11 220.5,-258.19"/>
<text text-anchor="middle" x="261.5" y="-242" font-family="Helvetica,sans-Serif" font-size="10.00"> mWindowEvent</text>
</g>
<!-- Node17 -->
<g id="node14" class="node">
<title>Node17</title>
<g id="a_node14"><a xlink:href="../../d7/da9/classnap_1_1_i_render_target.html" target="_top" xlink:title="IRenderTarget">
<polygon fill="white" stroke="black" points="0,-201.5 0,-220.5 77,-220.5 77,-201.5 0,-201.5"/>
<text text-anchor="middle" x="38.5" y="-208.5" font-family="Helvetica,sans-Serif" font-size="10.00">IRenderTarget</text>
</a>
</g>
</g>
<!-- Node17&#45;&gt;Node14 -->
<g id="edge15" class="edge">
<title>Node17&#45;&gt;Node14</title>
<path fill="none" stroke="midnightblue" d="M73.65,-198.1C111.71,-185.21 171.5,-164.97 205.2,-153.56"/>
<polygon fill="midnightblue" stroke="midnightblue" points="72.35,-194.85 64,-201.37 74.59,-201.48 72.35,-194.85"/>
</g>
<!-- Node18 -->
<g id="node15" class="node">
<title>Node18</title>
<g id="a_node15"><a xlink:href="../../d6/db8/classnap_1_1_r_g_b_a_color.html" target="_top" xlink:title="RGBAColor\&lt; float \&gt;">
<polygon fill="white" stroke="black" points="95,-201.5 95,-220.5 198,-220.5 198,-201.5 95,-201.5"/>
<text text-anchor="middle" x="146.5" y="-208.5" font-family="Helvetica,sans-Serif" font-size="10.00">RGBAColor&lt; float &gt;</text>
</a>
</g>
</g>
<!-- Node18&#45;&gt;Node14 -->
<g id="edge16" class="edge">
<title>Node18&#45;&gt;Node14</title>
<path fill="none" stroke="#9a32cd" stroke-dasharray="5,2" d="M156.84,-192.37C161.57,-185.39 167.65,-177.68 174.5,-172 183.89,-164.21 195.9,-158.04 206.39,-153.57"/>
<polygon fill="#9a32cd" stroke="#9a32cd" points="153.65,-190.86 151.29,-201.19 159.58,-194.59 153.65,-190.86"/>
<text text-anchor="middle" x="203" y="-175" font-family="Helvetica,sans-Serif" font-size="10.00"> mClearColor</text>
</g>
<!-- Node19 -->
<g id="node16" class="node">
<title>Node19</title>
<g id="a_node16"><a xlink:href="../../d6/d3d/classnap_1_1_color.html" target="_top" xlink:title="Color\&lt; float, 4 \&gt;">
<polygon fill="white" stroke="black" points="70.5,-274 70.5,-293 156.5,-293 156.5,-274 70.5,-274"/>
<text text-anchor="middle" x="113.5" y="-281" font-family="Helvetica,sans-Serif" font-size="10.00">Color&lt; float, 4 &gt;</text>
</a>
</g>
</g>
<!-- Node19&#45;&gt;Node18 -->
<g id="edge17" class="edge">
<title>Node19&#45;&gt;Node18</title>
<path fill="none" stroke="midnightblue" d="M121.84,-264.68C128.42,-250.63 137.31,-231.64 142.42,-220.72"/>
<polygon fill="midnightblue" stroke="midnightblue" points="118.62,-263.31 117.55,-273.86 124.96,-266.28 118.62,-263.31"/>
</g>
<!-- Node20 -->
<g id="node17" class="node">
<title>Node20</title>
<g id="a_node17"><a xlink:href="../../d8/d6a/classnap_1_1_base_color.html" target="_top" xlink:title="BaseColor">
<polygon fill="white" stroke="black" points="82.5,-336.5 82.5,-355.5 144.5,-355.5 144.5,-336.5 82.5,-336.5"/>
<text text-anchor="middle" x="113.5" y="-343.5" font-family="Helvetica,sans-Serif" font-size="10.00">BaseColor</text>
</a>
</g>
</g>
<!-- Node20&#45;&gt;Node19 -->
<g id="edge18" class="edge">
<title>Node20&#45;&gt;Node19</title>
<path fill="none" stroke="midnightblue" d="M113.5,-326C113.5,-315 113.5,-301.68 113.5,-293.15"/>
<polygon fill="midnightblue" stroke="midnightblue" points="110,-326.33 113.5,-336.33 117,-326.33 110,-326.33"/>
</g>
</g>
</svg>
