<?xml version="1.0" encoding="UTF-8" standalone="no"?>
<!DOCTYPE svg PUBLIC "-//W3C//DTD SVG 1.1//EN"
 "http://www.w3.org/Graphics/SVG/1.1/DTD/svg11.dtd">
<!-- Generated by graphviz version 3.0.0 (20220226.1711)
 -->
<!-- Title: InstancePropertyValue Pages: 1 -->
<svg width="404pt" height="116pt"
 viewBox="0.00 0.00 404.00 115.50" xmlns="http://www.w3.org/2000/svg" xmlns:xlink="http://www.w3.org/1999/xlink">
<g id="graph0" class="graph" transform="scale(1 1) rotate(0) translate(4 111.5)">
<title>InstancePropertyValue</title>
<polygon fill="white" stroke="transparent" points="-4,4 -4,-111.5 400,-111.5 400,4 -4,4"/>
<!-- Node0 -->
<g id="node1" class="node">
<title>Node0</title>
<polygon fill="#bfbfbf" stroke="black" points="81,-38.5 81,-57.5 196,-57.5 196,-38.5 81,-38.5"/>
<text text-anchor="middle" x="138.5" y="-45.5" font-family="Helvetica,sans-Serif" font-size="10.00">InstancePropertyValue</text>
</g>
<!-- Node2 -->
<g id="node3" class="node">
<title>Node2</title>
<g id="a_node3"><a xlink:href="../../d4/d7f/classnap_1_1_component_ptr_instance_property_value.html" target="_top" xlink:title="ComponentPtrInstanceProperty\lValue">
<polygon fill="white" stroke="black" points="238,-77 238,-107 390,-107 390,-77 238,-77"/>
<text text-anchor="start" x="246" y="-95" font-family="Helvetica,sans-Serif" font-size="10.00">ComponentPtrInstanceProperty</text>
<text text-anchor="middle" x="314" y="-84" font-family="Helvetica,sans-Serif" font-size="10.00">Value</text>
</a>
</g>
</g>
<!-- Node0&#45;&gt;Node2 -->
<g id="edge2" class="edge">
<title>Node0&#45;&gt;Node2</title>
<path fill="none" stroke="midnightblue" d="M186.92,-60.03C207.5,-65.25 231.83,-71.41 253.59,-76.93"/>
<polygon fill="midnightblue" stroke="midnightblue" points="187.7,-56.61 177.15,-57.55 185.98,-63.4 187.7,-56.61"/>
</g>
<!-- Node3 -->
<g id="node4" class="node">
<title>Node3</title>
<g id="a_node4"><a xlink:href="../../d0/d4b/classnap_1_1_pointer_instance_property_value.html" target="_top" xlink:title="PointerInstancePropertyValue">
<polygon fill="white" stroke="black" points="241,-38.5 241,-57.5 387,-57.5 387,-38.5 241,-38.5"/>
<text text-anchor="middle" x="314" y="-45.5" font-family="Helvetica,sans-Serif" font-size="10.00">PointerInstancePropertyValue</text>
</a>
</g>
</g>
<!-- Node0&#45;&gt;Node3 -->
<g id="edge3" class="edge">
<title>Node0&#45;&gt;Node3</title>
<path fill="none" stroke="midnightblue" d="M206.5,-48C217.75,-48 229.48,-48 240.86,-48"/>
<polygon fill="midnightblue" stroke="midnightblue" points="206.31,-44.5 196.31,-48 206.31,-51.5 206.31,-44.5"/>
</g>
<!-- Node4 -->
<g id="node5" class="node">
<title>Node4</title>
<g id="a_node5"><a xlink:href="../../d9/dc4/classnap_1_1_typed_instance_property_value.html" target="_top" xlink:title="TypedInstancePropertyValue\&lt; T \&gt;">
<polygon fill="white" stroke="black" points="232,-0.5 232,-19.5 396,-19.5 396,-0.5 232,-0.5"/>
<text text-anchor="middle" x="314" y="-7.5" font-family="Helvetica,sans-Serif" font-size="10.00">TypedInstancePropertyValue&lt; T &gt;</text>
</a>
</g>
</g>
<!-- Node0&#45;&gt;Node4 -->
<g id="edge4" class="edge">
<title>Node0&#45;&gt;Node4</title>
<path fill="none" stroke="midnightblue" d="M193.16,-36.25C217.69,-30.87 246.38,-24.59 269.53,-19.52"/>
<polygon fill="midnightblue" stroke="midnightblue" points="192.3,-32.85 183.28,-38.41 193.8,-39.69 192.3,-32.85"/>
</g>
<!-- Node1 -->
<g id="node2" class="node">
<title>Node1</title>
<g id="a_node2"><a xlink:href="../../de/d01/classnap_1_1rtti_1_1_object.html" target="_top" xlink:title="Object">
<polygon fill="white" stroke="black" points="0,-38.5 0,-57.5 45,-57.5 45,-38.5 0,-38.5"/>
<text text-anchor="middle" x="22.5" y="-45.5" font-family="Helvetica,sans-Serif" font-size="10.00">Object</text>
</a>
</g>
</g>
<!-- Node1&#45;&gt;Node0 -->
<g id="edge1" class="edge">
<title>Node1&#45;&gt;Node0</title>
<path fill="none" stroke="midnightblue" d="M55.43,-48C63.35,-48 72.08,-48 80.79,-48"/>
<polygon fill="midnightblue" stroke="midnightblue" points="55.21,-44.5 45.21,-48 55.21,-51.5 55.21,-44.5"/>
</g>
</g>
</svg>
