<?xml version="1.0" encoding="UTF-8" standalone="no"?>
<!DOCTYPE svg PUBLIC "-//W3C//DTD SVG 1.1//EN"
 "http://www.w3.org/Graphics/SVG/1.1/DTD/svg11.dtd">
<!-- Generated by graphviz version 2.43.0 (0)
 -->
<!-- Title: RenderableComponentInstance Pages: 1 -->
<svg width="842pt" height="230pt"
 viewBox="0.00 0.00 842.00 230.00" xmlns="http://www.w3.org/2000/svg" xmlns:xlink="http://www.w3.org/1999/xlink">
<g id="graph0" class="graph" transform="scale(1 1) rotate(0) translate(4 226)">
<title>RenderableComponentInstance</title>
<polygon fill="white" stroke="transparent" points="-4,4 -4,-226 838,-226 838,4 -4,4"/>
<!-- Node1 -->
<g id="node1" class="node">
<title>Node1</title>
<g id="a_node1"><a xlink:title=" ">
<polygon fill="#bfbfbf" stroke="black" points="234,-107.5 234,-126.5 404,-126.5 404,-107.5 234,-107.5"/>
<text text-anchor="middle" x="319" y="-114.5" font-family="Helvetica,sans-Serif" font-size="10.00">RenderableComponentInstance</text>
</a>
</g>
</g>
<!-- Node4 -->
<g id="node4" class="node">
<title>Node4</title>
<g id="a_node4"><a xlink:href="../../d9/d73/classnap_1_1_renderable_mesh_component_instance.html" target="_top" xlink:title=" ">
<polygon fill="white" stroke="black" points="440,-202.5 440,-221.5 636,-221.5 636,-202.5 440,-202.5"/>
<text text-anchor="middle" x="538" y="-209.5" font-family="Helvetica,sans-Serif" font-size="10.00">RenderableMeshComponentInstance</text>
</a>
</g>
</g>
<!-- Node1&#45;&gt;Node4 -->
<g id="edge3" class="edge">
<title>Node1&#45;&gt;Node4</title>
<path fill="none" stroke="midnightblue" d="M339.98,-132.97C362.82,-150.41 401.98,-177.86 440,-193 449.72,-196.87 460.32,-199.98 470.83,-202.46"/>
<polygon fill="midnightblue" stroke="midnightblue" points="341.83,-129.98 331.79,-126.61 337.54,-135.51 341.83,-129.98"/>
</g>
<!-- Node5 -->
<g id="node5" class="node">
<title>Node5</title>
<g id="a_node5"><a xlink:href="../../db/d63/classnap_1_1_renderable_text_component_instance.html" target="_top" xlink:title=" ">
<polygon fill="white" stroke="black" points="443,-164.5 443,-183.5 633,-183.5 633,-164.5 443,-164.5"/>
<text text-anchor="middle" x="538" y="-171.5" font-family="Helvetica,sans-Serif" font-size="10.00">RenderableTextComponentInstance</text>
</a>
</g>
</g>
<!-- Node1&#45;&gt;Node5 -->
<g id="edge4" class="edge">
<title>Node1&#45;&gt;Node5</title>
<path fill="none" stroke="midnightblue" d="M356.98,-129.91C380.55,-137.83 411.84,-147.81 440,-155 453.72,-158.5 468.67,-161.72 482.63,-164.48"/>
<polygon fill="midnightblue" stroke="midnightblue" points="357.98,-126.55 347.39,-126.65 355.73,-133.18 357.98,-126.55"/>
</g>
<!-- Node8 -->
<g id="node8" class="node">
<title>Node8</title>
<g id="a_node8"><a xlink:href="../../dc/ddf/classnap_1_1_render_bloom_component_instance.html" target="_top" xlink:title=" ">
<polygon fill="white" stroke="black" points="448,-126.5 448,-145.5 628,-145.5 628,-126.5 448,-126.5"/>
<text text-anchor="middle" x="538" y="-133.5" font-family="Helvetica,sans-Serif" font-size="10.00">RenderBloomComponentInstance</text>
</a>
</g>
</g>
<!-- Node1&#45;&gt;Node8 -->
<g id="edge7" class="edge">
<title>Node1&#45;&gt;Node8</title>
<path fill="none" stroke="midnightblue" d="M414.34,-125.26C425.46,-126.23 436.77,-127.22 447.81,-128.19"/>
<polygon fill="midnightblue" stroke="midnightblue" points="414.48,-121.76 404.21,-124.37 413.87,-128.73 414.48,-121.76"/>
</g>
<!-- Node9 -->
<g id="node9" class="node">
<title>Node9</title>
<g id="a_node9"><a xlink:href="../../db/dce/classnap_1_1_render_gnomon_component_instance.html" target="_top" xlink:title=" ">
<polygon fill="white" stroke="black" points="443,-88.5 443,-107.5 633,-107.5 633,-88.5 443,-88.5"/>
<text text-anchor="middle" x="538" y="-95.5" font-family="Helvetica,sans-Serif" font-size="10.00">RenderGnomonComponentInstance</text>
</a>
</g>
</g>
<!-- Node1&#45;&gt;Node9 -->
<g id="edge8" class="edge">
<title>Node1&#45;&gt;Node9</title>
<path fill="none" stroke="midnightblue" d="M414.36,-108.74C423.77,-107.91 433.33,-107.08 442.75,-106.25"/>
<polygon fill="midnightblue" stroke="midnightblue" points="413.87,-105.27 404.21,-109.63 414.48,-112.24 413.87,-105.27"/>
</g>
<!-- Node10 -->
<g id="node10" class="node">
<title>Node10</title>
<g id="a_node10"><a xlink:href="../../d5/d30/classnap_1_1_render_to_texture_component_instance.html" target="_top" xlink:title=" ">
<polygon fill="white" stroke="black" points="461,-39 461,-69 615,-69 615,-39 461,-39"/>
<text text-anchor="start" x="469" y="-57" font-family="Helvetica,sans-Serif" font-size="10.00">RenderToTextureComponent</text>
<text text-anchor="middle" x="538" y="-46" font-family="Helvetica,sans-Serif" font-size="10.00">Instance</text>
</a>
</g>
</g>
<!-- Node1&#45;&gt;Node10 -->
<g id="edge9" class="edge">
<title>Node1&#45;&gt;Node10</title>
<path fill="none" stroke="midnightblue" d="M358.55,-104.21C382,-96.57 412.61,-86.86 440,-79 451.78,-75.62 464.44,-72.2 476.58,-69.03"/>
<polygon fill="midnightblue" stroke="midnightblue" points="357.38,-100.91 348.96,-107.34 359.56,-107.56 357.38,-100.91"/>
</g>
<!-- Node11 -->
<g id="node11" class="node">
<title>Node11</title>
<g id="a_node11"><a xlink:href="../../df/d41/classnap_1_1_render_video_component_instance.html" target="_top" xlink:title=" ">
<polygon fill="white" stroke="black" points="450,-0.5 450,-19.5 626,-19.5 626,-0.5 450,-0.5"/>
<text text-anchor="middle" x="538" y="-7.5" font-family="Helvetica,sans-Serif" font-size="10.00">RenderVideoComponentInstance</text>
</a>
</g>
</g>
<!-- Node1&#45;&gt;Node11 -->
<g id="edge10" class="edge">
<title>Node1&#45;&gt;Node11</title>
<path fill="none" stroke="midnightblue" d="M337.47,-100.25C359.53,-80.09 399.51,-46.75 440,-29 448.88,-25.11 458.57,-22.01 468.27,-19.54"/>
<polygon fill="midnightblue" stroke="midnightblue" points="334.86,-97.9 329.93,-107.27 339.63,-103.02 334.86,-97.9"/>
</g>
<!-- Node2 -->
<g id="node2" class="node">
<title>Node2</title>
<g id="a_node2"><a xlink:href="../../d9/df2/classnap_1_1_component_instance.html" target="_top" xlink:title=" ">
<polygon fill="white" stroke="black" points="84,-107.5 84,-126.5 198,-126.5 198,-107.5 84,-107.5"/>
<text text-anchor="middle" x="141" y="-114.5" font-family="Helvetica,sans-Serif" font-size="10.00">ComponentInstance</text>
</a>
</g>
</g>
<!-- Node2&#45;&gt;Node1 -->
<g id="edge1" class="edge">
<title>Node2&#45;&gt;Node1</title>
<path fill="none" stroke="midnightblue" d="M208.21,-117C216.58,-117 225.22,-117 233.82,-117"/>
<polygon fill="midnightblue" stroke="midnightblue" points="208.17,-113.5 198.17,-117 208.17,-120.5 208.17,-113.5"/>
</g>
<!-- Node3 -->
<g id="node3" class="node">
<title>Node3</title>
<g id="a_node3"><a xlink:href="../../de/d01/classnap_1_1rtti_1_1_object.html" target="_top" xlink:title=" ">
<polygon fill="white" stroke="black" points="0,-107.5 0,-126.5 48,-126.5 48,-107.5 0,-107.5"/>
<text text-anchor="middle" x="24" y="-114.5" font-family="Helvetica,sans-Serif" font-size="10.00">Object</text>
</a>
</g>
</g>
<!-- Node3&#45;&gt;Node2 -->
<g id="edge2" class="edge">
<title>Node3&#45;&gt;Node2</title>
<path fill="none" stroke="midnightblue" d="M58.33,-117C66.38,-117 75.19,-117 83.96,-117"/>
<polygon fill="midnightblue" stroke="midnightblue" points="58.27,-113.5 48.27,-117 58.27,-120.5 58.27,-113.5"/>
</g>
<!-- Node6 -->
<g id="node6" class="node">
<title>Node6</title>
<g id="a_node6"><a xlink:href="../../dc/d0b/classnap_1_1_renderable2_d_text_component_instance.html" target="_top" xlink:title=" ">
<polygon fill="white" stroke="black" points="672,-183 672,-213 834,-213 834,-183 672,-183"/>
<text text-anchor="start" x="680" y="-201" font-family="Helvetica,sans-Serif" font-size="10.00">Renderable2DTextComponent</text>
<text text-anchor="middle" x="753" y="-190" font-family="Helvetica,sans-Serif" font-size="10.00">Instance</text>
</a>
</g>
</g>
<!-- Node5&#45;&gt;Node6 -->
<g id="edge5" class="edge">
<title>Node5&#45;&gt;Node6</title>
<path fill="none" stroke="midnightblue" d="M633.64,-184.66C646.37,-186.1 659.33,-187.56 671.78,-188.96"/>
<polygon fill="midnightblue" stroke="midnightblue" points="633.82,-181.16 623.49,-183.52 633.03,-188.12 633.82,-181.16"/>
</g>
<!-- Node7 -->
<g id="node7" class="node">
<title>Node7</title>
<g id="a_node7"><a xlink:href="../../d4/d70/classnap_1_1_renderable3_d_text_component_instance.html" target="_top" xlink:title=" ">
<polygon fill="white" stroke="black" points="672,-134 672,-164 834,-164 834,-134 672,-134"/>
<text text-anchor="start" x="680" y="-152" font-family="Helvetica,sans-Serif" font-size="10.00">Renderable3DTextComponent</text>
<text text-anchor="middle" x="753" y="-141" font-family="Helvetica,sans-Serif" font-size="10.00">Instance</text>
</a>
</g>
</g>
<!-- Node5&#45;&gt;Node7 -->
<g id="edge6" class="edge">
<title>Node5&#45;&gt;Node7</title>
<path fill="none" stroke="midnightblue" d="M630.14,-163.3C644,-161.68 658.2,-160.01 671.8,-158.41"/>
<polygon fill="midnightblue" stroke="midnightblue" points="629.66,-159.84 620.13,-164.48 630.47,-166.79 629.66,-159.84"/>
</g>
</g>
</svg>
