<?xml version="1.0" encoding="UTF-8" standalone="no"?>
<!DOCTYPE svg PUBLIC "-//W3C//DTD SVG 1.1//EN"
 "http://www.w3.org/Graphics/SVG/1.1/DTD/svg11.dtd">
<!-- Generated by graphviz version 2.48.0 (20210717.1556)
 -->
<!-- Title: CalendarInstance Pages: 1 -->
<svg width="164pt" height="117pt"
 viewBox="0.00 0.00 164.00 117.00" xmlns="http://www.w3.org/2000/svg" xmlns:xlink="http://www.w3.org/1999/xlink">
<g id="graph0" class="graph" transform="scale(1 1) rotate(0) translate(4 113)">
<title>CalendarInstance</title>
<polygon fill="white" stroke="transparent" points="-4,4 -4,-113 160,-113 160,4 -4,4"/>
<!-- Node1 -->
<g id="node1" class="node">
<title>Node1</title>
<polygon fill="#bfbfbf" stroke="black" points="15.5,-0.5 15.5,-19.5 107.5,-19.5 107.5,-0.5 15.5,-0.5"/>
<text text-anchor="middle" x="61.5" y="-7.5" font-family="Helvetica,sans-Serif" font-size="10.00">CalendarInstance</text>
</g>
<!-- Node2 -->
<g id="node2" class="node">
<title>Node2</title>
<g id="a_node2"><a xlink:href="../../d0/dfd/classnap_1_1_core.html" target="_top" xlink:title="Core">
<polygon fill="white" stroke="black" points="0,-84 0,-103 37,-103 37,-84 0,-84"/>
<text text-anchor="middle" x="18.5" y="-91" font-family="Helvetica,sans-Serif" font-size="10.00">Core</text>
</a>
</g>
</g>
<!-- Node2&#45;&gt;Node1 -->
<g id="edge1" class="edge">
<title>Node2&#45;&gt;Node1</title>
<path fill="none" stroke="#9a32cd" stroke-dasharray="5,2" d="M27.82,-74.83C36.81,-57.79 50.03,-32.73 56.93,-19.66"/>
<polygon fill="#9a32cd" stroke="#9a32cd" points="24.67,-73.3 23.1,-83.78 30.86,-76.57 24.67,-73.3"/>
<text text-anchor="middle" x="62.5" y="-46.5" font-family="Helvetica,sans-Serif" font-size="10.00"> mCore</text>
</g>
<!-- Node3 -->
<g id="node3" class="node">
<title>Node3</title>
<g id="a_node3"><a xlink:href="../../de/d80/classnap_1_1_signal.html" target="_top" xlink:title="Signal\&lt; const nap::\lCalendarItem &amp;\&gt;">
<polygon fill="white" stroke="black" points="55,-78.5 55,-108.5 156,-108.5 156,-78.5 55,-78.5"/>
<text text-anchor="start" x="63" y="-96.5" font-family="Helvetica,sans-Serif" font-size="10.00">Signal&lt; const nap::</text>
<text text-anchor="middle" x="105.5" y="-85.5" font-family="Helvetica,sans-Serif" font-size="10.00">CalendarItem &amp;&gt;</text>
</a>
</g>
</g>
<!-- Node3&#45;&gt;Node1 -->
<g id="edge2" class="edge">
<title>Node3&#45;&gt;Node1</title>
<path fill="none" stroke="#9a32cd" stroke-dasharray="5,2" d="M96.99,-68.61C93.11,-58.84 88.13,-47.6 82.5,-38 78.66,-31.44 73.41,-24.69 69.12,-19.58"/>
<polygon fill="#9a32cd" stroke="#9a32cd" points="93.78,-70.02 100.61,-78.13 100.33,-67.53 93.78,-70.02"/>
<text text-anchor="middle" x="122" y="-52" font-family="Helvetica,sans-Serif" font-size="10.00"> itemAdded</text>
<text text-anchor="middle" x="122" y="-41" font-family="Helvetica,sans-Serif" font-size="10.00">itemRemoved</text>
</g>
</g>
</svg>
