<?xml version="1.0" encoding="UTF-8" standalone="no"?>
<!DOCTYPE svg PUBLIC "-//W3C//DTD SVG 1.1//EN"
 "http://www.w3.org/Graphics/SVG/1.1/DTD/svg11.dtd">
<!-- Generated by graphviz version 2.48.0 (20210717.1556)
 -->
<!-- Title: RenderableComponentInstance Pages: 1 -->
<svg width="774pt" height="230pt"
 viewBox="0.00 0.00 774.00 230.00" xmlns="http://www.w3.org/2000/svg" xmlns:xlink="http://www.w3.org/1999/xlink">
<g id="graph0" class="graph" transform="scale(1 1) rotate(0) translate(4 226)">
<title>RenderableComponentInstance</title>
<polygon fill="white" stroke="transparent" points="-4,4 -4,-226 770,-226 770,4 -4,4"/>
<!-- Node0 -->
<g id="node1" class="node">
<title>Node0</title>
<polygon fill="#bfbfbf" stroke="black" points="220,-107.5 220,-126.5 372,-126.5 372,-107.5 220,-107.5"/>
<text text-anchor="middle" x="296" y="-114.5" font-family="Helvetica,sans-Serif" font-size="10.00">RenderableComponentInstance</text>
</g>
<!-- Node3 -->
<g id="node4" class="node">
<title>Node3</title>
<g id="a_node4"><a xlink:href="../../d9/d73/classnap_1_1_renderable_mesh_component_instance.html" target="_top" xlink:title="RenderableMeshComponentInstance">
<polygon fill="white" stroke="black" points="408,-202.5 408,-221.5 584,-221.5 584,-202.5 408,-202.5"/>
<text text-anchor="middle" x="496" y="-209.5" font-family="Helvetica,sans-Serif" font-size="10.00">RenderableMeshComponentInstance</text>
</a>
</g>
</g>
<!-- Node0&#45;&gt;Node3 -->
<g id="edge3" class="edge">
<title>Node0&#45;&gt;Node3</title>
<path fill="none" stroke="midnightblue" d="M315.61,-133.12C336.64,-150.49 372.57,-177.7 408,-193 416.94,-196.86 426.75,-199.97 436.46,-202.47"/>
<polygon fill="midnightblue" stroke="midnightblue" points="317.71,-130.31 307.8,-126.55 313.2,-135.67 317.71,-130.31"/>
</g>
<!-- Node4 -->
<g id="node5" class="node">
<title>Node4</title>
<g id="a_node5"><a xlink:href="../../db/d63/classnap_1_1_renderable_text_component_instance.html" target="_top" xlink:title="RenderableTextComponentInstance">
<polygon fill="white" stroke="black" points="411,-164.5 411,-183.5 581,-183.5 581,-164.5 411,-164.5"/>
<text text-anchor="middle" x="496" y="-171.5" font-family="Helvetica,sans-Serif" font-size="10.00">RenderableTextComponentInstance</text>
</a>
</g>
</g>
<!-- Node0&#45;&gt;Node4 -->
<g id="edge4" class="edge">
<title>Node0&#45;&gt;Node4</title>
<path fill="none" stroke="midnightblue" d="M331.77,-130.05C353.48,-137.92 382.14,-147.78 408,-155 420.36,-158.45 433.85,-161.66 446.44,-164.43"/>
<polygon fill="midnightblue" stroke="midnightblue" points="332.9,-126.74 322.31,-126.59 330.5,-133.32 332.9,-126.74"/>
</g>
<!-- Node7 -->
<g id="node8" class="node">
<title>Node7</title>
<g id="a_node8"><a xlink:href="../../dc/ddf/classnap_1_1_render_bloom_component_instance.html" target="_top" xlink:title="RenderBloomComponentInstance">
<polygon fill="white" stroke="black" points="415.5,-126.5 415.5,-145.5 576.5,-145.5 576.5,-126.5 415.5,-126.5"/>
<text text-anchor="middle" x="496" y="-133.5" font-family="Helvetica,sans-Serif" font-size="10.00">RenderBloomComponentInstance</text>
</a>
</g>
</g>
<!-- Node0&#45;&gt;Node7 -->
<g id="edge7" class="edge">
<title>Node0&#45;&gt;Node7</title>
<path fill="none" stroke="midnightblue" d="M382.16,-125.17C393.16,-126.23 404.39,-127.31 415.3,-128.35"/>
<polygon fill="midnightblue" stroke="midnightblue" points="382.43,-121.68 372.14,-124.21 381.76,-128.65 382.43,-121.68"/>
</g>
<!-- Node8 -->
<g id="node9" class="node">
<title>Node8</title>
<g id="a_node9"><a xlink:href="../../db/dce/classnap_1_1_render_gnomon_component_instance.html" target="_top" xlink:title="RenderGnomonComponentInstance">
<polygon fill="white" stroke="black" points="411,-88.5 411,-107.5 581,-107.5 581,-88.5 411,-88.5"/>
<text text-anchor="middle" x="496" y="-95.5" font-family="Helvetica,sans-Serif" font-size="10.00">RenderGnomonComponentInstance</text>
</a>
</g>
</g>
<!-- Node0&#45;&gt;Node8 -->
<g id="edge8" class="edge">
<title>Node0&#45;&gt;Node8</title>
<path fill="none" stroke="midnightblue" d="M382.35,-108.81C391.84,-107.9 401.5,-106.97 410.97,-106.06"/>
<polygon fill="midnightblue" stroke="midnightblue" points="381.76,-105.35 372.14,-109.79 382.43,-112.32 381.76,-105.35"/>
</g>
<!-- Node9 -->
<g id="node10" class="node">
<title>Node9</title>
<g id="a_node10"><a xlink:href="../../d5/d30/classnap_1_1_render_to_texture_component_instance.html" target="_top" xlink:title="RenderToTextureComponent\lInstance">
<polygon fill="white" stroke="black" points="426,-39 426,-69 566,-69 566,-39 426,-39"/>
<text text-anchor="start" x="434" y="-57" font-family="Helvetica,sans-Serif" font-size="10.00">RenderToTextureComponent</text>
<text text-anchor="middle" x="496" y="-46" font-family="Helvetica,sans-Serif" font-size="10.00">Instance</text>
</a>
</g>
</g>
<!-- Node0&#45;&gt;Node9 -->
<g id="edge9" class="edge">
<title>Node0&#45;&gt;Node9</title>
<path fill="none" stroke="midnightblue" d="M333.24,-104.08C354.85,-96.5 382.89,-86.9 408,-79 418.64,-75.65 430.08,-72.24 441.04,-69.05"/>
<polygon fill="midnightblue" stroke="midnightblue" points="332.06,-100.79 323.79,-107.41 334.39,-107.39 332.06,-100.79"/>
</g>
<!-- Node10 -->
<g id="node11" class="node">
<title>Node10</title>
<g id="a_node11"><a xlink:href="../../df/d41/classnap_1_1_render_video_component_instance.html" target="_top" xlink:title="RenderVideoComponentInstance">
<polygon fill="white" stroke="black" points="417,-0.5 417,-19.5 575,-19.5 575,-0.5 417,-0.5"/>
<text text-anchor="middle" x="496" y="-7.5" font-family="Helvetica,sans-Serif" font-size="10.00">RenderVideoComponentInstance</text>
</a>
</g>
</g>
<!-- Node0&#45;&gt;Node10 -->
<g id="edge10" class="edge">
<title>Node0&#45;&gt;Node10</title>
<path fill="none" stroke="midnightblue" d="M313.24,-100.08C333.51,-79.99 370.14,-46.95 408,-29 416.1,-25.16 425,-22.08 433.91,-19.62"/>
<polygon fill="midnightblue" stroke="midnightblue" points="310.61,-97.76 306.07,-107.33 315.59,-102.68 310.61,-97.76"/>
</g>
<!-- Node1 -->
<g id="node2" class="node">
<title>Node1</title>
<g id="a_node2"><a xlink:href="../../d9/df2/classnap_1_1_component_instance.html" target="_top" xlink:title="ComponentInstance">
<polygon fill="white" stroke="black" points="81,-107.5 81,-126.5 184,-126.5 184,-107.5 81,-107.5"/>
<text text-anchor="middle" x="132.5" y="-114.5" font-family="Helvetica,sans-Serif" font-size="10.00">ComponentInstance</text>
</a>
</g>
</g>
<!-- Node1&#45;&gt;Node0 -->
<g id="edge1" class="edge">
<title>Node1&#45;&gt;Node0</title>
<path fill="none" stroke="midnightblue" d="M194.23,-117C202.64,-117 211.35,-117 219.98,-117"/>
<polygon fill="midnightblue" stroke="midnightblue" points="194.16,-113.5 184.16,-117 194.16,-120.5 194.16,-113.5"/>
</g>
<!-- Node2 -->
<g id="node3" class="node">
<title>Node2</title>
<g id="a_node3"><a xlink:href="../../de/d01/classnap_1_1rtti_1_1_object.html" target="_top" xlink:title="Object">
<polygon fill="white" stroke="black" points="0,-107.5 0,-126.5 45,-126.5 45,-107.5 0,-107.5"/>
<text text-anchor="middle" x="22.5" y="-114.5" font-family="Helvetica,sans-Serif" font-size="10.00">Object</text>
</a>
</g>
</g>
<!-- Node2&#45;&gt;Node1 -->
<g id="edge2" class="edge">
<title>Node2&#45;&gt;Node1</title>
<path fill="none" stroke="midnightblue" d="M55.17,-117C63.25,-117 72.14,-117 80.9,-117"/>
<polygon fill="midnightblue" stroke="midnightblue" points="55.1,-113.5 45.1,-117 55.1,-120.5 55.1,-113.5"/>
</g>
<!-- Node5 -->
<g id="node6" class="node">
<title>Node5</title>
<g id="a_node6"><a xlink:href="../../dc/d0b/classnap_1_1_renderable2_d_text_component_instance.html" target="_top" xlink:title="Renderable2DTextComponent\lInstance">
<polygon fill="white" stroke="black" points="620,-183 620,-213 766,-213 766,-183 620,-183"/>
<text text-anchor="start" x="628" y="-201" font-family="Helvetica,sans-Serif" font-size="10.00">Renderable2DTextComponent</text>
<text text-anchor="middle" x="693" y="-190" font-family="Helvetica,sans-Serif" font-size="10.00">Instance</text>
</a>
</g>
</g>
<!-- Node4&#45;&gt;Node5 -->
<g id="edge5" class="edge">
<title>Node4&#45;&gt;Node5</title>
<path fill="none" stroke="midnightblue" d="M584.62,-184.78C596.39,-186.23 608.36,-187.71 619.82,-189.12"/>
<polygon fill="midnightblue" stroke="midnightblue" points="584.7,-181.27 574.35,-183.52 583.85,-188.22 584.7,-181.27"/>
</g>
<!-- Node6 -->
<g id="node7" class="node">
<title>Node6</title>
<g id="a_node7"><a xlink:href="../../d4/d70/classnap_1_1_renderable3_d_text_component_instance.html" target="_top" xlink:title="Renderable3DTextComponent\lInstance">
<polygon fill="white" stroke="black" points="620,-134 620,-164 766,-164 766,-134 620,-134"/>
<text text-anchor="start" x="628" y="-152" font-family="Helvetica,sans-Serif" font-size="10.00">Renderable3DTextComponent</text>
<text text-anchor="middle" x="693" y="-141" font-family="Helvetica,sans-Serif" font-size="10.00">Instance</text>
</a>
</g>
</g>
<!-- Node4&#45;&gt;Node6 -->
<g id="edge6" class="edge">
<title>Node4&#45;&gt;Node6</title>
<path fill="none" stroke="midnightblue" d="M581.46,-163.17C594.25,-161.53 607.36,-159.85 619.86,-158.25"/>
<polygon fill="midnightblue" stroke="midnightblue" points="580.75,-159.73 571.28,-164.48 581.64,-166.68 580.75,-159.73"/>
</g>
</g>
</svg>
