<?xml version="1.0" encoding="UTF-8" standalone="no"?>
<!DOCTYPE svg PUBLIC "-//W3C//DTD SVG 1.1//EN"
 "http://www.w3.org/Graphics/SVG/1.1/DTD/svg11.dtd">
<!-- Generated by graphviz version 2.43.0 (0)
 -->
<!-- Title: CalendarInstance Pages: 1 -->
<svg width="181pt" height="117pt"
 viewBox="0.00 0.00 180.50 117.00" xmlns="http://www.w3.org/2000/svg" xmlns:xlink="http://www.w3.org/1999/xlink">
<g id="graph0" class="graph" transform="scale(1 1) rotate(0) translate(4 113)">
<title>CalendarInstance</title>
<polygon fill="white" stroke="transparent" points="-4,4 -4,-113 176.5,-113 176.5,4 -4,4"/>
<!-- Node1 -->
<g id="node1" class="node">
<title>Node1</title>
<g id="a_node1"><a xlink:title=" ">
<polygon fill="#bfbfbf" stroke="black" points="51,-0.5 51,-19.5 152,-19.5 152,-0.5 51,-0.5"/>
<text text-anchor="middle" x="101.5" y="-7.5" font-family="Helvetica,sans-Serif" font-size="10.00">CalendarInstance</text>
</a>
</g>
</g>
<!-- Node2 -->
<g id="node2" class="node">
<title>Node2</title>
<g id="a_node2"><a xlink:href="../../de/d80/classnap_1_1_signal.html" target="_top" xlink:title=" ">
<polygon fill="white" stroke="black" points="0,-78.5 0,-108.5 111,-108.5 111,-78.5 0,-78.5"/>
<text text-anchor="start" x="8" y="-96.5" font-family="Helvetica,sans-Serif" font-size="10.00">Signal&lt; const nap::</text>
<text text-anchor="middle" x="55.5" y="-85.5" font-family="Helvetica,sans-Serif" font-size="10.00">CalendarItem &amp; &gt;</text>
</a>
</g>
</g>
<!-- Node2&#45;&gt;Node1 -->
<g id="edge1" class="edge">
<title>Node2&#45;&gt;Node1</title>
<path fill="none" stroke="#9a32cd" stroke-dasharray="5,2" d="M51,-67.97C50.39,-58.07 51.35,-46.9 56.5,-38 61.24,-29.8 69.56,-23.8 77.76,-19.58"/>
<polygon fill="#9a32cd" stroke="#9a32cd" points="47.54,-68.52 52.14,-78.06 54.49,-67.73 47.54,-68.52"/>
<text text-anchor="middle" x="91.5" y="-52" font-family="Helvetica,sans-Serif" font-size="10.00"> itemAdded</text>
<text text-anchor="middle" x="91.5" y="-41" font-family="Helvetica,sans-Serif" font-size="10.00">itemRemoved</text>
</g>
<!-- Node3 -->
<g id="node3" class="node">
<title>Node3</title>
<g id="a_node3"><a xlink:href="../../d0/dfd/classnap_1_1_core.html" target="_top" xlink:title=" ">
<polygon fill="white" stroke="black" points="129,-84 129,-103 168,-103 168,-84 129,-84"/>
<text text-anchor="middle" x="148.5" y="-91" font-family="Helvetica,sans-Serif" font-size="10.00">Core</text>
</a>
</g>
</g>
<!-- Node3&#45;&gt;Node1 -->
<g id="edge2" class="edge">
<title>Node3&#45;&gt;Node1</title>
<path fill="none" stroke="#9a32cd" stroke-dasharray="5,2" d="M142.97,-74.16C139.21,-63.19 133.63,-49.24 126.5,-38 122.26,-31.31 116.26,-24.77 111.2,-19.8"/>
<polygon fill="#9a32cd" stroke="#9a32cd" points="139.71,-75.47 146.1,-83.92 146.38,-73.33 139.71,-75.47"/>
<text text-anchor="middle" x="154.5" y="-46.5" font-family="Helvetica,sans-Serif" font-size="10.00"> mCore</text>
</g>
</g>
</svg>
