<?xml version="1.0" encoding="UTF-8" standalone="no"?>
<!DOCTYPE svg PUBLIC "-//W3C//DTD SVG 1.1//EN"
 "http://www.w3.org/Graphics/SVG/1.1/DTD/svg11.dtd">
<!-- Generated by graphviz version 3.0.0 (20220226.1711)
 -->
<!-- Title: RenderableComponentInstance Pages: 1 -->
<svg width="774pt" height="192pt"
 viewBox="0.00 0.00 774.00 192.00" xmlns="http://www.w3.org/2000/svg" xmlns:xlink="http://www.w3.org/1999/xlink">
<g id="graph0" class="graph" transform="scale(1 1) rotate(0) translate(4 188)">
<title>RenderableComponentInstance</title>
<polygon fill="white" stroke="transparent" points="-4,4 -4,-188 770,-188 770,4 -4,4"/>
<!-- Node0 -->
<g id="node1" class="node">
<title>Node0</title>
<polygon fill="#bfbfbf" stroke="black" points="220,-88.5 220,-107.5 372,-107.5 372,-88.5 220,-88.5"/>
<text text-anchor="middle" x="296" y="-95.5" font-family="Helvetica,sans-Serif" font-size="10.00">RenderableComponentInstance</text>
</g>
<!-- Node3 -->
<g id="node4" class="node">
<title>Node3</title>
<g id="a_node4"><a xlink:href="../../d9/d73/classnap_1_1_renderable_mesh_component_instance.html" target="_top" xlink:title="RenderableMeshComponentInstance">
<polygon fill="white" stroke="black" points="408,-164.5 408,-183.5 584,-183.5 584,-164.5 408,-164.5"/>
<text text-anchor="middle" x="496" y="-171.5" font-family="Helvetica,sans-Serif" font-size="10.00">RenderableMeshComponentInstance</text>
</a>
</g>
</g>
<!-- Node0&#45;&gt;Node3 -->
<g id="edge3" class="edge">
<title>Node0&#45;&gt;Node3</title>
<path fill="none" stroke="midnightblue" d="M321.24,-112.79C343.19,-125.6 376.78,-143.79 408,-155 418.48,-158.76 429.94,-161.91 441.01,-164.49"/>
<polygon fill="midnightblue" stroke="midnightblue" points="322.98,-109.74 312.59,-107.66 319.41,-115.77 322.98,-109.74"/>
</g>
<!-- Node4 -->
<g id="node5" class="node">
<title>Node4</title>
<g id="a_node5"><a xlink:href="../../db/d63/classnap_1_1_renderable_text_component_instance.html" target="_top" xlink:title="RenderableTextComponentInstance">
<polygon fill="white" stroke="black" points="411,-126.5 411,-145.5 581,-145.5 581,-126.5 411,-126.5"/>
<text text-anchor="middle" x="496" y="-133.5" font-family="Helvetica,sans-Serif" font-size="10.00">RenderableTextComponentInstance</text>
</a>
</g>
</g>
<!-- Node0&#45;&gt;Node4 -->
<g id="edge4" class="edge">
<title>Node0&#45;&gt;Node4</title>
<path fill="none" stroke="midnightblue" d="M356.87,-109.49C385.12,-114.91 418.44,-121.31 445.27,-126.46"/>
<polygon fill="midnightblue" stroke="midnightblue" points="357.19,-105.99 346.71,-107.54 355.87,-112.86 357.19,-105.99"/>
</g>
<!-- Node7 -->
<g id="node8" class="node">
<title>Node7</title>
<g id="a_node8"><a xlink:href="../../db/dce/classnap_1_1_render_gnomon_component_instance.html" target="_top" xlink:title="RenderGnomonComponentInstance">
<polygon fill="white" stroke="black" points="411,-88.5 411,-107.5 581,-107.5 581,-88.5 411,-88.5"/>
<text text-anchor="middle" x="496" y="-95.5" font-family="Helvetica,sans-Serif" font-size="10.00">RenderGnomonComponentInstance</text>
</a>
</g>
</g>
<!-- Node0&#45;&gt;Node7 -->
<g id="edge7" class="edge">
<title>Node0&#45;&gt;Node7</title>
<path fill="none" stroke="midnightblue" d="M382.35,-98C391.84,-98 401.5,-98 410.97,-98"/>
<polygon fill="midnightblue" stroke="midnightblue" points="382.14,-94.5 372.14,-98 382.14,-101.5 382.14,-94.5"/>
</g>
<!-- Node8 -->
<g id="node9" class="node">
<title>Node8</title>
<g id="a_node9"><a xlink:href="../../d5/d30/classnap_1_1_render_to_texture_component_instance.html" target="_top" xlink:title="RenderToTextureComponent\lInstance">
<polygon fill="white" stroke="black" points="426,-39 426,-69 566,-69 566,-39 426,-39"/>
<text text-anchor="start" x="434" y="-57" font-family="Helvetica,sans-Serif" font-size="10.00">RenderToTextureComponent</text>
<text text-anchor="middle" x="496" y="-46" font-family="Helvetica,sans-Serif" font-size="10.00">Instance</text>
</a>
</g>
</g>
<!-- Node0&#45;&gt;Node8 -->
<g id="edge8" class="edge">
<title>Node0&#45;&gt;Node8</title>
<path fill="none" stroke="midnightblue" d="M349.84,-86.26C373.59,-80.98 401.91,-74.69 427.21,-69.07"/>
<polygon fill="midnightblue" stroke="midnightblue" points="348.97,-82.87 339.96,-88.45 350.48,-89.7 348.97,-82.87"/>
</g>
<!-- Node9 -->
<g id="node10" class="node">
<title>Node9</title>
<g id="a_node10"><a xlink:href="../../df/d41/classnap_1_1_render_video_component_instance.html" target="_top" xlink:title="RenderVideoComponentInstance">
<polygon fill="white" stroke="black" points="417,-0.5 417,-19.5 575,-19.5 575,-0.5 417,-0.5"/>
<text text-anchor="middle" x="496" y="-7.5" font-family="Helvetica,sans-Serif" font-size="10.00">RenderVideoComponentInstance</text>
</a>
</g>
</g>
<!-- Node0&#45;&gt;Node9 -->
<g id="edge9" class="edge">
<title>Node0&#45;&gt;Node9</title>
<path fill="none" stroke="midnightblue" d="M317.24,-82.43C338.66,-66.7 374,-42.8 408,-29 417.45,-25.16 427.82,-22.04 437.99,-19.52"/>
<polygon fill="midnightblue" stroke="midnightblue" points="315.14,-79.63 309.22,-88.42 319.33,-85.24 315.14,-79.63"/>
</g>
<!-- Node1 -->
<g id="node2" class="node">
<title>Node1</title>
<g id="a_node2"><a xlink:href="../../d9/df2/classnap_1_1_component_instance.html" target="_top" xlink:title="ComponentInstance">
<polygon fill="white" stroke="black" points="81,-88.5 81,-107.5 184,-107.5 184,-88.5 81,-88.5"/>
<text text-anchor="middle" x="132.5" y="-95.5" font-family="Helvetica,sans-Serif" font-size="10.00">ComponentInstance</text>
</a>
</g>
</g>
<!-- Node1&#45;&gt;Node0 -->
<g id="edge1" class="edge">
<title>Node1&#45;&gt;Node0</title>
<path fill="none" stroke="midnightblue" d="M194.23,-98C202.64,-98 211.35,-98 219.98,-98"/>
<polygon fill="midnightblue" stroke="midnightblue" points="194.16,-94.5 184.16,-98 194.16,-101.5 194.16,-94.5"/>
</g>
<!-- Node2 -->
<g id="node3" class="node">
<title>Node2</title>
<g id="a_node3"><a xlink:href="../../de/d01/classnap_1_1rtti_1_1_object.html" target="_top" xlink:title="Object">
<polygon fill="white" stroke="black" points="0,-88.5 0,-107.5 45,-107.5 45,-88.5 0,-88.5"/>
<text text-anchor="middle" x="22.5" y="-95.5" font-family="Helvetica,sans-Serif" font-size="10.00">Object</text>
</a>
</g>
</g>
<!-- Node2&#45;&gt;Node1 -->
<g id="edge2" class="edge">
<title>Node2&#45;&gt;Node1</title>
<path fill="none" stroke="midnightblue" d="M55.17,-98C63.25,-98 72.14,-98 80.9,-98"/>
<polygon fill="midnightblue" stroke="midnightblue" points="55.1,-94.5 45.1,-98 55.1,-101.5 55.1,-94.5"/>
</g>
<!-- Node5 -->
<g id="node6" class="node">
<title>Node5</title>
<g id="a_node6"><a xlink:href="../../dc/d0b/classnap_1_1_renderable2_d_text_component_instance.html" target="_top" xlink:title="Renderable2DTextComponent\lInstance">
<polygon fill="white" stroke="black" points="620,-145 620,-175 766,-175 766,-145 620,-145"/>
<text text-anchor="start" x="628" y="-163" font-family="Helvetica,sans-Serif" font-size="10.00">Renderable2DTextComponent</text>
<text text-anchor="middle" x="693" y="-152" font-family="Helvetica,sans-Serif" font-size="10.00">Instance</text>
</a>
</g>
</g>
<!-- Node4&#45;&gt;Node5 -->
<g id="edge5" class="edge">
<title>Node4&#45;&gt;Node5</title>
<path fill="none" stroke="midnightblue" d="M584.62,-146.78C596.39,-148.23 608.36,-149.71 619.82,-151.12"/>
<polygon fill="midnightblue" stroke="midnightblue" points="584.7,-143.27 574.35,-145.52 583.85,-150.22 584.7,-143.27"/>
</g>
<!-- Node6 -->
<g id="node7" class="node">
<title>Node6</title>
<g id="a_node7"><a xlink:href="../../d4/d70/classnap_1_1_renderable3_d_text_component_instance.html" target="_top" xlink:title="Renderable3DTextComponent\lInstance">
<polygon fill="white" stroke="black" points="620,-96 620,-126 766,-126 766,-96 620,-96"/>
<text text-anchor="start" x="628" y="-114" font-family="Helvetica,sans-Serif" font-size="10.00">Renderable3DTextComponent</text>
<text text-anchor="middle" x="693" y="-103" font-family="Helvetica,sans-Serif" font-size="10.00">Instance</text>
</a>
</g>
</g>
<!-- Node4&#45;&gt;Node6 -->
<g id="edge6" class="edge">
<title>Node4&#45;&gt;Node6</title>
<path fill="none" stroke="midnightblue" d="M581.46,-125.17C594.25,-123.53 607.36,-121.85 619.86,-120.25"/>
<polygon fill="midnightblue" stroke="midnightblue" points="580.75,-121.73 571.28,-126.48 581.64,-128.68 580.75,-121.73"/>
</g>
</g>
</svg>
