<?xml version="1.0" encoding="UTF-8" standalone="no"?>
<!DOCTYPE svg PUBLIC "-//W3C//DTD SVG 1.1//EN"
 "http://www.w3.org/Graphics/SVG/1.1/DTD/svg11.dtd">
<!-- Generated by graphviz version 2.48.0 (20210717.1556)
 -->
<!-- Title: WebSocketEvent Pages: 1 -->
<svg width="545pt" height="137pt"
 viewBox="0.00 0.00 545.00 137.00" xmlns="http://www.w3.org/2000/svg" xmlns:xlink="http://www.w3.org/1999/xlink">
<g id="graph0" class="graph" transform="scale(1 1) rotate(0) translate(4 133)">
<title>WebSocketEvent</title>
<polygon fill="white" stroke="transparent" points="-4,4 -4,-133 541,-133 541,4 -4,4"/>
<!-- Node0 -->
<g id="node1" class="node">
<title>Node0</title>
<polygon fill="#bfbfbf" stroke="black" points="77,-33 77,-52 169,-52 169,-33 77,-33"/>
<text text-anchor="middle" x="123" y="-40" font-family="Helvetica,sans-Serif" font-size="10.00">WebSocketEvent</text>
</g>
<!-- Node2 -->
<g id="node3" class="node">
<title>Node2</title>
<g id="a_node3"><a xlink:href="../../de/d42/classnap_1_1_web_socket_connection_event.html" target="_top" xlink:title="WebSocketConnectionEvent">
<polygon fill="white" stroke="black" points="208,-55 208,-74 348,-74 348,-55 208,-55"/>
<text text-anchor="middle" x="278" y="-62" font-family="Helvetica,sans-Serif" font-size="10.00">WebSocketConnectionEvent</text>
</a>
</g>
</g>
<!-- Node0&#45;&gt;Node2 -->
<g id="edge2" class="edge">
<title>Node0&#45;&gt;Node2</title>
<path fill="none" stroke="midnightblue" d="M179.11,-50.42C189.35,-51.9 200.16,-53.45 210.7,-54.97"/>
<polygon fill="midnightblue" stroke="midnightblue" points="179.47,-46.94 169.08,-48.98 178.48,-53.87 179.47,-46.94"/>
</g>
<!-- Node6 -->
<g id="node7" class="node">
<title>Node6</title>
<g id="a_node7"><a xlink:href="../../d6/dd9/classnap_1_1_web_socket_message_received_event.html" target="_top" xlink:title="WebSocketMessageReceived\lEvent">
<polygon fill="white" stroke="black" points="205,-5.5 205,-35.5 351,-35.5 351,-5.5 205,-5.5"/>
<text text-anchor="start" x="213" y="-23.5" font-family="Helvetica,sans-Serif" font-size="10.00">WebSocketMessageReceived</text>
<text text-anchor="middle" x="278" y="-12.5" font-family="Helvetica,sans-Serif" font-size="10.00">Event</text>
</a>
</g>
</g>
<!-- Node0&#45;&gt;Node6 -->
<g id="edge6" class="edge">
<title>Node0&#45;&gt;Node6</title>
<path fill="none" stroke="midnightblue" d="M179.11,-34.58C187.51,-33.37 196.28,-32.11 204.98,-30.86"/>
<polygon fill="midnightblue" stroke="midnightblue" points="178.48,-31.13 169.08,-36.02 179.47,-38.06 178.48,-31.13"/>
</g>
<!-- Node1 -->
<g id="node2" class="node">
<title>Node1</title>
<g id="a_node2"><a xlink:href="../../d2/da2/classnap_1_1_event.html" target="_top" xlink:title="Event">
<polygon fill="white" stroke="black" points="0,-33 0,-52 41,-52 41,-33 0,-33"/>
<text text-anchor="middle" x="20.5" y="-40" font-family="Helvetica,sans-Serif" font-size="10.00">Event</text>
</a>
</g>
</g>
<!-- Node1&#45;&gt;Node0 -->
<g id="edge1" class="edge">
<title>Node1&#45;&gt;Node0</title>
<path fill="none" stroke="midnightblue" d="M51.59,-42.5C59.53,-42.5 68.27,-42.5 76.82,-42.5"/>
<polygon fill="midnightblue" stroke="midnightblue" points="51.36,-39 41.36,-42.5 51.36,-46 51.36,-39"/>
</g>
<!-- Node3 -->
<g id="node4" class="node">
<title>Node3</title>
<g id="a_node4"><a xlink:href="../../df/ddd/classnap_1_1_web_socket_connection_closed_event.html" target="_top" xlink:title="WebSocketConnectionClosed\lEvent">
<polygon fill="white" stroke="black" points="389,-98.5 389,-128.5 535,-128.5 535,-98.5 389,-98.5"/>
<text text-anchor="start" x="397" y="-116.5" font-family="Helvetica,sans-Serif" font-size="10.00">WebSocketConnectionClosed</text>
<text text-anchor="middle" x="462" y="-105.5" font-family="Helvetica,sans-Serif" font-size="10.00">Event</text>
</a>
</g>
</g>
<!-- Node2&#45;&gt;Node3 -->
<g id="edge3" class="edge">
<title>Node2&#45;&gt;Node3</title>
<path fill="none" stroke="midnightblue" d="M324.28,-76.69C348.76,-83.28 379.2,-91.48 405.15,-98.46"/>
<polygon fill="midnightblue" stroke="midnightblue" points="325.09,-73.28 314.52,-74.06 323.27,-80.04 325.09,-73.28"/>
</g>
<!-- Node4 -->
<g id="node5" class="node">
<title>Node4</title>
<g id="a_node5"><a xlink:href="../../df/dd1/classnap_1_1_web_socket_connection_failed_event.html" target="_top" xlink:title="WebSocketConnectionFailed\lEvent">
<polygon fill="white" stroke="black" points="390.5,-49.5 390.5,-79.5 533.5,-79.5 533.5,-49.5 390.5,-49.5"/>
<text text-anchor="start" x="398.5" y="-67.5" font-family="Helvetica,sans-Serif" font-size="10.00">WebSocketConnectionFailed</text>
<text text-anchor="middle" x="462" y="-56.5" font-family="Helvetica,sans-Serif" font-size="10.00">Event</text>
</a>
</g>
</g>
<!-- Node2&#45;&gt;Node4 -->
<g id="edge4" class="edge">
<title>Node2&#45;&gt;Node4</title>
<path fill="none" stroke="midnightblue" d="M358.26,-64.5C368.98,-64.5 379.92,-64.5 390.47,-64.5"/>
<polygon fill="midnightblue" stroke="midnightblue" points="358.07,-61 348.07,-64.5 358.07,-68 358.07,-61"/>
</g>
<!-- Node5 -->
<g id="node6" class="node">
<title>Node5</title>
<g id="a_node6"><a xlink:href="../../d1/d76/classnap_1_1_web_socket_connection_opened_event.html" target="_top" xlink:title="WebSocketConnectionOpened\lEvent">
<polygon fill="white" stroke="black" points="387,-0.5 387,-30.5 537,-30.5 537,-0.5 387,-0.5"/>
<text text-anchor="start" x="395" y="-18.5" font-family="Helvetica,sans-Serif" font-size="10.00">WebSocketConnectionOpened</text>
<text text-anchor="middle" x="462" y="-7.5" font-family="Helvetica,sans-Serif" font-size="10.00">Event</text>
</a>
</g>
</g>
<!-- Node2&#45;&gt;Node5 -->
<g id="edge5" class="edge">
<title>Node2&#45;&gt;Node5</title>
<path fill="none" stroke="midnightblue" d="M325.17,-52.38C333.76,-50.1 342.65,-47.74 351,-45.5 368.97,-40.68 388.58,-35.35 406.19,-30.54"/>
<polygon fill="midnightblue" stroke="midnightblue" points="324.05,-49.05 315.27,-54.99 325.84,-55.82 324.05,-49.05"/>
</g>
</g>
</svg>
