<?xml version="1.0" encoding="UTF-8" standalone="no"?>
<!DOCTYPE svg PUBLIC "-//W3C//DTD SVG 1.1//EN"
 "http://www.w3.org/Graphics/SVG/1.1/DTD/svg11.dtd">
<!-- Generated by graphviz version 2.43.0 (0)
 -->
<!-- Title: BufferPlayerNode Pages: 1 -->
<svg width="155pt" height="152pt"
 viewBox="0.00 0.00 155.00 152.00" xmlns="http://www.w3.org/2000/svg" xmlns:xlink="http://www.w3.org/1999/xlink">
<g id="graph0" class="graph" transform="scale(1 1) rotate(0) translate(4 148)">
<title>BufferPlayerNode</title>
<polygon fill="white" stroke="transparent" points="-4,4 -4,-148 151,-148 151,4 -4,4"/>
<!-- Node1 -->
<g id="node1" class="node">
<title>Node1</title>
<g id="a_node1"><a xlink:title=" ">
<polygon fill="#bfbfbf" stroke="black" points="12,-0.5 12,-19.5 114,-19.5 114,-0.5 12,-0.5"/>
<text text-anchor="middle" x="63" y="-7.5" font-family="Helvetica,sans-Serif" font-size="10.00">BufferPlayerNode</text>
</a>
</g>
</g>
<!-- Node2 -->
<g id="node2" class="node">
<title>Node2</title>
<g id="a_node2"><a xlink:href="../../dc/d0d/classnap_1_1audio_1_1_node.html" target="_top" xlink:title=" ">
<polygon fill="white" stroke="black" points="6,-67.5 6,-86.5 48,-86.5 48,-67.5 6,-67.5"/>
<text text-anchor="middle" x="27" y="-74.5" font-family="Helvetica,sans-Serif" font-size="10.00">Node</text>
</a>
</g>
</g>
<!-- Node2&#45;&gt;Node1 -->
<g id="edge1" class="edge">
<title>Node2&#45;&gt;Node1</title>
<path fill="none" stroke="midnightblue" d="M36.88,-58.16C43.82,-45.63 52.8,-29.41 58.22,-19.63"/>
<polygon fill="midnightblue" stroke="midnightblue" points="33.64,-56.79 31.86,-67.23 39.76,-60.18 33.64,-56.79"/>
</g>
<!-- Node3 -->
<g id="node3" class="node">
<title>Node3</title>
<g id="a_node3"><a xlink:href="../../d4/d2d/classnap_1_1audio_1_1_process.html" target="_top" xlink:title=" ">
<polygon fill="white" stroke="black" points="0,-124.5 0,-143.5 54,-143.5 54,-124.5 0,-124.5"/>
<text text-anchor="middle" x="27" y="-131.5" font-family="Helvetica,sans-Serif" font-size="10.00">Process</text>
</a>
</g>
</g>
<!-- Node3&#45;&gt;Node2 -->
<g id="edge2" class="edge">
<title>Node3&#45;&gt;Node2</title>
<path fill="none" stroke="midnightblue" d="M27,-114.12C27,-104.82 27,-94.06 27,-86.71"/>
<polygon fill="midnightblue" stroke="midnightblue" points="23.5,-114.41 27,-124.41 30.5,-114.41 23.5,-114.41"/>
</g>
<!-- Node4 -->
<g id="node4" class="node">
<title>Node4</title>
<g id="a_node4"><a xlink:href="../../dc/d5a/classnap_1_1audio_1_1_output_pin.html" target="_top" xlink:title=" ">
<polygon fill="white" stroke="black" points="66.5,-67.5 66.5,-86.5 131.5,-86.5 131.5,-67.5 66.5,-67.5"/>
<text text-anchor="middle" x="99" y="-74.5" font-family="Helvetica,sans-Serif" font-size="10.00">OutputPin</text>
</a>
</g>
</g>
<!-- Node4&#45;&gt;Node1 -->
<g id="edge3" class="edge">
<title>Node4&#45;&gt;Node1</title>
<path fill="none" stroke="#9a32cd" stroke-dasharray="5,2" d="M89.12,-58.16C82.18,-45.63 73.2,-29.41 67.78,-19.63"/>
<polygon fill="#9a32cd" stroke="#9a32cd" points="86.24,-60.18 94.14,-67.23 92.36,-56.79 86.24,-60.18"/>
<text text-anchor="middle" x="115" y="-41" font-family="Helvetica,sans-Serif" font-size="10.00"> audioOutput</text>
</g>
</g>
</svg>
