<?xml version="1.0" encoding="UTF-8" standalone="no"?>
<!DOCTYPE svg PUBLIC "-//W3C//DTD SVG 1.1//EN"
 "http://www.w3.org/Graphics/SVG/1.1/DTD/svg11.dtd">
<!-- Generated by graphviz version 2.48.0 (20210717.1556)
 -->
<!-- Title: InputComponent Pages: 1 -->
<svg width="95pt" height="196pt"
 viewBox="0.00 0.00 95.00 196.00" xmlns="http://www.w3.org/2000/svg" xmlns:xlink="http://www.w3.org/1999/xlink">
<g id="graph0" class="graph" transform="scale(1 1) rotate(0) translate(4 192)">
<title>InputComponent</title>
<polygon fill="white" stroke="transparent" points="-4,4 -4,-192 91,-192 91,4 -4,4"/>
<!-- Node7 -->
<g id="node1" class="node">
<title>Node7</title>
<polygon fill="#bfbfbf" stroke="black" points="0,-0.5 0,-19.5 87,-19.5 87,-0.5 0,-0.5"/>
<text text-anchor="middle" x="43.5" y="-7.5" font-family="Helvetica,sans-Serif" font-size="10.00">InputComponent</text>
</g>
<!-- Node8 -->
<g id="node2" class="node">
<title>Node8</title>
<g id="a_node2"><a xlink:href="../../db/d6b/classnap_1_1_component.html" target="_top" xlink:title="Component">
<polygon fill="white" stroke="black" points="10.5,-56.5 10.5,-75.5 76.5,-75.5 76.5,-56.5 10.5,-56.5"/>
<text text-anchor="middle" x="43.5" y="-63.5" font-family="Helvetica,sans-Serif" font-size="10.00">Component</text>
</a>
</g>
</g>
<!-- Node8&#45;&gt;Node7 -->
<g id="edge1" class="edge">
<title>Node8&#45;&gt;Node7</title>
<path fill="none" stroke="midnightblue" d="M43.5,-45.8C43.5,-36.91 43.5,-26.78 43.5,-19.75"/>
<polygon fill="midnightblue" stroke="midnightblue" points="40,-46.08 43.5,-56.08 47,-46.08 40,-46.08"/>
</g>
<!-- Node9 -->
<g id="node3" class="node">
<title>Node9</title>
<g id="a_node3"><a xlink:href="../../d9/dea/classnap_1_1_resource.html" target="_top" xlink:title="Resource">
<polygon fill="white" stroke="black" points="14.5,-112.5 14.5,-131.5 72.5,-131.5 72.5,-112.5 14.5,-112.5"/>
<text text-anchor="middle" x="43.5" y="-119.5" font-family="Helvetica,sans-Serif" font-size="10.00">Resource</text>
</a>
</g>
</g>
<!-- Node9&#45;&gt;Node8 -->
<g id="edge2" class="edge">
<title>Node9&#45;&gt;Node8</title>
<path fill="none" stroke="midnightblue" d="M43.5,-101.8C43.5,-92.91 43.5,-82.78 43.5,-75.75"/>
<polygon fill="midnightblue" stroke="midnightblue" points="40,-102.08 43.5,-112.08 47,-102.08 40,-102.08"/>
</g>
<!-- Node10 -->
<g id="node4" class="node">
<title>Node10</title>
<g id="a_node4"><a xlink:href="../../de/d01/classnap_1_1rtti_1_1_object.html" target="_top" xlink:title="Object">
<polygon fill="white" stroke="black" points="21,-168.5 21,-187.5 66,-187.5 66,-168.5 21,-168.5"/>
<text text-anchor="middle" x="43.5" y="-175.5" font-family="Helvetica,sans-Serif" font-size="10.00">Object</text>
</a>
</g>
</g>
<!-- Node10&#45;&gt;Node9 -->
<g id="edge3" class="edge">
<title>Node10&#45;&gt;Node9</title>
<path fill="none" stroke="midnightblue" d="M43.5,-157.8C43.5,-148.91 43.5,-138.78 43.5,-131.75"/>
<polygon fill="midnightblue" stroke="midnightblue" points="40,-158.08 43.5,-168.08 47,-158.08 40,-158.08"/>
</g>
</g>
</svg>
