<?xml version="1.0" encoding="UTF-8" standalone="no"?>
<!DOCTYPE svg PUBLIC "-//W3C//DTD SVG 1.1//EN"
 "http://www.w3.org/Graphics/SVG/1.1/DTD/svg11.dtd">
<!-- Generated by graphviz version 3.0.0 (20220226.1711)
 -->
<!-- Title: FontShader Pages: 1 -->
<svg width="75pt" height="196pt"
 viewBox="0.00 0.00 75.00 196.00" xmlns="http://www.w3.org/2000/svg" xmlns:xlink="http://www.w3.org/1999/xlink">
<g id="graph0" class="graph" transform="scale(1 1) rotate(0) translate(4 192)">
<title>FontShader</title>
<polygon fill="white" stroke="transparent" points="-4,4 -4,-192 71,-192 71,4 -4,4"/>
<!-- Node0 -->
<g id="node1" class="node">
<title>Node0</title>
<polygon fill="#bfbfbf" stroke="black" points="0,-0.5 0,-19.5 67,-19.5 67,-0.5 0,-0.5"/>
<text text-anchor="middle" x="33.5" y="-7.5" font-family="Helvetica,sans-Serif" font-size="10.00">FontShader</text>
</g>
<!-- Node1 -->
<g id="node2" class="node">
<title>Node1</title>
<g id="a_node2"><a xlink:href="../../dd/d44/classnap_1_1_shader.html" target="_top" xlink:title="Shader">
<polygon fill="white" stroke="black" points="10,-56.5 10,-75.5 57,-75.5 57,-56.5 10,-56.5"/>
<text text-anchor="middle" x="33.5" y="-63.5" font-family="Helvetica,sans-Serif" font-size="10.00">Shader</text>
</a>
</g>
</g>
<!-- Node1&#45;&gt;Node0 -->
<g id="edge1" class="edge">
<title>Node1&#45;&gt;Node0</title>
<path fill="none" stroke="midnightblue" d="M33.5,-45.8C33.5,-36.91 33.5,-26.78 33.5,-19.75"/>
<polygon fill="midnightblue" stroke="midnightblue" points="30,-46.08 33.5,-56.08 37,-46.08 30,-46.08"/>
</g>
<!-- Node2 -->
<g id="node3" class="node">
<title>Node2</title>
<g id="a_node3"><a xlink:href="../../d9/dea/classnap_1_1_resource.html" target="_top" xlink:title="Resource">
<polygon fill="white" stroke="black" points="4.5,-112.5 4.5,-131.5 62.5,-131.5 62.5,-112.5 4.5,-112.5"/>
<text text-anchor="middle" x="33.5" y="-119.5" font-family="Helvetica,sans-Serif" font-size="10.00">Resource</text>
</a>
</g>
</g>
<!-- Node2&#45;&gt;Node1 -->
<g id="edge2" class="edge">
<title>Node2&#45;&gt;Node1</title>
<path fill="none" stroke="midnightblue" d="M33.5,-101.8C33.5,-92.91 33.5,-82.78 33.5,-75.75"/>
<polygon fill="midnightblue" stroke="midnightblue" points="30,-102.08 33.5,-112.08 37,-102.08 30,-102.08"/>
</g>
<!-- Node3 -->
<g id="node4" class="node">
<title>Node3</title>
<g id="a_node4"><a xlink:href="../../de/d01/classnap_1_1rtti_1_1_object.html" target="_top" xlink:title="Object">
<polygon fill="white" stroke="black" points="11,-168.5 11,-187.5 56,-187.5 56,-168.5 11,-168.5"/>
<text text-anchor="middle" x="33.5" y="-175.5" font-family="Helvetica,sans-Serif" font-size="10.00">Object</text>
</a>
</g>
</g>
<!-- Node3&#45;&gt;Node2 -->
<g id="edge3" class="edge">
<title>Node3&#45;&gt;Node2</title>
<path fill="none" stroke="midnightblue" d="M33.5,-157.8C33.5,-148.91 33.5,-138.78 33.5,-131.75"/>
<polygon fill="midnightblue" stroke="midnightblue" points="30,-158.08 33.5,-168.08 37,-158.08 30,-158.08"/>
</g>
</g>
</svg>
