<?xml version="1.0" encoding="UTF-8" standalone="no"?>
<!DOCTYPE svg PUBLIC "-//W3C//DTD SVG 1.1//EN"
 "http://www.w3.org/Graphics/SVG/1.1/DTD/svg11.dtd">
<!-- Generated by graphviz version 3.0.0 (20220226.1711)
 -->
<!-- Title: SequenceEditorGUIView Pages: 1 -->
<svg width="933pt" height="220pt"
 viewBox="0.00 0.00 933.00 219.50" xmlns="http://www.w3.org/2000/svg" xmlns:xlink="http://www.w3.org/1999/xlink">
<g id="graph0" class="graph" transform="scale(1 1) rotate(0) translate(4 215.5)">
<title>SequenceEditorGUIView</title>
<polygon fill="white" stroke="transparent" points="-4,4 -4,-215.5 929,-215.5 929,4 -4,4"/>
<!-- Node1 -->
<g id="node1" class="node">
<title>Node1</title>
<polygon fill="#bfbfbf" stroke="black" points="802,-137 802,-156 925,-156 925,-137 802,-137"/>
<text text-anchor="middle" x="863.5" y="-144" font-family="Helvetica,sans-Serif" font-size="10.00">SequenceEditorGUIView</text>
</g>
<!-- Node2 -->
<g id="node2" class="node">
<title>Node2</title>
<g id="a_node2"><a xlink:href="../../d0/d0a/classnap_1_1_sequence_g_u_i_service.html" target="_top" xlink:title="SequenceGUIService">
<polygon fill="white" stroke="black" points="572.5,-192 572.5,-211 680.5,-211 680.5,-192 572.5,-192"/>
<text text-anchor="middle" x="626.5" y="-199" font-family="Helvetica,sans-Serif" font-size="10.00">SequenceGUIService</text>
</a>
</g>
</g>
<!-- Node2&#45;&gt;Node1 -->
<g id="edge1" class="edge">
<title>Node2&#45;&gt;Node1</title>
<path fill="none" stroke="#9a32cd" stroke-dasharray="5,2" d="M690.67,-191.82C719.36,-186.9 753.6,-180.31 784,-172.5 801.8,-167.93 821.42,-161.43 836.6,-156.07"/>
<polygon fill="#9a32cd" stroke="#9a32cd" points="690.05,-188.37 680.78,-193.48 691.22,-195.27 690.05,-188.37"/>
<text text-anchor="middle" x="745.5" y="-191.5" font-family="Helvetica,sans-Serif" font-size="10.00"> mService</text>
</g>
<!-- Node3 -->
<g id="node3" class="node">
<title>Node3</title>
<g id="a_node3"><a xlink:href="../../d8/d8e/classnap_1_1_service.html" target="_top" xlink:title="Service">
<polygon fill="white" stroke="black" points="395.5,-192 395.5,-211 443.5,-211 443.5,-192 395.5,-192"/>
<text text-anchor="middle" x="419.5" y="-199" font-family="Helvetica,sans-Serif" font-size="10.00">Service</text>
</a>
</g>
</g>
<!-- Node3&#45;&gt;Node2 -->
<g id="edge2" class="edge">
<title>Node3&#45;&gt;Node2</title>
<path fill="none" stroke="midnightblue" d="M453.79,-201.5C485.83,-201.5 534.79,-201.5 572.25,-201.5"/>
<polygon fill="midnightblue" stroke="midnightblue" points="453.62,-198 443.62,-201.5 453.62,-205 453.62,-198"/>
</g>
<!-- Node4 -->
<g id="node4" class="node">
<title>Node4</title>
<g id="a_node4"><a xlink:href="../../db/d94/structnap_1_1_sequence_editor_g_u_i_state.html" target="_top" xlink:title="SequenceEditorGUIState">
<polygon fill="white" stroke="black" points="564,-154 564,-173 689,-173 689,-154 564,-154"/>
<text text-anchor="middle" x="626.5" y="-161" font-family="Helvetica,sans-Serif" font-size="10.00">SequenceEditorGUIState</text>
</a>
</g>
</g>
<!-- Node4&#45;&gt;Node1 -->
<g id="edge3" class="edge">
<title>Node4&#45;&gt;Node1</title>
<path fill="none" stroke="#9a32cd" stroke-dasharray="5,2" d="M699.24,-158.31C732.1,-155.93 770.62,-153.15 801.98,-150.88"/>
<polygon fill="#9a32cd" stroke="#9a32cd" points="698.96,-154.82 689.24,-159.03 699.47,-161.8 698.96,-154.82"/>
<text text-anchor="middle" x="745.5" y="-160.5" font-family="Helvetica,sans-Serif" font-size="10.00"> mState</text>
</g>
<!-- Node5 -->
<g id="node5" class="node">
<title>Node5</title>
<g id="a_node5"><a xlink:href="../../d9/dde/classnap_1_1_sequence_editor.html" target="_top" xlink:title="SequenceEditor">
<polygon fill="white" stroke="black" points="376.5,-36 376.5,-55 462.5,-55 462.5,-36 376.5,-36"/>
<text text-anchor="middle" x="419.5" y="-43" font-family="Helvetica,sans-Serif" font-size="10.00">SequenceEditor</text>
</a>
</g>
</g>
<!-- Node5&#45;&gt;Node1 -->
<g id="edge4" class="edge">
<title>Node5&#45;&gt;Node1</title>
<path fill="none" stroke="#9a32cd" stroke-dasharray="5,2" d="M472.72,-53.61C527.07,-62.42 614.49,-77.66 689,-95.5 740.3,-107.78 798.99,-125.91 833.27,-136.92"/>
<polygon fill="#9a32cd" stroke="#9a32cd" points="473.06,-50.12 462.64,-51.98 471.95,-57.03 473.06,-50.12"/>
<text text-anchor="middle" x="626.5" y="-98.5" font-family="Helvetica,sans-Serif" font-size="10.00"> mEditor</text>
</g>
<!-- Node6 -->
<g id="node6" class="node">
<title>Node6</title>
<g id="a_node6"><a xlink:href="../../d9/dea/classnap_1_1_resource.html" target="_top" xlink:title="Resource">
<polygon fill="white" stroke="black" points="154,-50 154,-69 212,-69 212,-50 154,-50"/>
<text text-anchor="middle" x="183" y="-57" font-family="Helvetica,sans-Serif" font-size="10.00">Resource</text>
</a>
</g>
</g>
<!-- Node6&#45;&gt;Node5 -->
<g id="edge5" class="edge">
<title>Node6&#45;&gt;Node5</title>
<path fill="none" stroke="midnightblue" d="M222.46,-57.2C264.75,-54.68 332.49,-50.63 376.24,-48.02"/>
<polygon fill="midnightblue" stroke="midnightblue" points="222.06,-53.72 212.29,-57.81 222.48,-60.71 222.06,-53.72"/>
</g>
<!-- Node11 -->
<g id="node11" class="node">
<title>Node11</title>
<g id="a_node11"><a xlink:href="../../d0/dc5/classnap_1_1_window.html" target="_top" xlink:title="Window">
<polygon fill="white" stroke="black" points="394,-78 394,-97 445,-97 445,-78 394,-78"/>
<text text-anchor="middle" x="419.5" y="-85" font-family="Helvetica,sans-Serif" font-size="10.00">Window</text>
</a>
</g>
</g>
<!-- Node6&#45;&gt;Node11 -->
<g id="edge11" class="edge">
<title>Node6&#45;&gt;Node11</title>
<path fill="none" stroke="midnightblue" d="M222.38,-64.08C270.82,-69.87 352.75,-79.65 393.68,-84.54"/>
<polygon fill="midnightblue" stroke="midnightblue" points="222.63,-60.59 212.29,-62.88 221.8,-67.54 222.63,-60.59"/>
</g>
<!-- Node7 -->
<g id="node7" class="node">
<title>Node7</title>
<g id="a_node7"><a xlink:href="../../de/d01/classnap_1_1rtti_1_1_object.html" target="_top" xlink:title="Object">
<polygon fill="white" stroke="black" points="17.5,-50 17.5,-69 62.5,-69 62.5,-50 17.5,-50"/>
<text text-anchor="middle" x="40" y="-57" font-family="Helvetica,sans-Serif" font-size="10.00">Object</text>
</a>
</g>
</g>
<!-- Node7&#45;&gt;Node6 -->
<g id="edge6" class="edge">
<title>Node7&#45;&gt;Node6</title>
<path fill="none" stroke="midnightblue" d="M72.9,-59.5C97.28,-59.5 130.56,-59.5 153.93,-59.5"/>
<polygon fill="midnightblue" stroke="midnightblue" points="72.72,-56 62.72,-59.5 72.72,-63 72.72,-56"/>
</g>
<!-- Node8 -->
<g id="node8" class="node">
<title>Node8</title>
<g id="a_node8"><a xlink:href="../../dd/d7c/classnap_1_1rtti_1_1_object_ptr.html" target="_top" xlink:title="ObjectPtr\&lt; nap::Sequence\lPlayer \&gt;">
<polygon fill="white" stroke="black" points="117,-0.5 117,-30.5 249,-30.5 249,-0.5 117,-0.5"/>
<text text-anchor="start" x="125" y="-18.5" font-family="Helvetica,sans-Serif" font-size="10.00">ObjectPtr&lt; nap::Sequence</text>
<text text-anchor="middle" x="183" y="-7.5" font-family="Helvetica,sans-Serif" font-size="10.00">Player &gt;</text>
</a>
</g>
</g>
<!-- Node8&#45;&gt;Node5 -->
<g id="edge7" class="edge">
<title>Node8&#45;&gt;Node5</title>
<path fill="none" stroke="#9a32cd" stroke-dasharray="5,2" d="M259.4,-23.4C287.83,-26.57 320.44,-30.44 350,-34.5 358.47,-35.66 367.51,-37.03 376.16,-38.39"/>
<polygon fill="#9a32cd" stroke="#9a32cd" points="259.45,-19.88 249.13,-22.26 258.68,-26.84 259.45,-19.88"/>
<text text-anchor="middle" x="308.5" y="-37.5" font-family="Helvetica,sans-Serif" font-size="10.00"> mSequencePlayer</text>
</g>
<!-- Node9 -->
<g id="node9" class="node">
<title>Node9</title>
<g id="a_node9"><a xlink:href="../../d7/dcb/classnap_1_1rtti_1_1_object_ptr_base.html" target="_top" xlink:title="ObjectPtrBase">
<polygon fill="white" stroke="black" points="0,-6 0,-25 80,-25 80,-6 0,-6"/>
<text text-anchor="middle" x="40" y="-13" font-family="Helvetica,sans-Serif" font-size="10.00">ObjectPtrBase</text>
</a>
</g>
</g>
<!-- Node9&#45;&gt;Node8 -->
<g id="edge8" class="edge">
<title>Node9&#45;&gt;Node8</title>
<path fill="none" stroke="midnightblue" d="M90.4,-15.5C98.91,-15.5 107.88,-15.5 116.73,-15.5"/>
<polygon fill="midnightblue" stroke="midnightblue" points="90.28,-12 80.28,-15.5 90.28,-19 90.28,-12"/>
</g>
<!-- Node10 -->
<g id="node10" class="node">
<title>Node10</title>
<g id="a_node10"><a xlink:href="../../d6/d4f/classnap_1_1_render_window.html" target="_top" xlink:title="RenderWindow">
<polygon fill="white" stroke="black" points="585.5,-116 585.5,-135 667.5,-135 667.5,-116 585.5,-116"/>
<text text-anchor="middle" x="626.5" y="-123" font-family="Helvetica,sans-Serif" font-size="10.00">RenderWindow</text>
</a>
</g>
</g>
<!-- Node10&#45;&gt;Node1 -->
<g id="edge9" class="edge">
<title>Node10&#45;&gt;Node1</title>
<path fill="none" stroke="#9a32cd" stroke-dasharray="5,2" d="M677.8,-128.31C708.51,-130.21 748.57,-133 784,-136.5 789.74,-137.07 795.71,-137.72 801.68,-138.41"/>
<polygon fill="#9a32cd" stroke="#9a32cd" points="677.95,-124.81 667.76,-127.7 677.53,-131.8 677.95,-124.81"/>
<text text-anchor="middle" x="745.5" y="-139.5" font-family="Helvetica,sans-Serif" font-size="10.00"> mRenderWindow</text>
</g>
<!-- Node11&#45;&gt;Node10 -->
<g id="edge10" class="edge">
<title>Node11&#45;&gt;Node10</title>
<path fill="none" stroke="midnightblue" d="M455.25,-93.94C491.19,-100.6 547.28,-111 585.16,-118.02"/>
<polygon fill="midnightblue" stroke="midnightblue" points="455.7,-90.47 445.23,-92.08 454.42,-97.35 455.7,-90.47"/>
</g>
<!-- Node12 -->
<g id="node12" class="node">
<title>Node12</title>
<g id="a_node12"><a xlink:href="../../de/d80/classnap_1_1_signal.html" target="_top" xlink:title="Signal\&lt; const nap::\lWindowEvent &amp;\&gt;">
<polygon fill="white" stroke="black" points="132.5,-88.5 132.5,-118.5 233.5,-118.5 233.5,-88.5 132.5,-88.5"/>
<text text-anchor="start" x="140.5" y="-106.5" font-family="Helvetica,sans-Serif" font-size="10.00">Signal&lt; const nap::</text>
<text text-anchor="middle" x="183" y="-95.5" font-family="Helvetica,sans-Serif" font-size="10.00">WindowEvent &amp;&gt;</text>
</a>
</g>
</g>
<!-- Node12&#45;&gt;Node11 -->
<g id="edge12" class="edge">
<title>Node12&#45;&gt;Node11</title>
<path fill="none" stroke="#9a32cd" stroke-dasharray="5,2" d="M243.84,-99.42C292.51,-96.1 358.72,-91.58 394,-89.17"/>
<polygon fill="#9a32cd" stroke="#9a32cd" points="243.47,-95.93 233.73,-100.11 243.95,-102.92 243.47,-95.93"/>
<text text-anchor="middle" x="308.5" y="-99.5" font-family="Helvetica,sans-Serif" font-size="10.00"> mWindowEvent</text>
</g>
<!-- Node13 -->
<g id="node13" class="node">
<title>Node13</title>
<g id="a_node13"><a xlink:href="../../d7/da9/classnap_1_1_i_render_target.html" target="_top" xlink:title="IRenderTarget">
<polygon fill="white" stroke="black" points="381,-154 381,-173 458,-173 458,-154 381,-154"/>
<text text-anchor="middle" x="419.5" y="-161" font-family="Helvetica,sans-Serif" font-size="10.00">IRenderTarget</text>
</a>
</g>
</g>
<!-- Node13&#45;&gt;Node10 -->
<g id="edge13" class="edge">
<title>Node13&#45;&gt;Node10</title>
<path fill="none" stroke="midnightblue" d="M468.17,-154.82C491.61,-150.54 520.3,-145.28 546,-140.5 558.84,-138.11 572.85,-135.48 585.47,-133.09"/>
<polygon fill="midnightblue" stroke="midnightblue" points="467.34,-151.42 458.13,-156.66 468.59,-158.3 467.34,-151.42"/>
</g>
<!-- Node14 -->
<g id="node14" class="node">
<title>Node14</title>
<g id="a_node14"><a xlink:href="../../d6/db8/classnap_1_1_r_g_b_a_color.html" target="_top" xlink:title="RGBAColor\&lt; float \&gt;">
<polygon fill="white" stroke="black" points="368,-116 368,-135 471,-135 471,-116 368,-116"/>
<text text-anchor="middle" x="419.5" y="-123" font-family="Helvetica,sans-Serif" font-size="10.00">RGBAColor&lt; float &gt;</text>
</a>
</g>
</g>
<!-- Node14&#45;&gt;Node10 -->
<g id="edge14" class="edge">
<title>Node14&#45;&gt;Node10</title>
<path fill="none" stroke="#9a32cd" stroke-dasharray="5,2" d="M481.35,-125.5C514.95,-125.5 555.74,-125.5 585.34,-125.5"/>
<polygon fill="#9a32cd" stroke="#9a32cd" points="481.17,-122 471.17,-125.5 481.17,-129 481.17,-122"/>
<text text-anchor="middle" x="517.5" y="-128.5" font-family="Helvetica,sans-Serif" font-size="10.00"> mClearColor</text>
</g>
<!-- Node15 -->
<g id="node15" class="node">
<title>Node15</title>
<g id="a_node15"><a xlink:href="../../d6/d3d/classnap_1_1_color.html" target="_top" xlink:title="Color\&lt; float, 4 \&gt;">
<polygon fill="white" stroke="black" points="140,-138 140,-157 226,-157 226,-138 140,-138"/>
<text text-anchor="middle" x="183" y="-145" font-family="Helvetica,sans-Serif" font-size="10.00">Color&lt; float, 4 &gt;</text>
</a>
</g>
</g>
<!-- Node15&#45;&gt;Node14 -->
<g id="edge15" class="edge">
<title>Node15&#45;&gt;Node14</title>
<path fill="none" stroke="midnightblue" d="M236.34,-142.59C275.53,-138.91 328.84,-133.91 367.66,-130.27"/>
<polygon fill="midnightblue" stroke="midnightblue" points="235.82,-139.12 226.19,-143.54 236.48,-146.09 235.82,-139.12"/>
</g>
<!-- Node16 -->
<g id="node16" class="node">
<title>Node16</title>
<g id="a_node16"><a xlink:href="../../d8/d6a/classnap_1_1_base_color.html" target="_top" xlink:title="BaseColor">
<polygon fill="white" stroke="black" points="9,-138 9,-157 71,-157 71,-138 9,-138"/>
<text text-anchor="middle" x="40" y="-145" font-family="Helvetica,sans-Serif" font-size="10.00">BaseColor</text>
</a>
</g>
</g>
<!-- Node16&#45;&gt;Node15 -->
<g id="edge16" class="edge">
<title>Node16&#45;&gt;Node15</title>
<path fill="none" stroke="midnightblue" d="M81.31,-147.5C99.6,-147.5 121.25,-147.5 139.77,-147.5"/>
<polygon fill="midnightblue" stroke="midnightblue" points="81.25,-144 71.25,-147.5 81.25,-151 81.25,-144"/>
</g>
</g>
</svg>
