<?xml version="1.0" encoding="UTF-8" standalone="no"?>
<!DOCTYPE svg PUBLIC "-//W3C//DTD SVG 1.1//EN"
 "http://www.w3.org/Graphics/SVG/1.1/DTD/svg11.dtd">
<!-- Generated by graphviz version 2.43.0 (0)
 -->
<!-- Title: PortalItemColor&lt; T &gt; Pages: 1 -->
<svg width="416pt" height="241pt"
 viewBox="0.00 0.00 415.50 241.00" xmlns="http://www.w3.org/2000/svg" xmlns:xlink="http://www.w3.org/1999/xlink">
<g id="graph0" class="graph" transform="scale(1 1) rotate(0) translate(4 237)">
<title>PortalItemColor&lt; T &gt;</title>
<polygon fill="white" stroke="transparent" points="-4,4 -4,-237 411.5,-237 411.5,4 -4,4"/>
<!-- Node1 -->
<g id="node1" class="node">
<title>Node1</title>
<g id="a_node1"><a xlink:title=" ">
<polygon fill="#bfbfbf" stroke="black" points="132,-0.5 132,-19.5 254,-19.5 254,-0.5 132,-0.5"/>
<text text-anchor="middle" x="193" y="-7.5" font-family="Helvetica,sans-Serif" font-size="10.00">PortalItemColor&lt; T &gt;</text>
</a>
</g>
</g>
<!-- Node2 -->
<g id="node2" class="node">
<title>Node2</title>
<g id="a_node2"><a xlink:href="../../da/d65/classnap_1_1_portal_item.html" target="_top" xlink:title=" ">
<polygon fill="white" stroke="black" points="75,-73 75,-92 143,-92 143,-73 75,-73"/>
<text text-anchor="middle" x="109" y="-80" font-family="Helvetica,sans-Serif" font-size="10.00">PortalItem</text>
</a>
</g>
</g>
<!-- Node2&#45;&gt;Node1 -->
<g id="edge1" class="edge">
<title>Node2&#45;&gt;Node1</title>
<path fill="none" stroke="midnightblue" d="M127.37,-66.08C144.3,-51.87 168.84,-31.27 182.62,-19.72"/>
<polygon fill="midnightblue" stroke="midnightblue" points="124.71,-63.75 119.3,-72.86 129.21,-69.11 124.71,-63.75"/>
</g>
<!-- Node3 -->
<g id="node3" class="node">
<title>Node3</title>
<g id="a_node3"><a xlink:href="../../d9/dea/classnap_1_1_resource.html" target="_top" xlink:title=" ">
<polygon fill="white" stroke="black" points="0,-151 0,-170 62,-170 62,-151 0,-151"/>
<text text-anchor="middle" x="31" y="-158" font-family="Helvetica,sans-Serif" font-size="10.00">Resource</text>
</a>
</g>
</g>
<!-- Node3&#45;&gt;Node2 -->
<g id="edge2" class="edge">
<title>Node3&#45;&gt;Node2</title>
<path fill="none" stroke="midnightblue" d="M47.55,-143.38C63.62,-127.72 87.4,-104.54 100.16,-92.12"/>
<polygon fill="midnightblue" stroke="midnightblue" points="44.67,-141.3 39.95,-150.78 49.55,-146.31 44.67,-141.3"/>
</g>
<!-- Node4 -->
<g id="node4" class="node">
<title>Node4</title>
<g id="a_node4"><a xlink:href="../../de/d01/classnap_1_1rtti_1_1_object.html" target="_top" xlink:title=" ">
<polygon fill="white" stroke="black" points="7,-213.5 7,-232.5 55,-232.5 55,-213.5 7,-213.5"/>
<text text-anchor="middle" x="31" y="-220.5" font-family="Helvetica,sans-Serif" font-size="10.00">Object</text>
</a>
</g>
</g>
<!-- Node4&#45;&gt;Node3 -->
<g id="edge3" class="edge">
<title>Node4&#45;&gt;Node3</title>
<path fill="none" stroke="midnightblue" d="M31,-203C31,-192 31,-178.68 31,-170.15"/>
<polygon fill="midnightblue" stroke="midnightblue" points="27.5,-203.33 31,-213.33 34.5,-203.33 27.5,-203.33"/>
</g>
<!-- Node5 -->
<g id="node5" class="node">
<title>Node5</title>
<g id="a_node5"><a xlink:href="../../de/d80/classnap_1_1_signal.html" target="_top" xlink:title=" ">
<polygon fill="white" stroke="black" points="80.5,-145.5 80.5,-175.5 191.5,-175.5 191.5,-145.5 80.5,-145.5"/>
<text text-anchor="start" x="88.5" y="-163.5" font-family="Helvetica,sans-Serif" font-size="10.00">Signal&lt; const nap::</text>
<text text-anchor="middle" x="136" y="-152.5" font-family="Helvetica,sans-Serif" font-size="10.00">PortalItem &amp; &gt;</text>
</a>
</g>
</g>
<!-- Node5&#45;&gt;Node2 -->
<g id="edge4" class="edge">
<title>Node5&#45;&gt;Node2</title>
<path fill="none" stroke="#9a32cd" stroke-dasharray="5,2" d="M127.51,-135.59C122.23,-120.74 115.77,-102.55 112.04,-92.06"/>
<polygon fill="#9a32cd" stroke="#9a32cd" points="124.28,-136.95 130.92,-145.2 130.87,-134.61 124.28,-136.95"/>
<text text-anchor="middle" x="158.5" y="-119" font-family="Helvetica,sans-Serif" font-size="10.00"> updateSignal</text>
</g>
<!-- Node6 -->
<g id="node6" class="node">
<title>Node6</title>
<g id="a_node6"><a xlink:href="../../db/dc3/classnap_1_1_slot.html" target="_top" xlink:title=" ">
<polygon fill="white" stroke="black" points="161,-73 161,-92 225,-92 225,-73 161,-73"/>
<text text-anchor="middle" x="193" y="-80" font-family="Helvetica,sans-Serif" font-size="10.00">Slot&lt; T &gt;</text>
</a>
</g>
</g>
<!-- Node6&#45;&gt;Node1 -->
<g id="edge5" class="edge">
<title>Node6&#45;&gt;Node1</title>
<path fill="none" stroke="#9a32cd" stroke-dasharray="5,2" d="M193,-62.44C193,-48.53 193,-30.32 193,-19.72"/>
<polygon fill="#9a32cd" stroke="#9a32cd" points="189.5,-62.86 193,-72.86 196.5,-62.86 189.5,-62.86"/>
<text text-anchor="middle" x="252" y="-41" font-family="Helvetica,sans-Serif" font-size="10.00"> mParameterUpdateSlot</text>
</g>
<!-- Node7 -->
<g id="node7" class="node">
<title>Node7</title>
<g id="a_node7"><a xlink:href="../../dd/d7c/classnap_1_1rtti_1_1_object_ptr.html" target="_top" xlink:title=" ">
<polygon fill="white" stroke="black" points="260.5,-67.5 260.5,-97.5 407.5,-97.5 407.5,-67.5 260.5,-67.5"/>
<text text-anchor="start" x="268.5" y="-85.5" font-family="Helvetica,sans-Serif" font-size="10.00">ObjectPtr&lt; nap::Parameter</text>
<text text-anchor="middle" x="334" y="-74.5" font-family="Helvetica,sans-Serif" font-size="10.00">Simple&lt; T &gt; &gt;</text>
</a>
</g>
</g>
<!-- Node7&#45;&gt;Node1 -->
<g id="edge6" class="edge">
<title>Node7&#45;&gt;Node1</title>
<path fill="none" stroke="#9a32cd" stroke-dasharray="5,2" d="M326.49,-57.68C323.12,-50.4 318.42,-43.01 312,-38 295.55,-25.16 274.14,-18.2 254.03,-14.5"/>
<polygon fill="#9a32cd" stroke="#9a32cd" points="323.36,-59.28 330.3,-67.29 329.87,-56.7 323.36,-59.28"/>
<text text-anchor="middle" x="354" y="-41" font-family="Helvetica,sans-Serif" font-size="10.00"> mParameter</text>
</g>
<!-- Node8 -->
<g id="node8" class="node">
<title>Node8</title>
<g id="a_node8"><a xlink:href="../../d7/dcb/classnap_1_1rtti_1_1_object_ptr_base.html" target="_top" xlink:title=" ">
<polygon fill="white" stroke="black" points="291,-151 291,-170 377,-170 377,-151 291,-151"/>
<text text-anchor="middle" x="334" y="-158" font-family="Helvetica,sans-Serif" font-size="10.00">ObjectPtrBase</text>
</a>
</g>
</g>
<!-- Node8&#45;&gt;Node7 -->
<g id="edge7" class="edge">
<title>Node8&#45;&gt;Node7</title>
<path fill="none" stroke="midnightblue" d="M334,-140.78C334,-127.4 334,-109.69 334,-97.52"/>
<polygon fill="midnightblue" stroke="midnightblue" points="330.5,-140.78 334,-150.78 337.5,-140.78 330.5,-140.78"/>
</g>
</g>
</svg>
