<?xml version="1.0" encoding="UTF-8" standalone="no"?>
<!DOCTYPE svg PUBLIC "-//W3C//DTD SVG 1.1//EN"
 "http://www.w3.org/Graphics/SVG/1.1/DTD/svg11.dtd">
<!-- Generated by graphviz version 2.43.0 (0)
 -->
<!-- Title: SequenceEditorGUIView Pages: 1 -->
<svg width="1009pt" height="220pt"
 viewBox="0.00 0.00 1009.00 219.50" xmlns="http://www.w3.org/2000/svg" xmlns:xlink="http://www.w3.org/1999/xlink">
<g id="graph0" class="graph" transform="scale(1 1) rotate(0) translate(4 215.5)">
<title>SequenceEditorGUIView</title>
<polygon fill="white" stroke="transparent" points="-4,4 -4,-215.5 1005,-215.5 1005,4 -4,4"/>
<!-- Node1 -->
<g id="node1" class="node">
<title>Node1</title>
<g id="a_node1"><a xlink:title=" ">
<polygon fill="#bfbfbf" stroke="black" points="867,-137 867,-156 1001,-156 1001,-137 867,-137"/>
<text text-anchor="middle" x="934" y="-144" font-family="Helvetica,sans-Serif" font-size="10.00">SequenceEditorGUIView</text>
</a>
</g>
</g>
<!-- Node2 -->
<g id="node2" class="node">
<title>Node2</title>
<g id="a_node2"><a xlink:href="../../d0/d0a/classnap_1_1_sequence_g_u_i_service.html" target="_top" xlink:title=" ">
<polygon fill="white" stroke="black" points="617,-192 617,-211 735,-211 735,-192 617,-192"/>
<text text-anchor="middle" x="676" y="-199" font-family="Helvetica,sans-Serif" font-size="10.00">SequenceGUIService</text>
</a>
</g>
</g>
<!-- Node2&#45;&gt;Node1 -->
<g id="edge1" class="edge">
<title>Node2&#45;&gt;Node1</title>
<path fill="none" stroke="#9a32cd" stroke-dasharray="5,2" d="M745.18,-192.14C776.94,-187.24 815.11,-180.56 849,-172.5 868.01,-167.98 889.01,-161.48 905.26,-156.11"/>
<polygon fill="#9a32cd" stroke="#9a32cd" points="744.47,-188.71 735.11,-193.67 745.52,-195.63 744.47,-188.71"/>
<text text-anchor="middle" x="805.5" y="-191.5" font-family="Helvetica,sans-Serif" font-size="10.00"> mService</text>
</g>
<!-- Node3 -->
<g id="node3" class="node">
<title>Node3</title>
<g id="a_node3"><a xlink:href="../../d8/d8e/classnap_1_1_service.html" target="_top" xlink:title=" ">
<polygon fill="white" stroke="black" points="424.5,-192 424.5,-211 477.5,-211 477.5,-192 424.5,-192"/>
<text text-anchor="middle" x="451" y="-199" font-family="Helvetica,sans-Serif" font-size="10.00">Service</text>
</a>
</g>
</g>
<!-- Node3&#45;&gt;Node2 -->
<g id="edge2" class="edge">
<title>Node3&#45;&gt;Node2</title>
<path fill="none" stroke="midnightblue" d="M487.74,-201.5C522.52,-201.5 575.96,-201.5 616.86,-201.5"/>
<polygon fill="midnightblue" stroke="midnightblue" points="487.58,-198 477.58,-201.5 487.58,-205 487.58,-198"/>
</g>
<!-- Node4 -->
<g id="node4" class="node">
<title>Node4</title>
<g id="a_node4"><a xlink:href="../../db/d94/structnap_1_1_sequence_editor_g_u_i_state.html" target="_top" xlink:title=" ">
<polygon fill="white" stroke="black" points="608,-154 608,-173 744,-173 744,-154 608,-154"/>
<text text-anchor="middle" x="676" y="-161" font-family="Helvetica,sans-Serif" font-size="10.00">SequenceEditorGUIState</text>
</a>
</g>
</g>
<!-- Node4&#45;&gt;Node1 -->
<g id="edge3" class="edge">
<title>Node4&#45;&gt;Node1</title>
<path fill="none" stroke="#9a32cd" stroke-dasharray="5,2" d="M754.65,-158.34C790.4,-155.97 832.38,-153.18 866.63,-150.91"/>
<polygon fill="#9a32cd" stroke="#9a32cd" points="754.01,-154.88 744.26,-159.03 754.47,-161.86 754.01,-154.88"/>
<text text-anchor="middle" x="805.5" y="-160.5" font-family="Helvetica,sans-Serif" font-size="10.00"> mState</text>
</g>
<!-- Node5 -->
<g id="node5" class="node">
<title>Node5</title>
<g id="a_node5"><a xlink:href="../../d9/dde/classnap_1_1_sequence_editor.html" target="_top" xlink:title=" ">
<polygon fill="white" stroke="black" points="405,-36 405,-55 497,-55 497,-36 405,-36"/>
<text text-anchor="middle" x="451" y="-43" font-family="Helvetica,sans-Serif" font-size="10.00">SequenceEditor</text>
</a>
</g>
</g>
<!-- Node5&#45;&gt;Node1 -->
<g id="edge4" class="edge">
<title>Node5&#45;&gt;Node1</title>
<path fill="none" stroke="#9a32cd" stroke-dasharray="5,2" d="M507.49,-53.41C566.45,-62.19 662.26,-77.51 744,-95.5 799.76,-107.77 863.73,-125.9 901.12,-136.91"/>
<polygon fill="#9a32cd" stroke="#9a32cd" points="507.68,-49.9 497.28,-51.9 506.66,-56.83 507.68,-49.9"/>
<text text-anchor="middle" x="676" y="-98.5" font-family="Helvetica,sans-Serif" font-size="10.00"> mEditor</text>
</g>
<!-- Node6 -->
<g id="node6" class="node">
<title>Node6</title>
<g id="a_node6"><a xlink:href="../../d9/dea/classnap_1_1_resource.html" target="_top" xlink:title=" ">
<polygon fill="white" stroke="black" points="164,-50 164,-69 226,-69 226,-50 164,-50"/>
<text text-anchor="middle" x="195" y="-57" font-family="Helvetica,sans-Serif" font-size="10.00">Resource</text>
</a>
</g>
</g>
<!-- Node6&#45;&gt;Node5 -->
<g id="edge5" class="edge">
<title>Node6&#45;&gt;Node5</title>
<path fill="none" stroke="midnightblue" d="M236.32,-57.28C282.25,-54.75 357.12,-50.62 404.94,-47.98"/>
<polygon fill="midnightblue" stroke="midnightblue" points="235.93,-53.79 226.13,-57.84 236.31,-60.78 235.93,-53.79"/>
</g>
<!-- Node11 -->
<g id="node11" class="node">
<title>Node11</title>
<g id="a_node11"><a xlink:href="../../d0/dc5/classnap_1_1_window.html" target="_top" xlink:title=" ">
<polygon fill="white" stroke="black" points="423,-78 423,-97 479,-97 479,-78 423,-78"/>
<text text-anchor="middle" x="451" y="-85" font-family="Helvetica,sans-Serif" font-size="10.00">Window</text>
</a>
</g>
</g>
<!-- Node6&#45;&gt;Node11 -->
<g id="edge11" class="edge">
<title>Node6&#45;&gt;Node11</title>
<path fill="none" stroke="midnightblue" d="M236.38,-63.95C288.64,-69.71 378.28,-79.59 422.99,-84.52"/>
<polygon fill="midnightblue" stroke="midnightblue" points="236.46,-60.44 226.13,-62.82 235.69,-67.4 236.46,-60.44"/>
</g>
<!-- Node7 -->
<g id="node7" class="node">
<title>Node7</title>
<g id="a_node7"><a xlink:href="../../de/d01/classnap_1_1rtti_1_1_object.html" target="_top" xlink:title=" ">
<polygon fill="white" stroke="black" points="19,-50 19,-69 67,-69 67,-50 19,-50"/>
<text text-anchor="middle" x="43" y="-57" font-family="Helvetica,sans-Serif" font-size="10.00">Object</text>
</a>
</g>
</g>
<!-- Node7&#45;&gt;Node6 -->
<g id="edge6" class="edge">
<title>Node7&#45;&gt;Node6</title>
<path fill="none" stroke="midnightblue" d="M77.21,-59.5C103.11,-59.5 138.78,-59.5 163.87,-59.5"/>
<polygon fill="midnightblue" stroke="midnightblue" points="77.11,-56 67.11,-59.5 77.11,-63 77.11,-56"/>
</g>
<!-- Node8 -->
<g id="node8" class="node">
<title>Node8</title>
<g id="a_node8"><a xlink:href="../../dd/d7c/classnap_1_1rtti_1_1_object_ptr.html" target="_top" xlink:title=" ">
<polygon fill="white" stroke="black" points="123,-0.5 123,-30.5 267,-30.5 267,-0.5 123,-0.5"/>
<text text-anchor="start" x="131" y="-18.5" font-family="Helvetica,sans-Serif" font-size="10.00">ObjectPtr&lt; nap::Sequence</text>
<text text-anchor="middle" x="195" y="-7.5" font-family="Helvetica,sans-Serif" font-size="10.00">Player &gt;</text>
</a>
</g>
</g>
<!-- Node8&#45;&gt;Node5 -->
<g id="edge7" class="edge">
<title>Node8&#45;&gt;Node5</title>
<path fill="none" stroke="#9a32cd" stroke-dasharray="5,2" d="M277.34,-23.35C308.26,-26.52 343.79,-30.41 376,-34.5 385.28,-35.68 395.19,-37.06 404.65,-38.45"/>
<polygon fill="#9a32cd" stroke="#9a32cd" points="277.34,-19.83 267.04,-22.3 276.63,-26.79 277.34,-19.83"/>
<text text-anchor="middle" x="330.5" y="-37.5" font-family="Helvetica,sans-Serif" font-size="10.00"> mSequencePlayer</text>
</g>
<!-- Node9 -->
<g id="node9" class="node">
<title>Node9</title>
<g id="a_node9"><a xlink:href="../../d7/dcb/classnap_1_1rtti_1_1_object_ptr_base.html" target="_top" xlink:title=" ">
<polygon fill="white" stroke="black" points="0,-6 0,-25 86,-25 86,-6 0,-6"/>
<text text-anchor="middle" x="43" y="-13" font-family="Helvetica,sans-Serif" font-size="10.00">ObjectPtrBase</text>
</a>
</g>
</g>
<!-- Node9&#45;&gt;Node8 -->
<g id="edge8" class="edge">
<title>Node9&#45;&gt;Node8</title>
<path fill="none" stroke="midnightblue" d="M96.39,-15.5C104.95,-15.5 113.96,-15.5 122.89,-15.5"/>
<polygon fill="midnightblue" stroke="midnightblue" points="96.18,-12 86.18,-15.5 96.18,-19 96.18,-12"/>
</g>
<!-- Node10 -->
<g id="node10" class="node">
<title>Node10</title>
<g id="a_node10"><a xlink:href="../../d6/d4f/classnap_1_1_render_window.html" target="_top" xlink:title=" ">
<polygon fill="white" stroke="black" points="631,-116 631,-135 721,-135 721,-116 631,-116"/>
<text text-anchor="middle" x="676" y="-123" font-family="Helvetica,sans-Serif" font-size="10.00">RenderWindow</text>
</a>
</g>
</g>
<!-- Node10&#45;&gt;Node1 -->
<g id="edge9" class="edge">
<title>Node10&#45;&gt;Node1</title>
<path fill="none" stroke="#9a32cd" stroke-dasharray="5,2" d="M731.39,-128.22C765.26,-130.1 809.71,-132.91 849,-136.5 854.7,-137.02 860.62,-137.62 866.55,-138.25"/>
<polygon fill="#9a32cd" stroke="#9a32cd" points="731.42,-124.71 721.24,-127.66 731.03,-131.7 731.42,-124.71"/>
<text text-anchor="middle" x="805.5" y="-139.5" font-family="Helvetica,sans-Serif" font-size="10.00"> mRenderWindow</text>
</g>
<!-- Node11&#45;&gt;Node10 -->
<g id="edge10" class="edge">
<title>Node11&#45;&gt;Node10</title>
<path fill="none" stroke="midnightblue" d="M489.24,-93.85C528.25,-100.49 589.49,-110.93 630.89,-117.98"/>
<polygon fill="midnightblue" stroke="midnightblue" points="489.79,-90.39 479.34,-92.16 488.61,-97.29 489.79,-90.39"/>
</g>
<!-- Node12 -->
<g id="node12" class="node">
<title>Node12</title>
<g id="a_node12"><a xlink:href="../../de/d80/classnap_1_1_signal.html" target="_top" xlink:title=" ">
<polygon fill="white" stroke="black" points="139.5,-88.5 139.5,-118.5 250.5,-118.5 250.5,-88.5 139.5,-88.5"/>
<text text-anchor="start" x="147.5" y="-106.5" font-family="Helvetica,sans-Serif" font-size="10.00">Signal&lt; const nap::</text>
<text text-anchor="middle" x="195" y="-95.5" font-family="Helvetica,sans-Serif" font-size="10.00">WindowEvent &amp; &gt;</text>
</a>
</g>
</g>
<!-- Node12&#45;&gt;Node11 -->
<g id="edge12" class="edge">
<title>Node12&#45;&gt;Node11</title>
<path fill="none" stroke="#9a32cd" stroke-dasharray="5,2" d="M261.03,-99.4C313.53,-96.1 384.72,-91.61 423,-89.2"/>
<polygon fill="#9a32cd" stroke="#9a32cd" points="260.56,-95.93 250.8,-100.05 261,-102.91 260.56,-95.93"/>
<text text-anchor="middle" x="330.5" y="-100.5" font-family="Helvetica,sans-Serif" font-size="10.00"> mWindowEvent</text>
</g>
<!-- Node13 -->
<g id="node13" class="node">
<title>Node13</title>
<g id="a_node13"><a xlink:href="../../d7/da9/classnap_1_1_i_render_target.html" target="_top" xlink:title=" ">
<polygon fill="white" stroke="black" points="409,-154 409,-173 493,-173 493,-154 409,-154"/>
<text text-anchor="middle" x="451" y="-161" font-family="Helvetica,sans-Serif" font-size="10.00">IRenderTarget</text>
</a>
</g>
</g>
<!-- Node13&#45;&gt;Node10 -->
<g id="edge13" class="edge">
<title>Node13&#45;&gt;Node10</title>
<path fill="none" stroke="midnightblue" d="M503.1,-155.1C529.12,-150.8 561.26,-145.43 590,-140.5 603.29,-138.22 617.74,-135.69 630.9,-133.37"/>
<polygon fill="midnightblue" stroke="midnightblue" points="502.37,-151.67 493.08,-156.76 503.52,-158.58 502.37,-151.67"/>
</g>
<!-- Node14 -->
<g id="node14" class="node">
<title>Node14</title>
<g id="a_node14"><a xlink:href="../../d6/db8/classnap_1_1_r_g_b_a_color.html" target="_top" xlink:title=" ">
<polygon fill="white" stroke="black" points="394,-116 394,-135 508,-135 508,-116 394,-116"/>
<text text-anchor="middle" x="451" y="-123" font-family="Helvetica,sans-Serif" font-size="10.00">RGBAColor&lt; float &gt;</text>
</a>
</g>
</g>
<!-- Node14&#45;&gt;Node10 -->
<g id="edge14" class="edge">
<title>Node14&#45;&gt;Node10</title>
<path fill="none" stroke="#9a32cd" stroke-dasharray="5,2" d="M518.29,-125.5C554.58,-125.5 598.57,-125.5 630.69,-125.5"/>
<polygon fill="#9a32cd" stroke="#9a32cd" points="518.27,-122 508.27,-125.5 518.27,-129 518.27,-122"/>
<text text-anchor="middle" x="558" y="-128.5" font-family="Helvetica,sans-Serif" font-size="10.00"> mClearColor</text>
</g>
<!-- Node15 -->
<g id="node15" class="node">
<title>Node15</title>
<g id="a_node15"><a xlink:href="../../d6/d3d/classnap_1_1_color.html" target="_top" xlink:title=" ">
<polygon fill="white" stroke="black" points="146,-138 146,-157 244,-157 244,-138 146,-138"/>
<text text-anchor="middle" x="195" y="-145" font-family="Helvetica,sans-Serif" font-size="10.00">Color&lt; float, 4 &gt;</text>
</a>
</g>
</g>
<!-- Node15&#45;&gt;Node14 -->
<g id="edge15" class="edge">
<title>Node15&#45;&gt;Node14</title>
<path fill="none" stroke="midnightblue" d="M254.13,-142.47C296.02,-138.84 352.24,-133.97 393.7,-130.38"/>
<polygon fill="midnightblue" stroke="midnightblue" points="253.73,-138.99 244.07,-143.34 254.34,-145.96 253.73,-138.99"/>
</g>
<!-- Node16 -->
<g id="node16" class="node">
<title>Node16</title>
<g id="a_node16"><a xlink:href="../../d8/d6a/classnap_1_1_base_color.html" target="_top" xlink:title=" ">
<polygon fill="white" stroke="black" points="10,-138 10,-157 76,-157 76,-138 10,-138"/>
<text text-anchor="middle" x="43" y="-145" font-family="Helvetica,sans-Serif" font-size="10.00">BaseColor</text>
</a>
</g>
</g>
<!-- Node16&#45;&gt;Node15 -->
<g id="edge16" class="edge">
<title>Node16&#45;&gt;Node15</title>
<path fill="none" stroke="midnightblue" d="M86.38,-147.5C104.92,-147.5 126.77,-147.5 145.91,-147.5"/>
<polygon fill="midnightblue" stroke="midnightblue" points="86.18,-144 76.18,-147.5 86.18,-151 86.18,-144"/>
</g>
</g>
</svg>
