<?xml version="1.0" encoding="UTF-8" standalone="no"?>
<!DOCTYPE svg PUBLIC "-//W3C//DTD SVG 1.1//EN"
 "http://www.w3.org/Graphics/SVG/1.1/DTD/svg11.dtd">
<!-- Generated by graphviz version 3.0.0 (20220226.1711)
 -->
<!-- Title: Material Pages: 1 -->
<svg width="322pt" height="152pt"
 viewBox="0.00 0.00 322.00 152.00" xmlns="http://www.w3.org/2000/svg" xmlns:xlink="http://www.w3.org/1999/xlink">
<g id="graph0" class="graph" transform="scale(1 1) rotate(0) translate(4 148)">
<title>Material</title>
<polygon fill="white" stroke="transparent" points="-4,4 -4,-148 318,-148 318,4 -4,4"/>
<!-- Node4 -->
<g id="node1" class="node">
<title>Node4</title>
<polygon fill="#bfbfbf" stroke="black" points="96.5,-0.5 96.5,-19.5 147.5,-19.5 147.5,-0.5 96.5,-0.5"/>
<text text-anchor="middle" x="122" y="-7.5" font-family="Helvetica,sans-Serif" font-size="10.00">Material</text>
</g>
<!-- Node5 -->
<g id="node2" class="node">
<title>Node5</title>
<g id="a_node2"><a xlink:href="../../d9/dea/classnap_1_1_resource.html" target="_top" xlink:title="Resource">
<polygon fill="white" stroke="black" points="0,-67.5 0,-86.5 58,-86.5 58,-67.5 0,-67.5"/>
<text text-anchor="middle" x="29" y="-74.5" font-family="Helvetica,sans-Serif" font-size="10.00">Resource</text>
</a>
</g>
</g>
<!-- Node5&#45;&gt;Node4 -->
<g id="edge1" class="edge">
<title>Node5&#45;&gt;Node4</title>
<path fill="none" stroke="midnightblue" d="M49.86,-61.42C68.25,-48.57 94.41,-30.28 109.66,-19.63"/>
<polygon fill="midnightblue" stroke="midnightblue" points="47.73,-58.64 41.54,-67.23 51.74,-64.37 47.73,-58.64"/>
</g>
<!-- Node6 -->
<g id="node3" class="node">
<title>Node6</title>
<g id="a_node3"><a xlink:href="../../de/d01/classnap_1_1rtti_1_1_object.html" target="_top" xlink:title="Object">
<polygon fill="white" stroke="black" points="6.5,-124.5 6.5,-143.5 51.5,-143.5 51.5,-124.5 6.5,-124.5"/>
<text text-anchor="middle" x="29" y="-131.5" font-family="Helvetica,sans-Serif" font-size="10.00">Object</text>
</a>
</g>
</g>
<!-- Node6&#45;&gt;Node5 -->
<g id="edge2" class="edge">
<title>Node6&#45;&gt;Node5</title>
<path fill="none" stroke="midnightblue" d="M29,-114.12C29,-104.82 29,-94.06 29,-86.71"/>
<polygon fill="midnightblue" stroke="midnightblue" points="25.5,-114.41 29,-124.41 32.5,-114.41 25.5,-114.41"/>
</g>
<!-- Node7 -->
<g id="node4" class="node">
<title>Node7</title>
<g id="a_node4"><a xlink:href="../../d5/d6c/classnap_1_1_uniform_container.html" target="_top" xlink:title="UniformContainer">
<polygon fill="white" stroke="black" points="76.5,-67.5 76.5,-86.5 167.5,-86.5 167.5,-67.5 76.5,-67.5"/>
<text text-anchor="middle" x="122" y="-74.5" font-family="Helvetica,sans-Serif" font-size="10.00">UniformContainer</text>
</a>
</g>
</g>
<!-- Node7&#45;&gt;Node4 -->
<g id="edge3" class="edge">
<title>Node7&#45;&gt;Node4</title>
<path fill="none" stroke="midnightblue" d="M122,-57.04C122,-44.67 122,-29.12 122,-19.63"/>
<polygon fill="midnightblue" stroke="midnightblue" points="118.5,-57.23 122,-67.23 125.5,-57.23 118.5,-57.23"/>
</g>
<!-- Node8 -->
<g id="node5" class="node">
<title>Node8</title>
<g id="a_node5"><a xlink:href="../../dd/d7c/classnap_1_1rtti_1_1_object_ptr.html" target="_top" xlink:title="ObjectPtr\&lt; nap::Shader \&gt;">
<polygon fill="white" stroke="black" points="186,-67.5 186,-86.5 314,-86.5 314,-67.5 186,-67.5"/>
<text text-anchor="middle" x="250" y="-74.5" font-family="Helvetica,sans-Serif" font-size="10.00">ObjectPtr&lt; nap::Shader &gt;</text>
</a>
</g>
</g>
<!-- Node8&#45;&gt;Node4 -->
<g id="edge4" class="edge">
<title>Node8&#45;&gt;Node4</title>
<path fill="none" stroke="#9a32cd" stroke-dasharray="5,2" d="M223.95,-62.77C198.6,-49.9 160.81,-30.71 139.07,-19.67"/>
<polygon fill="#9a32cd" stroke="#9a32cd" points="222.5,-65.96 233,-67.37 225.67,-59.72 222.5,-65.96"/>
<text text-anchor="middle" x="215.5" y="-41" font-family="Helvetica,sans-Serif" font-size="10.00"> mShader</text>
</g>
<!-- Node9 -->
<g id="node6" class="node">
<title>Node9</title>
<g id="a_node6"><a xlink:href="../../d7/dcb/classnap_1_1rtti_1_1_object_ptr_base.html" target="_top" xlink:title="ObjectPtrBase">
<polygon fill="white" stroke="black" points="210,-124.5 210,-143.5 290,-143.5 290,-124.5 210,-124.5"/>
<text text-anchor="middle" x="250" y="-131.5" font-family="Helvetica,sans-Serif" font-size="10.00">ObjectPtrBase</text>
</a>
</g>
</g>
<!-- Node9&#45;&gt;Node8 -->
<g id="edge5" class="edge">
<title>Node9&#45;&gt;Node8</title>
<path fill="none" stroke="midnightblue" d="M250,-114.12C250,-104.82 250,-94.06 250,-86.71"/>
<polygon fill="midnightblue" stroke="midnightblue" points="246.5,-114.41 250,-124.41 253.5,-114.41 246.5,-114.41"/>
</g>
</g>
</svg>
