<?xml version="1.0" encoding="UTF-8" standalone="no"?>
<!DOCTYPE svg PUBLIC "-//W3C//DTD SVG 1.1//EN"
 "http://www.w3.org/Graphics/SVG/1.1/DTD/svg11.dtd">
<!-- Generated by graphviz version 3.0.0 (20220226.1711)
 -->
<!-- Title: PortalItem Pages: 1 -->
<svg width="565pt" height="268pt"
 viewBox="0.00 0.00 565.00 267.50" xmlns="http://www.w3.org/2000/svg" xmlns:xlink="http://www.w3.org/1999/xlink">
<g id="graph0" class="graph" transform="scale(1 1) rotate(0) translate(4 263.5)">
<title>PortalItem</title>
<polygon fill="white" stroke="transparent" points="-4,4 -4,-263.5 561,-263.5 561,4 -4,4"/>
<!-- Node0 -->
<g id="node1" class="node">
<title>Node0</title>
<polygon fill="#bfbfbf" stroke="black" points="175,-126 175,-145 236,-145 236,-126 175,-126"/>
<text text-anchor="middle" x="205.5" y="-133" font-family="Helvetica,sans-Serif" font-size="10.00">PortalItem</text>
</g>
<!-- Node3 -->
<g id="node4" class="node">
<title>Node3</title>
<g id="a_node4"><a xlink:href="../../dc/d60/classnap_1_1_portal_item_button.html" target="_top" xlink:title="PortalItemButton">
<polygon fill="white" stroke="black" points="302,-240 302,-259 391,-259 391,-240 302,-240"/>
<text text-anchor="middle" x="346.5" y="-247" font-family="Helvetica,sans-Serif" font-size="10.00">PortalItemButton</text>
</a>
</g>
</g>
<!-- Node0&#45;&gt;Node3 -->
<g id="edge3" class="edge">
<title>Node0&#45;&gt;Node3</title>
<path fill="none" stroke="midnightblue" d="M214.4,-154.16C224.55,-175.83 244.22,-211.08 272,-230.5 280.75,-236.62 291.32,-240.76 301.68,-243.58"/>
<polygon fill="midnightblue" stroke="midnightblue" points="217.58,-152.7 210.3,-145 211.19,-155.56 217.58,-152.7"/>
</g>
<!-- Node4 -->
<g id="node5" class="node">
<title>Node4</title>
<g id="a_node5"><a xlink:href="../../dd/ddc/classnap_1_1_portal_item_color.html" target="_top" xlink:title="PortalItemColor\&lt; T \&gt;">
<polygon fill="white" stroke="black" points="293,-202 293,-221 400,-221 400,-202 293,-202"/>
<text text-anchor="middle" x="346.5" y="-209" font-family="Helvetica,sans-Serif" font-size="10.00">PortalItemColor&lt; T &gt;</text>
</a>
</g>
</g>
<!-- Node0&#45;&gt;Node4 -->
<g id="edge4" class="edge">
<title>Node0&#45;&gt;Node4</title>
<path fill="none" stroke="midnightblue" d="M221.66,-152.42C234.02,-165.21 252.56,-182.27 272,-192.5 279.35,-196.37 287.53,-199.48 295.69,-201.98"/>
<polygon fill="midnightblue" stroke="midnightblue" points="224.2,-150.01 214.81,-145.1 219.09,-154.79 224.2,-150.01"/>
</g>
<!-- Node5 -->
<g id="node6" class="node">
<title>Node5</title>
<g id="a_node6"><a xlink:href="../../d2/d50/classnap_1_1_portal_item_numeric.html" target="_top" xlink:title="PortalItemNumeric\&lt; T \&gt;">
<polygon fill="white" stroke="black" points="286.5,-164 286.5,-183 406.5,-183 406.5,-164 286.5,-164"/>
<text text-anchor="middle" x="346.5" y="-171" font-family="Helvetica,sans-Serif" font-size="10.00">PortalItemNumeric&lt; T &gt;</text>
</a>
</g>
</g>
<!-- Node0&#45;&gt;Node5 -->
<g id="edge5" class="edge">
<title>Node0&#45;&gt;Node5</title>
<path fill="none" stroke="midnightblue" d="M245.92,-147.14C254.5,-149.62 263.55,-152.18 272,-154.5 283.57,-157.67 296.2,-160.99 307.67,-163.95"/>
<polygon fill="midnightblue" stroke="midnightblue" points="246.7,-143.72 236.12,-144.29 244.75,-150.44 246.7,-143.72"/>
</g>
<!-- Node6 -->
<g id="node7" class="node">
<title>Node6</title>
<g id="a_node7"><a xlink:href="../../d8/d3b/classnap_1_1_portal_item_operational_calendar.html" target="_top" xlink:title="PortalItemOperationalCalendar">
<polygon fill="white" stroke="black" points="272,-126 272,-145 421,-145 421,-126 272,-126"/>
<text text-anchor="middle" x="346.5" y="-133" font-family="Helvetica,sans-Serif" font-size="10.00">PortalItemOperationalCalendar</text>
</a>
</g>
</g>
<!-- Node0&#45;&gt;Node6 -->
<g id="edge6" class="edge">
<title>Node0&#45;&gt;Node6</title>
<path fill="none" stroke="midnightblue" d="M246.41,-135.5C254.4,-135.5 263.03,-135.5 271.75,-135.5"/>
<polygon fill="midnightblue" stroke="midnightblue" points="246.32,-132 236.32,-135.5 246.32,-139 246.32,-132"/>
</g>
<!-- Node7 -->
<g id="node8" class="node">
<title>Node7</title>
<g id="a_node8"><a xlink:href="../../d0/d9b/classnap_1_1_portal_item_simple.html" target="_top" xlink:title="PortalItemSimple\&lt; T \&gt;">
<polygon fill="white" stroke="black" points="289.5,-88 289.5,-107 403.5,-107 403.5,-88 289.5,-88"/>
<text text-anchor="middle" x="346.5" y="-95" font-family="Helvetica,sans-Serif" font-size="10.00">PortalItemSimple&lt; T &gt;</text>
</a>
</g>
</g>
<!-- Node0&#45;&gt;Node7 -->
<g id="edge7" class="edge">
<title>Node0&#45;&gt;Node7</title>
<path fill="none" stroke="midnightblue" d="M245.92,-123.86C254.5,-121.38 263.55,-118.82 272,-116.5 283.57,-113.33 296.2,-110.01 307.67,-107.05"/>
<polygon fill="midnightblue" stroke="midnightblue" points="244.75,-120.56 236.12,-126.71 246.7,-127.28 244.75,-120.56"/>
</g>
<!-- Node8 -->
<g id="node9" class="node">
<title>Node8</title>
<g id="a_node9"><a xlink:href="../../d4/da8/classnap_1_1_portal_item_vec.html" target="_top" xlink:title="PortalItemVec\&lt; T \&gt;">
<polygon fill="white" stroke="black" points="296,-50 296,-69 397,-69 397,-50 296,-50"/>
<text text-anchor="middle" x="346.5" y="-57" font-family="Helvetica,sans-Serif" font-size="10.00">PortalItemVec&lt; T &gt;</text>
</a>
</g>
</g>
<!-- Node0&#45;&gt;Node8 -->
<g id="edge8" class="edge">
<title>Node0&#45;&gt;Node8</title>
<path fill="none" stroke="midnightblue" d="M221.66,-118.58C234.02,-105.79 252.56,-88.73 272,-78.5 279.35,-74.63 287.53,-71.52 295.69,-69.02"/>
<polygon fill="midnightblue" stroke="midnightblue" points="219.09,-116.21 214.81,-125.9 224.2,-120.99 219.09,-116.21"/>
</g>
<!-- Node9 -->
<g id="node10" class="node">
<title>Node9</title>
<polygon fill="white" stroke="#bfbfbf" points="290,-0.5 290,-30.5 403,-30.5 403,-0.5 290,-0.5"/>
<text text-anchor="start" x="298" y="-18.5" font-family="Helvetica,sans-Serif" font-size="10.00">PortalItemSimple&lt; std</text>
<text text-anchor="middle" x="346.5" y="-7.5" font-family="Helvetica,sans-Serif" font-size="10.00">::string &gt;</text>
</g>
<!-- Node0&#45;&gt;Node9 -->
<g id="edge9" class="edge">
<title>Node0&#45;&gt;Node9</title>
<path fill="none" stroke="midnightblue" d="M214.96,-116.58C225.44,-95.2 245.22,-60.75 272,-40.5 277.38,-36.43 283.45,-33 289.76,-30.11"/>
<polygon fill="midnightblue" stroke="midnightblue" points="211.66,-115.36 210.58,-125.9 218,-118.34 211.66,-115.36"/>
</g>
<!-- Node1 -->
<g id="node2" class="node">
<title>Node1</title>
<g id="a_node2"><a xlink:href="../../d9/dea/classnap_1_1_resource.html" target="_top" xlink:title="Resource">
<polygon fill="white" stroke="black" points="81,-126 81,-145 139,-145 139,-126 81,-126"/>
<text text-anchor="middle" x="110" y="-133" font-family="Helvetica,sans-Serif" font-size="10.00">Resource</text>
</a>
</g>
</g>
<!-- Node1&#45;&gt;Node0 -->
<g id="edge1" class="edge">
<title>Node1&#45;&gt;Node0</title>
<path fill="none" stroke="midnightblue" d="M149.21,-135.5C157.76,-135.5 166.7,-135.5 174.84,-135.5"/>
<polygon fill="midnightblue" stroke="midnightblue" points="149.05,-132 139.05,-135.5 149.05,-139 149.05,-132"/>
</g>
<!-- Node2 -->
<g id="node3" class="node">
<title>Node2</title>
<g id="a_node3"><a xlink:href="../../de/d01/classnap_1_1rtti_1_1_object.html" target="_top" xlink:title="Object">
<polygon fill="white" stroke="black" points="0,-126 0,-145 45,-145 45,-126 0,-126"/>
<text text-anchor="middle" x="22.5" y="-133" font-family="Helvetica,sans-Serif" font-size="10.00">Object</text>
</a>
</g>
</g>
<!-- Node2&#45;&gt;Node1 -->
<g id="edge2" class="edge">
<title>Node2&#45;&gt;Node1</title>
<path fill="none" stroke="midnightblue" d="M55.31,-135.5C63.73,-135.5 72.76,-135.5 80.96,-135.5"/>
<polygon fill="midnightblue" stroke="midnightblue" points="55.08,-132 45.08,-135.5 55.08,-139 55.08,-132"/>
</g>
<!-- Node10 -->
<g id="node11" class="node">
<title>Node10</title>
<g id="a_node11"><a xlink:href="../../d3/da2/classnap_1_1_portal_item_text_area.html" target="_top" xlink:title="PortalItemTextArea">
<polygon fill="white" stroke="black" points="457,-6 457,-25 557,-25 557,-6 457,-6"/>
<text text-anchor="middle" x="507" y="-13" font-family="Helvetica,sans-Serif" font-size="10.00">PortalItemTextArea</text>
</a>
</g>
</g>
<!-- Node9&#45;&gt;Node10 -->
<g id="edge10" class="edge">
<title>Node9&#45;&gt;Node10</title>
<path fill="none" stroke="midnightblue" d="M413.78,-15.5C428.24,-15.5 443.3,-15.5 456.95,-15.5"/>
<polygon fill="midnightblue" stroke="midnightblue" points="413.38,-12 403.38,-15.5 413.38,-19 413.38,-12"/>
</g>
</g>
</svg>
