<?xml version="1.0" encoding="UTF-8" standalone="no"?>
<!DOCTYPE svg PUBLIC "-//W3C//DTD SVG 1.1//EN"
 "http://www.w3.org/Graphics/SVG/1.1/DTD/svg11.dtd">
<!-- Generated by graphviz version 2.43.0 (0)
 -->
<!-- Title: BufferBindingStruct Pages: 1 -->
<svg width="534pt" height="307pt"
 viewBox="0.00 0.00 533.50 307.00" xmlns="http://www.w3.org/2000/svg" xmlns:xlink="http://www.w3.org/1999/xlink">
<g id="graph0" class="graph" transform="scale(1 1) rotate(0) translate(4 303)">
<title>BufferBindingStruct</title>
<polygon fill="white" stroke="transparent" points="-4,4 -4,-303 529.5,-303 529.5,4 -4,4"/>
<!-- Node1 -->
<g id="node1" class="node">
<title>Node1</title>
<g id="a_node1"><a xlink:title=" ">
<polygon fill="#bfbfbf" stroke="black" points="315,-0.5 315,-19.5 426,-19.5 426,-0.5 315,-0.5"/>
<text text-anchor="middle" x="370.5" y="-7.5" font-family="Helvetica,sans-Serif" font-size="10.00">BufferBindingStruct</text>
</a>
</g>
</g>
<!-- Node2 -->
<g id="node2" class="node">
<title>Node2</title>
<g id="a_node2"><a xlink:href="../../d0/d99/classnap_1_1_buffer_binding.html" target="_top" xlink:title=" ">
<polygon fill="white" stroke="black" points="258,-67.5 258,-86.5 341,-86.5 341,-67.5 258,-67.5"/>
<text text-anchor="middle" x="299.5" y="-74.5" font-family="Helvetica,sans-Serif" font-size="10.00">BufferBinding</text>
</a>
</g>
</g>
<!-- Node2&#45;&gt;Node1 -->
<g id="edge1" class="edge">
<title>Node2&#45;&gt;Node1</title>
<path fill="none" stroke="midnightblue" d="M316.59,-60.36C330.55,-47.58 349.76,-29.99 361.08,-19.63"/>
<polygon fill="midnightblue" stroke="midnightblue" points="314.09,-57.9 309.08,-67.23 318.81,-63.06 314.09,-57.9"/>
</g>
<!-- Node3 -->
<g id="node3" class="node">
<title>Node3</title>
<g id="a_node3"><a xlink:href="../../d9/dea/classnap_1_1_resource.html" target="_top" xlink:title=" ">
<polygon fill="white" stroke="black" points="294.5,-201.5 294.5,-220.5 356.5,-220.5 356.5,-201.5 294.5,-201.5"/>
<text text-anchor="middle" x="325.5" y="-208.5" font-family="Helvetica,sans-Serif" font-size="10.00">Resource</text>
</a>
</g>
</g>
<!-- Node3&#45;&gt;Node2 -->
<g id="edge2" class="edge">
<title>Node3&#45;&gt;Node2</title>
<path fill="none" stroke="midnightblue" d="M326.88,-191.21C327.82,-169.75 327.45,-133.86 317.5,-105 315.22,-98.4 310.93,-91.85 307.11,-86.87"/>
<polygon fill="midnightblue" stroke="midnightblue" points="323.38,-191.08 326.29,-201.26 330.37,-191.49 323.38,-191.08"/>
</g>
<!-- Node5 -->
<g id="node5" class="node">
<title>Node5</title>
<g id="a_node5"><a xlink:href="../../dd/df4/classnap_1_1_g_p_u_buffer.html" target="_top" xlink:title=" ">
<polygon fill="white" stroke="black" points="198,-134.5 198,-153.5 265,-153.5 265,-134.5 198,-134.5"/>
<text text-anchor="middle" x="231.5" y="-141.5" font-family="Helvetica,sans-Serif" font-size="10.00">GPUBuffer</text>
</a>
</g>
</g>
<!-- Node3&#45;&gt;Node5 -->
<g id="edge5" class="edge">
<title>Node3&#45;&gt;Node5</title>
<path fill="none" stroke="midnightblue" d="M315.35,-192.94C310.39,-185.73 303.9,-177.7 296.5,-172 286.04,-163.95 272.84,-157.88 261.07,-153.56"/>
<polygon fill="midnightblue" stroke="midnightblue" points="312.43,-194.86 320.76,-201.39 318.32,-191.08 312.43,-194.86"/>
</g>
<!-- Node4 -->
<g id="node4" class="node">
<title>Node4</title>
<g id="a_node4"><a xlink:href="../../de/d01/classnap_1_1rtti_1_1_object.html" target="_top" xlink:title=" ">
<polygon fill="white" stroke="black" points="301.5,-279.5 301.5,-298.5 349.5,-298.5 349.5,-279.5 301.5,-279.5"/>
<text text-anchor="middle" x="325.5" y="-286.5" font-family="Helvetica,sans-Serif" font-size="10.00">Object</text>
</a>
</g>
</g>
<!-- Node4&#45;&gt;Node3 -->
<g id="edge3" class="edge">
<title>Node4&#45;&gt;Node3</title>
<path fill="none" stroke="midnightblue" d="M325.5,-269.22C325.5,-253.7 325.5,-232.36 325.5,-220.62"/>
<polygon fill="midnightblue" stroke="midnightblue" points="322,-269.28 325.5,-279.28 329,-269.28 322,-269.28"/>
</g>
<!-- Node5&#45;&gt;Node2 -->
<g id="edge4" class="edge">
<title>Node5&#45;&gt;Node2</title>
<path fill="none" stroke="#9a32cd" stroke-dasharray="5,2" d="M248.24,-127C261.58,-114.25 279.73,-96.89 290.47,-86.63"/>
<polygon fill="#9a32cd" stroke="#9a32cd" points="245.48,-124.79 240.67,-134.23 250.32,-129.85 245.48,-124.79"/>
<text text-anchor="middle" x="292" y="-108" font-family="Helvetica,sans-Serif" font-size="10.00"> mBuffer</text>
</g>
<!-- Node6 -->
<g id="node6" class="node">
<title>Node6</title>
<g id="a_node6"><a xlink:href="../../d5/dc6/classnap_1_1_render_service.html" target="_top" xlink:title=" ">
<polygon fill="white" stroke="black" points="70,-201.5 70,-220.5 157,-220.5 157,-201.5 70,-201.5"/>
<text text-anchor="middle" x="113.5" y="-208.5" font-family="Helvetica,sans-Serif" font-size="10.00">RenderService</text>
</a>
</g>
</g>
<!-- Node6&#45;&gt;Node5 -->
<g id="edge6" class="edge">
<title>Node6&#45;&gt;Node5</title>
<path fill="none" stroke="#9a32cd" stroke-dasharray="5,2" d="M118.96,-191.81C121.93,-184.72 126.29,-177.09 132.5,-172 150.82,-156.98 176.83,-150.28 197.59,-147.31"/>
<polygon fill="#9a32cd" stroke="#9a32cd" points="115.59,-190.86 115.57,-201.46 122.19,-193.19 115.59,-190.86"/>
<text text-anchor="middle" x="174.5" y="-175" font-family="Helvetica,sans-Serif" font-size="10.00"> mRenderService</text>
</g>
<!-- Node7 -->
<g id="node7" class="node">
<title>Node7</title>
<g id="a_node7"><a xlink:href="../../d8/d8e/classnap_1_1_service.html" target="_top" xlink:title=" ">
<polygon fill="white" stroke="black" points="0,-279.5 0,-298.5 53,-298.5 53,-279.5 0,-279.5"/>
<text text-anchor="middle" x="26.5" y="-286.5" font-family="Helvetica,sans-Serif" font-size="10.00">Service</text>
</a>
</g>
</g>
<!-- Node7&#45;&gt;Node6 -->
<g id="edge7" class="edge">
<title>Node7&#45;&gt;Node6</title>
<path fill="none" stroke="midnightblue" d="M44.47,-272.3C62.4,-256.64 89.28,-233.16 103.64,-220.62"/>
<polygon fill="midnightblue" stroke="midnightblue" points="41.71,-270.07 36.48,-279.28 46.31,-275.34 41.71,-270.07"/>
</g>
<!-- Node8 -->
<g id="node8" class="node">
<title>Node8</title>
<g id="a_node8"><a xlink:href="../../de/d80/classnap_1_1_signal.html" target="_top" xlink:title=" ">
<polygon fill="white" stroke="black" points="71,-279.5 71,-298.5 248,-298.5 248,-279.5 71,-279.5"/>
<text text-anchor="middle" x="159.5" y="-286.5" font-family="Helvetica,sans-Serif" font-size="10.00">Signal&lt; nap::RenderWindow &amp; &gt;</text>
</a>
</g>
</g>
<!-- Node8&#45;&gt;Node6 -->
<g id="edge8" class="edge">
<title>Node8&#45;&gt;Node6</title>
<path fill="none" stroke="#9a32cd" stroke-dasharray="5,2" d="M148.95,-270.57C139.5,-254.95 126.03,-232.7 118.72,-220.62"/>
<polygon fill="#9a32cd" stroke="#9a32cd" points="146.05,-272.54 154.22,-279.28 152.04,-268.91 146.05,-272.54"/>
<text text-anchor="middle" x="186.5" y="-253" font-family="Helvetica,sans-Serif" font-size="10.00"> windowRemoved</text>
<text text-anchor="middle" x="186.5" y="-242" font-family="Helvetica,sans-Serif" font-size="10.00">windowAdded</text>
</g>
<!-- Node9 -->
<g id="node9" class="node">
<title>Node9</title>
<g id="a_node9"><a xlink:href="../../de/d80/classnap_1_1_signal.html" target="_top" xlink:title=" ">
<polygon fill="white" stroke="black" points="175,-201.5 175,-220.5 266,-220.5 266,-201.5 175,-201.5"/>
<text text-anchor="middle" x="220.5" y="-208.5" font-family="Helvetica,sans-Serif" font-size="10.00">Signal&lt; Args &gt;</text>
</a>
</g>
</g>
<!-- Node9&#45;&gt;Node5 -->
<g id="edge9" class="edge">
<title>Node9&#45;&gt;Node5</title>
<path fill="none" stroke="#9a32cd" stroke-dasharray="5,2" d="M219.78,-191.36C219.86,-185.16 220.3,-178.24 221.5,-172 222.71,-165.72 225.21,-158.97 227.41,-153.79"/>
<polygon fill="#9a32cd" stroke="#9a32cd" points="216.28,-191.52 219.93,-201.46 223.28,-191.41 216.28,-191.52"/>
<text text-anchor="middle" x="259" y="-175" font-family="Helvetica,sans-Serif" font-size="10.00"> bufferChanged</text>
</g>
<!-- Node10 -->
<g id="node10" class="node">
<title>Node10</title>
<g id="a_node10"><a xlink:href="../../dd/d7c/classnap_1_1rtti_1_1_object_ptr.html" target="_top" xlink:title=" ">
<polygon fill="white" stroke="black" points="359.5,-67.5 359.5,-86.5 525.5,-86.5 525.5,-67.5 359.5,-67.5"/>
<text text-anchor="middle" x="442.5" y="-74.5" font-family="Helvetica,sans-Serif" font-size="10.00">ObjectPtr&lt; nap::StructBuffer &gt;</text>
</a>
</g>
</g>
<!-- Node10&#45;&gt;Node1 -->
<g id="edge10" class="edge">
<title>Node10&#45;&gt;Node1</title>
<path fill="none" stroke="#9a32cd" stroke-dasharray="5,2" d="M425.17,-60.36C411.02,-47.58 391.54,-29.99 380.06,-19.63"/>
<polygon fill="#9a32cd" stroke="#9a32cd" points="423.02,-63.13 432.79,-67.23 427.71,-57.93 423.02,-63.13"/>
<text text-anchor="middle" x="433" y="-41" font-family="Helvetica,sans-Serif" font-size="10.00"> mBuffer</text>
</g>
<!-- Node11 -->
<g id="node11" class="node">
<title>Node11</title>
<g id="a_node11"><a xlink:href="../../d7/dcb/classnap_1_1rtti_1_1_object_ptr_base.html" target="_top" xlink:title=" ">
<polygon fill="white" stroke="black" points="399.5,-134.5 399.5,-153.5 485.5,-153.5 485.5,-134.5 399.5,-134.5"/>
<text text-anchor="middle" x="442.5" y="-141.5" font-family="Helvetica,sans-Serif" font-size="10.00">ObjectPtrBase</text>
</a>
</g>
</g>
<!-- Node11&#45;&gt;Node10 -->
<g id="edge11" class="edge">
<title>Node11&#45;&gt;Node10</title>
<path fill="none" stroke="midnightblue" d="M442.5,-124.04C442.5,-111.67 442.5,-96.12 442.5,-86.63"/>
<polygon fill="midnightblue" stroke="midnightblue" points="439,-124.23 442.5,-134.23 446,-124.23 439,-124.23"/>
</g>
</g>
</svg>
