<?xml version="1.0" encoding="UTF-8" standalone="no"?>
<!DOCTYPE svg PUBLIC "-//W3C//DTD SVG 1.1//EN"
 "http://www.w3.org/Graphics/SVG/1.1/DTD/svg11.dtd">
<!-- Generated by graphviz version 2.48.0 (20210717.1556)
 -->
<!-- Title: BufferBindingStruct Pages: 1 -->
<svg width="487pt" height="307pt"
 viewBox="0.00 0.00 486.50 307.00" xmlns="http://www.w3.org/2000/svg" xmlns:xlink="http://www.w3.org/1999/xlink">
<g id="graph0" class="graph" transform="scale(1 1) rotate(0) translate(4 303)">
<title>BufferBindingStruct</title>
<polygon fill="white" stroke="transparent" points="-4,4 -4,-303 482.5,-303 482.5,4 -4,4"/>
<!-- Node4 -->
<g id="node1" class="node">
<title>Node4</title>
<polygon fill="#bfbfbf" stroke="black" points="288,-0.5 288,-19.5 388,-19.5 388,-0.5 288,-0.5"/>
<text text-anchor="middle" x="338" y="-7.5" font-family="Helvetica,sans-Serif" font-size="10.00">BufferBindingStruct</text>
</g>
<!-- Node5 -->
<g id="node2" class="node">
<title>Node5</title>
<g id="a_node2"><a xlink:href="../../d0/d99/classnap_1_1_buffer_binding.html" target="_top" xlink:title="BufferBinding">
<polygon fill="white" stroke="black" points="237,-67.5 237,-86.5 311,-86.5 311,-67.5 237,-67.5"/>
<text text-anchor="middle" x="274" y="-74.5" font-family="Helvetica,sans-Serif" font-size="10.00">BufferBinding</text>
</a>
</g>
</g>
<!-- Node5&#45;&gt;Node4 -->
<g id="edge1" class="edge">
<title>Node5&#45;&gt;Node4</title>
<path fill="none" stroke="midnightblue" d="M289.76,-60C302.31,-47.25 319.4,-29.89 329.51,-19.63"/>
<polygon fill="midnightblue" stroke="midnightblue" points="287.15,-57.65 282.63,-67.23 292.14,-62.56 287.15,-57.65"/>
</g>
<!-- Node6 -->
<g id="node3" class="node">
<title>Node6</title>
<g id="a_node3"><a xlink:href="../../d9/dea/classnap_1_1_resource.html" target="_top" xlink:title="Resource">
<polygon fill="white" stroke="black" points="267,-201.5 267,-220.5 325,-220.5 325,-201.5 267,-201.5"/>
<text text-anchor="middle" x="296" y="-208.5" font-family="Helvetica,sans-Serif" font-size="10.00">Resource</text>
</a>
</g>
</g>
<!-- Node6&#45;&gt;Node5 -->
<g id="edge2" class="edge">
<title>Node6&#45;&gt;Node5</title>
<path fill="none" stroke="midnightblue" d="M296.81,-191.1C297.21,-169.77 296.32,-134.23 288,-105 286.15,-98.5 282.65,-91.75 279.61,-86.62"/>
<polygon fill="midnightblue" stroke="midnightblue" points="293.3,-191.26 296.49,-201.36 300.3,-191.47 293.3,-191.26"/>
</g>
<!-- Node8 -->
<g id="node5" class="node">
<title>Node8</title>
<g id="a_node5"><a xlink:href="../../dd/df4/classnap_1_1_g_p_u_buffer.html" target="_top" xlink:title="GPUBuffer">
<polygon fill="white" stroke="black" points="180,-134.5 180,-153.5 242,-153.5 242,-134.5 180,-134.5"/>
<text text-anchor="middle" x="211" y="-141.5" font-family="Helvetica,sans-Serif" font-size="10.00">GPUBuffer</text>
</a>
</g>
</g>
<!-- Node6&#45;&gt;Node8 -->
<g id="edge5" class="edge">
<title>Node6&#45;&gt;Node8</title>
<path fill="none" stroke="midnightblue" d="M285.03,-192.9C279.87,-185.8 273.26,-177.87 266,-172 256.48,-164.31 244.42,-158.08 234.01,-153.55"/>
<polygon fill="midnightblue" stroke="midnightblue" points="282.19,-194.94 290.72,-201.23 287.97,-190.99 282.19,-194.94"/>
</g>
<!-- Node7 -->
<g id="node4" class="node">
<title>Node7</title>
<g id="a_node4"><a xlink:href="../../de/d01/classnap_1_1rtti_1_1_object.html" target="_top" xlink:title="Object">
<polygon fill="white" stroke="black" points="273.5,-279.5 273.5,-298.5 318.5,-298.5 318.5,-279.5 273.5,-279.5"/>
<text text-anchor="middle" x="296" y="-286.5" font-family="Helvetica,sans-Serif" font-size="10.00">Object</text>
</a>
</g>
</g>
<!-- Node7&#45;&gt;Node6 -->
<g id="edge3" class="edge">
<title>Node7&#45;&gt;Node6</title>
<path fill="none" stroke="midnightblue" d="M296,-269.22C296,-253.7 296,-232.36 296,-220.62"/>
<polygon fill="midnightblue" stroke="midnightblue" points="292.5,-269.28 296,-279.28 299.5,-269.28 292.5,-269.28"/>
</g>
<!-- Node8&#45;&gt;Node5 -->
<g id="edge4" class="edge">
<title>Node8&#45;&gt;Node5</title>
<path fill="none" stroke="#9a32cd" stroke-dasharray="5,2" d="M226.51,-127C238.87,-114.25 255.69,-96.89 265.64,-86.63"/>
<polygon fill="#9a32cd" stroke="#9a32cd" points="223.94,-124.62 219.5,-134.23 228.97,-129.49 223.94,-124.62"/>
<text text-anchor="middle" x="265.5" y="-108" font-family="Helvetica,sans-Serif" font-size="10.00"> mBuffer</text>
</g>
<!-- Node9 -->
<g id="node6" class="node">
<title>Node9</title>
<g id="a_node6"><a xlink:href="../../d5/dc6/classnap_1_1_render_service.html" target="_top" xlink:title="RenderService">
<polygon fill="white" stroke="black" points="61.5,-201.5 61.5,-220.5 140.5,-220.5 140.5,-201.5 61.5,-201.5"/>
<text text-anchor="middle" x="101" y="-208.5" font-family="Helvetica,sans-Serif" font-size="10.00">RenderService</text>
</a>
</g>
</g>
<!-- Node9&#45;&gt;Node8 -->
<g id="edge6" class="edge">
<title>Node9&#45;&gt;Node8</title>
<path fill="none" stroke="#9a32cd" stroke-dasharray="5,2" d="M107.52,-191.88C110.87,-184.8 115.62,-177.16 122,-172 138.44,-158.7 161.36,-151.94 179.83,-148.51"/>
<polygon fill="#9a32cd" stroke="#9a32cd" points="104.13,-190.92 103.58,-201.5 110.61,-193.57 104.13,-190.92"/>
<text text-anchor="middle" x="159" y="-175" font-family="Helvetica,sans-Serif" font-size="10.00"> mRenderService</text>
</g>
<!-- Node10 -->
<g id="node7" class="node">
<title>Node10</title>
<g id="a_node7"><a xlink:href="../../d8/d8e/classnap_1_1_service.html" target="_top" xlink:title="Service">
<polygon fill="white" stroke="black" points="0,-279.5 0,-298.5 48,-298.5 48,-279.5 0,-279.5"/>
<text text-anchor="middle" x="24" y="-286.5" font-family="Helvetica,sans-Serif" font-size="10.00">Service</text>
</a>
</g>
</g>
<!-- Node10&#45;&gt;Node9 -->
<g id="edge7" class="edge">
<title>Node10&#45;&gt;Node9</title>
<path fill="none" stroke="midnightblue" d="M40.34,-271.88C56.2,-256.22 79.68,-233.04 92.27,-220.62"/>
<polygon fill="midnightblue" stroke="midnightblue" points="37.49,-269.77 32.83,-279.28 42.41,-274.75 37.49,-269.77"/>
</g>
<!-- Node11 -->
<g id="node8" class="node">
<title>Node11</title>
<g id="a_node8"><a xlink:href="../../de/d80/classnap_1_1_signal.html" target="_top" xlink:title="Signal\&lt; nap::RenderWindow &amp;\&gt;">
<polygon fill="white" stroke="black" points="66.5,-279.5 66.5,-298.5 221.5,-298.5 221.5,-279.5 66.5,-279.5"/>
<text text-anchor="middle" x="144" y="-286.5" font-family="Helvetica,sans-Serif" font-size="10.00">Signal&lt; nap::RenderWindow &amp;&gt;</text>
</a>
</g>
</g>
<!-- Node11&#45;&gt;Node9 -->
<g id="edge8" class="edge">
<title>Node11&#45;&gt;Node9</title>
<path fill="none" stroke="#9a32cd" stroke-dasharray="5,2" d="M134.14,-270.57C125.3,-254.95 112.71,-232.7 105.88,-220.62"/>
<polygon fill="#9a32cd" stroke="#9a32cd" points="131.1,-272.3 139.07,-279.28 137.19,-268.85 131.1,-272.3"/>
<text text-anchor="middle" x="165.5" y="-253" font-family="Helvetica,sans-Serif" font-size="10.00"> windowRemoved</text>
<text text-anchor="middle" x="165.5" y="-242" font-family="Helvetica,sans-Serif" font-size="10.00">windowAdded</text>
</g>
<!-- Node12 -->
<g id="node9" class="node">
<title>Node12</title>
<g id="a_node9"><a xlink:href="../../de/d80/classnap_1_1_signal.html" target="_top" xlink:title="Signal\&lt; Args \&gt;">
<polygon fill="white" stroke="black" points="159,-201.5 159,-220.5 241,-220.5 241,-201.5 159,-201.5"/>
<text text-anchor="middle" x="200" y="-208.5" font-family="Helvetica,sans-Serif" font-size="10.00">Signal&lt; Args &gt;</text>
</a>
</g>
</g>
<!-- Node12&#45;&gt;Node8 -->
<g id="edge9" class="edge">
<title>Node12&#45;&gt;Node8</title>
<path fill="none" stroke="#9a32cd" stroke-dasharray="5,2" d="M199.28,-191.36C199.36,-185.16 199.8,-178.24 201,-172 202.21,-165.72 204.71,-158.97 206.91,-153.79"/>
<polygon fill="#9a32cd" stroke="#9a32cd" points="195.78,-191.52 199.43,-201.46 202.78,-191.41 195.78,-191.52"/>
<text text-anchor="middle" x="233.5" y="-175" font-family="Helvetica,sans-Serif" font-size="10.00"> bufferChanged</text>
</g>
<!-- Node13 -->
<g id="node10" class="node">
<title>Node13</title>
<g id="a_node10"><a xlink:href="../../dd/d7c/classnap_1_1rtti_1_1_object_ptr.html" target="_top" xlink:title="ObjectPtr\&lt; nap::StructBuffer \&gt;">
<polygon fill="white" stroke="black" points="329.5,-67.5 329.5,-86.5 478.5,-86.5 478.5,-67.5 329.5,-67.5"/>
<text text-anchor="middle" x="404" y="-74.5" font-family="Helvetica,sans-Serif" font-size="10.00">ObjectPtr&lt; nap::StructBuffer &gt;</text>
</a>
</g>
</g>
<!-- Node13&#45;&gt;Node4 -->
<g id="edge10" class="edge">
<title>Node13&#45;&gt;Node4</title>
<path fill="none" stroke="#9a32cd" stroke-dasharray="5,2" d="M387.75,-60C374.81,-47.25 357.19,-29.89 346.76,-19.63"/>
<polygon fill="#9a32cd" stroke="#9a32cd" points="385.52,-62.71 395.1,-67.23 390.43,-57.72 385.52,-62.71"/>
<text text-anchor="middle" x="393.5" y="-41" font-family="Helvetica,sans-Serif" font-size="10.00"> mBuffer</text>
</g>
<!-- Node14 -->
<g id="node11" class="node">
<title>Node14</title>
<g id="a_node11"><a xlink:href="../../d7/dcb/classnap_1_1rtti_1_1_object_ptr_base.html" target="_top" xlink:title="ObjectPtrBase">
<polygon fill="white" stroke="black" points="364,-134.5 364,-153.5 444,-153.5 444,-134.5 364,-134.5"/>
<text text-anchor="middle" x="404" y="-141.5" font-family="Helvetica,sans-Serif" font-size="10.00">ObjectPtrBase</text>
</a>
</g>
</g>
<!-- Node14&#45;&gt;Node13 -->
<g id="edge11" class="edge">
<title>Node14&#45;&gt;Node13</title>
<path fill="none" stroke="midnightblue" d="M404,-124.04C404,-111.67 404,-96.12 404,-86.63"/>
<polygon fill="midnightblue" stroke="midnightblue" points="400.5,-124.23 404,-134.23 407.5,-124.23 400.5,-124.23"/>
</g>
</g>
</svg>
