<?xml version="1.0" encoding="UTF-8" standalone="no"?>
<!DOCTYPE svg PUBLIC "-//W3C//DTD SVG 1.1//EN"
 "http://www.w3.org/Graphics/SVG/1.1/DTD/svg11.dtd">
<!-- Generated by graphviz version 2.43.0 (0)
 -->
<!-- Title: ComputeMaterialInstanceResource Pages: 1 -->
<svg width="386pt" height="152pt"
 viewBox="0.00 0.00 386.00 152.00" xmlns="http://www.w3.org/2000/svg" xmlns:xlink="http://www.w3.org/1999/xlink">
<g id="graph0" class="graph" transform="scale(1 1) rotate(0) translate(4 148)">
<title>ComputeMaterialInstanceResource</title>
<polygon fill="white" stroke="transparent" points="-4,4 -4,-148 382,-148 382,4 -4,4"/>
<!-- Node1 -->
<g id="node1" class="node">
<title>Node1</title>
<g id="a_node1"><a xlink:title=" ">
<polygon fill="#bfbfbf" stroke="black" points="46.5,-0.5 46.5,-19.5 234.5,-19.5 234.5,-0.5 46.5,-0.5"/>
<text text-anchor="middle" x="140.5" y="-7.5" font-family="Helvetica,sans-Serif" font-size="10.00">ComputeMaterialInstanceResource</text>
</a>
</g>
</g>
<!-- Node2 -->
<g id="node2" class="node">
<title>Node2</title>
<g id="a_node2"><a xlink:href="../../df/d7a/classnap_1_1_base_material_instance_resource.html" target="_top" xlink:title=" ">
<polygon fill="white" stroke="black" points="0,-67.5 0,-86.5 167,-86.5 167,-67.5 0,-67.5"/>
<text text-anchor="middle" x="83.5" y="-74.5" font-family="Helvetica,sans-Serif" font-size="10.00">BaseMaterialInstanceResource</text>
</a>
</g>
</g>
<!-- Node2&#45;&gt;Node1 -->
<g id="edge1" class="edge">
<title>Node2&#45;&gt;Node1</title>
<path fill="none" stroke="midnightblue" d="M97.85,-59.63C109,-46.92 124.02,-29.8 132.93,-19.63"/>
<polygon fill="midnightblue" stroke="midnightblue" points="95.15,-57.41 91.19,-67.23 100.41,-62.02 95.15,-57.41"/>
</g>
<!-- Node3 -->
<g id="node3" class="node">
<title>Node3</title>
<g id="a_node3"><a xlink:href="../../dd/d7c/classnap_1_1rtti_1_1_object_ptr.html" target="_top" xlink:title=" ">
<polygon fill="white" stroke="black" points="185,-67.5 185,-86.5 378,-86.5 378,-67.5 185,-67.5"/>
<text text-anchor="middle" x="281.5" y="-74.5" font-family="Helvetica,sans-Serif" font-size="10.00">ObjectPtr&lt; nap::ComputeMaterial &gt;</text>
</a>
</g>
</g>
<!-- Node3&#45;&gt;Node1 -->
<g id="edge2" class="edge">
<title>Node3&#45;&gt;Node1</title>
<path fill="none" stroke="#9a32cd" stroke-dasharray="5,2" d="M253.54,-63.11C225.62,-50.24 183.46,-30.81 159.3,-19.67"/>
<polygon fill="#9a32cd" stroke="#9a32cd" points="252.23,-66.36 262.78,-67.37 255.16,-60 252.23,-66.36"/>
<text text-anchor="middle" x="267.5" y="-41" font-family="Helvetica,sans-Serif" font-size="10.00"> mComputeMaterial</text>
</g>
<!-- Node4 -->
<g id="node4" class="node">
<title>Node4</title>
<g id="a_node4"><a xlink:href="../../d7/dcb/classnap_1_1rtti_1_1_object_ptr_base.html" target="_top" xlink:title=" ">
<polygon fill="white" stroke="black" points="238.5,-124.5 238.5,-143.5 324.5,-143.5 324.5,-124.5 238.5,-124.5"/>
<text text-anchor="middle" x="281.5" y="-131.5" font-family="Helvetica,sans-Serif" font-size="10.00">ObjectPtrBase</text>
</a>
</g>
</g>
<!-- Node4&#45;&gt;Node3 -->
<g id="edge3" class="edge">
<title>Node4&#45;&gt;Node3</title>
<path fill="none" stroke="midnightblue" d="M281.5,-114.12C281.5,-104.82 281.5,-94.06 281.5,-86.71"/>
<polygon fill="midnightblue" stroke="midnightblue" points="278,-114.41 281.5,-124.41 285,-114.41 278,-114.41"/>
</g>
</g>
</svg>
