<?xml version="1.0" encoding="UTF-8" standalone="no"?>
<!DOCTYPE svg PUBLIC "-//W3C//DTD SVG 1.1//EN"
 "http://www.w3.org/Graphics/SVG/1.1/DTD/svg11.dtd">
<!-- Generated by graphviz version 2.48.0 (20210717.1556)
 -->
<!-- Title: ComputeMaterialInstanceResource Pages: 1 -->
<svg width="350pt" height="152pt"
 viewBox="0.00 0.00 349.50 152.00" xmlns="http://www.w3.org/2000/svg" xmlns:xlink="http://www.w3.org/1999/xlink">
<g id="graph0" class="graph" transform="scale(1 1) rotate(0) translate(4 148)">
<title>ComputeMaterialInstanceResource</title>
<polygon fill="white" stroke="transparent" points="-4,4 -4,-148 345.5,-148 345.5,4 -4,4"/>
<!-- Node2 -->
<g id="node1" class="node">
<title>Node2</title>
<polygon fill="#bfbfbf" stroke="black" points="8,-0.5 8,-19.5 176,-19.5 176,-0.5 8,-0.5"/>
<text text-anchor="middle" x="92" y="-7.5" font-family="Helvetica,sans-Serif" font-size="10.00">ComputeMaterialInstanceResource</text>
</g>
<!-- Node3 -->
<g id="node2" class="node">
<title>Node3</title>
<g id="a_node2"><a xlink:href="../../df/d7a/classnap_1_1_base_material_instance_resource.html" target="_top" xlink:title="BaseMaterialInstanceResource">
<polygon fill="white" stroke="black" points="0,-67.5 0,-86.5 152,-86.5 152,-67.5 0,-67.5"/>
<text text-anchor="middle" x="76" y="-74.5" font-family="Helvetica,sans-Serif" font-size="10.00">BaseMaterialInstanceResource</text>
</a>
</g>
</g>
<!-- Node3&#45;&gt;Node2 -->
<g id="edge1" class="edge">
<title>Node3&#45;&gt;Node2</title>
<path fill="none" stroke="midnightblue" d="M80.57,-57.41C83.63,-44.99 87.52,-29.22 89.88,-19.63"/>
<polygon fill="midnightblue" stroke="midnightblue" points="77.15,-56.69 78.16,-67.23 83.95,-58.36 77.15,-56.69"/>
</g>
<!-- Node4 -->
<g id="node3" class="node">
<title>Node4</title>
<g id="a_node3"><a xlink:href="../../dd/d7c/classnap_1_1rtti_1_1_object_ptr.html" target="_top" xlink:title="ObjectPtr\&lt; nap::ComputeMaterial \&gt;">
<polygon fill="white" stroke="black" points="170.5,-67.5 170.5,-86.5 341.5,-86.5 341.5,-67.5 170.5,-67.5"/>
<text text-anchor="middle" x="256" y="-74.5" font-family="Helvetica,sans-Serif" font-size="10.00">ObjectPtr&lt; nap::ComputeMaterial &gt;</text>
</a>
</g>
</g>
<!-- Node4&#45;&gt;Node2 -->
<g id="edge2" class="edge">
<title>Node4&#45;&gt;Node2</title>
<path fill="none" stroke="#9a32cd" stroke-dasharray="5,2" d="M224.72,-63.6C192.16,-50.7 142.03,-30.83 113.61,-19.56"/>
<polygon fill="#9a32cd" stroke="#9a32cd" points="223.64,-66.94 234.22,-67.37 226.22,-60.43 223.64,-66.94"/>
<text text-anchor="middle" x="225.5" y="-41" font-family="Helvetica,sans-Serif" font-size="10.00"> mComputeMaterial</text>
</g>
<!-- Node5 -->
<g id="node4" class="node">
<title>Node5</title>
<g id="a_node4"><a xlink:href="../../d7/dcb/classnap_1_1rtti_1_1_object_ptr_base.html" target="_top" xlink:title="ObjectPtrBase">
<polygon fill="white" stroke="black" points="216,-124.5 216,-143.5 296,-143.5 296,-124.5 216,-124.5"/>
<text text-anchor="middle" x="256" y="-131.5" font-family="Helvetica,sans-Serif" font-size="10.00">ObjectPtrBase</text>
</a>
</g>
</g>
<!-- Node5&#45;&gt;Node4 -->
<g id="edge3" class="edge">
<title>Node5&#45;&gt;Node4</title>
<path fill="none" stroke="midnightblue" d="M256,-114.12C256,-104.82 256,-94.06 256,-86.71"/>
<polygon fill="midnightblue" stroke="midnightblue" points="252.5,-114.41 256,-124.41 259.5,-114.41 252.5,-114.41"/>
</g>
</g>
</svg>
