<?xml version="1.0" encoding="UTF-8" standalone="no"?>
<!DOCTYPE svg PUBLIC "-//W3C//DTD SVG 1.1//EN"
 "http://www.w3.org/Graphics/SVG/1.1/DTD/svg11.dtd">
<!-- Generated by graphviz version 2.48.0 (20210717.1556)
 -->
<!-- Title: SequenceAudioTrackView Pages: 1 -->
<svg width="511pt" height="421pt"
 viewBox="0.00 0.00 510.50 421.00" xmlns="http://www.w3.org/2000/svg" xmlns:xlink="http://www.w3.org/1999/xlink">
<g id="graph0" class="graph" transform="scale(1 1) rotate(0) translate(4 417)">
<title>SequenceAudioTrackView</title>
<polygon fill="white" stroke="transparent" points="-4,4 -4,-417 506.5,-417 506.5,4 -4,4"/>
<!-- Node2 -->
<g id="node1" class="node">
<title>Node2</title>
<polygon fill="#bfbfbf" stroke="black" points="206.5,-0.5 206.5,-19.5 336.5,-19.5 336.5,-0.5 206.5,-0.5"/>
<text text-anchor="middle" x="271.5" y="-7.5" font-family="Helvetica,sans-Serif" font-size="10.00">SequenceAudioTrackView</text>
</g>
<!-- Node3 -->
<g id="node2" class="node">
<title>Node3</title>
<g id="a_node2"><a xlink:href="../../d4/d58/classnap_1_1_sequence_track_view.html" target="_top" xlink:title="SequenceTrackView">
<polygon fill="white" stroke="black" points="219,-57.5 219,-76.5 324,-76.5 324,-57.5 219,-57.5"/>
<text text-anchor="middle" x="271.5" y="-64.5" font-family="Helvetica,sans-Serif" font-size="10.00">SequenceTrackView</text>
</a>
</g>
</g>
<!-- Node3&#45;&gt;Node2 -->
<g id="edge1" class="edge">
<title>Node3&#45;&gt;Node2</title>
<path fill="none" stroke="midnightblue" d="M271.5,-47.12C271.5,-37.82 271.5,-27.06 271.5,-19.71"/>
<polygon fill="midnightblue" stroke="midnightblue" points="268,-47.41 271.5,-57.41 275,-47.41 268,-47.41"/>
</g>
<!-- Node4 -->
<g id="node3" class="node">
<title>Node4</title>
<g id="a_node3"><a xlink:href="../../d0/d0a/classnap_1_1_sequence_g_u_i_service.html" target="_top" xlink:title="SequenceGUIService">
<polygon fill="white" stroke="black" points="369.5,-191.5 369.5,-210.5 477.5,-210.5 477.5,-191.5 369.5,-191.5"/>
<text text-anchor="middle" x="423.5" y="-198.5" font-family="Helvetica,sans-Serif" font-size="10.00">SequenceGUIService</text>
</a>
</g>
</g>
<!-- Node4&#45;&gt;Node3 -->
<g id="edge2" class="edge">
<title>Node4&#45;&gt;Node3</title>
<path fill="none" stroke="#9a32cd" stroke-dasharray="5,2" d="M416.62,-181.81C413.55,-175.14 409.48,-167.8 404.5,-162 370.42,-122.32 316.14,-90.9 288.65,-76.52"/>
<polygon fill="#9a32cd" stroke="#9a32cd" points="413.55,-183.55 420.62,-191.44 420.01,-180.87 413.55,-183.55"/>
<text text-anchor="middle" x="408" y="-131.5" font-family="Helvetica,sans-Serif" font-size="10.00"> mService</text>
</g>
<!-- Node6 -->
<g id="node5" class="node">
<title>Node6</title>
<g id="a_node5"><a xlink:href="../../d2/d74/classnap_1_1_sequence_editor_g_u_i_view.html" target="_top" xlink:title="SequenceEditorGUIView">
<polygon fill="white" stroke="black" points="210,-124.5 210,-143.5 333,-143.5 333,-124.5 210,-124.5"/>
<text text-anchor="middle" x="271.5" y="-131.5" font-family="Helvetica,sans-Serif" font-size="10.00">SequenceEditorGUIView</text>
</a>
</g>
</g>
<!-- Node4&#45;&gt;Node6 -->
<g id="edge5" class="edge">
<title>Node4&#45;&gt;Node6</title>
<path fill="none" stroke="#9a32cd" stroke-dasharray="5,2" d="M393.76,-187.28C363.66,-174.41 317.93,-154.85 291.77,-143.67"/>
<polygon fill="#9a32cd" stroke="#9a32cd" points="392.74,-190.65 403.32,-191.37 395.5,-184.22 392.74,-190.65"/>
<text text-anchor="middle" x="379" y="-165" font-family="Helvetica,sans-Serif" font-size="10.00"> mService</text>
</g>
<!-- Node5 -->
<g id="node4" class="node">
<title>Node5</title>
<g id="a_node4"><a xlink:href="../../d8/d8e/classnap_1_1_service.html" target="_top" xlink:title="Service">
<polygon fill="white" stroke="black" points="399.5,-258.5 399.5,-277.5 447.5,-277.5 447.5,-258.5 399.5,-258.5"/>
<text text-anchor="middle" x="423.5" y="-265.5" font-family="Helvetica,sans-Serif" font-size="10.00">Service</text>
</a>
</g>
</g>
<!-- Node5&#45;&gt;Node4 -->
<g id="edge3" class="edge">
<title>Node5&#45;&gt;Node4</title>
<path fill="none" stroke="midnightblue" d="M423.5,-248.04C423.5,-235.67 423.5,-220.12 423.5,-210.63"/>
<polygon fill="midnightblue" stroke="midnightblue" points="420,-248.23 423.5,-258.23 427,-248.23 420,-248.23"/>
</g>
<!-- Node6&#45;&gt;Node3 -->
<g id="edge4" class="edge">
<title>Node6&#45;&gt;Node3</title>
<path fill="none" stroke="#9a32cd" stroke-dasharray="5,2" d="M271.5,-114.04C271.5,-101.67 271.5,-86.12 271.5,-76.63"/>
<polygon fill="#9a32cd" stroke="#9a32cd" points="268,-114.23 271.5,-124.23 275,-114.23 268,-114.23"/>
<text text-anchor="middle" x="288" y="-98" font-family="Helvetica,sans-Serif" font-size="10.00"> mView</text>
</g>
<!-- Node7 -->
<g id="node6" class="node">
<title>Node7</title>
<g id="a_node6"><a xlink:href="../../db/d94/structnap_1_1_sequence_editor_g_u_i_state.html" target="_top" xlink:title="SequenceEditorGUIState">
<polygon fill="white" stroke="black" points="46,-191.5 46,-210.5 171,-210.5 171,-191.5 46,-191.5"/>
<text text-anchor="middle" x="108.5" y="-198.5" font-family="Helvetica,sans-Serif" font-size="10.00">SequenceEditorGUIState</text>
</a>
</g>
</g>
<!-- Node7&#45;&gt;Node3 -->
<g id="edge20" class="edge">
<title>Node7&#45;&gt;Node3</title>
<path fill="none" stroke="#9a32cd" stroke-dasharray="5,2" d="M118.61,-182.29C128.8,-165.64 145.79,-140.83 165.5,-124 190.83,-102.38 225.9,-85.91 248.65,-76.6"/>
<polygon fill="#9a32cd" stroke="#9a32cd" points="115.52,-180.64 113.44,-191.02 121.55,-184.2 115.52,-180.64"/>
<text text-anchor="middle" x="183" y="-131.5" font-family="Helvetica,sans-Serif" font-size="10.00"> mState</text>
</g>
<!-- Node7&#45;&gt;Node6 -->
<g id="edge6" class="edge">
<title>Node7&#45;&gt;Node6</title>
<path fill="none" stroke="#9a32cd" stroke-dasharray="5,2" d="M132.25,-186.42C146.52,-178.61 165.2,-169 182.5,-162 200.46,-154.73 221.14,-148.35 238.04,-143.61"/>
<polygon fill="#9a32cd" stroke="#9a32cd" points="130.19,-183.56 123.15,-191.48 133.59,-189.68 130.19,-183.56"/>
<text text-anchor="middle" x="200" y="-165" font-family="Helvetica,sans-Serif" font-size="10.00"> mState</text>
</g>
<!-- Node8 -->
<g id="node7" class="node">
<title>Node8</title>
<g id="a_node7"><a xlink:href="../../d9/dde/classnap_1_1_sequence_editor.html" target="_top" xlink:title="SequenceEditor">
<polygon fill="white" stroke="black" points="292.5,-258.5 292.5,-277.5 378.5,-277.5 378.5,-258.5 292.5,-258.5"/>
<text text-anchor="middle" x="335.5" y="-265.5" font-family="Helvetica,sans-Serif" font-size="10.00">SequenceEditor</text>
</a>
</g>
</g>
<!-- Node8&#45;&gt;Node6 -->
<g id="edge7" class="edge">
<title>Node8&#45;&gt;Node6</title>
<path fill="none" stroke="#9a32cd" stroke-dasharray="5,2" d="M332.24,-248.51C327.74,-226.53 318.11,-189.39 300.5,-162 295.96,-154.94 289.16,-148.48 283.29,-143.65"/>
<polygon fill="#9a32cd" stroke="#9a32cd" points="328.83,-249.32 334.14,-258.49 335.71,-248.01 328.83,-249.32"/>
<text text-anchor="middle" x="341" y="-198.5" font-family="Helvetica,sans-Serif" font-size="10.00"> mEditor</text>
</g>
<!-- Node9 -->
<g id="node8" class="node">
<title>Node9</title>
<g id="a_node8"><a xlink:href="../../d9/dea/classnap_1_1_resource.html" target="_top" xlink:title="Resource">
<polygon fill="white" stroke="black" points="294.5,-331 294.5,-350 352.5,-350 352.5,-331 294.5,-331"/>
<text text-anchor="middle" x="323.5" y="-338" font-family="Helvetica,sans-Serif" font-size="10.00">Resource</text>
</a>
</g>
</g>
<!-- Node9&#45;&gt;Node8 -->
<g id="edge8" class="edge">
<title>Node9&#45;&gt;Node8</title>
<path fill="none" stroke="midnightblue" d="M326.67,-320.86C329.05,-306.9 332.19,-288.43 334.02,-277.72"/>
<polygon fill="midnightblue" stroke="midnightblue" points="323.2,-320.41 324.97,-330.86 330.1,-321.58 323.2,-320.41"/>
</g>
<!-- Node14 -->
<g id="node13" class="node">
<title>Node14</title>
<g id="a_node13"><a xlink:href="../../d0/dc5/classnap_1_1_window.html" target="_top" xlink:title="Window">
<polygon fill="white" stroke="black" points="216,-258.5 216,-277.5 267,-277.5 267,-258.5 216,-258.5"/>
<text text-anchor="middle" x="241.5" y="-265.5" font-family="Helvetica,sans-Serif" font-size="10.00">Window</text>
</a>
</g>
</g>
<!-- Node9&#45;&gt;Node14 -->
<g id="edge14" class="edge">
<title>Node9&#45;&gt;Node14</title>
<path fill="none" stroke="midnightblue" d="M315.35,-321.63C310.76,-313.05 304.36,-303.12 296.5,-296 287.75,-288.08 276.24,-281.95 266.02,-277.55"/>
<polygon fill="midnightblue" stroke="midnightblue" points="312.33,-323.41 319.89,-330.82 318.6,-320.31 312.33,-323.41"/>
</g>
<!-- Node10 -->
<g id="node9" class="node">
<title>Node10</title>
<g id="a_node9"><a xlink:href="../../de/d01/classnap_1_1rtti_1_1_object.html" target="_top" xlink:title="Object">
<polygon fill="white" stroke="black" points="301,-393.5 301,-412.5 346,-412.5 346,-393.5 301,-393.5"/>
<text text-anchor="middle" x="323.5" y="-400.5" font-family="Helvetica,sans-Serif" font-size="10.00">Object</text>
</a>
</g>
</g>
<!-- Node10&#45;&gt;Node9 -->
<g id="edge9" class="edge">
<title>Node10&#45;&gt;Node9</title>
<path fill="none" stroke="midnightblue" d="M323.5,-383C323.5,-372 323.5,-358.68 323.5,-350.15"/>
<polygon fill="midnightblue" stroke="midnightblue" points="320,-383.33 323.5,-393.33 327,-383.33 320,-383.33"/>
</g>
<!-- Node11 -->
<g id="node10" class="node">
<title>Node11</title>
<g id="a_node10"><a xlink:href="../../dd/d7c/classnap_1_1rtti_1_1_object_ptr.html" target="_top" xlink:title="ObjectPtr\&lt; nap::Sequence\lPlayer \&gt;">
<polygon fill="white" stroke="black" points="370.5,-325.5 370.5,-355.5 502.5,-355.5 502.5,-325.5 370.5,-325.5"/>
<text text-anchor="start" x="378.5" y="-343.5" font-family="Helvetica,sans-Serif" font-size="10.00">ObjectPtr&lt; nap::Sequence</text>
<text text-anchor="middle" x="436.5" y="-332.5" font-family="Helvetica,sans-Serif" font-size="10.00">Player &gt;</text>
</a>
</g>
</g>
<!-- Node11&#45;&gt;Node8 -->
<g id="edge10" class="edge">
<title>Node11&#45;&gt;Node8</title>
<path fill="none" stroke="#9a32cd" stroke-dasharray="5,2" d="M407.71,-319.4C387.97,-305.62 362.76,-288.03 347.95,-277.69"/>
<polygon fill="#9a32cd" stroke="#9a32cd" points="405.86,-322.38 416.06,-325.23 409.86,-316.64 405.86,-322.38"/>
<text text-anchor="middle" x="431" y="-299" font-family="Helvetica,sans-Serif" font-size="10.00"> mSequencePlayer</text>
</g>
<!-- Node12 -->
<g id="node11" class="node">
<title>Node12</title>
<g id="a_node11"><a xlink:href="../../d7/dcb/classnap_1_1rtti_1_1_object_ptr_base.html" target="_top" xlink:title="ObjectPtrBase">
<polygon fill="white" stroke="black" points="396.5,-393.5 396.5,-412.5 476.5,-412.5 476.5,-393.5 396.5,-393.5"/>
<text text-anchor="middle" x="436.5" y="-400.5" font-family="Helvetica,sans-Serif" font-size="10.00">ObjectPtrBase</text>
</a>
</g>
</g>
<!-- Node12&#45;&gt;Node11 -->
<g id="edge11" class="edge">
<title>Node12&#45;&gt;Node11</title>
<path fill="none" stroke="midnightblue" d="M436.5,-383.22C436.5,-374.36 436.5,-363.96 436.5,-355.76"/>
<polygon fill="midnightblue" stroke="midnightblue" points="433,-383.33 436.5,-393.33 440,-383.33 433,-383.33"/>
</g>
<!-- Node13 -->
<g id="node12" class="node">
<title>Node13</title>
<g id="a_node12"><a xlink:href="../../d6/d4f/classnap_1_1_render_window.html" target="_top" xlink:title="RenderWindow">
<polygon fill="white" stroke="black" points="189.5,-191.5 189.5,-210.5 271.5,-210.5 271.5,-191.5 189.5,-191.5"/>
<text text-anchor="middle" x="230.5" y="-198.5" font-family="Helvetica,sans-Serif" font-size="10.00">RenderWindow</text>
</a>
</g>
</g>
<!-- Node13&#45;&gt;Node6 -->
<g id="edge12" class="edge">
<title>Node13&#45;&gt;Node6</title>
<path fill="none" stroke="#9a32cd" stroke-dasharray="5,2" d="M222.22,-181.78C220.46,-175.19 220.03,-167.93 223.5,-162 228.38,-153.66 236.88,-147.7 245.38,-143.54"/>
<polygon fill="#9a32cd" stroke="#9a32cd" points="218.97,-183.09 225.71,-191.27 225.54,-180.68 218.97,-183.09"/>
<text text-anchor="middle" x="262" y="-165" font-family="Helvetica,sans-Serif" font-size="10.00"> mRenderWindow</text>
</g>
<!-- Node14&#45;&gt;Node13 -->
<g id="edge13" class="edge">
<title>Node14&#45;&gt;Node13</title>
<path fill="none" stroke="midnightblue" d="M238.29,-248.04C236.2,-235.67 233.57,-220.12 231.96,-210.63"/>
<polygon fill="midnightblue" stroke="midnightblue" points="234.9,-248.96 240.02,-258.23 241.8,-247.79 234.9,-248.96"/>
</g>
<!-- Node15 -->
<g id="node14" class="node">
<title>Node15</title>
<g id="a_node14"><a xlink:href="../../de/d80/classnap_1_1_signal.html" target="_top" xlink:title="Signal\&lt; const nap::\lWindowEvent &amp;\&gt;">
<polygon fill="white" stroke="black" points="175,-325.5 175,-355.5 276,-355.5 276,-325.5 175,-325.5"/>
<text text-anchor="start" x="183" y="-343.5" font-family="Helvetica,sans-Serif" font-size="10.00">Signal&lt; const nap::</text>
<text text-anchor="middle" x="225.5" y="-332.5" font-family="Helvetica,sans-Serif" font-size="10.00">WindowEvent &amp;&gt;</text>
</a>
</g>
</g>
<!-- Node15&#45;&gt;Node14 -->
<g id="edge15" class="edge">
<title>Node15&#45;&gt;Node14</title>
<path fill="none" stroke="#9a32cd" stroke-dasharray="5,2" d="M224,-315.11C224.17,-308.8 224.85,-302.07 226.5,-296 228.3,-289.38 232.05,-282.63 235.35,-277.53"/>
<polygon fill="#9a32cd" stroke="#9a32cd" points="220.5,-315.19 224.12,-325.15 227.5,-315.11 220.5,-315.19"/>
<text text-anchor="middle" x="261.5" y="-299" font-family="Helvetica,sans-Serif" font-size="10.00"> mWindowEvent</text>
</g>
<!-- Node16 -->
<g id="node15" class="node">
<title>Node16</title>
<g id="a_node15"><a xlink:href="../../d7/da9/classnap_1_1_i_render_target.html" target="_top" xlink:title="IRenderTarget">
<polygon fill="white" stroke="black" points="0,-258.5 0,-277.5 77,-277.5 77,-258.5 0,-258.5"/>
<text text-anchor="middle" x="38.5" y="-265.5" font-family="Helvetica,sans-Serif" font-size="10.00">IRenderTarget</text>
</a>
</g>
</g>
<!-- Node16&#45;&gt;Node13 -->
<g id="edge16" class="edge">
<title>Node16&#45;&gt;Node13</title>
<path fill="none" stroke="midnightblue" d="M73.65,-255.1C111.71,-242.21 171.5,-221.97 205.2,-210.56"/>
<polygon fill="midnightblue" stroke="midnightblue" points="72.35,-251.85 64,-258.37 74.59,-258.48 72.35,-251.85"/>
</g>
<!-- Node17 -->
<g id="node16" class="node">
<title>Node17</title>
<g id="a_node16"><a xlink:href="../../d6/db8/classnap_1_1_r_g_b_a_color.html" target="_top" xlink:title="RGBAColor\&lt; float \&gt;">
<polygon fill="white" stroke="black" points="95,-258.5 95,-277.5 198,-277.5 198,-258.5 95,-258.5"/>
<text text-anchor="middle" x="146.5" y="-265.5" font-family="Helvetica,sans-Serif" font-size="10.00">RGBAColor&lt; float &gt;</text>
</a>
</g>
</g>
<!-- Node17&#45;&gt;Node13 -->
<g id="edge17" class="edge">
<title>Node17&#45;&gt;Node13</title>
<path fill="none" stroke="#9a32cd" stroke-dasharray="5,2" d="M156.84,-249.37C161.57,-242.39 167.65,-234.68 174.5,-229 183.89,-221.21 195.9,-215.04 206.39,-210.57"/>
<polygon fill="#9a32cd" stroke="#9a32cd" points="153.65,-247.86 151.29,-258.19 159.58,-251.59 153.65,-247.86"/>
<text text-anchor="middle" x="203" y="-232" font-family="Helvetica,sans-Serif" font-size="10.00"> mClearColor</text>
</g>
<!-- Node18 -->
<g id="node17" class="node">
<title>Node18</title>
<g id="a_node17"><a xlink:href="../../d6/d3d/classnap_1_1_color.html" target="_top" xlink:title="Color\&lt; float, 4 \&gt;">
<polygon fill="white" stroke="black" points="70.5,-331 70.5,-350 156.5,-350 156.5,-331 70.5,-331"/>
<text text-anchor="middle" x="113.5" y="-338" font-family="Helvetica,sans-Serif" font-size="10.00">Color&lt; float, 4 &gt;</text>
</a>
</g>
</g>
<!-- Node18&#45;&gt;Node17 -->
<g id="edge18" class="edge">
<title>Node18&#45;&gt;Node17</title>
<path fill="none" stroke="midnightblue" d="M121.84,-321.68C128.42,-307.63 137.31,-288.64 142.42,-277.72"/>
<polygon fill="midnightblue" stroke="midnightblue" points="118.62,-320.31 117.55,-330.86 124.96,-323.28 118.62,-320.31"/>
</g>
<!-- Node19 -->
<g id="node18" class="node">
<title>Node19</title>
<g id="a_node18"><a xlink:href="../../d8/d6a/classnap_1_1_base_color.html" target="_top" xlink:title="BaseColor">
<polygon fill="white" stroke="black" points="82.5,-393.5 82.5,-412.5 144.5,-412.5 144.5,-393.5 82.5,-393.5"/>
<text text-anchor="middle" x="113.5" y="-400.5" font-family="Helvetica,sans-Serif" font-size="10.00">BaseColor</text>
</a>
</g>
</g>
<!-- Node19&#45;&gt;Node18 -->
<g id="edge19" class="edge">
<title>Node19&#45;&gt;Node18</title>
<path fill="none" stroke="midnightblue" d="M113.5,-383C113.5,-372 113.5,-358.68 113.5,-350.15"/>
<polygon fill="midnightblue" stroke="midnightblue" points="110,-383.33 113.5,-393.33 117,-383.33 110,-383.33"/>
</g>
</g>
</svg>
