<?xml version="1.0" encoding="UTF-8" standalone="no"?>
<!DOCTYPE svg PUBLIC "-//W3C//DTD SVG 1.1//EN"
 "http://www.w3.org/Graphics/SVG/1.1/DTD/svg11.dtd">
<!-- Generated by graphviz version 3.0.0 (20220226.1711)
 -->
<!-- Title: TextInputEvent Pages: 1 -->
<svg width="104pt" height="196pt"
 viewBox="0.00 0.00 104.00 196.00" xmlns="http://www.w3.org/2000/svg" xmlns:xlink="http://www.w3.org/1999/xlink">
<g id="graph0" class="graph" transform="scale(1 1) rotate(0) translate(4 192)">
<title>TextInputEvent</title>
<polygon fill="white" stroke="transparent" points="-4,4 -4,-192 100,-192 100,4 -4,4"/>
<!-- Node0 -->
<g id="node1" class="node">
<title>Node0</title>
<polygon fill="#bfbfbf" stroke="black" points="8,-0.5 8,-19.5 88,-19.5 88,-0.5 8,-0.5"/>
<text text-anchor="middle" x="48" y="-7.5" font-family="Helvetica,sans-Serif" font-size="10.00">TextInputEvent</text>
</g>
<!-- Node1 -->
<g id="node2" class="node">
<title>Node1</title>
<g id="a_node2"><a xlink:href="../../d6/d58/classnap_1_1_window_input_event.html" target="_top" xlink:title="WindowInputEvent">
<polygon fill="white" stroke="black" points="0,-56.5 0,-75.5 96,-75.5 96,-56.5 0,-56.5"/>
<text text-anchor="middle" x="48" y="-63.5" font-family="Helvetica,sans-Serif" font-size="10.00">WindowInputEvent</text>
</a>
</g>
</g>
<!-- Node1&#45;&gt;Node0 -->
<g id="edge1" class="edge">
<title>Node1&#45;&gt;Node0</title>
<path fill="none" stroke="midnightblue" d="M48,-45.8C48,-36.91 48,-26.78 48,-19.75"/>
<polygon fill="midnightblue" stroke="midnightblue" points="44.5,-46.08 48,-56.08 51.5,-46.08 44.5,-46.08"/>
</g>
<!-- Node2 -->
<g id="node3" class="node">
<title>Node2</title>
<g id="a_node3"><a xlink:href="../../dc/dc0/classnap_1_1_input_event.html" target="_top" xlink:title="InputEvent">
<polygon fill="white" stroke="black" points="17,-112.5 17,-131.5 79,-131.5 79,-112.5 17,-112.5"/>
<text text-anchor="middle" x="48" y="-119.5" font-family="Helvetica,sans-Serif" font-size="10.00">InputEvent</text>
</a>
</g>
</g>
<!-- Node2&#45;&gt;Node1 -->
<g id="edge2" class="edge">
<title>Node2&#45;&gt;Node1</title>
<path fill="none" stroke="midnightblue" d="M48,-101.8C48,-92.91 48,-82.78 48,-75.75"/>
<polygon fill="midnightblue" stroke="midnightblue" points="44.5,-102.08 48,-112.08 51.5,-102.08 44.5,-102.08"/>
</g>
<!-- Node3 -->
<g id="node4" class="node">
<title>Node3</title>
<g id="a_node4"><a xlink:href="../../d2/da2/classnap_1_1_event.html" target="_top" xlink:title="Event">
<polygon fill="white" stroke="black" points="27.5,-168.5 27.5,-187.5 68.5,-187.5 68.5,-168.5 27.5,-168.5"/>
<text text-anchor="middle" x="48" y="-175.5" font-family="Helvetica,sans-Serif" font-size="10.00">Event</text>
</a>
</g>
</g>
<!-- Node3&#45;&gt;Node2 -->
<g id="edge3" class="edge">
<title>Node3&#45;&gt;Node2</title>
<path fill="none" stroke="midnightblue" d="M48,-157.8C48,-148.91 48,-138.78 48,-131.75"/>
<polygon fill="midnightblue" stroke="midnightblue" points="44.5,-158.08 48,-168.08 51.5,-158.08 44.5,-158.08"/>
</g>
</g>
</svg>
