<?xml version="1.0" encoding="UTF-8" standalone="no"?>
<!DOCTYPE svg PUBLIC "-//W3C//DTD SVG 1.1//EN"
 "http://www.w3.org/Graphics/SVG/1.1/DTD/svg11.dtd">
<!-- Generated by graphviz version 3.0.0 (20220226.1711)
 -->
<!-- Title: GPUBuffer Pages: 1 -->
<svg width="162pt" height="84pt"
 viewBox="0.00 0.00 161.50 84.00" xmlns="http://www.w3.org/2000/svg" xmlns:xlink="http://www.w3.org/1999/xlink">
<g id="graph0" class="graph" transform="scale(1 1) rotate(0) translate(4 80)">
<title>GPUBuffer</title>
<polygon fill="white" stroke="transparent" points="-4,4 -4,-80 157.5,-80 157.5,4 -4,4"/>
<!-- Node0 -->
<g id="node1" class="node">
<title>Node0</title>
<polygon fill="#bfbfbf" stroke="black" points="44.5,-56.5 44.5,-75.5 106.5,-75.5 106.5,-56.5 44.5,-56.5"/>
<text text-anchor="middle" x="75.5" y="-63.5" font-family="Helvetica,sans-Serif" font-size="10.00">GPUBuffer</text>
</g>
<!-- Node1 -->
<g id="node2" class="node">
<title>Node1</title>
<g id="a_node2"><a xlink:href="../../de/d97/classnap_1_1_index_buffer.html" target="_top" xlink:title="IndexBuffer">
<polygon fill="white" stroke="black" points="0,-0.5 0,-19.5 65,-19.5 65,-0.5 0,-0.5"/>
<text text-anchor="middle" x="32.5" y="-7.5" font-family="Helvetica,sans-Serif" font-size="10.00">IndexBuffer</text>
</a>
</g>
</g>
<!-- Node0&#45;&gt;Node1 -->
<g id="edge1" class="edge">
<title>Node0&#45;&gt;Node1</title>
<path fill="none" stroke="midnightblue" d="M62.08,-48.14C54.59,-38.74 45.56,-27.4 39.47,-19.75"/>
<polygon fill="midnightblue" stroke="midnightblue" points="59.43,-50.44 68.4,-56.08 64.91,-46.08 59.43,-50.44"/>
</g>
<!-- Node2 -->
<g id="node3" class="node">
<title>Node2</title>
<g id="a_node3"><a xlink:href="../../d9/d9a/classnap_1_1_vertex_buffer.html" target="_top" xlink:title="VertexBuffer">
<polygon fill="white" stroke="black" points="83.5,-0.5 83.5,-19.5 153.5,-19.5 153.5,-0.5 83.5,-0.5"/>
<text text-anchor="middle" x="118.5" y="-7.5" font-family="Helvetica,sans-Serif" font-size="10.00">VertexBuffer</text>
</a>
</g>
</g>
<!-- Node0&#45;&gt;Node2 -->
<g id="edge2" class="edge">
<title>Node0&#45;&gt;Node2</title>
<path fill="none" stroke="midnightblue" d="M88.92,-48.14C96.41,-38.74 105.44,-27.4 111.53,-19.75"/>
<polygon fill="midnightblue" stroke="midnightblue" points="86.09,-46.08 82.6,-56.08 91.57,-50.44 86.09,-46.08"/>
</g>
</g>
</svg>
