<?xml version="1.0" encoding="UTF-8" standalone="no"?>
<!DOCTYPE svg PUBLIC "-//W3C//DTD SVG 1.1//EN"
 "http://www.w3.org/Graphics/SVG/1.1/DTD/svg11.dtd">
<!-- Generated by graphviz version 3.0.0 (20220226.1711)
 -->
<!-- Title: CalendarComponentInstance Pages: 1 -->
<svg width="230pt" height="174pt"
 viewBox="0.00 0.00 230.00 174.00" xmlns="http://www.w3.org/2000/svg" xmlns:xlink="http://www.w3.org/1999/xlink">
<g id="graph0" class="graph" transform="scale(1 1) rotate(0) translate(4 170)">
<title>CalendarComponentInstance</title>
<polygon fill="white" stroke="transparent" points="-4,4 -4,-170 226,-170 226,4 -4,4"/>
<!-- Node3 -->
<g id="node1" class="node">
<title>Node3</title>
<polygon fill="#bfbfbf" stroke="black" points="71,-0.5 71,-19.5 212,-19.5 212,-0.5 71,-0.5"/>
<text text-anchor="middle" x="141.5" y="-7.5" font-family="Helvetica,sans-Serif" font-size="10.00">CalendarComponentInstance</text>
</g>
<!-- Node4 -->
<g id="node2" class="node">
<title>Node4</title>
<g id="a_node2"><a xlink:href="../../d9/df2/classnap_1_1_component_instance.html" target="_top" xlink:title="ComponentInstance">
<polygon fill="white" stroke="black" points="0,-84 0,-103 103,-103 103,-84 0,-84"/>
<text text-anchor="middle" x="51.5" y="-91" font-family="Helvetica,sans-Serif" font-size="10.00">ComponentInstance</text>
</a>
</g>
</g>
<!-- Node4&#45;&gt;Node3 -->
<g id="edge1" class="edge">
<title>Node4&#45;&gt;Node3</title>
<path fill="none" stroke="midnightblue" d="M68.69,-76.93C87.48,-59.92 116.89,-33.28 131.94,-19.66"/>
<polygon fill="midnightblue" stroke="midnightblue" points="66.19,-74.47 61.13,-83.78 70.89,-79.66 66.19,-74.47"/>
</g>
<!-- Node5 -->
<g id="node3" class="node">
<title>Node5</title>
<g id="a_node3"><a xlink:href="../../de/d01/classnap_1_1rtti_1_1_object.html" target="_top" xlink:title="Object">
<polygon fill="white" stroke="black" points="29,-146.5 29,-165.5 74,-165.5 74,-146.5 29,-146.5"/>
<text text-anchor="middle" x="51.5" y="-153.5" font-family="Helvetica,sans-Serif" font-size="10.00">Object</text>
</a>
</g>
</g>
<!-- Node5&#45;&gt;Node4 -->
<g id="edge2" class="edge">
<title>Node5&#45;&gt;Node4</title>
<path fill="none" stroke="midnightblue" d="M51.5,-136C51.5,-125 51.5,-111.68 51.5,-103.15"/>
<polygon fill="midnightblue" stroke="midnightblue" points="48,-136.33 51.5,-146.33 55,-136.33 48,-136.33"/>
</g>
<!-- Node6 -->
<g id="node4" class="node">
<title>Node6</title>
<g id="a_node4"><a xlink:href="../../de/d80/classnap_1_1_signal.html" target="_top" xlink:title="Signal\&lt; const nap::\lCalendarEvent &amp;\&gt;">
<polygon fill="white" stroke="black" points="121,-78.5 121,-108.5 222,-108.5 222,-78.5 121,-78.5"/>
<text text-anchor="start" x="129" y="-96.5" font-family="Helvetica,sans-Serif" font-size="10.00">Signal&lt; const nap::</text>
<text text-anchor="middle" x="171.5" y="-85.5" font-family="Helvetica,sans-Serif" font-size="10.00">CalendarEvent &amp;&gt;</text>
</a>
</g>
</g>
<!-- Node6&#45;&gt;Node3 -->
<g id="edge3" class="edge">
<title>Node6&#45;&gt;Node3</title>
<path fill="none" stroke="#9a32cd" stroke-dasharray="5,2" d="M162.75,-68.72C156.66,-52.18 148.9,-31.1 144.64,-19.54"/>
<polygon fill="#9a32cd" stroke="#9a32cd" points="159.54,-70.13 166.27,-78.3 166.1,-67.71 159.54,-70.13"/>
<text text-anchor="middle" x="187.5" y="-52" font-family="Helvetica,sans-Serif" font-size="10.00"> eventStarted</text>
<text text-anchor="middle" x="187.5" y="-41" font-family="Helvetica,sans-Serif" font-size="10.00">eventEnded</text>
</g>
</g>
</svg>
