<?xml version="1.0" encoding="UTF-8" standalone="no"?>
<!DOCTYPE svg PUBLIC "-//W3C//DTD SVG 1.1//EN"
 "http://www.w3.org/Graphics/SVG/1.1/DTD/svg11.dtd">
<!-- Generated by graphviz version 2.43.0 (0)
 -->
<!-- Title: CalendarComponentInstance Pages: 1 -->
<svg width="252pt" height="174pt"
 viewBox="0.00 0.00 251.50 174.00" xmlns="http://www.w3.org/2000/svg" xmlns:xlink="http://www.w3.org/1999/xlink">
<g id="graph0" class="graph" transform="scale(1 1) rotate(0) translate(4 170)">
<title>CalendarComponentInstance</title>
<polygon fill="white" stroke="transparent" points="-4,4 -4,-170 247.5,-170 247.5,4 -4,4"/>
<!-- Node1 -->
<g id="node1" class="node">
<title>Node1</title>
<g id="a_node1"><a xlink:title=" ">
<polygon fill="#bfbfbf" stroke="black" points="43,-0.5 43,-19.5 201,-19.5 201,-0.5 43,-0.5"/>
<text text-anchor="middle" x="122" y="-7.5" font-family="Helvetica,sans-Serif" font-size="10.00">CalendarComponentInstance</text>
</a>
</g>
</g>
<!-- Node2 -->
<g id="node2" class="node">
<title>Node2</title>
<g id="a_node2"><a xlink:href="../../d9/df2/classnap_1_1_component_instance.html" target="_top" xlink:title=" ">
<polygon fill="white" stroke="black" points="0,-84 0,-103 114,-103 114,-84 0,-84"/>
<text text-anchor="middle" x="57" y="-91" font-family="Helvetica,sans-Serif" font-size="10.00">ComponentInstance</text>
</a>
</g>
</g>
<!-- Node2&#45;&gt;Node1 -->
<g id="edge1" class="edge">
<title>Node2&#45;&gt;Node1</title>
<path fill="none" stroke="midnightblue" d="M70.34,-75.77C83.93,-58.73 104.47,-32.98 115.09,-19.66"/>
<polygon fill="midnightblue" stroke="midnightblue" points="67.46,-73.78 63.96,-83.78 72.93,-78.14 67.46,-73.78"/>
</g>
<!-- Node3 -->
<g id="node3" class="node">
<title>Node3</title>
<g id="a_node3"><a xlink:href="../../de/d01/classnap_1_1rtti_1_1_object.html" target="_top" xlink:title=" ">
<polygon fill="white" stroke="black" points="33,-146.5 33,-165.5 81,-165.5 81,-146.5 33,-146.5"/>
<text text-anchor="middle" x="57" y="-153.5" font-family="Helvetica,sans-Serif" font-size="10.00">Object</text>
</a>
</g>
</g>
<!-- Node3&#45;&gt;Node2 -->
<g id="edge2" class="edge">
<title>Node3&#45;&gt;Node2</title>
<path fill="none" stroke="midnightblue" d="M57,-136C57,-125 57,-111.68 57,-103.15"/>
<polygon fill="midnightblue" stroke="midnightblue" points="53.5,-136.33 57,-146.33 60.5,-136.33 53.5,-136.33"/>
</g>
<!-- Node4 -->
<g id="node4" class="node">
<title>Node4</title>
<g id="a_node4"><a xlink:href="../../de/d80/classnap_1_1_signal.html" target="_top" xlink:title=" ">
<polygon fill="white" stroke="black" points="132.5,-78.5 132.5,-108.5 243.5,-108.5 243.5,-78.5 132.5,-78.5"/>
<text text-anchor="start" x="140.5" y="-96.5" font-family="Helvetica,sans-Serif" font-size="10.00">Signal&lt; const nap::</text>
<text text-anchor="middle" x="188" y="-85.5" font-family="Helvetica,sans-Serif" font-size="10.00">CalendarEvent &amp; &gt;</text>
</a>
</g>
</g>
<!-- Node4&#45;&gt;Node1 -->
<g id="edge3" class="edge">
<title>Node4&#45;&gt;Node1</title>
<path fill="none" stroke="#9a32cd" stroke-dasharray="5,2" d="M169.87,-70.11C156.32,-53.38 138.54,-31.42 128.92,-19.54"/>
<polygon fill="#9a32cd" stroke="#9a32cd" points="167.49,-72.74 176.5,-78.3 172.93,-68.33 167.49,-72.74"/>
<text text-anchor="middle" x="193.5" y="-52" font-family="Helvetica,sans-Serif" font-size="10.00"> eventStarted</text>
<text text-anchor="middle" x="193.5" y="-41" font-family="Helvetica,sans-Serif" font-size="10.00">eventEnded</text>
</g>
</g>
</svg>
