<?xml version="1.0" encoding="UTF-8" standalone="no"?>
<!DOCTYPE svg PUBLIC "-//W3C//DTD SVG 1.1//EN"
 "http://www.w3.org/Graphics/SVG/1.1/DTD/svg11.dtd">
<!-- Generated by graphviz version 3.0.0 (20220226.1711)
 -->
<!-- Title: Service Pages: 1 -->
<svg width="225pt" height="1130pt"
 viewBox="0.00 0.00 225.00 1130.00" xmlns="http://www.w3.org/2000/svg" xmlns:xlink="http://www.w3.org/1999/xlink">
<g id="graph0" class="graph" transform="scale(1 1) rotate(0) translate(4 1126)">
<title>Service</title>
<polygon fill="white" stroke="transparent" points="-4,4 -4,-1126 221,-1126 221,4 -4,4"/>
<!-- Node0 -->
<g id="node1" class="node">
<title>Node0</title>
<polygon fill="#bfbfbf" stroke="black" points="0,-551.5 0,-570.5 48,-570.5 48,-551.5 0,-551.5"/>
<text text-anchor="middle" x="24" y="-558.5" font-family="Helvetica,sans-Serif" font-size="10.00">Service</text>
</g>
<!-- Node1 -->
<g id="node2" class="node">
<title>Node1</title>
<g id="a_node2"><a xlink:href="../../de/d73/classnap_1_1_a_p_i_service.html" target="_top" xlink:title="APIService">
<polygon fill="white" stroke="black" points="118.5,-1102.5 118.5,-1121.5 182.5,-1121.5 182.5,-1102.5 118.5,-1102.5"/>
<text text-anchor="middle" x="150.5" y="-1109.5" font-family="Helvetica,sans-Serif" font-size="10.00">APIService</text>
</a>
</g>
</g>
<!-- Node0&#45;&gt;Node1 -->
<g id="edge1" class="edge">
<title>Node0&#45;&gt;Node1</title>
<path fill="none" stroke="midnightblue" d="M25.91,-580.9C30.29,-672.76 50.36,-1053.02 84,-1093 92.46,-1103.06 105.9,-1107.96 118.41,-1110.3"/>
<polygon fill="midnightblue" stroke="midnightblue" points="29.4,-580.57 25.44,-570.74 22.41,-580.9 29.4,-580.57"/>
</g>
<!-- Node2 -->
<g id="node3" class="node">
<title>Node2</title>
<g id="a_node3"><a xlink:href="../../d3/da5/classnap_1_1_a_p_i_web_socket_service.html" target="_top" xlink:title="APIWebSocketService">
<polygon fill="white" stroke="black" points="93,-1064.5 93,-1083.5 208,-1083.5 208,-1064.5 93,-1064.5"/>
<text text-anchor="middle" x="150.5" y="-1071.5" font-family="Helvetica,sans-Serif" font-size="10.00">APIWebSocketService</text>
</a>
</g>
</g>
<!-- Node0&#45;&gt;Node2 -->
<g id="edge2" class="edge">
<title>Node0&#45;&gt;Node2</title>
<path fill="none" stroke="midnightblue" d="M24.56,-580.9C23.15,-663.93 21.95,-981.88 84,-1055 87.29,-1058.88 91.33,-1062 95.76,-1064.49"/>
<polygon fill="midnightblue" stroke="midnightblue" points="28.07,-580.85 24.76,-570.79 21.07,-580.72 28.07,-580.85"/>
</g>
<!-- Node3 -->
<g id="node4" class="node">
<title>Node3</title>
<g id="a_node4"><a xlink:href="../../d0/d4d/classnap_1_1_art_net_service.html" target="_top" xlink:title="ArtNetService">
<polygon fill="white" stroke="black" points="112.5,-1026.5 112.5,-1045.5 188.5,-1045.5 188.5,-1026.5 112.5,-1026.5"/>
<text text-anchor="middle" x="150.5" y="-1033.5" font-family="Helvetica,sans-Serif" font-size="10.00">ArtNetService</text>
</a>
</g>
</g>
<!-- Node0&#45;&gt;Node3 -->
<g id="edge3" class="edge">
<title>Node0&#45;&gt;Node3</title>
<path fill="none" stroke="midnightblue" d="M24.79,-580.86C24.34,-659.78 26.69,-950.13 84,-1017 91.17,-1025.36 101.77,-1030.15 112.37,-1032.87"/>
<polygon fill="midnightblue" stroke="midnightblue" points="28.29,-580.83 24.87,-570.8 21.29,-580.77 28.29,-580.83"/>
</g>
<!-- Node4 -->
<g id="node5" class="node">
<title>Node4</title>
<g id="a_node5"><a xlink:href="../../df/d42/classnap_1_1audio_1_1_audio_service.html" target="_top" xlink:title="AudioService">
<polygon fill="white" stroke="black" points="114,-988.5 114,-1007.5 187,-1007.5 187,-988.5 114,-988.5"/>
<text text-anchor="middle" x="150.5" y="-995.5" font-family="Helvetica,sans-Serif" font-size="10.00">AudioService</text>
</a>
</g>
</g>
<!-- Node0&#45;&gt;Node4 -->
<g id="edge4" class="edge">
<title>Node0&#45;&gt;Node4</title>
<path fill="none" stroke="midnightblue" d="M25.05,-581.08C25.64,-656.06 31.47,-918.43 84,-979 91.52,-987.68 102.75,-992.51 113.79,-995.16"/>
<polygon fill="midnightblue" stroke="midnightblue" points="28.55,-580.7 24.99,-570.72 21.55,-580.74 28.55,-580.7"/>
</g>
<!-- Node5 -->
<g id="node6" class="node">
<title>Node5</title>
<g id="a_node6"><a xlink:href="../../d6/d20/classnap_1_1_c_v_service.html" target="_top" xlink:title="CVService">
<polygon fill="white" stroke="black" points="119.5,-950.5 119.5,-969.5 181.5,-969.5 181.5,-950.5 119.5,-950.5"/>
<text text-anchor="middle" x="150.5" y="-957.5" font-family="Helvetica,sans-Serif" font-size="10.00">CVService</text>
</a>
</g>
</g>
<!-- Node0&#45;&gt;Node5 -->
<g id="edge5" class="edge">
<title>Node0&#45;&gt;Node5</title>
<path fill="none" stroke="midnightblue" d="M25.35,-580.6C27,-650.52 36.08,-886.5 84,-941 92.83,-951.05 106.63,-955.93 119.29,-958.24"/>
<polygon fill="midnightblue" stroke="midnightblue" points="28.85,-580.45 25.14,-570.52 21.85,-580.59 28.85,-580.45"/>
</g>
<!-- Node6 -->
<g id="node7" class="node">
<title>Node6</title>
<g id="a_node7"><a xlink:href="../../de/df8/classnap_1_1_ether_dream_service.html" target="_top" xlink:title="EtherDreamService">
<polygon fill="white" stroke="black" points="100.5,-912.5 100.5,-931.5 200.5,-931.5 200.5,-912.5 100.5,-912.5"/>
<text text-anchor="middle" x="150.5" y="-919.5" font-family="Helvetica,sans-Serif" font-size="10.00">EtherDreamService</text>
</a>
</g>
</g>
<!-- Node0&#45;&gt;Node6 -->
<g id="edge6" class="edge">
<title>Node0&#45;&gt;Node6</title>
<path fill="none" stroke="midnightblue" d="M25.73,-580.71C28.55,-646.14 40.81,-854.7 84,-903 88.5,-908.03 94.24,-911.76 100.45,-914.53"/>
<polygon fill="midnightblue" stroke="midnightblue" points="29.22,-580.39 25.32,-570.54 22.23,-580.67 29.22,-580.39"/>
</g>
<!-- Node7 -->
<g id="node8" class="node">
<title>Node7</title>
<g id="a_node8"><a xlink:href="../../d7/df5/classnap_1_1_font_service.html" target="_top" xlink:title="FontService">
<polygon fill="white" stroke="black" points="116.5,-874.5 116.5,-893.5 184.5,-893.5 184.5,-874.5 116.5,-874.5"/>
<text text-anchor="middle" x="150.5" y="-881.5" font-family="Helvetica,sans-Serif" font-size="10.00">FontService</text>
</a>
</g>
</g>
<!-- Node0&#45;&gt;Node7 -->
<g id="edge7" class="edge">
<title>Node0&#45;&gt;Node7</title>
<path fill="none" stroke="midnightblue" d="M26.21,-580.85C30.28,-641.51 45.51,-822.86 84,-865 92.3,-874.09 104.67,-878.93 116.43,-881.48"/>
<polygon fill="midnightblue" stroke="midnightblue" points="29.69,-580.45 25.55,-570.7 22.7,-580.9 29.69,-580.45"/>
</g>
<!-- Node8 -->
<g id="node9" class="node">
<title>Node8</title>
<g id="a_node9"><a xlink:href="../../d0/d74/classnap_1_1_i_m_gui_service.html" target="_top" xlink:title="IMGuiService">
<polygon fill="white" stroke="black" points="113.5,-836.5 113.5,-855.5 187.5,-855.5 187.5,-836.5 113.5,-836.5"/>
<text text-anchor="middle" x="150.5" y="-843.5" font-family="Helvetica,sans-Serif" font-size="10.00">IMGuiService</text>
</a>
</g>
</g>
<!-- Node0&#45;&gt;Node8 -->
<g id="edge8" class="edge">
<title>Node0&#45;&gt;Node8</title>
<path fill="none" stroke="midnightblue" d="M26.81,-580.86C32.24,-636.28 50.16,-790.92 84,-827 91.69,-835.2 102.7,-839.94 113.5,-842.64"/>
<polygon fill="midnightblue" stroke="midnightblue" points="30.26,-580.24 25.84,-570.62 23.3,-580.9 30.26,-580.24"/>
</g>
<!-- Node9 -->
<g id="node10" class="node">
<title>Node9</title>
<g id="a_node10"><a xlink:href="../../d0/d8d/classnap_1_1_input_service.html" target="_top" xlink:title="InputService">
<polygon fill="white" stroke="black" points="116,-798.5 116,-817.5 185,-817.5 185,-798.5 116,-798.5"/>
<text text-anchor="middle" x="150.5" y="-805.5" font-family="Helvetica,sans-Serif" font-size="10.00">InputService</text>
</a>
</g>
</g>
<!-- Node0&#45;&gt;Node9 -->
<g id="edge9" class="edge">
<title>Node0&#45;&gt;Node9</title>
<path fill="none" stroke="midnightblue" d="M27.57,-580.6C34.43,-630.2 54.73,-758.87 84,-789 92.33,-797.58 104.29,-802.35 115.7,-804.97"/>
<polygon fill="midnightblue" stroke="midnightblue" points="31.01,-579.98 26.21,-570.54 24.08,-580.92 31.01,-579.98"/>
</g>
<!-- Node10 -->
<g id="node11" class="node">
<title>Node10</title>
<g id="a_node11"><a xlink:href="../../dd/d65/classnap_1_1_license_service.html" target="_top" xlink:title="LicenseService">
<polygon fill="white" stroke="black" points="109.5,-760.5 109.5,-779.5 191.5,-779.5 191.5,-760.5 109.5,-760.5"/>
<text text-anchor="middle" x="150.5" y="-767.5" font-family="Helvetica,sans-Serif" font-size="10.00">LicenseService</text>
</a>
</g>
</g>
<!-- Node0&#45;&gt;Node10 -->
<g id="edge10" class="edge">
<title>Node0&#45;&gt;Node10</title>
<path fill="none" stroke="midnightblue" d="M25.32,-581.35C27.05,-620 36.42,-704.3 84,-751 90.93,-757.8 100.14,-762.19 109.46,-765.02"/>
<polygon fill="midnightblue" stroke="midnightblue" points="28.8,-580.81 24.99,-570.92 21.8,-581.02 28.8,-580.81"/>
</g>
<!-- Node11 -->
<g id="node12" class="node">
<title>Node11</title>
<g id="a_node12"><a xlink:href="../../d3/dfa/classnap_1_1_midi_service.html" target="_top" xlink:title="MidiService">
<polygon fill="white" stroke="black" points="117.5,-722.5 117.5,-741.5 183.5,-741.5 183.5,-722.5 117.5,-722.5"/>
<text text-anchor="middle" x="150.5" y="-729.5" font-family="Helvetica,sans-Serif" font-size="10.00">MidiService</text>
</a>
</g>
</g>
<!-- Node0&#45;&gt;Node11 -->
<g id="edge11" class="edge">
<title>Node0&#45;&gt;Node11</title>
<path fill="none" stroke="midnightblue" d="M27.11,-580.87C31.61,-613.27 45.16,-677.43 84,-713 93.08,-721.32 105.59,-726.01 117.25,-728.65"/>
<polygon fill="midnightblue" stroke="midnightblue" points="30.57,-580.33 25.87,-570.83 23.62,-581.19 30.57,-580.33"/>
</g>
<!-- Node12 -->
<g id="node13" class="node">
<title>Node12</title>
<g id="a_node13"><a xlink:href="../../d9/d55/classnap_1_1_o_s_c_service.html" target="_top" xlink:title="OSCService">
<polygon fill="white" stroke="black" points="116,-684.5 116,-703.5 185,-703.5 185,-684.5 116,-684.5"/>
<text text-anchor="middle" x="150.5" y="-691.5" font-family="Helvetica,sans-Serif" font-size="10.00">OSCService</text>
</a>
</g>
</g>
<!-- Node0&#45;&gt;Node12 -->
<g id="edge12" class="edge">
<title>Node0&#45;&gt;Node12</title>
<path fill="none" stroke="midnightblue" d="M29.92,-580.54C37.34,-606.02 53.85,-650.23 84,-675 92.97,-682.37 104.67,-686.88 115.69,-689.64"/>
<polygon fill="midnightblue" stroke="midnightblue" points="33.21,-579.31 27.21,-570.59 26.46,-581.16 33.21,-579.31"/>
</g>
<!-- Node13 -->
<g id="node14" class="node">
<title>Node13</title>
<g id="a_node14"><a xlink:href="../../d5/d8d/classnap_1_1_parameter_g_u_i_service.html" target="_top" xlink:title="ParameterGUIService">
<polygon fill="white" stroke="black" points="95.5,-646.5 95.5,-665.5 205.5,-665.5 205.5,-646.5 95.5,-646.5"/>
<text text-anchor="middle" x="150.5" y="-653.5" font-family="Helvetica,sans-Serif" font-size="10.00">ParameterGUIService</text>
</a>
</g>
</g>
<!-- Node0&#45;&gt;Node13 -->
<g id="edge13" class="edge">
<title>Node0&#45;&gt;Node13</title>
<path fill="none" stroke="midnightblue" d="M34.88,-579.65C44.99,-596.97 62.28,-622.25 84,-637 89.68,-640.86 96.15,-643.94 102.76,-646.41"/>
<polygon fill="midnightblue" stroke="midnightblue" points="37.71,-577.53 29.78,-570.5 31.6,-580.94 37.71,-577.53"/>
</g>
<!-- Node14 -->
<g id="node15" class="node">
<title>Node14</title>
<g id="a_node15"><a xlink:href="../../d9/df7/classnap_1_1_parameter_service.html" target="_top" xlink:title="ParameterService">
<polygon fill="white" stroke="black" points="104,-608.5 104,-627.5 197,-627.5 197,-608.5 104,-608.5"/>
<text text-anchor="middle" x="150.5" y="-615.5" font-family="Helvetica,sans-Serif" font-size="10.00">ParameterService</text>
</a>
</g>
</g>
<!-- Node0&#45;&gt;Node14 -->
<g id="edge14" class="edge">
<title>Node0&#45;&gt;Node14</title>
<path fill="none" stroke="midnightblue" d="M45.91,-576.59C56.83,-584.17 70.66,-592.93 84,-599 92.08,-602.68 101.05,-605.83 109.69,-608.46"/>
<polygon fill="midnightblue" stroke="midnightblue" points="47.68,-573.55 37.5,-570.59 43.61,-579.25 47.68,-573.55"/>
</g>
<!-- Node15 -->
<g id="node16" class="node">
<title>Node15</title>
<g id="a_node16"><a xlink:href="../../d5/d0f/classnap_1_1_portal_service.html" target="_top" xlink:title="PortalService">
<polygon fill="white" stroke="black" points="113.5,-570.5 113.5,-589.5 187.5,-589.5 187.5,-570.5 113.5,-570.5"/>
<text text-anchor="middle" x="150.5" y="-577.5" font-family="Helvetica,sans-Serif" font-size="10.00">PortalService</text>
</a>
</g>
</g>
<!-- Node0&#45;&gt;Node15 -->
<g id="edge15" class="edge">
<title>Node0&#45;&gt;Node15</title>
<path fill="none" stroke="midnightblue" d="M58.16,-566.06C75.15,-568.65 95.88,-571.82 113.29,-574.47"/>
<polygon fill="midnightblue" stroke="midnightblue" points="58.54,-562.58 48.13,-564.53 57.48,-569.5 58.54,-562.58"/>
</g>
<!-- Node16 -->
<g id="node17" class="node">
<title>Node16</title>
<g id="a_node17"><a xlink:href="../../d4/d74/classnap_1_1_python_script_service.html" target="_top" xlink:title="PythonScriptService">
<polygon fill="white" stroke="black" points="98.5,-532.5 98.5,-551.5 202.5,-551.5 202.5,-532.5 98.5,-532.5"/>
<text text-anchor="middle" x="150.5" y="-539.5" font-family="Helvetica,sans-Serif" font-size="10.00">PythonScriptService</text>
</a>
</g>
</g>
<!-- Node0&#45;&gt;Node16 -->
<g id="edge16" class="edge">
<title>Node0&#45;&gt;Node16</title>
<path fill="none" stroke="midnightblue" d="M58.36,-555.91C70.65,-554.03 84.88,-551.86 98.37,-549.8"/>
<polygon fill="midnightblue" stroke="midnightblue" points="57.48,-552.5 48.13,-557.47 58.54,-559.42 57.48,-552.5"/>
</g>
<!-- Node17 -->
<g id="node18" class="node">
<title>Node17</title>
<g id="a_node18"><a xlink:href="../../d5/dc6/classnap_1_1_render_service.html" target="_top" xlink:title="RenderService">
<polygon fill="white" stroke="black" points="111,-494.5 111,-513.5 190,-513.5 190,-494.5 111,-494.5"/>
<text text-anchor="middle" x="150.5" y="-501.5" font-family="Helvetica,sans-Serif" font-size="10.00">RenderService</text>
</a>
</g>
</g>
<!-- Node0&#45;&gt;Node17 -->
<g id="edge17" class="edge">
<title>Node0&#45;&gt;Node17</title>
<path fill="none" stroke="midnightblue" d="M45.91,-545.41C56.83,-537.83 70.66,-529.07 84,-523 92.41,-519.17 101.77,-515.91 110.73,-513.23"/>
<polygon fill="midnightblue" stroke="midnightblue" points="43.61,-542.75 37.5,-551.41 47.68,-548.45 43.61,-542.75"/>
</g>
<!-- Node18 -->
<g id="node19" class="node">
<title>Node18</title>
<g id="a_node19"><a xlink:href="../../dc/db5/classnap_1_1_scene_service.html" target="_top" xlink:title="SceneService">
<polygon fill="white" stroke="black" points="112.5,-456.5 112.5,-475.5 188.5,-475.5 188.5,-456.5 112.5,-456.5"/>
<text text-anchor="middle" x="150.5" y="-463.5" font-family="Helvetica,sans-Serif" font-size="10.00">SceneService</text>
</a>
</g>
</g>
<!-- Node0&#45;&gt;Node18 -->
<g id="edge18" class="edge">
<title>Node0&#45;&gt;Node18</title>
<path fill="none" stroke="midnightblue" d="M34.88,-542.35C44.99,-525.03 62.28,-499.75 84,-485 92.42,-479.28 102.58,-475.26 112.35,-472.44"/>
<polygon fill="midnightblue" stroke="midnightblue" points="31.6,-541.06 29.78,-551.5 37.71,-544.47 31.6,-541.06"/>
</g>
<!-- Node19 -->
<g id="node20" class="node">
<title>Node19</title>
<g id="a_node20"><a xlink:href="../../dc/dbc/classnap_1_1_s_d_l_input_service.html" target="_top" xlink:title="SDLInputService">
<polygon fill="white" stroke="black" points="106.5,-418.5 106.5,-437.5 194.5,-437.5 194.5,-418.5 106.5,-418.5"/>
<text text-anchor="middle" x="150.5" y="-425.5" font-family="Helvetica,sans-Serif" font-size="10.00">SDLInputService</text>
</a>
</g>
</g>
<!-- Node0&#45;&gt;Node19 -->
<g id="edge19" class="edge">
<title>Node0&#45;&gt;Node19</title>
<path fill="none" stroke="midnightblue" d="M29.92,-541.46C37.34,-515.98 53.85,-471.77 84,-447 90.5,-441.66 98.43,-437.83 106.5,-435.07"/>
<polygon fill="midnightblue" stroke="midnightblue" points="26.46,-540.84 27.21,-551.41 33.21,-542.69 26.46,-540.84"/>
</g>
<!-- Node20 -->
<g id="node21" class="node">
<title>Node20</title>
<g id="a_node21"><a xlink:href="../../dc/dd3/classnap_1_1_sequence_audio_g_u_i_service.html" target="_top" xlink:title="SequenceAudioGUIService">
<polygon fill="white" stroke="black" points="84,-380.5 84,-399.5 217,-399.5 217,-380.5 84,-380.5"/>
<text text-anchor="middle" x="150.5" y="-387.5" font-family="Helvetica,sans-Serif" font-size="10.00">SequenceAudioGUIService</text>
</a>
</g>
</g>
<!-- Node0&#45;&gt;Node20 -->
<g id="edge20" class="edge">
<title>Node0&#45;&gt;Node20</title>
<path fill="none" stroke="midnightblue" d="M27.11,-541.13C31.61,-508.73 45.16,-444.57 84,-409 88.19,-405.16 93.11,-402.09 98.35,-399.65"/>
<polygon fill="midnightblue" stroke="midnightblue" points="23.62,-540.81 25.87,-551.17 30.57,-541.67 23.62,-540.81"/>
</g>
<!-- Node21 -->
<g id="node22" class="node">
<title>Node21</title>
<g id="a_node22"><a xlink:href="../../d0/d0a/classnap_1_1_sequence_g_u_i_service.html" target="_top" xlink:title="SequenceGUIService">
<polygon fill="white" stroke="black" points="96.5,-342.5 96.5,-361.5 204.5,-361.5 204.5,-342.5 96.5,-342.5"/>
<text text-anchor="middle" x="150.5" y="-349.5" font-family="Helvetica,sans-Serif" font-size="10.00">SequenceGUIService</text>
</a>
</g>
</g>
<!-- Node0&#45;&gt;Node21 -->
<g id="edge21" class="edge">
<title>Node0&#45;&gt;Node21</title>
<path fill="none" stroke="midnightblue" d="M25.32,-540.65C27.05,-502 36.42,-417.7 84,-371 87.97,-367.1 92.69,-363.99 97.75,-361.52"/>
<polygon fill="midnightblue" stroke="midnightblue" points="21.8,-540.98 24.99,-551.08 28.8,-541.19 21.8,-540.98"/>
</g>
<!-- Node22 -->
<g id="node23" class="node">
<title>Node22</title>
<g id="a_node23"><a xlink:href="../../df/dbe/classnap_1_1_sequence_service.html" target="_top" xlink:title="SequenceService">
<polygon fill="white" stroke="black" points="104.5,-304.5 104.5,-323.5 196.5,-323.5 196.5,-304.5 104.5,-304.5"/>
<text text-anchor="middle" x="150.5" y="-311.5" font-family="Helvetica,sans-Serif" font-size="10.00">SequenceService</text>
</a>
</g>
</g>
<!-- Node0&#45;&gt;Node22 -->
<g id="edge22" class="edge">
<title>Node0&#45;&gt;Node22</title>
<path fill="none" stroke="midnightblue" d="M27.57,-541.4C34.43,-491.8 54.73,-363.13 84,-333 89.61,-327.22 96.86,-323.18 104.49,-320.35"/>
<polygon fill="midnightblue" stroke="midnightblue" points="24.08,-541.08 26.21,-551.46 31.01,-542.02 24.08,-541.08"/>
</g>
<!-- Node23 -->
<g id="node24" class="node">
<title>Node23</title>
<g id="a_node24"><a xlink:href="../../d4/d59/classnap_1_1_sequence_service_audio.html" target="_top" xlink:title="SequenceServiceAudio">
<polygon fill="white" stroke="black" points="92.5,-266.5 92.5,-285.5 208.5,-285.5 208.5,-266.5 92.5,-266.5"/>
<text text-anchor="middle" x="150.5" y="-273.5" font-family="Helvetica,sans-Serif" font-size="10.00">SequenceServiceAudio</text>
</a>
</g>
</g>
<!-- Node0&#45;&gt;Node23 -->
<g id="edge23" class="edge">
<title>Node0&#45;&gt;Node23</title>
<path fill="none" stroke="midnightblue" d="M26.81,-541.14C32.24,-485.72 50.16,-331.08 84,-295 87.64,-291.11 92.03,-288.01 96.79,-285.52"/>
<polygon fill="midnightblue" stroke="midnightblue" points="23.3,-541.1 25.84,-551.38 30.26,-541.76 23.3,-541.1"/>
</g>
<!-- Node24 -->
<g id="node25" class="node">
<title>Node24</title>
<g id="a_node25"><a xlink:href="../../d2/d43/classnap_1_1_serial_service.html" target="_top" xlink:title="SerialService">
<polygon fill="white" stroke="black" points="114,-228.5 114,-247.5 187,-247.5 187,-228.5 114,-228.5"/>
<text text-anchor="middle" x="150.5" y="-235.5" font-family="Helvetica,sans-Serif" font-size="10.00">SerialService</text>
</a>
</g>
</g>
<!-- Node0&#45;&gt;Node24 -->
<g id="edge24" class="edge">
<title>Node0&#45;&gt;Node24</title>
<path fill="none" stroke="midnightblue" d="M26.21,-541.15C30.28,-480.49 45.51,-299.14 84,-257 91.67,-248.61 102.79,-243.84 113.71,-241.15"/>
<polygon fill="midnightblue" stroke="midnightblue" points="22.7,-541.1 25.55,-551.3 29.69,-541.55 22.7,-541.1"/>
</g>
<!-- Node25 -->
<g id="node26" class="node">
<title>Node25</title>
<g id="a_node26"><a xlink:href="../../dd/d0c/classnap_1_1_s_o_e_m_service.html" target="_top" xlink:title="SOEMService">
<polygon fill="white" stroke="black" points="112,-190.5 112,-209.5 189,-209.5 189,-190.5 112,-190.5"/>
<text text-anchor="middle" x="150.5" y="-197.5" font-family="Helvetica,sans-Serif" font-size="10.00">SOEMService</text>
</a>
</g>
</g>
<!-- Node0&#45;&gt;Node25 -->
<g id="edge25" class="edge">
<title>Node0&#45;&gt;Node25</title>
<path fill="none" stroke="midnightblue" d="M25.73,-541.29C28.55,-475.86 40.81,-267.3 84,-219 91.18,-210.97 101.54,-206.25 111.9,-203.5"/>
<polygon fill="midnightblue" stroke="midnightblue" points="22.23,-541.33 25.32,-551.46 29.22,-541.61 22.23,-541.33"/>
</g>
<!-- Node26 -->
<g id="node27" class="node">
<title>Node26</title>
<g id="a_node27"><a xlink:href="../../d7/d05/classnap_1_1_tween_service.html" target="_top" xlink:title="TweenService">
<polygon fill="white" stroke="black" points="112.5,-152.5 112.5,-171.5 188.5,-171.5 188.5,-152.5 112.5,-152.5"/>
<text text-anchor="middle" x="150.5" y="-159.5" font-family="Helvetica,sans-Serif" font-size="10.00">TweenService</text>
</a>
</g>
</g>
<!-- Node0&#45;&gt;Node26 -->
<g id="edge26" class="edge">
<title>Node0&#45;&gt;Node26</title>
<path fill="none" stroke="midnightblue" d="M25.35,-541.4C27,-471.48 36.08,-235.5 84,-181 91.27,-172.73 101.9,-167.96 112.5,-165.24"/>
<polygon fill="midnightblue" stroke="midnightblue" points="21.85,-541.41 25.14,-551.48 28.85,-541.55 21.85,-541.41"/>
</g>
<!-- Node27 -->
<g id="node28" class="node">
<title>Node27</title>
<g id="a_node28"><a xlink:href="../../dc/dc3/classnap_1_1_u_d_p_service.html" target="_top" xlink:title="UDPService">
<polygon fill="white" stroke="black" points="116.5,-114.5 116.5,-133.5 184.5,-133.5 184.5,-114.5 116.5,-114.5"/>
<text text-anchor="middle" x="150.5" y="-121.5" font-family="Helvetica,sans-Serif" font-size="10.00">UDPService</text>
</a>
</g>
</g>
<!-- Node0&#45;&gt;Node27 -->
<g id="edge27" class="edge">
<title>Node0&#45;&gt;Node27</title>
<path fill="none" stroke="midnightblue" d="M25.05,-540.92C25.64,-465.94 31.47,-203.57 84,-143 92.07,-133.7 104.39,-128.82 116.18,-126.3"/>
<polygon fill="midnightblue" stroke="midnightblue" points="21.55,-541.26 24.99,-551.28 28.55,-541.3 21.55,-541.26"/>
</g>
<!-- Node28 -->
<g id="node29" class="node">
<title>Node28</title>
<g id="a_node29"><a xlink:href="../../d4/dcd/classnap_1_1_video_service.html" target="_top" xlink:title="VideoService">
<polygon fill="white" stroke="black" points="114,-76.5 114,-95.5 187,-95.5 187,-76.5 114,-76.5"/>
<text text-anchor="middle" x="150.5" y="-83.5" font-family="Helvetica,sans-Serif" font-size="10.00">VideoService</text>
</a>
</g>
</g>
<!-- Node0&#45;&gt;Node28 -->
<g id="edge28" class="edge">
<title>Node0&#45;&gt;Node28</title>
<path fill="none" stroke="midnightblue" d="M24.79,-541.14C24.34,-462.22 26.69,-171.87 84,-105 91.47,-96.28 102.69,-91.44 113.73,-88.79"/>
<polygon fill="midnightblue" stroke="midnightblue" points="21.29,-541.23 24.87,-551.2 28.29,-541.17 21.29,-541.23"/>
</g>
<!-- Node29 -->
<g id="node30" class="node">
<title>Node29</title>
<g id="a_node30"><a xlink:href="../../dd/d2f/classnap_1_1_web_socket_service.html" target="_top" xlink:title="WebSocketService">
<polygon fill="white" stroke="black" points="101,-38.5 101,-57.5 200,-57.5 200,-38.5 101,-38.5"/>
<text text-anchor="middle" x="150.5" y="-45.5" font-family="Helvetica,sans-Serif" font-size="10.00">WebSocketService</text>
</a>
</g>
</g>
<!-- Node0&#45;&gt;Node29 -->
<g id="edge29" class="edge">
<title>Node0&#45;&gt;Node29</title>
<path fill="none" stroke="midnightblue" d="M24.56,-541.1C23.15,-458.07 21.95,-140.12 84,-67 88.52,-61.67 94.44,-57.79 100.86,-54.97"/>
<polygon fill="midnightblue" stroke="midnightblue" points="21.07,-541.28 24.76,-551.21 28.07,-541.15 21.07,-541.28"/>
</g>
<!-- Node30 -->
<g id="node31" class="node">
<title>Node30</title>
<g id="a_node31"><a xlink:href="../../d7/d55/classnap_1_1_yocto_service.html" target="_top" xlink:title="YoctoService">
<polygon fill="white" stroke="black" points="113.5,-0.5 113.5,-19.5 187.5,-19.5 187.5,-0.5 113.5,-0.5"/>
<text text-anchor="middle" x="150.5" y="-7.5" font-family="Helvetica,sans-Serif" font-size="10.00">YoctoService</text>
</a>
</g>
</g>
<!-- Node0&#45;&gt;Node30 -->
<g id="edge30" class="edge">
<title>Node0&#45;&gt;Node30</title>
<path fill="none" stroke="midnightblue" d="M25.91,-541.1C30.29,-449.24 50.36,-68.98 84,-29 91.32,-20.3 102.36,-15.46 113.3,-12.8"/>
<polygon fill="midnightblue" stroke="midnightblue" points="22.41,-541.1 25.44,-551.26 29.4,-541.43 22.41,-541.1"/>
</g>
</g>
</svg>
