<?xml version="1.0" encoding="UTF-8" standalone="no"?>
<!DOCTYPE svg PUBLIC "-//W3C//DTD SVG 1.1//EN"
 "http://www.w3.org/Graphics/SVG/1.1/DTD/svg11.dtd">
<!-- Generated by graphviz version 2.48.0 (20210717.1556)
 -->
<!-- Title: UniformValueInstance Pages: 1 -->
<svg width="286pt" height="152pt"
 viewBox="0.00 0.00 286.00 152.00" xmlns="http://www.w3.org/2000/svg" xmlns:xlink="http://www.w3.org/1999/xlink">
<g id="graph0" class="graph" transform="scale(1 1) rotate(0) translate(4 148)">
<title>UniformValueInstance</title>
<polygon fill="white" stroke="transparent" points="-4,4 -4,-148 282,-148 282,4 -4,4"/>
<!-- Node4 -->
<g id="node1" class="node">
<title>Node4</title>
<polygon fill="#bfbfbf" stroke="black" points="69.5,-0.5 69.5,-19.5 180.5,-19.5 180.5,-0.5 69.5,-0.5"/>
<text text-anchor="middle" x="125" y="-7.5" font-family="Helvetica,sans-Serif" font-size="10.00">UniformValueInstance</text>
</g>
<!-- Node5 -->
<g id="node2" class="node">
<title>Node5</title>
<g id="a_node2"><a xlink:href="../../dd/d94/classnap_1_1_uniform_leaf_instance.html" target="_top" xlink:title="UniformLeafInstance">
<polygon fill="white" stroke="black" points="0,-67.5 0,-86.5 104,-86.5 104,-67.5 0,-67.5"/>
<text text-anchor="middle" x="52" y="-74.5" font-family="Helvetica,sans-Serif" font-size="10.00">UniformLeafInstance</text>
</a>
</g>
</g>
<!-- Node5&#45;&gt;Node4 -->
<g id="edge1" class="edge">
<title>Node5&#45;&gt;Node4</title>
<path fill="none" stroke="midnightblue" d="M69.57,-60.36C83.92,-47.58 103.67,-29.99 115.31,-19.63"/>
<polygon fill="midnightblue" stroke="midnightblue" points="66.99,-57.97 61.85,-67.23 71.64,-63.2 66.99,-57.97"/>
</g>
<!-- Node6 -->
<g id="node3" class="node">
<title>Node6</title>
<g id="a_node3"><a xlink:href="../../d6/d6a/classnap_1_1_uniform_instance.html" target="_top" xlink:title="UniformInstance">
<polygon fill="white" stroke="black" points="9,-124.5 9,-143.5 95,-143.5 95,-124.5 9,-124.5"/>
<text text-anchor="middle" x="52" y="-131.5" font-family="Helvetica,sans-Serif" font-size="10.00">UniformInstance</text>
</a>
</g>
</g>
<!-- Node6&#45;&gt;Node5 -->
<g id="edge2" class="edge">
<title>Node6&#45;&gt;Node5</title>
<path fill="none" stroke="midnightblue" d="M52,-114.12C52,-104.82 52,-94.06 52,-86.71"/>
<polygon fill="midnightblue" stroke="midnightblue" points="48.5,-114.41 52,-124.41 55.5,-114.41 48.5,-114.41"/>
</g>
<!-- Node7 -->
<g id="node4" class="node">
<title>Node7</title>
<g id="a_node4"><a xlink:href="../../d6/df3/classnap_1_1_shader_variable_value_declaration.html" target="_top" xlink:title="ShaderVariableValueDeclaration">
<polygon fill="white" stroke="black" points="122,-67.5 122,-86.5 278,-86.5 278,-67.5 122,-67.5"/>
<text text-anchor="middle" x="200" y="-74.5" font-family="Helvetica,sans-Serif" font-size="10.00">ShaderVariableValueDeclaration</text>
</a>
</g>
</g>
<!-- Node7&#45;&gt;Node4 -->
<g id="edge3" class="edge">
<title>Node7&#45;&gt;Node4</title>
<path fill="none" stroke="#9a32cd" stroke-dasharray="5,2" d="M181.95,-60.36C167.21,-47.58 146.91,-29.99 134.95,-19.63"/>
<polygon fill="#9a32cd" stroke="#9a32cd" points="180.04,-63.33 189.89,-67.23 184.62,-58.04 180.04,-63.33"/>
<text text-anchor="middle" x="197.5" y="-41" font-family="Helvetica,sans-Serif" font-size="10.00"> mDeclaration</text>
</g>
<!-- Node8 -->
<g id="node5" class="node">
<title>Node8</title>
<g id="a_node5"><a xlink:href="../../dc/d72/classnap_1_1_shader_variable_declaration.html" target="_top" xlink:title="ShaderVariableDeclaration">
<polygon fill="white" stroke="black" points="134.5,-124.5 134.5,-143.5 265.5,-143.5 265.5,-124.5 134.5,-124.5"/>
<text text-anchor="middle" x="200" y="-131.5" font-family="Helvetica,sans-Serif" font-size="10.00">ShaderVariableDeclaration</text>
</a>
</g>
</g>
<!-- Node8&#45;&gt;Node7 -->
<g id="edge4" class="edge">
<title>Node8&#45;&gt;Node7</title>
<path fill="none" stroke="midnightblue" d="M200,-114.12C200,-104.82 200,-94.06 200,-86.71"/>
<polygon fill="midnightblue" stroke="midnightblue" points="196.5,-114.41 200,-124.41 203.5,-114.41 196.5,-114.41"/>
</g>
</g>
</svg>
