<?xml version="1.0" encoding="UTF-8" standalone="no"?>
<!DOCTYPE svg PUBLIC "-//W3C//DTD SVG 1.1//EN"
 "http://www.w3.org/Graphics/SVG/1.1/DTD/svg11.dtd">
<!-- Generated by graphviz version 3.0.0 (20220226.1711)
 -->
<!-- Title: UniformValueInstance Pages: 1 -->
<svg width="254pt" height="152pt"
 viewBox="0.00 0.00 253.50 152.00" xmlns="http://www.w3.org/2000/svg" xmlns:xlink="http://www.w3.org/1999/xlink">
<g id="graph0" class="graph" transform="scale(1 1) rotate(0) translate(4 148)">
<title>UniformValueInstance</title>
<polygon fill="white" stroke="transparent" points="-4,4 -4,-148 249.5,-148 249.5,4 -4,4"/>
<!-- Node4 -->
<g id="node1" class="node">
<title>Node4</title>
<polygon fill="#bfbfbf" stroke="black" points="61.5,-0.5 61.5,-19.5 172.5,-19.5 172.5,-0.5 61.5,-0.5"/>
<text text-anchor="middle" x="117" y="-7.5" font-family="Helvetica,sans-Serif" font-size="10.00">UniformValueInstance</text>
</g>
<!-- Node5 -->
<g id="node2" class="node">
<title>Node5</title>
<g id="a_node2"><a xlink:href="../../dd/d94/classnap_1_1_uniform_leaf_instance.html" target="_top" xlink:title="UniformLeafInstance">
<polygon fill="white" stroke="black" points="0,-67.5 0,-86.5 104,-86.5 104,-67.5 0,-67.5"/>
<text text-anchor="middle" x="52" y="-74.5" font-family="Helvetica,sans-Serif" font-size="10.00">UniformLeafInstance</text>
</a>
</g>
</g>
<!-- Node5&#45;&gt;Node4 -->
<g id="edge1" class="edge">
<title>Node5&#45;&gt;Node4</title>
<path fill="none" stroke="midnightblue" d="M68,-60C80.75,-47.25 98.11,-29.89 108.37,-19.63"/>
<polygon fill="midnightblue" stroke="midnightblue" points="65.36,-57.69 60.77,-67.23 70.31,-62.64 65.36,-57.69"/>
</g>
<!-- Node6 -->
<g id="node3" class="node">
<title>Node6</title>
<g id="a_node3"><a xlink:href="../../d6/d6a/classnap_1_1_uniform_instance.html" target="_top" xlink:title="UniformInstance">
<polygon fill="white" stroke="black" points="9,-124.5 9,-143.5 95,-143.5 95,-124.5 9,-124.5"/>
<text text-anchor="middle" x="52" y="-131.5" font-family="Helvetica,sans-Serif" font-size="10.00">UniformInstance</text>
</a>
</g>
</g>
<!-- Node6&#45;&gt;Node5 -->
<g id="edge2" class="edge">
<title>Node6&#45;&gt;Node5</title>
<path fill="none" stroke="midnightblue" d="M52,-114.12C52,-104.82 52,-94.06 52,-86.71"/>
<polygon fill="midnightblue" stroke="midnightblue" points="48.5,-114.41 52,-124.41 55.5,-114.41 48.5,-114.41"/>
</g>
<!-- Node7 -->
<g id="node4" class="node">
<title>Node7</title>
<g id="a_node4"><a xlink:href="../../d5/dff/classnap_1_1_uniform_value_declaration.html" target="_top" xlink:title="UniformValueDeclaration">
<polygon fill="white" stroke="black" points="122.5,-67.5 122.5,-86.5 245.5,-86.5 245.5,-67.5 122.5,-67.5"/>
<text text-anchor="middle" x="184" y="-74.5" font-family="Helvetica,sans-Serif" font-size="10.00">UniformValueDeclaration</text>
</a>
</g>
</g>
<!-- Node7&#45;&gt;Node4 -->
<g id="edge3" class="edge">
<title>Node7&#45;&gt;Node4</title>
<path fill="none" stroke="#9a32cd" stroke-dasharray="5,2" d="M167.5,-60C154.36,-47.25 136.48,-29.89 125.89,-19.63"/>
<polygon fill="#9a32cd" stroke="#9a32cd" points="165.35,-62.78 174.96,-67.23 170.22,-57.76 165.35,-62.78"/>
<text text-anchor="middle" x="185.5" y="-41" font-family="Helvetica,sans-Serif" font-size="10.00"> mDeclaration</text>
</g>
<!-- Node8 -->
<g id="node5" class="node">
<title>Node8</title>
<g id="a_node5"><a xlink:href="../../d9/dfc/classnap_1_1_uniform_declaration.html" target="_top" xlink:title="UniformDeclaration">
<polygon fill="white" stroke="black" points="135,-124.5 135,-143.5 233,-143.5 233,-124.5 135,-124.5"/>
<text text-anchor="middle" x="184" y="-131.5" font-family="Helvetica,sans-Serif" font-size="10.00">UniformDeclaration</text>
</a>
</g>
</g>
<!-- Node8&#45;&gt;Node7 -->
<g id="edge4" class="edge">
<title>Node8&#45;&gt;Node7</title>
<path fill="none" stroke="midnightblue" d="M184,-114.12C184,-104.82 184,-94.06 184,-86.71"/>
<polygon fill="midnightblue" stroke="midnightblue" points="180.5,-114.41 184,-124.41 187.5,-114.41 180.5,-114.41"/>
</g>
</g>
</svg>
