<?xml version="1.0" encoding="UTF-8" standalone="no"?>
<!DOCTYPE svg PUBLIC "-//W3C//DTD SVG 1.1//EN"
 "http://www.w3.org/Graphics/SVG/1.1/DTD/svg11.dtd">
<!-- Generated by graphviz version 2.48.0 (20210717.1556)
 -->
<!-- Title: AudioComponentBase Pages: 1 -->
<svg width="576pt" height="154pt"
 viewBox="0.00 0.00 576.00 154.00" xmlns="http://www.w3.org/2000/svg" xmlns:xlink="http://www.w3.org/1999/xlink">
<g id="graph0" class="graph" transform="scale(1 1) rotate(0) translate(4 150)">
<title>AudioComponentBase</title>
<polygon fill="white" stroke="transparent" points="-4,4 -4,-150 572,-150 572,4 -4,4"/>
<!-- Node0 -->
<g id="node1" class="node">
<title>Node0</title>
<polygon fill="#bfbfbf" stroke="black" points="277,-66.5 277,-85.5 390,-85.5 390,-66.5 277,-66.5"/>
<text text-anchor="middle" x="333.5" y="-73.5" font-family="Helvetica,sans-Serif" font-size="10.00">AudioComponentBase</text>
</g>
<!-- Node4 -->
<g id="node5" class="node">
<title>Node4</title>
<g id="a_node5"><a xlink:href="../../db/d0a/classnap_1_1audio_1_1_audio_input_component.html" target="_top" xlink:title="AudioInputComponent">
<polygon fill="white" stroke="black" points="441,-126.5 441,-145.5 553,-145.5 553,-126.5 441,-126.5"/>
<text text-anchor="middle" x="497" y="-133.5" font-family="Helvetica,sans-Serif" font-size="10.00">AudioInputComponent</text>
</a>
</g>
</g>
<!-- Node0&#45;&gt;Node4 -->
<g id="edge4" class="edge">
<title>Node0&#45;&gt;Node4</title>
<path fill="none" stroke="midnightblue" d="M362.69,-90.01C380.54,-98.53 404.29,-109.24 426,-117 435.72,-120.47 446.4,-123.67 456.42,-126.41"/>
<polygon fill="midnightblue" stroke="midnightblue" points="363.95,-86.73 353.42,-85.53 360.9,-93.03 363.95,-86.73"/>
</g>
<!-- Node5 -->
<g id="node6" class="node">
<title>Node5</title>
<g id="a_node6"><a xlink:href="../../d3/d49/classnap_1_1audio_1_1_playback_component.html" target="_top" xlink:title="PlaybackComponent">
<polygon fill="white" stroke="black" points="443.5,-88.5 443.5,-107.5 550.5,-107.5 550.5,-88.5 443.5,-88.5"/>
<text text-anchor="middle" x="497" y="-95.5" font-family="Helvetica,sans-Serif" font-size="10.00">PlaybackComponent</text>
</a>
</g>
</g>
<!-- Node0&#45;&gt;Node5 -->
<g id="edge5" class="edge">
<title>Node0&#45;&gt;Node5</title>
<path fill="none" stroke="midnightblue" d="M400.35,-84.97C414.65,-86.92 429.6,-88.95 443.31,-90.82"/>
<polygon fill="midnightblue" stroke="midnightblue" points="400.46,-81.45 390.08,-83.57 399.52,-88.39 400.46,-81.45"/>
</g>
<!-- Node6 -->
<g id="node7" class="node">
<title>Node6</title>
<g id="a_node7"><a xlink:href="../../d2/d14/classnap_1_1audio_1_1_sequence_player_audio_output_component.html" target="_top" xlink:title="SequencePlayerAudioOutput\lComponent">
<polygon fill="white" stroke="black" points="426,-39 426,-69 568,-69 568,-39 426,-39"/>
<text text-anchor="start" x="434" y="-57" font-family="Helvetica,sans-Serif" font-size="10.00">SequencePlayerAudioOutput</text>
<text text-anchor="middle" x="497" y="-46" font-family="Helvetica,sans-Serif" font-size="10.00">Component</text>
</a>
</g>
</g>
<!-- Node0&#45;&gt;Node6 -->
<g id="edge6" class="edge">
<title>Node0&#45;&gt;Node6</title>
<path fill="none" stroke="midnightblue" d="M400.21,-67.05C408.63,-65.9 417.28,-64.72 425.77,-63.57"/>
<polygon fill="midnightblue" stroke="midnightblue" points="399.52,-63.61 390.08,-68.43 400.46,-70.55 399.52,-63.61"/>
</g>
<!-- Node7 -->
<g id="node8" class="node">
<title>Node7</title>
<g id="a_node8"><a xlink:href="../../db/df8/classnap_1_1audio_1_1_video_audio_component.html" target="_top" xlink:title="VideoAudioComponent">
<polygon fill="white" stroke="black" points="439,-0.5 439,-19.5 555,-19.5 555,-0.5 439,-0.5"/>
<text text-anchor="middle" x="497" y="-7.5" font-family="Helvetica,sans-Serif" font-size="10.00">VideoAudioComponent</text>
</a>
</g>
</g>
<!-- Node0&#45;&gt;Node7 -->
<g id="edge7" class="edge">
<title>Node0&#45;&gt;Node7</title>
<path fill="none" stroke="midnightblue" d="M359.28,-61.47C377.33,-51.34 402.6,-38.07 426,-29 435.28,-25.4 445.49,-22.22 455.19,-19.53"/>
<polygon fill="midnightblue" stroke="midnightblue" points="357.51,-58.45 350.55,-66.44 360.97,-64.53 357.51,-58.45"/>
</g>
<!-- Node1 -->
<g id="node2" class="node">
<title>Node1</title>
<g id="a_node2"><a xlink:href="../../db/d6b/classnap_1_1_component.html" target="_top" xlink:title="Component">
<polygon fill="white" stroke="black" points="175,-66.5 175,-85.5 241,-85.5 241,-66.5 175,-66.5"/>
<text text-anchor="middle" x="208" y="-73.5" font-family="Helvetica,sans-Serif" font-size="10.00">Component</text>
</a>
</g>
</g>
<!-- Node1&#45;&gt;Node0 -->
<g id="edge1" class="edge">
<title>Node1&#45;&gt;Node0</title>
<path fill="none" stroke="midnightblue" d="M251.17,-76C259.36,-76 268.07,-76 276.62,-76"/>
<polygon fill="midnightblue" stroke="midnightblue" points="251.13,-72.5 241.13,-76 251.13,-79.5 251.13,-72.5"/>
</g>
<!-- Node2 -->
<g id="node3" class="node">
<title>Node2</title>
<g id="a_node3"><a xlink:href="../../d9/dea/classnap_1_1_resource.html" target="_top" xlink:title="Resource">
<polygon fill="white" stroke="black" points="81,-66.5 81,-85.5 139,-85.5 139,-66.5 81,-66.5"/>
<text text-anchor="middle" x="110" y="-73.5" font-family="Helvetica,sans-Serif" font-size="10.00">Resource</text>
</a>
</g>
</g>
<!-- Node2&#45;&gt;Node1 -->
<g id="edge2" class="edge">
<title>Node2&#45;&gt;Node1</title>
<path fill="none" stroke="midnightblue" d="M149.09,-76C157.57,-76 166.49,-76 174.71,-76"/>
<polygon fill="midnightblue" stroke="midnightblue" points="149.03,-72.5 139.03,-76 149.03,-79.5 149.03,-72.5"/>
</g>
<!-- Node3 -->
<g id="node4" class="node">
<title>Node3</title>
<g id="a_node4"><a xlink:href="../../de/d01/classnap_1_1rtti_1_1_object.html" target="_top" xlink:title="Object">
<polygon fill="white" stroke="black" points="0,-66.5 0,-85.5 45,-85.5 45,-66.5 0,-66.5"/>
<text text-anchor="middle" x="22.5" y="-73.5" font-family="Helvetica,sans-Serif" font-size="10.00">Object</text>
</a>
</g>
</g>
<!-- Node3&#45;&gt;Node2 -->
<g id="edge3" class="edge">
<title>Node3&#45;&gt;Node2</title>
<path fill="none" stroke="midnightblue" d="M55.31,-76C63.73,-76 72.76,-76 80.96,-76"/>
<polygon fill="midnightblue" stroke="midnightblue" points="55.08,-72.5 45.08,-76 55.08,-79.5 55.08,-72.5"/>
</g>
</g>
</svg>
