<?xml version="1.0" encoding="UTF-8" standalone="no"?>
<!DOCTYPE svg PUBLIC "-//W3C//DTD SVG 1.1//EN"
 "http://www.w3.org/Graphics/SVG/1.1/DTD/svg11.dtd">
<!-- Generated by graphviz version 2.43.0 (0)
 -->
<!-- Title: WebSocketConnectionClosedEvent Pages: 1 -->
<svg width="250pt" height="220pt"
 viewBox="0.00 0.00 249.50 220.00" xmlns="http://www.w3.org/2000/svg" xmlns:xlink="http://www.w3.org/1999/xlink">
<g id="graph0" class="graph" transform="scale(1 1) rotate(0) translate(4 216)">
<title>WebSocketConnectionClosedEvent</title>
<polygon fill="white" stroke="transparent" points="-4,4 -4,-216 245.5,-216 245.5,4 -4,4"/>
<!-- Node1 -->
<g id="node1" class="node">
<title>Node1</title>
<g id="a_node1"><a xlink:title=" ">
<polygon fill="#bfbfbf" stroke="black" points="35,-0.5 35,-30.5 193,-30.5 193,-0.5 35,-0.5"/>
<text text-anchor="start" x="43" y="-18.5" font-family="Helvetica,sans-Serif" font-size="10.00">WebSocketConnectionClosed</text>
<text text-anchor="middle" x="114" y="-7.5" font-family="Helvetica,sans-Serif" font-size="10.00">Event</text>
</a>
</g>
</g>
<!-- Node2 -->
<g id="node2" class="node">
<title>Node2</title>
<g id="a_node2"><a xlink:href="../../de/d42/classnap_1_1_web_socket_connection_event.html" target="_top" xlink:title=" ">
<polygon fill="white" stroke="black" points="38,-68.5 38,-87.5 190,-87.5 190,-68.5 38,-68.5"/>
<text text-anchor="middle" x="114" y="-75.5" font-family="Helvetica,sans-Serif" font-size="10.00">WebSocketConnectionEvent</text>
</a>
</g>
</g>
<!-- Node2&#45;&gt;Node1 -->
<g id="edge1" class="edge">
<title>Node2&#45;&gt;Node1</title>
<path fill="none" stroke="midnightblue" d="M114,-58.22C114,-49.36 114,-38.96 114,-30.76"/>
<polygon fill="midnightblue" stroke="midnightblue" points="110.5,-58.33 114,-68.33 117.5,-58.33 110.5,-58.33"/>
</g>
<!-- Node3 -->
<g id="node3" class="node">
<title>Node3</title>
<g id="a_node3"><a xlink:href="../../d6/d83/classnap_1_1_web_socket_event.html" target="_top" xlink:title=" ">
<polygon fill="white" stroke="black" points="0,-135.5 0,-154.5 98,-154.5 98,-135.5 0,-135.5"/>
<text text-anchor="middle" x="49" y="-142.5" font-family="Helvetica,sans-Serif" font-size="10.00">WebSocketEvent</text>
</a>
</g>
</g>
<!-- Node3&#45;&gt;Node2 -->
<g id="edge2" class="edge">
<title>Node3&#45;&gt;Node2</title>
<path fill="none" stroke="midnightblue" d="M65,-128C77.75,-115.25 95.11,-97.89 105.37,-87.63"/>
<polygon fill="midnightblue" stroke="midnightblue" points="62.36,-125.69 57.77,-135.23 67.31,-130.64 62.36,-125.69"/>
</g>
<!-- Node4 -->
<g id="node4" class="node">
<title>Node4</title>
<g id="a_node4"><a xlink:href="../../d2/da2/classnap_1_1_event.html" target="_top" xlink:title=" ">
<polygon fill="white" stroke="black" points="27,-192.5 27,-211.5 71,-211.5 71,-192.5 27,-192.5"/>
<text text-anchor="middle" x="49" y="-199.5" font-family="Helvetica,sans-Serif" font-size="10.00">Event</text>
</a>
</g>
</g>
<!-- Node4&#45;&gt;Node3 -->
<g id="edge3" class="edge">
<title>Node4&#45;&gt;Node3</title>
<path fill="none" stroke="midnightblue" d="M49,-182.12C49,-172.82 49,-162.06 49,-154.71"/>
<polygon fill="midnightblue" stroke="midnightblue" points="45.5,-182.41 49,-192.41 52.5,-182.41 45.5,-182.41"/>
</g>
<!-- Node5 -->
<g id="node5" class="node">
<title>Node5</title>
<g id="a_node5"><a xlink:href="../../d6/d2e/classnap_1_1_web_socket_connection.html" target="_top" xlink:title=" ">
<polygon fill="white" stroke="black" points="116.5,-135.5 116.5,-154.5 241.5,-154.5 241.5,-135.5 116.5,-135.5"/>
<text text-anchor="middle" x="179" y="-142.5" font-family="Helvetica,sans-Serif" font-size="10.00">WebSocketConnection</text>
</a>
</g>
</g>
<!-- Node5&#45;&gt;Node2 -->
<g id="edge4" class="edge">
<title>Node5&#45;&gt;Node2</title>
<path fill="none" stroke="#9a32cd" stroke-dasharray="5,2" d="M163,-128C150.25,-115.25 132.89,-97.89 122.63,-87.63"/>
<polygon fill="#9a32cd" stroke="#9a32cd" points="160.69,-130.64 170.23,-135.23 165.64,-125.69 160.69,-130.64"/>
<text text-anchor="middle" x="184" y="-109" font-family="Helvetica,sans-Serif" font-size="10.00"> mConnection</text>
</g>
</g>
</svg>
