<?xml version="1.0" encoding="UTF-8" standalone="no"?>
<!DOCTYPE svg PUBLIC "-//W3C//DTD SVG 1.1//EN"
 "http://www.w3.org/Graphics/SVG/1.1/DTD/svg11.dtd">
<!-- Generated by graphviz version 2.48.0 (20210717.1556)
 -->
<!-- Title: APIService Pages: 1 -->
<svg width="177pt" height="106pt"
 viewBox="0.00 0.00 177.00 106.00" xmlns="http://www.w3.org/2000/svg" xmlns:xlink="http://www.w3.org/1999/xlink">
<g id="graph0" class="graph" transform="scale(1 1) rotate(0) translate(4 102)">
<title>APIService</title>
<polygon fill="white" stroke="transparent" points="-4,4 -4,-102 173,-102 173,4 -4,4"/>
<!-- Node2 -->
<g id="node1" class="node">
<title>Node2</title>
<polygon fill="#bfbfbf" stroke="black" points="38,-0.5 38,-19.5 102,-19.5 102,-0.5 38,-0.5"/>
<text text-anchor="middle" x="70" y="-7.5" font-family="Helvetica,sans-Serif" font-size="10.00">APIService</text>
</g>
<!-- Node3 -->
<g id="node2" class="node">
<title>Node3</title>
<g id="a_node2"><a xlink:href="../../d8/d8e/classnap_1_1_service.html" target="_top" xlink:title="Service">
<polygon fill="white" stroke="black" points="0,-73 0,-92 48,-92 48,-73 0,-73"/>
<text text-anchor="middle" x="24" y="-80" font-family="Helvetica,sans-Serif" font-size="10.00">Service</text>
</a>
</g>
</g>
<!-- Node3&#45;&gt;Node2 -->
<g id="edge1" class="edge">
<title>Node3&#45;&gt;Node2</title>
<path fill="none" stroke="midnightblue" d="M35.36,-64.09C44.55,-50 57.12,-30.74 64.31,-19.72"/>
<polygon fill="midnightblue" stroke="midnightblue" points="32.17,-62.57 29.64,-72.86 38.04,-66.39 32.17,-62.57"/>
</g>
<!-- Node4 -->
<g id="node3" class="node">
<title>Node4</title>
<g id="a_node3"><a xlink:href="../../de/d80/classnap_1_1_signal.html" target="_top" xlink:title="Signal\&lt; const nap::\lAPIEvent &amp;\&gt;">
<polygon fill="white" stroke="black" points="66.5,-67.5 66.5,-97.5 167.5,-97.5 167.5,-67.5 66.5,-67.5"/>
<text text-anchor="start" x="74.5" y="-85.5" font-family="Helvetica,sans-Serif" font-size="10.00">Signal&lt; const nap::</text>
<text text-anchor="middle" x="117" y="-74.5" font-family="Helvetica,sans-Serif" font-size="10.00">APIEvent &amp;&gt;</text>
</a>
</g>
</g>
<!-- Node4&#45;&gt;Node2 -->
<g id="edge2" class="edge">
<title>Node4&#45;&gt;Node2</title>
<path fill="none" stroke="#9a32cd" stroke-dasharray="5,2" d="M101.75,-58.63C92.95,-45.42 82.38,-29.57 75.93,-19.89"/>
<polygon fill="#9a32cd" stroke="#9a32cd" points="99.03,-60.85 107.49,-67.23 104.85,-56.97 99.03,-60.85"/>
<text text-anchor="middle" x="131.5" y="-41" font-family="Helvetica,sans-Serif" font-size="10.00"> eventDispatched</text>
</g>
</g>
</svg>
