<?xml version="1.0" encoding="UTF-8" standalone="no"?>
<!DOCTYPE svg PUBLIC "-//W3C//DTD SVG 1.1//EN"
 "http://www.w3.org/Graphics/SVG/1.1/DTD/svg11.dtd">
<!-- Generated by graphviz version 3.0.0 (20220226.1711)
 -->
<!-- Title: Mesh Pages: 1 -->
<svg width="256pt" height="220pt"
 viewBox="0.00 0.00 255.50 220.00" xmlns="http://www.w3.org/2000/svg" xmlns:xlink="http://www.w3.org/1999/xlink">
<g id="graph0" class="graph" transform="scale(1 1) rotate(0) translate(4 216)">
<title>Mesh</title>
<polygon fill="white" stroke="transparent" points="-4,4 -4,-216 251.5,-216 251.5,4 -4,4"/>
<!-- Node4 -->
<g id="node1" class="node">
<title>Node4</title>
<polygon fill="#bfbfbf" stroke="black" points="104.5,-0.5 104.5,-19.5 145.5,-19.5 145.5,-0.5 104.5,-0.5"/>
<text text-anchor="middle" x="125" y="-7.5" font-family="Helvetica,sans-Serif" font-size="10.00">Mesh</text>
</g>
<!-- Node5 -->
<g id="node2" class="node">
<title>Node5</title>
<g id="a_node2"><a xlink:href="../../dd/dac/classnap_1_1_i_mesh.html" target="_top" xlink:title="IMesh">
<polygon fill="white" stroke="black" points="7.5,-73 7.5,-92 50.5,-92 50.5,-73 7.5,-73"/>
<text text-anchor="middle" x="29" y="-80" font-family="Helvetica,sans-Serif" font-size="10.00">IMesh</text>
</a>
</g>
</g>
<!-- Node5&#45;&gt;Node4 -->
<g id="edge1" class="edge">
<title>Node5&#45;&gt;Node4</title>
<path fill="none" stroke="midnightblue" d="M48.93,-66.86C68.31,-52.63 97.1,-31.49 113.13,-19.72"/>
<polygon fill="midnightblue" stroke="midnightblue" points="46.76,-64.12 40.77,-72.86 50.9,-69.76 46.76,-64.12"/>
</g>
<!-- Node6 -->
<g id="node3" class="node">
<title>Node6</title>
<g id="a_node3"><a xlink:href="../../d9/dea/classnap_1_1_resource.html" target="_top" xlink:title="Resource">
<polygon fill="white" stroke="black" points="0,-135.5 0,-154.5 58,-154.5 58,-135.5 0,-135.5"/>
<text text-anchor="middle" x="29" y="-142.5" font-family="Helvetica,sans-Serif" font-size="10.00">Resource</text>
</a>
</g>
</g>
<!-- Node6&#45;&gt;Node5 -->
<g id="edge2" class="edge">
<title>Node6&#45;&gt;Node5</title>
<path fill="none" stroke="midnightblue" d="M29,-125C29,-114 29,-100.68 29,-92.15"/>
<polygon fill="midnightblue" stroke="midnightblue" points="25.5,-125.33 29,-135.33 32.5,-125.33 25.5,-125.33"/>
</g>
<!-- Node7 -->
<g id="node4" class="node">
<title>Node7</title>
<g id="a_node4"><a xlink:href="../../de/d01/classnap_1_1rtti_1_1_object.html" target="_top" xlink:title="Object">
<polygon fill="white" stroke="black" points="6.5,-192.5 6.5,-211.5 51.5,-211.5 51.5,-192.5 6.5,-192.5"/>
<text text-anchor="middle" x="29" y="-199.5" font-family="Helvetica,sans-Serif" font-size="10.00">Object</text>
</a>
</g>
</g>
<!-- Node7&#45;&gt;Node6 -->
<g id="edge3" class="edge">
<title>Node7&#45;&gt;Node6</title>
<path fill="none" stroke="midnightblue" d="M29,-182.12C29,-172.82 29,-162.06 29,-154.71"/>
<polygon fill="midnightblue" stroke="midnightblue" points="25.5,-182.41 29,-192.41 32.5,-182.41 25.5,-182.41"/>
</g>
<!-- Node8 -->
<g id="node5" class="node">
<title>Node8</title>
<g id="a_node5"><a xlink:href="../../d9/dca/structnap_1_1_mesh_properties.html" target="_top" xlink:title="MeshProperties\&lt; rtti\l::ObjectPtr\&lt; BaseVertexAttribute \&gt; \&gt;">
<polygon fill="white" stroke="black" points="68.5,-67.5 68.5,-97.5 247.5,-97.5 247.5,-67.5 68.5,-67.5"/>
<text text-anchor="start" x="76.5" y="-85.5" font-family="Helvetica,sans-Serif" font-size="10.00">MeshProperties&lt; rtti</text>
<text text-anchor="middle" x="158" y="-74.5" font-family="Helvetica,sans-Serif" font-size="10.00">::ObjectPtr&lt; BaseVertexAttribute &gt; &gt;</text>
</a>
</g>
</g>
<!-- Node8&#45;&gt;Node4 -->
<g id="edge4" class="edge">
<title>Node8&#45;&gt;Node4</title>
<path fill="none" stroke="#9a32cd" stroke-dasharray="5,2" d="M146.94,-57.86C140.83,-44.82 133.61,-29.38 129.16,-19.89"/>
<polygon fill="#9a32cd" stroke="#9a32cd" points="143.91,-59.66 151.32,-67.23 150.25,-56.69 143.91,-59.66"/>
<text text-anchor="middle" x="170" y="-41" font-family="Helvetica,sans-Serif" font-size="10.00"> mProperties</text>
</g>
</g>
</svg>
