<?xml version="1.0" encoding="UTF-8" standalone="no"?>
<!DOCTYPE svg PUBLIC "-//W3C//DTD SVG 1.1//EN"
 "http://www.w3.org/Graphics/SVG/1.1/DTD/svg11.dtd">
<!-- Generated by graphviz version 2.48.0 (20210717.1556)
 -->
<!-- Title: ScatterPointsMesh Pages: 1 -->
<svg width="500pt" height="309pt"
 viewBox="0.00 0.00 499.50 309.00" xmlns="http://www.w3.org/2000/svg" xmlns:xlink="http://www.w3.org/1999/xlink">
<g id="graph0" class="graph" transform="scale(1 1) rotate(0) translate(4 305)">
<title>ScatterPointsMesh</title>
<polygon fill="white" stroke="transparent" points="-4,4 -4,-305 495.5,-305 495.5,4 -4,4"/>
<!-- Node4 -->
<g id="node1" class="node">
<title>Node4</title>
<polygon fill="#bfbfbf" stroke="black" points="108.5,-0.5 108.5,-19.5 208.5,-19.5 208.5,-0.5 108.5,-0.5"/>
<text text-anchor="middle" x="158.5" y="-7.5" font-family="Helvetica,sans-Serif" font-size="10.00">ScatterPointsMesh</text>
</g>
<!-- Node5 -->
<g id="node2" class="node">
<title>Node5</title>
<g id="a_node2"><a xlink:href="../../dd/dac/classnap_1_1_i_mesh.html" target="_top" xlink:title="IMesh">
<polygon fill="white" stroke="black" points="0,-128.5 0,-147.5 43,-147.5 43,-128.5 0,-128.5"/>
<text text-anchor="middle" x="21.5" y="-135.5" font-family="Helvetica,sans-Serif" font-size="10.00">IMesh</text>
</a>
</g>
</g>
<!-- Node5&#45;&gt;Node4 -->
<g id="edge1" class="edge">
<title>Node5&#45;&gt;Node4</title>
<path fill="none" stroke="midnightblue" d="M23.98,-118.29C26.43,-105.79 31.23,-89.58 40.5,-78 64.21,-48.4 104.77,-29.53 131.61,-19.6"/>
<polygon fill="midnightblue" stroke="midnightblue" points="20.47,-118.05 22.33,-128.49 27.38,-119.17 20.47,-118.05"/>
</g>
<!-- Node6 -->
<g id="node3" class="node">
<title>Node6</title>
<g id="a_node3"><a xlink:href="../../d9/dea/classnap_1_1_resource.html" target="_top" xlink:title="Resource">
<polygon fill="white" stroke="black" points="4.5,-224.5 4.5,-243.5 62.5,-243.5 62.5,-224.5 4.5,-224.5"/>
<text text-anchor="middle" x="33.5" y="-231.5" font-family="Helvetica,sans-Serif" font-size="10.00">Resource</text>
</a>
</g>
</g>
<!-- Node6&#45;&gt;Node5 -->
<g id="edge2" class="edge">
<title>Node6&#45;&gt;Node5</title>
<path fill="none" stroke="midnightblue" d="M31.09,-214.14C28.51,-193.91 24.52,-162.68 22.6,-147.65"/>
<polygon fill="midnightblue" stroke="midnightblue" points="27.65,-214.85 32.39,-224.33 34.6,-213.96 27.65,-214.85"/>
</g>
<!-- Node12 -->
<g id="node9" class="node">
<title>Node12</title>
<g id="a_node9"><a xlink:href="../../d7/db2/classnap_1_1_base_vertex_attribute.html" target="_top" xlink:title="BaseVertexAttribute">
<polygon fill="white" stroke="black" points="49.5,-167.5 49.5,-186.5 153.5,-186.5 153.5,-167.5 49.5,-167.5"/>
<text text-anchor="middle" x="101.5" y="-174.5" font-family="Helvetica,sans-Serif" font-size="10.00">BaseVertexAttribute</text>
</a>
</g>
</g>
<!-- Node6&#45;&gt;Node12 -->
<g id="edge9" class="edge">
<title>Node6&#45;&gt;Node12</title>
<path fill="none" stroke="midnightblue" d="M52.05,-218C64.46,-207.96 80.35,-195.1 90.73,-186.71"/>
<polygon fill="midnightblue" stroke="midnightblue" points="49.7,-215.4 44.12,-224.41 54.1,-220.84 49.7,-215.4"/>
</g>
<!-- Node7 -->
<g id="node4" class="node">
<title>Node7</title>
<g id="a_node4"><a xlink:href="../../de/d01/classnap_1_1rtti_1_1_object.html" target="_top" xlink:title="Object">
<polygon fill="white" stroke="black" points="11,-281.5 11,-300.5 56,-300.5 56,-281.5 11,-281.5"/>
<text text-anchor="middle" x="33.5" y="-288.5" font-family="Helvetica,sans-Serif" font-size="10.00">Object</text>
</a>
</g>
</g>
<!-- Node7&#45;&gt;Node6 -->
<g id="edge3" class="edge">
<title>Node7&#45;&gt;Node6</title>
<path fill="none" stroke="midnightblue" d="M33.5,-271.12C33.5,-261.82 33.5,-251.06 33.5,-243.71"/>
<polygon fill="midnightblue" stroke="midnightblue" points="30,-271.41 33.5,-281.41 37,-271.41 30,-271.41"/>
</g>
<!-- Node8 -->
<g id="node5" class="node">
<title>Node8</title>
<g id="a_node5"><a xlink:href="../../d5/dc6/classnap_1_1_render_service.html" target="_top" xlink:title="RenderService">
<polygon fill="white" stroke="black" points="175,-84 175,-103 254,-103 254,-84 175,-84"/>
<text text-anchor="middle" x="214.5" y="-91" font-family="Helvetica,sans-Serif" font-size="10.00">RenderService</text>
</a>
</g>
</g>
<!-- Node8&#45;&gt;Node4 -->
<g id="edge4" class="edge">
<title>Node8&#45;&gt;Node4</title>
<path fill="none" stroke="#9a32cd" stroke-dasharray="5,2" d="M207.04,-74.42C202.04,-63.38 194.87,-49.26 186.5,-38 181.42,-31.17 174.56,-24.52 168.9,-19.53"/>
<polygon fill="#9a32cd" stroke="#9a32cd" points="203.94,-76.09 211.12,-83.88 210.37,-73.31 203.94,-76.09"/>
<text text-anchor="middle" x="237.5" y="-46.5" font-family="Helvetica,sans-Serif" font-size="10.00"> mRenderService</text>
</g>
<!-- Node9 -->
<g id="node6" class="node">
<title>Node9</title>
<g id="a_node6"><a xlink:href="../../d8/d8e/classnap_1_1_service.html" target="_top" xlink:title="Service">
<polygon fill="white" stroke="black" points="171.5,-167.5 171.5,-186.5 219.5,-186.5 219.5,-167.5 171.5,-167.5"/>
<text text-anchor="middle" x="195.5" y="-174.5" font-family="Helvetica,sans-Serif" font-size="10.00">Service</text>
</a>
</g>
</g>
<!-- Node9&#45;&gt;Node8 -->
<g id="edge5" class="edge">
<title>Node9&#45;&gt;Node8</title>
<path fill="none" stroke="midnightblue" d="M199.84,-157.36C203.81,-140.36 209.49,-115.99 212.48,-103.16"/>
<polygon fill="midnightblue" stroke="midnightblue" points="196.4,-156.74 197.53,-167.28 203.21,-158.33 196.4,-156.74"/>
</g>
<!-- Node10 -->
<g id="node7" class="node">
<title>Node10</title>
<g id="a_node7"><a xlink:href="../../de/d80/classnap_1_1_signal.html" target="_top" xlink:title="Signal\&lt; nap::RenderWindow &amp;\&gt;">
<polygon fill="white" stroke="black" points="238,-167.5 238,-186.5 393,-186.5 393,-167.5 238,-167.5"/>
<text text-anchor="middle" x="315.5" y="-174.5" font-family="Helvetica,sans-Serif" font-size="10.00">Signal&lt; nap::RenderWindow &amp;&gt;</text>
</a>
</g>
</g>
<!-- Node10&#45;&gt;Node8 -->
<g id="edge6" class="edge">
<title>Node10&#45;&gt;Node8</title>
<path fill="none" stroke="#9a32cd" stroke-dasharray="5,2" d="M296.77,-160.89C275.72,-143.9 242.27,-116.91 225.23,-103.16"/>
<polygon fill="#9a32cd" stroke="#9a32cd" points="294.71,-163.72 304.69,-167.28 299.11,-158.27 294.71,-163.72"/>
<text text-anchor="middle" x="318" y="-141" font-family="Helvetica,sans-Serif" font-size="10.00"> windowRemoved</text>
<text text-anchor="middle" x="318" y="-130" font-family="Helvetica,sans-Serif" font-size="10.00">windowAdded</text>
</g>
<!-- Node11 -->
<g id="node8" class="node">
<title>Node11</title>
<g id="a_node8"><a xlink:href="../../d7/da0/classnap_1_1_vertex_attribute.html" target="_top" xlink:title="VertexAttribute\&lt; glm\l::vec3 \&gt;">
<polygon fill="white" stroke="black" points="50,-78.5 50,-108.5 157,-108.5 157,-78.5 50,-78.5"/>
<text text-anchor="start" x="58" y="-96.5" font-family="Helvetica,sans-Serif" font-size="10.00">VertexAttribute&lt; glm</text>
<text text-anchor="middle" x="103.5" y="-85.5" font-family="Helvetica,sans-Serif" font-size="10.00">::vec3 &gt;</text>
</a>
</g>
</g>
<!-- Node11&#45;&gt;Node4 -->
<g id="edge7" class="edge">
<title>Node11&#45;&gt;Node4</title>
<path fill="none" stroke="#9a32cd" stroke-dasharray="5,2" d="M108.54,-68.58C111.46,-58.48 115.92,-47 122.5,-38 127.94,-30.56 136.02,-24.24 143.14,-19.59"/>
<polygon fill="#9a32cd" stroke="#9a32cd" points="105.1,-67.89 106.01,-78.45 111.88,-69.63 105.1,-67.89"/>
<text text-anchor="middle" x="154.5" y="-52" font-family="Helvetica,sans-Serif" font-size="10.00"> mNormalsAttr</text>
<text text-anchor="middle" x="154.5" y="-41" font-family="Helvetica,sans-Serif" font-size="10.00">mPositionAttr</text>
</g>
<!-- Node12&#45;&gt;Node11 -->
<g id="edge8" class="edge">
<title>Node12&#45;&gt;Node11</title>
<path fill="none" stroke="midnightblue" d="M101.96,-157.23C102.32,-142.41 102.82,-122.05 103.15,-108.6"/>
<polygon fill="midnightblue" stroke="midnightblue" points="98.46,-157.2 101.71,-167.28 105.46,-157.37 98.46,-157.2"/>
</g>
<!-- Node13 -->
<g id="node10" class="node">
<title>Node13</title>
<g id="a_node10"><a xlink:href="../../dd/d7c/classnap_1_1rtti_1_1_object_ptr.html" target="_top" xlink:title="ObjectPtr\&lt; nap::IMesh \&gt;">
<polygon fill="white" stroke="black" points="354.5,-84 354.5,-103 478.5,-103 478.5,-84 354.5,-84"/>
<text text-anchor="middle" x="416.5" y="-91" font-family="Helvetica,sans-Serif" font-size="10.00">ObjectPtr&lt; nap::IMesh &gt;</text>
</a>
</g>
</g>
<!-- Node13&#45;&gt;Node4 -->
<g id="edge10" class="edge">
<title>Node13&#45;&gt;Node4</title>
<path fill="none" stroke="#9a32cd" stroke-dasharray="5,2" d="M388.23,-79.84C360.65,-67.85 317.31,-49.95 278.5,-38 254.32,-30.55 226.81,-24.21 204.24,-19.56"/>
<polygon fill="#9a32cd" stroke="#9a32cd" points="387.07,-83.15 397.63,-83.97 389.88,-76.74 387.07,-83.15"/>
<text text-anchor="middle" x="380" y="-46.5" font-family="Helvetica,sans-Serif" font-size="10.00"> mReferenceMesh</text>
</g>
<!-- Node14 -->
<g id="node11" class="node">
<title>Node14</title>
<g id="a_node11"><a xlink:href="../../d7/dcb/classnap_1_1rtti_1_1_object_ptr_base.html" target="_top" xlink:title="ObjectPtrBase">
<polygon fill="white" stroke="black" points="411.5,-167.5 411.5,-186.5 491.5,-186.5 491.5,-167.5 411.5,-167.5"/>
<text text-anchor="middle" x="451.5" y="-174.5" font-family="Helvetica,sans-Serif" font-size="10.00">ObjectPtrBase</text>
</a>
</g>
</g>
<!-- Node14&#45;&gt;Node13 -->
<g id="edge11" class="edge">
<title>Node14&#45;&gt;Node13</title>
<path fill="none" stroke="midnightblue" d="M443.7,-157.85C436.39,-140.83 425.78,-116.11 420.22,-103.16"/>
<polygon fill="midnightblue" stroke="midnightblue" points="440.59,-159.47 447.75,-167.28 447.02,-156.71 440.59,-159.47"/>
</g>
</g>
</svg>
