<?xml version="1.0" encoding="UTF-8" standalone="no"?>
<!DOCTYPE svg PUBLIC "-//W3C//DTD SVG 1.1//EN"
 "http://www.w3.org/Graphics/SVG/1.1/DTD/svg11.dtd">
<!-- Generated by graphviz version 2.43.0 (0)
 -->
<!-- Title: ScatterPointsMesh Pages: 1 -->
<svg width="548pt" height="298pt"
 viewBox="0.00 0.00 547.50 298.00" xmlns="http://www.w3.org/2000/svg" xmlns:xlink="http://www.w3.org/1999/xlink">
<g id="graph0" class="graph" transform="scale(1 1) rotate(0) translate(4 294)">
<title>ScatterPointsMesh</title>
<polygon fill="white" stroke="transparent" points="-4,4 -4,-294 543.5,-294 543.5,4 -4,4"/>
<!-- Node1 -->
<g id="node1" class="node">
<title>Node1</title>
<g id="a_node1"><a xlink:title=" ">
<polygon fill="#bfbfbf" stroke="black" points="165.5,-0.5 165.5,-19.5 272.5,-19.5 272.5,-0.5 165.5,-0.5"/>
<text text-anchor="middle" x="219" y="-7.5" font-family="Helvetica,sans-Serif" font-size="10.00">ScatterPointsMesh</text>
</a>
</g>
</g>
<!-- Node2 -->
<g id="node2" class="node">
<title>Node2</title>
<g id="a_node2"><a xlink:href="../../dd/dac/classnap_1_1_i_mesh.html" target="_top" xlink:title=" ">
<polygon fill="white" stroke="black" points="0,-117.5 0,-136.5 46,-136.5 46,-117.5 0,-117.5"/>
<text text-anchor="middle" x="23" y="-124.5" font-family="Helvetica,sans-Serif" font-size="10.00">IMesh</text>
</a>
</g>
</g>
<!-- Node2&#45;&gt;Node1 -->
<g id="edge1" class="edge">
<title>Node2&#45;&gt;Node1</title>
<path fill="none" stroke="midnightblue" d="M26.57,-107.33C29.3,-97.48 34.02,-85.86 42,-78 75.36,-45.14 126.42,-28.1 165.14,-19.46"/>
<polygon fill="midnightblue" stroke="midnightblue" points="23.08,-106.85 24.25,-117.38 29.9,-108.42 23.08,-106.85"/>
</g>
<!-- Node3 -->
<g id="node3" class="node">
<title>Node3</title>
<g id="a_node3"><a xlink:href="../../d9/dea/classnap_1_1_resource.html" target="_top" xlink:title=" ">
<polygon fill="white" stroke="black" points="4,-213.5 4,-232.5 66,-232.5 66,-213.5 4,-213.5"/>
<text text-anchor="middle" x="35" y="-220.5" font-family="Helvetica,sans-Serif" font-size="10.00">Resource</text>
</a>
</g>
</g>
<!-- Node3&#45;&gt;Node2 -->
<g id="edge2" class="edge">
<title>Node3&#45;&gt;Node2</title>
<path fill="none" stroke="midnightblue" d="M32.59,-203.14C30.01,-182.91 26.02,-151.68 24.1,-136.65"/>
<polygon fill="midnightblue" stroke="midnightblue" points="29.15,-203.85 33.89,-213.33 36.1,-202.96 29.15,-203.85"/>
</g>
<!-- Node9 -->
<g id="node9" class="node">
<title>Node9</title>
<g id="a_node9"><a xlink:href="../../d7/db2/classnap_1_1_base_vertex_attribute.html" target="_top" xlink:title=" ">
<polygon fill="white" stroke="black" points="51.5,-156.5 51.5,-175.5 166.5,-175.5 166.5,-156.5 51.5,-156.5"/>
<text text-anchor="middle" x="109" y="-163.5" font-family="Helvetica,sans-Serif" font-size="10.00">BaseVertexAttribute</text>
</a>
</g>
</g>
<!-- Node3&#45;&gt;Node9 -->
<g id="edge9" class="edge">
<title>Node3&#45;&gt;Node9</title>
<path fill="none" stroke="midnightblue" d="M54.8,-207.29C68.35,-197.21 85.88,-184.19 97.27,-175.71"/>
<polygon fill="midnightblue" stroke="midnightblue" points="52.5,-204.63 46.56,-213.41 56.68,-210.25 52.5,-204.63"/>
</g>
<!-- Node4 -->
<g id="node4" class="node">
<title>Node4</title>
<g id="a_node4"><a xlink:href="../../de/d01/classnap_1_1rtti_1_1_object.html" target="_top" xlink:title=" ">
<polygon fill="white" stroke="black" points="11,-270.5 11,-289.5 59,-289.5 59,-270.5 11,-270.5"/>
<text text-anchor="middle" x="35" y="-277.5" font-family="Helvetica,sans-Serif" font-size="10.00">Object</text>
</a>
</g>
</g>
<!-- Node4&#45;&gt;Node3 -->
<g id="edge3" class="edge">
<title>Node4&#45;&gt;Node3</title>
<path fill="none" stroke="midnightblue" d="M35,-260.12C35,-250.82 35,-240.06 35,-232.71"/>
<polygon fill="midnightblue" stroke="midnightblue" points="31.5,-260.41 35,-270.41 38.5,-260.41 31.5,-260.41"/>
</g>
<!-- Node5 -->
<g id="node5" class="node">
<title>Node5</title>
<g id="a_node5"><a xlink:href="../../d5/dc6/classnap_1_1_render_service.html" target="_top" xlink:title=" ">
<polygon fill="white" stroke="black" points="252.5,-78.5 252.5,-97.5 339.5,-97.5 339.5,-78.5 252.5,-78.5"/>
<text text-anchor="middle" x="296" y="-85.5" font-family="Helvetica,sans-Serif" font-size="10.00">RenderService</text>
</a>
</g>
</g>
<!-- Node5&#45;&gt;Node1 -->
<g id="edge4" class="edge">
<title>Node5&#45;&gt;Node1</title>
<path fill="none" stroke="#9a32cd" stroke-dasharray="5,2" d="M285.06,-69.73C278.27,-59.8 268.96,-47.45 259,-38 251.58,-30.97 242.15,-24.5 234.31,-19.67"/>
<polygon fill="#9a32cd" stroke="#9a32cd" points="282.31,-71.92 290.73,-78.35 288.15,-68.07 282.31,-71.92"/>
<text text-anchor="middle" x="320" y="-46.5" font-family="Helvetica,sans-Serif" font-size="10.00"> mRenderService</text>
</g>
<!-- Node6 -->
<g id="node6" class="node">
<title>Node6</title>
<g id="a_node6"><a xlink:href="../../d8/d8e/classnap_1_1_service.html" target="_top" xlink:title=" ">
<polygon fill="white" stroke="black" points="184.5,-156.5 184.5,-175.5 237.5,-175.5 237.5,-156.5 184.5,-156.5"/>
<text text-anchor="middle" x="211" y="-163.5" font-family="Helvetica,sans-Serif" font-size="10.00">Service</text>
</a>
</g>
</g>
<!-- Node6&#45;&gt;Node5 -->
<g id="edge5" class="edge">
<title>Node6&#45;&gt;Node5</title>
<path fill="none" stroke="midnightblue" d="M228.55,-149.3C246.07,-133.64 272.34,-110.16 286.36,-97.62"/>
<polygon fill="midnightblue" stroke="midnightblue" points="225.87,-147.01 220.75,-156.28 230.54,-152.23 225.87,-147.01"/>
</g>
<!-- Node7 -->
<g id="node7" class="node">
<title>Node7</title>
<g id="a_node7"><a xlink:href="../../de/d80/classnap_1_1_signal.html" target="_top" xlink:title=" ">
<polygon fill="white" stroke="black" points="255.5,-156.5 255.5,-175.5 432.5,-175.5 432.5,-156.5 255.5,-156.5"/>
<text text-anchor="middle" x="344" y="-163.5" font-family="Helvetica,sans-Serif" font-size="10.00">Signal&lt; nap::RenderWindow &amp; &gt;</text>
</a>
</g>
</g>
<!-- Node7&#45;&gt;Node5 -->
<g id="edge6" class="edge">
<title>Node7&#45;&gt;Node5</title>
<path fill="none" stroke="#9a32cd" stroke-dasharray="5,2" d="M332.99,-147.57C323.13,-131.95 309.07,-109.7 301.44,-97.62"/>
<polygon fill="#9a32cd" stroke="#9a32cd" points="330.19,-149.7 338.49,-156.28 336.11,-145.96 330.19,-149.7"/>
<text text-anchor="middle" x="370" y="-130" font-family="Helvetica,sans-Serif" font-size="10.00"> windowRemoved</text>
<text text-anchor="middle" x="370" y="-119" font-family="Helvetica,sans-Serif" font-size="10.00">windowAdded</text>
</g>
<!-- Node8 -->
<g id="node8" class="node">
<title>Node8</title>
<g id="a_node8"><a xlink:href="../../d7/da0/classnap_1_1_vertex_attribute.html" target="_top" xlink:title=" ">
<polygon fill="white" stroke="black" points="51.5,-78.5 51.5,-97.5 234.5,-97.5 234.5,-78.5 51.5,-78.5"/>
<text text-anchor="middle" x="143" y="-85.5" font-family="Helvetica,sans-Serif" font-size="10.00">VertexAttribute&lt; ELEMENTTYPE &gt;</text>
</a>
</g>
</g>
<!-- Node8&#45;&gt;Node1 -->
<g id="edge7" class="edge">
<title>Node8&#45;&gt;Node1</title>
<path fill="none" stroke="#9a32cd" stroke-dasharray="5,2" d="M156.32,-70.49C164.51,-60.69 175.42,-48.22 186,-38 192.81,-31.42 201.06,-24.67 207.61,-19.56"/>
<polygon fill="#9a32cd" stroke="#9a32cd" points="153.55,-68.35 149.9,-78.29 158.96,-72.79 153.55,-68.35"/>
<text text-anchor="middle" x="222.5" y="-52" font-family="Helvetica,sans-Serif" font-size="10.00"> mNormalsAttr</text>
<text text-anchor="middle" x="222.5" y="-41" font-family="Helvetica,sans-Serif" font-size="10.00">mPositionAttr</text>
</g>
<!-- Node9&#45;&gt;Node8 -->
<g id="edge8" class="edge">
<title>Node9&#45;&gt;Node8</title>
<path fill="none" stroke="midnightblue" d="M117,-147.12C123.97,-131.53 133.79,-109.59 139.15,-97.62"/>
<polygon fill="midnightblue" stroke="midnightblue" points="113.79,-145.72 112.9,-156.28 120.18,-148.58 113.79,-145.72"/>
</g>
<!-- Node10 -->
<g id="node10" class="node">
<title>Node10</title>
<g id="a_node10"><a xlink:href="../../dd/d7c/classnap_1_1rtti_1_1_object_ptr.html" target="_top" xlink:title=" ">
<polygon fill="white" stroke="black" points="402.5,-78.5 402.5,-97.5 539.5,-97.5 539.5,-78.5 402.5,-78.5"/>
<text text-anchor="middle" x="471" y="-85.5" font-family="Helvetica,sans-Serif" font-size="10.00">ObjectPtr&lt; nap::IMesh &gt;</text>
</a>
</g>
</g>
<!-- Node10&#45;&gt;Node1 -->
<g id="edge10" class="edge">
<title>Node10&#45;&gt;Node1</title>
<path fill="none" stroke="#9a32cd" stroke-dasharray="5,2" d="M446.77,-73.52C425.94,-62.47 394.78,-47.19 366,-38 335.72,-28.33 300.76,-21.73 272.53,-17.48"/>
<polygon fill="#9a32cd" stroke="#9a32cd" points="445.38,-76.75 455.85,-78.42 448.71,-70.59 445.38,-76.75"/>
<text text-anchor="middle" x="463.5" y="-46.5" font-family="Helvetica,sans-Serif" font-size="10.00"> mReferenceMesh</text>
</g>
<!-- Node11 -->
<g id="node11" class="node">
<title>Node11</title>
<g id="a_node11"><a xlink:href="../../d7/dcb/classnap_1_1rtti_1_1_object_ptr_base.html" target="_top" xlink:title=" ">
<polygon fill="white" stroke="black" points="451,-156.5 451,-175.5 537,-175.5 537,-156.5 451,-156.5"/>
<text text-anchor="middle" x="494" y="-163.5" font-family="Helvetica,sans-Serif" font-size="10.00">ObjectPtrBase</text>
</a>
</g>
</g>
<!-- Node11&#45;&gt;Node10 -->
<g id="edge11" class="edge">
<title>Node11&#45;&gt;Node10</title>
<path fill="none" stroke="midnightblue" d="M488.45,-146.67C483.74,-131.11 477.2,-109.47 473.61,-97.62"/>
<polygon fill="midnightblue" stroke="midnightblue" points="485.12,-147.72 491.36,-156.28 491.81,-145.7 485.12,-147.72"/>
</g>
</g>
</svg>
