<?xml version="1.0" encoding="UTF-8" standalone="no"?>
<!DOCTYPE svg PUBLIC "-//W3C//DTD SVG 1.1//EN"
 "http://www.w3.org/Graphics/SVG/1.1/DTD/svg11.dtd">
<!-- Generated by graphviz version 2.43.0 (0)
 -->
<!-- Title: RenderableTextComponentInstance Pages: 1 -->
<svg width="439pt" height="230pt"
 viewBox="0.00 0.00 438.50 230.00" xmlns="http://www.w3.org/2000/svg" xmlns:xlink="http://www.w3.org/1999/xlink">
<g id="graph0" class="graph" transform="scale(1 1) rotate(0) translate(4 226)">
<title>RenderableTextComponentInstance</title>
<polygon fill="white" stroke="transparent" points="-4,4 -4,-226 434.5,-226 434.5,4 -4,4"/>
<!-- Node1 -->
<g id="node1" class="node">
<title>Node1</title>
<g id="a_node1"><a xlink:title=" ">
<polygon fill="#bfbfbf" stroke="black" points="134,-0.5 134,-19.5 324,-19.5 324,-0.5 134,-0.5"/>
<text text-anchor="middle" x="229" y="-7.5" font-family="Helvetica,sans-Serif" font-size="10.00">RenderableTextComponentInstance</text>
</a>
</g>
</g>
<!-- Node2 -->
<g id="node2" class="node">
<title>Node2</title>
<g id="a_node2"><a xlink:href="../../dd/da0/classnap_1_1_renderable_component_instance.html" target="_top" xlink:title=" ">
<polygon fill="white" stroke="black" points="0,-67.5 0,-86.5 170,-86.5 170,-67.5 0,-67.5"/>
<text text-anchor="middle" x="85" y="-74.5" font-family="Helvetica,sans-Serif" font-size="10.00">RenderableComponentInstance</text>
</a>
</g>
</g>
<!-- Node2&#45;&gt;Node1 -->
<g id="edge1" class="edge">
<title>Node2&#45;&gt;Node1</title>
<path fill="none" stroke="midnightblue" d="M113.55,-63.11C142.07,-50.24 185.12,-30.81 209.8,-19.67"/>
<polygon fill="midnightblue" stroke="midnightblue" points="111.8,-60.06 104.12,-67.37 114.68,-66.44 111.8,-60.06"/>
</g>
<!-- Node3 -->
<g id="node3" class="node">
<title>Node3</title>
<g id="a_node3"><a xlink:href="../../d9/df2/classnap_1_1_component_instance.html" target="_top" xlink:title=" ">
<polygon fill="white" stroke="black" points="28,-145.5 28,-164.5 142,-164.5 142,-145.5 28,-145.5"/>
<text text-anchor="middle" x="85" y="-152.5" font-family="Helvetica,sans-Serif" font-size="10.00">ComponentInstance</text>
</a>
</g>
</g>
<!-- Node3&#45;&gt;Node2 -->
<g id="edge2" class="edge">
<title>Node3&#45;&gt;Node2</title>
<path fill="none" stroke="midnightblue" d="M85,-135.22C85,-119.7 85,-98.36 85,-86.62"/>
<polygon fill="midnightblue" stroke="midnightblue" points="81.5,-135.28 85,-145.28 88.5,-135.28 81.5,-135.28"/>
</g>
<!-- Node4 -->
<g id="node4" class="node">
<title>Node4</title>
<g id="a_node4"><a xlink:href="../../de/d01/classnap_1_1rtti_1_1_object.html" target="_top" xlink:title=" ">
<polygon fill="white" stroke="black" points="61,-202.5 61,-221.5 109,-221.5 109,-202.5 61,-202.5"/>
<text text-anchor="middle" x="85" y="-209.5" font-family="Helvetica,sans-Serif" font-size="10.00">Object</text>
</a>
</g>
</g>
<!-- Node4&#45;&gt;Node3 -->
<g id="edge3" class="edge">
<title>Node4&#45;&gt;Node3</title>
<path fill="none" stroke="midnightblue" d="M85,-192.12C85,-182.82 85,-172.06 85,-164.71"/>
<polygon fill="midnightblue" stroke="midnightblue" points="81.5,-192.41 85,-202.41 88.5,-192.41 81.5,-192.41"/>
</g>
<!-- Node5 -->
<g id="node5" class="node">
<title>Node5</title>
<g id="a_node5"><a xlink:href="../../d5/dc6/classnap_1_1_render_service.html" target="_top" xlink:title=" ">
<polygon fill="white" stroke="black" points="188.5,-67.5 188.5,-86.5 275.5,-86.5 275.5,-67.5 188.5,-67.5"/>
<text text-anchor="middle" x="232" y="-74.5" font-family="Helvetica,sans-Serif" font-size="10.00">RenderService</text>
</a>
</g>
</g>
<!-- Node5&#45;&gt;Node1 -->
<g id="edge4" class="edge">
<title>Node5&#45;&gt;Node1</title>
<path fill="none" stroke="#9a32cd" stroke-dasharray="5,2" d="M230.5,-57.38C230.31,-54.57 230.14,-51.71 230,-49 229.5,-38.98 229.24,-27.46 229.11,-19.76"/>
<polygon fill="#9a32cd" stroke="#9a32cd" points="227.02,-57.79 231.27,-67.49 234,-57.26 227.02,-57.79"/>
<text text-anchor="middle" x="272" y="-41" font-family="Helvetica,sans-Serif" font-size="10.00"> mRenderService</text>
</g>
<!-- Node6 -->
<g id="node6" class="node">
<title>Node6</title>
<g id="a_node6"><a xlink:href="../../d8/d8e/classnap_1_1_service.html" target="_top" xlink:title=" ">
<polygon fill="white" stroke="black" points="182.5,-145.5 182.5,-164.5 235.5,-164.5 235.5,-145.5 182.5,-145.5"/>
<text text-anchor="middle" x="209" y="-152.5" font-family="Helvetica,sans-Serif" font-size="10.00">Service</text>
</a>
</g>
</g>
<!-- Node6&#45;&gt;Node5 -->
<g id="edge5" class="edge">
<title>Node6&#45;&gt;Node5</title>
<path fill="none" stroke="midnightblue" d="M214.55,-135.67C219.26,-120.11 225.8,-98.47 229.39,-86.62"/>
<polygon fill="midnightblue" stroke="midnightblue" points="211.19,-134.7 211.64,-145.28 217.88,-136.72 211.19,-134.7"/>
</g>
<!-- Node7 -->
<g id="node7" class="node">
<title>Node7</title>
<g id="a_node7"><a xlink:href="../../de/d80/classnap_1_1_signal.html" target="_top" xlink:title=" ">
<polygon fill="white" stroke="black" points="253.5,-145.5 253.5,-164.5 430.5,-164.5 430.5,-145.5 253.5,-145.5"/>
<text text-anchor="middle" x="342" y="-152.5" font-family="Helvetica,sans-Serif" font-size="10.00">Signal&lt; nap::RenderWindow &amp; &gt;</text>
</a>
</g>
</g>
<!-- Node7&#45;&gt;Node5 -->
<g id="edge6" class="edge">
<title>Node7&#45;&gt;Node5</title>
<path fill="none" stroke="#9a32cd" stroke-dasharray="5,2" d="M321.11,-139.57C298.48,-123.93 263.12,-99.5 244.47,-86.62"/>
<polygon fill="#9a32cd" stroke="#9a32cd" points="319.16,-142.48 329.38,-145.28 323.14,-136.72 319.16,-142.48"/>
<text text-anchor="middle" x="344" y="-119" font-family="Helvetica,sans-Serif" font-size="10.00"> windowRemoved</text>
<text text-anchor="middle" x="344" y="-108" font-family="Helvetica,sans-Serif" font-size="10.00">windowAdded</text>
</g>
<!-- Node8 -->
<g id="node8" class="node">
<title>Node8</title>
<g id="a_node8"><a xlink:href="../../d0/dec/classnap_1_1_font_instance.html" target="_top" xlink:title=" ">
<polygon fill="white" stroke="black" points="296.5,-67.5 296.5,-86.5 375.5,-86.5 375.5,-67.5 296.5,-67.5"/>
<text text-anchor="middle" x="336" y="-74.5" font-family="Helvetica,sans-Serif" font-size="10.00">FontInstance</text>
</a>
</g>
</g>
<!-- Node8&#45;&gt;Node1 -->
<g id="edge7" class="edge">
<title>Node8&#45;&gt;Node1</title>
<path fill="none" stroke="#9a32cd" stroke-dasharray="5,2" d="M328.83,-57.66C325.29,-50.66 320.39,-43.13 314,-38 303.38,-29.47 290.01,-23.61 277.05,-19.6"/>
<polygon fill="#9a32cd" stroke="#9a32cd" points="325.8,-59.47 333.05,-67.2 332.21,-56.64 325.8,-59.47"/>
<text text-anchor="middle" x="340" y="-41" font-family="Helvetica,sans-Serif" font-size="10.00"> mFont</text>
</g>
</g>
</svg>
