<?xml version="1.0" encoding="UTF-8" standalone="no"?>
<!DOCTYPE svg PUBLIC "-//W3C//DTD SVG 1.1//EN"
 "http://www.w3.org/Graphics/SVG/1.1/DTD/svg11.dtd">
<!-- Generated by graphviz version 3.0.0 (20220226.1711)
 -->
<!-- Title: BoxMesh Pages: 1 -->
<svg width="180pt" height="209pt"
 viewBox="0.00 0.00 179.50 209.00" xmlns="http://www.w3.org/2000/svg" xmlns:xlink="http://www.w3.org/1999/xlink">
<g id="graph0" class="graph" transform="scale(1 1) rotate(0) translate(4 205)">
<title>BoxMesh</title>
<polygon fill="white" stroke="transparent" points="-4,4 -4,-205 175.5,-205 175.5,4 -4,4"/>
<!-- Node4 -->
<g id="node1" class="node">
<title>Node4</title>
<polygon fill="#bfbfbf" stroke="black" points="45,-0.5 45,-19.5 103,-19.5 103,-0.5 45,-0.5"/>
<text text-anchor="middle" x="74" y="-7.5" font-family="Helvetica,sans-Serif" font-size="10.00">BoxMesh</text>
</g>
<!-- Node5 -->
<g id="node2" class="node">
<title>Node5</title>
<g id="a_node2"><a xlink:href="../../dd/dac/classnap_1_1_i_mesh.html" target="_top" xlink:title="IMesh">
<polygon fill="white" stroke="black" points="7.5,-67.5 7.5,-86.5 50.5,-86.5 50.5,-67.5 7.5,-67.5"/>
<text text-anchor="middle" x="29" y="-74.5" font-family="Helvetica,sans-Serif" font-size="10.00">IMesh</text>
</a>
</g>
</g>
<!-- Node5&#45;&gt;Node4 -->
<g id="edge1" class="edge">
<title>Node5&#45;&gt;Node4</title>
<path fill="none" stroke="midnightblue" d="M40.84,-58.9C49.58,-46.27 61.12,-29.6 68.03,-19.63"/>
<polygon fill="midnightblue" stroke="midnightblue" points="37.88,-57.02 35.07,-67.23 43.64,-61 37.88,-57.02"/>
</g>
<!-- Node6 -->
<g id="node3" class="node">
<title>Node6</title>
<g id="a_node3"><a xlink:href="../../d9/dea/classnap_1_1_resource.html" target="_top" xlink:title="Resource">
<polygon fill="white" stroke="black" points="0,-124.5 0,-143.5 58,-143.5 58,-124.5 0,-124.5"/>
<text text-anchor="middle" x="29" y="-131.5" font-family="Helvetica,sans-Serif" font-size="10.00">Resource</text>
</a>
</g>
</g>
<!-- Node6&#45;&gt;Node5 -->
<g id="edge2" class="edge">
<title>Node6&#45;&gt;Node5</title>
<path fill="none" stroke="midnightblue" d="M29,-114.12C29,-104.82 29,-94.06 29,-86.71"/>
<polygon fill="midnightblue" stroke="midnightblue" points="25.5,-114.41 29,-124.41 32.5,-114.41 25.5,-114.41"/>
</g>
<!-- Node7 -->
<g id="node4" class="node">
<title>Node7</title>
<g id="a_node4"><a xlink:href="../../de/d01/classnap_1_1rtti_1_1_object.html" target="_top" xlink:title="Object">
<polygon fill="white" stroke="black" points="6.5,-181.5 6.5,-200.5 51.5,-200.5 51.5,-181.5 6.5,-181.5"/>
<text text-anchor="middle" x="29" y="-188.5" font-family="Helvetica,sans-Serif" font-size="10.00">Object</text>
</a>
</g>
</g>
<!-- Node7&#45;&gt;Node6 -->
<g id="edge3" class="edge">
<title>Node7&#45;&gt;Node6</title>
<path fill="none" stroke="midnightblue" d="M29,-171.12C29,-161.82 29,-151.06 29,-143.71"/>
<polygon fill="midnightblue" stroke="midnightblue" points="25.5,-171.41 29,-181.41 32.5,-171.41 25.5,-171.41"/>
</g>
<!-- Node8 -->
<g id="node5" class="node">
<title>Node8</title>
<g id="a_node5"><a xlink:href="../../d6/db8/classnap_1_1_r_g_b_a_color.html" target="_top" xlink:title="RGBAColor\&lt; float \&gt;">
<polygon fill="white" stroke="black" points="68.5,-67.5 68.5,-86.5 171.5,-86.5 171.5,-67.5 68.5,-67.5"/>
<text text-anchor="middle" x="120" y="-74.5" font-family="Helvetica,sans-Serif" font-size="10.00">RGBAColor&lt; float &gt;</text>
</a>
</g>
</g>
<!-- Node8&#45;&gt;Node4 -->
<g id="edge4" class="edge">
<title>Node8&#45;&gt;Node4</title>
<path fill="none" stroke="#9a32cd" stroke-dasharray="5,2" d="M107.9,-58.9C98.96,-46.27 87.17,-29.6 80.11,-19.63"/>
<polygon fill="#9a32cd" stroke="#9a32cd" points="105.16,-61.09 113.8,-67.23 110.88,-57.05 105.16,-61.09"/>
<text text-anchor="middle" x="117" y="-41" font-family="Helvetica,sans-Serif" font-size="10.00"> mColor</text>
</g>
<!-- Node9 -->
<g id="node6" class="node">
<title>Node9</title>
<g id="a_node6"><a xlink:href="../../d6/d3d/classnap_1_1_color.html" target="_top" xlink:title="Color\&lt; float, 4 \&gt;">
<polygon fill="white" stroke="black" points="77,-124.5 77,-143.5 163,-143.5 163,-124.5 77,-124.5"/>
<text text-anchor="middle" x="120" y="-131.5" font-family="Helvetica,sans-Serif" font-size="10.00">Color&lt; float, 4 &gt;</text>
</a>
</g>
</g>
<!-- Node9&#45;&gt;Node8 -->
<g id="edge5" class="edge">
<title>Node9&#45;&gt;Node8</title>
<path fill="none" stroke="midnightblue" d="M120,-114.12C120,-104.82 120,-94.06 120,-86.71"/>
<polygon fill="midnightblue" stroke="midnightblue" points="116.5,-114.41 120,-124.41 123.5,-114.41 116.5,-114.41"/>
</g>
<!-- Node10 -->
<g id="node7" class="node">
<title>Node10</title>
<g id="a_node7"><a xlink:href="../../d8/d6a/classnap_1_1_base_color.html" target="_top" xlink:title="BaseColor">
<polygon fill="white" stroke="black" points="89,-181.5 89,-200.5 151,-200.5 151,-181.5 89,-181.5"/>
<text text-anchor="middle" x="120" y="-188.5" font-family="Helvetica,sans-Serif" font-size="10.00">BaseColor</text>
</a>
</g>
</g>
<!-- Node10&#45;&gt;Node9 -->
<g id="edge6" class="edge">
<title>Node10&#45;&gt;Node9</title>
<path fill="none" stroke="midnightblue" d="M120,-171.12C120,-161.82 120,-151.06 120,-143.71"/>
<polygon fill="midnightblue" stroke="midnightblue" points="116.5,-171.41 120,-181.41 123.5,-171.41 116.5,-171.41"/>
</g>
</g>
</svg>
