<?xml version="1.0" encoding="UTF-8" standalone="no"?>
<!DOCTYPE svg PUBLIC "-//W3C//DTD SVG 1.1//EN"
 "http://www.w3.org/Graphics/SVG/1.1/DTD/svg11.dtd">
<!-- Generated by graphviz version 3.0.0 (20220226.1711)
 -->
<!-- Title: SequenceTrackEvent Pages: 1 -->
<svg width="116pt" height="196pt"
 viewBox="0.00 0.00 116.00 196.00" xmlns="http://www.w3.org/2000/svg" xmlns:xlink="http://www.w3.org/1999/xlink">
<g id="graph0" class="graph" transform="scale(1 1) rotate(0) translate(4 192)">
<title>SequenceTrackEvent</title>
<polygon fill="white" stroke="transparent" points="-4,4 -4,-192 112,-192 112,4 -4,4"/>
<!-- Node4 -->
<g id="node1" class="node">
<title>Node4</title>
<polygon fill="#bfbfbf" stroke="black" points="0,-0.5 0,-19.5 108,-19.5 108,-0.5 0,-0.5"/>
<text text-anchor="middle" x="54" y="-7.5" font-family="Helvetica,sans-Serif" font-size="10.00">SequenceTrackEvent</text>
</g>
<!-- Node5 -->
<g id="node2" class="node">
<title>Node5</title>
<g id="a_node2"><a xlink:href="../../d5/d30/classnap_1_1_sequence_track.html" target="_top" xlink:title="SequenceTrack">
<polygon fill="white" stroke="black" points="12,-56.5 12,-75.5 96,-75.5 96,-56.5 12,-56.5"/>
<text text-anchor="middle" x="54" y="-63.5" font-family="Helvetica,sans-Serif" font-size="10.00">SequenceTrack</text>
</a>
</g>
</g>
<!-- Node5&#45;&gt;Node4 -->
<g id="edge1" class="edge">
<title>Node5&#45;&gt;Node4</title>
<path fill="none" stroke="midnightblue" d="M54,-45.8C54,-36.91 54,-26.78 54,-19.75"/>
<polygon fill="midnightblue" stroke="midnightblue" points="50.5,-46.08 54,-56.08 57.5,-46.08 50.5,-46.08"/>
</g>
<!-- Node6 -->
<g id="node3" class="node">
<title>Node6</title>
<g id="a_node3"><a xlink:href="../../d9/dea/classnap_1_1_resource.html" target="_top" xlink:title="Resource">
<polygon fill="white" stroke="black" points="25,-112.5 25,-131.5 83,-131.5 83,-112.5 25,-112.5"/>
<text text-anchor="middle" x="54" y="-119.5" font-family="Helvetica,sans-Serif" font-size="10.00">Resource</text>
</a>
</g>
</g>
<!-- Node6&#45;&gt;Node5 -->
<g id="edge2" class="edge">
<title>Node6&#45;&gt;Node5</title>
<path fill="none" stroke="midnightblue" d="M54,-101.8C54,-92.91 54,-82.78 54,-75.75"/>
<polygon fill="midnightblue" stroke="midnightblue" points="50.5,-102.08 54,-112.08 57.5,-102.08 50.5,-102.08"/>
</g>
<!-- Node7 -->
<g id="node4" class="node">
<title>Node7</title>
<g id="a_node4"><a xlink:href="../../de/d01/classnap_1_1rtti_1_1_object.html" target="_top" xlink:title="Object">
<polygon fill="white" stroke="black" points="31.5,-168.5 31.5,-187.5 76.5,-187.5 76.5,-168.5 31.5,-168.5"/>
<text text-anchor="middle" x="54" y="-175.5" font-family="Helvetica,sans-Serif" font-size="10.00">Object</text>
</a>
</g>
</g>
<!-- Node7&#45;&gt;Node6 -->
<g id="edge3" class="edge">
<title>Node7&#45;&gt;Node6</title>
<path fill="none" stroke="midnightblue" d="M54,-157.8C54,-148.91 54,-138.78 54,-131.75"/>
<polygon fill="midnightblue" stroke="midnightblue" points="50.5,-158.08 54,-168.08 57.5,-158.08 50.5,-158.08"/>
</g>
</g>
</svg>
