<?xml version="1.0" encoding="UTF-8" standalone="no"?>
<!DOCTYPE svg PUBLIC "-//W3C//DTD SVG 1.1//EN"
 "http://www.w3.org/Graphics/SVG/1.1/DTD/svg11.dtd">
<!-- Generated by graphviz version 3.0.0 (20220226.1711)
 -->
<!-- Title: RenderTexture2D Pages: 1 -->
<svg width="374pt" height="240pt"
 viewBox="0.00 0.00 373.50 240.00" xmlns="http://www.w3.org/2000/svg" xmlns:xlink="http://www.w3.org/1999/xlink">
<g id="graph0" class="graph" transform="scale(1 1) rotate(0) translate(4 236)">
<title>RenderTexture2D</title>
<polygon fill="white" stroke="transparent" points="-4,4 -4,-236 369.5,-236 369.5,4 -4,4"/>
<!-- Node4 -->
<g id="node1" class="node">
<title>Node4</title>
<polygon fill="#bfbfbf" stroke="black" points="161.5,-0.5 161.5,-19.5 253.5,-19.5 253.5,-0.5 161.5,-0.5"/>
<text text-anchor="middle" x="207.5" y="-7.5" font-family="Helvetica,sans-Serif" font-size="10.00">RenderTexture2D</text>
</g>
<!-- Node5 -->
<g id="node2" class="node">
<title>Node5</title>
<g id="a_node2"><a xlink:href="../../d6/d0e/classnap_1_1_texture2_d.html" target="_top" xlink:title="Texture2D">
<polygon fill="white" stroke="black" points="128,-67.5 128,-86.5 189,-86.5 189,-67.5 128,-67.5"/>
<text text-anchor="middle" x="158.5" y="-74.5" font-family="Helvetica,sans-Serif" font-size="10.00">Texture2D</text>
</a>
</g>
</g>
<!-- Node5&#45;&gt;Node4 -->
<g id="edge1" class="edge">
<title>Node5&#45;&gt;Node4</title>
<path fill="none" stroke="midnightblue" d="M171.39,-58.9C180.91,-46.27 193.48,-29.6 201,-19.63"/>
<polygon fill="midnightblue" stroke="midnightblue" points="168.33,-57.14 165.11,-67.23 173.92,-61.36 168.33,-57.14"/>
</g>
<!-- Node6 -->
<g id="node3" class="node">
<title>Node6</title>
<g id="a_node3"><a xlink:href="../../d9/dea/classnap_1_1_resource.html" target="_top" xlink:title="Resource">
<polygon fill="white" stroke="black" points="18.5,-134.5 18.5,-153.5 76.5,-153.5 76.5,-134.5 18.5,-134.5"/>
<text text-anchor="middle" x="47.5" y="-141.5" font-family="Helvetica,sans-Serif" font-size="10.00">Resource</text>
</a>
</g>
</g>
<!-- Node6&#45;&gt;Node5 -->
<g id="edge2" class="edge">
<title>Node6&#45;&gt;Node5</title>
<path fill="none" stroke="midnightblue" d="M71.21,-129.12C93.2,-116.24 125.24,-97.48 143.77,-86.63"/>
<polygon fill="midnightblue" stroke="midnightblue" points="69.33,-126.16 62.47,-134.23 72.87,-132.2 69.33,-126.16"/>
</g>
<!-- Node7 -->
<g id="node4" class="node">
<title>Node7</title>
<g id="a_node4"><a xlink:href="../../de/d01/classnap_1_1rtti_1_1_object.html" target="_top" xlink:title="Object">
<polygon fill="white" stroke="black" points="0,-212.5 0,-231.5 45,-231.5 45,-212.5 0,-212.5"/>
<text text-anchor="middle" x="22.5" y="-219.5" font-family="Helvetica,sans-Serif" font-size="10.00">Object</text>
</a>
</g>
</g>
<!-- Node7&#45;&gt;Node6 -->
<g id="edge3" class="edge">
<title>Node7&#45;&gt;Node6</title>
<path fill="none" stroke="midnightblue" d="M28.53,-202.67C33.65,-187.11 40.77,-165.47 44.67,-153.62"/>
<polygon fill="midnightblue" stroke="midnightblue" points="25.17,-201.69 25.37,-212.28 31.82,-203.88 25.17,-201.69"/>
</g>
<!-- Node8 -->
<g id="node5" class="node">
<title>Node8</title>
<g id="a_node5"><a xlink:href="../../d5/dc6/classnap_1_1_render_service.html" target="_top" xlink:title="RenderService">
<polygon fill="white" stroke="black" points="119,-134.5 119,-153.5 198,-153.5 198,-134.5 119,-134.5"/>
<text text-anchor="middle" x="158.5" y="-141.5" font-family="Helvetica,sans-Serif" font-size="10.00">RenderService</text>
</a>
</g>
</g>
<!-- Node8&#45;&gt;Node5 -->
<g id="edge4" class="edge">
<title>Node8&#45;&gt;Node5</title>
<path fill="none" stroke="#9a32cd" stroke-dasharray="5,2" d="M158.5,-124.04C158.5,-111.67 158.5,-96.12 158.5,-86.63"/>
<polygon fill="#9a32cd" stroke="#9a32cd" points="155,-124.23 158.5,-134.23 162,-124.23 155,-124.23"/>
<text text-anchor="middle" x="195.5" y="-108" font-family="Helvetica,sans-Serif" font-size="10.00"> mRenderService</text>
</g>
<!-- Node9 -->
<g id="node6" class="node">
<title>Node9</title>
<g id="a_node6"><a xlink:href="../../d8/d8e/classnap_1_1_service.html" target="_top" xlink:title="Service">
<polygon fill="white" stroke="black" points="63.5,-212.5 63.5,-231.5 111.5,-231.5 111.5,-212.5 63.5,-212.5"/>
<text text-anchor="middle" x="87.5" y="-219.5" font-family="Helvetica,sans-Serif" font-size="10.00">Service</text>
</a>
</g>
</g>
<!-- Node9&#45;&gt;Node8 -->
<g id="edge5" class="edge">
<title>Node9&#45;&gt;Node8</title>
<path fill="none" stroke="midnightblue" d="M102.56,-204.88C117.19,-189.22 138.84,-166.04 150.45,-153.62"/>
<polygon fill="midnightblue" stroke="midnightblue" points="99.91,-202.59 95.64,-212.28 105.03,-207.36 99.91,-202.59"/>
</g>
<!-- Node10 -->
<g id="node7" class="node">
<title>Node10</title>
<g id="a_node7"><a xlink:href="../../de/d80/classnap_1_1_signal.html" target="_top" xlink:title="Signal\&lt; nap::RenderWindow &amp;\&gt;">
<polygon fill="white" stroke="black" points="130,-212.5 130,-231.5 285,-231.5 285,-212.5 130,-212.5"/>
<text text-anchor="middle" x="207.5" y="-219.5" font-family="Helvetica,sans-Serif" font-size="10.00">Signal&lt; nap::RenderWindow &amp;&gt;</text>
</a>
</g>
</g>
<!-- Node10&#45;&gt;Node8 -->
<g id="edge6" class="edge">
<title>Node10&#45;&gt;Node8</title>
<path fill="none" stroke="#9a32cd" stroke-dasharray="5,2" d="M196.26,-203.57C186.19,-187.95 171.85,-165.7 164.06,-153.62"/>
<polygon fill="#9a32cd" stroke="#9a32cd" points="193.52,-205.77 201.88,-212.28 199.4,-201.98 193.52,-205.77"/>
<text text-anchor="middle" x="227" y="-186" font-family="Helvetica,sans-Serif" font-size="10.00"> windowRemoved</text>
<text text-anchor="middle" x="227" y="-175" font-family="Helvetica,sans-Serif" font-size="10.00">windowAdded</text>
</g>
<!-- Node11 -->
<g id="node8" class="node">
<title>Node11</title>
<g id="a_node8"><a xlink:href="../../d6/db8/classnap_1_1_r_g_b_a_color.html" target="_top" xlink:title="RGBAColor\&lt; float \&gt;">
<polygon fill="white" stroke="black" points="238,-67.5 238,-86.5 341,-86.5 341,-67.5 238,-67.5"/>
<text text-anchor="middle" x="289.5" y="-74.5" font-family="Helvetica,sans-Serif" font-size="10.00">RGBAColor&lt; float &gt;</text>
</a>
</g>
</g>
<!-- Node11&#45;&gt;Node4 -->
<g id="edge7" class="edge">
<title>Node11&#45;&gt;Node4</title>
<path fill="none" stroke="#9a32cd" stroke-dasharray="5,2" d="M270.22,-60.71C254.06,-47.91 231.58,-30.09 218.38,-19.63"/>
<polygon fill="#9a32cd" stroke="#9a32cd" points="268.43,-63.76 278.44,-67.23 272.78,-58.28 268.43,-63.76"/>
<text text-anchor="middle" x="282" y="-41" font-family="Helvetica,sans-Serif" font-size="10.00"> mClearColor</text>
</g>
<!-- Node12 -->
<g id="node9" class="node">
<title>Node12</title>
<g id="a_node9"><a xlink:href="../../d6/d3d/classnap_1_1_color.html" target="_top" xlink:title="Color\&lt; float, 4 \&gt;">
<polygon fill="white" stroke="black" points="275.5,-134.5 275.5,-153.5 361.5,-153.5 361.5,-134.5 275.5,-134.5"/>
<text text-anchor="middle" x="318.5" y="-141.5" font-family="Helvetica,sans-Serif" font-size="10.00">Color&lt; float, 4 &gt;</text>
</a>
</g>
</g>
<!-- Node12&#45;&gt;Node11 -->
<g id="edge8" class="edge">
<title>Node12&#45;&gt;Node11</title>
<path fill="none" stroke="midnightblue" d="M310.38,-124.79C304.81,-112.31 297.67,-96.31 293.35,-86.63"/>
<polygon fill="midnightblue" stroke="midnightblue" points="307.32,-126.53 314.59,-134.23 313.71,-123.68 307.32,-126.53"/>
</g>
<!-- Node13 -->
<g id="node10" class="node">
<title>Node13</title>
<g id="a_node10"><a xlink:href="../../d8/d6a/classnap_1_1_base_color.html" target="_top" xlink:title="BaseColor">
<polygon fill="white" stroke="black" points="303.5,-212.5 303.5,-231.5 365.5,-231.5 365.5,-212.5 303.5,-212.5"/>
<text text-anchor="middle" x="334.5" y="-219.5" font-family="Helvetica,sans-Serif" font-size="10.00">BaseColor</text>
</a>
</g>
</g>
<!-- Node13&#45;&gt;Node12 -->
<g id="edge9" class="edge">
<title>Node13&#45;&gt;Node12</title>
<path fill="none" stroke="midnightblue" d="M330.55,-202.22C327.28,-186.7 322.79,-165.36 320.31,-153.62"/>
<polygon fill="midnightblue" stroke="midnightblue" points="327.18,-203.22 332.66,-212.28 334.03,-201.78 327.18,-203.22"/>
</g>
</g>
</svg>
