<?xml version="1.0" encoding="UTF-8" standalone="no"?>
<!DOCTYPE svg PUBLIC "-//W3C//DTD SVG 1.1//EN"
 "http://www.w3.org/Graphics/SVG/1.1/DTD/svg11.dtd">
<!-- Generated by graphviz version 2.43.0 (0)
 -->
<!-- Title: UDPAdapter Pages: 1 -->
<svg width="162pt" height="196pt"
 viewBox="0.00 0.00 161.50 196.00" xmlns="http://www.w3.org/2000/svg" xmlns:xlink="http://www.w3.org/1999/xlink">
<g id="graph0" class="graph" transform="scale(1 1) rotate(0) translate(4 192)">
<title>UDPAdapter</title>
<polygon fill="white" stroke="transparent" points="-4,4 -4,-192 157.5,-192 157.5,4 -4,4"/>
<!-- Node1 -->
<g id="node1" class="node">
<title>Node1</title>
<g id="a_node1"><a xlink:title=" ">
<polygon fill="#bfbfbf" stroke="black" points="38.5,-56.5 38.5,-75.5 113.5,-75.5 113.5,-56.5 38.5,-56.5"/>
<text text-anchor="middle" x="76" y="-63.5" font-family="Helvetica,sans-Serif" font-size="10.00">UDPAdapter</text>
</a>
</g>
</g>
<!-- Node4 -->
<g id="node4" class="node">
<title>Node4</title>
<g id="a_node4"><a xlink:href="../../d3/d19/classnap_1_1_u_d_p_client.html" target="_top" xlink:title=" ">
<polygon fill="white" stroke="black" points="0,-0.5 0,-19.5 66,-19.5 66,-0.5 0,-0.5"/>
<text text-anchor="middle" x="33" y="-7.5" font-family="Helvetica,sans-Serif" font-size="10.00">UDPClient</text>
</a>
</g>
</g>
<!-- Node1&#45;&gt;Node4 -->
<g id="edge3" class="edge">
<title>Node1&#45;&gt;Node4</title>
<path fill="none" stroke="midnightblue" d="M62.58,-48.14C55.09,-38.74 46.06,-27.4 39.97,-19.75"/>
<polygon fill="midnightblue" stroke="midnightblue" points="59.93,-50.44 68.9,-56.08 65.41,-46.08 59.93,-50.44"/>
</g>
<!-- Node5 -->
<g id="node5" class="node">
<title>Node5</title>
<g id="a_node5"><a xlink:href="../../d6/d57/classnap_1_1_u_d_p_server.html" target="_top" xlink:title=" ">
<polygon fill="white" stroke="black" points="84.5,-0.5 84.5,-19.5 153.5,-19.5 153.5,-0.5 84.5,-0.5"/>
<text text-anchor="middle" x="119" y="-7.5" font-family="Helvetica,sans-Serif" font-size="10.00">UDPServer</text>
</a>
</g>
</g>
<!-- Node1&#45;&gt;Node5 -->
<g id="edge4" class="edge">
<title>Node1&#45;&gt;Node5</title>
<path fill="none" stroke="midnightblue" d="M89.42,-48.14C96.91,-38.74 105.94,-27.4 112.03,-19.75"/>
<polygon fill="midnightblue" stroke="midnightblue" points="86.59,-46.08 83.1,-56.08 92.07,-50.44 86.59,-46.08"/>
</g>
<!-- Node2 -->
<g id="node2" class="node">
<title>Node2</title>
<g id="a_node2"><a xlink:href="../../d9/dea/classnap_1_1_resource.html" target="_top" xlink:title=" ">
<polygon fill="white" stroke="black" points="45,-112.5 45,-131.5 107,-131.5 107,-112.5 45,-112.5"/>
<text text-anchor="middle" x="76" y="-119.5" font-family="Helvetica,sans-Serif" font-size="10.00">Resource</text>
</a>
</g>
</g>
<!-- Node2&#45;&gt;Node1 -->
<g id="edge1" class="edge">
<title>Node2&#45;&gt;Node1</title>
<path fill="none" stroke="midnightblue" d="M76,-101.8C76,-92.91 76,-82.78 76,-75.75"/>
<polygon fill="midnightblue" stroke="midnightblue" points="72.5,-102.08 76,-112.08 79.5,-102.08 72.5,-102.08"/>
</g>
<!-- Node3 -->
<g id="node3" class="node">
<title>Node3</title>
<g id="a_node3"><a xlink:href="../../de/d01/classnap_1_1rtti_1_1_object.html" target="_top" xlink:title=" ">
<polygon fill="white" stroke="black" points="52,-168.5 52,-187.5 100,-187.5 100,-168.5 52,-168.5"/>
<text text-anchor="middle" x="76" y="-175.5" font-family="Helvetica,sans-Serif" font-size="10.00">Object</text>
</a>
</g>
</g>
<!-- Node3&#45;&gt;Node2 -->
<g id="edge2" class="edge">
<title>Node3&#45;&gt;Node2</title>
<path fill="none" stroke="midnightblue" d="M76,-157.8C76,-148.91 76,-138.78 76,-131.75"/>
<polygon fill="midnightblue" stroke="midnightblue" points="72.5,-158.08 76,-168.08 79.5,-158.08 72.5,-158.08"/>
</g>
</g>
</svg>
