<?xml version="1.0" encoding="UTF-8" standalone="no"?>
<!DOCTYPE svg PUBLIC "-//W3C//DTD SVG 1.1//EN"
 "http://www.w3.org/Graphics/SVG/1.1/DTD/svg11.dtd">
<!-- Generated by graphviz version 2.43.0 (0)
 -->
<!-- Title: WebSocketComponentInstance Pages: 1 -->
<svg width="602pt" height="225pt"
 viewBox="0.00 0.00 602.00 224.50" xmlns="http://www.w3.org/2000/svg" xmlns:xlink="http://www.w3.org/1999/xlink">
<g id="graph0" class="graph" transform="scale(1 1) rotate(0) translate(4 220.5)">
<title>WebSocketComponentInstance</title>
<polygon fill="white" stroke="transparent" points="-4,4 -4,-220.5 598,-220.5 598,4 -4,4"/>
<!-- Node1 -->
<g id="node1" class="node">
<title>Node1</title>
<g id="a_node1"><a xlink:title=" ">
<polygon fill="#bfbfbf" stroke="black" points="427,-104 427,-123 594,-123 594,-104 427,-104"/>
<text text-anchor="middle" x="510.5" y="-111" font-family="Helvetica,sans-Serif" font-size="10.00">WebSocketComponentInstance</text>
</a>
</g>
</g>
<!-- Node2 -->
<g id="node2" class="node">
<title>Node2</title>
<g id="a_node2"><a xlink:href="../../d9/df2/classnap_1_1_component_instance.html" target="_top" xlink:title=" ">
<polygon fill="white" stroke="black" points="134,-197 134,-216 248,-216 248,-197 134,-197"/>
<text text-anchor="middle" x="191" y="-204" font-family="Helvetica,sans-Serif" font-size="10.00">ComponentInstance</text>
</a>
</g>
</g>
<!-- Node2&#45;&gt;Node1 -->
<g id="edge1" class="edge">
<title>Node2&#45;&gt;Node1</title>
<path fill="none" stroke="midnightblue" d="M258.26,-195.46C271.15,-193.04 284.53,-190.35 297,-187.5 347.35,-176 360.26,-173.59 409,-156.5 437.48,-146.52 469.35,-132.35 489.41,-123.04"/>
<polygon fill="midnightblue" stroke="midnightblue" points="257.25,-192.08 248.05,-197.33 258.51,-198.97 257.25,-192.08"/>
</g>
<!-- Node3 -->
<g id="node3" class="node">
<title>Node3</title>
<g id="a_node3"><a xlink:href="../../de/d01/classnap_1_1rtti_1_1_object.html" target="_top" xlink:title=" ">
<polygon fill="white" stroke="black" points="0,-197 0,-216 48,-216 48,-197 0,-197"/>
<text text-anchor="middle" x="24" y="-204" font-family="Helvetica,sans-Serif" font-size="10.00">Object</text>
</a>
</g>
</g>
<!-- Node3&#45;&gt;Node2 -->
<g id="edge2" class="edge">
<title>Node3&#45;&gt;Node2</title>
<path fill="none" stroke="midnightblue" d="M58.58,-206.5C80.17,-206.5 108.75,-206.5 133.75,-206.5"/>
<polygon fill="midnightblue" stroke="midnightblue" points="58.29,-203 48.29,-206.5 58.29,-210 58.29,-203"/>
</g>
<!-- Node4 -->
<g id="node4" class="node">
<title>Node4</title>
<g id="a_node4"><a xlink:href="../../de/d80/classnap_1_1_signal.html" target="_top" xlink:title=" ">
<polygon fill="white" stroke="black" points="85,-147.5 85,-177.5 297,-177.5 297,-147.5 85,-147.5"/>
<text text-anchor="start" x="93" y="-165.5" font-family="Helvetica,sans-Serif" font-size="10.00">Signal&lt; const nap::</text>
<text text-anchor="middle" x="191" y="-154.5" font-family="Helvetica,sans-Serif" font-size="10.00">WebSocketConnectionOpenedEvent &amp; &gt;</text>
</a>
</g>
</g>
<!-- Node4&#45;&gt;Node1 -->
<g id="edge3" class="edge">
<title>Node4&#45;&gt;Node1</title>
<path fill="none" stroke="#9a32cd" stroke-dasharray="5,2" d="M299.51,-145.91C348.9,-138.29 405.7,-129.52 447.76,-123.03"/>
<polygon fill="#9a32cd" stroke="#9a32cd" points="298.77,-142.48 289.42,-147.47 299.84,-149.4 298.77,-142.48"/>
<text text-anchor="middle" x="362" y="-144.5" font-family="Helvetica,sans-Serif" font-size="10.00"> connectionOpened</text>
</g>
<!-- Node5 -->
<g id="node5" class="node">
<title>Node5</title>
<g id="a_node5"><a xlink:href="../../de/d80/classnap_1_1_signal.html" target="_top" xlink:title=" ">
<polygon fill="white" stroke="black" points="87.5,-98.5 87.5,-128.5 294.5,-128.5 294.5,-98.5 87.5,-98.5"/>
<text text-anchor="start" x="95.5" y="-116.5" font-family="Helvetica,sans-Serif" font-size="10.00">Signal&lt; const nap::</text>
<text text-anchor="middle" x="191" y="-105.5" font-family="Helvetica,sans-Serif" font-size="10.00">WebSocketConnectionClosedEvent &amp; &gt;</text>
</a>
</g>
</g>
<!-- Node5&#45;&gt;Node1 -->
<g id="edge4" class="edge">
<title>Node5&#45;&gt;Node1</title>
<path fill="none" stroke="#9a32cd" stroke-dasharray="5,2" d="M304.77,-113.5C345,-113.5 389.55,-113.5 426.78,-113.5"/>
<polygon fill="#9a32cd" stroke="#9a32cd" points="304.64,-110 294.64,-113.5 304.64,-117 304.64,-110"/>
<text text-anchor="middle" x="362" y="-116.5" font-family="Helvetica,sans-Serif" font-size="10.00"> connectionClosed</text>
</g>
<!-- Node6 -->
<g id="node6" class="node">
<title>Node6</title>
<g id="a_node6"><a xlink:href="../../de/d80/classnap_1_1_signal.html" target="_top" xlink:title=" ">
<polygon fill="white" stroke="black" points="87,-49.5 87,-79.5 295,-79.5 295,-49.5 87,-49.5"/>
<text text-anchor="start" x="95" y="-67.5" font-family="Helvetica,sans-Serif" font-size="10.00">Signal&lt; const nap::</text>
<text text-anchor="middle" x="191" y="-56.5" font-family="Helvetica,sans-Serif" font-size="10.00">WebSocketMessageReceivedEvent &amp; &gt;</text>
</a>
</g>
</g>
<!-- Node6&#45;&gt;Node1 -->
<g id="edge5" class="edge">
<title>Node6&#45;&gt;Node1</title>
<path fill="none" stroke="#9a32cd" stroke-dasharray="5,2" d="M299.51,-81.09C348.9,-88.71 405.7,-97.48 447.76,-103.97"/>
<polygon fill="#9a32cd" stroke="#9a32cd" points="299.84,-77.6 289.42,-79.53 298.77,-84.52 299.84,-77.6"/>
<text text-anchor="middle" x="362" y="-100.5" font-family="Helvetica,sans-Serif" font-size="10.00"> messageReceived</text>
</g>
<!-- Node7 -->
<g id="node7" class="node">
<title>Node7</title>
<g id="a_node7"><a xlink:href="../../de/d80/classnap_1_1_signal.html" target="_top" xlink:title=" ">
<polygon fill="white" stroke="black" points="89.5,-0.5 89.5,-30.5 292.5,-30.5 292.5,-0.5 89.5,-0.5"/>
<text text-anchor="start" x="97.5" y="-18.5" font-family="Helvetica,sans-Serif" font-size="10.00">Signal&lt; const nap::</text>
<text text-anchor="middle" x="191" y="-7.5" font-family="Helvetica,sans-Serif" font-size="10.00">WebSocketConnectionFailedEvent &amp; &gt;</text>
</a>
</g>
</g>
<!-- Node7&#45;&gt;Node1 -->
<g id="edge6" class="edge">
<title>Node7&#45;&gt;Node1</title>
<path fill="none" stroke="#9a32cd" stroke-dasharray="5,2" d="M276.15,-32.76C316.78,-42.03 365.95,-54.61 409,-69.5 437.98,-79.52 470.26,-94.34 490.22,-103.96"/>
<polygon fill="#9a32cd" stroke="#9a32cd" points="276.8,-29.32 266.28,-30.54 275.26,-36.15 276.8,-29.32"/>
<text text-anchor="middle" x="362" y="-72.5" font-family="Helvetica,sans-Serif" font-size="10.00"> connectionFailed</text>
</g>
</g>
</svg>
