<?xml version="1.0" encoding="UTF-8" standalone="no"?>
<!DOCTYPE svg PUBLIC "-//W3C//DTD SVG 1.1//EN"
 "http://www.w3.org/Graphics/SVG/1.1/DTD/svg11.dtd">
<!-- Generated by graphviz version 2.48.0 (20210717.1556)
 -->
<!-- Title: WebSocketComponentInstance Pages: 1 -->
<svg width="555pt" height="225pt"
 viewBox="0.00 0.00 555.00 224.50" xmlns="http://www.w3.org/2000/svg" xmlns:xlink="http://www.w3.org/1999/xlink">
<g id="graph0" class="graph" transform="scale(1 1) rotate(0) translate(4 220.5)">
<title>WebSocketComponentInstance</title>
<polygon fill="white" stroke="transparent" points="-4,4 -4,-220.5 551,-220.5 551,4 -4,4"/>
<!-- Node3 -->
<g id="node1" class="node">
<title>Node3</title>
<polygon fill="#bfbfbf" stroke="black" points="393,-104 393,-123 547,-123 547,-104 393,-104"/>
<text text-anchor="middle" x="470" y="-111" font-family="Helvetica,sans-Serif" font-size="10.00">WebSocketComponentInstance</text>
</g>
<!-- Node4 -->
<g id="node2" class="node">
<title>Node4</title>
<g id="a_node2"><a xlink:href="../../d9/df2/classnap_1_1_component_instance.html" target="_top" xlink:title="ComponentInstance">
<polygon fill="white" stroke="black" points="125.5,-197 125.5,-216 228.5,-216 228.5,-197 125.5,-197"/>
<text text-anchor="middle" x="177" y="-204" font-family="Helvetica,sans-Serif" font-size="10.00">ComponentInstance</text>
</a>
</g>
</g>
<!-- Node4&#45;&gt;Node3 -->
<g id="edge1" class="edge">
<title>Node4&#45;&gt;Node3</title>
<path fill="none" stroke="midnightblue" d="M238.94,-195.04C249.99,-192.72 261.37,-190.17 272,-187.5 318.37,-175.86 330.27,-173.37 375,-156.5 401.7,-146.43 431.49,-132.28 450.24,-123"/>
<polygon fill="midnightblue" stroke="midnightblue" points="238.02,-191.66 228.93,-197.1 239.43,-198.51 238.02,-191.66"/>
</g>
<!-- Node5 -->
<g id="node3" class="node">
<title>Node5</title>
<g id="a_node3"><a xlink:href="../../de/d01/classnap_1_1rtti_1_1_object.html" target="_top" xlink:title="Object">
<polygon fill="white" stroke="black" points="0,-197 0,-216 45,-216 45,-197 0,-197"/>
<text text-anchor="middle" x="22.5" y="-204" font-family="Helvetica,sans-Serif" font-size="10.00">Object</text>
</a>
</g>
</g>
<!-- Node5&#45;&gt;Node4 -->
<g id="edge2" class="edge">
<title>Node5&#45;&gt;Node4</title>
<path fill="none" stroke="midnightblue" d="M55.26,-206.5C75.5,-206.5 102.18,-206.5 125.31,-206.5"/>
<polygon fill="midnightblue" stroke="midnightblue" points="55.03,-203 45.03,-206.5 55.03,-210 55.03,-203"/>
</g>
<!-- Node6 -->
<g id="node4" class="node">
<title>Node6</title>
<g id="a_node4"><a xlink:href="../../de/d80/classnap_1_1_signal.html" target="_top" xlink:title="Signal\&lt; const nap::\lWebSocketConnectionClosedEvent &amp;\&gt;">
<polygon fill="white" stroke="black" points="84,-147.5 84,-177.5 270,-177.5 270,-147.5 84,-147.5"/>
<text text-anchor="start" x="92" y="-165.5" font-family="Helvetica,sans-Serif" font-size="10.00">Signal&lt; const nap::</text>
<text text-anchor="middle" x="177" y="-154.5" font-family="Helvetica,sans-Serif" font-size="10.00">WebSocketConnectionClosedEvent &amp;&gt;</text>
</a>
</g>
</g>
<!-- Node6&#45;&gt;Node3 -->
<g id="edge3" class="edge">
<title>Node6&#45;&gt;Node3</title>
<path fill="none" stroke="#9a32cd" stroke-dasharray="5,2" d="M277.39,-145.76C322.46,-138.18 374.11,-129.48 412.42,-123.03"/>
<polygon fill="#9a32cd" stroke="#9a32cd" points="276.57,-142.35 267.29,-147.47 277.73,-149.26 276.57,-142.35"/>
<text text-anchor="middle" x="332.5" y="-144.5" font-family="Helvetica,sans-Serif" font-size="10.00"> connectionClosed</text>
</g>
<!-- Node7 -->
<g id="node5" class="node">
<title>Node7</title>
<g id="a_node5"><a xlink:href="../../de/d80/classnap_1_1_signal.html" target="_top" xlink:title="Signal\&lt; const nap::\lWebSocketConnectionOpenedEvent &amp;\&gt;">
<polygon fill="white" stroke="black" points="82,-98.5 82,-128.5 272,-128.5 272,-98.5 82,-98.5"/>
<text text-anchor="start" x="90" y="-116.5" font-family="Helvetica,sans-Serif" font-size="10.00">Signal&lt; const nap::</text>
<text text-anchor="middle" x="177" y="-105.5" font-family="Helvetica,sans-Serif" font-size="10.00">WebSocketConnectionOpenedEvent &amp;&gt;</text>
</a>
</g>
</g>
<!-- Node7&#45;&gt;Node3 -->
<g id="edge4" class="edge">
<title>Node7&#45;&gt;Node3</title>
<path fill="none" stroke="#9a32cd" stroke-dasharray="5,2" d="M282.26,-113.5C318.72,-113.5 358.96,-113.5 392.72,-113.5"/>
<polygon fill="#9a32cd" stroke="#9a32cd" points="282.08,-110 272.08,-113.5 282.08,-117 282.08,-110"/>
<text text-anchor="middle" x="332.5" y="-116.5" font-family="Helvetica,sans-Serif" font-size="10.00"> connectionOpened</text>
</g>
<!-- Node8 -->
<g id="node6" class="node">
<title>Node8</title>
<g id="a_node6"><a xlink:href="../../de/d80/classnap_1_1_signal.html" target="_top" xlink:title="Signal\&lt; const nap::\lWebSocketConnectionFailedEvent &amp;\&gt;">
<polygon fill="white" stroke="black" points="86,-49.5 86,-79.5 268,-79.5 268,-49.5 86,-49.5"/>
<text text-anchor="start" x="94" y="-67.5" font-family="Helvetica,sans-Serif" font-size="10.00">Signal&lt; const nap::</text>
<text text-anchor="middle" x="177" y="-56.5" font-family="Helvetica,sans-Serif" font-size="10.00">WebSocketConnectionFailedEvent &amp;&gt;</text>
</a>
</g>
</g>
<!-- Node8&#45;&gt;Node3 -->
<g id="edge5" class="edge">
<title>Node8&#45;&gt;Node3</title>
<path fill="none" stroke="#9a32cd" stroke-dasharray="5,2" d="M277.39,-81.24C322.46,-88.82 374.11,-97.52 412.42,-103.97"/>
<polygon fill="#9a32cd" stroke="#9a32cd" points="277.73,-77.74 267.29,-79.53 276.57,-84.65 277.73,-77.74"/>
<text text-anchor="middle" x="332.5" y="-100.5" font-family="Helvetica,sans-Serif" font-size="10.00"> connectionFailed</text>
</g>
<!-- Node9 -->
<g id="node7" class="node">
<title>Node9</title>
<g id="a_node7"><a xlink:href="../../de/d80/classnap_1_1_signal.html" target="_top" xlink:title="Signal\&lt; const nap::\lWebSocketMessageReceivedEvent &amp;\&gt;">
<polygon fill="white" stroke="black" points="84,-0.5 84,-30.5 270,-30.5 270,-0.5 84,-0.5"/>
<text text-anchor="start" x="92" y="-18.5" font-family="Helvetica,sans-Serif" font-size="10.00">Signal&lt; const nap::</text>
<text text-anchor="middle" x="177" y="-7.5" font-family="Helvetica,sans-Serif" font-size="10.00">WebSocketMessageReceivedEvent &amp;&gt;</text>
</a>
</g>
</g>
<!-- Node9&#45;&gt;Node3 -->
<g id="edge6" class="edge">
<title>Node9&#45;&gt;Node3</title>
<path fill="none" stroke="#9a32cd" stroke-dasharray="5,2" d="M247.89,-33.07C256.03,-35.19 264.2,-37.37 272,-39.5 317.99,-52.07 330.39,-52.68 375,-69.5 401.98,-79.67 431.95,-94.32 450.64,-103.87"/>
<polygon fill="#9a32cd" stroke="#9a32cd" points="248.56,-29.63 238,-30.5 246.8,-36.4 248.56,-29.63"/>
<text text-anchor="middle" x="332.5" y="-72.5" font-family="Helvetica,sans-Serif" font-size="10.00"> messageReceived</text>
</g>
</g>
</svg>
