<?xml version="1.0" encoding="UTF-8" standalone="no"?>
<!DOCTYPE svg PUBLIC "-//W3C//DTD SVG 1.1//EN"
 "http://www.w3.org/Graphics/SVG/1.1/DTD/svg11.dtd">
<!-- Generated by graphviz version 2.43.0 (0)
 -->
<!-- Title: ControllerInputComponentInstance Pages: 1 -->
<svg width="678pt" height="176pt"
 viewBox="0.00 0.00 678.00 175.50" xmlns="http://www.w3.org/2000/svg" xmlns:xlink="http://www.w3.org/1999/xlink">
<g id="graph0" class="graph" transform="scale(1 1) rotate(0) translate(4 171.5)">
<title>ControllerInputComponentInstance</title>
<polygon fill="white" stroke="transparent" points="-4,4 -4,-171.5 674,-171.5 674,4 -4,4"/>
<!-- Node1 -->
<g id="node1" class="node">
<title>Node1</title>
<g id="a_node1"><a xlink:title=" ">
<polygon fill="#bfbfbf" stroke="black" points="524,-73.5 524,-103.5 670,-103.5 670,-73.5 524,-73.5"/>
<text text-anchor="start" x="532" y="-91.5" font-family="Helvetica,sans-Serif" font-size="10.00">ControllerInputComponent</text>
<text text-anchor="middle" x="597" y="-80.5" font-family="Helvetica,sans-Serif" font-size="10.00">Instance</text>
</a>
</g>
</g>
<!-- Node2 -->
<g id="node2" class="node">
<title>Node2</title>
<g id="a_node2"><a xlink:href="../../dc/da6/classnap_1_1_input_component_instance.html" target="_top" xlink:title=" ">
<polygon fill="white" stroke="black" points="259,-148 259,-167 398,-167 398,-148 259,-148"/>
<text text-anchor="middle" x="328.5" y="-155" font-family="Helvetica,sans-Serif" font-size="10.00">InputComponentInstance</text>
</a>
</g>
</g>
<!-- Node2&#45;&gt;Node1 -->
<g id="edge1" class="edge">
<title>Node2&#45;&gt;Node1</title>
<path fill="none" stroke="midnightblue" d="M387.61,-145.88C398.72,-143.53 410.23,-141.01 421,-138.5 459,-129.64 468.47,-127.19 506,-116.5 520.01,-112.51 535.15,-107.91 548.95,-103.61"/>
<polygon fill="midnightblue" stroke="midnightblue" points="386.63,-142.5 377.56,-147.98 388.06,-149.36 386.63,-142.5"/>
</g>
<!-- Node3 -->
<g id="node3" class="node">
<title>Node3</title>
<g id="a_node3"><a xlink:href="../../d9/df2/classnap_1_1_component_instance.html" target="_top" xlink:title=" ">
<polygon fill="white" stroke="black" points="85,-148 85,-167 199,-167 199,-148 85,-148"/>
<text text-anchor="middle" x="142" y="-155" font-family="Helvetica,sans-Serif" font-size="10.00">ComponentInstance</text>
</a>
</g>
</g>
<!-- Node3&#45;&gt;Node2 -->
<g id="edge2" class="edge">
<title>Node3&#45;&gt;Node2</title>
<path fill="none" stroke="midnightblue" d="M209.49,-157.5C225.57,-157.5 242.79,-157.5 258.96,-157.5"/>
<polygon fill="midnightblue" stroke="midnightblue" points="209.11,-154 199.11,-157.5 209.11,-161 209.11,-154"/>
</g>
<!-- Node4 -->
<g id="node4" class="node">
<title>Node4</title>
<g id="a_node4"><a xlink:href="../../de/d01/classnap_1_1rtti_1_1_object.html" target="_top" xlink:title=" ">
<polygon fill="white" stroke="black" points="0,-148 0,-167 48,-167 48,-148 0,-148"/>
<text text-anchor="middle" x="24" y="-155" font-family="Helvetica,sans-Serif" font-size="10.00">Object</text>
</a>
</g>
</g>
<!-- Node4&#45;&gt;Node3 -->
<g id="edge3" class="edge">
<title>Node4&#45;&gt;Node3</title>
<path fill="none" stroke="midnightblue" d="M58.2,-157.5C66.5,-157.5 75.64,-157.5 84.72,-157.5"/>
<polygon fill="midnightblue" stroke="midnightblue" points="58.2,-154 48.2,-157.5 58.2,-161 58.2,-154"/>
</g>
<!-- Node5 -->
<g id="node5" class="node">
<title>Node5</title>
<g id="a_node5"><a xlink:href="../../de/d80/classnap_1_1_signal.html" target="_top" xlink:title=" ">
<polygon fill="white" stroke="black" points="236,-98.5 236,-128.5 421,-128.5 421,-98.5 236,-98.5"/>
<text text-anchor="start" x="244" y="-116.5" font-family="Helvetica,sans-Serif" font-size="10.00">Signal&lt; const nap::</text>
<text text-anchor="middle" x="328.5" y="-105.5" font-family="Helvetica,sans-Serif" font-size="10.00">ControllerButtonReleaseEvent &amp; &gt;</text>
</a>
</g>
</g>
<!-- Node5&#45;&gt;Node1 -->
<g id="edge4" class="edge">
<title>Node5&#45;&gt;Node1</title>
<path fill="none" stroke="#9a32cd" stroke-dasharray="5,2" d="M431.56,-103.93C462.34,-101.04 495.49,-97.93 523.89,-95.26"/>
<polygon fill="#9a32cd" stroke="#9a32cd" points="430.84,-100.48 421.21,-104.9 431.5,-107.45 430.84,-100.48"/>
<text text-anchor="middle" x="472.5" y="-104.5" font-family="Helvetica,sans-Serif" font-size="10.00"> released</text>
</g>
<!-- Node6 -->
<g id="node6" class="node">
<title>Node6</title>
<g id="a_node6"><a xlink:href="../../de/d80/classnap_1_1_signal.html" target="_top" xlink:title=" ">
<polygon fill="white" stroke="black" points="261,-49.5 261,-79.5 396,-79.5 396,-49.5 261,-49.5"/>
<text text-anchor="start" x="269" y="-67.5" font-family="Helvetica,sans-Serif" font-size="10.00">Signal&lt; const nap::</text>
<text text-anchor="middle" x="328.5" y="-56.5" font-family="Helvetica,sans-Serif" font-size="10.00">ControllerAxisEvent &amp; &gt;</text>
</a>
</g>
</g>
<!-- Node6&#45;&gt;Node1 -->
<g id="edge5" class="edge">
<title>Node6&#45;&gt;Node1</title>
<path fill="none" stroke="#9a32cd" stroke-dasharray="5,2" d="M406.29,-71.42C443.27,-74.75 487.37,-78.72 523.74,-81.99"/>
<polygon fill="#9a32cd" stroke="#9a32cd" points="406.34,-67.91 396.06,-70.49 405.71,-74.88 406.34,-67.91"/>
<text text-anchor="middle" x="472.5" y="-82.5" font-family="Helvetica,sans-Serif" font-size="10.00"> axisChanged</text>
</g>
<!-- Node7 -->
<g id="node7" class="node">
<title>Node7</title>
<g id="a_node7"><a xlink:href="../../de/d80/classnap_1_1_signal.html" target="_top" xlink:title=" ">
<polygon fill="white" stroke="black" points="242,-0.5 242,-30.5 415,-30.5 415,-0.5 242,-0.5"/>
<text text-anchor="start" x="250" y="-18.5" font-family="Helvetica,sans-Serif" font-size="10.00">Signal&lt; const nap::</text>
<text text-anchor="middle" x="328.5" y="-7.5" font-family="Helvetica,sans-Serif" font-size="10.00">ControllerButtonPressEvent &amp; &gt;</text>
</a>
</g>
</g>
<!-- Node7&#45;&gt;Node1 -->
<g id="edge6" class="edge">
<title>Node7&#45;&gt;Node1</title>
<path fill="none" stroke="#9a32cd" stroke-dasharray="5,2" d="M404.35,-32.98C435.86,-40.64 472.84,-50.04 506,-59.5 520.84,-63.74 536.91,-68.77 551.32,-73.45"/>
<polygon fill="#9a32cd" stroke="#9a32cd" points="404.87,-29.5 394.33,-30.55 403.22,-36.31 404.87,-29.5"/>
<text text-anchor="middle" x="472.5" y="-62.5" font-family="Helvetica,sans-Serif" font-size="10.00"> pressed</text>
</g>
</g>
</svg>
