<?xml version="1.0" encoding="UTF-8" standalone="no"?>
<!DOCTYPE svg PUBLIC "-//W3C//DTD SVG 1.1//EN"
 "http://www.w3.org/Graphics/SVG/1.1/DTD/svg11.dtd">
<!-- Generated by graphviz version 2.43.0 (0)
 -->
<!-- Title: InstancePropertyValue Pages: 1 -->
<svg width="437pt" height="116pt"
 viewBox="0.00 0.00 437.00 115.50" xmlns="http://www.w3.org/2000/svg" xmlns:xlink="http://www.w3.org/1999/xlink">
<g id="graph0" class="graph" transform="scale(1 1) rotate(0) translate(4 111.5)">
<title>InstancePropertyValue</title>
<polygon fill="white" stroke="transparent" points="-4,4 -4,-111.5 433,-111.5 433,4 -4,4"/>
<!-- Node1 -->
<g id="node1" class="node">
<title>Node1</title>
<g id="a_node1"><a xlink:title=" ">
<polygon fill="#bfbfbf" stroke="black" points="84,-38.5 84,-57.5 210,-57.5 210,-38.5 84,-38.5"/>
<text text-anchor="middle" x="147" y="-45.5" font-family="Helvetica,sans-Serif" font-size="10.00">InstancePropertyValue</text>
</a>
</g>
</g>
<!-- Node3 -->
<g id="node3" class="node">
<title>Node3</title>
<g id="a_node3"><a xlink:href="../../d4/d7f/classnap_1_1_component_ptr_instance_property_value.html" target="_top" xlink:title=" ">
<polygon fill="white" stroke="black" points="253,-77 253,-107 422,-107 422,-77 253,-77"/>
<text text-anchor="start" x="261" y="-95" font-family="Helvetica,sans-Serif" font-size="10.00">ComponentPtrInstanceProperty</text>
<text text-anchor="middle" x="337.5" y="-84" font-family="Helvetica,sans-Serif" font-size="10.00">Value</text>
</a>
</g>
</g>
<!-- Node1&#45;&gt;Node3 -->
<g id="edge2" class="edge">
<title>Node1&#45;&gt;Node3</title>
<path fill="none" stroke="midnightblue" d="M198.91,-59.88C221.4,-65.13 248.09,-71.36 271.96,-76.93"/>
<polygon fill="midnightblue" stroke="midnightblue" points="199.44,-56.41 188.9,-57.55 197.84,-63.23 199.44,-56.41"/>
</g>
<!-- Node4 -->
<g id="node4" class="node">
<title>Node4</title>
<g id="a_node4"><a xlink:href="../../d0/d4b/classnap_1_1_pointer_instance_property_value.html" target="_top" xlink:title=" ">
<polygon fill="white" stroke="black" points="257,-38.5 257,-57.5 418,-57.5 418,-38.5 257,-38.5"/>
<text text-anchor="middle" x="337.5" y="-45.5" font-family="Helvetica,sans-Serif" font-size="10.00">PointerInstancePropertyValue</text>
</a>
</g>
</g>
<!-- Node1&#45;&gt;Node4 -->
<g id="edge3" class="edge">
<title>Node1&#45;&gt;Node4</title>
<path fill="none" stroke="midnightblue" d="M220.54,-48C232.43,-48 244.8,-48 256.84,-48"/>
<polygon fill="midnightblue" stroke="midnightblue" points="220.24,-44.5 210.24,-48 220.24,-51.5 220.24,-44.5"/>
</g>
<!-- Node5 -->
<g id="node5" class="node">
<title>Node5</title>
<g id="a_node5"><a xlink:href="../../d9/dc4/classnap_1_1_typed_instance_property_value.html" target="_top" xlink:title=" ">
<polygon fill="white" stroke="black" points="246,-0.5 246,-19.5 429,-19.5 429,-0.5 246,-0.5"/>
<text text-anchor="middle" x="337.5" y="-7.5" font-family="Helvetica,sans-Serif" font-size="10.00">TypedInstancePropertyValue&lt; T &gt;</text>
</a>
</g>
</g>
<!-- Node1&#45;&gt;Node5 -->
<g id="edge4" class="edge">
<title>Node1&#45;&gt;Node5</title>
<path fill="none" stroke="midnightblue" d="M205.59,-36.39C232.4,-30.99 263.9,-24.64 289.28,-19.52"/>
<polygon fill="midnightblue" stroke="midnightblue" points="204.68,-33 195.57,-38.41 206.06,-39.87 204.68,-33"/>
</g>
<!-- Node2 -->
<g id="node2" class="node">
<title>Node2</title>
<g id="a_node2"><a xlink:href="../../de/d01/classnap_1_1rtti_1_1_object.html" target="_top" xlink:title=" ">
<polygon fill="white" stroke="black" points="0,-38.5 0,-57.5 48,-57.5 48,-38.5 0,-38.5"/>
<text text-anchor="middle" x="24" y="-45.5" font-family="Helvetica,sans-Serif" font-size="10.00">Object</text>
</a>
</g>
</g>
<!-- Node2&#45;&gt;Node1 -->
<g id="edge1" class="edge">
<title>Node2&#45;&gt;Node1</title>
<path fill="none" stroke="midnightblue" d="M58.04,-48C66.06,-48 74.89,-48 83.77,-48"/>
<polygon fill="midnightblue" stroke="midnightblue" points="58.04,-44.5 48.04,-48 58.04,-51.5 58.04,-44.5"/>
</g>
</g>
</svg>
