<?xml version="1.0" encoding="UTF-8" standalone="no"?>
<!DOCTYPE svg PUBLIC "-//W3C//DTD SVG 1.1//EN"
 "http://www.w3.org/Graphics/SVG/1.1/DTD/svg11.dtd">
<!-- Generated by graphviz version 2.43.0 (0)
 -->
<!-- Title: VisualizeNormalsMesh Pages: 1 -->
<svg width="550pt" height="309pt"
 viewBox="0.00 0.00 549.50 309.00" xmlns="http://www.w3.org/2000/svg" xmlns:xlink="http://www.w3.org/1999/xlink">
<g id="graph0" class="graph" transform="scale(1 1) rotate(0) translate(4 305)">
<title>VisualizeNormalsMesh</title>
<polygon fill="white" stroke="transparent" points="-4,4 -4,-305 545.5,-305 545.5,4 -4,4"/>
<!-- Node1 -->
<g id="node1" class="node">
<title>Node1</title>
<g id="a_node1"><a xlink:title=" ">
<polygon fill="#bfbfbf" stroke="black" points="140,-0.5 140,-19.5 268,-19.5 268,-0.5 140,-0.5"/>
<text text-anchor="middle" x="204" y="-7.5" font-family="Helvetica,sans-Serif" font-size="10.00">VisualizeNormalsMesh</text>
</a>
</g>
</g>
<!-- Node2 -->
<g id="node2" class="node">
<title>Node2</title>
<g id="a_node2"><a xlink:href="../../dd/dac/classnap_1_1_i_mesh.html" target="_top" xlink:title=" ">
<polygon fill="white" stroke="black" points="0,-89.5 0,-108.5 46,-108.5 46,-89.5 0,-89.5"/>
<text text-anchor="middle" x="23" y="-96.5" font-family="Helvetica,sans-Serif" font-size="10.00">IMesh</text>
</a>
</g>
</g>
<!-- Node2&#45;&gt;Node1 -->
<g id="edge1" class="edge">
<title>Node2&#45;&gt;Node1</title>
<path fill="none" stroke="midnightblue" d="M22.25,-79.12C22.79,-65.74 25.88,-48.38 37,-38 51.81,-24.17 99.19,-17.41 139.71,-14.11"/>
<polygon fill="midnightblue" stroke="midnightblue" points="18.75,-79.19 22.27,-89.19 25.75,-79.18 18.75,-79.19"/>
</g>
<!-- Node2&#45;&gt;Node1 -->
<g id="edge7" class="edge">
<title>Node2&#45;&gt;Node1</title>
<path fill="none" stroke="#9a32cd" stroke-dasharray="5,2" d="M31.06,-79.88C38.62,-63.25 49.29,-40.77 53,-38 66.81,-27.67 105.29,-20.89 139.94,-16.7"/>
<polygon fill="#9a32cd" stroke="#9a32cd" points="27.75,-78.7 26.85,-89.25 34.14,-81.57 27.75,-78.7"/>
<text text-anchor="middle" x="115.5" y="-52" font-family="Helvetica,sans-Serif" font-size="10.00"> mCurrentReferenceMesh</text>
</g>
<!-- Node3 -->
<g id="node3" class="node">
<title>Node3</title>
<g id="a_node3"><a xlink:href="../../d9/dea/classnap_1_1_resource.html" target="_top" xlink:title=" ">
<polygon fill="white" stroke="black" points="4,-224.5 4,-243.5 66,-243.5 66,-224.5 4,-224.5"/>
<text text-anchor="middle" x="35" y="-231.5" font-family="Helvetica,sans-Serif" font-size="10.00">Resource</text>
</a>
</g>
</g>
<!-- Node3&#45;&gt;Node2 -->
<g id="edge2" class="edge">
<title>Node3&#45;&gt;Node2</title>
<path fill="none" stroke="midnightblue" d="M33.3,-214.13C30.66,-184.88 25.69,-129.76 23.77,-108.59"/>
<polygon fill="midnightblue" stroke="midnightblue" points="29.83,-214.63 34.21,-224.27 36.8,-214 29.83,-214.63"/>
</g>
<!-- Node9 -->
<g id="node9" class="node">
<title>Node9</title>
<g id="a_node9"><a xlink:href="../../d7/db2/classnap_1_1_base_vertex_attribute.html" target="_top" xlink:title=" ">
<polygon fill="white" stroke="black" points="51.5,-167.5 51.5,-186.5 166.5,-186.5 166.5,-167.5 51.5,-167.5"/>
<text text-anchor="middle" x="109" y="-174.5" font-family="Helvetica,sans-Serif" font-size="10.00">BaseVertexAttribute</text>
</a>
</g>
</g>
<!-- Node3&#45;&gt;Node9 -->
<g id="edge10" class="edge">
<title>Node3&#45;&gt;Node9</title>
<path fill="none" stroke="midnightblue" d="M54.8,-218.29C68.35,-208.21 85.88,-195.19 97.27,-186.71"/>
<polygon fill="midnightblue" stroke="midnightblue" points="52.5,-215.63 46.56,-224.41 56.68,-221.25 52.5,-215.63"/>
</g>
<!-- Node4 -->
<g id="node4" class="node">
<title>Node4</title>
<g id="a_node4"><a xlink:href="../../de/d01/classnap_1_1rtti_1_1_object.html" target="_top" xlink:title=" ">
<polygon fill="white" stroke="black" points="11,-281.5 11,-300.5 59,-300.5 59,-281.5 11,-281.5"/>
<text text-anchor="middle" x="35" y="-288.5" font-family="Helvetica,sans-Serif" font-size="10.00">Object</text>
</a>
</g>
</g>
<!-- Node4&#45;&gt;Node3 -->
<g id="edge3" class="edge">
<title>Node4&#45;&gt;Node3</title>
<path fill="none" stroke="midnightblue" d="M35,-271.12C35,-261.82 35,-251.06 35,-243.71"/>
<polygon fill="midnightblue" stroke="midnightblue" points="31.5,-271.41 35,-281.41 38.5,-271.41 31.5,-271.41"/>
</g>
<!-- Node5 -->
<g id="node5" class="node">
<title>Node5</title>
<g id="a_node5"><a xlink:href="../../d5/dc6/classnap_1_1_render_service.html" target="_top" xlink:title=" ">
<polygon fill="white" stroke="black" points="265.5,-89.5 265.5,-108.5 352.5,-108.5 352.5,-89.5 265.5,-89.5"/>
<text text-anchor="middle" x="309" y="-96.5" font-family="Helvetica,sans-Serif" font-size="10.00">RenderService</text>
</a>
</g>
</g>
<!-- Node5&#45;&gt;Node1 -->
<g id="edge4" class="edge">
<title>Node5&#45;&gt;Node1</title>
<path fill="none" stroke="#9a32cd" stroke-dasharray="5,2" d="M302.31,-79.95C296.59,-66.74 287.19,-49.23 274,-38 264.18,-29.64 251.49,-23.71 239.61,-19.58"/>
<polygon fill="#9a32cd" stroke="#9a32cd" points="299.14,-81.45 306.11,-89.43 305.63,-78.84 299.14,-81.45"/>
<text text-anchor="middle" x="341" y="-52" font-family="Helvetica,sans-Serif" font-size="10.00"> mRenderService</text>
</g>
<!-- Node6 -->
<g id="node6" class="node">
<title>Node6</title>
<g id="a_node6"><a xlink:href="../../d8/d8e/classnap_1_1_service.html" target="_top" xlink:title=" ">
<polygon fill="white" stroke="black" points="184.5,-167.5 184.5,-186.5 237.5,-186.5 237.5,-167.5 184.5,-167.5"/>
<text text-anchor="middle" x="211" y="-174.5" font-family="Helvetica,sans-Serif" font-size="10.00">Service</text>
</a>
</g>
</g>
<!-- Node6&#45;&gt;Node5 -->
<g id="edge5" class="edge">
<title>Node6&#45;&gt;Node5</title>
<path fill="none" stroke="midnightblue" d="M230.15,-161.15C250.33,-145.5 281.43,-121.38 297.89,-108.62"/>
<polygon fill="midnightblue" stroke="midnightblue" points="228,-158.39 222.24,-167.28 232.29,-163.92 228,-158.39"/>
</g>
<!-- Node7 -->
<g id="node7" class="node">
<title>Node7</title>
<g id="a_node7"><a xlink:href="../../de/d80/classnap_1_1_signal.html" target="_top" xlink:title=" ">
<polygon fill="white" stroke="black" points="255.5,-167.5 255.5,-186.5 432.5,-186.5 432.5,-167.5 255.5,-167.5"/>
<text text-anchor="middle" x="344" y="-174.5" font-family="Helvetica,sans-Serif" font-size="10.00">Signal&lt; nap::RenderWindow &amp; &gt;</text>
</a>
</g>
</g>
<!-- Node7&#45;&gt;Node5 -->
<g id="edge6" class="edge">
<title>Node7&#45;&gt;Node5</title>
<path fill="none" stroke="#9a32cd" stroke-dasharray="5,2" d="M335.77,-158.12C328.59,-142.53 318.48,-120.59 312.97,-108.62"/>
<polygon fill="#9a32cd" stroke="#9a32cd" points="332.62,-159.66 339.99,-167.28 338.98,-156.73 332.62,-159.66"/>
<text text-anchor="middle" x="375" y="-141" font-family="Helvetica,sans-Serif" font-size="10.00"> windowRemoved</text>
<text text-anchor="middle" x="375" y="-130" font-family="Helvetica,sans-Serif" font-size="10.00">windowAdded</text>
</g>
<!-- Node8 -->
<g id="node8" class="node">
<title>Node8</title>
<g id="a_node8"><a xlink:href="../../d7/da0/classnap_1_1_vertex_attribute.html" target="_top" xlink:title=" ">
<polygon fill="white" stroke="black" points="64.5,-89.5 64.5,-108.5 247.5,-108.5 247.5,-89.5 64.5,-89.5"/>
<text text-anchor="middle" x="156" y="-96.5" font-family="Helvetica,sans-Serif" font-size="10.00">VertexAttribute&lt; ELEMENTTYPE &gt;</text>
</a>
</g>
</g>
<!-- Node8&#45;&gt;Node1 -->
<g id="edge8" class="edge">
<title>Node8&#45;&gt;Node1</title>
<path fill="none" stroke="#9a32cd" stroke-dasharray="5,2" d="M173.44,-82.03C176.57,-78.6 179.59,-74.85 182,-71 192.47,-54.26 199.02,-31.79 202.03,-19.65"/>
<polygon fill="#9a32cd" stroke="#9a32cd" points="170.76,-79.76 166.2,-89.32 175.73,-84.7 170.76,-79.76"/>
<text text-anchor="middle" x="233.5" y="-63" font-family="Helvetica,sans-Serif" font-size="10.00"> mNormalsAttr</text>
<text text-anchor="middle" x="233.5" y="-52" font-family="Helvetica,sans-Serif" font-size="10.00">mPositionAttr</text>
<text text-anchor="middle" x="233.5" y="-41" font-family="Helvetica,sans-Serif" font-size="10.00">mTipAttr</text>
</g>
<!-- Node9&#45;&gt;Node8 -->
<g id="edge9" class="edge">
<title>Node9&#45;&gt;Node8</title>
<path fill="none" stroke="midnightblue" d="M119.78,-158.57C129.44,-142.95 143.2,-120.7 150.67,-108.62"/>
<polygon fill="midnightblue" stroke="midnightblue" points="116.67,-156.94 114.39,-167.28 122.63,-160.62 116.67,-156.94"/>
</g>
<!-- Node10 -->
<g id="node10" class="node">
<title>Node10</title>
<g id="a_node10"><a xlink:href="../../dd/d7c/classnap_1_1rtti_1_1_object_ptr.html" target="_top" xlink:title=" ">
<polygon fill="white" stroke="black" points="404.5,-89.5 404.5,-108.5 541.5,-108.5 541.5,-89.5 404.5,-89.5"/>
<text text-anchor="middle" x="473" y="-96.5" font-family="Helvetica,sans-Serif" font-size="10.00">ObjectPtr&lt; nap::IMesh &gt;</text>
</a>
</g>
</g>
<!-- Node10&#45;&gt;Node1 -->
<g id="edge11" class="edge">
<title>Node10&#45;&gt;Node1</title>
<path fill="none" stroke="#9a32cd" stroke-dasharray="5,2" d="M456.18,-82.67C439.79,-68.64 413.51,-48.52 387,-38 349.24,-23.01 304.11,-16.25 268.12,-13.23"/>
<polygon fill="#9a32cd" stroke="#9a32cd" points="453.98,-85.39 463.81,-89.36 458.6,-80.13 453.98,-85.39"/>
<text text-anchor="middle" x="485.5" y="-52" font-family="Helvetica,sans-Serif" font-size="10.00"> mReferenceMesh</text>
</g>
<!-- Node11 -->
<g id="node11" class="node">
<title>Node11</title>
<g id="a_node11"><a xlink:href="../../d7/dcb/classnap_1_1rtti_1_1_object_ptr_base.html" target="_top" xlink:title=" ">
<polygon fill="white" stroke="black" points="451,-167.5 451,-186.5 537,-186.5 537,-167.5 451,-167.5"/>
<text text-anchor="middle" x="494" y="-174.5" font-family="Helvetica,sans-Serif" font-size="10.00">ObjectPtrBase</text>
</a>
</g>
</g>
<!-- Node11&#45;&gt;Node10 -->
<g id="edge12" class="edge">
<title>Node11&#45;&gt;Node10</title>
<path fill="none" stroke="midnightblue" d="M488.81,-157.22C484.52,-141.7 478.63,-120.36 475.38,-108.62"/>
<polygon fill="midnightblue" stroke="midnightblue" points="485.55,-158.58 491.59,-167.28 492.3,-156.71 485.55,-158.58"/>
</g>
</g>
</svg>
