<?xml version="1.0" encoding="UTF-8" standalone="no"?>
<!DOCTYPE svg PUBLIC "-//W3C//DTD SVG 1.1//EN"
 "http://www.w3.org/Graphics/SVG/1.1/DTD/svg11.dtd">
<!-- Generated by graphviz version 2.43.0 (0)
 -->
<!-- Title: WebSocketConnectionEvent Pages: 1 -->
<svg width="572pt" height="137pt"
 viewBox="0.00 0.00 572.00 137.00" xmlns="http://www.w3.org/2000/svg" xmlns:xlink="http://www.w3.org/1999/xlink">
<g id="graph0" class="graph" transform="scale(1 1) rotate(0) translate(4 133)">
<title>WebSocketConnectionEvent</title>
<polygon fill="white" stroke="transparent" points="-4,4 -4,-133 568,-133 568,4 -4,4"/>
<!-- Node1 -->
<g id="node1" class="node">
<title>Node1</title>
<g id="a_node1"><a xlink:title=" ">
<polygon fill="#bfbfbf" stroke="black" points="214,-55 214,-74 366,-74 366,-55 214,-55"/>
<text text-anchor="middle" x="290" y="-62" font-family="Helvetica,sans-Serif" font-size="10.00">WebSocketConnectionEvent</text>
</a>
</g>
</g>
<!-- Node4 -->
<g id="node4" class="node">
<title>Node4</title>
<g id="a_node4"><a xlink:href="../../df/ddd/classnap_1_1_web_socket_connection_closed_event.html" target="_top" xlink:title=" ">
<polygon fill="white" stroke="black" points="404,-98.5 404,-128.5 562,-128.5 562,-98.5 404,-98.5"/>
<text text-anchor="start" x="412" y="-116.5" font-family="Helvetica,sans-Serif" font-size="10.00">WebSocketConnectionClosed</text>
<text text-anchor="middle" x="483" y="-105.5" font-family="Helvetica,sans-Serif" font-size="10.00">Event</text>
</a>
</g>
</g>
<!-- Node1&#45;&gt;Node4 -->
<g id="edge3" class="edge">
<title>Node1&#45;&gt;Node4</title>
<path fill="none" stroke="midnightblue" d="M338.17,-76.6C363.92,-83.21 396.04,-91.45 423.39,-98.46"/>
<polygon fill="midnightblue" stroke="midnightblue" points="338.84,-73.16 328.28,-74.06 337.1,-79.94 338.84,-73.16"/>
</g>
<!-- Node5 -->
<g id="node5" class="node">
<title>Node5</title>
<g id="a_node5"><a xlink:href="../../df/dd1/classnap_1_1_web_socket_connection_failed_event.html" target="_top" xlink:title=" ">
<polygon fill="white" stroke="black" points="406.5,-49.5 406.5,-79.5 559.5,-79.5 559.5,-49.5 406.5,-49.5"/>
<text text-anchor="start" x="414.5" y="-67.5" font-family="Helvetica,sans-Serif" font-size="10.00">WebSocketConnectionFailed</text>
<text text-anchor="middle" x="483" y="-56.5" font-family="Helvetica,sans-Serif" font-size="10.00">Event</text>
</a>
</g>
</g>
<!-- Node1&#45;&gt;Node5 -->
<g id="edge4" class="edge">
<title>Node1&#45;&gt;Node5</title>
<path fill="none" stroke="midnightblue" d="M376.48,-64.5C386.39,-64.5 396.45,-64.5 406.23,-64.5"/>
<polygon fill="midnightblue" stroke="midnightblue" points="376.21,-61 366.21,-64.5 376.21,-68 376.21,-61"/>
</g>
<!-- Node6 -->
<g id="node6" class="node">
<title>Node6</title>
<g id="a_node6"><a xlink:href="../../d1/d76/classnap_1_1_web_socket_connection_opened_event.html" target="_top" xlink:title=" ">
<polygon fill="white" stroke="black" points="402,-0.5 402,-30.5 564,-30.5 564,-0.5 402,-0.5"/>
<text text-anchor="start" x="410" y="-18.5" font-family="Helvetica,sans-Serif" font-size="10.00">WebSocketConnectionOpened</text>
<text text-anchor="middle" x="483" y="-7.5" font-family="Helvetica,sans-Serif" font-size="10.00">Event</text>
</a>
</g>
</g>
<!-- Node1&#45;&gt;Node6 -->
<g id="edge5" class="edge">
<title>Node1&#45;&gt;Node6</title>
<path fill="none" stroke="midnightblue" d="M338.17,-52.4C363.92,-45.79 396.04,-37.55 423.39,-30.54"/>
<polygon fill="midnightblue" stroke="midnightblue" points="337.1,-49.06 328.28,-54.94 338.84,-55.84 337.1,-49.06"/>
</g>
<!-- Node2 -->
<g id="node2" class="node">
<title>Node2</title>
<g id="a_node2"><a xlink:href="../../d6/d83/classnap_1_1_web_socket_event.html" target="_top" xlink:title=" ">
<polygon fill="white" stroke="black" points="80,-55 80,-74 178,-74 178,-55 80,-55"/>
<text text-anchor="middle" x="129" y="-62" font-family="Helvetica,sans-Serif" font-size="10.00">WebSocketEvent</text>
</a>
</g>
</g>
<!-- Node2&#45;&gt;Node1 -->
<g id="edge1" class="edge">
<title>Node2&#45;&gt;Node1</title>
<path fill="none" stroke="midnightblue" d="M188.38,-64.5C196.63,-64.5 205.21,-64.5 213.73,-64.5"/>
<polygon fill="midnightblue" stroke="midnightblue" points="188.14,-61 178.14,-64.5 188.14,-68 188.14,-61"/>
</g>
<!-- Node3 -->
<g id="node3" class="node">
<title>Node3</title>
<g id="a_node3"><a xlink:href="../../d2/da2/classnap_1_1_event.html" target="_top" xlink:title=" ">
<polygon fill="white" stroke="black" points="0,-55 0,-74 44,-74 44,-55 0,-55"/>
<text text-anchor="middle" x="22" y="-62" font-family="Helvetica,sans-Serif" font-size="10.00">Event</text>
</a>
</g>
</g>
<!-- Node3&#45;&gt;Node2 -->
<g id="edge2" class="edge">
<title>Node3&#45;&gt;Node2</title>
<path fill="none" stroke="midnightblue" d="M54.29,-64.5C62.34,-64.5 71.2,-64.5 79.89,-64.5"/>
<polygon fill="midnightblue" stroke="midnightblue" points="54.25,-61 44.25,-64.5 54.25,-68 54.25,-61"/>
</g>
</g>
</svg>
