<?xml version="1.0" encoding="UTF-8" standalone="no"?>
<!DOCTYPE svg PUBLIC "-//W3C//DTD SVG 1.1//EN"
 "http://www.w3.org/Graphics/SVG/1.1/DTD/svg11.dtd">
<!-- Generated by graphviz version 2.43.0 (0)
 -->
<!-- Title: Parameter Pages: 1 -->
<svg width="589pt" height="180pt"
 viewBox="0.00 0.00 589.00 180.00" xmlns="http://www.w3.org/2000/svg" xmlns:xlink="http://www.w3.org/1999/xlink">
<g id="graph0" class="graph" transform="scale(1 1) rotate(0) translate(4 176)">
<title>Parameter</title>
<polygon fill="white" stroke="transparent" points="-4,4 -4,-176 585,-176 585,4 -4,4"/>
<!-- Node1 -->
<g id="node1" class="node">
<title>Node1</title>
<g id="a_node1"><a xlink:title=" ">
<polygon fill="#bfbfbf" stroke="black" points="182,-76.5 182,-95.5 249,-95.5 249,-76.5 182,-76.5"/>
<text text-anchor="middle" x="215.5" y="-83.5" font-family="Helvetica,sans-Serif" font-size="10.00">Parameter</text>
</a>
</g>
</g>
<!-- Node4 -->
<g id="node4" class="node">
<title>Node4</title>
<g id="a_node4"><a xlink:href="../../d0/d8a/classnap_1_1_parameter_button.html" target="_top" xlink:title=" ">
<polygon fill="white" stroke="black" points="304,-152.5 304,-171.5 403,-171.5 403,-152.5 304,-152.5"/>
<text text-anchor="middle" x="353.5" y="-159.5" font-family="Helvetica,sans-Serif" font-size="10.00">ParameterButton</text>
</a>
</g>
</g>
<!-- Node1&#45;&gt;Node4 -->
<g id="edge3" class="edge">
<title>Node1&#45;&gt;Node4</title>
<path fill="none" stroke="midnightblue" d="M232.57,-102.77C245.61,-115.48 265.04,-132.5 285,-143 292.22,-146.8 300.28,-149.91 308.25,-152.43"/>
<polygon fill="midnightblue" stroke="midnightblue" points="234.87,-100.12 225.33,-95.51 229.91,-105.06 234.87,-100.12"/>
</g>
<!-- Node5 -->
<g id="node5" class="node">
<title>Node5</title>
<g id="a_node5"><a xlink:href="../../d9/d38/classnap_1_1_parameter_enum_base.html" target="_top" xlink:title=" ">
<polygon fill="white" stroke="black" points="294,-114.5 294,-133.5 413,-133.5 413,-114.5 294,-114.5"/>
<text text-anchor="middle" x="353.5" y="-121.5" font-family="Helvetica,sans-Serif" font-size="10.00">ParameterEnumBase</text>
</a>
</g>
</g>
<!-- Node1&#45;&gt;Node5 -->
<g id="edge4" class="edge">
<title>Node1&#45;&gt;Node5</title>
<path fill="none" stroke="midnightblue" d="M258.75,-97.81C277.89,-103.15 300.23,-109.39 318.29,-114.44"/>
<polygon fill="midnightblue" stroke="midnightblue" points="259.65,-94.42 249.08,-95.1 257.76,-101.16 259.65,-94.42"/>
</g>
<!-- Node7 -->
<g id="node7" class="node">
<title>Node7</title>
<g id="a_node7"><a xlink:href="../../d0/d33/classnap_1_1_parameter_numeric.html" target="_top" xlink:title=" ">
<polygon fill="white" stroke="black" points="285,-76.5 285,-95.5 422,-95.5 422,-76.5 285,-76.5"/>
<text text-anchor="middle" x="353.5" y="-83.5" font-family="Helvetica,sans-Serif" font-size="10.00">ParameterNumeric&lt; T &gt;</text>
</a>
</g>
</g>
<!-- Node1&#45;&gt;Node7 -->
<g id="edge6" class="edge">
<title>Node1&#45;&gt;Node7</title>
<path fill="none" stroke="midnightblue" d="M259.13,-86C267.35,-86 276.14,-86 284.92,-86"/>
<polygon fill="midnightblue" stroke="midnightblue" points="259.08,-82.5 249.08,-86 259.08,-89.5 259.08,-82.5"/>
</g>
<!-- Node8 -->
<g id="node8" class="node">
<title>Node8</title>
<g id="a_node8"><a xlink:href="../../da/dda/classnap_1_1_parameter_simple.html" target="_top" xlink:title=" ">
<polygon fill="white" stroke="black" points="289,-38.5 289,-57.5 418,-57.5 418,-38.5 289,-38.5"/>
<text text-anchor="middle" x="353.5" y="-45.5" font-family="Helvetica,sans-Serif" font-size="10.00">ParameterSimple&lt; T &gt;</text>
</a>
</g>
</g>
<!-- Node1&#45;&gt;Node8 -->
<g id="edge7" class="edge">
<title>Node1&#45;&gt;Node8</title>
<path fill="none" stroke="midnightblue" d="M258.75,-74.19C277.89,-68.85 300.23,-62.61 318.29,-57.56"/>
<polygon fill="midnightblue" stroke="midnightblue" points="257.76,-70.84 249.08,-76.9 259.65,-77.58 257.76,-70.84"/>
</g>
<!-- Node9 -->
<g id="node9" class="node">
<title>Node9</title>
<g id="a_node9"><a xlink:href="../../da/d1e/classnap_1_1_parameter_vec.html" target="_top" xlink:title=" ">
<polygon fill="white" stroke="black" points="297,-0.5 297,-19.5 410,-19.5 410,-0.5 297,-0.5"/>
<text text-anchor="middle" x="353.5" y="-7.5" font-family="Helvetica,sans-Serif" font-size="10.00">ParameterVec&lt; T &gt;</text>
</a>
</g>
</g>
<!-- Node1&#45;&gt;Node9 -->
<g id="edge8" class="edge">
<title>Node1&#45;&gt;Node9</title>
<path fill="none" stroke="midnightblue" d="M232.57,-69.23C245.61,-56.52 265.04,-39.5 285,-29 292.22,-25.2 300.28,-22.09 308.25,-19.57"/>
<polygon fill="midnightblue" stroke="midnightblue" points="229.91,-66.94 225.33,-76.49 234.87,-71.88 229.91,-66.94"/>
</g>
<!-- Node2 -->
<g id="node2" class="node">
<title>Node2</title>
<g id="a_node2"><a xlink:href="../../d9/dea/classnap_1_1_resource.html" target="_top" xlink:title=" ">
<polygon fill="white" stroke="black" points="84,-76.5 84,-95.5 146,-95.5 146,-76.5 84,-76.5"/>
<text text-anchor="middle" x="115" y="-83.5" font-family="Helvetica,sans-Serif" font-size="10.00">Resource</text>
</a>
</g>
</g>
<!-- Node2&#45;&gt;Node1 -->
<g id="edge1" class="edge">
<title>Node2&#45;&gt;Node1</title>
<path fill="none" stroke="midnightblue" d="M156.23,-86C164.75,-86 173.65,-86 181.85,-86"/>
<polygon fill="midnightblue" stroke="midnightblue" points="156.09,-82.5 146.09,-86 156.09,-89.5 156.09,-82.5"/>
</g>
<!-- Node3 -->
<g id="node3" class="node">
<title>Node3</title>
<g id="a_node3"><a xlink:href="../../de/d01/classnap_1_1rtti_1_1_object.html" target="_top" xlink:title=" ">
<polygon fill="white" stroke="black" points="0,-76.5 0,-95.5 48,-95.5 48,-76.5 0,-76.5"/>
<text text-anchor="middle" x="24" y="-83.5" font-family="Helvetica,sans-Serif" font-size="10.00">Object</text>
</a>
</g>
</g>
<!-- Node3&#45;&gt;Node2 -->
<g id="edge2" class="edge">
<title>Node3&#45;&gt;Node2</title>
<path fill="none" stroke="midnightblue" d="M58.49,-86C66.78,-86 75.61,-86 83.73,-86"/>
<polygon fill="midnightblue" stroke="midnightblue" points="58.38,-82.5 48.38,-86 58.38,-89.5 58.38,-82.5"/>
</g>
<!-- Node6 -->
<g id="node6" class="node">
<title>Node6</title>
<g id="a_node6"><a xlink:href="../../dc/d3b/classnap_1_1_parameter_enum.html" target="_top" xlink:title=" ">
<polygon fill="white" stroke="black" points="458,-114.5 458,-133.5 581,-133.5 581,-114.5 458,-114.5"/>
<text text-anchor="middle" x="519.5" y="-121.5" font-family="Helvetica,sans-Serif" font-size="10.00">ParameterEnum&lt; T &gt;</text>
</a>
</g>
</g>
<!-- Node5&#45;&gt;Node6 -->
<g id="edge5" class="edge">
<title>Node5&#45;&gt;Node6</title>
<path fill="none" stroke="midnightblue" d="M423.25,-124C434.78,-124 446.66,-124 457.95,-124"/>
<polygon fill="midnightblue" stroke="midnightblue" points="423.24,-120.5 413.24,-124 423.24,-127.5 423.24,-120.5"/>
</g>
</g>
</svg>
