<?xml version="1.0" encoding="UTF-8" standalone="no"?>
<!DOCTYPE svg PUBLIC "-//W3C//DTD SVG 1.1//EN"
 "http://www.w3.org/Graphics/SVG/1.1/DTD/svg11.dtd">
<!-- Generated by graphviz version 2.48.0 (20210717.1556)
 -->
<!-- Title: ParameterEnum&lt; T &gt; Pages: 1 -->
<svg width="210pt" height="266pt"
 viewBox="0.00 0.00 210.00 266.00" xmlns="http://www.w3.org/2000/svg" xmlns:xlink="http://www.w3.org/1999/xlink">
<g id="graph0" class="graph" transform="scale(1 1) rotate(0) translate(4 262)">
<title>ParameterEnum&lt; T &gt;</title>
<polygon fill="white" stroke="transparent" points="-4,4 -4,-262 206,-262 206,4 -4,4"/>
<!-- Node5 -->
<g id="node1" class="node">
<title>Node5</title>
<polygon fill="#bfbfbf" stroke="black" points="53,-0.5 53,-19.5 163,-19.5 163,-0.5 53,-0.5"/>
<text text-anchor="middle" x="108" y="-7.5" font-family="Helvetica,sans-Serif" font-size="10.00">ParameterEnum&lt; T &gt;</text>
</g>
<!-- Node6 -->
<g id="node2" class="node">
<title>Node6</title>
<g id="a_node2"><a xlink:href="../../d9/d38/classnap_1_1_parameter_enum_base.html" target="_top" xlink:title="ParameterEnumBase">
<polygon fill="white" stroke="black" points="0,-67.5 0,-86.5 110,-86.5 110,-67.5 0,-67.5"/>
<text text-anchor="middle" x="55" y="-74.5" font-family="Helvetica,sans-Serif" font-size="10.00">ParameterEnumBase</text>
</a>
</g>
</g>
<!-- Node6&#45;&gt;Node5 -->
<g id="edge1" class="edge">
<title>Node6&#45;&gt;Node5</title>
<path fill="none" stroke="midnightblue" d="M68.64,-59.27C78.97,-46.6 92.75,-29.7 100.97,-19.63"/>
<polygon fill="midnightblue" stroke="midnightblue" points="65.75,-57.27 62.15,-67.23 71.18,-61.7 65.75,-57.27"/>
</g>
<!-- Node7 -->
<g id="node3" class="node">
<title>Node7</title>
<g id="a_node3"><a xlink:href="../../d5/de5/classnap_1_1_parameter.html" target="_top" xlink:title="Parameter">
<polygon fill="white" stroke="black" points="24,-124.5 24,-143.5 86,-143.5 86,-124.5 24,-124.5"/>
<text text-anchor="middle" x="55" y="-131.5" font-family="Helvetica,sans-Serif" font-size="10.00">Parameter</text>
</a>
</g>
</g>
<!-- Node7&#45;&gt;Node6 -->
<g id="edge2" class="edge">
<title>Node7&#45;&gt;Node6</title>
<path fill="none" stroke="midnightblue" d="M55,-114.12C55,-104.82 55,-94.06 55,-86.71"/>
<polygon fill="midnightblue" stroke="midnightblue" points="51.5,-114.41 55,-124.41 58.5,-114.41 51.5,-114.41"/>
</g>
<!-- Node8 -->
<g id="node4" class="node">
<title>Node8</title>
<g id="a_node4"><a xlink:href="../../d9/dea/classnap_1_1_resource.html" target="_top" xlink:title="Resource">
<polygon fill="white" stroke="black" points="26,-181.5 26,-200.5 84,-200.5 84,-181.5 26,-181.5"/>
<text text-anchor="middle" x="55" y="-188.5" font-family="Helvetica,sans-Serif" font-size="10.00">Resource</text>
</a>
</g>
</g>
<!-- Node8&#45;&gt;Node7 -->
<g id="edge3" class="edge">
<title>Node8&#45;&gt;Node7</title>
<path fill="none" stroke="midnightblue" d="M55,-171.12C55,-161.82 55,-151.06 55,-143.71"/>
<polygon fill="midnightblue" stroke="midnightblue" points="51.5,-171.41 55,-181.41 58.5,-171.41 51.5,-171.41"/>
</g>
<!-- Node9 -->
<g id="node5" class="node">
<title>Node9</title>
<g id="a_node5"><a xlink:href="../../de/d01/classnap_1_1rtti_1_1_object.html" target="_top" xlink:title="Object">
<polygon fill="white" stroke="black" points="32.5,-238.5 32.5,-257.5 77.5,-257.5 77.5,-238.5 32.5,-238.5"/>
<text text-anchor="middle" x="55" y="-245.5" font-family="Helvetica,sans-Serif" font-size="10.00">Object</text>
</a>
</g>
</g>
<!-- Node9&#45;&gt;Node8 -->
<g id="edge4" class="edge">
<title>Node9&#45;&gt;Node8</title>
<path fill="none" stroke="midnightblue" d="M55,-228.12C55,-218.82 55,-208.06 55,-200.71"/>
<polygon fill="midnightblue" stroke="midnightblue" points="51.5,-228.41 55,-238.41 58.5,-228.41 51.5,-228.41"/>
</g>
<!-- Node10 -->
<g id="node6" class="node">
<title>Node10</title>
<g id="a_node6"><a xlink:href="../../de/d80/classnap_1_1_signal.html" target="_top" xlink:title="Signal\&lt; T \&gt;">
<polygon fill="white" stroke="black" points="128.5,-67.5 128.5,-86.5 195.5,-86.5 195.5,-67.5 128.5,-67.5"/>
<text text-anchor="middle" x="162" y="-74.5" font-family="Helvetica,sans-Serif" font-size="10.00">Signal&lt; T &gt;</text>
</a>
</g>
</g>
<!-- Node10&#45;&gt;Node5 -->
<g id="edge5" class="edge">
<title>Node10&#45;&gt;Node5</title>
<path fill="none" stroke="#9a32cd" stroke-dasharray="5,2" d="M148.1,-59.27C137.57,-46.6 123.54,-29.7 115.17,-19.63"/>
<polygon fill="#9a32cd" stroke="#9a32cd" points="145.63,-61.78 154.72,-67.23 151.02,-57.31 145.63,-61.78"/>
<text text-anchor="middle" x="170" y="-41" font-family="Helvetica,sans-Serif" font-size="10.00"> valueChanged</text>
</g>
</g>
</svg>
