<?xml version="1.0" encoding="UTF-8" standalone="no"?>
<!DOCTYPE svg PUBLIC "-//W3C//DTD SVG 1.1//EN"
 "http://www.w3.org/Graphics/SVG/1.1/DTD/svg11.dtd">
<!-- Generated by graphviz version 2.43.0 (0)
 -->
<!-- Title: ParameterEnum&lt; T &gt; Pages: 1 -->
<svg width="243pt" height="266pt"
 viewBox="0.00 0.00 242.50 266.00" xmlns="http://www.w3.org/2000/svg" xmlns:xlink="http://www.w3.org/1999/xlink">
<g id="graph0" class="graph" transform="scale(1 1) rotate(0) translate(4 262)">
<title>ParameterEnum&lt; T &gt;</title>
<polygon fill="white" stroke="transparent" points="-4,4 -4,-262 238.5,-262 238.5,4 -4,4"/>
<!-- Node1 -->
<g id="node1" class="node">
<title>Node1</title>
<g id="a_node1"><a xlink:title=" ">
<polygon fill="#bfbfbf" stroke="black" points="84,-0.5 84,-19.5 207,-19.5 207,-0.5 84,-0.5"/>
<text text-anchor="middle" x="145.5" y="-7.5" font-family="Helvetica,sans-Serif" font-size="10.00">ParameterEnum&lt; T &gt;</text>
</a>
</g>
</g>
<!-- Node2 -->
<g id="node2" class="node">
<title>Node2</title>
<g id="a_node2"><a xlink:href="../../d9/d38/classnap_1_1_parameter_enum_base.html" target="_top" xlink:title=" ">
<polygon fill="white" stroke="black" points="0,-67.5 0,-86.5 119,-86.5 119,-67.5 0,-67.5"/>
<text text-anchor="middle" x="59.5" y="-74.5" font-family="Helvetica,sans-Serif" font-size="10.00">ParameterEnumBase</text>
</a>
</g>
</g>
<!-- Node2&#45;&gt;Node1 -->
<g id="edge1" class="edge">
<title>Node2&#45;&gt;Node1</title>
<path fill="none" stroke="midnightblue" d="M79.26,-61.07C96.23,-48.24 120.12,-30.19 134.09,-19.63"/>
<polygon fill="midnightblue" stroke="midnightblue" points="76.97,-58.41 71.1,-67.23 81.19,-64 76.97,-58.41"/>
</g>
<!-- Node3 -->
<g id="node3" class="node">
<title>Node3</title>
<g id="a_node3"><a xlink:href="../../d5/de5/classnap_1_1_parameter.html" target="_top" xlink:title=" ">
<polygon fill="white" stroke="black" points="26,-124.5 26,-143.5 93,-143.5 93,-124.5 26,-124.5"/>
<text text-anchor="middle" x="59.5" y="-131.5" font-family="Helvetica,sans-Serif" font-size="10.00">Parameter</text>
</a>
</g>
</g>
<!-- Node3&#45;&gt;Node2 -->
<g id="edge2" class="edge">
<title>Node3&#45;&gt;Node2</title>
<path fill="none" stroke="midnightblue" d="M59.5,-114.12C59.5,-104.82 59.5,-94.06 59.5,-86.71"/>
<polygon fill="midnightblue" stroke="midnightblue" points="56,-114.41 59.5,-124.41 63,-114.41 56,-114.41"/>
</g>
<!-- Node4 -->
<g id="node4" class="node">
<title>Node4</title>
<g id="a_node4"><a xlink:href="../../d9/dea/classnap_1_1_resource.html" target="_top" xlink:title=" ">
<polygon fill="white" stroke="black" points="28.5,-181.5 28.5,-200.5 90.5,-200.5 90.5,-181.5 28.5,-181.5"/>
<text text-anchor="middle" x="59.5" y="-188.5" font-family="Helvetica,sans-Serif" font-size="10.00">Resource</text>
</a>
</g>
</g>
<!-- Node4&#45;&gt;Node3 -->
<g id="edge3" class="edge">
<title>Node4&#45;&gt;Node3</title>
<path fill="none" stroke="midnightblue" d="M59.5,-171.12C59.5,-161.82 59.5,-151.06 59.5,-143.71"/>
<polygon fill="midnightblue" stroke="midnightblue" points="56,-171.41 59.5,-181.41 63,-171.41 56,-171.41"/>
</g>
<!-- Node5 -->
<g id="node5" class="node">
<title>Node5</title>
<g id="a_node5"><a xlink:href="../../de/d01/classnap_1_1rtti_1_1_object.html" target="_top" xlink:title=" ">
<polygon fill="white" stroke="black" points="35.5,-238.5 35.5,-257.5 83.5,-257.5 83.5,-238.5 35.5,-238.5"/>
<text text-anchor="middle" x="59.5" y="-245.5" font-family="Helvetica,sans-Serif" font-size="10.00">Object</text>
</a>
</g>
</g>
<!-- Node5&#45;&gt;Node4 -->
<g id="edge4" class="edge">
<title>Node5&#45;&gt;Node4</title>
<path fill="none" stroke="midnightblue" d="M59.5,-228.12C59.5,-218.82 59.5,-208.06 59.5,-200.71"/>
<polygon fill="midnightblue" stroke="midnightblue" points="56,-228.41 59.5,-238.41 63,-228.41 56,-228.41"/>
</g>
<!-- Node6 -->
<g id="node6" class="node">
<title>Node6</title>
<g id="a_node6"><a xlink:href="../../de/d80/classnap_1_1_signal.html" target="_top" xlink:title=" ">
<polygon fill="white" stroke="black" points="137,-67.5 137,-86.5 212,-86.5 212,-67.5 137,-67.5"/>
<text text-anchor="middle" x="174.5" y="-74.5" font-family="Helvetica,sans-Serif" font-size="10.00">Signal&lt; T &gt;</text>
</a>
</g>
</g>
<!-- Node6&#45;&gt;Node1 -->
<g id="edge5" class="edge">
<title>Node6&#45;&gt;Node1</title>
<path fill="none" stroke="#9a32cd" stroke-dasharray="5,2" d="M166.38,-57.79C160.81,-45.31 153.67,-29.31 149.35,-19.63"/>
<polygon fill="#9a32cd" stroke="#9a32cd" points="163.32,-59.53 170.59,-67.23 169.71,-56.68 163.32,-59.53"/>
<text text-anchor="middle" x="198" y="-41" font-family="Helvetica,sans-Serif" font-size="10.00"> valueChanged</text>
</g>
</g>
</svg>
