<?xml version="1.0" encoding="UTF-8" standalone="no"?>
<!DOCTYPE svg PUBLIC "-//W3C//DTD SVG 1.1//EN"
 "http://www.w3.org/Graphics/SVG/1.1/DTD/svg11.dtd">
<!-- Generated by graphviz version 3.0.0 (20220226.1711)
 -->
<!-- Title: AppEventHandler Pages: 1 -->
<svg width="244pt" height="84pt"
 viewBox="0.00 0.00 243.50 84.00" xmlns="http://www.w3.org/2000/svg" xmlns:xlink="http://www.w3.org/1999/xlink">
<g id="graph0" class="graph" transform="scale(1 1) rotate(0) translate(4 80)">
<title>AppEventHandler</title>
<polygon fill="white" stroke="transparent" points="-4,4 -4,-80 239.5,-80 239.5,4 -4,4"/>
<!-- Node0 -->
<g id="node1" class="node">
<title>Node0</title>
<polygon fill="#bfbfbf" stroke="black" points="71,-56.5 71,-75.5 162,-75.5 162,-56.5 71,-56.5"/>
<text text-anchor="middle" x="116.5" y="-63.5" font-family="Helvetica,sans-Serif" font-size="10.00">AppEventHandler</text>
</g>
<!-- Node1 -->
<g id="node2" class="node">
<title>Node1</title>
<g id="a_node2"><a xlink:href="../../dc/d0e/classnap_1_1_g_u_i_app_event_handler.html" target="_top" xlink:title="GUIAppEventHandler">
<polygon fill="white" stroke="black" points="0,-0.5 0,-19.5 107,-19.5 107,-0.5 0,-0.5"/>
<text text-anchor="middle" x="53.5" y="-7.5" font-family="Helvetica,sans-Serif" font-size="10.00">GUIAppEventHandler</text>
</a>
</g>
</g>
<!-- Node0&#45;&gt;Node1 -->
<g id="edge1" class="edge">
<title>Node0&#45;&gt;Node1</title>
<path fill="none" stroke="midnightblue" d="M98.46,-49.54C87.23,-39.91 73.18,-27.87 63.81,-19.83"/>
<polygon fill="midnightblue" stroke="midnightblue" points="96.51,-52.47 106.38,-56.32 101.06,-47.16 96.51,-52.47"/>
</g>
<!-- Node2 -->
<g id="node3" class="node">
<title>Node2</title>
<g id="a_node3"><a xlink:href="../../d2/d7e/classnap_1_1_s_d_l_app_event_handler.html" target="_top" xlink:title="SDLAppEventHandler">
<polygon fill="white" stroke="black" points="125.5,-0.5 125.5,-19.5 235.5,-19.5 235.5,-0.5 125.5,-0.5"/>
<text text-anchor="middle" x="180.5" y="-7.5" font-family="Helvetica,sans-Serif" font-size="10.00">SDLAppEventHandler</text>
</a>
</g>
</g>
<!-- Node0&#45;&gt;Node2 -->
<g id="edge2" class="edge">
<title>Node0&#45;&gt;Node2</title>
<path fill="none" stroke="midnightblue" d="M134.49,-49.82C145.96,-40.15 160.41,-27.95 170.03,-19.83"/>
<polygon fill="midnightblue" stroke="midnightblue" points="132.17,-47.2 126.78,-56.32 136.68,-52.55 132.17,-47.2"/>
</g>
</g>
</svg>
