<?xml version="1.0" encoding="UTF-8" standalone="no"?>
<!DOCTYPE svg PUBLIC "-//W3C//DTD SVG 1.1//EN"
 "http://www.w3.org/Graphics/SVG/1.1/DTD/svg11.dtd">
<!-- Generated by graphviz version 2.43.0 (0)
 -->
<!-- Title: BufferBinding Pages: 1 -->
<svg width="365pt" height="240pt"
 viewBox="0.00 0.00 364.50 240.00" xmlns="http://www.w3.org/2000/svg" xmlns:xlink="http://www.w3.org/1999/xlink">
<g id="graph0" class="graph" transform="scale(1 1) rotate(0) translate(4 236)">
<title>BufferBinding</title>
<polygon fill="white" stroke="transparent" points="-4,4 -4,-236 360.5,-236 360.5,4 -4,4"/>
<!-- Node1 -->
<g id="node1" class="node">
<title>Node1</title>
<g id="a_node1"><a xlink:title=" ">
<polygon fill="#bfbfbf" stroke="black" points="263,-0.5 263,-19.5 346,-19.5 346,-0.5 263,-0.5"/>
<text text-anchor="middle" x="304.5" y="-7.5" font-family="Helvetica,sans-Serif" font-size="10.00">BufferBinding</text>
</a>
</g>
</g>
<!-- Node2 -->
<g id="node2" class="node">
<title>Node2</title>
<g id="a_node2"><a xlink:href="../../d9/dea/classnap_1_1_resource.html" target="_top" xlink:title=" ">
<polygon fill="white" stroke="black" points="294.5,-134.5 294.5,-153.5 356.5,-153.5 356.5,-134.5 294.5,-134.5"/>
<text text-anchor="middle" x="325.5" y="-141.5" font-family="Helvetica,sans-Serif" font-size="10.00">Resource</text>
</a>
</g>
</g>
<!-- Node2&#45;&gt;Node1 -->
<g id="edge1" class="edge">
<title>Node2&#45;&gt;Node1</title>
<path fill="none" stroke="midnightblue" d="M327.65,-124.3C329.46,-102.91 330.5,-67.1 321.5,-38 319.47,-31.44 315.42,-24.9 311.78,-19.9"/>
<polygon fill="midnightblue" stroke="midnightblue" points="324.16,-124.01 326.65,-134.31 331.13,-124.71 324.16,-124.01"/>
</g>
<!-- Node4 -->
<g id="node4" class="node">
<title>Node4</title>
<g id="a_node4"><a xlink:href="../../dd/df4/classnap_1_1_g_p_u_buffer.html" target="_top" xlink:title=" ">
<polygon fill="white" stroke="black" points="214,-67.5 214,-86.5 281,-86.5 281,-67.5 214,-67.5"/>
<text text-anchor="middle" x="247.5" y="-74.5" font-family="Helvetica,sans-Serif" font-size="10.00">GPUBuffer</text>
</a>
</g>
</g>
<!-- Node2&#45;&gt;Node4 -->
<g id="edge4" class="edge">
<title>Node2&#45;&gt;Node4</title>
<path fill="none" stroke="midnightblue" d="M314.52,-125.57C309.58,-118.62 303.33,-110.88 296.5,-105 287.82,-97.52 276.73,-91.2 267.3,-86.56"/>
<polygon fill="midnightblue" stroke="midnightblue" points="311.9,-127.95 320.37,-134.32 317.72,-124.06 311.9,-127.95"/>
</g>
<!-- Node3 -->
<g id="node3" class="node">
<title>Node3</title>
<g id="a_node3"><a xlink:href="../../de/d01/classnap_1_1rtti_1_1_object.html" target="_top" xlink:title=" ">
<polygon fill="white" stroke="black" points="301.5,-212.5 301.5,-231.5 349.5,-231.5 349.5,-212.5 301.5,-212.5"/>
<text text-anchor="middle" x="325.5" y="-219.5" font-family="Helvetica,sans-Serif" font-size="10.00">Object</text>
</a>
</g>
</g>
<!-- Node3&#45;&gt;Node2 -->
<g id="edge2" class="edge">
<title>Node3&#45;&gt;Node2</title>
<path fill="none" stroke="midnightblue" d="M325.5,-202.22C325.5,-186.7 325.5,-165.36 325.5,-153.62"/>
<polygon fill="midnightblue" stroke="midnightblue" points="322,-202.28 325.5,-212.28 329,-202.28 322,-202.28"/>
</g>
<!-- Node4&#45;&gt;Node1 -->
<g id="edge3" class="edge">
<title>Node4&#45;&gt;Node1</title>
<path fill="none" stroke="#9a32cd" stroke-dasharray="5,2" d="M260.44,-59.53C265.9,-52.76 272.38,-44.9 278.5,-38 284.03,-31.77 290.53,-25.02 295.64,-19.83"/>
<polygon fill="#9a32cd" stroke="#9a32cd" points="257.69,-57.38 254.2,-67.38 263.16,-61.74 257.69,-57.38"/>
<text text-anchor="middle" x="300" y="-41" font-family="Helvetica,sans-Serif" font-size="10.00"> mBuffer</text>
</g>
<!-- Node5 -->
<g id="node5" class="node">
<title>Node5</title>
<g id="a_node5"><a xlink:href="../../d5/dc6/classnap_1_1_render_service.html" target="_top" xlink:title=" ">
<polygon fill="white" stroke="black" points="70,-134.5 70,-153.5 157,-153.5 157,-134.5 70,-134.5"/>
<text text-anchor="middle" x="113.5" y="-141.5" font-family="Helvetica,sans-Serif" font-size="10.00">RenderService</text>
</a>
</g>
</g>
<!-- Node5&#45;&gt;Node4 -->
<g id="edge5" class="edge">
<title>Node5&#45;&gt;Node4</title>
<path fill="none" stroke="#9a32cd" stroke-dasharray="5,2" d="M118.37,-124.71C121.14,-117.6 125.31,-109.99 131.5,-105 154.76,-86.25 188.72,-80.06 213.89,-78.23"/>
<polygon fill="#9a32cd" stroke="#9a32cd" points="114.99,-123.8 115.27,-134.39 121.66,-125.94 114.99,-123.8"/>
<text text-anchor="middle" x="173.5" y="-108" font-family="Helvetica,sans-Serif" font-size="10.00"> mRenderService</text>
</g>
<!-- Node6 -->
<g id="node6" class="node">
<title>Node6</title>
<g id="a_node6"><a xlink:href="../../d8/d8e/classnap_1_1_service.html" target="_top" xlink:title=" ">
<polygon fill="white" stroke="black" points="0,-212.5 0,-231.5 53,-231.5 53,-212.5 0,-212.5"/>
<text text-anchor="middle" x="26.5" y="-219.5" font-family="Helvetica,sans-Serif" font-size="10.00">Service</text>
</a>
</g>
</g>
<!-- Node6&#45;&gt;Node5 -->
<g id="edge6" class="edge">
<title>Node6&#45;&gt;Node5</title>
<path fill="none" stroke="midnightblue" d="M44.47,-205.3C62.4,-189.64 89.28,-166.16 103.64,-153.62"/>
<polygon fill="midnightblue" stroke="midnightblue" points="41.71,-203.07 36.48,-212.28 46.31,-208.34 41.71,-203.07"/>
</g>
<!-- Node7 -->
<g id="node7" class="node">
<title>Node7</title>
<g id="a_node7"><a xlink:href="../../de/d80/classnap_1_1_signal.html" target="_top" xlink:title=" ">
<polygon fill="white" stroke="black" points="71,-212.5 71,-231.5 248,-231.5 248,-212.5 71,-212.5"/>
<text text-anchor="middle" x="159.5" y="-219.5" font-family="Helvetica,sans-Serif" font-size="10.00">Signal&lt; nap::RenderWindow &amp; &gt;</text>
</a>
</g>
</g>
<!-- Node7&#45;&gt;Node5 -->
<g id="edge7" class="edge">
<title>Node7&#45;&gt;Node5</title>
<path fill="none" stroke="#9a32cd" stroke-dasharray="5,2" d="M148.95,-203.57C139.5,-187.95 126.03,-165.7 118.72,-153.62"/>
<polygon fill="#9a32cd" stroke="#9a32cd" points="146.05,-205.54 154.22,-212.28 152.04,-201.91 146.05,-205.54"/>
<text text-anchor="middle" x="186.5" y="-186" font-family="Helvetica,sans-Serif" font-size="10.00"> windowRemoved</text>
<text text-anchor="middle" x="186.5" y="-175" font-family="Helvetica,sans-Serif" font-size="10.00">windowAdded</text>
</g>
<!-- Node8 -->
<g id="node8" class="node">
<title>Node8</title>
<g id="a_node8"><a xlink:href="../../de/d80/classnap_1_1_signal.html" target="_top" xlink:title=" ">
<polygon fill="white" stroke="black" points="175,-134.5 175,-153.5 266,-153.5 266,-134.5 175,-134.5"/>
<text text-anchor="middle" x="220.5" y="-141.5" font-family="Helvetica,sans-Serif" font-size="10.00">Signal&lt; Args &gt;</text>
</a>
</g>
</g>
<!-- Node8&#45;&gt;Node4 -->
<g id="edge8" class="edge">
<title>Node8&#45;&gt;Node4</title>
<path fill="none" stroke="#9a32cd" stroke-dasharray="5,2" d="M218.32,-124.16C218.28,-117.86 219.02,-110.94 221.5,-105 224.52,-97.8 230.42,-91.41 235.84,-86.66"/>
<polygon fill="#9a32cd" stroke="#9a32cd" points="214.85,-124.74 219.02,-134.48 221.83,-124.27 214.85,-124.74"/>
<text text-anchor="middle" x="259" y="-108" font-family="Helvetica,sans-Serif" font-size="10.00"> bufferChanged</text>
</g>
</g>
</svg>
