<?xml version="1.0" encoding="UTF-8" standalone="no"?>
<!DOCTYPE svg PUBLIC "-//W3C//DTD SVG 1.1//EN"
 "http://www.w3.org/Graphics/SVG/1.1/DTD/svg11.dtd">
<!-- Generated by graphviz version 2.48.0 (20210717.1556)
 -->
<!-- Title: BufferBinding Pages: 1 -->
<svg width="333pt" height="240pt"
 viewBox="0.00 0.00 333.00 240.00" xmlns="http://www.w3.org/2000/svg" xmlns:xlink="http://www.w3.org/1999/xlink">
<g id="graph0" class="graph" transform="scale(1 1) rotate(0) translate(4 236)">
<title>BufferBinding</title>
<polygon fill="white" stroke="transparent" points="-4,4 -4,-236 329,-236 329,4 -4,4"/>
<!-- Node6 -->
<g id="node1" class="node">
<title>Node6</title>
<polygon fill="#bfbfbf" stroke="black" points="239,-0.5 239,-19.5 313,-19.5 313,-0.5 239,-0.5"/>
<text text-anchor="middle" x="276" y="-7.5" font-family="Helvetica,sans-Serif" font-size="10.00">BufferBinding</text>
</g>
<!-- Node7 -->
<g id="node2" class="node">
<title>Node7</title>
<g id="a_node2"><a xlink:href="../../d9/dea/classnap_1_1_resource.html" target="_top" xlink:title="Resource">
<polygon fill="white" stroke="black" points="267,-134.5 267,-153.5 325,-153.5 325,-134.5 267,-134.5"/>
<text text-anchor="middle" x="296" y="-141.5" font-family="Helvetica,sans-Serif" font-size="10.00">Resource</text>
</a>
</g>
</g>
<!-- Node7&#45;&gt;Node6 -->
<g id="edge1" class="edge">
<title>Node7&#45;&gt;Node6</title>
<path fill="none" stroke="midnightblue" d="M297.63,-124.38C298.93,-103.06 299.34,-67.31 291,-38 289.12,-31.4 285.37,-24.65 282.09,-19.55"/>
<polygon fill="midnightblue" stroke="midnightblue" points="294.14,-124.12 296.89,-134.35 301.12,-124.64 294.14,-124.12"/>
</g>
<!-- Node9 -->
<g id="node4" class="node">
<title>Node9</title>
<g id="a_node4"><a xlink:href="../../dd/df4/classnap_1_1_g_p_u_buffer.html" target="_top" xlink:title="GPUBuffer">
<polygon fill="white" stroke="black" points="192,-67.5 192,-86.5 254,-86.5 254,-67.5 192,-67.5"/>
<text text-anchor="middle" x="223" y="-74.5" font-family="Helvetica,sans-Serif" font-size="10.00">GPUBuffer</text>
</a>
</g>
</g>
<!-- Node7&#45;&gt;Node9 -->
<g id="edge4" class="edge">
<title>Node7&#45;&gt;Node9</title>
<path fill="none" stroke="midnightblue" d="M284.72,-126.25C279.52,-119.22 272.95,-111.24 266,-105 258,-97.82 247.86,-91.35 239.43,-86.54"/>
<polygon fill="midnightblue" stroke="midnightblue" points="281.89,-128.31 290.52,-134.46 287.61,-124.27 281.89,-128.31"/>
</g>
<!-- Node8 -->
<g id="node3" class="node">
<title>Node8</title>
<g id="a_node3"><a xlink:href="../../de/d01/classnap_1_1rtti_1_1_object.html" target="_top" xlink:title="Object">
<polygon fill="white" stroke="black" points="273.5,-212.5 273.5,-231.5 318.5,-231.5 318.5,-212.5 273.5,-212.5"/>
<text text-anchor="middle" x="296" y="-219.5" font-family="Helvetica,sans-Serif" font-size="10.00">Object</text>
</a>
</g>
</g>
<!-- Node8&#45;&gt;Node7 -->
<g id="edge2" class="edge">
<title>Node8&#45;&gt;Node7</title>
<path fill="none" stroke="midnightblue" d="M296,-202.22C296,-186.7 296,-165.36 296,-153.62"/>
<polygon fill="midnightblue" stroke="midnightblue" points="292.5,-202.28 296,-212.28 299.5,-202.28 292.5,-202.28"/>
</g>
<!-- Node9&#45;&gt;Node6 -->
<g id="edge3" class="edge">
<title>Node9&#45;&gt;Node6</title>
<path fill="none" stroke="#9a32cd" stroke-dasharray="5,2" d="M236.64,-59.27C246.97,-46.6 260.75,-29.7 268.97,-19.63"/>
<polygon fill="#9a32cd" stroke="#9a32cd" points="233.75,-57.27 230.15,-67.23 239.18,-61.7 233.75,-57.27"/>
<text text-anchor="middle" x="271.5" y="-41" font-family="Helvetica,sans-Serif" font-size="10.00"> mBuffer</text>
</g>
<!-- Node10 -->
<g id="node5" class="node">
<title>Node10</title>
<g id="a_node5"><a xlink:href="../../d5/dc6/classnap_1_1_render_service.html" target="_top" xlink:title="RenderService">
<polygon fill="white" stroke="black" points="61.5,-134.5 61.5,-153.5 140.5,-153.5 140.5,-134.5 61.5,-134.5"/>
<text text-anchor="middle" x="101" y="-141.5" font-family="Helvetica,sans-Serif" font-size="10.00">RenderService</text>
</a>
</g>
</g>
<!-- Node10&#45;&gt;Node9 -->
<g id="edge5" class="edge">
<title>Node10&#45;&gt;Node9</title>
<path fill="none" stroke="#9a32cd" stroke-dasharray="5,2" d="M106.94,-124.78C110.09,-117.68 114.65,-110.06 121,-105 141.2,-88.91 170.09,-82.35 191.97,-79.71"/>
<polygon fill="#9a32cd" stroke="#9a32cd" points="103.55,-123.84 103.29,-134.44 110.1,-126.32 103.55,-123.84"/>
<text text-anchor="middle" x="158" y="-108" font-family="Helvetica,sans-Serif" font-size="10.00"> mRenderService</text>
</g>
<!-- Node11 -->
<g id="node6" class="node">
<title>Node11</title>
<g id="a_node6"><a xlink:href="../../d8/d8e/classnap_1_1_service.html" target="_top" xlink:title="Service">
<polygon fill="white" stroke="black" points="0,-212.5 0,-231.5 48,-231.5 48,-212.5 0,-212.5"/>
<text text-anchor="middle" x="24" y="-219.5" font-family="Helvetica,sans-Serif" font-size="10.00">Service</text>
</a>
</g>
</g>
<!-- Node11&#45;&gt;Node10 -->
<g id="edge6" class="edge">
<title>Node11&#45;&gt;Node10</title>
<path fill="none" stroke="midnightblue" d="M40.34,-204.88C56.2,-189.22 79.68,-166.04 92.27,-153.62"/>
<polygon fill="midnightblue" stroke="midnightblue" points="37.49,-202.77 32.83,-212.28 42.41,-207.75 37.49,-202.77"/>
</g>
<!-- Node12 -->
<g id="node7" class="node">
<title>Node12</title>
<g id="a_node7"><a xlink:href="../../de/d80/classnap_1_1_signal.html" target="_top" xlink:title="Signal\&lt; nap::RenderWindow &amp;\&gt;">
<polygon fill="white" stroke="black" points="66.5,-212.5 66.5,-231.5 221.5,-231.5 221.5,-212.5 66.5,-212.5"/>
<text text-anchor="middle" x="144" y="-219.5" font-family="Helvetica,sans-Serif" font-size="10.00">Signal&lt; nap::RenderWindow &amp;&gt;</text>
</a>
</g>
</g>
<!-- Node12&#45;&gt;Node10 -->
<g id="edge7" class="edge">
<title>Node12&#45;&gt;Node10</title>
<path fill="none" stroke="#9a32cd" stroke-dasharray="5,2" d="M134.14,-203.57C125.3,-187.95 112.71,-165.7 105.88,-153.62"/>
<polygon fill="#9a32cd" stroke="#9a32cd" points="131.1,-205.3 139.07,-212.28 137.19,-201.85 131.1,-205.3"/>
<text text-anchor="middle" x="165.5" y="-186" font-family="Helvetica,sans-Serif" font-size="10.00"> windowRemoved</text>
<text text-anchor="middle" x="165.5" y="-175" font-family="Helvetica,sans-Serif" font-size="10.00">windowAdded</text>
</g>
<!-- Node13 -->
<g id="node8" class="node">
<title>Node13</title>
<g id="a_node8"><a xlink:href="../../de/d80/classnap_1_1_signal.html" target="_top" xlink:title="Signal\&lt; Args \&gt;">
<polygon fill="white" stroke="black" points="159,-134.5 159,-153.5 241,-153.5 241,-134.5 159,-134.5"/>
<text text-anchor="middle" x="200" y="-141.5" font-family="Helvetica,sans-Serif" font-size="10.00">Signal&lt; Args &gt;</text>
</a>
</g>
</g>
<!-- Node13&#45;&gt;Node9 -->
<g id="edge8" class="edge">
<title>Node13&#45;&gt;Node9</title>
<path fill="none" stroke="#9a32cd" stroke-dasharray="5,2" d="M198.1,-124.03C198.1,-117.8 198.79,-110.96 201,-105 203.61,-97.97 208.85,-91.42 213.56,-86.53"/>
<polygon fill="#9a32cd" stroke="#9a32cd" points="194.62,-124.46 198.67,-134.25 201.61,-124.07 194.62,-124.46"/>
<text text-anchor="middle" x="233.5" y="-108" font-family="Helvetica,sans-Serif" font-size="10.00"> bufferChanged</text>
</g>
</g>
</svg>
