<?xml version="1.0" encoding="UTF-8" standalone="no"?>
<!DOCTYPE svg PUBLIC "-//W3C//DTD SVG 1.1//EN"
 "http://www.w3.org/Graphics/SVG/1.1/DTD/svg11.dtd">
<!-- Generated by graphviz version 2.43.0 (0)
 -->
<!-- Title: AudioComponentBaseInstance Pages: 1 -->
<svg width="258pt" height="140pt"
 viewBox="0.00 0.00 257.50 140.00" xmlns="http://www.w3.org/2000/svg" xmlns:xlink="http://www.w3.org/1999/xlink">
<g id="graph0" class="graph" transform="scale(1 1) rotate(0) translate(4 136)">
<title>AudioComponentBaseInstance</title>
<polygon fill="white" stroke="transparent" points="-4,4 -4,-136 253.5,-136 253.5,4 -4,4"/>
<!-- Node1 -->
<g id="node1" class="node">
<title>Node1</title>
<g id="a_node1"><a xlink:title=" ">
<polygon fill="#bfbfbf" stroke="black" points="41,-0.5 41,-19.5 207,-19.5 207,-0.5 41,-0.5"/>
<text text-anchor="middle" x="124" y="-7.5" font-family="Helvetica,sans-Serif" font-size="10.00">AudioComponentBaseInstance</text>
</a>
</g>
</g>
<!-- Node2 -->
<g id="node2" class="node">
<title>Node2</title>
<g id="a_node2"><a xlink:href="../../d9/df2/classnap_1_1_component_instance.html" target="_top" xlink:title=" ">
<polygon fill="white" stroke="black" points="0,-56.5 0,-75.5 114,-75.5 114,-56.5 0,-56.5"/>
<text text-anchor="middle" x="57" y="-63.5" font-family="Helvetica,sans-Serif" font-size="10.00">ComponentInstance</text>
</a>
</g>
</g>
<!-- Node2&#45;&gt;Node1 -->
<g id="edge1" class="edge">
<title>Node2&#45;&gt;Node1</title>
<path fill="none" stroke="midnightblue" d="M75.83,-49.82C87.84,-40.15 102.97,-27.95 113.04,-19.83"/>
<polygon fill="midnightblue" stroke="midnightblue" points="73.35,-47.32 67.76,-56.32 77.75,-52.77 73.35,-47.32"/>
</g>
<!-- Node3 -->
<g id="node3" class="node">
<title>Node3</title>
<g id="a_node3"><a xlink:href="../../de/d01/classnap_1_1rtti_1_1_object.html" target="_top" xlink:title=" ">
<polygon fill="white" stroke="black" points="33,-112.5 33,-131.5 81,-131.5 81,-112.5 33,-112.5"/>
<text text-anchor="middle" x="57" y="-119.5" font-family="Helvetica,sans-Serif" font-size="10.00">Object</text>
</a>
</g>
</g>
<!-- Node3&#45;&gt;Node2 -->
<g id="edge2" class="edge">
<title>Node3&#45;&gt;Node2</title>
<path fill="none" stroke="midnightblue" d="M57,-101.8C57,-92.91 57,-82.78 57,-75.75"/>
<polygon fill="midnightblue" stroke="midnightblue" points="53.5,-102.08 57,-112.08 60.5,-102.08 53.5,-102.08"/>
</g>
<!-- Node4 -->
<g id="node4" class="node">
<title>Node4</title>
<g id="a_node4"><a xlink:href="../../d6/d4a/classnap_1_1audio_1_1_i_multi_channel_output.html" target="_top" xlink:title=" ">
<polygon fill="white" stroke="black" points="132.5,-56.5 132.5,-75.5 249.5,-75.5 249.5,-56.5 132.5,-56.5"/>
<text text-anchor="middle" x="191" y="-63.5" font-family="Helvetica,sans-Serif" font-size="10.00">IMultiChannelOutput</text>
</a>
</g>
</g>
<!-- Node4&#45;&gt;Node1 -->
<g id="edge3" class="edge">
<title>Node4&#45;&gt;Node1</title>
<path fill="none" stroke="midnightblue" d="M172.17,-49.82C160.16,-40.15 145.03,-27.95 134.96,-19.83"/>
<polygon fill="midnightblue" stroke="midnightblue" points="170.25,-52.77 180.24,-56.32 174.65,-47.32 170.25,-52.77"/>
</g>
</g>
</svg>
