<?xml version="1.0" encoding="UTF-8" standalone="no"?>
<!DOCTYPE svg PUBLIC "-//W3C//DTD SVG 1.1//EN"
 "http://www.w3.org/Graphics/SVG/1.1/DTD/svg11.dtd">
<!-- Generated by graphviz version 2.48.0 (20210717.1556)
 -->
<!-- Title: VertexBuffer&lt; T &gt; Pages: 1 -->
<svg width="156pt" height="308pt"
 viewBox="0.00 0.00 156.00 308.00" xmlns="http://www.w3.org/2000/svg" xmlns:xlink="http://www.w3.org/1999/xlink">
<g id="graph0" class="graph" transform="scale(1 1) rotate(0) translate(4 304)">
<title>VertexBuffer&lt; T &gt;</title>
<polygon fill="white" stroke="transparent" points="-4,4 -4,-304 152,-304 152,4 -4,4"/>
<!-- Node0 -->
<g id="node1" class="node">
<title>Node0</title>
<polygon fill="#bfbfbf" stroke="black" points="27.5,-0.5 27.5,-19.5 120.5,-19.5 120.5,-0.5 27.5,-0.5"/>
<text text-anchor="middle" x="74" y="-7.5" font-family="Helvetica,sans-Serif" font-size="10.00">VertexBuffer&lt; T &gt;</text>
</g>
<!-- Node1 -->
<g id="node2" class="node">
<title>Node1</title>
<g id="a_node2"><a xlink:href="../../d4/d83/classnap_1_1_typed_g_p_u_buffer_numeric.html" target="_top" xlink:title="TypedGPUBufferNumeric\&lt; T \&gt;">
<polygon fill="white" stroke="black" points="0,-56.5 0,-75.5 148,-75.5 148,-56.5 0,-56.5"/>
<text text-anchor="middle" x="74" y="-63.5" font-family="Helvetica,sans-Serif" font-size="10.00">TypedGPUBufferNumeric&lt; T &gt;</text>
</a>
</g>
</g>
<!-- Node1&#45;&gt;Node0 -->
<g id="edge1" class="edge">
<title>Node1&#45;&gt;Node0</title>
<path fill="none" stroke="midnightblue" d="M74,-45.8C74,-36.91 74,-26.78 74,-19.75"/>
<polygon fill="midnightblue" stroke="midnightblue" points="70.5,-46.08 74,-56.08 77.5,-46.08 70.5,-46.08"/>
</g>
<!-- Node2 -->
<g id="node3" class="node">
<title>Node2</title>
<g id="a_node3"><a xlink:href="../../dd/d69/classnap_1_1_g_p_u_buffer_numeric.html" target="_top" xlink:title="GPUBufferNumeric">
<polygon fill="white" stroke="black" points="25,-112.5 25,-131.5 123,-131.5 123,-112.5 25,-112.5"/>
<text text-anchor="middle" x="74" y="-119.5" font-family="Helvetica,sans-Serif" font-size="10.00">GPUBufferNumeric</text>
</a>
</g>
</g>
<!-- Node2&#45;&gt;Node1 -->
<g id="edge2" class="edge">
<title>Node2&#45;&gt;Node1</title>
<path fill="none" stroke="midnightblue" d="M74,-101.8C74,-92.91 74,-82.78 74,-75.75"/>
<polygon fill="midnightblue" stroke="midnightblue" points="70.5,-102.08 74,-112.08 77.5,-102.08 70.5,-102.08"/>
</g>
<!-- Node3 -->
<g id="node4" class="node">
<title>Node3</title>
<g id="a_node4"><a xlink:href="../../dd/df4/classnap_1_1_g_p_u_buffer.html" target="_top" xlink:title="GPUBuffer">
<polygon fill="white" stroke="black" points="43,-168.5 43,-187.5 105,-187.5 105,-168.5 43,-168.5"/>
<text text-anchor="middle" x="74" y="-175.5" font-family="Helvetica,sans-Serif" font-size="10.00">GPUBuffer</text>
</a>
</g>
</g>
<!-- Node3&#45;&gt;Node2 -->
<g id="edge3" class="edge">
<title>Node3&#45;&gt;Node2</title>
<path fill="none" stroke="midnightblue" d="M74,-157.8C74,-148.91 74,-138.78 74,-131.75"/>
<polygon fill="midnightblue" stroke="midnightblue" points="70.5,-158.08 74,-168.08 77.5,-158.08 70.5,-158.08"/>
</g>
<!-- Node4 -->
<g id="node5" class="node">
<title>Node4</title>
<g id="a_node5"><a xlink:href="../../d9/dea/classnap_1_1_resource.html" target="_top" xlink:title="Resource">
<polygon fill="white" stroke="black" points="45,-224.5 45,-243.5 103,-243.5 103,-224.5 45,-224.5"/>
<text text-anchor="middle" x="74" y="-231.5" font-family="Helvetica,sans-Serif" font-size="10.00">Resource</text>
</a>
</g>
</g>
<!-- Node4&#45;&gt;Node3 -->
<g id="edge4" class="edge">
<title>Node4&#45;&gt;Node3</title>
<path fill="none" stroke="midnightblue" d="M74,-213.8C74,-204.91 74,-194.78 74,-187.75"/>
<polygon fill="midnightblue" stroke="midnightblue" points="70.5,-214.08 74,-224.08 77.5,-214.08 70.5,-214.08"/>
</g>
<!-- Node5 -->
<g id="node6" class="node">
<title>Node5</title>
<g id="a_node6"><a xlink:href="../../de/d01/classnap_1_1rtti_1_1_object.html" target="_top" xlink:title="Object">
<polygon fill="white" stroke="black" points="51.5,-280.5 51.5,-299.5 96.5,-299.5 96.5,-280.5 51.5,-280.5"/>
<text text-anchor="middle" x="74" y="-287.5" font-family="Helvetica,sans-Serif" font-size="10.00">Object</text>
</a>
</g>
</g>
<!-- Node5&#45;&gt;Node4 -->
<g id="edge5" class="edge">
<title>Node5&#45;&gt;Node4</title>
<path fill="none" stroke="midnightblue" d="M74,-269.8C74,-260.91 74,-250.78 74,-243.75"/>
<polygon fill="midnightblue" stroke="midnightblue" points="70.5,-270.08 74,-280.08 77.5,-270.08 70.5,-270.08"/>
</g>
</g>
</svg>
