<?xml version="1.0" encoding="UTF-8" standalone="no"?>
<!DOCTYPE svg PUBLIC "-//W3C//DTD SVG 1.1//EN"
 "http://www.w3.org/Graphics/SVG/1.1/DTD/svg11.dtd">
<!-- Generated by graphviz version 3.0.0 (20220226.1711)
 -->
<!-- Title: Sampler2D Pages: 1 -->
<svg width="224pt" height="209pt"
 viewBox="0.00 0.00 224.00 209.00" xmlns="http://www.w3.org/2000/svg" xmlns:xlink="http://www.w3.org/1999/xlink">
<g id="graph0" class="graph" transform="scale(1 1) rotate(0) translate(4 205)">
<title>Sampler2D</title>
<polygon fill="white" stroke="transparent" points="-4,4 -4,-205 220,-205 220,4 -4,4"/>
<!-- Node4 -->
<g id="node1" class="node">
<title>Node4</title>
<polygon fill="#bfbfbf" stroke="black" points="53.5,-0.5 53.5,-19.5 118.5,-19.5 118.5,-0.5 53.5,-0.5"/>
<text text-anchor="middle" x="86" y="-7.5" font-family="Helvetica,sans-Serif" font-size="10.00">Sampler2D</text>
</g>
<!-- Node5 -->
<g id="node2" class="node">
<title>Node5</title>
<g id="a_node2"><a xlink:href="../../d4/def/classnap_1_1_sampler.html" target="_top" xlink:title="Sampler">
<polygon fill="white" stroke="black" points="2.5,-67.5 2.5,-86.5 55.5,-86.5 55.5,-67.5 2.5,-67.5"/>
<text text-anchor="middle" x="29" y="-74.5" font-family="Helvetica,sans-Serif" font-size="10.00">Sampler</text>
</a>
</g>
</g>
<!-- Node5&#45;&gt;Node4 -->
<g id="edge1" class="edge">
<title>Node5&#45;&gt;Node4</title>
<path fill="none" stroke="midnightblue" d="M43.35,-59.63C54.5,-46.92 69.52,-29.8 78.43,-19.63"/>
<polygon fill="midnightblue" stroke="midnightblue" points="40.65,-57.41 36.69,-67.23 45.91,-62.02 40.65,-57.41"/>
</g>
<!-- Node6 -->
<g id="node3" class="node">
<title>Node6</title>
<g id="a_node3"><a xlink:href="../../d9/dea/classnap_1_1_resource.html" target="_top" xlink:title="Resource">
<polygon fill="white" stroke="black" points="0,-124.5 0,-143.5 58,-143.5 58,-124.5 0,-124.5"/>
<text text-anchor="middle" x="29" y="-131.5" font-family="Helvetica,sans-Serif" font-size="10.00">Resource</text>
</a>
</g>
</g>
<!-- Node6&#45;&gt;Node5 -->
<g id="edge2" class="edge">
<title>Node6&#45;&gt;Node5</title>
<path fill="none" stroke="midnightblue" d="M29,-114.12C29,-104.82 29,-94.06 29,-86.71"/>
<polygon fill="midnightblue" stroke="midnightblue" points="25.5,-114.41 29,-124.41 32.5,-114.41 25.5,-114.41"/>
</g>
<!-- Node7 -->
<g id="node4" class="node">
<title>Node7</title>
<g id="a_node4"><a xlink:href="../../de/d01/classnap_1_1rtti_1_1_object.html" target="_top" xlink:title="Object">
<polygon fill="white" stroke="black" points="6.5,-181.5 6.5,-200.5 51.5,-200.5 51.5,-181.5 6.5,-181.5"/>
<text text-anchor="middle" x="29" y="-188.5" font-family="Helvetica,sans-Serif" font-size="10.00">Object</text>
</a>
</g>
</g>
<!-- Node7&#45;&gt;Node6 -->
<g id="edge3" class="edge">
<title>Node7&#45;&gt;Node6</title>
<path fill="none" stroke="midnightblue" d="M29,-171.12C29,-161.82 29,-151.06 29,-143.71"/>
<polygon fill="midnightblue" stroke="midnightblue" points="25.5,-171.41 29,-181.41 32.5,-171.41 25.5,-171.41"/>
</g>
<!-- Node8 -->
<g id="node5" class="node">
<title>Node8</title>
<g id="a_node5"><a xlink:href="../../dd/d7c/classnap_1_1rtti_1_1_object_ptr.html" target="_top" xlink:title="ObjectPtr\&lt; nap::Texture2D \&gt;">
<polygon fill="white" stroke="black" points="74,-67.5 74,-86.5 216,-86.5 216,-67.5 74,-67.5"/>
<text text-anchor="middle" x="145" y="-74.5" font-family="Helvetica,sans-Serif" font-size="10.00">ObjectPtr&lt; nap::Texture2D &gt;</text>
</a>
</g>
</g>
<!-- Node8&#45;&gt;Node4 -->
<g id="edge4" class="edge">
<title>Node8&#45;&gt;Node4</title>
<path fill="none" stroke="#9a32cd" stroke-dasharray="5,2" d="M130.15,-59.63C118.61,-46.92 103.06,-29.8 93.83,-19.63"/>
<polygon fill="#9a32cd" stroke="#9a32cd" points="127.73,-62.18 137.04,-67.23 132.91,-57.48 127.73,-62.18"/>
<text text-anchor="middle" x="142" y="-41" font-family="Helvetica,sans-Serif" font-size="10.00"> mTexture</text>
</g>
<!-- Node9 -->
<g id="node6" class="node">
<title>Node9</title>
<g id="a_node6"><a xlink:href="../../d7/dcb/classnap_1_1rtti_1_1_object_ptr_base.html" target="_top" xlink:title="ObjectPtrBase">
<polygon fill="white" stroke="black" points="105,-124.5 105,-143.5 185,-143.5 185,-124.5 105,-124.5"/>
<text text-anchor="middle" x="145" y="-131.5" font-family="Helvetica,sans-Serif" font-size="10.00">ObjectPtrBase</text>
</a>
</g>
</g>
<!-- Node9&#45;&gt;Node8 -->
<g id="edge5" class="edge">
<title>Node9&#45;&gt;Node8</title>
<path fill="none" stroke="midnightblue" d="M145,-114.12C145,-104.82 145,-94.06 145,-86.71"/>
<polygon fill="midnightblue" stroke="midnightblue" points="141.5,-114.41 145,-124.41 148.5,-114.41 141.5,-114.41"/>
</g>
</g>
</svg>
