<?xml version="1.0" encoding="UTF-8" standalone="no"?>
<!DOCTYPE svg PUBLIC "-//W3C//DTD SVG 1.1//EN"
 "http://www.w3.org/Graphics/SVG/1.1/DTD/svg11.dtd">
<!-- Generated by graphviz version 3.0.0 (20220226.1711)
 -->
<!-- Title: RenderGnomonComponent Pages: 1 -->
<svg width="300pt" height="266pt"
 viewBox="0.00 0.00 299.50 266.00" xmlns="http://www.w3.org/2000/svg" xmlns:xlink="http://www.w3.org/1999/xlink">
<g id="graph0" class="graph" transform="scale(1 1) rotate(0) translate(4 262)">
<title>RenderGnomonComponent</title>
<polygon fill="white" stroke="transparent" points="-4,4 -4,-262 295.5,-262 295.5,4 -4,4"/>
<!-- Node5 -->
<g id="node1" class="node">
<title>Node5</title>
<polygon fill="#bfbfbf" stroke="black" points="67.5,-0.5 67.5,-19.5 201.5,-19.5 201.5,-0.5 67.5,-0.5"/>
<text text-anchor="middle" x="134.5" y="-7.5" font-family="Helvetica,sans-Serif" font-size="10.00">RenderGnomonComponent</text>
</g>
<!-- Node6 -->
<g id="node2" class="node">
<title>Node6</title>
<g id="a_node2"><a xlink:href="../../d1/d2c/classnap_1_1_renderable_component.html" target="_top" xlink:title="RenderableComponent">
<polygon fill="white" stroke="black" points="0,-67.5 0,-86.5 115,-86.5 115,-67.5 0,-67.5"/>
<text text-anchor="middle" x="57.5" y="-74.5" font-family="Helvetica,sans-Serif" font-size="10.00">RenderableComponent</text>
</a>
</g>
</g>
<!-- Node6&#45;&gt;Node5 -->
<g id="edge1" class="edge">
<title>Node6&#45;&gt;Node5</title>
<path fill="none" stroke="midnightblue" d="M75.61,-60.71C90.78,-47.91 111.89,-30.09 124.28,-19.63"/>
<polygon fill="midnightblue" stroke="midnightblue" points="73.27,-58.11 67.88,-67.23 77.78,-63.46 73.27,-58.11"/>
</g>
<!-- Node7 -->
<g id="node3" class="node">
<title>Node7</title>
<g id="a_node3"><a xlink:href="../../db/d6b/classnap_1_1_component.html" target="_top" xlink:title="Component">
<polygon fill="white" stroke="black" points="24.5,-124.5 24.5,-143.5 90.5,-143.5 90.5,-124.5 24.5,-124.5"/>
<text text-anchor="middle" x="57.5" y="-131.5" font-family="Helvetica,sans-Serif" font-size="10.00">Component</text>
</a>
</g>
</g>
<!-- Node7&#45;&gt;Node6 -->
<g id="edge2" class="edge">
<title>Node7&#45;&gt;Node6</title>
<path fill="none" stroke="midnightblue" d="M57.5,-114.12C57.5,-104.82 57.5,-94.06 57.5,-86.71"/>
<polygon fill="midnightblue" stroke="midnightblue" points="54,-114.41 57.5,-124.41 61,-114.41 54,-114.41"/>
</g>
<!-- Node8 -->
<g id="node4" class="node">
<title>Node8</title>
<g id="a_node4"><a xlink:href="../../d9/dea/classnap_1_1_resource.html" target="_top" xlink:title="Resource">
<polygon fill="white" stroke="black" points="28.5,-181.5 28.5,-200.5 86.5,-200.5 86.5,-181.5 28.5,-181.5"/>
<text text-anchor="middle" x="57.5" y="-188.5" font-family="Helvetica,sans-Serif" font-size="10.00">Resource</text>
</a>
</g>
</g>
<!-- Node8&#45;&gt;Node7 -->
<g id="edge3" class="edge">
<title>Node8&#45;&gt;Node7</title>
<path fill="none" stroke="midnightblue" d="M57.5,-171.12C57.5,-161.82 57.5,-151.06 57.5,-143.71"/>
<polygon fill="midnightblue" stroke="midnightblue" points="54,-171.41 57.5,-181.41 61,-171.41 54,-171.41"/>
</g>
<!-- Node9 -->
<g id="node5" class="node">
<title>Node9</title>
<g id="a_node5"><a xlink:href="../../de/d01/classnap_1_1rtti_1_1_object.html" target="_top" xlink:title="Object">
<polygon fill="white" stroke="black" points="35,-238.5 35,-257.5 80,-257.5 80,-238.5 35,-238.5"/>
<text text-anchor="middle" x="57.5" y="-245.5" font-family="Helvetica,sans-Serif" font-size="10.00">Object</text>
</a>
</g>
</g>
<!-- Node9&#45;&gt;Node8 -->
<g id="edge4" class="edge">
<title>Node9&#45;&gt;Node8</title>
<path fill="none" stroke="midnightblue" d="M57.5,-228.12C57.5,-218.82 57.5,-208.06 57.5,-200.71"/>
<polygon fill="midnightblue" stroke="midnightblue" points="54,-228.41 57.5,-238.41 61,-228.41 54,-228.41"/>
</g>
<!-- Node10 -->
<g id="node6" class="node">
<title>Node10</title>
<g id="a_node6"><a xlink:href="../../dd/d7c/classnap_1_1rtti_1_1_object_ptr.html" target="_top" xlink:title="ObjectPtr\&lt; nap::GnomonMesh \&gt;">
<polygon fill="white" stroke="black" points="133.5,-67.5 133.5,-86.5 291.5,-86.5 291.5,-67.5 133.5,-67.5"/>
<text text-anchor="middle" x="212.5" y="-74.5" font-family="Helvetica,sans-Serif" font-size="10.00">ObjectPtr&lt; nap::GnomonMesh &gt;</text>
</a>
</g>
</g>
<!-- Node10&#45;&gt;Node5 -->
<g id="edge5" class="edge">
<title>Node10&#45;&gt;Node5</title>
<path fill="none" stroke="#9a32cd" stroke-dasharray="5,2" d="M194.16,-60.71C178.79,-47.91 157.41,-30.09 144.85,-19.63"/>
<polygon fill="#9a32cd" stroke="#9a32cd" points="192.06,-63.52 201.98,-67.23 196.54,-58.14 192.06,-63.52"/>
<text text-anchor="middle" x="196.5" y="-41" font-family="Helvetica,sans-Serif" font-size="10.00"> mMesh</text>
</g>
<!-- Node11 -->
<g id="node7" class="node">
<title>Node11</title>
<g id="a_node7"><a xlink:href="../../d7/dcb/classnap_1_1rtti_1_1_object_ptr_base.html" target="_top" xlink:title="ObjectPtrBase">
<polygon fill="white" stroke="black" points="172.5,-124.5 172.5,-143.5 252.5,-143.5 252.5,-124.5 172.5,-124.5"/>
<text text-anchor="middle" x="212.5" y="-131.5" font-family="Helvetica,sans-Serif" font-size="10.00">ObjectPtrBase</text>
</a>
</g>
</g>
<!-- Node11&#45;&gt;Node10 -->
<g id="edge6" class="edge">
<title>Node11&#45;&gt;Node10</title>
<path fill="none" stroke="midnightblue" d="M212.5,-114.12C212.5,-104.82 212.5,-94.06 212.5,-86.71"/>
<polygon fill="midnightblue" stroke="midnightblue" points="209,-114.41 212.5,-124.41 216,-114.41 209,-114.41"/>
</g>
</g>
</svg>
