<?xml version="1.0" encoding="UTF-8" standalone="no"?>
<!DOCTYPE svg PUBLIC "-//W3C//DTD SVG 1.1//EN"
 "http://www.w3.org/Graphics/SVG/1.1/DTD/svg11.dtd">
<!-- Generated by graphviz version 2.43.0 (0)
 -->
<!-- Title: BufferBindingNumeric Pages: 1 -->
<svg width="375pt" height="297pt"
 viewBox="0.00 0.00 374.50 297.00" xmlns="http://www.w3.org/2000/svg" xmlns:xlink="http://www.w3.org/1999/xlink">
<g id="graph0" class="graph" transform="scale(1 1) rotate(0) translate(4 293)">
<title>BufferBindingNumeric</title>
<polygon fill="white" stroke="transparent" points="-4,4 -4,-293 370.5,-293 370.5,4 -4,4"/>
<!-- Node1 -->
<g id="node1" class="node">
<title>Node1</title>
<g id="a_node1"><a xlink:title=" ">
<polygon fill="#bfbfbf" stroke="black" points="242.5,-0.5 242.5,-19.5 366.5,-19.5 366.5,-0.5 242.5,-0.5"/>
<text text-anchor="middle" x="304.5" y="-7.5" font-family="Helvetica,sans-Serif" font-size="10.00">BufferBindingNumeric</text>
</a>
</g>
</g>
<!-- Node2 -->
<g id="node2" class="node">
<title>Node2</title>
<g id="a_node2"><a xlink:href="../../d0/d99/classnap_1_1_buffer_binding.html" target="_top" xlink:title=" ">
<polygon fill="white" stroke="black" points="263,-57.5 263,-76.5 346,-76.5 346,-57.5 263,-57.5"/>
<text text-anchor="middle" x="304.5" y="-64.5" font-family="Helvetica,sans-Serif" font-size="10.00">BufferBinding</text>
</a>
</g>
</g>
<!-- Node2&#45;&gt;Node1 -->
<g id="edge1" class="edge">
<title>Node2&#45;&gt;Node1</title>
<path fill="none" stroke="midnightblue" d="M304.5,-47.12C304.5,-37.82 304.5,-27.06 304.5,-19.71"/>
<polygon fill="midnightblue" stroke="midnightblue" points="301,-47.41 304.5,-57.41 308,-47.41 301,-47.41"/>
</g>
<!-- Node3 -->
<g id="node3" class="node">
<title>Node3</title>
<g id="a_node3"><a xlink:href="../../d9/dea/classnap_1_1_resource.html" target="_top" xlink:title=" ">
<polygon fill="white" stroke="black" points="294.5,-191.5 294.5,-210.5 356.5,-210.5 356.5,-191.5 294.5,-191.5"/>
<text text-anchor="middle" x="325.5" y="-198.5" font-family="Helvetica,sans-Serif" font-size="10.00">Resource</text>
</a>
</g>
</g>
<!-- Node3&#45;&gt;Node2 -->
<g id="edge2" class="edge">
<title>Node3&#45;&gt;Node2</title>
<path fill="none" stroke="midnightblue" d="M327.65,-181.3C329.46,-159.91 330.5,-124.1 321.5,-95 319.47,-88.44 315.42,-81.9 311.78,-76.9"/>
<polygon fill="midnightblue" stroke="midnightblue" points="324.16,-181.01 326.65,-191.31 331.13,-181.71 324.16,-181.01"/>
</g>
<!-- Node5 -->
<g id="node5" class="node">
<title>Node5</title>
<g id="a_node5"><a xlink:href="../../dd/df4/classnap_1_1_g_p_u_buffer.html" target="_top" xlink:title=" ">
<polygon fill="white" stroke="black" points="214,-124.5 214,-143.5 281,-143.5 281,-124.5 214,-124.5"/>
<text text-anchor="middle" x="247.5" y="-131.5" font-family="Helvetica,sans-Serif" font-size="10.00">GPUBuffer</text>
</a>
</g>
</g>
<!-- Node3&#45;&gt;Node5 -->
<g id="edge5" class="edge">
<title>Node3&#45;&gt;Node5</title>
<path fill="none" stroke="midnightblue" d="M314.52,-182.57C309.58,-175.62 303.33,-167.88 296.5,-162 287.82,-154.52 276.73,-148.2 267.3,-143.56"/>
<polygon fill="midnightblue" stroke="midnightblue" points="311.9,-184.95 320.37,-191.32 317.72,-181.06 311.9,-184.95"/>
</g>
<!-- Node4 -->
<g id="node4" class="node">
<title>Node4</title>
<g id="a_node4"><a xlink:href="../../de/d01/classnap_1_1rtti_1_1_object.html" target="_top" xlink:title=" ">
<polygon fill="white" stroke="black" points="301.5,-269.5 301.5,-288.5 349.5,-288.5 349.5,-269.5 301.5,-269.5"/>
<text text-anchor="middle" x="325.5" y="-276.5" font-family="Helvetica,sans-Serif" font-size="10.00">Object</text>
</a>
</g>
</g>
<!-- Node4&#45;&gt;Node3 -->
<g id="edge3" class="edge">
<title>Node4&#45;&gt;Node3</title>
<path fill="none" stroke="midnightblue" d="M325.5,-259.22C325.5,-243.7 325.5,-222.36 325.5,-210.62"/>
<polygon fill="midnightblue" stroke="midnightblue" points="322,-259.28 325.5,-269.28 329,-259.28 322,-259.28"/>
</g>
<!-- Node5&#45;&gt;Node2 -->
<g id="edge4" class="edge">
<title>Node5&#45;&gt;Node2</title>
<path fill="none" stroke="#9a32cd" stroke-dasharray="5,2" d="M260.44,-116.53C265.9,-109.76 272.38,-101.9 278.5,-95 284.03,-88.77 290.53,-82.02 295.64,-76.83"/>
<polygon fill="#9a32cd" stroke="#9a32cd" points="257.69,-114.38 254.2,-124.38 263.16,-118.74 257.69,-114.38"/>
<text text-anchor="middle" x="300" y="-98" font-family="Helvetica,sans-Serif" font-size="10.00"> mBuffer</text>
</g>
<!-- Node6 -->
<g id="node6" class="node">
<title>Node6</title>
<g id="a_node6"><a xlink:href="../../d5/dc6/classnap_1_1_render_service.html" target="_top" xlink:title=" ">
<polygon fill="white" stroke="black" points="70,-191.5 70,-210.5 157,-210.5 157,-191.5 70,-191.5"/>
<text text-anchor="middle" x="113.5" y="-198.5" font-family="Helvetica,sans-Serif" font-size="10.00">RenderService</text>
</a>
</g>
</g>
<!-- Node6&#45;&gt;Node5 -->
<g id="edge6" class="edge">
<title>Node6&#45;&gt;Node5</title>
<path fill="none" stroke="#9a32cd" stroke-dasharray="5,2" d="M118.37,-181.71C121.14,-174.6 125.31,-166.99 131.5,-162 154.76,-143.25 188.72,-137.06 213.89,-135.23"/>
<polygon fill="#9a32cd" stroke="#9a32cd" points="114.99,-180.8 115.27,-191.39 121.66,-182.94 114.99,-180.8"/>
<text text-anchor="middle" x="173.5" y="-165" font-family="Helvetica,sans-Serif" font-size="10.00"> mRenderService</text>
</g>
<!-- Node7 -->
<g id="node7" class="node">
<title>Node7</title>
<g id="a_node7"><a xlink:href="../../d8/d8e/classnap_1_1_service.html" target="_top" xlink:title=" ">
<polygon fill="white" stroke="black" points="0,-269.5 0,-288.5 53,-288.5 53,-269.5 0,-269.5"/>
<text text-anchor="middle" x="26.5" y="-276.5" font-family="Helvetica,sans-Serif" font-size="10.00">Service</text>
</a>
</g>
</g>
<!-- Node7&#45;&gt;Node6 -->
<g id="edge7" class="edge">
<title>Node7&#45;&gt;Node6</title>
<path fill="none" stroke="midnightblue" d="M44.47,-262.3C62.4,-246.64 89.28,-223.16 103.64,-210.62"/>
<polygon fill="midnightblue" stroke="midnightblue" points="41.71,-260.07 36.48,-269.28 46.31,-265.34 41.71,-260.07"/>
</g>
<!-- Node8 -->
<g id="node8" class="node">
<title>Node8</title>
<g id="a_node8"><a xlink:href="../../de/d80/classnap_1_1_signal.html" target="_top" xlink:title=" ">
<polygon fill="white" stroke="black" points="71,-269.5 71,-288.5 248,-288.5 248,-269.5 71,-269.5"/>
<text text-anchor="middle" x="159.5" y="-276.5" font-family="Helvetica,sans-Serif" font-size="10.00">Signal&lt; nap::RenderWindow &amp; &gt;</text>
</a>
</g>
</g>
<!-- Node8&#45;&gt;Node6 -->
<g id="edge8" class="edge">
<title>Node8&#45;&gt;Node6</title>
<path fill="none" stroke="#9a32cd" stroke-dasharray="5,2" d="M148.95,-260.57C139.5,-244.95 126.03,-222.7 118.72,-210.62"/>
<polygon fill="#9a32cd" stroke="#9a32cd" points="146.05,-262.54 154.22,-269.28 152.04,-258.91 146.05,-262.54"/>
<text text-anchor="middle" x="186.5" y="-243" font-family="Helvetica,sans-Serif" font-size="10.00"> windowRemoved</text>
<text text-anchor="middle" x="186.5" y="-232" font-family="Helvetica,sans-Serif" font-size="10.00">windowAdded</text>
</g>
<!-- Node9 -->
<g id="node9" class="node">
<title>Node9</title>
<g id="a_node9"><a xlink:href="../../de/d80/classnap_1_1_signal.html" target="_top" xlink:title=" ">
<polygon fill="white" stroke="black" points="175,-191.5 175,-210.5 266,-210.5 266,-191.5 175,-191.5"/>
<text text-anchor="middle" x="220.5" y="-198.5" font-family="Helvetica,sans-Serif" font-size="10.00">Signal&lt; Args &gt;</text>
</a>
</g>
</g>
<!-- Node9&#45;&gt;Node5 -->
<g id="edge9" class="edge">
<title>Node9&#45;&gt;Node5</title>
<path fill="none" stroke="#9a32cd" stroke-dasharray="5,2" d="M218.32,-181.16C218.28,-174.86 219.02,-167.94 221.5,-162 224.52,-154.8 230.42,-148.41 235.84,-143.66"/>
<polygon fill="#9a32cd" stroke="#9a32cd" points="214.85,-181.74 219.02,-191.48 221.83,-181.27 214.85,-181.74"/>
<text text-anchor="middle" x="259" y="-165" font-family="Helvetica,sans-Serif" font-size="10.00"> bufferChanged</text>
</g>
</g>
</svg>
