<?xml version="1.0" encoding="UTF-8" standalone="no"?>
<!DOCTYPE svg PUBLIC "-//W3C//DTD SVG 1.1//EN"
 "http://www.w3.org/Graphics/SVG/1.1/DTD/svg11.dtd">
<!-- Generated by graphviz version 3.0.0 (20220226.1711)
 -->
<!-- Title: Texture2D Pages: 1 -->
<svg width="311pt" height="173pt"
 viewBox="0.00 0.00 310.50 173.00" xmlns="http://www.w3.org/2000/svg" xmlns:xlink="http://www.w3.org/1999/xlink">
<g id="graph0" class="graph" transform="scale(1 1) rotate(0) translate(4 169)">
<title>Texture2D</title>
<polygon fill="white" stroke="transparent" points="-4,4 -4,-169 306.5,-169 306.5,4 -4,4"/>
<!-- Node6 -->
<g id="node1" class="node">
<title>Node6</title>
<polygon fill="#bfbfbf" stroke="black" points="41.5,-0.5 41.5,-19.5 102.5,-19.5 102.5,-0.5 41.5,-0.5"/>
<text text-anchor="middle" x="72" y="-7.5" font-family="Helvetica,sans-Serif" font-size="10.00">Texture2D</text>
</g>
<!-- Node7 -->
<g id="node2" class="node">
<title>Node7</title>
<g id="a_node2"><a xlink:href="../../d9/dea/classnap_1_1_resource.html" target="_top" xlink:title="Resource">
<polygon fill="white" stroke="black" points="0,-67.5 0,-86.5 58,-86.5 58,-67.5 0,-67.5"/>
<text text-anchor="middle" x="29" y="-74.5" font-family="Helvetica,sans-Serif" font-size="10.00">Resource</text>
</a>
</g>
</g>
<!-- Node7&#45;&gt;Node6 -->
<g id="edge1" class="edge">
<title>Node7&#45;&gt;Node6</title>
<path fill="none" stroke="midnightblue" d="M40.55,-58.53C48.88,-45.95 59.76,-29.51 66.29,-19.63"/>
<polygon fill="midnightblue" stroke="midnightblue" points="37.4,-56.96 34.8,-67.23 43.24,-60.82 37.4,-56.96"/>
</g>
<!-- Node8 -->
<g id="node3" class="node">
<title>Node8</title>
<g id="a_node3"><a xlink:href="../../de/d01/classnap_1_1rtti_1_1_object.html" target="_top" xlink:title="Object">
<polygon fill="white" stroke="black" points="6.5,-145.5 6.5,-164.5 51.5,-164.5 51.5,-145.5 6.5,-145.5"/>
<text text-anchor="middle" x="29" y="-152.5" font-family="Helvetica,sans-Serif" font-size="10.00">Object</text>
</a>
</g>
</g>
<!-- Node8&#45;&gt;Node7 -->
<g id="edge2" class="edge">
<title>Node8&#45;&gt;Node7</title>
<path fill="none" stroke="midnightblue" d="M29,-135.22C29,-119.7 29,-98.36 29,-86.62"/>
<polygon fill="midnightblue" stroke="midnightblue" points="25.5,-135.28 29,-145.28 32.5,-135.28 25.5,-135.28"/>
</g>
<!-- Node9 -->
<g id="node4" class="node">
<title>Node9</title>
<g id="a_node4"><a xlink:href="../../d5/dc6/classnap_1_1_render_service.html" target="_top" xlink:title="RenderService">
<polygon fill="white" stroke="black" points="76.5,-67.5 76.5,-86.5 155.5,-86.5 155.5,-67.5 76.5,-67.5"/>
<text text-anchor="middle" x="116" y="-74.5" font-family="Helvetica,sans-Serif" font-size="10.00">RenderService</text>
</a>
</g>
</g>
<!-- Node9&#45;&gt;Node6 -->
<g id="edge3" class="edge">
<title>Node9&#45;&gt;Node6</title>
<path fill="none" stroke="#9a32cd" stroke-dasharray="5,2" d="M104.43,-58.9C95.88,-46.27 84.59,-29.6 77.84,-19.63"/>
<polygon fill="#9a32cd" stroke="#9a32cd" points="101.56,-60.91 110.07,-67.23 107.36,-56.99 101.56,-60.91"/>
<text text-anchor="middle" x="134" y="-41" font-family="Helvetica,sans-Serif" font-size="10.00"> mRenderService</text>
</g>
<!-- Node10 -->
<g id="node5" class="node">
<title>Node10</title>
<g id="a_node5"><a xlink:href="../../d8/d8e/classnap_1_1_service.html" target="_top" xlink:title="Service">
<polygon fill="white" stroke="black" points="81,-145.5 81,-164.5 129,-164.5 129,-145.5 81,-145.5"/>
<text text-anchor="middle" x="105" y="-152.5" font-family="Helvetica,sans-Serif" font-size="10.00">Service</text>
</a>
</g>
</g>
<!-- Node10&#45;&gt;Node9 -->
<g id="edge4" class="edge">
<title>Node10&#45;&gt;Node9</title>
<path fill="none" stroke="midnightblue" d="M107.72,-135.22C109.96,-119.7 113.05,-98.36 114.75,-86.62"/>
<polygon fill="midnightblue" stroke="midnightblue" points="104.23,-134.88 106.26,-145.28 111.16,-135.89 104.23,-134.88"/>
</g>
<!-- Node11 -->
<g id="node6" class="node">
<title>Node11</title>
<g id="a_node6"><a xlink:href="../../de/d80/classnap_1_1_signal.html" target="_top" xlink:title="Signal\&lt; nap::RenderWindow &amp;\&gt;">
<polygon fill="white" stroke="black" points="147.5,-145.5 147.5,-164.5 302.5,-164.5 302.5,-145.5 147.5,-145.5"/>
<text text-anchor="middle" x="225" y="-152.5" font-family="Helvetica,sans-Serif" font-size="10.00">Signal&lt; nap::RenderWindow &amp;&gt;</text>
</a>
</g>
</g>
<!-- Node11&#45;&gt;Node9 -->
<g id="edge5" class="edge">
<title>Node11&#45;&gt;Node9</title>
<path fill="none" stroke="#9a32cd" stroke-dasharray="5,2" d="M204,-139.36C181.57,-123.72 146.75,-99.44 128.36,-86.62"/>
<polygon fill="#9a32cd" stroke="#9a32cd" points="202.29,-142.43 212.5,-145.28 206.3,-136.69 202.29,-142.43"/>
<text text-anchor="middle" x="221.5" y="-119" font-family="Helvetica,sans-Serif" font-size="10.00"> windowRemoved</text>
<text text-anchor="middle" x="221.5" y="-108" font-family="Helvetica,sans-Serif" font-size="10.00">windowAdded</text>
</g>
</g>
</svg>
