<?xml version="1.0" encoding="UTF-8" standalone="no"?>
<!DOCTYPE svg PUBLIC "-//W3C//DTD SVG 1.1//EN"
 "http://www.w3.org/Graphics/SVG/1.1/DTD/svg11.dtd">
<!-- Generated by graphviz version 3.0.0 (20220226.1711)
 -->
<!-- Title: AudioFileResource Pages: 1 -->
<svg width="115pt" height="196pt"
 viewBox="0.00 0.00 115.00 196.00" xmlns="http://www.w3.org/2000/svg" xmlns:xlink="http://www.w3.org/1999/xlink">
<g id="graph0" class="graph" transform="scale(1 1) rotate(0) translate(4 192)">
<title>AudioFileResource</title>
<polygon fill="white" stroke="transparent" points="-4,4 -4,-192 111,-192 111,4 -4,4"/>
<!-- Node4 -->
<g id="node1" class="node">
<title>Node4</title>
<polygon fill="#bfbfbf" stroke="black" points="4.5,-0.5 4.5,-19.5 102.5,-19.5 102.5,-0.5 4.5,-0.5"/>
<text text-anchor="middle" x="53.5" y="-7.5" font-family="Helvetica,sans-Serif" font-size="10.00">AudioFileResource</text>
</g>
<!-- Node5 -->
<g id="node2" class="node">
<title>Node5</title>
<g id="a_node2"><a xlink:href="../../df/dac/classnap_1_1audio_1_1_audio_buffer_resource.html" target="_top" xlink:title="AudioBufferResource">
<polygon fill="white" stroke="black" points="0,-56.5 0,-75.5 107,-75.5 107,-56.5 0,-56.5"/>
<text text-anchor="middle" x="53.5" y="-63.5" font-family="Helvetica,sans-Serif" font-size="10.00">AudioBufferResource</text>
</a>
</g>
</g>
<!-- Node5&#45;&gt;Node4 -->
<g id="edge1" class="edge">
<title>Node5&#45;&gt;Node4</title>
<path fill="none" stroke="midnightblue" d="M53.5,-45.8C53.5,-36.91 53.5,-26.78 53.5,-19.75"/>
<polygon fill="midnightblue" stroke="midnightblue" points="50,-46.08 53.5,-56.08 57,-46.08 50,-46.08"/>
</g>
<!-- Node6 -->
<g id="node3" class="node">
<title>Node6</title>
<g id="a_node3"><a xlink:href="../../d9/dea/classnap_1_1_resource.html" target="_top" xlink:title="Resource">
<polygon fill="white" stroke="black" points="24.5,-112.5 24.5,-131.5 82.5,-131.5 82.5,-112.5 24.5,-112.5"/>
<text text-anchor="middle" x="53.5" y="-119.5" font-family="Helvetica,sans-Serif" font-size="10.00">Resource</text>
</a>
</g>
</g>
<!-- Node6&#45;&gt;Node5 -->
<g id="edge2" class="edge">
<title>Node6&#45;&gt;Node5</title>
<path fill="none" stroke="midnightblue" d="M53.5,-101.8C53.5,-92.91 53.5,-82.78 53.5,-75.75"/>
<polygon fill="midnightblue" stroke="midnightblue" points="50,-102.08 53.5,-112.08 57,-102.08 50,-102.08"/>
</g>
<!-- Node7 -->
<g id="node4" class="node">
<title>Node7</title>
<g id="a_node4"><a xlink:href="../../de/d01/classnap_1_1rtti_1_1_object.html" target="_top" xlink:title="Object">
<polygon fill="white" stroke="black" points="31,-168.5 31,-187.5 76,-187.5 76,-168.5 31,-168.5"/>
<text text-anchor="middle" x="53.5" y="-175.5" font-family="Helvetica,sans-Serif" font-size="10.00">Object</text>
</a>
</g>
</g>
<!-- Node7&#45;&gt;Node6 -->
<g id="edge3" class="edge">
<title>Node7&#45;&gt;Node6</title>
<path fill="none" stroke="midnightblue" d="M53.5,-157.8C53.5,-148.91 53.5,-138.78 53.5,-131.75"/>
<polygon fill="midnightblue" stroke="midnightblue" points="50,-158.08 53.5,-168.08 57,-158.08 50,-158.08"/>
</g>
</g>
</svg>
