<?xml version="1.0" encoding="UTF-8" standalone="no"?>
<!DOCTYPE svg PUBLIC "-//W3C//DTD SVG 1.1//EN"
 "http://www.w3.org/Graphics/SVG/1.1/DTD/svg11.dtd">
<!-- Generated by graphviz version 2.43.0 (0)
 -->
<!-- Title: ComponentPtrInstancePropertyValue Pages: 1 -->
<svg width="274pt" height="174pt"
 viewBox="0.00 0.00 274.00 174.00" xmlns="http://www.w3.org/2000/svg" xmlns:xlink="http://www.w3.org/1999/xlink">
<g id="graph0" class="graph" transform="scale(1 1) rotate(0) translate(4 170)">
<title>ComponentPtrInstancePropertyValue</title>
<polygon fill="white" stroke="transparent" points="-4,4 -4,-170 270,-170 270,4 -4,4"/>
<!-- Node1 -->
<g id="node1" class="node">
<title>Node1</title>
<g id="a_node1"><a xlink:title=" ">
<polygon fill="#bfbfbf" stroke="black" points="84.5,-0.5 84.5,-30.5 253.5,-30.5 253.5,-0.5 84.5,-0.5"/>
<text text-anchor="start" x="92.5" y="-18.5" font-family="Helvetica,sans-Serif" font-size="10.00">ComponentPtrInstanceProperty</text>
<text text-anchor="middle" x="169" y="-7.5" font-family="Helvetica,sans-Serif" font-size="10.00">Value</text>
</a>
</g>
</g>
<!-- Node2 -->
<g id="node2" class="node">
<title>Node2</title>
<g id="a_node2"><a xlink:href="../../d8/d81/classnap_1_1_instance_property_value.html" target="_top" xlink:title=" ">
<polygon fill="white" stroke="black" points="0,-84 0,-103 126,-103 126,-84 0,-84"/>
<text text-anchor="middle" x="63" y="-91" font-family="Helvetica,sans-Serif" font-size="10.00">InstancePropertyValue</text>
</a>
</g>
</g>
<!-- Node2&#45;&gt;Node1 -->
<g id="edge1" class="edge">
<title>Node2&#45;&gt;Node1</title>
<path fill="none" stroke="midnightblue" d="M83.45,-77.84C102.49,-64.19 130.69,-43.97 149.45,-30.52"/>
<polygon fill="midnightblue" stroke="midnightblue" points="81.25,-75.11 75.16,-83.78 85.33,-80.8 81.25,-75.11"/>
</g>
<!-- Node3 -->
<g id="node3" class="node">
<title>Node3</title>
<g id="a_node3"><a xlink:href="../../de/d01/classnap_1_1rtti_1_1_object.html" target="_top" xlink:title=" ">
<polygon fill="white" stroke="black" points="39,-146.5 39,-165.5 87,-165.5 87,-146.5 39,-146.5"/>
<text text-anchor="middle" x="63" y="-153.5" font-family="Helvetica,sans-Serif" font-size="10.00">Object</text>
</a>
</g>
</g>
<!-- Node3&#45;&gt;Node2 -->
<g id="edge2" class="edge">
<title>Node3&#45;&gt;Node2</title>
<path fill="none" stroke="midnightblue" d="M63,-136C63,-125 63,-111.68 63,-103.15"/>
<polygon fill="midnightblue" stroke="midnightblue" points="59.5,-136.33 63,-146.33 66.5,-136.33 59.5,-136.33"/>
</g>
<!-- Node4 -->
<g id="node4" class="node">
<title>Node4</title>
<g id="a_node4"><a xlink:href="../../d1/dcd/classnap_1_1_component_ptr.html" target="_top" xlink:title=" ">
<polygon fill="white" stroke="black" points="144,-78.5 144,-108.5 266,-108.5 266,-78.5 144,-78.5"/>
<text text-anchor="start" x="152" y="-96.5" font-family="Helvetica,sans-Serif" font-size="10.00">ComponentPtr&lt; nap::</text>
<text text-anchor="middle" x="205" y="-85.5" font-family="Helvetica,sans-Serif" font-size="10.00">Component &gt;</text>
</a>
</g>
</g>
<!-- Node4&#45;&gt;Node1 -->
<g id="edge3" class="edge">
<title>Node4&#45;&gt;Node1</title>
<path fill="none" stroke="#9a32cd" stroke-dasharray="5,2" d="M193.79,-68.83C187.87,-56.35 180.81,-41.44 175.74,-30.73"/>
<polygon fill="#9a32cd" stroke="#9a32cd" points="190.78,-70.67 198.23,-78.2 197.11,-67.67 190.78,-70.67"/>
<text text-anchor="middle" x="209" y="-52" font-family="Helvetica,sans-Serif" font-size="10.00"> mValue</text>
</g>
</g>
</svg>
