<?xml version="1.0" encoding="UTF-8" standalone="no"?>
<!DOCTYPE svg PUBLIC "-//W3C//DTD SVG 1.1//EN"
 "http://www.w3.org/Graphics/SVG/1.1/DTD/svg11.dtd">
<!-- Generated by graphviz version 2.43.0 (0)
 -->
<!-- Title: Circle Pages: 1 -->
<svg width="341pt" height="287pt"
 viewBox="0.00 0.00 340.50 287.00" xmlns="http://www.w3.org/2000/svg" xmlns:xlink="http://www.w3.org/1999/xlink">
<g id="graph0" class="graph" transform="scale(1 1) rotate(0) translate(4 283)">
<title>Circle</title>
<polygon fill="white" stroke="transparent" points="-4,4 -4,-283 336.5,-283 336.5,4 -4,4"/>
<!-- Node1 -->
<g id="node1" class="node">
<title>Node1</title>
<g id="a_node1"><a xlink:title=" ">
<polygon fill="#bfbfbf" stroke="black" points="94,-0.5 94,-19.5 138,-19.5 138,-0.5 94,-0.5"/>
<text text-anchor="middle" x="116" y="-7.5" font-family="Helvetica,sans-Serif" font-size="10.00">Circle</text>
</a>
</g>
</g>
<!-- Node2 -->
<g id="node2" class="node">
<title>Node2</title>
<g id="a_node2"><a xlink:href="../../db/d34/classnap_1_1_poly_line.html" target="_top" xlink:title=" ">
<polygon fill="white" stroke="black" points="87,-57.5 87,-76.5 145,-76.5 145,-57.5 87,-57.5"/>
<text text-anchor="middle" x="116" y="-64.5" font-family="Helvetica,sans-Serif" font-size="10.00">PolyLine</text>
</a>
</g>
</g>
<!-- Node2&#45;&gt;Node1 -->
<g id="edge1" class="edge">
<title>Node2&#45;&gt;Node1</title>
<path fill="none" stroke="midnightblue" d="M116,-47.12C116,-37.82 116,-27.06 116,-19.71"/>
<polygon fill="midnightblue" stroke="midnightblue" points="112.5,-47.41 116,-57.41 119.5,-47.41 112.5,-47.41"/>
</g>
<!-- Node3 -->
<g id="node3" class="node">
<title>Node3</title>
<g id="a_node3"><a xlink:href="../../dd/dac/classnap_1_1_i_mesh.html" target="_top" xlink:title=" ">
<polygon fill="white" stroke="black" points="8,-124.5 8,-143.5 54,-143.5 54,-124.5 8,-124.5"/>
<text text-anchor="middle" x="31" y="-131.5" font-family="Helvetica,sans-Serif" font-size="10.00">IMesh</text>
</a>
</g>
</g>
<!-- Node3&#45;&gt;Node2 -->
<g id="edge2" class="edge">
<title>Node3&#45;&gt;Node2</title>
<path fill="none" stroke="midnightblue" d="M50.53,-118.07C67.3,-105.24 90.91,-87.19 104.72,-76.63"/>
<polygon fill="midnightblue" stroke="midnightblue" points="48.28,-115.38 42.46,-124.23 52.53,-120.94 48.28,-115.38"/>
</g>
<!-- Node4 -->
<g id="node4" class="node">
<title>Node4</title>
<g id="a_node4"><a xlink:href="../../d9/dea/classnap_1_1_resource.html" target="_top" xlink:title=" ">
<polygon fill="white" stroke="black" points="0,-202.5 0,-221.5 62,-221.5 62,-202.5 0,-202.5"/>
<text text-anchor="middle" x="31" y="-209.5" font-family="Helvetica,sans-Serif" font-size="10.00">Resource</text>
</a>
</g>
</g>
<!-- Node4&#45;&gt;Node3 -->
<g id="edge3" class="edge">
<title>Node4&#45;&gt;Node3</title>
<path fill="none" stroke="midnightblue" d="M31,-192.22C31,-176.7 31,-155.36 31,-143.62"/>
<polygon fill="midnightblue" stroke="midnightblue" points="27.5,-192.28 31,-202.28 34.5,-192.28 27.5,-192.28"/>
</g>
<!-- Node5 -->
<g id="node5" class="node">
<title>Node5</title>
<g id="a_node5"><a xlink:href="../../de/d01/classnap_1_1rtti_1_1_object.html" target="_top" xlink:title=" ">
<polygon fill="white" stroke="black" points="7,-259.5 7,-278.5 55,-278.5 55,-259.5 7,-259.5"/>
<text text-anchor="middle" x="31" y="-266.5" font-family="Helvetica,sans-Serif" font-size="10.00">Object</text>
</a>
</g>
</g>
<!-- Node5&#45;&gt;Node4 -->
<g id="edge4" class="edge">
<title>Node5&#45;&gt;Node4</title>
<path fill="none" stroke="midnightblue" d="M31,-249.12C31,-239.82 31,-229.06 31,-221.71"/>
<polygon fill="midnightblue" stroke="midnightblue" points="27.5,-249.41 31,-259.41 34.5,-249.41 27.5,-249.41"/>
</g>
<!-- Node6 -->
<g id="node6" class="node">
<title>Node6</title>
<g id="a_node6"><a xlink:href="../../d5/dc6/classnap_1_1_render_service.html" target="_top" xlink:title=" ">
<polygon fill="white" stroke="black" points="72.5,-124.5 72.5,-143.5 159.5,-143.5 159.5,-124.5 72.5,-124.5"/>
<text text-anchor="middle" x="116" y="-131.5" font-family="Helvetica,sans-Serif" font-size="10.00">RenderService</text>
</a>
</g>
</g>
<!-- Node6&#45;&gt;Node2 -->
<g id="edge5" class="edge">
<title>Node6&#45;&gt;Node2</title>
<path fill="none" stroke="#9a32cd" stroke-dasharray="5,2" d="M116,-114.04C116,-101.67 116,-86.12 116,-76.63"/>
<polygon fill="#9a32cd" stroke="#9a32cd" points="112.5,-114.23 116,-124.23 119.5,-114.23 112.5,-114.23"/>
<text text-anchor="middle" x="158" y="-98" font-family="Helvetica,sans-Serif" font-size="10.00"> mRenderService</text>
</g>
<!-- Node7 -->
<g id="node7" class="node">
<title>Node7</title>
<g id="a_node7"><a xlink:href="../../d8/d8e/classnap_1_1_service.html" target="_top" xlink:title=" ">
<polygon fill="white" stroke="black" points="84.5,-202.5 84.5,-221.5 137.5,-221.5 137.5,-202.5 84.5,-202.5"/>
<text text-anchor="middle" x="111" y="-209.5" font-family="Helvetica,sans-Serif" font-size="10.00">Service</text>
</a>
</g>
</g>
<!-- Node7&#45;&gt;Node6 -->
<g id="edge6" class="edge">
<title>Node7&#45;&gt;Node6</title>
<path fill="none" stroke="midnightblue" d="M112.24,-192.22C113.26,-176.7 114.66,-155.36 115.43,-143.62"/>
<polygon fill="midnightblue" stroke="midnightblue" points="108.74,-192.07 111.57,-202.28 115.72,-192.53 108.74,-192.07"/>
</g>
<!-- Node8 -->
<g id="node8" class="node">
<title>Node8</title>
<g id="a_node8"><a xlink:href="../../de/d80/classnap_1_1_signal.html" target="_top" xlink:title=" ">
<polygon fill="white" stroke="black" points="155.5,-202.5 155.5,-221.5 332.5,-221.5 332.5,-202.5 155.5,-202.5"/>
<text text-anchor="middle" x="244" y="-209.5" font-family="Helvetica,sans-Serif" font-size="10.00">Signal&lt; nap::RenderWindow &amp; &gt;</text>
</a>
</g>
</g>
<!-- Node8&#45;&gt;Node6 -->
<g id="edge7" class="edge">
<title>Node8&#45;&gt;Node6</title>
<path fill="none" stroke="#9a32cd" stroke-dasharray="5,2" d="M220.39,-196.98C194.09,-181.36 152.4,-156.61 130.51,-143.62"/>
<polygon fill="#9a32cd" stroke="#9a32cd" points="218.93,-200.19 229.32,-202.28 222.51,-194.17 218.93,-200.19"/>
<text text-anchor="middle" x="239" y="-176" font-family="Helvetica,sans-Serif" font-size="10.00"> windowRemoved</text>
<text text-anchor="middle" x="239" y="-165" font-family="Helvetica,sans-Serif" font-size="10.00">windowAdded</text>
</g>
<!-- Node9 -->
<g id="node9" class="node">
<title>Node9</title>
<g id="a_node9"><a xlink:href="../../d1/d3f/structnap_1_1_poly_line_properties.html" target="_top" xlink:title=" ">
<polygon fill="white" stroke="black" points="177.5,-124.5 177.5,-143.5 284.5,-143.5 284.5,-124.5 177.5,-124.5"/>
<text text-anchor="middle" x="231" y="-131.5" font-family="Helvetica,sans-Serif" font-size="10.00">PolyLineProperties</text>
</a>
</g>
</g>
<!-- Node9&#45;&gt;Node2 -->
<g id="edge8" class="edge">
<title>Node9&#45;&gt;Node2</title>
<path fill="none" stroke="#9a32cd" stroke-dasharray="5,2" d="M221.88,-115.37C217.37,-108.15 211.31,-100.28 204,-95 186.64,-82.46 163.34,-75.65 145.08,-72.01"/>
<polygon fill="#9a32cd" stroke="#9a32cd" points="219.08,-117.52 227.05,-124.5 225.17,-114.07 219.08,-117.52"/>
<text text-anchor="middle" x="255.5" y="-98" font-family="Helvetica,sans-Serif" font-size="10.00"> mLineProperties</text>
</g>
</g>
</svg>
