<?xml version="1.0" encoding="UTF-8" standalone="no"?>
<!DOCTYPE svg PUBLIC "-//W3C//DTD SVG 1.1//EN"
 "http://www.w3.org/Graphics/SVG/1.1/DTD/svg11.dtd">
<!-- Generated by graphviz version 3.0.0 (20220226.1711)
 -->
<!-- Title: RenderableTextComponentInstance Pages: 1 -->
<svg width="396pt" height="230pt"
 viewBox="0.00 0.00 395.50 230.00" xmlns="http://www.w3.org/2000/svg" xmlns:xlink="http://www.w3.org/1999/xlink">
<g id="graph0" class="graph" transform="scale(1 1) rotate(0) translate(4 226)">
<title>RenderableTextComponentInstance</title>
<polygon fill="white" stroke="transparent" points="-4,4 -4,-226 391.5,-226 391.5,4 -4,4"/>
<!-- Node6 -->
<g id="node1" class="node">
<title>Node6</title>
<polygon fill="#bfbfbf" stroke="black" points="123,-0.5 123,-19.5 293,-19.5 293,-0.5 123,-0.5"/>
<text text-anchor="middle" x="208" y="-7.5" font-family="Helvetica,sans-Serif" font-size="10.00">RenderableTextComponentInstance</text>
</g>
<!-- Node7 -->
<g id="node2" class="node">
<title>Node7</title>
<g id="a_node2"><a xlink:href="../../dd/da0/classnap_1_1_renderable_component_instance.html" target="_top" xlink:title="RenderableComponentInstance">
<polygon fill="white" stroke="black" points="0,-67.5 0,-86.5 152,-86.5 152,-67.5 0,-67.5"/>
<text text-anchor="middle" x="76" y="-74.5" font-family="Helvetica,sans-Serif" font-size="10.00">RenderableComponentInstance</text>
</a>
</g>
</g>
<!-- Node7&#45;&gt;Node6 -->
<g id="edge1" class="edge">
<title>Node7&#45;&gt;Node6</title>
<path fill="none" stroke="midnightblue" d="M102.51,-62.94C128.66,-50.07 167.88,-30.76 190.4,-19.67"/>
<polygon fill="midnightblue" stroke="midnightblue" points="100.95,-59.81 93.53,-67.37 104.05,-66.09 100.95,-59.81"/>
</g>
<!-- Node8 -->
<g id="node3" class="node">
<title>Node8</title>
<g id="a_node3"><a xlink:href="../../d9/df2/classnap_1_1_component_instance.html" target="_top" xlink:title="ComponentInstance">
<polygon fill="white" stroke="black" points="24.5,-145.5 24.5,-164.5 127.5,-164.5 127.5,-145.5 24.5,-145.5"/>
<text text-anchor="middle" x="76" y="-152.5" font-family="Helvetica,sans-Serif" font-size="10.00">ComponentInstance</text>
</a>
</g>
</g>
<!-- Node8&#45;&gt;Node7 -->
<g id="edge2" class="edge">
<title>Node8&#45;&gt;Node7</title>
<path fill="none" stroke="midnightblue" d="M76,-135.22C76,-119.7 76,-98.36 76,-86.62"/>
<polygon fill="midnightblue" stroke="midnightblue" points="72.5,-135.28 76,-145.28 79.5,-135.28 72.5,-135.28"/>
</g>
<!-- Node9 -->
<g id="node4" class="node">
<title>Node9</title>
<g id="a_node4"><a xlink:href="../../de/d01/classnap_1_1rtti_1_1_object.html" target="_top" xlink:title="Object">
<polygon fill="white" stroke="black" points="53.5,-202.5 53.5,-221.5 98.5,-221.5 98.5,-202.5 53.5,-202.5"/>
<text text-anchor="middle" x="76" y="-209.5" font-family="Helvetica,sans-Serif" font-size="10.00">Object</text>
</a>
</g>
</g>
<!-- Node9&#45;&gt;Node8 -->
<g id="edge3" class="edge">
<title>Node9&#45;&gt;Node8</title>
<path fill="none" stroke="midnightblue" d="M76,-192.12C76,-182.82 76,-172.06 76,-164.71"/>
<polygon fill="midnightblue" stroke="midnightblue" points="72.5,-192.41 76,-202.41 79.5,-192.41 72.5,-192.41"/>
</g>
<!-- Node10 -->
<g id="node5" class="node">
<title>Node10</title>
<g id="a_node5"><a xlink:href="../../d5/dc6/classnap_1_1_render_service.html" target="_top" xlink:title="RenderService">
<polygon fill="white" stroke="black" points="170.5,-67.5 170.5,-86.5 249.5,-86.5 249.5,-67.5 170.5,-67.5"/>
<text text-anchor="middle" x="210" y="-74.5" font-family="Helvetica,sans-Serif" font-size="10.00">RenderService</text>
</a>
</g>
</g>
<!-- Node10&#45;&gt;Node6 -->
<g id="edge4" class="edge">
<title>Node10&#45;&gt;Node6</title>
<path fill="none" stroke="#9a32cd" stroke-dasharray="5,2" d="M209.28,-57.37C209.18,-54.57 209.09,-51.71 209,-49 208.68,-38.97 208.39,-27.46 208.2,-19.75"/>
<polygon fill="#9a32cd" stroke="#9a32cd" points="205.79,-57.63 209.66,-67.49 212.79,-57.36 205.79,-57.63"/>
<text text-anchor="middle" x="246" y="-41" font-family="Helvetica,sans-Serif" font-size="10.00"> mRenderService</text>
</g>
<!-- Node11 -->
<g id="node6" class="node">
<title>Node11</title>
<g id="a_node6"><a xlink:href="../../d8/d8e/classnap_1_1_service.html" target="_top" xlink:title="Service">
<polygon fill="white" stroke="black" points="166,-145.5 166,-164.5 214,-164.5 214,-145.5 166,-145.5"/>
<text text-anchor="middle" x="190" y="-152.5" font-family="Helvetica,sans-Serif" font-size="10.00">Service</text>
</a>
</g>
</g>
<!-- Node11&#45;&gt;Node10 -->
<g id="edge5" class="edge">
<title>Node11&#45;&gt;Node10</title>
<path fill="none" stroke="midnightblue" d="M194.94,-135.22C199.03,-119.7 204.64,-98.36 207.73,-86.62"/>
<polygon fill="midnightblue" stroke="midnightblue" points="191.45,-134.72 192.29,-145.28 198.22,-136.5 191.45,-134.72"/>
</g>
<!-- Node12 -->
<g id="node7" class="node">
<title>Node12</title>
<g id="a_node7"><a xlink:href="../../de/d80/classnap_1_1_signal.html" target="_top" xlink:title="Signal\&lt; nap::RenderWindow &amp;\&gt;">
<polygon fill="white" stroke="black" points="232.5,-145.5 232.5,-164.5 387.5,-164.5 387.5,-145.5 232.5,-145.5"/>
<text text-anchor="middle" x="310" y="-152.5" font-family="Helvetica,sans-Serif" font-size="10.00">Signal&lt; nap::RenderWindow &amp;&gt;</text>
</a>
</g>
</g>
<!-- Node12&#45;&gt;Node10 -->
<g id="edge6" class="edge">
<title>Node12&#45;&gt;Node10</title>
<path fill="none" stroke="#9a32cd" stroke-dasharray="5,2" d="M290.46,-139.15C269.87,-123.5 238.14,-99.38 221.34,-86.62"/>
<polygon fill="#9a32cd" stroke="#9a32cd" points="288.45,-142.02 298.53,-145.28 292.68,-136.44 288.45,-142.02"/>
<text text-anchor="middle" x="308.5" y="-119" font-family="Helvetica,sans-Serif" font-size="10.00"> windowRemoved</text>
<text text-anchor="middle" x="308.5" y="-108" font-family="Helvetica,sans-Serif" font-size="10.00">windowAdded</text>
</g>
<!-- Node13 -->
<g id="node8" class="node">
<title>Node13</title>
<g id="a_node8"><a xlink:href="../../d0/dec/classnap_1_1_font_instance.html" target="_top" xlink:title="FontInstance">
<polygon fill="white" stroke="black" points="268.5,-67.5 268.5,-86.5 341.5,-86.5 341.5,-67.5 268.5,-67.5"/>
<text text-anchor="middle" x="305" y="-74.5" font-family="Helvetica,sans-Serif" font-size="10.00">FontInstance</text>
</a>
</g>
</g>
<!-- Node13&#45;&gt;Node6 -->
<g id="edge7" class="edge">
<title>Node13&#45;&gt;Node6</title>
<path fill="none" stroke="#9a32cd" stroke-dasharray="5,2" d="M297.73,-57.78C294.18,-50.79 289.29,-43.25 283,-38 272.91,-29.57 259.98,-23.68 247.71,-19.61"/>
<polygon fill="#9a32cd" stroke="#9a32cd" points="294.7,-59.58 301.99,-67.27 301.09,-56.72 294.7,-59.58"/>
<text text-anchor="middle" x="307.5" y="-41" font-family="Helvetica,sans-Serif" font-size="10.00"> mFont</text>
</g>
</g>
</svg>
