<?xml version="1.0" encoding="UTF-8" standalone="no"?>
<!DOCTYPE svg PUBLIC "-//W3C//DTD SVG 1.1//EN"
 "http://www.w3.org/Graphics/SVG/1.1/DTD/svg11.dtd">
<!-- Generated by graphviz version 3.0.0 (20220226.1711)
 -->
<!-- Title: PlaybackComponent Pages: 1 -->
<svg width="262pt" height="277pt"
 viewBox="0.00 0.00 261.50 277.00" xmlns="http://www.w3.org/2000/svg" xmlns:xlink="http://www.w3.org/1999/xlink">
<g id="graph0" class="graph" transform="scale(1 1) rotate(0) translate(4 273)">
<title>PlaybackComponent</title>
<polygon fill="white" stroke="transparent" points="-4,4 -4,-273 257.5,-273 257.5,4 -4,4"/>
<!-- Node5 -->
<g id="node1" class="node">
<title>Node5</title>
<polygon fill="#bfbfbf" stroke="black" points="70,-0.5 70,-19.5 177,-19.5 177,-0.5 70,-0.5"/>
<text text-anchor="middle" x="123.5" y="-7.5" font-family="Helvetica,sans-Serif" font-size="10.00">PlaybackComponent</text>
</g>
<!-- Node6 -->
<g id="node2" class="node">
<title>Node6</title>
<g id="a_node2"><a xlink:href="../../d5/dcb/classnap_1_1audio_1_1_audio_component_base.html" target="_top" xlink:title="AudioComponentBase">
<polygon fill="white" stroke="black" points="0,-73 0,-92 113,-92 113,-73 0,-73"/>
<text text-anchor="middle" x="56.5" y="-80" font-family="Helvetica,sans-Serif" font-size="10.00">AudioComponentBase</text>
</a>
</g>
</g>
<!-- Node6&#45;&gt;Node5 -->
<g id="edge1" class="edge">
<title>Node6&#45;&gt;Node5</title>
<path fill="none" stroke="midnightblue" d="M71.9,-65.3C85.37,-51.12 104.43,-31.06 115.22,-19.72"/>
<polygon fill="midnightblue" stroke="midnightblue" points="69.07,-63.2 64.72,-72.86 74.14,-68.02 69.07,-63.2"/>
</g>
<!-- Node7 -->
<g id="node3" class="node">
<title>Node7</title>
<g id="a_node3"><a xlink:href="../../db/d6b/classnap_1_1_component.html" target="_top" xlink:title="Component">
<polygon fill="white" stroke="black" points="23.5,-135.5 23.5,-154.5 89.5,-154.5 89.5,-135.5 23.5,-135.5"/>
<text text-anchor="middle" x="56.5" y="-142.5" font-family="Helvetica,sans-Serif" font-size="10.00">Component</text>
</a>
</g>
</g>
<!-- Node7&#45;&gt;Node6 -->
<g id="edge2" class="edge">
<title>Node7&#45;&gt;Node6</title>
<path fill="none" stroke="midnightblue" d="M56.5,-125C56.5,-114 56.5,-100.68 56.5,-92.15"/>
<polygon fill="midnightblue" stroke="midnightblue" points="53,-125.33 56.5,-135.33 60,-125.33 53,-125.33"/>
</g>
<!-- Node8 -->
<g id="node4" class="node">
<title>Node8</title>
<g id="a_node4"><a xlink:href="../../d9/dea/classnap_1_1_resource.html" target="_top" xlink:title="Resource">
<polygon fill="white" stroke="black" points="27.5,-192.5 27.5,-211.5 85.5,-211.5 85.5,-192.5 27.5,-192.5"/>
<text text-anchor="middle" x="56.5" y="-199.5" font-family="Helvetica,sans-Serif" font-size="10.00">Resource</text>
</a>
</g>
</g>
<!-- Node8&#45;&gt;Node7 -->
<g id="edge3" class="edge">
<title>Node8&#45;&gt;Node7</title>
<path fill="none" stroke="midnightblue" d="M56.5,-182.12C56.5,-172.82 56.5,-162.06 56.5,-154.71"/>
<polygon fill="midnightblue" stroke="midnightblue" points="53,-182.41 56.5,-192.41 60,-182.41 53,-182.41"/>
</g>
<!-- Node9 -->
<g id="node5" class="node">
<title>Node9</title>
<g id="a_node5"><a xlink:href="../../de/d01/classnap_1_1rtti_1_1_object.html" target="_top" xlink:title="Object">
<polygon fill="white" stroke="black" points="34,-249.5 34,-268.5 79,-268.5 79,-249.5 34,-249.5"/>
<text text-anchor="middle" x="56.5" y="-256.5" font-family="Helvetica,sans-Serif" font-size="10.00">Object</text>
</a>
</g>
</g>
<!-- Node9&#45;&gt;Node8 -->
<g id="edge4" class="edge">
<title>Node9&#45;&gt;Node8</title>
<path fill="none" stroke="midnightblue" d="M56.5,-239.12C56.5,-229.82 56.5,-219.06 56.5,-211.71"/>
<polygon fill="midnightblue" stroke="midnightblue" points="53,-239.41 56.5,-249.41 60,-239.41 53,-239.41"/>
</g>
<!-- Node10 -->
<g id="node6" class="node">
<title>Node10</title>
<g id="a_node6"><a xlink:href="../../dd/d7c/classnap_1_1rtti_1_1_object_ptr.html" target="_top" xlink:title="ObjectPtr\&lt; nap::audio\l::AudioBufferResource \&gt;">
<polygon fill="white" stroke="black" points="131.5,-67.5 131.5,-97.5 253.5,-97.5 253.5,-67.5 131.5,-67.5"/>
<text text-anchor="start" x="139.5" y="-85.5" font-family="Helvetica,sans-Serif" font-size="10.00">ObjectPtr&lt; nap::audio</text>
<text text-anchor="middle" x="192.5" y="-74.5" font-family="Helvetica,sans-Serif" font-size="10.00">::AudioBufferResource &gt;</text>
</a>
</g>
</g>
<!-- Node10&#45;&gt;Node5 -->
<g id="edge5" class="edge">
<title>Node10&#45;&gt;Node5</title>
<path fill="none" stroke="#9a32cd" stroke-dasharray="5,2" d="M171.22,-59.76C158.09,-46.34 141.95,-29.85 132.2,-19.89"/>
<polygon fill="#9a32cd" stroke="#9a32cd" points="169.04,-62.53 178.54,-67.23 174.04,-57.64 169.04,-62.53"/>
<text text-anchor="middle" x="179" y="-41" font-family="Helvetica,sans-Serif" font-size="10.00"> mBuffer</text>
</g>
<!-- Node11 -->
<g id="node7" class="node">
<title>Node11</title>
<g id="a_node7"><a xlink:href="../../d7/dcb/classnap_1_1rtti_1_1_object_ptr_base.html" target="_top" xlink:title="ObjectPtrBase">
<polygon fill="white" stroke="black" points="152.5,-135.5 152.5,-154.5 232.5,-154.5 232.5,-135.5 152.5,-135.5"/>
<text text-anchor="middle" x="192.5" y="-142.5" font-family="Helvetica,sans-Serif" font-size="10.00">ObjectPtrBase</text>
</a>
</g>
</g>
<!-- Node11&#45;&gt;Node10 -->
<g id="edge6" class="edge">
<title>Node11&#45;&gt;Node10</title>
<path fill="none" stroke="midnightblue" d="M192.5,-125.22C192.5,-116.36 192.5,-105.96 192.5,-97.76"/>
<polygon fill="midnightblue" stroke="midnightblue" points="189,-125.33 192.5,-135.33 196,-125.33 189,-125.33"/>
</g>
</g>
</svg>
