<?xml version="1.0" encoding="UTF-8" standalone="no"?>
<!DOCTYPE svg PUBLIC "-//W3C//DTD SVG 1.1//EN"
 "http://www.w3.org/Graphics/SVG/1.1/DTD/svg11.dtd">
<!-- Generated by graphviz version 2.43.0 (0)
 -->
<!-- Title: Tween&lt; T &gt; Pages: 1 -->
<svg width="232pt" height="173pt"
 viewBox="0.00 0.00 231.50 173.00" xmlns="http://www.w3.org/2000/svg" xmlns:xlink="http://www.w3.org/1999/xlink">
<g id="graph0" class="graph" transform="scale(1 1) rotate(0) translate(4 169)">
<title>Tween&lt; T &gt;</title>
<polygon fill="white" stroke="transparent" points="-4,4 -4,-169 227.5,-169 227.5,4 -4,4"/>
<!-- Node1 -->
<g id="node1" class="node">
<title>Node1</title>
<g id="a_node1"><a xlink:title=" ">
<polygon fill="#bfbfbf" stroke="black" points="90.5,-0.5 90.5,-19.5 166.5,-19.5 166.5,-0.5 90.5,-0.5"/>
<text text-anchor="middle" x="128.5" y="-7.5" font-family="Helvetica,sans-Serif" font-size="10.00">Tween&lt; T &gt;</text>
</a>
</g>
</g>
<!-- Node2 -->
<g id="node2" class="node">
<title>Node2</title>
<g id="a_node2"><a xlink:href="../../d9/d00/classnap_1_1_tween_base.html" target="_top" xlink:title=" ">
<polygon fill="white" stroke="black" points="10,-78.5 10,-97.5 81,-97.5 81,-78.5 10,-78.5"/>
<text text-anchor="middle" x="45.5" y="-85.5" font-family="Helvetica,sans-Serif" font-size="10.00">TweenBase</text>
</a>
</g>
</g>
<!-- Node2&#45;&gt;Node1 -->
<g id="edge1" class="edge">
<title>Node2&#45;&gt;Node1</title>
<path fill="none" stroke="midnightblue" d="M62.64,-71.3C79.75,-55.64 105.4,-32.16 119.09,-19.62"/>
<polygon fill="midnightblue" stroke="midnightblue" points="60.03,-68.95 55.02,-78.28 64.76,-74.11 60.03,-68.95"/>
</g>
<!-- Node3 -->
<g id="node3" class="node">
<title>Node3</title>
<g id="a_node3"><a xlink:href="../../de/d80/classnap_1_1_signal.html" target="_top" xlink:title=" ">
<polygon fill="white" stroke="black" points="0,-145.5 0,-164.5 91,-164.5 91,-145.5 0,-145.5"/>
<text text-anchor="middle" x="45.5" y="-152.5" font-family="Helvetica,sans-Serif" font-size="10.00">Signal&lt; Args &gt;</text>
</a>
</g>
</g>
<!-- Node3&#45;&gt;Node2 -->
<g id="edge2" class="edge">
<title>Node3&#45;&gt;Node2</title>
<path fill="none" stroke="#9a32cd" stroke-dasharray="5,2" d="M45.5,-135.04C45.5,-122.67 45.5,-107.12 45.5,-97.63"/>
<polygon fill="#9a32cd" stroke="#9a32cd" points="42,-135.23 45.5,-145.23 49,-135.23 42,-135.23"/>
<text text-anchor="middle" x="76" y="-119" font-family="Helvetica,sans-Serif" font-size="10.00"> KilledSignal</text>
</g>
<!-- Node4 -->
<g id="node4" class="node">
<title>Node4</title>
<g id="a_node4"><a xlink:href="../../de/d80/classnap_1_1_signal.html" target="_top" xlink:title=" ">
<polygon fill="white" stroke="black" points="99,-78.5 99,-97.5 214,-97.5 214,-78.5 99,-78.5"/>
<text text-anchor="middle" x="156.5" y="-85.5" font-family="Helvetica,sans-Serif" font-size="10.00">Signal&lt; const T &amp; &gt;</text>
</a>
</g>
</g>
<!-- Node4&#45;&gt;Node1 -->
<g id="edge3" class="edge">
<title>Node4&#45;&gt;Node1</title>
<path fill="none" stroke="#9a32cd" stroke-dasharray="5,2" d="M149.75,-68.67C144.02,-53.11 136.04,-31.47 131.67,-19.62"/>
<polygon fill="#9a32cd" stroke="#9a32cd" points="146.55,-70.11 153.29,-78.28 153.12,-67.69 146.55,-70.11"/>
<text text-anchor="middle" x="184.5" y="-52" font-family="Helvetica,sans-Serif" font-size="10.00"> UpdateSignal</text>
<text text-anchor="middle" x="184.5" y="-41" font-family="Helvetica,sans-Serif" font-size="10.00">CompleteSignal</text>
</g>
</g>
</svg>
