<?xml version="1.0" encoding="UTF-8" standalone="no"?>
<!DOCTYPE svg PUBLIC "-//W3C//DTD SVG 1.1//EN"
 "http://www.w3.org/Graphics/SVG/1.1/DTD/svg11.dtd">
<!-- Generated by graphviz version 2.43.0 (0)
 -->
<!-- Title: GainNode Pages: 1 -->
<svg width="245pt" height="152pt"
 viewBox="0.00 0.00 245.00 152.00" xmlns="http://www.w3.org/2000/svg" xmlns:xlink="http://www.w3.org/1999/xlink">
<g id="graph0" class="graph" transform="scale(1 1) rotate(0) translate(4 148)">
<title>GainNode</title>
<polygon fill="white" stroke="transparent" points="-4,4 -4,-148 241,-148 241,4 -4,4"/>
<!-- Node1 -->
<g id="node1" class="node">
<title>Node1</title>
<g id="a_node1"><a xlink:title=" ">
<polygon fill="#bfbfbf" stroke="black" points="75.5,-0.5 75.5,-19.5 140.5,-19.5 140.5,-0.5 75.5,-0.5"/>
<text text-anchor="middle" x="108" y="-7.5" font-family="Helvetica,sans-Serif" font-size="10.00">GainNode</text>
</a>
</g>
</g>
<!-- Node2 -->
<g id="node2" class="node">
<title>Node2</title>
<g id="a_node2"><a xlink:href="../../dc/d0d/classnap_1_1audio_1_1_node.html" target="_top" xlink:title=" ">
<polygon fill="white" stroke="black" points="11,-67.5 11,-86.5 53,-86.5 53,-67.5 11,-67.5"/>
<text text-anchor="middle" x="32" y="-74.5" font-family="Helvetica,sans-Serif" font-size="10.00">Node</text>
</a>
</g>
</g>
<!-- Node2&#45;&gt;Node1 -->
<g id="edge1" class="edge">
<title>Node2&#45;&gt;Node1</title>
<path fill="none" stroke="midnightblue" d="M49.87,-60.71C64.85,-47.91 85.68,-30.09 97.91,-19.63"/>
<polygon fill="midnightblue" stroke="midnightblue" points="47.57,-58.07 42.25,-67.23 52.12,-63.39 47.57,-58.07"/>
</g>
<!-- Node3 -->
<g id="node3" class="node">
<title>Node3</title>
<g id="a_node3"><a xlink:href="../../d4/d2d/classnap_1_1audio_1_1_process.html" target="_top" xlink:title=" ">
<polygon fill="white" stroke="black" points="0,-124.5 0,-143.5 54,-143.5 54,-124.5 0,-124.5"/>
<text text-anchor="middle" x="27" y="-131.5" font-family="Helvetica,sans-Serif" font-size="10.00">Process</text>
</a>
</g>
</g>
<!-- Node3&#45;&gt;Node2 -->
<g id="edge2" class="edge">
<title>Node3&#45;&gt;Node2</title>
<path fill="none" stroke="midnightblue" d="M28.69,-114.42C29.54,-105.05 30.53,-94.14 31.21,-86.71"/>
<polygon fill="midnightblue" stroke="midnightblue" points="25.2,-114.13 27.78,-124.41 32.17,-114.76 25.2,-114.13"/>
</g>
<!-- Node4 -->
<g id="node4" class="node">
<title>Node4</title>
<g id="a_node4"><a xlink:href="../../d4/dd5/classnap_1_1audio_1_1_input_pin.html" target="_top" xlink:title=" ">
<polygon fill="white" stroke="black" points="80,-67.5 80,-86.5 136,-86.5 136,-67.5 80,-67.5"/>
<text text-anchor="middle" x="108" y="-74.5" font-family="Helvetica,sans-Serif" font-size="10.00">InputPin</text>
</a>
</g>
</g>
<!-- Node4&#45;&gt;Node1 -->
<g id="edge3" class="edge">
<title>Node4&#45;&gt;Node1</title>
<path fill="none" stroke="#9a32cd" stroke-dasharray="5,2" d="M108,-57.04C108,-44.67 108,-29.12 108,-19.63"/>
<polygon fill="#9a32cd" stroke="#9a32cd" points="104.5,-57.23 108,-67.23 111.5,-57.23 104.5,-57.23"/>
<text text-anchor="middle" x="135.5" y="-41" font-family="Helvetica,sans-Serif" font-size="10.00"> audioInput</text>
</g>
<!-- Node5 -->
<g id="node5" class="node">
<title>Node5</title>
<g id="a_node5"><a xlink:href="../../d4/dc6/classnap_1_1audio_1_1_input_pin_base.html" target="_top" xlink:title=" ">
<polygon fill="white" stroke="black" points="72,-124.5 72,-143.5 152,-143.5 152,-124.5 72,-124.5"/>
<text text-anchor="middle" x="112" y="-131.5" font-family="Helvetica,sans-Serif" font-size="10.00">InputPinBase</text>
</a>
</g>
</g>
<!-- Node5&#45;&gt;Node4 -->
<g id="edge4" class="edge">
<title>Node5&#45;&gt;Node4</title>
<path fill="none" stroke="midnightblue" d="M110.65,-114.42C109.97,-105.05 109.17,-94.14 108.63,-86.71"/>
<polygon fill="midnightblue" stroke="midnightblue" points="107.16,-114.69 111.38,-124.41 114.14,-114.18 107.16,-114.69"/>
</g>
<!-- Node6 -->
<g id="node6" class="node">
<title>Node6</title>
<g id="a_node6"><a xlink:href="../../dc/d5a/classnap_1_1audio_1_1_output_pin.html" target="_top" xlink:title=" ">
<polygon fill="white" stroke="black" points="154.5,-67.5 154.5,-86.5 219.5,-86.5 219.5,-67.5 154.5,-67.5"/>
<text text-anchor="middle" x="187" y="-74.5" font-family="Helvetica,sans-Serif" font-size="10.00">OutputPin</text>
</a>
</g>
</g>
<!-- Node6&#45;&gt;Node1 -->
<g id="edge5" class="edge">
<title>Node6&#45;&gt;Node1</title>
<path fill="none" stroke="#9a32cd" stroke-dasharray="5,2" d="M179.47,-58.08C175.87,-51.14 171.03,-43.55 165,-38 156.3,-29.99 144.8,-23.93 134.4,-19.61"/>
<polygon fill="#9a32cd" stroke="#9a32cd" points="176.44,-59.87 183.82,-67.46 182.79,-56.92 176.44,-59.87"/>
<text text-anchor="middle" x="205" y="-41" font-family="Helvetica,sans-Serif" font-size="10.00"> audioOutput</text>
</g>
</g>
</svg>
