<?xml version="1.0" encoding="UTF-8" standalone="no"?>
<!DOCTYPE svg PUBLIC "-//W3C//DTD SVG 1.1//EN"
 "http://www.w3.org/Graphics/SVG/1.1/DTD/svg11.dtd">
<!-- Generated by graphviz version 3.0.0 (20220226.1711)
 -->
<!-- Title: NodeManager Pages: 1 -->
<svg width="290pt" height="106pt"
 viewBox="0.00 0.00 289.50 106.00" xmlns="http://www.w3.org/2000/svg" xmlns:xlink="http://www.w3.org/1999/xlink">
<g id="graph0" class="graph" transform="scale(1 1) rotate(0) translate(4 102)">
<title>NodeManager</title>
<polygon fill="white" stroke="transparent" points="-4,4 -4,-102 285.5,-102 285.5,4 -4,4"/>
<!-- Node1 -->
<g id="node1" class="node">
<title>Node1</title>
<polygon fill="#bfbfbf" stroke="black" points="90.5,-0.5 90.5,-19.5 167.5,-19.5 167.5,-0.5 90.5,-0.5"/>
<text text-anchor="middle" x="129" y="-7.5" font-family="Helvetica,sans-Serif" font-size="10.00">NodeManager</text>
</g>
<!-- Node2 -->
<g id="node2" class="node">
<title>Node2</title>
<g id="a_node2"><a xlink:href="../../de/d80/classnap_1_1_signal.html" target="_top" xlink:title="Signal\&lt; nap::audio\l::NodeManager &amp;\&gt;">
<polygon fill="white" stroke="black" points="0,-67.5 0,-97.5 98,-97.5 98,-67.5 0,-67.5"/>
<text text-anchor="start" x="8" y="-85.5" font-family="Helvetica,sans-Serif" font-size="10.00">Signal&lt; nap::audio</text>
<text text-anchor="middle" x="49" y="-74.5" font-family="Helvetica,sans-Serif" font-size="10.00">::NodeManager &amp;&gt;</text>
</a>
</g>
</g>
<!-- Node2&#45;&gt;Node1 -->
<g id="edge1" class="edge">
<title>Node2&#45;&gt;Node1</title>
<path fill="none" stroke="#9a32cd" stroke-dasharray="5,2" d="M44.65,-57.1C44.69,-50.37 46.02,-43.44 50,-38 59.42,-25.14 75.33,-18.34 90.42,-14.78"/>
<polygon fill="#9a32cd" stroke="#9a32cd" points="41.17,-57.56 45.45,-67.25 48.15,-57 41.17,-57.56"/>
<text text-anchor="middle" x="119" y="-41" font-family="Helvetica,sans-Serif" font-size="10.00"> mChannelCountChangedSignal</text>
</g>
<!-- Node3 -->
<g id="node3" class="node">
<title>Node3</title>
<g id="a_node3"><a xlink:href="../../de/d80/classnap_1_1_signal.html" target="_top" xlink:title="Signal\&lt; DiscreteTimeValue \&gt;">
<polygon fill="white" stroke="black" points="138.5,-73 138.5,-92 281.5,-92 281.5,-73 138.5,-73"/>
<text text-anchor="middle" x="210" y="-80" font-family="Helvetica,sans-Serif" font-size="10.00">Signal&lt; DiscreteTimeValue &gt;</text>
</a>
</g>
</g>
<!-- Node3&#45;&gt;Node1 -->
<g id="edge2" class="edge">
<title>Node3&#45;&gt;Node1</title>
<path fill="none" stroke="#9a32cd" stroke-dasharray="5,2" d="M203.99,-63.24C200.44,-54.71 195.2,-44.92 188,-38 179.47,-29.8 168.02,-23.79 157.47,-19.54"/>
<polygon fill="#9a32cd" stroke="#9a32cd" points="200.76,-64.6 207.51,-72.76 207.32,-62.17 200.76,-64.6"/>
<text text-anchor="middle" x="231" y="-41" font-family="Helvetica,sans-Serif" font-size="10.00"> mUpdateSignal</text>
</g>
</g>
</svg>
