<?xml version="1.0" encoding="UTF-8" standalone="no"?>
<!DOCTYPE svg PUBLIC "-//W3C//DTD SVG 1.1//EN"
 "http://www.w3.org/Graphics/SVG/1.1/DTD/svg11.dtd">
<!-- Generated by graphviz version 2.43.0 (0)
 -->
<!-- Title: RenderVideoComponent Pages: 1 -->
<svg width="779pt" height="142pt"
 viewBox="0.00 0.00 779.00 142.00" xmlns="http://www.w3.org/2000/svg" xmlns:xlink="http://www.w3.org/1999/xlink">
<g id="graph0" class="graph" transform="scale(1 1) rotate(0) translate(4 138)">
<title>RenderVideoComponent</title>
<polygon fill="white" stroke="transparent" points="-4,4 -4,-138 775,-138 775,4 -4,4"/>
<!-- Node1 -->
<g id="node1" class="node">
<title>Node1</title>
<g id="a_node1"><a xlink:title=" ">
<polygon fill="#bfbfbf" stroke="black" points="636,-57.5 636,-76.5 771,-76.5 771,-57.5 636,-57.5"/>
<text text-anchor="middle" x="703.5" y="-64.5" font-family="Helvetica,sans-Serif" font-size="10.00">RenderVideoComponent</text>
</a>
</g>
</g>
<!-- Node2 -->
<g id="node2" class="node">
<title>Node2</title>
<g id="a_node2"><a xlink:href="../../d1/d2c/classnap_1_1_renderable_component.html" target="_top" xlink:title=" ">
<polygon fill="white" stroke="black" points="358,-114.5 358,-133.5 486,-133.5 486,-114.5 358,-114.5"/>
<text text-anchor="middle" x="422" y="-121.5" font-family="Helvetica,sans-Serif" font-size="10.00">RenderableComponent</text>
</a>
</g>
</g>
<!-- Node2&#45;&gt;Node1 -->
<g id="edge1" class="edge">
<title>Node2&#45;&gt;Node1</title>
<path fill="none" stroke="midnightblue" d="M496.36,-114.83C533.12,-109.61 578.17,-102.25 618,-93 637.29,-88.52 658.59,-81.96 674.99,-76.54"/>
<polygon fill="midnightblue" stroke="midnightblue" points="495.65,-111.4 486.23,-116.25 496.61,-118.33 495.65,-111.4"/>
</g>
<!-- Node3 -->
<g id="node3" class="node">
<title>Node3</title>
<g id="a_node3"><a xlink:href="../../db/d6b/classnap_1_1_component.html" target="_top" xlink:title=" ">
<polygon fill="white" stroke="black" points="202,-114.5 202,-133.5 275,-133.5 275,-114.5 202,-114.5"/>
<text text-anchor="middle" x="238.5" y="-121.5" font-family="Helvetica,sans-Serif" font-size="10.00">Component</text>
</a>
</g>
</g>
<!-- Node3&#45;&gt;Node2 -->
<g id="edge2" class="edge">
<title>Node3&#45;&gt;Node2</title>
<path fill="none" stroke="midnightblue" d="M285.39,-124C307.29,-124 333.86,-124 357.66,-124"/>
<polygon fill="midnightblue" stroke="midnightblue" points="285.36,-120.5 275.36,-124 285.36,-127.5 285.36,-120.5"/>
</g>
<!-- Node4 -->
<g id="node4" class="node">
<title>Node4</title>
<g id="a_node4"><a xlink:href="../../d9/dea/classnap_1_1_resource.html" target="_top" xlink:title=" ">
<polygon fill="white" stroke="black" points="87,-114.5 87,-133.5 149,-133.5 149,-114.5 87,-114.5"/>
<text text-anchor="middle" x="118" y="-121.5" font-family="Helvetica,sans-Serif" font-size="10.00">Resource</text>
</a>
</g>
</g>
<!-- Node4&#45;&gt;Node3 -->
<g id="edge3" class="edge">
<title>Node4&#45;&gt;Node3</title>
<path fill="none" stroke="midnightblue" d="M159.4,-124C173.18,-124 188.49,-124 201.87,-124"/>
<polygon fill="midnightblue" stroke="midnightblue" points="159.21,-120.5 149.21,-124 159.21,-127.5 159.21,-120.5"/>
</g>
<!-- Node5 -->
<g id="node5" class="node">
<title>Node5</title>
<g id="a_node5"><a xlink:href="../../de/d01/classnap_1_1rtti_1_1_object.html" target="_top" xlink:title=" ">
<polygon fill="white" stroke="black" points="0,-114.5 0,-133.5 48,-133.5 48,-114.5 0,-114.5"/>
<text text-anchor="middle" x="24" y="-121.5" font-family="Helvetica,sans-Serif" font-size="10.00">Object</text>
</a>
</g>
</g>
<!-- Node5&#45;&gt;Node4 -->
<g id="edge4" class="edge">
<title>Node5&#45;&gt;Node4</title>
<path fill="none" stroke="midnightblue" d="M58.32,-124C67.64,-124 77.71,-124 86.83,-124"/>
<polygon fill="midnightblue" stroke="midnightblue" points="58.22,-120.5 48.22,-124 58.22,-127.5 58.22,-120.5"/>
</g>
<!-- Node6 -->
<g id="node6" class="node">
<title>Node6</title>
<g id="a_node6"><a xlink:href="../../d6/db8/classnap_1_1_r_g_b_a_color.html" target="_top" xlink:title=" ">
<polygon fill="white" stroke="black" points="363.5,-76.5 363.5,-95.5 480.5,-95.5 480.5,-76.5 363.5,-76.5"/>
<text text-anchor="middle" x="422" y="-83.5" font-family="Helvetica,sans-Serif" font-size="10.00">RGBAColor&lt; uint8 &gt;</text>
</a>
</g>
</g>
<!-- Node6&#45;&gt;Node1 -->
<g id="edge5" class="edge">
<title>Node6&#45;&gt;Node1</title>
<path fill="none" stroke="#9a32cd" stroke-dasharray="5,2" d="M490.63,-81.4C534.73,-78.4 592.03,-74.51 635.92,-71.53"/>
<polygon fill="#9a32cd" stroke="#9a32cd" points="490.31,-77.92 480.57,-82.09 490.79,-84.9 490.31,-77.92"/>
<text text-anchor="middle" x="577" y="-81" font-family="Helvetica,sans-Serif" font-size="10.00"> mClearColor</text>
</g>
<!-- Node7 -->
<g id="node7" class="node">
<title>Node7</title>
<g id="a_node7"><a xlink:href="../../d6/d3d/classnap_1_1_color.html" target="_top" xlink:title=" ">
<polygon fill="white" stroke="black" points="188,-76.5 188,-95.5 289,-95.5 289,-76.5 188,-76.5"/>
<text text-anchor="middle" x="238.5" y="-83.5" font-family="Helvetica,sans-Serif" font-size="10.00">Color&lt; uint8, 4 &gt;</text>
</a>
</g>
</g>
<!-- Node7&#45;&gt;Node6 -->
<g id="edge6" class="edge">
<title>Node7&#45;&gt;Node6</title>
<path fill="none" stroke="midnightblue" d="M299.32,-86C319.94,-86 342.99,-86 363.43,-86"/>
<polygon fill="midnightblue" stroke="midnightblue" points="299.1,-82.5 289.1,-86 299.1,-89.5 299.1,-82.5"/>
</g>
<!-- Node8 -->
<g id="node8" class="node">
<title>Node8</title>
<g id="a_node8"><a xlink:href="../../d8/d6a/classnap_1_1_base_color.html" target="_top" xlink:title=" ">
<polygon fill="white" stroke="black" points="85,-76.5 85,-95.5 151,-95.5 151,-76.5 85,-76.5"/>
<text text-anchor="middle" x="118" y="-83.5" font-family="Helvetica,sans-Serif" font-size="10.00">BaseColor</text>
</a>
</g>
</g>
<!-- Node8&#45;&gt;Node7 -->
<g id="edge7" class="edge">
<title>Node8&#45;&gt;Node7</title>
<path fill="none" stroke="midnightblue" d="M161.18,-86C169.72,-86 178.79,-86 187.57,-86"/>
<polygon fill="midnightblue" stroke="midnightblue" points="161.07,-82.5 151.07,-86 161.07,-89.5 161.07,-82.5"/>
</g>
<!-- Node9 -->
<g id="node9" class="node">
<title>Node9</title>
<g id="a_node9"><a xlink:href="../../dd/d7c/classnap_1_1rtti_1_1_object_ptr.html" target="_top" xlink:title=" ">
<polygon fill="white" stroke="black" points="338.5,-38.5 338.5,-57.5 505.5,-57.5 505.5,-38.5 338.5,-38.5"/>
<text text-anchor="middle" x="422" y="-45.5" font-family="Helvetica,sans-Serif" font-size="10.00">ObjectPtr&lt; nap::VideoPlayer &gt;</text>
</a>
</g>
</g>
<!-- Node9&#45;&gt;Node1 -->
<g id="edge8" class="edge">
<title>Node9&#45;&gt;Node1</title>
<path fill="none" stroke="#9a32cd" stroke-dasharray="5,2" d="M515.95,-51.72C548.28,-53.3 584.76,-55.38 618,-58 623.74,-58.45 629.69,-58.98 635.65,-59.54"/>
<polygon fill="#9a32cd" stroke="#9a32cd" points="515.77,-48.21 505.61,-51.23 515.43,-55.2 515.77,-48.21"/>
<text text-anchor="middle" x="577" y="-61" font-family="Helvetica,sans-Serif" font-size="10.00"> mVideoPlayer</text>
</g>
<!-- Node10 -->
<g id="node10" class="node">
<title>Node10</title>
<g id="a_node10"><a xlink:href="../../d7/dcb/classnap_1_1rtti_1_1_object_ptr_base.html" target="_top" xlink:title=" ">
<polygon fill="white" stroke="black" points="195.5,-26.5 195.5,-45.5 281.5,-45.5 281.5,-26.5 195.5,-26.5"/>
<text text-anchor="middle" x="238.5" y="-33.5" font-family="Helvetica,sans-Serif" font-size="10.00">ObjectPtrBase</text>
</a>
</g>
</g>
<!-- Node10&#45;&gt;Node9 -->
<g id="edge9" class="edge">
<title>Node10&#45;&gt;Node9</title>
<path fill="none" stroke="midnightblue" d="M291.88,-39.46C306.43,-40.42 322.59,-41.49 338.42,-42.54"/>
<polygon fill="midnightblue" stroke="midnightblue" points="291.81,-35.95 281.6,-38.78 291.34,-42.94 291.81,-35.95"/>
</g>
<!-- Node11 -->
<g id="node11" class="node">
<title>Node11</title>
<g id="a_node11"><a xlink:href="../../dd/d7c/classnap_1_1rtti_1_1_object_ptr.html" target="_top" xlink:title=" ">
<polygon fill="white" stroke="black" points="326,-0.5 326,-19.5 518,-19.5 518,-0.5 326,-0.5"/>
<text text-anchor="middle" x="422" y="-7.5" font-family="Helvetica,sans-Serif" font-size="10.00">ObjectPtr&lt; nap::RenderTexture2D &gt;</text>
</a>
</g>
</g>
<!-- Node10&#45;&gt;Node11 -->
<g id="edge11" class="edge">
<title>Node10&#45;&gt;Node11</title>
<path fill="none" stroke="midnightblue" d="M291.57,-28.54C311.21,-25.73 333.83,-22.49 354.61,-19.51"/>
<polygon fill="midnightblue" stroke="midnightblue" points="291,-25.09 281.6,-29.97 291.99,-32.02 291,-25.09"/>
</g>
<!-- Node11&#45;&gt;Node1 -->
<g id="edge10" class="edge">
<title>Node11&#45;&gt;Node1</title>
<path fill="none" stroke="#9a32cd" stroke-dasharray="5,2" d="M528.66,-20.64C557.83,-24.66 589.34,-30.01 618,-37 639.32,-42.2 662.79,-50.78 679.57,-57.43"/>
<polygon fill="#9a32cd" stroke="#9a32cd" points="528.83,-17.13 518.45,-19.28 527.9,-24.07 528.83,-17.13"/>
<text text-anchor="middle" x="577" y="-40" font-family="Helvetica,sans-Serif" font-size="10.00"> mOutputTexture</text>
</g>
</g>
</svg>
