<?xml version="1.0" encoding="UTF-8" standalone="no"?>
<!DOCTYPE svg PUBLIC "-//W3C//DTD SVG 1.1//EN"
 "http://www.w3.org/Graphics/SVG/1.1/DTD/svg11.dtd">
<!-- Generated by graphviz version 2.48.0 (20210717.1556)
 -->
<!-- Title: IndexBuffer Pages: 1 -->
<svg width="319pt" height="376pt"
 viewBox="0.00 0.00 319.00 376.00" xmlns="http://www.w3.org/2000/svg" xmlns:xlink="http://www.w3.org/1999/xlink">
<g id="graph0" class="graph" transform="scale(1 1) rotate(0) translate(4 372)">
<title>IndexBuffer</title>
<polygon fill="white" stroke="transparent" points="-4,4 -4,-372 315,-372 315,4 -4,4"/>
<!-- Node6 -->
<g id="node1" class="node">
<title>Node6</title>
<polygon fill="#bfbfbf" stroke="black" points="148.5,-0.5 148.5,-19.5 213.5,-19.5 213.5,-0.5 148.5,-0.5"/>
<text text-anchor="middle" x="181" y="-7.5" font-family="Helvetica,sans-Serif" font-size="10.00">IndexBuffer</text>
</g>
<!-- Node7 -->
<g id="node2" class="node">
<title>Node7</title>
<g id="a_node2"><a xlink:href="../../d4/d83/classnap_1_1_typed_g_p_u_buffer_numeric.html" target="_top" xlink:title="TypedGPUBufferNumeric\l\&lt; uint \&gt;">
<polygon fill="white" stroke="black" points="118.5,-57.5 118.5,-87.5 243.5,-87.5 243.5,-57.5 118.5,-57.5"/>
<text text-anchor="start" x="126.5" y="-75.5" font-family="Helvetica,sans-Serif" font-size="10.00">TypedGPUBufferNumeric</text>
<text text-anchor="middle" x="181" y="-64.5" font-family="Helvetica,sans-Serif" font-size="10.00">&lt; uint &gt;</text>
</a>
</g>
</g>
<!-- Node7&#45;&gt;Node6 -->
<g id="edge1" class="edge">
<title>Node7&#45;&gt;Node6</title>
<path fill="none" stroke="midnightblue" d="M181,-47.35C181,-37.51 181,-26.78 181,-19.54"/>
<polygon fill="midnightblue" stroke="midnightblue" points="177.5,-47.47 181,-57.47 184.5,-47.47 177.5,-47.47"/>
</g>
<!-- Node8 -->
<g id="node3" class="node">
<title>Node8</title>
<g id="a_node3"><a xlink:href="../../dd/d69/classnap_1_1_g_p_u_buffer_numeric.html" target="_top" xlink:title="GPUBufferNumeric">
<polygon fill="white" stroke="black" points="67,-141 67,-160 165,-160 165,-141 67,-141"/>
<text text-anchor="middle" x="116" y="-148" font-family="Helvetica,sans-Serif" font-size="10.00">GPUBufferNumeric</text>
</a>
</g>
</g>
<!-- Node8&#45;&gt;Node7 -->
<g id="edge2" class="edge">
<title>Node8&#45;&gt;Node7</title>
<path fill="none" stroke="midnightblue" d="M129.99,-133.14C141.62,-119.55 157.98,-100.42 169.01,-87.52"/>
<polygon fill="midnightblue" stroke="midnightblue" points="127.3,-130.91 123.46,-140.78 132.62,-135.46 127.3,-130.91"/>
</g>
<!-- Node9 -->
<g id="node4" class="node">
<title>Node9</title>
<g id="a_node4"><a xlink:href="../../dd/df4/classnap_1_1_g_p_u_buffer.html" target="_top" xlink:title="GPUBuffer">
<polygon fill="white" stroke="black" points="85,-203.5 85,-222.5 147,-222.5 147,-203.5 85,-203.5"/>
<text text-anchor="middle" x="116" y="-210.5" font-family="Helvetica,sans-Serif" font-size="10.00">GPUBuffer</text>
</a>
</g>
</g>
<!-- Node9&#45;&gt;Node8 -->
<g id="edge3" class="edge">
<title>Node9&#45;&gt;Node8</title>
<path fill="none" stroke="midnightblue" d="M116,-193C116,-182 116,-168.68 116,-160.15"/>
<polygon fill="midnightblue" stroke="midnightblue" points="112.5,-193.33 116,-203.33 119.5,-193.33 112.5,-193.33"/>
</g>
<!-- Node10 -->
<g id="node5" class="node">
<title>Node10</title>
<g id="a_node5"><a xlink:href="../../d9/dea/classnap_1_1_resource.html" target="_top" xlink:title="Resource">
<polygon fill="white" stroke="black" points="0,-270.5 0,-289.5 58,-289.5 58,-270.5 0,-270.5"/>
<text text-anchor="middle" x="29" y="-277.5" font-family="Helvetica,sans-Serif" font-size="10.00">Resource</text>
</a>
</g>
</g>
<!-- Node10&#45;&gt;Node9 -->
<g id="edge4" class="edge">
<title>Node10&#45;&gt;Node9</title>
<path fill="none" stroke="midnightblue" d="M48.99,-264.07C66.16,-251.24 90.32,-233.19 104.45,-222.63"/>
<polygon fill="midnightblue" stroke="midnightblue" points="46.65,-261.44 40.73,-270.23 50.84,-267.05 46.65,-261.44"/>
</g>
<!-- Node11 -->
<g id="node6" class="node">
<title>Node11</title>
<g id="a_node6"><a xlink:href="../../de/d01/classnap_1_1rtti_1_1_object.html" target="_top" xlink:title="Object">
<polygon fill="white" stroke="black" points="6.5,-348.5 6.5,-367.5 51.5,-367.5 51.5,-348.5 6.5,-348.5"/>
<text text-anchor="middle" x="29" y="-355.5" font-family="Helvetica,sans-Serif" font-size="10.00">Object</text>
</a>
</g>
</g>
<!-- Node11&#45;&gt;Node10 -->
<g id="edge5" class="edge">
<title>Node11&#45;&gt;Node10</title>
<path fill="none" stroke="midnightblue" d="M29,-338.22C29,-322.7 29,-301.36 29,-289.62"/>
<polygon fill="midnightblue" stroke="midnightblue" points="25.5,-338.28 29,-348.28 32.5,-338.28 25.5,-338.28"/>
</g>
<!-- Node12 -->
<g id="node7" class="node">
<title>Node12</title>
<g id="a_node7"><a xlink:href="../../d5/dc6/classnap_1_1_render_service.html" target="_top" xlink:title="RenderService">
<polygon fill="white" stroke="black" points="76.5,-270.5 76.5,-289.5 155.5,-289.5 155.5,-270.5 76.5,-270.5"/>
<text text-anchor="middle" x="116" y="-277.5" font-family="Helvetica,sans-Serif" font-size="10.00">RenderService</text>
</a>
</g>
</g>
<!-- Node12&#45;&gt;Node9 -->
<g id="edge6" class="edge">
<title>Node12&#45;&gt;Node9</title>
<path fill="none" stroke="#9a32cd" stroke-dasharray="5,2" d="M116,-260.04C116,-247.67 116,-232.12 116,-222.63"/>
<polygon fill="#9a32cd" stroke="#9a32cd" points="112.5,-260.23 116,-270.23 119.5,-260.23 112.5,-260.23"/>
<text text-anchor="middle" x="153" y="-244" font-family="Helvetica,sans-Serif" font-size="10.00"> mRenderService</text>
</g>
<!-- Node13 -->
<g id="node8" class="node">
<title>Node13</title>
<g id="a_node8"><a xlink:href="../../d8/d8e/classnap_1_1_service.html" target="_top" xlink:title="Service">
<polygon fill="white" stroke="black" points="81,-348.5 81,-367.5 129,-367.5 129,-348.5 81,-348.5"/>
<text text-anchor="middle" x="105" y="-355.5" font-family="Helvetica,sans-Serif" font-size="10.00">Service</text>
</a>
</g>
</g>
<!-- Node13&#45;&gt;Node12 -->
<g id="edge7" class="edge">
<title>Node13&#45;&gt;Node12</title>
<path fill="none" stroke="midnightblue" d="M107.72,-338.22C109.96,-322.7 113.05,-301.36 114.75,-289.62"/>
<polygon fill="midnightblue" stroke="midnightblue" points="104.23,-337.88 106.26,-348.28 111.16,-338.89 104.23,-337.88"/>
</g>
<!-- Node14 -->
<g id="node9" class="node">
<title>Node14</title>
<g id="a_node9"><a xlink:href="../../de/d80/classnap_1_1_signal.html" target="_top" xlink:title="Signal\&lt; nap::RenderWindow &amp;\&gt;">
<polygon fill="white" stroke="black" points="147.5,-348.5 147.5,-367.5 302.5,-367.5 302.5,-348.5 147.5,-348.5"/>
<text text-anchor="middle" x="225" y="-355.5" font-family="Helvetica,sans-Serif" font-size="10.00">Signal&lt; nap::RenderWindow &amp;&gt;</text>
</a>
</g>
</g>
<!-- Node14&#45;&gt;Node12 -->
<g id="edge8" class="edge">
<title>Node14&#45;&gt;Node12</title>
<path fill="none" stroke="#9a32cd" stroke-dasharray="5,2" d="M204,-342.36C181.57,-326.72 146.75,-302.44 128.36,-289.62"/>
<polygon fill="#9a32cd" stroke="#9a32cd" points="202.29,-345.43 212.5,-348.28 206.3,-339.69 202.29,-345.43"/>
<text text-anchor="middle" x="221.5" y="-322" font-family="Helvetica,sans-Serif" font-size="10.00"> windowRemoved</text>
<text text-anchor="middle" x="221.5" y="-311" font-family="Helvetica,sans-Serif" font-size="10.00">windowAdded</text>
</g>
<!-- Node15 -->
<g id="node10" class="node">
<title>Node15</title>
<g id="a_node10"><a xlink:href="../../de/d80/classnap_1_1_signal.html" target="_top" xlink:title="Signal\&lt; Args \&gt;">
<polygon fill="white" stroke="black" points="174,-270.5 174,-289.5 256,-289.5 256,-270.5 174,-270.5"/>
<text text-anchor="middle" x="215" y="-277.5" font-family="Helvetica,sans-Serif" font-size="10.00">Signal&lt; Args &gt;</text>
</a>
</g>
</g>
<!-- Node15&#45;&gt;Node9 -->
<g id="edge9" class="edge">
<title>Node15&#45;&gt;Node9</title>
<path fill="none" stroke="#9a32cd" stroke-dasharray="5,2" d="M207.75,-260.75C204.2,-253.76 199.31,-246.23 193,-241 179.91,-230.16 162.17,-223.55 147.02,-219.58"/>
<polygon fill="#9a32cd" stroke="#9a32cd" points="204.73,-262.56 212,-270.26 211.12,-259.7 204.73,-262.56"/>
<text text-anchor="middle" x="235.5" y="-244" font-family="Helvetica,sans-Serif" font-size="10.00"> bufferChanged</text>
</g>
<!-- Node16 -->
<g id="node11" class="node">
<title>Node16</title>
<g id="a_node11"><a xlink:href="../../dd/d7c/classnap_1_1rtti_1_1_object_ptr.html" target="_top" xlink:title="ObjectPtr\&lt; nap::FillPolicy\l\&lt; uint \&gt; \&gt;">
<polygon fill="white" stroke="black" points="183,-135.5 183,-165.5 311,-165.5 311,-135.5 183,-135.5"/>
<text text-anchor="start" x="191" y="-153.5" font-family="Helvetica,sans-Serif" font-size="10.00">ObjectPtr&lt; nap::FillPolicy</text>
<text text-anchor="middle" x="247" y="-142.5" font-family="Helvetica,sans-Serif" font-size="10.00">&lt; uint &gt; &gt;</text>
</a>
</g>
</g>
<!-- Node16&#45;&gt;Node7 -->
<g id="edge10" class="edge">
<title>Node16&#45;&gt;Node7</title>
<path fill="none" stroke="#9a32cd" stroke-dasharray="5,2" d="M227.73,-127.31C216.63,-114.53 203.02,-98.86 193.36,-87.73"/>
<polygon fill="#9a32cd" stroke="#9a32cd" points="225.39,-129.95 234.59,-135.2 230.67,-125.36 225.39,-129.95"/>
<text text-anchor="middle" x="244" y="-109" font-family="Helvetica,sans-Serif" font-size="10.00"> mFillPolicy</text>
</g>
<!-- Node17 -->
<g id="node12" class="node">
<title>Node17</title>
<g id="a_node12"><a xlink:href="../../d7/dcb/classnap_1_1rtti_1_1_object_ptr_base.html" target="_top" xlink:title="ObjectPtrBase">
<polygon fill="white" stroke="black" points="207,-203.5 207,-222.5 287,-222.5 287,-203.5 207,-203.5"/>
<text text-anchor="middle" x="247" y="-210.5" font-family="Helvetica,sans-Serif" font-size="10.00">ObjectPtrBase</text>
</a>
</g>
</g>
<!-- Node17&#45;&gt;Node16 -->
<g id="edge11" class="edge">
<title>Node17&#45;&gt;Node16</title>
<path fill="none" stroke="midnightblue" d="M247,-193.22C247,-184.36 247,-173.96 247,-165.76"/>
<polygon fill="midnightblue" stroke="midnightblue" points="243.5,-193.33 247,-203.33 250.5,-193.33 243.5,-193.33"/>
</g>
</g>
</svg>
