<?xml version="1.0" encoding="UTF-8" standalone="no"?>
<!DOCTYPE svg PUBLIC "-//W3C//DTD SVG 1.1//EN"
 "http://www.w3.org/Graphics/SVG/1.1/DTD/svg11.dtd">
<!-- Generated by graphviz version 2.43.0 (0)
 -->
<!-- Title: IndexBuffer Pages: 1 -->
<svg width="344pt" height="376pt"
 viewBox="0.00 0.00 344.00 376.00" xmlns="http://www.w3.org/2000/svg" xmlns:xlink="http://www.w3.org/1999/xlink">
<g id="graph0" class="graph" transform="scale(1 1) rotate(0) translate(4 372)">
<title>IndexBuffer</title>
<polygon fill="white" stroke="transparent" points="-4,4 -4,-372 340,-372 340,4 -4,4"/>
<!-- Node1 -->
<g id="node1" class="node">
<title>Node1</title>
<g id="a_node1"><a xlink:title=" ">
<polygon fill="#bfbfbf" stroke="black" points="157.5,-0.5 157.5,-19.5 230.5,-19.5 230.5,-0.5 157.5,-0.5"/>
<text text-anchor="middle" x="194" y="-7.5" font-family="Helvetica,sans-Serif" font-size="10.00">IndexBuffer</text>
</a>
</g>
</g>
<!-- Node2 -->
<g id="node2" class="node">
<title>Node2</title>
<g id="a_node2"><a xlink:href="../../d4/d83/classnap_1_1_typed_g_p_u_buffer_numeric.html" target="_top" xlink:title=" ">
<polygon fill="white" stroke="black" points="125.5,-57.5 125.5,-87.5 262.5,-87.5 262.5,-57.5 125.5,-57.5"/>
<text text-anchor="start" x="133.5" y="-75.5" font-family="Helvetica,sans-Serif" font-size="10.00">TypedGPUBufferNumeric</text>
<text text-anchor="middle" x="194" y="-64.5" font-family="Helvetica,sans-Serif" font-size="10.00">&lt; uint &gt;</text>
</a>
</g>
</g>
<!-- Node2&#45;&gt;Node1 -->
<g id="edge1" class="edge">
<title>Node2&#45;&gt;Node1</title>
<path fill="none" stroke="midnightblue" d="M194,-47.35C194,-37.51 194,-26.78 194,-19.54"/>
<polygon fill="midnightblue" stroke="midnightblue" points="190.5,-47.47 194,-57.47 197.5,-47.47 190.5,-47.47"/>
</g>
<!-- Node3 -->
<g id="node3" class="node">
<title>Node3</title>
<g id="a_node3"><a xlink:href="../../dd/d69/classnap_1_1_g_p_u_buffer_numeric.html" target="_top" xlink:title=" ">
<polygon fill="white" stroke="black" points="70,-141 70,-160 178,-160 178,-141 70,-141"/>
<text text-anchor="middle" x="124" y="-148" font-family="Helvetica,sans-Serif" font-size="10.00">GPUBufferNumeric</text>
</a>
</g>
</g>
<!-- Node3&#45;&gt;Node2 -->
<g id="edge2" class="edge">
<title>Node3&#45;&gt;Node2</title>
<path fill="none" stroke="midnightblue" d="M139.07,-133.14C151.59,-119.55 169.21,-100.42 181.09,-87.52"/>
<polygon fill="midnightblue" stroke="midnightblue" points="136.23,-131.06 132.03,-140.78 141.38,-135.8 136.23,-131.06"/>
</g>
<!-- Node4 -->
<g id="node4" class="node">
<title>Node4</title>
<g id="a_node4"><a xlink:href="../../dd/df4/classnap_1_1_g_p_u_buffer.html" target="_top" xlink:title=" ">
<polygon fill="white" stroke="black" points="90.5,-203.5 90.5,-222.5 157.5,-222.5 157.5,-203.5 90.5,-203.5"/>
<text text-anchor="middle" x="124" y="-210.5" font-family="Helvetica,sans-Serif" font-size="10.00">GPUBuffer</text>
</a>
</g>
</g>
<!-- Node4&#45;&gt;Node3 -->
<g id="edge3" class="edge">
<title>Node4&#45;&gt;Node3</title>
<path fill="none" stroke="midnightblue" d="M124,-193C124,-182 124,-168.68 124,-160.15"/>
<polygon fill="midnightblue" stroke="midnightblue" points="120.5,-193.33 124,-203.33 127.5,-193.33 120.5,-193.33"/>
</g>
<!-- Node5 -->
<g id="node5" class="node">
<title>Node5</title>
<g id="a_node5"><a xlink:href="../../d9/dea/classnap_1_1_resource.html" target="_top" xlink:title=" ">
<polygon fill="white" stroke="black" points="0,-270.5 0,-289.5 62,-289.5 62,-270.5 0,-270.5"/>
<text text-anchor="middle" x="31" y="-277.5" font-family="Helvetica,sans-Serif" font-size="10.00">Resource</text>
</a>
</g>
</g>
<!-- Node5&#45;&gt;Node4 -->
<g id="edge4" class="edge">
<title>Node5&#45;&gt;Node4</title>
<path fill="none" stroke="midnightblue" d="M51.86,-264.42C70.25,-251.57 96.41,-233.28 111.66,-222.63"/>
<polygon fill="midnightblue" stroke="midnightblue" points="49.73,-261.64 43.54,-270.23 53.74,-267.37 49.73,-261.64"/>
</g>
<!-- Node6 -->
<g id="node6" class="node">
<title>Node6</title>
<g id="a_node6"><a xlink:href="../../de/d01/classnap_1_1rtti_1_1_object.html" target="_top" xlink:title=" ">
<polygon fill="white" stroke="black" points="7,-348.5 7,-367.5 55,-367.5 55,-348.5 7,-348.5"/>
<text text-anchor="middle" x="31" y="-355.5" font-family="Helvetica,sans-Serif" font-size="10.00">Object</text>
</a>
</g>
</g>
<!-- Node6&#45;&gt;Node5 -->
<g id="edge5" class="edge">
<title>Node6&#45;&gt;Node5</title>
<path fill="none" stroke="midnightblue" d="M31,-338.22C31,-322.7 31,-301.36 31,-289.62"/>
<polygon fill="midnightblue" stroke="midnightblue" points="27.5,-338.28 31,-348.28 34.5,-338.28 27.5,-338.28"/>
</g>
<!-- Node7 -->
<g id="node7" class="node">
<title>Node7</title>
<g id="a_node7"><a xlink:href="../../d5/dc6/classnap_1_1_render_service.html" target="_top" xlink:title=" ">
<polygon fill="white" stroke="black" points="80.5,-270.5 80.5,-289.5 167.5,-289.5 167.5,-270.5 80.5,-270.5"/>
<text text-anchor="middle" x="124" y="-277.5" font-family="Helvetica,sans-Serif" font-size="10.00">RenderService</text>
</a>
</g>
</g>
<!-- Node7&#45;&gt;Node4 -->
<g id="edge6" class="edge">
<title>Node7&#45;&gt;Node4</title>
<path fill="none" stroke="#9a32cd" stroke-dasharray="5,2" d="M124,-260.04C124,-247.67 124,-232.12 124,-222.63"/>
<polygon fill="#9a32cd" stroke="#9a32cd" points="120.5,-260.23 124,-270.23 127.5,-260.23 120.5,-260.23"/>
<text text-anchor="middle" x="166" y="-244" font-family="Helvetica,sans-Serif" font-size="10.00"> mRenderService</text>
</g>
<!-- Node8 -->
<g id="node8" class="node">
<title>Node8</title>
<g id="a_node8"><a xlink:href="../../d8/d8e/classnap_1_1_service.html" target="_top" xlink:title=" ">
<polygon fill="white" stroke="black" points="85.5,-348.5 85.5,-367.5 138.5,-367.5 138.5,-348.5 85.5,-348.5"/>
<text text-anchor="middle" x="112" y="-355.5" font-family="Helvetica,sans-Serif" font-size="10.00">Service</text>
</a>
</g>
</g>
<!-- Node8&#45;&gt;Node7 -->
<g id="edge7" class="edge">
<title>Node8&#45;&gt;Node7</title>
<path fill="none" stroke="midnightblue" d="M114.96,-338.22C117.42,-322.7 120.79,-301.36 122.64,-289.62"/>
<polygon fill="midnightblue" stroke="midnightblue" points="111.48,-337.86 113.38,-348.28 118.39,-338.95 111.48,-337.86"/>
</g>
<!-- Node9 -->
<g id="node9" class="node">
<title>Node9</title>
<g id="a_node9"><a xlink:href="../../de/d80/classnap_1_1_signal.html" target="_top" xlink:title=" ">
<polygon fill="white" stroke="black" points="156.5,-348.5 156.5,-367.5 333.5,-367.5 333.5,-348.5 156.5,-348.5"/>
<text text-anchor="middle" x="245" y="-355.5" font-family="Helvetica,sans-Serif" font-size="10.00">Signal&lt; nap::RenderWindow &amp; &gt;</text>
</a>
</g>
</g>
<!-- Node9&#45;&gt;Node7 -->
<g id="edge8" class="edge">
<title>Node9&#45;&gt;Node7</title>
<path fill="none" stroke="#9a32cd" stroke-dasharray="5,2" d="M222.35,-342.77C197.47,-327.15 158.32,-302.56 137.72,-289.62"/>
<polygon fill="#9a32cd" stroke="#9a32cd" points="220.79,-345.93 231.12,-348.28 224.51,-340 220.79,-345.93"/>
<text text-anchor="middle" x="243" y="-322" font-family="Helvetica,sans-Serif" font-size="10.00"> windowRemoved</text>
<text text-anchor="middle" x="243" y="-311" font-family="Helvetica,sans-Serif" font-size="10.00">windowAdded</text>
</g>
<!-- Node10 -->
<g id="node10" class="node">
<title>Node10</title>
<g id="a_node10"><a xlink:href="../../de/d80/classnap_1_1_signal.html" target="_top" xlink:title=" ">
<polygon fill="white" stroke="black" points="185.5,-270.5 185.5,-289.5 276.5,-289.5 276.5,-270.5 185.5,-270.5"/>
<text text-anchor="middle" x="231" y="-277.5" font-family="Helvetica,sans-Serif" font-size="10.00">Signal&lt; Args &gt;</text>
</a>
</g>
</g>
<!-- Node10&#45;&gt;Node4 -->
<g id="edge9" class="edge">
<title>Node10&#45;&gt;Node4</title>
<path fill="none" stroke="#9a32cd" stroke-dasharray="5,2" d="M223.83,-260.66C220.29,-253.66 215.39,-246.13 209,-241 194.39,-229.27 174.61,-222.59 157.8,-218.82"/>
<polygon fill="#9a32cd" stroke="#9a32cd" points="220.8,-262.47 228.05,-270.2 227.21,-259.64 220.8,-262.47"/>
<text text-anchor="middle" x="256.5" y="-244" font-family="Helvetica,sans-Serif" font-size="10.00"> bufferChanged</text>
</g>
<!-- Node11 -->
<g id="node11" class="node">
<title>Node11</title>
<g id="a_node11"><a xlink:href="../../dd/d7c/classnap_1_1rtti_1_1_object_ptr.html" target="_top" xlink:title=" ">
<polygon fill="white" stroke="black" points="196,-135.5 196,-165.5 336,-165.5 336,-135.5 196,-135.5"/>
<text text-anchor="start" x="204" y="-153.5" font-family="Helvetica,sans-Serif" font-size="10.00">ObjectPtr&lt; nap::FillPolicy</text>
<text text-anchor="middle" x="266" y="-142.5" font-family="Helvetica,sans-Serif" font-size="10.00">&lt; uint &gt; &gt;</text>
</a>
</g>
</g>
<!-- Node11&#45;&gt;Node2 -->
<g id="edge10" class="edge">
<title>Node11&#45;&gt;Node2</title>
<path fill="none" stroke="#9a32cd" stroke-dasharray="5,2" d="M245.32,-127.67C233.16,-114.83 218.13,-98.97 207.48,-87.73"/>
<polygon fill="#9a32cd" stroke="#9a32cd" points="243.04,-130.35 252.46,-135.2 248.12,-125.54 243.04,-130.35"/>
<text text-anchor="middle" x="263.5" y="-109" font-family="Helvetica,sans-Serif" font-size="10.00"> mFillPolicy</text>
</g>
<!-- Node12 -->
<g id="node12" class="node">
<title>Node12</title>
<g id="a_node12"><a xlink:href="../../d7/dcb/classnap_1_1rtti_1_1_object_ptr_base.html" target="_top" xlink:title=" ">
<polygon fill="white" stroke="black" points="223,-203.5 223,-222.5 309,-222.5 309,-203.5 223,-203.5"/>
<text text-anchor="middle" x="266" y="-210.5" font-family="Helvetica,sans-Serif" font-size="10.00">ObjectPtrBase</text>
</a>
</g>
</g>
<!-- Node12&#45;&gt;Node11 -->
<g id="edge11" class="edge">
<title>Node12&#45;&gt;Node11</title>
<path fill="none" stroke="midnightblue" d="M266,-193.22C266,-184.36 266,-173.96 266,-165.76"/>
<polygon fill="midnightblue" stroke="midnightblue" points="262.5,-193.33 266,-203.33 269.5,-193.33 262.5,-193.33"/>
</g>
</g>
</svg>
