<?xml version="1.0" encoding="UTF-8" standalone="no"?>
<!DOCTYPE svg PUBLIC "-//W3C//DTD SVG 1.1//EN"
 "http://www.w3.org/Graphics/SVG/1.1/DTD/svg11.dtd">
<!-- Generated by graphviz version 2.48.0 (20210717.1556)
 -->
<!-- Title: AudioInputComponent Pages: 1 -->
<svg width="121pt" height="252pt"
 viewBox="0.00 0.00 121.00 252.00" xmlns="http://www.w3.org/2000/svg" xmlns:xlink="http://www.w3.org/1999/xlink">
<g id="graph0" class="graph" transform="scale(1 1) rotate(0) translate(4 248)">
<title>AudioInputComponent</title>
<polygon fill="white" stroke="transparent" points="-4,4 -4,-248 117,-248 117,4 -4,4"/>
<!-- Node0 -->
<g id="node1" class="node">
<title>Node0</title>
<polygon fill="#bfbfbf" stroke="black" points="0.5,-0.5 0.5,-19.5 112.5,-19.5 112.5,-0.5 0.5,-0.5"/>
<text text-anchor="middle" x="56.5" y="-7.5" font-family="Helvetica,sans-Serif" font-size="10.00">AudioInputComponent</text>
</g>
<!-- Node1 -->
<g id="node2" class="node">
<title>Node1</title>
<g id="a_node2"><a xlink:href="../../d5/dcb/classnap_1_1audio_1_1_audio_component_base.html" target="_top" xlink:title="AudioComponentBase">
<polygon fill="white" stroke="black" points="0,-56.5 0,-75.5 113,-75.5 113,-56.5 0,-56.5"/>
<text text-anchor="middle" x="56.5" y="-63.5" font-family="Helvetica,sans-Serif" font-size="10.00">AudioComponentBase</text>
</a>
</g>
</g>
<!-- Node1&#45;&gt;Node0 -->
<g id="edge1" class="edge">
<title>Node1&#45;&gt;Node0</title>
<path fill="none" stroke="midnightblue" d="M56.5,-45.8C56.5,-36.91 56.5,-26.78 56.5,-19.75"/>
<polygon fill="midnightblue" stroke="midnightblue" points="53,-46.08 56.5,-56.08 60,-46.08 53,-46.08"/>
</g>
<!-- Node2 -->
<g id="node3" class="node">
<title>Node2</title>
<g id="a_node3"><a xlink:href="../../db/d6b/classnap_1_1_component.html" target="_top" xlink:title="Component">
<polygon fill="white" stroke="black" points="23.5,-112.5 23.5,-131.5 89.5,-131.5 89.5,-112.5 23.5,-112.5"/>
<text text-anchor="middle" x="56.5" y="-119.5" font-family="Helvetica,sans-Serif" font-size="10.00">Component</text>
</a>
</g>
</g>
<!-- Node2&#45;&gt;Node1 -->
<g id="edge2" class="edge">
<title>Node2&#45;&gt;Node1</title>
<path fill="none" stroke="midnightblue" d="M56.5,-101.8C56.5,-92.91 56.5,-82.78 56.5,-75.75"/>
<polygon fill="midnightblue" stroke="midnightblue" points="53,-102.08 56.5,-112.08 60,-102.08 53,-102.08"/>
</g>
<!-- Node3 -->
<g id="node4" class="node">
<title>Node3</title>
<g id="a_node4"><a xlink:href="../../d9/dea/classnap_1_1_resource.html" target="_top" xlink:title="Resource">
<polygon fill="white" stroke="black" points="27.5,-168.5 27.5,-187.5 85.5,-187.5 85.5,-168.5 27.5,-168.5"/>
<text text-anchor="middle" x="56.5" y="-175.5" font-family="Helvetica,sans-Serif" font-size="10.00">Resource</text>
</a>
</g>
</g>
<!-- Node3&#45;&gt;Node2 -->
<g id="edge3" class="edge">
<title>Node3&#45;&gt;Node2</title>
<path fill="none" stroke="midnightblue" d="M56.5,-157.8C56.5,-148.91 56.5,-138.78 56.5,-131.75"/>
<polygon fill="midnightblue" stroke="midnightblue" points="53,-158.08 56.5,-168.08 60,-158.08 53,-158.08"/>
</g>
<!-- Node4 -->
<g id="node5" class="node">
<title>Node4</title>
<g id="a_node5"><a xlink:href="../../de/d01/classnap_1_1rtti_1_1_object.html" target="_top" xlink:title="Object">
<polygon fill="white" stroke="black" points="34,-224.5 34,-243.5 79,-243.5 79,-224.5 34,-224.5"/>
<text text-anchor="middle" x="56.5" y="-231.5" font-family="Helvetica,sans-Serif" font-size="10.00">Object</text>
</a>
</g>
</g>
<!-- Node4&#45;&gt;Node3 -->
<g id="edge4" class="edge">
<title>Node4&#45;&gt;Node3</title>
<path fill="none" stroke="midnightblue" d="M56.5,-213.8C56.5,-204.91 56.5,-194.78 56.5,-187.75"/>
<polygon fill="midnightblue" stroke="midnightblue" points="53,-214.08 56.5,-224.08 60,-214.08 53,-214.08"/>
</g>
</g>
</svg>
