<?xml version="1.0" encoding="UTF-8" standalone="no"?>
<!DOCTYPE svg PUBLIC "-//W3C//DTD SVG 1.1//EN"
 "http://www.w3.org/Graphics/SVG/1.1/DTD/svg11.dtd">
<!-- Generated by graphviz version 2.43.0 (0)
 -->
<!-- Title: ParameterBlendComponentInstance Pages: 1 -->
<svg width="200pt" height="140pt"
 viewBox="0.00 0.00 200.00 140.00" xmlns="http://www.w3.org/2000/svg" xmlns:xlink="http://www.w3.org/1999/xlink">
<g id="graph0" class="graph" transform="scale(1 1) rotate(0) translate(4 136)">
<title>ParameterBlendComponentInstance</title>
<polygon fill="white" stroke="transparent" points="-4,4 -4,-136 196,-136 196,4 -4,4"/>
<!-- Node1 -->
<g id="node1" class="node">
<title>Node1</title>
<g id="a_node1"><a xlink:title=" ">
<polygon fill="#bfbfbf" stroke="black" points="0,-0.5 0,-19.5 192,-19.5 192,-0.5 0,-0.5"/>
<text text-anchor="middle" x="96" y="-7.5" font-family="Helvetica,sans-Serif" font-size="10.00">ParameterBlendComponentInstance</text>
</a>
</g>
</g>
<!-- Node2 -->
<g id="node2" class="node">
<title>Node2</title>
<g id="a_node2"><a xlink:href="../../d9/df2/classnap_1_1_component_instance.html" target="_top" xlink:title=" ">
<polygon fill="white" stroke="black" points="39,-56.5 39,-75.5 153,-75.5 153,-56.5 39,-56.5"/>
<text text-anchor="middle" x="96" y="-63.5" font-family="Helvetica,sans-Serif" font-size="10.00">ComponentInstance</text>
</a>
</g>
</g>
<!-- Node2&#45;&gt;Node1 -->
<g id="edge1" class="edge">
<title>Node2&#45;&gt;Node1</title>
<path fill="none" stroke="midnightblue" d="M96,-45.8C96,-36.91 96,-26.78 96,-19.75"/>
<polygon fill="midnightblue" stroke="midnightblue" points="92.5,-46.08 96,-56.08 99.5,-46.08 92.5,-46.08"/>
</g>
<!-- Node3 -->
<g id="node3" class="node">
<title>Node3</title>
<g id="a_node3"><a xlink:href="../../de/d01/classnap_1_1rtti_1_1_object.html" target="_top" xlink:title=" ">
<polygon fill="white" stroke="black" points="72,-112.5 72,-131.5 120,-131.5 120,-112.5 72,-112.5"/>
<text text-anchor="middle" x="96" y="-119.5" font-family="Helvetica,sans-Serif" font-size="10.00">Object</text>
</a>
</g>
</g>
<!-- Node3&#45;&gt;Node2 -->
<g id="edge2" class="edge">
<title>Node3&#45;&gt;Node2</title>
<path fill="none" stroke="midnightblue" d="M96,-101.8C96,-92.91 96,-82.78 96,-75.75"/>
<polygon fill="midnightblue" stroke="midnightblue" points="92.5,-102.08 96,-112.08 99.5,-102.08 92.5,-102.08"/>
</g>
</g>
</svg>
