<?xml version="1.0" encoding="UTF-8" standalone="no"?>
<!DOCTYPE svg PUBLIC "-//W3C//DTD SVG 1.1//EN"
 "http://www.w3.org/Graphics/SVG/1.1/DTD/svg11.dtd">
<!-- Generated by graphviz version 2.48.0 (20210717.1556)
 -->
<!-- Title: BufferBindingInstance Pages: 1 -->
<svg width="310pt" height="151pt"
 viewBox="0.00 0.00 309.50 151.00" xmlns="http://www.w3.org/2000/svg" xmlns:xlink="http://www.w3.org/1999/xlink">
<g id="graph0" class="graph" transform="scale(1 1) rotate(0) translate(4 147)">
<title>BufferBindingInstance</title>
<polygon fill="white" stroke="transparent" points="-4,4 -4,-147 305.5,-147 305.5,4 -4,4"/>
<!-- Node0 -->
<g id="node1" class="node">
<title>Node0</title>
<polygon fill="#bfbfbf" stroke="black" points="98,-123.5 98,-142.5 208,-142.5 208,-123.5 98,-123.5"/>
<text text-anchor="middle" x="153" y="-130.5" font-family="Helvetica,sans-Serif" font-size="10.00">BufferBindingInstance</text>
</g>
<!-- Node1 -->
<g id="node2" class="node">
<title>Node1</title>
<g id="a_node2"><a xlink:href="../../de/dc7/classnap_1_1_buffer_binding_numeric_instance.html" target="_top" xlink:title="BufferBindingNumericInstance">
<polygon fill="white" stroke="black" points="0,-67.5 0,-86.5 146,-86.5 146,-67.5 0,-67.5"/>
<text text-anchor="middle" x="73" y="-74.5" font-family="Helvetica,sans-Serif" font-size="10.00">BufferBindingNumericInstance</text>
</a>
</g>
</g>
<!-- Node0&#45;&gt;Node1 -->
<g id="edge1" class="edge">
<title>Node0&#45;&gt;Node1</title>
<path fill="none" stroke="midnightblue" d="M131.7,-117.62C117.08,-107.76 98.17,-94.99 85.82,-86.65"/>
<polygon fill="midnightblue" stroke="midnightblue" points="129.9,-120.63 140.15,-123.32 133.82,-114.83 129.9,-120.63"/>
</g>
<!-- Node3 -->
<g id="node4" class="node">
<title>Node3</title>
<g id="a_node4"><a xlink:href="../../d0/da7/classnap_1_1_buffer_binding_struct_instance.html" target="_top" xlink:title="BufferBindingStructInstance">
<polygon fill="white" stroke="black" points="164.5,-67.5 164.5,-86.5 301.5,-86.5 301.5,-67.5 164.5,-67.5"/>
<text text-anchor="middle" x="233" y="-74.5" font-family="Helvetica,sans-Serif" font-size="10.00">BufferBindingStructInstance</text>
</a>
</g>
</g>
<!-- Node0&#45;&gt;Node3 -->
<g id="edge3" class="edge">
<title>Node0&#45;&gt;Node3</title>
<path fill="none" stroke="midnightblue" d="M174.3,-117.62C188.92,-107.76 207.83,-94.99 220.18,-86.65"/>
<polygon fill="midnightblue" stroke="midnightblue" points="172.18,-114.83 165.85,-123.32 176.1,-120.63 172.18,-114.83"/>
</g>
<!-- Node2 -->
<g id="node3" class="node">
<title>Node2</title>
<g id="a_node3"><a xlink:href="../../d3/d02/classnap_1_1_typed_buffer_binding_numeric_instance.html" target="_top" xlink:title="TypedBufferBindingNumeric\lInstance\&lt; T \&gt;">
<polygon fill="white" stroke="black" points="5,-0.5 5,-30.5 141,-30.5 141,-0.5 5,-0.5"/>
<text text-anchor="start" x="13" y="-18.5" font-family="Helvetica,sans-Serif" font-size="10.00">TypedBufferBindingNumeric</text>
<text text-anchor="middle" x="73" y="-7.5" font-family="Helvetica,sans-Serif" font-size="10.00">Instance&lt; T &gt;</text>
</a>
</g>
</g>
<!-- Node1&#45;&gt;Node2 -->
<g id="edge2" class="edge">
<title>Node1&#45;&gt;Node2</title>
<path fill="none" stroke="midnightblue" d="M73,-57.23C73,-48.59 73,-38.5 73,-30.52"/>
<polygon fill="midnightblue" stroke="midnightblue" points="69.5,-57.48 73,-67.48 76.5,-57.48 69.5,-57.48"/>
</g>
</g>
</svg>
