<?xml version="1.0" encoding="UTF-8" standalone="no"?>
<!DOCTYPE svg PUBLIC "-//W3C//DTD SVG 1.1//EN"
 "http://www.w3.org/Graphics/SVG/1.1/DTD/svg11.dtd">
<!-- Generated by graphviz version 2.48.0 (20210717.1556)
 -->
<!-- Title: CVCamera Pages: 1 -->
<svg width="210pt" height="209pt"
 viewBox="0.00 0.00 210.00 209.00" xmlns="http://www.w3.org/2000/svg" xmlns:xlink="http://www.w3.org/1999/xlink">
<g id="graph0" class="graph" transform="scale(1 1) rotate(0) translate(4 205)">
<title>CVCamera</title>
<polygon fill="white" stroke="transparent" points="-4,4 -4,-205 206,-205 206,4 -4,4"/>
<!-- Node4 -->
<g id="node1" class="node">
<title>Node4</title>
<polygon fill="#bfbfbf" stroke="black" points="75,-0.5 75,-19.5 139,-19.5 139,-0.5 75,-0.5"/>
<text text-anchor="middle" x="107" y="-7.5" font-family="Helvetica,sans-Serif" font-size="10.00">CVCamera</text>
</g>
<!-- Node5 -->
<g id="node2" class="node">
<title>Node5</title>
<g id="a_node2"><a xlink:href="../../d5/dc7/classnap_1_1_c_v_adapter.html" target="_top" xlink:title="CVAdapter">
<polygon fill="white" stroke="black" points="0,-67.5 0,-86.5 64,-86.5 64,-67.5 0,-67.5"/>
<text text-anchor="middle" x="32" y="-74.5" font-family="Helvetica,sans-Serif" font-size="10.00">CVAdapter</text>
</a>
</g>
</g>
<!-- Node5&#45;&gt;Node4 -->
<g id="edge1" class="edge">
<title>Node5&#45;&gt;Node4</title>
<path fill="none" stroke="midnightblue" d="M50.05,-60.36C64.79,-47.58 85.09,-29.99 97.05,-19.63"/>
<polygon fill="midnightblue" stroke="midnightblue" points="47.38,-58.04 42.11,-67.23 51.96,-63.33 47.38,-58.04"/>
</g>
<!-- Node6 -->
<g id="node3" class="node">
<title>Node6</title>
<g id="a_node3"><a xlink:href="../../d9/dea/classnap_1_1_resource.html" target="_top" xlink:title="Resource">
<polygon fill="white" stroke="black" points="3,-124.5 3,-143.5 61,-143.5 61,-124.5 3,-124.5"/>
<text text-anchor="middle" x="32" y="-131.5" font-family="Helvetica,sans-Serif" font-size="10.00">Resource</text>
</a>
</g>
</g>
<!-- Node6&#45;&gt;Node5 -->
<g id="edge2" class="edge">
<title>Node6&#45;&gt;Node5</title>
<path fill="none" stroke="midnightblue" d="M32,-114.12C32,-104.82 32,-94.06 32,-86.71"/>
<polygon fill="midnightblue" stroke="midnightblue" points="28.5,-114.41 32,-124.41 35.5,-114.41 28.5,-114.41"/>
</g>
<!-- Node7 -->
<g id="node4" class="node">
<title>Node7</title>
<g id="a_node4"><a xlink:href="../../de/d01/classnap_1_1rtti_1_1_object.html" target="_top" xlink:title="Object">
<polygon fill="white" stroke="black" points="9.5,-181.5 9.5,-200.5 54.5,-200.5 54.5,-181.5 9.5,-181.5"/>
<text text-anchor="middle" x="32" y="-188.5" font-family="Helvetica,sans-Serif" font-size="10.00">Object</text>
</a>
</g>
</g>
<!-- Node7&#45;&gt;Node6 -->
<g id="edge3" class="edge">
<title>Node7&#45;&gt;Node6</title>
<path fill="none" stroke="midnightblue" d="M32,-171.12C32,-161.82 32,-151.06 32,-143.71"/>
<polygon fill="midnightblue" stroke="midnightblue" points="28.5,-171.41 32,-181.41 35.5,-171.41 28.5,-171.41"/>
</g>
<!-- Node8 -->
<g id="node5" class="node">
<title>Node8</title>
<g id="a_node5"><a xlink:href="../../d2/df1/structnap_1_1_c_v_camera_settings.html" target="_top" xlink:title="CVCameraSettings">
<polygon fill="white" stroke="black" points="82,-67.5 82,-86.5 182,-86.5 182,-67.5 82,-67.5"/>
<text text-anchor="middle" x="132" y="-74.5" font-family="Helvetica,sans-Serif" font-size="10.00">CVCameraSettings</text>
</a>
</g>
</g>
<!-- Node8&#45;&gt;Node4 -->
<g id="edge4" class="edge">
<title>Node8&#45;&gt;Node4</title>
<path fill="none" stroke="#9a32cd" stroke-dasharray="5,2" d="M125,-57.79C120.2,-45.31 114.04,-29.31 110.32,-19.63"/>
<polygon fill="#9a32cd" stroke="#9a32cd" points="121.77,-59.16 128.63,-67.23 128.31,-56.64 121.77,-59.16"/>
<text text-anchor="middle" x="161" y="-41" font-family="Helvetica,sans-Serif" font-size="10.00"> mCameraSettings</text>
</g>
</g>
</svg>
