<?xml version="1.0" encoding="UTF-8" standalone="no"?>
<!DOCTYPE svg PUBLIC "-//W3C//DTD SVG 1.1//EN"
 "http://www.w3.org/Graphics/SVG/1.1/DTD/svg11.dtd">
<!-- Generated by graphviz version 2.43.0 (0)
 -->
<!-- Title: CVCamera Pages: 1 -->
<svg width="227pt" height="209pt"
 viewBox="0.00 0.00 227.00 209.00" xmlns="http://www.w3.org/2000/svg" xmlns:xlink="http://www.w3.org/1999/xlink">
<g id="graph0" class="graph" transform="scale(1 1) rotate(0) translate(4 205)">
<title>CVCamera</title>
<polygon fill="white" stroke="transparent" points="-4,4 -4,-205 223,-205 223,4 -4,4"/>
<!-- Node1 -->
<g id="node1" class="node">
<title>Node1</title>
<g id="a_node1"><a xlink:title=" ">
<polygon fill="#bfbfbf" stroke="black" points="79,-0.5 79,-19.5 147,-19.5 147,-0.5 79,-0.5"/>
<text text-anchor="middle" x="113" y="-7.5" font-family="Helvetica,sans-Serif" font-size="10.00">CVCamera</text>
</a>
</g>
</g>
<!-- Node2 -->
<g id="node2" class="node">
<title>Node2</title>
<g id="a_node2"><a xlink:href="../../d5/dc7/classnap_1_1_c_v_adapter.html" target="_top" xlink:title=" ">
<polygon fill="white" stroke="black" points="0,-67.5 0,-86.5 68,-86.5 68,-67.5 0,-67.5"/>
<text text-anchor="middle" x="34" y="-74.5" font-family="Helvetica,sans-Serif" font-size="10.00">CVAdapter</text>
</a>
</g>
</g>
<!-- Node2&#45;&gt;Node1 -->
<g id="edge1" class="edge">
<title>Node2&#45;&gt;Node1</title>
<path fill="none" stroke="midnightblue" d="M52.58,-60.71C68.14,-47.91 89.8,-30.09 102.51,-19.63"/>
<polygon fill="midnightblue" stroke="midnightblue" points="50.15,-58.18 44.65,-67.23 54.6,-63.58 50.15,-58.18"/>
</g>
<!-- Node3 -->
<g id="node3" class="node">
<title>Node3</title>
<g id="a_node3"><a xlink:href="../../d9/dea/classnap_1_1_resource.html" target="_top" xlink:title=" ">
<polygon fill="white" stroke="black" points="3,-124.5 3,-143.5 65,-143.5 65,-124.5 3,-124.5"/>
<text text-anchor="middle" x="34" y="-131.5" font-family="Helvetica,sans-Serif" font-size="10.00">Resource</text>
</a>
</g>
</g>
<!-- Node3&#45;&gt;Node2 -->
<g id="edge2" class="edge">
<title>Node3&#45;&gt;Node2</title>
<path fill="none" stroke="midnightblue" d="M34,-114.12C34,-104.82 34,-94.06 34,-86.71"/>
<polygon fill="midnightblue" stroke="midnightblue" points="30.5,-114.41 34,-124.41 37.5,-114.41 30.5,-114.41"/>
</g>
<!-- Node4 -->
<g id="node4" class="node">
<title>Node4</title>
<g id="a_node4"><a xlink:href="../../de/d01/classnap_1_1rtti_1_1_object.html" target="_top" xlink:title=" ">
<polygon fill="white" stroke="black" points="10,-181.5 10,-200.5 58,-200.5 58,-181.5 10,-181.5"/>
<text text-anchor="middle" x="34" y="-188.5" font-family="Helvetica,sans-Serif" font-size="10.00">Object</text>
</a>
</g>
</g>
<!-- Node4&#45;&gt;Node3 -->
<g id="edge3" class="edge">
<title>Node4&#45;&gt;Node3</title>
<path fill="none" stroke="midnightblue" d="M34,-171.12C34,-161.82 34,-151.06 34,-143.71"/>
<polygon fill="midnightblue" stroke="midnightblue" points="30.5,-171.41 34,-181.41 37.5,-171.41 30.5,-171.41"/>
</g>
<!-- Node5 -->
<g id="node5" class="node">
<title>Node5</title>
<g id="a_node5"><a xlink:href="../../d2/df1/structnap_1_1_c_v_camera_settings.html" target="_top" xlink:title=" ">
<polygon fill="white" stroke="black" points="86,-67.5 86,-86.5 194,-86.5 194,-67.5 86,-67.5"/>
<text text-anchor="middle" x="140" y="-74.5" font-family="Helvetica,sans-Serif" font-size="10.00">CVCameraSettings</text>
</a>
</g>
</g>
<!-- Node5&#45;&gt;Node1 -->
<g id="edge4" class="edge">
<title>Node5&#45;&gt;Node1</title>
<path fill="none" stroke="#9a32cd" stroke-dasharray="5,2" d="M132.44,-57.79C127.25,-45.31 120.61,-29.31 116.58,-19.63"/>
<polygon fill="#9a32cd" stroke="#9a32cd" points="129.29,-59.34 136.36,-67.23 135.75,-56.66 129.29,-59.34"/>
<text text-anchor="middle" x="173.5" y="-41" font-family="Helvetica,sans-Serif" font-size="10.00"> mCameraSettings</text>
</g>
</g>
</svg>
