<?xml version="1.0" encoding="UTF-8" standalone="no"?>
<!DOCTYPE svg PUBLIC "-//W3C//DTD SVG 1.1//EN"
 "http://www.w3.org/Graphics/SVG/1.1/DTD/svg11.dtd">
<!-- Generated by graphviz version 2.43.0 (0)
 -->
<!-- Title: InputComponentInstance Pages: 1 -->
<svg width="590pt" height="116pt"
 viewBox="0.00 0.00 590.00 115.50" xmlns="http://www.w3.org/2000/svg" xmlns:xlink="http://www.w3.org/1999/xlink">
<g id="graph0" class="graph" transform="scale(1 1) rotate(0) translate(4 111.5)">
<title>InputComponentInstance</title>
<polygon fill="white" stroke="transparent" points="-4,4 -4,-111.5 586,-111.5 586,4 -4,4"/>
<!-- Node1 -->
<g id="node1" class="node">
<title>Node1</title>
<g id="a_node1"><a xlink:title=" ">
<polygon fill="#bfbfbf" stroke="black" points="234,-38.5 234,-57.5 373,-57.5 373,-38.5 234,-38.5"/>
<text text-anchor="middle" x="303.5" y="-45.5" font-family="Helvetica,sans-Serif" font-size="10.00">InputComponentInstance</text>
</a>
</g>
</g>
<!-- Node4 -->
<g id="node4" class="node">
<title>Node4</title>
<g id="a_node4"><a xlink:href="../../d1/dd4/classnap_1_1_controller_input_component_instance.html" target="_top" xlink:title=" ">
<polygon fill="white" stroke="black" points="422.5,-77 422.5,-107 568.5,-107 568.5,-77 422.5,-77"/>
<text text-anchor="start" x="430.5" y="-95" font-family="Helvetica,sans-Serif" font-size="10.00">ControllerInputComponent</text>
<text text-anchor="middle" x="495.5" y="-84" font-family="Helvetica,sans-Serif" font-size="10.00">Instance</text>
</a>
</g>
</g>
<!-- Node1&#45;&gt;Node4 -->
<g id="edge3" class="edge">
<title>Node1&#45;&gt;Node4</title>
<path fill="none" stroke="midnightblue" d="M355.51,-59.81C378.24,-65.08 405.28,-71.34 429.45,-76.93"/>
<polygon fill="midnightblue" stroke="midnightblue" points="356.26,-56.39 345.73,-57.55 354.68,-63.21 356.26,-56.39"/>
</g>
<!-- Node5 -->
<g id="node5" class="node">
<title>Node5</title>
<g id="a_node5"><a xlink:href="../../d3/d36/classnap_1_1_key_input_component_instance.html" target="_top" xlink:title=" ">
<polygon fill="white" stroke="black" points="417,-38.5 417,-57.5 574,-57.5 574,-38.5 417,-38.5"/>
<text text-anchor="middle" x="495.5" y="-45.5" font-family="Helvetica,sans-Serif" font-size="10.00">KeyInputComponentInstance</text>
</a>
</g>
</g>
<!-- Node1&#45;&gt;Node5 -->
<g id="edge4" class="edge">
<title>Node1&#45;&gt;Node5</title>
<path fill="none" stroke="midnightblue" d="M383.23,-48C394.39,-48 405.85,-48 416.98,-48"/>
<polygon fill="midnightblue" stroke="midnightblue" points="383.09,-44.5 373.09,-48 383.09,-51.5 383.09,-44.5"/>
</g>
<!-- Node6 -->
<g id="node6" class="node">
<title>Node6</title>
<g id="a_node6"><a xlink:href="../../df/d36/classnap_1_1_pointer_input_component_instance.html" target="_top" xlink:title=" ">
<polygon fill="white" stroke="black" points="409,-0.5 409,-19.5 582,-19.5 582,-0.5 409,-0.5"/>
<text text-anchor="middle" x="495.5" y="-7.5" font-family="Helvetica,sans-Serif" font-size="10.00">PointerInputComponentInstance</text>
</a>
</g>
</g>
<!-- Node1&#45;&gt;Node6 -->
<g id="edge5" class="edge">
<title>Node1&#45;&gt;Node6</title>
<path fill="none" stroke="midnightblue" d="M362.55,-36.39C389.57,-30.99 421.32,-24.64 446.9,-19.52"/>
<polygon fill="midnightblue" stroke="midnightblue" points="361.56,-33.02 352.45,-38.41 362.94,-39.88 361.56,-33.02"/>
</g>
<!-- Node2 -->
<g id="node2" class="node">
<title>Node2</title>
<g id="a_node2"><a xlink:href="../../d9/df2/classnap_1_1_component_instance.html" target="_top" xlink:title=" ">
<polygon fill="white" stroke="black" points="84,-38.5 84,-57.5 198,-57.5 198,-38.5 84,-38.5"/>
<text text-anchor="middle" x="141" y="-45.5" font-family="Helvetica,sans-Serif" font-size="10.00">ComponentInstance</text>
</a>
</g>
</g>
<!-- Node2&#45;&gt;Node1 -->
<g id="edge1" class="edge">
<title>Node2&#45;&gt;Node1</title>
<path fill="none" stroke="midnightblue" d="M208.33,-48C216.79,-48 225.47,-48 233.97,-48"/>
<polygon fill="midnightblue" stroke="midnightblue" points="208.14,-44.5 198.14,-48 208.14,-51.5 208.14,-44.5"/>
</g>
<!-- Node3 -->
<g id="node3" class="node">
<title>Node3</title>
<g id="a_node3"><a xlink:href="../../de/d01/classnap_1_1rtti_1_1_object.html" target="_top" xlink:title=" ">
<polygon fill="white" stroke="black" points="0,-38.5 0,-57.5 48,-57.5 48,-38.5 0,-38.5"/>
<text text-anchor="middle" x="24" y="-45.5" font-family="Helvetica,sans-Serif" font-size="10.00">Object</text>
</a>
</g>
</g>
<!-- Node3&#45;&gt;Node2 -->
<g id="edge2" class="edge">
<title>Node3&#45;&gt;Node2</title>
<path fill="none" stroke="midnightblue" d="M58.33,-48C66.38,-48 75.19,-48 83.96,-48"/>
<polygon fill="midnightblue" stroke="midnightblue" points="58.27,-44.5 48.27,-48 58.27,-51.5 58.27,-44.5"/>
</g>
</g>
</svg>
