<?xml version="1.0" encoding="UTF-8" standalone="no"?>
<!DOCTYPE svg PUBLIC "-//W3C//DTD SVG 1.1//EN"
 "http://www.w3.org/Graphics/SVG/1.1/DTD/svg11.dtd">
<!-- Generated by graphviz version 2.43.0 (0)
 -->
<!-- Title: ControllerEvent Pages: 1 -->
<svg width="429pt" height="252pt"
 viewBox="0.00 0.00 429.00 252.00" xmlns="http://www.w3.org/2000/svg" xmlns:xlink="http://www.w3.org/1999/xlink">
<g id="graph0" class="graph" transform="scale(1 1) rotate(0) translate(4 248)">
<title>ControllerEvent</title>
<polygon fill="white" stroke="transparent" points="-4,4 -4,-248 425,-248 425,4 -4,4"/>
<!-- Node1 -->
<g id="node1" class="node">
<title>Node1</title>
<g id="a_node1"><a xlink:title=" ">
<polygon fill="#bfbfbf" stroke="black" points="147.5,-112.5 147.5,-131.5 239.5,-131.5 239.5,-112.5 147.5,-112.5"/>
<text text-anchor="middle" x="193.5" y="-119.5" font-family="Helvetica,sans-Serif" font-size="10.00">ControllerEvent</text>
</a>
</g>
</g>
<!-- Node4 -->
<g id="node4" class="node">
<title>Node4</title>
<g id="a_node4"><a xlink:href="../../da/dbd/classnap_1_1_controller_axis_event.html" target="_top" xlink:title=" ">
<polygon fill="white" stroke="black" points="0,-56.5 0,-75.5 113,-75.5 113,-56.5 0,-56.5"/>
<text text-anchor="middle" x="56.5" y="-63.5" font-family="Helvetica,sans-Serif" font-size="10.00">ControllerAxisEvent</text>
</a>
</g>
</g>
<!-- Node1&#45;&gt;Node4 -->
<g id="edge3" class="edge">
<title>Node1&#45;&gt;Node4</title>
<path fill="none" stroke="midnightblue" d="M162.48,-108.77C136.74,-98.63 100.81,-84.47 78.11,-75.52"/>
<polygon fill="midnightblue" stroke="midnightblue" points="161.21,-112.03 171.79,-112.44 163.77,-105.52 161.21,-112.03"/>
</g>
<!-- Node5 -->
<g id="node5" class="node">
<title>Node5</title>
<g id="a_node5"><a xlink:href="../../d6/d31/classnap_1_1_controller_button_event.html" target="_top" xlink:title=" ">
<polygon fill="white" stroke="black" points="131,-56.5 131,-75.5 256,-75.5 256,-56.5 131,-56.5"/>
<text text-anchor="middle" x="193.5" y="-63.5" font-family="Helvetica,sans-Serif" font-size="10.00">ControllerButtonEvent</text>
</a>
</g>
</g>
<!-- Node1&#45;&gt;Node5 -->
<g id="edge4" class="edge">
<title>Node1&#45;&gt;Node5</title>
<path fill="none" stroke="midnightblue" d="M193.5,-101.8C193.5,-92.91 193.5,-82.78 193.5,-75.75"/>
<polygon fill="midnightblue" stroke="midnightblue" points="190,-102.08 193.5,-112.08 197,-102.08 190,-102.08"/>
</g>
<!-- Node8 -->
<g id="node8" class="node">
<title>Node8</title>
<g id="a_node8"><a xlink:href="../../d4/d9f/classnap_1_1_controller_connection_event.html" target="_top" xlink:title=" ">
<polygon fill="white" stroke="black" points="274,-56.5 274,-75.5 421,-75.5 421,-56.5 274,-56.5"/>
<text text-anchor="middle" x="347.5" y="-63.5" font-family="Helvetica,sans-Serif" font-size="10.00">ControllerConnectionEvent</text>
</a>
</g>
</g>
<!-- Node1&#45;&gt;Node8 -->
<g id="edge7" class="edge">
<title>Node1&#45;&gt;Node8</title>
<path fill="none" stroke="midnightblue" d="M227.61,-109.04C256.59,-98.88 297.46,-84.55 323.21,-75.52"/>
<polygon fill="midnightblue" stroke="midnightblue" points="226.18,-105.83 217.9,-112.44 228.5,-112.44 226.18,-105.83"/>
</g>
<!-- Node2 -->
<g id="node2" class="node">
<title>Node2</title>
<g id="a_node2"><a xlink:href="../../dc/dc0/classnap_1_1_input_event.html" target="_top" xlink:title=" ">
<polygon fill="white" stroke="black" points="159,-168.5 159,-187.5 228,-187.5 228,-168.5 159,-168.5"/>
<text text-anchor="middle" x="193.5" y="-175.5" font-family="Helvetica,sans-Serif" font-size="10.00">InputEvent</text>
</a>
</g>
</g>
<!-- Node2&#45;&gt;Node1 -->
<g id="edge1" class="edge">
<title>Node2&#45;&gt;Node1</title>
<path fill="none" stroke="midnightblue" d="M193.5,-157.8C193.5,-148.91 193.5,-138.78 193.5,-131.75"/>
<polygon fill="midnightblue" stroke="midnightblue" points="190,-158.08 193.5,-168.08 197,-158.08 190,-158.08"/>
</g>
<!-- Node3 -->
<g id="node3" class="node">
<title>Node3</title>
<g id="a_node3"><a xlink:href="../../d2/da2/classnap_1_1_event.html" target="_top" xlink:title=" ">
<polygon fill="white" stroke="black" points="171.5,-224.5 171.5,-243.5 215.5,-243.5 215.5,-224.5 171.5,-224.5"/>
<text text-anchor="middle" x="193.5" y="-231.5" font-family="Helvetica,sans-Serif" font-size="10.00">Event</text>
</a>
</g>
</g>
<!-- Node3&#45;&gt;Node2 -->
<g id="edge2" class="edge">
<title>Node3&#45;&gt;Node2</title>
<path fill="none" stroke="midnightblue" d="M193.5,-213.8C193.5,-204.91 193.5,-194.78 193.5,-187.75"/>
<polygon fill="midnightblue" stroke="midnightblue" points="190,-214.08 193.5,-224.08 197,-214.08 190,-214.08"/>
</g>
<!-- Node6 -->
<g id="node6" class="node">
<title>Node6</title>
<g id="a_node6"><a xlink:href="../../d9/d4a/classnap_1_1_controller_button_press_event.html" target="_top" xlink:title=" ">
<polygon fill="white" stroke="black" points="30,-0.5 30,-19.5 181,-19.5 181,-0.5 30,-0.5"/>
<text text-anchor="middle" x="105.5" y="-7.5" font-family="Helvetica,sans-Serif" font-size="10.00">ControllerButtonPressEvent</text>
</a>
</g>
</g>
<!-- Node5&#45;&gt;Node6 -->
<g id="edge5" class="edge">
<title>Node5&#45;&gt;Node6</title>
<path fill="none" stroke="midnightblue" d="M170.52,-50.9C154.39,-41 133.32,-28.07 119.6,-19.65"/>
<polygon fill="midnightblue" stroke="midnightblue" points="169.01,-54.08 179.36,-56.32 172.67,-48.11 169.01,-54.08"/>
</g>
<!-- Node7 -->
<g id="node7" class="node">
<title>Node7</title>
<g id="a_node7"><a xlink:href="../../de/da1/classnap_1_1_controller_button_release_event.html" target="_top" xlink:title=" ">
<polygon fill="white" stroke="black" points="199.5,-0.5 199.5,-19.5 363.5,-19.5 363.5,-0.5 199.5,-0.5"/>
<text text-anchor="middle" x="281.5" y="-7.5" font-family="Helvetica,sans-Serif" font-size="10.00">ControllerButtonReleaseEvent</text>
</a>
</g>
</g>
<!-- Node5&#45;&gt;Node7 -->
<g id="edge6" class="edge">
<title>Node5&#45;&gt;Node7</title>
<path fill="none" stroke="midnightblue" d="M216.48,-50.9C232.61,-41 253.68,-28.07 267.4,-19.65"/>
<polygon fill="midnightblue" stroke="midnightblue" points="214.33,-48.11 207.64,-56.32 217.99,-54.08 214.33,-48.11"/>
</g>
</g>
</svg>
