<?xml version="1.0" encoding="UTF-8" standalone="no"?>
<!DOCTYPE svg PUBLIC "-//W3C//DTD SVG 1.1//EN"
 "http://www.w3.org/Graphics/SVG/1.1/DTD/svg11.dtd">
<!-- Generated by graphviz version 2.48.0 (20210717.1556)
 -->
<!-- Title: ControllerEvent Pages: 1 -->
<svg width="387pt" height="252pt"
 viewBox="0.00 0.00 387.00 252.00" xmlns="http://www.w3.org/2000/svg" xmlns:xlink="http://www.w3.org/1999/xlink">
<g id="graph0" class="graph" transform="scale(1 1) rotate(0) translate(4 248)">
<title>ControllerEvent</title>
<polygon fill="white" stroke="transparent" points="-4,4 -4,-248 383,-248 383,4 -4,4"/>
<!-- Node0 -->
<g id="node1" class="node">
<title>Node0</title>
<polygon fill="#bfbfbf" stroke="black" points="133.5,-112.5 133.5,-131.5 215.5,-131.5 215.5,-112.5 133.5,-112.5"/>
<text text-anchor="middle" x="174.5" y="-119.5" font-family="Helvetica,sans-Serif" font-size="10.00">ControllerEvent</text>
</g>
<!-- Node3 -->
<g id="node4" class="node">
<title>Node3</title>
<g id="a_node4"><a xlink:href="../../da/dbd/classnap_1_1_controller_axis_event.html" target="_top" xlink:title="ControllerAxisEvent">
<polygon fill="white" stroke="black" points="0,-56.5 0,-75.5 101,-75.5 101,-56.5 0,-56.5"/>
<text text-anchor="middle" x="50.5" y="-63.5" font-family="Helvetica,sans-Serif" font-size="10.00">ControllerAxisEvent</text>
</a>
</g>
</g>
<!-- Node0&#45;&gt;Node3 -->
<g id="edge3" class="edge">
<title>Node0&#45;&gt;Node3</title>
<path fill="none" stroke="midnightblue" d="M145.49,-108.37C122.27,-98.26 90.34,-84.35 70.06,-75.52"/>
<polygon fill="midnightblue" stroke="midnightblue" points="144.29,-111.66 154.85,-112.44 147.08,-105.24 144.29,-111.66"/>
</g>
<!-- Node4 -->
<g id="node5" class="node">
<title>Node4</title>
<g id="a_node5"><a xlink:href="../../d6/d31/classnap_1_1_controller_button_event.html" target="_top" xlink:title="ControllerButtonEvent">
<polygon fill="white" stroke="black" points="119.5,-56.5 119.5,-75.5 229.5,-75.5 229.5,-56.5 119.5,-56.5"/>
<text text-anchor="middle" x="174.5" y="-63.5" font-family="Helvetica,sans-Serif" font-size="10.00">ControllerButtonEvent</text>
</a>
</g>
</g>
<!-- Node0&#45;&gt;Node4 -->
<g id="edge4" class="edge">
<title>Node0&#45;&gt;Node4</title>
<path fill="none" stroke="midnightblue" d="M174.5,-101.8C174.5,-92.91 174.5,-82.78 174.5,-75.75"/>
<polygon fill="midnightblue" stroke="midnightblue" points="171,-102.08 174.5,-112.08 178,-102.08 171,-102.08"/>
</g>
<!-- Node7 -->
<g id="node8" class="node">
<title>Node7</title>
<g id="a_node8"><a xlink:href="../../d4/d9f/classnap_1_1_controller_connection_event.html" target="_top" xlink:title="ControllerConnectionEvent">
<polygon fill="white" stroke="black" points="248,-56.5 248,-75.5 379,-75.5 379,-56.5 248,-56.5"/>
<text text-anchor="middle" x="313.5" y="-63.5" font-family="Helvetica,sans-Serif" font-size="10.00">ControllerConnectionEvent</text>
</a>
</g>
</g>
<!-- Node0&#45;&gt;Node7 -->
<g id="edge7" class="edge">
<title>Node0&#45;&gt;Node7</title>
<path fill="none" stroke="midnightblue" d="M205.98,-108.77C232.09,-98.63 268.54,-84.47 291.58,-75.52"/>
<polygon fill="midnightblue" stroke="midnightblue" points="204.58,-105.56 196.52,-112.44 207.11,-112.08 204.58,-105.56"/>
</g>
<!-- Node1 -->
<g id="node2" class="node">
<title>Node1</title>
<g id="a_node2"><a xlink:href="../../dc/dc0/classnap_1_1_input_event.html" target="_top" xlink:title="InputEvent">
<polygon fill="white" stroke="black" points="143.5,-168.5 143.5,-187.5 205.5,-187.5 205.5,-168.5 143.5,-168.5"/>
<text text-anchor="middle" x="174.5" y="-175.5" font-family="Helvetica,sans-Serif" font-size="10.00">InputEvent</text>
</a>
</g>
</g>
<!-- Node1&#45;&gt;Node0 -->
<g id="edge1" class="edge">
<title>Node1&#45;&gt;Node0</title>
<path fill="none" stroke="midnightblue" d="M174.5,-157.8C174.5,-148.91 174.5,-138.78 174.5,-131.75"/>
<polygon fill="midnightblue" stroke="midnightblue" points="171,-158.08 174.5,-168.08 178,-158.08 171,-158.08"/>
</g>
<!-- Node2 -->
<g id="node3" class="node">
<title>Node2</title>
<g id="a_node3"><a xlink:href="../../d2/da2/classnap_1_1_event.html" target="_top" xlink:title="Event">
<polygon fill="white" stroke="black" points="154,-224.5 154,-243.5 195,-243.5 195,-224.5 154,-224.5"/>
<text text-anchor="middle" x="174.5" y="-231.5" font-family="Helvetica,sans-Serif" font-size="10.00">Event</text>
</a>
</g>
</g>
<!-- Node2&#45;&gt;Node1 -->
<g id="edge2" class="edge">
<title>Node2&#45;&gt;Node1</title>
<path fill="none" stroke="midnightblue" d="M174.5,-213.8C174.5,-204.91 174.5,-194.78 174.5,-187.75"/>
<polygon fill="midnightblue" stroke="midnightblue" points="171,-214.08 174.5,-224.08 178,-214.08 171,-214.08"/>
</g>
<!-- Node5 -->
<g id="node6" class="node">
<title>Node5</title>
<g id="a_node6"><a xlink:href="../../d9/d4a/classnap_1_1_controller_button_press_event.html" target="_top" xlink:title="ControllerButtonPressEvent">
<polygon fill="white" stroke="black" points="27.5,-0.5 27.5,-19.5 163.5,-19.5 163.5,-0.5 27.5,-0.5"/>
<text text-anchor="middle" x="95.5" y="-7.5" font-family="Helvetica,sans-Serif" font-size="10.00">ControllerButtonPressEvent</text>
</a>
</g>
</g>
<!-- Node4&#45;&gt;Node5 -->
<g id="edge5" class="edge">
<title>Node4&#45;&gt;Node5</title>
<path fill="none" stroke="midnightblue" d="M153.47,-50.62C139.03,-40.76 120.36,-27.99 108.16,-19.65"/>
<polygon fill="midnightblue" stroke="midnightblue" points="151.58,-53.57 161.81,-56.32 155.53,-47.79 151.58,-53.57"/>
</g>
<!-- Node6 -->
<g id="node7" class="node">
<title>Node6</title>
<g id="a_node7"><a xlink:href="../../de/da1/classnap_1_1_controller_button_release_event.html" target="_top" xlink:title="ControllerButtonReleaseEvent">
<polygon fill="white" stroke="black" points="181.5,-0.5 181.5,-19.5 327.5,-19.5 327.5,-0.5 181.5,-0.5"/>
<text text-anchor="middle" x="254.5" y="-7.5" font-family="Helvetica,sans-Serif" font-size="10.00">ControllerButtonReleaseEvent</text>
</a>
</g>
</g>
<!-- Node4&#45;&gt;Node6 -->
<g id="edge6" class="edge">
<title>Node4&#45;&gt;Node6</title>
<path fill="none" stroke="midnightblue" d="M195.8,-50.62C210.42,-40.76 229.33,-27.99 241.68,-19.65"/>
<polygon fill="midnightblue" stroke="midnightblue" points="193.68,-47.83 187.35,-56.32 197.6,-53.63 193.68,-47.83"/>
</g>
</g>
</svg>
