<?xml version="1.0" encoding="UTF-8" standalone="no"?>
<!DOCTYPE svg PUBLIC "-//W3C//DTD SVG 1.1//EN"
 "http://www.w3.org/Graphics/SVG/1.1/DTD/svg11.dtd">
<!-- Generated by graphviz version 3.0.0 (20220226.1711)
 -->
<!-- Title: InputEvent Pages: 1 -->
<svg width="771pt" height="256pt"
 viewBox="0.00 0.00 771.00 256.00" xmlns="http://www.w3.org/2000/svg" xmlns:xlink="http://www.w3.org/1999/xlink">
<g id="graph0" class="graph" transform="scale(1 1) rotate(0) translate(4 252)">
<title>InputEvent</title>
<polygon fill="white" stroke="transparent" points="-4,4 -4,-252 767,-252 767,4 -4,4"/>
<!-- Node0 -->
<g id="node1" class="node">
<title>Node0</title>
<polygon fill="#bfbfbf" stroke="black" points="77,-114.5 77,-133.5 139,-133.5 139,-114.5 77,-114.5"/>
<text text-anchor="middle" x="108" y="-121.5" font-family="Helvetica,sans-Serif" font-size="10.00">InputEvent</text>
</g>
<!-- Node2 -->
<g id="node3" class="node">
<title>Node2</title>
<g id="a_node3"><a xlink:href="../../d6/ded/classnap_1_1_controller_event.html" target="_top" xlink:title="ControllerEvent">
<polygon fill="white" stroke="black" points="182,-171.5 182,-190.5 264,-190.5 264,-171.5 182,-171.5"/>
<text text-anchor="middle" x="223" y="-178.5" font-family="Helvetica,sans-Serif" font-size="10.00">ControllerEvent</text>
</a>
</g>
</g>
<!-- Node0&#45;&gt;Node2 -->
<g id="edge2" class="edge">
<title>Node0&#45;&gt;Node2</title>
<path fill="none" stroke="midnightblue" d="M137.11,-138.18C157.66,-148.55 185,-162.33 203.02,-171.43"/>
<polygon fill="midnightblue" stroke="midnightblue" points="138.42,-134.92 127.91,-133.54 135.27,-141.17 138.42,-134.92"/>
</g>
<!-- Node8 -->
<g id="node9" class="node">
<title>Node8</title>
<g id="a_node9"><a xlink:href="../../d6/d58/classnap_1_1_window_input_event.html" target="_top" xlink:title="WindowInputEvent">
<polygon fill="white" stroke="black" points="175,-76.5 175,-95.5 271,-95.5 271,-76.5 175,-76.5"/>
<text text-anchor="middle" x="223" y="-83.5" font-family="Helvetica,sans-Serif" font-size="10.00">WindowInputEvent</text>
</a>
</g>
</g>
<!-- Node0&#45;&gt;Node8 -->
<g id="edge8" class="edge">
<title>Node0&#45;&gt;Node8</title>
<path fill="none" stroke="midnightblue" d="M147.14,-111.17C162.3,-106.08 179.44,-100.31 193.49,-95.59"/>
<polygon fill="midnightblue" stroke="midnightblue" points="145.88,-107.91 137.51,-114.41 148.11,-114.54 145.88,-107.91"/>
</g>
<!-- Node1 -->
<g id="node2" class="node">
<title>Node1</title>
<g id="a_node2"><a xlink:href="../../d2/da2/classnap_1_1_event.html" target="_top" xlink:title="Event">
<polygon fill="white" stroke="black" points="0,-114.5 0,-133.5 41,-133.5 41,-114.5 0,-114.5"/>
<text text-anchor="middle" x="20.5" y="-121.5" font-family="Helvetica,sans-Serif" font-size="10.00">Event</text>
</a>
</g>
</g>
<!-- Node1&#45;&gt;Node0 -->
<g id="edge1" class="edge">
<title>Node1&#45;&gt;Node0</title>
<path fill="none" stroke="midnightblue" d="M51.6,-124C59.8,-124 68.69,-124 76.89,-124"/>
<polygon fill="midnightblue" stroke="midnightblue" points="51.33,-120.5 41.33,-124 51.33,-127.5 51.33,-120.5"/>
</g>
<!-- Node3 -->
<g id="node4" class="node">
<title>Node3</title>
<g id="a_node4"><a xlink:href="../../da/dbd/classnap_1_1_controller_axis_event.html" target="_top" xlink:title="ControllerAxisEvent">
<polygon fill="white" stroke="black" points="322,-228.5 322,-247.5 423,-247.5 423,-228.5 322,-228.5"/>
<text text-anchor="middle" x="372.5" y="-235.5" font-family="Helvetica,sans-Serif" font-size="10.00">ControllerAxisEvent</text>
</a>
</g>
</g>
<!-- Node2&#45;&gt;Node3 -->
<g id="edge3" class="edge">
<title>Node2&#45;&gt;Node3</title>
<path fill="none" stroke="midnightblue" d="M252.05,-195.06C267.94,-202.71 288.32,-212.01 307,-219 316.18,-222.44 326.29,-225.66 335.71,-228.45"/>
<polygon fill="midnightblue" stroke="midnightblue" points="253.32,-191.78 242.79,-190.54 250.25,-198.07 253.32,-191.78"/>
</g>
<!-- Node4 -->
<g id="node5" class="node">
<title>Node4</title>
<g id="a_node5"><a xlink:href="../../d6/d31/classnap_1_1_controller_button_event.html" target="_top" xlink:title="ControllerButtonEvent">
<polygon fill="white" stroke="black" points="317.5,-190.5 317.5,-209.5 427.5,-209.5 427.5,-190.5 317.5,-190.5"/>
<text text-anchor="middle" x="372.5" y="-197.5" font-family="Helvetica,sans-Serif" font-size="10.00">ControllerButtonEvent</text>
</a>
</g>
</g>
<!-- Node2&#45;&gt;Node4 -->
<g id="edge4" class="edge">
<title>Node2&#45;&gt;Node4</title>
<path fill="none" stroke="midnightblue" d="M274.59,-187.52C288.4,-189.3 303.42,-191.23 317.41,-193.03"/>
<polygon fill="midnightblue" stroke="midnightblue" points="274.67,-184 264.31,-186.19 273.78,-190.94 274.67,-184"/>
</g>
<!-- Node7 -->
<g id="node8" class="node">
<title>Node7</title>
<g id="a_node8"><a xlink:href="../../d4/d9f/classnap_1_1_controller_connection_event.html" target="_top" xlink:title="ControllerConnectionEvent">
<polygon fill="white" stroke="black" points="307,-152.5 307,-171.5 438,-171.5 438,-152.5 307,-152.5"/>
<text text-anchor="middle" x="372.5" y="-159.5" font-family="Helvetica,sans-Serif" font-size="10.00">ControllerConnectionEvent</text>
</a>
</g>
</g>
<!-- Node2&#45;&gt;Node7 -->
<g id="edge7" class="edge">
<title>Node2&#45;&gt;Node7</title>
<path fill="none" stroke="midnightblue" d="M274.46,-174.5C284.88,-173.16 295.99,-171.73 306.83,-170.33"/>
<polygon fill="midnightblue" stroke="midnightblue" points="273.78,-171.06 264.31,-175.81 274.67,-178 273.78,-171.06"/>
</g>
<!-- Node5 -->
<g id="node6" class="node">
<title>Node5</title>
<g id="a_node6"><a xlink:href="../../d9/d4a/classnap_1_1_controller_button_press_event.html" target="_top" xlink:title="ControllerButtonPressEvent">
<polygon fill="white" stroke="black" points="479,-209.5 479,-228.5 615,-228.5 615,-209.5 479,-209.5"/>
<text text-anchor="middle" x="547" y="-216.5" font-family="Helvetica,sans-Serif" font-size="10.00">ControllerButtonPressEvent</text>
</a>
</g>
</g>
<!-- Node4&#45;&gt;Node5 -->
<g id="edge5" class="edge">
<title>Node4&#45;&gt;Node5</title>
<path fill="none" stroke="midnightblue" d="M437.68,-207.07C451.07,-208.54 465.22,-210.1 478.72,-211.59"/>
<polygon fill="midnightblue" stroke="midnightblue" points="437.93,-203.58 427.61,-205.96 437.16,-210.53 437.93,-203.58"/>
</g>
<!-- Node6 -->
<g id="node7" class="node">
<title>Node6</title>
<g id="a_node7"><a xlink:href="../../de/da1/classnap_1_1_controller_button_release_event.html" target="_top" xlink:title="ControllerButtonReleaseEvent">
<polygon fill="white" stroke="black" points="474,-171.5 474,-190.5 620,-190.5 620,-171.5 474,-171.5"/>
<text text-anchor="middle" x="547" y="-178.5" font-family="Helvetica,sans-Serif" font-size="10.00">ControllerButtonReleaseEvent</text>
</a>
</g>
</g>
<!-- Node4&#45;&gt;Node6 -->
<g id="edge6" class="edge">
<title>Node4&#45;&gt;Node6</title>
<path fill="none" stroke="midnightblue" d="M437.74,-192.92C449.48,-191.63 461.79,-190.28 473.74,-188.96"/>
<polygon fill="midnightblue" stroke="midnightblue" points="437.16,-189.47 427.61,-194.04 437.93,-196.42 437.16,-189.47"/>
</g>
<!-- Node9 -->
<g id="node10" class="node">
<title>Node9</title>
<g id="a_node10"><a xlink:href="../../d6/d0d/classnap_1_1_key_event.html" target="_top" xlink:title="KeyEvent">
<polygon fill="white" stroke="black" points="343.5,-114.5 343.5,-133.5 401.5,-133.5 401.5,-114.5 343.5,-114.5"/>
<text text-anchor="middle" x="372.5" y="-121.5" font-family="Helvetica,sans-Serif" font-size="10.00">KeyEvent</text>
</a>
</g>
</g>
<!-- Node8&#45;&gt;Node9 -->
<g id="edge9" class="edge">
<title>Node8&#45;&gt;Node9</title>
<path fill="none" stroke="midnightblue" d="M271.09,-98.13C294.79,-104.24 322.75,-111.44 343.14,-116.69"/>
<polygon fill="midnightblue" stroke="midnightblue" points="271.78,-94.69 261.22,-95.59 270.03,-101.47 271.78,-94.69"/>
</g>
<!-- Node12 -->
<g id="node13" class="node">
<title>Node12</title>
<g id="a_node13"><a xlink:href="../../d7/d77/classnap_1_1_mouse_wheel_event.html" target="_top" xlink:title="MouseWheelEvent">
<polygon fill="white" stroke="black" points="323.5,-76.5 323.5,-95.5 421.5,-95.5 421.5,-76.5 323.5,-76.5"/>
<text text-anchor="middle" x="372.5" y="-83.5" font-family="Helvetica,sans-Serif" font-size="10.00">MouseWheelEvent</text>
</a>
</g>
</g>
<!-- Node8&#45;&gt;Node12 -->
<g id="edge12" class="edge">
<title>Node8&#45;&gt;Node12</title>
<path fill="none" stroke="midnightblue" d="M281.47,-86C295.32,-86 309.98,-86 323.35,-86"/>
<polygon fill="midnightblue" stroke="midnightblue" points="281.08,-82.5 271.08,-86 281.08,-89.5 281.08,-82.5"/>
</g>
<!-- Node13 -->
<g id="node14" class="node">
<title>Node13</title>
<g id="a_node14"><a xlink:href="../../d3/d85/classnap_1_1_pointer_event.html" target="_top" xlink:title="PointerEvent">
<polygon fill="white" stroke="black" points="337,-38.5 337,-57.5 408,-57.5 408,-38.5 337,-38.5"/>
<text text-anchor="middle" x="372.5" y="-45.5" font-family="Helvetica,sans-Serif" font-size="10.00">PointerEvent</text>
</a>
</g>
</g>
<!-- Node8&#45;&gt;Node13 -->
<g id="edge13" class="edge">
<title>Node8&#45;&gt;Node13</title>
<path fill="none" stroke="midnightblue" d="M271.07,-73.87C292.42,-68.37 317.21,-61.99 336.82,-56.93"/>
<polygon fill="midnightblue" stroke="midnightblue" points="270.03,-70.53 261.22,-76.41 271.78,-77.31 270.03,-70.53"/>
</g>
<!-- Node18 -->
<g id="node19" class="node">
<title>Node18</title>
<g id="a_node19"><a xlink:href="../../d0/d66/classnap_1_1_text_input_event.html" target="_top" xlink:title="TextInputEvent">
<polygon fill="white" stroke="black" points="332.5,-0.5 332.5,-19.5 412.5,-19.5 412.5,-0.5 332.5,-0.5"/>
<text text-anchor="middle" x="372.5" y="-7.5" font-family="Helvetica,sans-Serif" font-size="10.00">TextInputEvent</text>
</a>
</g>
</g>
<!-- Node8&#45;&gt;Node18 -->
<g id="edge18" class="edge">
<title>Node8&#45;&gt;Node18</title>
<path fill="none" stroke="midnightblue" d="M243.49,-69.97C259.66,-57.35 283.69,-40.09 307,-29 314.91,-25.24 323.72,-22.05 332.22,-19.42"/>
<polygon fill="midnightblue" stroke="midnightblue" points="241.01,-67.47 235.37,-76.44 245.38,-72.95 241.01,-67.47"/>
</g>
<!-- Node10 -->
<g id="node11" class="node">
<title>Node10</title>
<g id="a_node11"><a xlink:href="../../d1/ddb/classnap_1_1_key_press_event.html" target="_top" xlink:title="KeyPressEvent">
<polygon fill="white" stroke="black" points="505.5,-114.5 505.5,-133.5 588.5,-133.5 588.5,-114.5 505.5,-114.5"/>
<text text-anchor="middle" x="547" y="-121.5" font-family="Helvetica,sans-Serif" font-size="10.00">KeyPressEvent</text>
</a>
</g>
</g>
<!-- Node9&#45;&gt;Node10 -->
<g id="edge10" class="edge">
<title>Node9&#45;&gt;Node10</title>
<path fill="none" stroke="midnightblue" d="M411.73,-124C439.5,-124 477.03,-124 505.35,-124"/>
<polygon fill="midnightblue" stroke="midnightblue" points="411.6,-120.5 401.6,-124 411.6,-127.5 411.6,-120.5"/>
</g>
<!-- Node11 -->
<g id="node12" class="node">
<title>Node11</title>
<g id="a_node12"><a xlink:href="../../d6/d2d/classnap_1_1_key_release_event.html" target="_top" xlink:title="KeyReleaseEvent">
<polygon fill="white" stroke="black" points="500.5,-76.5 500.5,-95.5 593.5,-95.5 593.5,-76.5 500.5,-76.5"/>
<text text-anchor="middle" x="547" y="-83.5" font-family="Helvetica,sans-Serif" font-size="10.00">KeyReleaseEvent</text>
</a>
</g>
</g>
<!-- Node9&#45;&gt;Node11 -->
<g id="edge11" class="edge">
<title>Node9&#45;&gt;Node11</title>
<path fill="none" stroke="midnightblue" d="M411.44,-115.64C438.39,-109.7 474.64,-101.72 502.72,-95.53"/>
<polygon fill="midnightblue" stroke="midnightblue" points="410.61,-112.24 401.6,-117.81 412.12,-119.08 410.61,-112.24"/>
</g>
<!-- Node14 -->
<g id="node15" class="node">
<title>Node14</title>
<g id="a_node15"><a xlink:href="../../dd/d3f/classnap_1_1_pointer_click_event.html" target="_top" xlink:title="PointerClickEvent">
<polygon fill="white" stroke="black" points="500.5,-38.5 500.5,-57.5 593.5,-57.5 593.5,-38.5 500.5,-38.5"/>
<text text-anchor="middle" x="547" y="-45.5" font-family="Helvetica,sans-Serif" font-size="10.00">PointerClickEvent</text>
</a>
</g>
</g>
<!-- Node13&#45;&gt;Node14 -->
<g id="edge14" class="edge">
<title>Node13&#45;&gt;Node14</title>
<path fill="none" stroke="midnightblue" d="M418.44,-48C443.65,-48 475.01,-48 500.34,-48"/>
<polygon fill="midnightblue" stroke="midnightblue" points="418.41,-44.5 408.41,-48 418.41,-51.5 418.41,-44.5"/>
</g>
<!-- Node17 -->
<g id="node18" class="node">
<title>Node17</title>
<g id="a_node18"><a xlink:href="../../d0/d87/classnap_1_1_pointer_move_event.html" target="_top" xlink:title="PointerMoveEvent">
<polygon fill="white" stroke="black" points="500,-0.5 500,-19.5 594,-19.5 594,-0.5 500,-0.5"/>
<text text-anchor="middle" x="547" y="-7.5" font-family="Helvetica,sans-Serif" font-size="10.00">PointerMoveEvent</text>
</a>
</g>
</g>
<!-- Node13&#45;&gt;Node17 -->
<g id="edge17" class="edge">
<title>Node13&#45;&gt;Node17</title>
<path fill="none" stroke="midnightblue" d="M418.37,-38.12C444.33,-32.4 476.85,-25.23 502.57,-19.57"/>
<polygon fill="midnightblue" stroke="midnightblue" points="417.42,-34.74 408.41,-40.31 418.93,-41.58 417.42,-34.74"/>
</g>
<!-- Node15 -->
<g id="node16" class="node">
<title>Node15</title>
<g id="a_node16"><a xlink:href="../../d5/dfd/classnap_1_1_pointer_press_event.html" target="_top" xlink:title="PointerPressEvent">
<polygon fill="white" stroke="black" points="661,-57.5 661,-76.5 758,-76.5 758,-57.5 661,-57.5"/>
<text text-anchor="middle" x="709.5" y="-64.5" font-family="Helvetica,sans-Serif" font-size="10.00">PointerPressEvent</text>
</a>
</g>
</g>
<!-- Node14&#45;&gt;Node15 -->
<g id="edge15" class="edge">
<title>Node14&#45;&gt;Node15</title>
<path fill="none" stroke="midnightblue" d="M603.68,-54.59C622.32,-56.8 642.9,-59.23 660.86,-61.36"/>
<polygon fill="midnightblue" stroke="midnightblue" points="603.91,-51.09 593.56,-53.39 603.08,-58.05 603.91,-51.09"/>
</g>
<!-- Node16 -->
<g id="node17" class="node">
<title>Node16</title>
<g id="a_node17"><a xlink:href="../../de/d98/classnap_1_1_pointer_release_event.html" target="_top" xlink:title="PointerReleaseEvent">
<polygon fill="white" stroke="black" points="656,-19.5 656,-38.5 763,-38.5 763,-19.5 656,-19.5"/>
<text text-anchor="middle" x="709.5" y="-26.5" font-family="Helvetica,sans-Serif" font-size="10.00">PointerReleaseEvent</text>
</a>
</g>
</g>
<!-- Node14&#45;&gt;Node16 -->
<g id="edge16" class="edge">
<title>Node14&#45;&gt;Node16</title>
<path fill="none" stroke="midnightblue" d="M603.82,-41.39C620.66,-39.4 639.09,-37.22 655.73,-35.25"/>
<polygon fill="midnightblue" stroke="midnightblue" points="603.08,-37.95 593.56,-42.61 603.91,-44.91 603.08,-37.95"/>
</g>
</g>
</svg>
