<?xml version="1.0" encoding="UTF-8" standalone="no"?>
<!DOCTYPE svg PUBLIC "-//W3C//DTD SVG 1.1//EN"
 "http://www.w3.org/Graphics/SVG/1.1/DTD/svg11.dtd">
<!-- Generated by graphviz version 2.48.0 (20210717.1556)
 -->
<!-- Title: SDLAppEventHandler Pages: 1 -->
<svg width="118pt" height="152pt"
 viewBox="0.00 0.00 118.00 152.00" xmlns="http://www.w3.org/2000/svg" xmlns:xlink="http://www.w3.org/1999/xlink">
<g id="graph0" class="graph" transform="scale(1 1) rotate(0) translate(4 148)">
<title>SDLAppEventHandler</title>
<polygon fill="white" stroke="transparent" points="-4,4 -4,-148 114,-148 114,4 -4,4"/>
<!-- Node2 -->
<g id="node1" class="node">
<title>Node2</title>
<polygon fill="#bfbfbf" stroke="black" points="0,-0.5 0,-19.5 110,-19.5 110,-0.5 0,-0.5"/>
<text text-anchor="middle" x="55" y="-7.5" font-family="Helvetica,sans-Serif" font-size="10.00">SDLAppEventHandler</text>
</g>
<!-- Node3 -->
<g id="node2" class="node">
<title>Node3</title>
<g id="a_node2"><a xlink:href="../../d3/de2/classnap_1_1_app_event_handler.html" target="_top" xlink:title="AppEventHandler">
<polygon fill="white" stroke="black" points="9.5,-57.5 9.5,-76.5 100.5,-76.5 100.5,-57.5 9.5,-57.5"/>
<text text-anchor="middle" x="55" y="-64.5" font-family="Helvetica,sans-Serif" font-size="10.00">AppEventHandler</text>
</a>
</g>
</g>
<!-- Node3&#45;&gt;Node2 -->
<g id="edge1" class="edge">
<title>Node3&#45;&gt;Node2</title>
<path fill="none" stroke="midnightblue" d="M55,-47.12C55,-37.82 55,-27.06 55,-19.71"/>
<polygon fill="midnightblue" stroke="midnightblue" points="51.5,-47.41 55,-57.41 58.5,-47.41 51.5,-47.41"/>
</g>
<!-- Node4 -->
<g id="node3" class="node">
<title>Node4</title>
<g id="a_node3"><a xlink:href="../../d4/dda/classnap_1_1_base_app.html" target="_top" xlink:title="BaseApp">
<polygon fill="white" stroke="black" points="27,-124.5 27,-143.5 83,-143.5 83,-124.5 27,-124.5"/>
<text text-anchor="middle" x="55" y="-131.5" font-family="Helvetica,sans-Serif" font-size="10.00">BaseApp</text>
</a>
</g>
</g>
<!-- Node4&#45;&gt;Node3 -->
<g id="edge2" class="edge">
<title>Node4&#45;&gt;Node3</title>
<path fill="none" stroke="#9a32cd" stroke-dasharray="5,2" d="M55,-114.04C55,-101.67 55,-86.12 55,-76.63"/>
<polygon fill="#9a32cd" stroke="#9a32cd" points="51.5,-114.23 55,-124.23 58.5,-114.23 51.5,-114.23"/>
<text text-anchor="middle" x="69.5" y="-98" font-family="Helvetica,sans-Serif" font-size="10.00"> mApp</text>
</g>
</g>
</svg>
