<?xml version="1.0" encoding="UTF-8" standalone="no"?>
<!DOCTYPE svg PUBLIC "-//W3C//DTD SVG 1.1//EN"
 "http://www.w3.org/Graphics/SVG/1.1/DTD/svg11.dtd">
<!-- Generated by graphviz version 3.0.0 (20220226.1711)
 -->
<!-- Title: Bitmap Pages: 1 -->
<svg width="309pt" height="152pt"
 viewBox="0.00 0.00 309.00 152.00" xmlns="http://www.w3.org/2000/svg" xmlns:xlink="http://www.w3.org/1999/xlink">
<g id="graph0" class="graph" transform="scale(1 1) rotate(0) translate(4 148)">
<title>Bitmap</title>
<polygon fill="white" stroke="transparent" points="-4,4 -4,-148 305,-148 305,4 -4,4"/>
<!-- Node4 -->
<g id="node1" class="node">
<title>Node4</title>
<polygon fill="#bfbfbf" stroke="black" points="99.5,-0.5 99.5,-19.5 146.5,-19.5 146.5,-0.5 99.5,-0.5"/>
<text text-anchor="middle" x="123" y="-7.5" font-family="Helvetica,sans-Serif" font-size="10.00">Bitmap</text>
</g>
<!-- Node5 -->
<g id="node2" class="node">
<title>Node5</title>
<g id="a_node2"><a xlink:href="../../d9/dea/classnap_1_1_resource.html" target="_top" xlink:title="Resource">
<polygon fill="white" stroke="black" points="0,-67.5 0,-86.5 58,-86.5 58,-67.5 0,-67.5"/>
<text text-anchor="middle" x="29" y="-74.5" font-family="Helvetica,sans-Serif" font-size="10.00">Resource</text>
</a>
</g>
</g>
<!-- Node5&#45;&gt;Node4 -->
<g id="edge1" class="edge">
<title>Node5&#45;&gt;Node4</title>
<path fill="none" stroke="midnightblue" d="M50.09,-61.42C68.67,-48.57 95.12,-30.28 110.52,-19.63"/>
<polygon fill="midnightblue" stroke="midnightblue" points="47.91,-58.67 41.68,-67.23 51.89,-64.43 47.91,-58.67"/>
</g>
<!-- Node6 -->
<g id="node3" class="node">
<title>Node6</title>
<g id="a_node3"><a xlink:href="../../de/d01/classnap_1_1rtti_1_1_object.html" target="_top" xlink:title="Object">
<polygon fill="white" stroke="black" points="6.5,-124.5 6.5,-143.5 51.5,-143.5 51.5,-124.5 6.5,-124.5"/>
<text text-anchor="middle" x="29" y="-131.5" font-family="Helvetica,sans-Serif" font-size="10.00">Object</text>
</a>
</g>
</g>
<!-- Node6&#45;&gt;Node5 -->
<g id="edge2" class="edge">
<title>Node6&#45;&gt;Node5</title>
<path fill="none" stroke="midnightblue" d="M29,-114.12C29,-104.82 29,-94.06 29,-86.71"/>
<polygon fill="midnightblue" stroke="midnightblue" points="25.5,-114.41 29,-124.41 32.5,-114.41 25.5,-114.41"/>
</g>
<!-- Node7 -->
<g id="node4" class="node">
<title>Node7</title>
<g id="a_node4"><a xlink:href="../../d9/d76/structnap_1_1_surface_descriptor.html" target="_top" xlink:title="SurfaceDescriptor">
<polygon fill="white" stroke="black" points="76,-67.5 76,-86.5 170,-86.5 170,-67.5 76,-67.5"/>
<text text-anchor="middle" x="123" y="-74.5" font-family="Helvetica,sans-Serif" font-size="10.00">SurfaceDescriptor</text>
</a>
</g>
</g>
<!-- Node7&#45;&gt;Node4 -->
<g id="edge3" class="edge">
<title>Node7&#45;&gt;Node4</title>
<path fill="none" stroke="#9a32cd" stroke-dasharray="5,2" d="M123,-57.04C123,-44.67 123,-29.12 123,-19.63"/>
<polygon fill="#9a32cd" stroke="#9a32cd" points="119.5,-57.23 123,-67.23 126.5,-57.23 119.5,-57.23"/>
<text text-anchor="middle" x="167.5" y="-41" font-family="Helvetica,sans-Serif" font-size="10.00"> mSurfaceDescriptor</text>
</g>
<!-- Node8 -->
<g id="node5" class="node">
<title>Node8</title>
<g id="a_node5"><a xlink:href="../../de/d80/classnap_1_1_signal.html" target="_top" xlink:title="Signal\&lt; Args \&gt;">
<polygon fill="white" stroke="black" points="194,-67.5 194,-86.5 276,-86.5 276,-67.5 194,-67.5"/>
<text text-anchor="middle" x="235" y="-74.5" font-family="Helvetica,sans-Serif" font-size="10.00">Signal&lt; Args &gt;</text>
</a>
</g>
</g>
<!-- Node8&#45;&gt;Node4 -->
<g id="edge4" class="edge">
<title>Node8&#45;&gt;Node4</title>
<path fill="none" stroke="#9a32cd" stroke-dasharray="5,2" d="M228,-57.87C224.46,-50.78 219.51,-43.14 213,-38 193.8,-22.83 166.2,-16.17 146.64,-13.25"/>
<polygon fill="#9a32cd" stroke="#9a32cd" points="224.99,-59.72 232.2,-67.49 231.41,-56.92 224.99,-59.72"/>
<text text-anchor="middle" x="261.5" y="-41" font-family="Helvetica,sans-Serif" font-size="10.00"> mBitmapUpdated</text>
</g>
</g>
</svg>
