<?xml version="1.0" encoding="UTF-8" standalone="no"?>
<!DOCTYPE svg PUBLIC "-//W3C//DTD SVG 1.1//EN"
 "http://www.w3.org/Graphics/SVG/1.1/DTD/svg11.dtd">
<!-- Generated by graphviz version 2.43.0 (0)
 -->
<!-- Title: IMGuiServiceConfiguration Pages: 1 -->
<svg width="276pt" height="386pt"
 viewBox="0.00 0.00 276.00 386.00" xmlns="http://www.w3.org/2000/svg" xmlns:xlink="http://www.w3.org/1999/xlink">
<g id="graph0" class="graph" transform="scale(1 1) rotate(0) translate(4 382)">
<title>IMGuiServiceConfiguration</title>
<polygon fill="white" stroke="transparent" points="-4,4 -4,-382 272,-382 272,4 -4,4"/>
<!-- Node1 -->
<g id="node1" class="node">
<title>Node1</title>
<g id="a_node1"><a xlink:title=" ">
<polygon fill="#bfbfbf" stroke="black" points="43,-0.5 43,-19.5 189,-19.5 189,-0.5 43,-0.5"/>
<text text-anchor="middle" x="116" y="-7.5" font-family="Helvetica,sans-Serif" font-size="10.00">IMGuiServiceConfiguration</text>
</a>
</g>
</g>
<!-- Node2 -->
<g id="node2" class="node">
<title>Node2</title>
<g id="a_node2"><a xlink:href="../../dd/db7/classnap_1_1_service_configuration.html" target="_top" xlink:title=" ">
<polygon fill="white" stroke="black" points="0,-67.5 0,-86.5 118,-86.5 118,-67.5 0,-67.5"/>
<text text-anchor="middle" x="59" y="-74.5" font-family="Helvetica,sans-Serif" font-size="10.00">ServiceConfiguration</text>
</a>
</g>
</g>
<!-- Node2&#45;&gt;Node1 -->
<g id="edge1" class="edge">
<title>Node2&#45;&gt;Node1</title>
<path fill="none" stroke="midnightblue" d="M73.35,-59.63C84.5,-46.92 99.52,-29.8 108.43,-19.63"/>
<polygon fill="midnightblue" stroke="midnightblue" points="70.65,-57.41 66.69,-67.23 75.91,-62.02 70.65,-57.41"/>
</g>
<!-- Node3 -->
<g id="node3" class="node">
<title>Node3</title>
<g id="a_node3"><a xlink:href="../../de/d01/classnap_1_1rtti_1_1_object.html" target="_top" xlink:title=" ">
<polygon fill="white" stroke="black" points="35,-244.5 35,-263.5 83,-263.5 83,-244.5 35,-244.5"/>
<text text-anchor="middle" x="59" y="-251.5" font-family="Helvetica,sans-Serif" font-size="10.00">Object</text>
</a>
</g>
</g>
<!-- Node3&#45;&gt;Node2 -->
<g id="edge2" class="edge">
<title>Node3&#45;&gt;Node2</title>
<path fill="none" stroke="midnightblue" d="M59,-233.95C59,-196.3 59,-113.65 59,-86.69"/>
<polygon fill="midnightblue" stroke="midnightblue" points="55.5,-234.08 59,-244.08 62.5,-234.08 55.5,-234.08"/>
</g>
<!-- Node4 -->
<g id="node4" class="node">
<title>Node4</title>
<g id="a_node4"><a xlink:href="../../d2/d21/structnap_1_1gui_1_1_color_palette.html" target="_top" xlink:title=" ">
<polygon fill="white" stroke="black" points="136,-67.5 136,-86.5 212,-86.5 212,-67.5 136,-67.5"/>
<text text-anchor="middle" x="174" y="-74.5" font-family="Helvetica,sans-Serif" font-size="10.00">ColorPalette</text>
</a>
</g>
</g>
<!-- Node4&#45;&gt;Node1 -->
<g id="edge3" class="edge">
<title>Node4&#45;&gt;Node1</title>
<path fill="none" stroke="#9a32cd" stroke-dasharray="5,2" d="M159.4,-59.63C148.05,-46.92 132.77,-29.8 123.7,-19.63"/>
<polygon fill="#9a32cd" stroke="#9a32cd" points="156.91,-62.1 166.18,-67.23 162.13,-57.44 156.91,-62.1"/>
<text text-anchor="middle" x="189" y="-41" font-family="Helvetica,sans-Serif" font-size="10.00"> mCustomColors</text>
</g>
<!-- Node5 -->
<g id="node5" class="node">
<title>Node5</title>
<g id="a_node5"><a xlink:href="../../d4/dd7/classnap_1_1_r_g_b_color.html" target="_top" xlink:title=" ">
<polygon fill="white" stroke="black" points="119,-244.5 119,-263.5 229,-263.5 229,-244.5 119,-244.5"/>
<text text-anchor="middle" x="174" y="-251.5" font-family="Helvetica,sans-Serif" font-size="10.00">RGBColor&lt; uint8 &gt;</text>
</a>
</g>
</g>
<!-- Node5&#45;&gt;Node4 -->
<g id="edge4" class="edge">
<title>Node5&#45;&gt;Node4</title>
<path fill="none" stroke="#9a32cd" stroke-dasharray="5,2" d="M174,-233.95C174,-196.3 174,-113.65 174,-86.69"/>
<polygon fill="#9a32cd" stroke="#9a32cd" points="170.5,-234.08 174,-244.08 177.5,-234.08 170.5,-234.08"/>
<text text-anchor="middle" x="221" y="-218" font-family="Helvetica,sans-Serif" font-size="10.00"> mDarkColor</text>
<text text-anchor="middle" x="221" y="-207" font-family="Helvetica,sans-Serif" font-size="10.00">mHighlightColor1</text>
<text text-anchor="middle" x="221" y="-196" font-family="Helvetica,sans-Serif" font-size="10.00">mFront4Color</text>
<text text-anchor="middle" x="221" y="-185" font-family="Helvetica,sans-Serif" font-size="10.00">mHighlightColor2</text>
<text text-anchor="middle" x="221" y="-174" font-family="Helvetica,sans-Serif" font-size="10.00">mHighlightColor3</text>
<text text-anchor="middle" x="221" y="-163" font-family="Helvetica,sans-Serif" font-size="10.00">mFront2Color</text>
<text text-anchor="middle" x="221" y="-152" font-family="Helvetica,sans-Serif" font-size="10.00">mHighlightColor4</text>
<text text-anchor="middle" x="221" y="-141" font-family="Helvetica,sans-Serif" font-size="10.00">mFront3Color</text>
<text text-anchor="middle" x="221" y="-130" font-family="Helvetica,sans-Serif" font-size="10.00">mFront1Color</text>
<text text-anchor="middle" x="221" y="-119" font-family="Helvetica,sans-Serif" font-size="10.00">mBackgroundColor</text>
<text text-anchor="middle" x="221" y="-108" font-family="Helvetica,sans-Serif" font-size="10.00">...</text>
</g>
<!-- Node6 -->
<g id="node6" class="node">
<title>Node6</title>
<g id="a_node6"><a xlink:href="../../d6/d3d/classnap_1_1_color.html" target="_top" xlink:title=" ">
<polygon fill="white" stroke="black" points="123.5,-301.5 123.5,-320.5 224.5,-320.5 224.5,-301.5 123.5,-301.5"/>
<text text-anchor="middle" x="174" y="-308.5" font-family="Helvetica,sans-Serif" font-size="10.00">Color&lt; uint8, 3 &gt;</text>
</a>
</g>
</g>
<!-- Node6&#45;&gt;Node5 -->
<g id="edge5" class="edge">
<title>Node6&#45;&gt;Node5</title>
<path fill="none" stroke="midnightblue" d="M174,-291.12C174,-281.82 174,-271.06 174,-263.71"/>
<polygon fill="midnightblue" stroke="midnightblue" points="170.5,-291.41 174,-301.41 177.5,-291.41 170.5,-291.41"/>
</g>
<!-- Node7 -->
<g id="node7" class="node">
<title>Node7</title>
<g id="a_node7"><a xlink:href="../../d8/d6a/classnap_1_1_base_color.html" target="_top" xlink:title=" ">
<polygon fill="white" stroke="black" points="141,-358.5 141,-377.5 207,-377.5 207,-358.5 141,-358.5"/>
<text text-anchor="middle" x="174" y="-365.5" font-family="Helvetica,sans-Serif" font-size="10.00">BaseColor</text>
</a>
</g>
</g>
<!-- Node7&#45;&gt;Node6 -->
<g id="edge6" class="edge">
<title>Node7&#45;&gt;Node6</title>
<path fill="none" stroke="midnightblue" d="M174,-348.12C174,-338.82 174,-328.06 174,-320.71"/>
<polygon fill="midnightblue" stroke="midnightblue" points="170.5,-348.41 174,-358.41 177.5,-348.41 170.5,-348.41"/>
</g>
</g>
</svg>
