<?xml version="1.0" encoding="UTF-8" standalone="no"?>
<!DOCTYPE svg PUBLIC "-//W3C//DTD SVG 1.1//EN"
 "http://www.w3.org/Graphics/SVG/1.1/DTD/svg11.dtd">
<!-- Generated by graphviz version 3.0.0 (20220226.1711)
 -->
<!-- Title: IMGuiServiceConfiguration Pages: 1 -->
<svg width="248pt" height="386pt"
 viewBox="0.00 0.00 248.00 386.00" xmlns="http://www.w3.org/2000/svg" xmlns:xlink="http://www.w3.org/1999/xlink">
<g id="graph0" class="graph" transform="scale(1 1) rotate(0) translate(4 382)">
<title>IMGuiServiceConfiguration</title>
<polygon fill="white" stroke="transparent" points="-4,4 -4,-382 244,-382 244,4 -4,4"/>
<!-- Node3 -->
<g id="node1" class="node">
<title>Node3</title>
<polygon fill="#bfbfbf" stroke="black" points="39,-0.5 39,-19.5 169,-19.5 169,-0.5 39,-0.5"/>
<text text-anchor="middle" x="104" y="-7.5" font-family="Helvetica,sans-Serif" font-size="10.00">IMGuiServiceConfiguration</text>
</g>
<!-- Node4 -->
<g id="node2" class="node">
<title>Node4</title>
<g id="a_node2"><a xlink:href="../../dd/db7/classnap_1_1_service_configuration.html" target="_top" xlink:title="ServiceConfiguration">
<polygon fill="white" stroke="black" points="0,-67.5 0,-86.5 104,-86.5 104,-67.5 0,-67.5"/>
<text text-anchor="middle" x="52" y="-74.5" font-family="Helvetica,sans-Serif" font-size="10.00">ServiceConfiguration</text>
</a>
</g>
</g>
<!-- Node4&#45;&gt;Node3 -->
<g id="edge1" class="edge">
<title>Node4&#45;&gt;Node3</title>
<path fill="none" stroke="midnightblue" d="M65.38,-59.27C75.52,-46.6 89.04,-29.7 97.1,-19.63"/>
<polygon fill="midnightblue" stroke="midnightblue" points="62.53,-57.24 59.01,-67.23 67.99,-61.61 62.53,-57.24"/>
</g>
<!-- Node5 -->
<g id="node3" class="node">
<title>Node5</title>
<g id="a_node3"><a xlink:href="../../de/d01/classnap_1_1rtti_1_1_object.html" target="_top" xlink:title="Object">
<polygon fill="white" stroke="black" points="29.5,-244.5 29.5,-263.5 74.5,-263.5 74.5,-244.5 29.5,-244.5"/>
<text text-anchor="middle" x="52" y="-251.5" font-family="Helvetica,sans-Serif" font-size="10.00">Object</text>
</a>
</g>
</g>
<!-- Node5&#45;&gt;Node4 -->
<g id="edge2" class="edge">
<title>Node5&#45;&gt;Node4</title>
<path fill="none" stroke="midnightblue" d="M52,-233.95C52,-196.3 52,-113.65 52,-86.69"/>
<polygon fill="midnightblue" stroke="midnightblue" points="48.5,-234.08 52,-244.08 55.5,-234.08 48.5,-234.08"/>
</g>
<!-- Node6 -->
<g id="node4" class="node">
<title>Node6</title>
<g id="a_node4"><a xlink:href="../../d2/d21/structnap_1_1gui_1_1_color_palette.html" target="_top" xlink:title="ColorPalette">
<polygon fill="white" stroke="black" points="122,-67.5 122,-86.5 192,-86.5 192,-67.5 122,-67.5"/>
<text text-anchor="middle" x="157" y="-74.5" font-family="Helvetica,sans-Serif" font-size="10.00">ColorPalette</text>
</a>
</g>
</g>
<!-- Node6&#45;&gt;Node3 -->
<g id="edge3" class="edge">
<title>Node6&#45;&gt;Node3</title>
<path fill="none" stroke="#9a32cd" stroke-dasharray="5,2" d="M143.36,-59.27C133.03,-46.6 119.25,-29.7 111.03,-19.63"/>
<polygon fill="#9a32cd" stroke="#9a32cd" points="140.82,-61.7 149.85,-67.23 146.25,-57.27 140.82,-61.7"/>
<text text-anchor="middle" x="169.5" y="-41" font-family="Helvetica,sans-Serif" font-size="10.00"> mCustomColors</text>
</g>
<!-- Node7 -->
<g id="node5" class="node">
<title>Node7</title>
<g id="a_node5"><a xlink:href="../../d4/dd7/classnap_1_1_r_g_b_color.html" target="_top" xlink:title="RGBColor\&lt; uint8 \&gt;">
<polygon fill="white" stroke="black" points="107.5,-244.5 107.5,-263.5 206.5,-263.5 206.5,-244.5 107.5,-244.5"/>
<text text-anchor="middle" x="157" y="-251.5" font-family="Helvetica,sans-Serif" font-size="10.00">RGBColor&lt; uint8 &gt;</text>
</a>
</g>
</g>
<!-- Node7&#45;&gt;Node6 -->
<g id="edge4" class="edge">
<title>Node7&#45;&gt;Node6</title>
<path fill="none" stroke="#9a32cd" stroke-dasharray="5,2" d="M157,-233.95C157,-196.3 157,-113.65 157,-86.69"/>
<polygon fill="#9a32cd" stroke="#9a32cd" points="153.5,-234.08 157,-244.08 160.5,-234.08 153.5,-234.08"/>
<text text-anchor="middle" x="198.5" y="-218" font-family="Helvetica,sans-Serif" font-size="10.00"> mDarkColor</text>
<text text-anchor="middle" x="198.5" y="-207" font-family="Helvetica,sans-Serif" font-size="10.00">mHighlightColor1</text>
<text text-anchor="middle" x="198.5" y="-196" font-family="Helvetica,sans-Serif" font-size="10.00">mFront4Color</text>
<text text-anchor="middle" x="198.5" y="-185" font-family="Helvetica,sans-Serif" font-size="10.00">mHighlightColor2</text>
<text text-anchor="middle" x="198.5" y="-174" font-family="Helvetica,sans-Serif" font-size="10.00">mHighlightColor3</text>
<text text-anchor="middle" x="198.5" y="-163" font-family="Helvetica,sans-Serif" font-size="10.00">mFront2Color</text>
<text text-anchor="middle" x="198.5" y="-152" font-family="Helvetica,sans-Serif" font-size="10.00">mHighlightColor4</text>
<text text-anchor="middle" x="198.5" y="-141" font-family="Helvetica,sans-Serif" font-size="10.00">mFront3Color</text>
<text text-anchor="middle" x="198.5" y="-130" font-family="Helvetica,sans-Serif" font-size="10.00">mFront1Color</text>
<text text-anchor="middle" x="198.5" y="-119" font-family="Helvetica,sans-Serif" font-size="10.00">mBackgroundColor</text>
<text text-anchor="middle" x="198.5" y="-108" font-family="Helvetica,sans-Serif" font-size="10.00">...</text>
</g>
<!-- Node8 -->
<g id="node6" class="node">
<title>Node8</title>
<g id="a_node6"><a xlink:href="../../d6/d3d/classnap_1_1_color.html" target="_top" xlink:title="Color\&lt; uint8, 3 \&gt;">
<polygon fill="white" stroke="black" points="112.5,-301.5 112.5,-320.5 201.5,-320.5 201.5,-301.5 112.5,-301.5"/>
<text text-anchor="middle" x="157" y="-308.5" font-family="Helvetica,sans-Serif" font-size="10.00">Color&lt; uint8, 3 &gt;</text>
</a>
</g>
</g>
<!-- Node8&#45;&gt;Node7 -->
<g id="edge5" class="edge">
<title>Node8&#45;&gt;Node7</title>
<path fill="none" stroke="midnightblue" d="M157,-291.12C157,-281.82 157,-271.06 157,-263.71"/>
<polygon fill="midnightblue" stroke="midnightblue" points="153.5,-291.41 157,-301.41 160.5,-291.41 153.5,-291.41"/>
</g>
<!-- Node9 -->
<g id="node7" class="node">
<title>Node9</title>
<g id="a_node7"><a xlink:href="../../d8/d6a/classnap_1_1_base_color.html" target="_top" xlink:title="BaseColor">
<polygon fill="white" stroke="black" points="126,-358.5 126,-377.5 188,-377.5 188,-358.5 126,-358.5"/>
<text text-anchor="middle" x="157" y="-365.5" font-family="Helvetica,sans-Serif" font-size="10.00">BaseColor</text>
</a>
</g>
</g>
<!-- Node9&#45;&gt;Node8 -->
<g id="edge6" class="edge">
<title>Node9&#45;&gt;Node8</title>
<path fill="none" stroke="midnightblue" d="M157,-348.12C157,-338.82 157,-328.06 157,-320.71"/>
<polygon fill="midnightblue" stroke="midnightblue" points="153.5,-348.41 157,-358.41 160.5,-348.41 153.5,-348.41"/>
</g>
</g>
</svg>
