<?xml version="1.0" encoding="UTF-8" standalone="no"?>
<!DOCTYPE svg PUBLIC "-//W3C//DTD SVG 1.1//EN"
 "http://www.w3.org/Graphics/SVG/1.1/DTD/svg11.dtd">
<!-- Generated by graphviz version 3.0.0 (20220226.1711)
 -->
<!-- Title: Graphical Class Hierarchy Pages: 1 -->
<svg width="158pt" height="66pt"
 viewBox="0.00 0.00 158.00 66.00" xmlns="http://www.w3.org/2000/svg" xmlns:xlink="http://www.w3.org/1999/xlink">
<g id="graph0" class="graph" transform="scale(1 1) rotate(0) translate(4 62)">
<title>Graphical Class Hierarchy</title>
<polygon fill="white" stroke="transparent" points="-4,4 -4,-62 154,-62 154,4 -4,4"/>
<!-- Node0 -->
<g id="node1" class="node">
<title>Node0</title>
<g id="a_node1"><a xlink:href="d8/d4b/classnap_1_1rtti_1_1_writer.html" target="_top" xlink:title="Writer">
<polygon fill="white" stroke="black" points="0,-19.5 0,-38.5 43,-38.5 43,-19.5 0,-19.5"/>
<text text-anchor="middle" x="21.5" y="-26.5" font-family="Helvetica,sans-Serif" font-size="10.00">Writer</text>
</a>
</g>
</g>
<!-- Node1 -->
<g id="node2" class="node">
<title>Node1</title>
<g id="a_node2"><a xlink:href="dc/dae/classnap_1_1rtti_1_1_binary_writer.html" target="_top" xlink:title="BinaryWriter">
<polygon fill="white" stroke="black" points="79,-38.5 79,-57.5 150,-57.5 150,-38.5 79,-38.5"/>
<text text-anchor="middle" x="114.5" y="-45.5" font-family="Helvetica,sans-Serif" font-size="10.00">BinaryWriter</text>
</a>
</g>
</g>
<!-- Node0&#45;&gt;Node1 -->
<g id="edge1" class="edge">
<title>Node0&#45;&gt;Node1</title>
<path fill="none" stroke="midnightblue" d="M53.07,-35.38C61.28,-37.1 70.22,-38.96 78.65,-40.72"/>
<polygon fill="midnightblue" stroke="midnightblue" points="53.65,-31.93 43.15,-33.31 52.22,-38.78 53.65,-31.93"/>
</g>
<!-- Node2 -->
<g id="node3" class="node">
<title>Node2</title>
<g id="a_node3"><a xlink:href="d0/d76/classnap_1_1rtti_1_1_j_s_o_n_writer.html" target="_top" xlink:title="JSONWriter">
<polygon fill="white" stroke="black" points="80.5,-0.5 80.5,-19.5 148.5,-19.5 148.5,-0.5 80.5,-0.5"/>
<text text-anchor="middle" x="114.5" y="-7.5" font-family="Helvetica,sans-Serif" font-size="10.00">JSONWriter</text>
</a>
</g>
</g>
<!-- Node0&#45;&gt;Node2 -->
<g id="edge2" class="edge">
<title>Node0&#45;&gt;Node2</title>
<path fill="none" stroke="midnightblue" d="M53.01,-22.63C61.83,-20.79 71.48,-18.77 80.44,-16.9"/>
<polygon fill="midnightblue" stroke="midnightblue" points="52.22,-19.22 43.15,-24.69 53.65,-26.07 52.22,-19.22"/>
</g>
</g>
</svg>
