<?xml version="1.0" encoding="UTF-8" standalone="no"?>
<!DOCTYPE svg PUBLIC "-//W3C//DTD SVG 1.1//EN"
 "http://www.w3.org/Graphics/SVG/1.1/DTD/svg11.dtd">
<!-- Generated by graphviz version 3.0.0 (20220226.1711)
 -->
<!-- Title: Graphical Class Hierarchy Pages: 1 -->
<svg width="245pt" height="66pt"
 viewBox="0.00 0.00 245.00 66.00" xmlns="http://www.w3.org/2000/svg" xmlns:xlink="http://www.w3.org/1999/xlink">
<g id="graph0" class="graph" transform="scale(1 1) rotate(0) translate(4 62)">
<title>Graphical Class Hierarchy</title>
<polygon fill="white" stroke="transparent" points="-4,4 -4,-62 241,-62 241,4 -4,4"/>
<!-- Node0 -->
<g id="node1" class="node">
<title>Node0</title>
<g id="a_node1"><a xlink:href="d3/de2/classnap_1_1_app_event_handler.html" target="_top" xlink:title="AppEventHandler">
<polygon fill="white" stroke="black" points="0,-19.5 0,-38.5 91,-38.5 91,-19.5 0,-19.5"/>
<text text-anchor="middle" x="45.5" y="-26.5" font-family="Helvetica,sans-Serif" font-size="10.00">AppEventHandler</text>
</a>
</g>
</g>
<!-- Node1 -->
<g id="node2" class="node">
<title>Node1</title>
<g id="a_node2"><a xlink:href="dc/d0e/classnap_1_1_g_u_i_app_event_handler.html" target="_top" xlink:title="GUIAppEventHandler">
<polygon fill="white" stroke="black" points="128.5,-38.5 128.5,-57.5 235.5,-57.5 235.5,-38.5 128.5,-38.5"/>
<text text-anchor="middle" x="182" y="-45.5" font-family="Helvetica,sans-Serif" font-size="10.00">GUIAppEventHandler</text>
</a>
</g>
</g>
<!-- Node0&#45;&gt;Node1 -->
<g id="edge1" class="edge">
<title>Node0&#45;&gt;Node1</title>
<path fill="none" stroke="midnightblue" d="M101.27,-36.74C110.26,-38.01 119.55,-39.32 128.49,-40.58"/>
<polygon fill="midnightblue" stroke="midnightblue" points="101.68,-33.26 91.29,-35.33 100.7,-40.19 101.68,-33.26"/>
</g>
<!-- Node2 -->
<g id="node3" class="node">
<title>Node2</title>
<g id="a_node3"><a xlink:href="d2/d7e/classnap_1_1_s_d_l_app_event_handler.html" target="_top" xlink:title="SDLAppEventHandler">
<polygon fill="white" stroke="black" points="127,-0.5 127,-19.5 237,-19.5 237,-0.5 127,-0.5"/>
<text text-anchor="middle" x="182" y="-7.5" font-family="Helvetica,sans-Serif" font-size="10.00">SDLAppEventHandler</text>
</a>
</g>
</g>
<!-- Node0&#45;&gt;Node2 -->
<g id="edge2" class="edge">
<title>Node0&#45;&gt;Node2</title>
<path fill="none" stroke="midnightblue" d="M101.3,-21.26C109.64,-20.08 118.25,-18.86 126.59,-17.69"/>
<polygon fill="midnightblue" stroke="midnightblue" points="100.7,-17.81 91.29,-22.67 101.68,-24.74 100.7,-17.81"/>
</g>
</g>
</svg>
