<?xml version="1.0" encoding="UTF-8" standalone="no"?>
<!DOCTYPE svg PUBLIC "-//W3C//DTD SVG 1.1//EN"
 "http://www.w3.org/Graphics/SVG/1.1/DTD/svg11.dtd">
<!-- Generated by graphviz version 3.0.0 (20220226.1711)
 -->
<!-- Title: Graphical Class Hierarchy Pages: 1 -->
<svg width="403pt" height="28pt"
 viewBox="0.00 0.00 403.00 28.00" xmlns="http://www.w3.org/2000/svg" xmlns:xlink="http://www.w3.org/1999/xlink">
<g id="graph0" class="graph" transform="scale(1 1) rotate(0) translate(4 24)">
<title>Graphical Class Hierarchy</title>
<polygon fill="white" stroke="transparent" points="-4,4 -4,-24 399,-24 399,4 -4,4"/>
<!-- Node0 -->
<g id="node1" class="node">
<title>Node0</title>
<g id="a_node1"><a xlink:href="df/d86/classnap_1_1audio_1_1_translator.html" target="_top" xlink:title="Translator\&lt; T \&gt;">
<polygon fill="white" stroke="black" points="0,-0.5 0,-19.5 83,-19.5 83,-0.5 0,-0.5"/>
<text text-anchor="middle" x="41.5" y="-7.5" font-family="Helvetica,sans-Serif" font-size="10.00">Translator&lt; T &gt;</text>
</a>
</g>
</g>
<!-- Node1 -->
<g id="node2" class="node">
<title>Node1</title>
<g id="a_node2"><a xlink:href="d1/d4e/classnap_1_1audio_1_1_table_translator.html" target="_top" xlink:title="TableTranslator\&lt; T \&gt;">
<polygon fill="white" stroke="black" points="119,-0.5 119,-19.5 225,-19.5 225,-0.5 119,-0.5"/>
<text text-anchor="middle" x="172" y="-7.5" font-family="Helvetica,sans-Serif" font-size="10.00">TableTranslator&lt; T &gt;</text>
</a>
</g>
</g>
<!-- Node0&#45;&gt;Node1 -->
<g id="edge1" class="edge">
<title>Node0&#45;&gt;Node1</title>
<path fill="none" stroke="midnightblue" d="M93.22,-10C101.64,-10 110.38,-10 118.83,-10"/>
<polygon fill="midnightblue" stroke="midnightblue" points="93.16,-6.5 83.16,-10 93.16,-13.5 93.16,-6.5"/>
</g>
<!-- Node2 -->
<g id="node3" class="node">
<title>Node2</title>
<g id="a_node3"><a xlink:href="d0/d7d/classnap_1_1audio_1_1_equal_power_translator.html" target="_top" xlink:title="EqualPowerTranslator\&lt; T \&gt;">
<polygon fill="white" stroke="black" points="261,-0.5 261,-19.5 395,-19.5 395,-0.5 261,-0.5"/>
<text text-anchor="middle" x="328" y="-7.5" font-family="Helvetica,sans-Serif" font-size="10.00">EqualPowerTranslator&lt; T &gt;</text>
</a>
</g>
</g>
<!-- Node1&#45;&gt;Node2 -->
<g id="edge2" class="edge">
<title>Node1&#45;&gt;Node2</title>
<path fill="none" stroke="midnightblue" d="M235.31,-10C243.76,-10 252.47,-10 260.99,-10"/>
<polygon fill="midnightblue" stroke="midnightblue" points="235.14,-6.5 225.14,-10 235.14,-13.5 235.14,-6.5"/>
</g>
</g>
</svg>
