<?xml version="1.0" encoding="UTF-8" standalone="no"?>
<!DOCTYPE svg PUBLIC "-//W3C//DTD SVG 1.1//EN"
 "http://www.w3.org/Graphics/SVG/1.1/DTD/svg11.dtd">
<!-- Generated by graphviz version 3.0.0 (20220226.1711)
 -->
<!-- Title: Graphical Class Hierarchy Pages: 1 -->
<svg width="369pt" height="294pt"
 viewBox="0.00 0.00 369.00 294.00" xmlns="http://www.w3.org/2000/svg" xmlns:xlink="http://www.w3.org/1999/xlink">
<g id="graph0" class="graph" transform="scale(1 1) rotate(0) translate(4 290)">
<title>Graphical Class Hierarchy</title>
<polygon fill="white" stroke="transparent" points="-4,4 -4,-290 365,-290 365,4 -4,4"/>
<!-- Node0 -->
<g id="node1" class="node">
<title>Node0</title>
<g id="a_node1"><a xlink:href="d8/d6a/classnap_1_1_base_color.html" target="_top" xlink:title="BaseColor">
<polygon fill="white" stroke="black" points="0,-133.5 0,-152.5 62,-152.5 62,-133.5 0,-133.5"/>
<text text-anchor="middle" x="31" y="-140.5" font-family="Helvetica,sans-Serif" font-size="10.00">BaseColor</text>
</a>
</g>
</g>
<!-- Node1 -->
<g id="node2" class="node">
<title>Node1</title>
<g id="a_node2"><a xlink:href="d6/d3d/classnap_1_1_color.html" target="_top" xlink:title="Color\&lt; float, 3 \&gt;">
<polygon fill="white" stroke="black" points="115.5,-266.5 115.5,-285.5 201.5,-285.5 201.5,-266.5 115.5,-266.5"/>
<text text-anchor="middle" x="158.5" y="-273.5" font-family="Helvetica,sans-Serif" font-size="10.00">Color&lt; float, 3 &gt;</text>
</a>
</g>
</g>
<!-- Node0&#45;&gt;Node1 -->
<g id="edge1" class="edge">
<title>Node0&#45;&gt;Node1</title>
<path fill="none" stroke="midnightblue" d="M38.14,-162.1C47.23,-187.41 66.66,-231.79 98,-257 103.15,-261.15 109.23,-264.4 115.5,-266.94"/>
<polygon fill="midnightblue" stroke="midnightblue" points="41.42,-160.87 34.87,-152.53 34.79,-163.13 41.42,-160.87"/>
</g>
<!-- Node3 -->
<g id="node4" class="node">
<title>Node3</title>
<g id="a_node4"><a xlink:href="d6/d3d/classnap_1_1_color.html" target="_top" xlink:title="Color\&lt; float, 4 \&gt;">
<polygon fill="white" stroke="black" points="115.5,-228.5 115.5,-247.5 201.5,-247.5 201.5,-228.5 115.5,-228.5"/>
<text text-anchor="middle" x="158.5" y="-235.5" font-family="Helvetica,sans-Serif" font-size="10.00">Color&lt; float, 4 &gt;</text>
</a>
</g>
</g>
<!-- Node0&#45;&gt;Node3 -->
<g id="edge3" class="edge">
<title>Node0&#45;&gt;Node3</title>
<path fill="none" stroke="midnightblue" d="M43.52,-161.28C55.26,-178.49 74.97,-203.83 98,-219 103.8,-222.82 110.41,-225.91 117.08,-228.41"/>
<polygon fill="midnightblue" stroke="midnightblue" points="46.27,-159.1 37.85,-152.67 40.43,-162.95 46.27,-159.1"/>
</g>
<!-- Node5 -->
<g id="node6" class="node">
<title>Node5</title>
<g id="a_node6"><a xlink:href="d6/d3d/classnap_1_1_color.html" target="_top" xlink:title="Color\&lt; T, 1 \&gt;">
<polygon fill="white" stroke="black" points="121.5,-190.5 121.5,-209.5 195.5,-209.5 195.5,-190.5 121.5,-190.5"/>
<text text-anchor="middle" x="158.5" y="-197.5" font-family="Helvetica,sans-Serif" font-size="10.00">Color&lt; T, 1 &gt;</text>
</a>
</g>
</g>
<!-- Node0&#45;&gt;Node5 -->
<g id="edge5" class="edge">
<title>Node0&#45;&gt;Node5</title>
<path fill="none" stroke="midnightblue" d="M55.21,-157.99C67.58,-165.56 83.25,-174.49 98,-181 106.04,-184.55 114.94,-187.75 123.37,-190.48"/>
<polygon fill="midnightblue" stroke="midnightblue" points="56.8,-154.86 46.47,-152.54 53.1,-160.8 56.8,-154.86"/>
</g>
<!-- Node7 -->
<g id="node8" class="node">
<title>Node7</title>
<g id="a_node8"><a xlink:href="d6/d3d/classnap_1_1_color.html" target="_top" xlink:title="Color\&lt; T, 3 \&gt;">
<polygon fill="white" stroke="black" points="121.5,-152.5 121.5,-171.5 195.5,-171.5 195.5,-152.5 121.5,-152.5"/>
<text text-anchor="middle" x="158.5" y="-159.5" font-family="Helvetica,sans-Serif" font-size="10.00">Color&lt; T, 3 &gt;</text>
</a>
</g>
</g>
<!-- Node0&#45;&gt;Node7 -->
<g id="edge7" class="edge">
<title>Node0&#45;&gt;Node7</title>
<path fill="none" stroke="midnightblue" d="M72.1,-149.07C87.94,-151.47 106.01,-154.2 121.43,-156.54"/>
<polygon fill="midnightblue" stroke="midnightblue" points="72.47,-145.59 62.06,-147.55 71.42,-152.51 72.47,-145.59"/>
</g>
<!-- Node9 -->
<g id="node10" class="node">
<title>Node9</title>
<g id="a_node10"><a xlink:href="d6/d3d/classnap_1_1_color.html" target="_top" xlink:title="Color\&lt; T, 4 \&gt;">
<polygon fill="white" stroke="black" points="121.5,-114.5 121.5,-133.5 195.5,-133.5 195.5,-114.5 121.5,-114.5"/>
<text text-anchor="middle" x="158.5" y="-121.5" font-family="Helvetica,sans-Serif" font-size="10.00">Color&lt; T, 4 &gt;</text>
</a>
</g>
</g>
<!-- Node0&#45;&gt;Node9 -->
<g id="edge9" class="edge">
<title>Node0&#45;&gt;Node9</title>
<path fill="none" stroke="midnightblue" d="M72.1,-136.93C87.94,-134.53 106.01,-131.8 121.43,-129.46"/>
<polygon fill="midnightblue" stroke="midnightblue" points="71.42,-133.49 62.06,-138.45 72.47,-140.41 71.42,-133.49"/>
</g>
<!-- Node11 -->
<g id="node12" class="node">
<title>Node11</title>
<g id="a_node12"><a xlink:href="d6/d3d/classnap_1_1_color.html" target="_top" xlink:title="Color\&lt; uint8, 3 \&gt;">
<polygon fill="white" stroke="black" points="114,-76.5 114,-95.5 203,-95.5 203,-76.5 114,-76.5"/>
<text text-anchor="middle" x="158.5" y="-83.5" font-family="Helvetica,sans-Serif" font-size="10.00">Color&lt; uint8, 3 &gt;</text>
</a>
</g>
</g>
<!-- Node0&#45;&gt;Node11 -->
<g id="edge11" class="edge">
<title>Node0&#45;&gt;Node11</title>
<path fill="none" stroke="midnightblue" d="M55.21,-128.01C67.58,-120.44 83.25,-111.51 98,-105 106.04,-101.45 114.94,-98.25 123.37,-95.52"/>
<polygon fill="midnightblue" stroke="midnightblue" points="53.1,-125.2 46.47,-133.46 56.8,-131.14 53.1,-125.2"/>
</g>
<!-- Node13 -->
<g id="node14" class="node">
<title>Node13</title>
<g id="a_node14"><a xlink:href="d6/d3d/classnap_1_1_color.html" target="_top" xlink:title="Color\&lt; uint8, 4 \&gt;">
<polygon fill="white" stroke="black" points="114,-38.5 114,-57.5 203,-57.5 203,-38.5 114,-38.5"/>
<text text-anchor="middle" x="158.5" y="-45.5" font-family="Helvetica,sans-Serif" font-size="10.00">Color&lt; uint8, 4 &gt;</text>
</a>
</g>
</g>
<!-- Node0&#45;&gt;Node13 -->
<g id="edge13" class="edge">
<title>Node0&#45;&gt;Node13</title>
<path fill="none" stroke="midnightblue" d="M43.52,-124.72C55.26,-107.51 74.97,-82.17 98,-67 103.8,-63.18 110.41,-60.09 117.08,-57.59"/>
<polygon fill="midnightblue" stroke="midnightblue" points="40.43,-123.05 37.85,-133.33 46.27,-126.9 40.43,-123.05"/>
</g>
<!-- Node15 -->
<g id="node16" class="node">
<title>Node15</title>
<g id="a_node16"><a xlink:href="d6/d3d/classnap_1_1_color.html" target="_top" xlink:title="Color\&lt; T, CHANNELS \&gt;">
<polygon fill="white" stroke="black" points="98,-0.5 98,-19.5 219,-19.5 219,-0.5 98,-0.5"/>
<text text-anchor="middle" x="158.5" y="-7.5" font-family="Helvetica,sans-Serif" font-size="10.00">Color&lt; T, CHANNELS &gt;</text>
</a>
</g>
</g>
<!-- Node0&#45;&gt;Node15 -->
<g id="edge15" class="edge">
<title>Node0&#45;&gt;Node15</title>
<path fill="none" stroke="midnightblue" d="M38.14,-123.9C47.23,-98.59 66.66,-54.21 98,-29 102.82,-25.13 108.44,-22.03 114.27,-19.57"/>
<polygon fill="midnightblue" stroke="midnightblue" points="34.79,-122.87 34.87,-133.47 41.42,-125.13 34.79,-122.87"/>
</g>
<!-- Node2 -->
<g id="node3" class="node">
<title>Node2</title>
<g id="a_node3"><a xlink:href="d4/dd7/classnap_1_1_r_g_b_color.html" target="_top" xlink:title="RGBColor\&lt; float \&gt;">
<polygon fill="white" stroke="black" points="260,-266.5 260,-285.5 356,-285.5 356,-266.5 260,-266.5"/>
<text text-anchor="middle" x="308" y="-273.5" font-family="Helvetica,sans-Serif" font-size="10.00">RGBColor&lt; float &gt;</text>
</a>
</g>
</g>
<!-- Node1&#45;&gt;Node2 -->
<g id="edge2" class="edge">
<title>Node1&#45;&gt;Node2</title>
<path fill="none" stroke="midnightblue" d="M211.81,-276C227.46,-276 244.51,-276 259.8,-276"/>
<polygon fill="midnightblue" stroke="midnightblue" points="211.77,-272.5 201.77,-276 211.77,-279.5 211.77,-272.5"/>
</g>
<!-- Node4 -->
<g id="node5" class="node">
<title>Node4</title>
<g id="a_node5"><a xlink:href="d6/db8/classnap_1_1_r_g_b_a_color.html" target="_top" xlink:title="RGBAColor\&lt; float \&gt;">
<polygon fill="white" stroke="black" points="256.5,-228.5 256.5,-247.5 359.5,-247.5 359.5,-228.5 256.5,-228.5"/>
<text text-anchor="middle" x="308" y="-235.5" font-family="Helvetica,sans-Serif" font-size="10.00">RGBAColor&lt; float &gt;</text>
</a>
</g>
</g>
<!-- Node3&#45;&gt;Node4 -->
<g id="edge4" class="edge">
<title>Node3&#45;&gt;Node4</title>
<path fill="none" stroke="midnightblue" d="M212.02,-238C226.44,-238 242.05,-238 256.36,-238"/>
<polygon fill="midnightblue" stroke="midnightblue" points="211.77,-234.5 201.77,-238 211.77,-241.5 211.77,-234.5"/>
</g>
<!-- Node6 -->
<g id="node7" class="node">
<title>Node6</title>
<g id="a_node7"><a xlink:href="d0/d31/classnap_1_1_r_color.html" target="_top" xlink:title="RColor\&lt; T \&gt;">
<polygon fill="white" stroke="black" points="273.5,-190.5 273.5,-209.5 342.5,-209.5 342.5,-190.5 273.5,-190.5"/>
<text text-anchor="middle" x="308" y="-197.5" font-family="Helvetica,sans-Serif" font-size="10.00">RColor&lt; T &gt;</text>
</a>
</g>
</g>
<!-- Node5&#45;&gt;Node6 -->
<g id="edge6" class="edge">
<title>Node5&#45;&gt;Node6</title>
<path fill="none" stroke="midnightblue" d="M205.67,-200C227.58,-200 253.28,-200 273.31,-200"/>
<polygon fill="midnightblue" stroke="midnightblue" points="205.58,-196.5 195.58,-200 205.58,-203.5 205.58,-196.5"/>
</g>
<!-- Node8 -->
<g id="node9" class="node">
<title>Node8</title>
<g id="a_node9"><a xlink:href="d4/dd7/classnap_1_1_r_g_b_color.html" target="_top" xlink:title="RGBColor\&lt; T \&gt;">
<polygon fill="white" stroke="black" points="266.5,-152.5 266.5,-171.5 349.5,-171.5 349.5,-152.5 266.5,-152.5"/>
<text text-anchor="middle" x="308" y="-159.5" font-family="Helvetica,sans-Serif" font-size="10.00">RGBColor&lt; T &gt;</text>
</a>
</g>
</g>
<!-- Node7&#45;&gt;Node8 -->
<g id="edge8" class="edge">
<title>Node7&#45;&gt;Node8</title>
<path fill="none" stroke="midnightblue" d="M205.73,-162C225.16,-162 247.56,-162 266.35,-162"/>
<polygon fill="midnightblue" stroke="midnightblue" points="205.58,-158.5 195.58,-162 205.58,-165.5 205.58,-158.5"/>
</g>
<!-- Node10 -->
<g id="node11" class="node">
<title>Node10</title>
<g id="a_node11"><a xlink:href="d6/db8/classnap_1_1_r_g_b_a_color.html" target="_top" xlink:title="RGBAColor\&lt; T \&gt;">
<polygon fill="white" stroke="black" points="263,-114.5 263,-133.5 353,-133.5 353,-114.5 263,-114.5"/>
<text text-anchor="middle" x="308" y="-121.5" font-family="Helvetica,sans-Serif" font-size="10.00">RGBAColor&lt; T &gt;</text>
</a>
</g>
</g>
<!-- Node9&#45;&gt;Node10 -->
<g id="edge10" class="edge">
<title>Node9&#45;&gt;Node10</title>
<path fill="none" stroke="midnightblue" d="M205.7,-124C223.95,-124 244.82,-124 262.87,-124"/>
<polygon fill="midnightblue" stroke="midnightblue" points="205.58,-120.5 195.58,-124 205.58,-127.5 205.58,-120.5"/>
</g>
<!-- Node12 -->
<g id="node13" class="node">
<title>Node12</title>
<g id="a_node13"><a xlink:href="d4/dd7/classnap_1_1_r_g_b_color.html" target="_top" xlink:title="RGBColor\&lt; uint8 \&gt;">
<polygon fill="white" stroke="black" points="258.5,-76.5 258.5,-95.5 357.5,-95.5 357.5,-76.5 258.5,-76.5"/>
<text text-anchor="middle" x="308" y="-83.5" font-family="Helvetica,sans-Serif" font-size="10.00">RGBColor&lt; uint8 &gt;</text>
</a>
</g>
</g>
<!-- Node11&#45;&gt;Node12 -->
<g id="edge12" class="edge">
<title>Node11&#45;&gt;Node12</title>
<path fill="none" stroke="midnightblue" d="M213.77,-86C228.4,-86 244.12,-86 258.41,-86"/>
<polygon fill="midnightblue" stroke="midnightblue" points="213.36,-82.5 203.36,-86 213.36,-89.5 213.36,-82.5"/>
</g>
<!-- Node14 -->
<g id="node15" class="node">
<title>Node14</title>
<g id="a_node15"><a xlink:href="d6/db8/classnap_1_1_r_g_b_a_color.html" target="_top" xlink:title="RGBAColor\&lt; uint8 \&gt;">
<polygon fill="white" stroke="black" points="255,-38.5 255,-57.5 361,-57.5 361,-38.5 255,-38.5"/>
<text text-anchor="middle" x="308" y="-45.5" font-family="Helvetica,sans-Serif" font-size="10.00">RGBAColor&lt; uint8 &gt;</text>
</a>
</g>
</g>
<!-- Node13&#45;&gt;Node14 -->
<g id="edge14" class="edge">
<title>Node13&#45;&gt;Node14</title>
<path fill="none" stroke="midnightblue" d="M213.49,-48C227.04,-48 241.54,-48 254.99,-48"/>
<polygon fill="midnightblue" stroke="midnightblue" points="213.36,-44.5 203.36,-48 213.36,-51.5 213.36,-44.5"/>
</g>
</g>
</svg>
