<?xml version="1.0" encoding="UTF-8" standalone="no"?>
<!DOCTYPE svg PUBLIC "-//W3C//DTD SVG 1.1//EN"
 "http://www.w3.org/Graphics/SVG/1.1/DTD/svg11.dtd">
<!-- Generated by graphviz version 3.0.0 (20220226.1711)
 -->
<!-- Title: Graphical Class Hierarchy Pages: 1 -->
<svg width="273pt" height="127pt"
 viewBox="0.00 0.00 273.00 126.50" xmlns="http://www.w3.org/2000/svg" xmlns:xlink="http://www.w3.org/1999/xlink">
<g id="graph0" class="graph" transform="scale(1 1) rotate(0) translate(4 122.5)">
<title>Graphical Class Hierarchy</title>
<polygon fill="white" stroke="transparent" points="-4,4 -4,-122.5 269,-122.5 269,4 -4,4"/>
<!-- Node0 -->
<g id="node1" class="node">
<title>Node0</title>
<g id="a_node1"><a xlink:href="d4/da4/classnap_1_1audio_1_1_safe_ptr_base.html" target="_top" xlink:title="SafePtrBase">
<polygon fill="white" stroke="black" points="0,-55 0,-74 71,-74 71,-55 0,-55"/>
<text text-anchor="middle" x="35.5" y="-62" font-family="Helvetica,sans-Serif" font-size="10.00">SafePtrBase</text>
</a>
</g>
</g>
<!-- Node1 -->
<g id="node2" class="node">
<title>Node1</title>
<g id="a_node2"><a xlink:href="da/d06/classnap_1_1audio_1_1_safe_ptr.html" target="_top" xlink:title="SafePtr\&lt; T \&gt;">
<polygon fill="white" stroke="black" points="150,-99 150,-118 222,-118 222,-99 150,-99"/>
<text text-anchor="middle" x="186" y="-106" font-family="Helvetica,sans-Serif" font-size="10.00">SafePtr&lt; T &gt;</text>
</a>
</g>
</g>
<!-- Node0&#45;&gt;Node1 -->
<g id="edge1" class="edge">
<title>Node0&#45;&gt;Node1</title>
<path fill="none" stroke="midnightblue" d="M71,-77.53C82.39,-81.61 95.16,-85.97 107,-89.5 120.89,-93.64 136.37,-97.56 149.85,-100.74"/>
<polygon fill="midnightblue" stroke="midnightblue" points="72.01,-74.17 61.42,-74.04 69.62,-80.75 72.01,-74.17"/>
</g>
<!-- Node2 -->
<g id="node3" class="node">
<title>Node2</title>
<g id="a_node3"><a xlink:href="da/d06/classnap_1_1audio_1_1_safe_ptr.html" target="_top" xlink:title="SafePtr\&lt; nap::audio\l::MultiSampleBuffer \&gt;">
<polygon fill="white" stroke="black" points="131,-49.5 131,-79.5 241,-79.5 241,-49.5 131,-49.5"/>
<text text-anchor="start" x="139" y="-67.5" font-family="Helvetica,sans-Serif" font-size="10.00">SafePtr&lt; nap::audio</text>
<text text-anchor="middle" x="186" y="-56.5" font-family="Helvetica,sans-Serif" font-size="10.00">::MultiSampleBuffer &gt;</text>
</a>
</g>
</g>
<!-- Node0&#45;&gt;Node2 -->
<g id="edge2" class="edge">
<title>Node0&#45;&gt;Node2</title>
<path fill="none" stroke="midnightblue" d="M81.7,-64.5C97.23,-64.5 114.77,-64.5 130.93,-64.5"/>
<polygon fill="midnightblue" stroke="midnightblue" points="81.32,-61 71.32,-64.5 81.32,-68 81.32,-61"/>
</g>
<!-- Node3 -->
<g id="node4" class="node">
<title>Node3</title>
<g id="a_node4"><a xlink:href="da/d06/classnap_1_1audio_1_1_safe_ptr.html" target="_top" xlink:title="SafePtr\&lt; nap::audio\l::Translator\&lt; ControllerValue \&gt; \&gt;">
<polygon fill="white" stroke="black" points="107,-0.5 107,-30.5 265,-30.5 265,-0.5 107,-0.5"/>
<text text-anchor="start" x="115" y="-18.5" font-family="Helvetica,sans-Serif" font-size="10.00">SafePtr&lt; nap::audio</text>
<text text-anchor="middle" x="186" y="-7.5" font-family="Helvetica,sans-Serif" font-size="10.00">::Translator&lt; ControllerValue &gt; &gt;</text>
</a>
</g>
</g>
<!-- Node0&#45;&gt;Node3 -->
<g id="edge3" class="edge">
<title>Node0&#45;&gt;Node3</title>
<path fill="none" stroke="midnightblue" d="M73.76,-51.68C84.48,-48.03 96.19,-44.07 107,-40.5 116.86,-37.24 127.43,-33.81 137.52,-30.57"/>
<polygon fill="midnightblue" stroke="midnightblue" points="72.58,-48.38 64.25,-54.92 74.85,-55 72.58,-48.38"/>
</g>
</g>
</svg>
