<?xml version="1.0" encoding="UTF-8" standalone="no"?>
<!DOCTYPE svg PUBLIC "-//W3C//DTD SVG 1.1//EN"
 "http://www.w3.org/Graphics/SVG/1.1/DTD/svg11.dtd">
<!-- Generated by graphviz version 3.0.0 (20220226.1711)
 -->
<!-- Title: Graphical Class Hierarchy Pages: 1 -->
<svg width="215pt" height="218pt"
 viewBox="0.00 0.00 215.00 218.00" xmlns="http://www.w3.org/2000/svg" xmlns:xlink="http://www.w3.org/1999/xlink">
<g id="graph0" class="graph" transform="scale(1 1) rotate(0) translate(4 214)">
<title>Graphical Class Hierarchy</title>
<polygon fill="white" stroke="transparent" points="-4,4 -4,-214 211,-214 211,4 -4,4"/>
<!-- Node0 -->
<g id="node1" class="node">
<title>Node0</title>
<g id="a_node1"><a xlink:href="d5/d70/classnap_1_1_o_s_c_base_value.html" target="_top" xlink:title="OSCBaseValue">
<polygon fill="white" stroke="black" points="0,-95.5 0,-114.5 85,-114.5 85,-95.5 0,-95.5"/>
<text text-anchor="middle" x="42.5" y="-102.5" font-family="Helvetica,sans-Serif" font-size="10.00">OSCBaseValue</text>
</a>
</g>
</g>
<!-- Node1 -->
<g id="node2" class="node">
<title>Node1</title>
<g id="a_node2"><a xlink:href="d7/d55/classnap_1_1_o_s_c_blob.html" target="_top" xlink:title="OSCBlob">
<polygon fill="white" stroke="black" points="135.5,-190.5 135.5,-209.5 192.5,-209.5 192.5,-190.5 135.5,-190.5"/>
<text text-anchor="middle" x="164" y="-197.5" font-family="Helvetica,sans-Serif" font-size="10.00">OSCBlob</text>
</a>
</g>
</g>
<!-- Node0&#45;&gt;Node1 -->
<g id="edge1" class="edge">
<title>Node0&#45;&gt;Node1</title>
<path fill="none" stroke="midnightblue" d="M58.44,-122.91C73.06,-139.59 96.63,-164.32 121,-181 126.15,-184.53 132.06,-187.67 137.79,-190.33"/>
<polygon fill="midnightblue" stroke="midnightblue" points="60.82,-120.31 51.65,-115.01 55.51,-124.87 60.82,-120.31"/>
</g>
<!-- Node2 -->
<g id="node3" class="node">
<title>Node2</title>
<g id="a_node3"><a xlink:href="d9/d08/classnap_1_1_o_s_c_color.html" target="_top" xlink:title="OSCColor">
<polygon fill="white" stroke="black" points="134,-152.5 134,-171.5 194,-171.5 194,-152.5 134,-152.5"/>
<text text-anchor="middle" x="164" y="-159.5" font-family="Helvetica,sans-Serif" font-size="10.00">OSCColor</text>
</a>
</g>
</g>
<!-- Node0&#45;&gt;Node2 -->
<g id="edge2" class="edge">
<title>Node0&#45;&gt;Node2</title>
<path fill="none" stroke="midnightblue" d="M71.59,-119.04C86.26,-126.3 104.54,-135.25 121,-143 127.66,-146.14 134.96,-149.48 141.57,-152.46"/>
<polygon fill="midnightblue" stroke="midnightblue" points="73.04,-115.85 62.53,-114.54 69.93,-122.12 73.04,-115.85"/>
</g>
<!-- Node3 -->
<g id="node4" class="node">
<title>Node3</title>
<g id="a_node4"><a xlink:href="d3/d0f/classnap_1_1_o_s_c_nil.html" target="_top" xlink:title="OSCNil">
<polygon fill="white" stroke="black" points="139.5,-114.5 139.5,-133.5 188.5,-133.5 188.5,-114.5 139.5,-114.5"/>
<text text-anchor="middle" x="164" y="-121.5" font-family="Helvetica,sans-Serif" font-size="10.00">OSCNil</text>
</a>
</g>
</g>
<!-- Node0&#45;&gt;Node3 -->
<g id="edge3" class="edge">
<title>Node0&#45;&gt;Node3</title>
<path fill="none" stroke="midnightblue" d="M95.21,-113.22C110.52,-115.66 126.54,-118.2 139.17,-120.21"/>
<polygon fill="midnightblue" stroke="midnightblue" points="95.72,-109.76 85.3,-111.65 94.62,-116.67 95.72,-109.76"/>
</g>
<!-- Node4 -->
<g id="node5" class="node">
<title>Node4</title>
<g id="a_node5"><a xlink:href="d5/d18/classnap_1_1_o_s_c_string.html" target="_top" xlink:title="OSCString">
<polygon fill="white" stroke="black" points="132.5,-76.5 132.5,-95.5 195.5,-95.5 195.5,-76.5 132.5,-76.5"/>
<text text-anchor="middle" x="164" y="-83.5" font-family="Helvetica,sans-Serif" font-size="10.00">OSCString</text>
</a>
</g>
</g>
<!-- Node0&#45;&gt;Node4 -->
<g id="edge4" class="edge">
<title>Node0&#45;&gt;Node4</title>
<path fill="none" stroke="midnightblue" d="M95.28,-96.77C107.92,-94.76 121.05,-92.67 132.34,-90.88"/>
<polygon fill="midnightblue" stroke="midnightblue" points="94.62,-93.33 85.3,-98.35 95.72,-100.24 94.62,-93.33"/>
</g>
<!-- Node5 -->
<g id="node6" class="node">
<title>Node5</title>
<g id="a_node6"><a xlink:href="d1/d51/classnap_1_1_o_s_c_time_tag.html" target="_top" xlink:title="OSCTimeTag">
<polygon fill="white" stroke="black" points="127,-38.5 127,-57.5 201,-57.5 201,-38.5 127,-38.5"/>
<text text-anchor="middle" x="164" y="-45.5" font-family="Helvetica,sans-Serif" font-size="10.00">OSCTimeTag</text>
</a>
</g>
</g>
<!-- Node0&#45;&gt;Node5 -->
<g id="edge5" class="edge">
<title>Node0&#45;&gt;Node5</title>
<path fill="none" stroke="midnightblue" d="M71.59,-90.96C86.26,-83.7 104.54,-74.75 121,-67 127.66,-63.86 134.96,-60.52 141.57,-57.54"/>
<polygon fill="midnightblue" stroke="midnightblue" points="69.93,-87.88 62.53,-95.46 73.04,-94.15 69.93,-87.88"/>
</g>
<!-- Node6 -->
<g id="node7" class="node">
<title>Node6</title>
<g id="a_node7"><a xlink:href="d6/d4b/classnap_1_1_o_s_c_value.html" target="_top" xlink:title="OSCValue\&lt; T \&gt;">
<polygon fill="white" stroke="black" points="121,-0.5 121,-19.5 207,-19.5 207,-0.5 121,-0.5"/>
<text text-anchor="middle" x="164" y="-7.5" font-family="Helvetica,sans-Serif" font-size="10.00">OSCValue&lt; T &gt;</text>
</a>
</g>
</g>
<!-- Node0&#45;&gt;Node6 -->
<g id="edge6" class="edge">
<title>Node0&#45;&gt;Node6</title>
<path fill="none" stroke="midnightblue" d="M58.44,-87.09C73.06,-70.41 96.63,-45.68 121,-29 126.15,-25.47 132.06,-22.33 137.79,-19.67"/>
<polygon fill="midnightblue" stroke="midnightblue" points="55.51,-85.13 51.65,-94.99 60.82,-89.69 55.51,-85.13"/>
</g>
</g>
</svg>
