<?xml version="1.0" encoding="UTF-8" standalone="no"?>
<!DOCTYPE svg PUBLIC "-//W3C//DTD SVG 1.1//EN"
 "http://www.w3.org/Graphics/SVG/1.1/DTD/svg11.dtd">
<!-- Generated by graphviz version 2.43.0 (0)
 -->
<!-- Title: BaseSequenceTrackCurve Pages: 1 -->
<svg width="290pt" height="263pt"
 viewBox="0.00 0.00 290.00 263.00" xmlns="http://www.w3.org/2000/svg" xmlns:xlink="http://www.w3.org/1999/xlink">
<g id="graph0" class="graph" transform="scale(1 1) rotate(0) translate(4 259)">
<title>BaseSequenceTrackCurve</title>
<polygon fill="white" stroke="transparent" points="-4,4 -4,-259 286,-259 286,4 -4,4"/>
<!-- Node1 -->
<g id="node1" class="node">
<title>Node1</title>
<g id="a_node1"><a xlink:title=" ">
<polygon fill="#bfbfbf" stroke="black" points="77,-67.5 77,-86.5 219,-86.5 219,-67.5 77,-67.5"/>
<text text-anchor="middle" x="148" y="-74.5" font-family="Helvetica,sans-Serif" font-size="10.00">BaseSequenceTrackCurve</text>
</a>
</g>
</g>
<!-- Node5 -->
<g id="node5" class="node">
<title>Node5</title>
<g id="a_node5"><a xlink:href="../../d7/d62/classnap_1_1_sequence_track_curve.html" target="_top" xlink:title=" ">
<polygon fill="white" stroke="black" points="0,-6 0,-25 146,-25 146,-6 0,-6"/>
<text text-anchor="middle" x="73" y="-13" font-family="Helvetica,sans-Serif" font-size="10.00">SequenceTrackCurve&lt; T &gt;</text>
</a>
</g>
</g>
<!-- Node1&#45;&gt;Node5 -->
<g id="edge4" class="edge">
<title>Node1&#45;&gt;Node5</title>
<path fill="none" stroke="midnightblue" d="M129.06,-60.97C114.71,-49.59 95.52,-34.37 83.73,-25.01"/>
<polygon fill="midnightblue" stroke="midnightblue" points="127.24,-64 137.25,-67.48 131.6,-58.52 127.24,-64"/>
</g>
<!-- Node6 -->
<g id="node6" class="node">
<title>Node6</title>
<g id="a_node6"><a xlink:href="../../d7/d62/classnap_1_1_sequence_track_curve.html" target="_top" xlink:title=" ">
<polygon fill="white" stroke="black" points="164,-0.5 164,-30.5 282,-30.5 282,-0.5 164,-0.5"/>
<text text-anchor="start" x="172" y="-18.5" font-family="Helvetica,sans-Serif" font-size="10.00">SequenceTrackCurve</text>
<text text-anchor="middle" x="223" y="-7.5" font-family="Helvetica,sans-Serif" font-size="10.00">&lt; CURVE_TYPE &gt;</text>
</a>
</g>
</g>
<!-- Node1&#45;&gt;Node6 -->
<g id="edge5" class="edge">
<title>Node1&#45;&gt;Node6</title>
<path fill="none" stroke="midnightblue" d="M166.66,-61.2C178.49,-51.81 193.69,-39.75 205.32,-30.52"/>
<polygon fill="midnightblue" stroke="midnightblue" points="164.4,-58.52 158.75,-67.48 168.76,-64 164.4,-58.52"/>
</g>
<!-- Node2 -->
<g id="node2" class="node">
<title>Node2</title>
<g id="a_node2"><a xlink:href="../../d5/d30/classnap_1_1_sequence_track.html" target="_top" xlink:title=" ">
<polygon fill="white" stroke="black" points="103.5,-123.5 103.5,-142.5 192.5,-142.5 192.5,-123.5 103.5,-123.5"/>
<text text-anchor="middle" x="148" y="-130.5" font-family="Helvetica,sans-Serif" font-size="10.00">SequenceTrack</text>
</a>
</g>
</g>
<!-- Node2&#45;&gt;Node1 -->
<g id="edge1" class="edge">
<title>Node2&#45;&gt;Node1</title>
<path fill="none" stroke="midnightblue" d="M148,-112.8C148,-103.91 148,-93.78 148,-86.75"/>
<polygon fill="midnightblue" stroke="midnightblue" points="144.5,-113.08 148,-123.08 151.5,-113.08 144.5,-113.08"/>
</g>
<!-- Node3 -->
<g id="node3" class="node">
<title>Node3</title>
<g id="a_node3"><a xlink:href="../../d9/dea/classnap_1_1_resource.html" target="_top" xlink:title=" ">
<polygon fill="white" stroke="black" points="117,-179.5 117,-198.5 179,-198.5 179,-179.5 117,-179.5"/>
<text text-anchor="middle" x="148" y="-186.5" font-family="Helvetica,sans-Serif" font-size="10.00">Resource</text>
</a>
</g>
</g>
<!-- Node3&#45;&gt;Node2 -->
<g id="edge2" class="edge">
<title>Node3&#45;&gt;Node2</title>
<path fill="none" stroke="midnightblue" d="M148,-168.8C148,-159.91 148,-149.78 148,-142.75"/>
<polygon fill="midnightblue" stroke="midnightblue" points="144.5,-169.08 148,-179.08 151.5,-169.08 144.5,-169.08"/>
</g>
<!-- Node4 -->
<g id="node4" class="node">
<title>Node4</title>
<g id="a_node4"><a xlink:href="../../de/d01/classnap_1_1rtti_1_1_object.html" target="_top" xlink:title=" ">
<polygon fill="white" stroke="black" points="124,-235.5 124,-254.5 172,-254.5 172,-235.5 124,-235.5"/>
<text text-anchor="middle" x="148" y="-242.5" font-family="Helvetica,sans-Serif" font-size="10.00">Object</text>
</a>
</g>
</g>
<!-- Node4&#45;&gt;Node3 -->
<g id="edge3" class="edge">
<title>Node4&#45;&gt;Node3</title>
<path fill="none" stroke="midnightblue" d="M148,-224.8C148,-215.91 148,-205.78 148,-198.75"/>
<polygon fill="midnightblue" stroke="midnightblue" points="144.5,-225.08 148,-235.08 151.5,-225.08 144.5,-225.08"/>
</g>
</g>
</svg>
