<?xml version="1.0" encoding="UTF-8" standalone="no"?>
<!DOCTYPE svg PUBLIC "-//W3C//DTD SVG 1.1//EN"
 "http://www.w3.org/Graphics/SVG/1.1/DTD/svg11.dtd">
<!-- Generated by graphviz version 2.48.0 (20210717.1556)
 -->
<!-- Title: ImageFromFile Pages: 1 -->
<svg width="89pt" height="252pt"
 viewBox="0.00 0.00 89.00 252.00" xmlns="http://www.w3.org/2000/svg" xmlns:xlink="http://www.w3.org/1999/xlink">
<g id="graph0" class="graph" transform="scale(1 1) rotate(0) translate(4 248)">
<title>ImageFromFile</title>
<polygon fill="white" stroke="transparent" points="-4,4 -4,-248 85,-248 85,4 -4,4"/>
<!-- Node0 -->
<g id="node1" class="node">
<title>Node0</title>
<polygon fill="#bfbfbf" stroke="black" points="0,-0.5 0,-19.5 81,-19.5 81,-0.5 0,-0.5"/>
<text text-anchor="middle" x="40.5" y="-7.5" font-family="Helvetica,sans-Serif" font-size="10.00">ImageFromFile</text>
</g>
<!-- Node1 -->
<g id="node2" class="node">
<title>Node1</title>
<g id="a_node2"><a xlink:href="../../dd/d82/classnap_1_1_image.html" target="_top" xlink:title="Image">
<polygon fill="white" stroke="black" points="19,-56.5 19,-75.5 62,-75.5 62,-56.5 19,-56.5"/>
<text text-anchor="middle" x="40.5" y="-63.5" font-family="Helvetica,sans-Serif" font-size="10.00">Image</text>
</a>
</g>
</g>
<!-- Node1&#45;&gt;Node0 -->
<g id="edge1" class="edge">
<title>Node1&#45;&gt;Node0</title>
<path fill="none" stroke="midnightblue" d="M40.5,-45.8C40.5,-36.91 40.5,-26.78 40.5,-19.75"/>
<polygon fill="midnightblue" stroke="midnightblue" points="37,-46.08 40.5,-56.08 44,-46.08 37,-46.08"/>
</g>
<!-- Node2 -->
<g id="node3" class="node">
<title>Node2</title>
<g id="a_node3"><a xlink:href="../../d6/d0e/classnap_1_1_texture2_d.html" target="_top" xlink:title="Texture2D">
<polygon fill="white" stroke="black" points="10,-112.5 10,-131.5 71,-131.5 71,-112.5 10,-112.5"/>
<text text-anchor="middle" x="40.5" y="-119.5" font-family="Helvetica,sans-Serif" font-size="10.00">Texture2D</text>
</a>
</g>
</g>
<!-- Node2&#45;&gt;Node1 -->
<g id="edge2" class="edge">
<title>Node2&#45;&gt;Node1</title>
<path fill="none" stroke="midnightblue" d="M40.5,-101.8C40.5,-92.91 40.5,-82.78 40.5,-75.75"/>
<polygon fill="midnightblue" stroke="midnightblue" points="37,-102.08 40.5,-112.08 44,-102.08 37,-102.08"/>
</g>
<!-- Node3 -->
<g id="node4" class="node">
<title>Node3</title>
<g id="a_node4"><a xlink:href="../../d9/dea/classnap_1_1_resource.html" target="_top" xlink:title="Resource">
<polygon fill="white" stroke="black" points="11.5,-168.5 11.5,-187.5 69.5,-187.5 69.5,-168.5 11.5,-168.5"/>
<text text-anchor="middle" x="40.5" y="-175.5" font-family="Helvetica,sans-Serif" font-size="10.00">Resource</text>
</a>
</g>
</g>
<!-- Node3&#45;&gt;Node2 -->
<g id="edge3" class="edge">
<title>Node3&#45;&gt;Node2</title>
<path fill="none" stroke="midnightblue" d="M40.5,-157.8C40.5,-148.91 40.5,-138.78 40.5,-131.75"/>
<polygon fill="midnightblue" stroke="midnightblue" points="37,-158.08 40.5,-168.08 44,-158.08 37,-158.08"/>
</g>
<!-- Node4 -->
<g id="node5" class="node">
<title>Node4</title>
<g id="a_node5"><a xlink:href="../../de/d01/classnap_1_1rtti_1_1_object.html" target="_top" xlink:title="Object">
<polygon fill="white" stroke="black" points="18,-224.5 18,-243.5 63,-243.5 63,-224.5 18,-224.5"/>
<text text-anchor="middle" x="40.5" y="-231.5" font-family="Helvetica,sans-Serif" font-size="10.00">Object</text>
</a>
</g>
</g>
<!-- Node4&#45;&gt;Node3 -->
<g id="edge4" class="edge">
<title>Node4&#45;&gt;Node3</title>
<path fill="none" stroke="midnightblue" d="M40.5,-213.8C40.5,-204.91 40.5,-194.78 40.5,-187.75"/>
<polygon fill="midnightblue" stroke="midnightblue" points="37,-214.08 40.5,-224.08 44,-214.08 37,-214.08"/>
</g>
</g>
</svg>
