<?xml version="1.0" encoding="UTF-8" standalone="no"?>
<!DOCTYPE svg PUBLIC "-//W3C//DTD SVG 1.1//EN"
 "http://www.w3.org/Graphics/SVG/1.1/DTD/svg11.dtd">
<!-- Generated by graphviz version 2.43.0 (0)
 -->
<!-- Title: SequencePlayerClock Pages: 1 -->
<svg width="513pt" height="116pt"
 viewBox="0.00 0.00 513.00 116.00" xmlns="http://www.w3.org/2000/svg" xmlns:xlink="http://www.w3.org/1999/xlink">
<g id="graph0" class="graph" transform="scale(1 1) rotate(0) translate(4 112)">
<title>SequencePlayerClock</title>
<polygon fill="white" stroke="transparent" points="-4,4 -4,-112 509,-112 509,4 -4,4"/>
<!-- Node1 -->
<g id="node1" class="node">
<title>Node1</title>
<g id="a_node1"><a xlink:title=" ">
<polygon fill="#bfbfbf" stroke="black" points="182,-44.5 182,-63.5 304,-63.5 304,-44.5 182,-44.5"/>
<text text-anchor="middle" x="243" y="-51.5" font-family="Helvetica,sans-Serif" font-size="10.00">SequencePlayerClock</text>
</a>
</g>
</g>
<!-- Node4 -->
<g id="node4" class="node">
<title>Node4</title>
<g id="a_node4"><a xlink:href="../../d6/d0f/classnap_1_1_sequence_player_audio_clock.html" target="_top" xlink:title=" ">
<polygon fill="white" stroke="black" points="348,-88.5 348,-107.5 497,-107.5 497,-88.5 348,-88.5"/>
<text text-anchor="middle" x="422.5" y="-95.5" font-family="Helvetica,sans-Serif" font-size="10.00">SequencePlayerAudioClock</text>
</a>
</g>
</g>
<!-- Node1&#45;&gt;Node4 -->
<g id="edge3" class="edge">
<title>Node1&#45;&gt;Node4</title>
<path fill="none" stroke="midnightblue" d="M290.03,-66.24C305.84,-70.38 323.68,-74.97 340,-79 352.84,-82.17 366.84,-85.48 379.57,-88.44"/>
<polygon fill="midnightblue" stroke="midnightblue" points="290.52,-62.75 279.96,-63.6 288.74,-69.52 290.52,-62.75"/>
</g>
<!-- Node5 -->
<g id="node5" class="node">
<title>Node5</title>
<g id="a_node5"><a xlink:href="../../de/df4/classnap_1_1_sequence_player_independent_clock.html" target="_top" xlink:title=" ">
<polygon fill="white" stroke="black" points="345,-39 345,-69 500,-69 500,-39 345,-39"/>
<text text-anchor="start" x="353" y="-57" font-family="Helvetica,sans-Serif" font-size="10.00">SequencePlayerIndependent</text>
<text text-anchor="middle" x="422.5" y="-46" font-family="Helvetica,sans-Serif" font-size="10.00">Clock</text>
</a>
</g>
</g>
<!-- Node1&#45;&gt;Node5 -->
<g id="edge4" class="edge">
<title>Node1&#45;&gt;Node5</title>
<path fill="none" stroke="midnightblue" d="M314.37,-54C324.36,-54 334.68,-54 344.79,-54"/>
<polygon fill="midnightblue" stroke="midnightblue" points="314.09,-50.5 304.09,-54 314.09,-57.5 314.09,-50.5"/>
</g>
<!-- Node6 -->
<g id="node6" class="node">
<title>Node6</title>
<g id="a_node6"><a xlink:href="../../d0/dd1/classnap_1_1_sequence_player_standard_clock.html" target="_top" xlink:title=" ">
<polygon fill="white" stroke="black" points="340,-0.5 340,-19.5 505,-19.5 505,-0.5 340,-0.5"/>
<text text-anchor="middle" x="422.5" y="-7.5" font-family="Helvetica,sans-Serif" font-size="10.00">SequencePlayerStandardClock</text>
</a>
</g>
</g>
<!-- Node1&#45;&gt;Node6 -->
<g id="edge5" class="edge">
<title>Node1&#45;&gt;Node6</title>
<path fill="none" stroke="midnightblue" d="M290.03,-41.76C305.84,-37.62 323.68,-33.03 340,-29 352.84,-25.83 366.84,-22.52 379.57,-19.56"/>
<polygon fill="midnightblue" stroke="midnightblue" points="288.74,-38.48 279.96,-44.4 290.52,-45.25 288.74,-38.48"/>
</g>
<!-- Node2 -->
<g id="node2" class="node">
<title>Node2</title>
<g id="a_node2"><a xlink:href="../../d9/dea/classnap_1_1_resource.html" target="_top" xlink:title=" ">
<polygon fill="white" stroke="black" points="84,-44.5 84,-63.5 146,-63.5 146,-44.5 84,-44.5"/>
<text text-anchor="middle" x="115" y="-51.5" font-family="Helvetica,sans-Serif" font-size="10.00">Resource</text>
</a>
</g>
</g>
<!-- Node2&#45;&gt;Node1 -->
<g id="edge1" class="edge">
<title>Node2&#45;&gt;Node1</title>
<path fill="none" stroke="midnightblue" d="M156.2,-54C164.39,-54 173.19,-54 181.91,-54"/>
<polygon fill="midnightblue" stroke="midnightblue" points="156.18,-50.5 146.18,-54 156.18,-57.5 156.18,-50.5"/>
</g>
<!-- Node3 -->
<g id="node3" class="node">
<title>Node3</title>
<g id="a_node3"><a xlink:href="../../de/d01/classnap_1_1rtti_1_1_object.html" target="_top" xlink:title=" ">
<polygon fill="white" stroke="black" points="0,-44.5 0,-63.5 48,-63.5 48,-44.5 0,-44.5"/>
<text text-anchor="middle" x="24" y="-51.5" font-family="Helvetica,sans-Serif" font-size="10.00">Object</text>
</a>
</g>
</g>
<!-- Node3&#45;&gt;Node2 -->
<g id="edge2" class="edge">
<title>Node3&#45;&gt;Node2</title>
<path fill="none" stroke="midnightblue" d="M58.49,-54C66.78,-54 75.61,-54 83.73,-54"/>
<polygon fill="midnightblue" stroke="midnightblue" points="58.38,-50.5 48.38,-54 58.38,-57.5 58.38,-50.5"/>
</g>
</g>
</svg>
