<?xml version="1.0" encoding="UTF-8" standalone="no"?>
<!DOCTYPE svg PUBLIC "-//W3C//DTD SVG 1.1//EN"
 "http://www.w3.org/Graphics/SVG/1.1/DTD/svg11.dtd">
<!-- Generated by graphviz version 2.43.0 (0)
 -->
<!-- Title: ColorPalette Pages: 1 -->
<svg width="157pt" height="319pt"
 viewBox="0.00 0.00 157.00 319.00" xmlns="http://www.w3.org/2000/svg" xmlns:xlink="http://www.w3.org/1999/xlink">
<g id="graph0" class="graph" transform="scale(1 1) rotate(0) translate(4 315)">
<title>ColorPalette</title>
<polygon fill="white" stroke="transparent" points="-4,4 -4,-315 153,-315 153,4 -4,4"/>
<!-- Node1 -->
<g id="node1" class="node">
<title>Node1</title>
<g id="a_node1"><a xlink:title=" ">
<polygon fill="#bfbfbf" stroke="black" points="17,-0.5 17,-19.5 93,-19.5 93,-0.5 17,-0.5"/>
<text text-anchor="middle" x="55" y="-7.5" font-family="Helvetica,sans-Serif" font-size="10.00">ColorPalette</text>
</a>
</g>
</g>
<!-- Node2 -->
<g id="node2" class="node">
<title>Node2</title>
<g id="a_node2"><a xlink:href="../../d4/dd7/classnap_1_1_r_g_b_color.html" target="_top" xlink:title=" ">
<polygon fill="white" stroke="black" points="0,-177.5 0,-196.5 110,-196.5 110,-177.5 0,-177.5"/>
<text text-anchor="middle" x="55" y="-184.5" font-family="Helvetica,sans-Serif" font-size="10.00">RGBColor&lt; uint8 &gt;</text>
</a>
</g>
</g>
<!-- Node2&#45;&gt;Node1 -->
<g id="edge1" class="edge">
<title>Node2&#45;&gt;Node1</title>
<path fill="none" stroke="#9a32cd" stroke-dasharray="5,2" d="M55,-166.95C55,-129.3 55,-46.65 55,-19.69"/>
<polygon fill="#9a32cd" stroke="#9a32cd" points="51.5,-167.08 55,-177.08 58.5,-167.08 51.5,-167.08"/>
<text text-anchor="middle" x="102" y="-151" font-family="Helvetica,sans-Serif" font-size="10.00"> mDarkColor</text>
<text text-anchor="middle" x="102" y="-140" font-family="Helvetica,sans-Serif" font-size="10.00">mHighlightColor1</text>
<text text-anchor="middle" x="102" y="-129" font-family="Helvetica,sans-Serif" font-size="10.00">mFront4Color</text>
<text text-anchor="middle" x="102" y="-118" font-family="Helvetica,sans-Serif" font-size="10.00">mHighlightColor2</text>
<text text-anchor="middle" x="102" y="-107" font-family="Helvetica,sans-Serif" font-size="10.00">mHighlightColor3</text>
<text text-anchor="middle" x="102" y="-96" font-family="Helvetica,sans-Serif" font-size="10.00">mFront2Color</text>
<text text-anchor="middle" x="102" y="-85" font-family="Helvetica,sans-Serif" font-size="10.00">mHighlightColor4</text>
<text text-anchor="middle" x="102" y="-74" font-family="Helvetica,sans-Serif" font-size="10.00">mFront3Color</text>
<text text-anchor="middle" x="102" y="-63" font-family="Helvetica,sans-Serif" font-size="10.00">mFront1Color</text>
<text text-anchor="middle" x="102" y="-52" font-family="Helvetica,sans-Serif" font-size="10.00">mBackgroundColor</text>
<text text-anchor="middle" x="102" y="-41" font-family="Helvetica,sans-Serif" font-size="10.00">...</text>
</g>
<!-- Node3 -->
<g id="node3" class="node">
<title>Node3</title>
<g id="a_node3"><a xlink:href="../../d6/d3d/classnap_1_1_color.html" target="_top" xlink:title=" ">
<polygon fill="white" stroke="black" points="4.5,-234.5 4.5,-253.5 105.5,-253.5 105.5,-234.5 4.5,-234.5"/>
<text text-anchor="middle" x="55" y="-241.5" font-family="Helvetica,sans-Serif" font-size="10.00">Color&lt; uint8, 3 &gt;</text>
</a>
</g>
</g>
<!-- Node3&#45;&gt;Node2 -->
<g id="edge2" class="edge">
<title>Node3&#45;&gt;Node2</title>
<path fill="none" stroke="midnightblue" d="M55,-224.12C55,-214.82 55,-204.06 55,-196.71"/>
<polygon fill="midnightblue" stroke="midnightblue" points="51.5,-224.41 55,-234.41 58.5,-224.41 51.5,-224.41"/>
</g>
<!-- Node4 -->
<g id="node4" class="node">
<title>Node4</title>
<g id="a_node4"><a xlink:href="../../d8/d6a/classnap_1_1_base_color.html" target="_top" xlink:title=" ">
<polygon fill="white" stroke="black" points="22,-291.5 22,-310.5 88,-310.5 88,-291.5 22,-291.5"/>
<text text-anchor="middle" x="55" y="-298.5" font-family="Helvetica,sans-Serif" font-size="10.00">BaseColor</text>
</a>
</g>
</g>
<!-- Node4&#45;&gt;Node3 -->
<g id="edge3" class="edge">
<title>Node4&#45;&gt;Node3</title>
<path fill="none" stroke="midnightblue" d="M55,-281.12C55,-271.82 55,-261.06 55,-253.71"/>
<polygon fill="midnightblue" stroke="midnightblue" points="51.5,-281.41 55,-291.41 58.5,-281.41 51.5,-281.41"/>
</g>
</g>
</svg>
