<?xml version="1.0" encoding="UTF-8" standalone="no"?>
<!DOCTYPE svg PUBLIC "-//W3C//DTD SVG 1.1//EN"
 "http://www.w3.org/Graphics/SVG/1.1/DTD/svg11.dtd">
<!-- Generated by graphviz version 2.48.0 (20210717.1556)
 -->
<!-- Title: PointerReleaseEvent Pages: 1 -->
<svg width="115pt" height="308pt"
 viewBox="0.00 0.00 115.00 308.00" xmlns="http://www.w3.org/2000/svg" xmlns:xlink="http://www.w3.org/1999/xlink">
<g id="graph0" class="graph" transform="scale(1 1) rotate(0) translate(4 304)">
<title>PointerReleaseEvent</title>
<polygon fill="white" stroke="transparent" points="-4,4 -4,-304 111,-304 111,4 -4,4"/>
<!-- Node0 -->
<g id="node1" class="node">
<title>Node0</title>
<polygon fill="#bfbfbf" stroke="black" points="0,-0.5 0,-19.5 107,-19.5 107,-0.5 0,-0.5"/>
<text text-anchor="middle" x="53.5" y="-7.5" font-family="Helvetica,sans-Serif" font-size="10.00">PointerReleaseEvent</text>
</g>
<!-- Node1 -->
<g id="node2" class="node">
<title>Node1</title>
<g id="a_node2"><a xlink:href="../../dd/d3f/classnap_1_1_pointer_click_event.html" target="_top" xlink:title="PointerClickEvent">
<polygon fill="white" stroke="black" points="7,-56.5 7,-75.5 100,-75.5 100,-56.5 7,-56.5"/>
<text text-anchor="middle" x="53.5" y="-63.5" font-family="Helvetica,sans-Serif" font-size="10.00">PointerClickEvent</text>
</a>
</g>
</g>
<!-- Node1&#45;&gt;Node0 -->
<g id="edge1" class="edge">
<title>Node1&#45;&gt;Node0</title>
<path fill="none" stroke="midnightblue" d="M53.5,-45.8C53.5,-36.91 53.5,-26.78 53.5,-19.75"/>
<polygon fill="midnightblue" stroke="midnightblue" points="50,-46.08 53.5,-56.08 57,-46.08 50,-46.08"/>
</g>
<!-- Node2 -->
<g id="node3" class="node">
<title>Node2</title>
<g id="a_node3"><a xlink:href="../../d3/d85/classnap_1_1_pointer_event.html" target="_top" xlink:title="PointerEvent">
<polygon fill="white" stroke="black" points="18,-112.5 18,-131.5 89,-131.5 89,-112.5 18,-112.5"/>
<text text-anchor="middle" x="53.5" y="-119.5" font-family="Helvetica,sans-Serif" font-size="10.00">PointerEvent</text>
</a>
</g>
</g>
<!-- Node2&#45;&gt;Node1 -->
<g id="edge2" class="edge">
<title>Node2&#45;&gt;Node1</title>
<path fill="none" stroke="midnightblue" d="M53.5,-101.8C53.5,-92.91 53.5,-82.78 53.5,-75.75"/>
<polygon fill="midnightblue" stroke="midnightblue" points="50,-102.08 53.5,-112.08 57,-102.08 50,-102.08"/>
</g>
<!-- Node3 -->
<g id="node4" class="node">
<title>Node3</title>
<g id="a_node4"><a xlink:href="../../d6/d58/classnap_1_1_window_input_event.html" target="_top" xlink:title="WindowInputEvent">
<polygon fill="white" stroke="black" points="5.5,-168.5 5.5,-187.5 101.5,-187.5 101.5,-168.5 5.5,-168.5"/>
<text text-anchor="middle" x="53.5" y="-175.5" font-family="Helvetica,sans-Serif" font-size="10.00">WindowInputEvent</text>
</a>
</g>
</g>
<!-- Node3&#45;&gt;Node2 -->
<g id="edge3" class="edge">
<title>Node3&#45;&gt;Node2</title>
<path fill="none" stroke="midnightblue" d="M53.5,-157.8C53.5,-148.91 53.5,-138.78 53.5,-131.75"/>
<polygon fill="midnightblue" stroke="midnightblue" points="50,-158.08 53.5,-168.08 57,-158.08 50,-158.08"/>
</g>
<!-- Node4 -->
<g id="node5" class="node">
<title>Node4</title>
<g id="a_node5"><a xlink:href="../../dc/dc0/classnap_1_1_input_event.html" target="_top" xlink:title="InputEvent">
<polygon fill="white" stroke="black" points="22.5,-224.5 22.5,-243.5 84.5,-243.5 84.5,-224.5 22.5,-224.5"/>
<text text-anchor="middle" x="53.5" y="-231.5" font-family="Helvetica,sans-Serif" font-size="10.00">InputEvent</text>
</a>
</g>
</g>
<!-- Node4&#45;&gt;Node3 -->
<g id="edge4" class="edge">
<title>Node4&#45;&gt;Node3</title>
<path fill="none" stroke="midnightblue" d="M53.5,-213.8C53.5,-204.91 53.5,-194.78 53.5,-187.75"/>
<polygon fill="midnightblue" stroke="midnightblue" points="50,-214.08 53.5,-224.08 57,-214.08 50,-214.08"/>
</g>
<!-- Node5 -->
<g id="node6" class="node">
<title>Node5</title>
<g id="a_node6"><a xlink:href="../../d2/da2/classnap_1_1_event.html" target="_top" xlink:title="Event">
<polygon fill="white" stroke="black" points="33,-280.5 33,-299.5 74,-299.5 74,-280.5 33,-280.5"/>
<text text-anchor="middle" x="53.5" y="-287.5" font-family="Helvetica,sans-Serif" font-size="10.00">Event</text>
</a>
</g>
</g>
<!-- Node5&#45;&gt;Node4 -->
<g id="edge5" class="edge">
<title>Node5&#45;&gt;Node4</title>
<path fill="none" stroke="midnightblue" d="M53.5,-269.8C53.5,-260.91 53.5,-250.78 53.5,-243.75"/>
<polygon fill="midnightblue" stroke="midnightblue" points="50,-270.08 53.5,-280.08 57,-270.08 50,-270.08"/>
</g>
</g>
</svg>
