<?xml version="1.0" encoding="UTF-8" standalone="no"?>
<!DOCTYPE svg PUBLIC "-//W3C//DTD SVG 1.1//EN"
 "http://www.w3.org/Graphics/SVG/1.1/DTD/svg11.dtd">
<!-- Generated by graphviz version 2.43.0 (0)
 -->
<!-- Title: Device Pages: 1 -->
<svg width="420pt" height="560pt"
 viewBox="0.00 0.00 420.00 560.00" xmlns="http://www.w3.org/2000/svg" xmlns:xlink="http://www.w3.org/1999/xlink">
<g id="graph0" class="graph" transform="scale(1 1) rotate(0) translate(4 556)">
<title>Device</title>
<polygon fill="white" stroke="transparent" points="-4,4 -4,-556 416,-556 416,4 -4,4"/>
<!-- Node1 -->
<g id="node1" class="node">
<title>Node1</title>
<g id="a_node1"><a xlink:title=" ">
<polygon fill="#bfbfbf" stroke="black" points="182,-266.5 182,-285.5 232,-285.5 232,-266.5 182,-266.5"/>
<text text-anchor="middle" x="207" y="-273.5" font-family="Helvetica,sans-Serif" font-size="10.00">Device</text>
</a>
</g>
</g>
<!-- Node4 -->
<g id="node4" class="node">
<title>Node4</title>
<g id="a_node4"><a xlink:href="../../d2/db1/classnap_1_1_art_net_controller.html" target="_top" xlink:title=" ">
<polygon fill="white" stroke="black" points="292,-532.5 292,-551.5 388,-551.5 388,-532.5 292,-532.5"/>
<text text-anchor="middle" x="340" y="-539.5" font-family="Helvetica,sans-Serif" font-size="10.00">ArtNetController</text>
</a>
</g>
</g>
<!-- Node1&#45;&gt;Node4 -->
<g id="edge3" class="edge">
<title>Node1&#45;&gt;Node4</title>
<path fill="none" stroke="midnightblue" d="M210.18,-295.52C216.41,-347.97 235.96,-490.21 268,-523 274.42,-529.57 282.85,-533.95 291.64,-536.85"/>
<polygon fill="midnightblue" stroke="midnightblue" points="213.64,-295.03 209.02,-285.5 206.69,-295.84 213.64,-295.03"/>
</g>
<!-- Node5 -->
<g id="node5" class="node">
<title>Node5</title>
<g id="a_node5"><a xlink:href="../../da/d11/classnap_1_1_art_net_receiver.html" target="_top" xlink:title=" ">
<polygon fill="white" stroke="black" points="294.5,-494.5 294.5,-513.5 385.5,-513.5 385.5,-494.5 294.5,-494.5"/>
<text text-anchor="middle" x="340" y="-501.5" font-family="Helvetica,sans-Serif" font-size="10.00">ArtNetReceiver</text>
</a>
</g>
</g>
<!-- Node1&#45;&gt;Node5 -->
<g id="edge4" class="edge">
<title>Node1&#45;&gt;Node5</title>
<path fill="none" stroke="midnightblue" d="M207.63,-295.61C207.98,-336.79 214.82,-432.78 268,-485 275.19,-492.06 284.71,-496.58 294.43,-499.44"/>
<polygon fill="midnightblue" stroke="midnightblue" points="211.13,-295.54 207.68,-285.53 204.13,-295.51 211.13,-295.54"/>
</g>
<!-- Node6 -->
<g id="node6" class="node">
<title>Node6</title>
<g id="a_node6"><a xlink:href="../../da/df8/classnap_1_1_c_v_capture_device.html" target="_top" xlink:title=" ">
<polygon fill="white" stroke="black" points="289,-456.5 289,-475.5 391,-475.5 391,-456.5 289,-456.5"/>
<text text-anchor="middle" x="340" y="-463.5" font-family="Helvetica,sans-Serif" font-size="10.00">CVCaptureDevice</text>
</a>
</g>
</g>
<!-- Node1&#45;&gt;Node6 -->
<g id="edge5" class="edge">
<title>Node1&#45;&gt;Node6</title>
<path fill="none" stroke="midnightblue" d="M209.15,-295.91C212.29,-331.54 224.06,-406.28 268,-447 273.9,-452.46 281.19,-456.39 288.84,-459.2"/>
<polygon fill="midnightblue" stroke="midnightblue" points="212.63,-295.52 208.4,-285.81 205.65,-296.04 212.63,-295.52"/>
</g>
<!-- Node7 -->
<g id="node7" class="node">
<title>Node7</title>
<g id="a_node7"><a xlink:href="../../d8/d58/classnap_1_1_ether_c_a_t_master.html" target="_top" xlink:title=" ">
<polygon fill="white" stroke="black" points="292.5,-418.5 292.5,-437.5 387.5,-437.5 387.5,-418.5 292.5,-418.5"/>
<text text-anchor="middle" x="340" y="-425.5" font-family="Helvetica,sans-Serif" font-size="10.00">EtherCATMaster</text>
</a>
</g>
</g>
<!-- Node1&#45;&gt;Node7 -->
<g id="edge6" class="edge">
<title>Node1&#45;&gt;Node7</title>
<path fill="none" stroke="midnightblue" d="M211.44,-295.93C217.54,-325.13 233.06,-379.32 268,-409 274.9,-414.87 283.44,-418.94 292.17,-421.76"/>
<polygon fill="midnightblue" stroke="midnightblue" points="214.8,-294.89 209.48,-285.73 207.93,-296.21 214.8,-294.89"/>
</g>
<!-- Node8 -->
<g id="node8" class="node">
<title>Node8</title>
<g id="a_node8"><a xlink:href="../../db/d61/classnap_1_1_ether_dream_dac.html" target="_top" xlink:title=" ">
<polygon fill="white" stroke="black" points="293,-380.5 293,-399.5 387,-399.5 387,-380.5 293,-380.5"/>
<text text-anchor="middle" x="340" y="-387.5" font-family="Helvetica,sans-Serif" font-size="10.00">EtherDreamDac</text>
</a>
</g>
</g>
<!-- Node1&#45;&gt;Node8 -->
<g id="edge7" class="edge">
<title>Node1&#45;&gt;Node8</title>
<path fill="none" stroke="midnightblue" d="M215.11,-295.24C224.1,-316.91 241.67,-351.62 268,-371 275.3,-376.37 284.01,-380.22 292.79,-382.99"/>
<polygon fill="midnightblue" stroke="midnightblue" points="218.3,-293.79 211.38,-285.77 211.79,-296.36 218.3,-293.79"/>
</g>
<!-- Node9 -->
<g id="node9" class="node">
<title>Node9</title>
<g id="a_node9"><a xlink:href="../../d5/d8d/classnap_1_1_midi_input_port.html" target="_top" xlink:title=" ">
<polygon fill="white" stroke="black" points="299,-342.5 299,-361.5 381,-361.5 381,-342.5 299,-342.5"/>
<text text-anchor="middle" x="340" y="-349.5" font-family="Helvetica,sans-Serif" font-size="10.00">MidiInputPort</text>
</a>
</g>
</g>
<!-- Node1&#45;&gt;Node9 -->
<g id="edge8" class="edge">
<title>Node1&#45;&gt;Node9</title>
<path fill="none" stroke="midnightblue" d="M221.95,-293.28C233.13,-306.03 249.9,-322.86 268,-333 277.46,-338.3 288.47,-342.18 298.95,-344.99"/>
<polygon fill="midnightblue" stroke="midnightblue" points="224.58,-290.97 215.45,-285.6 219.24,-295.49 224.58,-290.97"/>
</g>
<!-- Node10 -->
<g id="node10" class="node">
<title>Node10</title>
<g id="a_node10"><a xlink:href="../../dd/d23/classnap_1_1_midi_output_port.html" target="_top" xlink:title=" ">
<polygon fill="white" stroke="black" points="295,-304.5 295,-323.5 385,-323.5 385,-304.5 295,-304.5"/>
<text text-anchor="middle" x="340" y="-311.5" font-family="Helvetica,sans-Serif" font-size="10.00">MidiOutputPort</text>
</a>
</g>
</g>
<!-- Node1&#45;&gt;Node10 -->
<g id="edge9" class="edge">
<title>Node1&#45;&gt;Node10</title>
<path fill="none" stroke="midnightblue" d="M241.8,-287C250.33,-289.69 259.48,-292.51 268,-295 279.02,-298.22 291.07,-301.52 302.06,-304.45"/>
<polygon fill="midnightblue" stroke="midnightblue" points="242.75,-283.63 232.15,-283.92 240.62,-290.29 242.75,-283.63"/>
</g>
<!-- Node11 -->
<g id="node11" class="node">
<title>Node11</title>
<g id="a_node11"><a xlink:href="../../dc/d99/classnap_1_1_o_s_c_receiver.html" target="_top" xlink:title=" ">
<polygon fill="white" stroke="black" points="300,-266.5 300,-285.5 380,-285.5 380,-266.5 300,-266.5"/>
<text text-anchor="middle" x="340" y="-273.5" font-family="Helvetica,sans-Serif" font-size="10.00">OSCReceiver</text>
</a>
</g>
</g>
<!-- Node1&#45;&gt;Node11 -->
<g id="edge10" class="edge">
<title>Node1&#45;&gt;Node11</title>
<path fill="none" stroke="midnightblue" d="M242.45,-276C260.11,-276 281.68,-276 299.95,-276"/>
<polygon fill="midnightblue" stroke="midnightblue" points="242.03,-272.5 232.03,-276 242.03,-279.5 242.03,-272.5"/>
</g>
<!-- Node12 -->
<g id="node12" class="node">
<title>Node12</title>
<g id="a_node12"><a xlink:href="../../db/d06/classnap_1_1_o_s_c_sender.html" target="_top" xlink:title=" ">
<polygon fill="white" stroke="black" points="304.5,-228.5 304.5,-247.5 375.5,-247.5 375.5,-228.5 304.5,-228.5"/>
<text text-anchor="middle" x="340" y="-235.5" font-family="Helvetica,sans-Serif" font-size="10.00">OSCSender</text>
</a>
</g>
</g>
<!-- Node1&#45;&gt;Node12 -->
<g id="edge11" class="edge">
<title>Node1&#45;&gt;Node12</title>
<path fill="none" stroke="midnightblue" d="M241.8,-265C250.33,-262.31 259.48,-259.49 268,-257 279.76,-253.57 292.68,-250.04 304.24,-246.96"/>
<polygon fill="midnightblue" stroke="midnightblue" points="240.62,-261.71 232.15,-268.08 242.75,-268.37 240.62,-261.71"/>
</g>
<!-- Node13 -->
<g id="node13" class="node">
<title>Node13</title>
<g id="a_node13"><a xlink:href="../../dc/d17/classnap_1_1_sequence_player.html" target="_top" xlink:title=" ">
<polygon fill="white" stroke="black" points="292.5,-190.5 292.5,-209.5 387.5,-209.5 387.5,-190.5 292.5,-190.5"/>
<text text-anchor="middle" x="340" y="-197.5" font-family="Helvetica,sans-Serif" font-size="10.00">SequencePlayer</text>
</a>
</g>
</g>
<!-- Node1&#45;&gt;Node13 -->
<g id="edge12" class="edge">
<title>Node1&#45;&gt;Node13</title>
<path fill="none" stroke="midnightblue" d="M221.95,-258.72C233.13,-245.97 249.9,-229.14 268,-219 275.46,-214.82 283.88,-211.53 292.24,-208.94"/>
<polygon fill="midnightblue" stroke="midnightblue" points="219.24,-256.51 215.45,-266.4 224.58,-261.03 219.24,-256.51"/>
</g>
<!-- Node14 -->
<g id="node14" class="node">
<title>Node14</title>
<g id="a_node14"><a xlink:href="../../d5/db1/classnap_1_1_serial_port.html" target="_top" xlink:title=" ">
<polygon fill="white" stroke="black" points="308,-152.5 308,-171.5 372,-171.5 372,-152.5 308,-152.5"/>
<text text-anchor="middle" x="340" y="-159.5" font-family="Helvetica,sans-Serif" font-size="10.00">SerialPort</text>
</a>
</g>
</g>
<!-- Node1&#45;&gt;Node14 -->
<g id="edge13" class="edge">
<title>Node1&#45;&gt;Node14</title>
<path fill="none" stroke="midnightblue" d="M215.11,-256.76C224.1,-235.09 241.67,-200.38 268,-181 279.51,-172.53 294.54,-167.83 307.8,-165.23"/>
<polygon fill="midnightblue" stroke="midnightblue" points="211.79,-255.64 211.38,-266.23 218.3,-258.21 211.79,-255.64"/>
</g>
<!-- Node15 -->
<g id="node15" class="node">
<title>Node15</title>
<g id="a_node15"><a xlink:href="../../d0/d7d/classnap_1_1_u_d_p_thread.html" target="_top" xlink:title=" ">
<polygon fill="white" stroke="black" points="304.5,-114.5 304.5,-133.5 375.5,-133.5 375.5,-114.5 304.5,-114.5"/>
<text text-anchor="middle" x="340" y="-121.5" font-family="Helvetica,sans-Serif" font-size="10.00">UDPThread</text>
</a>
</g>
</g>
<!-- Node1&#45;&gt;Node15 -->
<g id="edge14" class="edge">
<title>Node1&#45;&gt;Node15</title>
<path fill="none" stroke="midnightblue" d="M211.44,-256.07C217.54,-226.87 233.06,-172.68 268,-143 278.11,-134.41 291.73,-129.66 304.33,-127.05"/>
<polygon fill="midnightblue" stroke="midnightblue" points="207.93,-255.79 209.48,-266.27 214.8,-257.11 207.93,-255.79"/>
</g>
<!-- Node16 -->
<g id="node16" class="node">
<title>Node16</title>
<g id="a_node16"><a xlink:href="../../d3/d08/classnap_1_1_video_player.html" target="_top" xlink:title=" ">
<polygon fill="white" stroke="black" points="302.5,-76.5 302.5,-95.5 377.5,-95.5 377.5,-76.5 302.5,-76.5"/>
<text text-anchor="middle" x="340" y="-83.5" font-family="Helvetica,sans-Serif" font-size="10.00">VideoPlayer</text>
</a>
</g>
</g>
<!-- Node1&#45;&gt;Node16 -->
<g id="edge15" class="edge">
<title>Node1&#45;&gt;Node16</title>
<path fill="none" stroke="midnightblue" d="M209.15,-256.09C212.29,-220.46 224.06,-145.72 268,-105 277.36,-96.33 290.24,-91.53 302.46,-88.9"/>
<polygon fill="midnightblue" stroke="midnightblue" points="205.65,-255.96 208.4,-266.19 212.63,-256.48 205.65,-255.96"/>
</g>
<!-- Node17 -->
<g id="node17" class="node">
<title>Node17</title>
<g id="a_node17"><a xlink:href="../../d2/d22/classnap_1_1_web_socket_client_end_point.html" target="_top" xlink:title=" ">
<polygon fill="white" stroke="black" points="269.5,-38.5 269.5,-57.5 410.5,-57.5 410.5,-38.5 269.5,-38.5"/>
<text text-anchor="middle" x="340" y="-45.5" font-family="Helvetica,sans-Serif" font-size="10.00">WebSocketClientEndPoint</text>
</a>
</g>
</g>
<!-- Node1&#45;&gt;Node17 -->
<g id="edge16" class="edge">
<title>Node1&#45;&gt;Node17</title>
<path fill="none" stroke="midnightblue" d="M207.63,-256.39C207.98,-215.21 214.82,-119.22 268,-67 271.91,-63.16 276.52,-60.07 281.47,-57.59"/>
<polygon fill="midnightblue" stroke="midnightblue" points="204.13,-256.49 207.68,-266.47 211.13,-256.46 204.13,-256.49"/>
</g>
<!-- Node18 -->
<g id="node18" class="node">
<title>Node18</title>
<g id="a_node18"><a xlink:href="../../d0/d01/classnap_1_1_web_socket_server_end_point.html" target="_top" xlink:title=" ">
<polygon fill="white" stroke="black" points="268,-0.5 268,-19.5 412,-19.5 412,-0.5 268,-0.5"/>
<text text-anchor="middle" x="340" y="-7.5" font-family="Helvetica,sans-Serif" font-size="10.00">WebSocketServerEndPoint</text>
</a>
</g>
</g>
<!-- Node1&#45;&gt;Node18 -->
<g id="edge17" class="edge">
<title>Node1&#45;&gt;Node18</title>
<path fill="none" stroke="midnightblue" d="M210.18,-256.48C216.41,-204.03 235.96,-61.79 268,-29 271.75,-25.17 276.17,-22.08 280.96,-19.6"/>
<polygon fill="midnightblue" stroke="midnightblue" points="206.69,-256.16 209.02,-266.5 213.64,-256.97 206.69,-256.16"/>
</g>
<!-- Node2 -->
<g id="node2" class="node">
<title>Node2</title>
<g id="a_node2"><a xlink:href="../../d9/dea/classnap_1_1_resource.html" target="_top" xlink:title=" ">
<polygon fill="white" stroke="black" points="84,-266.5 84,-285.5 146,-285.5 146,-266.5 84,-266.5"/>
<text text-anchor="middle" x="115" y="-273.5" font-family="Helvetica,sans-Serif" font-size="10.00">Resource</text>
</a>
</g>
</g>
<!-- Node2&#45;&gt;Node1 -->
<g id="edge1" class="edge">
<title>Node2&#45;&gt;Node1</title>
<path fill="none" stroke="midnightblue" d="M156.74,-276C165.31,-276 174.09,-276 181.82,-276"/>
<polygon fill="midnightblue" stroke="midnightblue" points="156.47,-272.5 146.47,-276 156.47,-279.5 156.47,-272.5"/>
</g>
<!-- Node3 -->
<g id="node3" class="node">
<title>Node3</title>
<g id="a_node3"><a xlink:href="../../de/d01/classnap_1_1rtti_1_1_object.html" target="_top" xlink:title=" ">
<polygon fill="white" stroke="black" points="0,-266.5 0,-285.5 48,-285.5 48,-266.5 0,-266.5"/>
<text text-anchor="middle" x="24" y="-273.5" font-family="Helvetica,sans-Serif" font-size="10.00">Object</text>
</a>
</g>
</g>
<!-- Node3&#45;&gt;Node2 -->
<g id="edge2" class="edge">
<title>Node3&#45;&gt;Node2</title>
<path fill="none" stroke="midnightblue" d="M58.49,-276C66.78,-276 75.61,-276 83.73,-276"/>
<polygon fill="midnightblue" stroke="midnightblue" points="58.38,-272.5 48.38,-276 58.38,-279.5 58.38,-272.5"/>
</g>
</g>
</svg>
