<?xml version="1.0" encoding="UTF-8" standalone="no"?>
<!DOCTYPE svg PUBLIC "-//W3C//DTD SVG 1.1//EN"
 "http://www.w3.org/Graphics/SVG/1.1/DTD/svg11.dtd">
<!-- Generated by graphviz version 2.48.0 (20210717.1556)
 -->
<!-- Title: Device Pages: 1 -->
<svg width="398pt" height="560pt"
 viewBox="0.00 0.00 398.00 560.00" xmlns="http://www.w3.org/2000/svg" xmlns:xlink="http://www.w3.org/1999/xlink">
<g id="graph0" class="graph" transform="scale(1 1) rotate(0) translate(4 556)">
<title>Device</title>
<polygon fill="white" stroke="transparent" points="-4,4 -4,-556 394,-556 394,4 -4,4"/>
<!-- Node0 -->
<g id="node1" class="node">
<title>Node0</title>
<polygon fill="#bfbfbf" stroke="black" points="175,-266.5 175,-285.5 220,-285.5 220,-266.5 175,-266.5"/>
<text text-anchor="middle" x="197.5" y="-273.5" font-family="Helvetica,sans-Serif" font-size="10.00">Device</text>
</g>
<!-- Node3 -->
<g id="node4" class="node">
<title>Node3</title>
<g id="a_node4"><a xlink:href="../../d2/db1/classnap_1_1_art_net_controller.html" target="_top" xlink:title="ArtNetController">
<polygon fill="white" stroke="black" points="280,-532.5 280,-551.5 366,-551.5 366,-532.5 280,-532.5"/>
<text text-anchor="middle" x="323" y="-539.5" font-family="Helvetica,sans-Serif" font-size="10.00">ArtNetController</text>
</a>
</g>
</g>
<!-- Node0&#45;&gt;Node3 -->
<g id="edge3" class="edge">
<title>Node0&#45;&gt;Node3</title>
<path fill="none" stroke="midnightblue" d="M200.54,-295.83C206.34,-348.46 224.58,-489.91 256,-523 262.4,-529.74 271.03,-534.14 279.94,-537"/>
<polygon fill="midnightblue" stroke="midnightblue" points="204.01,-295.33 199.46,-285.76 197.05,-296.07 204.01,-295.33"/>
</g>
<!-- Node4 -->
<g id="node5" class="node">
<title>Node4</title>
<g id="a_node5"><a xlink:href="../../da/d11/classnap_1_1_art_net_receiver.html" target="_top" xlink:title="ArtNetReceiver">
<polygon fill="white" stroke="black" points="282.5,-494.5 282.5,-513.5 363.5,-513.5 363.5,-494.5 282.5,-494.5"/>
<text text-anchor="middle" x="323" y="-501.5" font-family="Helvetica,sans-Serif" font-size="10.00">ArtNetReceiver</text>
</a>
</g>
</g>
<!-- Node0&#45;&gt;Node4 -->
<g id="edge4" class="edge">
<title>Node0&#45;&gt;Node4</title>
<path fill="none" stroke="midnightblue" d="M197.95,-296.08C197.96,-337.39 204.01,-432.4 256,-485 263.04,-492.12 272.57,-496.62 282.19,-499.44"/>
<polygon fill="midnightblue" stroke="midnightblue" points="201.45,-295.98 198.08,-285.94 194.45,-295.89 201.45,-295.98"/>
</g>
<!-- Node5 -->
<g id="node6" class="node">
<title>Node5</title>
<g id="a_node6"><a xlink:href="../../da/df8/classnap_1_1_c_v_capture_device.html" target="_top" xlink:title="CVCaptureDevice">
<polygon fill="white" stroke="black" points="277,-456.5 277,-475.5 369,-475.5 369,-456.5 277,-456.5"/>
<text text-anchor="middle" x="323" y="-463.5" font-family="Helvetica,sans-Serif" font-size="10.00">CVCaptureDevice</text>
</a>
</g>
</g>
<!-- Node0&#45;&gt;Node5 -->
<g id="edge5" class="edge">
<title>Node0&#45;&gt;Node5</title>
<path fill="none" stroke="midnightblue" d="M199.4,-295.81C202.11,-331.28 212.91,-405.77 256,-447 261.86,-452.61 269.26,-456.57 276.97,-459.38"/>
<polygon fill="midnightblue" stroke="midnightblue" points="202.89,-295.52 198.78,-285.76 195.91,-295.96 202.89,-295.52"/>
</g>
<!-- Node6 -->
<g id="node7" class="node">
<title>Node6</title>
<g id="a_node7"><a xlink:href="../../d8/d58/classnap_1_1_ether_c_a_t_master.html" target="_top" xlink:title="EtherCATMaster">
<polygon fill="white" stroke="black" points="278.5,-418.5 278.5,-437.5 367.5,-437.5 367.5,-418.5 278.5,-418.5"/>
<text text-anchor="middle" x="323" y="-425.5" font-family="Helvetica,sans-Serif" font-size="10.00">EtherCATMaster</text>
</a>
</g>
</g>
<!-- Node0&#45;&gt;Node6 -->
<g id="edge6" class="edge">
<title>Node0&#45;&gt;Node6</title>
<path fill="none" stroke="midnightblue" d="M201.61,-295.82C207.23,-324.91 221.82,-378.93 256,-409 262.36,-414.59 270.26,-418.54 278.37,-421.33"/>
<polygon fill="midnightblue" stroke="midnightblue" points="205.01,-294.92 199.83,-285.68 198.11,-296.13 205.01,-294.92"/>
</g>
<!-- Node7 -->
<g id="node8" class="node">
<title>Node7</title>
<g id="a_node8"><a xlink:href="../../db/d61/classnap_1_1_ether_dream_dac.html" target="_top" xlink:title="EtherDreamDac">
<polygon fill="white" stroke="black" points="280,-380.5 280,-399.5 366,-399.5 366,-380.5 280,-380.5"/>
<text text-anchor="middle" x="323" y="-387.5" font-family="Helvetica,sans-Serif" font-size="10.00">EtherDreamDac</text>
</a>
</g>
</g>
<!-- Node0&#45;&gt;Node7 -->
<g id="edge7" class="edge">
<title>Node0&#45;&gt;Node7</title>
<path fill="none" stroke="midnightblue" d="M205.16,-295.14C213.64,-316.73 230.35,-351.36 256,-371 263.01,-376.36 271.48,-380.21 279.98,-382.98"/>
<polygon fill="midnightblue" stroke="midnightblue" points="208.42,-293.87 201.65,-285.72 201.86,-296.31 208.42,-293.87"/>
</g>
<!-- Node8 -->
<g id="node9" class="node">
<title>Node8</title>
<g id="a_node9"><a xlink:href="../../d5/d8d/classnap_1_1_midi_input_port.html" target="_top" xlink:title="MidiInputPort">
<polygon fill="white" stroke="black" points="286,-342.5 286,-361.5 360,-361.5 360,-342.5 286,-342.5"/>
<text text-anchor="middle" x="323" y="-349.5" font-family="Helvetica,sans-Serif" font-size="10.00">MidiInputPort</text>
</a>
</g>
</g>
<!-- Node0&#45;&gt;Node8 -->
<g id="edge8" class="edge">
<title>Node0&#45;&gt;Node8</title>
<path fill="none" stroke="midnightblue" d="M212.09,-293.57C222.75,-306.23 238.66,-322.83 256,-333 265.05,-338.31 275.68,-342.22 285.73,-345.05"/>
<polygon fill="midnightblue" stroke="midnightblue" points="214.6,-291.11 205.59,-285.55 209.17,-295.52 214.6,-291.11"/>
</g>
<!-- Node9 -->
<g id="node10" class="node">
<title>Node9</title>
<g id="a_node10"><a xlink:href="../../dd/d23/classnap_1_1_midi_output_port.html" target="_top" xlink:title="MidiOutputPort">
<polygon fill="white" stroke="black" points="282,-304.5 282,-323.5 364,-323.5 364,-304.5 282,-304.5"/>
<text text-anchor="middle" x="323" y="-311.5" font-family="Helvetica,sans-Serif" font-size="10.00">MidiOutputPort</text>
</a>
</g>
</g>
<!-- Node0&#45;&gt;Node9 -->
<g id="edge9" class="edge">
<title>Node0&#45;&gt;Node9</title>
<path fill="none" stroke="midnightblue" d="M229.6,-286.52C238.14,-289.34 247.41,-292.34 256,-295 266.37,-298.2 277.7,-301.53 288.01,-304.49"/>
<polygon fill="midnightblue" stroke="midnightblue" points="230.6,-283.17 220.01,-283.33 228.39,-289.81 230.6,-283.17"/>
</g>
<!-- Node10 -->
<g id="node11" class="node">
<title>Node10</title>
<g id="a_node11"><a xlink:href="../../dc/d99/classnap_1_1_o_s_c_receiver.html" target="_top" xlink:title="OSCReceiver">
<polygon fill="white" stroke="black" points="286,-266.5 286,-285.5 360,-285.5 360,-266.5 286,-266.5"/>
<text text-anchor="middle" x="323" y="-273.5" font-family="Helvetica,sans-Serif" font-size="10.00">OSCReceiver</text>
</a>
</g>
</g>
<!-- Node0&#45;&gt;Node10 -->
<g id="edge10" class="edge">
<title>Node0&#45;&gt;Node10</title>
<path fill="none" stroke="midnightblue" d="M230.49,-276C247.4,-276 268.24,-276 285.75,-276"/>
<polygon fill="midnightblue" stroke="midnightblue" points="230.01,-272.5 220.01,-276 230.01,-279.5 230.01,-272.5"/>
</g>
<!-- Node11 -->
<g id="node12" class="node">
<title>Node11</title>
<g id="a_node12"><a xlink:href="../../db/d06/classnap_1_1_o_s_c_sender.html" target="_top" xlink:title="OSCSender">
<polygon fill="white" stroke="black" points="289,-228.5 289,-247.5 357,-247.5 357,-228.5 289,-228.5"/>
<text text-anchor="middle" x="323" y="-235.5" font-family="Helvetica,sans-Serif" font-size="10.00">OSCSender</text>
</a>
</g>
</g>
<!-- Node0&#45;&gt;Node11 -->
<g id="edge11" class="edge">
<title>Node0&#45;&gt;Node11</title>
<path fill="none" stroke="midnightblue" d="M229.6,-265.48C238.14,-262.66 247.41,-259.66 256,-257 266.59,-253.73 278.2,-250.32 288.69,-247.32"/>
<polygon fill="midnightblue" stroke="midnightblue" points="228.39,-262.19 220.01,-268.67 230.6,-268.83 228.39,-262.19"/>
</g>
<!-- Node12 -->
<g id="node13" class="node">
<title>Node12</title>
<g id="a_node13"><a xlink:href="../../dc/d17/classnap_1_1_sequence_player.html" target="_top" xlink:title="SequencePlayer">
<polygon fill="white" stroke="black" points="279,-190.5 279,-209.5 367,-209.5 367,-190.5 279,-190.5"/>
<text text-anchor="middle" x="323" y="-197.5" font-family="Helvetica,sans-Serif" font-size="10.00">SequencePlayer</text>
</a>
</g>
</g>
<!-- Node0&#45;&gt;Node12 -->
<g id="edge12" class="edge">
<title>Node0&#45;&gt;Node12</title>
<path fill="none" stroke="midnightblue" d="M212.09,-258.43C222.75,-245.77 238.66,-229.17 256,-219 262.99,-214.9 270.93,-211.63 278.81,-209.05"/>
<polygon fill="midnightblue" stroke="midnightblue" points="209.17,-256.48 205.59,-266.45 214.6,-260.89 209.17,-256.48"/>
</g>
<!-- Node13 -->
<g id="node14" class="node">
<title>Node13</title>
<g id="a_node14"><a xlink:href="../../d5/db1/classnap_1_1_serial_port.html" target="_top" xlink:title="SerialPort">
<polygon fill="white" stroke="black" points="293.5,-152.5 293.5,-171.5 352.5,-171.5 352.5,-152.5 293.5,-152.5"/>
<text text-anchor="middle" x="323" y="-159.5" font-family="Helvetica,sans-Serif" font-size="10.00">SerialPort</text>
</a>
</g>
</g>
<!-- Node0&#45;&gt;Node13 -->
<g id="edge13" class="edge">
<title>Node0&#45;&gt;Node13</title>
<path fill="none" stroke="midnightblue" d="M205.16,-256.86C213.64,-235.27 230.35,-200.64 256,-181 266.7,-172.81 280.81,-168.15 293.24,-165.5"/>
<polygon fill="midnightblue" stroke="midnightblue" points="201.86,-255.69 201.65,-266.28 208.42,-258.13 201.86,-255.69"/>
</g>
<!-- Node14 -->
<g id="node15" class="node">
<title>Node14</title>
<g id="a_node15"><a xlink:href="../../d0/d7d/classnap_1_1_u_d_p_thread.html" target="_top" xlink:title="UDPThread">
<polygon fill="white" stroke="black" points="290,-114.5 290,-133.5 356,-133.5 356,-114.5 290,-114.5"/>
<text text-anchor="middle" x="323" y="-121.5" font-family="Helvetica,sans-Serif" font-size="10.00">UDPThread</text>
</a>
</g>
</g>
<!-- Node0&#45;&gt;Node14 -->
<g id="edge14" class="edge">
<title>Node0&#45;&gt;Node14</title>
<path fill="none" stroke="midnightblue" d="M201.61,-256.18C207.23,-227.09 221.82,-173.07 256,-143 265.31,-134.81 277.95,-130.14 289.67,-127.48"/>
<polygon fill="midnightblue" stroke="midnightblue" points="198.11,-255.87 199.83,-266.32 205.01,-257.08 198.11,-255.87"/>
</g>
<!-- Node15 -->
<g id="node16" class="node">
<title>Node15</title>
<g id="a_node16"><a xlink:href="../../d3/d08/classnap_1_1_video_player.html" target="_top" xlink:title="VideoPlayer">
<polygon fill="white" stroke="black" points="288.5,-76.5 288.5,-95.5 357.5,-95.5 357.5,-76.5 288.5,-76.5"/>
<text text-anchor="middle" x="323" y="-83.5" font-family="Helvetica,sans-Serif" font-size="10.00">VideoPlayer</text>
</a>
</g>
</g>
<!-- Node0&#45;&gt;Node15 -->
<g id="edge15" class="edge">
<title>Node0&#45;&gt;Node15</title>
<path fill="none" stroke="midnightblue" d="M199.4,-256.19C202.11,-220.72 212.91,-146.23 256,-105 264.7,-96.67 276.81,-91.96 288.28,-89.3"/>
<polygon fill="midnightblue" stroke="midnightblue" points="195.91,-256.04 198.78,-266.24 202.89,-256.48 195.91,-256.04"/>
</g>
<!-- Node16 -->
<g id="node17" class="node">
<title>Node16</title>
<g id="a_node17"><a xlink:href="../../d2/d22/classnap_1_1_web_socket_client_end_point.html" target="_top" xlink:title="WebSocketClientEndPoint">
<polygon fill="white" stroke="black" points="257,-38.5 257,-57.5 389,-57.5 389,-38.5 257,-38.5"/>
<text text-anchor="middle" x="323" y="-45.5" font-family="Helvetica,sans-Serif" font-size="10.00">WebSocketClientEndPoint</text>
</a>
</g>
</g>
<!-- Node0&#45;&gt;Node16 -->
<g id="edge16" class="edge">
<title>Node0&#45;&gt;Node16</title>
<path fill="none" stroke="midnightblue" d="M197.95,-255.92C197.96,-214.61 204.01,-119.6 256,-67 259.86,-63.1 264.46,-59.99 269.41,-57.5"/>
<polygon fill="midnightblue" stroke="midnightblue" points="194.45,-256.11 198.08,-266.06 201.45,-256.02 194.45,-256.11"/>
</g>
<!-- Node17 -->
<g id="node18" class="node">
<title>Node17</title>
<g id="a_node18"><a xlink:href="../../d0/d01/classnap_1_1_web_socket_server_end_point.html" target="_top" xlink:title="WebSocketServerEndPoint">
<polygon fill="white" stroke="black" points="256,-0.5 256,-19.5 390,-19.5 390,-0.5 256,-0.5"/>
<text text-anchor="middle" x="323" y="-7.5" font-family="Helvetica,sans-Serif" font-size="10.00">WebSocketServerEndPoint</text>
</a>
</g>
</g>
<!-- Node0&#45;&gt;Node17 -->
<g id="edge17" class="edge">
<title>Node0&#45;&gt;Node17</title>
<path fill="none" stroke="midnightblue" d="M200.54,-256.17C206.34,-203.54 224.58,-62.09 256,-29 259.69,-25.11 264.13,-22 268.93,-19.52"/>
<polygon fill="midnightblue" stroke="midnightblue" points="197.05,-255.93 199.46,-266.24 204.01,-256.67 197.05,-255.93"/>
</g>
<!-- Node1 -->
<g id="node2" class="node">
<title>Node1</title>
<g id="a_node2"><a xlink:href="../../d9/dea/classnap_1_1_resource.html" target="_top" xlink:title="Resource">
<polygon fill="white" stroke="black" points="81,-266.5 81,-285.5 139,-285.5 139,-266.5 81,-266.5"/>
<text text-anchor="middle" x="110" y="-273.5" font-family="Helvetica,sans-Serif" font-size="10.00">Resource</text>
</a>
</g>
</g>
<!-- Node1&#45;&gt;Node0 -->
<g id="edge1" class="edge">
<title>Node1&#45;&gt;Node0</title>
<path fill="none" stroke="midnightblue" d="M149.51,-276C158.23,-276 167.19,-276 174.92,-276"/>
<polygon fill="midnightblue" stroke="midnightblue" points="149.47,-272.5 139.47,-276 149.47,-279.5 149.47,-272.5"/>
</g>
<!-- Node2 -->
<g id="node3" class="node">
<title>Node2</title>
<g id="a_node3"><a xlink:href="../../de/d01/classnap_1_1rtti_1_1_object.html" target="_top" xlink:title="Object">
<polygon fill="white" stroke="black" points="0,-266.5 0,-285.5 45,-285.5 45,-266.5 0,-266.5"/>
<text text-anchor="middle" x="22.5" y="-273.5" font-family="Helvetica,sans-Serif" font-size="10.00">Object</text>
</a>
</g>
</g>
<!-- Node2&#45;&gt;Node1 -->
<g id="edge2" class="edge">
<title>Node2&#45;&gt;Node1</title>
<path fill="none" stroke="midnightblue" d="M55.31,-276C63.73,-276 72.76,-276 80.96,-276"/>
<polygon fill="midnightblue" stroke="midnightblue" points="55.08,-272.5 45.08,-276 55.08,-279.5 55.08,-272.5"/>
</g>
</g>
</svg>
