<?xml version="1.0" encoding="UTF-8" standalone="no"?>
<!DOCTYPE svg PUBLIC "-//W3C//DTD SVG 1.1//EN"
 "http://www.w3.org/Graphics/SVG/1.1/DTD/svg11.dtd">
<!-- Generated by graphviz version 2.48.0 (20210717.1556)
 -->
<!-- Title: GPUBufferNumeric Pages: 1 -->
<svg width="300pt" height="319pt"
 viewBox="0.00 0.00 299.50 319.00" xmlns="http://www.w3.org/2000/svg" xmlns:xlink="http://www.w3.org/1999/xlink">
<g id="graph0" class="graph" transform="scale(1 1) rotate(0) translate(4 315)">
<title>GPUBufferNumeric</title>
<polygon fill="white" stroke="transparent" points="-4,4 -4,-315 295.5,-315 295.5,4 -4,4"/>
<!-- Node0 -->
<g id="node1" class="node">
<title>Node0</title>
<polygon fill="#bfbfbf" stroke="black" points="102,-123.5 102,-142.5 200,-142.5 200,-123.5 102,-123.5"/>
<text text-anchor="middle" x="151" y="-130.5" font-family="Helvetica,sans-Serif" font-size="10.00">GPUBufferNumeric</text>
</g>
<!-- Node4 -->
<g id="node5" class="node">
<title>Node4</title>
<g id="a_node5"><a xlink:href="../../d4/d83/classnap_1_1_typed_g_p_u_buffer_numeric.html" target="_top" xlink:title="TypedGPUBufferNumeric\&lt; T \&gt;">
<polygon fill="white" stroke="black" points="0,-62 0,-81 148,-81 148,-62 0,-62"/>
<text text-anchor="middle" x="74" y="-69" font-family="Helvetica,sans-Serif" font-size="10.00">TypedGPUBufferNumeric&lt; T &gt;</text>
</a>
</g>
</g>
<!-- Node0&#45;&gt;Node4 -->
<g id="edge4" class="edge">
<title>Node0&#45;&gt;Node4</title>
<path fill="none" stroke="midnightblue" d="M131.97,-117.29C117.2,-105.88 97.24,-90.46 85.01,-81.01"/>
<polygon fill="midnightblue" stroke="midnightblue" points="129.91,-120.13 139.97,-123.48 134.19,-114.59 129.91,-120.13"/>
</g>
<!-- Node6 -->
<g id="node7" class="node">
<title>Node6</title>
<g id="a_node7"><a xlink:href="../../d4/d83/classnap_1_1_typed_g_p_u_buffer_numeric.html" target="_top" xlink:title="TypedGPUBufferNumeric\l\&lt; uint \&gt;">
<polygon fill="white" stroke="black" points="166.5,-56.5 166.5,-86.5 291.5,-86.5 291.5,-56.5 166.5,-56.5"/>
<text text-anchor="start" x="174.5" y="-74.5" font-family="Helvetica,sans-Serif" font-size="10.00">TypedGPUBufferNumeric</text>
<text text-anchor="middle" x="229" y="-63.5" font-family="Helvetica,sans-Serif" font-size="10.00">&lt; uint &gt;</text>
</a>
</g>
</g>
<!-- Node0&#45;&gt;Node6 -->
<g id="edge6" class="edge">
<title>Node0&#45;&gt;Node6</title>
<path fill="none" stroke="midnightblue" d="M170.41,-117.2C182.71,-107.81 198.52,-95.75 210.62,-86.52"/>
<polygon fill="midnightblue" stroke="midnightblue" points="168,-114.63 162.18,-123.48 172.25,-120.19 168,-114.63"/>
</g>
<!-- Node1 -->
<g id="node2" class="node">
<title>Node1</title>
<g id="a_node2"><a xlink:href="../../dd/df4/classnap_1_1_g_p_u_buffer.html" target="_top" xlink:title="GPUBuffer">
<polygon fill="white" stroke="black" points="120,-179.5 120,-198.5 182,-198.5 182,-179.5 120,-179.5"/>
<text text-anchor="middle" x="151" y="-186.5" font-family="Helvetica,sans-Serif" font-size="10.00">GPUBuffer</text>
</a>
</g>
</g>
<!-- Node1&#45;&gt;Node0 -->
<g id="edge1" class="edge">
<title>Node1&#45;&gt;Node0</title>
<path fill="none" stroke="midnightblue" d="M151,-168.8C151,-159.91 151,-149.78 151,-142.75"/>
<polygon fill="midnightblue" stroke="midnightblue" points="147.5,-169.08 151,-179.08 154.5,-169.08 147.5,-169.08"/>
</g>
<!-- Node2 -->
<g id="node3" class="node">
<title>Node2</title>
<g id="a_node3"><a xlink:href="../../d9/dea/classnap_1_1_resource.html" target="_top" xlink:title="Resource">
<polygon fill="white" stroke="black" points="122,-235.5 122,-254.5 180,-254.5 180,-235.5 122,-235.5"/>
<text text-anchor="middle" x="151" y="-242.5" font-family="Helvetica,sans-Serif" font-size="10.00">Resource</text>
</a>
</g>
</g>
<!-- Node2&#45;&gt;Node1 -->
<g id="edge2" class="edge">
<title>Node2&#45;&gt;Node1</title>
<path fill="none" stroke="midnightblue" d="M151,-224.8C151,-215.91 151,-205.78 151,-198.75"/>
<polygon fill="midnightblue" stroke="midnightblue" points="147.5,-225.08 151,-235.08 154.5,-225.08 147.5,-225.08"/>
</g>
<!-- Node3 -->
<g id="node4" class="node">
<title>Node3</title>
<g id="a_node4"><a xlink:href="../../de/d01/classnap_1_1rtti_1_1_object.html" target="_top" xlink:title="Object">
<polygon fill="white" stroke="black" points="128.5,-291.5 128.5,-310.5 173.5,-310.5 173.5,-291.5 128.5,-291.5"/>
<text text-anchor="middle" x="151" y="-298.5" font-family="Helvetica,sans-Serif" font-size="10.00">Object</text>
</a>
</g>
</g>
<!-- Node3&#45;&gt;Node2 -->
<g id="edge3" class="edge">
<title>Node3&#45;&gt;Node2</title>
<path fill="none" stroke="midnightblue" d="M151,-280.8C151,-271.91 151,-261.78 151,-254.75"/>
<polygon fill="midnightblue" stroke="midnightblue" points="147.5,-281.08 151,-291.08 154.5,-281.08 147.5,-281.08"/>
</g>
<!-- Node5 -->
<g id="node6" class="node">
<title>Node5</title>
<g id="a_node6"><a xlink:href="../../d9/d9a/classnap_1_1_vertex_buffer.html" target="_top" xlink:title="VertexBuffer\&lt; T \&gt;">
<polygon fill="white" stroke="black" points="27.5,-0.5 27.5,-19.5 120.5,-19.5 120.5,-0.5 27.5,-0.5"/>
<text text-anchor="middle" x="74" y="-7.5" font-family="Helvetica,sans-Serif" font-size="10.00">VertexBuffer&lt; T &gt;</text>
</a>
</g>
</g>
<!-- Node4&#45;&gt;Node5 -->
<g id="edge5" class="edge">
<title>Node4&#45;&gt;Node5</title>
<path fill="none" stroke="midnightblue" d="M74,-51.82C74,-41 74,-27.9 74,-19.51"/>
<polygon fill="midnightblue" stroke="midnightblue" points="70.5,-51.98 74,-61.98 77.5,-51.98 70.5,-51.98"/>
</g>
<!-- Node7 -->
<g id="node8" class="node">
<title>Node7</title>
<g id="a_node8"><a xlink:href="../../de/d97/classnap_1_1_index_buffer.html" target="_top" xlink:title="IndexBuffer">
<polygon fill="white" stroke="black" points="196.5,-0.5 196.5,-19.5 261.5,-19.5 261.5,-0.5 196.5,-0.5"/>
<text text-anchor="middle" x="229" y="-7.5" font-family="Helvetica,sans-Serif" font-size="10.00">IndexBuffer</text>
</a>
</g>
</g>
<!-- Node6&#45;&gt;Node7 -->
<g id="edge7" class="edge">
<title>Node6&#45;&gt;Node7</title>
<path fill="none" stroke="midnightblue" d="M229,-46.29C229,-36.86 229,-26.65 229,-19.66"/>
<polygon fill="midnightblue" stroke="midnightblue" points="225.5,-46.4 229,-56.4 232.5,-46.4 225.5,-46.4"/>
</g>
</g>
</svg>
