<?xml version="1.0" encoding="UTF-8" standalone="no"?>
<!DOCTYPE svg PUBLIC "-//W3C//DTD SVG 1.1//EN"
 "http://www.w3.org/Graphics/SVG/1.1/DTD/svg11.dtd">
<!-- Generated by graphviz version 2.43.0 (0)
 -->
<!-- Title: GPUBufferNumeric Pages: 1 -->
<svg width="328pt" height="319pt"
 viewBox="0.00 0.00 328.00 319.00" xmlns="http://www.w3.org/2000/svg" xmlns:xlink="http://www.w3.org/1999/xlink">
<g id="graph0" class="graph" transform="scale(1 1) rotate(0) translate(4 315)">
<title>GPUBufferNumeric</title>
<polygon fill="white" stroke="transparent" points="-4,4 -4,-315 324,-315 324,4 -4,4"/>
<!-- Node1 -->
<g id="node1" class="node">
<title>Node1</title>
<g id="a_node1"><a xlink:title=" ">
<polygon fill="#bfbfbf" stroke="black" points="112.5,-123.5 112.5,-142.5 220.5,-142.5 220.5,-123.5 112.5,-123.5"/>
<text text-anchor="middle" x="166.5" y="-130.5" font-family="Helvetica,sans-Serif" font-size="10.00">GPUBufferNumeric</text>
</a>
</g>
</g>
<!-- Node5 -->
<g id="node5" class="node">
<title>Node5</title>
<g id="a_node5"><a xlink:href="../../d4/d83/classnap_1_1_typed_g_p_u_buffer_numeric.html" target="_top" xlink:title=" ">
<polygon fill="white" stroke="black" points="0,-62 0,-81 165,-81 165,-62 0,-62"/>
<text text-anchor="middle" x="82.5" y="-69" font-family="Helvetica,sans-Serif" font-size="10.00">TypedGPUBufferNumeric&lt; T &gt;</text>
</a>
</g>
</g>
<!-- Node1&#45;&gt;Node5 -->
<g id="edge4" class="edge">
<title>Node1&#45;&gt;Node5</title>
<path fill="none" stroke="midnightblue" d="M146.19,-117.61C130.03,-106.17 107.98,-90.55 94.51,-81.01"/>
<polygon fill="midnightblue" stroke="midnightblue" points="144.28,-120.55 154.46,-123.48 148.33,-114.84 144.28,-120.55"/>
</g>
<!-- Node7 -->
<g id="node7" class="node">
<title>Node7</title>
<g id="a_node7"><a xlink:href="../../d4/d83/classnap_1_1_typed_g_p_u_buffer_numeric.html" target="_top" xlink:title=" ">
<polygon fill="white" stroke="black" points="183,-56.5 183,-86.5 320,-86.5 320,-56.5 183,-56.5"/>
<text text-anchor="start" x="191" y="-74.5" font-family="Helvetica,sans-Serif" font-size="10.00">TypedGPUBufferNumeric</text>
<text text-anchor="middle" x="251.5" y="-63.5" font-family="Helvetica,sans-Serif" font-size="10.00">&lt; uint &gt;</text>
</a>
</g>
</g>
<!-- Node1&#45;&gt;Node7 -->
<g id="edge6" class="edge">
<title>Node1&#45;&gt;Node7</title>
<path fill="none" stroke="midnightblue" d="M186.87,-117.74C200.38,-108.28 218.03,-95.93 231.47,-86.52"/>
<polygon fill="midnightblue" stroke="midnightblue" points="184.86,-114.87 178.68,-123.48 188.88,-120.61 184.86,-114.87"/>
</g>
<!-- Node2 -->
<g id="node2" class="node">
<title>Node2</title>
<g id="a_node2"><a xlink:href="../../dd/df4/classnap_1_1_g_p_u_buffer.html" target="_top" xlink:title=" ">
<polygon fill="white" stroke="black" points="133,-179.5 133,-198.5 200,-198.5 200,-179.5 133,-179.5"/>
<text text-anchor="middle" x="166.5" y="-186.5" font-family="Helvetica,sans-Serif" font-size="10.00">GPUBuffer</text>
</a>
</g>
</g>
<!-- Node2&#45;&gt;Node1 -->
<g id="edge1" class="edge">
<title>Node2&#45;&gt;Node1</title>
<path fill="none" stroke="midnightblue" d="M166.5,-168.8C166.5,-159.91 166.5,-149.78 166.5,-142.75"/>
<polygon fill="midnightblue" stroke="midnightblue" points="163,-169.08 166.5,-179.08 170,-169.08 163,-169.08"/>
</g>
<!-- Node3 -->
<g id="node3" class="node">
<title>Node3</title>
<g id="a_node3"><a xlink:href="../../d9/dea/classnap_1_1_resource.html" target="_top" xlink:title=" ">
<polygon fill="white" stroke="black" points="135.5,-235.5 135.5,-254.5 197.5,-254.5 197.5,-235.5 135.5,-235.5"/>
<text text-anchor="middle" x="166.5" y="-242.5" font-family="Helvetica,sans-Serif" font-size="10.00">Resource</text>
</a>
</g>
</g>
<!-- Node3&#45;&gt;Node2 -->
<g id="edge2" class="edge">
<title>Node3&#45;&gt;Node2</title>
<path fill="none" stroke="midnightblue" d="M166.5,-224.8C166.5,-215.91 166.5,-205.78 166.5,-198.75"/>
<polygon fill="midnightblue" stroke="midnightblue" points="163,-225.08 166.5,-235.08 170,-225.08 163,-225.08"/>
</g>
<!-- Node4 -->
<g id="node4" class="node">
<title>Node4</title>
<g id="a_node4"><a xlink:href="../../de/d01/classnap_1_1rtti_1_1_object.html" target="_top" xlink:title=" ">
<polygon fill="white" stroke="black" points="142.5,-291.5 142.5,-310.5 190.5,-310.5 190.5,-291.5 142.5,-291.5"/>
<text text-anchor="middle" x="166.5" y="-298.5" font-family="Helvetica,sans-Serif" font-size="10.00">Object</text>
</a>
</g>
</g>
<!-- Node4&#45;&gt;Node3 -->
<g id="edge3" class="edge">
<title>Node4&#45;&gt;Node3</title>
<path fill="none" stroke="midnightblue" d="M166.5,-280.8C166.5,-271.91 166.5,-261.78 166.5,-254.75"/>
<polygon fill="midnightblue" stroke="midnightblue" points="163,-281.08 166.5,-291.08 170,-281.08 163,-281.08"/>
</g>
<!-- Node6 -->
<g id="node6" class="node">
<title>Node6</title>
<g id="a_node6"><a xlink:href="../../d9/d9a/classnap_1_1_vertex_buffer.html" target="_top" xlink:title=" ">
<polygon fill="white" stroke="black" points="29.5,-0.5 29.5,-19.5 135.5,-19.5 135.5,-0.5 29.5,-0.5"/>
<text text-anchor="middle" x="82.5" y="-7.5" font-family="Helvetica,sans-Serif" font-size="10.00">VertexBuffer&lt; T &gt;</text>
</a>
</g>
</g>
<!-- Node5&#45;&gt;Node6 -->
<g id="edge5" class="edge">
<title>Node5&#45;&gt;Node6</title>
<path fill="none" stroke="midnightblue" d="M82.5,-51.82C82.5,-41 82.5,-27.9 82.5,-19.51"/>
<polygon fill="midnightblue" stroke="midnightblue" points="79,-51.98 82.5,-61.98 86,-51.98 79,-51.98"/>
</g>
<!-- Node8 -->
<g id="node8" class="node">
<title>Node8</title>
<g id="a_node8"><a xlink:href="../../de/d97/classnap_1_1_index_buffer.html" target="_top" xlink:title=" ">
<polygon fill="white" stroke="black" points="215,-0.5 215,-19.5 288,-19.5 288,-0.5 215,-0.5"/>
<text text-anchor="middle" x="251.5" y="-7.5" font-family="Helvetica,sans-Serif" font-size="10.00">IndexBuffer</text>
</a>
</g>
</g>
<!-- Node7&#45;&gt;Node8 -->
<g id="edge7" class="edge">
<title>Node7&#45;&gt;Node8</title>
<path fill="none" stroke="midnightblue" d="M251.5,-46.29C251.5,-36.86 251.5,-26.65 251.5,-19.66"/>
<polygon fill="midnightblue" stroke="midnightblue" points="248,-46.4 251.5,-56.4 255,-46.4 248,-46.4"/>
</g>
</g>
</svg>
