<?xml version="1.0" encoding="UTF-8" standalone="no"?>
<!DOCTYPE svg PUBLIC "-//W3C//DTD SVG 1.1//EN"
 "http://www.w3.org/Graphics/SVG/1.1/DTD/svg11.dtd">
<!-- Generated by graphviz version 2.43.0 (0)
 -->
<!-- Title: SequencePlayerIndependentClock Pages: 1 -->
<svg width="180pt" height="220pt"
 viewBox="0.00 0.00 179.50 220.00" xmlns="http://www.w3.org/2000/svg" xmlns:xlink="http://www.w3.org/1999/xlink">
<g id="graph0" class="graph" transform="scale(1 1) rotate(0) translate(4 216)">
<title>SequencePlayerIndependentClock</title>
<polygon fill="white" stroke="transparent" points="-4,4 -4,-216 175.5,-216 175.5,4 -4,4"/>
<!-- Node1 -->
<g id="node1" class="node">
<title>Node1</title>
<g id="a_node1"><a xlink:title=" ">
<polygon fill="#bfbfbf" stroke="black" points="0.5,-0.5 0.5,-30.5 155.5,-30.5 155.5,-0.5 0.5,-0.5"/>
<text text-anchor="start" x="8.5" y="-18.5" font-family="Helvetica,sans-Serif" font-size="10.00">SequencePlayerIndependent</text>
<text text-anchor="middle" x="78" y="-7.5" font-family="Helvetica,sans-Serif" font-size="10.00">Clock</text>
</a>
</g>
</g>
<!-- Node2 -->
<g id="node2" class="node">
<title>Node2</title>
<g id="a_node2"><a xlink:href="../../dd/dcd/classnap_1_1_sequence_player_clock.html" target="_top" xlink:title=" ">
<polygon fill="white" stroke="black" points="17,-68.5 17,-87.5 139,-87.5 139,-68.5 17,-68.5"/>
<text text-anchor="middle" x="78" y="-75.5" font-family="Helvetica,sans-Serif" font-size="10.00">SequencePlayerClock</text>
</a>
</g>
</g>
<!-- Node2&#45;&gt;Node1 -->
<g id="edge1" class="edge">
<title>Node2&#45;&gt;Node1</title>
<path fill="none" stroke="midnightblue" d="M78,-58.22C78,-49.36 78,-38.96 78,-30.76"/>
<polygon fill="midnightblue" stroke="midnightblue" points="74.5,-58.33 78,-68.33 81.5,-58.33 74.5,-58.33"/>
</g>
<!-- Node3 -->
<g id="node3" class="node">
<title>Node3</title>
<g id="a_node3"><a xlink:href="../../d9/dea/classnap_1_1_resource.html" target="_top" xlink:title=" ">
<polygon fill="white" stroke="black" points="0,-135.5 0,-154.5 62,-154.5 62,-135.5 0,-135.5"/>
<text text-anchor="middle" x="31" y="-142.5" font-family="Helvetica,sans-Serif" font-size="10.00">Resource</text>
</a>
</g>
</g>
<!-- Node3&#45;&gt;Node2 -->
<g id="edge2" class="edge">
<title>Node3&#45;&gt;Node2</title>
<path fill="none" stroke="midnightblue" d="M43.36,-126.9C52.49,-114.27 64.55,-97.6 71.76,-87.63"/>
<polygon fill="midnightblue" stroke="midnightblue" points="40.36,-125.08 37.34,-135.23 46.03,-129.18 40.36,-125.08"/>
</g>
<!-- Node4 -->
<g id="node4" class="node">
<title>Node4</title>
<g id="a_node4"><a xlink:href="../../de/d01/classnap_1_1rtti_1_1_object.html" target="_top" xlink:title=" ">
<polygon fill="white" stroke="black" points="7,-192.5 7,-211.5 55,-211.5 55,-192.5 7,-192.5"/>
<text text-anchor="middle" x="31" y="-199.5" font-family="Helvetica,sans-Serif" font-size="10.00">Object</text>
</a>
</g>
</g>
<!-- Node4&#45;&gt;Node3 -->
<g id="edge3" class="edge">
<title>Node4&#45;&gt;Node3</title>
<path fill="none" stroke="midnightblue" d="M31,-182.12C31,-172.82 31,-162.06 31,-154.71"/>
<polygon fill="midnightblue" stroke="midnightblue" points="27.5,-182.41 31,-192.41 34.5,-182.41 27.5,-182.41"/>
</g>
<!-- Node5 -->
<g id="node5" class="node">
<title>Node5</title>
<g id="a_node5"><a xlink:href="../../db/dc3/classnap_1_1_slot.html" target="_top" xlink:title=" ">
<polygon fill="white" stroke="black" points="80.5,-135.5 80.5,-154.5 171.5,-154.5 171.5,-135.5 80.5,-135.5"/>
<text text-anchor="middle" x="126" y="-142.5" font-family="Helvetica,sans-Serif" font-size="10.00">Slot&lt; double &gt;</text>
</a>
</g>
</g>
<!-- Node5&#45;&gt;Node2 -->
<g id="edge4" class="edge">
<title>Node5&#45;&gt;Node2</title>
<path fill="none" stroke="#9a32cd" stroke-dasharray="5,2" d="M113.38,-126.9C104.05,-114.27 91.74,-97.6 84.37,-87.63"/>
<polygon fill="#9a32cd" stroke="#9a32cd" points="110.77,-129.27 119.53,-135.23 116.4,-125.11 110.77,-129.27"/>
<text text-anchor="middle" x="120" y="-109" font-family="Helvetica,sans-Serif" font-size="10.00"> mSlot</text>
</g>
</g>
</svg>
