<?xml version="1.0" encoding="UTF-8" standalone="no"?>
<!DOCTYPE svg PUBLIC "-//W3C//DTD SVG 1.1//EN"
 "http://www.w3.org/Graphics/SVG/1.1/DTD/svg11.dtd">
<!-- Generated by graphviz version 2.48.0 (20210717.1556)
 -->
<!-- Title: CVCaptureComponent Pages: 1 -->
<svg width="228pt" height="220pt"
 viewBox="0.00 0.00 228.00 220.00" xmlns="http://www.w3.org/2000/svg" xmlns:xlink="http://www.w3.org/1999/xlink">
<g id="graph0" class="graph" transform="scale(1 1) rotate(0) translate(4 216)">
<title>CVCaptureComponent</title>
<polygon fill="white" stroke="transparent" points="-4,4 -4,-216 224,-216 224,4 -4,4"/>
<!-- Node4 -->
<g id="node1" class="node">
<title>Node4</title>
<polygon fill="#bfbfbf" stroke="black" points="35.5,-0.5 35.5,-19.5 148.5,-19.5 148.5,-0.5 35.5,-0.5"/>
<text text-anchor="middle" x="92" y="-7.5" font-family="Helvetica,sans-Serif" font-size="10.00">CVCaptureComponent</text>
</g>
<!-- Node5 -->
<g id="node2" class="node">
<title>Node5</title>
<g id="a_node2"><a xlink:href="../../db/d6b/classnap_1_1_component.html" target="_top" xlink:title="Component">
<polygon fill="white" stroke="black" points="0,-73 0,-92 66,-92 66,-73 0,-73"/>
<text text-anchor="middle" x="33" y="-80" font-family="Helvetica,sans-Serif" font-size="10.00">Component</text>
</a>
</g>
</g>
<!-- Node5&#45;&gt;Node4 -->
<g id="edge1" class="edge">
<title>Node5&#45;&gt;Node4</title>
<path fill="none" stroke="midnightblue" d="M46.89,-64.9C58.74,-50.74 75.3,-30.96 84.71,-19.72"/>
<polygon fill="midnightblue" stroke="midnightblue" points="43.97,-62.94 40.23,-72.86 49.34,-67.43 43.97,-62.94"/>
</g>
<!-- Node6 -->
<g id="node3" class="node">
<title>Node6</title>
<g id="a_node3"><a xlink:href="../../d9/dea/classnap_1_1_resource.html" target="_top" xlink:title="Resource">
<polygon fill="white" stroke="black" points="4,-135.5 4,-154.5 62,-154.5 62,-135.5 4,-135.5"/>
<text text-anchor="middle" x="33" y="-142.5" font-family="Helvetica,sans-Serif" font-size="10.00">Resource</text>
</a>
</g>
</g>
<!-- Node6&#45;&gt;Node5 -->
<g id="edge2" class="edge">
<title>Node6&#45;&gt;Node5</title>
<path fill="none" stroke="midnightblue" d="M33,-125C33,-114 33,-100.68 33,-92.15"/>
<polygon fill="midnightblue" stroke="midnightblue" points="29.5,-125.33 33,-135.33 36.5,-125.33 29.5,-125.33"/>
</g>
<!-- Node7 -->
<g id="node4" class="node">
<title>Node7</title>
<g id="a_node4"><a xlink:href="../../de/d01/classnap_1_1rtti_1_1_object.html" target="_top" xlink:title="Object">
<polygon fill="white" stroke="black" points="10.5,-192.5 10.5,-211.5 55.5,-211.5 55.5,-192.5 10.5,-192.5"/>
<text text-anchor="middle" x="33" y="-199.5" font-family="Helvetica,sans-Serif" font-size="10.00">Object</text>
</a>
</g>
</g>
<!-- Node7&#45;&gt;Node6 -->
<g id="edge3" class="edge">
<title>Node7&#45;&gt;Node6</title>
<path fill="none" stroke="midnightblue" d="M33,-182.12C33,-172.82 33,-162.06 33,-154.71"/>
<polygon fill="midnightblue" stroke="midnightblue" points="29.5,-182.41 33,-192.41 36.5,-182.41 29.5,-182.41"/>
</g>
<!-- Node8 -->
<g id="node5" class="node">
<title>Node8</title>
<g id="a_node5"><a xlink:href="../../dd/d7c/classnap_1_1rtti_1_1_object_ptr.html" target="_top" xlink:title="ObjectPtr\&lt; nap::CVCapture\lDevice \&gt;">
<polygon fill="white" stroke="black" points="84,-67.5 84,-97.5 220,-97.5 220,-67.5 84,-67.5"/>
<text text-anchor="start" x="92" y="-85.5" font-family="Helvetica,sans-Serif" font-size="10.00">ObjectPtr&lt; nap::CVCapture</text>
<text text-anchor="middle" x="152" y="-74.5" font-family="Helvetica,sans-Serif" font-size="10.00">Device &gt;</text>
</a>
</g>
</g>
<!-- Node8&#45;&gt;Node4 -->
<g id="edge4" class="edge">
<title>Node8&#45;&gt;Node4</title>
<path fill="none" stroke="#9a32cd" stroke-dasharray="5,2" d="M133.18,-59.38C121.82,-46.04 107.96,-29.76 99.57,-19.89"/>
<polygon fill="#9a32cd" stroke="#9a32cd" points="130.71,-61.89 139.86,-67.23 136.04,-57.35 130.71,-61.89"/>
<text text-anchor="middle" x="144" y="-41" font-family="Helvetica,sans-Serif" font-size="10.00"> mDevice</text>
</g>
<!-- Node9 -->
<g id="node6" class="node">
<title>Node9</title>
<g id="a_node6"><a xlink:href="../../d7/dcb/classnap_1_1rtti_1_1_object_ptr_base.html" target="_top" xlink:title="ObjectPtrBase">
<polygon fill="white" stroke="black" points="112,-135.5 112,-154.5 192,-154.5 192,-135.5 112,-135.5"/>
<text text-anchor="middle" x="152" y="-142.5" font-family="Helvetica,sans-Serif" font-size="10.00">ObjectPtrBase</text>
</a>
</g>
</g>
<!-- Node9&#45;&gt;Node8 -->
<g id="edge5" class="edge">
<title>Node9&#45;&gt;Node8</title>
<path fill="none" stroke="midnightblue" d="M152,-125.22C152,-116.36 152,-105.96 152,-97.76"/>
<polygon fill="midnightblue" stroke="midnightblue" points="148.5,-125.33 152,-135.33 155.5,-125.33 148.5,-125.33"/>
</g>
</g>
</svg>
