<?xml version="1.0" encoding="UTF-8" standalone="no"?>
<!DOCTYPE svg PUBLIC "-//W3C//DTD SVG 1.1//EN"
 "http://www.w3.org/Graphics/SVG/1.1/DTD/svg11.dtd">
<!-- Generated by graphviz version 2.43.0 (0)
 -->
<!-- Title: Renderable2DTextComponentInstance Pages: 1 -->
<svg width="439pt" height="298pt"
 viewBox="0.00 0.00 438.50 298.00" xmlns="http://www.w3.org/2000/svg" xmlns:xlink="http://www.w3.org/1999/xlink">
<g id="graph0" class="graph" transform="scale(1 1) rotate(0) translate(4 294)">
<title>Renderable2DTextComponentInstance</title>
<polygon fill="white" stroke="transparent" points="-4,4 -4,-294 434.5,-294 434.5,4 -4,4"/>
<!-- Node1 -->
<g id="node1" class="node">
<title>Node1</title>
<g id="a_node1"><a xlink:title=" ">
<polygon fill="#bfbfbf" stroke="black" points="148,-0.5 148,-30.5 310,-30.5 310,-0.5 148,-0.5"/>
<text text-anchor="start" x="156" y="-18.5" font-family="Helvetica,sans-Serif" font-size="10.00">Renderable2DTextComponent</text>
<text text-anchor="middle" x="229" y="-7.5" font-family="Helvetica,sans-Serif" font-size="10.00">Instance</text>
</a>
</g>
</g>
<!-- Node2 -->
<g id="node2" class="node">
<title>Node2</title>
<g id="a_node2"><a xlink:href="../../db/d63/classnap_1_1_renderable_text_component_instance.html" target="_top" xlink:title=" ">
<polygon fill="white" stroke="black" points="134,-68.5 134,-87.5 324,-87.5 324,-68.5 134,-68.5"/>
<text text-anchor="middle" x="229" y="-75.5" font-family="Helvetica,sans-Serif" font-size="10.00">RenderableTextComponentInstance</text>
</a>
</g>
</g>
<!-- Node2&#45;&gt;Node1 -->
<g id="edge1" class="edge">
<title>Node2&#45;&gt;Node1</title>
<path fill="none" stroke="midnightblue" d="M229,-58.22C229,-49.36 229,-38.96 229,-30.76"/>
<polygon fill="midnightblue" stroke="midnightblue" points="225.5,-58.33 229,-68.33 232.5,-58.33 225.5,-58.33"/>
</g>
<!-- Node3 -->
<g id="node3" class="node">
<title>Node3</title>
<g id="a_node3"><a xlink:href="../../dd/da0/classnap_1_1_renderable_component_instance.html" target="_top" xlink:title=" ">
<polygon fill="white" stroke="black" points="0,-135.5 0,-154.5 170,-154.5 170,-135.5 0,-135.5"/>
<text text-anchor="middle" x="85" y="-142.5" font-family="Helvetica,sans-Serif" font-size="10.00">RenderableComponentInstance</text>
</a>
</g>
</g>
<!-- Node3&#45;&gt;Node2 -->
<g id="edge2" class="edge">
<title>Node3&#45;&gt;Node2</title>
<path fill="none" stroke="midnightblue" d="M113.55,-131.11C142.07,-118.24 185.12,-98.81 209.8,-87.67"/>
<polygon fill="midnightblue" stroke="midnightblue" points="111.8,-128.06 104.12,-135.37 114.68,-134.44 111.8,-128.06"/>
</g>
<!-- Node4 -->
<g id="node4" class="node">
<title>Node4</title>
<g id="a_node4"><a xlink:href="../../d9/df2/classnap_1_1_component_instance.html" target="_top" xlink:title=" ">
<polygon fill="white" stroke="black" points="28,-213.5 28,-232.5 142,-232.5 142,-213.5 28,-213.5"/>
<text text-anchor="middle" x="85" y="-220.5" font-family="Helvetica,sans-Serif" font-size="10.00">ComponentInstance</text>
</a>
</g>
</g>
<!-- Node4&#45;&gt;Node3 -->
<g id="edge3" class="edge">
<title>Node4&#45;&gt;Node3</title>
<path fill="none" stroke="midnightblue" d="M85,-203.22C85,-187.7 85,-166.36 85,-154.62"/>
<polygon fill="midnightblue" stroke="midnightblue" points="81.5,-203.28 85,-213.28 88.5,-203.28 81.5,-203.28"/>
</g>
<!-- Node5 -->
<g id="node5" class="node">
<title>Node5</title>
<g id="a_node5"><a xlink:href="../../de/d01/classnap_1_1rtti_1_1_object.html" target="_top" xlink:title=" ">
<polygon fill="white" stroke="black" points="61,-270.5 61,-289.5 109,-289.5 109,-270.5 61,-270.5"/>
<text text-anchor="middle" x="85" y="-277.5" font-family="Helvetica,sans-Serif" font-size="10.00">Object</text>
</a>
</g>
</g>
<!-- Node5&#45;&gt;Node4 -->
<g id="edge4" class="edge">
<title>Node5&#45;&gt;Node4</title>
<path fill="none" stroke="midnightblue" d="M85,-260.12C85,-250.82 85,-240.06 85,-232.71"/>
<polygon fill="midnightblue" stroke="midnightblue" points="81.5,-260.41 85,-270.41 88.5,-260.41 81.5,-260.41"/>
</g>
<!-- Node6 -->
<g id="node6" class="node">
<title>Node6</title>
<g id="a_node6"><a xlink:href="../../d5/dc6/classnap_1_1_render_service.html" target="_top" xlink:title=" ">
<polygon fill="white" stroke="black" points="188.5,-135.5 188.5,-154.5 275.5,-154.5 275.5,-135.5 188.5,-135.5"/>
<text text-anchor="middle" x="232" y="-142.5" font-family="Helvetica,sans-Serif" font-size="10.00">RenderService</text>
</a>
</g>
</g>
<!-- Node6&#45;&gt;Node2 -->
<g id="edge5" class="edge">
<title>Node6&#45;&gt;Node2</title>
<path fill="none" stroke="#9a32cd" stroke-dasharray="5,2" d="M230.5,-125.38C230.31,-122.57 230.14,-119.71 230,-117 229.5,-106.98 229.24,-95.46 229.11,-87.76"/>
<polygon fill="#9a32cd" stroke="#9a32cd" points="227.02,-125.79 231.27,-135.49 234,-125.26 227.02,-125.79"/>
<text text-anchor="middle" x="272" y="-109" font-family="Helvetica,sans-Serif" font-size="10.00"> mRenderService</text>
</g>
<!-- Node7 -->
<g id="node7" class="node">
<title>Node7</title>
<g id="a_node7"><a xlink:href="../../d8/d8e/classnap_1_1_service.html" target="_top" xlink:title=" ">
<polygon fill="white" stroke="black" points="182.5,-213.5 182.5,-232.5 235.5,-232.5 235.5,-213.5 182.5,-213.5"/>
<text text-anchor="middle" x="209" y="-220.5" font-family="Helvetica,sans-Serif" font-size="10.00">Service</text>
</a>
</g>
</g>
<!-- Node7&#45;&gt;Node6 -->
<g id="edge6" class="edge">
<title>Node7&#45;&gt;Node6</title>
<path fill="none" stroke="midnightblue" d="M214.55,-203.67C219.26,-188.11 225.8,-166.47 229.39,-154.62"/>
<polygon fill="midnightblue" stroke="midnightblue" points="211.19,-202.7 211.64,-213.28 217.88,-204.72 211.19,-202.7"/>
</g>
<!-- Node8 -->
<g id="node8" class="node">
<title>Node8</title>
<g id="a_node8"><a xlink:href="../../de/d80/classnap_1_1_signal.html" target="_top" xlink:title=" ">
<polygon fill="white" stroke="black" points="253.5,-213.5 253.5,-232.5 430.5,-232.5 430.5,-213.5 253.5,-213.5"/>
<text text-anchor="middle" x="342" y="-220.5" font-family="Helvetica,sans-Serif" font-size="10.00">Signal&lt; nap::RenderWindow &amp; &gt;</text>
</a>
</g>
</g>
<!-- Node8&#45;&gt;Node6 -->
<g id="edge7" class="edge">
<title>Node8&#45;&gt;Node6</title>
<path fill="none" stroke="#9a32cd" stroke-dasharray="5,2" d="M321.11,-207.57C298.48,-191.93 263.12,-167.5 244.47,-154.62"/>
<polygon fill="#9a32cd" stroke="#9a32cd" points="319.16,-210.48 329.38,-213.28 323.14,-204.72 319.16,-210.48"/>
<text text-anchor="middle" x="344" y="-187" font-family="Helvetica,sans-Serif" font-size="10.00"> windowRemoved</text>
<text text-anchor="middle" x="344" y="-176" font-family="Helvetica,sans-Serif" font-size="10.00">windowAdded</text>
</g>
<!-- Node9 -->
<g id="node9" class="node">
<title>Node9</title>
<g id="a_node9"><a xlink:href="../../d0/dec/classnap_1_1_font_instance.html" target="_top" xlink:title=" ">
<polygon fill="white" stroke="black" points="296.5,-135.5 296.5,-154.5 375.5,-154.5 375.5,-135.5 296.5,-135.5"/>
<text text-anchor="middle" x="336" y="-142.5" font-family="Helvetica,sans-Serif" font-size="10.00">FontInstance</text>
</a>
</g>
</g>
<!-- Node9&#45;&gt;Node2 -->
<g id="edge8" class="edge">
<title>Node9&#45;&gt;Node2</title>
<path fill="none" stroke="#9a32cd" stroke-dasharray="5,2" d="M328.83,-125.66C325.29,-118.66 320.39,-111.13 314,-106 303.38,-97.47 290.01,-91.61 277.05,-87.6"/>
<polygon fill="#9a32cd" stroke="#9a32cd" points="325.8,-127.47 333.05,-135.2 332.21,-124.64 325.8,-127.47"/>
<text text-anchor="middle" x="340" y="-109" font-family="Helvetica,sans-Serif" font-size="10.00"> mFont</text>
</g>
</g>
</svg>
