<?xml version="1.0" encoding="UTF-8" standalone="no"?>
<!DOCTYPE svg PUBLIC "-//W3C//DTD SVG 1.1//EN"
 "http://www.w3.org/Graphics/SVG/1.1/DTD/svg11.dtd">
<!-- Generated by graphviz version 2.48.0 (20210717.1556)
 -->
<!-- Title: ConstantFillPolicy&lt; T &gt; Pages: 1 -->
<svg width="127pt" height="252pt"
 viewBox="0.00 0.00 127.00 252.00" xmlns="http://www.w3.org/2000/svg" xmlns:xlink="http://www.w3.org/1999/xlink">
<g id="graph0" class="graph" transform="scale(1 1) rotate(0) translate(4 248)">
<title>ConstantFillPolicy&lt; T &gt;</title>
<polygon fill="white" stroke="transparent" points="-4,4 -4,-248 123,-248 123,4 -4,4"/>
<!-- Node0 -->
<g id="node1" class="node">
<title>Node0</title>
<polygon fill="#bfbfbf" stroke="black" points="0,-0.5 0,-19.5 119,-19.5 119,-0.5 0,-0.5"/>
<text text-anchor="middle" x="59.5" y="-7.5" font-family="Helvetica,sans-Serif" font-size="10.00">ConstantFillPolicy&lt; T &gt;</text>
</g>
<!-- Node1 -->
<g id="node2" class="node">
<title>Node1</title>
<g id="a_node2"><a xlink:href="../../d0/d25/classnap_1_1_fill_policy.html" target="_top" xlink:title="FillPolicy\&lt; T \&gt;">
<polygon fill="white" stroke="black" points="19.5,-56.5 19.5,-75.5 99.5,-75.5 99.5,-56.5 19.5,-56.5"/>
<text text-anchor="middle" x="59.5" y="-63.5" font-family="Helvetica,sans-Serif" font-size="10.00">FillPolicy&lt; T &gt;</text>
</a>
</g>
</g>
<!-- Node1&#45;&gt;Node0 -->
<g id="edge1" class="edge">
<title>Node1&#45;&gt;Node0</title>
<path fill="none" stroke="midnightblue" d="M59.5,-45.8C59.5,-36.91 59.5,-26.78 59.5,-19.75"/>
<polygon fill="midnightblue" stroke="midnightblue" points="56,-46.08 59.5,-56.08 63,-46.08 56,-46.08"/>
</g>
<!-- Node2 -->
<g id="node3" class="node">
<title>Node2</title>
<g id="a_node3"><a xlink:href="../../de/d80/classnap_1_1_base_fill_policy.html" target="_top" xlink:title="BaseFillPolicy">
<polygon fill="white" stroke="black" points="20,-112.5 20,-131.5 99,-131.5 99,-112.5 20,-112.5"/>
<text text-anchor="middle" x="59.5" y="-119.5" font-family="Helvetica,sans-Serif" font-size="10.00">BaseFillPolicy</text>
</a>
</g>
</g>
<!-- Node2&#45;&gt;Node1 -->
<g id="edge2" class="edge">
<title>Node2&#45;&gt;Node1</title>
<path fill="none" stroke="midnightblue" d="M59.5,-101.8C59.5,-92.91 59.5,-82.78 59.5,-75.75"/>
<polygon fill="midnightblue" stroke="midnightblue" points="56,-102.08 59.5,-112.08 63,-102.08 56,-102.08"/>
</g>
<!-- Node3 -->
<g id="node4" class="node">
<title>Node3</title>
<g id="a_node4"><a xlink:href="../../d9/dea/classnap_1_1_resource.html" target="_top" xlink:title="Resource">
<polygon fill="white" stroke="black" points="30.5,-168.5 30.5,-187.5 88.5,-187.5 88.5,-168.5 30.5,-168.5"/>
<text text-anchor="middle" x="59.5" y="-175.5" font-family="Helvetica,sans-Serif" font-size="10.00">Resource</text>
</a>
</g>
</g>
<!-- Node3&#45;&gt;Node2 -->
<g id="edge3" class="edge">
<title>Node3&#45;&gt;Node2</title>
<path fill="none" stroke="midnightblue" d="M59.5,-157.8C59.5,-148.91 59.5,-138.78 59.5,-131.75"/>
<polygon fill="midnightblue" stroke="midnightblue" points="56,-158.08 59.5,-168.08 63,-158.08 56,-158.08"/>
</g>
<!-- Node4 -->
<g id="node5" class="node">
<title>Node4</title>
<g id="a_node5"><a xlink:href="../../de/d01/classnap_1_1rtti_1_1_object.html" target="_top" xlink:title="Object">
<polygon fill="white" stroke="black" points="37,-224.5 37,-243.5 82,-243.5 82,-224.5 37,-224.5"/>
<text text-anchor="middle" x="59.5" y="-231.5" font-family="Helvetica,sans-Serif" font-size="10.00">Object</text>
</a>
</g>
</g>
<!-- Node4&#45;&gt;Node3 -->
<g id="edge4" class="edge">
<title>Node4&#45;&gt;Node3</title>
<path fill="none" stroke="midnightblue" d="M59.5,-213.8C59.5,-204.91 59.5,-194.78 59.5,-187.75"/>
<polygon fill="midnightblue" stroke="midnightblue" points="56,-214.08 59.5,-224.08 63,-214.08 56,-214.08"/>
</g>
</g>
</svg>
