<?xml version="1.0" encoding="UTF-8" standalone="no"?>
<!DOCTYPE svg PUBLIC "-//W3C//DTD SVG 1.1//EN"
 "http://www.w3.org/Graphics/SVG/1.1/DTD/svg11.dtd">
<!-- Generated by graphviz version 2.48.0 (20210717.1556)
 -->
<!-- Title: SequenceEditorGUI Pages: 1 -->
<svg width="507pt" height="154pt"
 viewBox="0.00 0.00 507.00 154.00" xmlns="http://www.w3.org/2000/svg" xmlns:xlink="http://www.w3.org/1999/xlink">
<g id="graph0" class="graph" transform="scale(1 1) rotate(0) translate(4 150)">
<title>SequenceEditorGUI</title>
<polygon fill="white" stroke="transparent" points="-4,4 -4,-150 503,-150 503,4 -4,4"/>
<!-- Node3 -->
<g id="node1" class="node">
<title>Node3</title>
<polygon fill="#bfbfbf" stroke="black" points="397,-65.5 397,-84.5 499,-84.5 499,-65.5 397,-65.5"/>
<text text-anchor="middle" x="448" y="-72.5" font-family="Helvetica,sans-Serif" font-size="10.00">SequenceEditorGUI</text>
</g>
<!-- Node4 -->
<g id="node2" class="node">
<title>Node4</title>
<g id="a_node2"><a xlink:href="../../d9/dea/classnap_1_1_resource.html" target="_top" xlink:title="Resource">
<polygon fill="white" stroke="black" points="169.5,-126.5 169.5,-145.5 227.5,-145.5 227.5,-126.5 169.5,-126.5"/>
<text text-anchor="middle" x="198.5" y="-133.5" font-family="Helvetica,sans-Serif" font-size="10.00">Resource</text>
</a>
</g>
</g>
<!-- Node4&#45;&gt;Node3 -->
<g id="edge1" class="edge">
<title>Node4&#45;&gt;Node3</title>
<path fill="none" stroke="midnightblue" d="M237.86,-131.31C274.58,-126.27 331.28,-117.04 379,-103 395.53,-98.13 413.54,-90.61 426.87,-84.59"/>
<polygon fill="midnightblue" stroke="midnightblue" points="237.05,-127.89 227.6,-132.68 237.97,-134.83 237.05,-127.89"/>
</g>
<!-- Node5 -->
<g id="node3" class="node">
<title>Node5</title>
<g id="a_node3"><a xlink:href="../../de/d01/classnap_1_1rtti_1_1_object.html" target="_top" xlink:title="Object">
<polygon fill="white" stroke="black" points="17.5,-126.5 17.5,-145.5 62.5,-145.5 62.5,-126.5 17.5,-126.5"/>
<text text-anchor="middle" x="40" y="-133.5" font-family="Helvetica,sans-Serif" font-size="10.00">Object</text>
</a>
</g>
</g>
<!-- Node5&#45;&gt;Node4 -->
<g id="edge2" class="edge">
<title>Node5&#45;&gt;Node4</title>
<path fill="none" stroke="midnightblue" d="M72.94,-136C101.25,-136 142.19,-136 169.31,-136"/>
<polygon fill="midnightblue" stroke="midnightblue" points="72.76,-132.5 62.76,-136 72.76,-139.5 72.76,-132.5"/>
</g>
<!-- Node6 -->
<g id="node4" class="node">
<title>Node6</title>
<g id="a_node4"><a xlink:href="../../d0/d0a/classnap_1_1_sequence_g_u_i_service.html" target="_top" xlink:title="SequenceGUIService">
<polygon fill="white" stroke="black" points="144.5,-88.5 144.5,-107.5 252.5,-107.5 252.5,-88.5 144.5,-88.5"/>
<text text-anchor="middle" x="198.5" y="-95.5" font-family="Helvetica,sans-Serif" font-size="10.00">SequenceGUIService</text>
</a>
</g>
</g>
<!-- Node6&#45;&gt;Node3 -->
<g id="edge3" class="edge">
<title>Node6&#45;&gt;Node3</title>
<path fill="none" stroke="#9a32cd" stroke-dasharray="5,2" d="M262.64,-92.13C304.34,-88.26 358.22,-83.25 396.95,-79.65"/>
<polygon fill="#9a32cd" stroke="#9a32cd" points="262.23,-88.66 252.59,-93.07 262.88,-95.63 262.23,-88.66"/>
<text text-anchor="middle" x="338.5" y="-91" font-family="Helvetica,sans-Serif" font-size="10.00"> mService</text>
</g>
<!-- Node7 -->
<g id="node5" class="node">
<title>Node7</title>
<g id="a_node5"><a xlink:href="../../d8/d8e/classnap_1_1_service.html" target="_top" xlink:title="Service">
<polygon fill="white" stroke="black" points="16,-88.5 16,-107.5 64,-107.5 64,-88.5 16,-88.5"/>
<text text-anchor="middle" x="40" y="-95.5" font-family="Helvetica,sans-Serif" font-size="10.00">Service</text>
</a>
</g>
</g>
<!-- Node7&#45;&gt;Node6 -->
<g id="edge4" class="edge">
<title>Node7&#45;&gt;Node6</title>
<path fill="none" stroke="midnightblue" d="M74.15,-98C94.56,-98 121.2,-98 144.49,-98"/>
<polygon fill="midnightblue" stroke="midnightblue" points="74.09,-94.5 64.09,-98 74.09,-101.5 74.09,-94.5"/>
</g>
<!-- Node8 -->
<g id="node6" class="node">
<title>Node8</title>
<g id="a_node6"><a xlink:href="../../dd/d7c/classnap_1_1rtti_1_1_object_ptr.html" target="_top" xlink:title="ObjectPtr\&lt; nap::Sequence\lEditor \&gt;">
<polygon fill="white" stroke="black" points="132.5,-39 132.5,-69 264.5,-69 264.5,-39 132.5,-39"/>
<text text-anchor="start" x="140.5" y="-57" font-family="Helvetica,sans-Serif" font-size="10.00">ObjectPtr&lt; nap::Sequence</text>
<text text-anchor="middle" x="198.5" y="-46" font-family="Helvetica,sans-Serif" font-size="10.00">Editor &gt;</text>
</a>
</g>
</g>
<!-- Node8&#45;&gt;Node3 -->
<g id="edge5" class="edge">
<title>Node8&#45;&gt;Node3</title>
<path fill="none" stroke="#9a32cd" stroke-dasharray="5,2" d="M275.12,-54.95C307.24,-55.98 345.03,-58.02 379,-62 386.52,-62.88 394.46,-64.12 402.15,-65.48"/>
<polygon fill="#9a32cd" stroke="#9a32cd" points="275.01,-51.44 264.91,-54.65 274.8,-58.44 275.01,-51.44"/>
<text text-anchor="middle" x="338.5" y="-65" font-family="Helvetica,sans-Serif" font-size="10.00"> mSequenceEditor</text>
</g>
<!-- Node9 -->
<g id="node7" class="node">
<title>Node9</title>
<g id="a_node7"><a xlink:href="../../d7/dcb/classnap_1_1rtti_1_1_object_ptr_base.html" target="_top" xlink:title="ObjectPtrBase">
<polygon fill="white" stroke="black" points="0,-20.5 0,-39.5 80,-39.5 80,-20.5 0,-20.5"/>
<text text-anchor="middle" x="40" y="-27.5" font-family="Helvetica,sans-Serif" font-size="10.00">ObjectPtrBase</text>
</a>
</g>
</g>
<!-- Node9&#45;&gt;Node8 -->
<g id="edge6" class="edge">
<title>Node9&#45;&gt;Node8</title>
<path fill="none" stroke="midnightblue" d="M90.07,-37.52C103.5,-39.58 118.28,-41.85 132.45,-44.02"/>
<polygon fill="midnightblue" stroke="midnightblue" points="90.5,-34.05 80.09,-35.99 89.44,-40.97 90.5,-34.05"/>
</g>
<!-- Node10 -->
<g id="node8" class="node">
<title>Node10</title>
<g id="a_node8"><a xlink:href="../../dd/d7c/classnap_1_1rtti_1_1_object_ptr.html" target="_top" xlink:title="ObjectPtr\&lt; nap::RenderWindow \&gt;">
<polygon fill="white" stroke="black" points="117,-0.5 117,-19.5 280,-19.5 280,-0.5 117,-0.5"/>
<text text-anchor="middle" x="198.5" y="-7.5" font-family="Helvetica,sans-Serif" font-size="10.00">ObjectPtr&lt; nap::RenderWindow &gt;</text>
</a>
</g>
</g>
<!-- Node9&#45;&gt;Node10 -->
<g id="edge8" class="edge">
<title>Node9&#45;&gt;Node10</title>
<path fill="none" stroke="midnightblue" d="M90.2,-23.71C100.61,-22.38 111.82,-20.95 122.93,-19.53"/>
<polygon fill="midnightblue" stroke="midnightblue" points="89.56,-20.27 80.09,-25 90.45,-27.21 89.56,-20.27"/>
</g>
<!-- Node10&#45;&gt;Node3 -->
<g id="edge7" class="edge">
<title>Node10&#45;&gt;Node3</title>
<path fill="none" stroke="#9a32cd" stroke-dasharray="5,2" d="M290.37,-19.61C319.17,-24.12 350.83,-30.65 379,-40 398.03,-46.32 418.27,-57.36 431.67,-65.35"/>
<polygon fill="#9a32cd" stroke="#9a32cd" points="290.73,-16.12 280.32,-18.09 289.68,-23.04 290.73,-16.12"/>
<text text-anchor="middle" x="338.5" y="-43" font-family="Helvetica,sans-Serif" font-size="10.00"> mRenderWindow</text>
</g>
</g>
</svg>
