<?xml version="1.0" encoding="UTF-8" standalone="no"?>
<!DOCTYPE svg PUBLIC "-//W3C//DTD SVG 1.1//EN"
 "http://www.w3.org/Graphics/SVG/1.1/DTD/svg11.dtd">
<!-- Generated by graphviz version 2.48.0 (20210717.1556)
 -->
<!-- Title: GPUBufferNumeric Pages: 1 -->
<svg width="311pt" height="230pt"
 viewBox="0.00 0.00 310.50 230.00" xmlns="http://www.w3.org/2000/svg" xmlns:xlink="http://www.w3.org/1999/xlink">
<g id="graph0" class="graph" transform="scale(1 1) rotate(0) translate(4 226)">
<title>GPUBufferNumeric</title>
<polygon fill="white" stroke="transparent" points="-4,4 -4,-226 306.5,-226 306.5,4 -4,4"/>
<!-- Node8 -->
<g id="node1" class="node">
<title>Node8</title>
<polygon fill="#bfbfbf" stroke="black" points="67,-0.5 67,-19.5 165,-19.5 165,-0.5 67,-0.5"/>
<text text-anchor="middle" x="116" y="-7.5" font-family="Helvetica,sans-Serif" font-size="10.00">GPUBufferNumeric</text>
</g>
<!-- Node9 -->
<g id="node2" class="node">
<title>Node9</title>
<g id="a_node2"><a xlink:href="../../dd/df4/classnap_1_1_g_p_u_buffer.html" target="_top" xlink:title="GPUBuffer">
<polygon fill="white" stroke="black" points="85,-57.5 85,-76.5 147,-76.5 147,-57.5 85,-57.5"/>
<text text-anchor="middle" x="116" y="-64.5" font-family="Helvetica,sans-Serif" font-size="10.00">GPUBuffer</text>
</a>
</g>
</g>
<!-- Node9&#45;&gt;Node8 -->
<g id="edge1" class="edge">
<title>Node9&#45;&gt;Node8</title>
<path fill="none" stroke="midnightblue" d="M116,-47.12C116,-37.82 116,-27.06 116,-19.71"/>
<polygon fill="midnightblue" stroke="midnightblue" points="112.5,-47.41 116,-57.41 119.5,-47.41 112.5,-47.41"/>
</g>
<!-- Node10 -->
<g id="node3" class="node">
<title>Node10</title>
<g id="a_node3"><a xlink:href="../../d9/dea/classnap_1_1_resource.html" target="_top" xlink:title="Resource">
<polygon fill="white" stroke="black" points="0,-124.5 0,-143.5 58,-143.5 58,-124.5 0,-124.5"/>
<text text-anchor="middle" x="29" y="-131.5" font-family="Helvetica,sans-Serif" font-size="10.00">Resource</text>
</a>
</g>
</g>
<!-- Node10&#45;&gt;Node9 -->
<g id="edge2" class="edge">
<title>Node10&#45;&gt;Node9</title>
<path fill="none" stroke="midnightblue" d="M48.99,-118.07C66.16,-105.24 90.32,-87.19 104.45,-76.63"/>
<polygon fill="midnightblue" stroke="midnightblue" points="46.65,-115.44 40.73,-124.23 50.84,-121.05 46.65,-115.44"/>
</g>
<!-- Node11 -->
<g id="node4" class="node">
<title>Node11</title>
<g id="a_node4"><a xlink:href="../../de/d01/classnap_1_1rtti_1_1_object.html" target="_top" xlink:title="Object">
<polygon fill="white" stroke="black" points="6.5,-202.5 6.5,-221.5 51.5,-221.5 51.5,-202.5 6.5,-202.5"/>
<text text-anchor="middle" x="29" y="-209.5" font-family="Helvetica,sans-Serif" font-size="10.00">Object</text>
</a>
</g>
</g>
<!-- Node11&#45;&gt;Node10 -->
<g id="edge3" class="edge">
<title>Node11&#45;&gt;Node10</title>
<path fill="none" stroke="midnightblue" d="M29,-192.22C29,-176.7 29,-155.36 29,-143.62"/>
<polygon fill="midnightblue" stroke="midnightblue" points="25.5,-192.28 29,-202.28 32.5,-192.28 25.5,-192.28"/>
</g>
<!-- Node12 -->
<g id="node5" class="node">
<title>Node12</title>
<g id="a_node5"><a xlink:href="../../d5/dc6/classnap_1_1_render_service.html" target="_top" xlink:title="RenderService">
<polygon fill="white" stroke="black" points="76.5,-124.5 76.5,-143.5 155.5,-143.5 155.5,-124.5 76.5,-124.5"/>
<text text-anchor="middle" x="116" y="-131.5" font-family="Helvetica,sans-Serif" font-size="10.00">RenderService</text>
</a>
</g>
</g>
<!-- Node12&#45;&gt;Node9 -->
<g id="edge4" class="edge">
<title>Node12&#45;&gt;Node9</title>
<path fill="none" stroke="#9a32cd" stroke-dasharray="5,2" d="M116,-114.04C116,-101.67 116,-86.12 116,-76.63"/>
<polygon fill="#9a32cd" stroke="#9a32cd" points="112.5,-114.23 116,-124.23 119.5,-114.23 112.5,-114.23"/>
<text text-anchor="middle" x="153" y="-98" font-family="Helvetica,sans-Serif" font-size="10.00"> mRenderService</text>
</g>
<!-- Node13 -->
<g id="node6" class="node">
<title>Node13</title>
<g id="a_node6"><a xlink:href="../../d8/d8e/classnap_1_1_service.html" target="_top" xlink:title="Service">
<polygon fill="white" stroke="black" points="81,-202.5 81,-221.5 129,-221.5 129,-202.5 81,-202.5"/>
<text text-anchor="middle" x="105" y="-209.5" font-family="Helvetica,sans-Serif" font-size="10.00">Service</text>
</a>
</g>
</g>
<!-- Node13&#45;&gt;Node12 -->
<g id="edge5" class="edge">
<title>Node13&#45;&gt;Node12</title>
<path fill="none" stroke="midnightblue" d="M107.72,-192.22C109.96,-176.7 113.05,-155.36 114.75,-143.62"/>
<polygon fill="midnightblue" stroke="midnightblue" points="104.23,-191.88 106.26,-202.28 111.16,-192.89 104.23,-191.88"/>
</g>
<!-- Node14 -->
<g id="node7" class="node">
<title>Node14</title>
<g id="a_node7"><a xlink:href="../../de/d80/classnap_1_1_signal.html" target="_top" xlink:title="Signal\&lt; nap::RenderWindow &amp;\&gt;">
<polygon fill="white" stroke="black" points="147.5,-202.5 147.5,-221.5 302.5,-221.5 302.5,-202.5 147.5,-202.5"/>
<text text-anchor="middle" x="225" y="-209.5" font-family="Helvetica,sans-Serif" font-size="10.00">Signal&lt; nap::RenderWindow &amp;&gt;</text>
</a>
</g>
</g>
<!-- Node14&#45;&gt;Node12 -->
<g id="edge6" class="edge">
<title>Node14&#45;&gt;Node12</title>
<path fill="none" stroke="#9a32cd" stroke-dasharray="5,2" d="M204,-196.36C181.57,-180.72 146.75,-156.44 128.36,-143.62"/>
<polygon fill="#9a32cd" stroke="#9a32cd" points="202.29,-199.43 212.5,-202.28 206.3,-193.69 202.29,-199.43"/>
<text text-anchor="middle" x="220.5" y="-176" font-family="Helvetica,sans-Serif" font-size="10.00"> windowRemoved</text>
<text text-anchor="middle" x="220.5" y="-165" font-family="Helvetica,sans-Serif" font-size="10.00">windowAdded</text>
</g>
<!-- Node15 -->
<g id="node8" class="node">
<title>Node15</title>
<g id="a_node8"><a xlink:href="../../de/d80/classnap_1_1_signal.html" target="_top" xlink:title="Signal\&lt; Args \&gt;">
<polygon fill="white" stroke="black" points="174,-124.5 174,-143.5 256,-143.5 256,-124.5 174,-124.5"/>
<text text-anchor="middle" x="215" y="-131.5" font-family="Helvetica,sans-Serif" font-size="10.00">Signal&lt; Args &gt;</text>
</a>
</g>
</g>
<!-- Node15&#45;&gt;Node9 -->
<g id="edge7" class="edge">
<title>Node15&#45;&gt;Node9</title>
<path fill="none" stroke="#9a32cd" stroke-dasharray="5,2" d="M207.75,-114.75C204.2,-107.76 199.31,-100.23 193,-95 179.91,-84.16 162.17,-77.55 147.02,-73.58"/>
<polygon fill="#9a32cd" stroke="#9a32cd" points="204.73,-116.56 212,-124.26 211.12,-113.7 204.73,-116.56"/>
<text text-anchor="middle" x="234.5" y="-98" font-family="Helvetica,sans-Serif" font-size="10.00"> bufferChanged</text>
</g>
</g>
</svg>
