<?xml version="1.0" encoding="UTF-8" standalone="no"?>
<!DOCTYPE svg PUBLIC "-//W3C//DTD SVG 1.1//EN"
 "http://www.w3.org/Graphics/SVG/1.1/DTD/svg11.dtd">
<!-- Generated by graphviz version 3.0.0 (20220226.1711)
 -->
<!-- Title: Tween&lt; T &gt; Pages: 1 -->
<svg width="210pt" height="173pt"
 viewBox="0.00 0.00 210.00 173.00" xmlns="http://www.w3.org/2000/svg" xmlns:xlink="http://www.w3.org/1999/xlink">
<g id="graph0" class="graph" transform="scale(1 1) rotate(0) translate(4 169)">
<title>Tween&lt; T &gt;</title>
<polygon fill="white" stroke="transparent" points="-4,4 -4,-169 206,-169 206,4 -4,4"/>
<!-- Node2 -->
<g id="node1" class="node">
<title>Node2</title>
<polygon fill="#bfbfbf" stroke="black" points="83,-0.5 83,-19.5 151,-19.5 151,-0.5 83,-0.5"/>
<text text-anchor="middle" x="117" y="-7.5" font-family="Helvetica,sans-Serif" font-size="10.00">Tween&lt; T &gt;</text>
</g>
<!-- Node3 -->
<g id="node2" class="node">
<title>Node3</title>
<g id="a_node2"><a xlink:href="../../d9/d00/classnap_1_1_tween_base.html" target="_top" xlink:title="TweenBase">
<polygon fill="white" stroke="black" points="7.5,-78.5 7.5,-97.5 74.5,-97.5 74.5,-78.5 7.5,-78.5"/>
<text text-anchor="middle" x="41" y="-85.5" font-family="Helvetica,sans-Serif" font-size="10.00">TweenBase</text>
</a>
</g>
</g>
<!-- Node3&#45;&gt;Node2 -->
<g id="edge1" class="edge">
<title>Node3&#45;&gt;Node2</title>
<path fill="none" stroke="midnightblue" d="M57.12,-70.88C72.78,-55.22 95.96,-32.04 108.38,-19.62"/>
<polygon fill="midnightblue" stroke="midnightblue" points="54.31,-68.74 49.72,-78.28 59.26,-73.69 54.31,-68.74"/>
</g>
<!-- Node4 -->
<g id="node3" class="node">
<title>Node4</title>
<g id="a_node3"><a xlink:href="../../de/d80/classnap_1_1_signal.html" target="_top" xlink:title="Signal\&lt; Args \&gt;">
<polygon fill="white" stroke="black" points="0,-145.5 0,-164.5 82,-164.5 82,-145.5 0,-145.5"/>
<text text-anchor="middle" x="41" y="-152.5" font-family="Helvetica,sans-Serif" font-size="10.00">Signal&lt; Args &gt;</text>
</a>
</g>
</g>
<!-- Node4&#45;&gt;Node3 -->
<g id="edge2" class="edge">
<title>Node4&#45;&gt;Node3</title>
<path fill="none" stroke="#9a32cd" stroke-dasharray="5,2" d="M41,-135.04C41,-122.67 41,-107.12 41,-97.63"/>
<polygon fill="#9a32cd" stroke="#9a32cd" points="37.5,-135.23 41,-145.23 44.5,-135.23 37.5,-135.23"/>
<text text-anchor="middle" x="68.5" y="-119" font-family="Helvetica,sans-Serif" font-size="10.00"> KilledSignal</text>
</g>
<!-- Node5 -->
<g id="node4" class="node">
<title>Node5</title>
<g id="a_node4"><a xlink:href="../../de/d80/classnap_1_1_signal.html" target="_top" xlink:title="Signal\&lt; const T &amp;\&gt;">
<polygon fill="white" stroke="black" points="92.5,-78.5 92.5,-97.5 193.5,-97.5 193.5,-78.5 92.5,-78.5"/>
<text text-anchor="middle" x="143" y="-85.5" font-family="Helvetica,sans-Serif" font-size="10.00">Signal&lt; const T &amp;&gt;</text>
</a>
</g>
</g>
<!-- Node5&#45;&gt;Node2 -->
<g id="edge3" class="edge">
<title>Node5&#45;&gt;Node2</title>
<path fill="none" stroke="#9a32cd" stroke-dasharray="5,2" d="M136.73,-68.67C131.41,-53.11 124,-31.47 119.95,-19.62"/>
<polygon fill="#9a32cd" stroke="#9a32cd" points="133.47,-69.95 140.02,-78.28 140.09,-67.69 133.47,-69.95"/>
<text text-anchor="middle" x="167.5" y="-52" font-family="Helvetica,sans-Serif" font-size="10.00"> UpdateSignal</text>
<text text-anchor="middle" x="167.5" y="-41" font-family="Helvetica,sans-Serif" font-size="10.00">CompleteSignal</text>
</g>
</g>
</svg>
