<?xml version="1.0" encoding="UTF-8" standalone="no"?>
<!DOCTYPE svg PUBLIC "-//W3C//DTD SVG 1.1//EN"
 "http://www.w3.org/Graphics/SVG/1.1/DTD/svg11.dtd">
<!-- Generated by graphviz version 3.0.0 (20220226.1711)
 -->
<!-- Title: ParameterizedWindowEvent Pages: 1 -->
<svg width="240pt" height="196pt"
 viewBox="0.00 0.00 239.50 196.00" xmlns="http://www.w3.org/2000/svg" xmlns:xlink="http://www.w3.org/1999/xlink">
<g id="graph0" class="graph" transform="scale(1 1) rotate(0) translate(4 192)">
<title>ParameterizedWindowEvent</title>
<polygon fill="white" stroke="transparent" points="-4,4 -4,-192 235.5,-192 235.5,4 -4,4"/>
<!-- Node0 -->
<g id="node1" class="node">
<title>Node0</title>
<polygon fill="#bfbfbf" stroke="black" points="44.5,-56.5 44.5,-75.5 182.5,-75.5 182.5,-56.5 44.5,-56.5"/>
<text text-anchor="middle" x="113.5" y="-63.5" font-family="Helvetica,sans-Serif" font-size="10.00">ParameterizedWindowEvent</text>
</g>
<!-- Node3 -->
<g id="node4" class="node">
<title>Node3</title>
<g id="a_node4"><a xlink:href="../../d8/d4b/classnap_1_1_window_moved_event.html" target="_top" xlink:title="WindowMovedEvent">
<polygon fill="white" stroke="black" points="0,-0.5 0,-19.5 103,-19.5 103,-0.5 0,-0.5"/>
<text text-anchor="middle" x="51.5" y="-7.5" font-family="Helvetica,sans-Serif" font-size="10.00">WindowMovedEvent</text>
</a>
</g>
</g>
<!-- Node0&#45;&gt;Node3 -->
<g id="edge3" class="edge">
<title>Node0&#45;&gt;Node3</title>
<path fill="none" stroke="midnightblue" d="M95.75,-49.54C84.69,-39.91 70.87,-27.87 61.64,-19.83"/>
<polygon fill="midnightblue" stroke="midnightblue" points="93.7,-52.4 103.54,-56.32 98.3,-47.12 93.7,-52.4"/>
</g>
<!-- Node4 -->
<g id="node5" class="node">
<title>Node4</title>
<g id="a_node5"><a xlink:href="../../d7/da9/classnap_1_1_window_resized_event.html" target="_top" xlink:title="WindowResizedEvent">
<polygon fill="white" stroke="black" points="121.5,-0.5 121.5,-19.5 231.5,-19.5 231.5,-0.5 121.5,-0.5"/>
<text text-anchor="middle" x="176.5" y="-7.5" font-family="Helvetica,sans-Serif" font-size="10.00">WindowResizedEvent</text>
</a>
</g>
</g>
<!-- Node0&#45;&gt;Node4 -->
<g id="edge4" class="edge">
<title>Node0&#45;&gt;Node4</title>
<path fill="none" stroke="midnightblue" d="M131.54,-49.54C142.77,-39.91 156.82,-27.87 166.19,-19.83"/>
<polygon fill="midnightblue" stroke="midnightblue" points="128.94,-47.16 123.62,-56.32 133.49,-52.47 128.94,-47.16"/>
</g>
<!-- Node1 -->
<g id="node2" class="node">
<title>Node1</title>
<g id="a_node2"><a xlink:href="../../d5/dea/classnap_1_1_window_event.html" target="_top" xlink:title="WindowEvent">
<polygon fill="white" stroke="black" points="76,-112.5 76,-131.5 151,-131.5 151,-112.5 76,-112.5"/>
<text text-anchor="middle" x="113.5" y="-119.5" font-family="Helvetica,sans-Serif" font-size="10.00">WindowEvent</text>
</a>
</g>
</g>
<!-- Node1&#45;&gt;Node0 -->
<g id="edge1" class="edge">
<title>Node1&#45;&gt;Node0</title>
<path fill="none" stroke="midnightblue" d="M113.5,-101.8C113.5,-92.91 113.5,-82.78 113.5,-75.75"/>
<polygon fill="midnightblue" stroke="midnightblue" points="110,-102.08 113.5,-112.08 117,-102.08 110,-102.08"/>
</g>
<!-- Node2 -->
<g id="node3" class="node">
<title>Node2</title>
<g id="a_node3"><a xlink:href="../../d2/da2/classnap_1_1_event.html" target="_top" xlink:title="Event">
<polygon fill="white" stroke="black" points="93,-168.5 93,-187.5 134,-187.5 134,-168.5 93,-168.5"/>
<text text-anchor="middle" x="113.5" y="-175.5" font-family="Helvetica,sans-Serif" font-size="10.00">Event</text>
</a>
</g>
</g>
<!-- Node2&#45;&gt;Node1 -->
<g id="edge2" class="edge">
<title>Node2&#45;&gt;Node1</title>
<path fill="none" stroke="midnightblue" d="M113.5,-157.8C113.5,-148.91 113.5,-138.78 113.5,-131.75"/>
<polygon fill="midnightblue" stroke="midnightblue" points="110,-158.08 113.5,-168.08 117,-158.08 110,-158.08"/>
</g>
</g>
</svg>
