<?xml version="1.0" encoding="UTF-8" standalone="no"?>
<!DOCTYPE svg PUBLIC "-//W3C//DTD SVG 1.1//EN"
 "http://www.w3.org/Graphics/SVG/1.1/DTD/svg11.dtd">
<!-- Generated by graphviz version 2.48.0 (20210717.1556)
 -->
<!-- Title: RenderBloomComponent Pages: 1 -->
<svg width="314pt" height="277pt"
 viewBox="0.00 0.00 314.00 277.00" xmlns="http://www.w3.org/2000/svg" xmlns:xlink="http://www.w3.org/1999/xlink">
<g id="graph0" class="graph" transform="scale(1 1) rotate(0) translate(4 273)">
<title>RenderBloomComponent</title>
<polygon fill="white" stroke="transparent" points="-4,4 -4,-273 310,-273 310,4 -4,4"/>
<!-- Node5 -->
<g id="node1" class="node">
<title>Node5</title>
<polygon fill="#bfbfbf" stroke="black" points="75,-0.5 75,-19.5 200,-19.5 200,-0.5 75,-0.5"/>
<text text-anchor="middle" x="137.5" y="-7.5" font-family="Helvetica,sans-Serif" font-size="10.00">RenderBloomComponent</text>
</g>
<!-- Node6 -->
<g id="node2" class="node">
<title>Node6</title>
<g id="a_node2"><a xlink:href="../../d1/d2c/classnap_1_1_renderable_component.html" target="_top" xlink:title="RenderableComponent">
<polygon fill="white" stroke="black" points="0,-78.5 0,-97.5 115,-97.5 115,-78.5 0,-78.5"/>
<text text-anchor="middle" x="57.5" y="-85.5" font-family="Helvetica,sans-Serif" font-size="10.00">RenderableComponent</text>
</a>
</g>
</g>
<!-- Node6&#45;&gt;Node5 -->
<g id="edge1" class="edge">
<title>Node6&#45;&gt;Node5</title>
<path fill="none" stroke="midnightblue" d="M74.02,-71.3C90.51,-55.64 115.23,-32.16 128.43,-19.62"/>
<polygon fill="midnightblue" stroke="midnightblue" points="71.52,-68.86 66.68,-78.28 76.34,-73.93 71.52,-68.86"/>
</g>
<!-- Node7 -->
<g id="node3" class="node">
<title>Node7</title>
<g id="a_node3"><a xlink:href="../../db/d6b/classnap_1_1_component.html" target="_top" xlink:title="Component">
<polygon fill="white" stroke="black" points="24.5,-135.5 24.5,-154.5 90.5,-154.5 90.5,-135.5 24.5,-135.5"/>
<text text-anchor="middle" x="57.5" y="-142.5" font-family="Helvetica,sans-Serif" font-size="10.00">Component</text>
</a>
</g>
</g>
<!-- Node7&#45;&gt;Node6 -->
<g id="edge2" class="edge">
<title>Node7&#45;&gt;Node6</title>
<path fill="none" stroke="midnightblue" d="M57.5,-125.12C57.5,-115.82 57.5,-105.06 57.5,-97.71"/>
<polygon fill="midnightblue" stroke="midnightblue" points="54,-125.41 57.5,-135.41 61,-125.41 54,-125.41"/>
</g>
<!-- Node8 -->
<g id="node4" class="node">
<title>Node8</title>
<g id="a_node4"><a xlink:href="../../d9/dea/classnap_1_1_resource.html" target="_top" xlink:title="Resource">
<polygon fill="white" stroke="black" points="28.5,-192.5 28.5,-211.5 86.5,-211.5 86.5,-192.5 28.5,-192.5"/>
<text text-anchor="middle" x="57.5" y="-199.5" font-family="Helvetica,sans-Serif" font-size="10.00">Resource</text>
</a>
</g>
</g>
<!-- Node8&#45;&gt;Node7 -->
<g id="edge3" class="edge">
<title>Node8&#45;&gt;Node7</title>
<path fill="none" stroke="midnightblue" d="M57.5,-182.12C57.5,-172.82 57.5,-162.06 57.5,-154.71"/>
<polygon fill="midnightblue" stroke="midnightblue" points="54,-182.41 57.5,-192.41 61,-182.41 54,-182.41"/>
</g>
<!-- Node9 -->
<g id="node5" class="node">
<title>Node9</title>
<g id="a_node5"><a xlink:href="../../de/d01/classnap_1_1rtti_1_1_object.html" target="_top" xlink:title="Object">
<polygon fill="white" stroke="black" points="35,-249.5 35,-268.5 80,-268.5 80,-249.5 35,-249.5"/>
<text text-anchor="middle" x="57.5" y="-256.5" font-family="Helvetica,sans-Serif" font-size="10.00">Object</text>
</a>
</g>
</g>
<!-- Node9&#45;&gt;Node8 -->
<g id="edge4" class="edge">
<title>Node9&#45;&gt;Node8</title>
<path fill="none" stroke="midnightblue" d="M57.5,-239.12C57.5,-229.82 57.5,-219.06 57.5,-211.71"/>
<polygon fill="midnightblue" stroke="midnightblue" points="54,-239.41 57.5,-249.41 61,-239.41 54,-239.41"/>
</g>
<!-- Node10 -->
<g id="node6" class="node">
<title>Node10</title>
<g id="a_node6"><a xlink:href="../../dd/d7c/classnap_1_1rtti_1_1_object_ptr.html" target="_top" xlink:title="ObjectPtr\&lt; nap::RenderTexture2D \&gt;">
<polygon fill="white" stroke="black" points="133,-78.5 133,-97.5 306,-97.5 306,-78.5 133,-78.5"/>
<text text-anchor="middle" x="219.5" y="-85.5" font-family="Helvetica,sans-Serif" font-size="10.00">ObjectPtr&lt; nap::RenderTexture2D &gt;</text>
</a>
</g>
</g>
<!-- Node10&#45;&gt;Node5 -->
<g id="edge5" class="edge">
<title>Node10&#45;&gt;Node5</title>
<path fill="none" stroke="#9a32cd" stroke-dasharray="5,2" d="M202.56,-71.3C185.67,-55.64 160.33,-32.16 146.8,-19.62"/>
<polygon fill="#9a32cd" stroke="#9a32cd" points="200.38,-74.05 210.09,-78.28 205.14,-68.92 200.38,-74.05"/>
<text text-anchor="middle" x="223.5" y="-52" font-family="Helvetica,sans-Serif" font-size="10.00"> mInputTexture</text>
<text text-anchor="middle" x="223.5" y="-41" font-family="Helvetica,sans-Serif" font-size="10.00">mOutputTexture</text>
</g>
<!-- Node11 -->
<g id="node7" class="node">
<title>Node11</title>
<g id="a_node7"><a xlink:href="../../d7/dcb/classnap_1_1rtti_1_1_object_ptr_base.html" target="_top" xlink:title="ObjectPtrBase">
<polygon fill="white" stroke="black" points="179.5,-135.5 179.5,-154.5 259.5,-154.5 259.5,-135.5 179.5,-135.5"/>
<text text-anchor="middle" x="219.5" y="-142.5" font-family="Helvetica,sans-Serif" font-size="10.00">ObjectPtrBase</text>
</a>
</g>
</g>
<!-- Node11&#45;&gt;Node10 -->
<g id="edge6" class="edge">
<title>Node11&#45;&gt;Node10</title>
<path fill="none" stroke="midnightblue" d="M219.5,-125.12C219.5,-115.82 219.5,-105.06 219.5,-97.71"/>
<polygon fill="midnightblue" stroke="midnightblue" points="216,-125.41 219.5,-135.41 223,-125.41 216,-125.41"/>
</g>
</g>
</svg>
