<?xml version="1.0" encoding="UTF-8" standalone="no"?>
<!DOCTYPE svg PUBLIC "-//W3C//DTD SVG 1.1//EN"
 "http://www.w3.org/Graphics/SVG/1.1/DTD/svg11.dtd">
<!-- Generated by graphviz version 2.43.0 (0)
 -->
<!-- Title: RenderBloomComponent Pages: 1 -->
<svg width="346pt" height="277pt"
 viewBox="0.00 0.00 346.00 277.00" xmlns="http://www.w3.org/2000/svg" xmlns:xlink="http://www.w3.org/1999/xlink">
<g id="graph0" class="graph" transform="scale(1 1) rotate(0) translate(4 273)">
<title>RenderBloomComponent</title>
<polygon fill="white" stroke="transparent" points="-4,4 -4,-273 342,-273 342,4 -4,4"/>
<!-- Node1 -->
<g id="node1" class="node">
<title>Node1</title>
<g id="a_node1"><a xlink:title=" ">
<polygon fill="#bfbfbf" stroke="black" points="82.5,-0.5 82.5,-19.5 221.5,-19.5 221.5,-0.5 82.5,-0.5"/>
<text text-anchor="middle" x="152" y="-7.5" font-family="Helvetica,sans-Serif" font-size="10.00">RenderBloomComponent</text>
</a>
</g>
</g>
<!-- Node2 -->
<g id="node2" class="node">
<title>Node2</title>
<g id="a_node2"><a xlink:href="../../d1/d2c/classnap_1_1_renderable_component.html" target="_top" xlink:title=" ">
<polygon fill="white" stroke="black" points="0,-78.5 0,-97.5 128,-97.5 128,-78.5 0,-78.5"/>
<text text-anchor="middle" x="64" y="-85.5" font-family="Helvetica,sans-Serif" font-size="10.00">RenderableComponent</text>
</a>
</g>
</g>
<!-- Node2&#45;&gt;Node1 -->
<g id="edge1" class="edge">
<title>Node2&#45;&gt;Node1</title>
<path fill="none" stroke="midnightblue" d="M81.68,-71.73C99.81,-56.07 127.37,-32.27 142.02,-19.62"/>
<polygon fill="midnightblue" stroke="midnightblue" points="79.38,-69.1 74.09,-78.28 83.95,-74.39 79.38,-69.1"/>
</g>
<!-- Node3 -->
<g id="node3" class="node">
<title>Node3</title>
<g id="a_node3"><a xlink:href="../../db/d6b/classnap_1_1_component.html" target="_top" xlink:title=" ">
<polygon fill="white" stroke="black" points="27.5,-135.5 27.5,-154.5 100.5,-154.5 100.5,-135.5 27.5,-135.5"/>
<text text-anchor="middle" x="64" y="-142.5" font-family="Helvetica,sans-Serif" font-size="10.00">Component</text>
</a>
</g>
</g>
<!-- Node3&#45;&gt;Node2 -->
<g id="edge2" class="edge">
<title>Node3&#45;&gt;Node2</title>
<path fill="none" stroke="midnightblue" d="M64,-125.12C64,-115.82 64,-105.06 64,-97.71"/>
<polygon fill="midnightblue" stroke="midnightblue" points="60.5,-125.41 64,-135.41 67.5,-125.41 60.5,-125.41"/>
</g>
<!-- Node4 -->
<g id="node4" class="node">
<title>Node4</title>
<g id="a_node4"><a xlink:href="../../d9/dea/classnap_1_1_resource.html" target="_top" xlink:title=" ">
<polygon fill="white" stroke="black" points="33,-192.5 33,-211.5 95,-211.5 95,-192.5 33,-192.5"/>
<text text-anchor="middle" x="64" y="-199.5" font-family="Helvetica,sans-Serif" font-size="10.00">Resource</text>
</a>
</g>
</g>
<!-- Node4&#45;&gt;Node3 -->
<g id="edge3" class="edge">
<title>Node4&#45;&gt;Node3</title>
<path fill="none" stroke="midnightblue" d="M64,-182.12C64,-172.82 64,-162.06 64,-154.71"/>
<polygon fill="midnightblue" stroke="midnightblue" points="60.5,-182.41 64,-192.41 67.5,-182.41 60.5,-182.41"/>
</g>
<!-- Node5 -->
<g id="node5" class="node">
<title>Node5</title>
<g id="a_node5"><a xlink:href="../../de/d01/classnap_1_1rtti_1_1_object.html" target="_top" xlink:title=" ">
<polygon fill="white" stroke="black" points="40,-249.5 40,-268.5 88,-268.5 88,-249.5 40,-249.5"/>
<text text-anchor="middle" x="64" y="-256.5" font-family="Helvetica,sans-Serif" font-size="10.00">Object</text>
</a>
</g>
</g>
<!-- Node5&#45;&gt;Node4 -->
<g id="edge4" class="edge">
<title>Node5&#45;&gt;Node4</title>
<path fill="none" stroke="midnightblue" d="M64,-239.12C64,-229.82 64,-219.06 64,-211.71"/>
<polygon fill="midnightblue" stroke="midnightblue" points="60.5,-239.41 64,-249.41 67.5,-239.41 60.5,-239.41"/>
</g>
<!-- Node6 -->
<g id="node6" class="node">
<title>Node6</title>
<g id="a_node6"><a xlink:href="../../dd/d7c/classnap_1_1rtti_1_1_object_ptr.html" target="_top" xlink:title=" ">
<polygon fill="white" stroke="black" points="146,-78.5 146,-97.5 338,-97.5 338,-78.5 146,-78.5"/>
<text text-anchor="middle" x="242" y="-85.5" font-family="Helvetica,sans-Serif" font-size="10.00">ObjectPtr&lt; nap::RenderTexture2D &gt;</text>
</a>
</g>
</g>
<!-- Node6&#45;&gt;Node1 -->
<g id="edge5" class="edge">
<title>Node6&#45;&gt;Node1</title>
<path fill="none" stroke="#9a32cd" stroke-dasharray="5,2" d="M223.92,-71.73C205.37,-56.07 177.19,-32.27 162.2,-19.62"/>
<polygon fill="#9a32cd" stroke="#9a32cd" points="221.78,-74.5 231.68,-78.28 226.29,-69.16 221.78,-74.5"/>
<text text-anchor="middle" x="247.5" y="-52" font-family="Helvetica,sans-Serif" font-size="10.00"> mInputTexture</text>
<text text-anchor="middle" x="247.5" y="-41" font-family="Helvetica,sans-Serif" font-size="10.00">mOutputTexture</text>
</g>
<!-- Node7 -->
<g id="node7" class="node">
<title>Node7</title>
<g id="a_node7"><a xlink:href="../../d7/dcb/classnap_1_1rtti_1_1_object_ptr_base.html" target="_top" xlink:title=" ">
<polygon fill="white" stroke="black" points="199,-135.5 199,-154.5 285,-154.5 285,-135.5 199,-135.5"/>
<text text-anchor="middle" x="242" y="-142.5" font-family="Helvetica,sans-Serif" font-size="10.00">ObjectPtrBase</text>
</a>
</g>
</g>
<!-- Node7&#45;&gt;Node6 -->
<g id="edge6" class="edge">
<title>Node7&#45;&gt;Node6</title>
<path fill="none" stroke="midnightblue" d="M242,-125.12C242,-115.82 242,-105.06 242,-97.71"/>
<polygon fill="midnightblue" stroke="midnightblue" points="238.5,-125.41 242,-135.41 245.5,-125.41 238.5,-125.41"/>
</g>
</g>
</svg>
