<?xml version="1.0" encoding="UTF-8" standalone="no"?>
<!DOCTYPE svg PUBLIC "-//W3C//DTD SVG 1.1//EN"
 "http://www.w3.org/Graphics/SVG/1.1/DTD/svg11.dtd">
<!-- Generated by graphviz version 2.48.0 (20210717.1556)
 -->
<!-- Title: Sampler Pages: 1 -->
<svg width="174pt" height="252pt"
 viewBox="0.00 0.00 173.50 252.00" xmlns="http://www.w3.org/2000/svg" xmlns:xlink="http://www.w3.org/1999/xlink">
<g id="graph0" class="graph" transform="scale(1 1) rotate(0) translate(4 248)">
<title>Sampler</title>
<polygon fill="white" stroke="transparent" points="-4,4 -4,-248 169.5,-248 169.5,4 -4,4"/>
<!-- Node0 -->
<g id="node1" class="node">
<title>Node0</title>
<polygon fill="#bfbfbf" stroke="black" points="50,-112.5 50,-131.5 103,-131.5 103,-112.5 50,-112.5"/>
<text text-anchor="middle" x="76.5" y="-119.5" font-family="Helvetica,sans-Serif" font-size="10.00">Sampler</text>
</g>
<!-- Node3 -->
<g id="node4" class="node">
<title>Node3</title>
<g id="a_node4"><a xlink:href="../../d7/d5c/classnap_1_1_sampler2_d.html" target="_top" xlink:title="Sampler2D">
<polygon fill="white" stroke="black" points="0,-56.5 0,-75.5 65,-75.5 65,-56.5 0,-56.5"/>
<text text-anchor="middle" x="32.5" y="-63.5" font-family="Helvetica,sans-Serif" font-size="10.00">Sampler2D</text>
</a>
</g>
</g>
<!-- Node0&#45;&gt;Node3 -->
<g id="edge3" class="edge">
<title>Node0&#45;&gt;Node3</title>
<path fill="none" stroke="midnightblue" d="M62.77,-104.14C55.1,-94.74 45.87,-83.4 39.63,-75.75"/>
<polygon fill="midnightblue" stroke="midnightblue" points="60.2,-106.54 69.23,-112.08 65.63,-102.12 60.2,-106.54"/>
</g>
<!-- Node4 -->
<g id="node5" class="node">
<title>Node4</title>
<g id="a_node5"><a xlink:href="../../d1/d32/classnap_1_1_sampler_array.html" target="_top" xlink:title="SamplerArray">
<polygon fill="white" stroke="black" points="83.5,-56.5 83.5,-75.5 159.5,-75.5 159.5,-56.5 83.5,-56.5"/>
<text text-anchor="middle" x="121.5" y="-63.5" font-family="Helvetica,sans-Serif" font-size="10.00">SamplerArray</text>
</a>
</g>
</g>
<!-- Node0&#45;&gt;Node4 -->
<g id="edge4" class="edge">
<title>Node0&#45;&gt;Node4</title>
<path fill="none" stroke="midnightblue" d="M90.55,-104.14C98.39,-94.74 107.83,-83.4 114.21,-75.75"/>
<polygon fill="midnightblue" stroke="midnightblue" points="87.64,-102.16 83.93,-112.08 93.02,-106.64 87.64,-102.16"/>
</g>
<!-- Node1 -->
<g id="node2" class="node">
<title>Node1</title>
<g id="a_node2"><a xlink:href="../../d9/dea/classnap_1_1_resource.html" target="_top" xlink:title="Resource">
<polygon fill="white" stroke="black" points="47.5,-168.5 47.5,-187.5 105.5,-187.5 105.5,-168.5 47.5,-168.5"/>
<text text-anchor="middle" x="76.5" y="-175.5" font-family="Helvetica,sans-Serif" font-size="10.00">Resource</text>
</a>
</g>
</g>
<!-- Node1&#45;&gt;Node0 -->
<g id="edge1" class="edge">
<title>Node1&#45;&gt;Node0</title>
<path fill="none" stroke="midnightblue" d="M76.5,-157.8C76.5,-148.91 76.5,-138.78 76.5,-131.75"/>
<polygon fill="midnightblue" stroke="midnightblue" points="73,-158.08 76.5,-168.08 80,-158.08 73,-158.08"/>
</g>
<!-- Node2 -->
<g id="node3" class="node">
<title>Node2</title>
<g id="a_node3"><a xlink:href="../../de/d01/classnap_1_1rtti_1_1_object.html" target="_top" xlink:title="Object">
<polygon fill="white" stroke="black" points="54,-224.5 54,-243.5 99,-243.5 99,-224.5 54,-224.5"/>
<text text-anchor="middle" x="76.5" y="-231.5" font-family="Helvetica,sans-Serif" font-size="10.00">Object</text>
</a>
</g>
</g>
<!-- Node2&#45;&gt;Node1 -->
<g id="edge2" class="edge">
<title>Node2&#45;&gt;Node1</title>
<path fill="none" stroke="midnightblue" d="M76.5,-213.8C76.5,-204.91 76.5,-194.78 76.5,-187.75"/>
<polygon fill="midnightblue" stroke="midnightblue" points="73,-214.08 76.5,-224.08 80,-214.08 73,-214.08"/>
</g>
<!-- Node5 -->
<g id="node6" class="node">
<title>Node5</title>
<g id="a_node6"><a xlink:href="../../de/d6f/classnap_1_1_sampler2_d_array.html" target="_top" xlink:title="Sampler2DArray">
<polygon fill="white" stroke="black" points="77.5,-0.5 77.5,-19.5 165.5,-19.5 165.5,-0.5 77.5,-0.5"/>
<text text-anchor="middle" x="121.5" y="-7.5" font-family="Helvetica,sans-Serif" font-size="10.00">Sampler2DArray</text>
</a>
</g>
</g>
<!-- Node4&#45;&gt;Node5 -->
<g id="edge5" class="edge">
<title>Node4&#45;&gt;Node5</title>
<path fill="none" stroke="midnightblue" d="M121.5,-45.8C121.5,-36.91 121.5,-26.78 121.5,-19.75"/>
<polygon fill="midnightblue" stroke="midnightblue" points="118,-46.08 121.5,-56.08 125,-46.08 118,-46.08"/>
</g>
</g>
</svg>
