<?xml version="1.0" encoding="UTF-8" standalone="no"?>
<!DOCTYPE svg PUBLIC "-//W3C//DTD SVG 1.1//EN"
 "http://www.w3.org/Graphics/SVG/1.1/DTD/svg11.dtd">
<!-- Generated by graphviz version 2.48.0 (20210717.1556)
 -->
<!-- Title: Renderable3DTextComponent Pages: 1 -->
<svg width="373pt" height="323pt"
 viewBox="0.00 0.00 372.50 323.00" xmlns="http://www.w3.org/2000/svg" xmlns:xlink="http://www.w3.org/1999/xlink">
<g id="graph0" class="graph" transform="scale(1 1) rotate(0) translate(4 319)">
<title>Renderable3DTextComponent</title>
<polygon fill="white" stroke="transparent" points="-4,4 -4,-319 368.5,-319 368.5,4 -4,4"/>
<!-- Node6 -->
<g id="node1" class="node">
<title>Node6</title>
<polygon fill="#bfbfbf" stroke="black" points="118.5,-0.5 118.5,-19.5 264.5,-19.5 264.5,-0.5 118.5,-0.5"/>
<text text-anchor="middle" x="191.5" y="-7.5" font-family="Helvetica,sans-Serif" font-size="10.00">Renderable3DTextComponent</text>
</g>
<!-- Node7 -->
<g id="node2" class="node">
<title>Node7</title>
<g id="a_node2"><a xlink:href="../../d6/d4f/classnap_1_1_renderable_text_component.html" target="_top" xlink:title="RenderableTextComponent">
<polygon fill="white" stroke="black" points="124.5,-57.5 124.5,-76.5 258.5,-76.5 258.5,-57.5 124.5,-57.5"/>
<text text-anchor="middle" x="191.5" y="-64.5" font-family="Helvetica,sans-Serif" font-size="10.00">RenderableTextComponent</text>
</a>
</g>
</g>
<!-- Node7&#45;&gt;Node6 -->
<g id="edge1" class="edge">
<title>Node7&#45;&gt;Node6</title>
<path fill="none" stroke="midnightblue" d="M191.5,-47.12C191.5,-37.82 191.5,-27.06 191.5,-19.71"/>
<polygon fill="midnightblue" stroke="midnightblue" points="188,-47.41 191.5,-57.41 195,-47.41 188,-47.41"/>
</g>
<!-- Node8 -->
<g id="node3" class="node">
<title>Node8</title>
<g id="a_node3"><a xlink:href="../../d1/d2c/classnap_1_1_renderable_component.html" target="_top" xlink:title="RenderableComponent">
<polygon fill="white" stroke="black" points="0,-124.5 0,-143.5 115,-143.5 115,-124.5 0,-124.5"/>
<text text-anchor="middle" x="57.5" y="-131.5" font-family="Helvetica,sans-Serif" font-size="10.00">RenderableComponent</text>
</a>
</g>
</g>
<!-- Node8&#45;&gt;Node7 -->
<g id="edge2" class="edge">
<title>Node8&#45;&gt;Node7</title>
<path fill="none" stroke="midnightblue" d="M84.42,-119.94C110.96,-107.07 150.77,-87.76 173.63,-76.67"/>
<polygon fill="midnightblue" stroke="midnightblue" points="82.76,-116.85 75.29,-124.37 85.82,-123.15 82.76,-116.85"/>
</g>
<!-- Node9 -->
<g id="node4" class="node">
<title>Node9</title>
<g id="a_node4"><a xlink:href="../../db/d6b/classnap_1_1_component.html" target="_top" xlink:title="Component">
<polygon fill="white" stroke="black" points="24.5,-181.5 24.5,-200.5 90.5,-200.5 90.5,-181.5 24.5,-181.5"/>
<text text-anchor="middle" x="57.5" y="-188.5" font-family="Helvetica,sans-Serif" font-size="10.00">Component</text>
</a>
</g>
</g>
<!-- Node9&#45;&gt;Node8 -->
<g id="edge3" class="edge">
<title>Node9&#45;&gt;Node8</title>
<path fill="none" stroke="midnightblue" d="M57.5,-171.12C57.5,-161.82 57.5,-151.06 57.5,-143.71"/>
<polygon fill="midnightblue" stroke="midnightblue" points="54,-171.41 57.5,-181.41 61,-171.41 54,-171.41"/>
</g>
<!-- Node10 -->
<g id="node5" class="node">
<title>Node10</title>
<g id="a_node5"><a xlink:href="../../d9/dea/classnap_1_1_resource.html" target="_top" xlink:title="Resource">
<polygon fill="white" stroke="black" points="28.5,-238.5 28.5,-257.5 86.5,-257.5 86.5,-238.5 28.5,-238.5"/>
<text text-anchor="middle" x="57.5" y="-245.5" font-family="Helvetica,sans-Serif" font-size="10.00">Resource</text>
</a>
</g>
</g>
<!-- Node10&#45;&gt;Node9 -->
<g id="edge4" class="edge">
<title>Node10&#45;&gt;Node9</title>
<path fill="none" stroke="midnightblue" d="M57.5,-228.12C57.5,-218.82 57.5,-208.06 57.5,-200.71"/>
<polygon fill="midnightblue" stroke="midnightblue" points="54,-228.41 57.5,-238.41 61,-228.41 54,-228.41"/>
</g>
<!-- Node11 -->
<g id="node6" class="node">
<title>Node11</title>
<g id="a_node6"><a xlink:href="../../de/d01/classnap_1_1rtti_1_1_object.html" target="_top" xlink:title="Object">
<polygon fill="white" stroke="black" points="35,-295.5 35,-314.5 80,-314.5 80,-295.5 35,-295.5"/>
<text text-anchor="middle" x="57.5" y="-302.5" font-family="Helvetica,sans-Serif" font-size="10.00">Object</text>
</a>
</g>
</g>
<!-- Node11&#45;&gt;Node10 -->
<g id="edge5" class="edge">
<title>Node11&#45;&gt;Node10</title>
<path fill="none" stroke="midnightblue" d="M57.5,-285.12C57.5,-275.82 57.5,-265.06 57.5,-257.71"/>
<polygon fill="midnightblue" stroke="midnightblue" points="54,-285.41 57.5,-295.41 61,-285.41 54,-285.41"/>
</g>
<!-- Node12 -->
<g id="node7" class="node">
<title>Node12</title>
<g id="a_node7"><a xlink:href="../../dd/d7c/classnap_1_1rtti_1_1_object_ptr.html" target="_top" xlink:title="ObjectPtr\&lt; nap::Font \&gt;">
<polygon fill="white" stroke="black" points="133,-124.5 133,-143.5 250,-143.5 250,-124.5 133,-124.5"/>
<text text-anchor="middle" x="191.5" y="-131.5" font-family="Helvetica,sans-Serif" font-size="10.00">ObjectPtr&lt; nap::Font &gt;</text>
</a>
</g>
</g>
<!-- Node12&#45;&gt;Node7 -->
<g id="edge6" class="edge">
<title>Node12&#45;&gt;Node7</title>
<path fill="none" stroke="#9a32cd" stroke-dasharray="5,2" d="M191.5,-114.04C191.5,-101.67 191.5,-86.12 191.5,-76.63"/>
<polygon fill="#9a32cd" stroke="#9a32cd" points="188,-114.23 191.5,-124.23 195,-114.23 188,-114.23"/>
<text text-anchor="middle" x="207" y="-98" font-family="Helvetica,sans-Serif" font-size="10.00"> mFont</text>
</g>
<!-- Node13 -->
<g id="node8" class="node">
<title>Node13</title>
<g id="a_node8"><a xlink:href="../../d7/dcb/classnap_1_1rtti_1_1_object_ptr_base.html" target="_top" xlink:title="ObjectPtrBase">
<polygon fill="white" stroke="black" points="151.5,-181.5 151.5,-200.5 231.5,-200.5 231.5,-181.5 151.5,-181.5"/>
<text text-anchor="middle" x="191.5" y="-188.5" font-family="Helvetica,sans-Serif" font-size="10.00">ObjectPtrBase</text>
</a>
</g>
</g>
<!-- Node13&#45;&gt;Node12 -->
<g id="edge7" class="edge">
<title>Node13&#45;&gt;Node12</title>
<path fill="none" stroke="midnightblue" d="M191.5,-171.12C191.5,-161.82 191.5,-151.06 191.5,-143.71"/>
<polygon fill="midnightblue" stroke="midnightblue" points="188,-171.41 191.5,-181.41 195,-171.41 188,-171.41"/>
</g>
<!-- Node14 -->
<g id="node9" class="node">
<title>Node14</title>
<g id="a_node9"><a xlink:href="../../d4/dd7/classnap_1_1_r_g_b_color.html" target="_top" xlink:title="RGBColor\&lt; float \&gt;">
<polygon fill="white" stroke="black" points="268.5,-124.5 268.5,-143.5 364.5,-143.5 364.5,-124.5 268.5,-124.5"/>
<text text-anchor="middle" x="316.5" y="-131.5" font-family="Helvetica,sans-Serif" font-size="10.00">RGBColor&lt; float &gt;</text>
</a>
</g>
</g>
<!-- Node14&#45;&gt;Node7 -->
<g id="edge8" class="edge">
<title>Node14&#45;&gt;Node7</title>
<path fill="none" stroke="#9a32cd" stroke-dasharray="5,2" d="M290.74,-119.6C265.98,-106.73 229.31,-87.66 208.17,-76.67"/>
<polygon fill="#9a32cd" stroke="#9a32cd" points="289.41,-122.86 299.9,-124.37 292.64,-116.65 289.41,-122.86"/>
<text text-anchor="middle" x="278.5" y="-98" font-family="Helvetica,sans-Serif" font-size="10.00"> mColor</text>
</g>
<!-- Node15 -->
<g id="node10" class="node">
<title>Node15</title>
<g id="a_node10"><a xlink:href="../../d6/d3d/classnap_1_1_color.html" target="_top" xlink:title="Color\&lt; float, 3 \&gt;">
<polygon fill="white" stroke="black" points="273.5,-181.5 273.5,-200.5 359.5,-200.5 359.5,-181.5 273.5,-181.5"/>
<text text-anchor="middle" x="316.5" y="-188.5" font-family="Helvetica,sans-Serif" font-size="10.00">Color&lt; float, 3 &gt;</text>
</a>
</g>
</g>
<!-- Node15&#45;&gt;Node14 -->
<g id="edge9" class="edge">
<title>Node15&#45;&gt;Node14</title>
<path fill="none" stroke="midnightblue" d="M316.5,-171.12C316.5,-161.82 316.5,-151.06 316.5,-143.71"/>
<polygon fill="midnightblue" stroke="midnightblue" points="313,-171.41 316.5,-181.41 320,-171.41 313,-171.41"/>
</g>
<!-- Node16 -->
<g id="node11" class="node">
<title>Node16</title>
<g id="a_node11"><a xlink:href="../../d8/d6a/classnap_1_1_base_color.html" target="_top" xlink:title="BaseColor">
<polygon fill="white" stroke="black" points="285.5,-238.5 285.5,-257.5 347.5,-257.5 347.5,-238.5 285.5,-238.5"/>
<text text-anchor="middle" x="316.5" y="-245.5" font-family="Helvetica,sans-Serif" font-size="10.00">BaseColor</text>
</a>
</g>
</g>
<!-- Node16&#45;&gt;Node15 -->
<g id="edge10" class="edge">
<title>Node16&#45;&gt;Node15</title>
<path fill="none" stroke="midnightblue" d="M316.5,-228.12C316.5,-218.82 316.5,-208.06 316.5,-200.71"/>
<polygon fill="midnightblue" stroke="midnightblue" points="313,-228.41 316.5,-238.41 320,-228.41 313,-228.41"/>
</g>
</g>
</svg>
