<?xml version="1.0" encoding="UTF-8" standalone="no"?>
<!DOCTYPE svg PUBLIC "-//W3C//DTD SVG 1.1//EN"
 "http://www.w3.org/Graphics/SVG/1.1/DTD/svg11.dtd">
<!-- Generated by graphviz version 2.43.0 (0)
 -->
<!-- Title: Renderable3DTextComponent Pages: 1 -->
<svg width="409pt" height="323pt"
 viewBox="0.00 0.00 408.50 323.00" xmlns="http://www.w3.org/2000/svg" xmlns:xlink="http://www.w3.org/1999/xlink">
<g id="graph0" class="graph" transform="scale(1 1) rotate(0) translate(4 319)">
<title>Renderable3DTextComponent</title>
<polygon fill="white" stroke="transparent" points="-4,4 -4,-319 404.5,-319 404.5,4 -4,4"/>
<!-- Node1 -->
<g id="node1" class="node">
<title>Node1</title>
<g id="a_node1"><a xlink:title=" ">
<polygon fill="#bfbfbf" stroke="black" points="130,-0.5 130,-19.5 292,-19.5 292,-0.5 130,-0.5"/>
<text text-anchor="middle" x="211" y="-7.5" font-family="Helvetica,sans-Serif" font-size="10.00">Renderable3DTextComponent</text>
</a>
</g>
</g>
<!-- Node2 -->
<g id="node2" class="node">
<title>Node2</title>
<g id="a_node2"><a xlink:href="../../d6/d4f/classnap_1_1_renderable_text_component.html" target="_top" xlink:title=" ">
<polygon fill="white" stroke="black" points="136.5,-57.5 136.5,-76.5 285.5,-76.5 285.5,-57.5 136.5,-57.5"/>
<text text-anchor="middle" x="211" y="-64.5" font-family="Helvetica,sans-Serif" font-size="10.00">RenderableTextComponent</text>
</a>
</g>
</g>
<!-- Node2&#45;&gt;Node1 -->
<g id="edge1" class="edge">
<title>Node2&#45;&gt;Node1</title>
<path fill="none" stroke="midnightblue" d="M211,-47.12C211,-37.82 211,-27.06 211,-19.71"/>
<polygon fill="midnightblue" stroke="midnightblue" points="207.5,-47.41 211,-57.41 214.5,-47.41 207.5,-47.41"/>
</g>
<!-- Node3 -->
<g id="node3" class="node">
<title>Node3</title>
<g id="a_node3"><a xlink:href="../../d1/d2c/classnap_1_1_renderable_component.html" target="_top" xlink:title=" ">
<polygon fill="white" stroke="black" points="0,-124.5 0,-143.5 128,-143.5 128,-124.5 0,-124.5"/>
<text text-anchor="middle" x="64" y="-131.5" font-family="Helvetica,sans-Serif" font-size="10.00">RenderableComponent</text>
</a>
</g>
</g>
<!-- Node3&#45;&gt;Node2 -->
<g id="edge2" class="edge">
<title>Node3&#45;&gt;Node2</title>
<path fill="none" stroke="midnightblue" d="M92.76,-120.28C121.88,-107.41 166.1,-87.85 191.4,-76.67"/>
<polygon fill="midnightblue" stroke="midnightblue" points="91.25,-117.12 83.52,-124.37 94.08,-123.53 91.25,-117.12"/>
</g>
<!-- Node4 -->
<g id="node4" class="node">
<title>Node4</title>
<g id="a_node4"><a xlink:href="../../db/d6b/classnap_1_1_component.html" target="_top" xlink:title=" ">
<polygon fill="white" stroke="black" points="27.5,-181.5 27.5,-200.5 100.5,-200.5 100.5,-181.5 27.5,-181.5"/>
<text text-anchor="middle" x="64" y="-188.5" font-family="Helvetica,sans-Serif" font-size="10.00">Component</text>
</a>
</g>
</g>
<!-- Node4&#45;&gt;Node3 -->
<g id="edge3" class="edge">
<title>Node4&#45;&gt;Node3</title>
<path fill="none" stroke="midnightblue" d="M64,-171.12C64,-161.82 64,-151.06 64,-143.71"/>
<polygon fill="midnightblue" stroke="midnightblue" points="60.5,-171.41 64,-181.41 67.5,-171.41 60.5,-171.41"/>
</g>
<!-- Node5 -->
<g id="node5" class="node">
<title>Node5</title>
<g id="a_node5"><a xlink:href="../../d9/dea/classnap_1_1_resource.html" target="_top" xlink:title=" ">
<polygon fill="white" stroke="black" points="33,-238.5 33,-257.5 95,-257.5 95,-238.5 33,-238.5"/>
<text text-anchor="middle" x="64" y="-245.5" font-family="Helvetica,sans-Serif" font-size="10.00">Resource</text>
</a>
</g>
</g>
<!-- Node5&#45;&gt;Node4 -->
<g id="edge4" class="edge">
<title>Node5&#45;&gt;Node4</title>
<path fill="none" stroke="midnightblue" d="M64,-228.12C64,-218.82 64,-208.06 64,-200.71"/>
<polygon fill="midnightblue" stroke="midnightblue" points="60.5,-228.41 64,-238.41 67.5,-228.41 60.5,-228.41"/>
</g>
<!-- Node6 -->
<g id="node6" class="node">
<title>Node6</title>
<g id="a_node6"><a xlink:href="../../de/d01/classnap_1_1rtti_1_1_object.html" target="_top" xlink:title=" ">
<polygon fill="white" stroke="black" points="40,-295.5 40,-314.5 88,-314.5 88,-295.5 40,-295.5"/>
<text text-anchor="middle" x="64" y="-302.5" font-family="Helvetica,sans-Serif" font-size="10.00">Object</text>
</a>
</g>
</g>
<!-- Node6&#45;&gt;Node5 -->
<g id="edge5" class="edge">
<title>Node6&#45;&gt;Node5</title>
<path fill="none" stroke="midnightblue" d="M64,-285.12C64,-275.82 64,-265.06 64,-257.71"/>
<polygon fill="midnightblue" stroke="midnightblue" points="60.5,-285.41 64,-295.41 67.5,-285.41 60.5,-285.41"/>
</g>
<!-- Node7 -->
<g id="node7" class="node">
<title>Node7</title>
<g id="a_node7"><a xlink:href="../../dd/d7c/classnap_1_1rtti_1_1_object_ptr.html" target="_top" xlink:title=" ">
<polygon fill="white" stroke="black" points="146.5,-124.5 146.5,-143.5 275.5,-143.5 275.5,-124.5 146.5,-124.5"/>
<text text-anchor="middle" x="211" y="-131.5" font-family="Helvetica,sans-Serif" font-size="10.00">ObjectPtr&lt; nap::Font &gt;</text>
</a>
</g>
</g>
<!-- Node7&#45;&gt;Node2 -->
<g id="edge6" class="edge">
<title>Node7&#45;&gt;Node2</title>
<path fill="none" stroke="#9a32cd" stroke-dasharray="5,2" d="M211,-114.04C211,-101.67 211,-86.12 211,-76.63"/>
<polygon fill="#9a32cd" stroke="#9a32cd" points="207.5,-114.23 211,-124.23 214.5,-114.23 207.5,-114.23"/>
<text text-anchor="middle" x="228" y="-98" font-family="Helvetica,sans-Serif" font-size="10.00"> mFont</text>
</g>
<!-- Node8 -->
<g id="node8" class="node">
<title>Node8</title>
<g id="a_node8"><a xlink:href="../../d7/dcb/classnap_1_1rtti_1_1_object_ptr_base.html" target="_top" xlink:title=" ">
<polygon fill="white" stroke="black" points="168,-181.5 168,-200.5 254,-200.5 254,-181.5 168,-181.5"/>
<text text-anchor="middle" x="211" y="-188.5" font-family="Helvetica,sans-Serif" font-size="10.00">ObjectPtrBase</text>
</a>
</g>
</g>
<!-- Node8&#45;&gt;Node7 -->
<g id="edge7" class="edge">
<title>Node8&#45;&gt;Node7</title>
<path fill="none" stroke="midnightblue" d="M211,-171.12C211,-161.82 211,-151.06 211,-143.71"/>
<polygon fill="midnightblue" stroke="midnightblue" points="207.5,-171.41 211,-181.41 214.5,-171.41 207.5,-171.41"/>
</g>
<!-- Node9 -->
<g id="node9" class="node">
<title>Node9</title>
<g id="a_node9"><a xlink:href="../../d4/dd7/classnap_1_1_r_g_b_color.html" target="_top" xlink:title=" ">
<polygon fill="white" stroke="black" points="293.5,-124.5 293.5,-143.5 400.5,-143.5 400.5,-124.5 293.5,-124.5"/>
<text text-anchor="middle" x="347" y="-131.5" font-family="Helvetica,sans-Serif" font-size="10.00">RGBColor&lt; float &gt;</text>
</a>
</g>
</g>
<!-- Node9&#45;&gt;Node2 -->
<g id="edge8" class="edge">
<title>Node9&#45;&gt;Node2</title>
<path fill="none" stroke="#9a32cd" stroke-dasharray="5,2" d="M319.68,-119.94C292.74,-107.07 252.34,-87.76 229.13,-76.67"/>
<polygon fill="#9a32cd" stroke="#9a32cd" points="318.41,-123.21 328.94,-124.37 321.43,-116.9 318.41,-123.21"/>
<text text-anchor="middle" x="307.5" y="-98" font-family="Helvetica,sans-Serif" font-size="10.00"> mColor</text>
</g>
<!-- Node10 -->
<g id="node10" class="node">
<title>Node10</title>
<g id="a_node10"><a xlink:href="../../d6/d3d/classnap_1_1_color.html" target="_top" xlink:title=" ">
<polygon fill="white" stroke="black" points="298,-181.5 298,-200.5 396,-200.5 396,-181.5 298,-181.5"/>
<text text-anchor="middle" x="347" y="-188.5" font-family="Helvetica,sans-Serif" font-size="10.00">Color&lt; float, 3 &gt;</text>
</a>
</g>
</g>
<!-- Node10&#45;&gt;Node9 -->
<g id="edge9" class="edge">
<title>Node10&#45;&gt;Node9</title>
<path fill="none" stroke="midnightblue" d="M347,-171.12C347,-161.82 347,-151.06 347,-143.71"/>
<polygon fill="midnightblue" stroke="midnightblue" points="343.5,-171.41 347,-181.41 350.5,-171.41 343.5,-171.41"/>
</g>
<!-- Node11 -->
<g id="node11" class="node">
<title>Node11</title>
<g id="a_node11"><a xlink:href="../../d8/d6a/classnap_1_1_base_color.html" target="_top" xlink:title=" ">
<polygon fill="white" stroke="black" points="314,-238.5 314,-257.5 380,-257.5 380,-238.5 314,-238.5"/>
<text text-anchor="middle" x="347" y="-245.5" font-family="Helvetica,sans-Serif" font-size="10.00">BaseColor</text>
</a>
</g>
</g>
<!-- Node11&#45;&gt;Node10 -->
<g id="edge10" class="edge">
<title>Node11&#45;&gt;Node10</title>
<path fill="none" stroke="midnightblue" d="M347,-228.12C347,-218.82 347,-208.06 347,-200.71"/>
<polygon fill="midnightblue" stroke="midnightblue" points="343.5,-228.41 347,-238.41 350.5,-228.41 343.5,-228.41"/>
</g>
</g>
</svg>
