<?xml version="1.0" encoding="UTF-8" standalone="no"?>
<!DOCTYPE svg PUBLIC "-//W3C//DTD SVG 1.1//EN"
 "http://www.w3.org/Graphics/SVG/1.1/DTD/svg11.dtd">
<!-- Generated by graphviz version 2.48.0 (20210717.1556)
 -->
<!-- Title: UDPClient Pages: 1 -->
<svg width="232pt" height="209pt"
 viewBox="0.00 0.00 231.50 209.00" xmlns="http://www.w3.org/2000/svg" xmlns:xlink="http://www.w3.org/1999/xlink">
<g id="graph0" class="graph" transform="scale(1 1) rotate(0) translate(4 205)">
<title>UDPClient</title>
<polygon fill="white" stroke="transparent" points="-4,4 -4,-205 227.5,-205 227.5,4 -4,4"/>
<!-- Node4 -->
<g id="node1" class="node">
<title>Node4</title>
<polygon fill="#bfbfbf" stroke="black" points="58,-0.5 58,-19.5 120,-19.5 120,-0.5 58,-0.5"/>
<text text-anchor="middle" x="89" y="-7.5" font-family="Helvetica,sans-Serif" font-size="10.00">UDPClient</text>
</g>
<!-- Node5 -->
<g id="node2" class="node">
<title>Node5</title>
<g id="a_node2"><a xlink:href="../../d7/da3/classnap_1_1_u_d_p_adapter.html" target="_top" xlink:title="UDPAdapter">
<polygon fill="white" stroke="black" points="53.5,-57.5 53.5,-76.5 124.5,-76.5 124.5,-57.5 53.5,-57.5"/>
<text text-anchor="middle" x="89" y="-64.5" font-family="Helvetica,sans-Serif" font-size="10.00">UDPAdapter</text>
</a>
</g>
</g>
<!-- Node5&#45;&gt;Node4 -->
<g id="edge1" class="edge">
<title>Node5&#45;&gt;Node4</title>
<path fill="none" stroke="midnightblue" d="M89,-47.12C89,-37.82 89,-27.06 89,-19.71"/>
<polygon fill="midnightblue" stroke="midnightblue" points="85.5,-47.41 89,-57.41 92.5,-47.41 85.5,-47.41"/>
</g>
<!-- Node6 -->
<g id="node3" class="node">
<title>Node6</title>
<g id="a_node3"><a xlink:href="../../d9/dea/classnap_1_1_resource.html" target="_top" xlink:title="Resource">
<polygon fill="white" stroke="black" points="0,-124.5 0,-143.5 58,-143.5 58,-124.5 0,-124.5"/>
<text text-anchor="middle" x="29" y="-131.5" font-family="Helvetica,sans-Serif" font-size="10.00">Resource</text>
</a>
</g>
</g>
<!-- Node6&#45;&gt;Node5 -->
<g id="edge2" class="edge">
<title>Node6&#45;&gt;Node5</title>
<path fill="none" stroke="midnightblue" d="M44.11,-116.63C55.84,-103.92 71.65,-86.8 81.04,-76.63"/>
<polygon fill="midnightblue" stroke="midnightblue" points="41.3,-114.51 37.09,-124.23 46.45,-119.26 41.3,-114.51"/>
</g>
<!-- Node7 -->
<g id="node4" class="node">
<title>Node7</title>
<g id="a_node4"><a xlink:href="../../de/d01/classnap_1_1rtti_1_1_object.html" target="_top" xlink:title="Object">
<polygon fill="white" stroke="black" points="6.5,-181.5 6.5,-200.5 51.5,-200.5 51.5,-181.5 6.5,-181.5"/>
<text text-anchor="middle" x="29" y="-188.5" font-family="Helvetica,sans-Serif" font-size="10.00">Object</text>
</a>
</g>
</g>
<!-- Node7&#45;&gt;Node6 -->
<g id="edge3" class="edge">
<title>Node7&#45;&gt;Node6</title>
<path fill="none" stroke="midnightblue" d="M29,-171.12C29,-161.82 29,-151.06 29,-143.71"/>
<polygon fill="midnightblue" stroke="midnightblue" points="25.5,-171.41 29,-181.41 32.5,-171.41 25.5,-171.41"/>
</g>
<!-- Node8 -->
<g id="node5" class="node">
<title>Node8</title>
<g id="a_node5"><a xlink:href="../../dd/d7c/classnap_1_1rtti_1_1_object_ptr.html" target="_top" xlink:title="ObjectPtr\&lt; nap::UDPThread \&gt;">
<polygon fill="white" stroke="black" points="76.5,-124.5 76.5,-143.5 223.5,-143.5 223.5,-124.5 76.5,-124.5"/>
<text text-anchor="middle" x="150" y="-131.5" font-family="Helvetica,sans-Serif" font-size="10.00">ObjectPtr&lt; nap::UDPThread &gt;</text>
</a>
</g>
</g>
<!-- Node8&#45;&gt;Node5 -->
<g id="edge4" class="edge">
<title>Node8&#45;&gt;Node5</title>
<path fill="none" stroke="#9a32cd" stroke-dasharray="5,2" d="M134.64,-116.63C122.71,-103.92 106.64,-86.8 97.1,-76.63"/>
<polygon fill="#9a32cd" stroke="#9a32cd" points="132.38,-119.34 141.77,-124.23 137.48,-114.55 132.38,-119.34"/>
<text text-anchor="middle" x="144.5" y="-98" font-family="Helvetica,sans-Serif" font-size="10.00"> mThread</text>
</g>
<!-- Node9 -->
<g id="node6" class="node">
<title>Node9</title>
<g id="a_node6"><a xlink:href="../../d7/dcb/classnap_1_1rtti_1_1_object_ptr_base.html" target="_top" xlink:title="ObjectPtrBase">
<polygon fill="white" stroke="black" points="110,-181.5 110,-200.5 190,-200.5 190,-181.5 110,-181.5"/>
<text text-anchor="middle" x="150" y="-188.5" font-family="Helvetica,sans-Serif" font-size="10.00">ObjectPtrBase</text>
</a>
</g>
</g>
<!-- Node9&#45;&gt;Node8 -->
<g id="edge5" class="edge">
<title>Node9&#45;&gt;Node8</title>
<path fill="none" stroke="midnightblue" d="M150,-171.12C150,-161.82 150,-151.06 150,-143.71"/>
<polygon fill="midnightblue" stroke="midnightblue" points="146.5,-171.41 150,-181.41 153.5,-171.41 146.5,-171.41"/>
</g>
</g>
</svg>
