<?xml version="1.0" encoding="UTF-8" standalone="no"?>
<!DOCTYPE svg PUBLIC "-//W3C//DTD SVG 1.1//EN"
 "http://www.w3.org/Graphics/SVG/1.1/DTD/svg11.dtd">
<!-- Generated by graphviz version 2.43.0 (0)
 -->
<!-- Title: UDPClient Pages: 1 -->
<svg width="252pt" height="209pt"
 viewBox="0.00 0.00 251.50 209.00" xmlns="http://www.w3.org/2000/svg" xmlns:xlink="http://www.w3.org/1999/xlink">
<g id="graph0" class="graph" transform="scale(1 1) rotate(0) translate(4 205)">
<title>UDPClient</title>
<polygon fill="white" stroke="transparent" points="-4,4 -4,-205 247.5,-205 247.5,4 -4,4"/>
<!-- Node1 -->
<g id="node1" class="node">
<title>Node1</title>
<g id="a_node1"><a xlink:title=" ">
<polygon fill="#bfbfbf" stroke="black" points="63,-0.5 63,-19.5 129,-19.5 129,-0.5 63,-0.5"/>
<text text-anchor="middle" x="96" y="-7.5" font-family="Helvetica,sans-Serif" font-size="10.00">UDPClient</text>
</a>
</g>
</g>
<!-- Node2 -->
<g id="node2" class="node">
<title>Node2</title>
<g id="a_node2"><a xlink:href="../../d7/da3/classnap_1_1_u_d_p_adapter.html" target="_top" xlink:title=" ">
<polygon fill="white" stroke="black" points="58.5,-57.5 58.5,-76.5 133.5,-76.5 133.5,-57.5 58.5,-57.5"/>
<text text-anchor="middle" x="96" y="-64.5" font-family="Helvetica,sans-Serif" font-size="10.00">UDPAdapter</text>
</a>
</g>
</g>
<!-- Node2&#45;&gt;Node1 -->
<g id="edge1" class="edge">
<title>Node2&#45;&gt;Node1</title>
<path fill="none" stroke="midnightblue" d="M96,-47.12C96,-37.82 96,-27.06 96,-19.71"/>
<polygon fill="midnightblue" stroke="midnightblue" points="92.5,-47.41 96,-57.41 99.5,-47.41 92.5,-47.41"/>
</g>
<!-- Node3 -->
<g id="node3" class="node">
<title>Node3</title>
<g id="a_node3"><a xlink:href="../../d9/dea/classnap_1_1_resource.html" target="_top" xlink:title=" ">
<polygon fill="white" stroke="black" points="0,-124.5 0,-143.5 62,-143.5 62,-124.5 0,-124.5"/>
<text text-anchor="middle" x="31" y="-131.5" font-family="Helvetica,sans-Serif" font-size="10.00">Resource</text>
</a>
</g>
</g>
<!-- Node3&#45;&gt;Node2 -->
<g id="edge2" class="edge">
<title>Node3&#45;&gt;Node2</title>
<path fill="none" stroke="midnightblue" d="M47,-117C59.75,-104.25 77.11,-86.89 87.37,-76.63"/>
<polygon fill="midnightblue" stroke="midnightblue" points="44.36,-114.69 39.77,-124.23 49.31,-119.64 44.36,-114.69"/>
</g>
<!-- Node4 -->
<g id="node4" class="node">
<title>Node4</title>
<g id="a_node4"><a xlink:href="../../de/d01/classnap_1_1rtti_1_1_object.html" target="_top" xlink:title=" ">
<polygon fill="white" stroke="black" points="7,-181.5 7,-200.5 55,-200.5 55,-181.5 7,-181.5"/>
<text text-anchor="middle" x="31" y="-188.5" font-family="Helvetica,sans-Serif" font-size="10.00">Object</text>
</a>
</g>
</g>
<!-- Node4&#45;&gt;Node3 -->
<g id="edge3" class="edge">
<title>Node4&#45;&gt;Node3</title>
<path fill="none" stroke="midnightblue" d="M31,-171.12C31,-161.82 31,-151.06 31,-143.71"/>
<polygon fill="midnightblue" stroke="midnightblue" points="27.5,-171.41 31,-181.41 34.5,-171.41 27.5,-171.41"/>
</g>
<!-- Node5 -->
<g id="node5" class="node">
<title>Node5</title>
<g id="a_node5"><a xlink:href="../../dd/d7c/classnap_1_1rtti_1_1_object_ptr.html" target="_top" xlink:title=" ">
<polygon fill="white" stroke="black" points="80.5,-124.5 80.5,-143.5 243.5,-143.5 243.5,-124.5 80.5,-124.5"/>
<text text-anchor="middle" x="162" y="-131.5" font-family="Helvetica,sans-Serif" font-size="10.00">ObjectPtr&lt; nap::UDPThread &gt;</text>
</a>
</g>
</g>
<!-- Node5&#45;&gt;Node2 -->
<g id="edge4" class="edge">
<title>Node5&#45;&gt;Node2</title>
<path fill="none" stroke="#9a32cd" stroke-dasharray="5,2" d="M145.75,-117C132.81,-104.25 115.19,-86.89 104.76,-76.63"/>
<polygon fill="#9a32cd" stroke="#9a32cd" points="143.52,-119.71 153.1,-124.23 148.43,-114.72 143.52,-119.71"/>
<text text-anchor="middle" x="156.5" y="-98" font-family="Helvetica,sans-Serif" font-size="10.00"> mThread</text>
</g>
<!-- Node6 -->
<g id="node6" class="node">
<title>Node6</title>
<g id="a_node6"><a xlink:href="../../d7/dcb/classnap_1_1rtti_1_1_object_ptr_base.html" target="_top" xlink:title=" ">
<polygon fill="white" stroke="black" points="119,-181.5 119,-200.5 205,-200.5 205,-181.5 119,-181.5"/>
<text text-anchor="middle" x="162" y="-188.5" font-family="Helvetica,sans-Serif" font-size="10.00">ObjectPtrBase</text>
</a>
</g>
</g>
<!-- Node6&#45;&gt;Node5 -->
<g id="edge5" class="edge">
<title>Node6&#45;&gt;Node5</title>
<path fill="none" stroke="midnightblue" d="M162,-171.12C162,-161.82 162,-151.06 162,-143.71"/>
<polygon fill="midnightblue" stroke="midnightblue" points="158.5,-171.41 162,-181.41 165.5,-171.41 158.5,-171.41"/>
</g>
</g>
</svg>
