<?xml version="1.0" encoding="UTF-8" standalone="no"?>
<!DOCTYPE svg PUBLIC "-//W3C//DTD SVG 1.1//EN"
 "http://www.w3.org/Graphics/SVG/1.1/DTD/svg11.dtd">
<!-- Generated by graphviz version 3.0.0 (20220226.1711)
 -->
<!-- Title: Line Pages: 1 -->
<svg width="66pt" height="252pt"
 viewBox="0.00 0.00 66.00 252.00" xmlns="http://www.w3.org/2000/svg" xmlns:xlink="http://www.w3.org/1999/xlink">
<g id="graph0" class="graph" transform="scale(1 1) rotate(0) translate(4 248)">
<title>Line</title>
<polygon fill="white" stroke="transparent" points="-4,4 -4,-248 62,-248 62,4 -4,4"/>
<!-- Node0 -->
<g id="node1" class="node">
<title>Node0</title>
<polygon fill="#bfbfbf" stroke="black" points="11.5,-0.5 11.5,-19.5 46.5,-19.5 46.5,-0.5 11.5,-0.5"/>
<text text-anchor="middle" x="29" y="-7.5" font-family="Helvetica,sans-Serif" font-size="10.00">Line</text>
</g>
<!-- Node1 -->
<g id="node2" class="node">
<title>Node1</title>
<g id="a_node2"><a xlink:href="../../db/d34/classnap_1_1_poly_line.html" target="_top" xlink:title="PolyLine">
<polygon fill="white" stroke="black" points="2,-56.5 2,-75.5 56,-75.5 56,-56.5 2,-56.5"/>
<text text-anchor="middle" x="29" y="-63.5" font-family="Helvetica,sans-Serif" font-size="10.00">PolyLine</text>
</a>
</g>
</g>
<!-- Node1&#45;&gt;Node0 -->
<g id="edge1" class="edge">
<title>Node1&#45;&gt;Node0</title>
<path fill="none" stroke="midnightblue" d="M29,-45.8C29,-36.91 29,-26.78 29,-19.75"/>
<polygon fill="midnightblue" stroke="midnightblue" points="25.5,-46.08 29,-56.08 32.5,-46.08 25.5,-46.08"/>
</g>
<!-- Node2 -->
<g id="node3" class="node">
<title>Node2</title>
<g id="a_node3"><a xlink:href="../../dd/dac/classnap_1_1_i_mesh.html" target="_top" xlink:title="IMesh">
<polygon fill="white" stroke="black" points="7.5,-112.5 7.5,-131.5 50.5,-131.5 50.5,-112.5 7.5,-112.5"/>
<text text-anchor="middle" x="29" y="-119.5" font-family="Helvetica,sans-Serif" font-size="10.00">IMesh</text>
</a>
</g>
</g>
<!-- Node2&#45;&gt;Node1 -->
<g id="edge2" class="edge">
<title>Node2&#45;&gt;Node1</title>
<path fill="none" stroke="midnightblue" d="M29,-101.8C29,-92.91 29,-82.78 29,-75.75"/>
<polygon fill="midnightblue" stroke="midnightblue" points="25.5,-102.08 29,-112.08 32.5,-102.08 25.5,-102.08"/>
</g>
<!-- Node3 -->
<g id="node4" class="node">
<title>Node3</title>
<g id="a_node4"><a xlink:href="../../d9/dea/classnap_1_1_resource.html" target="_top" xlink:title="Resource">
<polygon fill="white" stroke="black" points="0,-168.5 0,-187.5 58,-187.5 58,-168.5 0,-168.5"/>
<text text-anchor="middle" x="29" y="-175.5" font-family="Helvetica,sans-Serif" font-size="10.00">Resource</text>
</a>
</g>
</g>
<!-- Node3&#45;&gt;Node2 -->
<g id="edge3" class="edge">
<title>Node3&#45;&gt;Node2</title>
<path fill="none" stroke="midnightblue" d="M29,-157.8C29,-148.91 29,-138.78 29,-131.75"/>
<polygon fill="midnightblue" stroke="midnightblue" points="25.5,-158.08 29,-168.08 32.5,-158.08 25.5,-158.08"/>
</g>
<!-- Node4 -->
<g id="node5" class="node">
<title>Node4</title>
<g id="a_node5"><a xlink:href="../../de/d01/classnap_1_1rtti_1_1_object.html" target="_top" xlink:title="Object">
<polygon fill="white" stroke="black" points="6.5,-224.5 6.5,-243.5 51.5,-243.5 51.5,-224.5 6.5,-224.5"/>
<text text-anchor="middle" x="29" y="-231.5" font-family="Helvetica,sans-Serif" font-size="10.00">Object</text>
</a>
</g>
</g>
<!-- Node4&#45;&gt;Node3 -->
<g id="edge4" class="edge">
<title>Node4&#45;&gt;Node3</title>
<path fill="none" stroke="midnightblue" d="M29,-213.8C29,-204.91 29,-194.78 29,-187.75"/>
<polygon fill="midnightblue" stroke="midnightblue" points="25.5,-214.08 29,-224.08 32.5,-214.08 25.5,-214.08"/>
</g>
</g>
</svg>
