<?xml version="1.0" encoding="UTF-8" standalone="no"?>
<!DOCTYPE svg PUBLIC "-//W3C//DTD SVG 1.1//EN"
 "http://www.w3.org/Graphics/SVG/1.1/DTD/svg11.dtd">
<!-- Generated by graphviz version 2.48.0 (20210717.1556)
 -->
<!-- Title: SequenceEventTrackSegmentView&lt; T &gt; Pages: 1 -->
<svg width="155pt" height="106pt"
 viewBox="0.00 0.00 155.00 106.00" xmlns="http://www.w3.org/2000/svg" xmlns:xlink="http://www.w3.org/1999/xlink">
<g id="graph0" class="graph" transform="scale(1 1) rotate(0) translate(4 102)">
<title>SequenceEventTrackSegmentView&lt; T &gt;</title>
<polygon fill="white" stroke="transparent" points="-4,4 -4,-102 151,-102 151,4 -4,4"/>
<!-- Node2 -->
<g id="node1" class="node">
<title>Node2</title>
<polygon fill="#bfbfbf" stroke="black" points="0,-0.5 0,-30.5 147,-30.5 147,-0.5 0,-0.5"/>
<text text-anchor="start" x="8" y="-18.5" font-family="Helvetica,sans-Serif" font-size="10.00">SequenceEventTrackSegment</text>
<text text-anchor="middle" x="73.5" y="-7.5" font-family="Helvetica,sans-Serif" font-size="10.00">View&lt; T &gt;</text>
</g>
<!-- Node3 -->
<g id="node2" class="node">
<title>Node3</title>
<g id="a_node2"><a xlink:href="../../df/dcf/classnap_1_1_sequence_event_track_segment_view_base.html" target="_top" xlink:title="SequenceEventTrackSegment\lViewBase">
<polygon fill="white" stroke="black" points="0,-67.5 0,-97.5 147,-97.5 147,-67.5 0,-67.5"/>
<text text-anchor="start" x="8" y="-85.5" font-family="Helvetica,sans-Serif" font-size="10.00">SequenceEventTrackSegment</text>
<text text-anchor="middle" x="73.5" y="-74.5" font-family="Helvetica,sans-Serif" font-size="10.00">ViewBase</text>
</a>
</g>
</g>
<!-- Node3&#45;&gt;Node2 -->
<g id="edge1" class="edge">
<title>Node3&#45;&gt;Node2</title>
<path fill="none" stroke="midnightblue" d="M73.5,-57.11C73.5,-48.15 73.5,-38.32 73.5,-30.58"/>
<polygon fill="midnightblue" stroke="midnightblue" points="70,-57.4 73.5,-67.4 77,-57.4 70,-57.4"/>
</g>
</g>
</svg>
