<?xml version="1.0" encoding="UTF-8" standalone="no"?>
<!DOCTYPE svg PUBLIC "-//W3C//DTD SVG 1.1//EN"
 "http://www.w3.org/Graphics/SVG/1.1/DTD/svg11.dtd">
<!-- Generated by graphviz version 2.48.0 (20210717.1556)
 -->
<!-- Title: RenderTarget Pages: 1 -->
<svg width="162pt" height="140pt"
 viewBox="0.00 0.00 161.50 140.00" xmlns="http://www.w3.org/2000/svg" xmlns:xlink="http://www.w3.org/1999/xlink">
<g id="graph0" class="graph" transform="scale(1 1) rotate(0) translate(4 136)">
<title>RenderTarget</title>
<polygon fill="white" stroke="transparent" points="-4,4 -4,-136 157.5,-136 157.5,4 -4,4"/>
<!-- Node0 -->
<g id="node1" class="node">
<title>Node0</title>
<polygon fill="#bfbfbf" stroke="black" points="35,-0.5 35,-19.5 109,-19.5 109,-0.5 35,-0.5"/>
<text text-anchor="middle" x="72" y="-7.5" font-family="Helvetica,sans-Serif" font-size="10.00">RenderTarget</text>
</g>
<!-- Node1 -->
<g id="node2" class="node">
<title>Node1</title>
<g id="a_node2"><a xlink:href="../../d9/dea/classnap_1_1_resource.html" target="_top" xlink:title="Resource">
<polygon fill="white" stroke="black" points="0,-56.5 0,-75.5 58,-75.5 58,-56.5 0,-56.5"/>
<text text-anchor="middle" x="29" y="-63.5" font-family="Helvetica,sans-Serif" font-size="10.00">Resource</text>
</a>
</g>
</g>
<!-- Node1&#45;&gt;Node0 -->
<g id="edge1" class="edge">
<title>Node1&#45;&gt;Node0</title>
<path fill="none" stroke="midnightblue" d="M42.42,-48.14C49.91,-38.74 58.94,-27.4 65.03,-19.75"/>
<polygon fill="midnightblue" stroke="midnightblue" points="39.59,-46.08 36.1,-56.08 45.07,-50.44 39.59,-46.08"/>
</g>
<!-- Node2 -->
<g id="node3" class="node">
<title>Node2</title>
<g id="a_node3"><a xlink:href="../../de/d01/classnap_1_1rtti_1_1_object.html" target="_top" xlink:title="Object">
<polygon fill="white" stroke="black" points="6.5,-112.5 6.5,-131.5 51.5,-131.5 51.5,-112.5 6.5,-112.5"/>
<text text-anchor="middle" x="29" y="-119.5" font-family="Helvetica,sans-Serif" font-size="10.00">Object</text>
</a>
</g>
</g>
<!-- Node2&#45;&gt;Node1 -->
<g id="edge2" class="edge">
<title>Node2&#45;&gt;Node1</title>
<path fill="none" stroke="midnightblue" d="M29,-101.8C29,-92.91 29,-82.78 29,-75.75"/>
<polygon fill="midnightblue" stroke="midnightblue" points="25.5,-102.08 29,-112.08 32.5,-102.08 25.5,-102.08"/>
</g>
<!-- Node3 -->
<g id="node4" class="node">
<title>Node3</title>
<g id="a_node4"><a xlink:href="../../d7/da9/classnap_1_1_i_render_target.html" target="_top" xlink:title="IRenderTarget">
<polygon fill="white" stroke="black" points="76.5,-56.5 76.5,-75.5 153.5,-75.5 153.5,-56.5 76.5,-56.5"/>
<text text-anchor="middle" x="115" y="-63.5" font-family="Helvetica,sans-Serif" font-size="10.00">IRenderTarget</text>
</a>
</g>
</g>
<!-- Node3&#45;&gt;Node0 -->
<g id="edge3" class="edge">
<title>Node3&#45;&gt;Node0</title>
<path fill="none" stroke="midnightblue" d="M101.58,-48.14C94.09,-38.74 85.06,-27.4 78.97,-19.75"/>
<polygon fill="midnightblue" stroke="midnightblue" points="98.93,-50.44 107.9,-56.08 104.41,-46.08 98.93,-50.44"/>
</g>
</g>
</svg>
