<?xml version="1.0" encoding="UTF-8" standalone="no"?>
<!DOCTYPE svg PUBLIC "-//W3C//DTD SVG 1.1//EN"
 "http://www.w3.org/Graphics/SVG/1.1/DTD/svg11.dtd">
<!-- Generated by graphviz version 2.43.0 (0)
 -->
<!-- Title: CalendarItem Pages: 1 -->
<svg width="161pt" height="173pt"
 viewBox="0.00 0.00 161.00 173.00" xmlns="http://www.w3.org/2000/svg" xmlns:xlink="http://www.w3.org/1999/xlink">
<g id="graph0" class="graph" transform="scale(1 1) rotate(0) translate(4 169)">
<title>CalendarItem</title>
<polygon fill="white" stroke="transparent" points="-4,4 -4,-169 157,-169 157,4 -4,4"/>
<!-- Node1 -->
<g id="node1" class="node">
<title>Node1</title>
<g id="a_node1"><a xlink:title=" ">
<polygon fill="#bfbfbf" stroke="black" points="23.5,-0.5 23.5,-19.5 106.5,-19.5 106.5,-0.5 23.5,-0.5"/>
<text text-anchor="middle" x="65" y="-7.5" font-family="Helvetica,sans-Serif" font-size="10.00">CalendarItem</text>
</a>
</g>
</g>
<!-- Node2 -->
<g id="node2" class="node">
<title>Node2</title>
<g id="a_node2"><a xlink:href="../../d9/dea/classnap_1_1_resource.html" target="_top" xlink:title=" ">
<polygon fill="white" stroke="black" points="0,-67.5 0,-86.5 62,-86.5 62,-67.5 0,-67.5"/>
<text text-anchor="middle" x="31" y="-74.5" font-family="Helvetica,sans-Serif" font-size="10.00">Resource</text>
</a>
</g>
</g>
<!-- Node2&#45;&gt;Node1 -->
<g id="edge1" class="edge">
<title>Node2&#45;&gt;Node1</title>
<path fill="none" stroke="midnightblue" d="M40.33,-58.16C46.89,-45.63 55.37,-29.41 60.49,-19.63"/>
<polygon fill="midnightblue" stroke="midnightblue" points="37.12,-56.75 35.59,-67.23 43.32,-60 37.12,-56.75"/>
</g>
<!-- Node3 -->
<g id="node3" class="node">
<title>Node3</title>
<g id="a_node3"><a xlink:href="../../de/d01/classnap_1_1rtti_1_1_object.html" target="_top" xlink:title=" ">
<polygon fill="white" stroke="black" points="7,-145.5 7,-164.5 55,-164.5 55,-145.5 7,-145.5"/>
<text text-anchor="middle" x="31" y="-152.5" font-family="Helvetica,sans-Serif" font-size="10.00">Object</text>
</a>
</g>
</g>
<!-- Node3&#45;&gt;Node2 -->
<g id="edge2" class="edge">
<title>Node3&#45;&gt;Node2</title>
<path fill="none" stroke="midnightblue" d="M31,-135.22C31,-119.7 31,-98.36 31,-86.62"/>
<polygon fill="midnightblue" stroke="midnightblue" points="27.5,-135.28 31,-145.28 34.5,-135.28 27.5,-135.28"/>
</g>
<!-- Node4 -->
<g id="node4" class="node">
<title>Node4</title>
<g id="a_node4"><a xlink:href="../../d1/d8d/structnap_1_1_calendar_item_1_1_point.html" target="_top" xlink:title=" ">
<polygon fill="white" stroke="black" points="80.5,-67.5 80.5,-86.5 121.5,-86.5 121.5,-67.5 80.5,-67.5"/>
<text text-anchor="middle" x="101" y="-74.5" font-family="Helvetica,sans-Serif" font-size="10.00">Point</text>
</a>
</g>
</g>
<!-- Node4&#45;&gt;Node1 -->
<g id="edge3" class="edge">
<title>Node4&#45;&gt;Node1</title>
<path fill="none" stroke="#9a32cd" stroke-dasharray="5,2" d="M91.12,-58.16C84.18,-45.63 75.2,-29.41 69.78,-19.63"/>
<polygon fill="#9a32cd" stroke="#9a32cd" points="88.24,-60.18 96.14,-67.23 94.36,-56.79 88.24,-60.18"/>
<text text-anchor="middle" x="105" y="-41" font-family="Helvetica,sans-Serif" font-size="10.00"> mPoint</text>
</g>
<!-- Node5 -->
<g id="node5" class="node">
<title>Node5</title>
<g id="a_node5"><a xlink:href="../../d4/db2/structnap_1_1_calendar_item_1_1_time.html" target="_top" xlink:title=" ">
<polygon fill="white" stroke="black" points="80.5,-145.5 80.5,-164.5 121.5,-164.5 121.5,-145.5 80.5,-145.5"/>
<text text-anchor="middle" x="101" y="-152.5" font-family="Helvetica,sans-Serif" font-size="10.00">Time</text>
</a>
</g>
</g>
<!-- Node5&#45;&gt;Node4 -->
<g id="edge4" class="edge">
<title>Node5&#45;&gt;Node4</title>
<path fill="none" stroke="#9a32cd" stroke-dasharray="5,2" d="M101,-135.22C101,-119.7 101,-98.36 101,-86.62"/>
<polygon fill="#9a32cd" stroke="#9a32cd" points="97.5,-135.28 101,-145.28 104.5,-135.28 97.5,-135.28"/>
<text text-anchor="middle" x="127" y="-119" font-family="Helvetica,sans-Serif" font-size="10.00"> mTime</text>
<text text-anchor="middle" x="127" y="-108" font-family="Helvetica,sans-Serif" font-size="10.00">mDuration</text>
</g>
</g>
</svg>
