<?xml version="1.0" encoding="UTF-8" standalone="no"?>
<!DOCTYPE svg PUBLIC "-//W3C//DTD SVG 1.1//EN"
 "http://www.w3.org/Graphics/SVG/1.1/DTD/svg11.dtd">
<!-- Generated by graphviz version 2.48.0 (20210717.1556)
 -->
<!-- Title: CalendarItem Pages: 1 -->
<svg width="149pt" height="173pt"
 viewBox="0.00 0.00 149.00 173.00" xmlns="http://www.w3.org/2000/svg" xmlns:xlink="http://www.w3.org/1999/xlink">
<g id="graph0" class="graph" transform="scale(1 1) rotate(0) translate(4 169)">
<title>CalendarItem</title>
<polygon fill="white" stroke="transparent" points="-4,4 -4,-169 145,-169 145,4 -4,4"/>
<!-- Node8 -->
<g id="node1" class="node">
<title>Node8</title>
<polygon fill="#bfbfbf" stroke="black" points="25,-0.5 25,-19.5 99,-19.5 99,-0.5 25,-0.5"/>
<text text-anchor="middle" x="62" y="-7.5" font-family="Helvetica,sans-Serif" font-size="10.00">CalendarItem</text>
</g>
<!-- Node9 -->
<g id="node2" class="node">
<title>Node9</title>
<g id="a_node2"><a xlink:href="../../d9/dea/classnap_1_1_resource.html" target="_top" xlink:title="Resource">
<polygon fill="white" stroke="black" points="0,-67.5 0,-86.5 58,-86.5 58,-67.5 0,-67.5"/>
<text text-anchor="middle" x="29" y="-74.5" font-family="Helvetica,sans-Serif" font-size="10.00">Resource</text>
</a>
</g>
</g>
<!-- Node9&#45;&gt;Node8 -->
<g id="edge1" class="edge">
<title>Node9&#45;&gt;Node8</title>
<path fill="none" stroke="midnightblue" d="M38.06,-58.16C44.42,-45.63 52.65,-29.41 57.62,-19.63"/>
<polygon fill="midnightblue" stroke="midnightblue" points="34.86,-56.73 33.45,-67.23 41.1,-59.9 34.86,-56.73"/>
</g>
<!-- Node10 -->
<g id="node3" class="node">
<title>Node10</title>
<g id="a_node3"><a xlink:href="../../de/d01/classnap_1_1rtti_1_1_object.html" target="_top" xlink:title="Object">
<polygon fill="white" stroke="black" points="6.5,-145.5 6.5,-164.5 51.5,-164.5 51.5,-145.5 6.5,-145.5"/>
<text text-anchor="middle" x="29" y="-152.5" font-family="Helvetica,sans-Serif" font-size="10.00">Object</text>
</a>
</g>
</g>
<!-- Node10&#45;&gt;Node9 -->
<g id="edge2" class="edge">
<title>Node10&#45;&gt;Node9</title>
<path fill="none" stroke="midnightblue" d="M29,-135.22C29,-119.7 29,-98.36 29,-86.62"/>
<polygon fill="midnightblue" stroke="midnightblue" points="25.5,-135.28 29,-145.28 32.5,-135.28 25.5,-135.28"/>
</g>
<!-- Node11 -->
<g id="node4" class="node">
<title>Node11</title>
<g id="a_node4"><a xlink:href="../../d1/d8d/structnap_1_1_calendar_item_1_1_point.html" target="_top" xlink:title="Point">
<polygon fill="white" stroke="black" points="76.5,-67.5 76.5,-86.5 115.5,-86.5 115.5,-67.5 76.5,-67.5"/>
<text text-anchor="middle" x="96" y="-74.5" font-family="Helvetica,sans-Serif" font-size="10.00">Point</text>
</a>
</g>
</g>
<!-- Node11&#45;&gt;Node8 -->
<g id="edge3" class="edge">
<title>Node11&#45;&gt;Node8</title>
<path fill="none" stroke="#9a32cd" stroke-dasharray="5,2" d="M86.67,-58.16C80.11,-45.63 71.63,-29.41 66.51,-19.63"/>
<polygon fill="#9a32cd" stroke="#9a32cd" points="83.68,-60 91.41,-67.23 89.88,-56.75 83.68,-60"/>
<text text-anchor="middle" x="99" y="-41" font-family="Helvetica,sans-Serif" font-size="10.00"> mPoint</text>
</g>
<!-- Node12 -->
<g id="node5" class="node">
<title>Node12</title>
<g id="a_node5"><a xlink:href="../../d4/db2/structnap_1_1_calendar_item_1_1_time.html" target="_top" xlink:title="Time">
<polygon fill="white" stroke="black" points="77,-145.5 77,-164.5 115,-164.5 115,-145.5 77,-145.5"/>
<text text-anchor="middle" x="96" y="-152.5" font-family="Helvetica,sans-Serif" font-size="10.00">Time</text>
</a>
</g>
</g>
<!-- Node12&#45;&gt;Node11 -->
<g id="edge4" class="edge">
<title>Node12&#45;&gt;Node11</title>
<path fill="none" stroke="#9a32cd" stroke-dasharray="5,2" d="M96,-135.22C96,-119.7 96,-98.36 96,-86.62"/>
<polygon fill="#9a32cd" stroke="#9a32cd" points="92.5,-135.28 96,-145.28 99.5,-135.28 92.5,-135.28"/>
<text text-anchor="middle" x="118.5" y="-119" font-family="Helvetica,sans-Serif" font-size="10.00"> mTime</text>
<text text-anchor="middle" x="118.5" y="-108" font-family="Helvetica,sans-Serif" font-size="10.00">mDuration</text>
</g>
</g>
</svg>
