<?xml version="1.0" encoding="UTF-8" standalone="no"?>
<!DOCTYPE svg PUBLIC "-//W3C//DTD SVG 1.1//EN"
 "http://www.w3.org/Graphics/SVG/1.1/DTD/svg11.dtd">
<!-- Generated by graphviz version 3.0.0 (20220226.1711)
 -->
<!-- Title: UniformContainer Pages: 1 -->
<svg width="166pt" height="84pt"
 viewBox="0.00 0.00 165.50 84.00" xmlns="http://www.w3.org/2000/svg" xmlns:xlink="http://www.w3.org/1999/xlink">
<g id="graph0" class="graph" transform="scale(1 1) rotate(0) translate(4 80)">
<title>UniformContainer</title>
<polygon fill="white" stroke="transparent" points="-4,4 -4,-80 161.5,-80 161.5,4 -4,4"/>
<!-- Node0 -->
<g id="node1" class="node">
<title>Node0</title>
<polygon fill="#bfbfbf" stroke="black" points="24,-56.5 24,-75.5 115,-75.5 115,-56.5 24,-56.5"/>
<text text-anchor="middle" x="69.5" y="-63.5" font-family="Helvetica,sans-Serif" font-size="10.00">UniformContainer</text>
</g>
<!-- Node1 -->
<g id="node2" class="node">
<title>Node1</title>
<g id="a_node2"><a xlink:href="../../d2/de3/classnap_1_1_material.html" target="_top" xlink:title="Material">
<polygon fill="white" stroke="black" points="0,-0.5 0,-19.5 51,-19.5 51,-0.5 0,-0.5"/>
<text text-anchor="middle" x="25.5" y="-7.5" font-family="Helvetica,sans-Serif" font-size="10.00">Material</text>
</a>
</g>
</g>
<!-- Node0&#45;&gt;Node1 -->
<g id="edge1" class="edge">
<title>Node0&#45;&gt;Node1</title>
<path fill="none" stroke="midnightblue" d="M55.77,-48.14C48.1,-38.74 38.87,-27.4 32.63,-19.75"/>
<polygon fill="midnightblue" stroke="midnightblue" points="53.2,-50.54 62.23,-56.08 58.63,-46.12 53.2,-50.54"/>
</g>
<!-- Node2 -->
<g id="node3" class="node">
<title>Node2</title>
<g id="a_node3"><a xlink:href="../../d0/daa/classnap_1_1_material_instance.html" target="_top" xlink:title="MaterialInstance">
<polygon fill="white" stroke="black" points="69.5,-0.5 69.5,-19.5 157.5,-19.5 157.5,-0.5 69.5,-0.5"/>
<text text-anchor="middle" x="113.5" y="-7.5" font-family="Helvetica,sans-Serif" font-size="10.00">MaterialInstance</text>
</a>
</g>
</g>
<!-- Node0&#45;&gt;Node2 -->
<g id="edge2" class="edge">
<title>Node0&#45;&gt;Node2</title>
<path fill="none" stroke="midnightblue" d="M83.23,-48.14C90.9,-38.74 100.13,-27.4 106.37,-19.75"/>
<polygon fill="midnightblue" stroke="midnightblue" points="80.37,-46.12 76.77,-56.08 85.8,-50.54 80.37,-46.12"/>
</g>
</g>
</svg>
