<?xml version="1.0" encoding="UTF-8" standalone="no"?>
<!DOCTYPE svg PUBLIC "-//W3C//DTD SVG 1.1//EN"
 "http://www.w3.org/Graphics/SVG/1.1/DTD/svg11.dtd">
<!-- Generated by graphviz version 2.43.0 (0)
 -->
<!-- Title: CVClassifyComponentInstance Pages: 1 -->
<svg width="312pt" height="163pt"
 viewBox="0.00 0.00 311.50 163.00" xmlns="http://www.w3.org/2000/svg" xmlns:xlink="http://www.w3.org/1999/xlink">
<g id="graph0" class="graph" transform="scale(1 1) rotate(0) translate(4 159)">
<title>CVClassifyComponentInstance</title>
<polygon fill="white" stroke="transparent" points="-4,4 -4,-159 307.5,-159 307.5,4 -4,4"/>
<!-- Node1 -->
<g id="node1" class="node">
<title>Node1</title>
<g id="a_node1"><a xlink:title=" ">
<polygon fill="#bfbfbf" stroke="black" points="54,-0.5 54,-19.5 220,-19.5 220,-0.5 54,-0.5"/>
<text text-anchor="middle" x="137" y="-7.5" font-family="Helvetica,sans-Serif" font-size="10.00">CVClassifyComponentInstance</text>
</a>
</g>
</g>
<!-- Node2 -->
<g id="node2" class="node">
<title>Node2</title>
<g id="a_node2"><a xlink:href="../../d9/df2/classnap_1_1_component_instance.html" target="_top" xlink:title=" ">
<polygon fill="white" stroke="black" points="0,-73 0,-92 114,-92 114,-73 0,-73"/>
<text text-anchor="middle" x="57" y="-80" font-family="Helvetica,sans-Serif" font-size="10.00">ComponentInstance</text>
</a>
</g>
</g>
<!-- Node2&#45;&gt;Node1 -->
<g id="edge1" class="edge">
<title>Node2&#45;&gt;Node1</title>
<path fill="none" stroke="midnightblue" d="M74.49,-66.08C90.62,-51.87 113.99,-31.27 127.11,-19.72"/>
<polygon fill="midnightblue" stroke="midnightblue" points="72,-63.62 66.81,-72.86 76.63,-68.87 72,-63.62"/>
</g>
<!-- Node3 -->
<g id="node3" class="node">
<title>Node3</title>
<g id="a_node3"><a xlink:href="../../de/d01/classnap_1_1rtti_1_1_object.html" target="_top" xlink:title=" ">
<polygon fill="white" stroke="black" points="33,-135.5 33,-154.5 81,-154.5 81,-135.5 33,-135.5"/>
<text text-anchor="middle" x="57" y="-142.5" font-family="Helvetica,sans-Serif" font-size="10.00">Object</text>
</a>
</g>
</g>
<!-- Node3&#45;&gt;Node2 -->
<g id="edge2" class="edge">
<title>Node3&#45;&gt;Node2</title>
<path fill="none" stroke="midnightblue" d="M57,-125C57,-114 57,-100.68 57,-92.15"/>
<polygon fill="midnightblue" stroke="midnightblue" points="53.5,-125.33 57,-135.33 60.5,-125.33 53.5,-125.33"/>
</g>
<!-- Node4 -->
<g id="node4" class="node">
<title>Node4</title>
<g id="a_node4"><a xlink:href="../../dc/d06/classnap_1_1_component_instance_ptr.html" target="_top" xlink:title=" ">
<polygon fill="white" stroke="black" points="132.5,-67.5 132.5,-97.5 303.5,-97.5 303.5,-67.5 132.5,-67.5"/>
<text text-anchor="start" x="140.5" y="-85.5" font-family="Helvetica,sans-Serif" font-size="10.00">ComponentInstancePtr</text>
<text text-anchor="middle" x="218" y="-74.5" font-family="Helvetica,sans-Serif" font-size="10.00">&lt; nap::CVCaptureComponent &gt;</text>
</a>
</g>
</g>
<!-- Node4&#45;&gt;Node1 -->
<g id="edge3" class="edge">
<title>Node4&#45;&gt;Node1</title>
<path fill="none" stroke="#9a32cd" stroke-dasharray="5,2" d="M193.88,-60.51C178.32,-46.96 158.87,-30.03 147.22,-19.89"/>
<polygon fill="#9a32cd" stroke="#9a32cd" points="191.77,-63.31 201.61,-67.23 196.36,-58.03 191.77,-63.31"/>
<text text-anchor="middle" x="234" y="-41" font-family="Helvetica,sans-Serif" font-size="10.00"> mCaptureComponent</text>
</g>
</g>
</svg>
