<?xml version="1.0" encoding="UTF-8" standalone="no"?>
<!DOCTYPE svg PUBLIC "-//W3C//DTD SVG 1.1//EN"
 "http://www.w3.org/Graphics/SVG/1.1/DTD/svg11.dtd">
<!-- Generated by graphviz version 3.0.0 (20220226.1711)
 -->
<!-- Title: CVClassifyComponentInstance Pages: 1 -->
<svg width="283pt" height="163pt"
 viewBox="0.00 0.00 282.50 163.00" xmlns="http://www.w3.org/2000/svg" xmlns:xlink="http://www.w3.org/1999/xlink">
<g id="graph0" class="graph" transform="scale(1 1) rotate(0) translate(4 159)">
<title>CVClassifyComponentInstance</title>
<polygon fill="white" stroke="transparent" points="-4,4 -4,-159 278.5,-159 278.5,4 -4,4"/>
<!-- Node3 -->
<g id="node1" class="node">
<title>Node3</title>
<polygon fill="#bfbfbf" stroke="black" points="85,-0.5 85,-19.5 236,-19.5 236,-0.5 85,-0.5"/>
<text text-anchor="middle" x="160.5" y="-7.5" font-family="Helvetica,sans-Serif" font-size="10.00">CVClassifyComponentInstance</text>
</g>
<!-- Node4 -->
<g id="node2" class="node">
<title>Node4</title>
<g id="a_node2"><a xlink:href="../../d9/df2/classnap_1_1_component_instance.html" target="_top" xlink:title="ComponentInstance">
<polygon fill="white" stroke="black" points="0,-73 0,-92 103,-92 103,-73 0,-73"/>
<text text-anchor="middle" x="51.5" y="-80" font-family="Helvetica,sans-Serif" font-size="10.00">ComponentInstance</text>
</a>
</g>
</g>
<!-- Node4&#45;&gt;Node3 -->
<g id="edge1" class="edge">
<title>Node4&#45;&gt;Node3</title>
<path fill="none" stroke="midnightblue" d="M73.54,-67.24C95.55,-53.01 128.66,-31.59 147.03,-19.72"/>
<polygon fill="midnightblue" stroke="midnightblue" points="71.36,-64.49 64.87,-72.86 75.16,-70.36 71.36,-64.49"/>
</g>
<!-- Node5 -->
<g id="node3" class="node">
<title>Node5</title>
<g id="a_node3"><a xlink:href="../../de/d01/classnap_1_1rtti_1_1_object.html" target="_top" xlink:title="Object">
<polygon fill="white" stroke="black" points="29,-135.5 29,-154.5 74,-154.5 74,-135.5 29,-135.5"/>
<text text-anchor="middle" x="51.5" y="-142.5" font-family="Helvetica,sans-Serif" font-size="10.00">Object</text>
</a>
</g>
</g>
<!-- Node5&#45;&gt;Node4 -->
<g id="edge2" class="edge">
<title>Node5&#45;&gt;Node4</title>
<path fill="none" stroke="midnightblue" d="M51.5,-125C51.5,-114 51.5,-100.68 51.5,-92.15"/>
<polygon fill="midnightblue" stroke="midnightblue" points="48,-125.33 51.5,-135.33 55,-125.33 48,-125.33"/>
</g>
<!-- Node6 -->
<g id="node4" class="node">
<title>Node6</title>
<g id="a_node4"><a xlink:href="../../dc/d06/classnap_1_1_component_instance_ptr.html" target="_top" xlink:title="ComponentInstancePtr\l\&lt; nap::CVCaptureComponent \&gt;">
<polygon fill="white" stroke="black" points="121,-67.5 121,-97.5 274,-97.5 274,-67.5 121,-67.5"/>
<text text-anchor="start" x="129" y="-85.5" font-family="Helvetica,sans-Serif" font-size="10.00">ComponentInstancePtr</text>
<text text-anchor="middle" x="197.5" y="-74.5" font-family="Helvetica,sans-Serif" font-size="10.00">&lt; nap::CVCaptureComponent &gt;</text>
</a>
</g>
</g>
<!-- Node6&#45;&gt;Node3 -->
<g id="edge3" class="edge">
<title>Node6&#45;&gt;Node3</title>
<path fill="none" stroke="#9a32cd" stroke-dasharray="5,2" d="M185.29,-58.24C178.41,-45.12 170.2,-29.48 165.17,-19.89"/>
<polygon fill="#9a32cd" stroke="#9a32cd" points="182.27,-60.01 190.01,-67.23 188.46,-56.75 182.27,-60.01"/>
<text text-anchor="middle" x="227" y="-41" font-family="Helvetica,sans-Serif" font-size="10.00"> mCaptureComponent</text>
</g>
</g>
</svg>
