<?xml version="1.0" encoding="UTF-8" standalone="no"?>
<!DOCTYPE svg PUBLIC "-//W3C//DTD SVG 1.1//EN"
 "http://www.w3.org/Graphics/SVG/1.1/DTD/svg11.dtd">
<!-- Generated by graphviz version 3.0.0 (20220226.1711)
 -->
<!-- Title: OutputComponent Pages: 1 -->
<svg width="244pt" height="220pt"
 viewBox="0.00 0.00 244.00 220.00" xmlns="http://www.w3.org/2000/svg" xmlns:xlink="http://www.w3.org/1999/xlink">
<g id="graph0" class="graph" transform="scale(1 1) rotate(0) translate(4 216)">
<title>OutputComponent</title>
<polygon fill="white" stroke="transparent" points="-4,4 -4,-216 240,-216 240,4 -4,4"/>
<!-- Node4 -->
<g id="node1" class="node">
<title>Node4</title>
<polygon fill="#bfbfbf" stroke="black" points="48.5,-0.5 48.5,-19.5 143.5,-19.5 143.5,-0.5 48.5,-0.5"/>
<text text-anchor="middle" x="96" y="-7.5" font-family="Helvetica,sans-Serif" font-size="10.00">OutputComponent</text>
</g>
<!-- Node5 -->
<g id="node2" class="node">
<title>Node5</title>
<g id="a_node2"><a xlink:href="../../db/d6b/classnap_1_1_component.html" target="_top" xlink:title="Component">
<polygon fill="white" stroke="black" points="0,-73 0,-92 66,-92 66,-73 0,-73"/>
<text text-anchor="middle" x="33" y="-80" font-family="Helvetica,sans-Serif" font-size="10.00">Component</text>
</a>
</g>
</g>
<!-- Node5&#45;&gt;Node4 -->
<g id="edge1" class="edge">
<title>Node5&#45;&gt;Node4</title>
<path fill="none" stroke="midnightblue" d="M47.48,-65.3C60.15,-51.12 78.07,-31.06 88.21,-19.72"/>
<polygon fill="midnightblue" stroke="midnightblue" points="44.78,-63.07 40.73,-72.86 50,-67.73 44.78,-63.07"/>
</g>
<!-- Node6 -->
<g id="node3" class="node">
<title>Node6</title>
<g id="a_node3"><a xlink:href="../../d9/dea/classnap_1_1_resource.html" target="_top" xlink:title="Resource">
<polygon fill="white" stroke="black" points="4,-135.5 4,-154.5 62,-154.5 62,-135.5 4,-135.5"/>
<text text-anchor="middle" x="33" y="-142.5" font-family="Helvetica,sans-Serif" font-size="10.00">Resource</text>
</a>
</g>
</g>
<!-- Node6&#45;&gt;Node5 -->
<g id="edge2" class="edge">
<title>Node6&#45;&gt;Node5</title>
<path fill="none" stroke="midnightblue" d="M33,-125C33,-114 33,-100.68 33,-92.15"/>
<polygon fill="midnightblue" stroke="midnightblue" points="29.5,-125.33 33,-135.33 36.5,-125.33 29.5,-125.33"/>
</g>
<!-- Node7 -->
<g id="node4" class="node">
<title>Node7</title>
<g id="a_node4"><a xlink:href="../../de/d01/classnap_1_1rtti_1_1_object.html" target="_top" xlink:title="Object">
<polygon fill="white" stroke="black" points="10.5,-192.5 10.5,-211.5 55.5,-211.5 55.5,-192.5 10.5,-192.5"/>
<text text-anchor="middle" x="33" y="-199.5" font-family="Helvetica,sans-Serif" font-size="10.00">Object</text>
</a>
</g>
</g>
<!-- Node7&#45;&gt;Node6 -->
<g id="edge3" class="edge">
<title>Node7&#45;&gt;Node6</title>
<path fill="none" stroke="midnightblue" d="M33,-182.12C33,-172.82 33,-162.06 33,-154.71"/>
<polygon fill="midnightblue" stroke="midnightblue" points="29.5,-182.41 33,-192.41 36.5,-182.41 29.5,-182.41"/>
</g>
<!-- Node8 -->
<g id="node5" class="node">
<title>Node8</title>
<g id="a_node5"><a xlink:href="../../d1/dcd/classnap_1_1_component_ptr.html" target="_top" xlink:title="ComponentPtr\&lt; nap::\laudio::AudioComponentBase \&gt;">
<polygon fill="white" stroke="black" points="84,-67.5 84,-97.5 236,-97.5 236,-67.5 84,-67.5"/>
<text text-anchor="start" x="92" y="-85.5" font-family="Helvetica,sans-Serif" font-size="10.00">ComponentPtr&lt; nap::</text>
<text text-anchor="middle" x="160" y="-74.5" font-family="Helvetica,sans-Serif" font-size="10.00">audio::AudioComponentBase &gt;</text>
</a>
</g>
</g>
<!-- Node8&#45;&gt;Node4 -->
<g id="edge4" class="edge">
<title>Node8&#45;&gt;Node4</title>
<path fill="none" stroke="#9a32cd" stroke-dasharray="5,2" d="M140.27,-59.76C128.09,-46.34 113.11,-29.85 104.07,-19.89"/>
<polygon fill="#9a32cd" stroke="#9a32cd" points="137.74,-62.18 147.05,-67.23 142.92,-57.48 137.74,-62.18"/>
<text text-anchor="middle" x="146.5" y="-41" font-family="Helvetica,sans-Serif" font-size="10.00"> mInput</text>
</g>
<!-- Node9 -->
<g id="node6" class="node">
<title>Node9</title>
<g id="a_node6"><a xlink:href="../../da/d10/classnap_1_1_component_ptr_base.html" target="_top" xlink:title="ComponentPtrBase">
<polygon fill="white" stroke="black" points="109.5,-135.5 109.5,-154.5 210.5,-154.5 210.5,-135.5 109.5,-135.5"/>
<text text-anchor="middle" x="160" y="-142.5" font-family="Helvetica,sans-Serif" font-size="10.00">ComponentPtrBase</text>
</a>
</g>
</g>
<!-- Node9&#45;&gt;Node8 -->
<g id="edge5" class="edge">
<title>Node9&#45;&gt;Node8</title>
<path fill="none" stroke="midnightblue" d="M160,-125.22C160,-116.36 160,-105.96 160,-97.76"/>
<polygon fill="midnightblue" stroke="midnightblue" points="156.5,-125.33 160,-135.33 163.5,-125.33 156.5,-125.33"/>
</g>
</g>
</svg>
