<?xml version="1.0" encoding="UTF-8" standalone="no"?>
<!DOCTYPE svg PUBLIC "-//W3C//DTD SVG 1.1//EN"
 "http://www.w3.org/Graphics/SVG/1.1/DTD/svg11.dtd">
<!-- Generated by graphviz version 3.0.0 (20220226.1711)
 -->
<!-- Title: WindowResizedEvent Pages: 1 -->
<svg width="146pt" height="196pt"
 viewBox="0.00 0.00 146.00 196.00" xmlns="http://www.w3.org/2000/svg" xmlns:xlink="http://www.w3.org/1999/xlink">
<g id="graph0" class="graph" transform="scale(1 1) rotate(0) translate(4 192)">
<title>WindowResizedEvent</title>
<polygon fill="white" stroke="transparent" points="-4,4 -4,-192 142,-192 142,4 -4,4"/>
<!-- Node4 -->
<g id="node1" class="node">
<title>Node4</title>
<polygon fill="#bfbfbf" stroke="black" points="14,-0.5 14,-19.5 124,-19.5 124,-0.5 14,-0.5"/>
<text text-anchor="middle" x="69" y="-7.5" font-family="Helvetica,sans-Serif" font-size="10.00">WindowResizedEvent</text>
</g>
<!-- Node5 -->
<g id="node2" class="node">
<title>Node5</title>
<g id="a_node2"><a xlink:href="../../d3/d68/classnap_1_1_parameterized_window_event.html" target="_top" xlink:title="ParameterizedWindowEvent">
<polygon fill="white" stroke="black" points="0,-56.5 0,-75.5 138,-75.5 138,-56.5 0,-56.5"/>
<text text-anchor="middle" x="69" y="-63.5" font-family="Helvetica,sans-Serif" font-size="10.00">ParameterizedWindowEvent</text>
</a>
</g>
</g>
<!-- Node5&#45;&gt;Node4 -->
<g id="edge1" class="edge">
<title>Node5&#45;&gt;Node4</title>
<path fill="none" stroke="midnightblue" d="M69,-45.8C69,-36.91 69,-26.78 69,-19.75"/>
<polygon fill="midnightblue" stroke="midnightblue" points="65.5,-46.08 69,-56.08 72.5,-46.08 65.5,-46.08"/>
</g>
<!-- Node6 -->
<g id="node3" class="node">
<title>Node6</title>
<g id="a_node3"><a xlink:href="../../d5/dea/classnap_1_1_window_event.html" target="_top" xlink:title="WindowEvent">
<polygon fill="white" stroke="black" points="31.5,-112.5 31.5,-131.5 106.5,-131.5 106.5,-112.5 31.5,-112.5"/>
<text text-anchor="middle" x="69" y="-119.5" font-family="Helvetica,sans-Serif" font-size="10.00">WindowEvent</text>
</a>
</g>
</g>
<!-- Node6&#45;&gt;Node5 -->
<g id="edge2" class="edge">
<title>Node6&#45;&gt;Node5</title>
<path fill="none" stroke="midnightblue" d="M69,-101.8C69,-92.91 69,-82.78 69,-75.75"/>
<polygon fill="midnightblue" stroke="midnightblue" points="65.5,-102.08 69,-112.08 72.5,-102.08 65.5,-102.08"/>
</g>
<!-- Node7 -->
<g id="node4" class="node">
<title>Node7</title>
<g id="a_node4"><a xlink:href="../../d2/da2/classnap_1_1_event.html" target="_top" xlink:title="Event">
<polygon fill="white" stroke="black" points="48.5,-168.5 48.5,-187.5 89.5,-187.5 89.5,-168.5 48.5,-168.5"/>
<text text-anchor="middle" x="69" y="-175.5" font-family="Helvetica,sans-Serif" font-size="10.00">Event</text>
</a>
</g>
</g>
<!-- Node7&#45;&gt;Node6 -->
<g id="edge3" class="edge">
<title>Node7&#45;&gt;Node6</title>
<path fill="none" stroke="midnightblue" d="M69,-157.8C69,-148.91 69,-138.78 69,-131.75"/>
<polygon fill="midnightblue" stroke="midnightblue" points="65.5,-158.08 69,-168.08 72.5,-158.08 65.5,-158.08"/>
</g>
</g>
</svg>
