<?xml version="1.0" encoding="UTF-8" standalone="no"?>
<!DOCTYPE svg PUBLIC "-//W3C//DTD SVG 1.1//EN"
 "http://www.w3.org/Graphics/SVG/1.1/DTD/svg11.dtd">
<!-- Generated by graphviz version 2.43.0 (0)
 -->
<!-- Title: RenderTexture2D Pages: 1 -->
<svg width="407pt" height="240pt"
 viewBox="0.00 0.00 407.00 240.00" xmlns="http://www.w3.org/2000/svg" xmlns:xlink="http://www.w3.org/1999/xlink">
<g id="graph0" class="graph" transform="scale(1 1) rotate(0) translate(4 236)">
<title>RenderTexture2D</title>
<polygon fill="white" stroke="transparent" points="-4,4 -4,-236 403,-236 403,4 -4,4"/>
<!-- Node1 -->
<g id="node1" class="node">
<title>Node1</title>
<g id="a_node1"><a xlink:title=" ">
<polygon fill="#bfbfbf" stroke="black" points="174.5,-0.5 174.5,-19.5 275.5,-19.5 275.5,-0.5 174.5,-0.5"/>
<text text-anchor="middle" x="225" y="-7.5" font-family="Helvetica,sans-Serif" font-size="10.00">RenderTexture2D</text>
</a>
</g>
</g>
<!-- Node2 -->
<g id="node2" class="node">
<title>Node2</title>
<g id="a_node2"><a xlink:href="../../d6/d0e/classnap_1_1_texture2_d.html" target="_top" xlink:title=" ">
<polygon fill="white" stroke="black" points="139,-67.5 139,-86.5 205,-86.5 205,-67.5 139,-67.5"/>
<text text-anchor="middle" x="172" y="-74.5" font-family="Helvetica,sans-Serif" font-size="10.00">Texture2D</text>
</a>
</g>
</g>
<!-- Node2&#45;&gt;Node1 -->
<g id="edge1" class="edge">
<title>Node2&#45;&gt;Node1</title>
<path fill="none" stroke="midnightblue" d="M185.64,-59.27C195.97,-46.6 209.75,-29.7 217.97,-19.63"/>
<polygon fill="midnightblue" stroke="midnightblue" points="182.75,-57.27 179.15,-67.23 188.18,-61.7 182.75,-57.27"/>
</g>
<!-- Node3 -->
<g id="node3" class="node">
<title>Node3</title>
<g id="a_node3"><a xlink:href="../../d9/dea/classnap_1_1_resource.html" target="_top" xlink:title=" ">
<polygon fill="white" stroke="black" points="21,-134.5 21,-153.5 83,-153.5 83,-134.5 21,-134.5"/>
<text text-anchor="middle" x="52" y="-141.5" font-family="Helvetica,sans-Serif" font-size="10.00">Resource</text>
</a>
</g>
</g>
<!-- Node3&#45;&gt;Node2 -->
<g id="edge2" class="edge">
<title>Node3&#45;&gt;Node2</title>
<path fill="none" stroke="midnightblue" d="M77,-129.46C100.79,-116.57 135.87,-97.57 156.07,-86.63"/>
<polygon fill="midnightblue" stroke="midnightblue" points="75.31,-126.39 68.18,-134.23 78.64,-132.55 75.31,-126.39"/>
</g>
<!-- Node4 -->
<g id="node4" class="node">
<title>Node4</title>
<g id="a_node4"><a xlink:href="../../de/d01/classnap_1_1rtti_1_1_object.html" target="_top" xlink:title=" ">
<polygon fill="white" stroke="black" points="0,-212.5 0,-231.5 48,-231.5 48,-212.5 0,-212.5"/>
<text text-anchor="middle" x="24" y="-219.5" font-family="Helvetica,sans-Serif" font-size="10.00">Object</text>
</a>
</g>
</g>
<!-- Node4&#45;&gt;Node3 -->
<g id="edge3" class="edge">
<title>Node4&#45;&gt;Node3</title>
<path fill="none" stroke="midnightblue" d="M30.75,-202.67C36.48,-187.11 44.46,-165.47 48.83,-153.62"/>
<polygon fill="midnightblue" stroke="midnightblue" points="27.38,-201.69 27.21,-212.28 33.95,-204.11 27.38,-201.69"/>
</g>
<!-- Node5 -->
<g id="node5" class="node">
<title>Node5</title>
<g id="a_node5"><a xlink:href="../../d5/dc6/classnap_1_1_render_service.html" target="_top" xlink:title=" ">
<polygon fill="white" stroke="black" points="128.5,-134.5 128.5,-153.5 215.5,-153.5 215.5,-134.5 128.5,-134.5"/>
<text text-anchor="middle" x="172" y="-141.5" font-family="Helvetica,sans-Serif" font-size="10.00">RenderService</text>
</a>
</g>
</g>
<!-- Node5&#45;&gt;Node2 -->
<g id="edge4" class="edge">
<title>Node5&#45;&gt;Node2</title>
<path fill="none" stroke="#9a32cd" stroke-dasharray="5,2" d="M172,-124.04C172,-111.67 172,-96.12 172,-86.63"/>
<polygon fill="#9a32cd" stroke="#9a32cd" points="168.5,-124.23 172,-134.23 175.5,-124.23 168.5,-124.23"/>
<text text-anchor="middle" x="214" y="-108" font-family="Helvetica,sans-Serif" font-size="10.00"> mRenderService</text>
</g>
<!-- Node6 -->
<g id="node6" class="node">
<title>Node6</title>
<g id="a_node6"><a xlink:href="../../d8/d8e/classnap_1_1_service.html" target="_top" xlink:title=" ">
<polygon fill="white" stroke="black" points="66.5,-212.5 66.5,-231.5 119.5,-231.5 119.5,-212.5 66.5,-212.5"/>
<text text-anchor="middle" x="93" y="-219.5" font-family="Helvetica,sans-Serif" font-size="10.00">Service</text>
</a>
</g>
</g>
<!-- Node6&#45;&gt;Node5 -->
<g id="edge5" class="edge">
<title>Node6&#45;&gt;Node5</title>
<path fill="none" stroke="midnightblue" d="M109.32,-205.3C125.6,-189.64 150.01,-166.16 163.04,-153.62"/>
<polygon fill="midnightblue" stroke="midnightblue" points="106.84,-202.83 102.06,-212.28 111.7,-207.87 106.84,-202.83"/>
</g>
<!-- Node7 -->
<g id="node7" class="node">
<title>Node7</title>
<g id="a_node7"><a xlink:href="../../de/d80/classnap_1_1_signal.html" target="_top" xlink:title=" ">
<polygon fill="white" stroke="black" points="137.5,-212.5 137.5,-231.5 314.5,-231.5 314.5,-212.5 137.5,-212.5"/>
<text text-anchor="middle" x="226" y="-219.5" font-family="Helvetica,sans-Serif" font-size="10.00">Signal&lt; nap::RenderWindow &amp; &gt;</text>
</a>
</g>
</g>
<!-- Node7&#45;&gt;Node5 -->
<g id="edge6" class="edge">
<title>Node7&#45;&gt;Node5</title>
<path fill="none" stroke="#9a32cd" stroke-dasharray="5,2" d="M213.93,-204.01C202.82,-188.37 186.79,-165.81 178.12,-153.62"/>
<polygon fill="#9a32cd" stroke="#9a32cd" points="211.16,-206.16 219.81,-212.28 216.87,-202.1 211.16,-206.16"/>
<text text-anchor="middle" x="250" y="-186" font-family="Helvetica,sans-Serif" font-size="10.00"> windowRemoved</text>
<text text-anchor="middle" x="250" y="-175" font-family="Helvetica,sans-Serif" font-size="10.00">windowAdded</text>
</g>
<!-- Node8 -->
<g id="node8" class="node">
<title>Node8</title>
<g id="a_node8"><a xlink:href="../../d6/db8/classnap_1_1_r_g_b_a_color.html" target="_top" xlink:title=" ">
<polygon fill="white" stroke="black" points="258,-67.5 258,-86.5 372,-86.5 372,-67.5 258,-67.5"/>
<text text-anchor="middle" x="315" y="-74.5" font-family="Helvetica,sans-Serif" font-size="10.00">RGBAColor&lt; float &gt;</text>
</a>
</g>
</g>
<!-- Node8&#45;&gt;Node1 -->
<g id="edge7" class="edge">
<title>Node8&#45;&gt;Node1</title>
<path fill="none" stroke="#9a32cd" stroke-dasharray="5,2" d="M294.32,-61.07C276.56,-48.24 251.56,-30.19 236.95,-19.63"/>
<polygon fill="#9a32cd" stroke="#9a32cd" points="292.71,-64.22 302.86,-67.23 296.8,-58.54 292.71,-64.22"/>
<text text-anchor="middle" x="308" y="-41" font-family="Helvetica,sans-Serif" font-size="10.00"> mClearColor</text>
</g>
<!-- Node9 -->
<g id="node9" class="node">
<title>Node9</title>
<g id="a_node9"><a xlink:href="../../d6/d3d/classnap_1_1_color.html" target="_top" xlink:title=" ">
<polygon fill="white" stroke="black" points="300,-134.5 300,-153.5 398,-153.5 398,-134.5 300,-134.5"/>
<text text-anchor="middle" x="349" y="-141.5" font-family="Helvetica,sans-Serif" font-size="10.00">Color&lt; float, 4 &gt;</text>
</a>
</g>
</g>
<!-- Node9&#45;&gt;Node8 -->
<g id="edge8" class="edge">
<title>Node9&#45;&gt;Node8</title>
<path fill="none" stroke="midnightblue" d="M339.67,-125.16C333.11,-112.63 324.63,-96.41 319.51,-86.63"/>
<polygon fill="midnightblue" stroke="midnightblue" points="336.68,-127 344.41,-134.23 342.88,-123.75 336.68,-127"/>
</g>
<!-- Node10 -->
<g id="node10" class="node">
<title>Node10</title>
<g id="a_node10"><a xlink:href="../../d8/d6a/classnap_1_1_base_color.html" target="_top" xlink:title=" ">
<polygon fill="white" stroke="black" points="333,-212.5 333,-231.5 399,-231.5 399,-212.5 333,-212.5"/>
<text text-anchor="middle" x="366" y="-219.5" font-family="Helvetica,sans-Serif" font-size="10.00">BaseColor</text>
</a>
</g>
</g>
<!-- Node10&#45;&gt;Node9 -->
<g id="edge9" class="edge">
<title>Node10&#45;&gt;Node9</title>
<path fill="none" stroke="midnightblue" d="M361.8,-202.22C358.33,-186.7 353.55,-165.36 350.93,-153.62"/>
<polygon fill="midnightblue" stroke="midnightblue" points="358.45,-203.29 364.05,-212.28 365.28,-201.76 358.45,-203.29"/>
</g>
</g>
</svg>
