<?xml version="1.0" encoding="UTF-8" standalone="no"?>
<!DOCTYPE svg PUBLIC "-//W3C//DTD SVG 1.1//EN"
 "http://www.w3.org/Graphics/SVG/1.1/DTD/svg11.dtd">
<!-- Generated by graphviz version 3.0.0 (20220226.1711)
 -->
<!-- Title: CVCaptureDevice Pages: 1 -->
<svg width="184pt" height="220pt"
 viewBox="0.00 0.00 184.00 220.00" xmlns="http://www.w3.org/2000/svg" xmlns:xlink="http://www.w3.org/1999/xlink">
<g id="graph0" class="graph" transform="scale(1 1) rotate(0) translate(4 216)">
<title>CVCaptureDevice</title>
<polygon fill="white" stroke="transparent" points="-4,4 -4,-216 180,-216 180,4 -4,4"/>
<!-- Node4 -->
<g id="node1" class="node">
<title>Node4</title>
<polygon fill="#bfbfbf" stroke="black" points="51,-0.5 51,-19.5 143,-19.5 143,-0.5 51,-0.5"/>
<text text-anchor="middle" x="97" y="-7.5" font-family="Helvetica,sans-Serif" font-size="10.00">CVCaptureDevice</text>
</g>
<!-- Node5 -->
<g id="node2" class="node">
<title>Node5</title>
<g id="a_node2"><a xlink:href="../../d3/dc5/classnap_1_1_device.html" target="_top" xlink:title="Device">
<polygon fill="white" stroke="black" points="6.5,-73 6.5,-92 51.5,-92 51.5,-73 6.5,-73"/>
<text text-anchor="middle" x="29" y="-80" font-family="Helvetica,sans-Serif" font-size="10.00">Device</text>
</a>
</g>
</g>
<!-- Node5&#45;&gt;Node4 -->
<g id="edge1" class="edge">
<title>Node5&#45;&gt;Node4</title>
<path fill="none" stroke="midnightblue" d="M44.63,-65.3C58.31,-51.12 77.65,-31.06 88.59,-19.72"/>
<polygon fill="midnightblue" stroke="midnightblue" points="41.76,-63.23 37.34,-72.86 46.8,-68.09 41.76,-63.23"/>
</g>
<!-- Node6 -->
<g id="node3" class="node">
<title>Node6</title>
<g id="a_node3"><a xlink:href="../../d9/dea/classnap_1_1_resource.html" target="_top" xlink:title="Resource">
<polygon fill="white" stroke="black" points="0,-135.5 0,-154.5 58,-154.5 58,-135.5 0,-135.5"/>
<text text-anchor="middle" x="29" y="-142.5" font-family="Helvetica,sans-Serif" font-size="10.00">Resource</text>
</a>
</g>
</g>
<!-- Node6&#45;&gt;Node5 -->
<g id="edge2" class="edge">
<title>Node6&#45;&gt;Node5</title>
<path fill="none" stroke="midnightblue" d="M29,-125C29,-114 29,-100.68 29,-92.15"/>
<polygon fill="midnightblue" stroke="midnightblue" points="25.5,-125.33 29,-135.33 32.5,-125.33 25.5,-125.33"/>
</g>
<!-- Node7 -->
<g id="node4" class="node">
<title>Node7</title>
<g id="a_node4"><a xlink:href="../../de/d01/classnap_1_1rtti_1_1_object.html" target="_top" xlink:title="Object">
<polygon fill="white" stroke="black" points="6.5,-192.5 6.5,-211.5 51.5,-211.5 51.5,-192.5 6.5,-192.5"/>
<text text-anchor="middle" x="29" y="-199.5" font-family="Helvetica,sans-Serif" font-size="10.00">Object</text>
</a>
</g>
</g>
<!-- Node7&#45;&gt;Node6 -->
<g id="edge3" class="edge">
<title>Node7&#45;&gt;Node6</title>
<path fill="none" stroke="midnightblue" d="M29,-182.12C29,-172.82 29,-162.06 29,-154.71"/>
<polygon fill="midnightblue" stroke="midnightblue" points="25.5,-182.41 29,-192.41 32.5,-182.41 25.5,-182.41"/>
</g>
<!-- Node8 -->
<g id="node5" class="node">
<title>Node8</title>
<g id="a_node5"><a xlink:href="../../de/d80/classnap_1_1_signal.html" target="_top" xlink:title="Signal\&lt; const nap::\lCVFrameEvent &amp;\&gt;">
<polygon fill="white" stroke="black" points="69.5,-67.5 69.5,-97.5 170.5,-97.5 170.5,-67.5 69.5,-67.5"/>
<text text-anchor="start" x="77.5" y="-85.5" font-family="Helvetica,sans-Serif" font-size="10.00">Signal&lt; const nap::</text>
<text text-anchor="middle" x="120" y="-74.5" font-family="Helvetica,sans-Serif" font-size="10.00">CVFrameEvent &amp;&gt;</text>
</a>
</g>
</g>
<!-- Node8&#45;&gt;Node4 -->
<g id="edge4" class="edge">
<title>Node8&#45;&gt;Node4</title>
<path fill="none" stroke="#9a32cd" stroke-dasharray="5,2" d="M112.16,-57.48C107.93,-44.51 102.97,-29.29 99.9,-19.89"/>
<polygon fill="#9a32cd" stroke="#9a32cd" points="108.92,-58.81 115.35,-67.23 115.57,-56.64 108.92,-58.81"/>
<text text-anchor="middle" x="142.5" y="-41" font-family="Helvetica,sans-Serif" font-size="10.00"> frameCaptured</text>
</g>
</g>
</svg>
