<?xml version="1.0" encoding="UTF-8" standalone="no"?>
<!DOCTYPE svg PUBLIC "-//W3C//DTD SVG 1.1//EN"
 "http://www.w3.org/Graphics/SVG/1.1/DTD/svg11.dtd">
<!-- Generated by graphviz version 3.0.0 (20220226.1711)
 -->
<!-- Title: RenderVideoComponentInstance Pages: 1 -->
<svg width="166pt" height="196pt"
 viewBox="0.00 0.00 166.00 196.00" xmlns="http://www.w3.org/2000/svg" xmlns:xlink="http://www.w3.org/1999/xlink">
<g id="graph0" class="graph" transform="scale(1 1) rotate(0) translate(4 192)">
<title>RenderVideoComponentInstance</title>
<polygon fill="white" stroke="transparent" points="-4,4 -4,-192 162,-192 162,4 -4,4"/>
<!-- Node4 -->
<g id="node1" class="node">
<title>Node4</title>
<polygon fill="#bfbfbf" stroke="black" points="0,-0.5 0,-19.5 158,-19.5 158,-0.5 0,-0.5"/>
<text text-anchor="middle" x="79" y="-7.5" font-family="Helvetica,sans-Serif" font-size="10.00">RenderVideoComponentInstance</text>
</g>
<!-- Node5 -->
<g id="node2" class="node">
<title>Node5</title>
<g id="a_node2"><a xlink:href="../../dd/da0/classnap_1_1_renderable_component_instance.html" target="_top" xlink:title="RenderableComponentInstance">
<polygon fill="white" stroke="black" points="3,-56.5 3,-75.5 155,-75.5 155,-56.5 3,-56.5"/>
<text text-anchor="middle" x="79" y="-63.5" font-family="Helvetica,sans-Serif" font-size="10.00">RenderableComponentInstance</text>
</a>
</g>
</g>
<!-- Node5&#45;&gt;Node4 -->
<g id="edge1" class="edge">
<title>Node5&#45;&gt;Node4</title>
<path fill="none" stroke="midnightblue" d="M79,-45.8C79,-36.91 79,-26.78 79,-19.75"/>
<polygon fill="midnightblue" stroke="midnightblue" points="75.5,-46.08 79,-56.08 82.5,-46.08 75.5,-46.08"/>
</g>
<!-- Node6 -->
<g id="node3" class="node">
<title>Node6</title>
<g id="a_node3"><a xlink:href="../../d9/df2/classnap_1_1_component_instance.html" target="_top" xlink:title="ComponentInstance">
<polygon fill="white" stroke="black" points="27.5,-112.5 27.5,-131.5 130.5,-131.5 130.5,-112.5 27.5,-112.5"/>
<text text-anchor="middle" x="79" y="-119.5" font-family="Helvetica,sans-Serif" font-size="10.00">ComponentInstance</text>
</a>
</g>
</g>
<!-- Node6&#45;&gt;Node5 -->
<g id="edge2" class="edge">
<title>Node6&#45;&gt;Node5</title>
<path fill="none" stroke="midnightblue" d="M79,-101.8C79,-92.91 79,-82.78 79,-75.75"/>
<polygon fill="midnightblue" stroke="midnightblue" points="75.5,-102.08 79,-112.08 82.5,-102.08 75.5,-102.08"/>
</g>
<!-- Node7 -->
<g id="node4" class="node">
<title>Node7</title>
<g id="a_node4"><a xlink:href="../../de/d01/classnap_1_1rtti_1_1_object.html" target="_top" xlink:title="Object">
<polygon fill="white" stroke="black" points="56.5,-168.5 56.5,-187.5 101.5,-187.5 101.5,-168.5 56.5,-168.5"/>
<text text-anchor="middle" x="79" y="-175.5" font-family="Helvetica,sans-Serif" font-size="10.00">Object</text>
</a>
</g>
</g>
<!-- Node7&#45;&gt;Node6 -->
<g id="edge3" class="edge">
<title>Node7&#45;&gt;Node6</title>
<path fill="none" stroke="midnightblue" d="M79,-157.8C79,-148.91 79,-138.78 79,-131.75"/>
<polygon fill="midnightblue" stroke="midnightblue" points="75.5,-158.08 79,-168.08 82.5,-158.08 75.5,-158.08"/>
</g>
</g>
</svg>
