<?xml version="1.0" encoding="UTF-8" standalone="no"?>
<!DOCTYPE svg PUBLIC "-//W3C//DTD SVG 1.1//EN"
 "http://www.w3.org/Graphics/SVG/1.1/DTD/svg11.dtd">
<!-- Generated by graphviz version 3.0.0 (20220226.1711)
 -->
<!-- Title: RenderableGlyph Pages: 1 -->
<svg width="118pt" height="152pt"
 viewBox="0.00 0.00 118.00 152.00" xmlns="http://www.w3.org/2000/svg" xmlns:xlink="http://www.w3.org/1999/xlink">
<g id="graph0" class="graph" transform="scale(1 1) rotate(0) translate(4 148)">
<title>RenderableGlyph</title>
<polygon fill="white" stroke="transparent" points="-4,4 -4,-148 114,-148 114,4 -4,4"/>
<!-- Node4 -->
<g id="node1" class="node">
<title>Node4</title>
<polygon fill="#bfbfbf" stroke="black" points="9.5,-0.5 9.5,-19.5 100.5,-19.5 100.5,-0.5 9.5,-0.5"/>
<text text-anchor="middle" x="55" y="-7.5" font-family="Helvetica,sans-Serif" font-size="10.00">RenderableGlyph</text>
</g>
<!-- Node5 -->
<g id="node2" class="node">
<title>Node5</title>
<g id="a_node2"><a xlink:href="../../d8/dd9/classnap_1_1_i_glyph_representation.html" target="_top" xlink:title="IGlyphRepresentation">
<polygon fill="white" stroke="black" points="0,-57.5 0,-76.5 110,-76.5 110,-57.5 0,-57.5"/>
<text text-anchor="middle" x="55" y="-64.5" font-family="Helvetica,sans-Serif" font-size="10.00">IGlyphRepresentation</text>
</a>
</g>
</g>
<!-- Node5&#45;&gt;Node4 -->
<g id="edge1" class="edge">
<title>Node5&#45;&gt;Node4</title>
<path fill="none" stroke="midnightblue" d="M55,-47.12C55,-37.82 55,-27.06 55,-19.71"/>
<polygon fill="midnightblue" stroke="midnightblue" points="51.5,-47.41 55,-57.41 58.5,-47.41 51.5,-47.41"/>
</g>
<!-- Node6 -->
<g id="node3" class="node">
<title>Node6</title>
<g id="a_node3"><a xlink:href="../../d0/dfd/classnap_1_1_core.html" target="_top" xlink:title="Core">
<polygon fill="white" stroke="black" points="36.5,-124.5 36.5,-143.5 73.5,-143.5 73.5,-124.5 36.5,-124.5"/>
<text text-anchor="middle" x="55" y="-131.5" font-family="Helvetica,sans-Serif" font-size="10.00">Core</text>
</a>
</g>
</g>
<!-- Node6&#45;&gt;Node5 -->
<g id="edge2" class="edge">
<title>Node6&#45;&gt;Node5</title>
<path fill="none" stroke="#9a32cd" stroke-dasharray="5,2" d="M55,-114.04C55,-101.67 55,-86.12 55,-76.63"/>
<polygon fill="#9a32cd" stroke="#9a32cd" points="51.5,-114.23 55,-124.23 58.5,-114.23 51.5,-114.23"/>
<text text-anchor="middle" x="71" y="-98" font-family="Helvetica,sans-Serif" font-size="10.00"> mCore</text>
</g>
</g>
</svg>
