<?xml version="1.0" encoding="UTF-8" standalone="no"?>
<!DOCTYPE svg PUBLIC "-//W3C//DTD SVG 1.1//EN"
 "http://www.w3.org/Graphics/SVG/1.1/DTD/svg11.dtd">
<!-- Generated by graphviz version 3.0.0 (20220226.1711)
 -->
<!-- Title: Uniform Pages: 1 -->
<svg width="395pt" height="308pt"
 viewBox="0.00 0.00 394.50 308.00" xmlns="http://www.w3.org/2000/svg" xmlns:xlink="http://www.w3.org/1999/xlink">
<g id="graph0" class="graph" transform="scale(1 1) rotate(0) translate(4 304)">
<title>Uniform</title>
<polygon fill="white" stroke="transparent" points="-4,4 -4,-304 390.5,-304 390.5,4 -4,4"/>
<!-- Node0 -->
<g id="node1" class="node">
<title>Node0</title>
<polygon fill="#bfbfbf" stroke="black" points="119,-168.5 119,-187.5 169,-187.5 169,-168.5 119,-168.5"/>
<text text-anchor="middle" x="144" y="-175.5" font-family="Helvetica,sans-Serif" font-size="10.00">Uniform</text>
</g>
<!-- Node3 -->
<g id="node4" class="node">
<title>Node3</title>
<g id="a_node4"><a xlink:href="../../d0/de5/classnap_1_1_uniform_struct.html" target="_top" xlink:title="UniformStruct">
<polygon fill="white" stroke="black" points="0,-112.5 0,-131.5 76,-131.5 76,-112.5 0,-112.5"/>
<text text-anchor="middle" x="38" y="-119.5" font-family="Helvetica,sans-Serif" font-size="10.00">UniformStruct</text>
</a>
</g>
</g>
<!-- Node0&#45;&gt;Node3 -->
<g id="edge3" class="edge">
<title>Node0&#45;&gt;Node3</title>
<path fill="none" stroke="midnightblue" d="M117.94,-163.73C98.32,-153.73 71.97,-140.31 54.99,-131.65"/>
<polygon fill="midnightblue" stroke="midnightblue" points="116.47,-166.9 126.97,-168.32 119.65,-160.67 116.47,-166.9"/>
</g>
<!-- Node4 -->
<g id="node5" class="node">
<title>Node4</title>
<g id="a_node5"><a xlink:href="../../d9/d1e/classnap_1_1_uniform_struct_array.html" target="_top" xlink:title="UniformStructArray">
<polygon fill="white" stroke="black" points="94.5,-112.5 94.5,-131.5 193.5,-131.5 193.5,-112.5 94.5,-112.5"/>
<text text-anchor="middle" x="144" y="-119.5" font-family="Helvetica,sans-Serif" font-size="10.00">UniformStructArray</text>
</a>
</g>
</g>
<!-- Node0&#45;&gt;Node4 -->
<g id="edge4" class="edge">
<title>Node0&#45;&gt;Node4</title>
<path fill="none" stroke="midnightblue" d="M144,-157.8C144,-148.91 144,-138.78 144,-131.75"/>
<polygon fill="midnightblue" stroke="midnightblue" points="140.5,-158.08 144,-168.08 147.5,-158.08 140.5,-158.08"/>
</g>
<!-- Node5 -->
<g id="node6" class="node">
<title>Node5</title>
<g id="a_node6"><a xlink:href="../../d4/d4a/classnap_1_1_uniform_value.html" target="_top" xlink:title="UniformValue">
<polygon fill="white" stroke="black" points="212,-112.5 212,-131.5 286,-131.5 286,-112.5 212,-112.5"/>
<text text-anchor="middle" x="249" y="-119.5" font-family="Helvetica,sans-Serif" font-size="10.00">UniformValue</text>
</a>
</g>
</g>
<!-- Node0&#45;&gt;Node5 -->
<g id="edge5" class="edge">
<title>Node0&#45;&gt;Node5</title>
<path fill="none" stroke="midnightblue" d="M169.81,-163.73C189.25,-153.73 215.35,-140.31 232.17,-131.65"/>
<polygon fill="midnightblue" stroke="midnightblue" points="168.16,-160.64 160.87,-168.32 171.36,-166.86 168.16,-160.64"/>
</g>
<!-- Node1 -->
<g id="node2" class="node">
<title>Node1</title>
<g id="a_node2"><a xlink:href="../../d9/dea/classnap_1_1_resource.html" target="_top" xlink:title="Resource">
<polygon fill="white" stroke="black" points="115,-224.5 115,-243.5 173,-243.5 173,-224.5 115,-224.5"/>
<text text-anchor="middle" x="144" y="-231.5" font-family="Helvetica,sans-Serif" font-size="10.00">Resource</text>
</a>
</g>
</g>
<!-- Node1&#45;&gt;Node0 -->
<g id="edge1" class="edge">
<title>Node1&#45;&gt;Node0</title>
<path fill="none" stroke="midnightblue" d="M144,-213.8C144,-204.91 144,-194.78 144,-187.75"/>
<polygon fill="midnightblue" stroke="midnightblue" points="140.5,-214.08 144,-224.08 147.5,-214.08 140.5,-214.08"/>
</g>
<!-- Node2 -->
<g id="node3" class="node">
<title>Node2</title>
<g id="a_node3"><a xlink:href="../../de/d01/classnap_1_1rtti_1_1_object.html" target="_top" xlink:title="Object">
<polygon fill="white" stroke="black" points="121.5,-280.5 121.5,-299.5 166.5,-299.5 166.5,-280.5 121.5,-280.5"/>
<text text-anchor="middle" x="144" y="-287.5" font-family="Helvetica,sans-Serif" font-size="10.00">Object</text>
</a>
</g>
</g>
<!-- Node2&#45;&gt;Node1 -->
<g id="edge2" class="edge">
<title>Node2&#45;&gt;Node1</title>
<path fill="none" stroke="midnightblue" d="M144,-269.8C144,-260.91 144,-250.78 144,-243.75"/>
<polygon fill="midnightblue" stroke="midnightblue" points="140.5,-270.08 144,-280.08 147.5,-270.08 140.5,-270.08"/>
</g>
<!-- Node6 -->
<g id="node7" class="node">
<title>Node6</title>
<g id="a_node7"><a xlink:href="../../d5/d6a/classnap_1_1_typed_uniform_value.html" target="_top" xlink:title="TypedUniformValue\&lt; T \&gt;">
<polygon fill="white" stroke="black" points="122,-56.5 122,-75.5 246,-75.5 246,-56.5 122,-56.5"/>
<text text-anchor="middle" x="184" y="-63.5" font-family="Helvetica,sans-Serif" font-size="10.00">TypedUniformValue&lt; T &gt;</text>
</a>
</g>
</g>
<!-- Node5&#45;&gt;Node6 -->
<g id="edge6" class="edge">
<title>Node5&#45;&gt;Node6</title>
<path fill="none" stroke="midnightblue" d="M230.73,-105.82C219.08,-96.15 204.4,-83.95 194.63,-75.83"/>
<polygon fill="midnightblue" stroke="midnightblue" points="228.63,-108.63 238.56,-112.32 233.1,-103.24 228.63,-108.63"/>
</g>
<!-- Node7 -->
<g id="node8" class="node">
<title>Node7</title>
<g id="a_node8"><a xlink:href="../../d6/d98/classnap_1_1_uniform_value_array.html" target="_top" xlink:title="UniformValueArray">
<polygon fill="white" stroke="black" points="264,-56.5 264,-75.5 362,-75.5 362,-56.5 264,-56.5"/>
<text text-anchor="middle" x="313" y="-63.5" font-family="Helvetica,sans-Serif" font-size="10.00">UniformValueArray</text>
</a>
</g>
</g>
<!-- Node5&#45;&gt;Node7 -->
<g id="edge7" class="edge">
<title>Node5&#45;&gt;Node7</title>
<path fill="none" stroke="midnightblue" d="M266.99,-105.82C278.46,-96.15 292.91,-83.95 302.53,-75.83"/>
<polygon fill="midnightblue" stroke="midnightblue" points="264.67,-103.2 259.28,-112.32 269.18,-108.55 264.67,-103.2"/>
</g>
<!-- Node8 -->
<g id="node9" class="node">
<title>Node8</title>
<g id="a_node9"><a xlink:href="../../d2/d01/classnap_1_1_typed_uniform_value_array.html" target="_top" xlink:title="TypedUniformValueArray\&lt; T \&gt;">
<polygon fill="white" stroke="black" points="239.5,-0.5 239.5,-19.5 386.5,-19.5 386.5,-0.5 239.5,-0.5"/>
<text text-anchor="middle" x="313" y="-7.5" font-family="Helvetica,sans-Serif" font-size="10.00">TypedUniformValueArray&lt; T &gt;</text>
</a>
</g>
</g>
<!-- Node7&#45;&gt;Node8 -->
<g id="edge8" class="edge">
<title>Node7&#45;&gt;Node8</title>
<path fill="none" stroke="midnightblue" d="M313,-45.8C313,-36.91 313,-26.78 313,-19.75"/>
<polygon fill="midnightblue" stroke="midnightblue" points="309.5,-46.08 313,-56.08 316.5,-46.08 309.5,-46.08"/>
</g>
</g>
</svg>
