<?xml version="1.0" encoding="UTF-8" standalone="no"?>
<!DOCTYPE svg PUBLIC "-//W3C//DTD SVG 1.1//EN"
 "http://www.w3.org/Graphics/SVG/1.1/DTD/svg11.dtd">
<!-- Generated by graphviz version 2.48.0 (20210717.1556)
 -->
<!-- Title: ResourceManager Pages: 1 -->
<svg width="193pt" height="106pt"
 viewBox="0.00 0.00 192.50 106.00" xmlns="http://www.w3.org/2000/svg" xmlns:xlink="http://www.w3.org/1999/xlink">
<g id="graph0" class="graph" transform="scale(1 1) rotate(0) translate(4 102)">
<title>ResourceManager</title>
<polygon fill="white" stroke="transparent" points="-4,4 -4,-102 188.5,-102 188.5,4 -4,4"/>
<!-- Node1 -->
<g id="node1" class="node">
<title>Node1</title>
<polygon fill="#bfbfbf" stroke="black" points="0,-0.5 0,-19.5 95,-19.5 95,-0.5 0,-0.5"/>
<text text-anchor="middle" x="47.5" y="-7.5" font-family="Helvetica,sans-Serif" font-size="10.00">ResourceManager</text>
</g>
<!-- Node2 -->
<g id="node2" class="node">
<title>Node2</title>
<g id="a_node2"><a xlink:href="../../de/d80/classnap_1_1_signal.html" target="_top" xlink:title="Signal\&lt; Args \&gt;">
<polygon fill="white" stroke="black" points="6.5,-78.5 6.5,-97.5 88.5,-97.5 88.5,-78.5 6.5,-78.5"/>
<text text-anchor="middle" x="47.5" y="-85.5" font-family="Helvetica,sans-Serif" font-size="10.00">Signal&lt; Args &gt;</text>
</a>
</g>
</g>
<!-- Node2&#45;&gt;Node1 -->
<g id="edge1" class="edge">
<title>Node2&#45;&gt;Node1</title>
<path fill="none" stroke="#9a32cd" stroke-dasharray="5,2" d="M47.5,-68.22C47.5,-52.7 47.5,-31.36 47.5,-19.62"/>
<polygon fill="#9a32cd" stroke="#9a32cd" points="44,-68.28 47.5,-78.28 51,-68.28 44,-68.28"/>
<text text-anchor="middle" x="116" y="-52" font-family="Helvetica,sans-Serif" font-size="10.00"> mPostResourcesLoadedSignal</text>
<text text-anchor="middle" x="116" y="-41" font-family="Helvetica,sans-Serif" font-size="10.00">mPreResourcesLoadedSignal</text>
</g>
</g>
</svg>
