<?xml version="1.0" encoding="UTF-8" standalone="no"?>
<!DOCTYPE svg PUBLIC "-//W3C//DTD SVG 1.1//EN"
 "http://www.w3.org/Graphics/SVG/1.1/DTD/svg11.dtd">
<!-- Generated by graphviz version 2.48.0 (20210717.1556)
 -->
<!-- Title: PointerInputComponentInstance Pages: 1 -->
<svg width="163pt" height="196pt"
 viewBox="0.00 0.00 163.00 196.00" xmlns="http://www.w3.org/2000/svg" xmlns:xlink="http://www.w3.org/1999/xlink">
<g id="graph0" class="graph" transform="scale(1 1) rotate(0) translate(4 192)">
<title>PointerInputComponentInstance</title>
<polygon fill="white" stroke="transparent" points="-4,4 -4,-192 159,-192 159,4 -4,4"/>
<!-- Node0 -->
<g id="node1" class="node">
<title>Node0</title>
<polygon fill="#bfbfbf" stroke="black" points="0,-0.5 0,-19.5 155,-19.5 155,-0.5 0,-0.5"/>
<text text-anchor="middle" x="77.5" y="-7.5" font-family="Helvetica,sans-Serif" font-size="10.00">PointerInputComponentInstance</text>
</g>
<!-- Node1 -->
<g id="node2" class="node">
<title>Node1</title>
<g id="a_node2"><a xlink:href="../../dc/da6/classnap_1_1_input_component_instance.html" target="_top" xlink:title="InputComponentInstance">
<polygon fill="white" stroke="black" points="15.5,-56.5 15.5,-75.5 139.5,-75.5 139.5,-56.5 15.5,-56.5"/>
<text text-anchor="middle" x="77.5" y="-63.5" font-family="Helvetica,sans-Serif" font-size="10.00">InputComponentInstance</text>
</a>
</g>
</g>
<!-- Node1&#45;&gt;Node0 -->
<g id="edge1" class="edge">
<title>Node1&#45;&gt;Node0</title>
<path fill="none" stroke="midnightblue" d="M77.5,-45.8C77.5,-36.91 77.5,-26.78 77.5,-19.75"/>
<polygon fill="midnightblue" stroke="midnightblue" points="74,-46.08 77.5,-56.08 81,-46.08 74,-46.08"/>
</g>
<!-- Node2 -->
<g id="node3" class="node">
<title>Node2</title>
<g id="a_node3"><a xlink:href="../../d9/df2/classnap_1_1_component_instance.html" target="_top" xlink:title="ComponentInstance">
<polygon fill="white" stroke="black" points="26,-112.5 26,-131.5 129,-131.5 129,-112.5 26,-112.5"/>
<text text-anchor="middle" x="77.5" y="-119.5" font-family="Helvetica,sans-Serif" font-size="10.00">ComponentInstance</text>
</a>
</g>
</g>
<!-- Node2&#45;&gt;Node1 -->
<g id="edge2" class="edge">
<title>Node2&#45;&gt;Node1</title>
<path fill="none" stroke="midnightblue" d="M77.5,-101.8C77.5,-92.91 77.5,-82.78 77.5,-75.75"/>
<polygon fill="midnightblue" stroke="midnightblue" points="74,-102.08 77.5,-112.08 81,-102.08 74,-102.08"/>
</g>
<!-- Node3 -->
<g id="node4" class="node">
<title>Node3</title>
<g id="a_node4"><a xlink:href="../../de/d01/classnap_1_1rtti_1_1_object.html" target="_top" xlink:title="Object">
<polygon fill="white" stroke="black" points="55,-168.5 55,-187.5 100,-187.5 100,-168.5 55,-168.5"/>
<text text-anchor="middle" x="77.5" y="-175.5" font-family="Helvetica,sans-Serif" font-size="10.00">Object</text>
</a>
</g>
</g>
<!-- Node3&#45;&gt;Node2 -->
<g id="edge3" class="edge">
<title>Node3&#45;&gt;Node2</title>
<path fill="none" stroke="midnightblue" d="M77.5,-157.8C77.5,-148.91 77.5,-138.78 77.5,-131.75"/>
<polygon fill="midnightblue" stroke="midnightblue" points="74,-158.08 77.5,-168.08 81,-158.08 74,-158.08"/>
</g>
</g>
</svg>
