<?xml version="1.0" encoding="UTF-8" standalone="no"?>
<!DOCTYPE svg PUBLIC "-//W3C//DTD SVG 1.1//EN"
 "http://www.w3.org/Graphics/SVG/1.1/DTD/svg11.dtd">
<!-- Generated by graphviz version 2.48.0 (20210717.1556)
 -->
<!-- Title: Clipboard Pages: 1 -->
<svg width="470pt" height="84pt"
 viewBox="0.00 0.00 469.50 84.00" xmlns="http://www.w3.org/2000/svg" xmlns:xlink="http://www.w3.org/1999/xlink">
<g id="graph0" class="graph" transform="scale(1 1) rotate(0) translate(4 80)">
<title>Clipboard</title>
<polygon fill="white" stroke="transparent" points="-4,4 -4,-80 465.5,-80 465.5,4 -4,4"/>
<!-- Node0 -->
<g id="node1" class="node">
<title>Node0</title>
<polygon fill="#bfbfbf" stroke="black" points="221,-56.5 221,-75.5 278,-75.5 278,-56.5 221,-56.5"/>
<text text-anchor="middle" x="249.5" y="-63.5" font-family="Helvetica,sans-Serif" font-size="10.00">Clipboard</text>
</g>
<!-- Node1 -->
<g id="node2" class="node">
<title>Node1</title>
<g id="a_node2"><a xlink:href="../../d7/db2/classnap_1_1sequenceguiclipboard_1_1_audio_segment_clipboard.html" target="_top" xlink:title="AudioSegmentClipboard">
<polygon fill="white" stroke="black" points="0,-0.5 0,-19.5 121,-19.5 121,-0.5 0,-0.5"/>
<text text-anchor="middle" x="60.5" y="-7.5" font-family="Helvetica,sans-Serif" font-size="10.00">AudioSegmentClipboard</text>
</a>
</g>
</g>
<!-- Node0&#45;&gt;Node1 -->
<g id="edge1" class="edge">
<title>Node0&#45;&gt;Node1</title>
<path fill="none" stroke="midnightblue" d="M210.75,-53.93C175.1,-43.74 122.96,-28.85 90.41,-19.55"/>
<polygon fill="midnightblue" stroke="midnightblue" points="210.22,-57.42 220.79,-56.8 212.14,-50.69 210.22,-57.42"/>
</g>
<!-- Node2 -->
<g id="node3" class="node">
<title>Node2</title>
<g id="a_node3"><a xlink:href="../../d2/dce/classnap_1_1sequenceguiclipboard_1_1_curve_segment_clipboard.html" target="_top" xlink:title="CurveSegmentClipboard">
<polygon fill="white" stroke="black" points="139.5,-0.5 139.5,-19.5 259.5,-19.5 259.5,-0.5 139.5,-0.5"/>
<text text-anchor="middle" x="199.5" y="-7.5" font-family="Helvetica,sans-Serif" font-size="10.00">CurveSegmentClipboard</text>
</a>
</g>
</g>
<!-- Node0&#45;&gt;Node2 -->
<g id="edge2" class="edge">
<title>Node0&#45;&gt;Node2</title>
<path fill="none" stroke="midnightblue" d="M234.42,-48.72C225.61,-39.2 214.83,-27.56 207.6,-19.75"/>
<polygon fill="midnightblue" stroke="midnightblue" points="231.88,-51.12 241.24,-56.08 237.02,-46.37 231.88,-51.12"/>
</g>
<!-- Node3 -->
<g id="node4" class="node">
<title>Node3</title>
<g id="a_node4"><a xlink:href="../../d3/da1/classnap_1_1sequenceguiclipboard_1_1_empty.html" target="_top" xlink:title="Empty">
<polygon fill="white" stroke="black" points="278,-0.5 278,-19.5 323,-19.5 323,-0.5 278,-0.5"/>
<text text-anchor="middle" x="300.5" y="-7.5" font-family="Helvetica,sans-Serif" font-size="10.00">Empty</text>
</a>
</g>
</g>
<!-- Node0&#45;&gt;Node3 -->
<g id="edge3" class="edge">
<title>Node0&#45;&gt;Node3</title>
<path fill="none" stroke="midnightblue" d="M264.88,-48.72C273.87,-39.2 284.86,-27.56 292.24,-19.75"/>
<polygon fill="midnightblue" stroke="midnightblue" points="262.24,-46.41 257.92,-56.08 267.33,-51.22 262.24,-46.41"/>
</g>
<!-- Node4 -->
<g id="node5" class="node">
<title>Node4</title>
<g id="a_node5"><a xlink:href="../../df/d3e/classnap_1_1sequenceguiclipboard_1_1_event_segment_clipboard.html" target="_top" xlink:title="EventSegmentClipboard">
<polygon fill="white" stroke="black" points="341.5,-0.5 341.5,-19.5 461.5,-19.5 461.5,-0.5 341.5,-0.5"/>
<text text-anchor="middle" x="401.5" y="-7.5" font-family="Helvetica,sans-Serif" font-size="10.00">EventSegmentClipboard</text>
</a>
</g>
</g>
<!-- Node0&#45;&gt;Node4 -->
<g id="edge4" class="edge">
<title>Node0&#45;&gt;Node4</title>
<path fill="none" stroke="midnightblue" d="M283.17,-53.04C311.77,-42.88 352.11,-28.55 377.53,-19.52"/>
<polygon fill="midnightblue" stroke="midnightblue" points="281.84,-49.8 273.58,-56.44 284.18,-56.39 281.84,-49.8"/>
</g>
</g>
</svg>
