<?xml version="1.0" encoding="UTF-8" standalone="no"?>
<!DOCTYPE svg PUBLIC "-//W3C//DTD SVG 1.1//EN"
 "http://www.w3.org/Graphics/SVG/1.1/DTD/svg11.dtd">
<!-- Generated by graphviz version 2.43.0 (0)
 -->
<!-- Title: Clipboard Pages: 1 -->
<svg width="514pt" height="84pt"
 viewBox="0.00 0.00 514.00 84.00" xmlns="http://www.w3.org/2000/svg" xmlns:xlink="http://www.w3.org/1999/xlink">
<g id="graph0" class="graph" transform="scale(1 1) rotate(0) translate(4 80)">
<title>Clipboard</title>
<polygon fill="white" stroke="transparent" points="-4,4 -4,-80 510,-80 510,4 -4,4"/>
<!-- Node1 -->
<g id="node1" class="node">
<title>Node1</title>
<g id="a_node1"><a xlink:title=" ">
<polygon fill="#bfbfbf" stroke="black" points="243.5,-56.5 243.5,-75.5 306.5,-75.5 306.5,-56.5 243.5,-56.5"/>
<text text-anchor="middle" x="275" y="-63.5" font-family="Helvetica,sans-Serif" font-size="10.00">Clipboard</text>
</a>
</g>
</g>
<!-- Node2 -->
<g id="node2" class="node">
<title>Node2</title>
<g id="a_node2"><a xlink:href="../../d7/db2/classnap_1_1sequenceguiclipboard_1_1_audio_segment_clipboard.html" target="_top" xlink:title=" ">
<polygon fill="white" stroke="black" points="0,-0.5 0,-19.5 134,-19.5 134,-0.5 0,-0.5"/>
<text text-anchor="middle" x="67" y="-7.5" font-family="Helvetica,sans-Serif" font-size="10.00">AudioSegmentClipboard</text>
</a>
</g>
</g>
<!-- Node1&#45;&gt;Node2 -->
<g id="edge1" class="edge">
<title>Node1&#45;&gt;Node2</title>
<path fill="none" stroke="midnightblue" d="M233.61,-54.26C194.35,-44.06 136.12,-28.94 99.92,-19.55"/>
<polygon fill="midnightblue" stroke="midnightblue" points="232.85,-57.67 243.41,-56.8 234.61,-50.9 232.85,-57.67"/>
</g>
<!-- Node3 -->
<g id="node3" class="node">
<title>Node3</title>
<g id="a_node3"><a xlink:href="../../d2/dce/classnap_1_1sequenceguiclipboard_1_1_curve_segment_clipboard.html" target="_top" xlink:title=" ">
<polygon fill="white" stroke="black" points="152.5,-0.5 152.5,-19.5 287.5,-19.5 287.5,-0.5 152.5,-0.5"/>
<text text-anchor="middle" x="220" y="-7.5" font-family="Helvetica,sans-Serif" font-size="10.00">CurveSegmentClipboard</text>
</a>
</g>
</g>
<!-- Node1&#45;&gt;Node3 -->
<g id="edge2" class="edge">
<title>Node1&#45;&gt;Node3</title>
<path fill="none" stroke="midnightblue" d="M258.71,-49C248.96,-39.43 236.95,-27.64 228.91,-19.75"/>
<polygon fill="midnightblue" stroke="midnightblue" points="256.33,-51.57 265.92,-56.08 261.23,-46.58 256.33,-51.57"/>
</g>
<!-- Node4 -->
<g id="node4" class="node">
<title>Node4</title>
<g id="a_node4"><a xlink:href="../../d3/da1/classnap_1_1sequenceguiclipboard_1_1_empty.html" target="_top" xlink:title=" ">
<polygon fill="white" stroke="black" points="306,-0.5 306,-19.5 354,-19.5 354,-0.5 306,-0.5"/>
<text text-anchor="middle" x="330" y="-7.5" font-family="Helvetica,sans-Serif" font-size="10.00">Empty</text>
</a>
</g>
</g>
<!-- Node1&#45;&gt;Node4 -->
<g id="edge3" class="edge">
<title>Node1&#45;&gt;Node4</title>
<path fill="none" stroke="midnightblue" d="M291.29,-49C301.04,-39.43 313.05,-27.64 321.09,-19.75"/>
<polygon fill="midnightblue" stroke="midnightblue" points="288.77,-46.58 284.08,-56.08 293.67,-51.57 288.77,-46.58"/>
</g>
<!-- Node5 -->
<g id="node5" class="node">
<title>Node5</title>
<g id="a_node5"><a xlink:href="../../df/d3e/classnap_1_1sequenceguiclipboard_1_1_event_segment_clipboard.html" target="_top" xlink:title=" ">
<polygon fill="white" stroke="black" points="372,-0.5 372,-19.5 506,-19.5 506,-0.5 372,-0.5"/>
<text text-anchor="middle" x="439" y="-7.5" font-family="Helvetica,sans-Serif" font-size="10.00">EventSegmentClipboard</text>
</a>
</g>
</g>
<!-- Node1&#45;&gt;Node5 -->
<g id="edge4" class="edge">
<title>Node1&#45;&gt;Node5</title>
<path fill="none" stroke="midnightblue" d="M310.52,-53.3C341.42,-43.13 385.47,-28.62 413.14,-19.52"/>
<polygon fill="midnightblue" stroke="midnightblue" points="309.39,-49.99 300.99,-56.44 311.58,-56.64 309.39,-49.99"/>
</g>
</g>
</svg>
