<?xml version="1.0" encoding="UTF-8" standalone="no"?>
<!DOCTYPE svg PUBLIC "-//W3C//DTD SVG 1.1//EN"
 "http://www.w3.org/Graphics/SVG/1.1/DTD/svg11.dtd">
<!-- Generated by graphviz version 3.0.0 (20220226.1711)
 -->
<!-- Title: WeeklyCalendarItem Pages: 1 -->
<svg width="149pt" height="230pt"
 viewBox="0.00 0.00 149.00 230.00" xmlns="http://www.w3.org/2000/svg" xmlns:xlink="http://www.w3.org/1999/xlink">
<g id="graph0" class="graph" transform="scale(1 1) rotate(0) translate(4 226)">
<title>WeeklyCalendarItem</title>
<polygon fill="white" stroke="transparent" points="-4,4 -4,-226 145,-226 145,4 -4,4"/>
<!-- Node4 -->
<g id="node1" class="node">
<title>Node4</title>
<polygon fill="#bfbfbf" stroke="black" points="8.5,-0.5 8.5,-19.5 115.5,-19.5 115.5,-0.5 8.5,-0.5"/>
<text text-anchor="middle" x="62" y="-7.5" font-family="Helvetica,sans-Serif" font-size="10.00">WeeklyCalendarItem</text>
</g>
<!-- Node5 -->
<g id="node2" class="node">
<title>Node5</title>
<g id="a_node2"><a xlink:href="../../df/d37/classnap_1_1_calendar_item.html" target="_top" xlink:title="CalendarItem">
<polygon fill="white" stroke="black" points="25,-57.5 25,-76.5 99,-76.5 99,-57.5 25,-57.5"/>
<text text-anchor="middle" x="62" y="-64.5" font-family="Helvetica,sans-Serif" font-size="10.00">CalendarItem</text>
</a>
</g>
</g>
<!-- Node5&#45;&gt;Node4 -->
<g id="edge1" class="edge">
<title>Node5&#45;&gt;Node4</title>
<path fill="none" stroke="midnightblue" d="M62,-47.12C62,-37.82 62,-27.06 62,-19.71"/>
<polygon fill="midnightblue" stroke="midnightblue" points="58.5,-47.41 62,-57.41 65.5,-47.41 58.5,-47.41"/>
</g>
<!-- Node6 -->
<g id="node3" class="node">
<title>Node6</title>
<g id="a_node3"><a xlink:href="../../d9/dea/classnap_1_1_resource.html" target="_top" xlink:title="Resource">
<polygon fill="white" stroke="black" points="0,-124.5 0,-143.5 58,-143.5 58,-124.5 0,-124.5"/>
<text text-anchor="middle" x="29" y="-131.5" font-family="Helvetica,sans-Serif" font-size="10.00">Resource</text>
</a>
</g>
</g>
<!-- Node6&#45;&gt;Node5 -->
<g id="edge2" class="edge">
<title>Node6&#45;&gt;Node5</title>
<path fill="none" stroke="midnightblue" d="M38.06,-115.16C44.42,-102.63 52.65,-86.41 57.62,-76.63"/>
<polygon fill="midnightblue" stroke="midnightblue" points="34.86,-113.73 33.45,-124.23 41.1,-116.9 34.86,-113.73"/>
</g>
<!-- Node7 -->
<g id="node4" class="node">
<title>Node7</title>
<g id="a_node4"><a xlink:href="../../de/d01/classnap_1_1rtti_1_1_object.html" target="_top" xlink:title="Object">
<polygon fill="white" stroke="black" points="6.5,-202.5 6.5,-221.5 51.5,-221.5 51.5,-202.5 6.5,-202.5"/>
<text text-anchor="middle" x="29" y="-209.5" font-family="Helvetica,sans-Serif" font-size="10.00">Object</text>
</a>
</g>
</g>
<!-- Node7&#45;&gt;Node6 -->
<g id="edge3" class="edge">
<title>Node7&#45;&gt;Node6</title>
<path fill="none" stroke="midnightblue" d="M29,-192.22C29,-176.7 29,-155.36 29,-143.62"/>
<polygon fill="midnightblue" stroke="midnightblue" points="25.5,-192.28 29,-202.28 32.5,-192.28 25.5,-192.28"/>
</g>
<!-- Node8 -->
<g id="node5" class="node">
<title>Node8</title>
<g id="a_node5"><a xlink:href="../../d1/d8d/structnap_1_1_calendar_item_1_1_point.html" target="_top" xlink:title="Point">
<polygon fill="white" stroke="black" points="76.5,-124.5 76.5,-143.5 115.5,-143.5 115.5,-124.5 76.5,-124.5"/>
<text text-anchor="middle" x="96" y="-131.5" font-family="Helvetica,sans-Serif" font-size="10.00">Point</text>
</a>
</g>
</g>
<!-- Node8&#45;&gt;Node5 -->
<g id="edge4" class="edge">
<title>Node8&#45;&gt;Node5</title>
<path fill="none" stroke="#9a32cd" stroke-dasharray="5,2" d="M86.67,-115.16C80.11,-102.63 71.63,-86.41 66.51,-76.63"/>
<polygon fill="#9a32cd" stroke="#9a32cd" points="83.68,-117 91.41,-124.23 89.88,-113.75 83.68,-117"/>
<text text-anchor="middle" x="99" y="-98" font-family="Helvetica,sans-Serif" font-size="10.00"> mPoint</text>
</g>
<!-- Node9 -->
<g id="node6" class="node">
<title>Node9</title>
<g id="a_node6"><a xlink:href="../../d4/db2/structnap_1_1_calendar_item_1_1_time.html" target="_top" xlink:title="Time">
<polygon fill="white" stroke="black" points="77,-202.5 77,-221.5 115,-221.5 115,-202.5 77,-202.5"/>
<text text-anchor="middle" x="96" y="-209.5" font-family="Helvetica,sans-Serif" font-size="10.00">Time</text>
</a>
</g>
</g>
<!-- Node9&#45;&gt;Node8 -->
<g id="edge5" class="edge">
<title>Node9&#45;&gt;Node8</title>
<path fill="none" stroke="#9a32cd" stroke-dasharray="5,2" d="M96,-192.22C96,-176.7 96,-155.36 96,-143.62"/>
<polygon fill="#9a32cd" stroke="#9a32cd" points="92.5,-192.28 96,-202.28 99.5,-192.28 92.5,-192.28"/>
<text text-anchor="middle" x="118.5" y="-176" font-family="Helvetica,sans-Serif" font-size="10.00"> mTime</text>
<text text-anchor="middle" x="118.5" y="-165" font-family="Helvetica,sans-Serif" font-size="10.00">mDuration</text>
</g>
</g>
</svg>
