<?xml version="1.0" encoding="UTF-8" standalone="no"?>
<!DOCTYPE svg PUBLIC "-//W3C//DTD SVG 1.1//EN"
 "http://www.w3.org/Graphics/SVG/1.1/DTD/svg11.dtd">
<!-- Generated by graphviz version 3.0.0 (20220226.1711)
 -->
<!-- Title: Texture2D Pages: 1 -->
<svg width="181pt" height="252pt"
 viewBox="0.00 0.00 180.50 252.00" xmlns="http://www.w3.org/2000/svg" xmlns:xlink="http://www.w3.org/1999/xlink">
<g id="graph0" class="graph" transform="scale(1 1) rotate(0) translate(4 248)">
<title>Texture2D</title>
<polygon fill="white" stroke="transparent" points="-4,4 -4,-248 176.5,-248 176.5,4 -4,4"/>
<!-- Node0 -->
<g id="node1" class="node">
<title>Node0</title>
<polygon fill="#bfbfbf" stroke="black" points="53,-112.5 53,-131.5 114,-131.5 114,-112.5 53,-112.5"/>
<text text-anchor="middle" x="83.5" y="-119.5" font-family="Helvetica,sans-Serif" font-size="10.00">Texture2D</text>
</g>
<!-- Node3 -->
<g id="node4" class="node">
<title>Node3</title>
<g id="a_node4"><a xlink:href="../../dd/d82/classnap_1_1_image.html" target="_top" xlink:title="Image">
<polygon fill="white" stroke="black" points="19,-56.5 19,-75.5 62,-75.5 62,-56.5 19,-56.5"/>
<text text-anchor="middle" x="40.5" y="-63.5" font-family="Helvetica,sans-Serif" font-size="10.00">Image</text>
</a>
</g>
</g>
<!-- Node0&#45;&gt;Node3 -->
<g id="edge3" class="edge">
<title>Node0&#45;&gt;Node3</title>
<path fill="none" stroke="midnightblue" d="M70.08,-104.14C62.59,-94.74 53.56,-83.4 47.47,-75.75"/>
<polygon fill="midnightblue" stroke="midnightblue" points="67.43,-106.44 76.4,-112.08 72.91,-102.08 67.43,-106.44"/>
</g>
<!-- Node5 -->
<g id="node6" class="node">
<title>Node5</title>
<g id="a_node6"><a xlink:href="../../d6/d5e/classnap_1_1_render_texture2_d.html" target="_top" xlink:title="RenderTexture2D">
<polygon fill="white" stroke="black" points="80.5,-56.5 80.5,-75.5 172.5,-75.5 172.5,-56.5 80.5,-56.5"/>
<text text-anchor="middle" x="126.5" y="-63.5" font-family="Helvetica,sans-Serif" font-size="10.00">RenderTexture2D</text>
</a>
</g>
</g>
<!-- Node0&#45;&gt;Node5 -->
<g id="edge5" class="edge">
<title>Node0&#45;&gt;Node5</title>
<path fill="none" stroke="midnightblue" d="M96.92,-104.14C104.41,-94.74 113.44,-83.4 119.53,-75.75"/>
<polygon fill="midnightblue" stroke="midnightblue" points="94.09,-102.08 90.6,-112.08 99.57,-106.44 94.09,-102.08"/>
</g>
<!-- Node1 -->
<g id="node2" class="node">
<title>Node1</title>
<g id="a_node2"><a xlink:href="../../d9/dea/classnap_1_1_resource.html" target="_top" xlink:title="Resource">
<polygon fill="white" stroke="black" points="54.5,-168.5 54.5,-187.5 112.5,-187.5 112.5,-168.5 54.5,-168.5"/>
<text text-anchor="middle" x="83.5" y="-175.5" font-family="Helvetica,sans-Serif" font-size="10.00">Resource</text>
</a>
</g>
</g>
<!-- Node1&#45;&gt;Node0 -->
<g id="edge1" class="edge">
<title>Node1&#45;&gt;Node0</title>
<path fill="none" stroke="midnightblue" d="M83.5,-157.8C83.5,-148.91 83.5,-138.78 83.5,-131.75"/>
<polygon fill="midnightblue" stroke="midnightblue" points="80,-158.08 83.5,-168.08 87,-158.08 80,-158.08"/>
</g>
<!-- Node2 -->
<g id="node3" class="node">
<title>Node2</title>
<g id="a_node3"><a xlink:href="../../de/d01/classnap_1_1rtti_1_1_object.html" target="_top" xlink:title="Object">
<polygon fill="white" stroke="black" points="61,-224.5 61,-243.5 106,-243.5 106,-224.5 61,-224.5"/>
<text text-anchor="middle" x="83.5" y="-231.5" font-family="Helvetica,sans-Serif" font-size="10.00">Object</text>
</a>
</g>
</g>
<!-- Node2&#45;&gt;Node1 -->
<g id="edge2" class="edge">
<title>Node2&#45;&gt;Node1</title>
<path fill="none" stroke="midnightblue" d="M83.5,-213.8C83.5,-204.91 83.5,-194.78 83.5,-187.75"/>
<polygon fill="midnightblue" stroke="midnightblue" points="80,-214.08 83.5,-224.08 87,-214.08 80,-214.08"/>
</g>
<!-- Node4 -->
<g id="node5" class="node">
<title>Node4</title>
<g id="a_node5"><a xlink:href="../../d3/d21/classnap_1_1_image_from_file.html" target="_top" xlink:title="ImageFromFile">
<polygon fill="white" stroke="black" points="0,-0.5 0,-19.5 81,-19.5 81,-0.5 0,-0.5"/>
<text text-anchor="middle" x="40.5" y="-7.5" font-family="Helvetica,sans-Serif" font-size="10.00">ImageFromFile</text>
</a>
</g>
</g>
<!-- Node3&#45;&gt;Node4 -->
<g id="edge4" class="edge">
<title>Node3&#45;&gt;Node4</title>
<path fill="none" stroke="midnightblue" d="M40.5,-45.8C40.5,-36.91 40.5,-26.78 40.5,-19.75"/>
<polygon fill="midnightblue" stroke="midnightblue" points="37,-46.08 40.5,-56.08 44,-46.08 37,-46.08"/>
</g>
</g>
</svg>
