<?xml version="1.0" encoding="UTF-8" standalone="no"?>
<!DOCTYPE svg PUBLIC "-//W3C//DTD SVG 1.1//EN"
 "http://www.w3.org/Graphics/SVG/1.1/DTD/svg11.dtd">
<!-- Generated by graphviz version 2.43.0 (0)
 -->
<!-- Title: ControlNode Pages: 1 -->
<svg width="285pt" height="163pt"
 viewBox="0.00 0.00 284.50 163.00" xmlns="http://www.w3.org/2000/svg" xmlns:xlink="http://www.w3.org/1999/xlink">
<g id="graph0" class="graph" transform="scale(1 1) rotate(0) translate(4 159)">
<title>ControlNode</title>
<polygon fill="white" stroke="transparent" points="-4,4 -4,-159 280.5,-159 280.5,4 -4,4"/>
<!-- Node1 -->
<g id="node1" class="node">
<title>Node1</title>
<g id="a_node1"><a xlink:title=" ">
<polygon fill="#bfbfbf" stroke="black" points="82.5,-0.5 82.5,-19.5 159.5,-19.5 159.5,-0.5 82.5,-0.5"/>
<text text-anchor="middle" x="121" y="-7.5" font-family="Helvetica,sans-Serif" font-size="10.00">ControlNode</text>
</a>
</g>
</g>
<!-- Node2 -->
<g id="node2" class="node">
<title>Node2</title>
<g id="a_node2"><a xlink:href="../../dc/d0d/classnap_1_1audio_1_1_node.html" target="_top" xlink:title=" ">
<polygon fill="white" stroke="black" points="6,-73 6,-92 48,-92 48,-73 6,-73"/>
<text text-anchor="middle" x="27" y="-80" font-family="Helvetica,sans-Serif" font-size="10.00">Node</text>
</a>
</g>
</g>
<!-- Node2&#45;&gt;Node1 -->
<g id="edge1" class="edge">
<title>Node2&#45;&gt;Node1</title>
<path fill="none" stroke="midnightblue" d="M46.78,-66.67C65.75,-52.44 93.75,-31.43 109.38,-19.72"/>
<polygon fill="midnightblue" stroke="midnightblue" points="44.43,-64.06 38.53,-72.86 48.63,-69.66 44.43,-64.06"/>
</g>
<!-- Node3 -->
<g id="node3" class="node">
<title>Node3</title>
<g id="a_node3"><a xlink:href="../../d4/d2d/classnap_1_1audio_1_1_process.html" target="_top" xlink:title=" ">
<polygon fill="white" stroke="black" points="0,-135.5 0,-154.5 54,-154.5 54,-135.5 0,-135.5"/>
<text text-anchor="middle" x="27" y="-142.5" font-family="Helvetica,sans-Serif" font-size="10.00">Process</text>
</a>
</g>
</g>
<!-- Node3&#45;&gt;Node2 -->
<g id="edge2" class="edge">
<title>Node3&#45;&gt;Node2</title>
<path fill="none" stroke="midnightblue" d="M27,-125C27,-114 27,-100.68 27,-92.15"/>
<polygon fill="midnightblue" stroke="midnightblue" points="23.5,-125.33 27,-135.33 30.5,-125.33 23.5,-125.33"/>
</g>
<!-- Node4 -->
<g id="node4" class="node">
<title>Node4</title>
<g id="a_node4"><a xlink:href="../../de/d80/classnap_1_1_signal.html" target="_top" xlink:title=" ">
<polygon fill="white" stroke="black" points="66.5,-67.5 66.5,-97.5 175.5,-97.5 175.5,-67.5 66.5,-67.5"/>
<text text-anchor="start" x="74.5" y="-85.5" font-family="Helvetica,sans-Serif" font-size="10.00">Signal&lt; nap::audio</text>
<text text-anchor="middle" x="121" y="-74.5" font-family="Helvetica,sans-Serif" font-size="10.00">::ControlNode &amp; &gt;</text>
</a>
</g>
</g>
<!-- Node4&#45;&gt;Node1 -->
<g id="edge3" class="edge">
<title>Node4&#45;&gt;Node1</title>
<path fill="none" stroke="#9a32cd" stroke-dasharray="5,2" d="M121,-57.09C121,-44.21 121,-29.2 121,-19.89"/>
<polygon fill="#9a32cd" stroke="#9a32cd" points="117.5,-57.23 121,-67.23 124.5,-57.23 117.5,-57.23"/>
<text text-anchor="middle" x="171" y="-41" font-family="Helvetica,sans-Serif" font-size="10.00"> rampFinishedSignal</text>
</g>
<!-- Node5 -->
<g id="node5" class="node">
<title>Node5</title>
<g id="a_node5"><a xlink:href="../../dc/d5a/classnap_1_1audio_1_1_output_pin.html" target="_top" xlink:title=" ">
<polygon fill="white" stroke="black" points="211.5,-73 211.5,-92 276.5,-92 276.5,-73 211.5,-73"/>
<text text-anchor="middle" x="244" y="-80" font-family="Helvetica,sans-Serif" font-size="10.00">OutputPin</text>
</a>
</g>
</g>
<!-- Node5&#45;&gt;Node1 -->
<g id="edge4" class="edge">
<title>Node5&#45;&gt;Node1</title>
<path fill="none" stroke="#9a32cd" stroke-dasharray="5,2" d="M238.71,-63.3C235.28,-54.48 229.93,-44.44 222,-38 204.53,-23.81 180.28,-17.04 159.93,-13.82"/>
<polygon fill="#9a32cd" stroke="#9a32cd" points="235.4,-64.43 241.9,-72.79 242.03,-62.2 235.4,-64.43"/>
<text text-anchor="middle" x="248.5" y="-41" font-family="Helvetica,sans-Serif" font-size="10.00"> output</text>
</g>
</g>
</svg>
