<?xml version="1.0" encoding="UTF-8" standalone="no"?>
<!DOCTYPE svg PUBLIC "-//W3C//DTD SVG 1.1//EN"
 "http://www.w3.org/Graphics/SVG/1.1/DTD/svg11.dtd">
<!-- Generated by graphviz version 2.48.0 (20210717.1556)
 -->
<!-- Title: ControlNode Pages: 1 -->
<svg width="249pt" height="163pt"
 viewBox="0.00 0.00 248.50 163.00" xmlns="http://www.w3.org/2000/svg" xmlns:xlink="http://www.w3.org/1999/xlink">
<g id="graph0" class="graph" transform="scale(1 1) rotate(0) translate(4 159)">
<title>ControlNode</title>
<polygon fill="white" stroke="transparent" points="-4,4 -4,-159 244.5,-159 244.5,4 -4,4"/>
<!-- Node3 -->
<g id="node1" class="node">
<title>Node3</title>
<polygon fill="#bfbfbf" stroke="black" points="59.5,-0.5 59.5,-19.5 129.5,-19.5 129.5,-0.5 59.5,-0.5"/>
<text text-anchor="middle" x="94.5" y="-7.5" font-family="Helvetica,sans-Serif" font-size="10.00">ControlNode</text>
</g>
<!-- Node4 -->
<g id="node2" class="node">
<title>Node4</title>
<g id="a_node2"><a xlink:href="../../dc/d0d/classnap_1_1audio_1_1_node.html" target="_top" xlink:title="Node">
<polygon fill="white" stroke="black" points="7,-73 7,-92 46,-92 46,-73 7,-73"/>
<text text-anchor="middle" x="26.5" y="-80" font-family="Helvetica,sans-Serif" font-size="10.00">Node</text>
</a>
</g>
</g>
<!-- Node4&#45;&gt;Node3 -->
<g id="edge1" class="edge">
<title>Node4&#45;&gt;Node3</title>
<path fill="none" stroke="midnightblue" d="M42.13,-65.3C55.81,-51.12 75.15,-31.06 86.09,-19.72"/>
<polygon fill="midnightblue" stroke="midnightblue" points="39.26,-63.23 34.84,-72.86 44.3,-68.09 39.26,-63.23"/>
</g>
<!-- Node5 -->
<g id="node3" class="node">
<title>Node5</title>
<g id="a_node3"><a xlink:href="../../d4/d2d/classnap_1_1audio_1_1_process.html" target="_top" xlink:title="Process">
<polygon fill="white" stroke="black" points="0,-135.5 0,-154.5 53,-154.5 53,-135.5 0,-135.5"/>
<text text-anchor="middle" x="26.5" y="-142.5" font-family="Helvetica,sans-Serif" font-size="10.00">Process</text>
</a>
</g>
</g>
<!-- Node5&#45;&gt;Node4 -->
<g id="edge2" class="edge">
<title>Node5&#45;&gt;Node4</title>
<path fill="none" stroke="midnightblue" d="M26.5,-125C26.5,-114 26.5,-100.68 26.5,-92.15"/>
<polygon fill="midnightblue" stroke="midnightblue" points="23,-125.33 26.5,-135.33 30,-125.33 23,-125.33"/>
</g>
<!-- Node6 -->
<g id="node4" class="node">
<title>Node6</title>
<g id="a_node4"><a xlink:href="../../dc/d5a/classnap_1_1audio_1_1_output_pin.html" target="_top" xlink:title="OutputPin">
<polygon fill="white" stroke="black" points="64.5,-73 64.5,-92 124.5,-92 124.5,-73 64.5,-73"/>
<text text-anchor="middle" x="94.5" y="-80" font-family="Helvetica,sans-Serif" font-size="10.00">OutputPin</text>
</a>
</g>
</g>
<!-- Node6&#45;&gt;Node3 -->
<g id="edge3" class="edge">
<title>Node6&#45;&gt;Node3</title>
<path fill="none" stroke="#9a32cd" stroke-dasharray="5,2" d="M94.5,-62.44C94.5,-48.53 94.5,-30.32 94.5,-19.72"/>
<polygon fill="#9a32cd" stroke="#9a32cd" points="91,-62.86 94.5,-72.86 98,-62.86 91,-62.86"/>
<text text-anchor="middle" x="110" y="-41" font-family="Helvetica,sans-Serif" font-size="10.00"> output</text>
</g>
<!-- Node7 -->
<g id="node5" class="node">
<title>Node7</title>
<g id="a_node5"><a xlink:href="../../de/d80/classnap_1_1_signal.html" target="_top" xlink:title="Signal\&lt; nap::audio\l::ControlNode &amp;\&gt;">
<polygon fill="white" stroke="black" points="142.5,-67.5 142.5,-97.5 240.5,-97.5 240.5,-67.5 142.5,-67.5"/>
<text text-anchor="start" x="150.5" y="-85.5" font-family="Helvetica,sans-Serif" font-size="10.00">Signal&lt; nap::audio</text>
<text text-anchor="middle" x="191.5" y="-74.5" font-family="Helvetica,sans-Serif" font-size="10.00">::ControlNode &amp;&gt;</text>
</a>
</g>
</g>
<!-- Node7&#45;&gt;Node3 -->
<g id="edge4" class="edge">
<title>Node7&#45;&gt;Node3</title>
<path fill="none" stroke="#9a32cd" stroke-dasharray="5,2" d="M163.59,-61.22C144.67,-47.47 120.62,-29.98 106.46,-19.69"/>
<polygon fill="#9a32cd" stroke="#9a32cd" points="161.72,-64.19 171.87,-67.23 165.84,-58.52 161.72,-64.19"/>
<text text-anchor="middle" x="190" y="-41" font-family="Helvetica,sans-Serif" font-size="10.00"> rampFinishedSignal</text>
</g>
</g>
</svg>
