<?xml version="1.0" encoding="UTF-8" standalone="no"?>
<!DOCTYPE svg PUBLIC "-//W3C//DTD SVG 1.1//EN"
 "http://www.w3.org/Graphics/SVG/1.1/DTD/svg11.dtd">
<!-- Generated by graphviz version 2.48.0 (20210717.1556)
 -->
<!-- Title: PointerEvent Pages: 1 -->
<svg width="276pt" height="308pt"
 viewBox="0.00 0.00 275.50 308.00" xmlns="http://www.w3.org/2000/svg" xmlns:xlink="http://www.w3.org/1999/xlink">
<g id="graph0" class="graph" transform="scale(1 1) rotate(0) translate(4 304)">
<title>PointerEvent</title>
<polygon fill="white" stroke="transparent" points="-4,4 -4,-304 271.5,-304 271.5,4 -4,4"/>
<!-- Node0 -->
<g id="node1" class="node">
<title>Node0</title>
<polygon fill="#bfbfbf" stroke="black" points="129,-112.5 129,-131.5 200,-131.5 200,-112.5 129,-112.5"/>
<text text-anchor="middle" x="164.5" y="-119.5" font-family="Helvetica,sans-Serif" font-size="10.00">PointerEvent</text>
</g>
<!-- Node4 -->
<g id="node5" class="node">
<title>Node4</title>
<g id="a_node5"><a xlink:href="../../dd/d3f/classnap_1_1_pointer_click_event.html" target="_top" xlink:title="PointerClickEvent">
<polygon fill="white" stroke="black" points="62,-56.5 62,-75.5 155,-75.5 155,-56.5 62,-56.5"/>
<text text-anchor="middle" x="108.5" y="-63.5" font-family="Helvetica,sans-Serif" font-size="10.00">PointerClickEvent</text>
</a>
</g>
</g>
<!-- Node0&#45;&gt;Node4 -->
<g id="edge4" class="edge">
<title>Node0&#45;&gt;Node4</title>
<path fill="none" stroke="midnightblue" d="M148.17,-105.25C138.24,-95.67 125.91,-83.79 117.66,-75.83"/>
<polygon fill="midnightblue" stroke="midnightblue" points="145.87,-107.9 155.5,-112.32 150.73,-102.86 145.87,-107.9"/>
</g>
<!-- Node7 -->
<g id="node8" class="node">
<title>Node7</title>
<g id="a_node8"><a xlink:href="../../d0/d87/classnap_1_1_pointer_move_event.html" target="_top" xlink:title="PointerMoveEvent">
<polygon fill="white" stroke="black" points="173.5,-56.5 173.5,-75.5 267.5,-75.5 267.5,-56.5 173.5,-56.5"/>
<text text-anchor="middle" x="220.5" y="-63.5" font-family="Helvetica,sans-Serif" font-size="10.00">PointerMoveEvent</text>
</a>
</g>
</g>
<!-- Node0&#45;&gt;Node7 -->
<g id="edge7" class="edge">
<title>Node0&#45;&gt;Node7</title>
<path fill="none" stroke="midnightblue" d="M180.83,-105.25C190.76,-95.67 203.09,-83.79 211.34,-75.83"/>
<polygon fill="midnightblue" stroke="midnightblue" points="178.27,-102.86 173.5,-112.32 183.13,-107.9 178.27,-102.86"/>
</g>
<!-- Node1 -->
<g id="node2" class="node">
<title>Node1</title>
<g id="a_node2"><a xlink:href="../../d6/d58/classnap_1_1_window_input_event.html" target="_top" xlink:title="WindowInputEvent">
<polygon fill="white" stroke="black" points="116.5,-168.5 116.5,-187.5 212.5,-187.5 212.5,-168.5 116.5,-168.5"/>
<text text-anchor="middle" x="164.5" y="-175.5" font-family="Helvetica,sans-Serif" font-size="10.00">WindowInputEvent</text>
</a>
</g>
</g>
<!-- Node1&#45;&gt;Node0 -->
<g id="edge1" class="edge">
<title>Node1&#45;&gt;Node0</title>
<path fill="none" stroke="midnightblue" d="M164.5,-157.8C164.5,-148.91 164.5,-138.78 164.5,-131.75"/>
<polygon fill="midnightblue" stroke="midnightblue" points="161,-158.08 164.5,-168.08 168,-158.08 161,-158.08"/>
</g>
<!-- Node2 -->
<g id="node3" class="node">
<title>Node2</title>
<g id="a_node3"><a xlink:href="../../dc/dc0/classnap_1_1_input_event.html" target="_top" xlink:title="InputEvent">
<polygon fill="white" stroke="black" points="133.5,-224.5 133.5,-243.5 195.5,-243.5 195.5,-224.5 133.5,-224.5"/>
<text text-anchor="middle" x="164.5" y="-231.5" font-family="Helvetica,sans-Serif" font-size="10.00">InputEvent</text>
</a>
</g>
</g>
<!-- Node2&#45;&gt;Node1 -->
<g id="edge2" class="edge">
<title>Node2&#45;&gt;Node1</title>
<path fill="none" stroke="midnightblue" d="M164.5,-213.8C164.5,-204.91 164.5,-194.78 164.5,-187.75"/>
<polygon fill="midnightblue" stroke="midnightblue" points="161,-214.08 164.5,-224.08 168,-214.08 161,-214.08"/>
</g>
<!-- Node3 -->
<g id="node4" class="node">
<title>Node3</title>
<g id="a_node4"><a xlink:href="../../d2/da2/classnap_1_1_event.html" target="_top" xlink:title="Event">
<polygon fill="white" stroke="black" points="144,-280.5 144,-299.5 185,-299.5 185,-280.5 144,-280.5"/>
<text text-anchor="middle" x="164.5" y="-287.5" font-family="Helvetica,sans-Serif" font-size="10.00">Event</text>
</a>
</g>
</g>
<!-- Node3&#45;&gt;Node2 -->
<g id="edge3" class="edge">
<title>Node3&#45;&gt;Node2</title>
<path fill="none" stroke="midnightblue" d="M164.5,-269.8C164.5,-260.91 164.5,-250.78 164.5,-243.75"/>
<polygon fill="midnightblue" stroke="midnightblue" points="161,-270.08 164.5,-280.08 168,-270.08 161,-270.08"/>
</g>
<!-- Node5 -->
<g id="node6" class="node">
<title>Node5</title>
<g id="a_node6"><a xlink:href="../../d5/dfd/classnap_1_1_pointer_press_event.html" target="_top" xlink:title="PointerPressEvent">
<polygon fill="white" stroke="black" points="0,-0.5 0,-19.5 97,-19.5 97,-0.5 0,-0.5"/>
<text text-anchor="middle" x="48.5" y="-7.5" font-family="Helvetica,sans-Serif" font-size="10.00">PointerPressEvent</text>
</a>
</g>
</g>
<!-- Node4&#45;&gt;Node5 -->
<g id="edge5" class="edge">
<title>Node4&#45;&gt;Node5</title>
<path fill="none" stroke="midnightblue" d="M91.32,-49.54C80.62,-39.91 67.24,-27.87 58.32,-19.83"/>
<polygon fill="midnightblue" stroke="midnightblue" points="89.09,-52.24 98.86,-56.32 93.77,-47.03 89.09,-52.24"/>
</g>
<!-- Node6 -->
<g id="node7" class="node">
<title>Node6</title>
<g id="a_node7"><a xlink:href="../../de/d98/classnap_1_1_pointer_release_event.html" target="_top" xlink:title="PointerReleaseEvent">
<polygon fill="white" stroke="black" points="115,-0.5 115,-19.5 222,-19.5 222,-0.5 115,-0.5"/>
<text text-anchor="middle" x="168.5" y="-7.5" font-family="Helvetica,sans-Serif" font-size="10.00">PointerReleaseEvent</text>
</a>
</g>
</g>
<!-- Node4&#45;&gt;Node6 -->
<g id="edge6" class="edge">
<title>Node4&#45;&gt;Node6</title>
<path fill="none" stroke="midnightblue" d="M125.68,-49.54C136.38,-39.91 149.76,-27.87 158.68,-19.83"/>
<polygon fill="midnightblue" stroke="midnightblue" points="123.23,-47.03 118.14,-56.32 127.91,-52.24 123.23,-47.03"/>
</g>
</g>
</svg>
