<?xml version="1.0" encoding="UTF-8" standalone="no"?>
<!DOCTYPE svg PUBLIC "-//W3C//DTD SVG 1.1//EN"
 "http://www.w3.org/Graphics/SVG/1.1/DTD/svg11.dtd">
<!-- Generated by graphviz version 2.48.0 (20210717.1556)
 -->
<!-- Title: ShapeTriangleIterator Pages: 1 -->
<svg width="422pt" height="84pt"
 viewBox="0.00 0.00 421.50 84.00" xmlns="http://www.w3.org/2000/svg" xmlns:xlink="http://www.w3.org/1999/xlink">
<g id="graph0" class="graph" transform="scale(1 1) rotate(0) translate(4 80)">
<title>ShapeTriangleIterator</title>
<polygon fill="white" stroke="transparent" points="-4,4 -4,-80 417.5,-80 417.5,4 -4,4"/>
<!-- Node0 -->
<g id="node1" class="node">
<title>Node0</title>
<polygon fill="#bfbfbf" stroke="black" points="151.5,-56.5 151.5,-75.5 259.5,-75.5 259.5,-56.5 151.5,-56.5"/>
<text text-anchor="middle" x="205.5" y="-63.5" font-family="Helvetica,sans-Serif" font-size="10.00">ShapeTriangleIterator</text>
</g>
<!-- Node1 -->
<g id="node2" class="node">
<title>Node1</title>
<g id="a_node2"><a xlink:href="../../d4/d23/classnap_1_1_shape_triangle_fan_iterator.html" target="_top" xlink:title="ShapeTriangleFanIterator">
<polygon fill="white" stroke="black" points="0,-0.5 0,-19.5 125,-19.5 125,-0.5 0,-0.5"/>
<text text-anchor="middle" x="62.5" y="-7.5" font-family="Helvetica,sans-Serif" font-size="10.00">ShapeTriangleFanIterator</text>
</a>
</g>
</g>
<!-- Node0&#45;&gt;Node1 -->
<g id="edge1" class="edge">
<title>Node0&#45;&gt;Node1</title>
<path fill="none" stroke="midnightblue" d="M173.47,-52.91C146.59,-42.75 108.86,-28.51 85.05,-19.52"/>
<polygon fill="midnightblue" stroke="midnightblue" points="172.25,-56.19 182.84,-56.44 174.72,-49.64 172.25,-56.19"/>
</g>
<!-- Node2 -->
<g id="node3" class="node">
<title>Node2</title>
<g id="a_node3"><a xlink:href="../../db/dc1/classnap_1_1_shape_triangle_list_iterator.html" target="_top" xlink:title="ShapeTriangleListIterator">
<polygon fill="white" stroke="black" points="143.5,-0.5 143.5,-19.5 267.5,-19.5 267.5,-0.5 143.5,-0.5"/>
<text text-anchor="middle" x="205.5" y="-7.5" font-family="Helvetica,sans-Serif" font-size="10.00">ShapeTriangleListIterator</text>
</a>
</g>
</g>
<!-- Node0&#45;&gt;Node2 -->
<g id="edge2" class="edge">
<title>Node0&#45;&gt;Node2</title>
<path fill="none" stroke="midnightblue" d="M205.5,-45.8C205.5,-36.91 205.5,-26.78 205.5,-19.75"/>
<polygon fill="midnightblue" stroke="midnightblue" points="202,-46.08 205.5,-56.08 209,-46.08 202,-46.08"/>
</g>
<!-- Node3 -->
<g id="node4" class="node">
<title>Node3</title>
<g id="a_node4"><a xlink:href="../../d5/d59/classnap_1_1_shape_triangle_strip_iterator.html" target="_top" xlink:title="ShapeTriangleStripIterator">
<polygon fill="white" stroke="black" points="285.5,-0.5 285.5,-19.5 413.5,-19.5 413.5,-0.5 285.5,-0.5"/>
<text text-anchor="middle" x="349.5" y="-7.5" font-family="Helvetica,sans-Serif" font-size="10.00">ShapeTriangleStripIterator</text>
</a>
</g>
</g>
<!-- Node0&#45;&gt;Node3 -->
<g id="edge3" class="edge">
<title>Node0&#45;&gt;Node3</title>
<path fill="none" stroke="midnightblue" d="M237.75,-52.91C264.82,-42.75 302.82,-28.51 326.79,-19.52"/>
<polygon fill="midnightblue" stroke="midnightblue" points="236.45,-49.66 228.32,-56.44 238.91,-56.21 236.45,-49.66"/>
</g>
</g>
</svg>
