<?xml version="1.0" encoding="UTF-8" standalone="no"?>
<!DOCTYPE svg PUBLIC "-//W3C//DTD SVG 1.1//EN"
 "http://www.w3.org/Graphics/SVG/1.1/DTD/svg11.dtd">
<!-- Generated by graphviz version 2.43.0 (0)
 -->
<!-- Title: Graphical Class Hierarchy Pages: 1 -->
<svg width="950pt" height="913pt"
 viewBox="0.00 0.00 950.00 913.00" xmlns="http://www.w3.org/2000/svg" xmlns:xlink="http://www.w3.org/1999/xlink">
<g id="graph0" class="graph" transform="scale(1 1) rotate(0) translate(4 909)">
<title>Graphical Class Hierarchy</title>
<polygon fill="white" stroke="transparent" points="-4,4 -4,-909 946,-909 946,4 -4,4"/>
<!-- Node0 -->
<g id="node1" class="node">
<title>Node0</title>
<g id="a_node1"><a xlink:href="d2/da2/classnap_1_1_event.html" target="_top" xlink:title=" ">
<polygon fill="white" stroke="black" points="0,-695.5 0,-714.5 44,-714.5 44,-695.5 0,-695.5"/>
<text text-anchor="middle" x="22" y="-702.5" font-family="Helvetica,sans-Serif" font-size="10.00">Event</text>
</a>
</g>
</g>
<!-- Node1 -->
<g id="node2" class="node">
<title>Node1</title>
<g id="a_node2"><a xlink:href="db/dbc/classnap_1_1_a_p_i_event.html" target="_top" xlink:title=" ">
<polygon fill="white" stroke="black" points="108,-885.5 108,-904.5 168,-904.5 168,-885.5 108,-885.5"/>
<text text-anchor="middle" x="138" y="-892.5" font-family="Helvetica,sans-Serif" font-size="10.00">APIEvent</text>
</a>
</g>
</g>
<!-- Node0&#45;&gt;Node1 -->
<g id="edge1" class="edge">
<title>Node0&#45;&gt;Node1</title>
<path fill="none" stroke="midnightblue" d="M24.05,-725.09C26.97,-760.46 38.05,-834.05 80,-876 87.45,-883.45 97.89,-887.98 107.81,-890.73"/>
<polygon fill="midnightblue" stroke="midnightblue" points="27.51,-724.4 23.34,-714.67 20.53,-724.88 27.51,-724.4"/>
</g>
<!-- Node3 -->
<g id="node4" class="node">
<title>Node3</title>
<g id="a_node4"><a xlink:href="df/dcf/classnap_1_1_art_net_event.html" target="_top" xlink:title=" ">
<polygon fill="white" stroke="black" points="100,-847.5 100,-866.5 176,-866.5 176,-847.5 100,-847.5"/>
<text text-anchor="middle" x="138" y="-854.5" font-family="Helvetica,sans-Serif" font-size="10.00">ArtNetEvent</text>
</a>
</g>
</g>
<!-- Node0&#45;&gt;Node3 -->
<g id="edge3" class="edge">
<title>Node0&#45;&gt;Node3</title>
<path fill="none" stroke="midnightblue" d="M26.2,-724.64C31.9,-753.49 46.54,-807.22 80,-838 85.6,-843.16 92.65,-846.92 99.85,-849.66"/>
<polygon fill="midnightblue" stroke="midnightblue" points="29.6,-723.8 24.37,-714.58 22.71,-725.04 29.6,-723.8"/>
</g>
<!-- Node4 -->
<g id="node5" class="node">
<title>Node4</title>
<g id="a_node5"><a xlink:href="da/d0d/classnap_1_1_calendar_event.html" target="_top" xlink:title=" ">
<polygon fill="white" stroke="black" points="94,-809.5 94,-828.5 182,-828.5 182,-809.5 94,-809.5"/>
<text text-anchor="middle" x="138" y="-816.5" font-family="Helvetica,sans-Serif" font-size="10.00">CalendarEvent</text>
</a>
</g>
</g>
<!-- Node0&#45;&gt;Node4 -->
<g id="edge4" class="edge">
<title>Node0&#45;&gt;Node4</title>
<path fill="none" stroke="midnightblue" d="M29.82,-724.25C38.36,-745.67 54.97,-779.92 80,-800 84.8,-803.85 90.42,-806.94 96.22,-809.4"/>
<polygon fill="midnightblue" stroke="midnightblue" points="32.99,-722.73 26.18,-714.61 26.44,-725.21 32.99,-722.73"/>
</g>
<!-- Node5 -->
<g id="node6" class="node">
<title>Node5</title>
<g id="a_node6"><a xlink:href="d8/dc0/classnap_1_1_c_v_frame_event.html" target="_top" xlink:title=" ">
<polygon fill="white" stroke="black" points="93.5,-771.5 93.5,-790.5 182.5,-790.5 182.5,-771.5 93.5,-771.5"/>
<text text-anchor="middle" x="138" y="-778.5" font-family="Helvetica,sans-Serif" font-size="10.00">CVFrameEvent</text>
</a>
</g>
</g>
<!-- Node0&#45;&gt;Node5 -->
<g id="edge5" class="edge">
<title>Node0&#45;&gt;Node5</title>
<path fill="none" stroke="midnightblue" d="M36.93,-722.79C47.54,-735.3 63.17,-751.6 80,-762 86.12,-765.78 93.09,-768.91 99.99,-771.45"/>
<polygon fill="midnightblue" stroke="midnightblue" points="39.47,-720.37 30.42,-714.86 34.05,-724.81 39.47,-720.37"/>
</g>
<!-- Node6 -->
<g id="node7" class="node">
<title>Node6</title>
<g id="a_node7"><a xlink:href="dc/dc0/classnap_1_1_input_event.html" target="_top" xlink:title=" ">
<polygon fill="white" stroke="black" points="103.5,-733.5 103.5,-752.5 172.5,-752.5 172.5,-733.5 103.5,-733.5"/>
<text text-anchor="middle" x="138" y="-740.5" font-family="Helvetica,sans-Serif" font-size="10.00">InputEvent</text>
</a>
</g>
</g>
<!-- Node0&#45;&gt;Node6 -->
<g id="edge6" class="edge">
<title>Node0&#45;&gt;Node6</title>
<path fill="none" stroke="midnightblue" d="M54.11,-715.37C70.99,-721 91.7,-727.9 108.2,-733.4"/>
<polygon fill="midnightblue" stroke="midnightblue" points="54.77,-711.9 44.18,-712.06 52.56,-718.54 54.77,-711.9"/>
</g>
<!-- Node24 -->
<g id="node25" class="node">
<title>Node24</title>
<g id="a_node25"><a xlink:href="de/d53/classnap_1_1_midi_event.html" target="_top" xlink:title=" ">
<polygon fill="white" stroke="black" points="105.5,-695.5 105.5,-714.5 170.5,-714.5 170.5,-695.5 105.5,-695.5"/>
<text text-anchor="middle" x="138" y="-702.5" font-family="Helvetica,sans-Serif" font-size="10.00">MidiEvent</text>
</a>
</g>
</g>
<!-- Node0&#45;&gt;Node24 -->
<g id="edge24" class="edge">
<title>Node0&#45;&gt;Node24</title>
<path fill="none" stroke="midnightblue" d="M54.5,-705C70.28,-705 89.34,-705 105.17,-705"/>
<polygon fill="midnightblue" stroke="midnightblue" points="54.18,-701.5 44.18,-705 54.18,-708.5 54.18,-701.5"/>
</g>
<!-- Node25 -->
<g id="node26" class="node">
<title>Node25</title>
<g id="a_node26"><a xlink:href="d9/ddb/classnap_1_1_o_s_c_event.html" target="_top" xlink:title=" ">
<polygon fill="white" stroke="black" points="105.5,-657.5 105.5,-676.5 170.5,-676.5 170.5,-657.5 105.5,-657.5"/>
<text text-anchor="middle" x="138" y="-664.5" font-family="Helvetica,sans-Serif" font-size="10.00">OSCEvent</text>
</a>
</g>
</g>
<!-- Node0&#45;&gt;Node25 -->
<g id="edge25" class="edge">
<title>Node0&#45;&gt;Node25</title>
<path fill="none" stroke="midnightblue" d="M54.11,-694.63C70.99,-689 91.7,-682.1 108.2,-676.6"/>
<polygon fill="midnightblue" stroke="midnightblue" points="52.56,-691.46 44.18,-697.94 54.77,-698.1 52.56,-691.46"/>
</g>
<!-- Node26 -->
<g id="node27" class="node">
<title>Node26</title>
<g id="a_node27"><a xlink:href="d4/d3e/classnap_1_1_portal_event.html" target="_top" xlink:title=" ">
<polygon fill="white" stroke="black" points="101.5,-619.5 101.5,-638.5 174.5,-638.5 174.5,-619.5 101.5,-619.5"/>
<text text-anchor="middle" x="138" y="-626.5" font-family="Helvetica,sans-Serif" font-size="10.00">PortalEvent</text>
</a>
</g>
</g>
<!-- Node0&#45;&gt;Node26 -->
<g id="edge26" class="edge">
<title>Node0&#45;&gt;Node26</title>
<path fill="none" stroke="midnightblue" d="M36.93,-687.21C47.54,-674.7 63.17,-658.4 80,-648 86.57,-643.94 94.1,-640.64 101.49,-638"/>
<polygon fill="midnightblue" stroke="midnightblue" points="34.05,-685.19 30.42,-695.14 39.47,-689.63 34.05,-685.19"/>
</g>
<!-- Node27 -->
<g id="node28" class="node">
<title>Node27</title>
<g id="a_node28"><a xlink:href="d5/d51/classnap_1_1_sequence_event_base.html" target="_top" xlink:title=" ">
<polygon fill="white" stroke="black" points="80,-581.5 80,-600.5 196,-600.5 196,-581.5 80,-581.5"/>
<text text-anchor="middle" x="138" y="-588.5" font-family="Helvetica,sans-Serif" font-size="10.00">SequenceEventBase</text>
</a>
</g>
</g>
<!-- Node0&#45;&gt;Node27 -->
<g id="edge27" class="edge">
<title>Node0&#45;&gt;Node27</title>
<path fill="none" stroke="midnightblue" d="M29.82,-685.75C38.36,-664.33 54.97,-630.08 80,-610 84.8,-606.15 90.42,-603.06 96.22,-600.6"/>
<polygon fill="midnightblue" stroke="midnightblue" points="26.44,-684.79 26.18,-695.39 32.99,-687.27 26.44,-684.79"/>
</g>
<!-- Node29 -->
<g id="node30" class="node">
<title>Node29</title>
<g id="a_node30"><a xlink:href="d6/d83/classnap_1_1_web_socket_event.html" target="_top" xlink:title=" ">
<polygon fill="white" stroke="black" points="89,-543.5 89,-562.5 187,-562.5 187,-543.5 89,-543.5"/>
<text text-anchor="middle" x="138" y="-550.5" font-family="Helvetica,sans-Serif" font-size="10.00">WebSocketEvent</text>
</a>
</g>
</g>
<!-- Node0&#45;&gt;Node29 -->
<g id="edge29" class="edge">
<title>Node0&#45;&gt;Node29</title>
<path fill="none" stroke="midnightblue" d="M26.2,-685.36C31.9,-656.51 46.54,-602.78 80,-572 84.22,-568.12 89.26,-565.02 94.57,-562.56"/>
<polygon fill="midnightblue" stroke="midnightblue" points="22.71,-684.96 24.37,-695.42 29.6,-686.2 22.71,-684.96"/>
</g>
<!-- Node35 -->
<g id="node36" class="node">
<title>Node35</title>
<g id="a_node36"><a xlink:href="d5/dea/classnap_1_1_window_event.html" target="_top" xlink:title=" ">
<polygon fill="white" stroke="black" points="96.5,-247.5 96.5,-266.5 179.5,-266.5 179.5,-247.5 96.5,-247.5"/>
<text text-anchor="middle" x="138" y="-254.5" font-family="Helvetica,sans-Serif" font-size="10.00">WindowEvent</text>
</a>
</g>
</g>
<!-- Node0&#45;&gt;Node35 -->
<g id="edge35" class="edge">
<title>Node0&#45;&gt;Node35</title>
<path fill="none" stroke="midnightblue" d="M28.02,-685.29C47.83,-607.43 120.27,-322.77 134.55,-266.65"/>
<polygon fill="midnightblue" stroke="midnightblue" points="24.56,-684.67 25.49,-695.23 31.35,-686.4 24.56,-684.67"/>
</g>
<!-- Node2 -->
<g id="node3" class="node">
<title>Node2</title>
<g id="a_node3"><a xlink:href="d4/dc1/classnap_1_1_a_p_i_web_socket_event.html" target="_top" xlink:title=" ">
<polygon fill="white" stroke="black" points="254.5,-885.5 254.5,-904.5 367.5,-904.5 367.5,-885.5 254.5,-885.5"/>
<text text-anchor="middle" x="311" y="-892.5" font-family="Helvetica,sans-Serif" font-size="10.00">APIWebSocketEvent</text>
</a>
</g>
</g>
<!-- Node1&#45;&gt;Node2 -->
<g id="edge2" class="edge">
<title>Node1&#45;&gt;Node2</title>
<path fill="none" stroke="midnightblue" d="M178.2,-895C200.71,-895 229.35,-895 254.18,-895"/>
<polygon fill="midnightblue" stroke="midnightblue" points="178.01,-891.5 168.01,-895 178.01,-898.5 178.01,-891.5"/>
</g>
<!-- Node7 -->
<g id="node8" class="node">
<title>Node7</title>
<g id="a_node8"><a xlink:href="d6/ded/classnap_1_1_controller_event.html" target="_top" xlink:title=" ">
<polygon fill="white" stroke="black" points="265,-823.5 265,-842.5 357,-842.5 357,-823.5 265,-823.5"/>
<text text-anchor="middle" x="311" y="-830.5" font-family="Helvetica,sans-Serif" font-size="10.00">ControllerEvent</text>
</a>
</g>
</g>
<!-- Node6&#45;&gt;Node7 -->
<g id="edge7" class="edge">
<title>Node6&#45;&gt;Node7</title>
<path fill="none" stroke="midnightblue" d="M181.54,-755.94C186.48,-757.81 191.4,-759.84 196,-762 234.62,-780.15 276.28,-808.63 296.9,-823.4"/>
<polygon fill="midnightblue" stroke="midnightblue" points="182.67,-752.63 172.07,-752.56 180.31,-759.22 182.67,-752.63"/>
</g>
<!-- Node13 -->
<g id="node14" class="node">
<title>Node13</title>
<g id="a_node14"><a xlink:href="d6/d58/classnap_1_1_window_input_event.html" target="_top" xlink:title=" ">
<polygon fill="white" stroke="black" points="257,-728.5 257,-747.5 365,-747.5 365,-728.5 257,-728.5"/>
<text text-anchor="middle" x="311" y="-735.5" font-family="Helvetica,sans-Serif" font-size="10.00">WindowInputEvent</text>
</a>
</g>
</g>
<!-- Node6&#45;&gt;Node13 -->
<g id="edge13" class="edge">
<title>Node6&#45;&gt;Node13</title>
<path fill="none" stroke="midnightblue" d="M183.06,-741.71C205.55,-741.05 233.09,-740.25 256.76,-739.56"/>
<polygon fill="midnightblue" stroke="midnightblue" points="182.68,-738.22 172.78,-742.01 182.88,-745.22 182.68,-738.22"/>
</g>
<!-- Node8 -->
<g id="node9" class="node">
<title>Node8</title>
<g id="a_node9"><a xlink:href="da/dbd/classnap_1_1_controller_axis_event.html" target="_top" xlink:title=" ">
<polygon fill="white" stroke="black" points="450.5,-880.5 450.5,-899.5 563.5,-899.5 563.5,-880.5 450.5,-880.5"/>
<text text-anchor="middle" x="507" y="-887.5" font-family="Helvetica,sans-Serif" font-size="10.00">ControllerAxisEvent</text>
</a>
</g>
</g>
<!-- Node7&#45;&gt;Node8 -->
<g id="edge8" class="edge">
<title>Node7&#45;&gt;Node8</title>
<path fill="none" stroke="midnightblue" d="M348.22,-845.99C370.5,-853.75 399.73,-863.52 426,-871 437.81,-874.36 450.71,-877.61 462.64,-880.44"/>
<polygon fill="midnightblue" stroke="midnightblue" points="349.11,-842.59 338.51,-842.58 346.79,-849.19 349.11,-842.59"/>
</g>
<!-- Node9 -->
<g id="node10" class="node">
<title>Node9</title>
<g id="a_node10"><a xlink:href="d6/d31/classnap_1_1_controller_button_event.html" target="_top" xlink:title=" ">
<polygon fill="white" stroke="black" points="444.5,-842.5 444.5,-861.5 569.5,-861.5 569.5,-842.5 444.5,-842.5"/>
<text text-anchor="middle" x="507" y="-849.5" font-family="Helvetica,sans-Serif" font-size="10.00">ControllerButtonEvent</text>
</a>
</g>
</g>
<!-- Node7&#45;&gt;Node9 -->
<g id="edge9" class="edge">
<title>Node7&#45;&gt;Node9</title>
<path fill="none" stroke="midnightblue" d="M367.49,-838.43C391.47,-840.78 419.63,-843.54 444.28,-845.95"/>
<polygon fill="midnightblue" stroke="midnightblue" points="367.78,-834.95 357.48,-837.45 367.1,-841.91 367.78,-834.95"/>
</g>
<!-- Node12 -->
<g id="node13" class="node">
<title>Node12</title>
<g id="a_node13"><a xlink:href="d4/d9f/classnap_1_1_controller_connection_event.html" target="_top" xlink:title=" ">
<polygon fill="white" stroke="black" points="433.5,-804.5 433.5,-823.5 580.5,-823.5 580.5,-804.5 433.5,-804.5"/>
<text text-anchor="middle" x="507" y="-811.5" font-family="Helvetica,sans-Serif" font-size="10.00">ControllerConnectionEvent</text>
</a>
</g>
</g>
<!-- Node7&#45;&gt;Node12 -->
<g id="edge12" class="edge">
<title>Node7&#45;&gt;Node12</title>
<path fill="none" stroke="midnightblue" d="M367.6,-827.55C388.12,-825.55 411.68,-823.24 433.47,-821.1"/>
<polygon fill="midnightblue" stroke="midnightblue" points="367.1,-824.09 357.48,-828.55 367.78,-831.05 367.1,-824.09"/>
</g>
<!-- Node10 -->
<g id="node11" class="node">
<title>Node10</title>
<g id="a_node11"><a xlink:href="d9/d4a/classnap_1_1_controller_button_press_event.html" target="_top" xlink:title=" ">
<polygon fill="white" stroke="black" points="630.5,-870.5 630.5,-889.5 781.5,-889.5 781.5,-870.5 630.5,-870.5"/>
<text text-anchor="middle" x="706" y="-877.5" font-family="Helvetica,sans-Serif" font-size="10.00">ControllerButtonPressEvent</text>
</a>
</g>
</g>
<!-- Node9&#45;&gt;Node10 -->
<g id="edge10" class="edge">
<title>Node9&#45;&gt;Node10</title>
<path fill="none" stroke="midnightblue" d="M579.66,-862.18C598.75,-864.9 619.31,-867.82 638.13,-870.5"/>
<polygon fill="midnightblue" stroke="midnightblue" points="579.91,-858.69 569.52,-860.74 578.93,-865.62 579.91,-858.69"/>
</g>
<!-- Node11 -->
<g id="node12" class="node">
<title>Node11</title>
<g id="a_node12"><a xlink:href="de/da1/classnap_1_1_controller_button_release_event.html" target="_top" xlink:title=" ">
<polygon fill="white" stroke="black" points="624,-832.5 624,-851.5 788,-851.5 788,-832.5 624,-832.5"/>
<text text-anchor="middle" x="706" y="-839.5" font-family="Helvetica,sans-Serif" font-size="10.00">ControllerButtonReleaseEvent</text>
</a>
</g>
</g>
<!-- Node9&#45;&gt;Node11 -->
<g id="edge11" class="edge">
<title>Node9&#45;&gt;Node11</title>
<path fill="none" stroke="midnightblue" d="M579.76,-848.36C594.04,-847.63 609.13,-846.87 623.7,-846.13"/>
<polygon fill="midnightblue" stroke="midnightblue" points="579.33,-844.87 569.52,-848.88 579.69,-851.87 579.33,-844.87"/>
</g>
<!-- Node14 -->
<g id="node15" class="node">
<title>Node14</title>
<g id="a_node15"><a xlink:href="d6/d0d/classnap_1_1_key_event.html" target="_top" xlink:title=" ">
<polygon fill="white" stroke="black" points="476,-766.5 476,-785.5 538,-785.5 538,-766.5 476,-766.5"/>
<text text-anchor="middle" x="507" y="-773.5" font-family="Helvetica,sans-Serif" font-size="10.00">KeyEvent</text>
</a>
</g>
</g>
<!-- Node13&#45;&gt;Node14 -->
<g id="edge14" class="edge">
<title>Node13&#45;&gt;Node14</title>
<path fill="none" stroke="midnightblue" d="M370.96,-749.55C405.59,-756.33 447.91,-764.62 475.83,-770.09"/>
<polygon fill="midnightblue" stroke="midnightblue" points="371.44,-746.08 360.95,-747.59 370.1,-752.95 371.44,-746.08"/>
</g>
<!-- Node17 -->
<g id="node18" class="node">
<title>Node17</title>
<g id="a_node18"><a xlink:href="d7/d77/classnap_1_1_mouse_wheel_event.html" target="_top" xlink:title=" ">
<polygon fill="white" stroke="black" points="453.5,-728.5 453.5,-747.5 560.5,-747.5 560.5,-728.5 453.5,-728.5"/>
<text text-anchor="middle" x="507" y="-735.5" font-family="Helvetica,sans-Serif" font-size="10.00">MouseWheelEvent</text>
</a>
</g>
</g>
<!-- Node13&#45;&gt;Node17 -->
<g id="edge17" class="edge">
<title>Node13&#45;&gt;Node17</title>
<path fill="none" stroke="midnightblue" d="M375.24,-738C400.51,-738 429.28,-738 453.39,-738"/>
<polygon fill="midnightblue" stroke="midnightblue" points="375.01,-734.5 365.01,-738 375.01,-741.5 375.01,-734.5"/>
</g>
<!-- Node18 -->
<g id="node19" class="node">
<title>Node18</title>
<g id="a_node19"><a xlink:href="d3/d85/classnap_1_1_pointer_event.html" target="_top" xlink:title=" ">
<polygon fill="white" stroke="black" points="467.5,-690.5 467.5,-709.5 546.5,-709.5 546.5,-690.5 467.5,-690.5"/>
<text text-anchor="middle" x="507" y="-697.5" font-family="Helvetica,sans-Serif" font-size="10.00">PointerEvent</text>
</a>
</g>
</g>
<!-- Node13&#45;&gt;Node18 -->
<g id="edge18" class="edge">
<title>Node13&#45;&gt;Node18</title>
<path fill="none" stroke="midnightblue" d="M370.89,-726.47C402.22,-720.33 439.87,-712.95 467.45,-707.55"/>
<polygon fill="midnightblue" stroke="midnightblue" points="370.1,-723.05 360.95,-728.41 371.44,-729.92 370.1,-723.05"/>
</g>
<!-- Node23 -->
<g id="node24" class="node">
<title>Node23</title>
<g id="a_node24"><a xlink:href="d0/d66/classnap_1_1_text_input_event.html" target="_top" xlink:title=" ">
<polygon fill="white" stroke="black" points="462.5,-652.5 462.5,-671.5 551.5,-671.5 551.5,-652.5 462.5,-652.5"/>
<text text-anchor="middle" x="507" y="-659.5" font-family="Helvetica,sans-Serif" font-size="10.00">TextInputEvent</text>
</a>
</g>
</g>
<!-- Node13&#45;&gt;Node23 -->
<g id="edge23" class="edge">
<title>Node13&#45;&gt;Node23</title>
<path fill="none" stroke="midnightblue" d="M337,-723.39C359.62,-710.69 394.15,-692.57 426,-681 437.54,-676.81 450.35,-673.29 462.28,-670.46"/>
<polygon fill="midnightblue" stroke="midnightblue" points="335.05,-720.48 328.09,-728.46 338.51,-726.56 335.05,-720.48"/>
</g>
<!-- Node15 -->
<g id="node16" class="node">
<title>Node15</title>
<g id="a_node16"><a xlink:href="d1/ddb/classnap_1_1_key_press_event.html" target="_top" xlink:title=" ">
<polygon fill="white" stroke="black" points="661.5,-775.5 661.5,-794.5 750.5,-794.5 750.5,-775.5 661.5,-775.5"/>
<text text-anchor="middle" x="706" y="-782.5" font-family="Helvetica,sans-Serif" font-size="10.00">KeyPressEvent</text>
</a>
</g>
</g>
<!-- Node14&#45;&gt;Node15 -->
<g id="edge15" class="edge">
<title>Node14&#45;&gt;Node15</title>
<path fill="none" stroke="midnightblue" d="M548.53,-777.85C581.44,-779.36 627.75,-781.47 661.45,-783.01"/>
<polygon fill="midnightblue" stroke="midnightblue" points="548.5,-774.35 538.35,-777.39 548.18,-781.34 548.5,-774.35"/>
</g>
<!-- Node16 -->
<g id="node17" class="node">
<title>Node16</title>
<g id="a_node17"><a xlink:href="d6/d2d/classnap_1_1_key_release_event.html" target="_top" xlink:title=" ">
<polygon fill="white" stroke="black" points="655.5,-737.5 655.5,-756.5 756.5,-756.5 756.5,-737.5 655.5,-737.5"/>
<text text-anchor="middle" x="706" y="-744.5" font-family="Helvetica,sans-Serif" font-size="10.00">KeyReleaseEvent</text>
</a>
</g>
</g>
<!-- Node14&#45;&gt;Node16 -->
<g id="edge16" class="edge">
<title>Node14&#45;&gt;Node16</title>
<path fill="none" stroke="midnightblue" d="M548.38,-770.06C579.38,-765.49 622.36,-759.17 655.45,-754.29"/>
<polygon fill="midnightblue" stroke="midnightblue" points="547.73,-766.61 538.35,-771.53 548.75,-773.54 547.73,-766.61"/>
</g>
<!-- Node19 -->
<g id="node20" class="node">
<title>Node19</title>
<g id="a_node20"><a xlink:href="dd/d3f/classnap_1_1_pointer_click_event.html" target="_top" xlink:title=" ">
<polygon fill="white" stroke="black" points="654.5,-694.5 654.5,-713.5 757.5,-713.5 757.5,-694.5 654.5,-694.5"/>
<text text-anchor="middle" x="706" y="-701.5" font-family="Helvetica,sans-Serif" font-size="10.00">PointerClickEvent</text>
</a>
</g>
</g>
<!-- Node18&#45;&gt;Node19 -->
<g id="edge19" class="edge">
<title>Node18&#45;&gt;Node19</title>
<path fill="none" stroke="midnightblue" d="M557.03,-701C586.63,-701.6 624.28,-702.36 654.2,-702.97"/>
<polygon fill="midnightblue" stroke="midnightblue" points="556.99,-697.49 546.92,-700.79 556.85,-704.49 556.99,-697.49"/>
</g>
<!-- Node22 -->
<g id="node23" class="node">
<title>Node22</title>
<g id="a_node23"><a xlink:href="d0/d87/classnap_1_1_pointer_move_event.html" target="_top" xlink:title=" ">
<polygon fill="white" stroke="black" points="653,-656.5 653,-675.5 759,-675.5 759,-656.5 653,-656.5"/>
<text text-anchor="middle" x="706" y="-663.5" font-family="Helvetica,sans-Serif" font-size="10.00">PointerMoveEvent</text>
</a>
</g>
</g>
<!-- Node18&#45;&gt;Node22 -->
<g id="edge22" class="edge">
<title>Node18&#45;&gt;Node22</title>
<path fill="none" stroke="midnightblue" d="M556.88,-691.56C586.02,-686.53 623.01,-680.15 652.73,-675.02"/>
<polygon fill="midnightblue" stroke="midnightblue" points="556.18,-688.13 546.92,-693.28 557.37,-695.03 556.18,-688.13"/>
</g>
<!-- Node20 -->
<g id="node21" class="node">
<title>Node20</title>
<g id="a_node21"><a xlink:href="d5/dfd/classnap_1_1_pointer_press_event.html" target="_top" xlink:title=" ">
<polygon fill="white" stroke="black" points="830.5,-713.5 830.5,-732.5 935.5,-732.5 935.5,-713.5 830.5,-713.5"/>
<text text-anchor="middle" x="883" y="-720.5" font-family="Helvetica,sans-Serif" font-size="10.00">PointerPressEvent</text>
</a>
</g>
</g>
<!-- Node19&#45;&gt;Node20 -->
<g id="edge20" class="edge">
<title>Node19&#45;&gt;Node20</title>
<path fill="none" stroke="midnightblue" d="M767.74,-710.59C788.13,-712.81 810.66,-715.25 830.28,-717.38"/>
<polygon fill="midnightblue" stroke="midnightblue" points="767.94,-707.1 757.62,-709.5 767.18,-714.05 767.94,-707.1"/>
</g>
<!-- Node21 -->
<g id="node22" class="node">
<title>Node21</title>
<g id="a_node22"><a xlink:href="de/d98/classnap_1_1_pointer_release_event.html" target="_top" xlink:title=" ">
<polygon fill="white" stroke="black" points="824,-675.5 824,-694.5 942,-694.5 942,-675.5 824,-675.5"/>
<text text-anchor="middle" x="883" y="-682.5" font-family="Helvetica,sans-Serif" font-size="10.00">PointerReleaseEvent</text>
</a>
</g>
</g>
<!-- Node19&#45;&gt;Node21 -->
<g id="edge21" class="edge">
<title>Node19&#45;&gt;Node21</title>
<path fill="none" stroke="midnightblue" d="M767.79,-697.4C785.95,-695.43 805.8,-693.27 823.79,-691.32"/>
<polygon fill="midnightblue" stroke="midnightblue" points="767.18,-693.95 757.62,-698.5 767.94,-700.9 767.18,-693.95"/>
</g>
<!-- Node28 -->
<g id="node29" class="node">
<title>Node28</title>
<g id="a_node29"><a xlink:href="de/d60/classnap_1_1_sequence_event.html" target="_top" xlink:title=" ">
<polygon fill="white" stroke="black" points="251,-585.5 251,-604.5 371,-604.5 371,-585.5 251,-585.5"/>
<text text-anchor="middle" x="311" y="-592.5" font-family="Helvetica,sans-Serif" font-size="10.00">SequenceEvent&lt; T &gt;</text>
</a>
</g>
</g>
<!-- Node27&#45;&gt;Node28 -->
<g id="edge28" class="edge">
<title>Node27&#45;&gt;Node28</title>
<path fill="none" stroke="midnightblue" d="M206.46,-592.58C221.17,-592.92 236.63,-593.28 250.98,-593.62"/>
<polygon fill="midnightblue" stroke="midnightblue" points="206.5,-589.08 196.42,-592.34 206.33,-596.08 206.5,-589.08"/>
</g>
<!-- Node30 -->
<g id="node31" class="node">
<title>Node30</title>
<g id="a_node31"><a xlink:href="de/d42/classnap_1_1_web_socket_connection_event.html" target="_top" xlink:title=" ">
<polygon fill="white" stroke="black" points="235,-547.5 235,-566.5 387,-566.5 387,-547.5 235,-547.5"/>
<text text-anchor="middle" x="311" y="-554.5" font-family="Helvetica,sans-Serif" font-size="10.00">WebSocketConnectionEvent</text>
</a>
</g>
</g>
<!-- Node29&#45;&gt;Node30 -->
<g id="edge30" class="edge">
<title>Node29&#45;&gt;Node30</title>
<path fill="none" stroke="midnightblue" d="M197.42,-554.37C209.44,-554.65 222.26,-554.95 234.78,-555.24"/>
<polygon fill="midnightblue" stroke="midnightblue" points="197.17,-550.86 187.09,-554.12 197,-557.86 197.17,-550.86"/>
</g>
<!-- Node34 -->
<g id="node35" class="node">
<title>Node34</title>
<g id="a_node35"><a xlink:href="d6/dd9/classnap_1_1_web_socket_message_received_event.html" target="_top" xlink:title=" ">
<polygon fill="white" stroke="black" points="232,-498 232,-528 390,-528 390,-498 232,-498"/>
<text text-anchor="start" x="240" y="-516" font-family="Helvetica,sans-Serif" font-size="10.00">WebSocketMessageReceived</text>
<text text-anchor="middle" x="311" y="-505" font-family="Helvetica,sans-Serif" font-size="10.00">Event</text>
</a>
</g>
</g>
<!-- Node29&#45;&gt;Node34 -->
<g id="edge34" class="edge">
<title>Node29&#45;&gt;Node34</title>
<path fill="none" stroke="midnightblue" d="M189.96,-541.08C207.45,-536.99 227.26,-532.36 245.67,-528.05"/>
<polygon fill="midnightblue" stroke="midnightblue" points="188.9,-537.73 179.96,-543.42 190.49,-544.55 188.9,-537.73"/>
</g>
<!-- Node31 -->
<g id="node32" class="node">
<title>Node31</title>
<g id="a_node32"><a xlink:href="df/ddd/classnap_1_1_web_socket_connection_closed_event.html" target="_top" xlink:title=" ">
<polygon fill="white" stroke="black" points="428,-593 428,-623 586,-623 586,-593 428,-593"/>
<text text-anchor="start" x="436" y="-611" font-family="Helvetica,sans-Serif" font-size="10.00">WebSocketConnectionClosed</text>
<text text-anchor="middle" x="507" y="-600" font-family="Helvetica,sans-Serif" font-size="10.00">Event</text>
</a>
</g>
</g>
<!-- Node30&#45;&gt;Node31 -->
<g id="edge31" class="edge">
<title>Node30&#45;&gt;Node31</title>
<path fill="none" stroke="midnightblue" d="M362.06,-568.96C371.36,-571.25 380.98,-573.66 390,-576 410.52,-581.33 433.01,-587.46 452.67,-592.93"/>
<polygon fill="midnightblue" stroke="midnightblue" points="362.68,-565.51 352.14,-566.53 361.02,-572.31 362.68,-565.51"/>
</g>
<!-- Node32 -->
<g id="node33" class="node">
<title>Node32</title>
<g id="a_node33"><a xlink:href="df/dd1/classnap_1_1_web_socket_connection_failed_event.html" target="_top" xlink:title=" ">
<polygon fill="white" stroke="black" points="430.5,-544 430.5,-574 583.5,-574 583.5,-544 430.5,-544"/>
<text text-anchor="start" x="438.5" y="-562" font-family="Helvetica,sans-Serif" font-size="10.00">WebSocketConnectionFailed</text>
<text text-anchor="middle" x="507" y="-551" font-family="Helvetica,sans-Serif" font-size="10.00">Event</text>
</a>
</g>
</g>
<!-- Node30&#45;&gt;Node32 -->
<g id="edge32" class="edge">
<title>Node30&#45;&gt;Node32</title>
<path fill="none" stroke="midnightblue" d="M397.07,-557.88C408.11,-557.99 419.36,-558.11 430.23,-558.22"/>
<polygon fill="midnightblue" stroke="midnightblue" points="397.04,-554.38 387.01,-557.77 396.97,-561.38 397.04,-554.38"/>
</g>
<!-- Node33 -->
<g id="node34" class="node">
<title>Node33</title>
<g id="a_node34"><a xlink:href="d1/d76/classnap_1_1_web_socket_connection_opened_event.html" target="_top" xlink:title=" ">
<polygon fill="white" stroke="black" points="426,-495 426,-525 588,-525 588,-495 426,-495"/>
<text text-anchor="start" x="434" y="-513" font-family="Helvetica,sans-Serif" font-size="10.00">WebSocketConnectionOpened</text>
<text text-anchor="middle" x="507" y="-502" font-family="Helvetica,sans-Serif" font-size="10.00">Event</text>
</a>
</g>
</g>
<!-- Node30&#45;&gt;Node33 -->
<g id="edge33" class="edge">
<title>Node30&#45;&gt;Node33</title>
<path fill="none" stroke="midnightblue" d="M361.29,-545.06C386.39,-538.98 417.17,-531.52 443.88,-525.05"/>
<polygon fill="midnightblue" stroke="midnightblue" points="360.15,-541.73 351.26,-547.49 361.8,-548.54 360.15,-541.73"/>
</g>
<!-- Node36 -->
<g id="node37" class="node">
<title>Node36</title>
<g id="a_node37"><a xlink:href="d3/d68/classnap_1_1_parameterized_window_event.html" target="_top" xlink:title=" ">
<polygon fill="white" stroke="black" points="234,-456.5 234,-475.5 388,-475.5 388,-456.5 234,-456.5"/>
<text text-anchor="middle" x="311" y="-463.5" font-family="Helvetica,sans-Serif" font-size="10.00">ParameterizedWindowEvent</text>
</a>
</g>
</g>
<!-- Node35&#45;&gt;Node36 -->
<g id="edge36" class="edge">
<title>Node35&#45;&gt;Node36</title>
<path fill="none" stroke="midnightblue" d="M142.85,-276.71C151.5,-315.57 176.26,-402.17 232,-447 236.78,-450.84 242.22,-453.93 247.95,-456.4"/>
<polygon fill="midnightblue" stroke="midnightblue" points="146.22,-275.75 140.74,-266.69 139.37,-277.19 146.22,-275.75"/>
</g>
<!-- Node39 -->
<g id="node40" class="node">
<title>Node39</title>
<g id="a_node40"><a xlink:href="df/dc6/classnap_1_1_window_close_event.html" target="_top" xlink:title=" ">
<polygon fill="white" stroke="black" points="256,-418.5 256,-437.5 366,-437.5 366,-418.5 256,-418.5"/>
<text text-anchor="middle" x="311" y="-425.5" font-family="Helvetica,sans-Serif" font-size="10.00">WindowCloseEvent</text>
</a>
</g>
</g>
<!-- Node35&#45;&gt;Node39 -->
<g id="edge39" class="edge">
<title>Node35&#45;&gt;Node39</title>
<path fill="none" stroke="midnightblue" d="M145.3,-276.34C156.95,-308.97 185.07,-374.76 232,-409 239.09,-414.18 247.42,-417.95 255.94,-420.71"/>
<polygon fill="midnightblue" stroke="midnightblue" points="148.52,-274.96 141.97,-266.64 141.9,-277.23 148.52,-274.96"/>
</g>
<!-- Node40 -->
<g id="node41" class="node">
<title>Node40</title>
<g id="a_node41"><a xlink:href="d7/d03/classnap_1_1_window_enter_event.html" target="_top" xlink:title=" ">
<polygon fill="white" stroke="black" points="256.5,-380.5 256.5,-399.5 365.5,-399.5 365.5,-380.5 256.5,-380.5"/>
<text text-anchor="middle" x="311" y="-387.5" font-family="Helvetica,sans-Serif" font-size="10.00">WindowEnterEvent</text>
</a>
</g>
</g>
<!-- Node35&#45;&gt;Node40 -->
<g id="edge40" class="edge">
<title>Node35&#45;&gt;Node40</title>
<path fill="none" stroke="midnightblue" d="M149.07,-275.78C163.79,-301.39 193.67,-346.82 232,-371 239.31,-375.61 247.65,-379.1 256.1,-381.75"/>
<polygon fill="midnightblue" stroke="midnightblue" points="151.95,-273.76 144.02,-266.73 145.83,-277.17 151.95,-273.76"/>
</g>
<!-- Node41 -->
<g id="node42" class="node">
<title>Node41</title>
<g id="a_node42"><a xlink:href="d4/d8b/classnap_1_1_window_exposed_event.html" target="_top" xlink:title=" ">
<polygon fill="white" stroke="black" points="248.5,-342.5 248.5,-361.5 373.5,-361.5 373.5,-342.5 248.5,-342.5"/>
<text text-anchor="middle" x="311" y="-349.5" font-family="Helvetica,sans-Serif" font-size="10.00">WindowExposedEvent</text>
</a>
</g>
</g>
<!-- Node35&#45;&gt;Node41 -->
<g id="edge41" class="edge">
<title>Node35&#45;&gt;Node41</title>
<path fill="none" stroke="midnightblue" d="M154.85,-273.79C172.18,-291.17 201.57,-317.85 232,-333 239.74,-336.85 248.3,-339.95 256.84,-342.44"/>
<polygon fill="midnightblue" stroke="midnightblue" points="157.26,-271.25 147.77,-266.54 152.25,-276.14 157.26,-271.25"/>
</g>
<!-- Node42 -->
<g id="node43" class="node">
<title>Node42</title>
<g id="a_node43"><a xlink:href="db/d67/classnap_1_1_window_focus_gained_event.html" target="_top" xlink:title=" ">
<polygon fill="white" stroke="black" points="238,-304.5 238,-323.5 384,-323.5 384,-304.5 238,-304.5"/>
<text text-anchor="middle" x="311" y="-311.5" font-family="Helvetica,sans-Serif" font-size="10.00">WindowFocusGainedEvent</text>
</a>
</g>
</g>
<!-- Node35&#45;&gt;Node42 -->
<g id="edge42" class="edge">
<title>Node35&#45;&gt;Node42</title>
<path fill="none" stroke="midnightblue" d="M169.11,-270.64C187.11,-278.45 210.58,-288.06 232,-295 242.87,-298.52 254.78,-301.74 265.95,-304.48"/>
<polygon fill="midnightblue" stroke="midnightblue" points="170.28,-267.33 159.72,-266.51 167.47,-273.74 170.28,-267.33"/>
</g>
<!-- Node43 -->
<g id="node44" class="node">
<title>Node43</title>
<g id="a_node44"><a xlink:href="d1/d41/classnap_1_1_window_focus_lost_event.html" target="_top" xlink:title=" ">
<polygon fill="white" stroke="black" points="245.5,-266.5 245.5,-285.5 376.5,-285.5 376.5,-266.5 245.5,-266.5"/>
<text text-anchor="middle" x="311" y="-273.5" font-family="Helvetica,sans-Serif" font-size="10.00">WindowFocusLostEvent</text>
</a>
</g>
</g>
<!-- Node35&#45;&gt;Node43 -->
<g id="edge43" class="edge">
<title>Node35&#45;&gt;Node43</title>
<path fill="none" stroke="midnightblue" d="M189.53,-262.61C207.03,-264.56 226.89,-266.77 245.37,-268.82"/>
<polygon fill="midnightblue" stroke="midnightblue" points="189.85,-259.13 179.52,-261.5 189.08,-266.09 189.85,-259.13"/>
</g>
<!-- Node44 -->
<g id="node45" class="node">
<title>Node44</title>
<g id="a_node45"><a xlink:href="dc/d3b/classnap_1_1_window_hidden_event.html" target="_top" xlink:title=" ">
<polygon fill="white" stroke="black" points="252,-228.5 252,-247.5 370,-247.5 370,-228.5 252,-228.5"/>
<text text-anchor="middle" x="311" y="-235.5" font-family="Helvetica,sans-Serif" font-size="10.00">WindowHiddenEvent</text>
</a>
</g>
</g>
<!-- Node35&#45;&gt;Node44 -->
<g id="edge44" class="edge">
<title>Node35&#45;&gt;Node44</title>
<path fill="none" stroke="midnightblue" d="M189.48,-251.39C209.1,-249.21 231.69,-246.7 251.97,-244.45"/>
<polygon fill="midnightblue" stroke="midnightblue" points="189.08,-247.91 179.52,-252.5 189.85,-254.87 189.08,-247.91"/>
</g>
<!-- Node45 -->
<g id="node46" class="node">
<title>Node45</title>
<g id="a_node46"><a xlink:href="da/d55/classnap_1_1_window_leave_event.html" target="_top" xlink:title=" ">
<polygon fill="white" stroke="black" points="254.5,-190.5 254.5,-209.5 367.5,-209.5 367.5,-190.5 254.5,-190.5"/>
<text text-anchor="middle" x="311" y="-197.5" font-family="Helvetica,sans-Serif" font-size="10.00">WindowLeaveEvent</text>
</a>
</g>
</g>
<!-- Node35&#45;&gt;Node45 -->
<g id="edge45" class="edge">
<title>Node35&#45;&gt;Node45</title>
<path fill="none" stroke="midnightblue" d="M169.11,-243.36C187.11,-235.55 210.58,-225.94 232,-219 242.87,-215.48 254.78,-212.26 265.95,-209.52"/>
<polygon fill="midnightblue" stroke="midnightblue" points="167.47,-240.26 159.72,-247.49 170.28,-246.67 167.47,-240.26"/>
</g>
<!-- Node46 -->
<g id="node47" class="node">
<title>Node46</title>
<g id="a_node47"><a xlink:href="d7/d6a/classnap_1_1_window_maximized_event.html" target="_top" xlink:title=" ">
<polygon fill="white" stroke="black" points="242.5,-152.5 242.5,-171.5 379.5,-171.5 379.5,-152.5 242.5,-152.5"/>
<text text-anchor="middle" x="311" y="-159.5" font-family="Helvetica,sans-Serif" font-size="10.00">WindowMaximizedEvent</text>
</a>
</g>
</g>
<!-- Node35&#45;&gt;Node46 -->
<g id="edge46" class="edge">
<title>Node35&#45;&gt;Node46</title>
<path fill="none" stroke="midnightblue" d="M154.85,-240.21C172.18,-222.83 201.57,-196.15 232,-181 239.74,-177.15 248.3,-174.05 256.84,-171.56"/>
<polygon fill="midnightblue" stroke="midnightblue" points="152.25,-237.86 147.77,-247.46 157.26,-242.75 152.25,-237.86"/>
</g>
<!-- Node47 -->
<g id="node48" class="node">
<title>Node47</title>
<g id="a_node48"><a xlink:href="d0/db2/classnap_1_1_window_minimized_event.html" target="_top" xlink:title=" ">
<polygon fill="white" stroke="black" points="244,-114.5 244,-133.5 378,-133.5 378,-114.5 244,-114.5"/>
<text text-anchor="middle" x="311" y="-121.5" font-family="Helvetica,sans-Serif" font-size="10.00">WindowMinimizedEvent</text>
</a>
</g>
</g>
<!-- Node35&#45;&gt;Node47 -->
<g id="edge47" class="edge">
<title>Node35&#45;&gt;Node47</title>
<path fill="none" stroke="midnightblue" d="M149.07,-238.22C163.79,-212.61 193.67,-167.18 232,-143 238.13,-139.13 244.99,-136.05 252.03,-133.6"/>
<polygon fill="midnightblue" stroke="midnightblue" points="145.83,-236.83 144.02,-247.27 151.95,-240.24 145.83,-236.83"/>
</g>
<!-- Node48 -->
<g id="node49" class="node">
<title>Node48</title>
<g id="a_node49"><a xlink:href="d3/d8c/classnap_1_1_window_restored_event.html" target="_top" xlink:title=" ">
<polygon fill="white" stroke="black" points="247.5,-76.5 247.5,-95.5 374.5,-95.5 374.5,-76.5 247.5,-76.5"/>
<text text-anchor="middle" x="311" y="-83.5" font-family="Helvetica,sans-Serif" font-size="10.00">WindowRestoredEvent</text>
</a>
</g>
</g>
<!-- Node35&#45;&gt;Node48 -->
<g id="edge48" class="edge">
<title>Node35&#45;&gt;Node48</title>
<path fill="none" stroke="midnightblue" d="M145.3,-237.66C156.95,-205.03 185.07,-139.24 232,-105 237.29,-101.14 243.27,-98.06 249.5,-95.59"/>
<polygon fill="midnightblue" stroke="midnightblue" points="141.9,-236.77 141.97,-247.36 148.52,-239.04 141.9,-236.77"/>
</g>
<!-- Node49 -->
<g id="node50" class="node">
<title>Node49</title>
<g id="a_node50"><a xlink:href="dd/d16/classnap_1_1_window_shown_event.html" target="_top" xlink:title=" ">
<polygon fill="white" stroke="black" points="253,-38.5 253,-57.5 369,-57.5 369,-38.5 253,-38.5"/>
<text text-anchor="middle" x="311" y="-45.5" font-family="Helvetica,sans-Serif" font-size="10.00">WindowShownEvent</text>
</a>
</g>
</g>
<!-- Node35&#45;&gt;Node49 -->
<g id="edge49" class="edge">
<title>Node35&#45;&gt;Node49</title>
<path fill="none" stroke="midnightblue" d="M142.85,-237.29C151.5,-198.43 176.26,-111.83 232,-67 238.08,-62.11 245.24,-58.45 252.7,-55.71"/>
<polygon fill="midnightblue" stroke="midnightblue" points="139.37,-236.81 140.74,-247.31 146.22,-238.25 139.37,-236.81"/>
</g>
<!-- Node50 -->
<g id="node51" class="node">
<title>Node50</title>
<g id="a_node51"><a xlink:href="db/d02/classnap_1_1_window_take_focus_event.html" target="_top" xlink:title=" ">
<polygon fill="white" stroke="black" points="244.5,-0.5 244.5,-19.5 377.5,-19.5 377.5,-0.5 244.5,-0.5"/>
<text text-anchor="middle" x="311" y="-7.5" font-family="Helvetica,sans-Serif" font-size="10.00">WindowTakeFocusEvent</text>
</a>
</g>
</g>
<!-- Node35&#45;&gt;Node50 -->
<g id="edge50" class="edge">
<title>Node35&#45;&gt;Node50</title>
<path fill="none" stroke="midnightblue" d="M141.06,-237.42C146.79,-193.16 167.05,-84.96 232,-29 236.43,-25.18 241.51,-22.1 246.91,-19.62"/>
<polygon fill="midnightblue" stroke="midnightblue" points="137.57,-237.1 139.87,-247.44 144.52,-237.92 137.57,-237.1"/>
</g>
<!-- Node37 -->
<g id="node38" class="node">
<title>Node37</title>
<g id="a_node38"><a xlink:href="d8/d4b/classnap_1_1_window_moved_event.html" target="_top" xlink:title=" ">
<polygon fill="white" stroke="black" points="449,-456.5 449,-475.5 565,-475.5 565,-456.5 449,-456.5"/>
<text text-anchor="middle" x="507" y="-463.5" font-family="Helvetica,sans-Serif" font-size="10.00">WindowMovedEvent</text>
</a>
</g>
</g>
<!-- Node36&#45;&gt;Node37 -->
<g id="edge37" class="edge">
<title>Node36&#45;&gt;Node37</title>
<path fill="none" stroke="midnightblue" d="M398.13,-466C415.25,-466 432.83,-466 448.7,-466"/>
<polygon fill="midnightblue" stroke="midnightblue" points="398.12,-462.5 388.12,-466 398.12,-469.5 398.12,-462.5"/>
</g>
<!-- Node38 -->
<g id="node39" class="node">
<title>Node38</title>
<g id="a_node39"><a xlink:href="d7/da9/classnap_1_1_window_resized_event.html" target="_top" xlink:title=" ">
<polygon fill="white" stroke="black" points="446,-418.5 446,-437.5 568,-437.5 568,-418.5 446,-418.5"/>
<text text-anchor="middle" x="507" y="-425.5" font-family="Helvetica,sans-Serif" font-size="10.00">WindowResizedEvent</text>
</a>
</g>
</g>
<!-- Node36&#45;&gt;Node38 -->
<g id="edge38" class="edge">
<title>Node36&#45;&gt;Node38</title>
<path fill="none" stroke="midnightblue" d="M370.91,-454.46C398.58,-449.04 431.16,-442.66 457.4,-437.52"/>
<polygon fill="midnightblue" stroke="midnightblue" points="370.1,-451.05 360.95,-456.41 371.44,-457.92 370.1,-451.05"/>
</g>
</g>
</svg>
