<?xml version="1.0" encoding="UTF-8" standalone="no"?>
<!DOCTYPE svg PUBLIC "-//W3C//DTD SVG 1.1//EN"
 "http://www.w3.org/Graphics/SVG/1.1/DTD/svg11.dtd">
<!-- Generated by graphviz version 2.43.0 (0)
 -->
<!-- Title: Graphical Class Hierarchy Pages: 1 -->
<svg width="224pt" height="218pt"
 viewBox="0.00 0.00 224.00 218.00" xmlns="http://www.w3.org/2000/svg" xmlns:xlink="http://www.w3.org/1999/xlink">
<g id="graph0" class="graph" transform="scale(1 1) rotate(0) translate(4 214)">
<title>Graphical Class Hierarchy</title>
<polygon fill="white" stroke="transparent" points="-4,4 -4,-214 220,-214 220,4 -4,4"/>
<!-- Node0 -->
<g id="node1" class="node">
<title>Node0</title>
<g id="a_node1"><a xlink:href="d5/d70/classnap_1_1_o_s_c_base_value.html" target="_top" xlink:title=" ">
<polygon fill="white" stroke="black" points="0,-95.5 0,-114.5 88,-114.5 88,-95.5 0,-95.5"/>
<text text-anchor="middle" x="44" y="-102.5" font-family="Helvetica,sans-Serif" font-size="10.00">OSCBaseValue</text>
</a>
</g>
</g>
<!-- Node1 -->
<g id="node2" class="node">
<title>Node1</title>
<g id="a_node2"><a xlink:href="d7/d55/classnap_1_1_o_s_c_blob.html" target="_top" xlink:title=" ">
<polygon fill="white" stroke="black" points="140.5,-190.5 140.5,-209.5 199.5,-209.5 199.5,-190.5 140.5,-190.5"/>
<text text-anchor="middle" x="170" y="-197.5" font-family="Helvetica,sans-Serif" font-size="10.00">OSCBlob</text>
</a>
</g>
</g>
<!-- Node0&#45;&gt;Node1 -->
<g id="edge1" class="edge">
<title>Node0&#45;&gt;Node1</title>
<path fill="none" stroke="midnightblue" d="M59.72,-122.49C74.57,-139.26 98.83,-164.41 124,-181 129.52,-184.64 135.86,-187.83 142,-190.5"/>
<polygon fill="midnightblue" stroke="midnightblue" points="62.05,-119.83 52.86,-114.57 56.76,-124.42 62.05,-119.83"/>
</g>
<!-- Node2 -->
<g id="node3" class="node">
<title>Node2</title>
<g id="a_node3"><a xlink:href="d9/d08/classnap_1_1_o_s_c_color.html" target="_top" xlink:title=" ">
<polygon fill="white" stroke="black" points="139,-152.5 139,-171.5 201,-171.5 201,-152.5 139,-152.5"/>
<text text-anchor="middle" x="170" y="-159.5" font-family="Helvetica,sans-Serif" font-size="10.00">OSCColor</text>
</a>
</g>
</g>
<!-- Node0&#45;&gt;Node2 -->
<g id="edge2" class="edge">
<title>Node0&#45;&gt;Node2</title>
<path fill="none" stroke="midnightblue" d="M73.58,-119.16C88.52,-126.46 107.16,-135.4 124,-143 130.96,-146.14 138.58,-149.42 145.55,-152.35"/>
<polygon fill="midnightblue" stroke="midnightblue" points="74.87,-115.9 64.36,-114.64 71.79,-122.18 74.87,-115.9"/>
</g>
<!-- Node3 -->
<g id="node4" class="node">
<title>Node3</title>
<g id="a_node4"><a xlink:href="d3/d0f/classnap_1_1_o_s_c_nil.html" target="_top" xlink:title=" ">
<polygon fill="white" stroke="black" points="145,-114.5 145,-133.5 195,-133.5 195,-114.5 145,-114.5"/>
<text text-anchor="middle" x="170" y="-121.5" font-family="Helvetica,sans-Serif" font-size="10.00">OSCNil</text>
</a>
</g>
</g>
<!-- Node0&#45;&gt;Node3 -->
<g id="edge3" class="edge">
<title>Node0&#45;&gt;Node3</title>
<path fill="none" stroke="midnightblue" d="M98.02,-113.12C114.33,-115.62 131.49,-118.25 144.84,-120.3"/>
<polygon fill="midnightblue" stroke="midnightblue" points="98.44,-109.65 88.02,-111.59 97.38,-116.57 98.44,-109.65"/>
</g>
<!-- Node4 -->
<g id="node5" class="node">
<title>Node4</title>
<g id="a_node5"><a xlink:href="d5/d18/classnap_1_1_o_s_c_string.html" target="_top" xlink:title=" ">
<polygon fill="white" stroke="black" points="137.5,-76.5 137.5,-95.5 202.5,-95.5 202.5,-76.5 137.5,-76.5"/>
<text text-anchor="middle" x="170" y="-83.5" font-family="Helvetica,sans-Serif" font-size="10.00">OSCString</text>
</a>
</g>
</g>
<!-- Node0&#45;&gt;Node4 -->
<g id="edge4" class="edge">
<title>Node0&#45;&gt;Node4</title>
<path fill="none" stroke="midnightblue" d="M98.11,-96.86C111.49,-94.81 125.44,-92.67 137.39,-90.84"/>
<polygon fill="midnightblue" stroke="midnightblue" points="97.38,-93.43 88.02,-98.41 98.44,-100.35 97.38,-93.43"/>
</g>
<!-- Node5 -->
<g id="node6" class="node">
<title>Node5</title>
<g id="a_node6"><a xlink:href="d1/d51/classnap_1_1_o_s_c_time_tag.html" target="_top" xlink:title=" ">
<polygon fill="white" stroke="black" points="131,-38.5 131,-57.5 209,-57.5 209,-38.5 131,-38.5"/>
<text text-anchor="middle" x="170" y="-45.5" font-family="Helvetica,sans-Serif" font-size="10.00">OSCTimeTag</text>
</a>
</g>
</g>
<!-- Node0&#45;&gt;Node5 -->
<g id="edge5" class="edge">
<title>Node0&#45;&gt;Node5</title>
<path fill="none" stroke="midnightblue" d="M73.58,-90.84C88.52,-83.54 107.16,-74.6 124,-67 130.96,-63.86 138.58,-60.58 145.55,-57.65"/>
<polygon fill="midnightblue" stroke="midnightblue" points="71.79,-87.82 64.36,-95.36 74.87,-94.1 71.79,-87.82"/>
</g>
<!-- Node6 -->
<g id="node7" class="node">
<title>Node6</title>
<g id="a_node7"><a xlink:href="d6/d4b/classnap_1_1_o_s_c_value.html" target="_top" xlink:title=" ">
<polygon fill="white" stroke="black" points="124,-0.5 124,-19.5 216,-19.5 216,-0.5 124,-0.5"/>
<text text-anchor="middle" x="170" y="-7.5" font-family="Helvetica,sans-Serif" font-size="10.00">OSCValue&lt; T &gt;</text>
</a>
</g>
</g>
<!-- Node0&#45;&gt;Node6 -->
<g id="edge6" class="edge">
<title>Node0&#45;&gt;Node6</title>
<path fill="none" stroke="midnightblue" d="M59.72,-87.51C74.57,-70.74 98.83,-45.59 124,-29 129.52,-25.36 135.86,-22.17 142,-19.5"/>
<polygon fill="midnightblue" stroke="midnightblue" points="56.76,-85.58 52.86,-95.43 62.05,-90.17 56.76,-85.58"/>
</g>
</g>
</svg>
