<?xml version="1.0" encoding="UTF-8" standalone="no"?>
<!DOCTYPE svg PUBLIC "-//W3C//DTD SVG 1.1//EN"
 "http://www.w3.org/Graphics/SVG/1.1/DTD/svg11.dtd">
<!-- Generated by graphviz version 2.48.0 (20210717.1556)
 -->
<!-- Title: Graphical Class Hierarchy Pages: 1 -->
<svg width="303pt" height="1168pt"
 viewBox="0.00 0.00 303.00 1168.00" xmlns="http://www.w3.org/2000/svg" xmlns:xlink="http://www.w3.org/1999/xlink">
<g id="graph0" class="graph" transform="scale(1 1) rotate(0) translate(4 1164)">
<title>Graphical Class Hierarchy</title>
<polygon fill="white" stroke="transparent" points="-4,4 -4,-1164 299,-1164 299,4 -4,4"/>
<!-- Node0 -->
<g id="node1" class="node">
<title>Node0</title>
<g id="a_node1"><a xlink:href="d2/dbb/classnap_1_1_tween_ease_base.html" target="_top" xlink:title="TweenEaseBase\&lt; T \&gt;">
<polygon fill="white" stroke="black" points="0,-570.5 0,-589.5 113,-589.5 113,-570.5 0,-570.5"/>
<text text-anchor="middle" x="56.5" y="-577.5" font-family="Helvetica,sans-Serif" font-size="10.00">TweenEaseBase&lt; T &gt;</text>
</a>
</g>
</g>
<!-- Node1 -->
<g id="node2" class="node">
<title>Node1</title>
<g id="a_node2"><a xlink:href="da/dad/classnap_1_1_tween_ease_in_back.html" target="_top" xlink:title="TweenEaseInBack\&lt; T \&gt;">
<polygon fill="white" stroke="black" points="162,-1140.5 162,-1159.5 282,-1159.5 282,-1140.5 162,-1140.5"/>
<text text-anchor="middle" x="222" y="-1147.5" font-family="Helvetica,sans-Serif" font-size="10.00">TweenEaseInBack&lt; T &gt;</text>
</a>
</g>
</g>
<!-- Node0&#45;&gt;Node1 -->
<g id="edge1" class="edge">
<title>Node0&#45;&gt;Node1</title>
<path fill="none" stroke="midnightblue" d="M58,-599.7C60.64,-688.5 75.82,-1050.64 149,-1131 152.66,-1135.01 157.05,-1138.22 161.84,-1140.78"/>
<polygon fill="midnightblue" stroke="midnightblue" points="61.49,-599.55 57.72,-589.65 54.5,-599.74 61.49,-599.55"/>
</g>
<!-- Node2 -->
<g id="node3" class="node">
<title>Node2</title>
<g id="a_node3"><a xlink:href="d0/d1e/classnap_1_1_tween_ease_in_bounce.html" target="_top" xlink:title="TweenEaseInBounce\&lt; T \&gt;">
<polygon fill="white" stroke="black" points="156.5,-1102.5 156.5,-1121.5 287.5,-1121.5 287.5,-1102.5 156.5,-1102.5"/>
<text text-anchor="middle" x="222" y="-1109.5" font-family="Helvetica,sans-Serif" font-size="10.00">TweenEaseInBounce&lt; T &gt;</text>
</a>
</g>
</g>
<!-- Node0&#45;&gt;Node2 -->
<g id="edge2" class="edge">
<title>Node0&#45;&gt;Node2</title>
<path fill="none" stroke="midnightblue" d="M58.27,-599.95C61.98,-685.33 80.71,-1018.91 149,-1093 152.5,-1096.8 156.67,-1099.88 161.21,-1102.37"/>
<polygon fill="midnightblue" stroke="midnightblue" points="61.76,-599.65 57.85,-589.8 54.77,-599.94 61.76,-599.65"/>
</g>
<!-- Node3 -->
<g id="node4" class="node">
<title>Node3</title>
<g id="a_node4"><a xlink:href="d6/d7a/classnap_1_1_tween_ease_in_circ.html" target="_top" xlink:title="TweenEaseInCirc\&lt; T \&gt;">
<polygon fill="white" stroke="black" points="164.5,-1064.5 164.5,-1083.5 279.5,-1083.5 279.5,-1064.5 164.5,-1064.5"/>
<text text-anchor="middle" x="222" y="-1071.5" font-family="Helvetica,sans-Serif" font-size="10.00">TweenEaseInCirc&lt; T &gt;</text>
</a>
</g>
</g>
<!-- Node0&#45;&gt;Node3 -->
<g id="edge3" class="edge">
<title>Node0&#45;&gt;Node3</title>
<path fill="none" stroke="midnightblue" d="M58.6,-600.27C63.46,-682.12 85.6,-987.16 149,-1055 153.33,-1059.63 158.63,-1063.18 164.39,-1065.9"/>
<polygon fill="midnightblue" stroke="midnightblue" points="62.07,-599.65 58.01,-589.86 55.08,-600.05 62.07,-599.65"/>
</g>
<!-- Node4 -->
<g id="node5" class="node">
<title>Node4</title>
<g id="a_node5"><a xlink:href="d6/dba/classnap_1_1_tween_ease_in_cubic.html" target="_top" xlink:title="TweenEaseInCubic\&lt; T \&gt;">
<polygon fill="white" stroke="black" points="161,-1026.5 161,-1045.5 283,-1045.5 283,-1026.5 161,-1026.5"/>
<text text-anchor="middle" x="222" y="-1033.5" font-family="Helvetica,sans-Serif" font-size="10.00">TweenEaseInCubic&lt; T &gt;</text>
</a>
</g>
</g>
<!-- Node0&#45;&gt;Node4 -->
<g id="edge4" class="edge">
<title>Node0&#45;&gt;Node4</title>
<path fill="none" stroke="midnightblue" d="M58.96,-600.12C64.98,-677.58 90.36,-955.25 149,-1017 152.65,-1020.84 156.98,-1023.94 161.67,-1026.44"/>
<polygon fill="midnightblue" stroke="midnightblue" points="62.43,-599.54 58.18,-589.83 55.44,-600.07 62.43,-599.54"/>
</g>
<!-- Node5 -->
<g id="node6" class="node">
<title>Node5</title>
<g id="a_node6"><a xlink:href="db/d58/classnap_1_1_tween_ease_in_elastic.html" target="_top" xlink:title="TweenEaseInElastic\&lt; T \&gt;">
<polygon fill="white" stroke="black" points="158,-988.5 158,-1007.5 286,-1007.5 286,-988.5 158,-988.5"/>
<text text-anchor="middle" x="222" y="-995.5" font-family="Helvetica,sans-Serif" font-size="10.00">TweenEaseInElastic&lt; T &gt;</text>
</a>
</g>
</g>
<!-- Node0&#45;&gt;Node5 -->
<g id="edge5" class="edge">
<title>Node0&#45;&gt;Node5</title>
<path fill="none" stroke="midnightblue" d="M59.36,-599.76C66.57,-672.4 95.04,-923.26 149,-979 152.69,-982.81 157.04,-985.88 161.75,-988.36"/>
<polygon fill="midnightblue" stroke="midnightblue" points="62.83,-599.31 58.38,-589.69 55.86,-599.98 62.83,-599.31"/>
</g>
<!-- Node6 -->
<g id="node7" class="node">
<title>Node6</title>
<g id="a_node7"><a xlink:href="da/d3c/classnap_1_1_tween_ease_in_expo.html" target="_top" xlink:title="TweenEaseInExpo\&lt; T \&gt;">
<polygon fill="white" stroke="black" points="162,-950.5 162,-969.5 282,-969.5 282,-950.5 162,-950.5"/>
<text text-anchor="middle" x="222" y="-957.5" font-family="Helvetica,sans-Serif" font-size="10.00">TweenEaseInExpo&lt; T &gt;</text>
</a>
</g>
</g>
<!-- Node0&#45;&gt;Node6 -->
<g id="edge6" class="edge">
<title>Node0&#45;&gt;Node6</title>
<path fill="none" stroke="midnightblue" d="M59.9,-600.05C68.5,-668.49 99.87,-891.38 149,-941 152.82,-944.86 157.33,-947.96 162.19,-950.45"/>
<polygon fill="midnightblue" stroke="midnightblue" points="63.34,-599.28 58.64,-589.79 56.39,-600.14 63.34,-599.28"/>
</g>
<!-- Node7 -->
<g id="node8" class="node">
<title>Node7</title>
<g id="a_node8"><a xlink:href="dd/d28/classnap_1_1_tween_ease_in_out_back.html" target="_top" xlink:title="TweenEaseInOutBack\&lt; T \&gt;">
<polygon fill="white" stroke="black" points="154,-912.5 154,-931.5 290,-931.5 290,-912.5 154,-912.5"/>
<text text-anchor="middle" x="222" y="-919.5" font-family="Helvetica,sans-Serif" font-size="10.00">TweenEaseInOutBack&lt; T &gt;</text>
</a>
</g>
</g>
<!-- Node0&#45;&gt;Node7 -->
<g id="edge7" class="edge">
<title>Node0&#45;&gt;Node7</title>
<path fill="none" stroke="midnightblue" d="M56.83,-599.93C56.1,-656.18 62.04,-817.6 149,-903 152.87,-906.8 157.41,-909.87 162.3,-912.34"/>
<polygon fill="midnightblue" stroke="midnightblue" points="60.34,-599.67 57.07,-589.59 53.34,-599.51 60.34,-599.67"/>
</g>
<!-- Node8 -->
<g id="node9" class="node">
<title>Node8</title>
<g id="a_node9"><a xlink:href="df/de2/classnap_1_1_tween_ease_in_out_bounce.html" target="_top" xlink:title="TweenEaseInOutBounce\&lt; T \&gt;">
<polygon fill="white" stroke="black" points="149,-874.5 149,-893.5 295,-893.5 295,-874.5 149,-874.5"/>
<text text-anchor="middle" x="222" y="-881.5" font-family="Helvetica,sans-Serif" font-size="10.00">TweenEaseInOutBounce&lt; T &gt;</text>
</a>
</g>
</g>
<!-- Node0&#45;&gt;Node8 -->
<g id="edge8" class="edge">
<title>Node0&#45;&gt;Node8</title>
<path fill="none" stroke="midnightblue" d="M57.71,-599.64C59.37,-651.15 71.19,-791.18 149,-865 153.03,-868.83 157.74,-871.9 162.79,-874.37"/>
<polygon fill="midnightblue" stroke="midnightblue" points="61.21,-599.46 57.48,-589.54 54.21,-599.62 61.21,-599.46"/>
</g>
<!-- Node9 -->
<g id="node10" class="node">
<title>Node9</title>
<g id="a_node10"><a xlink:href="d7/d8c/classnap_1_1_tween_ease_in_out_circ.html" target="_top" xlink:title="TweenEaseInOutCirc\&lt; T \&gt;">
<polygon fill="white" stroke="black" points="156.5,-836.5 156.5,-855.5 287.5,-855.5 287.5,-836.5 156.5,-836.5"/>
<text text-anchor="middle" x="222" y="-843.5" font-family="Helvetica,sans-Serif" font-size="10.00">TweenEaseInOutCirc&lt; T &gt;</text>
</a>
</g>
</g>
<!-- Node0&#45;&gt;Node9 -->
<g id="edge9" class="edge">
<title>Node0&#45;&gt;Node9</title>
<path fill="none" stroke="midnightblue" d="M58.82,-599.51C63.04,-646.11 80.33,-764.68 149,-827 153.21,-830.82 158.1,-833.89 163.32,-836.36"/>
<polygon fill="midnightblue" stroke="midnightblue" points="62.3,-599.21 58.02,-589.52 55.33,-599.76 62.3,-599.21"/>
</g>
<!-- Node10 -->
<g id="node11" class="node">
<title>Node10</title>
<g id="a_node11"><a xlink:href="de/d30/classnap_1_1_tween_ease_in_out_cubic.html" target="_top" xlink:title="TweenEaseInOutCubic\&lt; T \&gt;">
<polygon fill="white" stroke="black" points="153,-798.5 153,-817.5 291,-817.5 291,-798.5 153,-798.5"/>
<text text-anchor="middle" x="222" y="-805.5" font-family="Helvetica,sans-Serif" font-size="10.00">TweenEaseInOutCubic&lt; T &gt;</text>
</a>
</g>
</g>
<!-- Node0&#45;&gt;Node10 -->
<g id="edge10" class="edge">
<title>Node0&#45;&gt;Node10</title>
<path fill="none" stroke="midnightblue" d="M60.3,-599.56C67.3,-641 89.47,-738.03 149,-789 153.52,-792.87 158.74,-795.96 164.26,-798.43"/>
<polygon fill="midnightblue" stroke="midnightblue" points="63.75,-598.97 58.74,-589.64 56.84,-600.06 63.75,-598.97"/>
</g>
<!-- Node11 -->
<g id="node12" class="node">
<title>Node11</title>
<g id="a_node12"><a xlink:href="dd/dc8/classnap_1_1_tween_ease_in_out_elastic.html" target="_top" xlink:title="TweenEaseInOutElastic\&lt; T \&gt;">
<polygon fill="white" stroke="black" points="150.5,-760.5 150.5,-779.5 293.5,-779.5 293.5,-760.5 150.5,-760.5"/>
<text text-anchor="middle" x="222" y="-767.5" font-family="Helvetica,sans-Serif" font-size="10.00">TweenEaseInOutElastic&lt; T &gt;</text>
</a>
</g>
</g>
<!-- Node0&#45;&gt;Node11 -->
<g id="edge11" class="edge">
<title>Node0&#45;&gt;Node11</title>
<path fill="none" stroke="midnightblue" d="M62.41,-599.64C72.38,-635.39 98.48,-711.08 149,-751 153.87,-754.85 159.44,-757.92 165.29,-760.37"/>
<polygon fill="midnightblue" stroke="midnightblue" points="65.77,-598.68 59.82,-589.91 59.01,-600.47 65.77,-598.68"/>
</g>
<!-- Node12 -->
<g id="node13" class="node">
<title>Node12</title>
<g id="a_node13"><a xlink:href="d3/d2b/classnap_1_1_tween_ease_in_out_expo.html" target="_top" xlink:title="TweenEaseInOutExpo\&lt; T \&gt;">
<polygon fill="white" stroke="black" points="154,-722.5 154,-741.5 290,-741.5 290,-722.5 154,-722.5"/>
<text text-anchor="middle" x="222" y="-729.5" font-family="Helvetica,sans-Serif" font-size="10.00">TweenEaseInOutExpo&lt; T &gt;</text>
</a>
</g>
</g>
<!-- Node0&#45;&gt;Node12 -->
<g id="edge12" class="edge">
<title>Node0&#45;&gt;Node12</title>
<path fill="none" stroke="midnightblue" d="M65.43,-599.28C78.45,-628.46 107.15,-683.56 149,-713 154.5,-716.87 160.73,-719.95 167.18,-722.4"/>
<polygon fill="midnightblue" stroke="midnightblue" points="68.52,-597.6 61.35,-589.8 62.09,-600.37 68.52,-597.6"/>
</g>
<!-- Node13 -->
<g id="node14" class="node">
<title>Node13</title>
<g id="a_node14"><a xlink:href="df/dc4/classnap_1_1_tween_ease_in_out_quad.html" target="_top" xlink:title="TweenEaseInOutQuad\&lt; T \&gt;">
<polygon fill="white" stroke="black" points="153.5,-684.5 153.5,-703.5 290.5,-703.5 290.5,-684.5 153.5,-684.5"/>
<text text-anchor="middle" x="222" y="-691.5" font-family="Helvetica,sans-Serif" font-size="10.00">TweenEaseInOutQuad&lt; T &gt;</text>
</a>
</g>
</g>
<!-- Node0&#45;&gt;Node13 -->
<g id="edge13" class="edge">
<title>Node0&#45;&gt;Node13</title>
<path fill="none" stroke="midnightblue" d="M70,-598.05C85.88,-619.6 115.31,-655.21 149,-675 155.58,-678.86 162.95,-681.95 170.39,-684.43"/>
<polygon fill="midnightblue" stroke="midnightblue" points="72.73,-595.84 64.05,-589.76 67.04,-599.92 72.73,-595.84"/>
</g>
<!-- Node14 -->
<g id="node15" class="node">
<title>Node14</title>
<g id="a_node15"><a xlink:href="d0/d12/classnap_1_1_tween_ease_in_out_quart.html" target="_top" xlink:title="TweenEaseInOutQuart\&lt; T \&gt;">
<polygon fill="white" stroke="black" points="153.5,-646.5 153.5,-665.5 290.5,-665.5 290.5,-646.5 153.5,-646.5"/>
<text text-anchor="middle" x="222" y="-653.5" font-family="Helvetica,sans-Serif" font-size="10.00">TweenEaseInOutQuart&lt; T &gt;</text>
</a>
</g>
</g>
<!-- Node0&#45;&gt;Node14 -->
<g id="edge14" class="edge">
<title>Node0&#45;&gt;Node14</title>
<path fill="none" stroke="midnightblue" d="M78.67,-595.75C96.59,-608.45 123.39,-625.94 149,-637 157.66,-640.74 167.24,-643.89 176.51,-646.49"/>
<polygon fill="midnightblue" stroke="midnightblue" points="80.31,-592.62 70.15,-589.61 76.22,-598.3 80.31,-592.62"/>
</g>
<!-- Node15 -->
<g id="node16" class="node">
<title>Node15</title>
<g id="a_node16"><a xlink:href="de/d99/classnap_1_1_tween_ease_in_out_quint.html" target="_top" xlink:title="TweenEaseInOutQuint\&lt; T \&gt;">
<polygon fill="white" stroke="black" points="153.5,-608.5 153.5,-627.5 290.5,-627.5 290.5,-608.5 153.5,-608.5"/>
<text text-anchor="middle" x="222" y="-615.5" font-family="Helvetica,sans-Serif" font-size="10.00">TweenEaseInOutQuint&lt; T &gt;</text>
</a>
</g>
</g>
<!-- Node0&#45;&gt;Node15 -->
<g id="edge15" class="edge">
<title>Node0&#45;&gt;Node15</title>
<path fill="none" stroke="midnightblue" d="M108.68,-591.9C131.67,-597.24 158.41,-603.45 180.04,-608.48"/>
<polygon fill="midnightblue" stroke="midnightblue" points="109.29,-588.44 98.76,-589.59 107.71,-595.26 109.29,-588.44"/>
</g>
<!-- Node16 -->
<g id="node17" class="node">
<title>Node16</title>
<g id="a_node17"><a xlink:href="d1/d4b/classnap_1_1_tween_ease_in_out_sine.html" target="_top" xlink:title="TweenEaseInOutSine\&lt; T \&gt;">
<polygon fill="white" stroke="black" points="155.5,-570.5 155.5,-589.5 288.5,-589.5 288.5,-570.5 155.5,-570.5"/>
<text text-anchor="middle" x="222" y="-577.5" font-family="Helvetica,sans-Serif" font-size="10.00">TweenEaseInOutSine&lt; T &gt;</text>
</a>
</g>
</g>
<!-- Node0&#45;&gt;Node16 -->
<g id="edge16" class="edge">
<title>Node0&#45;&gt;Node16</title>
<path fill="none" stroke="midnightblue" d="M123.61,-580C134.06,-580 144.86,-580 155.29,-580"/>
<polygon fill="midnightblue" stroke="midnightblue" points="123.31,-576.5 113.31,-580 123.31,-583.5 123.31,-576.5"/>
</g>
<!-- Node17 -->
<g id="node18" class="node">
<title>Node17</title>
<g id="a_node18"><a xlink:href="dd/da1/classnap_1_1_tween_ease_in_quad.html" target="_top" xlink:title="TweenEaseInQuad\&lt; T \&gt;">
<polygon fill="white" stroke="black" points="161.5,-532.5 161.5,-551.5 282.5,-551.5 282.5,-532.5 161.5,-532.5"/>
<text text-anchor="middle" x="222" y="-539.5" font-family="Helvetica,sans-Serif" font-size="10.00">TweenEaseInQuad&lt; T &gt;</text>
</a>
</g>
</g>
<!-- Node0&#45;&gt;Node17 -->
<g id="edge17" class="edge">
<title>Node0&#45;&gt;Node17</title>
<path fill="none" stroke="midnightblue" d="M108.68,-568.1C131.67,-562.76 158.41,-556.55 180.04,-551.52"/>
<polygon fill="midnightblue" stroke="midnightblue" points="107.71,-564.74 98.76,-570.41 109.29,-571.56 107.71,-564.74"/>
</g>
<!-- Node18 -->
<g id="node19" class="node">
<title>Node18</title>
<g id="a_node19"><a xlink:href="df/d64/classnap_1_1_tween_ease_in_quart.html" target="_top" xlink:title="TweenEaseInQuart\&lt; T \&gt;">
<polygon fill="white" stroke="black" points="161,-494.5 161,-513.5 283,-513.5 283,-494.5 161,-494.5"/>
<text text-anchor="middle" x="222" y="-501.5" font-family="Helvetica,sans-Serif" font-size="10.00">TweenEaseInQuart&lt; T &gt;</text>
</a>
</g>
</g>
<!-- Node0&#45;&gt;Node18 -->
<g id="edge18" class="edge">
<title>Node0&#45;&gt;Node18</title>
<path fill="none" stroke="midnightblue" d="M78.67,-564.25C96.59,-551.55 123.39,-534.06 149,-523 157.66,-519.26 167.24,-516.11 176.51,-513.51"/>
<polygon fill="midnightblue" stroke="midnightblue" points="76.22,-561.7 70.15,-570.39 80.31,-567.38 76.22,-561.7"/>
</g>
<!-- Node19 -->
<g id="node20" class="node">
<title>Node19</title>
<g id="a_node20"><a xlink:href="d8/d83/classnap_1_1_tween_ease_in_quint.html" target="_top" xlink:title="TweenEaseInQuint\&lt; T \&gt;">
<polygon fill="white" stroke="black" points="161.5,-456.5 161.5,-475.5 282.5,-475.5 282.5,-456.5 161.5,-456.5"/>
<text text-anchor="middle" x="222" y="-463.5" font-family="Helvetica,sans-Serif" font-size="10.00">TweenEaseInQuint&lt; T &gt;</text>
</a>
</g>
</g>
<!-- Node0&#45;&gt;Node19 -->
<g id="edge19" class="edge">
<title>Node0&#45;&gt;Node19</title>
<path fill="none" stroke="midnightblue" d="M70,-561.95C85.88,-540.4 115.31,-504.79 149,-485 155.58,-481.14 162.95,-478.05 170.39,-475.57"/>
<polygon fill="midnightblue" stroke="midnightblue" points="67.04,-560.08 64.05,-570.24 72.73,-564.16 67.04,-560.08"/>
</g>
<!-- Node20 -->
<g id="node21" class="node">
<title>Node20</title>
<g id="a_node21"><a xlink:href="d6/d2b/classnap_1_1_tween_ease_in_sine.html" target="_top" xlink:title="TweenEaseInSine\&lt; T \&gt;">
<polygon fill="white" stroke="black" points="163.5,-418.5 163.5,-437.5 280.5,-437.5 280.5,-418.5 163.5,-418.5"/>
<text text-anchor="middle" x="222" y="-425.5" font-family="Helvetica,sans-Serif" font-size="10.00">TweenEaseInSine&lt; T &gt;</text>
</a>
</g>
</g>
<!-- Node0&#45;&gt;Node20 -->
<g id="edge20" class="edge">
<title>Node0&#45;&gt;Node20</title>
<path fill="none" stroke="midnightblue" d="M65.43,-560.72C78.45,-531.54 107.15,-476.44 149,-447 154.5,-443.13 160.73,-440.05 167.18,-437.6"/>
<polygon fill="midnightblue" stroke="midnightblue" points="62.09,-559.63 61.35,-570.2 68.52,-562.4 62.09,-559.63"/>
</g>
<!-- Node21 -->
<g id="node22" class="node">
<title>Node21</title>
<g id="a_node22"><a xlink:href="d6/d91/classnap_1_1_tween_ease_linear.html" target="_top" xlink:title="TweenEaseLinear\&lt; T \&gt;">
<polygon fill="white" stroke="black" points="164,-380.5 164,-399.5 280,-399.5 280,-380.5 164,-380.5"/>
<text text-anchor="middle" x="222" y="-387.5" font-family="Helvetica,sans-Serif" font-size="10.00">TweenEaseLinear&lt; T &gt;</text>
</a>
</g>
</g>
<!-- Node0&#45;&gt;Node21 -->
<g id="edge21" class="edge">
<title>Node0&#45;&gt;Node21</title>
<path fill="none" stroke="midnightblue" d="M62.41,-560.36C72.38,-524.61 98.48,-448.92 149,-409 153.87,-405.15 159.44,-402.08 165.29,-399.63"/>
<polygon fill="midnightblue" stroke="midnightblue" points="59.01,-559.53 59.82,-570.09 65.77,-561.32 59.01,-559.53"/>
</g>
<!-- Node22 -->
<g id="node23" class="node">
<title>Node22</title>
<g id="a_node23"><a xlink:href="d3/d08/classnap_1_1_tween_ease_out_back.html" target="_top" xlink:title="TweenEaseOutBack\&lt; T \&gt;">
<polygon fill="white" stroke="black" points="158,-342.5 158,-361.5 286,-361.5 286,-342.5 158,-342.5"/>
<text text-anchor="middle" x="222" y="-349.5" font-family="Helvetica,sans-Serif" font-size="10.00">TweenEaseOutBack&lt; T &gt;</text>
</a>
</g>
</g>
<!-- Node0&#45;&gt;Node22 -->
<g id="edge22" class="edge">
<title>Node0&#45;&gt;Node22</title>
<path fill="none" stroke="midnightblue" d="M60.3,-560.44C67.3,-519 89.47,-421.97 149,-371 153.52,-367.13 158.74,-364.04 164.26,-361.57"/>
<polygon fill="midnightblue" stroke="midnightblue" points="56.84,-559.94 58.74,-570.36 63.75,-561.03 56.84,-559.94"/>
</g>
<!-- Node23 -->
<g id="node24" class="node">
<title>Node23</title>
<g id="a_node24"><a xlink:href="d6/d42/classnap_1_1_tween_ease_out_bounce.html" target="_top" xlink:title="TweenEaseOutBounce\&lt; T \&gt;">
<polygon fill="white" stroke="black" points="152.5,-304.5 152.5,-323.5 291.5,-323.5 291.5,-304.5 152.5,-304.5"/>
<text text-anchor="middle" x="222" y="-311.5" font-family="Helvetica,sans-Serif" font-size="10.00">TweenEaseOutBounce&lt; T &gt;</text>
</a>
</g>
</g>
<!-- Node0&#45;&gt;Node23 -->
<g id="edge23" class="edge">
<title>Node0&#45;&gt;Node23</title>
<path fill="none" stroke="midnightblue" d="M58.82,-560.49C63.04,-513.89 80.33,-395.32 149,-333 153.21,-329.18 158.1,-326.11 163.32,-323.64"/>
<polygon fill="midnightblue" stroke="midnightblue" points="55.33,-560.24 58.02,-570.48 62.3,-560.79 55.33,-560.24"/>
</g>
<!-- Node24 -->
<g id="node25" class="node">
<title>Node24</title>
<g id="a_node25"><a xlink:href="de/d99/classnap_1_1_tween_ease_out_circ.html" target="_top" xlink:title="TweenEaseOutCirc\&lt; T \&gt;">
<polygon fill="white" stroke="black" points="160.5,-266.5 160.5,-285.5 283.5,-285.5 283.5,-266.5 160.5,-266.5"/>
<text text-anchor="middle" x="222" y="-273.5" font-family="Helvetica,sans-Serif" font-size="10.00">TweenEaseOutCirc&lt; T &gt;</text>
</a>
</g>
</g>
<!-- Node0&#45;&gt;Node24 -->
<g id="edge24" class="edge">
<title>Node0&#45;&gt;Node24</title>
<path fill="none" stroke="midnightblue" d="M57.71,-560.36C59.37,-508.85 71.19,-368.82 149,-295 153.03,-291.17 157.74,-288.1 162.79,-285.63"/>
<polygon fill="midnightblue" stroke="midnightblue" points="54.21,-560.38 57.48,-570.46 61.21,-560.54 54.21,-560.38"/>
</g>
<!-- Node25 -->
<g id="node26" class="node">
<title>Node25</title>
<g id="a_node26"><a xlink:href="dc/d9c/classnap_1_1_tween_ease_out_cubic.html" target="_top" xlink:title="TweenEaseOutCubic\&lt; T \&gt;">
<polygon fill="white" stroke="black" points="156.5,-228.5 156.5,-247.5 287.5,-247.5 287.5,-228.5 156.5,-228.5"/>
<text text-anchor="middle" x="222" y="-235.5" font-family="Helvetica,sans-Serif" font-size="10.00">TweenEaseOutCubic&lt; T &gt;</text>
</a>
</g>
</g>
<!-- Node0&#45;&gt;Node25 -->
<g id="edge25" class="edge">
<title>Node0&#45;&gt;Node25</title>
<path fill="none" stroke="midnightblue" d="M56.83,-560.07C56.1,-503.82 62.04,-342.4 149,-257 152.87,-253.2 157.41,-250.13 162.3,-247.66"/>
<polygon fill="midnightblue" stroke="midnightblue" points="53.34,-560.49 57.07,-570.41 60.34,-560.33 53.34,-560.49"/>
</g>
<!-- Node26 -->
<g id="node27" class="node">
<title>Node26</title>
<g id="a_node27"><a xlink:href="d3/dc5/classnap_1_1_tween_ease_out_elastic.html" target="_top" xlink:title="TweenEaseOutElastic\&lt; T \&gt;">
<polygon fill="white" stroke="black" points="154,-190.5 154,-209.5 290,-209.5 290,-190.5 154,-190.5"/>
<text text-anchor="middle" x="222" y="-197.5" font-family="Helvetica,sans-Serif" font-size="10.00">TweenEaseOutElastic&lt; T &gt;</text>
</a>
</g>
</g>
<!-- Node0&#45;&gt;Node26 -->
<g id="edge26" class="edge">
<title>Node0&#45;&gt;Node26</title>
<path fill="none" stroke="midnightblue" d="M59.9,-559.95C68.5,-491.51 99.87,-268.62 149,-219 152.82,-215.14 157.33,-212.04 162.19,-209.55"/>
<polygon fill="midnightblue" stroke="midnightblue" points="56.39,-559.86 58.64,-570.21 63.34,-560.72 56.39,-559.86"/>
</g>
<!-- Node27 -->
<g id="node28" class="node">
<title>Node27</title>
<g id="a_node28"><a xlink:href="de/dbc/classnap_1_1_tween_ease_out_expo.html" target="_top" xlink:title="TweenEaseOutExpo\&lt; T \&gt;">
<polygon fill="white" stroke="black" points="158,-152.5 158,-171.5 286,-171.5 286,-152.5 158,-152.5"/>
<text text-anchor="middle" x="222" y="-159.5" font-family="Helvetica,sans-Serif" font-size="10.00">TweenEaseOutExpo&lt; T &gt;</text>
</a>
</g>
</g>
<!-- Node0&#45;&gt;Node27 -->
<g id="edge27" class="edge">
<title>Node0&#45;&gt;Node27</title>
<path fill="none" stroke="midnightblue" d="M59.36,-560.24C66.57,-487.6 95.04,-236.74 149,-181 152.69,-177.19 157.04,-174.12 161.75,-171.64"/>
<polygon fill="midnightblue" stroke="midnightblue" points="55.86,-560.02 58.38,-570.31 62.83,-560.69 55.86,-560.02"/>
</g>
<!-- Node28 -->
<g id="node29" class="node">
<title>Node28</title>
<g id="a_node29"><a xlink:href="d5/d17/classnap_1_1_tween_ease_out_quad.html" target="_top" xlink:title="TweenEaseOutQuad\&lt; T \&gt;">
<polygon fill="white" stroke="black" points="157.5,-114.5 157.5,-133.5 286.5,-133.5 286.5,-114.5 157.5,-114.5"/>
<text text-anchor="middle" x="222" y="-121.5" font-family="Helvetica,sans-Serif" font-size="10.00">TweenEaseOutQuad&lt; T &gt;</text>
</a>
</g>
</g>
<!-- Node0&#45;&gt;Node28 -->
<g id="edge28" class="edge">
<title>Node0&#45;&gt;Node28</title>
<path fill="none" stroke="midnightblue" d="M58.96,-559.88C64.98,-482.42 90.36,-204.75 149,-143 152.65,-139.16 156.98,-136.06 161.67,-133.56"/>
<polygon fill="midnightblue" stroke="midnightblue" points="55.44,-559.93 58.18,-570.17 62.43,-560.46 55.44,-559.93"/>
</g>
<!-- Node29 -->
<g id="node30" class="node">
<title>Node29</title>
<g id="a_node30"><a xlink:href="d8/d67/classnap_1_1_tween_ease_out_quart.html" target="_top" xlink:title="TweenEaseOutQuart\&lt; T \&gt;">
<polygon fill="white" stroke="black" points="157,-76.5 157,-95.5 287,-95.5 287,-76.5 157,-76.5"/>
<text text-anchor="middle" x="222" y="-83.5" font-family="Helvetica,sans-Serif" font-size="10.00">TweenEaseOutQuart&lt; T &gt;</text>
</a>
</g>
</g>
<!-- Node0&#45;&gt;Node29 -->
<g id="edge29" class="edge">
<title>Node0&#45;&gt;Node29</title>
<path fill="none" stroke="midnightblue" d="M58.6,-559.73C63.46,-477.88 85.6,-172.84 149,-105 152.53,-101.22 156.72,-98.16 161.26,-95.68"/>
<polygon fill="midnightblue" stroke="midnightblue" points="55.08,-559.95 58.01,-570.14 62.07,-560.35 55.08,-559.95"/>
</g>
<!-- Node30 -->
<g id="node31" class="node">
<title>Node30</title>
<g id="a_node31"><a xlink:href="d3/d13/classnap_1_1_tween_ease_out_quint.html" target="_top" xlink:title="TweenEaseOutQuint\&lt; T \&gt;">
<polygon fill="white" stroke="black" points="157.5,-38.5 157.5,-57.5 286.5,-57.5 286.5,-38.5 157.5,-38.5"/>
<text text-anchor="middle" x="222" y="-45.5" font-family="Helvetica,sans-Serif" font-size="10.00">TweenEaseOutQuint&lt; T &gt;</text>
</a>
</g>
</g>
<!-- Node0&#45;&gt;Node30 -->
<g id="edge30" class="edge">
<title>Node0&#45;&gt;Node30</title>
<path fill="none" stroke="midnightblue" d="M58.27,-560.05C61.98,-474.67 80.71,-141.09 149,-67 152.5,-63.2 156.67,-60.12 161.21,-57.63"/>
<polygon fill="midnightblue" stroke="midnightblue" points="54.77,-560.06 57.85,-570.2 61.76,-560.35 54.77,-560.06"/>
</g>
<!-- Node31 -->
<g id="node32" class="node">
<title>Node31</title>
<g id="a_node32"><a xlink:href="da/d97/classnap_1_1_tween_ease_out_sine.html" target="_top" xlink:title="TweenEaseOutSine\&lt; T \&gt;">
<polygon fill="white" stroke="black" points="159.5,-0.5 159.5,-19.5 284.5,-19.5 284.5,-0.5 159.5,-0.5"/>
<text text-anchor="middle" x="222" y="-7.5" font-family="Helvetica,sans-Serif" font-size="10.00">TweenEaseOutSine&lt; T &gt;</text>
</a>
</g>
</g>
<!-- Node0&#45;&gt;Node31 -->
<g id="edge31" class="edge">
<title>Node0&#45;&gt;Node31</title>
<path fill="none" stroke="midnightblue" d="M58,-560.3C60.64,-471.5 75.82,-109.36 149,-29 152.48,-25.18 156.63,-22.08 161.16,-19.59"/>
<polygon fill="midnightblue" stroke="midnightblue" points="54.5,-560.26 57.72,-570.35 61.49,-560.45 54.5,-560.26"/>
</g>
</g>
</svg>
