<?xml version="1.0" encoding="UTF-8" standalone="no"?>
<!DOCTYPE svg PUBLIC "-//W3C//DTD SVG 1.1//EN"
 "http://www.w3.org/Graphics/SVG/1.1/DTD/svg11.dtd">
<!-- Generated by graphviz version 2.48.0 (20210717.1556)
 -->
<!-- Title: Graphical Class Hierarchy Pages: 1 -->
<svg width="297pt" height="2334pt"
 viewBox="0.00 0.00 297.00 2333.50" xmlns="http://www.w3.org/2000/svg" xmlns:xlink="http://www.w3.org/1999/xlink">
<g id="graph0" class="graph" transform="scale(1 1) rotate(0) translate(4 2329.5)">
<title>Graphical Class Hierarchy</title>
<polygon fill="white" stroke="transparent" points="-4,4 -4,-2329.5 293,-2329.5 293,4 -4,4"/>
<!-- Node0 -->
<g id="node1" class="node">
<title>Node0</title>
<g id="a_node1"><a xlink:href="d7/dcb/classnap_1_1rtti_1_1_object_ptr_base.html" target="_top" xlink:title="ObjectPtrBase">
<polygon fill="white" stroke="black" points="0,-1175 0,-1194 80,-1194 80,-1175 0,-1175"/>
<text text-anchor="middle" x="40" y="-1182" font-family="Helvetica,sans-Serif" font-size="10.00">ObjectPtrBase</text>
</a>
</g>
</g>
<!-- Node1 -->
<g id="node2" class="node">
<title>Node1</title>
<g id="a_node2"><a xlink:href="dd/d7c/classnap_1_1rtti_1_1_object_ptr.html" target="_top" xlink:title="ObjectPtr\&lt; T \&gt;">
<polygon fill="white" stroke="black" points="162,-2306 162,-2325 243,-2325 243,-2306 162,-2306"/>
<text text-anchor="middle" x="202.5" y="-2313" font-family="Helvetica,sans-Serif" font-size="10.00">ObjectPtr&lt; T &gt;</text>
</a>
</g>
</g>
<!-- Node0&#45;&gt;Node1 -->
<g id="edge1" class="edge">
<title>Node0&#45;&gt;Node1</title>
<path fill="none" stroke="midnightblue" d="M40.93,-1204.61C40.65,-1347.86 42.03,-2210.4 116,-2296.5 127.2,-2309.53 145.17,-2314.76 161.75,-2316.54"/>
<polygon fill="midnightblue" stroke="midnightblue" points="44.44,-1204.28 40.96,-1194.27 37.44,-1204.26 44.44,-1204.28"/>
</g>
<!-- Node2 -->
<g id="node3" class="node">
<title>Node2</title>
<g id="a_node3"><a xlink:href="dd/d7c/classnap_1_1rtti_1_1_object_ptr.html" target="_top" xlink:title="ObjectPtr\&lt; ComponentType \&gt;">
<polygon fill="white" stroke="black" points="129.5,-2268 129.5,-2287 275.5,-2287 275.5,-2268 129.5,-2268"/>
<text text-anchor="middle" x="202.5" y="-2275" font-family="Helvetica,sans-Serif" font-size="10.00">ObjectPtr&lt; ComponentType &gt;</text>
</a>
</g>
</g>
<!-- Node0&#45;&gt;Node2 -->
<g id="edge2" class="edge">
<title>Node0&#45;&gt;Node2</title>
<path fill="none" stroke="midnightblue" d="M40.99,-1204.36C41.06,-1344.01 44.52,-2175.5 116,-2258.5 119.77,-2262.88 124.31,-2266.38 129.29,-2269.16"/>
<polygon fill="midnightblue" stroke="midnightblue" points="44.49,-1204.25 40.99,-1194.25 37.49,-1204.25 44.49,-1204.25"/>
</g>
<!-- Node3 -->
<g id="node4" class="node">
<title>Node3</title>
<g id="a_node4"><a xlink:href="dd/d7c/classnap_1_1rtti_1_1_object_ptr.html" target="_top" xlink:title="ObjectPtr\&lt; nap::audio\l::AudioBufferResource \&gt;">
<polygon fill="white" stroke="black" points="141.5,-2218.5 141.5,-2248.5 263.5,-2248.5 263.5,-2218.5 141.5,-2218.5"/>
<text text-anchor="start" x="149.5" y="-2236.5" font-family="Helvetica,sans-Serif" font-size="10.00">ObjectPtr&lt; nap::audio</text>
<text text-anchor="middle" x="202.5" y="-2225.5" font-family="Helvetica,sans-Serif" font-size="10.00">::AudioBufferResource &gt;</text>
</a>
</g>
</g>
<!-- Node0&#45;&gt;Node3 -->
<g id="edge3" class="edge">
<title>Node0&#45;&gt;Node3</title>
<path fill="none" stroke="midnightblue" d="M41.1,-1204.24C41.99,-1339.67 49.97,-2128.7 116,-2209.5 122.54,-2217.5 131.51,-2222.95 141.19,-2226.65"/>
<polygon fill="midnightblue" stroke="midnightblue" points="44.6,-1204.07 41.04,-1194.09 37.6,-1204.11 44.6,-1204.07"/>
</g>
<!-- Node4 -->
<g id="node5" class="node">
<title>Node4</title>
<g id="a_node5"><a xlink:href="dd/d7c/classnap_1_1rtti_1_1_object_ptr.html" target="_top" xlink:title="ObjectPtr\&lt; nap::audio\l::AudioComponentBase \&gt;">
<polygon fill="white" stroke="black" points="138.5,-2169.5 138.5,-2199.5 266.5,-2199.5 266.5,-2169.5 138.5,-2169.5"/>
<text text-anchor="start" x="146.5" y="-2187.5" font-family="Helvetica,sans-Serif" font-size="10.00">ObjectPtr&lt; nap::audio</text>
<text text-anchor="middle" x="202.5" y="-2176.5" font-family="Helvetica,sans-Serif" font-size="10.00">::AudioComponentBase &gt;</text>
</a>
</g>
</g>
<!-- Node0&#45;&gt;Node4 -->
<g id="edge4" class="edge">
<title>Node0&#45;&gt;Node4</title>
<path fill="none" stroke="midnightblue" d="M41.19,-1204.48C42.66,-1336.67 53.64,-2082.63 116,-2159.5 121.85,-2166.71 129.65,-2171.91 138.17,-2175.65"/>
<polygon fill="midnightblue" stroke="midnightblue" points="44.69,-1204.18 41.09,-1194.22 37.69,-1204.25 44.69,-1204.18"/>
</g>
<!-- Node5 -->
<g id="node6" class="node">
<title>Node5</title>
<g id="a_node6"><a xlink:href="dd/d7c/classnap_1_1rtti_1_1_object_ptr.html" target="_top" xlink:title="ObjectPtr\&lt; nap::Component \&gt;">
<polygon fill="white" stroke="black" points="129,-2131 129,-2150 276,-2150 276,-2131 129,-2131"/>
<text text-anchor="middle" x="202.5" y="-2138" font-family="Helvetica,sans-Serif" font-size="10.00">ObjectPtr&lt; nap::Component &gt;</text>
</a>
</g>
</g>
<!-- Node0&#45;&gt;Node5 -->
<g id="edge5" class="edge">
<title>Node0&#45;&gt;Node5</title>
<path fill="none" stroke="midnightblue" d="M41.2,-1204.54C42.68,-1334.05 53.68,-2049.86 116,-2121.5 119.69,-2125.74 124.1,-2129.16 128.95,-2131.89"/>
<polygon fill="midnightblue" stroke="midnightblue" points="44.7,-1204.12 41.09,-1194.16 37.7,-1204.19 44.7,-1204.12"/>
</g>
<!-- Node6 -->
<g id="node7" class="node">
<title>Node6</title>
<g id="a_node7"><a xlink:href="dd/d7c/classnap_1_1rtti_1_1_object_ptr.html" target="_top" xlink:title="ObjectPtr\&lt; nap::ComputeMaterial \&gt;">
<polygon fill="white" stroke="black" points="117,-2093 117,-2112 288,-2112 288,-2093 117,-2093"/>
<text text-anchor="middle" x="202.5" y="-2100" font-family="Helvetica,sans-Serif" font-size="10.00">ObjectPtr&lt; nap::ComputeMaterial &gt;</text>
</a>
</g>
</g>
<!-- Node0&#45;&gt;Node6 -->
<g id="edge6" class="edge">
<title>Node0&#45;&gt;Node6</title>
<path fill="none" stroke="midnightblue" d="M41.27,-1204.12C43.15,-1329.43 56.13,-2014.92 116,-2083.5 119.3,-2087.28 123.17,-2090.4 127.41,-2092.97"/>
<polygon fill="midnightblue" stroke="midnightblue" points="44.77,-1204 41.12,-1194.05 37.77,-1204.1 44.77,-1204"/>
</g>
<!-- Node7 -->
<g id="node8" class="node">
<title>Node7</title>
<g id="a_node8"><a xlink:href="dd/d7c/classnap_1_1rtti_1_1_object_ptr.html" target="_top" xlink:title="ObjectPtr\&lt; nap::ComputeShader \&gt;">
<polygon fill="white" stroke="black" points="119,-2055 119,-2074 286,-2074 286,-2055 119,-2055"/>
<text text-anchor="middle" x="202.5" y="-2062" font-family="Helvetica,sans-Serif" font-size="10.00">ObjectPtr&lt; nap::ComputeShader &gt;</text>
</a>
</g>
</g>
<!-- Node0&#45;&gt;Node7 -->
<g id="edge7" class="edge">
<title>Node0&#45;&gt;Node7</title>
<path fill="none" stroke="midnightblue" d="M41.35,-1204.42C43.68,-1327.37 58.7,-1980.11 116,-2045.5 119.31,-2049.27 123.18,-2052.39 127.42,-2054.96"/>
<polygon fill="midnightblue" stroke="midnightblue" points="44.84,-1204.14 41.16,-1194.21 37.85,-1204.27 44.84,-1204.14"/>
</g>
<!-- Node8 -->
<g id="node9" class="node">
<title>Node8</title>
<g id="a_node9"><a xlink:href="dd/d7c/classnap_1_1rtti_1_1_object_ptr.html" target="_top" xlink:title="ObjectPtr\&lt; nap::CVAdapter \&gt;">
<polygon fill="white" stroke="black" points="130,-2017 130,-2036 275,-2036 275,-2017 130,-2017"/>
<text text-anchor="middle" x="202.5" y="-2024" font-family="Helvetica,sans-Serif" font-size="10.00">ObjectPtr&lt; nap::CVAdapter &gt;</text>
</a>
</g>
</g>
<!-- Node0&#45;&gt;Node8 -->
<g id="edge8" class="edge">
<title>Node0&#45;&gt;Node8</title>
<path fill="none" stroke="midnightblue" d="M41.43,-1204.27C44.2,-1323.64 61.2,-1945.21 116,-2007.5 119.92,-2011.95 124.62,-2015.49 129.79,-2018.29"/>
<polygon fill="midnightblue" stroke="midnightblue" points="44.92,-1203.97 41.2,-1194.05 37.93,-1204.13 44.92,-1203.97"/>
</g>
<!-- Node9 -->
<g id="node10" class="node">
<title>Node9</title>
<g id="a_node10"><a xlink:href="dd/d7c/classnap_1_1rtti_1_1_object_ptr.html" target="_top" xlink:title="ObjectPtr\&lt; nap::CVCapture\lComponent \&gt;">
<polygon fill="white" stroke="black" points="134.5,-1967.5 134.5,-1997.5 270.5,-1997.5 270.5,-1967.5 134.5,-1967.5"/>
<text text-anchor="start" x="142.5" y="-1985.5" font-family="Helvetica,sans-Serif" font-size="10.00">ObjectPtr&lt; nap::CVCapture</text>
<text text-anchor="middle" x="202.5" y="-1974.5" font-family="Helvetica,sans-Serif" font-size="10.00">Component &gt;</text>
</a>
</g>
</g>
<!-- Node0&#45;&gt;Node9 -->
<g id="edge9" class="edge">
<title>Node0&#45;&gt;Node9</title>
<path fill="none" stroke="midnightblue" d="M41.61,-1204.47C45.28,-1319.94 66.1,-1898.88 116,-1958.5 120.95,-1964.41 127.22,-1968.93 134.12,-1972.37"/>
<polygon fill="midnightblue" stroke="midnightblue" points="45.1,-1204.14 41.29,-1194.26 38.1,-1204.36 45.1,-1204.14"/>
</g>
<!-- Node10 -->
<g id="node11" class="node">
<title>Node10</title>
<g id="a_node11"><a xlink:href="dd/d7c/classnap_1_1rtti_1_1_object_ptr.html" target="_top" xlink:title="ObjectPtr\&lt; nap::CVCapture\lDevice \&gt;">
<polygon fill="white" stroke="black" points="134.5,-1918.5 134.5,-1948.5 270.5,-1948.5 270.5,-1918.5 134.5,-1918.5"/>
<text text-anchor="start" x="142.5" y="-1936.5" font-family="Helvetica,sans-Serif" font-size="10.00">ObjectPtr&lt; nap::CVCapture</text>
<text text-anchor="middle" x="202.5" y="-1925.5" font-family="Helvetica,sans-Serif" font-size="10.00">Device &gt;</text>
</a>
</g>
</g>
<!-- Node0&#45;&gt;Node10 -->
<g id="edge10" class="edge">
<title>Node0&#45;&gt;Node10</title>
<path fill="none" stroke="midnightblue" d="M41.75,-1204.2C46.09,-1314.52 69.56,-1852.77 116,-1908.5 120.95,-1914.44 127.23,-1919.01 134.13,-1922.53"/>
<polygon fill="midnightblue" stroke="midnightblue" points="45.24,-1203.99 41.36,-1194.13 38.25,-1204.26 45.24,-1203.99"/>
</g>
<!-- Node11 -->
<g id="node12" class="node">
<title>Node11</title>
<g id="a_node12"><a xlink:href="dd/d7c/classnap_1_1rtti_1_1_object_ptr.html" target="_top" xlink:title="ObjectPtr\&lt; nap::Entity \&gt;">
<polygon fill="white" stroke="black" points="141,-1880 141,-1899 264,-1899 264,-1880 141,-1880"/>
<text text-anchor="middle" x="202.5" y="-1887" font-family="Helvetica,sans-Serif" font-size="10.00">ObjectPtr&lt; nap::Entity &gt;</text>
</a>
</g>
</g>
<!-- Node0&#45;&gt;Node11 -->
<g id="edge11" class="edge">
<title>Node0&#45;&gt;Node11</title>
<path fill="none" stroke="midnightblue" d="M41.8,-1204.21C46.35,-1311.2 70.25,-1819.43 116,-1870.5 122.59,-1877.86 131.35,-1882.71 140.75,-1885.85"/>
<polygon fill="midnightblue" stroke="midnightblue" points="45.3,-1203.99 41.38,-1194.15 38.31,-1204.29 45.3,-1203.99"/>
</g>
<!-- Node12 -->
<g id="node13" class="node">
<title>Node12</title>
<g id="a_node13"><a xlink:href="dd/d7c/classnap_1_1rtti_1_1_object_ptr.html" target="_top" xlink:title="ObjectPtr\&lt; nap::EntityInstance \&gt;">
<polygon fill="white" stroke="black" points="122.5,-1842 122.5,-1861 282.5,-1861 282.5,-1842 122.5,-1842"/>
<text text-anchor="middle" x="202.5" y="-1849" font-family="Helvetica,sans-Serif" font-size="10.00">ObjectPtr&lt; nap::EntityInstance &gt;</text>
</a>
</g>
</g>
<!-- Node0&#45;&gt;Node12 -->
<g id="edge12" class="edge">
<title>Node0&#45;&gt;Node12</title>
<path fill="none" stroke="midnightblue" d="M41.95,-1204.4C47.06,-1308.2 72.78,-1784.56 116,-1832.5 119.36,-1836.23 123.27,-1839.31 127.54,-1841.85"/>
<polygon fill="midnightblue" stroke="midnightblue" points="45.44,-1204.16 41.46,-1194.34 38.45,-1204.5 45.44,-1204.16"/>
</g>
<!-- Node13 -->
<g id="node14" class="node">
<title>Node13</title>
<g id="a_node14"><a xlink:href="dd/d7c/classnap_1_1rtti_1_1_object_ptr.html" target="_top" xlink:title="ObjectPtr\&lt; nap::FillPolicy\l\&lt; T \&gt; \&gt;">
<polygon fill="white" stroke="black" points="138.5,-1792.5 138.5,-1822.5 266.5,-1822.5 266.5,-1792.5 138.5,-1792.5"/>
<text text-anchor="start" x="146.5" y="-1810.5" font-family="Helvetica,sans-Serif" font-size="10.00">ObjectPtr&lt; nap::FillPolicy</text>
<text text-anchor="middle" x="202.5" y="-1799.5" font-family="Helvetica,sans-Serif" font-size="10.00">&lt; T &gt; &gt;</text>
</a>
</g>
</g>
<!-- Node0&#45;&gt;Node13 -->
<g id="edge13" class="edge">
<title>Node0&#45;&gt;Node13</title>
<path fill="none" stroke="midnightblue" d="M40.66,-1204.06C39.44,-1297.07 38.87,-1693.92 116,-1783.5 121.94,-1790.39 129.68,-1795.38 138.07,-1798.98"/>
<polygon fill="midnightblue" stroke="midnightblue" points="44.16,-1204.1 40.81,-1194.05 37.16,-1203.99 44.16,-1204.1"/>
</g>
<!-- Node14 -->
<g id="node15" class="node">
<title>Node14</title>
<g id="a_node15"><a xlink:href="dd/d7c/classnap_1_1rtti_1_1_object_ptr.html" target="_top" xlink:title="ObjectPtr\&lt; nap::FillPolicy\l\&lt; uint \&gt; \&gt;">
<polygon fill="white" stroke="black" points="138.5,-1743.5 138.5,-1773.5 266.5,-1773.5 266.5,-1743.5 138.5,-1743.5"/>
<text text-anchor="start" x="146.5" y="-1761.5" font-family="Helvetica,sans-Serif" font-size="10.00">ObjectPtr&lt; nap::FillPolicy</text>
<text text-anchor="middle" x="202.5" y="-1750.5" font-family="Helvetica,sans-Serif" font-size="10.00">&lt; uint &gt; &gt;</text>
</a>
</g>
</g>
<!-- Node0&#45;&gt;Node14 -->
<g id="edge14" class="edge">
<title>Node0&#45;&gt;Node14</title>
<path fill="none" stroke="midnightblue" d="M40.93,-1204.33C41,-1292.94 45.7,-1651.89 116,-1733.5 121.95,-1740.41 129.71,-1745.47 138.11,-1749.15"/>
<polygon fill="midnightblue" stroke="midnightblue" points="44.43,-1204.08 40.94,-1194.08 37.43,-1204.07 44.43,-1204.08"/>
</g>
<!-- Node15 -->
<g id="node16" class="node">
<title>Node15</title>
<g id="a_node16"><a xlink:href="dd/d7c/classnap_1_1rtti_1_1_object_ptr.html" target="_top" xlink:title="ObjectPtr\&lt; nap::Font \&gt;">
<polygon fill="white" stroke="black" points="144,-1705 144,-1724 261,-1724 261,-1705 144,-1705"/>
<text text-anchor="middle" x="202.5" y="-1712" font-family="Helvetica,sans-Serif" font-size="10.00">ObjectPtr&lt; nap::Font &gt;</text>
</a>
</g>
</g>
<!-- Node0&#45;&gt;Node15 -->
<g id="edge15" class="edge">
<title>Node0&#45;&gt;Node15</title>
<path fill="none" stroke="midnightblue" d="M41.03,-1204.41C41.55,-1289.59 48,-1622.35 116,-1695.5 123.35,-1703.41 133.2,-1708.39 143.6,-1711.46"/>
<polygon fill="midnightblue" stroke="midnightblue" points="44.53,-1204.27 40.99,-1194.28 37.53,-1204.29 44.53,-1204.27"/>
</g>
<!-- Node16 -->
<g id="node17" class="node">
<title>Node16</title>
<g id="a_node17"><a xlink:href="dd/d7c/classnap_1_1rtti_1_1_object_ptr.html" target="_top" xlink:title="ObjectPtr\&lt; nap::GnomonMesh \&gt;">
<polygon fill="white" stroke="black" points="123.5,-1667 123.5,-1686 281.5,-1686 281.5,-1667 123.5,-1667"/>
<text text-anchor="middle" x="202.5" y="-1674" font-family="Helvetica,sans-Serif" font-size="10.00">ObjectPtr&lt; nap::GnomonMesh &gt;</text>
</a>
</g>
</g>
<!-- Node0&#45;&gt;Node16 -->
<g id="edge16" class="edge">
<title>Node0&#45;&gt;Node16</title>
<path fill="none" stroke="midnightblue" d="M41.29,-1204.71C42.88,-1286.35 53.02,-1590.53 116,-1657.5 119.54,-1661.27 123.65,-1664.37 128.11,-1666.91"/>
<polygon fill="midnightblue" stroke="midnightblue" points="44.78,-1204.28 41.11,-1194.34 37.78,-1204.4 44.78,-1204.28"/>
</g>
<!-- Node17 -->
<g id="node18" class="node">
<title>Node17</title>
<g id="a_node18"><a xlink:href="dd/d7c/classnap_1_1rtti_1_1_object_ptr.html" target="_top" xlink:title="ObjectPtr\&lt; nap::ICalendar \&gt;">
<polygon fill="white" stroke="black" points="133.5,-1629 133.5,-1648 271.5,-1648 271.5,-1629 133.5,-1629"/>
<text text-anchor="middle" x="202.5" y="-1636" font-family="Helvetica,sans-Serif" font-size="10.00">ObjectPtr&lt; nap::ICalendar &gt;</text>
</a>
</g>
</g>
<!-- Node0&#45;&gt;Node17 -->
<g id="edge17" class="edge">
<title>Node0&#45;&gt;Node17</title>
<path fill="none" stroke="midnightblue" d="M41.59,-1204.56C44.29,-1281.78 57.91,-1558.56 116,-1619.5 120.93,-1624.67 126.93,-1628.59 133.45,-1631.53"/>
<polygon fill="midnightblue" stroke="midnightblue" points="45.08,-1204.18 41.26,-1194.3 38.09,-1204.41 45.08,-1204.18"/>
</g>
<!-- Node18 -->
<g id="node19" class="node">
<title>Node18</title>
<g id="a_node19"><a xlink:href="dd/d7c/classnap_1_1rtti_1_1_object_ptr.html" target="_top" xlink:title="ObjectPtr\&lt; nap::IMesh \&gt;">
<polygon fill="white" stroke="black" points="140.5,-1591 140.5,-1610 264.5,-1610 264.5,-1591 140.5,-1591"/>
<text text-anchor="middle" x="202.5" y="-1598" font-family="Helvetica,sans-Serif" font-size="10.00">ObjectPtr&lt; nap::IMesh &gt;</text>
</a>
</g>
</g>
<!-- Node0&#45;&gt;Node18 -->
<g id="edge18" class="edge">
<title>Node0&#45;&gt;Node18</title>
<path fill="none" stroke="midnightblue" d="M41.93,-1204.2C45.77,-1276.57 62.73,-1526.5 116,-1581.5 122.66,-1588.38 131.23,-1593.03 140.35,-1596.12"/>
<polygon fill="midnightblue" stroke="midnightblue" points="45.43,-1203.97 41.43,-1194.16 38.44,-1204.32 45.43,-1203.97"/>
</g>
<!-- Node19 -->
<g id="node20" class="node">
<title>Node19</title>
<g id="a_node20"><a xlink:href="dd/d7c/classnap_1_1rtti_1_1_object_ptr.html" target="_top" xlink:title="ObjectPtr\&lt; nap::Instance\lPropertyValue \&gt;">
<polygon fill="white" stroke="black" points="140,-1541.5 140,-1571.5 265,-1571.5 265,-1541.5 140,-1541.5"/>
<text text-anchor="start" x="148" y="-1559.5" font-family="Helvetica,sans-Serif" font-size="10.00">ObjectPtr&lt; nap::Instance</text>
<text text-anchor="middle" x="202.5" y="-1548.5" font-family="Helvetica,sans-Serif" font-size="10.00">PropertyValue &gt;</text>
</a>
</g>
</g>
<!-- Node0&#45;&gt;Node19 -->
<g id="edge19" class="edge">
<title>Node0&#45;&gt;Node19</title>
<path fill="none" stroke="midnightblue" d="M42.67,-1204.54C48.62,-1271.04 70.84,-1482.98 116,-1531.5 122.53,-1538.52 130.92,-1543.6 139.87,-1547.28"/>
<polygon fill="midnightblue" stroke="midnightblue" points="46.13,-1203.86 41.78,-1194.2 39.15,-1204.46 46.13,-1203.86"/>
</g>
<!-- Node20 -->
<g id="node21" class="node">
<title>Node20</title>
<g id="a_node21"><a xlink:href="dd/d7c/classnap_1_1rtti_1_1_object_ptr.html" target="_top" xlink:title="ObjectPtr\&lt; nap::Material \&gt;">
<polygon fill="white" stroke="black" points="136.5,-1503 136.5,-1522 268.5,-1522 268.5,-1503 136.5,-1503"/>
<text text-anchor="middle" x="202.5" y="-1510" font-family="Helvetica,sans-Serif" font-size="10.00">ObjectPtr&lt; nap::Material &gt;</text>
</a>
</g>
</g>
<!-- Node0&#45;&gt;Node20 -->
<g id="edge20" class="edge">
<title>Node0&#45;&gt;Node20</title>
<path fill="none" stroke="midnightblue" d="M43.11,-1204.43C50.03,-1266.13 74.07,-1452.38 116,-1493.5 121.75,-1499.14 128.79,-1503.26 136.33,-1506.25"/>
<polygon fill="midnightblue" stroke="midnightblue" points="46.54,-1203.68 41.98,-1194.12 39.59,-1204.44 46.54,-1203.68"/>
</g>
<!-- Node21 -->
<g id="node22" class="node">
<title>Node21</title>
<g id="a_node22"><a xlink:href="dd/d7c/classnap_1_1rtti_1_1_object_ptr.html" target="_top" xlink:title="ObjectPtr\&lt; nap::Operational\lCalendar \&gt;">
<polygon fill="white" stroke="black" points="133.5,-1453.5 133.5,-1483.5 271.5,-1483.5 271.5,-1453.5 133.5,-1453.5"/>
<text text-anchor="start" x="141.5" y="-1471.5" font-family="Helvetica,sans-Serif" font-size="10.00">ObjectPtr&lt; nap::Operational</text>
<text text-anchor="middle" x="202.5" y="-1460.5" font-family="Helvetica,sans-Serif" font-size="10.00">Calendar &gt;</text>
</a>
</g>
</g>
<!-- Node0&#45;&gt;Node21 -->
<g id="edge21" class="edge">
<title>Node0&#45;&gt;Node21</title>
<path fill="none" stroke="midnightblue" d="M40.61,-1204.2C40.77,-1252.37 48.1,-1377.08 116,-1444.5 121.03,-1449.5 127.02,-1453.47 133.45,-1456.63"/>
<polygon fill="midnightblue" stroke="midnightblue" points="44.11,-1204.18 40.68,-1194.16 37.11,-1204.13 44.11,-1204.18"/>
</g>
<!-- Node22 -->
<g id="node23" class="node">
<title>Node22</title>
<g id="a_node23"><a xlink:href="dd/d7c/classnap_1_1rtti_1_1_object_ptr.html" target="_top" xlink:title="ObjectPtr\&lt; nap::OrthoCamera\lComponent \&gt;">
<polygon fill="white" stroke="black" points="129.5,-1404.5 129.5,-1434.5 275.5,-1434.5 275.5,-1404.5 129.5,-1404.5"/>
<text text-anchor="start" x="137.5" y="-1422.5" font-family="Helvetica,sans-Serif" font-size="10.00">ObjectPtr&lt; nap::OrthoCamera</text>
<text text-anchor="middle" x="202.5" y="-1411.5" font-family="Helvetica,sans-Serif" font-size="10.00">Component &gt;</text>
</a>
</g>
</g>
<!-- Node0&#45;&gt;Node22 -->
<g id="edge22" class="edge">
<title>Node0&#45;&gt;Node22</title>
<path fill="none" stroke="midnightblue" d="M42.25,-1204.21C45.95,-1245.6 60.39,-1342.06 116,-1394.5 120.05,-1398.32 124.65,-1401.56 129.57,-1404.31"/>
<polygon fill="midnightblue" stroke="midnightblue" points="45.73,-1203.78 41.47,-1194.08 38.75,-1204.32 45.73,-1203.78"/>
</g>
<!-- Node23 -->
<g id="node24" class="node">
<title>Node23</title>
<g id="a_node24"><a xlink:href="dd/d7c/classnap_1_1rtti_1_1_object_ptr.html" target="_top" xlink:title="ObjectPtr\&lt; nap::Parameter \&gt;">
<polygon fill="white" stroke="black" points="131,-1366 131,-1385 274,-1385 274,-1366 131,-1366"/>
<text text-anchor="middle" x="202.5" y="-1373" font-family="Helvetica,sans-Serif" font-size="10.00">ObjectPtr&lt; nap::Parameter &gt;</text>
</a>
</g>
</g>
<!-- Node0&#45;&gt;Node23 -->
<g id="edge23" class="edge">
<title>Node0&#45;&gt;Node23</title>
<path fill="none" stroke="midnightblue" d="M43.73,-1204.31C49.81,-1240.43 67.9,-1316.87 116,-1356.5 120.58,-1360.27 125.74,-1363.33 131.21,-1365.82"/>
<polygon fill="midnightblue" stroke="midnightblue" points="47.14,-1203.46 42.16,-1194.1 40.22,-1204.52 47.14,-1203.46"/>
</g>
<!-- Node24 -->
<g id="node25" class="node">
<title>Node24</title>
<g id="a_node25"><a xlink:href="dd/d7c/classnap_1_1rtti_1_1_object_ptr.html" target="_top" xlink:title="ObjectPtr\&lt; nap::Parameter\lBlendGroup \&gt;">
<polygon fill="white" stroke="black" points="135.5,-1316.5 135.5,-1346.5 269.5,-1346.5 269.5,-1316.5 135.5,-1316.5"/>
<text text-anchor="start" x="143.5" y="-1334.5" font-family="Helvetica,sans-Serif" font-size="10.00">ObjectPtr&lt; nap::Parameter</text>
<text text-anchor="middle" x="202.5" y="-1323.5" font-family="Helvetica,sans-Serif" font-size="10.00">BlendGroup &gt;</text>
</a>
</g>
</g>
<!-- Node0&#45;&gt;Node24 -->
<g id="edge24" class="edge">
<title>Node0&#45;&gt;Node24</title>
<path fill="none" stroke="midnightblue" d="M47.55,-1203.75C57.81,-1230.98 80.28,-1280.43 116,-1307.5 121.78,-1311.88 128.31,-1315.45 135.14,-1318.38"/>
<polygon fill="midnightblue" stroke="midnightblue" points="50.79,-1202.41 44.11,-1194.19 44.2,-1204.78 50.79,-1202.41"/>
</g>
<!-- Node25 -->
<g id="node26" class="node">
<title>Node25</title>
<g id="a_node26"><a xlink:href="dd/d7c/classnap_1_1rtti_1_1_object_ptr.html" target="_top" xlink:title="ObjectPtr\&lt; nap::Parameter\lButton \&gt;">
<polygon fill="white" stroke="black" points="135.5,-1267.5 135.5,-1297.5 269.5,-1297.5 269.5,-1267.5 135.5,-1267.5"/>
<text text-anchor="start" x="143.5" y="-1285.5" font-family="Helvetica,sans-Serif" font-size="10.00">ObjectPtr&lt; nap::Parameter</text>
<text text-anchor="middle" x="202.5" y="-1274.5" font-family="Helvetica,sans-Serif" font-size="10.00">Button &gt;</text>
</a>
</g>
</g>
<!-- Node0&#45;&gt;Node25 -->
<g id="edge25" class="edge">
<title>Node0&#45;&gt;Node25</title>
<path fill="none" stroke="midnightblue" d="M54.47,-1202.22C68.18,-1219.08 90.95,-1243.95 116,-1258.5 122,-1261.98 128.53,-1264.99 135.22,-1267.57"/>
<polygon fill="midnightblue" stroke="midnightblue" points="57.1,-1199.91 48.16,-1194.24 51.61,-1204.26 57.1,-1199.91"/>
</g>
<!-- Node26 -->
<g id="node27" class="node">
<title>Node26</title>
<g id="a_node27"><a xlink:href="dd/d7c/classnap_1_1rtti_1_1_object_ptr.html" target="_top" xlink:title="ObjectPtr\&lt; nap::Parameter\lGroup \&gt;">
<polygon fill="white" stroke="black" points="135.5,-1218.5 135.5,-1248.5 269.5,-1248.5 269.5,-1218.5 135.5,-1218.5"/>
<text text-anchor="start" x="143.5" y="-1236.5" font-family="Helvetica,sans-Serif" font-size="10.00">ObjectPtr&lt; nap::Parameter</text>
<text text-anchor="middle" x="202.5" y="-1225.5" font-family="Helvetica,sans-Serif" font-size="10.00">Group &gt;</text>
</a>
</g>
</g>
<!-- Node0&#45;&gt;Node26 -->
<g id="edge26" class="edge">
<title>Node0&#45;&gt;Node26</title>
<path fill="none" stroke="midnightblue" d="M78.37,-1197.35C90.35,-1201.36 103.7,-1205.73 116,-1209.5 125.73,-1212.48 136.12,-1215.53 146.19,-1218.4"/>
<polygon fill="midnightblue" stroke="midnightblue" points="79.27,-1193.96 68.68,-1194.08 77.04,-1200.59 79.27,-1193.96"/>
</g>
<!-- Node27 -->
<g id="node28" class="node">
<title>Node27</title>
<g id="a_node28"><a xlink:href="dd/d7c/classnap_1_1rtti_1_1_object_ptr.html" target="_top" xlink:title="ObjectPtr\&lt; nap::Parameter\lNumeric \&gt;">
<polygon fill="white" stroke="black" points="135.5,-1169.5 135.5,-1199.5 269.5,-1199.5 269.5,-1169.5 135.5,-1169.5"/>
<text text-anchor="start" x="143.5" y="-1187.5" font-family="Helvetica,sans-Serif" font-size="10.00">ObjectPtr&lt; nap::Parameter</text>
<text text-anchor="middle" x="202.5" y="-1176.5" font-family="Helvetica,sans-Serif" font-size="10.00">Numeric &gt;</text>
</a>
</g>
</g>
<!-- Node0&#45;&gt;Node27 -->
<g id="edge27" class="edge">
<title>Node0&#45;&gt;Node27</title>
<path fill="none" stroke="midnightblue" d="M90.33,-1184.5C104.57,-1184.5 120.35,-1184.5 135.44,-1184.5"/>
<polygon fill="midnightblue" stroke="midnightblue" points="90.26,-1181 80.26,-1184.5 90.26,-1188 90.26,-1181"/>
</g>
<!-- Node28 -->
<g id="node29" class="node">
<title>Node28</title>
<g id="a_node29"><a xlink:href="dd/d7c/classnap_1_1rtti_1_1_object_ptr.html" target="_top" xlink:title="ObjectPtr\&lt; nap::Parameter\lNumeric\&lt; T \&gt; \&gt;">
<polygon fill="white" stroke="black" points="135.5,-1120.5 135.5,-1150.5 269.5,-1150.5 269.5,-1120.5 135.5,-1120.5"/>
<text text-anchor="start" x="143.5" y="-1138.5" font-family="Helvetica,sans-Serif" font-size="10.00">ObjectPtr&lt; nap::Parameter</text>
<text text-anchor="middle" x="202.5" y="-1127.5" font-family="Helvetica,sans-Serif" font-size="10.00">Numeric&lt; T &gt; &gt;</text>
</a>
</g>
</g>
<!-- Node0&#45;&gt;Node28 -->
<g id="edge28" class="edge">
<title>Node0&#45;&gt;Node28</title>
<path fill="none" stroke="midnightblue" d="M79.98,-1171.82C91.55,-1168.11 104.27,-1164.09 116,-1160.5 126.65,-1157.24 138.07,-1153.84 148.99,-1150.63"/>
<polygon fill="midnightblue" stroke="midnightblue" points="78.6,-1168.59 70.15,-1174.98 80.74,-1175.25 78.6,-1168.59"/>
</g>
<!-- Node29 -->
<g id="node30" class="node">
<title>Node29</title>
<g id="a_node30"><a xlink:href="dd/d7c/classnap_1_1rtti_1_1_object_ptr.html" target="_top" xlink:title="ObjectPtr\&lt; nap::Parameter\lSimple\&lt; T \&gt; \&gt;">
<polygon fill="white" stroke="black" points="135.5,-1071.5 135.5,-1101.5 269.5,-1101.5 269.5,-1071.5 135.5,-1071.5"/>
<text text-anchor="start" x="143.5" y="-1089.5" font-family="Helvetica,sans-Serif" font-size="10.00">ObjectPtr&lt; nap::Parameter</text>
<text text-anchor="middle" x="202.5" y="-1078.5" font-family="Helvetica,sans-Serif" font-size="10.00">Simple&lt; T &gt; &gt;</text>
</a>
</g>
</g>
<!-- Node0&#45;&gt;Node29 -->
<g id="edge29" class="edge">
<title>Node0&#45;&gt;Node29</title>
<path fill="none" stroke="midnightblue" d="M54.55,-1167.08C68.33,-1150.51 91.14,-1126 116,-1111.5 122.55,-1107.68 129.72,-1104.41 137.04,-1101.61"/>
<polygon fill="midnightblue" stroke="midnightblue" points="51.77,-1164.95 48.21,-1174.93 57.22,-1169.35 51.77,-1164.95"/>
</g>
<!-- Node30 -->
<g id="node31" class="node">
<title>Node30</title>
<g id="a_node31"><a xlink:href="dd/d7c/classnap_1_1rtti_1_1_object_ptr.html" target="_top" xlink:title="ObjectPtr\&lt; nap::Parameter\lVec\&lt; T \&gt; \&gt;">
<polygon fill="white" stroke="black" points="135.5,-1022.5 135.5,-1052.5 269.5,-1052.5 269.5,-1022.5 135.5,-1022.5"/>
<text text-anchor="start" x="143.5" y="-1040.5" font-family="Helvetica,sans-Serif" font-size="10.00">ObjectPtr&lt; nap::Parameter</text>
<text text-anchor="middle" x="202.5" y="-1029.5" font-family="Helvetica,sans-Serif" font-size="10.00">Vec&lt; T &gt; &gt;</text>
</a>
</g>
</g>
<!-- Node0&#45;&gt;Node30 -->
<g id="edge30" class="edge">
<title>Node0&#45;&gt;Node30</title>
<path fill="none" stroke="midnightblue" d="M47.64,-1165.45C58,-1138.51 80.58,-1089.54 116,-1062.5 121.78,-1058.09 128.32,-1054.46 135.14,-1051.46"/>
<polygon fill="midnightblue" stroke="midnightblue" points="44.32,-1164.32 44.15,-1174.92 50.89,-1166.74 44.32,-1164.32"/>
</g>
<!-- Node31 -->
<g id="node32" class="node">
<title>Node31</title>
<g id="a_node32"><a xlink:href="dd/d7c/classnap_1_1rtti_1_1_object_ptr.html" target="_top" xlink:title="ObjectPtr\&lt; nap::PerspCamera\lComponent \&gt;">
<polygon fill="white" stroke="black" points="128.5,-973.5 128.5,-1003.5 276.5,-1003.5 276.5,-973.5 128.5,-973.5"/>
<text text-anchor="start" x="136.5" y="-991.5" font-family="Helvetica,sans-Serif" font-size="10.00">ObjectPtr&lt; nap::PerspCamera</text>
<text text-anchor="middle" x="202.5" y="-980.5" font-family="Helvetica,sans-Serif" font-size="10.00">Component &gt;</text>
</a>
</g>
</g>
<!-- Node0&#45;&gt;Node31 -->
<g id="edge31" class="edge">
<title>Node0&#45;&gt;Node31</title>
<path fill="none" stroke="midnightblue" d="M44.12,-1164.59C50.75,-1128.97 69.64,-1054.24 116,-1013.5 120.41,-1009.62 125.4,-1006.34 130.7,-1003.57"/>
<polygon fill="midnightblue" stroke="midnightblue" points="40.63,-1164.24 42.37,-1174.69 47.52,-1165.43 40.63,-1164.24"/>
</g>
<!-- Node32 -->
<g id="node33" class="node">
<title>Node32</title>
<g id="a_node33"><a xlink:href="dd/d7c/classnap_1_1rtti_1_1_object_ptr.html" target="_top" xlink:title="ObjectPtr\&lt; nap::PortalWeb\lSocketServer \&gt;">
<polygon fill="white" stroke="black" points="135.5,-924.5 135.5,-954.5 269.5,-954.5 269.5,-924.5 135.5,-924.5"/>
<text text-anchor="start" x="143.5" y="-942.5" font-family="Helvetica,sans-Serif" font-size="10.00">ObjectPtr&lt; nap::PortalWeb</text>
<text text-anchor="middle" x="202.5" y="-931.5" font-family="Helvetica,sans-Serif" font-size="10.00">SocketServer &gt;</text>
</a>
</g>
</g>
<!-- Node0&#45;&gt;Node32 -->
<g id="edge32" class="edge">
<title>Node0&#45;&gt;Node32</title>
<path fill="none" stroke="midnightblue" d="M41.88,-1164.75C44.87,-1121.93 58.05,-1019.95 116,-964.5 121.59,-959.15 128.25,-954.94 135.36,-951.63"/>
<polygon fill="midnightblue" stroke="midnightblue" points="38.37,-1164.77 41.29,-1174.95 45.36,-1165.17 38.37,-1164.77"/>
</g>
<!-- Node33 -->
<g id="node34" class="node">
<title>Node33</title>
<g id="a_node34"><a xlink:href="dd/d7c/classnap_1_1rtti_1_1_object_ptr.html" target="_top" xlink:title="ObjectPtr\&lt; nap::PythonScript \&gt;">
<polygon fill="white" stroke="black" points="125.5,-886 125.5,-905 279.5,-905 279.5,-886 125.5,-886"/>
<text text-anchor="middle" x="202.5" y="-893" font-family="Helvetica,sans-Serif" font-size="10.00">ObjectPtr&lt; nap::PythonScript &gt;</text>
</a>
</g>
</g>
<!-- Node0&#45;&gt;Node33 -->
<g id="edge33" class="edge">
<title>Node0&#45;&gt;Node33</title>
<path fill="none" stroke="midnightblue" d="M40.2,-1164.94C39.32,-1115.44 44.25,-984.29 116,-915.5 120.4,-911.28 125.52,-907.89 131.01,-905.17"/>
<polygon fill="midnightblue" stroke="midnightblue" points="36.7,-1165.05 40.49,-1174.95 43.7,-1164.85 36.7,-1165.05"/>
</g>
<!-- Node34 -->
<g id="node35" class="node">
<title>Node34</title>
<g id="a_node35"><a xlink:href="dd/d7c/classnap_1_1rtti_1_1_object_ptr.html" target="_top" xlink:title="ObjectPtr\&lt; nap::RenderTexture2D \&gt;">
<polygon fill="white" stroke="black" points="116,-848 116,-867 289,-867 289,-848 116,-848"/>
<text text-anchor="middle" x="202.5" y="-855" font-family="Helvetica,sans-Serif" font-size="10.00">ObjectPtr&lt; nap::RenderTexture2D &gt;</text>
</a>
</g>
</g>
<!-- Node0&#45;&gt;Node34 -->
<g id="edge34" class="edge">
<title>Node0&#45;&gt;Node34</title>
<path fill="none" stroke="midnightblue" d="M43.11,-1164.64C50.07,-1103.13 74.18,-917.48 116,-876.5 119.8,-872.77 124.16,-869.71 128.86,-867.2"/>
<polygon fill="midnightblue" stroke="midnightblue" points="39.6,-1164.59 41.98,-1174.91 46.56,-1165.35 39.6,-1164.59"/>
</g>
<!-- Node35 -->
<g id="node36" class="node">
<title>Node35</title>
<g id="a_node36"><a xlink:href="dd/d7c/classnap_1_1rtti_1_1_object_ptr.html" target="_top" xlink:title="ObjectPtr\&lt; nap::RenderWindow \&gt;">
<polygon fill="white" stroke="black" points="121,-810 121,-829 284,-829 284,-810 121,-810"/>
<text text-anchor="middle" x="202.5" y="-817" font-family="Helvetica,sans-Serif" font-size="10.00">ObjectPtr&lt; nap::RenderWindow &gt;</text>
</a>
</g>
</g>
<!-- Node0&#45;&gt;Node35 -->
<g id="edge35" class="edge">
<title>Node0&#45;&gt;Node35</title>
<path fill="none" stroke="midnightblue" d="M42.56,-1164.4C48.16,-1097.72 69.38,-885.36 116,-838.5 119.75,-834.73 124.08,-831.63 128.75,-829.1"/>
<polygon fill="midnightblue" stroke="midnightblue" points="39.04,-1164.52 41.72,-1174.77 46.02,-1165.09 39.04,-1164.52"/>
</g>
<!-- Node36 -->
<g id="node37" class="node">
<title>Node36</title>
<g id="a_node37"><a xlink:href="dd/d7c/classnap_1_1rtti_1_1_object_ptr.html" target="_top" xlink:title="ObjectPtr\&lt; nap::Sequence\lEditor \&gt;">
<polygon fill="white" stroke="black" points="136.5,-760.5 136.5,-790.5 268.5,-790.5 268.5,-760.5 136.5,-760.5"/>
<text text-anchor="start" x="144.5" y="-778.5" font-family="Helvetica,sans-Serif" font-size="10.00">ObjectPtr&lt; nap::Sequence</text>
<text text-anchor="middle" x="202.5" y="-767.5" font-family="Helvetica,sans-Serif" font-size="10.00">Editor &gt;</text>
</a>
</g>
</g>
<!-- Node0&#45;&gt;Node36 -->
<g id="edge36" class="edge">
<title>Node0&#45;&gt;Node36</title>
<path fill="none" stroke="midnightblue" d="M42.21,-1164.66C46.91,-1093.87 66.24,-855.04 116,-800.5 121.63,-794.33 128.69,-789.65 136.32,-786.11"/>
<polygon fill="midnightblue" stroke="midnightblue" points="38.7,-1164.66 41.56,-1174.86 45.69,-1165.1 38.7,-1164.66"/>
</g>
<!-- Node37 -->
<g id="node38" class="node">
<title>Node37</title>
<g id="a_node38"><a xlink:href="dd/d7c/classnap_1_1rtti_1_1_object_ptr.html" target="_top" xlink:title="ObjectPtr\&lt; nap::Sequence\lPlayer \&gt;">
<polygon fill="white" stroke="black" points="136.5,-711.5 136.5,-741.5 268.5,-741.5 268.5,-711.5 136.5,-711.5"/>
<text text-anchor="start" x="144.5" y="-729.5" font-family="Helvetica,sans-Serif" font-size="10.00">ObjectPtr&lt; nap::Sequence</text>
<text text-anchor="middle" x="202.5" y="-718.5" font-family="Helvetica,sans-Serif" font-size="10.00">Player &gt;</text>
</a>
</g>
</g>
<!-- Node0&#45;&gt;Node37 -->
<g id="edge37" class="edge">
<title>Node0&#45;&gt;Node37</title>
<path fill="none" stroke="midnightblue" d="M41.73,-1164.64C44.93,-1088.19 60.17,-814.02 116,-751.5 121.56,-745.27 128.58,-740.56 136.2,-737"/>
<polygon fill="midnightblue" stroke="midnightblue" points="38.22,-1164.67 41.33,-1174.8 45.22,-1164.94 38.22,-1164.67"/>
</g>
<!-- Node38 -->
<g id="node39" class="node">
<title>Node38</title>
<g id="a_node39"><a xlink:href="dd/d7c/classnap_1_1rtti_1_1_object_ptr.html" target="_top" xlink:title="ObjectPtr\&lt; nap::Sequence\lPlayerAudioOutput \&gt;">
<polygon fill="white" stroke="black" points="136.5,-662.5 136.5,-692.5 268.5,-692.5 268.5,-662.5 136.5,-662.5"/>
<text text-anchor="start" x="144.5" y="-680.5" font-family="Helvetica,sans-Serif" font-size="10.00">ObjectPtr&lt; nap::Sequence</text>
<text text-anchor="middle" x="202.5" y="-669.5" font-family="Helvetica,sans-Serif" font-size="10.00">PlayerAudioOutput &gt;</text>
</a>
</g>
</g>
<!-- Node0&#45;&gt;Node38 -->
<g id="edge38" class="edge">
<title>Node0&#45;&gt;Node38</title>
<path fill="none" stroke="midnightblue" d="M41.35,-1164.55C43.17,-1082.62 54.1,-773.02 116,-702.5 121.51,-696.22 128.5,-691.48 136.1,-687.91"/>
<polygon fill="midnightblue" stroke="midnightblue" points="37.84,-1164.86 41.14,-1174.93 44.84,-1165 37.84,-1164.86"/>
</g>
<!-- Node39 -->
<g id="node40" class="node">
<title>Node39</title>
<g id="a_node40"><a xlink:href="dd/d7c/classnap_1_1rtti_1_1_object_ptr.html" target="_top" xlink:title="ObjectPtr\&lt; nap::Sequence\lPlayerClock \&gt;">
<polygon fill="white" stroke="black" points="136.5,-613.5 136.5,-643.5 268.5,-643.5 268.5,-613.5 136.5,-613.5"/>
<text text-anchor="start" x="144.5" y="-631.5" font-family="Helvetica,sans-Serif" font-size="10.00">ObjectPtr&lt; nap::Sequence</text>
<text text-anchor="middle" x="202.5" y="-620.5" font-family="Helvetica,sans-Serif" font-size="10.00">PlayerClock &gt;</text>
</a>
</g>
</g>
<!-- Node0&#45;&gt;Node39 -->
<g id="edge39" class="edge">
<title>Node0&#45;&gt;Node39</title>
<path fill="none" stroke="midnightblue" d="M41.03,-1164.76C41.55,-1078.11 47.93,-732.16 116,-653.5 121.57,-647.07 128.69,-642.25 136.44,-638.64"/>
<polygon fill="midnightblue" stroke="midnightblue" points="37.53,-1164.81 40.99,-1174.82 44.53,-1164.83 37.53,-1164.81"/>
</g>
<!-- Node40 -->
<g id="node41" class="node">
<title>Node40</title>
<g id="a_node41"><a xlink:href="dd/d7c/classnap_1_1rtti_1_1_object_ptr.html" target="_top" xlink:title="ObjectPtr\&lt; nap::Shader \&gt;">
<polygon fill="white" stroke="black" points="138.5,-575 138.5,-594 266.5,-594 266.5,-575 138.5,-575"/>
<text text-anchor="middle" x="202.5" y="-582" font-family="Helvetica,sans-Serif" font-size="10.00">ObjectPtr&lt; nap::Shader &gt;</text>
</a>
</g>
</g>
<!-- Node0&#45;&gt;Node40 -->
<g id="edge40" class="edge">
<title>Node0&#45;&gt;Node40</title>
<path fill="none" stroke="midnightblue" d="M40.66,-1164.63C39.52,-1072.66 39.46,-689.21 116,-604.5 122.03,-597.83 129.82,-593.17 138.24,-589.95"/>
<polygon fill="midnightblue" stroke="midnightblue" points="37.16,-1164.84 40.81,-1174.78 44.16,-1164.73 37.16,-1164.84"/>
</g>
<!-- Node41 -->
<g id="node42" class="node">
<title>Node41</title>
<g id="a_node42"><a xlink:href="dd/d7c/classnap_1_1rtti_1_1_object_ptr.html" target="_top" xlink:title="ObjectPtr\&lt; nap::StructBuffer \&gt;">
<polygon fill="white" stroke="black" points="128,-537 128,-556 277,-556 277,-537 128,-537"/>
<text text-anchor="middle" x="202.5" y="-544" font-family="Helvetica,sans-Serif" font-size="10.00">ObjectPtr&lt; nap::StructBuffer &gt;</text>
</a>
</g>
</g>
<!-- Node0&#45;&gt;Node41 -->
<g id="edge41" class="edge">
<title>Node0&#45;&gt;Node41</title>
<path fill="none" stroke="midnightblue" d="M42.06,-1164.55C47.62,-1063.48 74.7,-611.07 116,-565.5 119.47,-561.67 123.53,-558.52 127.96,-555.94"/>
<polygon fill="midnightblue" stroke="midnightblue" points="38.56,-1164.45 41.52,-1174.62 45.55,-1164.83 38.56,-1164.45"/>
</g>
<!-- Node42 -->
<g id="node43" class="node">
<title>Node42</title>
<g id="a_node43"><a xlink:href="dd/d7c/classnap_1_1rtti_1_1_object_ptr.html" target="_top" xlink:title="ObjectPtr\&lt; nap::StructFill\lPolicy \&gt;">
<polygon fill="white" stroke="black" points="138.5,-487.5 138.5,-517.5 266.5,-517.5 266.5,-487.5 138.5,-487.5"/>
<text text-anchor="start" x="146.5" y="-505.5" font-family="Helvetica,sans-Serif" font-size="10.00">ObjectPtr&lt; nap::StructFill</text>
<text text-anchor="middle" x="202.5" y="-494.5" font-family="Helvetica,sans-Serif" font-size="10.00">Policy &gt;</text>
</a>
</g>
</g>
<!-- Node0&#45;&gt;Node42 -->
<g id="edge42" class="edge">
<title>Node0&#45;&gt;Node42</title>
<path fill="none" stroke="midnightblue" d="M41.99,-1164.37C47.3,-1059.4 73.85,-577.54 116,-527.5 121.98,-520.4 129.85,-515.26 138.4,-511.54"/>
<polygon fill="midnightblue" stroke="midnightblue" points="38.48,-1164.39 41.48,-1174.55 45.47,-1164.74 38.48,-1164.39"/>
</g>
<!-- Node43 -->
<g id="node44" class="node">
<title>Node43</title>
<g id="a_node44"><a xlink:href="dd/d7c/classnap_1_1rtti_1_1_object_ptr.html" target="_top" xlink:title="ObjectPtr\&lt; nap::Texture2D \&gt;">
<polygon fill="white" stroke="black" points="131.5,-449 131.5,-468 273.5,-468 273.5,-449 131.5,-449"/>
<text text-anchor="middle" x="202.5" y="-456" font-family="Helvetica,sans-Serif" font-size="10.00">ObjectPtr&lt; nap::Texture2D &gt;</text>
</a>
</g>
</g>
<!-- Node0&#45;&gt;Node43 -->
<g id="edge43" class="edge">
<title>Node0&#45;&gt;Node43</title>
<path fill="none" stroke="midnightblue" d="M41.76,-1164.58C46.1,-1055.28 69.26,-531.43 116,-478.5 120.34,-473.59 125.63,-469.76 131.44,-466.79"/>
<polygon fill="midnightblue" stroke="midnightblue" points="38.25,-1164.7 41.36,-1174.83 45.25,-1164.98 38.25,-1164.7"/>
</g>
<!-- Node44 -->
<g id="node45" class="node">
<title>Node44</title>
<g id="a_node45"><a xlink:href="dd/d7c/classnap_1_1rtti_1_1_object_ptr.html" target="_top" xlink:title="ObjectPtr\&lt; nap::TypedGPUBuffer\lNumeric\&lt; T \&gt; \&gt;">
<polygon fill="white" stroke="black" points="122,-399.5 122,-429.5 283,-429.5 283,-399.5 122,-399.5"/>
<text text-anchor="start" x="130" y="-417.5" font-family="Helvetica,sans-Serif" font-size="10.00">ObjectPtr&lt; nap::TypedGPUBuffer</text>
<text text-anchor="middle" x="202.5" y="-406.5" font-family="Helvetica,sans-Serif" font-size="10.00">Numeric&lt; T &gt; &gt;</text>
</a>
</g>
</g>
<!-- Node0&#45;&gt;Node44 -->
<g id="edge44" class="edge">
<title>Node0&#45;&gt;Node44</title>
<path fill="none" stroke="midnightblue" d="M41.69,-1164.59C45.78,-1051.88 68.26,-496.96 116,-439.5 119.16,-435.69 122.87,-432.45 126.94,-429.68"/>
<polygon fill="midnightblue" stroke="midnightblue" points="38.19,-1164.73 41.33,-1174.85 45.18,-1164.98 38.19,-1164.73"/>
</g>
<!-- Node45 -->
<g id="node46" class="node">
<title>Node45</title>
<g id="a_node46"><a xlink:href="dd/d7c/classnap_1_1rtti_1_1_object_ptr.html" target="_top" xlink:title="ObjectPtr\&lt; nap::UDPThread \&gt;">
<polygon fill="white" stroke="black" points="129,-361 129,-380 276,-380 276,-361 129,-361"/>
<text text-anchor="middle" x="202.5" y="-368" font-family="Helvetica,sans-Serif" font-size="10.00">ObjectPtr&lt; nap::UDPThread &gt;</text>
</a>
</g>
</g>
<!-- Node0&#45;&gt;Node45 -->
<g id="edge45" class="edge">
<title>Node0&#45;&gt;Node45</title>
<path fill="none" stroke="midnightblue" d="M41.51,-1164.7C44.69,-1047.8 63.46,-450.69 116,-390.5 119.71,-386.25 124.13,-382.81 128.98,-380.04"/>
<polygon fill="midnightblue" stroke="midnightblue" points="38.01,-1164.66 41.24,-1174.75 45.01,-1164.84 38.01,-1164.66"/>
</g>
<!-- Node46 -->
<g id="node47" class="node">
<title>Node46</title>
<g id="a_node47"><a xlink:href="dd/d7c/classnap_1_1rtti_1_1_object_ptr.html" target="_top" xlink:title="ObjectPtr\&lt; nap::UniformStruct \&gt;">
<polygon fill="white" stroke="black" points="124,-323 124,-342 281,-342 281,-323 124,-323"/>
<text text-anchor="middle" x="202.5" y="-330" font-family="Helvetica,sans-Serif" font-size="10.00">ObjectPtr&lt; nap::UniformStruct &gt;</text>
</a>
</g>
</g>
<!-- Node0&#45;&gt;Node46 -->
<g id="edge46" class="edge">
<title>Node0&#45;&gt;Node46</title>
<path fill="none" stroke="midnightblue" d="M41.41,-1164.49C44.08,-1043.67 60.58,-414.57 116,-351.5 119.31,-347.73 123.19,-344.62 127.44,-342.05"/>
<polygon fill="midnightblue" stroke="midnightblue" points="37.91,-1164.76 41.19,-1174.83 44.9,-1164.91 37.91,-1164.76"/>
</g>
<!-- Node47 -->
<g id="node48" class="node">
<title>Node47</title>
<g id="a_node48"><a xlink:href="dd/d7c/classnap_1_1rtti_1_1_object_ptr.html" target="_top" xlink:title="ObjectPtr\&lt; nap::VideoPlayer \&gt;">
<polygon fill="white" stroke="black" points="127.5,-285 127.5,-304 277.5,-304 277.5,-285 127.5,-285"/>
<text text-anchor="middle" x="202.5" y="-292" font-family="Helvetica,sans-Serif" font-size="10.00">ObjectPtr&lt; nap::VideoPlayer &gt;</text>
</a>
</g>
</g>
<!-- Node0&#45;&gt;Node47 -->
<g id="edge47" class="edge">
<title>Node0&#45;&gt;Node47</title>
<path fill="none" stroke="midnightblue" d="M41.32,-1164.74C43.53,-1041.35 58.02,-379.74 116,-313.5 119.31,-309.72 123.18,-306.61 127.42,-304.04"/>
<polygon fill="midnightblue" stroke="midnightblue" points="37.82,-1164.9 41.15,-1174.96 44.82,-1165.03 37.82,-1164.9"/>
</g>
<!-- Node48 -->
<g id="node49" class="node">
<title>Node48</title>
<g id="a_node49"><a xlink:href="dd/d7c/classnap_1_1rtti_1_1_object_ptr.html" target="_top" xlink:title="ObjectPtr\&lt; nap::WebSocket\lClientEndPoint \&gt;">
<polygon fill="white" stroke="black" points="132.5,-235.5 132.5,-265.5 272.5,-265.5 272.5,-235.5 132.5,-235.5"/>
<text text-anchor="start" x="140.5" y="-253.5" font-family="Helvetica,sans-Serif" font-size="10.00">ObjectPtr&lt; nap::WebSocket</text>
<text text-anchor="middle" x="202.5" y="-242.5" font-family="Helvetica,sans-Serif" font-size="10.00">ClientEndPoint &gt;</text>
</a>
</g>
</g>
<!-- Node0&#45;&gt;Node48 -->
<g id="edge48" class="edge">
<title>Node0&#45;&gt;Node48</title>
<path fill="none" stroke="midnightblue" d="M41.31,-1164.72C43.46,-1038.32 57.82,-346.81 116,-275.5 120.5,-269.99 126.14,-265.65 132.37,-262.24"/>
<polygon fill="midnightblue" stroke="midnightblue" points="37.81,-1164.81 41.14,-1174.87 44.81,-1164.92 37.81,-1164.81"/>
</g>
<!-- Node49 -->
<g id="node50" class="node">
<title>Node49</title>
<g id="a_node50"><a xlink:href="dd/d7c/classnap_1_1rtti_1_1_object_ptr.html" target="_top" xlink:title="ObjectPtr\&lt; nap::WebSocket\lInterface \&gt;">
<polygon fill="white" stroke="black" points="132.5,-186.5 132.5,-216.5 272.5,-216.5 272.5,-186.5 132.5,-186.5"/>
<text text-anchor="start" x="140.5" y="-204.5" font-family="Helvetica,sans-Serif" font-size="10.00">ObjectPtr&lt; nap::WebSocket</text>
<text text-anchor="middle" x="202.5" y="-193.5" font-family="Helvetica,sans-Serif" font-size="10.00">Interface &gt;</text>
</a>
</g>
</g>
<!-- Node0&#45;&gt;Node49 -->
<g id="edge49" class="edge">
<title>Node0&#45;&gt;Node49</title>
<path fill="none" stroke="midnightblue" d="M41.22,-1164.87C42.84,-1034.97 54.67,-301.99 116,-226.5 120.49,-220.98 126.12,-216.63 132.34,-213.22"/>
<polygon fill="midnightblue" stroke="midnightblue" points="37.72,-1164.91 41.1,-1174.95 44.72,-1164.99 37.72,-1164.91"/>
</g>
<!-- Node50 -->
<g id="node51" class="node">
<title>Node50</title>
<g id="a_node51"><a xlink:href="dd/d7c/classnap_1_1rtti_1_1_object_ptr.html" target="_top" xlink:title="ObjectPtr\&lt; nap::WebSocket\lServerEndPoint \&gt;">
<polygon fill="white" stroke="black" points="132.5,-137.5 132.5,-167.5 272.5,-167.5 272.5,-137.5 132.5,-137.5"/>
<text text-anchor="start" x="140.5" y="-155.5" font-family="Helvetica,sans-Serif" font-size="10.00">ObjectPtr&lt; nap::WebSocket</text>
<text text-anchor="middle" x="202.5" y="-144.5" font-family="Helvetica,sans-Serif" font-size="10.00">ServerEndPoint &gt;</text>
</a>
</g>
</g>
<!-- Node0&#45;&gt;Node50 -->
<g id="edge50" class="edge">
<title>Node0&#45;&gt;Node50</title>
<path fill="none" stroke="midnightblue" d="M41.14,-1164.7C42.27,-1030.5 51.57,-257.12 116,-177.5 120.48,-171.97 126.1,-167.62 132.32,-164.2"/>
<polygon fill="midnightblue" stroke="midnightblue" points="37.64,-1164.75 41.06,-1174.77 44.64,-1164.8 37.64,-1164.75"/>
</g>
<!-- Node51 -->
<g id="node52" class="node">
<title>Node51</title>
<g id="a_node52"><a xlink:href="dd/d7c/classnap_1_1rtti_1_1_object_ptr.html" target="_top" xlink:title="ObjectPtr\&lt; nap::WebSocket\lTicket \&gt;">
<polygon fill="white" stroke="black" points="132.5,-88.5 132.5,-118.5 272.5,-118.5 272.5,-88.5 132.5,-88.5"/>
<text text-anchor="start" x="140.5" y="-106.5" font-family="Helvetica,sans-Serif" font-size="10.00">ObjectPtr&lt; nap::WebSocket</text>
<text text-anchor="middle" x="202.5" y="-95.5" font-family="Helvetica,sans-Serif" font-size="10.00">Ticket &gt;</text>
</a>
</g>
</g>
<!-- Node0&#45;&gt;Node51 -->
<g id="edge51" class="edge">
<title>Node0&#45;&gt;Node51</title>
<path fill="none" stroke="midnightblue" d="M41.07,-1164.61C41.73,-1026.4 48.46,-212.26 116,-128.5 120.47,-122.96 126.09,-118.61 132.3,-115.19"/>
<polygon fill="midnightblue" stroke="midnightblue" points="37.57,-1164.92 41.03,-1174.94 44.57,-1164.95 37.57,-1164.92"/>
</g>
<!-- Node52 -->
<g id="node53" class="node">
<title>Node52</title>
<g id="a_node53"><a xlink:href="dd/d7c/classnap_1_1rtti_1_1_object_ptr.html" target="_top" xlink:title="ObjectPtr\&lt; Object \&gt;">
<polygon fill="white" stroke="black" points="150.5,-50 150.5,-69 254.5,-69 254.5,-50 150.5,-50"/>
<text text-anchor="middle" x="202.5" y="-57" font-family="Helvetica,sans-Serif" font-size="10.00">ObjectPtr&lt; Object &gt;</text>
</a>
</g>
</g>
<!-- Node0&#45;&gt;Node52 -->
<g id="edge52" class="edge">
<title>Node0&#45;&gt;Node52</title>
<path fill="none" stroke="midnightblue" d="M40.95,-1164.52C40.8,-1022.24 42.95,-165.45 116,-79.5 124.59,-69.39 137.21,-63.85 150.14,-60.93"/>
<polygon fill="midnightblue" stroke="midnightblue" points="37.45,-1164.8 40.97,-1174.8 44.45,-1164.79 37.45,-1164.8"/>
</g>
<!-- Node53 -->
<g id="node54" class="node">
<title>Node53</title>
<g id="a_node54"><a xlink:href="dd/d7c/classnap_1_1rtti_1_1_object_ptr.html" target="_top" xlink:title="ObjectPtr\&lt; TargetComponent\lType \&gt;">
<polygon fill="white" stroke="black" points="131,-0.5 131,-30.5 274,-30.5 274,-0.5 131,-0.5"/>
<text text-anchor="start" x="139" y="-18.5" font-family="Helvetica,sans-Serif" font-size="10.00">ObjectPtr&lt; TargetComponent</text>
<text text-anchor="middle" x="202.5" y="-7.5" font-family="Helvetica,sans-Serif" font-size="10.00">Type &gt;</text>
</a>
</g>
</g>
<!-- Node0&#45;&gt;Node53 -->
<g id="edge53" class="edge">
<title>Node0&#45;&gt;Node53</title>
<path fill="none" stroke="midnightblue" d="M40.95,-1164.75C40.8,-1020.48 42.8,-131.78 116,-40.5 120.06,-35.43 125.1,-31.36 130.67,-28.08"/>
<polygon fill="midnightblue" stroke="midnightblue" points="37.45,-1164.81 40.97,-1174.81 44.45,-1164.8 37.45,-1164.81"/>
</g>
</g>
</svg>
