<?xml version="1.0" encoding="UTF-8" standalone="no"?>
<!DOCTYPE svg PUBLIC "-//W3C//DTD SVG 1.1//EN"
 "http://www.w3.org/Graphics/SVG/1.1/DTD/svg11.dtd">
<!-- Generated by graphviz version 2.43.0 (0)
 -->
<!-- Title: Graphical Class Hierarchy Pages: 1 -->
<svg width="535pt" height="215pt"
 viewBox="0.00 0.00 535.00 214.50" xmlns="http://www.w3.org/2000/svg" xmlns:xlink="http://www.w3.org/1999/xlink">
<g id="graph0" class="graph" transform="scale(1 1) rotate(0) translate(4 210.5)">
<title>Graphical Class Hierarchy</title>
<polygon fill="white" stroke="transparent" points="-4,4 -4,-210.5 531,-210.5 531,4 -4,4"/>
<!-- Node0 -->
<g id="node1" class="node">
<title>Node0</title>
<g id="a_node1"><a xlink:href="dc/d72/classnap_1_1_shader_variable_declaration.html" target="_top" xlink:title=" ">
<polygon fill="white" stroke="black" points="0,-88.5 0,-107.5 146,-107.5 146,-88.5 0,-88.5"/>
<text text-anchor="middle" x="73" y="-95.5" font-family="Helvetica,sans-Serif" font-size="10.00">ShaderVariableDeclaration</text>
</a>
</g>
</g>
<!-- Node1 -->
<g id="node2" class="node">
<title>Node1</title>
<g id="a_node2"><a xlink:href="de/d72/classnap_1_1_shader_variable_struct_array_declaration.html" target="_top" xlink:title=" ">
<polygon fill="white" stroke="black" points="197,-176 197,-206 342,-206 342,-176 197,-176"/>
<text text-anchor="start" x="205" y="-194" font-family="Helvetica,sans-Serif" font-size="10.00">ShaderVariableStructArray</text>
<text text-anchor="middle" x="269.5" y="-183" font-family="Helvetica,sans-Serif" font-size="10.00">Declaration</text>
</a>
</g>
</g>
<!-- Node0&#45;&gt;Node1 -->
<g id="edge1" class="edge">
<title>Node0&#45;&gt;Node1</title>
<path fill="none" stroke="midnightblue" d="M94.41,-113.68C115.38,-129.13 149.46,-152.49 182,-167 189.4,-170.3 197.36,-173.25 205.36,-175.86"/>
<polygon fill="midnightblue" stroke="midnightblue" points="96.37,-110.77 86.27,-107.59 92.18,-116.38 96.37,-110.77"/>
</g>
<!-- Node2 -->
<g id="node3" class="node">
<title>Node2</title>
<g id="a_node3"><a xlink:href="d9/d70/classnap_1_1_shader_variable_struct_buffer_declaration.html" target="_top" xlink:title=" ">
<polygon fill="white" stroke="black" points="195.5,-127 195.5,-157 343.5,-157 343.5,-127 195.5,-127"/>
<text text-anchor="start" x="203.5" y="-145" font-family="Helvetica,sans-Serif" font-size="10.00">ShaderVariableStructBuffer</text>
<text text-anchor="middle" x="269.5" y="-134" font-family="Helvetica,sans-Serif" font-size="10.00">Declaration</text>
</a>
</g>
</g>
<!-- Node0&#45;&gt;Node2 -->
<g id="edge2" class="edge">
<title>Node0&#45;&gt;Node2</title>
<path fill="none" stroke="midnightblue" d="M126.22,-109.81C149.49,-115.08 177.17,-121.34 201.9,-126.93"/>
<polygon fill="midnightblue" stroke="midnightblue" points="126.73,-106.34 116.2,-107.55 125.18,-113.17 126.73,-106.34"/>
</g>
<!-- Node3 -->
<g id="node4" class="node">
<title>Node3</title>
<g id="a_node4"><a xlink:href="d1/d7d/classnap_1_1_shader_variable_struct_declaration.html" target="_top" xlink:title=" ">
<polygon fill="white" stroke="black" points="182,-88.5 182,-107.5 357,-107.5 357,-88.5 182,-88.5"/>
<text text-anchor="middle" x="269.5" y="-95.5" font-family="Helvetica,sans-Serif" font-size="10.00">ShaderVariableStructDeclaration</text>
</a>
</g>
</g>
<!-- Node0&#45;&gt;Node3 -->
<g id="edge3" class="edge">
<title>Node0&#45;&gt;Node3</title>
<path fill="none" stroke="midnightblue" d="M156.39,-98C164.86,-98 173.48,-98 181.99,-98"/>
<polygon fill="midnightblue" stroke="midnightblue" points="156.15,-94.5 146.15,-98 156.15,-101.5 156.15,-94.5"/>
</g>
<!-- Node5 -->
<g id="node6" class="node">
<title>Node5</title>
<g id="a_node6"><a xlink:href="d8/d24/classnap_1_1_shader_variable_value_array_declaration.html" target="_top" xlink:title=" ">
<polygon fill="white" stroke="black" points="198,-39 198,-69 341,-69 341,-39 198,-39"/>
<text text-anchor="start" x="206" y="-57" font-family="Helvetica,sans-Serif" font-size="10.00">ShaderVariableValueArray</text>
<text text-anchor="middle" x="269.5" y="-46" font-family="Helvetica,sans-Serif" font-size="10.00">Declaration</text>
</a>
</g>
</g>
<!-- Node0&#45;&gt;Node5 -->
<g id="edge5" class="edge">
<title>Node0&#45;&gt;Node5</title>
<path fill="none" stroke="midnightblue" d="M126.22,-86.19C149.49,-80.92 177.17,-74.66 201.9,-69.07"/>
<polygon fill="midnightblue" stroke="midnightblue" points="125.18,-82.83 116.2,-88.45 126.73,-89.66 125.18,-82.83"/>
</g>
<!-- Node6 -->
<g id="node7" class="node">
<title>Node6</title>
<g id="a_node7"><a xlink:href="d6/df3/classnap_1_1_shader_variable_value_declaration.html" target="_top" xlink:title=" ">
<polygon fill="white" stroke="black" points="183,-0.5 183,-19.5 356,-19.5 356,-0.5 183,-0.5"/>
<text text-anchor="middle" x="269.5" y="-7.5" font-family="Helvetica,sans-Serif" font-size="10.00">ShaderVariableValueDeclaration</text>
</a>
</g>
</g>
<!-- Node0&#45;&gt;Node6 -->
<g id="edge6" class="edge">
<title>Node0&#45;&gt;Node6</title>
<path fill="none" stroke="midnightblue" d="M94.32,-82.27C115.21,-66.82 149.25,-43.64 182,-30 192.25,-25.73 203.57,-22.29 214.56,-19.53"/>
<polygon fill="midnightblue" stroke="midnightblue" points="92.1,-79.56 86.21,-88.37 96.3,-85.16 92.1,-79.56"/>
</g>
<!-- Node4 -->
<g id="node5" class="node">
<title>Node4</title>
<g id="a_node5"><a xlink:href="dd/d6b/classnap_1_1_buffer_object_declaration.html" target="_top" xlink:title=" ">
<polygon fill="white" stroke="black" points="393,-88.5 393,-107.5 527,-107.5 527,-88.5 393,-88.5"/>
<text text-anchor="middle" x="460" y="-95.5" font-family="Helvetica,sans-Serif" font-size="10.00">BufferObjectDeclaration</text>
</a>
</g>
</g>
<!-- Node3&#45;&gt;Node4 -->
<g id="edge4" class="edge">
<title>Node3&#45;&gt;Node4</title>
<path fill="none" stroke="midnightblue" d="M367.17,-98C375.82,-98 384.45,-98 392.75,-98"/>
<polygon fill="midnightblue" stroke="midnightblue" points="367.03,-94.5 357.03,-98 367.03,-101.5 367.03,-94.5"/>
</g>
</g>
</svg>
