<?xml version="1.0" encoding="UTF-8" standalone="no"?>
<!DOCTYPE svg PUBLIC "-//W3C//DTD SVG 1.1//EN"
 "http://www.w3.org/Graphics/SVG/1.1/DTD/svg11.dtd">
<!-- Generated by graphviz version 3.0.0 (20220226.1711)
 -->
<!-- Title: Graphical Class Hierarchy Pages: 1 -->
<svg width="297pt" height="1983pt"
 viewBox="0.00 0.00 297.00 1982.50" xmlns="http://www.w3.org/2000/svg" xmlns:xlink="http://www.w3.org/1999/xlink">
<g id="graph0" class="graph" transform="scale(1 1) rotate(0) translate(4 1978.5)">
<title>Graphical Class Hierarchy</title>
<polygon fill="white" stroke="transparent" points="-4,4 -4,-1978.5 293,-1978.5 293,4 -4,4"/>
<!-- Node0 -->
<g id="node1" class="node">
<title>Node0</title>
<g id="a_node1"><a xlink:href="d7/dcb/classnap_1_1rtti_1_1_object_ptr_base.html" target="_top" xlink:title="ObjectPtrBase">
<polygon fill="white" stroke="black" points="0,-999 0,-1018 80,-1018 80,-999 0,-999"/>
<text text-anchor="middle" x="40" y="-1006" font-family="Helvetica,sans-Serif" font-size="10.00">ObjectPtrBase</text>
</a>
</g>
</g>
<!-- Node1 -->
<g id="node2" class="node">
<title>Node1</title>
<g id="a_node2"><a xlink:href="dd/d7c/classnap_1_1rtti_1_1_object_ptr.html" target="_top" xlink:title="ObjectPtr\&lt; T \&gt;">
<polygon fill="white" stroke="black" points="162,-1955 162,-1974 243,-1974 243,-1955 162,-1955"/>
<text text-anchor="middle" x="202.5" y="-1962" font-family="Helvetica,sans-Serif" font-size="10.00">ObjectPtr&lt; T &gt;</text>
</a>
</g>
</g>
<!-- Node0&#45;&gt;Node1 -->
<g id="edge1" class="edge">
<title>Node0&#45;&gt;Node1</title>
<path fill="none" stroke="midnightblue" d="M41.2,-1028.54C42.68,-1158.05 53.68,-1873.86 116,-1945.5 127.28,-1958.46 145.26,-1963.68 161.83,-1965.47"/>
<polygon fill="midnightblue" stroke="midnightblue" points="44.7,-1028.12 41.09,-1018.16 37.7,-1028.19 44.7,-1028.12"/>
</g>
<!-- Node2 -->
<g id="node3" class="node">
<title>Node2</title>
<g id="a_node3"><a xlink:href="dd/d7c/classnap_1_1rtti_1_1_object_ptr.html" target="_top" xlink:title="ObjectPtr\&lt; ComponentType \&gt;">
<polygon fill="white" stroke="black" points="129.5,-1917 129.5,-1936 275.5,-1936 275.5,-1917 129.5,-1917"/>
<text text-anchor="middle" x="202.5" y="-1924" font-family="Helvetica,sans-Serif" font-size="10.00">ObjectPtr&lt; ComponentType &gt;</text>
</a>
</g>
</g>
<!-- Node0&#45;&gt;Node2 -->
<g id="edge2" class="edge">
<title>Node0&#45;&gt;Node2</title>
<path fill="none" stroke="midnightblue" d="M41.27,-1028.12C43.15,-1153.43 56.13,-1838.92 116,-1907.5 119.8,-1911.85 124.36,-1915.33 129.36,-1918.1"/>
<polygon fill="midnightblue" stroke="midnightblue" points="44.77,-1028 41.12,-1018.05 37.77,-1028.1 44.77,-1028"/>
</g>
<!-- Node3 -->
<g id="node4" class="node">
<title>Node3</title>
<g id="a_node4"><a xlink:href="dd/d7c/classnap_1_1rtti_1_1_object_ptr.html" target="_top" xlink:title="ObjectPtr\&lt; nap::audio\l::AudioBufferResource \&gt;">
<polygon fill="white" stroke="black" points="141.5,-1867.5 141.5,-1897.5 263.5,-1897.5 263.5,-1867.5 141.5,-1867.5"/>
<text text-anchor="start" x="149.5" y="-1885.5" font-family="Helvetica,sans-Serif" font-size="10.00">ObjectPtr&lt; nap::audio</text>
<text text-anchor="middle" x="202.5" y="-1874.5" font-family="Helvetica,sans-Serif" font-size="10.00">::AudioBufferResource &gt;</text>
</a>
</g>
</g>
<!-- Node0&#45;&gt;Node3 -->
<g id="edge3" class="edge">
<title>Node0&#45;&gt;Node3</title>
<path fill="none" stroke="midnightblue" d="M41.42,-1028.12C44.15,-1149.26 61.19,-1792.44 116,-1858.5 122.6,-1866.45 131.6,-1871.88 141.29,-1875.57"/>
<polygon fill="midnightblue" stroke="midnightblue" points="44.91,-1027.99 41.19,-1018.06 37.91,-1028.14 44.91,-1027.99"/>
</g>
<!-- Node4 -->
<g id="node5" class="node">
<title>Node4</title>
<g id="a_node5"><a xlink:href="dd/d7c/classnap_1_1rtti_1_1_object_ptr.html" target="_top" xlink:title="ObjectPtr\&lt; nap::audio\l::AudioComponentBase \&gt;">
<polygon fill="white" stroke="black" points="138.5,-1818.5 138.5,-1848.5 266.5,-1848.5 266.5,-1818.5 138.5,-1818.5"/>
<text text-anchor="start" x="146.5" y="-1836.5" font-family="Helvetica,sans-Serif" font-size="10.00">ObjectPtr&lt; nap::audio</text>
<text text-anchor="middle" x="202.5" y="-1825.5" font-family="Helvetica,sans-Serif" font-size="10.00">::AudioComponentBase &gt;</text>
</a>
</g>
</g>
<!-- Node0&#45;&gt;Node4 -->
<g id="edge4" class="edge">
<title>Node0&#45;&gt;Node4</title>
<path fill="none" stroke="midnightblue" d="M41.54,-1028.04C44.91,-1144.69 64.71,-1746.35 116,-1808.5 121.91,-1815.66 129.74,-1820.83 138.27,-1824.56"/>
<polygon fill="midnightblue" stroke="midnightblue" points="45.04,-1027.93 41.25,-1018.03 38.04,-1028.13 45.04,-1027.93"/>
</g>
<!-- Node5 -->
<g id="node6" class="node">
<title>Node5</title>
<g id="a_node6"><a xlink:href="dd/d7c/classnap_1_1rtti_1_1_object_ptr.html" target="_top" xlink:title="ObjectPtr\&lt; nap::Component \&gt;">
<polygon fill="white" stroke="black" points="129,-1780 129,-1799 276,-1799 276,-1780 129,-1780"/>
<text text-anchor="middle" x="202.5" y="-1787" font-family="Helvetica,sans-Serif" font-size="10.00">ObjectPtr&lt; nap::Component &gt;</text>
</a>
</g>
</g>
<!-- Node0&#45;&gt;Node5 -->
<g id="edge5" class="edge">
<title>Node0&#45;&gt;Node5</title>
<path fill="none" stroke="midnightblue" d="M41.58,-1028.21C45.1,-1142.12 65.23,-1713.21 116,-1770.5 119.63,-1774.6 123.93,-1777.92 128.64,-1780.6"/>
<polygon fill="midnightblue" stroke="midnightblue" points="45.08,-1028.02 41.27,-1018.13 38.08,-1028.23 45.08,-1028.02"/>
</g>
<!-- Node6 -->
<g id="node7" class="node">
<title>Node6</title>
<g id="a_node7"><a xlink:href="dd/d7c/classnap_1_1rtti_1_1_object_ptr.html" target="_top" xlink:title="ObjectPtr\&lt; nap::CVAdapter \&gt;">
<polygon fill="white" stroke="black" points="130,-1742 130,-1761 275,-1761 275,-1742 130,-1742"/>
<text text-anchor="middle" x="202.5" y="-1749" font-family="Helvetica,sans-Serif" font-size="10.00">ObjectPtr&lt; nap::CVAdapter &gt;</text>
</a>
</g>
</g>
<!-- Node0&#45;&gt;Node6 -->
<g id="edge6" class="edge">
<title>Node0&#45;&gt;Node6</title>
<path fill="none" stroke="midnightblue" d="M41.69,-1028.25C45.72,-1138.84 67.75,-1678.33 116,-1732.5 119.94,-1736.93 124.67,-1740.45 129.85,-1743.23"/>
<polygon fill="midnightblue" stroke="midnightblue" points="45.18,-1028.03 41.33,-1018.16 38.19,-1028.28 45.18,-1028.03"/>
</g>
<!-- Node7 -->
<g id="node8" class="node">
<title>Node7</title>
<g id="a_node8"><a xlink:href="dd/d7c/classnap_1_1rtti_1_1_object_ptr.html" target="_top" xlink:title="ObjectPtr\&lt; nap::CVCapture\lComponent \&gt;">
<polygon fill="white" stroke="black" points="134.5,-1692.5 134.5,-1722.5 270.5,-1722.5 270.5,-1692.5 134.5,-1692.5"/>
<text text-anchor="start" x="142.5" y="-1710.5" font-family="Helvetica,sans-Serif" font-size="10.00">ObjectPtr&lt; nap::CVCapture</text>
<text text-anchor="middle" x="202.5" y="-1699.5" font-family="Helvetica,sans-Serif" font-size="10.00">Component &gt;</text>
</a>
</g>
</g>
<!-- Node0&#45;&gt;Node7 -->
<g id="edge7" class="edge">
<title>Node0&#45;&gt;Node7</title>
<path fill="none" stroke="midnightblue" d="M41.91,-1028.51C46.9,-1134.98 72.42,-1632.17 116,-1683.5 120.99,-1689.38 127.29,-1693.87 134.2,-1697.3"/>
<polygon fill="midnightblue" stroke="midnightblue" points="45.39,-1028.05 41.43,-1018.22 38.4,-1028.37 45.39,-1028.05"/>
</g>
<!-- Node8 -->
<g id="node9" class="node">
<title>Node8</title>
<g id="a_node9"><a xlink:href="dd/d7c/classnap_1_1rtti_1_1_object_ptr.html" target="_top" xlink:title="ObjectPtr\&lt; nap::CVCapture\lDevice \&gt;">
<polygon fill="white" stroke="black" points="134.5,-1643.5 134.5,-1673.5 270.5,-1673.5 270.5,-1643.5 134.5,-1643.5"/>
<text text-anchor="start" x="142.5" y="-1661.5" font-family="Helvetica,sans-Serif" font-size="10.00">ObjectPtr&lt; nap::CVCapture</text>
<text text-anchor="middle" x="202.5" y="-1650.5" font-family="Helvetica,sans-Serif" font-size="10.00">Device &gt;</text>
</a>
</g>
</g>
<!-- Node0&#45;&gt;Node8 -->
<g id="edge8" class="edge">
<title>Node0&#45;&gt;Node8</title>
<path fill="none" stroke="midnightblue" d="M40.56,-1028.59C38.83,-1124.98 36.24,-1539.35 116,-1633.5 121,-1639.4 127.31,-1643.95 134.22,-1647.45"/>
<polygon fill="midnightblue" stroke="midnightblue" points="44.06,-1028.52 40.76,-1018.45 37.06,-1028.38 44.06,-1028.52"/>
</g>
<!-- Node9 -->
<g id="node10" class="node">
<title>Node9</title>
<g id="a_node10"><a xlink:href="dd/d7c/classnap_1_1rtti_1_1_object_ptr.html" target="_top" xlink:title="ObjectPtr\&lt; nap::Entity \&gt;">
<polygon fill="white" stroke="black" points="141,-1605 141,-1624 264,-1624 264,-1605 141,-1605"/>
<text text-anchor="middle" x="202.5" y="-1612" font-family="Helvetica,sans-Serif" font-size="10.00">ObjectPtr&lt; nap::Entity &gt;</text>
</a>
</g>
</g>
<!-- Node0&#45;&gt;Node9 -->
<g id="edge9" class="edge">
<title>Node0&#45;&gt;Node9</title>
<path fill="none" stroke="midnightblue" d="M40.61,-1028.34C39.2,-1120.99 38.06,-1510.07 116,-1595.5 122.66,-1602.8 131.45,-1607.62 140.86,-1610.75"/>
<polygon fill="midnightblue" stroke="midnightblue" points="44.11,-1028.4 40.78,-1018.34 37.11,-1028.28 44.11,-1028.4"/>
</g>
<!-- Node10 -->
<g id="node11" class="node">
<title>Node10</title>
<g id="a_node11"><a xlink:href="dd/d7c/classnap_1_1rtti_1_1_object_ptr.html" target="_top" xlink:title="ObjectPtr\&lt; nap::EntityInstance \&gt;">
<polygon fill="white" stroke="black" points="122.5,-1567 122.5,-1586 282.5,-1586 282.5,-1567 122.5,-1567"/>
<text text-anchor="middle" x="202.5" y="-1574" font-family="Helvetica,sans-Serif" font-size="10.00">ObjectPtr&lt; nap::EntityInstance &gt;</text>
</a>
</g>
</g>
<!-- Node0&#45;&gt;Node10 -->
<g id="edge10" class="edge">
<title>Node0&#45;&gt;Node10</title>
<path fill="none" stroke="midnightblue" d="M40.8,-1028.17C40.33,-1116.79 42.98,-1478.16 116,-1557.5 119.5,-1561.3 123.58,-1564.43 128.02,-1567"/>
<polygon fill="midnightblue" stroke="midnightblue" points="44.3,-1028.16 40.88,-1018.13 37.3,-1028.11 44.3,-1028.16"/>
</g>
<!-- Node11 -->
<g id="node12" class="node">
<title>Node11</title>
<g id="a_node12"><a xlink:href="dd/d7c/classnap_1_1rtti_1_1_object_ptr.html" target="_top" xlink:title="ObjectPtr\&lt; nap::Font \&gt;">
<polygon fill="white" stroke="black" points="144,-1529 144,-1548 261,-1548 261,-1529 144,-1529"/>
<text text-anchor="middle" x="202.5" y="-1536" font-family="Helvetica,sans-Serif" font-size="10.00">ObjectPtr&lt; nap::Font &gt;</text>
</a>
</g>
</g>
<!-- Node0&#45;&gt;Node11 -->
<g id="edge11" class="edge">
<title>Node0&#45;&gt;Node11</title>
<path fill="none" stroke="midnightblue" d="M41.03,-1028.41C41.55,-1113.59 48,-1446.35 116,-1519.5 123.35,-1527.41 133.2,-1532.39 143.6,-1535.46"/>
<polygon fill="midnightblue" stroke="midnightblue" points="44.53,-1028.27 40.99,-1018.28 37.53,-1028.29 44.53,-1028.27"/>
</g>
<!-- Node12 -->
<g id="node13" class="node">
<title>Node12</title>
<g id="a_node13"><a xlink:href="dd/d7c/classnap_1_1rtti_1_1_object_ptr.html" target="_top" xlink:title="ObjectPtr\&lt; nap::GnomonMesh \&gt;">
<polygon fill="white" stroke="black" points="123.5,-1491 123.5,-1510 281.5,-1510 281.5,-1491 123.5,-1491"/>
<text text-anchor="middle" x="202.5" y="-1498" font-family="Helvetica,sans-Serif" font-size="10.00">ObjectPtr&lt; nap::GnomonMesh &gt;</text>
</a>
</g>
</g>
<!-- Node0&#45;&gt;Node12 -->
<g id="edge12" class="edge">
<title>Node0&#45;&gt;Node12</title>
<path fill="none" stroke="midnightblue" d="M41.29,-1028.71C42.88,-1110.35 53.02,-1414.53 116,-1481.5 119.54,-1485.27 123.65,-1488.37 128.11,-1490.91"/>
<polygon fill="midnightblue" stroke="midnightblue" points="44.78,-1028.28 41.11,-1018.34 37.78,-1028.4 44.78,-1028.28"/>
</g>
<!-- Node13 -->
<g id="node14" class="node">
<title>Node13</title>
<g id="a_node14"><a xlink:href="dd/d7c/classnap_1_1rtti_1_1_object_ptr.html" target="_top" xlink:title="ObjectPtr\&lt; nap::ICalendar \&gt;">
<polygon fill="white" stroke="black" points="133.5,-1453 133.5,-1472 271.5,-1472 271.5,-1453 133.5,-1453"/>
<text text-anchor="middle" x="202.5" y="-1460" font-family="Helvetica,sans-Serif" font-size="10.00">ObjectPtr&lt; nap::ICalendar &gt;</text>
</a>
</g>
</g>
<!-- Node0&#45;&gt;Node13 -->
<g id="edge13" class="edge">
<title>Node0&#45;&gt;Node13</title>
<path fill="none" stroke="midnightblue" d="M41.59,-1028.56C44.29,-1105.78 57.91,-1382.56 116,-1443.5 120.93,-1448.67 126.93,-1452.59 133.45,-1455.53"/>
<polygon fill="midnightblue" stroke="midnightblue" points="45.08,-1028.18 41.26,-1018.3 38.09,-1028.41 45.08,-1028.18"/>
</g>
<!-- Node14 -->
<g id="node15" class="node">
<title>Node14</title>
<g id="a_node15"><a xlink:href="dd/d7c/classnap_1_1rtti_1_1_object_ptr.html" target="_top" xlink:title="ObjectPtr\&lt; nap::IMesh \&gt;">
<polygon fill="white" stroke="black" points="140.5,-1415 140.5,-1434 264.5,-1434 264.5,-1415 140.5,-1415"/>
<text text-anchor="middle" x="202.5" y="-1422" font-family="Helvetica,sans-Serif" font-size="10.00">ObjectPtr&lt; nap::IMesh &gt;</text>
</a>
</g>
</g>
<!-- Node0&#45;&gt;Node14 -->
<g id="edge14" class="edge">
<title>Node0&#45;&gt;Node14</title>
<path fill="none" stroke="midnightblue" d="M41.93,-1028.2C45.77,-1100.57 62.73,-1350.5 116,-1405.5 122.66,-1412.38 131.23,-1417.03 140.35,-1420.12"/>
<polygon fill="midnightblue" stroke="midnightblue" points="45.43,-1027.97 41.43,-1018.16 38.44,-1028.32 45.43,-1027.97"/>
</g>
<!-- Node15 -->
<g id="node16" class="node">
<title>Node15</title>
<g id="a_node16"><a xlink:href="dd/d7c/classnap_1_1rtti_1_1_object_ptr.html" target="_top" xlink:title="ObjectPtr\&lt; nap::Instance\lPropertyValue \&gt;">
<polygon fill="white" stroke="black" points="140,-1365.5 140,-1395.5 265,-1395.5 265,-1365.5 140,-1365.5"/>
<text text-anchor="start" x="148" y="-1383.5" font-family="Helvetica,sans-Serif" font-size="10.00">ObjectPtr&lt; nap::Instance</text>
<text text-anchor="middle" x="202.5" y="-1372.5" font-family="Helvetica,sans-Serif" font-size="10.00">PropertyValue &gt;</text>
</a>
</g>
</g>
<!-- Node0&#45;&gt;Node15 -->
<g id="edge15" class="edge">
<title>Node0&#45;&gt;Node15</title>
<path fill="none" stroke="midnightblue" d="M42.67,-1028.54C48.62,-1095.04 70.84,-1306.98 116,-1355.5 122.53,-1362.52 130.92,-1367.6 139.87,-1371.28"/>
<polygon fill="midnightblue" stroke="midnightblue" points="46.13,-1027.86 41.78,-1018.2 39.15,-1028.46 46.13,-1027.86"/>
</g>
<!-- Node16 -->
<g id="node17" class="node">
<title>Node16</title>
<g id="a_node17"><a xlink:href="dd/d7c/classnap_1_1rtti_1_1_object_ptr.html" target="_top" xlink:title="ObjectPtr\&lt; nap::Material \&gt;">
<polygon fill="white" stroke="black" points="136.5,-1327 136.5,-1346 268.5,-1346 268.5,-1327 136.5,-1327"/>
<text text-anchor="middle" x="202.5" y="-1334" font-family="Helvetica,sans-Serif" font-size="10.00">ObjectPtr&lt; nap::Material &gt;</text>
</a>
</g>
</g>
<!-- Node0&#45;&gt;Node16 -->
<g id="edge16" class="edge">
<title>Node0&#45;&gt;Node16</title>
<path fill="none" stroke="midnightblue" d="M43.11,-1028.43C50.03,-1090.13 74.07,-1276.38 116,-1317.5 121.75,-1323.14 128.79,-1327.26 136.33,-1330.25"/>
<polygon fill="midnightblue" stroke="midnightblue" points="46.54,-1027.68 41.98,-1018.12 39.59,-1028.44 46.54,-1027.68"/>
</g>
<!-- Node17 -->
<g id="node18" class="node">
<title>Node17</title>
<g id="a_node18"><a xlink:href="dd/d7c/classnap_1_1rtti_1_1_object_ptr.html" target="_top" xlink:title="ObjectPtr\&lt; nap::Operational\lCalendar \&gt;">
<polygon fill="white" stroke="black" points="133.5,-1277.5 133.5,-1307.5 271.5,-1307.5 271.5,-1277.5 133.5,-1277.5"/>
<text text-anchor="start" x="141.5" y="-1295.5" font-family="Helvetica,sans-Serif" font-size="10.00">ObjectPtr&lt; nap::Operational</text>
<text text-anchor="middle" x="202.5" y="-1284.5" font-family="Helvetica,sans-Serif" font-size="10.00">Calendar &gt;</text>
</a>
</g>
</g>
<!-- Node0&#45;&gt;Node17 -->
<g id="edge17" class="edge">
<title>Node0&#45;&gt;Node17</title>
<path fill="none" stroke="midnightblue" d="M40.61,-1028.2C40.77,-1076.37 48.1,-1201.08 116,-1268.5 121.03,-1273.5 127.02,-1277.47 133.45,-1280.63"/>
<polygon fill="midnightblue" stroke="midnightblue" points="44.11,-1028.18 40.68,-1018.16 37.11,-1028.13 44.11,-1028.18"/>
</g>
<!-- Node18 -->
<g id="node19" class="node">
<title>Node18</title>
<g id="a_node19"><a xlink:href="dd/d7c/classnap_1_1rtti_1_1_object_ptr.html" target="_top" xlink:title="ObjectPtr\&lt; nap::OrthoCamera\lComponent \&gt;">
<polygon fill="white" stroke="black" points="129.5,-1228.5 129.5,-1258.5 275.5,-1258.5 275.5,-1228.5 129.5,-1228.5"/>
<text text-anchor="start" x="137.5" y="-1246.5" font-family="Helvetica,sans-Serif" font-size="10.00">ObjectPtr&lt; nap::OrthoCamera</text>
<text text-anchor="middle" x="202.5" y="-1235.5" font-family="Helvetica,sans-Serif" font-size="10.00">Component &gt;</text>
</a>
</g>
</g>
<!-- Node0&#45;&gt;Node18 -->
<g id="edge18" class="edge">
<title>Node0&#45;&gt;Node18</title>
<path fill="none" stroke="midnightblue" d="M42.25,-1028.21C45.95,-1069.6 60.39,-1166.06 116,-1218.5 120.05,-1222.32 124.65,-1225.56 129.57,-1228.31"/>
<polygon fill="midnightblue" stroke="midnightblue" points="45.73,-1027.78 41.47,-1018.08 38.75,-1028.32 45.73,-1027.78"/>
</g>
<!-- Node19 -->
<g id="node20" class="node">
<title>Node19</title>
<g id="a_node20"><a xlink:href="dd/d7c/classnap_1_1rtti_1_1_object_ptr.html" target="_top" xlink:title="ObjectPtr\&lt; nap::Parameter \&gt;">
<polygon fill="white" stroke="black" points="131,-1190 131,-1209 274,-1209 274,-1190 131,-1190"/>
<text text-anchor="middle" x="202.5" y="-1197" font-family="Helvetica,sans-Serif" font-size="10.00">ObjectPtr&lt; nap::Parameter &gt;</text>
</a>
</g>
</g>
<!-- Node0&#45;&gt;Node19 -->
<g id="edge19" class="edge">
<title>Node0&#45;&gt;Node19</title>
<path fill="none" stroke="midnightblue" d="M43.73,-1028.31C49.81,-1064.43 67.9,-1140.87 116,-1180.5 120.58,-1184.27 125.74,-1187.33 131.21,-1189.82"/>
<polygon fill="midnightblue" stroke="midnightblue" points="47.14,-1027.46 42.16,-1018.1 40.22,-1028.52 47.14,-1027.46"/>
</g>
<!-- Node20 -->
<g id="node21" class="node">
<title>Node20</title>
<g id="a_node21"><a xlink:href="dd/d7c/classnap_1_1rtti_1_1_object_ptr.html" target="_top" xlink:title="ObjectPtr\&lt; nap::Parameter\lBlendGroup \&gt;">
<polygon fill="white" stroke="black" points="135.5,-1140.5 135.5,-1170.5 269.5,-1170.5 269.5,-1140.5 135.5,-1140.5"/>
<text text-anchor="start" x="143.5" y="-1158.5" font-family="Helvetica,sans-Serif" font-size="10.00">ObjectPtr&lt; nap::Parameter</text>
<text text-anchor="middle" x="202.5" y="-1147.5" font-family="Helvetica,sans-Serif" font-size="10.00">BlendGroup &gt;</text>
</a>
</g>
</g>
<!-- Node0&#45;&gt;Node20 -->
<g id="edge20" class="edge">
<title>Node0&#45;&gt;Node20</title>
<path fill="none" stroke="midnightblue" d="M47.55,-1027.75C57.81,-1054.98 80.28,-1104.43 116,-1131.5 121.78,-1135.88 128.31,-1139.45 135.14,-1142.38"/>
<polygon fill="midnightblue" stroke="midnightblue" points="50.79,-1026.41 44.11,-1018.19 44.2,-1028.78 50.79,-1026.41"/>
</g>
<!-- Node21 -->
<g id="node22" class="node">
<title>Node21</title>
<g id="a_node22"><a xlink:href="dd/d7c/classnap_1_1rtti_1_1_object_ptr.html" target="_top" xlink:title="ObjectPtr\&lt; nap::Parameter\lButton \&gt;">
<polygon fill="white" stroke="black" points="135.5,-1091.5 135.5,-1121.5 269.5,-1121.5 269.5,-1091.5 135.5,-1091.5"/>
<text text-anchor="start" x="143.5" y="-1109.5" font-family="Helvetica,sans-Serif" font-size="10.00">ObjectPtr&lt; nap::Parameter</text>
<text text-anchor="middle" x="202.5" y="-1098.5" font-family="Helvetica,sans-Serif" font-size="10.00">Button &gt;</text>
</a>
</g>
</g>
<!-- Node0&#45;&gt;Node21 -->
<g id="edge21" class="edge">
<title>Node0&#45;&gt;Node21</title>
<path fill="none" stroke="midnightblue" d="M54.47,-1026.22C68.18,-1043.08 90.95,-1067.95 116,-1082.5 122,-1085.98 128.53,-1088.99 135.22,-1091.57"/>
<polygon fill="midnightblue" stroke="midnightblue" points="57.1,-1023.91 48.16,-1018.24 51.61,-1028.26 57.1,-1023.91"/>
</g>
<!-- Node22 -->
<g id="node23" class="node">
<title>Node22</title>
<g id="a_node23"><a xlink:href="dd/d7c/classnap_1_1rtti_1_1_object_ptr.html" target="_top" xlink:title="ObjectPtr\&lt; nap::Parameter\lGroup \&gt;">
<polygon fill="white" stroke="black" points="135.5,-1042.5 135.5,-1072.5 269.5,-1072.5 269.5,-1042.5 135.5,-1042.5"/>
<text text-anchor="start" x="143.5" y="-1060.5" font-family="Helvetica,sans-Serif" font-size="10.00">ObjectPtr&lt; nap::Parameter</text>
<text text-anchor="middle" x="202.5" y="-1049.5" font-family="Helvetica,sans-Serif" font-size="10.00">Group &gt;</text>
</a>
</g>
</g>
<!-- Node0&#45;&gt;Node22 -->
<g id="edge22" class="edge">
<title>Node0&#45;&gt;Node22</title>
<path fill="none" stroke="midnightblue" d="M78.37,-1021.35C90.35,-1025.36 103.7,-1029.73 116,-1033.5 125.73,-1036.48 136.12,-1039.53 146.19,-1042.4"/>
<polygon fill="midnightblue" stroke="midnightblue" points="79.27,-1017.96 68.68,-1018.08 77.04,-1024.59 79.27,-1017.96"/>
</g>
<!-- Node23 -->
<g id="node24" class="node">
<title>Node23</title>
<g id="a_node24"><a xlink:href="dd/d7c/classnap_1_1rtti_1_1_object_ptr.html" target="_top" xlink:title="ObjectPtr\&lt; nap::Parameter\lNumeric \&gt;">
<polygon fill="white" stroke="black" points="135.5,-993.5 135.5,-1023.5 269.5,-1023.5 269.5,-993.5 135.5,-993.5"/>
<text text-anchor="start" x="143.5" y="-1011.5" font-family="Helvetica,sans-Serif" font-size="10.00">ObjectPtr&lt; nap::Parameter</text>
<text text-anchor="middle" x="202.5" y="-1000.5" font-family="Helvetica,sans-Serif" font-size="10.00">Numeric &gt;</text>
</a>
</g>
</g>
<!-- Node0&#45;&gt;Node23 -->
<g id="edge23" class="edge">
<title>Node0&#45;&gt;Node23</title>
<path fill="none" stroke="midnightblue" d="M90.33,-1008.5C104.57,-1008.5 120.35,-1008.5 135.44,-1008.5"/>
<polygon fill="midnightblue" stroke="midnightblue" points="90.26,-1005 80.26,-1008.5 90.26,-1012 90.26,-1005"/>
</g>
<!-- Node24 -->
<g id="node25" class="node">
<title>Node24</title>
<g id="a_node25"><a xlink:href="dd/d7c/classnap_1_1rtti_1_1_object_ptr.html" target="_top" xlink:title="ObjectPtr\&lt; nap::Parameter\lNumeric\&lt; T \&gt; \&gt;">
<polygon fill="white" stroke="black" points="135.5,-944.5 135.5,-974.5 269.5,-974.5 269.5,-944.5 135.5,-944.5"/>
<text text-anchor="start" x="143.5" y="-962.5" font-family="Helvetica,sans-Serif" font-size="10.00">ObjectPtr&lt; nap::Parameter</text>
<text text-anchor="middle" x="202.5" y="-951.5" font-family="Helvetica,sans-Serif" font-size="10.00">Numeric&lt; T &gt; &gt;</text>
</a>
</g>
</g>
<!-- Node0&#45;&gt;Node24 -->
<g id="edge24" class="edge">
<title>Node0&#45;&gt;Node24</title>
<path fill="none" stroke="midnightblue" d="M79.98,-995.82C91.55,-992.11 104.27,-988.09 116,-984.5 126.65,-981.24 138.07,-977.84 148.99,-974.63"/>
<polygon fill="midnightblue" stroke="midnightblue" points="78.6,-992.59 70.15,-998.98 80.74,-999.25 78.6,-992.59"/>
</g>
<!-- Node25 -->
<g id="node26" class="node">
<title>Node25</title>
<g id="a_node26"><a xlink:href="dd/d7c/classnap_1_1rtti_1_1_object_ptr.html" target="_top" xlink:title="ObjectPtr\&lt; nap::Parameter\lSimple\&lt; T \&gt; \&gt;">
<polygon fill="white" stroke="black" points="135.5,-895.5 135.5,-925.5 269.5,-925.5 269.5,-895.5 135.5,-895.5"/>
<text text-anchor="start" x="143.5" y="-913.5" font-family="Helvetica,sans-Serif" font-size="10.00">ObjectPtr&lt; nap::Parameter</text>
<text text-anchor="middle" x="202.5" y="-902.5" font-family="Helvetica,sans-Serif" font-size="10.00">Simple&lt; T &gt; &gt;</text>
</a>
</g>
</g>
<!-- Node0&#45;&gt;Node25 -->
<g id="edge25" class="edge">
<title>Node0&#45;&gt;Node25</title>
<path fill="none" stroke="midnightblue" d="M54.55,-991.08C68.33,-974.51 91.14,-950 116,-935.5 122.55,-931.68 129.72,-928.41 137.04,-925.61"/>
<polygon fill="midnightblue" stroke="midnightblue" points="51.77,-988.95 48.21,-998.93 57.22,-993.35 51.77,-988.95"/>
</g>
<!-- Node26 -->
<g id="node27" class="node">
<title>Node26</title>
<g id="a_node27"><a xlink:href="dd/d7c/classnap_1_1rtti_1_1_object_ptr.html" target="_top" xlink:title="ObjectPtr\&lt; nap::Parameter\lVec\&lt; T \&gt; \&gt;">
<polygon fill="white" stroke="black" points="135.5,-846.5 135.5,-876.5 269.5,-876.5 269.5,-846.5 135.5,-846.5"/>
<text text-anchor="start" x="143.5" y="-864.5" font-family="Helvetica,sans-Serif" font-size="10.00">ObjectPtr&lt; nap::Parameter</text>
<text text-anchor="middle" x="202.5" y="-853.5" font-family="Helvetica,sans-Serif" font-size="10.00">Vec&lt; T &gt; &gt;</text>
</a>
</g>
</g>
<!-- Node0&#45;&gt;Node26 -->
<g id="edge26" class="edge">
<title>Node0&#45;&gt;Node26</title>
<path fill="none" stroke="midnightblue" d="M47.64,-989.45C58,-962.51 80.58,-913.54 116,-886.5 121.78,-882.09 128.32,-878.46 135.14,-875.46"/>
<polygon fill="midnightblue" stroke="midnightblue" points="44.32,-988.32 44.15,-998.92 50.89,-990.74 44.32,-988.32"/>
</g>
<!-- Node27 -->
<g id="node28" class="node">
<title>Node27</title>
<g id="a_node28"><a xlink:href="dd/d7c/classnap_1_1rtti_1_1_object_ptr.html" target="_top" xlink:title="ObjectPtr\&lt; nap::PerspCamera\lComponent \&gt;">
<polygon fill="white" stroke="black" points="128.5,-797.5 128.5,-827.5 276.5,-827.5 276.5,-797.5 128.5,-797.5"/>
<text text-anchor="start" x="136.5" y="-815.5" font-family="Helvetica,sans-Serif" font-size="10.00">ObjectPtr&lt; nap::PerspCamera</text>
<text text-anchor="middle" x="202.5" y="-804.5" font-family="Helvetica,sans-Serif" font-size="10.00">Component &gt;</text>
</a>
</g>
</g>
<!-- Node0&#45;&gt;Node27 -->
<g id="edge27" class="edge">
<title>Node0&#45;&gt;Node27</title>
<path fill="none" stroke="midnightblue" d="M44.12,-988.59C50.75,-952.97 69.64,-878.24 116,-837.5 120.41,-833.62 125.4,-830.34 130.7,-827.57"/>
<polygon fill="midnightblue" stroke="midnightblue" points="40.63,-988.24 42.37,-998.69 47.52,-989.43 40.63,-988.24"/>
</g>
<!-- Node28 -->
<g id="node29" class="node">
<title>Node28</title>
<g id="a_node29"><a xlink:href="dd/d7c/classnap_1_1rtti_1_1_object_ptr.html" target="_top" xlink:title="ObjectPtr\&lt; nap::PortalWeb\lSocketServer \&gt;">
<polygon fill="white" stroke="black" points="135.5,-748.5 135.5,-778.5 269.5,-778.5 269.5,-748.5 135.5,-748.5"/>
<text text-anchor="start" x="143.5" y="-766.5" font-family="Helvetica,sans-Serif" font-size="10.00">ObjectPtr&lt; nap::PortalWeb</text>
<text text-anchor="middle" x="202.5" y="-755.5" font-family="Helvetica,sans-Serif" font-size="10.00">SocketServer &gt;</text>
</a>
</g>
</g>
<!-- Node0&#45;&gt;Node28 -->
<g id="edge28" class="edge">
<title>Node0&#45;&gt;Node28</title>
<path fill="none" stroke="midnightblue" d="M41.88,-988.75C44.87,-945.93 58.05,-843.95 116,-788.5 121.59,-783.15 128.25,-778.94 135.36,-775.63"/>
<polygon fill="midnightblue" stroke="midnightblue" points="38.37,-988.77 41.29,-998.95 45.36,-989.17 38.37,-988.77"/>
</g>
<!-- Node29 -->
<g id="node30" class="node">
<title>Node29</title>
<g id="a_node30"><a xlink:href="dd/d7c/classnap_1_1rtti_1_1_object_ptr.html" target="_top" xlink:title="ObjectPtr\&lt; nap::PythonScript \&gt;">
<polygon fill="white" stroke="black" points="125.5,-710 125.5,-729 279.5,-729 279.5,-710 125.5,-710"/>
<text text-anchor="middle" x="202.5" y="-717" font-family="Helvetica,sans-Serif" font-size="10.00">ObjectPtr&lt; nap::PythonScript &gt;</text>
</a>
</g>
</g>
<!-- Node0&#45;&gt;Node29 -->
<g id="edge29" class="edge">
<title>Node0&#45;&gt;Node29</title>
<path fill="none" stroke="midnightblue" d="M40.2,-988.94C39.32,-939.44 44.25,-808.29 116,-739.5 120.4,-735.28 125.52,-731.89 131.01,-729.17"/>
<polygon fill="midnightblue" stroke="midnightblue" points="36.7,-989.05 40.49,-998.95 43.7,-988.85 36.7,-989.05"/>
</g>
<!-- Node30 -->
<g id="node31" class="node">
<title>Node30</title>
<g id="a_node31"><a xlink:href="dd/d7c/classnap_1_1rtti_1_1_object_ptr.html" target="_top" xlink:title="ObjectPtr\&lt; nap::RenderTexture2D \&gt;">
<polygon fill="white" stroke="black" points="116,-672 116,-691 289,-691 289,-672 116,-672"/>
<text text-anchor="middle" x="202.5" y="-679" font-family="Helvetica,sans-Serif" font-size="10.00">ObjectPtr&lt; nap::RenderTexture2D &gt;</text>
</a>
</g>
</g>
<!-- Node0&#45;&gt;Node30 -->
<g id="edge30" class="edge">
<title>Node0&#45;&gt;Node30</title>
<path fill="none" stroke="midnightblue" d="M43.11,-988.64C50.07,-927.13 74.18,-741.48 116,-700.5 119.8,-696.77 124.16,-693.71 128.86,-691.2"/>
<polygon fill="midnightblue" stroke="midnightblue" points="39.6,-988.59 41.98,-998.91 46.56,-989.35 39.6,-988.59"/>
</g>
<!-- Node31 -->
<g id="node32" class="node">
<title>Node31</title>
<g id="a_node32"><a xlink:href="dd/d7c/classnap_1_1rtti_1_1_object_ptr.html" target="_top" xlink:title="ObjectPtr\&lt; nap::RenderWindow \&gt;">
<polygon fill="white" stroke="black" points="121,-634 121,-653 284,-653 284,-634 121,-634"/>
<text text-anchor="middle" x="202.5" y="-641" font-family="Helvetica,sans-Serif" font-size="10.00">ObjectPtr&lt; nap::RenderWindow &gt;</text>
</a>
</g>
</g>
<!-- Node0&#45;&gt;Node31 -->
<g id="edge31" class="edge">
<title>Node0&#45;&gt;Node31</title>
<path fill="none" stroke="midnightblue" d="M42.56,-988.4C48.16,-921.72 69.38,-709.36 116,-662.5 119.75,-658.73 124.08,-655.63 128.75,-653.1"/>
<polygon fill="midnightblue" stroke="midnightblue" points="39.04,-988.52 41.72,-998.77 46.02,-989.09 39.04,-988.52"/>
</g>
<!-- Node32 -->
<g id="node33" class="node">
<title>Node32</title>
<g id="a_node33"><a xlink:href="dd/d7c/classnap_1_1rtti_1_1_object_ptr.html" target="_top" xlink:title="ObjectPtr\&lt; nap::Sequence\lEditor \&gt;">
<polygon fill="white" stroke="black" points="136.5,-584.5 136.5,-614.5 268.5,-614.5 268.5,-584.5 136.5,-584.5"/>
<text text-anchor="start" x="144.5" y="-602.5" font-family="Helvetica,sans-Serif" font-size="10.00">ObjectPtr&lt; nap::Sequence</text>
<text text-anchor="middle" x="202.5" y="-591.5" font-family="Helvetica,sans-Serif" font-size="10.00">Editor &gt;</text>
</a>
</g>
</g>
<!-- Node0&#45;&gt;Node32 -->
<g id="edge32" class="edge">
<title>Node0&#45;&gt;Node32</title>
<path fill="none" stroke="midnightblue" d="M42.21,-988.66C46.91,-917.87 66.24,-679.04 116,-624.5 121.63,-618.33 128.69,-613.65 136.32,-610.11"/>
<polygon fill="midnightblue" stroke="midnightblue" points="38.7,-988.66 41.56,-998.86 45.69,-989.1 38.7,-988.66"/>
</g>
<!-- Node33 -->
<g id="node34" class="node">
<title>Node33</title>
<g id="a_node34"><a xlink:href="dd/d7c/classnap_1_1rtti_1_1_object_ptr.html" target="_top" xlink:title="ObjectPtr\&lt; nap::Sequence\lPlayer \&gt;">
<polygon fill="white" stroke="black" points="136.5,-535.5 136.5,-565.5 268.5,-565.5 268.5,-535.5 136.5,-535.5"/>
<text text-anchor="start" x="144.5" y="-553.5" font-family="Helvetica,sans-Serif" font-size="10.00">ObjectPtr&lt; nap::Sequence</text>
<text text-anchor="middle" x="202.5" y="-542.5" font-family="Helvetica,sans-Serif" font-size="10.00">Player &gt;</text>
</a>
</g>
</g>
<!-- Node0&#45;&gt;Node33 -->
<g id="edge33" class="edge">
<title>Node0&#45;&gt;Node33</title>
<path fill="none" stroke="midnightblue" d="M41.73,-988.64C44.93,-912.19 60.17,-638.02 116,-575.5 121.56,-569.27 128.58,-564.56 136.2,-561"/>
<polygon fill="midnightblue" stroke="midnightblue" points="38.22,-988.67 41.33,-998.8 45.22,-988.94 38.22,-988.67"/>
</g>
<!-- Node34 -->
<g id="node35" class="node">
<title>Node34</title>
<g id="a_node35"><a xlink:href="dd/d7c/classnap_1_1rtti_1_1_object_ptr.html" target="_top" xlink:title="ObjectPtr\&lt; nap::Sequence\lPlayerAudioOutput \&gt;">
<polygon fill="white" stroke="black" points="136.5,-486.5 136.5,-516.5 268.5,-516.5 268.5,-486.5 136.5,-486.5"/>
<text text-anchor="start" x="144.5" y="-504.5" font-family="Helvetica,sans-Serif" font-size="10.00">ObjectPtr&lt; nap::Sequence</text>
<text text-anchor="middle" x="202.5" y="-493.5" font-family="Helvetica,sans-Serif" font-size="10.00">PlayerAudioOutput &gt;</text>
</a>
</g>
</g>
<!-- Node0&#45;&gt;Node34 -->
<g id="edge34" class="edge">
<title>Node0&#45;&gt;Node34</title>
<path fill="none" stroke="midnightblue" d="M41.35,-988.55C43.17,-906.62 54.1,-597.02 116,-526.5 121.51,-520.22 128.5,-515.48 136.1,-511.91"/>
<polygon fill="midnightblue" stroke="midnightblue" points="37.84,-988.86 41.14,-998.93 44.84,-989 37.84,-988.86"/>
</g>
<!-- Node35 -->
<g id="node36" class="node">
<title>Node35</title>
<g id="a_node36"><a xlink:href="dd/d7c/classnap_1_1rtti_1_1_object_ptr.html" target="_top" xlink:title="ObjectPtr\&lt; nap::Sequence\lPlayerClock \&gt;">
<polygon fill="white" stroke="black" points="136.5,-437.5 136.5,-467.5 268.5,-467.5 268.5,-437.5 136.5,-437.5"/>
<text text-anchor="start" x="144.5" y="-455.5" font-family="Helvetica,sans-Serif" font-size="10.00">ObjectPtr&lt; nap::Sequence</text>
<text text-anchor="middle" x="202.5" y="-444.5" font-family="Helvetica,sans-Serif" font-size="10.00">PlayerClock &gt;</text>
</a>
</g>
</g>
<!-- Node0&#45;&gt;Node35 -->
<g id="edge35" class="edge">
<title>Node0&#45;&gt;Node35</title>
<path fill="none" stroke="midnightblue" d="M41.03,-988.76C41.55,-902.11 47.93,-556.16 116,-477.5 121.57,-471.07 128.69,-466.25 136.44,-462.64"/>
<polygon fill="midnightblue" stroke="midnightblue" points="37.53,-988.81 40.99,-998.82 44.53,-988.83 37.53,-988.81"/>
</g>
<!-- Node36 -->
<g id="node37" class="node">
<title>Node36</title>
<g id="a_node37"><a xlink:href="dd/d7c/classnap_1_1rtti_1_1_object_ptr.html" target="_top" xlink:title="ObjectPtr\&lt; nap::Shader \&gt;">
<polygon fill="white" stroke="black" points="138.5,-399 138.5,-418 266.5,-418 266.5,-399 138.5,-399"/>
<text text-anchor="middle" x="202.5" y="-406" font-family="Helvetica,sans-Serif" font-size="10.00">ObjectPtr&lt; nap::Shader &gt;</text>
</a>
</g>
</g>
<!-- Node0&#45;&gt;Node36 -->
<g id="edge36" class="edge">
<title>Node0&#45;&gt;Node36</title>
<path fill="none" stroke="midnightblue" d="M40.66,-988.63C39.52,-896.66 39.46,-513.21 116,-428.5 122.03,-421.83 129.82,-417.17 138.24,-413.95"/>
<polygon fill="midnightblue" stroke="midnightblue" points="37.16,-988.84 40.81,-998.78 44.16,-988.73 37.16,-988.84"/>
</g>
<!-- Node37 -->
<g id="node38" class="node">
<title>Node37</title>
<g id="a_node38"><a xlink:href="dd/d7c/classnap_1_1rtti_1_1_object_ptr.html" target="_top" xlink:title="ObjectPtr\&lt; nap::Texture2D \&gt;">
<polygon fill="white" stroke="black" points="131.5,-361 131.5,-380 273.5,-380 273.5,-361 131.5,-361"/>
<text text-anchor="middle" x="202.5" y="-368" font-family="Helvetica,sans-Serif" font-size="10.00">ObjectPtr&lt; nap::Texture2D &gt;</text>
</a>
</g>
</g>
<!-- Node0&#45;&gt;Node37 -->
<g id="edge37" class="edge">
<title>Node0&#45;&gt;Node37</title>
<path fill="none" stroke="midnightblue" d="M42.06,-988.55C47.62,-887.48 74.7,-435.07 116,-389.5 120.29,-384.77 125.47,-381.08 131.14,-378.21"/>
<polygon fill="midnightblue" stroke="midnightblue" points="38.56,-988.45 41.52,-998.62 45.55,-988.83 38.56,-988.45"/>
</g>
<!-- Node38 -->
<g id="node39" class="node">
<title>Node38</title>
<g id="a_node39"><a xlink:href="dd/d7c/classnap_1_1rtti_1_1_object_ptr.html" target="_top" xlink:title="ObjectPtr\&lt; nap::UDPThread \&gt;">
<polygon fill="white" stroke="black" points="129,-323 129,-342 276,-342 276,-323 129,-323"/>
<text text-anchor="middle" x="202.5" y="-330" font-family="Helvetica,sans-Serif" font-size="10.00">ObjectPtr&lt; nap::UDPThread &gt;</text>
</a>
</g>
</g>
<!-- Node0&#45;&gt;Node38 -->
<g id="edge38" class="edge">
<title>Node0&#45;&gt;Node38</title>
<path fill="none" stroke="midnightblue" d="M41.93,-988.32C46.94,-883.09 72.23,-400.13 116,-351.5 119.66,-347.43 123.99,-344.13 128.71,-341.46"/>
<polygon fill="midnightblue" stroke="midnightblue" points="38.42,-988.37 41.45,-998.52 45.41,-988.7 38.42,-988.37"/>
</g>
<!-- Node39 -->
<g id="node40" class="node">
<title>Node39</title>
<g id="a_node40"><a xlink:href="dd/d7c/classnap_1_1rtti_1_1_object_ptr.html" target="_top" xlink:title="ObjectPtr\&lt; nap::VideoPlayer \&gt;">
<polygon fill="white" stroke="black" points="127.5,-285 127.5,-304 277.5,-304 277.5,-285 127.5,-285"/>
<text text-anchor="middle" x="202.5" y="-292" font-family="Helvetica,sans-Serif" font-size="10.00">ObjectPtr&lt; nap::VideoPlayer &gt;</text>
</a>
</g>
</g>
<!-- Node0&#45;&gt;Node39 -->
<g id="edge39" class="edge">
<title>Node0&#45;&gt;Node39</title>
<path fill="none" stroke="midnightblue" d="M41.77,-988.88C46.18,-881.23 69.65,-365.32 116,-313.5 119.35,-309.76 123.25,-306.67 127.51,-304.12"/>
<polygon fill="midnightblue" stroke="midnightblue" points="38.27,-988.84 41.37,-998.98 45.27,-989.13 38.27,-988.84"/>
</g>
<!-- Node40 -->
<g id="node41" class="node">
<title>Node40</title>
<g id="a_node41"><a xlink:href="dd/d7c/classnap_1_1rtti_1_1_object_ptr.html" target="_top" xlink:title="ObjectPtr\&lt; nap::WebSocket\lClientEndPoint \&gt;">
<polygon fill="white" stroke="black" points="132.5,-235.5 132.5,-265.5 272.5,-265.5 272.5,-235.5 132.5,-235.5"/>
<text text-anchor="start" x="140.5" y="-253.5" font-family="Helvetica,sans-Serif" font-size="10.00">ObjectPtr&lt; nap::WebSocket</text>
<text text-anchor="middle" x="202.5" y="-242.5" font-family="Helvetica,sans-Serif" font-size="10.00">ClientEndPoint &gt;</text>
</a>
</g>
</g>
<!-- Node0&#45;&gt;Node40 -->
<g id="edge40" class="edge">
<title>Node0&#45;&gt;Node40</title>
<path fill="none" stroke="midnightblue" d="M41.73,-988.56C45.98,-876.87 69.02,-331.94 116,-275.5 120.55,-270.03 126.23,-265.72 132.48,-262.33"/>
<polygon fill="midnightblue" stroke="midnightblue" points="38.22,-988.62 41.35,-998.75 45.22,-988.88 38.22,-988.62"/>
</g>
<!-- Node41 -->
<g id="node42" class="node">
<title>Node41</title>
<g id="a_node42"><a xlink:href="dd/d7c/classnap_1_1rtti_1_1_object_ptr.html" target="_top" xlink:title="ObjectPtr\&lt; nap::WebSocket\lInterface \&gt;">
<polygon fill="white" stroke="black" points="132.5,-186.5 132.5,-216.5 272.5,-216.5 272.5,-186.5 132.5,-186.5"/>
<text text-anchor="start" x="140.5" y="-204.5" font-family="Helvetica,sans-Serif" font-size="10.00">ObjectPtr&lt; nap::WebSocket</text>
<text text-anchor="middle" x="202.5" y="-193.5" font-family="Helvetica,sans-Serif" font-size="10.00">Interface &gt;</text>
</a>
</g>
</g>
<!-- Node0&#45;&gt;Node41 -->
<g id="edge41" class="edge">
<title>Node0&#45;&gt;Node41</title>
<path fill="none" stroke="midnightblue" d="M41.59,-988.69C45.2,-872.95 65.9,-287.09 116,-226.5 120.53,-221.02 126.2,-216.7 132.44,-213.3"/>
<polygon fill="midnightblue" stroke="midnightblue" points="38.08,-988.81 41.28,-998.92 45.08,-989.03 38.08,-988.81"/>
</g>
<!-- Node42 -->
<g id="node43" class="node">
<title>Node42</title>
<g id="a_node43"><a xlink:href="dd/d7c/classnap_1_1rtti_1_1_object_ptr.html" target="_top" xlink:title="ObjectPtr\&lt; nap::WebSocket\lServerEndPoint \&gt;">
<polygon fill="white" stroke="black" points="132.5,-137.5 132.5,-167.5 272.5,-167.5 272.5,-137.5 132.5,-137.5"/>
<text text-anchor="start" x="140.5" y="-155.5" font-family="Helvetica,sans-Serif" font-size="10.00">ObjectPtr&lt; nap::WebSocket</text>
<text text-anchor="middle" x="202.5" y="-144.5" font-family="Helvetica,sans-Serif" font-size="10.00">ServerEndPoint &gt;</text>
</a>
</g>
</g>
<!-- Node0&#45;&gt;Node42 -->
<g id="edge42" class="edge">
<title>Node0&#45;&gt;Node42</title>
<path fill="none" stroke="midnightblue" d="M41.47,-988.59C44.51,-868.35 62.8,-242.2 116,-177.5 120.52,-172.01 126.17,-167.68 132.41,-164.28"/>
<polygon fill="midnightblue" stroke="midnightblue" points="37.97,-988.79 41.22,-998.88 44.97,-988.97 37.97,-988.79"/>
</g>
<!-- Node43 -->
<g id="node44" class="node">
<title>Node43</title>
<g id="a_node44"><a xlink:href="dd/d7c/classnap_1_1rtti_1_1_object_ptr.html" target="_top" xlink:title="ObjectPtr\&lt; nap::WebSocket\lTicket \&gt;">
<polygon fill="white" stroke="black" points="132.5,-88.5 132.5,-118.5 272.5,-118.5 272.5,-88.5 132.5,-88.5"/>
<text text-anchor="start" x="140.5" y="-106.5" font-family="Helvetica,sans-Serif" font-size="10.00">ObjectPtr&lt; nap::WebSocket</text>
<text text-anchor="middle" x="202.5" y="-95.5" font-family="Helvetica,sans-Serif" font-size="10.00">Ticket &gt;</text>
</a>
</g>
</g>
<!-- Node0&#45;&gt;Node43 -->
<g id="edge43" class="edge">
<title>Node0&#45;&gt;Node43</title>
<path fill="none" stroke="midnightblue" d="M41.37,-988.59C43.84,-864.23 59.68,-197.34 116,-128.5 120.5,-122.99 126.15,-118.66 132.38,-115.25"/>
<polygon fill="midnightblue" stroke="midnightblue" points="37.86,-988.82 41.17,-998.89 44.86,-988.96 37.86,-988.82"/>
</g>
<!-- Node44 -->
<g id="node45" class="node">
<title>Node44</title>
<g id="a_node45"><a xlink:href="dd/d7c/classnap_1_1rtti_1_1_object_ptr.html" target="_top" xlink:title="ObjectPtr\&lt; Object \&gt;">
<polygon fill="white" stroke="black" points="150.5,-50 150.5,-69 254.5,-69 254.5,-50 150.5,-50"/>
<text text-anchor="middle" x="202.5" y="-57" font-family="Helvetica,sans-Serif" font-size="10.00">ObjectPtr&lt; Object &gt;</text>
</a>
</g>
</g>
<!-- Node0&#45;&gt;Node44 -->
<g id="edge44" class="edge">
<title>Node0&#45;&gt;Node44</title>
<path fill="none" stroke="midnightblue" d="M41.22,-988.64C42.85,-860.28 54.58,-150.85 116,-79.5 124.65,-69.45 137.3,-63.92 150.23,-61"/>
<polygon fill="midnightblue" stroke="midnightblue" points="37.72,-988.89 41.1,-998.93 44.72,-988.97 37.72,-988.89"/>
</g>
<!-- Node45 -->
<g id="node46" class="node">
<title>Node45</title>
<g id="a_node46"><a xlink:href="dd/d7c/classnap_1_1rtti_1_1_object_ptr.html" target="_top" xlink:title="ObjectPtr\&lt; TargetComponent\lType \&gt;">
<polygon fill="white" stroke="black" points="131,-0.5 131,-30.5 274,-30.5 274,-0.5 131,-0.5"/>
<text text-anchor="start" x="139" y="-18.5" font-family="Helvetica,sans-Serif" font-size="10.00">ObjectPtr&lt; TargetComponent</text>
<text text-anchor="middle" x="202.5" y="-7.5" font-family="Helvetica,sans-Serif" font-size="10.00">Type &gt;</text>
</a>
</g>
</g>
<!-- Node0&#45;&gt;Node45 -->
<g id="edge45" class="edge">
<title>Node0&#45;&gt;Node45</title>
<path fill="none" stroke="midnightblue" d="M41.2,-988.67C42.73,-857.42 54.07,-116.8 116,-40.5 120.09,-35.46 125.15,-31.4 130.73,-28.13"/>
<polygon fill="midnightblue" stroke="midnightblue" points="37.7,-988.81 41.09,-998.85 44.7,-988.89 37.7,-988.81"/>
</g>
</g>
</svg>
