<?xml version="1.0" encoding="UTF-8" standalone="no"?>
<!DOCTYPE svg PUBLIC "-//W3C//DTD SVG 1.1//EN"
 "http://www.w3.org/Graphics/SVG/1.1/DTD/svg11.dtd">
<!-- Generated by graphviz version 2.43.0 (0)
 -->
<!-- Title: Graphical Class Hierarchy Pages: 1 -->
<svg width="323pt" height="2323pt"
 viewBox="0.00 0.00 323.00 2322.50" xmlns="http://www.w3.org/2000/svg" xmlns:xlink="http://www.w3.org/1999/xlink">
<g id="graph0" class="graph" transform="scale(1 1) rotate(0) translate(4 2318.5)">
<title>Graphical Class Hierarchy</title>
<polygon fill="white" stroke="transparent" points="-4,4 -4,-2318.5 319,-2318.5 319,4 -4,4"/>
<!-- Node0 -->
<g id="node1" class="node">
<title>Node0</title>
<g id="a_node1"><a xlink:href="d7/dcb/classnap_1_1rtti_1_1_object_ptr_base.html" target="_top" xlink:title=" ">
<polygon fill="white" stroke="black" points="0,-1175 0,-1194 86,-1194 86,-1175 0,-1175"/>
<text text-anchor="middle" x="43" y="-1182" font-family="Helvetica,sans-Serif" font-size="10.00">ObjectPtrBase</text>
</a>
</g>
</g>
<!-- Node1 -->
<g id="node2" class="node">
<title>Node1</title>
<g id="a_node2"><a xlink:href="dd/d7c/classnap_1_1rtti_1_1_object_ptr.html" target="_top" xlink:title=" ">
<polygon fill="white" stroke="black" points="173.5,-2295 173.5,-2314 263.5,-2314 263.5,-2295 173.5,-2295"/>
<text text-anchor="middle" x="218.5" y="-2302" font-family="Helvetica,sans-Serif" font-size="10.00">ObjectPtr&lt; T &gt;</text>
</a>
</g>
</g>
<!-- Node0&#45;&gt;Node1 -->
<g id="edge1" class="edge">
<title>Node0&#45;&gt;Node1</title>
<path fill="none" stroke="midnightblue" d="M43.99,-1204.43C44.07,-1346.4 47.66,-2201.18 122,-2285.5 134.63,-2299.83 154.72,-2305.21 173.22,-2306.75"/>
<polygon fill="midnightblue" stroke="midnightblue" points="47.49,-1204.18 43.99,-1194.18 40.49,-1204.18 47.49,-1204.18"/>
</g>
<!-- Node2 -->
<g id="node3" class="node">
<title>Node2</title>
<g id="a_node3"><a xlink:href="dd/d7c/classnap_1_1rtti_1_1_object_ptr.html" target="_top" xlink:title=" ">
<polygon fill="white" stroke="black" points="137,-2257 137,-2276 300,-2276 300,-2257 137,-2257"/>
<text text-anchor="middle" x="218.5" y="-2264" font-family="Helvetica,sans-Serif" font-size="10.00">ObjectPtr&lt; ComponentType &gt;</text>
</a>
</g>
</g>
<!-- Node0&#45;&gt;Node2 -->
<g id="edge2" class="edge">
<title>Node0&#45;&gt;Node2</title>
<path fill="none" stroke="midnightblue" d="M44.04,-1204.17C44.49,-1342.53 50.18,-2166.25 122,-2247.5 126.25,-2252.31 131.35,-2256.12 136.94,-2259.1"/>
<polygon fill="midnightblue" stroke="midnightblue" points="47.54,-1204.15 44.01,-1194.16 40.54,-1204.17 47.54,-1204.15"/>
</g>
<!-- Node3 -->
<g id="node4" class="node">
<title>Node3</title>
<g id="a_node4"><a xlink:href="dd/d7c/classnap_1_1rtti_1_1_object_ptr.html" target="_top" xlink:title=" ">
<polygon fill="white" stroke="black" points="150.5,-2207.5 150.5,-2237.5 286.5,-2237.5 286.5,-2207.5 150.5,-2207.5"/>
<text text-anchor="start" x="158.5" y="-2225.5" font-family="Helvetica,sans-Serif" font-size="10.00">ObjectPtr&lt; nap::audio</text>
<text text-anchor="middle" x="218.5" y="-2214.5" font-family="Helvetica,sans-Serif" font-size="10.00">::AudioBufferResource &gt;</text>
</a>
</g>
</g>
<!-- Node0&#45;&gt;Node3 -->
<g id="edge3" class="edge">
<title>Node0&#45;&gt;Node3</title>
<path fill="none" stroke="midnightblue" d="M44.15,-1204.05C45.39,-1338.18 55.43,-2119.57 122,-2198.5 129.38,-2207.26 139.45,-2213.07 150.28,-2216.89"/>
<polygon fill="midnightblue" stroke="midnightblue" points="47.65,-1203.97 44.07,-1194 40.65,-1204.03 47.65,-1203.97"/>
</g>
<!-- Node4 -->
<g id="node5" class="node">
<title>Node4</title>
<g id="a_node5"><a xlink:href="dd/d7c/classnap_1_1rtti_1_1_object_ptr.html" target="_top" xlink:title=" ">
<polygon fill="white" stroke="black" points="147.5,-2158.5 147.5,-2188.5 289.5,-2188.5 289.5,-2158.5 147.5,-2158.5"/>
<text text-anchor="start" x="155.5" y="-2176.5" font-family="Helvetica,sans-Serif" font-size="10.00">ObjectPtr&lt; nap::audio</text>
<text text-anchor="middle" x="218.5" y="-2165.5" font-family="Helvetica,sans-Serif" font-size="10.00">::AudioComponentBase &gt;</text>
</a>
</g>
</g>
<!-- Node0&#45;&gt;Node4 -->
<g id="edge4" class="edge">
<title>Node0&#45;&gt;Node4</title>
<path fill="none" stroke="midnightblue" d="M44.25,-1204.27C46.07,-1335.13 59.1,-2073.48 122,-2148.5 128.72,-2156.51 137.66,-2162.12 147.37,-2166.03"/>
<polygon fill="midnightblue" stroke="midnightblue" points="47.75,-1204.07 44.11,-1194.12 40.75,-1204.17 47.75,-1204.07"/>
</g>
<!-- Node5 -->
<g id="node6" class="node">
<title>Node5</title>
<g id="a_node6"><a xlink:href="dd/d7c/classnap_1_1rtti_1_1_object_ptr.html" target="_top" xlink:title=" ">
<polygon fill="white" stroke="black" points="136.5,-2120 136.5,-2139 300.5,-2139 300.5,-2120 136.5,-2120"/>
<text text-anchor="middle" x="218.5" y="-2127" font-family="Helvetica,sans-Serif" font-size="10.00">ObjectPtr&lt; nap::Component &gt;</text>
</a>
</g>
</g>
<!-- Node0&#45;&gt;Node5 -->
<g id="edge5" class="edge">
<title>Node0&#45;&gt;Node5</title>
<path fill="none" stroke="midnightblue" d="M44.27,-1204.32C46.17,-1332.44 59.46,-2040.5 122,-2110.5 126.05,-2115.04 130.86,-2118.68 136.12,-2121.58"/>
<polygon fill="midnightblue" stroke="midnightblue" points="47.76,-1204 44.12,-1194.05 40.76,-1204.1 47.76,-1204"/>
</g>
<!-- Node6 -->
<g id="node7" class="node">
<title>Node6</title>
<g id="a_node7"><a xlink:href="dd/d7c/classnap_1_1rtti_1_1_object_ptr.html" target="_top" xlink:title=" ">
<polygon fill="white" stroke="black" points="122,-2082 122,-2101 315,-2101 315,-2082 122,-2082"/>
<text text-anchor="middle" x="218.5" y="-2089" font-family="Helvetica,sans-Serif" font-size="10.00">ObjectPtr&lt; nap::ComputeMaterial &gt;</text>
</a>
</g>
</g>
<!-- Node0&#45;&gt;Node6 -->
<g id="edge6" class="edge">
<title>Node0&#45;&gt;Node6</title>
<path fill="none" stroke="midnightblue" d="M44.34,-1204.28C46.67,-1329.21 62.01,-2005.6 122,-2072.5 125.27,-2076.15 129.03,-2079.22 133.12,-2081.79"/>
<polygon fill="midnightblue" stroke="midnightblue" points="47.84,-1204.17 44.16,-1194.23 40.84,-1204.29 47.84,-1204.17"/>
</g>
<!-- Node7 -->
<g id="node8" class="node">
<title>Node7</title>
<g id="a_node8"><a xlink:href="dd/d7c/classnap_1_1rtti_1_1_object_ptr.html" target="_top" xlink:title=" ">
<polygon fill="white" stroke="black" points="125.5,-2044 125.5,-2063 311.5,-2063 311.5,-2044 125.5,-2044"/>
<text text-anchor="middle" x="218.5" y="-2051" font-family="Helvetica,sans-Serif" font-size="10.00">ObjectPtr&lt; nap::ComputeShader &gt;</text>
</a>
</g>
</g>
<!-- Node0&#45;&gt;Node7 -->
<g id="edge7" class="edge">
<title>Node0&#45;&gt;Node7</title>
<path fill="none" stroke="midnightblue" d="M44.42,-1204.18C47.19,-1325.69 64.55,-1970.68 122,-2034.5 125.28,-2038.14 129.04,-2041.21 133.14,-2043.77"/>
<polygon fill="midnightblue" stroke="midnightblue" points="47.92,-1204.01 44.2,-1194.09 40.92,-1204.17 47.92,-1204.01"/>
</g>
<!-- Node8 -->
<g id="node9" class="node">
<title>Node8</title>
<g id="a_node9"><a xlink:href="dd/d7c/classnap_1_1rtti_1_1_object_ptr.html" target="_top" xlink:title=" ">
<polygon fill="white" stroke="black" points="139,-2006 139,-2025 298,-2025 298,-2006 139,-2006"/>
<text text-anchor="middle" x="218.5" y="-2013" font-family="Helvetica,sans-Serif" font-size="10.00">ObjectPtr&lt; nap::CVAdapter &gt;</text>
</a>
</g>
</g>
<!-- Node0&#45;&gt;Node8 -->
<g id="edge8" class="edge">
<title>Node0&#45;&gt;Node8</title>
<path fill="none" stroke="midnightblue" d="M44.51,-1204.4C47.77,-1323.2 67.14,-1935.82 122,-1996.5 126.76,-2001.77 132.53,-2005.82 138.85,-2008.91"/>
<polygon fill="midnightblue" stroke="midnightblue" points="48.01,-1204.11 44.24,-1194.21 41.01,-1204.3 48.01,-1204.11"/>
</g>
<!-- Node9 -->
<g id="node10" class="node">
<title>Node9</title>
<g id="a_node10"><a xlink:href="dd/d7c/classnap_1_1rtti_1_1_object_ptr.html" target="_top" xlink:title=" ">
<polygon fill="white" stroke="black" points="144,-1956.5 144,-1986.5 293,-1986.5 293,-1956.5 144,-1956.5"/>
<text text-anchor="start" x="152" y="-1974.5" font-family="Helvetica,sans-Serif" font-size="10.00">ObjectPtr&lt; nap::CVCapture</text>
<text text-anchor="middle" x="218.5" y="-1963.5" font-family="Helvetica,sans-Serif" font-size="10.00">Component &gt;</text>
</a>
</g>
</g>
<!-- Node0&#45;&gt;Node9 -->
<g id="edge9" class="edge">
<title>Node0&#45;&gt;Node9</title>
<path fill="none" stroke="midnightblue" d="M44.68,-1204.21C48.8,-1318.17 71.83,-1889.51 122,-1947.5 127.93,-1954.35 135.49,-1959.4 143.77,-1963.09"/>
<polygon fill="midnightblue" stroke="midnightblue" points="48.18,-1204 44.32,-1194.13 41.18,-1204.25 48.18,-1204"/>
</g>
<!-- Node10 -->
<g id="node11" class="node">
<title>Node10</title>
<g id="a_node11"><a xlink:href="dd/d7c/classnap_1_1rtti_1_1_object_ptr.html" target="_top" xlink:title=" ">
<polygon fill="white" stroke="black" points="144,-1907.5 144,-1937.5 293,-1937.5 293,-1907.5 144,-1907.5"/>
<text text-anchor="start" x="152" y="-1925.5" font-family="Helvetica,sans-Serif" font-size="10.00">ObjectPtr&lt; nap::CVCapture</text>
<text text-anchor="middle" x="218.5" y="-1914.5" font-family="Helvetica,sans-Serif" font-size="10.00">Device &gt;</text>
</a>
</g>
</g>
<!-- Node0&#45;&gt;Node10 -->
<g id="edge10" class="edge">
<title>Node0&#45;&gt;Node10</title>
<path fill="none" stroke="midnightblue" d="M44.84,-1204.27C49.68,-1313.82 75.35,-1843.43 122,-1897.5 127.93,-1904.38 135.5,-1909.48 143.78,-1913.24"/>
<polygon fill="midnightblue" stroke="midnightblue" points="48.34,-1204.09 44.41,-1194.26 41.34,-1204.4 48.34,-1204.09"/>
</g>
<!-- Node11 -->
<g id="node12" class="node">
<title>Node11</title>
<g id="a_node12"><a xlink:href="dd/d7c/classnap_1_1rtti_1_1_object_ptr.html" target="_top" xlink:title=" ">
<polygon fill="white" stroke="black" points="150,-1869 150,-1888 287,-1888 287,-1869 150,-1869"/>
<text text-anchor="middle" x="218.5" y="-1876" font-family="Helvetica,sans-Serif" font-size="10.00">ObjectPtr&lt; nap::Entity &gt;</text>
</a>
</g>
</g>
<!-- Node0&#45;&gt;Node11 -->
<g id="edge11" class="edge">
<title>Node0&#45;&gt;Node11</title>
<path fill="none" stroke="midnightblue" d="M44.91,-1204.24C50.01,-1310.35 76.29,-1809.91 122,-1859.5 129.45,-1867.58 139.27,-1872.78 149.78,-1876.04"/>
<polygon fill="midnightblue" stroke="midnightblue" points="48.41,-1204.08 44.44,-1194.25 41.42,-1204.41 48.41,-1204.08"/>
</g>
<!-- Node12 -->
<g id="node13" class="node">
<title>Node12</title>
<g id="a_node13"><a xlink:href="dd/d7c/classnap_1_1rtti_1_1_object_ptr.html" target="_top" xlink:title=" ">
<polygon fill="white" stroke="black" points="129.5,-1831 129.5,-1850 307.5,-1850 307.5,-1831 129.5,-1831"/>
<text text-anchor="middle" x="218.5" y="-1838" font-family="Helvetica,sans-Serif" font-size="10.00">ObjectPtr&lt; nap::EntityInstance &gt;</text>
</a>
</g>
</g>
<!-- Node0&#45;&gt;Node12 -->
<g id="edge12" class="edge">
<title>Node0&#45;&gt;Node12</title>
<path fill="none" stroke="midnightblue" d="M45.07,-1204.4C50.75,-1307.18 78.85,-1775.01 122,-1821.5 125.45,-1825.22 129.4,-1828.32 133.69,-1830.91"/>
<polygon fill="midnightblue" stroke="midnightblue" points="48.55,-1203.98 44.51,-1194.18 41.56,-1204.36 48.55,-1203.98"/>
</g>
<!-- Node13 -->
<g id="node14" class="node">
<title>Node13</title>
<g id="a_node14"><a xlink:href="dd/d7c/classnap_1_1rtti_1_1_object_ptr.html" target="_top" xlink:title=" ">
<polygon fill="white" stroke="black" points="148.5,-1781.5 148.5,-1811.5 288.5,-1811.5 288.5,-1781.5 148.5,-1781.5"/>
<text text-anchor="start" x="156.5" y="-1799.5" font-family="Helvetica,sans-Serif" font-size="10.00">ObjectPtr&lt; nap::FillPolicy</text>
<text text-anchor="middle" x="218.5" y="-1788.5" font-family="Helvetica,sans-Serif" font-size="10.00">&lt; T &gt; &gt;</text>
</a>
</g>
</g>
<!-- Node0&#45;&gt;Node13 -->
<g id="edge13" class="edge">
<title>Node0&#45;&gt;Node13</title>
<path fill="none" stroke="midnightblue" d="M43.76,-1204.62C43.08,-1297.75 44.94,-1686.08 122,-1772.5 129.05,-1780.41 138.29,-1785.9 148.24,-1789.67"/>
<polygon fill="midnightblue" stroke="midnightblue" points="47.26,-1204.37 43.86,-1194.34 40.26,-1204.31 47.26,-1204.37"/>
</g>
<!-- Node14 -->
<g id="node15" class="node">
<title>Node14</title>
<g id="a_node15"><a xlink:href="dd/d7c/classnap_1_1rtti_1_1_object_ptr.html" target="_top" xlink:title=" ">
<polygon fill="white" stroke="black" points="148.5,-1732.5 148.5,-1762.5 288.5,-1762.5 288.5,-1732.5 148.5,-1732.5"/>
<text text-anchor="start" x="156.5" y="-1750.5" font-family="Helvetica,sans-Serif" font-size="10.00">ObjectPtr&lt; nap::FillPolicy</text>
<text text-anchor="middle" x="218.5" y="-1739.5" font-family="Helvetica,sans-Serif" font-size="10.00">&lt; uint &gt; &gt;</text>
</a>
</g>
</g>
<!-- Node0&#45;&gt;Node14 -->
<g id="edge14" class="edge">
<title>Node0&#45;&gt;Node14</title>
<path fill="none" stroke="midnightblue" d="M44.05,-1204.55C44.7,-1292.57 51.73,-1643.87 122,-1722.5 129.08,-1730.42 138.33,-1735.97 148.29,-1739.84"/>
<polygon fill="midnightblue" stroke="midnightblue" points="47.55,-1204.31 44,-1194.33 40.55,-1204.35 47.55,-1204.31"/>
</g>
<!-- Node15 -->
<g id="node16" class="node">
<title>Node15</title>
<g id="a_node16"><a xlink:href="dd/d7c/classnap_1_1rtti_1_1_object_ptr.html" target="_top" xlink:title=" ">
<polygon fill="white" stroke="black" points="154,-1694 154,-1713 283,-1713 283,-1694 154,-1694"/>
<text text-anchor="middle" x="218.5" y="-1701" font-family="Helvetica,sans-Serif" font-size="10.00">ObjectPtr&lt; nap::Font &gt;</text>
</a>
</g>
</g>
<!-- Node0&#45;&gt;Node15 -->
<g id="edge15" class="edge">
<title>Node0&#45;&gt;Node15</title>
<path fill="none" stroke="midnightblue" d="M44.18,-1204.28C45.37,-1288.24 54.33,-1613.95 122,-1684.5 130.54,-1693.41 141.98,-1698.78 153.96,-1701.91"/>
<polygon fill="midnightblue" stroke="midnightblue" points="47.68,-1204.05 44.06,-1194.09 40.68,-1204.13 47.68,-1204.05"/>
</g>
<!-- Node16 -->
<g id="node17" class="node">
<title>Node16</title>
<g id="a_node17"><a xlink:href="dd/d7c/classnap_1_1rtti_1_1_object_ptr.html" target="_top" xlink:title=" ">
<polygon fill="white" stroke="black" points="130.5,-1656 130.5,-1675 306.5,-1675 306.5,-1656 130.5,-1656"/>
<text text-anchor="middle" x="218.5" y="-1663" font-family="Helvetica,sans-Serif" font-size="10.00">ObjectPtr&lt; nap::GnomonMesh &gt;</text>
</a>
</g>
</g>
<!-- Node0&#45;&gt;Node16 -->
<g id="edge16" class="edge">
<title>Node0&#45;&gt;Node16</title>
<path fill="none" stroke="midnightblue" d="M44.46,-1204.29C46.73,-1284.23 59.34,-1581.99 122,-1646.5 125.65,-1650.26 129.82,-1653.39 134.32,-1655.98"/>
<polygon fill="midnightblue" stroke="midnightblue" points="47.95,-1204.04 44.19,-1194.14 40.96,-1204.22 47.95,-1204.04"/>
</g>
<!-- Node17 -->
<g id="node18" class="node">
<title>Node17</title>
<g id="a_node18"><a xlink:href="dd/d7c/classnap_1_1rtti_1_1_object_ptr.html" target="_top" xlink:title=" ">
<polygon fill="white" stroke="black" points="150,-1618 150,-1637 287,-1637 287,-1618 150,-1618"/>
<text text-anchor="middle" x="218.5" y="-1625" font-family="Helvetica,sans-Serif" font-size="10.00">ObjectPtr&lt; nap::Group &gt;</text>
</a>
</g>
</g>
<!-- Node0&#45;&gt;Node17 -->
<g id="edge17" class="edge">
<title>Node0&#45;&gt;Node17</title>
<path fill="none" stroke="midnightblue" d="M44.78,-1204.1C48.18,-1279.56 64.28,-1549.94 122,-1608.5 129.59,-1616.21 139.36,-1621.25 149.74,-1624.47"/>
<polygon fill="midnightblue" stroke="midnightblue" points="48.27,-1203.92 44.35,-1194.08 41.28,-1204.22 48.27,-1203.92"/>
</g>
<!-- Node18 -->
<g id="node19" class="node">
<title>Node18</title>
<g id="a_node19"><a xlink:href="dd/d7c/classnap_1_1rtti_1_1_object_ptr.html" target="_top" xlink:title=" ">
<polygon fill="white" stroke="black" points="141,-1580 141,-1599 296,-1599 296,-1580 141,-1580"/>
<text text-anchor="middle" x="218.5" y="-1587" font-family="Helvetica,sans-Serif" font-size="10.00">ObjectPtr&lt; nap::ICalendar &gt;</text>
</a>
</g>
</g>
<!-- Node0&#45;&gt;Node18 -->
<g id="edge18" class="edge">
<title>Node0&#45;&gt;Node18</title>
<path fill="none" stroke="midnightblue" d="M45.2,-1204.6C49.88,-1276.31 69.37,-1518.03 122,-1570.5 127.39,-1575.87 133.83,-1579.94 140.79,-1583"/>
<polygon fill="midnightblue" stroke="midnightblue" points="48.67,-1204.03 44.55,-1194.27 41.68,-1204.47 48.67,-1204.03"/>
</g>
<!-- Node19 -->
<g id="node20" class="node">
<title>Node19</title>
<g id="a_node20"><a xlink:href="dd/d7c/classnap_1_1rtti_1_1_object_ptr.html" target="_top" xlink:title=" ">
<polygon fill="white" stroke="black" points="150,-1542 150,-1561 287,-1561 287,-1542 150,-1542"/>
<text text-anchor="middle" x="218.5" y="-1549" font-family="Helvetica,sans-Serif" font-size="10.00">ObjectPtr&lt; nap::IMesh &gt;</text>
</a>
</g>
</g>
<!-- Node0&#45;&gt;Node19 -->
<g id="edge19" class="edge">
<title>Node0&#45;&gt;Node19</title>
<path fill="none" stroke="midnightblue" d="M45.65,-1204.35C51.62,-1271.09 74.25,-1485.89 122,-1532.5 129.74,-1540.06 139.58,-1545.02 149.99,-1548.22"/>
<polygon fill="midnightblue" stroke="midnightblue" points="49.13,-1203.97 44.78,-1194.31 42.16,-1204.57 49.13,-1203.97"/>
</g>
<!-- Node20 -->
<g id="node21" class="node">
<title>Node20</title>
<g id="a_node21"><a xlink:href="dd/d7c/classnap_1_1rtti_1_1_object_ptr.html" target="_top" xlink:title=" ">
<polygon fill="white" stroke="black" points="149.5,-1492.5 149.5,-1522.5 287.5,-1522.5 287.5,-1492.5 149.5,-1492.5"/>
<text text-anchor="start" x="157.5" y="-1510.5" font-family="Helvetica,sans-Serif" font-size="10.00">ObjectPtr&lt; nap::Instance</text>
<text text-anchor="middle" x="218.5" y="-1499.5" font-family="Helvetica,sans-Serif" font-size="10.00">PropertyValue &gt;</text>
</a>
</g>
</g>
<!-- Node0&#45;&gt;Node20 -->
<g id="edge20" class="edge">
<title>Node0&#45;&gt;Node20</title>
<path fill="none" stroke="midnightblue" d="M46.53,-1204.06C54.65,-1263.82 81.86,-1442.36 122,-1482.5 129.51,-1490.01 138.99,-1495.35 149.04,-1499.13"/>
<polygon fill="midnightblue" stroke="midnightblue" points="49.99,-1203.51 45.2,-1194.06 43.05,-1204.43 49.99,-1203.51"/>
</g>
<!-- Node21 -->
<g id="node22" class="node">
<title>Node21</title>
<g id="a_node22"><a xlink:href="dd/d7c/classnap_1_1rtti_1_1_object_ptr.html" target="_top" xlink:title=" ">
<polygon fill="white" stroke="black" points="144,-1454 144,-1473 293,-1473 293,-1454 144,-1454"/>
<text text-anchor="middle" x="218.5" y="-1461" font-family="Helvetica,sans-Serif" font-size="10.00">ObjectPtr&lt; nap::Material &gt;</text>
</a>
</g>
</g>
<!-- Node0&#45;&gt;Node21 -->
<g id="edge21" class="edge">
<title>Node0&#45;&gt;Node21</title>
<path fill="none" stroke="midnightblue" d="M43.54,-1204.22C43.56,-1252.96 50.82,-1379.78 122,-1444.5 128.25,-1450.19 135.71,-1454.38 143.65,-1457.44"/>
<polygon fill="midnightblue" stroke="midnightblue" points="47.04,-1204.12 43.65,-1194.08 40.04,-1204.04 47.04,-1204.12"/>
</g>
<!-- Node22 -->
<g id="node23" class="node">
<title>Node22</title>
<g id="a_node23"><a xlink:href="dd/d7c/classnap_1_1rtti_1_1_object_ptr.html" target="_top" xlink:title=" ">
<polygon fill="white" stroke="black" points="141.5,-1404.5 141.5,-1434.5 295.5,-1434.5 295.5,-1404.5 141.5,-1404.5"/>
<text text-anchor="start" x="149.5" y="-1422.5" font-family="Helvetica,sans-Serif" font-size="10.00">ObjectPtr&lt; nap::Operational</text>
<text text-anchor="middle" x="218.5" y="-1411.5" font-family="Helvetica,sans-Serif" font-size="10.00">Calendar &gt;</text>
</a>
</g>
</g>
<!-- Node0&#45;&gt;Node22 -->
<g id="edge22" class="edge">
<title>Node0&#45;&gt;Node22</title>
<path fill="none" stroke="midnightblue" d="M45.34,-1204.22C49.29,-1246.01 64.49,-1343.88 122,-1395.5 127.73,-1400.64 134.39,-1404.71 141.48,-1407.94"/>
<polygon fill="midnightblue" stroke="midnightblue" points="48.83,-1203.9 44.52,-1194.22 41.85,-1204.47 48.83,-1203.9"/>
</g>
<!-- Node23 -->
<g id="node24" class="node">
<title>Node23</title>
<g id="a_node24"><a xlink:href="dd/d7c/classnap_1_1rtti_1_1_object_ptr.html" target="_top" xlink:title=" ">
<polygon fill="white" stroke="black" points="137.5,-1355.5 137.5,-1385.5 299.5,-1385.5 299.5,-1355.5 137.5,-1355.5"/>
<text text-anchor="start" x="145.5" y="-1373.5" font-family="Helvetica,sans-Serif" font-size="10.00">ObjectPtr&lt; nap::OrthoCamera</text>
<text text-anchor="middle" x="218.5" y="-1362.5" font-family="Helvetica,sans-Serif" font-size="10.00">Component &gt;</text>
</a>
</g>
</g>
<!-- Node0&#45;&gt;Node23 -->
<g id="edge23" class="edge">
<title>Node0&#45;&gt;Node23</title>
<path fill="none" stroke="midnightblue" d="M47.95,-1204.33C55.82,-1238.48 76.72,-1308.3 122,-1345.5 126.63,-1349.31 131.79,-1352.54 137.23,-1355.29"/>
<polygon fill="midnightblue" stroke="midnightblue" points="51.3,-1203.25 45.77,-1194.22 44.46,-1204.73 51.3,-1203.25"/>
</g>
<!-- Node24 -->
<g id="node25" class="node">
<title>Node24</title>
<g id="a_node25"><a xlink:href="dd/d7c/classnap_1_1rtti_1_1_object_ptr.html" target="_top" xlink:title=" ">
<polygon fill="white" stroke="black" points="139.5,-1317 139.5,-1336 297.5,-1336 297.5,-1317 139.5,-1317"/>
<text text-anchor="middle" x="218.5" y="-1324" font-family="Helvetica,sans-Serif" font-size="10.00">ObjectPtr&lt; nap::Parameter &gt;</text>
</a>
</g>
</g>
<!-- Node0&#45;&gt;Node24 -->
<g id="edge24" class="edge">
<title>Node0&#45;&gt;Node24</title>
<path fill="none" stroke="midnightblue" d="M50.6,-1203.74C61.13,-1231.36 84.44,-1281.75 122,-1307.5 127.58,-1311.32 133.74,-1314.42 140.18,-1316.91"/>
<polygon fill="midnightblue" stroke="midnightblue" points="53.79,-1202.26 47.08,-1194.05 47.21,-1204.65 53.79,-1202.26"/>
</g>
<!-- Node25 -->
<g id="node26" class="node">
<title>Node25</title>
<g id="a_node26"><a xlink:href="dd/d7c/classnap_1_1rtti_1_1_object_ptr.html" target="_top" xlink:title=" ">
<polygon fill="white" stroke="black" points="145,-1267.5 145,-1297.5 292,-1297.5 292,-1267.5 145,-1267.5"/>
<text text-anchor="start" x="153" y="-1285.5" font-family="Helvetica,sans-Serif" font-size="10.00">ObjectPtr&lt; nap::Parameter</text>
<text text-anchor="middle" x="218.5" y="-1274.5" font-family="Helvetica,sans-Serif" font-size="10.00">BlendGroup &gt;</text>
</a>
</g>
</g>
<!-- Node0&#45;&gt;Node25 -->
<g id="edge25" class="edge">
<title>Node0&#45;&gt;Node25</title>
<path fill="none" stroke="midnightblue" d="M57.84,-1202.09C72.13,-1219.04 95.95,-1244.18 122,-1258.5 129.12,-1262.41 136.88,-1265.7 144.8,-1268.46"/>
<polygon fill="midnightblue" stroke="midnightblue" points="60.32,-1199.59 51.28,-1194.06 54.9,-1204.02 60.32,-1199.59"/>
</g>
<!-- Node26 -->
<g id="node27" class="node">
<title>Node26</title>
<g id="a_node27"><a xlink:href="dd/d7c/classnap_1_1rtti_1_1_object_ptr.html" target="_top" xlink:title=" ">
<polygon fill="white" stroke="black" points="145,-1218.5 145,-1248.5 292,-1248.5 292,-1218.5 145,-1218.5"/>
<text text-anchor="start" x="153" y="-1236.5" font-family="Helvetica,sans-Serif" font-size="10.00">ObjectPtr&lt; nap::Parameter</text>
<text text-anchor="middle" x="218.5" y="-1225.5" font-family="Helvetica,sans-Serif" font-size="10.00">Button &gt;</text>
</a>
</g>
</g>
<!-- Node0&#45;&gt;Node26 -->
<g id="edge26" class="edge">
<title>Node0&#45;&gt;Node26</title>
<path fill="none" stroke="midnightblue" d="M82.15,-1197.26C94.78,-1201.35 108.94,-1205.77 122,-1209.5 132.68,-1212.55 144.1,-1215.6 155.19,-1218.45"/>
<polygon fill="midnightblue" stroke="midnightblue" points="82.99,-1193.86 72.39,-1194.08 80.81,-1200.51 82.99,-1193.86"/>
</g>
<!-- Node27 -->
<g id="node28" class="node">
<title>Node27</title>
<g id="a_node28"><a xlink:href="dd/d7c/classnap_1_1rtti_1_1_object_ptr.html" target="_top" xlink:title=" ">
<polygon fill="white" stroke="black" points="145,-1169.5 145,-1199.5 292,-1199.5 292,-1169.5 145,-1169.5"/>
<text text-anchor="start" x="153" y="-1187.5" font-family="Helvetica,sans-Serif" font-size="10.00">ObjectPtr&lt; nap::Parameter</text>
<text text-anchor="middle" x="218.5" y="-1176.5" font-family="Helvetica,sans-Serif" font-size="10.00">Numeric &gt;</text>
</a>
</g>
</g>
<!-- Node0&#45;&gt;Node27 -->
<g id="edge27" class="edge">
<title>Node0&#45;&gt;Node27</title>
<path fill="none" stroke="midnightblue" d="M96.64,-1184.5C111.79,-1184.5 128.59,-1184.5 144.73,-1184.5"/>
<polygon fill="midnightblue" stroke="midnightblue" points="96.44,-1181 86.44,-1184.5 96.44,-1188 96.44,-1181"/>
</g>
<!-- Node28 -->
<g id="node29" class="node">
<title>Node28</title>
<g id="a_node29"><a xlink:href="dd/d7c/classnap_1_1rtti_1_1_object_ptr.html" target="_top" xlink:title=" ">
<polygon fill="white" stroke="black" points="145,-1120.5 145,-1150.5 292,-1150.5 292,-1120.5 145,-1120.5"/>
<text text-anchor="start" x="153" y="-1138.5" font-family="Helvetica,sans-Serif" font-size="10.00">ObjectPtr&lt; nap::Parameter</text>
<text text-anchor="middle" x="218.5" y="-1127.5" font-family="Helvetica,sans-Serif" font-size="10.00">Numeric&lt; T &gt; &gt;</text>
</a>
</g>
</g>
<!-- Node0&#45;&gt;Node28 -->
<g id="edge28" class="edge">
<title>Node0&#45;&gt;Node28</title>
<path fill="none" stroke="midnightblue" d="M83.82,-1171.89C96.04,-1168.12 109.54,-1164.04 122,-1160.5 133.79,-1157.15 146.44,-1153.71 158.55,-1150.51"/>
<polygon fill="midnightblue" stroke="midnightblue" points="82.42,-1168.66 73.91,-1174.97 84.5,-1175.34 82.42,-1168.66"/>
</g>
<!-- Node29 -->
<g id="node30" class="node">
<title>Node29</title>
<g id="a_node30"><a xlink:href="dd/d7c/classnap_1_1rtti_1_1_object_ptr.html" target="_top" xlink:title=" ">
<polygon fill="white" stroke="black" points="145,-1071.5 145,-1101.5 292,-1101.5 292,-1071.5 145,-1071.5"/>
<text text-anchor="start" x="153" y="-1089.5" font-family="Helvetica,sans-Serif" font-size="10.00">ObjectPtr&lt; nap::Parameter</text>
<text text-anchor="middle" x="218.5" y="-1078.5" font-family="Helvetica,sans-Serif" font-size="10.00">Simple&lt; T &gt; &gt;</text>
</a>
</g>
</g>
<!-- Node0&#45;&gt;Node29 -->
<g id="edge29" class="edge">
<title>Node0&#45;&gt;Node29</title>
<path fill="none" stroke="midnightblue" d="M58.15,-1166.94C72.53,-1150.27 96.28,-1125.69 122,-1111.5 129.13,-1107.57 136.9,-1104.23 144.83,-1101.41"/>
<polygon fill="midnightblue" stroke="midnightblue" points="55.27,-1164.94 51.53,-1174.85 60.64,-1169.43 55.27,-1164.94"/>
</g>
<!-- Node30 -->
<g id="node31" class="node">
<title>Node30</title>
<g id="a_node31"><a xlink:href="dd/d7c/classnap_1_1rtti_1_1_object_ptr.html" target="_top" xlink:title=" ">
<polygon fill="white" stroke="black" points="145,-1022.5 145,-1052.5 292,-1052.5 292,-1022.5 145,-1022.5"/>
<text text-anchor="start" x="153" y="-1040.5" font-family="Helvetica,sans-Serif" font-size="10.00">ObjectPtr&lt; nap::Parameter</text>
<text text-anchor="middle" x="218.5" y="-1029.5" font-family="Helvetica,sans-Serif" font-size="10.00">Vec&lt; T &gt; &gt;</text>
</a>
</g>
</g>
<!-- Node0&#45;&gt;Node30 -->
<g id="edge30" class="edge">
<title>Node0&#45;&gt;Node30</title>
<path fill="none" stroke="midnightblue" d="M51.01,-1165.31C61.92,-1138.19 85.57,-1089.01 122,-1062.5 128.93,-1057.46 136.79,-1053.43 144.97,-1050.22"/>
<polygon fill="midnightblue" stroke="midnightblue" points="47.67,-1164.25 47.34,-1174.84 54.2,-1166.77 47.67,-1164.25"/>
</g>
<!-- Node31 -->
<g id="node32" class="node">
<title>Node31</title>
<g id="a_node32"><a xlink:href="dd/d7c/classnap_1_1rtti_1_1_object_ptr.html" target="_top" xlink:title=" ">
<polygon fill="white" stroke="black" points="137.5,-973.5 137.5,-1003.5 299.5,-1003.5 299.5,-973.5 137.5,-973.5"/>
<text text-anchor="start" x="145.5" y="-991.5" font-family="Helvetica,sans-Serif" font-size="10.00">ObjectPtr&lt; nap::PerspCamera</text>
<text text-anchor="middle" x="218.5" y="-980.5" font-family="Helvetica,sans-Serif" font-size="10.00">Component &gt;</text>
</a>
</g>
</g>
<!-- Node0&#45;&gt;Node31 -->
<g id="edge31" class="edge">
<title>Node0&#45;&gt;Node31</title>
<path fill="none" stroke="midnightblue" d="M47.38,-1164.45C54.49,-1128.59 74.46,-1053.5 122,-1013.5 126.59,-1009.64 131.71,-1006.37 137.13,-1003.59"/>
<polygon fill="midnightblue" stroke="midnightblue" points="43.87,-1164.15 45.5,-1174.62 50.76,-1165.42 43.87,-1164.15"/>
</g>
<!-- Node32 -->
<g id="node33" class="node">
<title>Node32</title>
<g id="a_node33"><a xlink:href="dd/d7c/classnap_1_1rtti_1_1_object_ptr.html" target="_top" xlink:title=" ">
<polygon fill="white" stroke="black" points="145.5,-924.5 145.5,-954.5 291.5,-954.5 291.5,-924.5 145.5,-924.5"/>
<text text-anchor="start" x="153.5" y="-942.5" font-family="Helvetica,sans-Serif" font-size="10.00">ObjectPtr&lt; nap::PortalWeb</text>
<text text-anchor="middle" x="218.5" y="-931.5" font-family="Helvetica,sans-Serif" font-size="10.00">SocketServer &gt;</text>
</a>
</g>
</g>
<!-- Node0&#45;&gt;Node32 -->
<g id="edge32" class="edge">
<title>Node0&#45;&gt;Node32</title>
<path fill="none" stroke="midnightblue" d="M45.04,-1164.88C48.39,-1121.94 62.55,-1019.11 122,-964.5 128.69,-958.35 136.7,-953.68 145.2,-950.14"/>
<polygon fill="midnightblue" stroke="midnightblue" points="41.54,-1164.67 44.37,-1174.88 48.53,-1165.13 41.54,-1164.67"/>
</g>
<!-- Node33 -->
<g id="node34" class="node">
<title>Node33</title>
<g id="a_node34"><a xlink:href="dd/d7c/classnap_1_1rtti_1_1_object_ptr.html" target="_top" xlink:title=" ">
<polygon fill="white" stroke="black" points="133.5,-886 133.5,-905 303.5,-905 303.5,-886 133.5,-886"/>
<text text-anchor="middle" x="218.5" y="-893" font-family="Helvetica,sans-Serif" font-size="10.00">ObjectPtr&lt; nap::PythonScript &gt;</text>
</a>
</g>
</g>
<!-- Node0&#45;&gt;Node33 -->
<g id="edge33" class="edge">
<title>Node0&#45;&gt;Node33</title>
<path fill="none" stroke="midnightblue" d="M43.35,-1164.82C42.85,-1115.03 48.88,-983.27 122,-915.5 126.6,-911.24 131.86,-907.79 137.5,-905.01"/>
<polygon fill="midnightblue" stroke="midnightblue" points="39.85,-1164.96 43.56,-1174.89 46.85,-1164.82 39.85,-1164.96"/>
</g>
<!-- Node34 -->
<g id="node35" class="node">
<title>Node34</title>
<g id="a_node35"><a xlink:href="dd/d7c/classnap_1_1rtti_1_1_object_ptr.html" target="_top" xlink:title=" ">
<polygon fill="white" stroke="black" points="122.5,-848 122.5,-867 314.5,-867 314.5,-848 122.5,-848"/>
<text text-anchor="middle" x="218.5" y="-855" font-family="Helvetica,sans-Serif" font-size="10.00">ObjectPtr&lt; nap::RenderTexture2D &gt;</text>
</a>
</g>
</g>
<!-- Node0&#45;&gt;Node34 -->
<g id="edge34" class="edge">
<title>Node0&#45;&gt;Node34</title>
<path fill="none" stroke="midnightblue" d="M46.28,-1164.59C53.74,-1102.94 79.44,-916.91 122,-876.5 125.92,-872.77 130.36,-869.68 135.11,-867.13"/>
<polygon fill="midnightblue" stroke="midnightblue" points="42.76,-1164.55 45.06,-1174.89 49.71,-1165.37 42.76,-1164.55"/>
</g>
<!-- Node35 -->
<g id="node36" class="node">
<title>Node35</title>
<g id="a_node36"><a xlink:href="dd/d7c/classnap_1_1rtti_1_1_object_ptr.html" target="_top" xlink:title=" ">
<polygon fill="white" stroke="black" points="127.5,-810 127.5,-829 309.5,-829 309.5,-810 127.5,-810"/>
<text text-anchor="middle" x="218.5" y="-817" font-family="Helvetica,sans-Serif" font-size="10.00">ObjectPtr&lt; nap::RenderWindow &gt;</text>
</a>
</g>
</g>
<!-- Node0&#45;&gt;Node35 -->
<g id="edge35" class="edge">
<title>Node0&#45;&gt;Node35</title>
<path fill="none" stroke="midnightblue" d="M45.67,-1164.77C51.69,-1098.4 74.49,-884.82 122,-838.5 125.87,-834.72 130.27,-831.59 135,-829.01"/>
<polygon fill="midnightblue" stroke="midnightblue" points="42.18,-1164.48 44.79,-1174.75 49.15,-1165.09 42.18,-1164.48"/>
</g>
<!-- Node36 -->
<g id="node37" class="node">
<title>Node36</title>
<g id="a_node37"><a xlink:href="dd/d7c/classnap_1_1rtti_1_1_object_ptr.html" target="_top" xlink:title=" ">
<polygon fill="white" stroke="black" points="146.5,-760.5 146.5,-790.5 290.5,-790.5 290.5,-760.5 146.5,-760.5"/>
<text text-anchor="start" x="154.5" y="-778.5" font-family="Helvetica,sans-Serif" font-size="10.00">ObjectPtr&lt; nap::Sequence</text>
<text text-anchor="middle" x="218.5" y="-767.5" font-family="Helvetica,sans-Serif" font-size="10.00">Editor &gt;</text>
</a>
</g>
</g>
<!-- Node0&#45;&gt;Node36 -->
<g id="edge36" class="edge">
<title>Node0&#45;&gt;Node36</title>
<path fill="none" stroke="midnightblue" d="M45.32,-1164.6C50.43,-1093.63 71.19,-854.22 122,-800.5 128.71,-793.4 137.17,-788.23 146.26,-784.47"/>
<polygon fill="midnightblue" stroke="midnightblue" points="41.81,-1164.61 44.61,-1174.83 48.79,-1165.1 41.81,-1164.61"/>
</g>
<!-- Node37 -->
<g id="node38" class="node">
<title>Node37</title>
<g id="a_node38"><a xlink:href="dd/d7c/classnap_1_1rtti_1_1_object_ptr.html" target="_top" xlink:title=" ">
<polygon fill="white" stroke="black" points="146.5,-711.5 146.5,-741.5 290.5,-741.5 290.5,-711.5 146.5,-711.5"/>
<text text-anchor="start" x="154.5" y="-729.5" font-family="Helvetica,sans-Serif" font-size="10.00">ObjectPtr&lt; nap::Sequence</text>
<text text-anchor="middle" x="218.5" y="-718.5" font-family="Helvetica,sans-Serif" font-size="10.00">Player &gt;</text>
</a>
</g>
</g>
<!-- Node0&#45;&gt;Node37 -->
<g id="edge37" class="edge">
<title>Node0&#45;&gt;Node37</title>
<path fill="none" stroke="midnightblue" d="M44.82,-1164.59C48.39,-1087.93 65.02,-813.1 122,-751.5 128.63,-744.33 137.05,-739.11 146.12,-735.33"/>
<polygon fill="midnightblue" stroke="midnightblue" points="41.32,-1164.63 44.37,-1174.77 48.31,-1164.94 41.32,-1164.63"/>
</g>
<!-- Node38 -->
<g id="node39" class="node">
<title>Node38</title>
<g id="a_node39"><a xlink:href="dd/d7c/classnap_1_1rtti_1_1_object_ptr.html" target="_top" xlink:title=" ">
<polygon fill="white" stroke="black" points="146.5,-662.5 146.5,-692.5 290.5,-692.5 290.5,-662.5 146.5,-662.5"/>
<text text-anchor="start" x="154.5" y="-680.5" font-family="Helvetica,sans-Serif" font-size="10.00">ObjectPtr&lt; nap::Sequence</text>
<text text-anchor="middle" x="218.5" y="-669.5" font-family="Helvetica,sans-Serif" font-size="10.00">PlayerAudioOutput &gt;</text>
</a>
</g>
</g>
<!-- Node0&#45;&gt;Node38 -->
<g id="edge38" class="edge">
<title>Node0&#45;&gt;Node38</title>
<path fill="none" stroke="midnightblue" d="M44.43,-1164.5C46.58,-1082.35 58.83,-772.01 122,-702.5 128.69,-695.14 137.24,-689.84 146.48,-686.03"/>
<polygon fill="midnightblue" stroke="midnightblue" points="40.92,-1164.82 44.18,-1174.9 47.91,-1164.99 40.92,-1164.82"/>
</g>
<!-- Node39 -->
<g id="node40" class="node">
<title>Node39</title>
<g id="a_node40"><a xlink:href="dd/d7c/classnap_1_1rtti_1_1_object_ptr.html" target="_top" xlink:title=" ">
<polygon fill="white" stroke="black" points="146.5,-613.5 146.5,-643.5 290.5,-643.5 290.5,-613.5 146.5,-613.5"/>
<text text-anchor="start" x="154.5" y="-631.5" font-family="Helvetica,sans-Serif" font-size="10.00">ObjectPtr&lt; nap::Sequence</text>
<text text-anchor="middle" x="218.5" y="-620.5" font-family="Helvetica,sans-Serif" font-size="10.00">PlayerClock &gt;</text>
</a>
</g>
</g>
<!-- Node0&#45;&gt;Node39 -->
<g id="edge39" class="edge">
<title>Node0&#45;&gt;Node39</title>
<path fill="none" stroke="midnightblue" d="M44.09,-1164.71C44.91,-1077.83 52.55,-731.06 122,-653.5 128.63,-646.09 137.16,-640.76 146.39,-636.94"/>
<polygon fill="midnightblue" stroke="midnightblue" points="40.59,-1164.77 44.02,-1174.79 47.59,-1164.82 40.59,-1164.77"/>
</g>
<!-- Node40 -->
<g id="node41" class="node">
<title>Node40</title>
<g id="a_node41"><a xlink:href="dd/d7c/classnap_1_1rtti_1_1_object_ptr.html" target="_top" xlink:title=" ">
<polygon fill="white" stroke="black" points="147.5,-575 147.5,-594 289.5,-594 289.5,-575 147.5,-575"/>
<text text-anchor="middle" x="218.5" y="-582" font-family="Helvetica,sans-Serif" font-size="10.00">ObjectPtr&lt; nap::Shader &gt;</text>
</a>
</g>
</g>
<!-- Node0&#45;&gt;Node40 -->
<g id="edge40" class="edge">
<title>Node0&#45;&gt;Node40</title>
<path fill="none" stroke="midnightblue" d="M43.73,-1164.58C42.9,-1072.41 44.21,-688.17 122,-604.5 128.92,-597.06 137.84,-592 147.45,-588.63"/>
<polygon fill="midnightblue" stroke="midnightblue" points="40.23,-1164.8 43.84,-1174.76 47.23,-1164.72 40.23,-1164.8"/>
</g>
<!-- Node41 -->
<g id="node42" class="node">
<title>Node41</title>
<g id="a_node42"><a xlink:href="dd/d7c/classnap_1_1rtti_1_1_object_ptr.html" target="_top" xlink:title=" ">
<polygon fill="white" stroke="black" points="135.5,-537 135.5,-556 301.5,-556 301.5,-537 135.5,-537"/>
<text text-anchor="middle" x="218.5" y="-544" font-family="Helvetica,sans-Serif" font-size="10.00">ObjectPtr&lt; nap::StructBuffer &gt;</text>
</a>
</g>
</g>
<!-- Node0&#45;&gt;Node41 -->
<g id="edge41" class="edge">
<title>Node0&#45;&gt;Node41</title>
<path fill="none" stroke="midnightblue" d="M45.14,-1164.53C51.12,-1063.36 80.06,-610.53 122,-565.5 125.92,-561.29 130.48,-557.87 135.44,-555.09"/>
<polygon fill="midnightblue" stroke="midnightblue" points="41.64,-1164.43 44.56,-1174.61 48.63,-1164.83 41.64,-1164.43"/>
</g>
<!-- Node42 -->
<g id="node43" class="node">
<title>Node42</title>
<g id="a_node43"><a xlink:href="dd/d7c/classnap_1_1rtti_1_1_object_ptr.html" target="_top" xlink:title=" ">
<polygon fill="white" stroke="black" points="148.5,-487.5 148.5,-517.5 288.5,-517.5 288.5,-487.5 148.5,-487.5"/>
<text text-anchor="start" x="156.5" y="-505.5" font-family="Helvetica,sans-Serif" font-size="10.00">ObjectPtr&lt; nap::StructFill</text>
<text text-anchor="middle" x="218.5" y="-494.5" font-family="Helvetica,sans-Serif" font-size="10.00">Policy &gt;</text>
</a>
</g>
</g>
<!-- Node0&#45;&gt;Node42 -->
<g id="edge42" class="edge">
<title>Node0&#45;&gt;Node42</title>
<path fill="none" stroke="midnightblue" d="M45.06,-1164.35C50.74,-1059.25 79.01,-576.86 122,-527.5 128.98,-519.49 138.18,-513.89 148.11,-510.01"/>
<polygon fill="midnightblue" stroke="midnightblue" points="41.55,-1164.36 44.51,-1174.54 48.54,-1164.74 41.55,-1164.36"/>
</g>
<!-- Node43 -->
<g id="node44" class="node">
<title>Node43</title>
<g id="a_node44"><a xlink:href="dd/d7c/classnap_1_1rtti_1_1_object_ptr.html" target="_top" xlink:title=" ">
<polygon fill="white" stroke="black" points="139.5,-449 139.5,-468 297.5,-468 297.5,-449 139.5,-449"/>
<text text-anchor="middle" x="218.5" y="-456" font-family="Helvetica,sans-Serif" font-size="10.00">ObjectPtr&lt; nap::Texture2D &gt;</text>
</a>
</g>
</g>
<!-- Node0&#45;&gt;Node43 -->
<g id="edge43" class="edge">
<title>Node0&#45;&gt;Node43</title>
<path fill="none" stroke="midnightblue" d="M44.83,-1164.56C49.54,-1055.14 74.51,-530.8 122,-478.5 126.9,-473.11 132.84,-468.96 139.35,-465.8"/>
<polygon fill="midnightblue" stroke="midnightblue" points="41.32,-1164.68 44.39,-1174.82 48.31,-1164.98 41.32,-1164.68"/>
</g>
<!-- Node44 -->
<g id="node45" class="node">
<title>Node44</title>
<g id="a_node45"><a xlink:href="dd/d7c/classnap_1_1rtti_1_1_object_ptr.html" target="_top" xlink:title=" ">
<polygon fill="white" stroke="black" points="130.5,-399.5 130.5,-429.5 306.5,-429.5 306.5,-399.5 130.5,-399.5"/>
<text text-anchor="start" x="138.5" y="-417.5" font-family="Helvetica,sans-Serif" font-size="10.00">ObjectPtr&lt; nap::TypedGPUBuffer</text>
<text text-anchor="middle" x="218.5" y="-406.5" font-family="Helvetica,sans-Serif" font-size="10.00">Numeric&lt; T &gt; &gt;</text>
</a>
</g>
</g>
<!-- Node0&#45;&gt;Node44 -->
<g id="edge44" class="edge">
<title>Node0&#45;&gt;Node44</title>
<path fill="none" stroke="midnightblue" d="M44.75,-1164.56C49.17,-1051.73 73.31,-496.2 122,-439.5 125.24,-435.73 128.97,-432.49 133.04,-429.72"/>
<polygon fill="midnightblue" stroke="midnightblue" points="41.24,-1164.71 44.35,-1174.84 48.24,-1164.98 41.24,-1164.71"/>
</g>
<!-- Node45 -->
<g id="node46" class="node">
<title>Node45</title>
<g id="a_node46"><a xlink:href="dd/d7c/classnap_1_1rtti_1_1_object_ptr.html" target="_top" xlink:title=" ">
<polygon fill="white" stroke="black" points="137,-361 137,-380 300,-380 300,-361 137,-361"/>
<text text-anchor="middle" x="218.5" y="-368" font-family="Helvetica,sans-Serif" font-size="10.00">ObjectPtr&lt; nap::UDPThread &gt;</text>
</a>
</g>
</g>
<!-- Node0&#45;&gt;Node45 -->
<g id="edge45" class="edge">
<title>Node0&#45;&gt;Node45</title>
<path fill="none" stroke="midnightblue" d="M44.57,-1164.68C48.09,-1047.66 68.63,-450 122,-390.5 126.19,-385.83 131.16,-382.1 136.6,-379.12"/>
<polygon fill="midnightblue" stroke="midnightblue" points="41.07,-1164.64 44.27,-1174.74 48.06,-1164.85 41.07,-1164.64"/>
</g>
<!-- Node46 -->
<g id="node47" class="node">
<title>Node46</title>
<g id="a_node47"><a xlink:href="dd/d7c/classnap_1_1rtti_1_1_object_ptr.html" target="_top" xlink:title=" ">
<polygon fill="white" stroke="black" points="130.5,-323 130.5,-342 306.5,-342 306.5,-323 130.5,-323"/>
<text text-anchor="middle" x="218.5" y="-330" font-family="Helvetica,sans-Serif" font-size="10.00">ObjectPtr&lt; nap::UniformStruct &gt;</text>
</a>
</g>
</g>
<!-- Node0&#45;&gt;Node46 -->
<g id="edge46" class="edge">
<title>Node0&#45;&gt;Node46</title>
<path fill="none" stroke="midnightblue" d="M44.47,-1164.47C47.47,-1043.54 65.75,-413.87 122,-351.5 125.28,-347.86 129.05,-344.8 133.14,-342.24"/>
<polygon fill="midnightblue" stroke="midnightblue" points="40.96,-1164.74 44.22,-1174.82 47.96,-1164.91 40.96,-1164.74"/>
</g>
<!-- Node47 -->
<g id="node48" class="node">
<title>Node47</title>
<g id="a_node48"><a xlink:href="dd/d7c/classnap_1_1rtti_1_1_object_ptr.html" target="_top" xlink:title=" ">
<polygon fill="white" stroke="black" points="135,-285 135,-304 302,-304 302,-285 135,-285"/>
<text text-anchor="middle" x="218.5" y="-292" font-family="Helvetica,sans-Serif" font-size="10.00">ObjectPtr&lt; nap::VideoPlayer &gt;</text>
</a>
</g>
</g>
<!-- Node0&#45;&gt;Node47 -->
<g id="edge47" class="edge">
<title>Node0&#45;&gt;Node47</title>
<path fill="none" stroke="midnightblue" d="M44.38,-1164.72C46.9,-1041.21 63.15,-379.01 122,-313.5 125.73,-309.35 130.08,-305.95 134.84,-303.19"/>
<polygon fill="midnightblue" stroke="midnightblue" points="40.87,-1164.89 44.17,-1174.95 47.87,-1165.03 40.87,-1164.89"/>
</g>
<!-- Node48 -->
<g id="node49" class="node">
<title>Node48</title>
<g id="a_node49"><a xlink:href="dd/d7c/classnap_1_1rtti_1_1_object_ptr.html" target="_top" xlink:title=" ">
<polygon fill="white" stroke="black" points="143.5,-235.5 143.5,-265.5 293.5,-265.5 293.5,-235.5 143.5,-235.5"/>
<text text-anchor="start" x="151.5" y="-253.5" font-family="Helvetica,sans-Serif" font-size="10.00">ObjectPtr&lt; nap::WebSocket</text>
<text text-anchor="middle" x="218.5" y="-242.5" font-family="Helvetica,sans-Serif" font-size="10.00">ClientEndPoint &gt;</text>
</a>
</g>
</g>
<!-- Node0&#45;&gt;Node48 -->
<g id="edge48" class="edge">
<title>Node0&#45;&gt;Node48</title>
<path fill="none" stroke="midnightblue" d="M44.35,-1164.69C46.77,-1038.15 62.68,-345.9 122,-275.5 127.74,-268.68 135.09,-263.61 143.16,-259.84"/>
<polygon fill="midnightblue" stroke="midnightblue" points="40.85,-1164.79 44.16,-1174.85 47.85,-1164.92 40.85,-1164.79"/>
</g>
<!-- Node49 -->
<g id="node50" class="node">
<title>Node49</title>
<g id="a_node50"><a xlink:href="dd/d7c/classnap_1_1rtti_1_1_object_ptr.html" target="_top" xlink:title=" ">
<polygon fill="white" stroke="black" points="143.5,-186.5 143.5,-216.5 293.5,-216.5 293.5,-186.5 143.5,-186.5"/>
<text text-anchor="start" x="151.5" y="-204.5" font-family="Helvetica,sans-Serif" font-size="10.00">ObjectPtr&lt; nap::WebSocket</text>
<text text-anchor="middle" x="218.5" y="-193.5" font-family="Helvetica,sans-Serif" font-size="10.00">Interface &gt;</text>
</a>
</g>
</g>
<!-- Node0&#45;&gt;Node49 -->
<g id="edge49" class="edge">
<title>Node0&#45;&gt;Node49</title>
<path fill="none" stroke="midnightblue" d="M44.26,-1164.85C46.14,-1034.8 59.47,-301.04 122,-226.5 127.73,-219.67 135.07,-214.59 143.13,-210.82"/>
<polygon fill="midnightblue" stroke="midnightblue" points="40.76,-1164.89 44.12,-1174.94 47.76,-1164.99 40.76,-1164.89"/>
</g>
<!-- Node50 -->
<g id="node51" class="node">
<title>Node50</title>
<g id="a_node51"><a xlink:href="dd/d7c/classnap_1_1rtti_1_1_object_ptr.html" target="_top" xlink:title=" ">
<polygon fill="white" stroke="black" points="143.5,-137.5 143.5,-167.5 293.5,-167.5 293.5,-137.5 143.5,-137.5"/>
<text text-anchor="start" x="151.5" y="-155.5" font-family="Helvetica,sans-Serif" font-size="10.00">ObjectPtr&lt; nap::WebSocket</text>
<text text-anchor="middle" x="218.5" y="-144.5" font-family="Helvetica,sans-Serif" font-size="10.00">ServerEndPoint &gt;</text>
</a>
</g>
</g>
<!-- Node0&#45;&gt;Node50 -->
<g id="edge50" class="edge">
<title>Node0&#45;&gt;Node50</title>
<path fill="none" stroke="midnightblue" d="M44.18,-1164.68C45.55,-1030.33 56.32,-256.11 122,-177.5 127.71,-170.66 135.05,-165.57 143.11,-161.8"/>
<polygon fill="midnightblue" stroke="midnightblue" points="40.68,-1164.73 44.08,-1174.76 47.68,-1164.8 40.68,-1164.73"/>
</g>
<!-- Node51 -->
<g id="node52" class="node">
<title>Node51</title>
<g id="a_node52"><a xlink:href="dd/d7c/classnap_1_1rtti_1_1_object_ptr.html" target="_top" xlink:title=" ">
<polygon fill="white" stroke="black" points="143.5,-88.5 143.5,-118.5 293.5,-118.5 293.5,-88.5 143.5,-88.5"/>
<text text-anchor="start" x="151.5" y="-106.5" font-family="Helvetica,sans-Serif" font-size="10.00">ObjectPtr&lt; nap::WebSocket</text>
<text text-anchor="middle" x="218.5" y="-95.5" font-family="Helvetica,sans-Serif" font-size="10.00">Ticket &gt;</text>
</a>
</g>
</g>
<!-- Node0&#45;&gt;Node51 -->
<g id="edge51" class="edge">
<title>Node0&#45;&gt;Node51</title>
<path fill="none" stroke="midnightblue" d="M44.1,-1164.59C44.99,-1026.22 53.14,-211.21 122,-128.5 127.7,-121.65 135.03,-116.55 143.08,-112.78"/>
<polygon fill="midnightblue" stroke="midnightblue" points="40.6,-1164.9 44.04,-1174.93 47.6,-1164.95 40.6,-1164.9"/>
</g>
<!-- Node52 -->
<g id="node53" class="node">
<title>Node52</title>
<g id="a_node53"><a xlink:href="dd/d7c/classnap_1_1rtti_1_1_object_ptr.html" target="_top" xlink:title=" ">
<polygon fill="white" stroke="black" points="160.5,-50 160.5,-69 276.5,-69 276.5,-50 160.5,-50"/>
<text text-anchor="middle" x="218.5" y="-57" font-family="Helvetica,sans-Serif" font-size="10.00">ObjectPtr&lt; Object &gt;</text>
</a>
</g>
</g>
<!-- Node0&#45;&gt;Node52 -->
<g id="edge52" class="edge">
<title>Node0&#45;&gt;Node52</title>
<path fill="none" stroke="midnightblue" d="M43.99,-1164.5C44.1,-1022.08 47.83,-164.51 122,-79.5 131.69,-68.4 145.82,-62.53 160.26,-59.62"/>
<polygon fill="midnightblue" stroke="midnightblue" points="40.49,-1164.79 43.99,-1174.79 47.49,-1164.79 40.49,-1164.79"/>
</g>
<!-- Node53 -->
<g id="node54" class="node">
<title>Node53</title>
<g id="a_node54"><a xlink:href="dd/d7c/classnap_1_1rtti_1_1_object_ptr.html" target="_top" xlink:title=" ">
<polygon fill="white" stroke="black" points="139,-0.5 139,-30.5 298,-30.5 298,-0.5 139,-0.5"/>
<text text-anchor="start" x="147" y="-18.5" font-family="Helvetica,sans-Serif" font-size="10.00">ObjectPtr&lt; TargetComponent</text>
<text text-anchor="middle" x="218.5" y="-7.5" font-family="Helvetica,sans-Serif" font-size="10.00">Type &gt;</text>
</a>
</g>
</g>
<!-- Node0&#45;&gt;Node53 -->
<g id="edge53" class="edge">
<title>Node0&#45;&gt;Node53</title>
<path fill="none" stroke="midnightblue" d="M43.98,-1164.73C44.03,-1020.29 47.38,-130.65 122,-40.5 126.7,-34.82 132.51,-30.35 138.94,-26.83"/>
<polygon fill="midnightblue" stroke="midnightblue" points="40.48,-1164.8 43.98,-1174.8 47.48,-1164.8 40.48,-1164.8"/>
</g>
</g>
</svg>
