<?xml version="1.0" encoding="UTF-8" standalone="no"?>
<!DOCTYPE svg PUBLIC "-//W3C//DTD SVG 1.1//EN"
 "http://www.w3.org/Graphics/SVG/1.1/DTD/svg11.dtd">
<!-- Generated by graphviz version 2.48.0 (20210717.1556)
 -->
<!-- Title: Graphical Class Hierarchy Pages: 1 -->
<svg width="656pt" height="123pt"
 viewBox="0.00 0.00 656.00 123.00" xmlns="http://www.w3.org/2000/svg" xmlns:xlink="http://www.w3.org/1999/xlink">
<g id="graph0" class="graph" transform="scale(1 1) rotate(0) translate(4 119)">
<title>Graphical Class Hierarchy</title>
<polygon fill="white" stroke="transparent" points="-4,4 -4,-119 652,-119 652,4 -4,4"/>
<!-- Node0 -->
<g id="node1" class="node">
<title>Node0</title>
<g id="a_node1"><a xlink:href="d6/d6a/classnap_1_1_uniform_instance.html" target="_top" xlink:title="UniformInstance">
<polygon fill="white" stroke="black" points="0,-38.5 0,-57.5 86,-57.5 86,-38.5 0,-38.5"/>
<text text-anchor="middle" x="43" y="-45.5" font-family="Helvetica,sans-Serif" font-size="10.00">UniformInstance</text>
</a>
</g>
</g>
<!-- Node1 -->
<g id="node2" class="node">
<title>Node1</title>
<g id="a_node2"><a xlink:href="dd/d94/classnap_1_1_uniform_leaf_instance.html" target="_top" xlink:title="UniformLeafInstance">
<polygon fill="white" stroke="black" points="138,-76.5 138,-95.5 242,-95.5 242,-76.5 138,-76.5"/>
<text text-anchor="middle" x="190" y="-83.5" font-family="Helvetica,sans-Serif" font-size="10.00">UniformLeafInstance</text>
</a>
</g>
</g>
<!-- Node0&#45;&gt;Node1 -->
<g id="edge1" class="edge">
<title>Node0&#45;&gt;Node1</title>
<path fill="none" stroke="midnightblue" d="M90.49,-60.18C110.62,-65.46 133.84,-71.54 152.67,-76.48"/>
<polygon fill="midnightblue" stroke="midnightblue" points="91.15,-56.74 80.59,-57.59 89.38,-63.51 91.15,-56.74"/>
</g>
<!-- Node6 -->
<g id="node7" class="node">
<title>Node6</title>
<g id="a_node7"><a xlink:href="d4/da2/classnap_1_1_uniform_struct_array_instance.html" target="_top" xlink:title="UniformStructArrayInstance">
<polygon fill="white" stroke="black" points="122,-38.5 122,-57.5 258,-57.5 258,-38.5 122,-38.5"/>
<text text-anchor="middle" x="190" y="-45.5" font-family="Helvetica,sans-Serif" font-size="10.00">UniformStructArrayInstance</text>
</a>
</g>
</g>
<!-- Node0&#45;&gt;Node6 -->
<g id="edge6" class="edge">
<title>Node0&#45;&gt;Node6</title>
<path fill="none" stroke="midnightblue" d="M96.5,-48C104.72,-48 113.3,-48 121.79,-48"/>
<polygon fill="midnightblue" stroke="midnightblue" points="96.33,-44.5 86.33,-48 96.33,-51.5 96.33,-44.5"/>
</g>
<!-- Node7 -->
<g id="node8" class="node">
<title>Node7</title>
<g id="a_node8"><a xlink:href="dd/d44/classnap_1_1_uniform_struct_instance.html" target="_top" xlink:title="UniformStructInstance">
<polygon fill="white" stroke="black" points="133.5,-0.5 133.5,-19.5 246.5,-19.5 246.5,-0.5 133.5,-0.5"/>
<text text-anchor="middle" x="190" y="-7.5" font-family="Helvetica,sans-Serif" font-size="10.00">UniformStructInstance</text>
</a>
</g>
</g>
<!-- Node0&#45;&gt;Node7 -->
<g id="edge7" class="edge">
<title>Node0&#45;&gt;Node7</title>
<path fill="none" stroke="midnightblue" d="M90.49,-35.82C110.62,-30.54 133.84,-24.46 152.67,-19.52"/>
<polygon fill="midnightblue" stroke="midnightblue" points="89.38,-32.49 80.59,-38.41 91.15,-39.26 89.38,-32.49"/>
</g>
<!-- Node2 -->
<g id="node3" class="node">
<title>Node2</title>
<g id="a_node3"><a xlink:href="d8/da5/classnap_1_1_uniform_value_array_instance.html" target="_top" xlink:title="UniformValueArrayInstance">
<polygon fill="white" stroke="black" points="294,-95.5 294,-114.5 428,-114.5 428,-95.5 294,-95.5"/>
<text text-anchor="middle" x="361" y="-102.5" font-family="Helvetica,sans-Serif" font-size="10.00">UniformValueArrayInstance</text>
</a>
</g>
</g>
<!-- Node1&#45;&gt;Node2 -->
<g id="edge2" class="edge">
<title>Node1&#45;&gt;Node2</title>
<path fill="none" stroke="midnightblue" d="M252.27,-92.89C265.73,-94.4 280.04,-96.01 293.69,-97.55"/>
<polygon fill="midnightblue" stroke="midnightblue" points="252.49,-89.39 242.16,-91.75 251.71,-96.35 252.49,-89.39"/>
</g>
<!-- Node4 -->
<g id="node5" class="node">
<title>Node4</title>
<g id="a_node5"><a xlink:href="d0/dac/classnap_1_1_uniform_value_instance.html" target="_top" xlink:title="UniformValueInstance">
<polygon fill="white" stroke="black" points="305.5,-57.5 305.5,-76.5 416.5,-76.5 416.5,-57.5 305.5,-57.5"/>
<text text-anchor="middle" x="361" y="-64.5" font-family="Helvetica,sans-Serif" font-size="10.00">UniformValueInstance</text>
</a>
</g>
</g>
<!-- Node1&#45;&gt;Node4 -->
<g id="edge4" class="edge">
<title>Node1&#45;&gt;Node4</title>
<path fill="none" stroke="midnightblue" d="M252.23,-79.12C269.65,-77.16 288.5,-75.04 305.49,-73.13"/>
<polygon fill="midnightblue" stroke="midnightblue" points="251.71,-75.65 242.16,-80.25 252.49,-82.61 251.71,-75.65"/>
</g>
<!-- Node3 -->
<g id="node4" class="node">
<title>Node3</title>
<g id="a_node4"><a xlink:href="d3/d48/classnap_1_1_typed_uniform_value_array_instance.html" target="_top" xlink:title="TypedUniformValueArrayInstance\&lt; T \&gt;">
<polygon fill="white" stroke="black" points="464,-95.5 464,-114.5 648,-114.5 648,-95.5 464,-95.5"/>
<text text-anchor="middle" x="556" y="-102.5" font-family="Helvetica,sans-Serif" font-size="10.00">TypedUniformValueArrayInstance&lt; T &gt;</text>
</a>
</g>
</g>
<!-- Node2&#45;&gt;Node3 -->
<g id="edge3" class="edge">
<title>Node2&#45;&gt;Node3</title>
<path fill="none" stroke="midnightblue" d="M438.23,-105C446.59,-105 455.17,-105 463.69,-105"/>
<polygon fill="midnightblue" stroke="midnightblue" points="438.15,-101.5 428.15,-105 438.15,-108.5 438.15,-101.5"/>
</g>
<!-- Node5 -->
<g id="node6" class="node">
<title>Node5</title>
<g id="a_node6"><a xlink:href="d7/d60/classnap_1_1_typed_uniform_value_instance.html" target="_top" xlink:title="TypedUniformValueInstance\&lt; T \&gt;">
<polygon fill="white" stroke="black" points="475.5,-57.5 475.5,-76.5 636.5,-76.5 636.5,-57.5 475.5,-57.5"/>
<text text-anchor="middle" x="556" y="-64.5" font-family="Helvetica,sans-Serif" font-size="10.00">TypedUniformValueInstance&lt; T &gt;</text>
</a>
</g>
</g>
<!-- Node4&#45;&gt;Node5 -->
<g id="edge5" class="edge">
<title>Node4&#45;&gt;Node5</title>
<path fill="none" stroke="midnightblue" d="M426.61,-67C442.25,-67 459.15,-67 475.39,-67"/>
<polygon fill="midnightblue" stroke="midnightblue" points="426.53,-63.5 416.53,-67 426.53,-70.5 426.53,-63.5"/>
</g>
</g>
</svg>
