<?xml version="1.0" encoding="UTF-8" standalone="no"?>
<!DOCTYPE svg PUBLIC "-//W3C//DTD SVG 1.1//EN"
 "http://www.w3.org/Graphics/SVG/1.1/DTD/svg11.dtd">
<!-- Generated by graphviz version 2.43.0 (0)
 -->
<!-- Title: Graphical Class Hierarchy Pages: 1 -->
<svg width="447pt" height="484pt"
 viewBox="0.00 0.00 447.00 484.00" xmlns="http://www.w3.org/2000/svg" xmlns:xlink="http://www.w3.org/1999/xlink">
<g id="graph0" class="graph" transform="scale(1 1) rotate(0) translate(4 480)">
<title>Graphical Class Hierarchy</title>
<polygon fill="white" stroke="transparent" points="-4,4 -4,-480 443,-480 443,4 -4,4"/>
<!-- Node0 -->
<g id="node1" class="node">
<title>Node0</title>
<g id="a_node1"><a xlink:href="d4/d2d/classnap_1_1audio_1_1_process.html" target="_top" xlink:title=" ">
<polygon fill="white" stroke="black" points="0,-190.5 0,-209.5 54,-209.5 54,-190.5 0,-190.5"/>
<text text-anchor="middle" x="27" y="-197.5" font-family="Helvetica,sans-Serif" font-size="10.00">Process</text>
</a>
</g>
</g>
<!-- Node1 -->
<g id="node2" class="node">
<title>Node1</title>
<g id="a_node2"><a xlink:href="dc/d0d/classnap_1_1audio_1_1_node.html" target="_top" xlink:title=" ">
<polygon fill="white" stroke="black" points="143.5,-228.5 143.5,-247.5 185.5,-247.5 185.5,-228.5 143.5,-228.5"/>
<text text-anchor="middle" x="164.5" y="-235.5" font-family="Helvetica,sans-Serif" font-size="10.00">Node</text>
</a>
</g>
</g>
<!-- Node0&#45;&gt;Node1 -->
<g id="edge1" class="edge">
<title>Node0&#45;&gt;Node1</title>
<path fill="none" stroke="midnightblue" d="M63.87,-211.29C72.41,-213.89 81.51,-216.6 90,-219 108.01,-224.09 128.66,-229.37 143.47,-233.08"/>
<polygon fill="midnightblue" stroke="midnightblue" points="64.76,-207.9 54.17,-208.3 62.7,-214.59 64.76,-207.9"/>
</g>
<!-- Node15 -->
<g id="node16" class="node">
<title>Node15</title>
<g id="a_node16"><a xlink:href="dd/d43/classnap_1_1audio_1_1_parent_process.html" target="_top" xlink:title=" ">
<polygon fill="white" stroke="black" points="122,-190.5 122,-209.5 207,-209.5 207,-190.5 122,-190.5"/>
<text text-anchor="middle" x="164.5" y="-197.5" font-family="Helvetica,sans-Serif" font-size="10.00">ParentProcess</text>
</a>
</g>
</g>
<!-- Node0&#45;&gt;Node15 -->
<g id="edge15" class="edge">
<title>Node0&#45;&gt;Node15</title>
<path fill="none" stroke="midnightblue" d="M64.13,-200C81.94,-200 103.51,-200 121.99,-200"/>
<polygon fill="midnightblue" stroke="midnightblue" points="64.13,-196.5 54.13,-200 64.13,-203.5 64.13,-196.5"/>
</g>
<!-- Node16 -->
<g id="node17" class="node">
<title>Node16</title>
<g id="a_node17"><a xlink:href="db/d23/classnap_1_1_sequence_player_audio_clock_process.html" target="_top" xlink:title=" ">
<polygon fill="white" stroke="black" points="90,-141 90,-171 239,-171 239,-141 90,-141"/>
<text text-anchor="start" x="98" y="-159" font-family="Helvetica,sans-Serif" font-size="10.00">SequencePlayerAudioClock</text>
<text text-anchor="middle" x="164.5" y="-148" font-family="Helvetica,sans-Serif" font-size="10.00">Process</text>
</a>
</g>
</g>
<!-- Node0&#45;&gt;Node16 -->
<g id="edge16" class="edge">
<title>Node0&#45;&gt;Node16</title>
<path fill="none" stroke="midnightblue" d="M63.84,-188.36C80.17,-183.06 99.72,-176.71 117.15,-171.05"/>
<polygon fill="midnightblue" stroke="midnightblue" points="62.56,-185.1 54.13,-191.52 64.72,-191.76 62.56,-185.1"/>
</g>
<!-- Node2 -->
<g id="node3" class="node">
<title>Node2</title>
<g id="a_node3"><a xlink:href="d0/dc1/classnap_1_1audio_1_1_buffer_player_node.html" target="_top" xlink:title=" ">
<polygon fill="white" stroke="black" points="306,-456.5 306,-475.5 408,-475.5 408,-456.5 306,-456.5"/>
<text text-anchor="middle" x="357" y="-463.5" font-family="Helvetica,sans-Serif" font-size="10.00">BufferPlayerNode</text>
</a>
</g>
</g>
<!-- Node1&#45;&gt;Node2 -->
<g id="edge2" class="edge">
<title>Node1&#45;&gt;Node2</title>
<path fill="none" stroke="midnightblue" d="M169.9,-257.49C180.36,-299.18 210.8,-397.25 275,-447 283.91,-453.9 294.9,-458.36 305.89,-461.23"/>
<polygon fill="midnightblue" stroke="midnightblue" points="173.3,-256.65 167.56,-247.74 166.49,-258.28 173.3,-256.65"/>
</g>
<!-- Node3 -->
<g id="node4" class="node">
<title>Node3</title>
<g id="a_node4"><a xlink:href="d4/d37/classnap_1_1audio_1_1_control_node.html" target="_top" xlink:title=" ">
<polygon fill="white" stroke="black" points="318.5,-418.5 318.5,-437.5 395.5,-437.5 395.5,-418.5 318.5,-418.5"/>
<text text-anchor="middle" x="357" y="-425.5" font-family="Helvetica,sans-Serif" font-size="10.00">ControlNode</text>
</a>
</g>
</g>
<!-- Node1&#45;&gt;Node3 -->
<g id="edge3" class="edge">
<title>Node1&#45;&gt;Node3</title>
<path fill="none" stroke="midnightblue" d="M172.22,-257.32C185.74,-293.16 219.71,-369.88 275,-409 287.62,-417.93 303.84,-422.71 318.44,-425.26"/>
<polygon fill="midnightblue" stroke="midnightblue" points="175.39,-255.79 168.69,-247.59 168.81,-258.19 175.39,-255.79"/>
</g>
<!-- Node4 -->
<g id="node5" class="node">
<title>Node4</title>
<g id="a_node5"><a xlink:href="db/d66/classnap_1_1audio_1_1_filter_node.html" target="_top" xlink:title=" ">
<polygon fill="white" stroke="black" points="323.5,-380.5 323.5,-399.5 390.5,-399.5 390.5,-380.5 323.5,-380.5"/>
<text text-anchor="middle" x="357" y="-387.5" font-family="Helvetica,sans-Serif" font-size="10.00">FilterNode</text>
</a>
</g>
</g>
<!-- Node1&#45;&gt;Node4 -->
<g id="edge4" class="edge">
<title>Node1&#45;&gt;Node4</title>
<path fill="none" stroke="midnightblue" d="M175.45,-256.62C192.03,-285.78 228.19,-341.9 275,-371 289.48,-380 307.82,-384.74 323.38,-387.23"/>
<polygon fill="midnightblue" stroke="midnightblue" points="178.32,-254.57 170.41,-247.52 172.19,-257.96 178.32,-254.57"/>
</g>
<!-- Node5 -->
<g id="node6" class="node">
<title>Node5</title>
<g id="a_node6"><a xlink:href="d4/d5f/classnap_1_1audio_1_1_gain_node.html" target="_top" xlink:title=" ">
<polygon fill="white" stroke="black" points="324.5,-342.5 324.5,-361.5 389.5,-361.5 389.5,-342.5 324.5,-342.5"/>
<text text-anchor="middle" x="357" y="-349.5" font-family="Helvetica,sans-Serif" font-size="10.00">GainNode</text>
</a>
</g>
</g>
<!-- Node1&#45;&gt;Node5 -->
<g id="edge5" class="edge">
<title>Node1&#45;&gt;Node5</title>
<path fill="none" stroke="midnightblue" d="M180.33,-255.22C199.84,-276.75 236.22,-313.18 275,-333 290.31,-340.82 308.88,-345.48 324.39,-348.22"/>
<polygon fill="midnightblue" stroke="midnightblue" points="182.74,-252.67 173.49,-247.51 177.51,-257.31 182.74,-252.67"/>
</g>
<!-- Node6 -->
<g id="node7" class="node">
<title>Node6</title>
<g id="a_node7"><a xlink:href="d3/d8d/classnap_1_1audio_1_1_input_node.html" target="_top" xlink:title=" ">
<polygon fill="white" stroke="black" points="323.5,-304.5 323.5,-323.5 390.5,-323.5 390.5,-304.5 323.5,-304.5"/>
<text text-anchor="middle" x="357" y="-311.5" font-family="Helvetica,sans-Serif" font-size="10.00">InputNode</text>
</a>
</g>
</g>
<!-- Node1&#45;&gt;Node6 -->
<g id="edge6" class="edge">
<title>Node1&#45;&gt;Node6</title>
<path fill="none" stroke="midnightblue" d="M189.72,-252.86C211.39,-265.6 244.37,-283.64 275,-295 290.44,-300.73 308.19,-305.12 323.13,-308.23"/>
<polygon fill="midnightblue" stroke="midnightblue" points="191.27,-249.71 180.89,-247.59 187.68,-255.72 191.27,-249.71"/>
</g>
<!-- Node7 -->
<g id="node8" class="node">
<title>Node7</title>
<g id="a_node8"><a xlink:href="d8/d36/classnap_1_1audio_1_1_level_meter_node.html" target="_top" xlink:title=" ">
<polygon fill="white" stroke="black" points="308.5,-266.5 308.5,-285.5 405.5,-285.5 405.5,-266.5 308.5,-266.5"/>
<text text-anchor="middle" x="357" y="-273.5" font-family="Helvetica,sans-Serif" font-size="10.00">LevelMeterNode</text>
</a>
</g>
</g>
<!-- Node1&#45;&gt;Node7 -->
<g id="edge7" class="edge">
<title>Node1&#45;&gt;Node7</title>
<path fill="none" stroke="midnightblue" d="M195.49,-243.98C225.78,-250.02 273.04,-259.45 308.44,-266.51"/>
<polygon fill="midnightblue" stroke="midnightblue" points="196.02,-240.52 185.53,-241.99 194.65,-247.38 196.02,-240.52"/>
</g>
<!-- Node8 -->
<g id="node9" class="node">
<title>Node8</title>
<g id="a_node9"><a xlink:href="d7/d34/classnap_1_1audio_1_1_mix_node.html" target="_top" xlink:title=" ">
<polygon fill="white" stroke="black" points="327,-228.5 327,-247.5 387,-247.5 387,-228.5 327,-228.5"/>
<text text-anchor="middle" x="357" y="-235.5" font-family="Helvetica,sans-Serif" font-size="10.00">MixNode</text>
</a>
</g>
</g>
<!-- Node1&#45;&gt;Node8 -->
<g id="edge8" class="edge">
<title>Node1&#45;&gt;Node8</title>
<path fill="none" stroke="midnightblue" d="M195.9,-238C231.94,-238 291.56,-238 326.98,-238"/>
<polygon fill="midnightblue" stroke="midnightblue" points="195.53,-234.5 185.53,-238 195.53,-241.5 195.53,-234.5"/>
</g>
<!-- Node9 -->
<g id="node10" class="node">
<title>Node9</title>
<g id="a_node10"><a xlink:href="d8/d4c/classnap_1_1audio_1_1_multiply_node.html" target="_top" xlink:title=" ">
<polygon fill="white" stroke="black" points="316,-190.5 316,-209.5 398,-209.5 398,-190.5 316,-190.5"/>
<text text-anchor="middle" x="357" y="-197.5" font-family="Helvetica,sans-Serif" font-size="10.00">MultiplyNode</text>
</a>
</g>
</g>
<!-- Node1&#45;&gt;Node9 -->
<g id="edge9" class="edge">
<title>Node1&#45;&gt;Node9</title>
<path fill="none" stroke="midnightblue" d="M195.74,-231.97C228.17,-225.5 279.84,-215.19 315.7,-208.04"/>
<polygon fill="midnightblue" stroke="midnightblue" points="194.65,-228.62 185.53,-234.01 196.02,-235.48 194.65,-228.62"/>
</g>
<!-- Node10 -->
<g id="node11" class="node">
<title>Node10</title>
<g id="a_node11"><a xlink:href="da/d0f/classnap_1_1audio_1_1_multi_sample_buffer_player_node.html" target="_top" xlink:title=" ">
<polygon fill="white" stroke="black" points="275,-152.5 275,-171.5 439,-171.5 439,-152.5 275,-152.5"/>
<text text-anchor="middle" x="357" y="-159.5" font-family="Helvetica,sans-Serif" font-size="10.00">MultiSampleBufferPlayerNode</text>
</a>
</g>
</g>
<!-- Node1&#45;&gt;Node10 -->
<g id="edge10" class="edge">
<title>Node1&#45;&gt;Node10</title>
<path fill="none" stroke="midnightblue" d="M195.75,-234.1C209.63,-231.36 225.88,-226.73 239,-219 259.04,-207.19 254.83,-192.59 275,-181 281.76,-177.11 289.28,-174.02 296.92,-171.56"/>
<polygon fill="midnightblue" stroke="midnightblue" points="194.94,-230.69 185.69,-235.86 196.14,-237.59 194.94,-230.69"/>
</g>
<!-- Node11 -->
<g id="node12" class="node">
<title>Node11</title>
<g id="a_node12"><a xlink:href="d2/da1/classnap_1_1audio_1_1_output_node.html" target="_top" xlink:title=" ">
<polygon fill="white" stroke="black" points="319.5,-114.5 319.5,-133.5 394.5,-133.5 394.5,-114.5 319.5,-114.5"/>
<text text-anchor="middle" x="357" y="-121.5" font-family="Helvetica,sans-Serif" font-size="10.00">OutputNode</text>
</a>
</g>
</g>
<!-- Node1&#45;&gt;Node11 -->
<g id="edge11" class="edge">
<title>Node1&#45;&gt;Node11</title>
<path fill="none" stroke="midnightblue" d="M195.7,-236.09C210.15,-233.81 226.9,-229 239,-219 267.81,-195.19 245.92,-166.48 275,-143 287.47,-132.93 304.36,-128.02 319.48,-125.69"/>
<polygon fill="midnightblue" stroke="midnightblue" points="195.17,-232.63 185.68,-237.34 196.04,-239.57 195.17,-232.63"/>
</g>
<!-- Node12 -->
<g id="node13" class="node">
<title>Node12</title>
<g id="a_node13"><a xlink:href="d6/d23/classnap_1_1audio_1_1_pull_node.html" target="_top" xlink:title=" ">
<polygon fill="white" stroke="black" points="327,-76.5 327,-95.5 387,-95.5 387,-76.5 327,-76.5"/>
<text text-anchor="middle" x="357" y="-83.5" font-family="Helvetica,sans-Serif" font-size="10.00">PullNode</text>
</a>
</g>
</g>
<!-- Node1&#45;&gt;Node12 -->
<g id="edge12" class="edge">
<title>Node1&#45;&gt;Node12</title>
<path fill="none" stroke="midnightblue" d="M196.01,-236.82C210.69,-234.73 227.53,-229.87 239,-219 277.55,-182.44 236.04,-141.13 275,-105 288.88,-92.13 309.76,-87.46 326.85,-85.96"/>
<polygon fill="midnightblue" stroke="midnightblue" points="195.4,-233.37 185.82,-237.9 196.13,-240.33 195.4,-233.37"/>
</g>
<!-- Node13 -->
<g id="node14" class="node">
<title>Node13</title>
<g id="a_node14"><a xlink:href="d9/d58/classnap_1_1audio_1_1_stereo_panner_node.html" target="_top" xlink:title=" ">
<polygon fill="white" stroke="black" points="303.5,-38.5 303.5,-57.5 410.5,-57.5 410.5,-38.5 303.5,-38.5"/>
<text text-anchor="middle" x="357" y="-45.5" font-family="Helvetica,sans-Serif" font-size="10.00">StereoPannerNode</text>
</a>
</g>
</g>
<!-- Node1&#45;&gt;Node13 -->
<g id="edge13" class="edge">
<title>Node1&#45;&gt;Node13</title>
<path fill="none" stroke="midnightblue" d="M196.06,-237.21C210.89,-235.23 227.87,-230.36 239,-219 287.59,-169.41 225.86,-116.04 275,-67 282.67,-59.35 292.8,-54.55 303.28,-51.59"/>
<polygon fill="midnightblue" stroke="midnightblue" points="195.38,-233.76 185.75,-238.19 196.04,-240.73 195.38,-233.76"/>
</g>
<!-- Node14 -->
<g id="node15" class="node">
<title>Node14</title>
<g id="a_node15"><a xlink:href="d9/d05/classnap_1_1audio_1_1_video_node.html" target="_top" xlink:title=" ">
<polygon fill="white" stroke="black" points="322,-0.5 322,-19.5 392,-19.5 392,-0.5 322,-0.5"/>
<text text-anchor="middle" x="357" y="-7.5" font-family="Helvetica,sans-Serif" font-size="10.00">VideoNode</text>
</a>
</g>
</g>
<!-- Node1&#45;&gt;Node14 -->
<g id="edge14" class="edge">
<title>Node1&#45;&gt;Node14</title>
<path fill="none" stroke="midnightblue" d="M195.98,-237.46C210.94,-235.56 228.05,-230.69 239,-219 297.74,-156.26 215.55,-91.07 275,-29 286.99,-16.48 305.54,-11.52 321.86,-9.79"/>
<polygon fill="midnightblue" stroke="midnightblue" points="195.24,-234.01 185.59,-238.36 195.85,-240.98 195.24,-234.01"/>
</g>
</g>
</svg>
