<?xml version="1.0" encoding="UTF-8" standalone="no"?>
<!DOCTYPE svg PUBLIC "-//W3C//DTD SVG 1.1//EN"
 "http://www.w3.org/Graphics/SVG/1.1/DTD/svg11.dtd">
<!-- Generated by graphviz version 3.0.0 (20220226.1711)
 -->
<!-- Title: Graphical Class Hierarchy Pages: 1 -->
<svg width="176pt" height="66pt"
 viewBox="0.00 0.00 176.00 66.00" xmlns="http://www.w3.org/2000/svg" xmlns:xlink="http://www.w3.org/1999/xlink">
<g id="graph0" class="graph" transform="scale(1 1) rotate(0) translate(4 62)">
<title>Graphical Class Hierarchy</title>
<polygon fill="white" stroke="transparent" points="-4,4 -4,-62 172,-62 172,4 -4,4"/>
<!-- Node0 -->
<g id="node1" class="node">
<title>Node0</title>
<g id="a_node1"><a xlink:href="dd/df4/classnap_1_1_g_p_u_buffer.html" target="_top" xlink:title="GPUBuffer">
<polygon fill="white" stroke="black" points="0,-19.5 0,-38.5 62,-38.5 62,-19.5 0,-19.5"/>
<text text-anchor="middle" x="31" y="-26.5" font-family="Helvetica,sans-Serif" font-size="10.00">GPUBuffer</text>
</a>
</g>
</g>
<!-- Node1 -->
<g id="node2" class="node">
<title>Node1</title>
<g id="a_node2"><a xlink:href="de/d97/classnap_1_1_index_buffer.html" target="_top" xlink:title="IndexBuffer">
<polygon fill="white" stroke="black" points="100.5,-38.5 100.5,-57.5 165.5,-57.5 165.5,-38.5 100.5,-38.5"/>
<text text-anchor="middle" x="133" y="-45.5" font-family="Helvetica,sans-Serif" font-size="10.00">IndexBuffer</text>
</a>
</g>
</g>
<!-- Node0&#45;&gt;Node1 -->
<g id="edge1" class="edge">
<title>Node0&#45;&gt;Node1</title>
<path fill="none" stroke="midnightblue" d="M71.96,-36.59C81.37,-38.38 91.28,-40.26 100.28,-41.97"/>
<polygon fill="midnightblue" stroke="midnightblue" points="72.48,-33.13 62,-34.7 71.17,-40.01 72.48,-33.13"/>
</g>
<!-- Node2 -->
<g id="node3" class="node">
<title>Node2</title>
<g id="a_node3"><a xlink:href="d9/d9a/classnap_1_1_vertex_buffer.html" target="_top" xlink:title="VertexBuffer">
<polygon fill="white" stroke="black" points="98,-0.5 98,-19.5 168,-19.5 168,-0.5 98,-0.5"/>
<text text-anchor="middle" x="133" y="-7.5" font-family="Helvetica,sans-Serif" font-size="10.00">VertexBuffer</text>
</a>
</g>
</g>
<!-- Node0&#45;&gt;Node2 -->
<g id="edge2" class="edge">
<title>Node0&#45;&gt;Node2</title>
<path fill="none" stroke="midnightblue" d="M71.84,-21.43C80.44,-19.8 89.45,-18.08 97.81,-16.5"/>
<polygon fill="midnightblue" stroke="midnightblue" points="71.17,-17.99 62,-23.3 72.48,-24.87 71.17,-17.99"/>
</g>
</g>
</svg>
