<?xml version="1.0" encoding="UTF-8" standalone="no"?>
<!DOCTYPE svg PUBLIC "-//W3C//DTD SVG 1.1//EN"
 "http://www.w3.org/Graphics/SVG/1.1/DTD/svg11.dtd">
<!-- Generated by graphviz version 2.43.0 (0)
 -->
<!-- Title: Graphical Class Hierarchy Pages: 1 -->
<svg width="299pt" height="104pt"
 viewBox="0.00 0.00 299.00 104.00" xmlns="http://www.w3.org/2000/svg" xmlns:xlink="http://www.w3.org/1999/xlink">
<g id="graph0" class="graph" transform="scale(1 1) rotate(0) translate(4 100)">
<title>Graphical Class Hierarchy</title>
<polygon fill="white" stroke="transparent" points="-4,4 -4,-100 295,-100 295,4 -4,4"/>
<!-- Node0 -->
<g id="node1" class="node">
<title>Node0</title>
<g id="a_node1"><a xlink:href="d4/d58/classnap_1_1_sequence_track_view.html" target="_top" xlink:title=" ">
<polygon fill="white" stroke="black" points="0,-38.5 0,-57.5 113,-57.5 113,-38.5 0,-38.5"/>
<text text-anchor="middle" x="56.5" y="-45.5" font-family="Helvetica,sans-Serif" font-size="10.00">SequenceTrackView</text>
</a>
</g>
</g>
<!-- Node1 -->
<g id="node2" class="node">
<title>Node1</title>
<g id="a_node2"><a xlink:href="dd/d4f/classnap_1_1_sequence_audio_track_view.html" target="_top" xlink:title=" ">
<polygon fill="white" stroke="black" points="149.5,-76.5 149.5,-95.5 290.5,-95.5 290.5,-76.5 149.5,-76.5"/>
<text text-anchor="middle" x="220" y="-83.5" font-family="Helvetica,sans-Serif" font-size="10.00">SequenceAudioTrackView</text>
</a>
</g>
</g>
<!-- Node0&#45;&gt;Node1 -->
<g id="edge1" class="edge">
<title>Node0&#45;&gt;Node1</title>
<path fill="none" stroke="midnightblue" d="M108.06,-59.9C130.76,-65.24 157.18,-71.45 178.54,-76.48"/>
<polygon fill="midnightblue" stroke="midnightblue" points="108.79,-56.47 98.25,-57.59 107.19,-63.29 108.79,-56.47"/>
</g>
<!-- Node2 -->
<g id="node3" class="node">
<title>Node2</title>
<g id="a_node3"><a xlink:href="d9/db2/classnap_1_1_sequence_curve_track_view.html" target="_top" xlink:title=" ">
<polygon fill="white" stroke="black" points="149,-38.5 149,-57.5 291,-57.5 291,-38.5 149,-38.5"/>
<text text-anchor="middle" x="220" y="-45.5" font-family="Helvetica,sans-Serif" font-size="10.00">SequenceCurveTrackView</text>
</a>
</g>
</g>
<!-- Node0&#45;&gt;Node2 -->
<g id="edge2" class="edge">
<title>Node0&#45;&gt;Node2</title>
<path fill="none" stroke="midnightblue" d="M123.21,-48C131.63,-48 140.28,-48 148.77,-48"/>
<polygon fill="midnightblue" stroke="midnightblue" points="123.08,-44.5 113.08,-48 123.08,-51.5 123.08,-44.5"/>
</g>
<!-- Node3 -->
<g id="node4" class="node">
<title>Node3</title>
<g id="a_node4"><a xlink:href="d0/d1b/classnap_1_1_sequence_event_track_view.html" target="_top" xlink:title=" ">
<polygon fill="white" stroke="black" points="149.5,-0.5 149.5,-19.5 290.5,-19.5 290.5,-0.5 149.5,-0.5"/>
<text text-anchor="middle" x="220" y="-7.5" font-family="Helvetica,sans-Serif" font-size="10.00">SequenceEventTrackView</text>
</a>
</g>
</g>
<!-- Node0&#45;&gt;Node3 -->
<g id="edge3" class="edge">
<title>Node0&#45;&gt;Node3</title>
<path fill="none" stroke="midnightblue" d="M108.06,-36.1C130.76,-30.76 157.18,-24.55 178.54,-19.52"/>
<polygon fill="midnightblue" stroke="midnightblue" points="107.19,-32.71 98.25,-38.41 108.79,-39.53 107.19,-32.71"/>
</g>
</g>
</svg>
