<?xml version="1.0" encoding="UTF-8" standalone="no"?>
<!DOCTYPE svg PUBLIC "-//W3C//DTD SVG 1.1//EN"
 "http://www.w3.org/Graphics/SVG/1.1/DTD/svg11.dtd">
<!-- Generated by graphviz version 2.43.0 (0)
 -->
<!-- Title: Graphical Class Hierarchy Pages: 1 -->
<svg width="456pt" height="66pt"
 viewBox="0.00 0.00 456.00 66.00" xmlns="http://www.w3.org/2000/svg" xmlns:xlink="http://www.w3.org/1999/xlink">
<g id="graph0" class="graph" transform="scale(1 1) rotate(0) translate(4 62)">
<title>Graphical Class Hierarchy</title>
<polygon fill="white" stroke="transparent" points="-4,4 -4,-62 452,-62 452,4 -4,4"/>
<!-- Node0 -->
<g id="node1" class="node">
<title>Node0</title>
<g id="a_node1"><a xlink:href="d8/dd9/classnap_1_1_i_glyph_representation.html" target="_top" xlink:title=" ">
<polygon fill="white" stroke="black" points="0,-19.5 0,-38.5 122,-38.5 122,-19.5 0,-19.5"/>
<text text-anchor="middle" x="61" y="-26.5" font-family="Helvetica,sans-Serif" font-size="10.00">IGlyphRepresentation</text>
</a>
</g>
</g>
<!-- Node1 -->
<g id="node2" class="node">
<title>Node1</title>
<g id="a_node2"><a xlink:href="d7/d92/classnap_1_1_renderable_glyph.html" target="_top" xlink:title=" ">
<polygon fill="white" stroke="black" points="158,-19.5 158,-38.5 259,-38.5 259,-19.5 158,-19.5"/>
<text text-anchor="middle" x="208.5" y="-26.5" font-family="Helvetica,sans-Serif" font-size="10.00">RenderableGlyph</text>
</a>
</g>
</g>
<!-- Node0&#45;&gt;Node1 -->
<g id="edge1" class="edge">
<title>Node0&#45;&gt;Node1</title>
<path fill="none" stroke="midnightblue" d="M132.14,-29C140.81,-29 149.52,-29 157.8,-29"/>
<polygon fill="midnightblue" stroke="midnightblue" points="132.02,-25.5 122.02,-29 132.02,-32.5 132.02,-25.5"/>
</g>
<!-- Node2 -->
<g id="node3" class="node">
<title>Node2</title>
<g id="a_node3"><a xlink:href="d9/df1/classnap_1_1_renderable2_d_glyph.html" target="_top" xlink:title=" ">
<polygon fill="white" stroke="black" points="314.5,-38.5 314.5,-57.5 428.5,-57.5 428.5,-38.5 314.5,-38.5"/>
<text text-anchor="middle" x="371.5" y="-45.5" font-family="Helvetica,sans-Serif" font-size="10.00">Renderable2DGlyph</text>
</a>
</g>
</g>
<!-- Node1&#45;&gt;Node2 -->
<g id="edge2" class="edge">
<title>Node1&#45;&gt;Node2</title>
<path fill="none" stroke="midnightblue" d="M269.16,-36.04C283.92,-37.78 299.7,-39.64 314.3,-41.37"/>
<polygon fill="midnightblue" stroke="midnightblue" points="269.46,-32.55 259.12,-34.86 268.64,-39.5 269.46,-32.55"/>
</g>
<!-- Node3 -->
<g id="node4" class="node">
<title>Node3</title>
<g id="a_node4"><a xlink:href="d8/d34/classnap_1_1_renderable2_d_mip_map_glyph.html" target="_top" xlink:title=" ">
<polygon fill="white" stroke="black" points="295,-0.5 295,-19.5 448,-19.5 448,-0.5 295,-0.5"/>
<text text-anchor="middle" x="371.5" y="-7.5" font-family="Helvetica,sans-Serif" font-size="10.00">Renderable2DMipMapGlyph</text>
</a>
</g>
</g>
<!-- Node1&#45;&gt;Node3 -->
<g id="edge3" class="edge">
<title>Node1&#45;&gt;Node3</title>
<path fill="none" stroke="midnightblue" d="M269.19,-21.96C277.6,-20.96 286.34,-19.93 294.99,-18.91"/>
<polygon fill="midnightblue" stroke="midnightblue" points="268.64,-18.5 259.12,-23.14 269.46,-25.45 268.64,-18.5"/>
</g>
</g>
</svg>
