<?xml version="1.0" encoding="UTF-8" standalone="no"?>
<!DOCTYPE svg PUBLIC "-//W3C//DTD SVG 1.1//EN"
 "http://www.w3.org/Graphics/SVG/1.1/DTD/svg11.dtd">
<!-- Generated by graphviz version 2.43.0 (0)
 -->
<!-- Title: Graphical Class Hierarchy Pages: 1 -->
<svg width="393pt" height="294pt"
 viewBox="0.00 0.00 393.00 294.00" xmlns="http://www.w3.org/2000/svg" xmlns:xlink="http://www.w3.org/1999/xlink">
<g id="graph0" class="graph" transform="scale(1 1) rotate(0) translate(4 290)">
<title>Graphical Class Hierarchy</title>
<polygon fill="white" stroke="transparent" points="-4,4 -4,-290 389,-290 389,4 -4,4"/>
<!-- Node0 -->
<g id="node1" class="node">
<title>Node0</title>
<g id="a_node1"><a xlink:href="d8/d6a/classnap_1_1_base_color.html" target="_top" xlink:title=" ">
<polygon fill="white" stroke="black" points="0,-133.5 0,-152.5 66,-152.5 66,-133.5 0,-133.5"/>
<text text-anchor="middle" x="33" y="-140.5" font-family="Helvetica,sans-Serif" font-size="10.00">BaseColor</text>
</a>
</g>
</g>
<!-- Node1 -->
<g id="node2" class="node">
<title>Node1</title>
<g id="a_node2"><a xlink:href="d6/d3d/classnap_1_1_color.html" target="_top" xlink:title=" ">
<polygon fill="white" stroke="black" points="118,-266.5 118,-285.5 216,-285.5 216,-266.5 118,-266.5"/>
<text text-anchor="middle" x="167" y="-273.5" font-family="Helvetica,sans-Serif" font-size="10.00">Color&lt; float, 3 &gt;</text>
</a>
</g>
</g>
<!-- Node0&#45;&gt;Node1 -->
<g id="edge1" class="edge">
<title>Node0&#45;&gt;Node1</title>
<path fill="none" stroke="midnightblue" d="M40.41,-162.2C49.87,-187.62 70,-232.13 102,-257 107.03,-260.91 112.86,-264.02 118.9,-266.49"/>
<polygon fill="midnightblue" stroke="midnightblue" points="43.64,-160.85 37,-152.59 37.04,-163.18 43.64,-160.85"/>
</g>
<!-- Node3 -->
<g id="node4" class="node">
<title>Node3</title>
<g id="a_node4"><a xlink:href="d6/d3d/classnap_1_1_color.html" target="_top" xlink:title=" ">
<polygon fill="white" stroke="black" points="118,-228.5 118,-247.5 216,-247.5 216,-228.5 118,-228.5"/>
<text text-anchor="middle" x="167" y="-235.5" font-family="Helvetica,sans-Serif" font-size="10.00">Color&lt; float, 4 &gt;</text>
</a>
</g>
</g>
<!-- Node0&#45;&gt;Node3 -->
<g id="edge3" class="edge">
<title>Node0&#45;&gt;Node3</title>
<path fill="none" stroke="midnightblue" d="M45.93,-161.38C58.06,-178.66 78.4,-204.05 102,-219 108.07,-222.85 114.95,-225.94 121.9,-228.43"/>
<polygon fill="midnightblue" stroke="midnightblue" points="48.57,-159.04 40.06,-152.73 42.78,-162.97 48.57,-159.04"/>
</g>
<!-- Node5 -->
<g id="node6" class="node">
<title>Node5</title>
<g id="a_node6"><a xlink:href="d6/d3d/classnap_1_1_color.html" target="_top" xlink:title=" ">
<polygon fill="white" stroke="black" points="125.5,-190.5 125.5,-209.5 208.5,-209.5 208.5,-190.5 125.5,-190.5"/>
<text text-anchor="middle" x="167" y="-197.5" font-family="Helvetica,sans-Serif" font-size="10.00">Color&lt; T, 1 &gt;</text>
</a>
</g>
</g>
<!-- Node0&#45;&gt;Node5 -->
<g id="edge5" class="edge">
<title>Node0&#45;&gt;Node5</title>
<path fill="none" stroke="midnightblue" d="M57.54,-157.86C70.35,-165.49 86.66,-174.53 102,-181 110.44,-184.56 119.76,-187.73 128.62,-190.41"/>
<polygon fill="midnightblue" stroke="midnightblue" points="59.27,-154.81 48.91,-152.6 55.63,-160.79 59.27,-154.81"/>
</g>
<!-- Node7 -->
<g id="node8" class="node">
<title>Node7</title>
<g id="a_node8"><a xlink:href="d6/d3d/classnap_1_1_color.html" target="_top" xlink:title=" ">
<polygon fill="white" stroke="black" points="125.5,-152.5 125.5,-171.5 208.5,-171.5 208.5,-152.5 125.5,-152.5"/>
<text text-anchor="middle" x="167" y="-159.5" font-family="Helvetica,sans-Serif" font-size="10.00">Color&lt; T, 3 &gt;</text>
</a>
</g>
</g>
<!-- Node0&#45;&gt;Node7 -->
<g id="edge7" class="edge">
<title>Node0&#45;&gt;Node7</title>
<path fill="none" stroke="midnightblue" d="M76.22,-149.08C91.85,-151.33 109.53,-153.87 125.04,-156.1"/>
<polygon fill="midnightblue" stroke="midnightblue" points="76.69,-145.61 66.29,-147.65 75.69,-152.54 76.69,-145.61"/>
</g>
<!-- Node9 -->
<g id="node10" class="node">
<title>Node9</title>
<g id="a_node10"><a xlink:href="d6/d3d/classnap_1_1_color.html" target="_top" xlink:title=" ">
<polygon fill="white" stroke="black" points="125.5,-114.5 125.5,-133.5 208.5,-133.5 208.5,-114.5 125.5,-114.5"/>
<text text-anchor="middle" x="167" y="-121.5" font-family="Helvetica,sans-Serif" font-size="10.00">Color&lt; T, 4 &gt;</text>
</a>
</g>
</g>
<!-- Node0&#45;&gt;Node9 -->
<g id="edge9" class="edge">
<title>Node0&#45;&gt;Node9</title>
<path fill="none" stroke="midnightblue" d="M76.22,-136.92C91.85,-134.67 109.53,-132.13 125.04,-129.9"/>
<polygon fill="midnightblue" stroke="midnightblue" points="75.69,-133.46 66.29,-138.35 76.69,-140.39 75.69,-133.46"/>
</g>
<!-- Node11 -->
<g id="node12" class="node">
<title>Node11</title>
<g id="a_node12"><a xlink:href="d6/d3d/classnap_1_1_color.html" target="_top" xlink:title=" ">
<polygon fill="white" stroke="black" points="116.5,-76.5 116.5,-95.5 217.5,-95.5 217.5,-76.5 116.5,-76.5"/>
<text text-anchor="middle" x="167" y="-83.5" font-family="Helvetica,sans-Serif" font-size="10.00">Color&lt; uint8, 3 &gt;</text>
</a>
</g>
</g>
<!-- Node0&#45;&gt;Node11 -->
<g id="edge11" class="edge">
<title>Node0&#45;&gt;Node11</title>
<path fill="none" stroke="midnightblue" d="M57.54,-128.14C70.35,-120.51 86.66,-111.47 102,-105 110.44,-101.44 119.76,-98.27 128.62,-95.59"/>
<polygon fill="midnightblue" stroke="midnightblue" points="55.63,-125.21 48.91,-133.4 59.27,-131.19 55.63,-125.21"/>
</g>
<!-- Node13 -->
<g id="node14" class="node">
<title>Node13</title>
<g id="a_node14"><a xlink:href="d6/d3d/classnap_1_1_color.html" target="_top" xlink:title=" ">
<polygon fill="white" stroke="black" points="116.5,-38.5 116.5,-57.5 217.5,-57.5 217.5,-38.5 116.5,-38.5"/>
<text text-anchor="middle" x="167" y="-45.5" font-family="Helvetica,sans-Serif" font-size="10.00">Color&lt; uint8, 4 &gt;</text>
</a>
</g>
</g>
<!-- Node0&#45;&gt;Node13 -->
<g id="edge13" class="edge">
<title>Node0&#45;&gt;Node13</title>
<path fill="none" stroke="midnightblue" d="M45.93,-124.62C58.06,-107.34 78.4,-81.95 102,-67 108.07,-63.15 114.95,-60.06 121.9,-57.57"/>
<polygon fill="midnightblue" stroke="midnightblue" points="42.78,-123.03 40.06,-133.27 48.57,-126.96 42.78,-123.03"/>
</g>
<!-- Node15 -->
<g id="node16" class="node">
<title>Node15</title>
<g id="a_node16"><a xlink:href="d6/d3d/classnap_1_1_color.html" target="_top" xlink:title=" ">
<polygon fill="white" stroke="black" points="102,-0.5 102,-19.5 232,-19.5 232,-0.5 102,-0.5"/>
<text text-anchor="middle" x="167" y="-7.5" font-family="Helvetica,sans-Serif" font-size="10.00">Color&lt; T, CHANNELS &gt;</text>
</a>
</g>
</g>
<!-- Node0&#45;&gt;Node15 -->
<g id="edge15" class="edge">
<title>Node0&#45;&gt;Node15</title>
<path fill="none" stroke="midnightblue" d="M40.41,-123.8C49.87,-98.38 70,-53.87 102,-29 107.03,-25.09 112.86,-21.98 118.9,-19.51"/>
<polygon fill="midnightblue" stroke="midnightblue" points="37.04,-122.82 37,-133.41 43.64,-125.15 37.04,-122.82"/>
</g>
<!-- Node2 -->
<g id="node3" class="node">
<title>Node2</title>
<g id="a_node3"><a xlink:href="d4/dd7/classnap_1_1_r_g_b_color.html" target="_top" xlink:title=" ">
<polygon fill="white" stroke="black" points="273,-266.5 273,-285.5 380,-285.5 380,-266.5 273,-266.5"/>
<text text-anchor="middle" x="326.5" y="-273.5" font-family="Helvetica,sans-Serif" font-size="10.00">RGBColor&lt; float &gt;</text>
</a>
</g>
</g>
<!-- Node1&#45;&gt;Node2 -->
<g id="edge2" class="edge">
<title>Node1&#45;&gt;Node2</title>
<path fill="none" stroke="midnightblue" d="M226.42,-276C241.61,-276 257.87,-276 272.75,-276"/>
<polygon fill="midnightblue" stroke="midnightblue" points="226.11,-272.5 216.11,-276 226.11,-279.5 226.11,-272.5"/>
</g>
<!-- Node4 -->
<g id="node5" class="node">
<title>Node4</title>
<g id="a_node5"><a xlink:href="d6/db8/classnap_1_1_r_g_b_a_color.html" target="_top" xlink:title=" ">
<polygon fill="white" stroke="black" points="269.5,-228.5 269.5,-247.5 383.5,-247.5 383.5,-228.5 269.5,-228.5"/>
<text text-anchor="middle" x="326.5" y="-235.5" font-family="Helvetica,sans-Serif" font-size="10.00">RGBAColor&lt; float &gt;</text>
</a>
</g>
</g>
<!-- Node3&#45;&gt;Node4 -->
<g id="edge4" class="edge">
<title>Node3&#45;&gt;Node4</title>
<path fill="none" stroke="midnightblue" d="M226.19,-238C240.31,-238 255.38,-238 269.4,-238"/>
<polygon fill="midnightblue" stroke="midnightblue" points="226.11,-234.5 216.11,-238 226.11,-241.5 226.11,-234.5"/>
</g>
<!-- Node6 -->
<g id="node7" class="node">
<title>Node6</title>
<g id="a_node7"><a xlink:href="d0/d31/classnap_1_1_r_color.html" target="_top" xlink:title=" ">
<polygon fill="white" stroke="black" points="288,-190.5 288,-209.5 365,-209.5 365,-190.5 288,-190.5"/>
<text text-anchor="middle" x="326.5" y="-197.5" font-family="Helvetica,sans-Serif" font-size="10.00">RColor&lt; T &gt;</text>
</a>
</g>
</g>
<!-- Node5&#45;&gt;Node6 -->
<g id="edge6" class="edge">
<title>Node5&#45;&gt;Node6</title>
<path fill="none" stroke="midnightblue" d="M218.6,-200C241.07,-200 267.06,-200 287.78,-200"/>
<polygon fill="midnightblue" stroke="midnightblue" points="218.56,-196.5 208.56,-200 218.56,-203.5 218.56,-196.5"/>
</g>
<!-- Node8 -->
<g id="node9" class="node">
<title>Node8</title>
<g id="a_node9"><a xlink:href="d4/dd7/classnap_1_1_r_g_b_color.html" target="_top" xlink:title=" ">
<polygon fill="white" stroke="black" points="280.5,-152.5 280.5,-171.5 372.5,-171.5 372.5,-152.5 280.5,-152.5"/>
<text text-anchor="middle" x="326.5" y="-159.5" font-family="Helvetica,sans-Serif" font-size="10.00">RGBColor&lt; T &gt;</text>
</a>
</g>
</g>
<!-- Node7&#45;&gt;Node8 -->
<g id="edge8" class="edge">
<title>Node7&#45;&gt;Node8</title>
<path fill="none" stroke="midnightblue" d="M218.66,-162C238.5,-162 261.08,-162 280.36,-162"/>
<polygon fill="midnightblue" stroke="midnightblue" points="218.56,-158.5 208.56,-162 218.56,-165.5 218.56,-158.5"/>
</g>
<!-- Node10 -->
<g id="node11" class="node">
<title>Node10</title>
<g id="a_node11"><a xlink:href="d6/db8/classnap_1_1_r_g_b_a_color.html" target="_top" xlink:title=" ">
<polygon fill="white" stroke="black" points="277.5,-114.5 277.5,-133.5 375.5,-133.5 375.5,-114.5 277.5,-114.5"/>
<text text-anchor="middle" x="326.5" y="-121.5" font-family="Helvetica,sans-Serif" font-size="10.00">RGBAColor&lt; T &gt;</text>
</a>
</g>
</g>
<!-- Node9&#45;&gt;Node10 -->
<g id="edge10" class="edge">
<title>Node9&#45;&gt;Node10</title>
<path fill="none" stroke="midnightblue" d="M218.7,-124C237.47,-124 258.69,-124 277.23,-124"/>
<polygon fill="midnightblue" stroke="midnightblue" points="218.56,-120.5 208.56,-124 218.56,-127.5 218.56,-120.5"/>
</g>
<!-- Node12 -->
<g id="node13" class="node">
<title>Node12</title>
<g id="a_node13"><a xlink:href="d4/dd7/classnap_1_1_r_g_b_color.html" target="_top" xlink:title=" ">
<polygon fill="white" stroke="black" points="271.5,-76.5 271.5,-95.5 381.5,-95.5 381.5,-76.5 271.5,-76.5"/>
<text text-anchor="middle" x="326.5" y="-83.5" font-family="Helvetica,sans-Serif" font-size="10.00">RGBColor&lt; uint8 &gt;</text>
</a>
</g>
</g>
<!-- Node11&#45;&gt;Node12 -->
<g id="edge12" class="edge">
<title>Node11&#45;&gt;Node12</title>
<path fill="none" stroke="midnightblue" d="M228.03,-86C242.27,-86 257.39,-86 271.35,-86"/>
<polygon fill="midnightblue" stroke="midnightblue" points="227.83,-82.5 217.83,-86 227.83,-89.5 227.83,-82.5"/>
</g>
<!-- Node14 -->
<g id="node15" class="node">
<title>Node14</title>
<g id="a_node15"><a xlink:href="d6/db8/classnap_1_1_r_g_b_a_color.html" target="_top" xlink:title=" ">
<polygon fill="white" stroke="black" points="268,-38.5 268,-57.5 385,-57.5 385,-38.5 268,-38.5"/>
<text text-anchor="middle" x="326.5" y="-45.5" font-family="Helvetica,sans-Serif" font-size="10.00">RGBAColor&lt; uint8 &gt;</text>
</a>
</g>
</g>
<!-- Node13&#45;&gt;Node14 -->
<g id="edge14" class="edge">
<title>Node13&#45;&gt;Node14</title>
<path fill="none" stroke="midnightblue" d="M228.08,-48C241.1,-48 254.83,-48 267.75,-48"/>
<polygon fill="midnightblue" stroke="midnightblue" points="227.83,-44.5 217.83,-48 227.83,-51.5 227.83,-44.5"/>
</g>
</g>
</svg>
