<?xml version="1.0" encoding="UTF-8" standalone="no"?>
<!DOCTYPE svg PUBLIC "-//W3C//DTD SVG 1.1//EN"
 "http://www.w3.org/Graphics/SVG/1.1/DTD/svg11.dtd">
<!-- Generated by graphviz version 2.43.0 (0)
 -->
<!-- Title: Graphical Class Hierarchy Pages: 1 -->
<svg width="586pt" height="104pt"
 viewBox="0.00 0.00 586.00 104.00" xmlns="http://www.w3.org/2000/svg" xmlns:xlink="http://www.w3.org/1999/xlink">
<g id="graph0" class="graph" transform="scale(1 1) rotate(0) translate(4 100)">
<title>Graphical Class Hierarchy</title>
<polygon fill="white" stroke="transparent" points="-4,4 -4,-100 582,-100 582,4 -4,4"/>
<!-- Node0 -->
<g id="node1" class="node">
<title>Node0</title>
<g id="a_node1"><a xlink:href="d7/d45/classnap_1_1_sequence_player_adapter.html" target="_top" xlink:title=" ">
<polygon fill="white" stroke="black" points="0,-38.5 0,-57.5 133,-57.5 133,-38.5 0,-38.5"/>
<text text-anchor="middle" x="66.5" y="-45.5" font-family="Helvetica,sans-Serif" font-size="10.00">SequencePlayerAdapter</text>
</a>
</g>
</g>
<!-- Node1 -->
<g id="node2" class="node">
<title>Node1</title>
<g id="a_node2"><a xlink:href="d2/d2e/classnap_1_1_sequence_player_audio_adapter.html" target="_top" xlink:title=" ">
<polygon fill="white" stroke="black" points="181,-76.5 181,-95.5 342,-95.5 342,-76.5 181,-76.5"/>
<text text-anchor="middle" x="261.5" y="-83.5" font-family="Helvetica,sans-Serif" font-size="10.00">SequencePlayerAudioAdapter</text>
</a>
</g>
</g>
<!-- Node0&#45;&gt;Node1 -->
<g id="edge1" class="edge">
<title>Node0&#45;&gt;Node1</title>
<path fill="none" stroke="midnightblue" d="M126.1,-59.54C153.63,-64.96 186.05,-71.34 212.15,-76.48"/>
<polygon fill="midnightblue" stroke="midnightblue" points="126.69,-56.09 116.2,-57.59 125.34,-62.95 126.69,-56.09"/>
</g>
<!-- Node2 -->
<g id="node3" class="node">
<title>Node2</title>
<g id="a_node3"><a xlink:href="d5/d0c/classnap_1_1_sequence_player_curve_adapter_base.html" target="_top" xlink:title=" ">
<polygon fill="white" stroke="black" points="169,-38.5 169,-57.5 354,-57.5 354,-38.5 169,-38.5"/>
<text text-anchor="middle" x="261.5" y="-45.5" font-family="Helvetica,sans-Serif" font-size="10.00">SequencePlayerCurveAdapterBase</text>
</a>
</g>
</g>
<!-- Node0&#45;&gt;Node2 -->
<g id="edge2" class="edge">
<title>Node0&#45;&gt;Node2</title>
<path fill="none" stroke="midnightblue" d="M143.21,-48C151.59,-48 160.19,-48 168.74,-48"/>
<polygon fill="midnightblue" stroke="midnightblue" points="143.11,-44.5 133.11,-48 143.11,-51.5 143.11,-44.5"/>
</g>
<!-- Node4 -->
<g id="node5" class="node">
<title>Node4</title>
<g id="a_node5"><a xlink:href="d3/d70/classnap_1_1_sequence_player_event_adapter.html" target="_top" xlink:title=" ">
<polygon fill="white" stroke="black" points="181,-0.5 181,-19.5 342,-19.5 342,-0.5 181,-0.5"/>
<text text-anchor="middle" x="261.5" y="-7.5" font-family="Helvetica,sans-Serif" font-size="10.00">SequencePlayerEventAdapter</text>
</a>
</g>
</g>
<!-- Node0&#45;&gt;Node4 -->
<g id="edge4" class="edge">
<title>Node0&#45;&gt;Node4</title>
<path fill="none" stroke="midnightblue" d="M126.1,-36.46C153.63,-31.04 186.05,-24.66 212.15,-19.52"/>
<polygon fill="midnightblue" stroke="midnightblue" points="125.34,-33.05 116.2,-38.41 126.69,-39.91 125.34,-33.05"/>
</g>
<!-- Node3 -->
<g id="node4" class="node">
<title>Node3</title>
<g id="a_node4"><a xlink:href="d9/d0c/classnap_1_1_sequence_player_curve_adapter.html" target="_top" xlink:title=" ">
<polygon fill="white" stroke="black" points="390,-27.5 390,-68.5 578,-68.5 578,-27.5 390,-27.5"/>
<text text-anchor="start" x="398" y="-56.5" font-family="Helvetica,sans-Serif" font-size="10.00">SequencePlayerCurveAdapter</text>
<text text-anchor="start" x="398" y="-45.5" font-family="Helvetica,sans-Serif" font-size="10.00">&lt; CURVE_TYPE, PARAMETER</text>
<text text-anchor="middle" x="484" y="-34.5" font-family="Helvetica,sans-Serif" font-size="10.00">_TYPE, PARAMETER_VALUE_TYPE &gt;</text>
</a>
</g>
</g>
<!-- Node2&#45;&gt;Node3 -->
<g id="edge3" class="edge">
<title>Node2&#45;&gt;Node3</title>
<path fill="none" stroke="midnightblue" d="M364.14,-48C372.73,-48 381.39,-48 389.91,-48"/>
<polygon fill="midnightblue" stroke="midnightblue" points="364.1,-44.5 354.1,-48 364.1,-51.5 364.1,-44.5"/>
</g>
</g>
</svg>
