<?xml version="1.0" encoding="UTF-8" standalone="no"?>
<!DOCTYPE svg PUBLIC "-//W3C//DTD SVG 1.1//EN"
 "http://www.w3.org/Graphics/SVG/1.1/DTD/svg11.dtd">
<!-- Generated by graphviz version 2.48.0 (20210717.1556)
 -->
<!-- Title: Graphical Class Hierarchy Pages: 1 -->
<svg width="472pt" height="72pt"
 viewBox="0.00 0.00 472.00 71.50" xmlns="http://www.w3.org/2000/svg" xmlns:xlink="http://www.w3.org/1999/xlink">
<g id="graph0" class="graph" transform="scale(1 1) rotate(0) translate(4 67.5)">
<title>Graphical Class Hierarchy</title>
<polygon fill="white" stroke="transparent" points="-4,4 -4,-67.5 468,-67.5 468,4 -4,4"/>
<!-- Node0 -->
<g id="node1" class="node">
<title>Node0</title>
<g id="a_node1"><a xlink:href="da/d5c/classnap_1_1_buffer_binding_instance.html" target="_top" xlink:title="BufferBindingInstance">
<polygon fill="white" stroke="black" points="0,-19.5 0,-38.5 110,-38.5 110,-19.5 0,-19.5"/>
<text text-anchor="middle" x="55" y="-26.5" font-family="Helvetica,sans-Serif" font-size="10.00">BufferBindingInstance</text>
</a>
</g>
</g>
<!-- Node1 -->
<g id="node2" class="node">
<title>Node1</title>
<g id="a_node2"><a xlink:href="de/dc7/classnap_1_1_buffer_binding_numeric_instance.html" target="_top" xlink:title="BufferBindingNumericInstance">
<polygon fill="white" stroke="black" points="146,-38.5 146,-57.5 292,-57.5 292,-38.5 146,-38.5"/>
<text text-anchor="middle" x="219" y="-45.5" font-family="Helvetica,sans-Serif" font-size="10.00">BufferBindingNumericInstance</text>
</a>
</g>
</g>
<!-- Node0&#45;&gt;Node1 -->
<g id="edge1" class="edge">
<title>Node0&#45;&gt;Node1</title>
<path fill="none" stroke="midnightblue" d="M120.45,-36.56C128.82,-37.54 137.43,-38.55 145.91,-39.54"/>
<polygon fill="midnightblue" stroke="midnightblue" points="120.73,-33.07 110.39,-35.38 119.92,-40.02 120.73,-33.07"/>
</g>
<!-- Node3 -->
<g id="node4" class="node">
<title>Node3</title>
<g id="a_node4"><a xlink:href="d0/da7/classnap_1_1_buffer_binding_struct_instance.html" target="_top" xlink:title="BufferBindingStructInstance">
<polygon fill="white" stroke="black" points="150.5,-0.5 150.5,-19.5 287.5,-19.5 287.5,-0.5 150.5,-0.5"/>
<text text-anchor="middle" x="219" y="-7.5" font-family="Helvetica,sans-Serif" font-size="10.00">BufferBindingStructInstance</text>
</a>
</g>
</g>
<!-- Node0&#45;&gt;Node3 -->
<g id="edge3" class="edge">
<title>Node0&#45;&gt;Node3</title>
<path fill="none" stroke="midnightblue" d="M120.45,-21.44C130.24,-20.29 140.37,-19.11 150.22,-17.95"/>
<polygon fill="midnightblue" stroke="midnightblue" points="119.92,-17.98 110.39,-22.62 120.73,-24.93 119.92,-17.98"/>
</g>
<!-- Node2 -->
<g id="node3" class="node">
<title>Node2</title>
<g id="a_node3"><a xlink:href="d3/d02/classnap_1_1_typed_buffer_binding_numeric_instance.html" target="_top" xlink:title="TypedBufferBindingNumeric\lInstance\&lt; T \&gt;">
<polygon fill="white" stroke="black" points="328,-33 328,-63 464,-63 464,-33 328,-33"/>
<text text-anchor="start" x="336" y="-51" font-family="Helvetica,sans-Serif" font-size="10.00">TypedBufferBindingNumeric</text>
<text text-anchor="middle" x="396" y="-40" font-family="Helvetica,sans-Serif" font-size="10.00">Instance&lt; T &gt;</text>
</a>
</g>
</g>
<!-- Node1&#45;&gt;Node2 -->
<g id="edge2" class="edge">
<title>Node1&#45;&gt;Node2</title>
<path fill="none" stroke="midnightblue" d="M302.19,-48C310.75,-48 319.38,-48 327.75,-48"/>
<polygon fill="midnightblue" stroke="midnightblue" points="302.19,-44.5 292.19,-48 302.19,-51.5 302.19,-44.5"/>
</g>
</g>
</svg>
