<?xml version="1.0" encoding="UTF-8" standalone="no"?>
<!DOCTYPE svg PUBLIC "-//W3C//DTD SVG 1.1//EN"
 "http://www.w3.org/Graphics/SVG/1.1/DTD/svg11.dtd">
<!-- Generated by graphviz version 2.48.0 (20210717.1556)
 -->
<!-- Title: Graphical Class Hierarchy Pages: 1 -->
<svg width="210pt" height="66pt"
 viewBox="0.00 0.00 210.00 66.00" xmlns="http://www.w3.org/2000/svg" xmlns:xlink="http://www.w3.org/1999/xlink">
<g id="graph0" class="graph" transform="scale(1 1) rotate(0) translate(4 62)">
<title>Graphical Class Hierarchy</title>
<polygon fill="white" stroke="transparent" points="-4,4 -4,-62 206,-62 206,4 -4,4"/>
<!-- Node0 -->
<g id="node1" class="node">
<title>Node0</title>
<g id="a_node1"><a xlink:href="d1/d19/classnap_1_1_log_handler.html" target="_top" xlink:title="LogHandler">
<polygon fill="white" stroke="black" points="0,-19.5 0,-38.5 65,-38.5 65,-19.5 0,-19.5"/>
<text text-anchor="middle" x="32.5" y="-26.5" font-family="Helvetica,sans-Serif" font-size="10.00">LogHandler</text>
</a>
</g>
</g>
<!-- Node1 -->
<g id="node2" class="node">
<title>Node1</title>
<g id="a_node2"><a xlink:href="d5/d57/classnap_1_1_console_log_handler.html" target="_top" xlink:title="ConsoleLogHandler">
<polygon fill="white" stroke="black" points="101,-38.5 101,-57.5 202,-57.5 202,-38.5 101,-38.5"/>
<text text-anchor="middle" x="151.5" y="-45.5" font-family="Helvetica,sans-Serif" font-size="10.00">ConsoleLogHandler</text>
</a>
</g>
</g>
<!-- Node0&#45;&gt;Node1 -->
<g id="edge1" class="edge">
<title>Node0&#45;&gt;Node1</title>
<path fill="none" stroke="midnightblue" d="M75.3,-35.79C83.54,-37.13 92.28,-38.54 100.76,-39.92"/>
<polygon fill="midnightblue" stroke="midnightblue" points="75.59,-32.29 65.16,-34.14 74.47,-39.2 75.59,-32.29"/>
</g>
<!-- Node2 -->
<g id="node3" class="node">
<title>Node2</title>
<g id="a_node3"><a xlink:href="df/d96/classnap_1_1_file_log_handler.html" target="_top" xlink:title="FileLogHandler">
<polygon fill="white" stroke="black" points="111,-0.5 111,-19.5 192,-19.5 192,-0.5 111,-0.5"/>
<text text-anchor="middle" x="151.5" y="-7.5" font-family="Helvetica,sans-Serif" font-size="10.00">FileLogHandler</text>
</a>
</g>
</g>
<!-- Node0&#45;&gt;Node2 -->
<g id="edge2" class="edge">
<title>Node0&#45;&gt;Node2</title>
<path fill="none" stroke="midnightblue" d="M75.09,-22.25C86.72,-20.36 99.34,-18.31 110.86,-16.44"/>
<polygon fill="midnightblue" stroke="midnightblue" points="74.47,-18.8 65.16,-23.86 75.59,-25.71 74.47,-18.8"/>
</g>
</g>
</svg>
