<?xml version="1.0" encoding="UTF-8" standalone="no"?>
<!DOCTYPE svg PUBLIC "-//W3C//DTD SVG 1.1//EN"
 "http://www.w3.org/Graphics/SVG/1.1/DTD/svg11.dtd">
<!-- Generated by graphviz version 2.43.0 (0)
 -->
<!-- Title: Graphical Class Hierarchy Pages: 1 -->
<svg width="243pt" height="1168pt"
 viewBox="0.00 0.00 243.00 1168.00" xmlns="http://www.w3.org/2000/svg" xmlns:xlink="http://www.w3.org/1999/xlink">
<g id="graph0" class="graph" transform="scale(1 1) rotate(0) translate(4 1164)">
<title>Graphical Class Hierarchy</title>
<polygon fill="white" stroke="transparent" points="-4,4 -4,-1164 239,-1164 239,4 -4,4"/>
<!-- Node0 -->
<g id="node1" class="node">
<title>Node0</title>
<g id="a_node1"><a xlink:href="d8/d8e/classnap_1_1_service.html" target="_top" xlink:title=" ">
<polygon fill="white" stroke="black" points="0,-570.5 0,-589.5 53,-589.5 53,-570.5 0,-570.5"/>
<text text-anchor="middle" x="26.5" y="-577.5" font-family="Helvetica,sans-Serif" font-size="10.00">Service</text>
</a>
</g>
</g>
<!-- Node1 -->
<g id="node2" class="node">
<title>Node1</title>
<g id="a_node2"><a xlink:href="de/d73/classnap_1_1_a_p_i_service.html" target="_top" xlink:title=" ">
<polygon fill="white" stroke="black" points="128,-1140.5 128,-1159.5 196,-1159.5 196,-1140.5 128,-1140.5"/>
<text text-anchor="middle" x="162" y="-1147.5" font-family="Helvetica,sans-Serif" font-size="10.00">APIService</text>
</a>
</g>
</g>
<!-- Node0&#45;&gt;Node1 -->
<g id="edge1" class="edge">
<title>Node0&#45;&gt;Node1</title>
<path fill="none" stroke="midnightblue" d="M28.4,-599.74C32.82,-693.36 53.53,-1089.9 89,-1131 98.54,-1142.06 113.69,-1147.06 127.63,-1149.19"/>
<polygon fill="midnightblue" stroke="midnightblue" points="31.89,-599.48 27.93,-589.65 24.9,-599.8 31.89,-599.48"/>
</g>
<!-- Node2 -->
<g id="node3" class="node">
<title>Node2</title>
<g id="a_node3"><a xlink:href="d3/da5/classnap_1_1_a_p_i_web_socket_service.html" target="_top" xlink:title=" ">
<polygon fill="white" stroke="black" points="101,-1102.5 101,-1121.5 223,-1121.5 223,-1102.5 101,-1102.5"/>
<text text-anchor="middle" x="162" y="-1109.5" font-family="Helvetica,sans-Serif" font-size="10.00">APIWebSocketService</text>
</a>
</g>
</g>
<!-- Node0&#45;&gt;Node2 -->
<g id="edge2" class="edge">
<title>Node0&#45;&gt;Node2</title>
<path fill="none" stroke="midnightblue" d="M28.59,-600.06C33.64,-690.19 56,-1055.08 89,-1093 92.39,-1096.9 96.49,-1100.05 100.97,-1102.58"/>
<polygon fill="midnightblue" stroke="midnightblue" points="32.07,-599.63 28.02,-589.84 25.08,-600.02 32.07,-599.63"/>
</g>
<!-- Node3 -->
<g id="node4" class="node">
<title>Node3</title>
<g id="a_node4"><a xlink:href="d0/d4d/classnap_1_1_art_net_service.html" target="_top" xlink:title=" ">
<polygon fill="white" stroke="black" points="120,-1064.5 120,-1083.5 204,-1083.5 204,-1064.5 120,-1064.5"/>
<text text-anchor="middle" x="162" y="-1071.5" font-family="Helvetica,sans-Serif" font-size="10.00">ArtNetService</text>
</a>
</g>
</g>
<!-- Node0&#45;&gt;Node3 -->
<g id="edge3" class="edge">
<title>Node0&#45;&gt;Node3</title>
<path fill="none" stroke="midnightblue" d="M27.23,-600.2C26.58,-681.78 28.32,-985.93 89,-1055 96.85,-1063.94 108.36,-1068.9 119.88,-1071.6"/>
<polygon fill="midnightblue" stroke="midnightblue" points="30.74,-599.87 27.34,-589.83 23.74,-599.79 30.74,-599.87"/>
</g>
<!-- Node4 -->
<g id="node5" class="node">
<title>Node4</title>
<g id="a_node5"><a xlink:href="df/d42/classnap_1_1audio_1_1_audio_service.html" target="_top" xlink:title=" ">
<polygon fill="white" stroke="black" points="122,-1026.5 122,-1045.5 202,-1045.5 202,-1026.5 122,-1026.5"/>
<text text-anchor="middle" x="162" y="-1033.5" font-family="Helvetica,sans-Serif" font-size="10.00">AudioService</text>
</a>
</g>
</g>
<!-- Node0&#45;&gt;Node4 -->
<g id="edge4" class="edge">
<title>Node0&#45;&gt;Node4</title>
<path fill="none" stroke="midnightblue" d="M27.49,-600.05C27.85,-677.25 33.1,-954.07 89,-1017 97.33,-1026.38 109.68,-1031.37 121.82,-1033.97"/>
<polygon fill="midnightblue" stroke="midnightblue" points="30.99,-599.79 27.46,-589.8 23.99,-599.8 30.99,-599.79"/>
</g>
<!-- Node5 -->
<g id="node6" class="node">
<title>Node5</title>
<g id="a_node6"><a xlink:href="d6/d20/classnap_1_1_c_v_service.html" target="_top" xlink:title=" ">
<polygon fill="white" stroke="black" points="129,-988.5 129,-1007.5 195,-1007.5 195,-988.5 129,-988.5"/>
<text text-anchor="middle" x="162" y="-995.5" font-family="Helvetica,sans-Serif" font-size="10.00">CVService</text>
</a>
</g>
</g>
<!-- Node0&#45;&gt;Node5 -->
<g id="edge5" class="edge">
<title>Node0&#45;&gt;Node5</title>
<path fill="none" stroke="midnightblue" d="M27.78,-599.69C29.2,-672.07 37.82,-922.13 89,-979 99.03,-990.15 114.76,-995.09 128.95,-997.17"/>
<polygon fill="midnightblue" stroke="midnightblue" points="31.28,-599.6 27.61,-589.66 24.28,-599.72 31.28,-599.6"/>
</g>
<!-- Node6 -->
<g id="node7" class="node">
<title>Node6</title>
<g id="a_node7"><a xlink:href="de/df8/classnap_1_1_ether_dream_service.html" target="_top" xlink:title=" ">
<polygon fill="white" stroke="black" points="106.5,-950.5 106.5,-969.5 217.5,-969.5 217.5,-950.5 106.5,-950.5"/>
<text text-anchor="middle" x="162" y="-957.5" font-family="Helvetica,sans-Serif" font-size="10.00">EtherDreamService</text>
</a>
</g>
</g>
<!-- Node0&#45;&gt;Node6 -->
<g id="edge6" class="edge">
<title>Node0&#45;&gt;Node6</title>
<path fill="none" stroke="midnightblue" d="M28.14,-599.97C30.74,-668.16 42.66,-890.33 89,-941 93.8,-946.25 99.86,-950.12 106.42,-952.96"/>
<polygon fill="midnightblue" stroke="midnightblue" points="31.63,-599.62 27.78,-589.75 24.64,-599.86 31.63,-599.62"/>
</g>
<!-- Node7 -->
<g id="node8" class="node">
<title>Node7</title>
<g id="a_node8"><a xlink:href="d7/df5/classnap_1_1_font_service.html" target="_top" xlink:title=" ">
<polygon fill="white" stroke="black" points="125,-912.5 125,-931.5 199,-931.5 199,-912.5 125,-912.5"/>
<text text-anchor="middle" x="162" y="-919.5" font-family="Helvetica,sans-Serif" font-size="10.00">FontService</text>
</a>
</g>
</g>
<!-- Node0&#45;&gt;Node7 -->
<g id="edge7" class="edge">
<title>Node0&#45;&gt;Node7</title>
<path fill="none" stroke="midnightblue" d="M28.58,-599.89C32.4,-663.18 47.4,-858.39 89,-903 98.17,-912.83 111.77,-917.81 124.69,-920.26"/>
<polygon fill="midnightblue" stroke="midnightblue" points="32.06,-599.45 27.99,-589.67 25.07,-599.86 32.06,-599.45"/>
</g>
<!-- Node8 -->
<g id="node9" class="node">
<title>Node8</title>
<g id="a_node9"><a xlink:href="d0/d74/classnap_1_1_i_m_gui_service.html" target="_top" xlink:title=" ">
<polygon fill="white" stroke="black" points="121.5,-874.5 121.5,-893.5 202.5,-893.5 202.5,-874.5 121.5,-874.5"/>
<text text-anchor="middle" x="162" y="-881.5" font-family="Helvetica,sans-Serif" font-size="10.00">IMGuiService</text>
</a>
</g>
</g>
<!-- Node0&#45;&gt;Node8 -->
<g id="edge8" class="edge">
<title>Node0&#45;&gt;Node8</title>
<path fill="none" stroke="midnightblue" d="M29.12,-599.8C34.26,-657.92 52.12,-826.4 89,-865 97.48,-873.88 109.59,-878.79 121.45,-881.44"/>
<polygon fill="midnightblue" stroke="midnightblue" points="32.59,-599.38 28.26,-589.71 25.62,-599.98 32.59,-599.38"/>
</g>
<!-- Node9 -->
<g id="node10" class="node">
<title>Node9</title>
<g id="a_node10"><a xlink:href="d0/d8d/classnap_1_1_input_service.html" target="_top" xlink:title=" ">
<polygon fill="white" stroke="black" points="123.5,-836.5 123.5,-855.5 200.5,-855.5 200.5,-836.5 123.5,-836.5"/>
<text text-anchor="middle" x="162" y="-843.5" font-family="Helvetica,sans-Serif" font-size="10.00">InputService</text>
</a>
</g>
</g>
<!-- Node0&#45;&gt;Node9 -->
<g id="edge9" class="edge">
<title>Node0&#45;&gt;Node9</title>
<path fill="none" stroke="midnightblue" d="M29.8,-599.53C36.35,-652 56.77,-794.31 89,-827 98.08,-836.21 111.05,-841.12 123.49,-843.69"/>
<polygon fill="midnightblue" stroke="midnightblue" points="33.26,-599.01 28.58,-589.51 26.31,-599.86 33.26,-599.01"/>
</g>
<!-- Node10 -->
<g id="node11" class="node">
<title>Node10</title>
<g id="a_node11"><a xlink:href="dd/d65/classnap_1_1_license_service.html" target="_top" xlink:title=" ">
<polygon fill="white" stroke="black" points="117.5,-798.5 117.5,-817.5 206.5,-817.5 206.5,-798.5 117.5,-798.5"/>
<text text-anchor="middle" x="162" y="-805.5" font-family="Helvetica,sans-Serif" font-size="10.00">LicenseService</text>
</a>
</g>
</g>
<!-- Node0&#45;&gt;Node10 -->
<g id="edge10" class="edge">
<title>Node0&#45;&gt;Node10</title>
<path fill="none" stroke="midnightblue" d="M27.28,-599.64C27.92,-640.87 35.46,-736.94 89,-789 96.69,-796.48 106.97,-801.11 117.34,-803.94"/>
<polygon fill="midnightblue" stroke="midnightblue" points="30.78,-599.53 27.24,-589.54 23.78,-599.55 30.78,-599.53"/>
</g>
<!-- Node11 -->
<g id="node12" class="node">
<title>Node11</title>
<g id="a_node12"><a xlink:href="d3/dfa/classnap_1_1_midi_service.html" target="_top" xlink:title=" ">
<polygon fill="white" stroke="black" points="125,-760.5 125,-779.5 199,-779.5 199,-760.5 125,-760.5"/>
<text text-anchor="middle" x="162" y="-767.5" font-family="Helvetica,sans-Serif" font-size="10.00">MidiService</text>
</a>
</g>
</g>
<!-- Node0&#45;&gt;Node11 -->
<g id="edge11" class="edge">
<title>Node0&#45;&gt;Node11</title>
<path fill="none" stroke="midnightblue" d="M28.82,-599.94C32.28,-635.61 44.71,-710.42 89,-751 98.72,-759.91 112.13,-764.73 124.74,-767.32"/>
<polygon fill="midnightblue" stroke="midnightblue" points="32.3,-599.5 27.98,-589.82 25.32,-600.08 32.3,-599.5"/>
</g>
<!-- Node12 -->
<g id="node13" class="node">
<title>Node12</title>
<g id="a_node13"><a xlink:href="d9/d55/classnap_1_1_o_s_c_service.html" target="_top" xlink:title=" ">
<polygon fill="white" stroke="black" points="125.5,-722.5 125.5,-741.5 198.5,-741.5 198.5,-722.5 125.5,-722.5"/>
<text text-anchor="middle" x="162" y="-729.5" font-family="Helvetica,sans-Serif" font-size="10.00">OSCService</text>
</a>
</g>
</g>
<!-- Node0&#45;&gt;Node12 -->
<g id="edge12" class="edge">
<title>Node0&#45;&gt;Node12</title>
<path fill="none" stroke="midnightblue" d="M31.08,-599.56C37.45,-628.71 53.57,-683.29 89,-713 99.1,-721.47 112.59,-726.21 125.15,-728.84"/>
<polygon fill="midnightblue" stroke="midnightblue" points="34.5,-598.85 29.09,-589.74 27.64,-600.24 34.5,-598.85"/>
</g>
<!-- Node13 -->
<g id="node14" class="node">
<title>Node13</title>
<g id="a_node14"><a xlink:href="d5/d8d/classnap_1_1_parameter_g_u_i_service.html" target="_top" xlink:title=" ">
<polygon fill="white" stroke="black" points="101.5,-684.5 101.5,-703.5 222.5,-703.5 222.5,-684.5 101.5,-684.5"/>
<text text-anchor="middle" x="162" y="-691.5" font-family="Helvetica,sans-Serif" font-size="10.00">ParameterGUIService</text>
</a>
</g>
</g>
<!-- Node0&#45;&gt;Node13 -->
<g id="edge13" class="edge">
<title>Node0&#45;&gt;Node13</title>
<path fill="none" stroke="midnightblue" d="M34.9,-599.26C44.23,-620.95 62.34,-655.68 89,-675 94.34,-678.87 100.41,-681.95 106.7,-684.4"/>
<polygon fill="midnightblue" stroke="midnightblue" points="38.05,-597.71 31.03,-589.78 31.57,-600.36 38.05,-597.71"/>
</g>
<!-- Node14 -->
<g id="node15" class="node">
<title>Node14</title>
<g id="a_node15"><a xlink:href="d9/df7/classnap_1_1_parameter_service.html" target="_top" xlink:title=" ">
<polygon fill="white" stroke="black" points="110.5,-646.5 110.5,-665.5 213.5,-665.5 213.5,-646.5 110.5,-646.5"/>
<text text-anchor="middle" x="162" y="-653.5" font-family="Helvetica,sans-Serif" font-size="10.00">ParameterService</text>
</a>
</g>
</g>
<!-- Node0&#45;&gt;Node14 -->
<g id="edge14" class="edge">
<title>Node0&#45;&gt;Node14</title>
<path fill="none" stroke="midnightblue" d="M41.88,-597.28C53.38,-610.04 70.58,-626.87 89,-637 96.02,-640.86 103.87,-643.97 111.72,-646.46"/>
<polygon fill="midnightblue" stroke="midnightblue" points="44.39,-594.85 35.19,-589.6 39.11,-599.44 44.39,-594.85"/>
</g>
<!-- Node15 -->
<g id="node16" class="node">
<title>Node15</title>
<g id="a_node16"><a xlink:href="d5/d71/classnap_1_1pipins_1_1_gpio_service.html" target="_top" xlink:title=" ">
<polygon fill="white" stroke="black" points="124.5,-608.5 124.5,-627.5 199.5,-627.5 199.5,-608.5 124.5,-608.5"/>
<text text-anchor="middle" x="162" y="-615.5" font-family="Helvetica,sans-Serif" font-size="10.00">GpioService</text>
</a>
</g>
</g>
<!-- Node0&#45;&gt;Node15 -->
<g id="edge15" class="edge">
<title>Node0&#45;&gt;Node15</title>
<path fill="none" stroke="midnightblue" d="M62.85,-591.2C71.39,-593.83 80.51,-596.57 89,-599 100.43,-602.27 112.95,-605.65 124.29,-608.63"/>
<polygon fill="midnightblue" stroke="midnightblue" points="63.75,-587.81 53.16,-588.19 61.67,-594.5 63.75,-587.81"/>
</g>
<!-- Node16 -->
<g id="node17" class="node">
<title>Node16</title>
<g id="a_node17"><a xlink:href="d5/d0f/classnap_1_1_portal_service.html" target="_top" xlink:title=" ">
<polygon fill="white" stroke="black" points="121.5,-570.5 121.5,-589.5 202.5,-589.5 202.5,-570.5 121.5,-570.5"/>
<text text-anchor="middle" x="162" y="-577.5" font-family="Helvetica,sans-Serif" font-size="10.00">PortalService</text>
</a>
</g>
</g>
<!-- Node0&#45;&gt;Node16 -->
<g id="edge16" class="edge">
<title>Node0&#45;&gt;Node16</title>
<path fill="none" stroke="midnightblue" d="M63.3,-580C81.23,-580 102.98,-580 121.41,-580"/>
<polygon fill="midnightblue" stroke="midnightblue" points="63.24,-576.5 53.24,-580 63.24,-583.5 63.24,-576.5"/>
</g>
<!-- Node17 -->
<g id="node18" class="node">
<title>Node17</title>
<g id="a_node18"><a xlink:href="d4/d74/classnap_1_1_python_script_service.html" target="_top" xlink:title=" ">
<polygon fill="white" stroke="black" points="105,-532.5 105,-551.5 219,-551.5 219,-532.5 105,-532.5"/>
<text text-anchor="middle" x="162" y="-539.5" font-family="Helvetica,sans-Serif" font-size="10.00">PythonScriptService</text>
</a>
</g>
</g>
<!-- Node0&#45;&gt;Node17 -->
<g id="edge17" class="edge">
<title>Node0&#45;&gt;Node17</title>
<path fill="none" stroke="midnightblue" d="M62.85,-568.8C71.39,-566.17 80.51,-563.43 89,-561 100.19,-557.8 112.41,-554.5 123.55,-551.57"/>
<polygon fill="midnightblue" stroke="midnightblue" points="61.67,-565.5 53.16,-571.81 63.75,-572.19 61.67,-565.5"/>
</g>
<!-- Node18 -->
<g id="node19" class="node">
<title>Node18</title>
<g id="a_node19"><a xlink:href="d5/dc6/classnap_1_1_render_service.html" target="_top" xlink:title=" ">
<polygon fill="white" stroke="black" points="118.5,-494.5 118.5,-513.5 205.5,-513.5 205.5,-494.5 118.5,-494.5"/>
<text text-anchor="middle" x="162" y="-501.5" font-family="Helvetica,sans-Serif" font-size="10.00">RenderService</text>
</a>
</g>
</g>
<!-- Node0&#45;&gt;Node18 -->
<g id="edge18" class="edge">
<title>Node0&#45;&gt;Node18</title>
<path fill="none" stroke="midnightblue" d="M41.88,-562.72C53.38,-549.96 70.58,-533.13 89,-523 97.95,-518.08 108.23,-514.39 118.17,-511.63"/>
<polygon fill="midnightblue" stroke="midnightblue" points="39.11,-560.56 35.19,-570.4 44.39,-565.15 39.11,-560.56"/>
</g>
<!-- Node19 -->
<g id="node20" class="node">
<title>Node19</title>
<g id="a_node20"><a xlink:href="dc/db5/classnap_1_1_scene_service.html" target="_top" xlink:title=" ">
<polygon fill="white" stroke="black" points="121,-456.5 121,-475.5 203,-475.5 203,-456.5 121,-456.5"/>
<text text-anchor="middle" x="162" y="-463.5" font-family="Helvetica,sans-Serif" font-size="10.00">SceneService</text>
</a>
</g>
</g>
<!-- Node0&#45;&gt;Node19 -->
<g id="edge19" class="edge">
<title>Node0&#45;&gt;Node19</title>
<path fill="none" stroke="midnightblue" d="M34.9,-560.74C44.23,-539.05 62.34,-504.32 89,-485 98.32,-478.25 109.86,-473.89 120.95,-471.09"/>
<polygon fill="midnightblue" stroke="midnightblue" points="31.57,-559.64 31.03,-570.22 38.05,-562.29 31.57,-559.64"/>
</g>
<!-- Node20 -->
<g id="node21" class="node">
<title>Node20</title>
<g id="a_node21"><a xlink:href="dc/dbc/classnap_1_1_s_d_l_input_service.html" target="_top" xlink:title=" ">
<polygon fill="white" stroke="black" points="114,-418.5 114,-437.5 210,-437.5 210,-418.5 114,-418.5"/>
<text text-anchor="middle" x="162" y="-425.5" font-family="Helvetica,sans-Serif" font-size="10.00">SDLInputService</text>
</a>
</g>
</g>
<!-- Node0&#45;&gt;Node20 -->
<g id="edge20" class="edge">
<title>Node0&#45;&gt;Node20</title>
<path fill="none" stroke="midnightblue" d="M31.08,-560.44C37.45,-531.29 53.57,-476.71 89,-447 96.13,-441.02 104.95,-436.9 113.94,-434.07"/>
<polygon fill="midnightblue" stroke="midnightblue" points="27.64,-559.76 29.09,-570.26 34.5,-561.15 27.64,-559.76"/>
</g>
<!-- Node21 -->
<g id="node22" class="node">
<title>Node21</title>
<g id="a_node22"><a xlink:href="dc/dd3/classnap_1_1_sequence_audio_g_u_i_service.html" target="_top" xlink:title=" ">
<polygon fill="white" stroke="black" points="89,-380.5 89,-399.5 235,-399.5 235,-380.5 89,-380.5"/>
<text text-anchor="middle" x="162" y="-387.5" font-family="Helvetica,sans-Serif" font-size="10.00">SequenceAudioGUIService</text>
</a>
</g>
</g>
<!-- Node0&#45;&gt;Node21 -->
<g id="edge21" class="edge">
<title>Node0&#45;&gt;Node21</title>
<path fill="none" stroke="midnightblue" d="M28.82,-560.06C32.28,-524.39 44.71,-449.58 89,-409 93.19,-405.16 98.07,-402.07 103.28,-399.6"/>
<polygon fill="midnightblue" stroke="midnightblue" points="25.32,-559.92 27.98,-570.18 32.3,-560.5 25.32,-559.92"/>
</g>
<!-- Node22 -->
<g id="node23" class="node">
<title>Node22</title>
<g id="a_node23"><a xlink:href="d0/d0a/classnap_1_1_sequence_g_u_i_service.html" target="_top" xlink:title=" ">
<polygon fill="white" stroke="black" points="103,-342.5 103,-361.5 221,-361.5 221,-342.5 103,-342.5"/>
<text text-anchor="middle" x="162" y="-349.5" font-family="Helvetica,sans-Serif" font-size="10.00">SequenceGUIService</text>
</a>
</g>
</g>
<!-- Node0&#45;&gt;Node22 -->
<g id="edge22" class="edge">
<title>Node0&#45;&gt;Node22</title>
<path fill="none" stroke="midnightblue" d="M27.28,-560.36C27.92,-519.13 35.46,-423.06 89,-371 92.99,-367.12 97.66,-364.02 102.69,-361.52"/>
<polygon fill="midnightblue" stroke="midnightblue" points="23.78,-560.45 27.24,-570.46 30.78,-560.47 23.78,-560.45"/>
</g>
<!-- Node23 -->
<g id="node24" class="node">
<title>Node23</title>
<g id="a_node24"><a xlink:href="df/dbe/classnap_1_1_sequence_service.html" target="_top" xlink:title=" ">
<polygon fill="white" stroke="black" points="112,-304.5 112,-323.5 212,-323.5 212,-304.5 112,-304.5"/>
<text text-anchor="middle" x="162" y="-311.5" font-family="Helvetica,sans-Serif" font-size="10.00">SequenceService</text>
</a>
</g>
</g>
<!-- Node0&#45;&gt;Node23 -->
<g id="edge23" class="edge">
<title>Node0&#45;&gt;Node23</title>
<path fill="none" stroke="midnightblue" d="M29.8,-560.47C36.35,-508 56.77,-365.69 89,-333 95.26,-326.65 103.38,-322.34 111.9,-319.44"/>
<polygon fill="midnightblue" stroke="midnightblue" points="26.31,-560.14 28.58,-570.49 33.26,-560.99 26.31,-560.14"/>
</g>
<!-- Node24 -->
<g id="node25" class="node">
<title>Node24</title>
<g id="a_node25"><a xlink:href="d4/d59/classnap_1_1_sequence_service_audio.html" target="_top" xlink:title=" ">
<polygon fill="white" stroke="black" points="98,-266.5 98,-285.5 226,-285.5 226,-266.5 98,-266.5"/>
<text text-anchor="middle" x="162" y="-273.5" font-family="Helvetica,sans-Serif" font-size="10.00">SequenceServiceAudio</text>
</a>
</g>
</g>
<!-- Node0&#45;&gt;Node24 -->
<g id="edge24" class="edge">
<title>Node0&#45;&gt;Node24</title>
<path fill="none" stroke="midnightblue" d="M29.12,-560.2C34.26,-502.08 52.12,-333.6 89,-295 92.66,-291.17 97,-288.08 101.7,-285.59"/>
<polygon fill="midnightblue" stroke="midnightblue" points="25.62,-560.02 28.26,-570.29 32.59,-560.62 25.62,-560.02"/>
</g>
<!-- Node25 -->
<g id="node26" class="node">
<title>Node25</title>
<g id="a_node26"><a xlink:href="d2/d43/classnap_1_1_serial_service.html" target="_top" xlink:title=" ">
<polygon fill="white" stroke="black" points="122,-228.5 122,-247.5 202,-247.5 202,-228.5 122,-228.5"/>
<text text-anchor="middle" x="162" y="-235.5" font-family="Helvetica,sans-Serif" font-size="10.00">SerialService</text>
</a>
</g>
</g>
<!-- Node0&#45;&gt;Node25 -->
<g id="edge25" class="edge">
<title>Node0&#45;&gt;Node25</title>
<path fill="none" stroke="midnightblue" d="M28.58,-560.11C32.4,-496.82 47.4,-301.61 89,-257 97.46,-247.92 109.7,-242.98 121.7,-240.35"/>
<polygon fill="midnightblue" stroke="midnightblue" points="25.07,-560.14 27.99,-570.33 32.06,-560.55 25.07,-560.14"/>
</g>
<!-- Node26 -->
<g id="node27" class="node">
<title>Node26</title>
<g id="a_node27"><a xlink:href="dd/d0c/classnap_1_1_s_o_e_m_service.html" target="_top" xlink:title=" ">
<polygon fill="white" stroke="black" points="121.5,-190.5 121.5,-209.5 202.5,-209.5 202.5,-190.5 121.5,-190.5"/>
<text text-anchor="middle" x="162" y="-197.5" font-family="Helvetica,sans-Serif" font-size="10.00">SOEMService</text>
</a>
</g>
</g>
<!-- Node0&#45;&gt;Node26 -->
<g id="edge26" class="edge">
<title>Node0&#45;&gt;Node26</title>
<path fill="none" stroke="midnightblue" d="M28.14,-560.03C30.74,-491.84 42.66,-269.67 89,-219 97.29,-209.94 109.34,-204.98 121.22,-202.34"/>
<polygon fill="midnightblue" stroke="midnightblue" points="24.64,-560.14 27.78,-570.25 31.63,-560.38 24.64,-560.14"/>
</g>
<!-- Node27 -->
<g id="node28" class="node">
<title>Node27</title>
<g id="a_node28"><a xlink:href="d7/d05/classnap_1_1_tween_service.html" target="_top" xlink:title=" ">
<polygon fill="white" stroke="black" points="120.5,-152.5 120.5,-171.5 203.5,-171.5 203.5,-152.5 120.5,-152.5"/>
<text text-anchor="middle" x="162" y="-159.5" font-family="Helvetica,sans-Serif" font-size="10.00">TweenService</text>
</a>
</g>
</g>
<!-- Node0&#45;&gt;Node27 -->
<g id="edge27" class="edge">
<title>Node0&#45;&gt;Node27</title>
<path fill="none" stroke="midnightblue" d="M27.78,-560.31C29.2,-487.93 37.82,-237.87 89,-181 97.04,-172.06 108.74,-167.11 120.38,-164.43"/>
<polygon fill="midnightblue" stroke="midnightblue" points="24.28,-560.28 27.61,-570.34 31.28,-560.4 24.28,-560.28"/>
</g>
<!-- Node28 -->
<g id="node29" class="node">
<title>Node28</title>
<g id="a_node29"><a xlink:href="dc/dc3/classnap_1_1_u_d_p_service.html" target="_top" xlink:title=" ">
<polygon fill="white" stroke="black" points="125,-114.5 125,-133.5 199,-133.5 199,-114.5 125,-114.5"/>
<text text-anchor="middle" x="162" y="-121.5" font-family="Helvetica,sans-Serif" font-size="10.00">UDPService</text>
</a>
</g>
</g>
<!-- Node0&#45;&gt;Node28 -->
<g id="edge28" class="edge">
<title>Node0&#45;&gt;Node28</title>
<path fill="none" stroke="midnightblue" d="M27.49,-559.95C27.85,-482.75 33.1,-205.93 89,-143 98.01,-132.85 111.75,-127.83 124.81,-125.44"/>
<polygon fill="midnightblue" stroke="midnightblue" points="23.99,-560.2 27.46,-570.2 30.99,-560.21 23.99,-560.2"/>
</g>
<!-- Node29 -->
<g id="node30" class="node">
<title>Node29</title>
<g id="a_node30"><a xlink:href="d4/dcd/classnap_1_1_video_service.html" target="_top" xlink:title=" ">
<polygon fill="white" stroke="black" points="122,-76.5 122,-95.5 202,-95.5 202,-76.5 122,-76.5"/>
<text text-anchor="middle" x="162" y="-83.5" font-family="Helvetica,sans-Serif" font-size="10.00">VideoService</text>
</a>
</g>
</g>
<!-- Node0&#45;&gt;Node29 -->
<g id="edge29" class="edge">
<title>Node0&#45;&gt;Node29</title>
<path fill="none" stroke="midnightblue" d="M27.23,-559.8C26.58,-478.22 28.32,-174.07 89,-105 97.28,-95.58 109.62,-90.57 121.76,-87.98"/>
<polygon fill="midnightblue" stroke="midnightblue" points="23.74,-560.21 27.34,-570.17 30.74,-560.13 23.74,-560.21"/>
</g>
<!-- Node30 -->
<g id="node31" class="node">
<title>Node30</title>
<g id="a_node31"><a xlink:href="dd/d2f/classnap_1_1_web_socket_service.html" target="_top" xlink:title=" ">
<polygon fill="white" stroke="black" points="109,-38.5 109,-57.5 215,-57.5 215,-38.5 109,-38.5"/>
<text text-anchor="middle" x="162" y="-45.5" font-family="Helvetica,sans-Serif" font-size="10.00">WebSocketService</text>
</a>
</g>
</g>
<!-- Node0&#45;&gt;Node30 -->
<g id="edge30" class="edge">
<title>Node0&#45;&gt;Node30</title>
<path fill="none" stroke="midnightblue" d="M28.59,-559.94C33.64,-469.81 56,-104.92 89,-67 94.26,-60.95 101.2,-56.72 108.69,-53.78"/>
<polygon fill="midnightblue" stroke="midnightblue" points="25.08,-559.98 28.02,-570.16 32.07,-560.37 25.08,-559.98"/>
</g>
<!-- Node31 -->
<g id="node32" class="node">
<title>Node31</title>
<g id="a_node32"><a xlink:href="d7/d55/classnap_1_1_yocto_service.html" target="_top" xlink:title=" ">
<polygon fill="white" stroke="black" points="123,-0.5 123,-19.5 201,-19.5 201,-0.5 123,-0.5"/>
<text text-anchor="middle" x="162" y="-7.5" font-family="Helvetica,sans-Serif" font-size="10.00">YoctoService</text>
</a>
</g>
</g>
<!-- Node0&#45;&gt;Node31 -->
<g id="edge31" class="edge">
<title>Node0&#45;&gt;Node31</title>
<path fill="none" stroke="midnightblue" d="M28.4,-560.26C32.82,-466.64 53.53,-70.1 89,-29 97.45,-19.21 110.28,-14.17 122.79,-11.66"/>
<polygon fill="midnightblue" stroke="midnightblue" points="24.9,-560.2 27.93,-570.35 31.89,-560.52 24.9,-560.2"/>
</g>
</g>
</svg>
