<?xml version="1.0" encoding="UTF-8" standalone="no"?>
<!DOCTYPE svg PUBLIC "-//W3C//DTD SVG 1.1//EN"
 "http://www.w3.org/Graphics/SVG/1.1/DTD/svg11.dtd">
<!-- Generated by graphviz version 3.0.0 (20220226.1711)
 -->
<!-- Title: Graphical Class Hierarchy Pages: 1 -->
<svg width="885pt" height="913pt"
 viewBox="0.00 0.00 885.00 913.00" xmlns="http://www.w3.org/2000/svg" xmlns:xlink="http://www.w3.org/1999/xlink">
<g id="graph0" class="graph" transform="scale(1 1) rotate(0) translate(4 909)">
<title>Graphical Class Hierarchy</title>
<polygon fill="white" stroke="transparent" points="-4,4 -4,-909 881,-909 881,4 -4,4"/>
<!-- Node0 -->
<g id="node1" class="node">
<title>Node0</title>
<g id="a_node1"><a xlink:href="d2/da2/classnap_1_1_event.html" target="_top" xlink:title="Event">
<polygon fill="white" stroke="black" points="0,-695.5 0,-714.5 41,-714.5 41,-695.5 0,-695.5"/>
<text text-anchor="middle" x="20.5" y="-702.5" font-family="Helvetica,sans-Serif" font-size="10.00">Event</text>
</a>
</g>
</g>
<!-- Node1 -->
<g id="node2" class="node">
<title>Node1</title>
<g id="a_node2"><a xlink:href="db/dbc/classnap_1_1_a_p_i_event.html" target="_top" xlink:title="APIEvent">
<polygon fill="white" stroke="black" points="102.5,-885.5 102.5,-904.5 158.5,-904.5 158.5,-885.5 102.5,-885.5"/>
<text text-anchor="middle" x="130.5" y="-892.5" font-family="Helvetica,sans-Serif" font-size="10.00">APIEvent</text>
</a>
</g>
</g>
<!-- Node0&#45;&gt;Node1 -->
<g id="edge1" class="edge">
<title>Node0&#45;&gt;Node1</title>
<path fill="none" stroke="midnightblue" d="M22.46,-724.98C25.22,-760.16 35.87,-833.47 77,-876 83.74,-882.97 93.22,-887.39 102.28,-890.19"/>
<polygon fill="midnightblue" stroke="midnightblue" points="25.93,-724.36 21.8,-714.61 18.94,-724.81 25.93,-724.36"/>
</g>
<!-- Node3 -->
<g id="node4" class="node">
<title>Node3</title>
<g id="a_node4"><a xlink:href="df/dcf/classnap_1_1_art_net_event.html" target="_top" xlink:title="ArtNetEvent">
<polygon fill="white" stroke="black" points="96.5,-847.5 96.5,-866.5 164.5,-866.5 164.5,-847.5 96.5,-847.5"/>
<text text-anchor="middle" x="130.5" y="-854.5" font-family="Helvetica,sans-Serif" font-size="10.00">ArtNetEvent</text>
</a>
</g>
</g>
<!-- Node0&#45;&gt;Node3 -->
<g id="edge3" class="edge">
<title>Node0&#45;&gt;Node3</title>
<path fill="none" stroke="midnightblue" d="M24.56,-724.52C30.05,-753.22 44.22,-806.76 77,-838 82.4,-843.15 89.31,-846.92 96.32,-849.68"/>
<polygon fill="midnightblue" stroke="midnightblue" points="27.98,-723.77 22.81,-714.52 21.09,-724.97 27.98,-723.77"/>
</g>
<!-- Node4 -->
<g id="node5" class="node">
<title>Node4</title>
<g id="a_node5"><a xlink:href="da/d0d/classnap_1_1_calendar_event.html" target="_top" xlink:title="CalendarEvent">
<polygon fill="white" stroke="black" points="91,-809.5 91,-828.5 170,-828.5 170,-809.5 91,-809.5"/>
<text text-anchor="middle" x="130.5" y="-816.5" font-family="Helvetica,sans-Serif" font-size="10.00">CalendarEvent</text>
</a>
</g>
</g>
<!-- Node0&#45;&gt;Node4 -->
<g id="edge4" class="edge">
<title>Node0&#45;&gt;Node4</title>
<path fill="none" stroke="midnightblue" d="M28.1,-724.13C36.38,-745.45 52.52,-779.6 77,-800 81.62,-803.85 87.08,-806.94 92.7,-809.43"/>
<polygon fill="midnightblue" stroke="midnightblue" points="31.31,-722.73 24.58,-714.55 24.74,-725.14 31.31,-722.73"/>
</g>
<!-- Node5 -->
<g id="node6" class="node">
<title>Node5</title>
<g id="a_node6"><a xlink:href="d8/dc0/classnap_1_1_c_v_frame_event.html" target="_top" xlink:title="CVFrameEvent">
<polygon fill="white" stroke="black" points="89.5,-771.5 89.5,-790.5 171.5,-790.5 171.5,-771.5 89.5,-771.5"/>
<text text-anchor="middle" x="130.5" y="-778.5" font-family="Helvetica,sans-Serif" font-size="10.00">CVFrameEvent</text>
</a>
</g>
</g>
<!-- Node0&#45;&gt;Node5 -->
<g id="edge5" class="edge">
<title>Node0&#45;&gt;Node5</title>
<path fill="none" stroke="midnightblue" d="M35.05,-722.68C45.38,-735.14 60.59,-751.41 77,-762 82.78,-765.73 89.4,-768.85 95.93,-771.42"/>
<polygon fill="midnightblue" stroke="midnightblue" points="37.7,-720.4 28.72,-714.79 32.24,-724.78 37.7,-720.4"/>
</g>
<!-- Node6 -->
<g id="node7" class="node">
<title>Node6</title>
<g id="a_node7"><a xlink:href="dc/dc0/classnap_1_1_input_event.html" target="_top" xlink:title="InputEvent">
<polygon fill="white" stroke="black" points="99.5,-733.5 99.5,-752.5 161.5,-752.5 161.5,-733.5 99.5,-733.5"/>
<text text-anchor="middle" x="130.5" y="-740.5" font-family="Helvetica,sans-Serif" font-size="10.00">InputEvent</text>
</a>
</g>
</g>
<!-- Node0&#45;&gt;Node6 -->
<g id="edge6" class="edge">
<title>Node0&#45;&gt;Node6</title>
<path fill="none" stroke="midnightblue" d="M50.53,-715.21C66.65,-720.88 86.57,-727.89 102.37,-733.45"/>
<polygon fill="midnightblue" stroke="midnightblue" points="51.65,-711.9 41.06,-711.88 49.33,-718.5 51.65,-711.9"/>
</g>
<!-- Node24 -->
<g id="node25" class="node">
<title>Node24</title>
<g id="a_node25"><a xlink:href="de/d53/classnap_1_1_midi_event.html" target="_top" xlink:title="MidiEvent">
<polygon fill="white" stroke="black" points="101,-695.5 101,-714.5 160,-714.5 160,-695.5 101,-695.5"/>
<text text-anchor="middle" x="130.5" y="-702.5" font-family="Helvetica,sans-Serif" font-size="10.00">MidiEvent</text>
</a>
</g>
</g>
<!-- Node0&#45;&gt;Node24 -->
<g id="edge24" class="edge">
<title>Node0&#45;&gt;Node24</title>
<path fill="none" stroke="midnightblue" d="M51.13,-705C66.59,-705 85.41,-705 100.73,-705"/>
<polygon fill="midnightblue" stroke="midnightblue" points="51.06,-701.5 41.06,-705 51.06,-708.5 51.06,-701.5"/>
</g>
<!-- Node25 -->
<g id="node26" class="node">
<title>Node25</title>
<g id="a_node26"><a xlink:href="d9/ddb/classnap_1_1_o_s_c_event.html" target="_top" xlink:title="OSCEvent">
<polygon fill="white" stroke="black" points="99.5,-657.5 99.5,-676.5 161.5,-676.5 161.5,-657.5 99.5,-657.5"/>
<text text-anchor="middle" x="130.5" y="-664.5" font-family="Helvetica,sans-Serif" font-size="10.00">OSCEvent</text>
</a>
</g>
</g>
<!-- Node0&#45;&gt;Node25 -->
<g id="edge25" class="edge">
<title>Node0&#45;&gt;Node25</title>
<path fill="none" stroke="midnightblue" d="M50.53,-694.79C66.65,-689.12 86.57,-682.11 102.37,-676.55"/>
<polygon fill="midnightblue" stroke="midnightblue" points="49.33,-691.5 41.06,-698.12 51.65,-698.1 49.33,-691.5"/>
</g>
<!-- Node26 -->
<g id="node27" class="node">
<title>Node26</title>
<g id="a_node27"><a xlink:href="d4/d3e/classnap_1_1_portal_event.html" target="_top" xlink:title="PortalEvent">
<polygon fill="white" stroke="black" points="97.5,-619.5 97.5,-638.5 163.5,-638.5 163.5,-619.5 97.5,-619.5"/>
<text text-anchor="middle" x="130.5" y="-626.5" font-family="Helvetica,sans-Serif" font-size="10.00">PortalEvent</text>
</a>
</g>
</g>
<!-- Node0&#45;&gt;Node26 -->
<g id="edge26" class="edge">
<title>Node0&#45;&gt;Node26</title>
<path fill="none" stroke="midnightblue" d="M35.05,-687.32C45.38,-674.86 60.59,-658.59 77,-648 83.19,-644.01 90.33,-640.71 97.31,-638.05"/>
<polygon fill="midnightblue" stroke="midnightblue" points="32.24,-685.22 28.72,-695.21 37.7,-689.6 32.24,-685.22"/>
</g>
<!-- Node27 -->
<g id="node28" class="node">
<title>Node27</title>
<g id="a_node28"><a xlink:href="d5/d51/classnap_1_1_sequence_event_base.html" target="_top" xlink:title="SequenceEventBase">
<polygon fill="white" stroke="black" points="77,-581.5 77,-600.5 184,-600.5 184,-581.5 77,-581.5"/>
<text text-anchor="middle" x="130.5" y="-588.5" font-family="Helvetica,sans-Serif" font-size="10.00">SequenceEventBase</text>
</a>
</g>
</g>
<!-- Node0&#45;&gt;Node27 -->
<g id="edge27" class="edge">
<title>Node0&#45;&gt;Node27</title>
<path fill="none" stroke="midnightblue" d="M28.1,-685.87C36.38,-664.55 52.52,-630.4 77,-610 81.62,-606.15 87.08,-603.06 92.7,-600.57"/>
<polygon fill="midnightblue" stroke="midnightblue" points="24.74,-684.86 24.58,-695.45 31.31,-687.27 24.74,-684.86"/>
</g>
<!-- Node29 -->
<g id="node30" class="node">
<title>Node29</title>
<g id="a_node30"><a xlink:href="d6/d83/classnap_1_1_web_socket_event.html" target="_top" xlink:title="WebSocketEvent">
<polygon fill="white" stroke="black" points="84.5,-543.5 84.5,-562.5 176.5,-562.5 176.5,-543.5 84.5,-543.5"/>
<text text-anchor="middle" x="130.5" y="-550.5" font-family="Helvetica,sans-Serif" font-size="10.00">WebSocketEvent</text>
</a>
</g>
</g>
<!-- Node0&#45;&gt;Node29 -->
<g id="edge29" class="edge">
<title>Node0&#45;&gt;Node29</title>
<path fill="none" stroke="midnightblue" d="M24.56,-685.48C30.05,-656.78 44.22,-603.24 77,-572 81.07,-568.12 85.99,-565.02 91.17,-562.56"/>
<polygon fill="midnightblue" stroke="midnightblue" points="21.09,-685.03 22.81,-695.48 27.98,-686.23 21.09,-685.03"/>
</g>
<!-- Node35 -->
<g id="node36" class="node">
<title>Node35</title>
<g id="a_node36"><a xlink:href="d5/dea/classnap_1_1_window_event.html" target="_top" xlink:title="WindowEvent">
<polygon fill="white" stroke="black" points="93,-247.5 93,-266.5 168,-266.5 168,-247.5 93,-247.5"/>
<text text-anchor="middle" x="130.5" y="-254.5" font-family="Helvetica,sans-Serif" font-size="10.00">WindowEvent</text>
</a>
</g>
</g>
<!-- Node0&#45;&gt;Node35 -->
<g id="edge35" class="edge">
<title>Node0&#45;&gt;Node35</title>
<path fill="none" stroke="midnightblue" d="M26.25,-685.29C45.02,-607.43 113.65,-322.77 127.17,-266.65"/>
<polygon fill="midnightblue" stroke="midnightblue" points="22.8,-684.68 23.86,-695.23 29.6,-686.33 22.8,-684.68"/>
</g>
<!-- Node2 -->
<g id="node3" class="node">
<title>Node2</title>
<g id="a_node3"><a xlink:href="d4/dc1/classnap_1_1_a_p_i_web_socket_event.html" target="_top" xlink:title="APIWebSocketEvent">
<polygon fill="white" stroke="black" points="239.5,-885.5 239.5,-904.5 346.5,-904.5 346.5,-885.5 239.5,-885.5"/>
<text text-anchor="middle" x="293" y="-892.5" font-family="Helvetica,sans-Serif" font-size="10.00">APIWebSocketEvent</text>
</a>
</g>
</g>
<!-- Node1&#45;&gt;Node2 -->
<g id="edge2" class="edge">
<title>Node1&#45;&gt;Node2</title>
<path fill="none" stroke="midnightblue" d="M168.83,-895C189.77,-895 216.24,-895 239.28,-895"/>
<polygon fill="midnightblue" stroke="midnightblue" points="168.73,-891.5 158.73,-895 168.73,-898.5 168.73,-891.5"/>
</g>
<!-- Node7 -->
<g id="node8" class="node">
<title>Node7</title>
<g id="a_node8"><a xlink:href="d6/ded/classnap_1_1_controller_event.html" target="_top" xlink:title="ControllerEvent">
<polygon fill="white" stroke="black" points="252,-823.5 252,-842.5 334,-842.5 334,-823.5 252,-823.5"/>
<text text-anchor="middle" x="293" y="-830.5" font-family="Helvetica,sans-Serif" font-size="10.00">ControllerEvent</text>
</a>
</g>
</g>
<!-- Node6&#45;&gt;Node7 -->
<g id="edge7" class="edge">
<title>Node6&#45;&gt;Node7</title>
<path fill="none" stroke="midnightblue" d="M171.24,-756.25C175.61,-758.04 179.94,-759.97 184,-762 220.71,-780.39 260.13,-808.77 279.62,-823.46"/>
<polygon fill="midnightblue" stroke="midnightblue" points="172.31,-752.91 161.72,-752.57 169.78,-759.44 172.31,-752.91"/>
</g>
<!-- Node13 -->
<g id="node14" class="node">
<title>Node13</title>
<g id="a_node14"><a xlink:href="d6/d58/classnap_1_1_window_input_event.html" target="_top" xlink:title="WindowInputEvent">
<polygon fill="white" stroke="black" points="245,-728.5 245,-747.5 341,-747.5 341,-728.5 245,-728.5"/>
<text text-anchor="middle" x="293" y="-735.5" font-family="Helvetica,sans-Serif" font-size="10.00">WindowInputEvent</text>
</a>
</g>
</g>
<!-- Node6&#45;&gt;Node13 -->
<g id="edge13" class="edge">
<title>Node6&#45;&gt;Node13</title>
<path fill="none" stroke="midnightblue" d="M171.79,-741.74C194,-741.05 221.7,-740.19 244.91,-739.47"/>
<polygon fill="midnightblue" stroke="midnightblue" points="171.57,-738.25 161.69,-742.06 171.79,-745.25 171.57,-738.25"/>
</g>
<!-- Node8 -->
<g id="node9" class="node">
<title>Node8</title>
<g id="a_node9"><a xlink:href="da/dbd/classnap_1_1_controller_axis_event.html" target="_top" xlink:title="ControllerAxisEvent">
<polygon fill="white" stroke="black" points="426.5,-880.5 426.5,-899.5 527.5,-899.5 527.5,-880.5 426.5,-880.5"/>
<text text-anchor="middle" x="477" y="-887.5" font-family="Helvetica,sans-Serif" font-size="10.00">ControllerAxisEvent</text>
</a>
</g>
</g>
<!-- Node7&#45;&gt;Node8 -->
<g id="edge8" class="edge">
<title>Node7&#45;&gt;Node8</title>
<path fill="none" stroke="midnightblue" d="M328.59,-846.03C349.66,-853.76 377.21,-863.47 402,-871 413.04,-874.35 425.13,-877.62 436.27,-880.48"/>
<polygon fill="midnightblue" stroke="midnightblue" points="329.7,-842.71 319.11,-842.53 327.28,-849.28 329.7,-842.71"/>
</g>
<!-- Node9 -->
<g id="node10" class="node">
<title>Node9</title>
<g id="a_node10"><a xlink:href="d6/d31/classnap_1_1_controller_button_event.html" target="_top" xlink:title="ControllerButtonEvent">
<polygon fill="white" stroke="black" points="422,-842.5 422,-861.5 532,-861.5 532,-842.5 422,-842.5"/>
<text text-anchor="middle" x="477" y="-849.5" font-family="Helvetica,sans-Serif" font-size="10.00">ControllerButtonEvent</text>
</a>
</g>
</g>
<!-- Node7&#45;&gt;Node9 -->
<g id="edge9" class="edge">
<title>Node7&#45;&gt;Node9</title>
<path fill="none" stroke="midnightblue" d="M344.4,-838.26C368.49,-840.78 397.36,-843.79 421.91,-846.35"/>
<polygon fill="midnightblue" stroke="midnightblue" points="344.7,-834.77 334.39,-837.22 343.97,-841.74 344.7,-834.77"/>
</g>
<!-- Node12 -->
<g id="node13" class="node">
<title>Node12</title>
<g id="a_node13"><a xlink:href="d4/d9f/classnap_1_1_controller_connection_event.html" target="_top" xlink:title="ControllerConnectionEvent">
<polygon fill="white" stroke="black" points="411.5,-804.5 411.5,-823.5 542.5,-823.5 542.5,-804.5 411.5,-804.5"/>
<text text-anchor="middle" x="477" y="-811.5" font-family="Helvetica,sans-Serif" font-size="10.00">ControllerConnectionEvent</text>
</a>
</g>
</g>
<!-- Node7&#45;&gt;Node12 -->
<g id="edge12" class="edge">
<title>Node7&#45;&gt;Node12</title>
<path fill="none" stroke="midnightblue" d="M344.56,-827.72C365.25,-825.56 389.46,-823.03 411.42,-820.74"/>
<polygon fill="midnightblue" stroke="midnightblue" points="343.97,-824.26 334.39,-828.78 344.7,-831.23 343.97,-824.26"/>
</g>
<!-- Node10 -->
<g id="node11" class="node">
<title>Node10</title>
<g id="a_node11"><a xlink:href="d9/d4a/classnap_1_1_controller_button_press_event.html" target="_top" xlink:title="ControllerButtonPressEvent">
<polygon fill="white" stroke="black" points="593,-870.5 593,-889.5 729,-889.5 729,-870.5 593,-870.5"/>
<text text-anchor="middle" x="661" y="-877.5" font-family="Helvetica,sans-Serif" font-size="10.00">ControllerButtonPressEvent</text>
</a>
</g>
</g>
<!-- Node9&#45;&gt;Node10 -->
<g id="edge10" class="edge">
<title>Node9&#45;&gt;Node10</title>
<path fill="none" stroke="midnightblue" d="M542.04,-861.85C560.25,-864.65 580.03,-867.7 598.11,-870.48"/>
<polygon fill="midnightblue" stroke="midnightblue" points="542.53,-858.39 532.11,-860.33 541.46,-865.31 542.53,-858.39"/>
</g>
<!-- Node11 -->
<g id="node12" class="node">
<title>Node11</title>
<g id="a_node12"><a xlink:href="de/da1/classnap_1_1_controller_button_release_event.html" target="_top" xlink:title="ControllerButtonReleaseEvent">
<polygon fill="white" stroke="black" points="588,-832.5 588,-851.5 734,-851.5 734,-832.5 588,-832.5"/>
<text text-anchor="middle" x="661" y="-839.5" font-family="Helvetica,sans-Serif" font-size="10.00">ControllerButtonReleaseEvent</text>
</a>
</g>
</g>
<!-- Node9&#45;&gt;Node11 -->
<g id="edge11" class="edge">
<title>Node9&#45;&gt;Node11</title>
<path fill="none" stroke="midnightblue" d="M542.17,-848.47C556.96,-847.66 572.79,-846.79 587.89,-845.96"/>
<polygon fill="midnightblue" stroke="midnightblue" points="541.91,-844.98 532.11,-849.03 542.29,-851.97 541.91,-844.98"/>
</g>
<!-- Node14 -->
<g id="node15" class="node">
<title>Node14</title>
<g id="a_node15"><a xlink:href="d6/d0d/classnap_1_1_key_event.html" target="_top" xlink:title="KeyEvent">
<polygon fill="white" stroke="black" points="448,-766.5 448,-785.5 506,-785.5 506,-766.5 448,-766.5"/>
<text text-anchor="middle" x="477" y="-773.5" font-family="Helvetica,sans-Serif" font-size="10.00">KeyEvent</text>
</a>
</g>
</g>
<!-- Node13&#45;&gt;Node14 -->
<g id="edge14" class="edge">
<title>Node13&#45;&gt;Node14</title>
<path fill="none" stroke="midnightblue" d="M349.77,-749.64C382.28,-756.43 421.89,-764.7 447.97,-770.15"/>
<polygon fill="midnightblue" stroke="midnightblue" points="350.43,-746.21 339.93,-747.59 349,-753.06 350.43,-746.21"/>
</g>
<!-- Node17 -->
<g id="node18" class="node">
<title>Node17</title>
<g id="a_node18"><a xlink:href="d7/d77/classnap_1_1_mouse_wheel_event.html" target="_top" xlink:title="MouseWheelEvent">
<polygon fill="white" stroke="black" points="428,-728.5 428,-747.5 526,-747.5 526,-728.5 428,-728.5"/>
<text text-anchor="middle" x="477" y="-735.5" font-family="Helvetica,sans-Serif" font-size="10.00">MouseWheelEvent</text>
</a>
</g>
</g>
<!-- Node13&#45;&gt;Node17 -->
<g id="edge17" class="edge">
<title>Node13&#45;&gt;Node17</title>
<path fill="none" stroke="midnightblue" d="M351.62,-738C376.19,-738 404.53,-738 427.94,-738"/>
<polygon fill="midnightblue" stroke="midnightblue" points="351.34,-734.5 341.34,-738 351.34,-741.5 351.34,-734.5"/>
</g>
<!-- Node18 -->
<g id="node19" class="node">
<title>Node18</title>
<g id="a_node19"><a xlink:href="d3/d85/classnap_1_1_pointer_event.html" target="_top" xlink:title="PointerEvent">
<polygon fill="white" stroke="black" points="441.5,-690.5 441.5,-709.5 512.5,-709.5 512.5,-690.5 441.5,-690.5"/>
<text text-anchor="middle" x="477" y="-697.5" font-family="Helvetica,sans-Serif" font-size="10.00">PointerEvent</text>
</a>
</g>
</g>
<!-- Node13&#45;&gt;Node18 -->
<g id="edge18" class="edge">
<title>Node13&#45;&gt;Node18</title>
<path fill="none" stroke="midnightblue" d="M349.79,-726.35C379.64,-720.12 415.45,-712.64 441.29,-707.25"/>
<polygon fill="midnightblue" stroke="midnightblue" points="349,-722.94 339.93,-728.41 350.43,-729.79 349,-722.94"/>
</g>
<!-- Node23 -->
<g id="node24" class="node">
<title>Node23</title>
<g id="a_node24"><a xlink:href="d0/d66/classnap_1_1_text_input_event.html" target="_top" xlink:title="TextInputEvent">
<polygon fill="white" stroke="black" points="437,-652.5 437,-671.5 517,-671.5 517,-652.5 437,-652.5"/>
<text text-anchor="middle" x="477" y="-659.5" font-family="Helvetica,sans-Serif" font-size="10.00">TextInputEvent</text>
</a>
</g>
</g>
<!-- Node13&#45;&gt;Node23 -->
<g id="edge23" class="edge">
<title>Node13&#45;&gt;Node23</title>
<path fill="none" stroke="midnightblue" d="M318.29,-723.06C339.68,-710.42 372.02,-692.57 402,-681 413.01,-676.75 425.31,-673.16 436.67,-670.28"/>
<polygon fill="midnightblue" stroke="midnightblue" points="316.33,-720.15 309.55,-728.29 319.93,-726.16 316.33,-720.15"/>
</g>
<!-- Node15 -->
<g id="node16" class="node">
<title>Node15</title>
<g id="a_node16"><a xlink:href="d1/ddb/classnap_1_1_key_press_event.html" target="_top" xlink:title="KeyPressEvent">
<polygon fill="white" stroke="black" points="619.5,-775.5 619.5,-794.5 702.5,-794.5 702.5,-775.5 619.5,-775.5"/>
<text text-anchor="middle" x="661" y="-782.5" font-family="Helvetica,sans-Serif" font-size="10.00">KeyPressEvent</text>
</a>
</g>
</g>
<!-- Node14&#45;&gt;Node15 -->
<g id="edge15" class="edge">
<title>Node14&#45;&gt;Node15</title>
<path fill="none" stroke="midnightblue" d="M516.2,-777.89C546.44,-779.38 588.58,-781.47 619.42,-782.99"/>
<polygon fill="midnightblue" stroke="midnightblue" points="516.2,-774.38 506.04,-777.39 515.85,-781.38 516.2,-774.38"/>
</g>
<!-- Node16 -->
<g id="node17" class="node">
<title>Node16</title>
<g id="a_node17"><a xlink:href="d6/d2d/classnap_1_1_key_release_event.html" target="_top" xlink:title="KeyReleaseEvent">
<polygon fill="white" stroke="black" points="614.5,-737.5 614.5,-756.5 707.5,-756.5 707.5,-737.5 614.5,-737.5"/>
<text text-anchor="middle" x="661" y="-744.5" font-family="Helvetica,sans-Serif" font-size="10.00">KeyReleaseEvent</text>
</a>
</g>
</g>
<!-- Node14&#45;&gt;Node16 -->
<g id="edge16" class="edge">
<title>Node14&#45;&gt;Node16</title>
<path fill="none" stroke="midnightblue" d="M516.05,-769.94C544.64,-765.38 583.92,-759.12 614.22,-754.29"/>
<polygon fill="midnightblue" stroke="midnightblue" points="515.36,-766.5 506.04,-771.53 516.46,-773.42 515.36,-766.5"/>
</g>
<!-- Node19 -->
<g id="node20" class="node">
<title>Node19</title>
<g id="a_node20"><a xlink:href="dd/d3f/classnap_1_1_pointer_click_event.html" target="_top" xlink:title="PointerClickEvent">
<polygon fill="white" stroke="black" points="614.5,-694.5 614.5,-713.5 707.5,-713.5 707.5,-694.5 614.5,-694.5"/>
<text text-anchor="middle" x="661" y="-701.5" font-family="Helvetica,sans-Serif" font-size="10.00">PointerClickEvent</text>
</a>
</g>
</g>
<!-- Node18&#45;&gt;Node19 -->
<g id="edge19" class="edge">
<title>Node18&#45;&gt;Node19</title>
<path fill="none" stroke="midnightblue" d="M522.92,-700.99C550.78,-701.6 586.47,-702.38 614.45,-703"/>
<polygon fill="midnightblue" stroke="midnightblue" points="522.74,-697.48 512.66,-700.76 522.58,-704.48 522.74,-697.48"/>
</g>
<!-- Node22 -->
<g id="node23" class="node">
<title>Node22</title>
<g id="a_node23"><a xlink:href="d0/d87/classnap_1_1_pointer_move_event.html" target="_top" xlink:title="PointerMoveEvent">
<polygon fill="white" stroke="black" points="614,-656.5 614,-675.5 708,-675.5 708,-656.5 614,-656.5"/>
<text text-anchor="middle" x="661" y="-663.5" font-family="Helvetica,sans-Serif" font-size="10.00">PointerMoveEvent</text>
</a>
</g>
</g>
<!-- Node18&#45;&gt;Node22 -->
<g id="edge22" class="edge">
<title>Node18&#45;&gt;Node22</title>
<path fill="none" stroke="midnightblue" d="M522.85,-691.62C550.49,-686.46 585.87,-679.85 613.77,-674.64"/>
<polygon fill="midnightblue" stroke="midnightblue" points="521.85,-688.25 512.66,-693.52 523.13,-695.13 521.85,-688.25"/>
</g>
<!-- Node20 -->
<g id="node21" class="node">
<title>Node20</title>
<g id="a_node21"><a xlink:href="d5/dfd/classnap_1_1_pointer_press_event.html" target="_top" xlink:title="PointerPressEvent">
<polygon fill="white" stroke="black" points="775,-713.5 775,-732.5 872,-732.5 872,-713.5 775,-713.5"/>
<text text-anchor="middle" x="823.5" y="-720.5" font-family="Helvetica,sans-Serif" font-size="10.00">PointerPressEvent</text>
</a>
</g>
</g>
<!-- Node19&#45;&gt;Node20 -->
<g id="edge20" class="edge">
<title>Node19&#45;&gt;Node20</title>
<path fill="none" stroke="midnightblue" d="M717.68,-710.59C736.32,-712.8 756.9,-715.23 774.86,-717.36"/>
<polygon fill="midnightblue" stroke="midnightblue" points="717.91,-707.09 707.56,-709.39 717.08,-714.05 717.91,-707.09"/>
</g>
<!-- Node21 -->
<g id="node22" class="node">
<title>Node21</title>
<g id="a_node22"><a xlink:href="de/d98/classnap_1_1_pointer_release_event.html" target="_top" xlink:title="PointerReleaseEvent">
<polygon fill="white" stroke="black" points="770,-675.5 770,-694.5 877,-694.5 877,-675.5 770,-675.5"/>
<text text-anchor="middle" x="823.5" y="-682.5" font-family="Helvetica,sans-Serif" font-size="10.00">PointerReleaseEvent</text>
</a>
</g>
</g>
<!-- Node19&#45;&gt;Node21 -->
<g id="edge21" class="edge">
<title>Node19&#45;&gt;Node21</title>
<path fill="none" stroke="midnightblue" d="M717.82,-697.39C734.66,-695.4 753.09,-693.22 769.73,-691.25"/>
<polygon fill="midnightblue" stroke="midnightblue" points="717.08,-693.95 707.56,-698.61 717.91,-700.91 717.08,-693.95"/>
</g>
<!-- Node28 -->
<g id="node29" class="node">
<title>Node28</title>
<g id="a_node29"><a xlink:href="de/d60/classnap_1_1_sequence_event.html" target="_top" xlink:title="SequenceEvent\&lt; T \&gt;">
<polygon fill="white" stroke="black" points="239.5,-585.5 239.5,-604.5 346.5,-604.5 346.5,-585.5 239.5,-585.5"/>
<text text-anchor="middle" x="293" y="-592.5" font-family="Helvetica,sans-Serif" font-size="10.00">SequenceEvent&lt; T &gt;</text>
</a>
</g>
</g>
<!-- Node27&#45;&gt;Node28 -->
<g id="edge28" class="edge">
<title>Node27&#45;&gt;Node28</title>
<path fill="none" stroke="midnightblue" d="M194.22,-592.56C209.14,-592.93 224.91,-593.33 239.33,-593.69"/>
<polygon fill="midnightblue" stroke="midnightblue" points="194.14,-589.06 184.05,-592.31 193.96,-596.06 194.14,-589.06"/>
</g>
<!-- Node30 -->
<g id="node31" class="node">
<title>Node30</title>
<g id="a_node31"><a xlink:href="de/d42/classnap_1_1_web_socket_connection_event.html" target="_top" xlink:title="WebSocketConnectionEvent">
<polygon fill="white" stroke="black" points="223,-547.5 223,-566.5 363,-566.5 363,-547.5 223,-547.5"/>
<text text-anchor="middle" x="293" y="-554.5" font-family="Helvetica,sans-Serif" font-size="10.00">WebSocketConnectionEvent</text>
</a>
</g>
</g>
<!-- Node29&#45;&gt;Node30 -->
<g id="edge30" class="edge">
<title>Node29&#45;&gt;Node30</title>
<path fill="none" stroke="midnightblue" d="M186.66,-554.37C198.34,-554.67 210.8,-554.98 222.91,-555.28"/>
<polygon fill="midnightblue" stroke="midnightblue" points="186.72,-550.88 176.64,-554.12 186.54,-557.87 186.72,-550.88"/>
</g>
<!-- Node34 -->
<g id="node35" class="node">
<title>Node34</title>
<g id="a_node35"><a xlink:href="d6/dd9/classnap_1_1_web_socket_message_received_event.html" target="_top" xlink:title="WebSocketMessageReceived\lEvent">
<polygon fill="white" stroke="black" points="220,-498 220,-528 366,-528 366,-498 220,-498"/>
<text text-anchor="start" x="228" y="-516" font-family="Helvetica,sans-Serif" font-size="10.00">WebSocketMessageReceived</text>
<text text-anchor="middle" x="293" y="-505" font-family="Helvetica,sans-Serif" font-size="10.00">Event</text>
</a>
</g>
</g>
<!-- Node29&#45;&gt;Node34 -->
<g id="edge34" class="edge">
<title>Node29&#45;&gt;Node34</title>
<path fill="none" stroke="midnightblue" d="M179.79,-540.96C196.09,-536.9 214.5,-532.31 231.62,-528.05"/>
<polygon fill="midnightblue" stroke="midnightblue" points="178.8,-537.6 169.94,-543.42 180.49,-544.4 178.8,-537.6"/>
</g>
<!-- Node31 -->
<g id="node32" class="node">
<title>Node31</title>
<g id="a_node32"><a xlink:href="df/ddd/classnap_1_1_web_socket_connection_closed_event.html" target="_top" xlink:title="WebSocketConnectionClosed\lEvent">
<polygon fill="white" stroke="black" points="404,-593 404,-623 550,-623 550,-593 404,-593"/>
<text text-anchor="start" x="412" y="-611" font-family="Helvetica,sans-Serif" font-size="10.00">WebSocketConnectionClosed</text>
<text text-anchor="middle" x="477" y="-600" font-family="Helvetica,sans-Serif" font-size="10.00">Event</text>
</a>
</g>
</g>
<!-- Node30&#45;&gt;Node31 -->
<g id="edge31" class="edge">
<title>Node30&#45;&gt;Node31</title>
<path fill="none" stroke="midnightblue" d="M340.75,-569.16C349.17,-571.39 357.85,-573.74 366,-576 385.45,-581.4 406.77,-587.54 425.42,-593"/>
<polygon fill="midnightblue" stroke="midnightblue" points="341.61,-565.76 331.05,-566.59 339.82,-572.53 341.61,-565.76"/>
</g>
<!-- Node32 -->
<g id="node33" class="node">
<title>Node32</title>
<g id="a_node33"><a xlink:href="df/dd1/classnap_1_1_web_socket_connection_failed_event.html" target="_top" xlink:title="WebSocketConnectionFailed\lEvent">
<polygon fill="white" stroke="black" points="405.5,-544 405.5,-574 548.5,-574 548.5,-544 405.5,-544"/>
<text text-anchor="start" x="413.5" y="-562" font-family="Helvetica,sans-Serif" font-size="10.00">WebSocketConnectionFailed</text>
<text text-anchor="middle" x="477" y="-551" font-family="Helvetica,sans-Serif" font-size="10.00">Event</text>
</a>
</g>
</g>
<!-- Node30&#45;&gt;Node32 -->
<g id="edge32" class="edge">
<title>Node30&#45;&gt;Node32</title>
<path fill="none" stroke="midnightblue" d="M373.26,-557.87C383.98,-557.99 394.92,-558.11 405.47,-558.22"/>
<polygon fill="midnightblue" stroke="midnightblue" points="373.1,-554.37 363.07,-557.76 373.03,-561.37 373.1,-554.37"/>
</g>
<!-- Node33 -->
<g id="node34" class="node">
<title>Node33</title>
<g id="a_node34"><a xlink:href="d1/d76/classnap_1_1_web_socket_connection_opened_event.html" target="_top" xlink:title="WebSocketConnectionOpened\lEvent">
<polygon fill="white" stroke="black" points="402,-495 402,-525 552,-525 552,-495 402,-495"/>
<text text-anchor="start" x="410" y="-513" font-family="Helvetica,sans-Serif" font-size="10.00">WebSocketConnectionOpened</text>
<text text-anchor="middle" x="477" y="-502" font-family="Helvetica,sans-Serif" font-size="10.00">Event</text>
</a>
</g>
</g>
<!-- Node30&#45;&gt;Node33 -->
<g id="edge33" class="edge">
<title>Node30&#45;&gt;Node33</title>
<path fill="none" stroke="midnightblue" d="M340.55,-544.98C364.05,-538.91 392.78,-531.49 417.73,-525.05"/>
<polygon fill="midnightblue" stroke="midnightblue" points="339.64,-541.6 330.83,-547.49 341.39,-548.38 339.64,-541.6"/>
</g>
<!-- Node36 -->
<g id="node37" class="node">
<title>Node36</title>
<g id="a_node37"><a xlink:href="d3/d68/classnap_1_1_parameterized_window_event.html" target="_top" xlink:title="ParameterizedWindowEvent">
<polygon fill="white" stroke="black" points="224,-456.5 224,-475.5 362,-475.5 362,-456.5 224,-456.5"/>
<text text-anchor="middle" x="293" y="-463.5" font-family="Helvetica,sans-Serif" font-size="10.00">ParameterizedWindowEvent</text>
</a>
</g>
</g>
<!-- Node35&#45;&gt;Node36 -->
<g id="edge36" class="edge">
<title>Node35&#45;&gt;Node36</title>
<path fill="none" stroke="midnightblue" d="M134.94,-276.6C142.76,-315.27 165.63,-401.53 220,-447 224.66,-450.9 230.04,-454 235.71,-456.48"/>
<polygon fill="midnightblue" stroke="midnightblue" points="138.35,-275.8 133.04,-266.63 131.47,-277.11 138.35,-275.8"/>
</g>
<!-- Node39 -->
<g id="node40" class="node">
<title>Node39</title>
<g id="a_node40"><a xlink:href="df/dc6/classnap_1_1_window_close_event.html" target="_top" xlink:title="WindowCloseEvent">
<polygon fill="white" stroke="black" points="243,-418.5 243,-437.5 343,-437.5 343,-418.5 243,-418.5"/>
<text text-anchor="middle" x="293" y="-425.5" font-family="Helvetica,sans-Serif" font-size="10.00">WindowCloseEvent</text>
</a>
</g>
</g>
<!-- Node35&#45;&gt;Node39 -->
<g id="edge39" class="edge">
<title>Node35&#45;&gt;Node39</title>
<path fill="none" stroke="midnightblue" d="M137.29,-276.23C148.07,-308.71 174.38,-374.26 220,-409 226.69,-414.09 234.62,-417.82 242.73,-420.55"/>
<polygon fill="midnightblue" stroke="midnightblue" points="140.58,-275.05 134.22,-266.58 133.91,-277.17 140.58,-275.05"/>
</g>
<!-- Node40 -->
<g id="node41" class="node">
<title>Node40</title>
<g id="a_node41"><a xlink:href="d7/d03/classnap_1_1_window_enter_event.html" target="_top" xlink:title="WindowEnterEvent">
<polygon fill="white" stroke="black" points="244,-380.5 244,-399.5 342,-399.5 342,-380.5 244,-380.5"/>
<text text-anchor="middle" x="293" y="-387.5" font-family="Helvetica,sans-Serif" font-size="10.00">WindowEnterEvent</text>
</a>
</g>
</g>
<!-- Node35&#45;&gt;Node40 -->
<g id="edge40" class="edge">
<title>Node35&#45;&gt;Node40</title>
<path fill="none" stroke="midnightblue" d="M140.91,-275.69C154.72,-301.18 182.92,-346.47 220,-371 227.12,-375.71 235.35,-379.25 243.65,-381.92"/>
<polygon fill="midnightblue" stroke="midnightblue" points="143.93,-273.91 136.18,-266.68 137.73,-277.16 143.93,-273.91"/>
</g>
<!-- Node41 -->
<g id="node42" class="node">
<title>Node41</title>
<g id="a_node42"><a xlink:href="d4/d8b/classnap_1_1_window_exposed_event.html" target="_top" xlink:title="WindowExposedEvent">
<polygon fill="white" stroke="black" points="236.5,-342.5 236.5,-361.5 349.5,-361.5 349.5,-342.5 236.5,-342.5"/>
<text text-anchor="middle" x="293" y="-349.5" font-family="Helvetica,sans-Serif" font-size="10.00">WindowExposedEvent</text>
</a>
</g>
</g>
<!-- Node35&#45;&gt;Node41 -->
<g id="edge41" class="edge">
<title>Node35&#45;&gt;Node41</title>
<path fill="none" stroke="midnightblue" d="M147.18,-274.46C163.67,-291.78 191.19,-317.86 220,-333 227.32,-336.85 235.49,-339.96 243.61,-342.46"/>
<polygon fill="midnightblue" stroke="midnightblue" points="149.39,-271.69 140.02,-266.75 144.26,-276.46 149.39,-271.69"/>
</g>
<!-- Node42 -->
<g id="node43" class="node">
<title>Node42</title>
<g id="a_node43"><a xlink:href="db/d67/classnap_1_1_window_focus_gained_event.html" target="_top" xlink:title="WindowFocusGainedEvent">
<polygon fill="white" stroke="black" points="226.5,-304.5 226.5,-323.5 359.5,-323.5 359.5,-304.5 226.5,-304.5"/>
<text text-anchor="middle" x="293" y="-311.5" font-family="Helvetica,sans-Serif" font-size="10.00">WindowFocusGainedEvent</text>
</a>
</g>
</g>
<!-- Node35&#45;&gt;Node42 -->
<g id="edge42" class="edge">
<title>Node35&#45;&gt;Node42</title>
<path fill="none" stroke="midnightblue" d="M160.95,-270.94C177.96,-278.67 199.91,-288.08 220,-295 230.14,-298.5 241.28,-301.72 251.7,-304.49"/>
<polygon fill="midnightblue" stroke="midnightblue" points="162.1,-267.62 151.55,-266.62 159.18,-273.98 162.1,-267.62"/>
</g>
<!-- Node43 -->
<g id="node44" class="node">
<title>Node43</title>
<g id="a_node44"><a xlink:href="d1/d41/classnap_1_1_window_focus_lost_event.html" target="_top" xlink:title="WindowFocusLostEvent">
<polygon fill="white" stroke="black" points="232.5,-266.5 232.5,-285.5 353.5,-285.5 353.5,-266.5 232.5,-266.5"/>
<text text-anchor="middle" x="293" y="-273.5" font-family="Helvetica,sans-Serif" font-size="10.00">WindowFocusLostEvent</text>
</a>
</g>
</g>
<!-- Node35&#45;&gt;Node43 -->
<g id="edge43" class="edge">
<title>Node35&#45;&gt;Node43</title>
<path fill="none" stroke="midnightblue" d="M178.48,-262.56C195.35,-264.56 214.59,-266.84 232.39,-268.94"/>
<polygon fill="midnightblue" stroke="midnightblue" points="178.66,-259.06 168.32,-261.36 177.84,-266.01 178.66,-259.06"/>
</g>
<!-- Node44 -->
<g id="node45" class="node">
<title>Node44</title>
<g id="a_node45"><a xlink:href="dc/d3b/classnap_1_1_window_hidden_event.html" target="_top" xlink:title="WindowHiddenEvent">
<polygon fill="white" stroke="black" points="240.5,-228.5 240.5,-247.5 345.5,-247.5 345.5,-228.5 240.5,-228.5"/>
<text text-anchor="middle" x="293" y="-235.5" font-family="Helvetica,sans-Serif" font-size="10.00">WindowHiddenEvent</text>
</a>
</g>
</g>
<!-- Node35&#45;&gt;Node44 -->
<g id="edge44" class="edge">
<title>Node35&#45;&gt;Node44</title>
<path fill="none" stroke="midnightblue" d="M178.47,-251.44C197.92,-249.14 220.54,-246.46 240.45,-244.1"/>
<polygon fill="midnightblue" stroke="midnightblue" points="177.84,-247.99 168.32,-252.64 178.66,-254.94 177.84,-247.99"/>
</g>
<!-- Node45 -->
<g id="node46" class="node">
<title>Node45</title>
<g id="a_node46"><a xlink:href="da/d55/classnap_1_1_window_leave_event.html" target="_top" xlink:title="WindowLeaveEvent">
<polygon fill="white" stroke="black" points="243,-190.5 243,-209.5 343,-209.5 343,-190.5 243,-190.5"/>
<text text-anchor="middle" x="293" y="-197.5" font-family="Helvetica,sans-Serif" font-size="10.00">WindowLeaveEvent</text>
</a>
</g>
</g>
<!-- Node35&#45;&gt;Node45 -->
<g id="edge45" class="edge">
<title>Node35&#45;&gt;Node45</title>
<path fill="none" stroke="midnightblue" d="M160.95,-243.06C177.96,-235.33 199.91,-225.92 220,-219 230.14,-215.5 241.28,-212.28 251.7,-209.51"/>
<polygon fill="midnightblue" stroke="midnightblue" points="159.18,-240.02 151.55,-247.38 162.1,-246.38 159.18,-240.02"/>
</g>
<!-- Node46 -->
<g id="node47" class="node">
<title>Node46</title>
<g id="a_node47"><a xlink:href="d7/d6a/classnap_1_1_window_maximized_event.html" target="_top" xlink:title="WindowMaximizedEvent">
<polygon fill="white" stroke="black" points="232,-152.5 232,-171.5 354,-171.5 354,-152.5 232,-152.5"/>
<text text-anchor="middle" x="293" y="-159.5" font-family="Helvetica,sans-Serif" font-size="10.00">WindowMaximizedEvent</text>
</a>
</g>
</g>
<!-- Node35&#45;&gt;Node46 -->
<g id="edge46" class="edge">
<title>Node35&#45;&gt;Node46</title>
<path fill="none" stroke="midnightblue" d="M147.18,-239.54C163.67,-222.22 191.19,-196.14 220,-181 227.32,-177.15 235.49,-174.04 243.61,-171.54"/>
<polygon fill="midnightblue" stroke="midnightblue" points="144.26,-237.54 140.02,-247.25 149.39,-242.31 144.26,-237.54"/>
</g>
<!-- Node47 -->
<g id="node48" class="node">
<title>Node47</title>
<g id="a_node48"><a xlink:href="d0/db2/classnap_1_1_window_minimized_event.html" target="_top" xlink:title="WindowMinimizedEvent">
<polygon fill="white" stroke="black" points="233.5,-114.5 233.5,-133.5 352.5,-133.5 352.5,-114.5 233.5,-114.5"/>
<text text-anchor="middle" x="293" y="-121.5" font-family="Helvetica,sans-Serif" font-size="10.00">WindowMinimizedEvent</text>
</a>
</g>
</g>
<!-- Node35&#45;&gt;Node47 -->
<g id="edge47" class="edge">
<title>Node35&#45;&gt;Node47</title>
<path fill="none" stroke="midnightblue" d="M140.91,-238.31C154.72,-212.82 182.92,-167.53 220,-143 225.82,-139.15 232.39,-136.08 239.14,-133.63"/>
<polygon fill="midnightblue" stroke="midnightblue" points="137.73,-236.84 136.18,-247.32 143.93,-240.09 137.73,-236.84"/>
</g>
<!-- Node48 -->
<g id="node49" class="node">
<title>Node48</title>
<g id="a_node49"><a xlink:href="d3/d8c/classnap_1_1_window_restored_event.html" target="_top" xlink:title="WindowRestoredEvent">
<polygon fill="white" stroke="black" points="236,-76.5 236,-95.5 350,-95.5 350,-76.5 236,-76.5"/>
<text text-anchor="middle" x="293" y="-83.5" font-family="Helvetica,sans-Serif" font-size="10.00">WindowRestoredEvent</text>
</a>
</g>
</g>
<!-- Node35&#45;&gt;Node48 -->
<g id="edge48" class="edge">
<title>Node35&#45;&gt;Node48</title>
<path fill="none" stroke="midnightblue" d="M137.29,-237.77C148.07,-205.29 174.38,-139.74 220,-105 225.14,-101.08 231.02,-97.97 237.16,-95.5"/>
<polygon fill="midnightblue" stroke="midnightblue" points="133.91,-236.83 134.22,-247.42 140.58,-238.95 133.91,-236.83"/>
</g>
<!-- Node49 -->
<g id="node50" class="node">
<title>Node49</title>
<g id="a_node50"><a xlink:href="dd/d16/classnap_1_1_window_shown_event.html" target="_top" xlink:title="WindowShownEvent">
<polygon fill="white" stroke="black" points="241,-38.5 241,-57.5 345,-57.5 345,-38.5 241,-38.5"/>
<text text-anchor="middle" x="293" y="-45.5" font-family="Helvetica,sans-Serif" font-size="10.00">WindowShownEvent</text>
</a>
</g>
</g>
<!-- Node35&#45;&gt;Node49 -->
<g id="edge49" class="edge">
<title>Node35&#45;&gt;Node49</title>
<path fill="none" stroke="midnightblue" d="M134.94,-237.4C142.76,-198.73 165.63,-112.47 220,-67 226.05,-61.94 233.3,-58.21 240.85,-55.47"/>
<polygon fill="midnightblue" stroke="midnightblue" points="131.47,-236.89 133.04,-247.37 138.35,-238.2 131.47,-236.89"/>
</g>
<!-- Node50 -->
<g id="node51" class="node">
<title>Node50</title>
<g id="a_node51"><a xlink:href="db/d02/classnap_1_1_window_take_focus_event.html" target="_top" xlink:title="WindowTakeFocusEvent">
<polygon fill="white" stroke="black" points="231.5,-0.5 231.5,-19.5 354.5,-19.5 354.5,-0.5 231.5,-0.5"/>
<text text-anchor="middle" x="293" y="-7.5" font-family="Helvetica,sans-Serif" font-size="10.00">WindowTakeFocusEvent</text>
</a>
</g>
</g>
<!-- Node35&#45;&gt;Node50 -->
<g id="edge50" class="edge">
<title>Node35&#45;&gt;Node50</title>
<path fill="none" stroke="midnightblue" d="M133.22,-237.52C138.18,-193.5 156.51,-85.74 220,-29 224.34,-25.12 229.38,-22.02 234.73,-19.55"/>
<polygon fill="midnightblue" stroke="midnightblue" points="129.74,-237.19 132.21,-247.5 136.7,-237.9 129.74,-237.19"/>
</g>
<!-- Node37 -->
<g id="node38" class="node">
<title>Node37</title>
<g id="a_node38"><a xlink:href="d8/d4b/classnap_1_1_window_moved_event.html" target="_top" xlink:title="WindowMovedEvent">
<polygon fill="white" stroke="black" points="425.5,-456.5 425.5,-475.5 528.5,-475.5 528.5,-456.5 425.5,-456.5"/>
<text text-anchor="middle" x="477" y="-463.5" font-family="Helvetica,sans-Serif" font-size="10.00">WindowMovedEvent</text>
</a>
</g>
</g>
<!-- Node36&#45;&gt;Node37 -->
<g id="edge37" class="edge">
<title>Node36&#45;&gt;Node37</title>
<path fill="none" stroke="midnightblue" d="M372.23,-466C390.24,-466 408.92,-466 425.39,-466"/>
<polygon fill="midnightblue" stroke="midnightblue" points="372.03,-462.5 362.03,-466 372.03,-469.5 372.03,-462.5"/>
</g>
<!-- Node38 -->
<g id="node39" class="node">
<title>Node38</title>
<g id="a_node39"><a xlink:href="d7/da9/classnap_1_1_window_resized_event.html" target="_top" xlink:title="WindowResizedEvent">
<polygon fill="white" stroke="black" points="422,-418.5 422,-437.5 532,-437.5 532,-418.5 422,-418.5"/>
<text text-anchor="middle" x="477" y="-425.5" font-family="Helvetica,sans-Serif" font-size="10.00">WindowResizedEvent</text>
</a>
</g>
</g>
<!-- Node36&#45;&gt;Node38 -->
<g id="edge38" class="edge">
<title>Node36&#45;&gt;Node38</title>
<path fill="none" stroke="midnightblue" d="M349.95,-454.32C375.76,-448.93 406.01,-442.61 430.4,-437.52"/>
<polygon fill="midnightblue" stroke="midnightblue" points="349,-450.94 339.93,-456.41 350.43,-457.79 349,-450.94"/>
</g>
</g>
</svg>
