<?xml version="1.0" encoding="UTF-8" standalone="no"?>
<!DOCTYPE svg PUBLIC "-//W3C//DTD SVG 1.1//EN"
 "http://www.w3.org/Graphics/SVG/1.1/DTD/svg11.dtd">
<!-- Generated by graphviz version 2.48.0 (20210717.1556)
 -->
<!-- Title: Graphical Class Hierarchy Pages: 1 -->
<svg width="364pt" height="66pt"
 viewBox="0.00 0.00 364.00 66.00" xmlns="http://www.w3.org/2000/svg" xmlns:xlink="http://www.w3.org/1999/xlink">
<g id="graph0" class="graph" transform="scale(1 1) rotate(0) translate(4 62)">
<title>Graphical Class Hierarchy</title>
<polygon fill="white" stroke="transparent" points="-4,4 -4,-62 360,-62 360,4 -4,4"/>
<!-- Node0 -->
<g id="node1" class="node">
<title>Node0</title>
<g id="a_node1"><a xlink:href="df/d7a/classnap_1_1_base_material_instance_resource.html" target="_top" xlink:title="BaseMaterialInstanceResource">
<polygon fill="white" stroke="black" points="0,-19.5 0,-38.5 152,-38.5 152,-19.5 0,-19.5"/>
<text text-anchor="middle" x="76" y="-26.5" font-family="Helvetica,sans-Serif" font-size="10.00">BaseMaterialInstanceResource</text>
</a>
</g>
</g>
<!-- Node1 -->
<g id="node2" class="node">
<title>Node1</title>
<g id="a_node2"><a xlink:href="d9/d09/classnap_1_1_compute_material_instance_resource.html" target="_top" xlink:title="ComputeMaterialInstanceResource">
<polygon fill="white" stroke="black" points="188,-38.5 188,-57.5 356,-57.5 356,-38.5 188,-38.5"/>
<text text-anchor="middle" x="272" y="-45.5" font-family="Helvetica,sans-Serif" font-size="10.00">ComputeMaterialInstanceResource</text>
</a>
</g>
</g>
<!-- Node0&#45;&gt;Node1 -->
<g id="edge1" class="edge">
<title>Node0&#45;&gt;Node1</title>
<path fill="none" stroke="midnightblue" d="M161.99,-37.32C170.56,-38.16 179.26,-39.02 187.81,-39.85"/>
<polygon fill="midnightblue" stroke="midnightblue" points="162.3,-33.84 152.01,-36.35 161.62,-40.8 162.3,-33.84"/>
</g>
<!-- Node2 -->
<g id="node3" class="node">
<title>Node2</title>
<g id="a_node3"><a xlink:href="d6/d4f/classnap_1_1_material_instance_resource.html" target="_top" xlink:title="MaterialInstanceResource">
<polygon fill="white" stroke="black" points="207.5,-0.5 207.5,-19.5 336.5,-19.5 336.5,-0.5 207.5,-0.5"/>
<text text-anchor="middle" x="272" y="-7.5" font-family="Helvetica,sans-Serif" font-size="10.00">MaterialInstanceResource</text>
</a>
</g>
</g>
<!-- Node0&#45;&gt;Node2 -->
<g id="edge2" class="edge">
<title>Node0&#45;&gt;Node2</title>
<path fill="none" stroke="midnightblue" d="M162.36,-20.64C177.43,-19.16 192.88,-17.65 207.22,-16.25"/>
<polygon fill="midnightblue" stroke="midnightblue" points="161.62,-17.2 152.01,-21.65 162.3,-24.16 161.62,-17.2"/>
</g>
</g>
</svg>
