<?xml version="1.0" encoding="UTF-8" standalone="no"?>
<!DOCTYPE svg PUBLIC "-//W3C//DTD SVG 1.1//EN"
 "http://www.w3.org/Graphics/SVG/1.1/DTD/svg11.dtd">
<!-- Generated by graphviz version 2.48.0 (20210717.1556)
 -->
<!-- Title: Graphical Class Hierarchy Pages: 1 -->
<svg width="312pt" height="323pt"
 viewBox="0.00 0.00 312.00 322.50" xmlns="http://www.w3.org/2000/svg" xmlns:xlink="http://www.w3.org/1999/xlink">
<g id="graph0" class="graph" transform="scale(1 1) rotate(0) translate(4 318.5)">
<title>Graphical Class Hierarchy</title>
<polygon fill="white" stroke="transparent" points="-4,4 -4,-318.5 308,-318.5 308,4 -4,4"/>
<!-- Node0 -->
<g id="node1" class="node">
<title>Node0</title>
<g id="a_node1"><a xlink:href="da/d10/classnap_1_1_component_ptr_base.html" target="_top" xlink:title="ComponentPtrBase">
<polygon fill="white" stroke="black" points="0,-142.5 0,-161.5 101,-161.5 101,-142.5 0,-142.5"/>
<text text-anchor="middle" x="50.5" y="-149.5" font-family="Helvetica,sans-Serif" font-size="10.00">ComponentPtrBase</text>
</a>
</g>
</g>
<!-- Node1 -->
<g id="node2" class="node">
<title>Node1</title>
<g id="a_node2"><a xlink:href="d1/dcd/classnap_1_1_component_ptr.html" target="_top" xlink:title="ComponentPtr\&lt; nap::\laudio::AudioComponentBase \&gt;">
<polygon fill="white" stroke="black" points="144.5,-284 144.5,-314 296.5,-314 296.5,-284 144.5,-284"/>
<text text-anchor="start" x="152.5" y="-302" font-family="Helvetica,sans-Serif" font-size="10.00">ComponentPtr&lt; nap::</text>
<text text-anchor="middle" x="220.5" y="-291" font-family="Helvetica,sans-Serif" font-size="10.00">audio::AudioComponentBase &gt;</text>
</a>
</g>
</g>
<!-- Node0&#45;&gt;Node1 -->
<g id="edge1" class="edge">
<title>Node0&#45;&gt;Node1</title>
<path fill="none" stroke="midnightblue" d="M59.58,-170.86C72.16,-197.97 98.99,-247.68 137,-275 141.72,-278.4 146.92,-281.31 152.34,-283.82"/>
<polygon fill="midnightblue" stroke="midnightblue" points="62.75,-169.37 55.46,-161.67 56.36,-172.23 62.75,-169.37"/>
</g>
<!-- Node2 -->
<g id="node3" class="node">
<title>Node2</title>
<g id="a_node3"><a xlink:href="d1/dcd/classnap_1_1_component_ptr.html" target="_top" xlink:title="ComponentPtr\&lt; nap::\lComponent \&gt;">
<polygon fill="white" stroke="black" points="165.5,-235 165.5,-265 275.5,-265 275.5,-235 165.5,-235"/>
<text text-anchor="start" x="173.5" y="-253" font-family="Helvetica,sans-Serif" font-size="10.00">ComponentPtr&lt; nap::</text>
<text text-anchor="middle" x="220.5" y="-242" font-family="Helvetica,sans-Serif" font-size="10.00">Component &gt;</text>
</a>
</g>
</g>
<!-- Node0&#45;&gt;Node2 -->
<g id="edge2" class="edge">
<title>Node0&#45;&gt;Node2</title>
<path fill="none" stroke="midnightblue" d="M66.96,-169.13C82.96,-185.88 109.44,-211 137,-226 145.78,-230.78 155.61,-234.7 165.35,-237.88"/>
<polygon fill="midnightblue" stroke="midnightblue" points="69.37,-166.58 59.99,-161.66 64.25,-171.36 69.37,-166.58"/>
</g>
<!-- Node3 -->
<g id="node4" class="node">
<title>Node3</title>
<g id="a_node4"><a xlink:href="d1/dcd/classnap_1_1_component_ptr.html" target="_top" xlink:title="ComponentPtr\&lt; nap::\lCVCaptureComponent \&gt;">
<polygon fill="white" stroke="black" points="159.5,-186 159.5,-216 281.5,-216 281.5,-186 159.5,-186"/>
<text text-anchor="start" x="167.5" y="-204" font-family="Helvetica,sans-Serif" font-size="10.00">ComponentPtr&lt; nap::</text>
<text text-anchor="middle" x="220.5" y="-193" font-family="Helvetica,sans-Serif" font-size="10.00">CVCaptureComponent &gt;</text>
</a>
</g>
</g>
<!-- Node0&#45;&gt;Node3 -->
<g id="edge3" class="edge">
<title>Node0&#45;&gt;Node3</title>
<path fill="none" stroke="midnightblue" d="M93.7,-164.35C107.5,-168.39 122.9,-172.89 137,-177 146.88,-179.88 157.43,-182.95 167.57,-185.9"/>
<polygon fill="midnightblue" stroke="midnightblue" points="94.56,-160.96 83.98,-161.51 92.59,-167.67 94.56,-160.96"/>
</g>
<!-- Node4 -->
<g id="node5" class="node">
<title>Node4</title>
<g id="a_node5"><a xlink:href="d1/dcd/classnap_1_1_component_ptr.html" target="_top" xlink:title="ComponentPtr\&lt; nap::\lOrthoCameraComponent \&gt;">
<polygon fill="white" stroke="black" points="154,-137 154,-167 287,-167 287,-137 154,-137"/>
<text text-anchor="start" x="162" y="-155" font-family="Helvetica,sans-Serif" font-size="10.00">ComponentPtr&lt; nap::</text>
<text text-anchor="middle" x="220.5" y="-144" font-family="Helvetica,sans-Serif" font-size="10.00">OrthoCameraComponent &gt;</text>
</a>
</g>
</g>
<!-- Node0&#45;&gt;Node4 -->
<g id="edge4" class="edge">
<title>Node0&#45;&gt;Node4</title>
<path fill="none" stroke="midnightblue" d="M111.7,-152C125.38,-152 139.97,-152 153.86,-152"/>
<polygon fill="midnightblue" stroke="midnightblue" points="111.45,-148.5 101.45,-152 111.45,-155.5 111.45,-148.5"/>
</g>
<!-- Node5 -->
<g id="node6" class="node">
<title>Node5</title>
<g id="a_node6"><a xlink:href="d1/dcd/classnap_1_1_component_ptr.html" target="_top" xlink:title="ComponentPtr\&lt; nap::\lPerspCameraComponent \&gt;">
<polygon fill="white" stroke="black" points="153.5,-88 153.5,-118 287.5,-118 287.5,-88 153.5,-88"/>
<text text-anchor="start" x="161.5" y="-106" font-family="Helvetica,sans-Serif" font-size="10.00">ComponentPtr&lt; nap::</text>
<text text-anchor="middle" x="220.5" y="-95" font-family="Helvetica,sans-Serif" font-size="10.00">PerspCameraComponent &gt;</text>
</a>
</g>
</g>
<!-- Node0&#45;&gt;Node5 -->
<g id="edge5" class="edge">
<title>Node0&#45;&gt;Node5</title>
<path fill="none" stroke="midnightblue" d="M93.9,-139.63C116.39,-133.07 144.21,-124.96 167.94,-118.04"/>
<polygon fill="midnightblue" stroke="midnightblue" points="92.91,-136.28 84.29,-142.44 94.87,-143 92.91,-136.28"/>
</g>
<!-- Node6 -->
<g id="node7" class="node">
<title>Node6</title>
<g id="a_node7"><a xlink:href="d1/dcd/classnap_1_1_component_ptr.html" target="_top" xlink:title="ComponentPtr\&lt; TargetComponent\lType \&gt;">
<polygon fill="white" stroke="black" points="138.5,-39 138.5,-69 302.5,-69 302.5,-39 138.5,-39"/>
<text text-anchor="start" x="146.5" y="-57" font-family="Helvetica,sans-Serif" font-size="10.00">ComponentPtr&lt; TargetComponent</text>
<text text-anchor="middle" x="220.5" y="-46" font-family="Helvetica,sans-Serif" font-size="10.00">Type &gt;</text>
</a>
</g>
</g>
<!-- Node0&#45;&gt;Node6 -->
<g id="edge6" class="edge">
<title>Node0&#45;&gt;Node6</title>
<path fill="none" stroke="midnightblue" d="M67.56,-134.64C83.67,-118.17 109.92,-93.81 137,-79 143.96,-75.19 151.57,-71.89 159.27,-69.05"/>
<polygon fill="midnightblue" stroke="midnightblue" points="64.89,-132.37 60.51,-142.01 69.95,-137.21 64.89,-132.37"/>
</g>
<!-- Node7 -->
<g id="node8" class="node">
<title>Node7</title>
<g id="a_node8"><a xlink:href="d1/dcd/classnap_1_1_component_ptr.html" target="_top" xlink:title="ComponentPtr\&lt; ComponentType \&gt;">
<polygon fill="white" stroke="black" points="137,-0.5 137,-19.5 304,-19.5 304,-0.5 137,-0.5"/>
<text text-anchor="middle" x="220.5" y="-7.5" font-family="Helvetica,sans-Serif" font-size="10.00">ComponentPtr&lt; ComponentType &gt;</text>
</a>
</g>
</g>
<!-- Node0&#45;&gt;Node7 -->
<g id="edge7" class="edge">
<title>Node0&#45;&gt;Node7</title>
<path fill="none" stroke="midnightblue" d="M59.46,-133.07C71.89,-105.89 98.54,-56.24 137,-30 143.33,-25.68 150.49,-22.29 157.89,-19.63"/>
<polygon fill="midnightblue" stroke="midnightblue" points="56.23,-131.72 55.4,-142.28 62.64,-134.54 56.23,-131.72"/>
</g>
</g>
</svg>
