<?xml version="1.0" encoding="UTF-8" standalone="no"?>
<!DOCTYPE svg PUBLIC "-//W3C//DTD SVG 1.1//EN"
 "http://www.w3.org/Graphics/SVG/1.1/DTD/svg11.dtd">
<!-- Generated by graphviz version 3.0.0 (20220226.1711)
 -->
<!-- Title: Graphical Class Hierarchy Pages: 1 -->
<svg width="222pt" height="142pt"
 viewBox="0.00 0.00 222.00 142.00" xmlns="http://www.w3.org/2000/svg" xmlns:xlink="http://www.w3.org/1999/xlink">
<g id="graph0" class="graph" transform="scale(1 1) rotate(0) translate(4 138)">
<title>Graphical Class Hierarchy</title>
<polygon fill="white" stroke="transparent" points="-4,4 -4,-138 218,-138 218,4 -4,4"/>
<!-- Node0 -->
<g id="node1" class="node">
<title>Node0</title>
<g id="a_node1"><a xlink:href="df/d57/classnap_1_1sequenceguiclipboard_1_1_clipboard.html" target="_top" xlink:title="Clipboard">
<polygon fill="white" stroke="black" points="0,-57.5 0,-76.5 57,-76.5 57,-57.5 0,-57.5"/>
<text text-anchor="middle" x="28.5" y="-64.5" font-family="Helvetica,sans-Serif" font-size="10.00">Clipboard</text>
</a>
</g>
</g>
<!-- Node1 -->
<g id="node2" class="node">
<title>Node1</title>
<g id="a_node2"><a xlink:href="d7/db2/classnap_1_1sequenceguiclipboard_1_1_audio_segment_clipboard.html" target="_top" xlink:title="AudioSegmentClipboard">
<polygon fill="white" stroke="black" points="93,-114.5 93,-133.5 214,-133.5 214,-114.5 93,-114.5"/>
<text text-anchor="middle" x="153.5" y="-121.5" font-family="Helvetica,sans-Serif" font-size="10.00">AudioSegmentClipboard</text>
</a>
</g>
</g>
<!-- Node0&#45;&gt;Node1 -->
<g id="edge1" class="edge">
<title>Node0&#45;&gt;Node1</title>
<path fill="none" stroke="midnightblue" d="M52,-82.2C63.84,-89.74 78.82,-98.6 93,-105 100.91,-108.57 109.68,-111.76 118.01,-114.47"/>
<polygon fill="midnightblue" stroke="midnightblue" points="53.9,-79.26 43.61,-76.74 50.08,-85.13 53.9,-79.26"/>
</g>
<!-- Node2 -->
<g id="node3" class="node">
<title>Node2</title>
<g id="a_node3"><a xlink:href="d2/dce/classnap_1_1sequenceguiclipboard_1_1_curve_segment_clipboard.html" target="_top" xlink:title="CurveSegmentClipboard">
<polygon fill="white" stroke="black" points="93.5,-76.5 93.5,-95.5 213.5,-95.5 213.5,-76.5 93.5,-76.5"/>
<text text-anchor="middle" x="153.5" y="-83.5" font-family="Helvetica,sans-Serif" font-size="10.00">CurveSegmentClipboard</text>
</a>
</g>
</g>
<!-- Node0&#45;&gt;Node2 -->
<g id="edge2" class="edge">
<title>Node0&#45;&gt;Node2</title>
<path fill="none" stroke="midnightblue" d="M67.17,-72.82C75.45,-74.1 84.41,-75.48 93.3,-76.86"/>
<polygon fill="midnightblue" stroke="midnightblue" points="67.52,-69.33 57.1,-71.26 66.45,-76.25 67.52,-69.33"/>
</g>
<!-- Node3 -->
<g id="node4" class="node">
<title>Node3</title>
<g id="a_node4"><a xlink:href="d3/da1/classnap_1_1sequenceguiclipboard_1_1_empty.html" target="_top" xlink:title="Empty">
<polygon fill="white" stroke="black" points="131,-38.5 131,-57.5 176,-57.5 176,-38.5 131,-38.5"/>
<text text-anchor="middle" x="153.5" y="-45.5" font-family="Helvetica,sans-Serif" font-size="10.00">Empty</text>
</a>
</g>
</g>
<!-- Node0&#45;&gt;Node3 -->
<g id="edge3" class="edge">
<title>Node0&#45;&gt;Node3</title>
<path fill="none" stroke="midnightblue" d="M67.23,-61.17C88.04,-57.96 113.15,-54.08 130.71,-51.37"/>
<polygon fill="midnightblue" stroke="midnightblue" points="66.45,-57.75 57.1,-62.74 67.52,-64.67 66.45,-57.75"/>
</g>
<!-- Node4 -->
<g id="node5" class="node">
<title>Node4</title>
<g id="a_node5"><a xlink:href="df/d3e/classnap_1_1sequenceguiclipboard_1_1_event_segment_clipboard.html" target="_top" xlink:title="EventSegmentClipboard">
<polygon fill="white" stroke="black" points="93.5,-0.5 93.5,-19.5 213.5,-19.5 213.5,-0.5 93.5,-0.5"/>
<text text-anchor="middle" x="153.5" y="-7.5" font-family="Helvetica,sans-Serif" font-size="10.00">EventSegmentClipboard</text>
</a>
</g>
</g>
<!-- Node0&#45;&gt;Node4 -->
<g id="edge4" class="edge">
<title>Node0&#45;&gt;Node4</title>
<path fill="none" stroke="midnightblue" d="M52,-51.8C63.84,-44.26 78.82,-35.4 93,-29 100.91,-25.43 109.68,-22.24 118.01,-19.53"/>
<polygon fill="midnightblue" stroke="midnightblue" points="50.08,-48.87 43.61,-57.26 53.9,-54.74 50.08,-48.87"/>
</g>
</g>
</svg>
