<?xml version="1.0" encoding="UTF-8" standalone="no"?>
<!DOCTYPE svg PUBLIC "-//W3C//DTD SVG 1.1//EN"
 "http://www.w3.org/Graphics/SVG/1.1/DTD/svg11.dtd">
<!-- Generated by graphviz version 2.48.0 (20210717.1556)
 -->
<!-- Title: Graphical Class Hierarchy Pages: 1 -->
<svg width="191pt" height="66pt"
 viewBox="0.00 0.00 191.00 66.00" xmlns="http://www.w3.org/2000/svg" xmlns:xlink="http://www.w3.org/1999/xlink">
<g id="graph0" class="graph" transform="scale(1 1) rotate(0) translate(4 62)">
<title>Graphical Class Hierarchy</title>
<polygon fill="white" stroke="transparent" points="-4,4 -4,-62 187,-62 187,4 -4,4"/>
<!-- Node0 -->
<g id="node1" class="node">
<title>Node0</title>
<g id="a_node1"><a xlink:href="d4/dc6/classnap_1_1audio_1_1_input_pin_base.html" target="_top" xlink:title="InputPinBase">
<polygon fill="white" stroke="black" points="0,-19.5 0,-38.5 74,-38.5 74,-19.5 0,-19.5"/>
<text text-anchor="middle" x="37" y="-26.5" font-family="Helvetica,sans-Serif" font-size="10.00">InputPinBase</text>
</a>
</g>
</g>
<!-- Node1 -->
<g id="node2" class="node">
<title>Node1</title>
<g id="a_node2"><a xlink:href="d4/dd5/classnap_1_1audio_1_1_input_pin.html" target="_top" xlink:title="InputPin">
<polygon fill="white" stroke="black" points="120.5,-38.5 120.5,-57.5 172.5,-57.5 172.5,-38.5 120.5,-38.5"/>
<text text-anchor="middle" x="146.5" y="-45.5" font-family="Helvetica,sans-Serif" font-size="10.00">InputPin</text>
</a>
</g>
</g>
<!-- Node0&#45;&gt;Node1 -->
<g id="edge1" class="edge">
<title>Node0&#45;&gt;Node1</title>
<path fill="none" stroke="midnightblue" d="M84.26,-37.18C96.59,-39.36 109.45,-41.63 120.19,-43.53"/>
<polygon fill="midnightblue" stroke="midnightblue" points="84.55,-33.67 74.09,-35.38 83.33,-40.57 84.55,-33.67"/>
</g>
<!-- Node2 -->
<g id="node3" class="node">
<title>Node2</title>
<g id="a_node3"><a xlink:href="d8/d10/classnap_1_1audio_1_1_multi_input_pin.html" target="_top" xlink:title="MultiInputPin">
<polygon fill="white" stroke="black" points="110,-0.5 110,-19.5 183,-19.5 183,-0.5 110,-0.5"/>
<text text-anchor="middle" x="146.5" y="-7.5" font-family="Helvetica,sans-Serif" font-size="10.00">MultiInputPin</text>
</a>
</g>
</g>
<!-- Node0&#45;&gt;Node2 -->
<g id="edge2" class="edge">
<title>Node0&#45;&gt;Node2</title>
<path fill="none" stroke="midnightblue" d="M84,-20.87C92.59,-19.35 101.46,-17.78 109.68,-16.33"/>
<polygon fill="midnightblue" stroke="midnightblue" points="83.33,-17.43 74.09,-22.62 84.55,-24.33 83.33,-17.43"/>
</g>
</g>
</svg>
