<?xml version="1.0" encoding="UTF-8" standalone="no"?>
<!DOCTYPE svg PUBLIC "-//W3C//DTD SVG 1.1//EN"
 "http://www.w3.org/Graphics/SVG/1.1/DTD/svg11.dtd">
<!-- Generated by graphviz version 2.43.0 (0)
 -->
<!-- Title: Graphical Class Hierarchy Pages: 1 -->
<svg width="725pt" height="123pt"
 viewBox="0.00 0.00 725.00 123.00" xmlns="http://www.w3.org/2000/svg" xmlns:xlink="http://www.w3.org/1999/xlink">
<g id="graph0" class="graph" transform="scale(1 1) rotate(0) translate(4 119)">
<title>Graphical Class Hierarchy</title>
<polygon fill="white" stroke="transparent" points="-4,4 -4,-119 721,-119 721,4 -4,4"/>
<!-- Node0 -->
<g id="node1" class="node">
<title>Node0</title>
<g id="a_node1"><a xlink:href="d6/d6a/classnap_1_1_uniform_instance.html" target="_top" xlink:title=" ">
<polygon fill="white" stroke="black" points="0,-38.5 0,-57.5 98,-57.5 98,-38.5 0,-38.5"/>
<text text-anchor="middle" x="49" y="-45.5" font-family="Helvetica,sans-Serif" font-size="10.00">UniformInstance</text>
</a>
</g>
</g>
<!-- Node1 -->
<g id="node2" class="node">
<title>Node1</title>
<g id="a_node2"><a xlink:href="dd/d94/classnap_1_1_uniform_leaf_instance.html" target="_top" xlink:title=" ">
<polygon fill="white" stroke="black" points="150.5,-76.5 150.5,-95.5 269.5,-95.5 269.5,-76.5 150.5,-76.5"/>
<text text-anchor="middle" x="210" y="-83.5" font-family="Helvetica,sans-Serif" font-size="10.00">UniformLeafInstance</text>
</a>
</g>
</g>
<!-- Node0&#45;&gt;Node1 -->
<g id="edge1" class="edge">
<title>Node0&#45;&gt;Node1</title>
<path fill="none" stroke="midnightblue" d="M100.08,-59.97C122.36,-65.29 148.23,-71.48 169.17,-76.48"/>
<polygon fill="midnightblue" stroke="midnightblue" points="100.66,-56.51 90.12,-57.59 99.03,-63.32 100.66,-56.51"/>
</g>
<!-- Node6 -->
<g id="node7" class="node">
<title>Node6</title>
<g id="a_node7"><a xlink:href="d4/da2/classnap_1_1_uniform_struct_array_instance.html" target="_top" xlink:title=" ">
<polygon fill="white" stroke="black" points="134,-38.5 134,-57.5 286,-57.5 286,-38.5 134,-38.5"/>
<text text-anchor="middle" x="210" y="-45.5" font-family="Helvetica,sans-Serif" font-size="10.00">UniformStructArrayInstance</text>
</a>
</g>
</g>
<!-- Node0&#45;&gt;Node6 -->
<g id="edge6" class="edge">
<title>Node0&#45;&gt;Node6</title>
<path fill="none" stroke="midnightblue" d="M108.38,-48C116.63,-48 125.21,-48 133.73,-48"/>
<polygon fill="midnightblue" stroke="midnightblue" points="108.14,-44.5 98.14,-48 108.14,-51.5 108.14,-44.5"/>
</g>
<!-- Node7 -->
<g id="node8" class="node">
<title>Node7</title>
<g id="a_node8"><a xlink:href="dd/d44/classnap_1_1_uniform_struct_instance.html" target="_top" xlink:title=" ">
<polygon fill="white" stroke="black" points="147,-0.5 147,-19.5 273,-19.5 273,-0.5 147,-0.5"/>
<text text-anchor="middle" x="210" y="-7.5" font-family="Helvetica,sans-Serif" font-size="10.00">UniformStructInstance</text>
</a>
</g>
</g>
<!-- Node0&#45;&gt;Node7 -->
<g id="edge7" class="edge">
<title>Node0&#45;&gt;Node7</title>
<path fill="none" stroke="midnightblue" d="M100.08,-36.03C122.36,-30.71 148.23,-24.52 169.17,-19.52"/>
<polygon fill="midnightblue" stroke="midnightblue" points="99.03,-32.68 90.12,-38.41 100.66,-39.49 99.03,-32.68"/>
</g>
<!-- Node2 -->
<g id="node3" class="node">
<title>Node2</title>
<g id="a_node3"><a xlink:href="d8/da5/classnap_1_1_uniform_value_array_instance.html" target="_top" xlink:title=" ">
<polygon fill="white" stroke="black" points="322,-95.5 322,-114.5 473,-114.5 473,-95.5 322,-95.5"/>
<text text-anchor="middle" x="397.5" y="-102.5" font-family="Helvetica,sans-Serif" font-size="10.00">UniformValueArrayInstance</text>
</a>
</g>
</g>
<!-- Node1&#45;&gt;Node2 -->
<g id="edge2" class="edge">
<title>Node1&#45;&gt;Node2</title>
<path fill="none" stroke="midnightblue" d="M279.97,-93.06C293.63,-94.46 308.02,-95.94 321.85,-97.35"/>
<polygon fill="midnightblue" stroke="midnightblue" points="280,-89.55 269.69,-92.01 279.28,-96.51 280,-89.55"/>
</g>
<!-- Node4 -->
<g id="node5" class="node">
<title>Node4</title>
<g id="a_node5"><a xlink:href="d0/dac/classnap_1_1_uniform_value_instance.html" target="_top" xlink:title=" ">
<polygon fill="white" stroke="black" points="335,-57.5 335,-76.5 460,-76.5 460,-57.5 335,-57.5"/>
<text text-anchor="middle" x="397.5" y="-64.5" font-family="Helvetica,sans-Serif" font-size="10.00">UniformValueInstance</text>
</a>
</g>
</g>
<!-- Node1&#45;&gt;Node4 -->
<g id="edge4" class="edge">
<title>Node1&#45;&gt;Node4</title>
<path fill="none" stroke="midnightblue" d="M279.87,-78.95C297.95,-77.09 317.32,-75.11 334.99,-73.3"/>
<polygon fill="midnightblue" stroke="midnightblue" points="279.28,-75.49 269.69,-79.99 280,-82.45 279.28,-75.49"/>
</g>
<!-- Node3 -->
<g id="node4" class="node">
<title>Node3</title>
<g id="a_node4"><a xlink:href="d3/d48/classnap_1_1_typed_uniform_value_array_instance.html" target="_top" xlink:title=" ">
<polygon fill="white" stroke="black" points="509,-95.5 509,-114.5 717,-114.5 717,-95.5 509,-95.5"/>
<text text-anchor="middle" x="613" y="-102.5" font-family="Helvetica,sans-Serif" font-size="10.00">TypedUniformValueArrayInstance&lt; T &gt;</text>
</a>
</g>
</g>
<!-- Node2&#45;&gt;Node3 -->
<g id="edge3" class="edge">
<title>Node2&#45;&gt;Node3</title>
<path fill="none" stroke="midnightblue" d="M483.31,-105C491.7,-105 500.29,-105 508.85,-105"/>
<polygon fill="midnightblue" stroke="midnightblue" points="483.17,-101.5 473.17,-105 483.17,-108.5 483.17,-101.5"/>
</g>
<!-- Node5 -->
<g id="node6" class="node">
<title>Node5</title>
<g id="a_node6"><a xlink:href="d7/d60/classnap_1_1_typed_uniform_value_instance.html" target="_top" xlink:title=" ">
<polygon fill="white" stroke="black" points="522,-57.5 522,-76.5 704,-76.5 704,-57.5 522,-57.5"/>
<text text-anchor="middle" x="613" y="-64.5" font-family="Helvetica,sans-Serif" font-size="10.00">TypedUniformValueInstance&lt; T &gt;</text>
</a>
</g>
</g>
<!-- Node4&#45;&gt;Node5 -->
<g id="edge5" class="edge">
<title>Node4&#45;&gt;Node5</title>
<path fill="none" stroke="midnightblue" d="M470.35,-67C486.86,-67 504.62,-67 521.8,-67"/>
<polygon fill="midnightblue" stroke="midnightblue" points="470.25,-63.5 460.25,-67 470.25,-70.5 470.25,-63.5"/>
</g>
</g>
</svg>
