<?xml version="1.0" encoding="UTF-8" standalone="no"?>
<!DOCTYPE svg PUBLIC "-//W3C//DTD SVG 1.1//EN"
 "http://www.w3.org/Graphics/SVG/1.1/DTD/svg11.dtd">
<!-- Generated by graphviz version 2.48.0 (20210717.1556)
 -->
<!-- Title: Graphical Class Hierarchy Pages: 1 -->
<svg width="279pt" height="104pt"
 viewBox="0.00 0.00 279.00 104.00" xmlns="http://www.w3.org/2000/svg" xmlns:xlink="http://www.w3.org/1999/xlink">
<g id="graph0" class="graph" transform="scale(1 1) rotate(0) translate(4 100)">
<title>Graphical Class Hierarchy</title>
<polygon fill="white" stroke="transparent" points="-4,4 -4,-100 275,-100 275,4 -4,4"/>
<!-- Node0 -->
<g id="node1" class="node">
<title>Node0</title>
<g id="a_node1"><a xlink:href="d4/d58/classnap_1_1_sequence_track_view.html" target="_top" xlink:title="SequenceTrackView">
<polygon fill="white" stroke="black" points="0,-38.5 0,-57.5 105,-57.5 105,-38.5 0,-38.5"/>
<text text-anchor="middle" x="52.5" y="-45.5" font-family="Helvetica,sans-Serif" font-size="10.00">SequenceTrackView</text>
</a>
</g>
</g>
<!-- Node1 -->
<g id="node2" class="node">
<title>Node1</title>
<g id="a_node2"><a xlink:href="dd/d4f/classnap_1_1_sequence_audio_track_view.html" target="_top" xlink:title="SequenceAudioTrackView">
<polygon fill="white" stroke="black" points="141,-76.5 141,-95.5 271,-95.5 271,-76.5 141,-76.5"/>
<text text-anchor="middle" x="206" y="-83.5" font-family="Helvetica,sans-Serif" font-size="10.00">SequenceAudioTrackView</text>
</a>
</g>
</g>
<!-- Node0&#45;&gt;Node1 -->
<g id="edge1" class="edge">
<title>Node0&#45;&gt;Node1</title>
<path fill="none" stroke="midnightblue" d="M101.5,-60.04C122.67,-65.35 147.19,-71.5 167.05,-76.48"/>
<polygon fill="midnightblue" stroke="midnightblue" points="102.28,-56.63 91.73,-57.59 100.58,-63.42 102.28,-56.63"/>
</g>
<!-- Node2 -->
<g id="node3" class="node">
<title>Node2</title>
<g id="a_node3"><a xlink:href="d9/db2/classnap_1_1_sequence_curve_track_view.html" target="_top" xlink:title="SequenceCurveTrackView">
<polygon fill="white" stroke="black" points="141.5,-38.5 141.5,-57.5 270.5,-57.5 270.5,-38.5 141.5,-38.5"/>
<text text-anchor="middle" x="206" y="-45.5" font-family="Helvetica,sans-Serif" font-size="10.00">SequenceCurveTrackView</text>
</a>
</g>
</g>
<!-- Node0&#45;&gt;Node2 -->
<g id="edge2" class="edge">
<title>Node0&#45;&gt;Node2</title>
<path fill="none" stroke="midnightblue" d="M115.22,-48C123.87,-48 132.77,-48 141.46,-48"/>
<polygon fill="midnightblue" stroke="midnightblue" points="115.21,-44.5 105.21,-48 115.21,-51.5 115.21,-44.5"/>
</g>
<!-- Node3 -->
<g id="node4" class="node">
<title>Node3</title>
<g id="a_node4"><a xlink:href="d0/d1b/classnap_1_1_sequence_event_track_view.html" target="_top" xlink:title="SequenceEventTrackView">
<polygon fill="white" stroke="black" points="141.5,-0.5 141.5,-19.5 270.5,-19.5 270.5,-0.5 141.5,-0.5"/>
<text text-anchor="middle" x="206" y="-7.5" font-family="Helvetica,sans-Serif" font-size="10.00">SequenceEventTrackView</text>
</a>
</g>
</g>
<!-- Node0&#45;&gt;Node3 -->
<g id="edge3" class="edge">
<title>Node0&#45;&gt;Node3</title>
<path fill="none" stroke="midnightblue" d="M101.5,-35.96C122.67,-30.65 147.19,-24.5 167.05,-19.52"/>
<polygon fill="midnightblue" stroke="midnightblue" points="100.58,-32.58 91.73,-38.41 102.28,-39.37 100.58,-32.58"/>
</g>
</g>
</svg>
