<?xml version="1.0" encoding="UTF-8" standalone="no"?>
<!DOCTYPE svg PUBLIC "-//W3C//DTD SVG 1.1//EN"
 "http://www.w3.org/Graphics/SVG/1.1/DTD/svg11.dtd">
<!-- Generated by graphviz version 3.0.0 (20220226.1711)
 -->
<!-- Title: Graphical Class Hierarchy Pages: 1 -->
<svg width="280pt" height="104pt"
 viewBox="0.00 0.00 280.00 104.00" xmlns="http://www.w3.org/2000/svg" xmlns:xlink="http://www.w3.org/1999/xlink">
<g id="graph0" class="graph" transform="scale(1 1) rotate(0) translate(4 100)">
<title>Graphical Class Hierarchy</title>
<polygon fill="white" stroke="transparent" points="-4,4 -4,-100 276,-100 276,4 -4,4"/>
<!-- Node0 -->
<g id="node1" class="node">
<title>Node0</title>
<g id="a_node1"><a xlink:href="da/d9c/classnap_1_1_shape_triangle_iterator.html" target="_top" xlink:title="ShapeTriangleIterator">
<polygon fill="white" stroke="black" points="0,-38.5 0,-57.5 108,-57.5 108,-38.5 0,-38.5"/>
<text text-anchor="middle" x="54" y="-45.5" font-family="Helvetica,sans-Serif" font-size="10.00">ShapeTriangleIterator</text>
</a>
</g>
</g>
<!-- Node1 -->
<g id="node2" class="node">
<title>Node1</title>
<g id="a_node2"><a xlink:href="d4/d23/classnap_1_1_shape_triangle_fan_iterator.html" target="_top" xlink:title="ShapeTriangleFanIterator">
<polygon fill="white" stroke="black" points="145.5,-76.5 145.5,-95.5 270.5,-95.5 270.5,-76.5 145.5,-76.5"/>
<text text-anchor="middle" x="208" y="-83.5" font-family="Helvetica,sans-Serif" font-size="10.00">ShapeTriangleFanIterator</text>
</a>
</g>
</g>
<!-- Node0&#45;&gt;Node1 -->
<g id="edge1" class="edge">
<title>Node0&#45;&gt;Node1</title>
<path fill="none" stroke="midnightblue" d="M103.16,-60.04C124.4,-65.35 149,-71.5 168.92,-76.48"/>
<polygon fill="midnightblue" stroke="midnightblue" points="103.91,-56.62 93.36,-57.59 102.21,-63.41 103.91,-56.62"/>
</g>
<!-- Node2 -->
<g id="node3" class="node">
<title>Node2</title>
<g id="a_node3"><a xlink:href="db/dc1/classnap_1_1_shape_triangle_list_iterator.html" target="_top" xlink:title="ShapeTriangleListIterator">
<polygon fill="white" stroke="black" points="146,-38.5 146,-57.5 270,-57.5 270,-38.5 146,-38.5"/>
<text text-anchor="middle" x="208" y="-45.5" font-family="Helvetica,sans-Serif" font-size="10.00">ShapeTriangleListIterator</text>
</a>
</g>
</g>
<!-- Node0&#45;&gt;Node2 -->
<g id="edge2" class="edge">
<title>Node0&#45;&gt;Node2</title>
<path fill="none" stroke="midnightblue" d="M118.3,-48C127.4,-48 136.74,-48 145.8,-48"/>
<polygon fill="midnightblue" stroke="midnightblue" points="118.16,-44.5 108.16,-48 118.16,-51.5 118.16,-44.5"/>
</g>
<!-- Node3 -->
<g id="node4" class="node">
<title>Node3</title>
<g id="a_node4"><a xlink:href="d5/d59/classnap_1_1_shape_triangle_strip_iterator.html" target="_top" xlink:title="ShapeTriangleStripIterator">
<polygon fill="white" stroke="black" points="144,-0.5 144,-19.5 272,-19.5 272,-0.5 144,-0.5"/>
<text text-anchor="middle" x="208" y="-7.5" font-family="Helvetica,sans-Serif" font-size="10.00">ShapeTriangleStripIterator</text>
</a>
</g>
</g>
<!-- Node0&#45;&gt;Node3 -->
<g id="edge3" class="edge">
<title>Node0&#45;&gt;Node3</title>
<path fill="none" stroke="midnightblue" d="M103.16,-35.96C124.4,-30.65 149,-24.5 168.92,-19.52"/>
<polygon fill="midnightblue" stroke="midnightblue" points="102.21,-32.59 93.36,-38.41 103.91,-39.38 102.21,-32.59"/>
</g>
</g>
</svg>
