<?xml version="1.0" encoding="UTF-8" standalone="no"?>
<!DOCTYPE svg PUBLIC "-//W3C//DTD SVG 1.1//EN"
 "http://www.w3.org/Graphics/SVG/1.1/DTD/svg11.dtd">
<!-- Generated by graphviz version 2.48.0 (20210717.1556)
 -->
<!-- Title: Graphical Class Hierarchy Pages: 1 -->
<svg width="418pt" height="66pt"
 viewBox="0.00 0.00 418.00 66.00" xmlns="http://www.w3.org/2000/svg" xmlns:xlink="http://www.w3.org/1999/xlink">
<g id="graph0" class="graph" transform="scale(1 1) rotate(0) translate(4 62)">
<title>Graphical Class Hierarchy</title>
<polygon fill="white" stroke="transparent" points="-4,4 -4,-62 414,-62 414,4 -4,4"/>
<!-- Node0 -->
<g id="node1" class="node">
<title>Node0</title>
<g id="a_node1"><a xlink:href="d8/dd9/classnap_1_1_i_glyph_representation.html" target="_top" xlink:title="IGlyphRepresentation">
<polygon fill="white" stroke="black" points="0,-19.5 0,-38.5 110,-38.5 110,-19.5 0,-19.5"/>
<text text-anchor="middle" x="55" y="-26.5" font-family="Helvetica,sans-Serif" font-size="10.00">IGlyphRepresentation</text>
</a>
</g>
</g>
<!-- Node1 -->
<g id="node2" class="node">
<title>Node1</title>
<g id="a_node2"><a xlink:href="d7/d92/classnap_1_1_renderable_glyph.html" target="_top" xlink:title="RenderableGlyph">
<polygon fill="white" stroke="black" points="146,-19.5 146,-38.5 237,-38.5 237,-19.5 146,-19.5"/>
<text text-anchor="middle" x="191.5" y="-26.5" font-family="Helvetica,sans-Serif" font-size="10.00">RenderableGlyph</text>
</a>
</g>
</g>
<!-- Node0&#45;&gt;Node1 -->
<g id="edge1" class="edge">
<title>Node0&#45;&gt;Node1</title>
<path fill="none" stroke="midnightblue" d="M120.38,-29C129.01,-29 137.7,-29 145.88,-29"/>
<polygon fill="midnightblue" stroke="midnightblue" points="120.32,-25.5 110.32,-29 120.32,-32.5 120.32,-25.5"/>
</g>
<!-- Node2 -->
<g id="node3" class="node">
<title>Node2</title>
<g id="a_node3"><a xlink:href="d9/df1/classnap_1_1_renderable2_d_glyph.html" target="_top" xlink:title="Renderable2DGlyph">
<polygon fill="white" stroke="black" points="290,-38.5 290,-57.5 393,-57.5 393,-38.5 290,-38.5"/>
<text text-anchor="middle" x="341.5" y="-45.5" font-family="Helvetica,sans-Serif" font-size="10.00">Renderable2DGlyph</text>
</a>
</g>
</g>
<!-- Node1&#45;&gt;Node2 -->
<g id="edge2" class="edge">
<title>Node1&#45;&gt;Node2</title>
<path fill="none" stroke="midnightblue" d="M247.26,-36.03C261.22,-37.82 276.15,-39.74 289.89,-41.5"/>
<polygon fill="midnightblue" stroke="midnightblue" points="247.67,-32.55 237.31,-34.75 246.78,-39.5 247.67,-32.55"/>
</g>
<!-- Node3 -->
<g id="node4" class="node">
<title>Node3</title>
<g id="a_node4"><a xlink:href="d8/d34/classnap_1_1_renderable2_d_mip_map_glyph.html" target="_top" xlink:title="Renderable2DMipMapGlyph">
<polygon fill="white" stroke="black" points="273,-0.5 273,-19.5 410,-19.5 410,-0.5 273,-0.5"/>
<text text-anchor="middle" x="341.5" y="-7.5" font-family="Helvetica,sans-Serif" font-size="10.00">Renderable2DMipMapGlyph</text>
</a>
</g>
</g>
<!-- Node1&#45;&gt;Node3 -->
<g id="edge3" class="edge">
<title>Node1&#45;&gt;Node3</title>
<path fill="none" stroke="midnightblue" d="M247.28,-21.97C255.63,-20.9 264.32,-19.78 272.91,-18.68"/>
<polygon fill="midnightblue" stroke="midnightblue" points="246.78,-18.5 237.31,-23.25 247.67,-25.45 246.78,-18.5"/>
</g>
</g>
</svg>
