<?xml version="1.0" encoding="UTF-8" standalone="no"?>
<!DOCTYPE svg PUBLIC "-//W3C//DTD SVG 1.1//EN"
 "http://www.w3.org/Graphics/SVG/1.1/DTD/svg11.dtd">
<!-- Generated by graphviz version 2.43.0 (0)
 -->
<!-- Title: SequenceEditor Pages: 1 -->
<svg width="232pt" height="163pt"
 viewBox="0.00 0.00 232.00 163.00" xmlns="http://www.w3.org/2000/svg" xmlns:xlink="http://www.w3.org/1999/xlink">
<g id="graph0" class="graph" transform="scale(1 1) rotate(0) translate(4 159)">
<title>SequenceEditor</title>
<polygon fill="white" stroke="transparent" points="-4,4 -4,-159 228,-159 228,4 -4,4"/>
<!-- Node1 -->
<g id="node1" class="node">
<title>Node1</title>
<g id="a_node1"><a xlink:title=" ">
<polygon fill="#bfbfbf" stroke="black" points="45,-0.5 45,-19.5 137,-19.5 137,-0.5 45,-0.5"/>
<text text-anchor="middle" x="91" y="-7.5" font-family="Helvetica,sans-Serif" font-size="10.00">SequenceEditor</text>
</a>
</g>
</g>
<!-- Node2 -->
<g id="node2" class="node">
<title>Node2</title>
<g id="a_node2"><a xlink:href="../../d9/dea/classnap_1_1_resource.html" target="_top" xlink:title=" ">
<polygon fill="white" stroke="black" points="0,-73 0,-92 62,-92 62,-73 0,-73"/>
<text text-anchor="middle" x="31" y="-80" font-family="Helvetica,sans-Serif" font-size="10.00">Resource</text>
</a>
</g>
</g>
<!-- Node2&#45;&gt;Node1 -->
<g id="edge1" class="edge">
<title>Node2&#45;&gt;Node1</title>
<path fill="none" stroke="midnightblue" d="M45.13,-64.9C57.18,-50.74 74.02,-30.96 83.58,-19.72"/>
<polygon fill="midnightblue" stroke="midnightblue" points="42.17,-62.97 38.36,-72.86 47.5,-67.51 42.17,-62.97"/>
</g>
<!-- Node3 -->
<g id="node3" class="node">
<title>Node3</title>
<g id="a_node3"><a xlink:href="../../de/d01/classnap_1_1rtti_1_1_object.html" target="_top" xlink:title=" ">
<polygon fill="white" stroke="black" points="7,-135.5 7,-154.5 55,-154.5 55,-135.5 7,-135.5"/>
<text text-anchor="middle" x="31" y="-142.5" font-family="Helvetica,sans-Serif" font-size="10.00">Object</text>
</a>
</g>
</g>
<!-- Node3&#45;&gt;Node2 -->
<g id="edge2" class="edge">
<title>Node3&#45;&gt;Node2</title>
<path fill="none" stroke="midnightblue" d="M31,-125C31,-114 31,-100.68 31,-92.15"/>
<polygon fill="midnightblue" stroke="midnightblue" points="27.5,-125.33 31,-135.33 34.5,-125.33 27.5,-125.33"/>
</g>
<!-- Node4 -->
<g id="node4" class="node">
<title>Node4</title>
<g id="a_node4"><a xlink:href="../../dd/d7c/classnap_1_1rtti_1_1_object_ptr.html" target="_top" xlink:title=" ">
<polygon fill="white" stroke="black" points="80,-67.5 80,-97.5 224,-97.5 224,-67.5 80,-67.5"/>
<text text-anchor="start" x="88" y="-85.5" font-family="Helvetica,sans-Serif" font-size="10.00">ObjectPtr&lt; nap::Sequence</text>
<text text-anchor="middle" x="152" y="-74.5" font-family="Helvetica,sans-Serif" font-size="10.00">Player &gt;</text>
</a>
</g>
</g>
<!-- Node4&#45;&gt;Node1 -->
<g id="edge3" class="edge">
<title>Node4&#45;&gt;Node1</title>
<path fill="none" stroke="#9a32cd" stroke-dasharray="5,2" d="M132.86,-59.38C121.31,-46.04 107.23,-29.76 98.69,-19.89"/>
<polygon fill="#9a32cd" stroke="#9a32cd" points="130.47,-61.96 139.66,-67.23 135.76,-57.38 130.47,-61.96"/>
<text text-anchor="middle" x="169.5" y="-41" font-family="Helvetica,sans-Serif" font-size="10.00"> mSequencePlayer</text>
</g>
<!-- Node5 -->
<g id="node5" class="node">
<title>Node5</title>
<g id="a_node5"><a xlink:href="../../d7/dcb/classnap_1_1rtti_1_1_object_ptr_base.html" target="_top" xlink:title=" ">
<polygon fill="white" stroke="black" points="109,-135.5 109,-154.5 195,-154.5 195,-135.5 109,-135.5"/>
<text text-anchor="middle" x="152" y="-142.5" font-family="Helvetica,sans-Serif" font-size="10.00">ObjectPtrBase</text>
</a>
</g>
</g>
<!-- Node5&#45;&gt;Node4 -->
<g id="edge4" class="edge">
<title>Node5&#45;&gt;Node4</title>
<path fill="none" stroke="midnightblue" d="M152,-125.22C152,-116.36 152,-105.96 152,-97.76"/>
<polygon fill="midnightblue" stroke="midnightblue" points="148.5,-125.33 152,-135.33 155.5,-125.33 148.5,-125.33"/>
</g>
</g>
</svg>
