<?xml version="1.0" encoding="UTF-8" standalone="no"?>
<!DOCTYPE svg PUBLIC "-//W3C//DTD SVG 1.1//EN"
 "http://www.w3.org/Graphics/SVG/1.1/DTD/svg11.dtd">
<!-- Generated by graphviz version 3.0.0 (20220226.1711)
 -->
<!-- Title: SequenceEditor Pages: 1 -->
<svg width="216pt" height="163pt"
 viewBox="0.00 0.00 216.00 163.00" xmlns="http://www.w3.org/2000/svg" xmlns:xlink="http://www.w3.org/1999/xlink">
<g id="graph0" class="graph" transform="scale(1 1) rotate(0) translate(4 159)">
<title>SequenceEditor</title>
<polygon fill="white" stroke="transparent" points="-4,4 -4,-159 212,-159 212,4 -4,4"/>
<!-- Node3 -->
<g id="node1" class="node">
<title>Node3</title>
<polygon fill="#bfbfbf" stroke="black" points="42,-0.5 42,-19.5 128,-19.5 128,-0.5 42,-0.5"/>
<text text-anchor="middle" x="85" y="-7.5" font-family="Helvetica,sans-Serif" font-size="10.00">SequenceEditor</text>
</g>
<!-- Node4 -->
<g id="node2" class="node">
<title>Node4</title>
<g id="a_node2"><a xlink:href="../../d9/dea/classnap_1_1_resource.html" target="_top" xlink:title="Resource">
<polygon fill="white" stroke="black" points="0,-73 0,-92 58,-92 58,-73 0,-73"/>
<text text-anchor="middle" x="29" y="-80" font-family="Helvetica,sans-Serif" font-size="10.00">Resource</text>
</a>
</g>
</g>
<!-- Node4&#45;&gt;Node3 -->
<g id="edge1" class="edge">
<title>Node4&#45;&gt;Node3</title>
<path fill="none" stroke="midnightblue" d="M42.19,-64.9C53.43,-50.74 69.15,-30.96 78.08,-19.72"/>
<polygon fill="midnightblue" stroke="midnightblue" points="39.35,-62.85 35.87,-72.86 44.83,-67.2 39.35,-62.85"/>
</g>
<!-- Node5 -->
<g id="node3" class="node">
<title>Node5</title>
<g id="a_node3"><a xlink:href="../../de/d01/classnap_1_1rtti_1_1_object.html" target="_top" xlink:title="Object">
<polygon fill="white" stroke="black" points="6.5,-135.5 6.5,-154.5 51.5,-154.5 51.5,-135.5 6.5,-135.5"/>
<text text-anchor="middle" x="29" y="-142.5" font-family="Helvetica,sans-Serif" font-size="10.00">Object</text>
</a>
</g>
</g>
<!-- Node5&#45;&gt;Node4 -->
<g id="edge2" class="edge">
<title>Node5&#45;&gt;Node4</title>
<path fill="none" stroke="midnightblue" d="M29,-125C29,-114 29,-100.68 29,-92.15"/>
<polygon fill="midnightblue" stroke="midnightblue" points="25.5,-125.33 29,-135.33 32.5,-125.33 25.5,-125.33"/>
</g>
<!-- Node6 -->
<g id="node4" class="node">
<title>Node6</title>
<g id="a_node4"><a xlink:href="../../dd/d7c/classnap_1_1rtti_1_1_object_ptr.html" target="_top" xlink:title="ObjectPtr\&lt; nap::Sequence\lPlayer \&gt;">
<polygon fill="white" stroke="black" points="76,-67.5 76,-97.5 208,-97.5 208,-67.5 76,-67.5"/>
<text text-anchor="start" x="84" y="-85.5" font-family="Helvetica,sans-Serif" font-size="10.00">ObjectPtr&lt; nap::Sequence</text>
<text text-anchor="middle" x="142" y="-74.5" font-family="Helvetica,sans-Serif" font-size="10.00">Player &gt;</text>
</a>
</g>
</g>
<!-- Node6&#45;&gt;Node3 -->
<g id="edge3" class="edge">
<title>Node6&#45;&gt;Node3</title>
<path fill="none" stroke="#9a32cd" stroke-dasharray="5,2" d="M124.12,-59.38C113.33,-46.04 100.16,-29.76 92.19,-19.89"/>
<polygon fill="#9a32cd" stroke="#9a32cd" points="121.46,-61.66 130.47,-67.23 126.9,-57.26 121.46,-61.66"/>
<text text-anchor="middle" x="157.5" y="-41" font-family="Helvetica,sans-Serif" font-size="10.00"> mSequencePlayer</text>
</g>
<!-- Node7 -->
<g id="node5" class="node">
<title>Node7</title>
<g id="a_node5"><a xlink:href="../../d7/dcb/classnap_1_1rtti_1_1_object_ptr_base.html" target="_top" xlink:title="ObjectPtrBase">
<polygon fill="white" stroke="black" points="102,-135.5 102,-154.5 182,-154.5 182,-135.5 102,-135.5"/>
<text text-anchor="middle" x="142" y="-142.5" font-family="Helvetica,sans-Serif" font-size="10.00">ObjectPtrBase</text>
</a>
</g>
</g>
<!-- Node7&#45;&gt;Node6 -->
<g id="edge4" class="edge">
<title>Node7&#45;&gt;Node6</title>
<path fill="none" stroke="midnightblue" d="M142,-125.22C142,-116.36 142,-105.96 142,-97.76"/>
<polygon fill="midnightblue" stroke="midnightblue" points="138.5,-125.33 142,-135.33 145.5,-125.33 138.5,-125.33"/>
</g>
</g>
</svg>
