<?xml version="1.0" encoding="UTF-8" standalone="no"?>
<!DOCTYPE svg PUBLIC "-//W3C//DTD SVG 1.1//EN"
 "http://www.w3.org/Graphics/SVG/1.1/DTD/svg11.dtd">
<!-- Generated by graphviz version 2.43.0 (0)
 -->
<!-- Title: SequenceTrackSegment Pages: 1 -->
<svg width="774pt" height="104pt"
 viewBox="0.00 0.00 774.00 104.00" xmlns="http://www.w3.org/2000/svg" xmlns:xlink="http://www.w3.org/1999/xlink">
<g id="graph0" class="graph" transform="scale(1 1) rotate(0) translate(4 100)">
<title>SequenceTrackSegment</title>
<polygon fill="white" stroke="transparent" points="-4,4 -4,-100 770,-100 770,4 -4,4"/>
<!-- Node1 -->
<g id="node1" class="node">
<title>Node1</title>
<g id="a_node1"><a xlink:title=" ">
<polygon fill="#bfbfbf" stroke="black" points="182,-38.5 182,-57.5 315,-57.5 315,-38.5 182,-38.5"/>
<text text-anchor="middle" x="248.5" y="-45.5" font-family="Helvetica,sans-Serif" font-size="10.00">SequenceTrackSegment</text>
</a>
</g>
</g>
<!-- Node4 -->
<g id="node4" class="node">
<title>Node4</title>
<g id="a_node4"><a xlink:href="../../d4/db8/classnap_1_1_sequence_track_segment_audio.html" target="_top" xlink:title=" ">
<polygon fill="white" stroke="black" points="365.5,-76.5 365.5,-95.5 526.5,-95.5 526.5,-76.5 365.5,-76.5"/>
<text text-anchor="middle" x="446" y="-83.5" font-family="Helvetica,sans-Serif" font-size="10.00">SequenceTrackSegmentAudio</text>
</a>
</g>
</g>
<!-- Node1&#45;&gt;Node4 -->
<g id="edge3" class="edge">
<title>Node1&#45;&gt;Node4</title>
<path fill="none" stroke="midnightblue" d="M308.61,-59.49C336.5,-64.91 369.4,-71.31 395.9,-76.46"/>
<polygon fill="midnightblue" stroke="midnightblue" points="309.06,-56.01 298.58,-57.54 307.73,-62.88 309.06,-56.01"/>
</g>
<!-- Node5 -->
<g id="node5" class="node">
<title>Node5</title>
<g id="a_node5"><a xlink:href="../../dc/dd1/classnap_1_1_sequence_track_segment_curve.html" target="_top" xlink:title=" ">
<polygon fill="white" stroke="black" points="351,-38.5 351,-57.5 541,-57.5 541,-38.5 351,-38.5"/>
<text text-anchor="middle" x="446" y="-45.5" font-family="Helvetica,sans-Serif" font-size="10.00">SequenceTrackSegmentCurve&lt; T &gt;</text>
</a>
</g>
</g>
<!-- Node1&#45;&gt;Node5 -->
<g id="edge4" class="edge">
<title>Node1&#45;&gt;Node5</title>
<path fill="none" stroke="midnightblue" d="M325.2,-48C333.55,-48 342.13,-48 350.67,-48"/>
<polygon fill="midnightblue" stroke="midnightblue" points="325.14,-44.5 315.14,-48 325.14,-51.5 325.14,-44.5"/>
</g>
<!-- Node6 -->
<g id="node6" class="node">
<title>Node6</title>
<g id="a_node6"><a xlink:href="../../d9/d16/classnap_1_1_sequence_track_segment_event_base.html" target="_top" xlink:title=" ">
<polygon fill="white" stroke="black" points="353.5,-0.5 353.5,-19.5 538.5,-19.5 538.5,-0.5 353.5,-0.5"/>
<text text-anchor="middle" x="446" y="-7.5" font-family="Helvetica,sans-Serif" font-size="10.00">SequenceTrackSegmentEventBase</text>
</a>
</g>
</g>
<!-- Node1&#45;&gt;Node6 -->
<g id="edge5" class="edge">
<title>Node1&#45;&gt;Node6</title>
<path fill="none" stroke="midnightblue" d="M308.61,-36.51C336.5,-31.09 369.4,-24.69 395.9,-19.54"/>
<polygon fill="midnightblue" stroke="midnightblue" points="307.73,-33.12 298.58,-38.46 309.06,-39.99 307.73,-33.12"/>
</g>
<!-- Node2 -->
<g id="node2" class="node">
<title>Node2</title>
<g id="a_node2"><a xlink:href="../../d9/dea/classnap_1_1_resource.html" target="_top" xlink:title=" ">
<polygon fill="white" stroke="black" points="84,-38.5 84,-57.5 146,-57.5 146,-38.5 84,-38.5"/>
<text text-anchor="middle" x="115" y="-45.5" font-family="Helvetica,sans-Serif" font-size="10.00">Resource</text>
</a>
</g>
</g>
<!-- Node2&#45;&gt;Node1 -->
<g id="edge1" class="edge">
<title>Node2&#45;&gt;Node1</title>
<path fill="none" stroke="midnightblue" d="M156.39,-48C164.47,-48 173.15,-48 181.83,-48"/>
<polygon fill="midnightblue" stroke="midnightblue" points="156.17,-44.5 146.17,-48 156.17,-51.5 156.17,-44.5"/>
</g>
<!-- Node3 -->
<g id="node3" class="node">
<title>Node3</title>
<g id="a_node3"><a xlink:href="../../de/d01/classnap_1_1rtti_1_1_object.html" target="_top" xlink:title=" ">
<polygon fill="white" stroke="black" points="0,-38.5 0,-57.5 48,-57.5 48,-38.5 0,-38.5"/>
<text text-anchor="middle" x="24" y="-45.5" font-family="Helvetica,sans-Serif" font-size="10.00">Object</text>
</a>
</g>
</g>
<!-- Node3&#45;&gt;Node2 -->
<g id="edge2" class="edge">
<title>Node3&#45;&gt;Node2</title>
<path fill="none" stroke="midnightblue" d="M58.49,-48C66.78,-48 75.61,-48 83.73,-48"/>
<polygon fill="midnightblue" stroke="midnightblue" points="58.38,-44.5 48.38,-48 58.38,-51.5 58.38,-44.5"/>
</g>
<!-- Node7 -->
<g id="node7" class="node">
<title>Node7</title>
<g id="a_node7"><a xlink:href="../../de/df2/classnap_1_1_sequence_track_segment_event.html" target="_top" xlink:title=" ">
<polygon fill="white" stroke="black" points="577,-0.5 577,-19.5 766,-19.5 766,-0.5 577,-0.5"/>
<text text-anchor="middle" x="671.5" y="-7.5" font-family="Helvetica,sans-Serif" font-size="10.00">SequenceTrackSegmentEvent&lt; T &gt;</text>
</a>
</g>
</g>
<!-- Node6&#45;&gt;Node7 -->
<g id="edge6" class="edge">
<title>Node6&#45;&gt;Node7</title>
<path fill="none" stroke="midnightblue" d="M548.7,-10C558.1,-10 567.6,-10 576.92,-10"/>
<polygon fill="midnightblue" stroke="midnightblue" points="548.55,-6.5 538.55,-10 548.55,-13.5 548.55,-6.5"/>
</g>
</g>
</svg>
