<?xml version="1.0" encoding="UTF-8" standalone="no"?>
<!DOCTYPE svg PUBLIC "-//W3C//DTD SVG 1.1//EN"
 "http://www.w3.org/Graphics/SVG/1.1/DTD/svg11.dtd">
<!-- Generated by graphviz version 2.43.0 (0)
 -->
<!-- Title: TypedGPUBufferNumeric&lt; T &gt; Pages: 1 -->
<svg width="344pt" height="308pt"
 viewBox="0.00 0.00 344.00 308.00" xmlns="http://www.w3.org/2000/svg" xmlns:xlink="http://www.w3.org/1999/xlink">
<g id="graph0" class="graph" transform="scale(1 1) rotate(0) translate(4 304)">
<title>TypedGPUBufferNumeric&lt; T &gt;</title>
<polygon fill="white" stroke="transparent" points="-4,4 -4,-304 340,-304 340,4 -4,4"/>
<!-- Node1 -->
<g id="node1" class="node">
<title>Node1</title>
<g id="a_node1"><a xlink:title=" ">
<polygon fill="#bfbfbf" stroke="black" points="111.5,-0.5 111.5,-19.5 276.5,-19.5 276.5,-0.5 111.5,-0.5"/>
<text text-anchor="middle" x="194" y="-7.5" font-family="Helvetica,sans-Serif" font-size="10.00">TypedGPUBufferNumeric&lt; T &gt;</text>
</a>
</g>
</g>
<!-- Node2 -->
<g id="node2" class="node">
<title>Node2</title>
<g id="a_node2"><a xlink:href="../../dd/d69/classnap_1_1_g_p_u_buffer_numeric.html" target="_top" xlink:title=" ">
<polygon fill="white" stroke="black" points="70,-73 70,-92 178,-92 178,-73 70,-73"/>
<text text-anchor="middle" x="124" y="-80" font-family="Helvetica,sans-Serif" font-size="10.00">GPUBufferNumeric</text>
</a>
</g>
</g>
<!-- Node2&#45;&gt;Node1 -->
<g id="edge1" class="edge">
<title>Node2&#45;&gt;Node1</title>
<path fill="none" stroke="midnightblue" d="M139.7,-65.69C153.79,-51.49 173.97,-31.17 185.35,-19.72"/>
<polygon fill="midnightblue" stroke="midnightblue" points="137.15,-63.29 132.58,-72.86 142.11,-68.23 137.15,-63.29"/>
</g>
<!-- Node3 -->
<g id="node3" class="node">
<title>Node3</title>
<g id="a_node3"><a xlink:href="../../dd/df4/classnap_1_1_g_p_u_buffer.html" target="_top" xlink:title=" ">
<polygon fill="white" stroke="black" points="90.5,-135.5 90.5,-154.5 157.5,-154.5 157.5,-135.5 90.5,-135.5"/>
<text text-anchor="middle" x="124" y="-142.5" font-family="Helvetica,sans-Serif" font-size="10.00">GPUBuffer</text>
</a>
</g>
</g>
<!-- Node3&#45;&gt;Node2 -->
<g id="edge2" class="edge">
<title>Node3&#45;&gt;Node2</title>
<path fill="none" stroke="midnightblue" d="M124,-125C124,-114 124,-100.68 124,-92.15"/>
<polygon fill="midnightblue" stroke="midnightblue" points="120.5,-125.33 124,-135.33 127.5,-125.33 120.5,-125.33"/>
</g>
<!-- Node4 -->
<g id="node4" class="node">
<title>Node4</title>
<g id="a_node4"><a xlink:href="../../d9/dea/classnap_1_1_resource.html" target="_top" xlink:title=" ">
<polygon fill="white" stroke="black" points="0,-202.5 0,-221.5 62,-221.5 62,-202.5 0,-202.5"/>
<text text-anchor="middle" x="31" y="-209.5" font-family="Helvetica,sans-Serif" font-size="10.00">Resource</text>
</a>
</g>
</g>
<!-- Node4&#45;&gt;Node3 -->
<g id="edge3" class="edge">
<title>Node4&#45;&gt;Node3</title>
<path fill="none" stroke="midnightblue" d="M51.86,-196.42C70.25,-183.57 96.41,-165.28 111.66,-154.63"/>
<polygon fill="midnightblue" stroke="midnightblue" points="49.73,-193.64 43.54,-202.23 53.74,-199.37 49.73,-193.64"/>
</g>
<!-- Node5 -->
<g id="node5" class="node">
<title>Node5</title>
<g id="a_node5"><a xlink:href="../../de/d01/classnap_1_1rtti_1_1_object.html" target="_top" xlink:title=" ">
<polygon fill="white" stroke="black" points="7,-280.5 7,-299.5 55,-299.5 55,-280.5 7,-280.5"/>
<text text-anchor="middle" x="31" y="-287.5" font-family="Helvetica,sans-Serif" font-size="10.00">Object</text>
</a>
</g>
</g>
<!-- Node5&#45;&gt;Node4 -->
<g id="edge4" class="edge">
<title>Node5&#45;&gt;Node4</title>
<path fill="none" stroke="midnightblue" d="M31,-270.22C31,-254.7 31,-233.36 31,-221.62"/>
<polygon fill="midnightblue" stroke="midnightblue" points="27.5,-270.28 31,-280.28 34.5,-270.28 27.5,-270.28"/>
</g>
<!-- Node6 -->
<g id="node6" class="node">
<title>Node6</title>
<g id="a_node6"><a xlink:href="../../d5/dc6/classnap_1_1_render_service.html" target="_top" xlink:title=" ">
<polygon fill="white" stroke="black" points="80.5,-202.5 80.5,-221.5 167.5,-221.5 167.5,-202.5 80.5,-202.5"/>
<text text-anchor="middle" x="124" y="-209.5" font-family="Helvetica,sans-Serif" font-size="10.00">RenderService</text>
</a>
</g>
</g>
<!-- Node6&#45;&gt;Node3 -->
<g id="edge5" class="edge">
<title>Node6&#45;&gt;Node3</title>
<path fill="none" stroke="#9a32cd" stroke-dasharray="5,2" d="M124,-192.04C124,-179.67 124,-164.12 124,-154.63"/>
<polygon fill="#9a32cd" stroke="#9a32cd" points="120.5,-192.23 124,-202.23 127.5,-192.23 120.5,-192.23"/>
<text text-anchor="middle" x="166" y="-176" font-family="Helvetica,sans-Serif" font-size="10.00"> mRenderService</text>
</g>
<!-- Node7 -->
<g id="node7" class="node">
<title>Node7</title>
<g id="a_node7"><a xlink:href="../../d8/d8e/classnap_1_1_service.html" target="_top" xlink:title=" ">
<polygon fill="white" stroke="black" points="85.5,-280.5 85.5,-299.5 138.5,-299.5 138.5,-280.5 85.5,-280.5"/>
<text text-anchor="middle" x="112" y="-287.5" font-family="Helvetica,sans-Serif" font-size="10.00">Service</text>
</a>
</g>
</g>
<!-- Node7&#45;&gt;Node6 -->
<g id="edge6" class="edge">
<title>Node7&#45;&gt;Node6</title>
<path fill="none" stroke="midnightblue" d="M114.96,-270.22C117.42,-254.7 120.79,-233.36 122.64,-221.62"/>
<polygon fill="midnightblue" stroke="midnightblue" points="111.48,-269.86 113.38,-280.28 118.39,-270.95 111.48,-269.86"/>
</g>
<!-- Node8 -->
<g id="node8" class="node">
<title>Node8</title>
<g id="a_node8"><a xlink:href="../../de/d80/classnap_1_1_signal.html" target="_top" xlink:title=" ">
<polygon fill="white" stroke="black" points="156.5,-280.5 156.5,-299.5 333.5,-299.5 333.5,-280.5 156.5,-280.5"/>
<text text-anchor="middle" x="245" y="-287.5" font-family="Helvetica,sans-Serif" font-size="10.00">Signal&lt; nap::RenderWindow &amp; &gt;</text>
</a>
</g>
</g>
<!-- Node8&#45;&gt;Node6 -->
<g id="edge7" class="edge">
<title>Node8&#45;&gt;Node6</title>
<path fill="none" stroke="#9a32cd" stroke-dasharray="5,2" d="M222.35,-274.77C197.47,-259.15 158.32,-234.56 137.72,-221.62"/>
<polygon fill="#9a32cd" stroke="#9a32cd" points="220.79,-277.93 231.12,-280.28 224.51,-272 220.79,-277.93"/>
<text text-anchor="middle" x="243" y="-254" font-family="Helvetica,sans-Serif" font-size="10.00"> windowRemoved</text>
<text text-anchor="middle" x="243" y="-243" font-family="Helvetica,sans-Serif" font-size="10.00">windowAdded</text>
</g>
<!-- Node9 -->
<g id="node9" class="node">
<title>Node9</title>
<g id="a_node9"><a xlink:href="../../de/d80/classnap_1_1_signal.html" target="_top" xlink:title=" ">
<polygon fill="white" stroke="black" points="185.5,-202.5 185.5,-221.5 276.5,-221.5 276.5,-202.5 185.5,-202.5"/>
<text text-anchor="middle" x="231" y="-209.5" font-family="Helvetica,sans-Serif" font-size="10.00">Signal&lt; Args &gt;</text>
</a>
</g>
</g>
<!-- Node9&#45;&gt;Node3 -->
<g id="edge8" class="edge">
<title>Node9&#45;&gt;Node3</title>
<path fill="none" stroke="#9a32cd" stroke-dasharray="5,2" d="M223.83,-192.66C220.29,-185.66 215.39,-178.13 209,-173 194.39,-161.27 174.61,-154.59 157.8,-150.82"/>
<polygon fill="#9a32cd" stroke="#9a32cd" points="220.8,-194.47 228.05,-202.2 227.21,-191.64 220.8,-194.47"/>
<text text-anchor="middle" x="256.5" y="-176" font-family="Helvetica,sans-Serif" font-size="10.00"> bufferChanged</text>
</g>
<!-- Node10 -->
<g id="node10" class="node">
<title>Node10</title>
<g id="a_node10"><a xlink:href="../../dd/d7c/classnap_1_1rtti_1_1_object_ptr.html" target="_top" xlink:title=" ">
<polygon fill="white" stroke="black" points="196,-67.5 196,-97.5 336,-97.5 336,-67.5 196,-67.5"/>
<text text-anchor="start" x="204" y="-85.5" font-family="Helvetica,sans-Serif" font-size="10.00">ObjectPtr&lt; nap::FillPolicy</text>
<text text-anchor="middle" x="266" y="-74.5" font-family="Helvetica,sans-Serif" font-size="10.00">&lt; T &gt; &gt;</text>
</a>
</g>
</g>
<!-- Node10&#45;&gt;Node1 -->
<g id="edge9" class="edge">
<title>Node10&#45;&gt;Node1</title>
<path fill="none" stroke="#9a32cd" stroke-dasharray="5,2" d="M244.18,-60.14C230.41,-46.65 213.34,-29.94 203.08,-19.89"/>
<polygon fill="#9a32cd" stroke="#9a32cd" points="241.84,-62.74 251.43,-67.23 246.73,-57.74 241.84,-62.74"/>
<text text-anchor="middle" x="261.5" y="-41" font-family="Helvetica,sans-Serif" font-size="10.00"> mFillPolicy</text>
</g>
<!-- Node11 -->
<g id="node11" class="node">
<title>Node11</title>
<g id="a_node11"><a xlink:href="../../d7/dcb/classnap_1_1rtti_1_1_object_ptr_base.html" target="_top" xlink:title=" ">
<polygon fill="white" stroke="black" points="223,-135.5 223,-154.5 309,-154.5 309,-135.5 223,-135.5"/>
<text text-anchor="middle" x="266" y="-142.5" font-family="Helvetica,sans-Serif" font-size="10.00">ObjectPtrBase</text>
</a>
</g>
</g>
<!-- Node11&#45;&gt;Node10 -->
<g id="edge10" class="edge">
<title>Node11&#45;&gt;Node10</title>
<path fill="none" stroke="midnightblue" d="M266,-125.22C266,-116.36 266,-105.96 266,-97.76"/>
<polygon fill="midnightblue" stroke="midnightblue" points="262.5,-125.33 266,-135.33 269.5,-125.33 262.5,-125.33"/>
</g>
</g>
</svg>
