<?xml version="1.0" encoding="UTF-8" standalone="no"?>
<!DOCTYPE svg PUBLIC "-//W3C//DTD SVG 1.1//EN"
 "http://www.w3.org/Graphics/SVG/1.1/DTD/svg11.dtd">
<!-- Generated by graphviz version 3.0.0 (20220226.1711)
 -->
<!-- Title: VisualizeNormalsMesh Pages: 1 -->
<svg width="885pt" height="201pt"
 viewBox="0.00 0.00 885.00 201.48" xmlns="http://www.w3.org/2000/svg" xmlns:xlink="http://www.w3.org/1999/xlink">
<g id="graph0" class="graph" transform="scale(1 1) rotate(0) translate(4 197.48)">
<title>VisualizeNormalsMesh</title>
<polygon fill="white" stroke="transparent" points="-4,4 -4,-197.48 881,-197.48 881,4 -4,4"/>
<!-- Node4 -->
<g id="node1" class="node">
<title>Node4</title>
<polygon fill="#bfbfbf" stroke="black" points="761,-100.5 761,-119.5 877,-119.5 877,-100.5 761,-100.5"/>
<text text-anchor="middle" x="819" y="-107.5" font-family="Helvetica,sans-Serif" font-size="10.00">VisualizeNormalsMesh</text>
</g>
<!-- Node5 -->
<g id="node2" class="node">
<title>Node5</title>
<g id="a_node2"><a xlink:href="../../dd/dac/classnap_1_1_i_mesh.html" target="_top" xlink:title="IMesh">
<polygon fill="white" stroke="black" points="507,-164.5 507,-183.5 550,-183.5 550,-164.5 507,-164.5"/>
<text text-anchor="middle" x="528.5" y="-171.5" font-family="Helvetica,sans-Serif" font-size="10.00">IMesh</text>
</a>
</g>
</g>
<!-- Node5&#45;&gt;Node4 -->
<g id="edge1" class="edge">
<title>Node5&#45;&gt;Node4</title>
<path fill="none" stroke="midnightblue" d="M559.88,-181.81C602.46,-191.22 681.57,-202.96 743,-179 773.82,-166.98 799.64,-135.7 811.31,-119.72"/>
<polygon fill="midnightblue" stroke="midnightblue" points="560.65,-178.4 550.12,-179.56 559.07,-185.22 560.65,-178.4"/>
</g>
<!-- Node5&#45;&gt;Node4 -->
<g id="edge7" class="edge">
<title>Node5&#45;&gt;Node4</title>
<path fill="none" stroke="#9a32cd" stroke-dasharray="5,2" d="M560.28,-171.56C602.21,-167.72 679.37,-158.79 743,-141 762.4,-135.57 783.53,-126.54 798.4,-119.62"/>
<polygon fill="#9a32cd" stroke="#9a32cd" points="559.81,-168.09 550.16,-172.45 560.42,-175.06 559.81,-168.09"/>
<text text-anchor="middle" x="687.5" y="-166" font-family="Helvetica,sans-Serif" font-size="10.00"> mCurrentReferenceMesh</text>
</g>
<!-- Node6 -->
<g id="node3" class="node">
<title>Node6</title>
<g id="a_node3"><a xlink:href="../../d9/dea/classnap_1_1_resource.html" target="_top" xlink:title="Resource">
<polygon fill="white" stroke="black" points="82,-145.5 82,-164.5 140,-164.5 140,-145.5 82,-145.5"/>
<text text-anchor="middle" x="111" y="-152.5" font-family="Helvetica,sans-Serif" font-size="10.00">Resource</text>
</a>
</g>
</g>
<!-- Node6&#45;&gt;Node5 -->
<g id="edge2" class="edge">
<title>Node6&#45;&gt;Node5</title>
<path fill="none" stroke="midnightblue" d="M150.26,-159.37C152.88,-159.6 155.48,-159.82 158,-160 290.53,-169.7 450.32,-172.87 506.64,-173.72"/>
<polygon fill="midnightblue" stroke="midnightblue" points="150.48,-155.87 140.19,-158.38 149.8,-162.84 150.48,-155.87"/>
</g>
<!-- Node12 -->
<g id="node9" class="node">
<title>Node12</title>
<g id="a_node9"><a xlink:href="../../d7/db2/classnap_1_1_base_vertex_attribute.html" target="_top" xlink:title="BaseVertexAttribute">
<polygon fill="white" stroke="black" points="202.5,-126.5 202.5,-145.5 306.5,-145.5 306.5,-126.5 202.5,-126.5"/>
<text text-anchor="middle" x="254.5" y="-133.5" font-family="Helvetica,sans-Serif" font-size="10.00">BaseVertexAttribute</text>
</a>
</g>
</g>
<!-- Node6&#45;&gt;Node12 -->
<g id="edge10" class="edge">
<title>Node6&#45;&gt;Node12</title>
<path fill="none" stroke="midnightblue" d="M150.36,-149.85C166.37,-147.7 185.19,-145.17 202.35,-142.87"/>
<polygon fill="midnightblue" stroke="midnightblue" points="149.74,-146.4 140.29,-151.2 150.67,-153.34 149.74,-146.4"/>
</g>
<!-- Node7 -->
<g id="node4" class="node">
<title>Node7</title>
<g id="a_node4"><a xlink:href="../../de/d01/classnap_1_1rtti_1_1_object.html" target="_top" xlink:title="Object">
<polygon fill="white" stroke="black" points="0,-145.5 0,-164.5 45,-164.5 45,-145.5 0,-145.5"/>
<text text-anchor="middle" x="22.5" y="-152.5" font-family="Helvetica,sans-Serif" font-size="10.00">Object</text>
</a>
</g>
</g>
<!-- Node7&#45;&gt;Node6 -->
<g id="edge3" class="edge">
<title>Node7&#45;&gt;Node6</title>
<path fill="none" stroke="midnightblue" d="M55.49,-155C64.17,-155 73.51,-155 81.95,-155"/>
<polygon fill="midnightblue" stroke="midnightblue" points="55.33,-151.5 45.33,-155 55.33,-158.5 55.33,-151.5"/>
</g>
<!-- Node8 -->
<g id="node5" class="node">
<title>Node8</title>
<g id="a_node5"><a xlink:href="../../d5/dc6/classnap_1_1_render_service.html" target="_top" xlink:title="RenderService">
<polygon fill="white" stroke="black" points="489,-38.5 489,-57.5 568,-57.5 568,-38.5 489,-38.5"/>
<text text-anchor="middle" x="528.5" y="-45.5" font-family="Helvetica,sans-Serif" font-size="10.00">RenderService</text>
</a>
</g>
</g>
<!-- Node8&#45;&gt;Node4 -->
<g id="edge4" class="edge">
<title>Node8&#45;&gt;Node4</title>
<path fill="none" stroke="#9a32cd" stroke-dasharray="5,2" d="M578.38,-46.88C622.4,-47.19 688.38,-50.99 743,-68 766.37,-75.28 790.58,-90.47 804.96,-100.45"/>
<polygon fill="#9a32cd" stroke="#9a32cd" points="578.24,-43.38 568.23,-46.86 578.23,-50.38 578.24,-43.38"/>
<text text-anchor="middle" x="687.5" y="-71" font-family="Helvetica,sans-Serif" font-size="10.00"> mRenderService</text>
</g>
<!-- Node9 -->
<g id="node6" class="node">
<title>Node9</title>
<g id="a_node6"><a xlink:href="../../d8/d8e/classnap_1_1_service.html" target="_top" xlink:title="Service">
<polygon fill="white" stroke="black" points="230.5,-76.5 230.5,-95.5 278.5,-95.5 278.5,-76.5 230.5,-76.5"/>
<text text-anchor="middle" x="254.5" y="-83.5" font-family="Helvetica,sans-Serif" font-size="10.00">Service</text>
</a>
</g>
</g>
<!-- Node9&#45;&gt;Node8 -->
<g id="edge5" class="edge">
<title>Node9&#45;&gt;Node8</title>
<path fill="none" stroke="midnightblue" d="M289.05,-84.69C323.37,-83.01 378.15,-79.38 425,-72 428.29,-71.48 461.17,-63.75 488.81,-57.2"/>
<polygon fill="midnightblue" stroke="midnightblue" points="288.49,-81.21 278.66,-85.17 288.81,-88.21 288.49,-81.21"/>
</g>
<!-- Node10 -->
<g id="node7" class="node">
<title>Node10</title>
<g id="a_node7"><a xlink:href="../../de/d80/classnap_1_1_signal.html" target="_top" xlink:title="Signal\&lt; nap::RenderWindow &amp;\&gt;">
<polygon fill="white" stroke="black" points="177,-38.5 177,-57.5 332,-57.5 332,-38.5 177,-38.5"/>
<text text-anchor="middle" x="254.5" y="-45.5" font-family="Helvetica,sans-Serif" font-size="10.00">Signal&lt; nap::RenderWindow &amp;&gt;</text>
</a>
</g>
</g>
<!-- Node10&#45;&gt;Node8 -->
<g id="edge6" class="edge">
<title>Node10&#45;&gt;Node8</title>
<path fill="none" stroke="#9a32cd" stroke-dasharray="5,2" d="M342.39,-48C391.67,-48 450.89,-48 488.85,-48"/>
<polygon fill="#9a32cd" stroke="#9a32cd" points="342.35,-44.5 332.35,-48 342.35,-51.5 342.35,-44.5"/>
<text text-anchor="middle" x="387.5" y="-62" font-family="Helvetica,sans-Serif" font-size="10.00"> windowRemoved</text>
<text text-anchor="middle" x="387.5" y="-51" font-family="Helvetica,sans-Serif" font-size="10.00">windowAdded</text>
</g>
<!-- Node11 -->
<g id="node8" class="node">
<title>Node11</title>
<g id="a_node8"><a xlink:href="../../d7/da0/classnap_1_1_vertex_attribute.html" target="_top" xlink:title="VertexAttribute\&lt; ELEMENTTYPE \&gt;">
<polygon fill="white" stroke="black" points="443,-126.5 443,-145.5 614,-145.5 614,-126.5 443,-126.5"/>
<text text-anchor="middle" x="528.5" y="-133.5" font-family="Helvetica,sans-Serif" font-size="10.00">VertexAttribute&lt; ELEMENTTYPE &gt;</text>
</a>
</g>
</g>
<!-- Node11&#45;&gt;Node4 -->
<g id="edge8" class="edge">
<title>Node11&#45;&gt;Node4</title>
<path fill="none" stroke="#9a32cd" stroke-dasharray="5,2" d="M624.21,-127.46C669.35,-123.4 721.84,-118.67 760.81,-115.15"/>
<polygon fill="#9a32cd" stroke="#9a32cd" points="623.76,-123.99 614.11,-128.37 624.38,-130.96 623.76,-123.99"/>
<text text-anchor="middle" x="687.5" y="-129" font-family="Helvetica,sans-Serif" font-size="10.00"> mTipAttr</text>
</g>
<!-- Node12&#45;&gt;Node11 -->
<g id="edge9" class="edge">
<title>Node12&#45;&gt;Node11</title>
<path fill="none" stroke="midnightblue" d="M316.86,-136C354.07,-136 402.09,-136 442.88,-136"/>
<polygon fill="midnightblue" stroke="midnightblue" points="316.66,-132.5 306.66,-136 316.66,-139.5 316.66,-132.5"/>
</g>
<!-- Node13 -->
<g id="node10" class="node">
<title>Node13</title>
<g id="a_node10"><a xlink:href="../../d7/da0/classnap_1_1_vertex_attribute.html" target="_top" xlink:title="VertexAttribute\&lt; glm\l::vec3 \&gt;">
<polygon fill="white" stroke="black" points="475,-77 475,-107 582,-107 582,-77 475,-77"/>
<text text-anchor="start" x="483" y="-95" font-family="Helvetica,sans-Serif" font-size="10.00">VertexAttribute&lt; glm</text>
<text text-anchor="middle" x="528.5" y="-84" font-family="Helvetica,sans-Serif" font-size="10.00">::vec3 &gt;</text>
</a>
</g>
</g>
<!-- Node12&#45;&gt;Node13 -->
<g id="edge12" class="edge">
<title>Node12&#45;&gt;Node13</title>
<path fill="none" stroke="midnightblue" d="M316.82,-126.08C364.34,-118.39 429.5,-107.85 474.71,-100.54"/>
<polygon fill="midnightblue" stroke="midnightblue" points="315.97,-122.67 306.66,-127.72 317.09,-129.58 315.97,-122.67"/>
</g>
<!-- Node13&#45;&gt;Node4 -->
<g id="edge11" class="edge">
<title>Node13&#45;&gt;Node4</title>
<path fill="none" stroke="#9a32cd" stroke-dasharray="5,2" d="M592.65,-86.16C635.31,-83.43 692.79,-82.1 743,-89 759.21,-91.23 776.85,-96.04 790.95,-100.5"/>
<polygon fill="#9a32cd" stroke="#9a32cd" points="592.15,-82.69 582.41,-86.86 592.63,-89.67 592.15,-82.69"/>
<text text-anchor="middle" x="687.5" y="-103" font-family="Helvetica,sans-Serif" font-size="10.00"> mNormalsAttr</text>
<text text-anchor="middle" x="687.5" y="-92" font-family="Helvetica,sans-Serif" font-size="10.00">mPositionAttr</text>
</g>
<!-- Node14 -->
<g id="node11" class="node">
<title>Node14</title>
<g id="a_node11"><a xlink:href="../../dd/d7c/classnap_1_1rtti_1_1_object_ptr.html" target="_top" xlink:title="ObjectPtr\&lt; nap::IMesh \&gt;">
<polygon fill="white" stroke="black" points="466.5,-0.5 466.5,-19.5 590.5,-19.5 590.5,-0.5 466.5,-0.5"/>
<text text-anchor="middle" x="528.5" y="-7.5" font-family="Helvetica,sans-Serif" font-size="10.00">ObjectPtr&lt; nap::IMesh &gt;</text>
</a>
</g>
</g>
<!-- Node14&#45;&gt;Node4 -->
<g id="edge13" class="edge">
<title>Node14&#45;&gt;Node4</title>
<path fill="none" stroke="#9a32cd" stroke-dasharray="5,2" d="M601.06,-6.31C644.17,-6.88 699.04,-12.66 743,-34 774.52,-49.3 800.38,-83.43 811.75,-100.25"/>
<polygon fill="#9a32cd" stroke="#9a32cd" points="600.94,-2.81 590.93,-6.27 600.92,-9.81 600.94,-2.81"/>
<text text-anchor="middle" x="687.5" y="-37" font-family="Helvetica,sans-Serif" font-size="10.00"> mReferenceMesh</text>
</g>
<!-- Node15 -->
<g id="node12" class="node">
<title>Node15</title>
<g id="a_node12"><a xlink:href="../../d7/dcb/classnap_1_1rtti_1_1_object_ptr_base.html" target="_top" xlink:title="ObjectPtrBase">
<polygon fill="white" stroke="black" points="214.5,-0.5 214.5,-19.5 294.5,-19.5 294.5,-0.5 214.5,-0.5"/>
<text text-anchor="middle" x="254.5" y="-7.5" font-family="Helvetica,sans-Serif" font-size="10.00">ObjectPtrBase</text>
</a>
</g>
</g>
<!-- Node15&#45;&gt;Node14 -->
<g id="edge14" class="edge">
<title>Node15&#45;&gt;Node14</title>
<path fill="none" stroke="midnightblue" d="M304.94,-10C350.31,-10 417.67,-10 466.39,-10"/>
<polygon fill="midnightblue" stroke="midnightblue" points="304.76,-6.5 294.76,-10 304.76,-13.5 304.76,-6.5"/>
</g>
</g>
</svg>
