<?xml version="1.0" encoding="UTF-8" standalone="no"?>
<!DOCTYPE svg PUBLIC "-//W3C//DTD SVG 1.1//EN"
 "http://www.w3.org/Graphics/SVG/1.1/DTD/svg11.dtd">
<!-- Generated by graphviz version 3.0.0 (20220226.1711)
 -->
<!-- Title: EntityCreationParameters Pages: 1 -->
<svg width="272pt" height="95pt"
 viewBox="0.00 0.00 272.00 95.00" xmlns="http://www.w3.org/2000/svg" xmlns:xlink="http://www.w3.org/1999/xlink">
<g id="graph0" class="graph" transform="scale(1 1) rotate(0) translate(4 91)">
<title>EntityCreationParameters</title>
<polygon fill="white" stroke="transparent" points="-4,4 -4,-91 268,-91 268,4 -4,4"/>
<!-- Node1 -->
<g id="node1" class="node">
<title>Node1</title>
<polygon fill="#bfbfbf" stroke="black" points="61,-0.5 61,-19.5 189,-19.5 189,-0.5 61,-0.5"/>
<text text-anchor="middle" x="125" y="-7.5" font-family="Helvetica,sans-Serif" font-size="10.00">EntityCreationParameters</text>
</g>
<!-- Node2 -->
<g id="node2" class="node">
<title>Node2</title>
<g id="a_node2"><a xlink:href="../../dc/d8e/classnap_1_1_object_graph.html" target="_top" xlink:title="ObjectGraph\&lt; ITEM \&gt;">
<polygon fill="white" stroke="black" points="0,-67.5 0,-86.5 112,-86.5 112,-67.5 0,-67.5"/>
<text text-anchor="middle" x="56" y="-74.5" font-family="Helvetica,sans-Serif" font-size="10.00">ObjectGraph&lt; ITEM &gt;</text>
</a>
</g>
</g>
<!-- Node2&#45;&gt;Node1 -->
<g id="edge1" class="edge">
<title>Node2&#45;&gt;Node1</title>
<path fill="none" stroke="#9a32cd" stroke-dasharray="5,2" d="M72.61,-60.36C86.17,-47.58 104.84,-29.99 115.84,-19.63"/>
<polygon fill="#9a32cd" stroke="#9a32cd" points="70.18,-57.83 65.31,-67.23 74.98,-62.92 70.18,-57.83"/>
<text text-anchor="middle" x="128.5" y="-41" font-family="Helvetica,sans-Serif" font-size="10.00"> mObjectGraph</text>
</g>
<!-- Node3 -->
<g id="node3" class="node">
<title>Node3</title>
<g id="a_node3"><a xlink:href="../../df/d17/classnap_1_1_component_resource_path.html" target="_top" xlink:title="ComponentResourcePath">
<polygon fill="white" stroke="black" points="130,-67.5 130,-86.5 258,-86.5 258,-67.5 130,-67.5"/>
<text text-anchor="middle" x="194" y="-74.5" font-family="Helvetica,sans-Serif" font-size="10.00">ComponentResourcePath</text>
</a>
</g>
</g>
<!-- Node3&#45;&gt;Node1 -->
<g id="edge2" class="edge">
<title>Node3&#45;&gt;Node1</title>
<path fill="none" stroke="#9a32cd" stroke-dasharray="5,2" d="M183.27,-58.81C178.48,-51.9 172.46,-44.13 166,-38 158.46,-30.84 148.79,-24.38 140.74,-19.57"/>
<polygon fill="#9a32cd" stroke="#9a32cd" points="180.54,-61.04 188.96,-67.48 186.39,-57.2 180.54,-61.04"/>
<text text-anchor="middle" x="219.5" y="-41" font-family="Helvetica,sans-Serif" font-size="10.00"> mCurrentEntityPath</text>
</g>
</g>
</svg>
