<?xml version="1.0" encoding="UTF-8" standalone="no"?>
<!DOCTYPE svg PUBLIC "-//W3C//DTD SVG 1.1//EN"
 "http://www.w3.org/Graphics/SVG/1.1/DTD/svg11.dtd">
<!-- Generated by graphviz version 2.43.0 (0)
 -->
<!-- Title: RenderService Pages: 1 -->
<svg width="256pt" height="106pt"
 viewBox="0.00 0.00 256.00 106.00" xmlns="http://www.w3.org/2000/svg" xmlns:xlink="http://www.w3.org/1999/xlink">
<g id="graph0" class="graph" transform="scale(1 1) rotate(0) translate(4 102)">
<title>RenderService</title>
<polygon fill="white" stroke="transparent" points="-4,4 -4,-102 252,-102 252,4 -4,4"/>
<!-- Node1 -->
<g id="node1" class="node">
<title>Node1</title>
<g id="a_node1"><a xlink:title=" ">
<polygon fill="#bfbfbf" stroke="black" points="49,-0.5 49,-19.5 136,-19.5 136,-0.5 49,-0.5"/>
<text text-anchor="middle" x="92.5" y="-7.5" font-family="Helvetica,sans-Serif" font-size="10.00">RenderService</text>
</a>
</g>
</g>
<!-- Node2 -->
<g id="node2" class="node">
<title>Node2</title>
<g id="a_node2"><a xlink:href="../../d8/d8e/classnap_1_1_service.html" target="_top" xlink:title=" ">
<polygon fill="white" stroke="black" points="0,-78.5 0,-97.5 53,-97.5 53,-78.5 0,-78.5"/>
<text text-anchor="middle" x="26.5" y="-85.5" font-family="Helvetica,sans-Serif" font-size="10.00">Service</text>
</a>
</g>
</g>
<!-- Node2&#45;&gt;Node1 -->
<g id="edge1" class="edge">
<title>Node2&#45;&gt;Node1</title>
<path fill="none" stroke="midnightblue" d="M40.88,-70.44C54.47,-54.79 74.33,-31.93 85.02,-19.62"/>
<polygon fill="midnightblue" stroke="midnightblue" points="37.99,-68.44 34.07,-78.28 43.27,-73.03 37.99,-68.44"/>
</g>
<!-- Node3 -->
<g id="node3" class="node">
<title>Node3</title>
<g id="a_node3"><a xlink:href="../../de/d80/classnap_1_1_signal.html" target="_top" xlink:title=" ">
<polygon fill="white" stroke="black" points="71,-78.5 71,-97.5 248,-97.5 248,-78.5 71,-78.5"/>
<text text-anchor="middle" x="159.5" y="-85.5" font-family="Helvetica,sans-Serif" font-size="10.00">Signal&lt; nap::RenderWindow &amp; &gt;</text>
</a>
</g>
</g>
<!-- Node3&#45;&gt;Node1 -->
<g id="edge2" class="edge">
<title>Node3&#45;&gt;Node1</title>
<path fill="none" stroke="#9a32cd" stroke-dasharray="5,2" d="M144.9,-70.44C131.11,-54.79 110.95,-31.93 100.1,-19.62"/>
<polygon fill="#9a32cd" stroke="#9a32cd" points="142.58,-73.1 151.81,-78.28 147.83,-68.47 142.58,-73.1"/>
<text text-anchor="middle" x="177.5" y="-52" font-family="Helvetica,sans-Serif" font-size="10.00"> windowRemoved</text>
<text text-anchor="middle" x="177.5" y="-41" font-family="Helvetica,sans-Serif" font-size="10.00">windowAdded</text>
</g>
</g>
</svg>
