<?xml version="1.0" encoding="UTF-8" standalone="no"?>
<!DOCTYPE svg PUBLIC "-//W3C//DTD SVG 1.1//EN"
 "http://www.w3.org/Graphics/SVG/1.1/DTD/svg11.dtd">
<!-- Generated by graphviz version 3.0.0 (20220226.1711)
 -->
<!-- Title: ServiceConfiguration Pages: 1 -->
<svg width="378pt" height="218pt"
 viewBox="0.00 0.00 378.00 218.00" xmlns="http://www.w3.org/2000/svg" xmlns:xlink="http://www.w3.org/1999/xlink">
<g id="graph0" class="graph" transform="scale(1 1) rotate(0) translate(4 214)">
<title>ServiceConfiguration</title>
<polygon fill="white" stroke="transparent" points="-4,4 -4,-214 374,-214 374,4 -4,4"/>
<!-- Node0 -->
<g id="node1" class="node">
<title>Node0</title>
<polygon fill="#bfbfbf" stroke="black" points="81,-95.5 81,-114.5 185,-114.5 185,-95.5 81,-95.5"/>
<text text-anchor="middle" x="133" y="-102.5" font-family="Helvetica,sans-Serif" font-size="10.00">ServiceConfiguration</text>
</g>
<!-- Node2 -->
<g id="node3" class="node">
<title>Node2</title>
<g id="a_node3"><a xlink:href="../../de/d2e/classnap_1_1audio_1_1_audio_service_configuration.html" target="_top" xlink:title="AudioServiceConfiguration">
<polygon fill="white" stroke="black" points="231,-190.5 231,-209.5 360,-209.5 360,-190.5 231,-190.5"/>
<text text-anchor="middle" x="295.5" y="-197.5" font-family="Helvetica,sans-Serif" font-size="10.00">AudioServiceConfiguration</text>
</a>
</g>
</g>
<!-- Node0&#45;&gt;Node2 -->
<g id="edge2" class="edge">
<title>Node0&#45;&gt;Node2</title>
<path fill="none" stroke="midnightblue" d="M149.08,-122.22C165.2,-139.57 192.34,-165.88 221,-181 228.34,-184.87 236.52,-187.99 244.69,-190.49"/>
<polygon fill="midnightblue" stroke="midnightblue" points="151.4,-119.57 142.1,-114.51 146.22,-124.27 151.4,-119.57"/>
</g>
<!-- Node3 -->
<g id="node4" class="node">
<title>Node3</title>
<g id="a_node4"><a xlink:href="../../d6/d63/classnap_1_1_c_v_service_configuration.html" target="_top" xlink:title="CVServiceConfiguration">
<polygon fill="white" stroke="black" points="236.5,-152.5 236.5,-171.5 354.5,-171.5 354.5,-152.5 236.5,-152.5"/>
<text text-anchor="middle" x="295.5" y="-159.5" font-family="Helvetica,sans-Serif" font-size="10.00">CVServiceConfiguration</text>
</a>
</g>
</g>
<!-- Node0&#45;&gt;Node3 -->
<g id="edge3" class="edge">
<title>Node0&#45;&gt;Node3</title>
<path fill="none" stroke="midnightblue" d="M162.58,-118.86C179.34,-126.63 201.07,-136.12 221,-143 231.22,-146.53 242.43,-149.74 252.95,-152.49"/>
<polygon fill="midnightblue" stroke="midnightblue" points="163.88,-115.6 153.34,-114.51 160.9,-121.93 163.88,-115.6"/>
</g>
<!-- Node4 -->
<g id="node5" class="node">
<title>Node4</title>
<g id="a_node5"><a xlink:href="../../d4/d0c/classnap_1_1_i_m_gui_service_configuration.html" target="_top" xlink:title="IMGuiServiceConfiguration">
<polygon fill="white" stroke="black" points="230.5,-114.5 230.5,-133.5 360.5,-133.5 360.5,-114.5 230.5,-114.5"/>
<text text-anchor="middle" x="295.5" y="-121.5" font-family="Helvetica,sans-Serif" font-size="10.00">IMGuiServiceConfiguration</text>
</a>
</g>
</g>
<!-- Node0&#45;&gt;Node4 -->
<g id="edge4" class="edge">
<title>Node0&#45;&gt;Node4</title>
<path fill="none" stroke="midnightblue" d="M195.49,-112.28C206.87,-113.63 218.78,-115.04 230.23,-116.39"/>
<polygon fill="midnightblue" stroke="midnightblue" points="195.57,-108.76 185.22,-111.06 194.74,-115.72 195.57,-108.76"/>
</g>
<!-- Node5 -->
<g id="node6" class="node">
<title>Node5</title>
<g id="a_node6"><a xlink:href="../../dd/de5/classnap_1_1_license_configuration.html" target="_top" xlink:title="LicenseConfiguration">
<polygon fill="white" stroke="black" points="242,-76.5 242,-95.5 349,-95.5 349,-76.5 242,-76.5"/>
<text text-anchor="middle" x="295.5" y="-83.5" font-family="Helvetica,sans-Serif" font-size="10.00">LicenseConfiguration</text>
</a>
</g>
</g>
<!-- Node0&#45;&gt;Node5 -->
<g id="edge5" class="edge">
<title>Node0&#45;&gt;Node5</title>
<path fill="none" stroke="midnightblue" d="M195.16,-97.76C210.54,-95.94 226.91,-94 241.83,-92.23"/>
<polygon fill="midnightblue" stroke="midnightblue" points="194.74,-94.28 185.22,-98.94 195.57,-101.24 194.74,-94.28"/>
</g>
<!-- Node6 -->
<g id="node7" class="node">
<title>Node6</title>
<g id="a_node7"><a xlink:href="../../d1/d24/classnap_1_1_parameter_service_configuration.html" target="_top" xlink:title="ParameterServiceConfiguration">
<polygon fill="white" stroke="black" points="221,-38.5 221,-57.5 370,-57.5 370,-38.5 221,-38.5"/>
<text text-anchor="middle" x="295.5" y="-45.5" font-family="Helvetica,sans-Serif" font-size="10.00">ParameterServiceConfiguration</text>
</a>
</g>
</g>
<!-- Node0&#45;&gt;Node6 -->
<g id="edge6" class="edge">
<title>Node0&#45;&gt;Node6</title>
<path fill="none" stroke="midnightblue" d="M162.58,-91.14C179.34,-83.37 201.07,-73.88 221,-67 231.22,-63.47 242.43,-60.26 252.95,-57.51"/>
<polygon fill="midnightblue" stroke="midnightblue" points="160.9,-88.07 153.34,-95.49 163.88,-94.4 160.9,-88.07"/>
</g>
<!-- Node7 -->
<g id="node8" class="node">
<title>Node7</title>
<g id="a_node8"><a xlink:href="../../df/d57/classnap_1_1_render_service_configuration.html" target="_top" xlink:title="RenderServiceConfiguration">
<polygon fill="white" stroke="black" points="228,-0.5 228,-19.5 363,-19.5 363,-0.5 228,-0.5"/>
<text text-anchor="middle" x="295.5" y="-7.5" font-family="Helvetica,sans-Serif" font-size="10.00">RenderServiceConfiguration</text>
</a>
</g>
</g>
<!-- Node0&#45;&gt;Node7 -->
<g id="edge7" class="edge">
<title>Node0&#45;&gt;Node7</title>
<path fill="none" stroke="midnightblue" d="M149.08,-87.78C165.2,-70.43 192.34,-44.12 221,-29 228.34,-25.13 236.52,-22.01 244.69,-19.51"/>
<polygon fill="midnightblue" stroke="midnightblue" points="146.22,-85.73 142.1,-95.49 151.4,-90.43 146.22,-85.73"/>
</g>
<!-- Node1 -->
<g id="node2" class="node">
<title>Node1</title>
<g id="a_node2"><a xlink:href="../../de/d01/classnap_1_1rtti_1_1_object.html" target="_top" xlink:title="Object">
<polygon fill="white" stroke="black" points="0,-95.5 0,-114.5 45,-114.5 45,-95.5 0,-95.5"/>
<text text-anchor="middle" x="22.5" y="-102.5" font-family="Helvetica,sans-Serif" font-size="10.00">Object</text>
</a>
</g>
</g>
<!-- Node1&#45;&gt;Node0 -->
<g id="edge1" class="edge">
<title>Node1&#45;&gt;Node0</title>
<path fill="none" stroke="midnightblue" d="M55.46,-105C63.4,-105 72.11,-105 80.72,-105"/>
<polygon fill="midnightblue" stroke="midnightblue" points="55.2,-101.5 45.2,-105 55.2,-108.5 55.2,-101.5"/>
</g>
</g>
</svg>
