<?xml version="1.0" encoding="UTF-8" standalone="no"?>
<!DOCTYPE svg PUBLIC "-//W3C//DTD SVG 1.1//EN"
 "http://www.w3.org/Graphics/SVG/1.1/DTD/svg11.dtd">
<!-- Generated by graphviz version 2.43.0 (0)
 -->
<!-- Title: ServiceConfiguration Pages: 1 -->
<svg width="414pt" height="218pt"
 viewBox="0.00 0.00 414.00 218.00" xmlns="http://www.w3.org/2000/svg" xmlns:xlink="http://www.w3.org/1999/xlink">
<g id="graph0" class="graph" transform="scale(1 1) rotate(0) translate(4 214)">
<title>ServiceConfiguration</title>
<polygon fill="white" stroke="transparent" points="-4,4 -4,-214 410,-214 410,4 -4,4"/>
<!-- Node1 -->
<g id="node1" class="node">
<title>Node1</title>
<g id="a_node1"><a xlink:title=" ">
<polygon fill="#bfbfbf" stroke="black" points="84,-95.5 84,-114.5 202,-114.5 202,-95.5 84,-95.5"/>
<text text-anchor="middle" x="143" y="-102.5" font-family="Helvetica,sans-Serif" font-size="10.00">ServiceConfiguration</text>
</a>
</g>
</g>
<!-- Node3 -->
<g id="node3" class="node">
<title>Node3</title>
<g id="a_node3"><a xlink:href="../../de/d2e/classnap_1_1audio_1_1_audio_service_configuration.html" target="_top" xlink:title=" ">
<polygon fill="white" stroke="black" points="249,-190.5 249,-209.5 395,-209.5 395,-190.5 249,-190.5"/>
<text text-anchor="middle" x="322" y="-197.5" font-family="Helvetica,sans-Serif" font-size="10.00">AudioServiceConfiguration</text>
</a>
</g>
</g>
<!-- Node1&#45;&gt;Node3 -->
<g id="edge2" class="edge">
<title>Node1&#45;&gt;Node3</title>
<path fill="none" stroke="midnightblue" d="M160.01,-121.87C177.53,-139.31 207.23,-166.04 238,-181 245.98,-184.88 254.77,-187.98 263.57,-190.46"/>
<polygon fill="midnightblue" stroke="midnightblue" points="162.37,-119.27 152.86,-114.59 157.37,-124.18 162.37,-119.27"/>
</g>
<!-- Node4 -->
<g id="node4" class="node">
<title>Node4</title>
<g id="a_node4"><a xlink:href="../../d6/d63/classnap_1_1_c_v_service_configuration.html" target="_top" xlink:title=" ">
<polygon fill="white" stroke="black" points="256.5,-152.5 256.5,-171.5 387.5,-171.5 387.5,-152.5 256.5,-152.5"/>
<text text-anchor="middle" x="322" y="-159.5" font-family="Helvetica,sans-Serif" font-size="10.00">CVServiceConfiguration</text>
</a>
</g>
</g>
<!-- Node1&#45;&gt;Node4 -->
<g id="edge3" class="edge">
<title>Node1&#45;&gt;Node4</title>
<path fill="none" stroke="midnightblue" d="M174.16,-118.62C192.38,-126.49 216.22,-136.15 238,-143 249.28,-146.55 261.62,-149.73 273.25,-152.44"/>
<polygon fill="midnightblue" stroke="midnightblue" points="175.49,-115.38 164.93,-114.58 172.69,-121.8 175.49,-115.38"/>
</g>
<!-- Node5 -->
<g id="node5" class="node">
<title>Node5</title>
<g id="a_node5"><a xlink:href="../../d4/d0c/classnap_1_1_i_m_gui_service_configuration.html" target="_top" xlink:title=" ">
<polygon fill="white" stroke="black" points="249,-114.5 249,-133.5 395,-133.5 395,-114.5 249,-114.5"/>
<text text-anchor="middle" x="322" y="-121.5" font-family="Helvetica,sans-Serif" font-size="10.00">IMGuiServiceConfiguration</text>
</a>
</g>
</g>
<!-- Node1&#45;&gt;Node5 -->
<g id="edge4" class="edge">
<title>Node1&#45;&gt;Node5</title>
<path fill="none" stroke="midnightblue" d="M212.68,-112.37C224.5,-113.64 236.81,-114.96 248.72,-116.24"/>
<polygon fill="midnightblue" stroke="midnightblue" points="212.76,-108.86 202.45,-111.27 212.02,-115.82 212.76,-108.86"/>
</g>
<!-- Node6 -->
<g id="node6" class="node">
<title>Node6</title>
<g id="a_node6"><a xlink:href="../../dd/de5/classnap_1_1_license_configuration.html" target="_top" xlink:title=" ">
<polygon fill="white" stroke="black" points="262.5,-76.5 262.5,-95.5 381.5,-95.5 381.5,-76.5 262.5,-76.5"/>
<text text-anchor="middle" x="322" y="-83.5" font-family="Helvetica,sans-Serif" font-size="10.00">LicenseConfiguration</text>
</a>
</g>
</g>
<!-- Node1&#45;&gt;Node6 -->
<g id="edge5" class="edge">
<title>Node1&#45;&gt;Node6</title>
<path fill="none" stroke="midnightblue" d="M212.53,-97.64C228.97,-95.88 246.37,-94.01 262.31,-92.3"/>
<polygon fill="midnightblue" stroke="midnightblue" points="212.02,-94.18 202.45,-98.73 212.76,-101.14 212.02,-94.18"/>
</g>
<!-- Node7 -->
<g id="node7" class="node">
<title>Node7</title>
<g id="a_node7"><a xlink:href="../../d1/d24/classnap_1_1_parameter_service_configuration.html" target="_top" xlink:title=" ">
<polygon fill="white" stroke="black" points="238,-38.5 238,-57.5 406,-57.5 406,-38.5 238,-38.5"/>
<text text-anchor="middle" x="322" y="-45.5" font-family="Helvetica,sans-Serif" font-size="10.00">ParameterServiceConfiguration</text>
</a>
</g>
</g>
<!-- Node1&#45;&gt;Node7 -->
<g id="edge6" class="edge">
<title>Node1&#45;&gt;Node7</title>
<path fill="none" stroke="midnightblue" d="M174.16,-91.38C192.38,-83.51 216.22,-73.85 238,-67 249.28,-63.45 261.62,-60.27 273.25,-57.56"/>
<polygon fill="midnightblue" stroke="midnightblue" points="172.69,-88.2 164.93,-95.42 175.49,-94.62 172.69,-88.2"/>
</g>
<!-- Node8 -->
<g id="node8" class="node">
<title>Node8</title>
<g id="a_node8"><a xlink:href="../../df/d57/classnap_1_1_render_service_configuration.html" target="_top" xlink:title=" ">
<polygon fill="white" stroke="black" points="246,-0.5 246,-19.5 398,-19.5 398,-0.5 246,-0.5"/>
<text text-anchor="middle" x="322" y="-7.5" font-family="Helvetica,sans-Serif" font-size="10.00">RenderServiceConfiguration</text>
</a>
</g>
</g>
<!-- Node1&#45;&gt;Node8 -->
<g id="edge7" class="edge">
<title>Node1&#45;&gt;Node8</title>
<path fill="none" stroke="midnightblue" d="M160.01,-88.13C177.53,-70.69 207.23,-43.96 238,-29 245.98,-25.12 254.77,-22.02 263.57,-19.54"/>
<polygon fill="midnightblue" stroke="midnightblue" points="157.37,-85.82 152.86,-95.41 162.37,-90.73 157.37,-85.82"/>
</g>
<!-- Node2 -->
<g id="node2" class="node">
<title>Node2</title>
<g id="a_node2"><a xlink:href="../../de/d01/classnap_1_1rtti_1_1_object.html" target="_top" xlink:title=" ">
<polygon fill="white" stroke="black" points="0,-95.5 0,-114.5 48,-114.5 48,-95.5 0,-95.5"/>
<text text-anchor="middle" x="24" y="-102.5" font-family="Helvetica,sans-Serif" font-size="10.00">Object</text>
</a>
</g>
</g>
<!-- Node2&#45;&gt;Node1 -->
<g id="edge1" class="edge">
<title>Node2&#45;&gt;Node1</title>
<path fill="none" stroke="midnightblue" d="M58.34,-105C66.23,-105 74.88,-105 83.53,-105"/>
<polygon fill="midnightblue" stroke="midnightblue" points="58.12,-101.5 48.12,-105 58.12,-108.5 58.12,-101.5"/>
</g>
</g>
</svg>
