<?xml version="1.0" encoding="UTF-8" standalone="no"?>
<!DOCTYPE svg PUBLIC "-//W3C//DTD SVG 1.1//EN"
 "http://www.w3.org/Graphics/SVG/1.1/DTD/svg11.dtd">
<!-- Generated by graphviz version 3.0.0 (20220226.1711)
 -->
<!-- Title: SequencePlayerAdapter Pages: 1 -->
<svg width="561pt" height="104pt"
 viewBox="0.00 0.00 561.00 104.00" xmlns="http://www.w3.org/2000/svg" xmlns:xlink="http://www.w3.org/1999/xlink">
<g id="graph0" class="graph" transform="scale(1 1) rotate(0) translate(4 100)">
<title>SequencePlayerAdapter</title>
<polygon fill="white" stroke="transparent" points="-4,4 -4,-100 557,-100 557,4 -4,4"/>
<!-- Node0 -->
<g id="node1" class="node">
<title>Node0</title>
<polygon fill="#bfbfbf" stroke="black" points="0,-38.5 0,-57.5 122,-57.5 122,-38.5 0,-38.5"/>
<text text-anchor="middle" x="61" y="-45.5" font-family="Helvetica,sans-Serif" font-size="10.00">SequencePlayerAdapter</text>
</g>
<!-- Node1 -->
<g id="node2" class="node">
<title>Node1</title>
<g id="a_node2"><a xlink:href="../../d2/d2e/classnap_1_1_sequence_player_audio_adapter.html" target="_top" xlink:title="SequencePlayerAudioAdapter">
<polygon fill="white" stroke="black" points="169,-76.5 169,-95.5 315,-95.5 315,-76.5 169,-76.5"/>
<text text-anchor="middle" x="242" y="-83.5" font-family="Helvetica,sans-Serif" font-size="10.00">SequencePlayerAudioAdapter</text>
</a>
</g>
</g>
<!-- Node0&#45;&gt;Node1 -->
<g id="edge1" class="edge">
<title>Node0&#45;&gt;Node1</title>
<path fill="none" stroke="midnightblue" d="M117.02,-59.68C142.41,-65.07 172.16,-71.39 196.16,-76.48"/>
<polygon fill="midnightblue" stroke="midnightblue" points="117.68,-56.24 107.17,-57.59 116.22,-63.09 117.68,-56.24"/>
</g>
<!-- Node2 -->
<g id="node3" class="node">
<title>Node2</title>
<g id="a_node3"><a xlink:href="../../d5/d0c/classnap_1_1_sequence_player_curve_adapter_base.html" target="_top" xlink:title="SequencePlayerCurveAdapterBase">
<polygon fill="white" stroke="black" points="158,-38.5 158,-57.5 326,-57.5 326,-38.5 158,-38.5"/>
<text text-anchor="middle" x="242" y="-45.5" font-family="Helvetica,sans-Serif" font-size="10.00">SequencePlayerCurveAdapterBase</text>
</a>
</g>
</g>
<!-- Node0&#45;&gt;Node2 -->
<g id="edge2" class="edge">
<title>Node0&#45;&gt;Node2</title>
<path fill="none" stroke="midnightblue" d="M132.22,-48C140.62,-48 149.26,-48 157.83,-48"/>
<polygon fill="midnightblue" stroke="midnightblue" points="132.1,-44.5 122.1,-48 132.1,-51.5 132.1,-44.5"/>
</g>
<!-- Node4 -->
<g id="node5" class="node">
<title>Node4</title>
<g id="a_node5"><a xlink:href="../../d3/d70/classnap_1_1_sequence_player_event_adapter.html" target="_top" xlink:title="SequencePlayerEventAdapter">
<polygon fill="white" stroke="black" points="169,-0.5 169,-19.5 315,-19.5 315,-0.5 169,-0.5"/>
<text text-anchor="middle" x="242" y="-7.5" font-family="Helvetica,sans-Serif" font-size="10.00">SequencePlayerEventAdapter</text>
</a>
</g>
</g>
<!-- Node0&#45;&gt;Node4 -->
<g id="edge4" class="edge">
<title>Node0&#45;&gt;Node4</title>
<path fill="none" stroke="midnightblue" d="M117.02,-36.32C142.41,-30.93 172.16,-24.61 196.16,-19.52"/>
<polygon fill="midnightblue" stroke="midnightblue" points="116.22,-32.91 107.17,-38.41 117.68,-39.76 116.22,-32.91"/>
</g>
<!-- Node3 -->
<g id="node4" class="node">
<title>Node3</title>
<g id="a_node4"><a xlink:href="../../d9/d0c/classnap_1_1_sequence_player_curve_adapter.html" target="_top" xlink:title="SequencePlayerCurveAdapter\l\&lt; CURVE_TYPE, PARAMETER\l_TYPE, PARAMETER_VALUE_TYPE \&gt;">
<polygon fill="white" stroke="black" points="362,-27.5 362,-68.5 553,-68.5 553,-27.5 362,-27.5"/>
<text text-anchor="start" x="370" y="-56.5" font-family="Helvetica,sans-Serif" font-size="10.00">SequencePlayerCurveAdapter</text>
<text text-anchor="start" x="370" y="-45.5" font-family="Helvetica,sans-Serif" font-size="10.00">&lt; CURVE_TYPE, PARAMETER</text>
<text text-anchor="middle" x="457.5" y="-34.5" font-family="Helvetica,sans-Serif" font-size="10.00">_TYPE, PARAMETER_VALUE_TYPE &gt;</text>
</a>
</g>
</g>
<!-- Node2&#45;&gt;Node3 -->
<g id="edge3" class="edge">
<title>Node2&#45;&gt;Node3</title>
<path fill="none" stroke="midnightblue" d="M336.39,-48C344.85,-48 353.41,-48 361.87,-48"/>
<polygon fill="midnightblue" stroke="midnightblue" points="336.16,-44.5 326.16,-48 336.16,-51.5 336.16,-44.5"/>
</g>
</g>
</svg>
