<?xml version="1.0" encoding="UTF-8" standalone="no"?>
<!DOCTYPE svg PUBLIC "-//W3C//DTD SVG 1.1//EN"
 "http://www.w3.org/Graphics/SVG/1.1/DTD/svg11.dtd">
<!-- Generated by graphviz version 2.43.0 (0)
 -->
<!-- Title: Action Pages: 1 -->
<svg width="477pt" height="1336pt"
 viewBox="0.00 0.00 477.00 1336.00" xmlns="http://www.w3.org/2000/svg" xmlns:xlink="http://www.w3.org/1999/xlink">
<g id="graph0" class="graph" transform="scale(1 1) rotate(0) translate(4 1332)">
<title>Action</title>
<polygon fill="white" stroke="transparent" points="-4,4 -4,-1332 473,-1332 473,4 -4,4"/>
<!-- Node1 -->
<g id="node1" class="node">
<title>Node1</title>
<g id="a_node1"><a xlink:title=" ">
<polygon fill="#bfbfbf" stroke="black" points="0,-909.5 0,-928.5 47,-928.5 47,-909.5 0,-909.5"/>
<text text-anchor="middle" x="23.5" y="-916.5" font-family="Helvetica,sans-Serif" font-size="10.00">Action</text>
</a>
</g>
</g>
<!-- Node2 -->
<g id="node2" class="node">
<title>Node2</title>
<g id="a_node2"><a xlink:href="../../de/d04/classnap_1_1sequenceguiactions_1_1_change_horizontal_resolution.html" target="_top" xlink:title=" ">
<polygon fill="white" stroke="black" points="91.5,-1308.5 91.5,-1327.5 246.5,-1327.5 246.5,-1308.5 91.5,-1308.5"/>
<text text-anchor="middle" x="169" y="-1315.5" font-family="Helvetica,sans-Serif" font-size="10.00">ChangeHorizontalResolution</text>
</a>
</g>
</g>
<!-- Node1&#45;&gt;Node2 -->
<g id="edge1" class="edge">
<title>Node1&#45;&gt;Node2</title>
<path fill="none" stroke="midnightblue" d="M24.71,-938.7C25.87,-1008.98 33.45,-1246 83,-1299 86.51,-1302.76 90.59,-1305.85 95.02,-1308.39"/>
<polygon fill="midnightblue" stroke="midnightblue" points="28.21,-938.52 24.57,-928.57 21.21,-938.62 28.21,-938.52"/>
</g>
<!-- Node3 -->
<g id="node3" class="node">
<title>Node3</title>
<g id="a_node3"><a xlink:href="../../d5/d0f/classnap_1_1sequenceguiactions_1_1_dragging_player_time.html" target="_top" xlink:title=" ">
<polygon fill="white" stroke="black" points="111,-1270.5 111,-1289.5 227,-1289.5 227,-1270.5 111,-1270.5"/>
<text text-anchor="middle" x="169" y="-1277.5" font-family="Helvetica,sans-Serif" font-size="10.00">DraggingPlayerTime</text>
</a>
</g>
</g>
<!-- Node1&#45;&gt;Node3 -->
<g id="edge2" class="edge">
<title>Node1&#45;&gt;Node3</title>
<path fill="none" stroke="midnightblue" d="M25.08,-938.82C27.44,-1004.57 38.36,-1214.05 83,-1261 90.4,-1268.78 100.23,-1273.71 110.58,-1276.76"/>
<polygon fill="midnightblue" stroke="midnightblue" points="28.58,-938.47 24.75,-928.59 21.58,-938.7 28.58,-938.47"/>
</g>
<!-- Node4 -->
<g id="node4" class="node">
<title>Node4</title>
<g id="a_node4"><a xlink:href="../../dc/d38/classnap_1_1sequenceguiactions_1_1_dragging_sequence_duration.html" target="_top" xlink:title=" ">
<polygon fill="white" stroke="black" points="94,-1232.5 94,-1251.5 244,-1251.5 244,-1232.5 94,-1232.5"/>
<text text-anchor="middle" x="169" y="-1239.5" font-family="Helvetica,sans-Serif" font-size="10.00">DraggingSequenceDuration</text>
</a>
</g>
</g>
<!-- Node1&#45;&gt;Node4 -->
<g id="edge3" class="edge">
<title>Node1&#45;&gt;Node4</title>
<path fill="none" stroke="midnightblue" d="M25.56,-938.96C29.2,-999.92 43.26,-1182.06 83,-1223 86.69,-1226.8 90.95,-1229.91 95.57,-1232.46"/>
<polygon fill="midnightblue" stroke="midnightblue" points="29.04,-938.54 24.98,-928.75 22.05,-938.93 29.04,-938.54"/>
</g>
<!-- Node5 -->
<g id="node5" class="node">
<title>Node5</title>
<g id="a_node5"><a xlink:href="../../d3/d06/classnap_1_1sequenceguiactions_1_1_drag_sequence_marker.html" target="_top" xlink:title=" ">
<polygon fill="white" stroke="black" points="108.5,-1194.5 108.5,-1213.5 229.5,-1213.5 229.5,-1194.5 108.5,-1194.5"/>
<text text-anchor="middle" x="169" y="-1201.5" font-family="Helvetica,sans-Serif" font-size="10.00">DragSequenceMarker</text>
</a>
</g>
</g>
<!-- Node1&#45;&gt;Node5 -->
<g id="edge4" class="edge">
<title>Node1&#45;&gt;Node5</title>
<path fill="none" stroke="midnightblue" d="M26.16,-938.97C31.18,-994.67 48.1,-1149.98 83,-1185 89.94,-1191.96 98.83,-1196.61 108.24,-1199.68"/>
<polygon fill="midnightblue" stroke="midnightblue" points="29.61,-938.33 25.26,-928.67 22.64,-938.94 29.61,-938.33"/>
</g>
<!-- Node6 -->
<g id="node6" class="node">
<title>Node6</title>
<g id="a_node6"><a xlink:href="../../d7/d69/classnap_1_1sequenceguiactions_1_1_editing_sequence_marker_popup.html" target="_top" xlink:title=" ">
<polygon fill="white" stroke="black" points="88.5,-1156.5 88.5,-1175.5 249.5,-1175.5 249.5,-1156.5 88.5,-1156.5"/>
<text text-anchor="middle" x="169" y="-1163.5" font-family="Helvetica,sans-Serif" font-size="10.00">EditingSequenceMarkerPopup</text>
</a>
</g>
</g>
<!-- Node1&#45;&gt;Node6 -->
<g id="edge5" class="edge">
<title>Node1&#45;&gt;Node6</title>
<path fill="none" stroke="midnightblue" d="M26.91,-938.71C33.41,-988.56 52.85,-1117.78 83,-1147 86.91,-1150.79 91.4,-1153.89 96.23,-1156.42"/>
<polygon fill="midnightblue" stroke="midnightblue" points="30.36,-938.07 25.63,-928.59 23.41,-938.95 30.36,-938.07"/>
</g>
<!-- Node7 -->
<g id="node7" class="node">
<title>Node7</title>
<g id="a_node7"><a xlink:href="../../d4/d5c/classnap_1_1sequenceguiactions_1_1_edit_sequence_duration_popup.html" target="_top" xlink:title=" ">
<polygon fill="white" stroke="black" points="91.5,-1118.5 91.5,-1137.5 246.5,-1137.5 246.5,-1118.5 91.5,-1118.5"/>
<text text-anchor="middle" x="169" y="-1125.5" font-family="Helvetica,sans-Serif" font-size="10.00">EditSequenceDurationPopup</text>
</a>
</g>
</g>
<!-- Node1&#45;&gt;Node7 -->
<g id="edge6" class="edge">
<title>Node1&#45;&gt;Node7</title>
<path fill="none" stroke="midnightblue" d="M24.48,-939.08C25.59,-977.93 33.84,-1063.57 83,-1109 87.11,-1112.8 91.81,-1115.89 96.83,-1118.41"/>
<polygon fill="midnightblue" stroke="midnightblue" points="27.97,-938.56 24.33,-928.62 20.97,-938.67 27.97,-938.56"/>
</g>
<!-- Node8 -->
<g id="node8" class="node">
<title>Node8</title>
<g id="a_node8"><a xlink:href="../../d3/d26/classnap_1_1sequenceguiactions_1_1_hovering_player_time.html" target="_top" xlink:title=" ">
<polygon fill="white" stroke="black" points="111,-1080.5 111,-1099.5 227,-1099.5 227,-1080.5 111,-1080.5"/>
<text text-anchor="middle" x="169" y="-1087.5" font-family="Helvetica,sans-Serif" font-size="10.00">HoveringPlayerTime</text>
</a>
</g>
</g>
<!-- Node1&#45;&gt;Node8 -->
<g id="edge7" class="edge">
<title>Node1&#45;&gt;Node8</title>
<path fill="none" stroke="midnightblue" d="M26.23,-938.67C30.21,-971.31 42.97,-1036.48 83,-1071 90.9,-1077.81 100.72,-1082.34 110.84,-1085.3"/>
<polygon fill="midnightblue" stroke="midnightblue" points="29.7,-938.16 25.17,-928.59 22.74,-938.9 29.7,-938.16"/>
</g>
<!-- Node9 -->
<g id="node9" class="node">
<title>Node9</title>
<g id="a_node9"><a xlink:href="../../da/d4e/classnap_1_1sequenceguiactions_1_1_hovering_sequence_duration.html" target="_top" xlink:title=" ">
<polygon fill="white" stroke="black" points="94,-1042.5 94,-1061.5 244,-1061.5 244,-1042.5 94,-1042.5"/>
<text text-anchor="middle" x="169" y="-1049.5" font-family="Helvetica,sans-Serif" font-size="10.00">HoveringSequenceDuration</text>
</a>
</g>
</g>
<!-- Node1&#45;&gt;Node9 -->
<g id="edge8" class="edge">
<title>Node1&#45;&gt;Node9</title>
<path fill="none" stroke="midnightblue" d="M29.01,-938.48C36.02,-964.21 52.05,-1009.07 83,-1033 87.9,-1036.79 93.42,-1039.86 99.22,-1042.33"/>
<polygon fill="midnightblue" stroke="midnightblue" points="32.39,-937.57 26.54,-928.74 25.6,-939.29 32.39,-937.57"/>
</g>
<!-- Node10 -->
<g id="node10" class="node">
<title>Node10</title>
<g id="a_node10"><a xlink:href="../../da/d68/classnap_1_1sequenceguiactions_1_1_inserting_sequence_marker_popup.html" target="_top" xlink:title=" ">
<polygon fill="white" stroke="black" points="84,-1004.5 84,-1023.5 254,-1023.5 254,-1004.5 84,-1004.5"/>
<text text-anchor="middle" x="169" y="-1011.5" font-family="Helvetica,sans-Serif" font-size="10.00">InsertingSequenceMarkerPopup</text>
</a>
</g>
</g>
<!-- Node1&#45;&gt;Node10 -->
<g id="edge9" class="edge">
<title>Node1&#45;&gt;Node10</title>
<path fill="none" stroke="midnightblue" d="M34.06,-937.95C43.91,-955.5 60.93,-980.94 83,-995 89.12,-998.9 95.93,-1002.01 102.97,-1004.48"/>
<polygon fill="midnightblue" stroke="midnightblue" points="36.9,-935.85 29.1,-928.68 30.73,-939.15 36.9,-935.85"/>
</g>
<!-- Node11 -->
<g id="node11" class="node">
<title>Node11</title>
<g id="a_node11"><a xlink:href="../../d8/d29/classnap_1_1sequenceguiactions_1_1_inserting_track_popup.html" target="_top" xlink:title=" ">
<polygon fill="white" stroke="black" points="111.5,-966.5 111.5,-985.5 226.5,-985.5 226.5,-966.5 111.5,-966.5"/>
<text text-anchor="middle" x="169" y="-973.5" font-family="Helvetica,sans-Serif" font-size="10.00">InsertingTrackPopup</text>
</a>
</g>
</g>
<!-- Node1&#45;&gt;Node11 -->
<g id="edge10" class="edge">
<title>Node1&#45;&gt;Node11</title>
<path fill="none" stroke="midnightblue" d="M44.64,-934.65C55.48,-942.39 69.39,-951.28 83,-957 92.06,-960.81 102,-963.91 111.79,-966.41"/>
<polygon fill="midnightblue" stroke="midnightblue" points="46.46,-931.64 36.33,-928.51 42.3,-937.27 46.46,-931.64"/>
</g>
<!-- Node12 -->
<g id="node12" class="node">
<title>Node12</title>
<g id="a_node12"><a xlink:href="../../dc/dbc/classnap_1_1sequenceguiactions_1_1_load_popup.html" target="_top" xlink:title=" ">
<polygon fill="white" stroke="black" points="134,-928.5 134,-947.5 204,-947.5 204,-928.5 134,-928.5"/>
<text text-anchor="middle" x="169" y="-935.5" font-family="Helvetica,sans-Serif" font-size="10.00">LoadPopup</text>
</a>
</g>
</g>
<!-- Node1&#45;&gt;Node12 -->
<g id="edge11" class="edge">
<title>Node1&#45;&gt;Node12</title>
<path fill="none" stroke="midnightblue" d="M57.17,-923.33C80.09,-926.36 110.65,-930.41 133.87,-933.48"/>
<polygon fill="midnightblue" stroke="midnightblue" points="57.61,-919.85 47.24,-922.01 56.69,-926.79 57.61,-919.85"/>
</g>
<!-- Node13 -->
<g id="node13" class="node">
<title>Node13</title>
<g id="a_node13"><a xlink:href="../../df/d93/classnap_1_1sequenceguiactions_1_1_none.html" target="_top" xlink:title=" ">
<polygon fill="white" stroke="black" points="148,-890.5 148,-909.5 190,-909.5 190,-890.5 148,-890.5"/>
<text text-anchor="middle" x="169" y="-897.5" font-family="Helvetica,sans-Serif" font-size="10.00">None</text>
</a>
</g>
</g>
<!-- Node1&#45;&gt;Node13 -->
<g id="edge12" class="edge">
<title>Node1&#45;&gt;Node13</title>
<path fill="none" stroke="midnightblue" d="M57.3,-914.66C85.13,-910.97 124.18,-905.8 147.69,-902.69"/>
<polygon fill="midnightblue" stroke="midnightblue" points="56.69,-911.21 47.24,-915.99 57.61,-918.15 56.69,-911.21"/>
</g>
<!-- Node14 -->
<g id="node14" class="node">
<title>Node14</title>
<g id="a_node14"><a xlink:href="../../d7/d6a/classnap_1_1sequenceguiactions_1_1_none_pressed.html" target="_top" xlink:title=" ">
<polygon fill="white" stroke="black" points="129,-852.5 129,-871.5 209,-871.5 209,-852.5 129,-852.5"/>
<text text-anchor="middle" x="169" y="-859.5" font-family="Helvetica,sans-Serif" font-size="10.00">NonePressed</text>
</a>
</g>
</g>
<!-- Node1&#45;&gt;Node14 -->
<g id="edge13" class="edge">
<title>Node1&#45;&gt;Node14</title>
<path fill="none" stroke="midnightblue" d="M44.64,-903.35C55.48,-895.61 69.39,-886.72 83,-881 97.36,-874.96 113.92,-870.71 128.59,-867.78"/>
<polygon fill="midnightblue" stroke="midnightblue" points="42.3,-900.73 36.33,-909.49 46.46,-906.36 42.3,-900.73"/>
</g>
<!-- Node15 -->
<g id="node15" class="node">
<title>Node15</title>
<g id="a_node15"><a xlink:href="../../d6/d7c/classnap_1_1sequenceguiactions_1_1_open_edit_sequence_marker_popup.html" target="_top" xlink:title=" ">
<polygon fill="white" stroke="black" points="83,-814.5 83,-833.5 255,-833.5 255,-814.5 83,-814.5"/>
<text text-anchor="middle" x="169" y="-821.5" font-family="Helvetica,sans-Serif" font-size="10.00">OpenEditSequenceMarkerPopup</text>
</a>
</g>
</g>
<!-- Node1&#45;&gt;Node15 -->
<g id="edge14" class="edge">
<title>Node1&#45;&gt;Node15</title>
<path fill="none" stroke="midnightblue" d="M34.06,-900.05C43.91,-882.5 60.93,-857.06 83,-843 89.12,-839.1 95.93,-835.99 102.97,-833.52"/>
<polygon fill="midnightblue" stroke="midnightblue" points="30.73,-898.85 29.1,-909.32 36.9,-902.15 30.73,-898.85"/>
</g>
<!-- Node16 -->
<g id="node16" class="node">
<title>Node16</title>
<g id="a_node16"><a xlink:href="../../da/d27/classnap_1_1sequenceguiactions_1_1_open_help_popup.html" target="_top" xlink:title=" ">
<polygon fill="white" stroke="black" points="121.5,-776.5 121.5,-795.5 216.5,-795.5 216.5,-776.5 121.5,-776.5"/>
<text text-anchor="middle" x="169" y="-783.5" font-family="Helvetica,sans-Serif" font-size="10.00">OpenHelpPopup</text>
</a>
</g>
</g>
<!-- Node1&#45;&gt;Node16 -->
<g id="edge15" class="edge">
<title>Node1&#45;&gt;Node16</title>
<path fill="none" stroke="midnightblue" d="M29.01,-899.52C36.02,-873.79 52.05,-828.93 83,-805 93.88,-796.58 107.77,-791.75 121.15,-789.01"/>
<polygon fill="midnightblue" stroke="midnightblue" points="25.6,-898.71 26.54,-909.26 32.39,-900.43 25.6,-898.71"/>
</g>
<!-- Node17 -->
<g id="node17" class="node">
<title>Node17</title>
<g id="a_node17"><a xlink:href="../../d2/df3/classnap_1_1sequenceguiactions_1_1_open_insert_sequence_marker_popup.html" target="_top" xlink:title=" ">
<polygon fill="white" stroke="black" points="93.5,-727 93.5,-757 244.5,-757 244.5,-727 93.5,-727"/>
<text text-anchor="start" x="101.5" y="-745" font-family="Helvetica,sans-Serif" font-size="10.00">OpenInsertSequenceMarker</text>
<text text-anchor="middle" x="169" y="-734" font-family="Helvetica,sans-Serif" font-size="10.00">Popup</text>
</a>
</g>
</g>
<!-- Node1&#45;&gt;Node17 -->
<g id="edge16" class="edge">
<title>Node1&#45;&gt;Node17</title>
<path fill="none" stroke="midnightblue" d="M26.55,-899.15C30.96,-866.78 44.32,-802.66 83,-767 87.18,-763.14 91.94,-759.88 97,-757.12"/>
<polygon fill="midnightblue" stroke="midnightblue" points="23.06,-898.83 25.34,-909.18 30.01,-899.67 23.06,-898.83"/>
</g>
<!-- Node18 -->
<g id="node18" class="node">
<title>Node18</title>
<g id="a_node18"><a xlink:href="../../d5/d58/classnap_1_1sequenceguiactions_1_1_open_insert_track_popup.html" target="_top" xlink:title=" ">
<polygon fill="white" stroke="black" points="106.5,-688.5 106.5,-707.5 231.5,-707.5 231.5,-688.5 106.5,-688.5"/>
<text text-anchor="middle" x="169" y="-695.5" font-family="Helvetica,sans-Serif" font-size="10.00">OpenInsertTrackPopup</text>
</a>
</g>
</g>
<!-- Node1&#45;&gt;Node18 -->
<g id="edge17" class="edge">
<title>Node1&#45;&gt;Node18</title>
<path fill="none" stroke="midnightblue" d="M24.12,-899.2C24.48,-858.91 31.31,-767.07 83,-718 89.6,-711.74 97.77,-707.31 106.42,-704.21"/>
<polygon fill="midnightblue" stroke="midnightblue" points="20.62,-899.34 24.16,-909.32 27.62,-899.31 20.62,-899.34"/>
</g>
<!-- Node19 -->
<g id="node19" class="node">
<title>Node19</title>
<g id="a_node19"><a xlink:href="../../dd/d94/classnap_1_1sequenceguiactions_1_1_open_sequence_duration_popup.html" target="_top" xlink:title=" ">
<polygon fill="white" stroke="black" points="88.5,-650.5 88.5,-669.5 249.5,-669.5 249.5,-650.5 88.5,-650.5"/>
<text text-anchor="middle" x="169" y="-657.5" font-family="Helvetica,sans-Serif" font-size="10.00">OpenSequenceDurationPopup</text>
</a>
</g>
</g>
<!-- Node1&#45;&gt;Node19 -->
<g id="edge18" class="edge">
<title>Node1&#45;&gt;Node19</title>
<path fill="none" stroke="midnightblue" d="M26.64,-899.3C32.65,-847.62 51.34,-710.06 83,-679 86.89,-675.19 91.36,-672.07 96.18,-669.53"/>
<polygon fill="midnightblue" stroke="midnightblue" points="23.14,-899.13 25.49,-909.46 30.09,-899.92 23.14,-899.13"/>
</g>
<!-- Node20 -->
<g id="node20" class="node">
<title>Node20</title>
<g id="a_node20"><a xlink:href="../../d2/d81/classnap_1_1sequenceguiactions_1_1_save_as_popup.html" target="_top" xlink:title=" ">
<polygon fill="white" stroke="black" points="127.5,-612.5 127.5,-631.5 210.5,-631.5 210.5,-612.5 127.5,-612.5"/>
<text text-anchor="middle" x="169" y="-619.5" font-family="Helvetica,sans-Serif" font-size="10.00">SaveAsPopup</text>
</a>
</g>
</g>
<!-- Node1&#45;&gt;Node20 -->
<g id="edge19" class="edge">
<title>Node1&#45;&gt;Node20</title>
<path fill="none" stroke="midnightblue" d="M25.93,-899.27C30.48,-842.09 46.52,-677.93 83,-641 94.48,-629.38 111.4,-624.18 127.13,-622.06"/>
<polygon fill="midnightblue" stroke="midnightblue" points="22.42,-899.26 25.15,-909.49 29.4,-899.79 22.42,-899.26"/>
</g>
<!-- Node21 -->
<g id="node21" class="node">
<title>Node21</title>
<g id="a_node21"><a xlink:href="../../d1/d19/classnap_1_1sequenceguiactions_1_1_show_help_popup.html" target="_top" xlink:title=" ">
<polygon fill="white" stroke="black" points="121.5,-574.5 121.5,-593.5 216.5,-593.5 216.5,-574.5 121.5,-574.5"/>
<text text-anchor="middle" x="169" y="-581.5" font-family="Helvetica,sans-Serif" font-size="10.00">ShowHelpPopup</text>
</a>
</g>
</g>
<!-- Node1&#45;&gt;Node21 -->
<g id="edge20" class="edge">
<title>Node1&#45;&gt;Node21</title>
<path fill="none" stroke="midnightblue" d="M25.4,-899.07C28.62,-836.54 41.72,-645.83 83,-603 92.97,-592.66 107.24,-587.37 121.26,-584.82"/>
<polygon fill="midnightblue" stroke="midnightblue" points="21.89,-899.03 24.9,-909.19 28.89,-899.37 21.89,-899.03"/>
</g>
<!-- Node22 -->
<g id="node22" class="node">
<title>Node22</title>
<g id="a_node22"><a xlink:href="../../db/da2/classnap_1_1sequenceguiactions_1_1_show_save_preset_popup.html" target="_top" xlink:title=" ">
<polygon fill="white" stroke="black" points="105,-536.5 105,-555.5 233,-555.5 233,-536.5 105,-536.5"/>
<text text-anchor="middle" x="169" y="-543.5" font-family="Helvetica,sans-Serif" font-size="10.00">ShowSavePresetPopup</text>
</a>
</g>
</g>
<!-- Node1&#45;&gt;Node22 -->
<g id="edge21" class="edge">
<title>Node1&#45;&gt;Node22</title>
<path fill="none" stroke="midnightblue" d="M24.95,-899.36C26.91,-832.3 36.78,-613.89 83,-565 89.03,-558.63 96.68,-554.17 104.92,-551.08"/>
<polygon fill="midnightblue" stroke="midnightblue" points="21.45,-899.32 24.69,-909.41 28.45,-899.51 21.45,-899.32"/>
</g>
<!-- Node23 -->
<g id="node23" class="node">
<title>Node23</title>
<g id="a_node23"><a xlink:href="../../d5/d0e/classnap_1_1sequenceguiactions_1_1_track_action.html" target="_top" xlink:title=" ">
<polygon fill="white" stroke="red" points="132.5,-498.5 132.5,-517.5 205.5,-517.5 205.5,-498.5 132.5,-498.5"/>
<text text-anchor="middle" x="169" y="-505.5" font-family="Helvetica,sans-Serif" font-size="10.00">TrackAction</text>
</a>
</g>
</g>
<!-- Node1&#45;&gt;Node23 -->
<g id="edge22" class="edge">
<title>Node1&#45;&gt;Node23</title>
<path fill="none" stroke="midnightblue" d="M24.61,-899.15C25.42,-827.27 31.93,-581.87 83,-527 95.47,-513.61 115.14,-508.63 132.42,-507.1"/>
<polygon fill="midnightblue" stroke="midnightblue" points="21.11,-899.45 24.52,-909.48 28.11,-899.51 21.11,-899.45"/>
</g>
<!-- Node24 -->
<g id="node24" class="node">
<title>Node24</title>
<g id="a_node24"><a xlink:href="../../de/dea/classnap_1_1sequenceguiactions_1_1_assign_output_i_d_to_track.html" target="_top" xlink:title=" ">
<polygon fill="white" stroke="black" points="316,-996.5 316,-1015.5 444,-1015.5 444,-996.5 316,-996.5"/>
<text text-anchor="middle" x="380" y="-1003.5" font-family="Helvetica,sans-Serif" font-size="10.00">AssignOutputIDToTrack</text>
</a>
</g>
</g>
<!-- Node23&#45;&gt;Node24 -->
<g id="edge23" class="edge">
<title>Node23&#45;&gt;Node24</title>
<path fill="none" stroke="midnightblue" d="M215.57,-507.9C230.22,-510.27 245.18,-515.68 255,-527 322.18,-604.46 223.53,-909.79 291,-987 297.58,-994.53 306.37,-999.49 315.86,-1002.68"/>
<polygon fill="midnightblue" stroke="midnightblue" points="215.89,-504.42 205.55,-506.71 215.07,-511.37 215.89,-504.42"/>
</g>
<!-- Node25 -->
<g id="node25" class="node">
<title>Node25</title>
<g id="a_node25"><a xlink:href="../../d1/d16/classnap_1_1sequenceguiactions_1_1_change_min_max_curve.html" target="_top" xlink:title=" ">
<polygon fill="white" stroke="black" points="305.5,-958.5 305.5,-977.5 454.5,-977.5 454.5,-958.5 305.5,-958.5"/>
<text text-anchor="middle" x="380" y="-965.5" font-family="Helvetica,sans-Serif" font-size="10.00">ChangeMinMaxCurve&lt; T &gt;</text>
</a>
</g>
</g>
<!-- Node23&#45;&gt;Node25 -->
<g id="edge24" class="edge">
<title>Node23&#45;&gt;Node25</title>
<path fill="none" stroke="midnightblue" d="M215.53,-507.94C230.17,-510.32 245.14,-515.71 255,-527 316.92,-597.88 228.82,-878.34 291,-949 295.03,-953.58 299.87,-957.2 305.18,-960.05"/>
<polygon fill="midnightblue" stroke="midnightblue" points="215.85,-504.46 205.51,-506.75 215.03,-511.41 215.85,-504.46"/>
</g>
<!-- Node26 -->
<g id="node26" class="node">
<title>Node26</title>
<g id="a_node26"><a xlink:href="../../d6/db2/classnap_1_1sequenceguiactions_1_1_change_track_name.html" target="_top" xlink:title=" ">
<polygon fill="white" stroke="black" points="326,-920.5 326,-939.5 434,-939.5 434,-920.5 326,-920.5"/>
<text text-anchor="middle" x="380" y="-927.5" font-family="Helvetica,sans-Serif" font-size="10.00">ChangeTrackName</text>
</a>
</g>
</g>
<!-- Node23&#45;&gt;Node26 -->
<g id="edge25" class="edge">
<title>Node23&#45;&gt;Node26</title>
<path fill="none" stroke="midnightblue" d="M215.84,-508.05C230.36,-510.46 245.17,-515.85 255,-527 311.65,-591.31 234.11,-846.89 291,-911 299.92,-921.05 312.78,-926.5 325.92,-929.29"/>
<polygon fill="midnightblue" stroke="midnightblue" points="216.25,-504.57 205.89,-506.82 215.39,-511.52 216.25,-504.57"/>
</g>
<!-- Node27 -->
<g id="node27" class="node">
<title>Node27</title>
<g id="a_node27"><a xlink:href="../../de/d18/classnap_1_1sequenceguiactions_1_1_curve_point_action_popup.html" target="_top" xlink:title=" ">
<polygon fill="white" stroke="black" points="300.5,-882.5 300.5,-901.5 459.5,-901.5 459.5,-882.5 300.5,-882.5"/>
<text text-anchor="middle" x="380" y="-889.5" font-family="Helvetica,sans-Serif" font-size="10.00">CurvePointActionPopup&lt; T &gt;</text>
</a>
</g>
</g>
<!-- Node23&#45;&gt;Node27 -->
<g id="edge26" class="edge">
<title>Node23&#45;&gt;Node27</title>
<path fill="none" stroke="midnightblue" d="M215.77,-508.11C230.29,-510.52 245.12,-515.9 255,-527 357.79,-642.49 187.79,-757.88 291,-873 294.34,-876.72 298.22,-879.81 302.45,-882.37"/>
<polygon fill="midnightblue" stroke="midnightblue" points="216.19,-504.63 205.83,-506.88 215.33,-511.58 216.19,-504.63"/>
</g>
<!-- Node28 -->
<g id="node28" class="node">
<title>Node28</title>
<g id="a_node28"><a xlink:href="../../dc/d56/classnap_1_1sequenceguiactions_1_1_curve_type_popup.html" target="_top" xlink:title=" ">
<polygon fill="white" stroke="black" points="331,-844.5 331,-863.5 429,-863.5 429,-844.5 331,-844.5"/>
<text text-anchor="middle" x="380" y="-851.5" font-family="Helvetica,sans-Serif" font-size="10.00">CurveTypePopup</text>
</a>
</g>
</g>
<!-- Node23&#45;&gt;Node28 -->
<g id="edge27" class="edge">
<title>Node23&#45;&gt;Node28</title>
<path fill="none" stroke="midnightblue" d="M215.69,-508.18C230.2,-510.6 245.05,-515.96 255,-527 347.28,-629.37 198.35,-732.97 291,-835 301.09,-846.11 315.98,-851.56 330.66,-854.03"/>
<polygon fill="midnightblue" stroke="midnightblue" points="216.12,-504.7 205.76,-506.94 215.25,-511.65 216.12,-504.7"/>
</g>
<!-- Node29 -->
<g id="node29" class="node">
<title>Node29</title>
<g id="a_node29"><a xlink:href="../../d5/d4a/classnap_1_1sequenceguiactions_1_1_delete_track.html" target="_top" xlink:title=" ">
<polygon fill="white" stroke="black" points="343,-806.5 343,-825.5 417,-825.5 417,-806.5 343,-806.5"/>
<text text-anchor="middle" x="380" y="-813.5" font-family="Helvetica,sans-Serif" font-size="10.00">DeleteTrack</text>
</a>
</g>
</g>
<!-- Node23&#45;&gt;Node29 -->
<g id="edge28" class="edge">
<title>Node23&#45;&gt;Node29</title>
<path fill="none" stroke="midnightblue" d="M216.01,-508.34C230.38,-510.8 245.05,-516.14 255,-527 336.78,-616.26 208.89,-708.04 291,-797 304.04,-811.13 324.86,-816.07 342.98,-817.38"/>
<polygon fill="midnightblue" stroke="midnightblue" points="216.03,-504.82 205.67,-507.02 215.15,-511.76 216.03,-504.82"/>
</g>
<!-- Node30 -->
<g id="node30" class="node">
<title>Node30</title>
<g id="a_node30"><a xlink:href="../../d1/dbc/classnap_1_1sequenceguiactions_1_1_dragging_control_point.html" target="_top" xlink:title=" ">
<polygon fill="white" stroke="black" points="319.5,-768.5 319.5,-787.5 440.5,-787.5 440.5,-768.5 319.5,-768.5"/>
<text text-anchor="middle" x="380" y="-775.5" font-family="Helvetica,sans-Serif" font-size="10.00">DraggingControlPoint</text>
</a>
</g>
</g>
<!-- Node23&#45;&gt;Node30 -->
<g id="edge29" class="edge">
<title>Node23&#45;&gt;Node30</title>
<path fill="none" stroke="midnightblue" d="M215.87,-508.46C230.23,-510.93 244.94,-516.25 255,-527 326.31,-603.18 219.41,-683.08 291,-759 298.61,-767.07 308.77,-772.13 319.48,-775.22"/>
<polygon fill="midnightblue" stroke="midnightblue" points="215.92,-504.94 205.55,-507.13 215.02,-511.88 215.92,-504.94"/>
</g>
<!-- Node31 -->
<g id="node31" class="node">
<title>Node31</title>
<g id="a_node31"><a xlink:href="../../d0/d5e/classnap_1_1sequenceguiactions_1_1_dragging_left_audio_segment_handler.html" target="_top" xlink:title=" ">
<polygon fill="white" stroke="black" points="305,-719 305,-749 455,-749 455,-719 305,-719"/>
<text text-anchor="start" x="313" y="-737" font-family="Helvetica,sans-Serif" font-size="10.00">DraggingLeftAudioSegment</text>
<text text-anchor="middle" x="380" y="-726" font-family="Helvetica,sans-Serif" font-size="10.00">Handler</text>
</a>
</g>
</g>
<!-- Node23&#45;&gt;Node31 -->
<g id="edge30" class="edge">
<title>Node23&#45;&gt;Node31</title>
<path fill="none" stroke="midnightblue" d="M215.98,-508.76C230.21,-511.27 244.81,-516.54 255,-527 312.86,-586.36 234.53,-649.31 291,-710 294.99,-714.29 299.67,-717.84 304.75,-720.78"/>
<polygon fill="midnightblue" stroke="midnightblue" points="216.13,-505.25 205.76,-507.39 215.2,-512.19 216.13,-505.25"/>
</g>
<!-- Node32 -->
<g id="node32" class="node">
<title>Node32</title>
<g id="a_node32"><a xlink:href="../../d8/d17/classnap_1_1sequenceguiactions_1_1_dragging_right_audio_segment_handler.html" target="_top" xlink:title=" ">
<polygon fill="white" stroke="black" points="301,-670 301,-700 459,-700 459,-670 301,-670"/>
<text text-anchor="start" x="309" y="-688" font-family="Helvetica,sans-Serif" font-size="10.00">DraggingRightAudioSegment</text>
<text text-anchor="middle" x="380" y="-677" font-family="Helvetica,sans-Serif" font-size="10.00">Handler</text>
</a>
</g>
</g>
<!-- Node23&#45;&gt;Node32 -->
<g id="edge31" class="edge">
<title>Node23&#45;&gt;Node32</title>
<path fill="none" stroke="midnightblue" d="M215.92,-509.25C230.01,-511.81 244.54,-516.99 255,-527 299.25,-569.33 247.97,-616.43 291,-660 294.79,-663.84 299.13,-667.1 303.81,-669.87"/>
<polygon fill="midnightblue" stroke="midnightblue" points="216.2,-505.75 205.8,-507.81 215.21,-512.68 216.2,-505.75"/>
</g>
<!-- Node33 -->
<g id="node33" class="node">
<title>Node33</title>
<g id="a_node33"><a xlink:href="../../dc/d74/classnap_1_1sequenceguiactions_1_1_dragging_segment.html" target="_top" xlink:title=" ">
<polygon fill="white" stroke="black" points="328,-631.5 328,-650.5 432,-650.5 432,-631.5 328,-631.5"/>
<text text-anchor="middle" x="380" y="-638.5" font-family="Helvetica,sans-Serif" font-size="10.00">DraggingSegment</text>
</a>
</g>
</g>
<!-- Node23&#45;&gt;Node33 -->
<g id="edge32" class="edge">
<title>Node23&#45;&gt;Node33</title>
<path fill="none" stroke="midnightblue" d="M215.71,-509.93C229.66,-512.55 244.15,-517.59 255,-527 289.12,-556.58 256.78,-592.55 291,-622 301.19,-630.77 314.46,-635.79 327.6,-638.59"/>
<polygon fill="midnightblue" stroke="midnightblue" points="216.13,-506.45 205.72,-508.42 215.08,-513.38 216.13,-506.45"/>
</g>
<!-- Node34 -->
<g id="node34" class="node">
<title>Node34</title>
<g id="a_node34"><a xlink:href="../../d2/d10/classnap_1_1sequenceguiactions_1_1_dragging_segment_value.html" target="_top" xlink:title=" ">
<polygon fill="white" stroke="black" points="314.5,-593.5 314.5,-612.5 445.5,-612.5 445.5,-593.5 314.5,-593.5"/>
<text text-anchor="middle" x="380" y="-600.5" font-family="Helvetica,sans-Serif" font-size="10.00">DraggingSegmentValue</text>
</a>
</g>
</g>
<!-- Node23&#45;&gt;Node34 -->
<g id="edge33" class="edge">
<title>Node23&#45;&gt;Node34</title>
<path fill="none" stroke="midnightblue" d="M215.76,-511.5C229.32,-514.24 243.57,-518.95 255,-527 279.5,-544.26 266.44,-566.83 291,-584 298.05,-588.93 306.13,-592.61 314.47,-595.36"/>
<polygon fill="midnightblue" stroke="midnightblue" points="216.04,-508 205.59,-509.77 214.86,-514.9 216.04,-508"/>
</g>
<!-- Node35 -->
<g id="node35" class="node">
<title>Node35</title>
<g id="a_node35"><a xlink:href="../../d5/dfb/classnap_1_1sequenceguiactions_1_1_dragging_tan_point.html" target="_top" xlink:title=" ">
<polygon fill="white" stroke="black" points="329,-555.5 329,-574.5 431,-574.5 431,-555.5 329,-555.5"/>
<text text-anchor="middle" x="380" y="-562.5" font-family="Helvetica,sans-Serif" font-size="10.00">DraggingTanPoint</text>
</a>
</g>
</g>
<!-- Node23&#45;&gt;Node35 -->
<g id="edge34" class="edge">
<title>Node23&#45;&gt;Node35</title>
<path fill="none" stroke="midnightblue" d="M215.82,-515.91C228.7,-518.76 242.57,-522.42 255,-527 271.98,-533.25 274,-539.81 291,-546 303.04,-550.38 316.4,-553.91 328.99,-556.68"/>
<polygon fill="midnightblue" stroke="midnightblue" points="216.26,-512.43 205.76,-513.8 214.83,-519.28 216.26,-512.43"/>
</g>
<!-- Node36 -->
<g id="node36" class="node">
<title>Node36</title>
<g id="a_node36"><a xlink:href="../../d8/d63/classnap_1_1sequenceguiactions_1_1_dragging_track_extension_handler.html" target="_top" xlink:title=" ">
<polygon fill="white" stroke="black" points="293.5,-517.5 293.5,-536.5 466.5,-536.5 466.5,-517.5 293.5,-517.5"/>
<text text-anchor="middle" x="380" y="-524.5" font-family="Helvetica,sans-Serif" font-size="10.00">DraggingTrackExtensionHandler</text>
</a>
</g>
</g>
<!-- Node23&#45;&gt;Node36 -->
<g id="edge35" class="edge">
<title>Node23&#45;&gt;Node36</title>
<path fill="none" stroke="midnightblue" d="M215.94,-512.18C238.62,-514.24 266.74,-516.79 293.2,-519.2"/>
<polygon fill="midnightblue" stroke="midnightblue" points="216.2,-508.69 205.93,-511.27 215.57,-515.66 216.2,-508.69"/>
</g>
<!-- Node37 -->
<g id="node37" class="node">
<title>Node37</title>
<g id="a_node37"><a xlink:href="../../d9/da1/classnap_1_1sequenceguiactions_1_1_editing_audio_segment_popup.html" target="_top" xlink:title=" ">
<polygon fill="white" stroke="black" points="304,-479.5 304,-498.5 456,-498.5 456,-479.5 304,-479.5"/>
<text text-anchor="middle" x="380" y="-486.5" font-family="Helvetica,sans-Serif" font-size="10.00">EditingAudioSegmentPopup</text>
</a>
</g>
</g>
<!-- Node23&#45;&gt;Node37 -->
<g id="edge36" class="edge">
<title>Node23&#45;&gt;Node37</title>
<path fill="none" stroke="midnightblue" d="M216.13,-503.81C241.83,-501.47 274.46,-498.5 303.76,-495.84"/>
<polygon fill="midnightblue" stroke="midnightblue" points="215.57,-500.34 205.93,-504.73 216.2,-507.31 215.57,-500.34"/>
</g>
<!-- Node38 -->
<g id="node38" class="node">
<title>Node38</title>
<g id="a_node38"><a xlink:href="../../dc/d2b/classnap_1_1sequenceguiactions_1_1_editing_curve_segment.html" target="_top" xlink:title=" ">
<polygon fill="white" stroke="black" points="319,-441.5 319,-460.5 441,-460.5 441,-441.5 319,-441.5"/>
<text text-anchor="middle" x="380" y="-448.5" font-family="Helvetica,sans-Serif" font-size="10.00">EditingCurveSegment</text>
</a>
</g>
</g>
<!-- Node23&#45;&gt;Node38 -->
<g id="edge37" class="edge">
<title>Node23&#45;&gt;Node38</title>
<path fill="none" stroke="midnightblue" d="M207.82,-495.14C231.55,-487.32 262.87,-477.44 291,-470 303.84,-466.6 317.86,-463.37 330.85,-460.56"/>
<polygon fill="midnightblue" stroke="midnightblue" points="206.53,-491.88 198.15,-498.35 208.74,-498.52 206.53,-491.88"/>
</g>
<!-- Node39 -->
<g id="node39" class="node">
<title>Node39</title>
<g id="a_node39"><a xlink:href="../../df/dec/classnap_1_1sequenceguiactions_1_1_editing_event_segment.html" target="_top" xlink:title=" ">
<polygon fill="white" stroke="black" points="305,-403.5 305,-422.5 455,-422.5 455,-403.5 305,-403.5"/>
<text text-anchor="middle" x="380" y="-410.5" font-family="Helvetica,sans-Serif" font-size="10.00">EditingEventSegment&lt; T &gt;</text>
</a>
</g>
</g>
<!-- Node23&#45;&gt;Node39 -->
<g id="edge38" class="edge">
<title>Node23&#45;&gt;Node39</title>
<path fill="none" stroke="midnightblue" d="M189.92,-492.4C212.97,-475.11 252.7,-447.6 291,-432 300.41,-428.17 310.71,-425.06 320.85,-422.55"/>
<polygon fill="midnightblue" stroke="midnightblue" points="187.77,-489.64 181.93,-498.49 192.01,-495.21 187.77,-489.64"/>
</g>
<!-- Node40 -->
<g id="node40" class="node">
<title>Node40</title>
<g id="a_node40"><a xlink:href="../../d9/d29/classnap_1_1sequenceguiactions_1_1_editing_segment_curve_value.html" target="_top" xlink:title=" ">
<polygon fill="white" stroke="black" points="291,-365.5 291,-384.5 469,-384.5 469,-365.5 291,-365.5"/>
<text text-anchor="middle" x="380" y="-372.5" font-family="Helvetica,sans-Serif" font-size="10.00">EditingSegmentCurveValue&lt; T &gt;</text>
</a>
</g>
</g>
<!-- Node23&#45;&gt;Node40 -->
<g id="edge39" class="edge">
<title>Node23&#45;&gt;Node40</title>
<path fill="none" stroke="midnightblue" d="M183.57,-490.13C203.97,-464.61 245.07,-418.15 291,-394 298.33,-390.14 306.4,-387.07 314.58,-384.62"/>
<polygon fill="midnightblue" stroke="midnightblue" points="180.65,-488.18 177.25,-498.21 186.17,-492.5 180.65,-488.18"/>
</g>
<!-- Node41 -->
<g id="node41" class="node">
<title>Node41</title>
<g id="a_node41"><a xlink:href="../../d2/dcf/classnap_1_1sequenceguiactions_1_1_editing_segment_popup.html" target="_top" xlink:title=" ">
<polygon fill="white" stroke="black" points="318,-327.5 318,-346.5 442,-346.5 442,-327.5 318,-327.5"/>
<text text-anchor="middle" x="380" y="-334.5" font-family="Helvetica,sans-Serif" font-size="10.00">EditingSegmentPopup</text>
</a>
</g>
</g>
<!-- Node23&#45;&gt;Node41 -->
<g id="edge40" class="edge">
<title>Node23&#45;&gt;Node41</title>
<path fill="none" stroke="midnightblue" d="M179.29,-489.33C196.53,-456.74 236.72,-389.69 291,-356 299.1,-350.97 308.34,-347.26 317.71,-344.52"/>
<polygon fill="midnightblue" stroke="midnightblue" points="176.15,-487.78 174.68,-498.27 182.37,-490.98 176.15,-487.78"/>
</g>
<!-- Node42 -->
<g id="node42" class="node">
<title>Node42</title>
<g id="a_node42"><a xlink:href="../../dc/dd7/classnap_1_1sequenceguiactions_1_1_editing_tan_point_popup.html" target="_top" xlink:title=" ">
<polygon fill="white" stroke="black" points="319,-289.5 319,-308.5 441,-308.5 441,-289.5 319,-289.5"/>
<text text-anchor="middle" x="380" y="-296.5" font-family="Helvetica,sans-Serif" font-size="10.00">EditingTanPointPopup</text>
</a>
</g>
</g>
<!-- Node23&#45;&gt;Node42 -->
<g id="edge41" class="edge">
<title>Node23&#45;&gt;Node42</title>
<path fill="none" stroke="midnightblue" d="M176.54,-488.57C190.73,-449.55 228.22,-361.71 291,-318 299.21,-312.28 308.81,-308.24 318.6,-305.39"/>
<polygon fill="midnightblue" stroke="midnightblue" points="173.17,-487.6 173.16,-498.2 179.78,-489.92 173.17,-487.6"/>
</g>
<!-- Node43 -->
<g id="node43" class="node">
<title>Node43</title>
<g id="a_node43"><a xlink:href="../../d9/d40/classnap_1_1sequenceguiactions_1_1_hovering_control_point.html" target="_top" xlink:title=" ">
<polygon fill="white" stroke="black" points="319.5,-251.5 319.5,-270.5 440.5,-270.5 440.5,-251.5 319.5,-251.5"/>
<text text-anchor="middle" x="380" y="-258.5" font-family="Helvetica,sans-Serif" font-size="10.00">HoveringControlPoint</text>
</a>
</g>
</g>
<!-- Node23&#45;&gt;Node43 -->
<g id="edge42" class="edge">
<title>Node23&#45;&gt;Node43</title>
<path fill="none" stroke="midnightblue" d="M174.41,-488.46C185.55,-443.87 219.18,-334.34 291,-280 299.23,-273.78 309.06,-269.5 319.13,-266.58"/>
<polygon fill="midnightblue" stroke="midnightblue" points="170.98,-487.78 172.06,-498.32 177.79,-489.4 170.98,-487.78"/>
</g>
<!-- Node44 -->
<g id="node44" class="node">
<title>Node44</title>
<g id="a_node44"><a xlink:href="../../d2/db3/classnap_1_1sequenceguiactions_1_1_hovering_curve.html" target="_top" xlink:title=" ">
<polygon fill="white" stroke="black" points="335.5,-213.5 335.5,-232.5 424.5,-232.5 424.5,-213.5 335.5,-213.5"/>
<text text-anchor="middle" x="380" y="-220.5" font-family="Helvetica,sans-Serif" font-size="10.00">HoveringCurve</text>
</a>
</g>
</g>
<!-- Node23&#45;&gt;Node44 -->
<g id="edge43" class="edge">
<title>Node23&#45;&gt;Node44</title>
<path fill="none" stroke="midnightblue" d="M172.85,-488.33C181.13,-438.61 210,-307.27 291,-242 303.41,-232 319.91,-226.95 335.25,-224.5"/>
<polygon fill="midnightblue" stroke="midnightblue" points="169.36,-487.97 171.27,-498.39 176.28,-489.05 169.36,-487.97"/>
</g>
<!-- Node45 -->
<g id="node45" class="node">
<title>Node45</title>
<g id="a_node45"><a xlink:href="../../d2/d56/classnap_1_1sequenceguiactions_1_1_hovering_left_audio_segment_handler.html" target="_top" xlink:title=" ">
<polygon fill="white" stroke="black" points="305,-164 305,-194 455,-194 455,-164 305,-164"/>
<text text-anchor="start" x="313" y="-182" font-family="Helvetica,sans-Serif" font-size="10.00">HoveringLeftAudioSegment</text>
<text text-anchor="middle" x="380" y="-171" font-family="Helvetica,sans-Serif" font-size="10.00">Handler</text>
</a>
</g>
</g>
<!-- Node23&#45;&gt;Node45 -->
<g id="edge44" class="edge">
<title>Node23&#45;&gt;Node45</title>
<path fill="none" stroke="midnightblue" d="M171.94,-488.11C178.29,-434.02 203.4,-283.09 291,-204 295.24,-200.17 300.03,-196.92 305.13,-194.17"/>
<polygon fill="midnightblue" stroke="midnightblue" points="168.42,-488.06 170.83,-498.38 175.38,-488.81 168.42,-488.06"/>
</g>
<!-- Node46 -->
<g id="node46" class="node">
<title>Node46</title>
<g id="a_node46"><a xlink:href="../../df/d05/classnap_1_1sequenceguiactions_1_1_hovering_right_audio_segment_handler.html" target="_top" xlink:title=" ">
<polygon fill="white" stroke="black" points="301,-115 301,-145 459,-145 459,-115 301,-115"/>
<text text-anchor="start" x="309" y="-133" font-family="Helvetica,sans-Serif" font-size="10.00">HoveringRightAudioSegment</text>
<text text-anchor="middle" x="380" y="-122" font-family="Helvetica,sans-Serif" font-size="10.00">Handler</text>
</a>
</g>
</g>
<!-- Node23&#45;&gt;Node46 -->
<g id="edge45" class="edge">
<title>Node23&#45;&gt;Node46</title>
<path fill="none" stroke="midnightblue" d="M170.69,-488.18C173.85,-428.56 191.6,-249.22 291,-155 295.03,-151.18 299.61,-147.93 304.5,-145.18"/>
<polygon fill="midnightblue" stroke="midnightblue" points="167.18,-488.3 170.23,-498.44 174.17,-488.61 167.18,-488.3"/>
</g>
<!-- Node47 -->
<g id="node47" class="node">
<title>Node47</title>
<g id="a_node47"><a xlink:href="../../da/d1c/classnap_1_1sequenceguiactions_1_1_hovering_segment.html" target="_top" xlink:title=" ">
<polygon fill="white" stroke="black" points="328,-76.5 328,-95.5 432,-95.5 432,-76.5 328,-76.5"/>
<text text-anchor="middle" x="380" y="-83.5" font-family="Helvetica,sans-Serif" font-size="10.00">HoveringSegment</text>
</a>
</g>
</g>
<!-- Node23&#45;&gt;Node47 -->
<g id="edge46" class="edge">
<title>Node23&#45;&gt;Node47</title>
<path fill="none" stroke="midnightblue" d="M169.5,-488.25C168.99,-423.04 176.65,-212.73 291,-106 300.96,-96.7 314.32,-91.41 327.61,-88.48"/>
<polygon fill="midnightblue" stroke="midnightblue" points="166,-488.43 169.66,-498.37 173,-488.32 166,-488.43"/>
</g>
<!-- Node48 -->
<g id="node48" class="node">
<title>Node48</title>
<g id="a_node48"><a xlink:href="../../d9/d7f/classnap_1_1sequenceguiactions_1_1_hovering_segment_value.html" target="_top" xlink:title=" ">
<polygon fill="white" stroke="black" points="314.5,-38.5 314.5,-57.5 445.5,-57.5 445.5,-38.5 314.5,-38.5"/>
<text text-anchor="middle" x="380" y="-45.5" font-family="Helvetica,sans-Serif" font-size="10.00">HoveringSegmentValue</text>
</a>
</g>
</g>
<!-- Node23&#45;&gt;Node48 -->
<g id="edge47" class="edge">
<title>Node23&#45;&gt;Node48</title>
<path fill="none" stroke="midnightblue" d="M172.71,-488.06C183.72,-410.08 227.51,-127.08 291,-67 297.58,-60.77 305.7,-56.39 314.32,-53.33"/>
<polygon fill="midnightblue" stroke="midnightblue" points="169.19,-488 171.28,-498.39 176.12,-488.97 169.19,-488"/>
</g>
<!-- Node49 -->
<g id="node49" class="node">
<title>Node49</title>
<g id="a_node49"><a xlink:href="../../d0/da6/classnap_1_1sequenceguiactions_1_1_hovering_tan_point.html" target="_top" xlink:title=" ">
<polygon fill="white" stroke="black" points="329,-0.5 329,-19.5 431,-19.5 431,-0.5 329,-0.5"/>
<text text-anchor="middle" x="380" y="-7.5" font-family="Helvetica,sans-Serif" font-size="10.00">HoveringTanPoint</text>
</a>
</g>
</g>
<!-- Node23&#45;&gt;Node49 -->
<g id="edge48" class="edge">
<title>Node23&#45;&gt;Node49</title>
<path fill="none" stroke="midnightblue" d="M172.26,-487.96C181.96,-405.67 222.64,-95.02 291,-29 301.12,-19.23 315,-13.98 328.75,-11.28"/>
<polygon fill="midnightblue" stroke="midnightblue" points="168.73,-488.05 171.06,-498.38 175.68,-488.85 168.73,-488.05"/>
</g>
</g>
</svg>
