<?xml version="1.0" encoding="UTF-8" standalone="no"?>
<!DOCTYPE svg PUBLIC "-//W3C//DTD SVG 1.1//EN"
 "http://www.w3.org/Graphics/SVG/1.1/DTD/svg11.dtd">
<!-- Generated by graphviz version 2.48.0 (20210717.1556)
 -->
<!-- Title: Action Pages: 1 -->
<svg width="440pt" height="1336pt"
 viewBox="0.00 0.00 440.00 1336.00" xmlns="http://www.w3.org/2000/svg" xmlns:xlink="http://www.w3.org/1999/xlink">
<g id="graph0" class="graph" transform="scale(1 1) rotate(0) translate(4 1332)">
<title>Action</title>
<polygon fill="white" stroke="transparent" points="-4,4 -4,-1332 436,-1332 436,4 -4,4"/>
<!-- Node0 -->
<g id="node1" class="node">
<title>Node0</title>
<polygon fill="#bfbfbf" stroke="black" points="0,-909.5 0,-928.5 44,-928.5 44,-909.5 0,-909.5"/>
<text text-anchor="middle" x="22" y="-916.5" font-family="Helvetica,sans-Serif" font-size="10.00">Action</text>
</g>
<!-- Node1 -->
<g id="node2" class="node">
<title>Node1</title>
<g id="a_node2"><a xlink:href="../../de/d04/classnap_1_1sequenceguiactions_1_1_change_horizontal_resolution.html" target="_top" xlink:title="ChangeHorizontalResolution">
<polygon fill="white" stroke="black" points="89.5,-1308.5 89.5,-1327.5 228.5,-1327.5 228.5,-1308.5 89.5,-1308.5"/>
<text text-anchor="middle" x="159" y="-1315.5" font-family="Helvetica,sans-Serif" font-size="10.00">ChangeHorizontalResolution</text>
</a>
</g>
</g>
<!-- Node0&#45;&gt;Node1 -->
<g id="edge1" class="edge">
<title>Node0&#45;&gt;Node1</title>
<path fill="none" stroke="midnightblue" d="M23.16,-938.66C24.14,-1008.82 31.09,-1245.47 80,-1299 83.48,-1302.81 87.58,-1305.91 92.05,-1308.43"/>
<polygon fill="midnightblue" stroke="midnightblue" points="26.66,-938.52 23.05,-928.56 19.66,-938.6 26.66,-938.52"/>
</g>
<!-- Node2 -->
<g id="node3" class="node">
<title>Node2</title>
<g id="a_node3"><a xlink:href="../../d0/dc5/classnap_1_1sequenceguiactions_1_1_change_vertical_resolution.html" target="_top" xlink:title="ChangeVerticalResolution">
<polygon fill="white" stroke="black" points="95,-1270.5 95,-1289.5 223,-1289.5 223,-1270.5 95,-1270.5"/>
<text text-anchor="middle" x="159" y="-1277.5" font-family="Helvetica,sans-Serif" font-size="10.00">ChangeVerticalResolution</text>
</a>
</g>
</g>
<!-- Node0&#45;&gt;Node2 -->
<g id="edge2" class="edge">
<title>Node0&#45;&gt;Node2</title>
<path fill="none" stroke="midnightblue" d="M23.53,-938.78C25.68,-1004.42 35.95,-1213.57 80,-1261 84.17,-1265.49 89.22,-1269 94.71,-1271.74"/>
<polygon fill="midnightblue" stroke="midnightblue" points="27.02,-938.47 23.22,-928.57 20.02,-938.67 27.02,-938.47"/>
</g>
<!-- Node3 -->
<g id="node4" class="node">
<title>Node3</title>
<g id="a_node4"><a xlink:href="../../d5/d0f/classnap_1_1sequenceguiactions_1_1_dragging_player_time.html" target="_top" xlink:title="DraggingPlayerTime">
<polygon fill="white" stroke="black" points="107,-1232.5 107,-1251.5 211,-1251.5 211,-1232.5 107,-1232.5"/>
<text text-anchor="middle" x="159" y="-1239.5" font-family="Helvetica,sans-Serif" font-size="10.00">DraggingPlayerTime</text>
</a>
</g>
</g>
<!-- Node0&#45;&gt;Node3 -->
<g id="edge3" class="edge">
<title>Node0&#45;&gt;Node3</title>
<path fill="none" stroke="midnightblue" d="M23.99,-938.92C27.41,-999.78 40.79,-1181.63 80,-1223 87.19,-1230.59 96.86,-1235.36 106.95,-1238.31"/>
<polygon fill="midnightblue" stroke="midnightblue" points="27.47,-938.53 23.45,-928.73 20.48,-938.9 27.47,-938.53"/>
</g>
<!-- Node4 -->
<g id="node5" class="node">
<title>Node4</title>
<g id="a_node5"><a xlink:href="../../dc/d38/classnap_1_1sequenceguiactions_1_1_dragging_sequence_duration.html" target="_top" xlink:title="DraggingSequenceDuration">
<polygon fill="white" stroke="black" points="92,-1194.5 92,-1213.5 226,-1213.5 226,-1194.5 92,-1194.5"/>
<text text-anchor="middle" x="159" y="-1201.5" font-family="Helvetica,sans-Serif" font-size="10.00">DraggingSequenceDuration</text>
</a>
</g>
</g>
<!-- Node0&#45;&gt;Node4 -->
<g id="edge4" class="edge">
<title>Node0&#45;&gt;Node4</title>
<path fill="none" stroke="midnightblue" d="M24.57,-938.93C29.35,-994.53 45.57,-1149.6 80,-1185 83.69,-1188.8 88.01,-1191.89 92.68,-1194.39"/>
<polygon fill="midnightblue" stroke="midnightblue" points="28.03,-938.33 23.72,-928.65 21.06,-938.91 28.03,-938.33"/>
</g>
<!-- Node5 -->
<g id="node6" class="node">
<title>Node5</title>
<g id="a_node6"><a xlink:href="../../d3/d06/classnap_1_1sequenceguiactions_1_1_drag_sequence_marker.html" target="_top" xlink:title="DragSequenceMarker">
<polygon fill="white" stroke="black" points="104,-1156.5 104,-1175.5 214,-1175.5 214,-1156.5 104,-1156.5"/>
<text text-anchor="middle" x="159" y="-1163.5" font-family="Helvetica,sans-Serif" font-size="10.00">DragSequenceMarker</text>
</a>
</g>
</g>
<!-- Node0&#45;&gt;Node5 -->
<g id="edge5" class="edge">
<title>Node0&#45;&gt;Node5</title>
<path fill="none" stroke="midnightblue" d="M25.31,-938.67C31.54,-988.43 50.27,-1117.45 80,-1147 86.52,-1153.48 94.87,-1157.89 103.66,-1160.85"/>
<polygon fill="midnightblue" stroke="midnightblue" points="28.76,-938.08 24.08,-928.57 21.81,-938.92 28.76,-938.08"/>
</g>
<!-- Node6 -->
<g id="node7" class="node">
<title>Node6</title>
<g id="a_node7"><a xlink:href="../../d7/d69/classnap_1_1sequenceguiactions_1_1_editing_sequence_marker_popup.html" target="_top" xlink:title="EditingSequenceMarkerPopup">
<polygon fill="white" stroke="black" points="85,-1118.5 85,-1137.5 233,-1137.5 233,-1118.5 85,-1118.5"/>
<text text-anchor="middle" x="159" y="-1125.5" font-family="Helvetica,sans-Serif" font-size="10.00">EditingSequenceMarkerPopup</text>
</a>
</g>
</g>
<!-- Node0&#45;&gt;Node6 -->
<g id="edge6" class="edge">
<title>Node0&#45;&gt;Node6</title>
<path fill="none" stroke="midnightblue" d="M22.88,-938.98C23.8,-977.67 31.55,-1063.03 80,-1109 84.04,-1112.84 88.73,-1115.94 93.76,-1118.44"/>
<polygon fill="midnightblue" stroke="midnightblue" points="26.38,-938.53 22.78,-928.57 19.38,-938.6 26.38,-938.53"/>
</g>
<!-- Node7 -->
<g id="node8" class="node">
<title>Node7</title>
<g id="a_node8"><a xlink:href="../../d4/d5c/classnap_1_1sequenceguiactions_1_1_edit_sequence_duration_popup.html" target="_top" xlink:title="EditSequenceDurationPopup">
<polygon fill="white" stroke="black" points="88.5,-1080.5 88.5,-1099.5 229.5,-1099.5 229.5,-1080.5 88.5,-1080.5"/>
<text text-anchor="middle" x="159" y="-1087.5" font-family="Helvetica,sans-Serif" font-size="10.00">EditSequenceDurationPopup</text>
</a>
</g>
</g>
<!-- Node0&#45;&gt;Node7 -->
<g id="edge7" class="edge">
<title>Node0&#45;&gt;Node7</title>
<path fill="none" stroke="midnightblue" d="M24.6,-938.58C28.34,-971.08 40.58,-1036.04 80,-1071 84.28,-1074.79 89.18,-1077.86 94.41,-1080.33"/>
<polygon fill="midnightblue" stroke="midnightblue" points="28.07,-938.14 23.6,-928.54 21.11,-938.83 28.07,-938.14"/>
</g>
<!-- Node8 -->
<g id="node9" class="node">
<title>Node8</title>
<g id="a_node9"><a xlink:href="../../d3/d26/classnap_1_1sequenceguiactions_1_1_hovering_player_time.html" target="_top" xlink:title="HoveringPlayerTime">
<polygon fill="white" stroke="black" points="108,-1042.5 108,-1061.5 210,-1061.5 210,-1042.5 108,-1042.5"/>
<text text-anchor="middle" x="159" y="-1049.5" font-family="Helvetica,sans-Serif" font-size="10.00">HoveringPlayerTime</text>
</a>
</g>
</g>
<!-- Node0&#45;&gt;Node8 -->
<g id="edge8" class="edge">
<title>Node0&#45;&gt;Node8</title>
<path fill="none" stroke="midnightblue" d="M27.4,-938.73C34.19,-964.41 49.71,-1008.85 80,-1033 87.96,-1039.34 97.72,-1043.61 107.61,-1046.48"/>
<polygon fill="midnightblue" stroke="midnightblue" points="30.72,-937.57 24.95,-928.69 23.92,-939.23 30.72,-937.57"/>
</g>
<!-- Node9 -->
<g id="node10" class="node">
<title>Node9</title>
<g id="a_node10"><a xlink:href="../../da/d4e/classnap_1_1sequenceguiactions_1_1_hovering_sequence_duration.html" target="_top" xlink:title="HoveringSequenceDuration">
<polygon fill="white" stroke="black" points="92.5,-1004.5 92.5,-1023.5 225.5,-1023.5 225.5,-1004.5 92.5,-1004.5"/>
<text text-anchor="middle" x="159" y="-1011.5" font-family="Helvetica,sans-Serif" font-size="10.00">HoveringSequenceDuration</text>
</a>
</g>
</g>
<!-- Node0&#45;&gt;Node9 -->
<g id="edge9" class="edge">
<title>Node0&#45;&gt;Node9</title>
<path fill="none" stroke="midnightblue" d="M32.25,-937.86C41.81,-955.34 58.36,-980.73 80,-995 85.93,-998.91 92.6,-1002.02 99.47,-1004.49"/>
<polygon fill="midnightblue" stroke="midnightblue" points="35.17,-935.88 27.45,-928.62 28.96,-939.11 35.17,-935.88"/>
</g>
<!-- Node10 -->
<g id="node11" class="node">
<title>Node10</title>
<g id="a_node11"><a xlink:href="../../da/d68/classnap_1_1sequenceguiactions_1_1_inserting_sequence_marker_popup.html" target="_top" xlink:title="InsertingSequenceMarkerPopup">
<polygon fill="white" stroke="black" points="81.5,-966.5 81.5,-985.5 236.5,-985.5 236.5,-966.5 81.5,-966.5"/>
<text text-anchor="middle" x="159" y="-973.5" font-family="Helvetica,sans-Serif" font-size="10.00">InsertingSequenceMarkerPopup</text>
</a>
</g>
</g>
<!-- Node0&#45;&gt;Node10 -->
<g id="edge10" class="edge">
<title>Node0&#45;&gt;Node10</title>
<path fill="none" stroke="midnightblue" d="M43.02,-934.86C53.52,-942.51 66.9,-951.25 80,-957 88.68,-960.81 98.25,-963.93 107.63,-966.47"/>
<polygon fill="midnightblue" stroke="midnightblue" points="45.04,-932 34.95,-928.79 40.83,-937.6 45.04,-932"/>
</g>
<!-- Node11 -->
<g id="node12" class="node">
<title>Node11</title>
<g id="a_node12"><a xlink:href="../../d8/d29/classnap_1_1sequenceguiactions_1_1_inserting_track_popup.html" target="_top" xlink:title="InsertingTrackPopup">
<polygon fill="white" stroke="black" points="106.5,-928.5 106.5,-947.5 211.5,-947.5 211.5,-928.5 106.5,-928.5"/>
<text text-anchor="middle" x="159" y="-935.5" font-family="Helvetica,sans-Serif" font-size="10.00">InsertingTrackPopup</text>
</a>
</g>
</g>
<!-- Node0&#45;&gt;Node11 -->
<g id="edge11" class="edge">
<title>Node0&#45;&gt;Node11</title>
<path fill="none" stroke="midnightblue" d="M54.19,-923.39C69.7,-925.57 88.86,-928.27 106.48,-930.75"/>
<polygon fill="midnightblue" stroke="midnightblue" points="54.48,-919.9 44.09,-921.97 53.51,-926.83 54.48,-919.9"/>
</g>
<!-- Node12 -->
<g id="node13" class="node">
<title>Node12</title>
<g id="a_node13"><a xlink:href="../../dc/dbc/classnap_1_1sequenceguiactions_1_1_load_popup.html" target="_top" xlink:title="LoadPopup">
<polygon fill="white" stroke="black" points="126.5,-890.5 126.5,-909.5 191.5,-909.5 191.5,-890.5 126.5,-890.5"/>
<text text-anchor="middle" x="159" y="-897.5" font-family="Helvetica,sans-Serif" font-size="10.00">LoadPopup</text>
</a>
</g>
</g>
<!-- Node0&#45;&gt;Node12 -->
<g id="edge12" class="edge">
<title>Node0&#45;&gt;Node12</title>
<path fill="none" stroke="midnightblue" d="M54.08,-914.63C75.72,-911.58 104.48,-907.53 126.26,-904.47"/>
<polygon fill="midnightblue" stroke="midnightblue" points="53.51,-911.17 44.09,-916.03 54.48,-918.1 53.51,-911.17"/>
</g>
<!-- Node13 -->
<g id="node14" class="node">
<title>Node13</title>
<g id="a_node14"><a xlink:href="../../df/d93/classnap_1_1sequenceguiactions_1_1_none.html" target="_top" xlink:title="None">
<polygon fill="white" stroke="black" points="139.5,-852.5 139.5,-871.5 178.5,-871.5 178.5,-852.5 139.5,-852.5"/>
<text text-anchor="middle" x="159" y="-859.5" font-family="Helvetica,sans-Serif" font-size="10.00">None</text>
</a>
</g>
</g>
<!-- Node0&#45;&gt;Node13 -->
<g id="edge13" class="edge">
<title>Node0&#45;&gt;Node13</title>
<path fill="none" stroke="midnightblue" d="M43.02,-903.14C53.52,-895.49 66.9,-886.75 80,-881 99.4,-872.49 123.26,-867.39 139.45,-864.65"/>
<polygon fill="midnightblue" stroke="midnightblue" points="40.83,-900.4 34.95,-909.21 45.04,-906 40.83,-900.4"/>
</g>
<!-- Node14 -->
<g id="node15" class="node">
<title>Node14</title>
<g id="a_node15"><a xlink:href="../../d7/d6a/classnap_1_1sequenceguiactions_1_1_none_pressed.html" target="_top" xlink:title="NonePressed">
<polygon fill="white" stroke="black" points="121.5,-814.5 121.5,-833.5 196.5,-833.5 196.5,-814.5 121.5,-814.5"/>
<text text-anchor="middle" x="159" y="-821.5" font-family="Helvetica,sans-Serif" font-size="10.00">NonePressed</text>
</a>
</g>
</g>
<!-- Node0&#45;&gt;Node14 -->
<g id="edge14" class="edge">
<title>Node0&#45;&gt;Node14</title>
<path fill="none" stroke="midnightblue" d="M32.25,-900.14C41.81,-882.66 58.36,-857.27 80,-843 92.22,-834.94 107.53,-830.3 121.35,-827.62"/>
<polygon fill="midnightblue" stroke="midnightblue" points="28.96,-898.89 27.45,-909.38 35.17,-902.12 28.96,-898.89"/>
</g>
<!-- Node15 -->
<g id="node16" class="node">
<title>Node15</title>
<g id="a_node16"><a xlink:href="../../d6/d7c/classnap_1_1sequenceguiactions_1_1_open_edit_sequence_marker_popup.html" target="_top" xlink:title="OpenEditSequenceMarkerPopup">
<polygon fill="white" stroke="black" points="80,-776.5 80,-795.5 238,-795.5 238,-776.5 80,-776.5"/>
<text text-anchor="middle" x="159" y="-783.5" font-family="Helvetica,sans-Serif" font-size="10.00">OpenEditSequenceMarkerPopup</text>
</a>
</g>
</g>
<!-- Node0&#45;&gt;Node15 -->
<g id="edge15" class="edge">
<title>Node0&#45;&gt;Node15</title>
<path fill="none" stroke="midnightblue" d="M27.4,-899.27C34.19,-873.59 49.71,-829.15 80,-805 84.8,-801.18 90.25,-798.11 95.99,-795.64"/>
<polygon fill="midnightblue" stroke="midnightblue" points="23.92,-898.77 24.95,-909.31 30.72,-900.43 23.92,-898.77"/>
</g>
<!-- Node16 -->
<g id="node17" class="node">
<title>Node16</title>
<g id="a_node17"><a xlink:href="../../da/d27/classnap_1_1sequenceguiactions_1_1_open_help_popup.html" target="_top" xlink:title="OpenHelpPopup">
<polygon fill="white" stroke="black" points="115.5,-738.5 115.5,-757.5 202.5,-757.5 202.5,-738.5 115.5,-738.5"/>
<text text-anchor="middle" x="159" y="-745.5" font-family="Helvetica,sans-Serif" font-size="10.00">OpenHelpPopup</text>
</a>
</g>
</g>
<!-- Node0&#45;&gt;Node16 -->
<g id="edge16" class="edge">
<title>Node0&#45;&gt;Node16</title>
<path fill="none" stroke="midnightblue" d="M24.6,-899.42C28.34,-866.92 40.58,-801.96 80,-767 89.7,-758.4 102.64,-753.54 115.2,-750.84"/>
<polygon fill="midnightblue" stroke="midnightblue" points="21.11,-899.17 23.6,-909.46 28.07,-899.86 21.11,-899.17"/>
</g>
<!-- Node17 -->
<g id="node18" class="node">
<title>Node17</title>
<g id="a_node18"><a xlink:href="../../d2/df3/classnap_1_1sequenceguiactions_1_1_open_insert_sequence_marker_popup.html" target="_top" xlink:title="OpenInsertSequenceMarker\lPopup">
<polygon fill="white" stroke="black" points="90.5,-689 90.5,-719 227.5,-719 227.5,-689 90.5,-689"/>
<text text-anchor="start" x="98.5" y="-707" font-family="Helvetica,sans-Serif" font-size="10.00">OpenInsertSequenceMarker</text>
<text text-anchor="middle" x="159" y="-696" font-family="Helvetica,sans-Serif" font-size="10.00">Popup</text>
</a>
</g>
</g>
<!-- Node0&#45;&gt;Node17 -->
<g id="edge17" class="edge">
<title>Node0&#45;&gt;Node17</title>
<path fill="none" stroke="midnightblue" d="M23.2,-898.78C24.69,-860.37 33.44,-776.44 80,-729 83.79,-725.14 88.17,-721.88 92.88,-719.12"/>
<polygon fill="midnightblue" stroke="midnightblue" points="19.69,-899.06 22.94,-909.15 26.69,-899.24 19.69,-899.06"/>
</g>
<!-- Node18 -->
<g id="node19" class="node">
<title>Node18</title>
<g id="a_node19"><a xlink:href="../../d5/d58/classnap_1_1sequenceguiactions_1_1_open_insert_track_popup.html" target="_top" xlink:title="OpenInsertTrackPopup">
<polygon fill="white" stroke="black" points="101,-650.5 101,-669.5 217,-669.5 217,-650.5 101,-650.5"/>
<text text-anchor="middle" x="159" y="-657.5" font-family="Helvetica,sans-Serif" font-size="10.00">OpenInsertTrackPopup</text>
</a>
</g>
</g>
<!-- Node0&#45;&gt;Node18 -->
<g id="edge18" class="edge">
<title>Node0&#45;&gt;Node18</title>
<path fill="none" stroke="midnightblue" d="M25.11,-899.09C30.99,-847.51 49.14,-711.39 80,-680 85.78,-674.12 93.04,-669.89 100.79,-666.85"/>
<polygon fill="midnightblue" stroke="midnightblue" points="21.61,-898.94 23.99,-909.26 28.57,-899.7 21.61,-898.94"/>
</g>
<!-- Node19 -->
<g id="node20" class="node">
<title>Node19</title>
<g id="a_node20"><a xlink:href="../../dd/d94/classnap_1_1sequenceguiactions_1_1_open_sequence_duration_popup.html" target="_top" xlink:title="OpenSequenceDurationPopup">
<polygon fill="white" stroke="black" points="85.5,-612.5 85.5,-631.5 232.5,-631.5 232.5,-612.5 85.5,-612.5"/>
<text text-anchor="middle" x="159" y="-619.5" font-family="Helvetica,sans-Serif" font-size="10.00">OpenSequenceDurationPopup</text>
</a>
</g>
</g>
<!-- Node0&#45;&gt;Node19 -->
<g id="edge19" class="edge">
<title>Node0&#45;&gt;Node19</title>
<path fill="none" stroke="midnightblue" d="M24.38,-898.93C28.74,-841.5 44.09,-678.25 80,-641 83.68,-637.19 87.98,-634.09 92.64,-631.57"/>
<polygon fill="midnightblue" stroke="midnightblue" points="20.87,-898.99 23.63,-909.22 27.85,-899.5 20.87,-898.99"/>
</g>
<!-- Node20 -->
<g id="node21" class="node">
<title>Node20</title>
<g id="a_node21"><a xlink:href="../../d2/d81/classnap_1_1sequenceguiactions_1_1_save_as_popup.html" target="_top" xlink:title="SaveAsPopup">
<polygon fill="white" stroke="black" points="120.5,-574.5 120.5,-593.5 197.5,-593.5 197.5,-574.5 120.5,-574.5"/>
<text text-anchor="middle" x="159" y="-581.5" font-family="Helvetica,sans-Serif" font-size="10.00">SaveAsPopup</text>
</a>
</g>
</g>
<!-- Node0&#45;&gt;Node20 -->
<g id="edge20" class="edge">
<title>Node0&#45;&gt;Node20</title>
<path fill="none" stroke="midnightblue" d="M23.83,-899.11C26.84,-836.69 39.26,-646.28 80,-603 90.32,-592.04 105.81,-586.95 120.28,-584.72"/>
<polygon fill="midnightblue" stroke="midnightblue" points="20.33,-899.06 23.37,-909.21 27.32,-899.38 20.33,-899.06"/>
</g>
<!-- Node21 -->
<g id="node22" class="node">
<title>Node21</title>
<g id="a_node22"><a xlink:href="../../d1/d19/classnap_1_1sequenceguiactions_1_1_show_help_popup.html" target="_top" xlink:title="ShowHelpPopup">
<polygon fill="white" stroke="black" points="115,-536.5 115,-555.5 203,-555.5 203,-536.5 115,-536.5"/>
<text text-anchor="middle" x="159" y="-543.5" font-family="Helvetica,sans-Serif" font-size="10.00">ShowHelpPopup</text>
</a>
</g>
</g>
<!-- Node0&#45;&gt;Node21 -->
<g id="edge21" class="edge">
<title>Node0&#45;&gt;Node21</title>
<path fill="none" stroke="midnightblue" d="M23.4,-899.39C25.17,-832.46 34.38,-614.39 80,-565 88.98,-555.27 102.04,-550.15 114.91,-547.55"/>
<polygon fill="midnightblue" stroke="midnightblue" points="19.9,-899.35 23.16,-909.43 26.9,-899.52 19.9,-899.35"/>
</g>
<!-- Node22 -->
<g id="node23" class="node">
<title>Node22</title>
<g id="a_node23"><a xlink:href="../../d5/d0e/classnap_1_1sequenceguiactions_1_1_track_action.html" target="_top" xlink:title="TrackAction">
<polygon fill="white" stroke="red" points="125,-498.5 125,-517.5 193,-517.5 193,-498.5 125,-498.5"/>
<text text-anchor="middle" x="159" y="-505.5" font-family="Helvetica,sans-Serif" font-size="10.00">TrackAction</text>
</a>
</g>
</g>
<!-- Node0&#45;&gt;Node22 -->
<g id="edge22" class="edge">
<title>Node0&#45;&gt;Node22</title>
<path fill="none" stroke="midnightblue" d="M23.07,-898.72C23.72,-826.37 29.7,-582.3 80,-527 91.25,-514.63 109.1,-509.68 124.88,-507.91"/>
<polygon fill="midnightblue" stroke="midnightblue" points="19.56,-899.12 23,-909.14 26.56,-899.17 19.56,-899.12"/>
</g>
<!-- Node23 -->
<g id="node24" class="node">
<title>Node23</title>
<g id="a_node24"><a xlink:href="../../de/dea/classnap_1_1sequenceguiactions_1_1_assign_output_i_d_to_track.html" target="_top" xlink:title="AssignOutputIDToTrack">
<polygon fill="white" stroke="black" points="293.5,-996.5 293.5,-1015.5 412.5,-1015.5 412.5,-996.5 293.5,-996.5"/>
<text text-anchor="middle" x="353" y="-1003.5" font-family="Helvetica,sans-Serif" font-size="10.00">AssignOutputIDToTrack</text>
</a>
</g>
</g>
<!-- Node22&#45;&gt;Node23 -->
<g id="edge23" class="edge">
<title>Node22&#45;&gt;Node23</title>
<path fill="none" stroke="midnightblue" d="M202.99,-509.01C216.08,-511.54 229.29,-516.76 238,-527 304.44,-605.09 207.56,-908.91 274,-987 279.15,-993.05 285.87,-997.35 293.21,-1000.37"/>
<polygon fill="midnightblue" stroke="midnightblue" points="203.48,-505.55 193.08,-507.56 202.47,-512.47 203.48,-505.55"/>
</g>
<!-- Node24 -->
<g id="node25" class="node">
<title>Node24</title>
<g id="a_node25"><a xlink:href="../../d1/d16/classnap_1_1sequenceguiactions_1_1_change_min_max_curve.html" target="_top" xlink:title="ChangeMinMaxCurve\&lt; T \&gt;">
<polygon fill="white" stroke="black" points="287.5,-958.5 287.5,-977.5 418.5,-977.5 418.5,-958.5 287.5,-958.5"/>
<text text-anchor="middle" x="353" y="-965.5" font-family="Helvetica,sans-Serif" font-size="10.00">ChangeMinMaxCurve&lt; T &gt;</text>
</a>
</g>
</g>
<!-- Node22&#45;&gt;Node24 -->
<g id="edge24" class="edge">
<title>Node22&#45;&gt;Node24</title>
<path fill="none" stroke="midnightblue" d="M202.95,-509.05C216.03,-511.58 229.26,-516.8 238,-527 299.24,-598.47 212.76,-877.53 274,-949 277.72,-953.34 282.25,-956.78 287.23,-959.49"/>
<polygon fill="midnightblue" stroke="midnightblue" points="203.44,-505.58 193.04,-507.59 202.43,-512.51 203.44,-505.58"/>
</g>
<!-- Node25 -->
<g id="node26" class="node">
<title>Node25</title>
<g id="a_node26"><a xlink:href="../../d6/db2/classnap_1_1sequenceguiactions_1_1_change_track_name.html" target="_top" xlink:title="ChangeTrackName">
<polygon fill="white" stroke="black" points="303.5,-920.5 303.5,-939.5 402.5,-939.5 402.5,-920.5 303.5,-920.5"/>
<text text-anchor="middle" x="353" y="-927.5" font-family="Helvetica,sans-Serif" font-size="10.00">ChangeTrackName</text>
</a>
</g>
</g>
<!-- Node22&#45;&gt;Node25 -->
<g id="edge25" class="edge">
<title>Node22&#45;&gt;Node25</title>
<path fill="none" stroke="midnightblue" d="M203.6,-509.23C216.45,-511.82 229.37,-517.01 238,-527 294.04,-591.85 217.96,-846.15 274,-911 281.47,-919.65 292.16,-924.7 303.24,-927.58"/>
<polygon fill="midnightblue" stroke="midnightblue" points="203.81,-505.72 193.39,-507.68 202.75,-512.64 203.81,-505.72"/>
</g>
<!-- Node26 -->
<g id="node27" class="node">
<title>Node26</title>
<g id="a_node27"><a xlink:href="../../de/d18/classnap_1_1sequenceguiactions_1_1_curve_point_action_popup.html" target="_top" xlink:title="CurvePointActionPopup\&lt; T \&gt;">
<polygon fill="white" stroke="black" points="282,-882.5 282,-901.5 424,-901.5 424,-882.5 282,-882.5"/>
<text text-anchor="middle" x="353" y="-889.5" font-family="Helvetica,sans-Serif" font-size="10.00">CurvePointActionPopup&lt; T &gt;</text>
</a>
</g>
</g>
<!-- Node22&#45;&gt;Node26 -->
<g id="edge26" class="edge">
<title>Node22&#45;&gt;Node26</title>
<path fill="none" stroke="midnightblue" d="M203.54,-509.28C216.39,-511.87 229.32,-517.06 238,-527 339.69,-643.46 172.31,-756.54 274,-873 277.3,-876.78 281.21,-879.87 285.51,-882.4"/>
<polygon fill="midnightblue" stroke="midnightblue" points="203.75,-505.77 193.34,-507.72 202.69,-512.69 203.75,-505.77"/>
</g>
<!-- Node27 -->
<g id="node28" class="node">
<title>Node27</title>
<g id="a_node28"><a xlink:href="../../dc/d56/classnap_1_1sequenceguiactions_1_1_curve_type_popup.html" target="_top" xlink:title="CurveTypePopup">
<polygon fill="white" stroke="black" points="308.5,-844.5 308.5,-863.5 397.5,-863.5 397.5,-844.5 308.5,-844.5"/>
<text text-anchor="middle" x="353" y="-851.5" font-family="Helvetica,sans-Serif" font-size="10.00">CurveTypePopup</text>
</a>
</g>
</g>
<!-- Node22&#45;&gt;Node27 -->
<g id="edge27" class="edge">
<title>Node22&#45;&gt;Node27</title>
<path fill="none" stroke="midnightblue" d="M203.47,-509.35C216.31,-511.94 229.26,-517.11 238,-527 329.3,-630.24 182.7,-731.76 274,-835 282.68,-844.81 295.5,-849.98 308.25,-852.59"/>
<polygon fill="midnightblue" stroke="midnightblue" points="203.69,-505.84 193.27,-507.78 202.62,-512.76 203.69,-505.84"/>
</g>
<!-- Node28 -->
<g id="node29" class="node">
<title>Node28</title>
<g id="a_node29"><a xlink:href="../../d5/d4a/classnap_1_1sequenceguiactions_1_1_delete_track.html" target="_top" xlink:title="DeleteTrack">
<polygon fill="white" stroke="black" points="319,-806.5 319,-825.5 387,-825.5 387,-806.5 319,-806.5"/>
<text text-anchor="middle" x="353" y="-813.5" font-family="Helvetica,sans-Serif" font-size="10.00">DeleteTrack</text>
</a>
</g>
</g>
<!-- Node22&#45;&gt;Node28 -->
<g id="edge28" class="edge">
<title>Node22&#45;&gt;Node28</title>
<path fill="none" stroke="midnightblue" d="M203.37,-509.43C216.21,-512.03 229.18,-517.19 238,-527 318.93,-617.03 193.07,-706.97 274,-797 285.18,-809.44 303.02,-814.39 318.82,-816.14"/>
<polygon fill="midnightblue" stroke="midnightblue" points="203.6,-505.93 193.18,-507.86 202.53,-512.85 203.6,-505.93"/>
</g>
<!-- Node29 -->
<g id="node30" class="node">
<title>Node29</title>
<g id="a_node30"><a xlink:href="../../d1/dbc/classnap_1_1sequenceguiactions_1_1_dragging_control_point.html" target="_top" xlink:title="DraggingControlPoint">
<polygon fill="white" stroke="black" points="299,-768.5 299,-787.5 407,-787.5 407,-768.5 299,-768.5"/>
<text text-anchor="middle" x="353" y="-775.5" font-family="Helvetica,sans-Serif" font-size="10.00">DraggingControlPoint</text>
</a>
</g>
</g>
<!-- Node22&#45;&gt;Node29 -->
<g id="edge29" class="edge">
<title>Node22&#45;&gt;Node29</title>
<path fill="none" stroke="midnightblue" d="M203.25,-509.55C216.08,-512.15 229.07,-517.28 238,-527 308.58,-603.85 203.42,-682.15 274,-759 280.6,-766.19 289.42,-770.86 298.76,-773.86"/>
<polygon fill="midnightblue" stroke="midnightblue" points="203.49,-506.04 193.07,-507.96 202.41,-512.96 203.49,-506.04"/>
</g>
<!-- Node30 -->
<g id="node31" class="node">
<title>Node30</title>
<g id="a_node31"><a xlink:href="../../d0/d5e/classnap_1_1sequenceguiactions_1_1_dragging_left_audio_segment_handler.html" target="_top" xlink:title="DraggingLeftAudioSegment\lHandler">
<polygon fill="white" stroke="black" points="286,-719 286,-749 420,-749 420,-719 286,-719"/>
<text text-anchor="start" x="294" y="-737" font-family="Helvetica,sans-Serif" font-size="10.00">DraggingLeftAudioSegment</text>
<text text-anchor="middle" x="353" y="-726" font-family="Helvetica,sans-Serif" font-size="10.00">Handler</text>
</a>
</g>
</g>
<!-- Node22&#45;&gt;Node30 -->
<g id="edge30" class="edge">
<title>Node22&#45;&gt;Node30</title>
<path fill="none" stroke="midnightblue" d="M203.34,-509.83C216.05,-512.47 228.96,-517.54 238,-527 295.29,-586.91 218.52,-648.41 274,-710 277.41,-713.79 281.41,-716.99 285.76,-719.69"/>
<polygon fill="midnightblue" stroke="midnightblue" points="203.69,-506.34 193.26,-508.2 202.57,-513.25 203.69,-506.34"/>
</g>
<!-- Node31 -->
<g id="node32" class="node">
<title>Node31</title>
<g id="a_node32"><a xlink:href="../../d8/d17/classnap_1_1sequenceguiactions_1_1_dragging_right_audio_segment_handler.html" target="_top" xlink:title="DraggingRightAudioSegment\lHandler">
<polygon fill="white" stroke="black" points="282.5,-670 282.5,-700 423.5,-700 423.5,-670 282.5,-670"/>
<text text-anchor="start" x="290.5" y="-688" font-family="Helvetica,sans-Serif" font-size="10.00">DraggingRightAudioSegment</text>
<text text-anchor="middle" x="353" y="-677" font-family="Helvetica,sans-Serif" font-size="10.00">Handler</text>
</a>
</g>
</g>
<!-- Node22&#45;&gt;Node31 -->
<g id="edge31" class="edge">
<title>Node22&#45;&gt;Node31</title>
<path fill="none" stroke="midnightblue" d="M203.26,-510.29C215.86,-512.96 228.71,-517.94 238,-527 281.85,-569.75 231.7,-615.72 274,-660 277.73,-663.91 282.08,-667.21 286.77,-669.99"/>
<polygon fill="midnightblue" stroke="midnightblue" points="203.74,-506.82 193.29,-508.6 202.57,-513.72 203.74,-506.82"/>
</g>
<!-- Node32 -->
<g id="node33" class="node">
<title>Node32</title>
<g id="a_node33"><a xlink:href="../../dc/d74/classnap_1_1sequenceguiactions_1_1_dragging_segment.html" target="_top" xlink:title="DraggingSegment">
<polygon fill="white" stroke="black" points="306,-631.5 306,-650.5 400,-650.5 400,-631.5 306,-631.5"/>
<text text-anchor="middle" x="353" y="-638.5" font-family="Helvetica,sans-Serif" font-size="10.00">DraggingSegment</text>
</a>
</g>
</g>
<!-- Node22&#45;&gt;Node32 -->
<g id="edge32" class="edge">
<title>Node22&#45;&gt;Node32</title>
<path fill="none" stroke="midnightblue" d="M203.06,-510.92C215.53,-513.63 228.36,-518.48 238,-527 271.83,-556.9 240.17,-592.1 274,-622 282.88,-629.85 294.46,-634.58 305.97,-637.39"/>
<polygon fill="midnightblue" stroke="midnightblue" points="203.67,-507.47 193.21,-509.17 202.44,-514.36 203.67,-507.47"/>
</g>
<!-- Node33 -->
<g id="node34" class="node">
<title>Node33</title>
<g id="a_node34"><a xlink:href="../../d2/d10/classnap_1_1sequenceguiactions_1_1_dragging_segment_value.html" target="_top" xlink:title="DraggingSegmentValue">
<polygon fill="white" stroke="black" points="293.5,-593.5 293.5,-612.5 412.5,-612.5 412.5,-593.5 293.5,-593.5"/>
<text text-anchor="middle" x="353" y="-600.5" font-family="Helvetica,sans-Serif" font-size="10.00">DraggingSegmentValue</text>
</a>
</g>
</g>
<!-- Node22&#45;&gt;Node33 -->
<g id="edge33" class="edge">
<title>Node22&#45;&gt;Node33</title>
<path fill="none" stroke="midnightblue" d="M203.07,-512.39C215.19,-515.17 227.83,-519.69 238,-527 262.33,-544.49 249.67,-566.51 274,-584 279.77,-588.15 286.34,-591.4 293.16,-593.94"/>
<polygon fill="midnightblue" stroke="midnightblue" points="203.56,-508.92 193.08,-510.43 202.22,-515.78 203.56,-508.92"/>
</g>
<!-- Node34 -->
<g id="node35" class="node">
<title>Node34</title>
<g id="a_node35"><a xlink:href="../../d5/dfb/classnap_1_1sequenceguiactions_1_1_dragging_tan_point.html" target="_top" xlink:title="DraggingTanPoint">
<polygon fill="white" stroke="black" points="306.5,-555.5 306.5,-574.5 399.5,-574.5 399.5,-555.5 306.5,-555.5"/>
<text text-anchor="middle" x="353" y="-562.5" font-family="Helvetica,sans-Serif" font-size="10.00">DraggingTanPoint</text>
</a>
</g>
</g>
<!-- Node22&#45;&gt;Node34 -->
<g id="edge34" class="edge">
<title>Node22&#45;&gt;Node34</title>
<path fill="none" stroke="midnightblue" d="M203.05,-516.48C214.58,-519.29 226.91,-522.8 238,-527 254.92,-533.41 257.08,-539.59 274,-546 284.3,-549.9 295.67,-553.21 306.47,-555.91"/>
<polygon fill="midnightblue" stroke="midnightblue" points="203.72,-513.04 193.18,-514.19 202.13,-519.86 203.72,-513.04"/>
</g>
<!-- Node35 -->
<g id="node36" class="node">
<title>Node35</title>
<g id="a_node36"><a xlink:href="../../d9/da1/classnap_1_1sequenceguiactions_1_1_editing_audio_segment_popup.html" target="_top" xlink:title="EditingAudioSegmentPopup">
<polygon fill="white" stroke="black" points="284,-517.5 284,-536.5 422,-536.5 422,-517.5 284,-517.5"/>
<text text-anchor="middle" x="353" y="-524.5" font-family="Helvetica,sans-Serif" font-size="10.00">EditingAudioSegmentPopup</text>
</a>
</g>
</g>
<!-- Node22&#45;&gt;Node35 -->
<g id="edge35" class="edge">
<title>Node22&#45;&gt;Node35</title>
<path fill="none" stroke="midnightblue" d="M203.1,-512.26C226.83,-514.61 256.83,-517.58 283.67,-520.24"/>
<polygon fill="midnightblue" stroke="midnightblue" points="203.3,-508.77 193.01,-511.27 202.61,-515.73 203.3,-508.77"/>
</g>
<!-- Node36 -->
<g id="node37" class="node">
<title>Node36</title>
<g id="a_node37"><a xlink:href="../../dc/d2b/classnap_1_1sequenceguiactions_1_1_editing_curve_segment.html" target="_top" xlink:title="EditingCurveSegment">
<polygon fill="white" stroke="black" points="298,-479.5 298,-498.5 408,-498.5 408,-479.5 298,-479.5"/>
<text text-anchor="middle" x="353" y="-486.5" font-family="Helvetica,sans-Serif" font-size="10.00">EditingCurveSegment</text>
</a>
</g>
</g>
<!-- Node22&#45;&gt;Node36 -->
<g id="edge36" class="edge">
<title>Node22&#45;&gt;Node36</title>
<path fill="none" stroke="midnightblue" d="M203.26,-503.72C231.2,-500.95 267.77,-497.33 297.67,-494.38"/>
<polygon fill="midnightblue" stroke="midnightblue" points="202.61,-500.27 193.01,-504.73 203.3,-507.23 202.61,-500.27"/>
</g>
<!-- Node37 -->
<g id="node38" class="node">
<title>Node37</title>
<g id="a_node38"><a xlink:href="../../df/dec/classnap_1_1sequenceguiactions_1_1_editing_event_segment.html" target="_top" xlink:title="EditingEventSegment\&lt; T \&gt;">
<polygon fill="white" stroke="black" points="286.5,-441.5 286.5,-460.5 419.5,-460.5 419.5,-441.5 286.5,-441.5"/>
<text text-anchor="middle" x="353" y="-448.5" font-family="Helvetica,sans-Serif" font-size="10.00">EditingEventSegment&lt; T &gt;</text>
</a>
</g>
</g>
<!-- Node22&#45;&gt;Node37 -->
<g id="edge37" class="edge">
<title>Node22&#45;&gt;Node37</title>
<path fill="none" stroke="midnightblue" d="M196.24,-495.07C218.53,-487.33 247.75,-477.56 274,-470 285.65,-466.64 298.39,-463.38 310.14,-460.52"/>
<polygon fill="midnightblue" stroke="midnightblue" points="194.81,-491.86 186.52,-498.46 197.12,-498.47 194.81,-491.86"/>
</g>
<!-- Node38 -->
<g id="node39" class="node">
<title>Node38</title>
<g id="a_node39"><a xlink:href="../../d9/d29/classnap_1_1sequenceguiactions_1_1_editing_segment_curve_value.html" target="_top" xlink:title="EditingSegmentCurveValue\&lt; T \&gt;">
<polygon fill="white" stroke="black" points="274,-403.5 274,-422.5 432,-422.5 432,-403.5 274,-403.5"/>
<text text-anchor="middle" x="353" y="-410.5" font-family="Helvetica,sans-Serif" font-size="10.00">EditingSegmentCurveValue&lt; T &gt;</text>
</a>
</g>
</g>
<!-- Node22&#45;&gt;Node38 -->
<g id="edge38" class="edge">
<title>Node22&#45;&gt;Node38</title>
<path fill="none" stroke="midnightblue" d="M179.32,-492.02C201.05,-474.81 238.04,-447.78 274,-432 282.68,-428.19 292.25,-425.07 301.63,-422.53"/>
<polygon fill="midnightblue" stroke="midnightblue" points="177.1,-489.31 171.5,-498.31 181.49,-494.77 177.1,-489.31"/>
</g>
<!-- Node39 -->
<g id="node40" class="node">
<title>Node39</title>
<g id="a_node40"><a xlink:href="../../d2/dcf/classnap_1_1sequenceguiactions_1_1_editing_segment_popup.html" target="_top" xlink:title="EditingSegmentPopup">
<polygon fill="white" stroke="black" points="296.5,-365.5 296.5,-384.5 409.5,-384.5 409.5,-365.5 296.5,-365.5"/>
<text text-anchor="middle" x="353" y="-372.5" font-family="Helvetica,sans-Serif" font-size="10.00">EditingSegmentPopup</text>
</a>
</g>
</g>
<!-- Node22&#45;&gt;Node39 -->
<g id="edge39" class="edge">
<title>Node22&#45;&gt;Node39</title>
<path fill="none" stroke="midnightblue" d="M172.88,-489.93C191.99,-464.51 230.32,-418.56 274,-394 280.93,-390.11 288.63,-387.01 296.43,-384.54"/>
<polygon fill="midnightblue" stroke="midnightblue" points="169.84,-488.16 166.73,-498.29 175.48,-492.31 169.84,-488.16"/>
</g>
<!-- Node40 -->
<g id="node41" class="node">
<title>Node40</title>
<g id="a_node41"><a xlink:href="../../dc/dd7/classnap_1_1sequenceguiactions_1_1_editing_tan_point_popup.html" target="_top" xlink:title="EditingTanPointPopup">
<polygon fill="white" stroke="black" points="296.5,-327.5 296.5,-346.5 409.5,-346.5 409.5,-327.5 296.5,-327.5"/>
<text text-anchor="middle" x="353" y="-334.5" font-family="Helvetica,sans-Serif" font-size="10.00">EditingTanPointPopup</text>
</a>
</g>
</g>
<!-- Node22&#45;&gt;Node40 -->
<g id="edge40" class="edge">
<title>Node22&#45;&gt;Node40</title>
<path fill="none" stroke="midnightblue" d="M168.75,-489.06C184.78,-456.53 222.07,-390.25 274,-356 280.75,-351.55 288.44,-348.14 296.31,-345.53"/>
<polygon fill="midnightblue" stroke="midnightblue" points="165.46,-487.82 164.3,-498.35 171.77,-490.84 165.46,-487.82"/>
</g>
<!-- Node41 -->
<g id="node42" class="node">
<title>Node41</title>
<g id="a_node42"><a xlink:href="../../d9/d40/classnap_1_1sequenceguiactions_1_1_hovering_control_point.html" target="_top" xlink:title="HoveringControlPoint">
<polygon fill="white" stroke="black" points="299.5,-289.5 299.5,-308.5 406.5,-308.5 406.5,-289.5 299.5,-289.5"/>
<text text-anchor="middle" x="353" y="-296.5" font-family="Helvetica,sans-Serif" font-size="10.00">HoveringControlPoint</text>
</a>
</g>
</g>
<!-- Node22&#45;&gt;Node41 -->
<g id="edge41" class="edge">
<title>Node22&#45;&gt;Node41</title>
<path fill="none" stroke="midnightblue" d="M165.92,-488.72C178.85,-449.98 213.41,-362.61 274,-318 281.41,-312.55 290.18,-308.64 299.12,-305.85"/>
<polygon fill="midnightblue" stroke="midnightblue" points="162.58,-487.69 162.85,-498.28 169.24,-489.83 162.58,-487.69"/>
</g>
<!-- Node42 -->
<g id="node43" class="node">
<title>Node42</title>
<g id="a_node43"><a xlink:href="../../d2/db3/classnap_1_1sequenceguiactions_1_1_hovering_curve.html" target="_top" xlink:title="HoveringCurve">
<polygon fill="white" stroke="black" points="314.5,-251.5 314.5,-270.5 391.5,-270.5 391.5,-251.5 314.5,-251.5"/>
<text text-anchor="middle" x="353" y="-258.5" font-family="Helvetica,sans-Serif" font-size="10.00">HoveringCurve</text>
</a>
</g>
</g>
<!-- Node22&#45;&gt;Node42 -->
<g id="edge42" class="edge">
<title>Node22&#45;&gt;Node42</title>
<path fill="none" stroke="midnightblue" d="M163.9,-488.61C173.84,-444.35 204.46,-335.44 274,-280 285.33,-270.96 300.33,-266.13 314.15,-263.58"/>
<polygon fill="midnightblue" stroke="midnightblue" points="160.47,-487.88 161.8,-498.4 167.32,-489.35 160.47,-487.88"/>
</g>
<!-- Node43 -->
<g id="node44" class="node">
<title>Node43</title>
<g id="a_node44"><a xlink:href="../../d2/d56/classnap_1_1sequenceguiactions_1_1_hovering_left_audio_segment_handler.html" target="_top" xlink:title="HoveringLeftAudioSegment\lHandler">
<polygon fill="white" stroke="black" points="286.5,-202 286.5,-232 419.5,-232 419.5,-202 286.5,-202"/>
<text text-anchor="start" x="294.5" y="-220" font-family="Helvetica,sans-Serif" font-size="10.00">HoveringLeftAudioSegment</text>
<text text-anchor="middle" x="353" y="-209" font-family="Helvetica,sans-Serif" font-size="10.00">Handler</text>
</a>
</g>
</g>
<!-- Node22&#45;&gt;Node43 -->
<g id="edge43" class="edge">
<title>Node22&#45;&gt;Node43</title>
<path fill="none" stroke="midnightblue" d="M162.75,-488.48C170.65,-439.64 197.96,-311.15 274,-242 278.21,-238.17 283.01,-234.93 288.1,-232.19"/>
<polygon fill="midnightblue" stroke="midnightblue" points="159.29,-487.96 161.24,-498.37 166.21,-489.01 159.29,-487.96"/>
</g>
<!-- Node44 -->
<g id="node45" class="node">
<title>Node44</title>
<g id="a_node45"><a xlink:href="../../df/d05/classnap_1_1sequenceguiactions_1_1_hovering_right_audio_segment_handler.html" target="_top" xlink:title="HoveringRightAudioSegment\lHandler">
<polygon fill="white" stroke="black" points="283,-153 283,-183 423,-183 423,-153 283,-153"/>
<text text-anchor="start" x="291" y="-171" font-family="Helvetica,sans-Serif" font-size="10.00">HoveringRightAudioSegment</text>
<text text-anchor="middle" x="353" y="-160" font-family="Helvetica,sans-Serif" font-size="10.00">Handler</text>
</a>
</g>
</g>
<!-- Node22&#45;&gt;Node44 -->
<g id="edge44" class="edge">
<title>Node22&#45;&gt;Node44</title>
<path fill="none" stroke="midnightblue" d="M161.29,-488.31C165.95,-433.41 186.61,-277.2 274,-193 277.99,-189.15 282.58,-185.9 287.49,-183.14"/>
<polygon fill="midnightblue" stroke="midnightblue" points="157.79,-488.18 160.52,-498.42 164.77,-488.71 157.79,-488.18"/>
</g>
<!-- Node45 -->
<g id="node46" class="node">
<title>Node45</title>
<g id="a_node46"><a xlink:href="../../da/d1c/classnap_1_1sequenceguiactions_1_1_hovering_segment.html" target="_top" xlink:title="HoveringSegment">
<polygon fill="white" stroke="black" points="307,-114.5 307,-133.5 399,-133.5 399,-114.5 307,-114.5"/>
<text text-anchor="middle" x="353" y="-121.5" font-family="Helvetica,sans-Serif" font-size="10.00">HoveringSegment</text>
</a>
</g>
</g>
<!-- Node22&#45;&gt;Node45 -->
<g id="edge45" class="edge">
<title>Node22&#45;&gt;Node45</title>
<path fill="none" stroke="midnightblue" d="M159.92,-488.27C160.78,-427.4 172.01,-240.77 274,-144 282.92,-135.53 294.93,-130.52 306.84,-127.59"/>
<polygon fill="midnightblue" stroke="midnightblue" points="156.42,-488.4 159.86,-498.42 163.42,-488.44 156.42,-488.4"/>
</g>
<!-- Node46 -->
<g id="node47" class="node">
<title>Node46</title>
<g id="a_node47"><a xlink:href="../../d9/d7f/classnap_1_1sequenceguiactions_1_1_hovering_segment_value.html" target="_top" xlink:title="HoveringSegmentValue">
<polygon fill="white" stroke="black" points="294.5,-76.5 294.5,-95.5 411.5,-95.5 411.5,-76.5 294.5,-76.5"/>
<text text-anchor="middle" x="353" y="-83.5" font-family="Helvetica,sans-Serif" font-size="10.00">HoveringSegmentValue</text>
</a>
</g>
</g>
<!-- Node22&#45;&gt;Node46 -->
<g id="edge46" class="edge">
<title>Node22&#45;&gt;Node46</title>
<path fill="none" stroke="midnightblue" d="M162.97,-487.96C174.27,-414.31 216.85,-160.08 274,-105 279.72,-99.49 286.76,-95.49 294.25,-92.6"/>
<polygon fill="midnightblue" stroke="midnightblue" points="159.46,-487.76 161.43,-498.17 166.38,-488.8 159.46,-487.76"/>
</g>
<!-- Node47 -->
<g id="node48" class="node">
<title>Node47</title>
<g id="a_node48"><a xlink:href="../../d0/da6/classnap_1_1sequenceguiactions_1_1_hovering_tan_point.html" target="_top" xlink:title="HoveringTanPoint">
<polygon fill="white" stroke="black" points="307,-38.5 307,-57.5 399,-57.5 399,-38.5 307,-38.5"/>
<text text-anchor="middle" x="353" y="-45.5" font-family="Helvetica,sans-Serif" font-size="10.00">HoveringTanPoint</text>
</a>
</g>
</g>
<!-- Node22&#45;&gt;Node47 -->
<g id="edge47" class="edge">
<title>Node22&#45;&gt;Node47</title>
<path fill="none" stroke="midnightblue" d="M162.43,-488.12C172.32,-410.37 212.01,-128.13 274,-67 282.73,-58.39 294.68,-53.45 306.6,-50.68"/>
<polygon fill="midnightblue" stroke="midnightblue" points="158.91,-488.06 161.14,-498.42 165.85,-488.93 158.91,-488.06"/>
</g>
<!-- Node48 -->
<g id="node49" class="node">
<title>Node48</title>
<g id="a_node49"><a xlink:href="../../da/db4/classnap_1_1sequenceguiactions_1_1_inserting_audio_segment_popup.html" target="_top" xlink:title="InsertingAudioSegmentPopup">
<polygon fill="white" stroke="black" points="280.5,-0.5 280.5,-19.5 425.5,-19.5 425.5,-0.5 280.5,-0.5"/>
<text text-anchor="middle" x="353" y="-7.5" font-family="Helvetica,sans-Serif" font-size="10.00">InsertingAudioSegmentPopup</text>
</a>
</g>
</g>
<!-- Node22&#45;&gt;Node48 -->
<g id="edge48" class="edge">
<title>Node22&#45;&gt;Node48</title>
<path fill="none" stroke="midnightblue" d="M162,-488.02C170.63,-405.97 207.2,-96.15 274,-29 277.83,-25.15 282.31,-22.03 287.14,-19.5"/>
<polygon fill="midnightblue" stroke="midnightblue" points="158.48,-488.11 160.93,-498.41 165.44,-488.82 158.48,-488.11"/>
</g>
</g>
</svg>
