<?xml version="1.0" encoding="UTF-8" standalone="no"?>
<!DOCTYPE svg PUBLIC "-//W3C//DTD SVG 1.1//EN"
 "http://www.w3.org/Graphics/SVG/1.1/DTD/svg11.dtd">
<!-- Generated by graphviz version 2.43.0 (0)
 -->
<!-- Title: SequencePlayerStandardClock Pages: 1 -->
<svg width="184pt" height="209pt"
 viewBox="0.00 0.00 184.00 209.00" xmlns="http://www.w3.org/2000/svg" xmlns:xlink="http://www.w3.org/1999/xlink">
<g id="graph0" class="graph" transform="scale(1 1) rotate(0) translate(4 205)">
<title>SequencePlayerStandardClock</title>
<polygon fill="white" stroke="transparent" points="-4,4 -4,-205 180,-205 180,4 -4,4"/>
<!-- Node1 -->
<g id="node1" class="node">
<title>Node1</title>
<g id="a_node1"><a xlink:title=" ">
<polygon fill="#bfbfbf" stroke="black" points="0,-0.5 0,-19.5 165,-19.5 165,-0.5 0,-0.5"/>
<text text-anchor="middle" x="82.5" y="-7.5" font-family="Helvetica,sans-Serif" font-size="10.00">SequencePlayerStandardClock</text>
</a>
</g>
</g>
<!-- Node2 -->
<g id="node2" class="node">
<title>Node2</title>
<g id="a_node2"><a xlink:href="../../dd/dcd/classnap_1_1_sequence_player_clock.html" target="_top" xlink:title=" ">
<polygon fill="white" stroke="black" points="21.5,-57.5 21.5,-76.5 143.5,-76.5 143.5,-57.5 21.5,-57.5"/>
<text text-anchor="middle" x="82.5" y="-64.5" font-family="Helvetica,sans-Serif" font-size="10.00">SequencePlayerClock</text>
</a>
</g>
</g>
<!-- Node2&#45;&gt;Node1 -->
<g id="edge1" class="edge">
<title>Node2&#45;&gt;Node1</title>
<path fill="none" stroke="midnightblue" d="M82.5,-47.12C82.5,-37.82 82.5,-27.06 82.5,-19.71"/>
<polygon fill="midnightblue" stroke="midnightblue" points="79,-47.41 82.5,-57.41 86,-47.41 79,-47.41"/>
</g>
<!-- Node3 -->
<g id="node3" class="node">
<title>Node3</title>
<g id="a_node3"><a xlink:href="../../d9/dea/classnap_1_1_resource.html" target="_top" xlink:title=" ">
<polygon fill="white" stroke="black" points="4.5,-124.5 4.5,-143.5 66.5,-143.5 66.5,-124.5 4.5,-124.5"/>
<text text-anchor="middle" x="35.5" y="-131.5" font-family="Helvetica,sans-Serif" font-size="10.00">Resource</text>
</a>
</g>
</g>
<!-- Node3&#45;&gt;Node2 -->
<g id="edge2" class="edge">
<title>Node3&#45;&gt;Node2</title>
<path fill="none" stroke="midnightblue" d="M47.86,-115.9C56.99,-103.27 69.05,-86.6 76.26,-76.63"/>
<polygon fill="midnightblue" stroke="midnightblue" points="44.86,-114.08 41.84,-124.23 50.53,-118.18 44.86,-114.08"/>
</g>
<!-- Node4 -->
<g id="node4" class="node">
<title>Node4</title>
<g id="a_node4"><a xlink:href="../../de/d01/classnap_1_1rtti_1_1_object.html" target="_top" xlink:title=" ">
<polygon fill="white" stroke="black" points="11.5,-181.5 11.5,-200.5 59.5,-200.5 59.5,-181.5 11.5,-181.5"/>
<text text-anchor="middle" x="35.5" y="-188.5" font-family="Helvetica,sans-Serif" font-size="10.00">Object</text>
</a>
</g>
</g>
<!-- Node4&#45;&gt;Node3 -->
<g id="edge3" class="edge">
<title>Node4&#45;&gt;Node3</title>
<path fill="none" stroke="midnightblue" d="M35.5,-171.12C35.5,-161.82 35.5,-151.06 35.5,-143.71"/>
<polygon fill="midnightblue" stroke="midnightblue" points="32,-171.41 35.5,-181.41 39,-171.41 32,-171.41"/>
</g>
<!-- Node5 -->
<g id="node5" class="node">
<title>Node5</title>
<g id="a_node5"><a xlink:href="../../db/dc3/classnap_1_1_slot.html" target="_top" xlink:title=" ">
<polygon fill="white" stroke="black" points="85,-124.5 85,-143.5 176,-143.5 176,-124.5 85,-124.5"/>
<text text-anchor="middle" x="130.5" y="-131.5" font-family="Helvetica,sans-Serif" font-size="10.00">Slot&lt; double &gt;</text>
</a>
</g>
</g>
<!-- Node5&#45;&gt;Node2 -->
<g id="edge4" class="edge">
<title>Node5&#45;&gt;Node2</title>
<path fill="none" stroke="#9a32cd" stroke-dasharray="5,2" d="M117.88,-115.9C108.55,-103.27 96.24,-86.6 88.87,-76.63"/>
<polygon fill="#9a32cd" stroke="#9a32cd" points="115.27,-118.27 124.03,-124.23 120.9,-114.11 115.27,-118.27"/>
<text text-anchor="middle" x="124.5" y="-98" font-family="Helvetica,sans-Serif" font-size="10.00"> mSlot</text>
</g>
</g>
</svg>
