<?xml version="1.0" encoding="UTF-8" standalone="no"?>
<!DOCTYPE svg PUBLIC "-//W3C//DTD SVG 1.1//EN"
 "http://www.w3.org/Graphics/SVG/1.1/DTD/svg11.dtd">
<!-- Generated by graphviz version 2.43.0 (0)
 -->
<!-- Title: RenderWindow Pages: 1 -->
<svg width="365pt" height="230pt"
 viewBox="0.00 0.00 365.00 230.00" xmlns="http://www.w3.org/2000/svg" xmlns:xlink="http://www.w3.org/1999/xlink">
<g id="graph0" class="graph" transform="scale(1 1) rotate(0) translate(4 226)">
<title>RenderWindow</title>
<polygon fill="white" stroke="transparent" points="-4,4 -4,-226 361,-226 361,4 -4,4"/>
<!-- Node1 -->
<g id="node1" class="node">
<title>Node1</title>
<g id="a_node1"><a xlink:title=" ">
<polygon fill="#bfbfbf" stroke="black" points="138,-0.5 138,-19.5 228,-19.5 228,-0.5 138,-0.5"/>
<text text-anchor="middle" x="183" y="-7.5" font-family="Helvetica,sans-Serif" font-size="10.00">RenderWindow</text>
</a>
</g>
</g>
<!-- Node2 -->
<g id="node2" class="node">
<title>Node2</title>
<g id="a_node2"><a xlink:href="../../d0/dc5/classnap_1_1_window.html" target="_top" xlink:title=" ">
<polygon fill="white" stroke="black" points="67,-67.5 67,-86.5 123,-86.5 123,-67.5 67,-67.5"/>
<text text-anchor="middle" x="95" y="-74.5" font-family="Helvetica,sans-Serif" font-size="10.00">Window</text>
</a>
</g>
</g>
<!-- Node2&#45;&gt;Node1 -->
<g id="edge1" class="edge">
<title>Node2&#45;&gt;Node1</title>
<path fill="none" stroke="midnightblue" d="M115.22,-61.07C132.59,-48.24 157.03,-30.19 171.32,-19.63"/>
<polygon fill="midnightblue" stroke="midnightblue" points="112.83,-58.48 106.87,-67.23 116.99,-64.11 112.83,-58.48"/>
</g>
<!-- Node3 -->
<g id="node3" class="node">
<title>Node3</title>
<g id="a_node3"><a xlink:href="../../d9/dea/classnap_1_1_resource.html" target="_top" xlink:title=" ">
<polygon fill="white" stroke="black" points="0,-140 0,-159 62,-159 62,-140 0,-140"/>
<text text-anchor="middle" x="31" y="-147" font-family="Helvetica,sans-Serif" font-size="10.00">Resource</text>
</a>
</g>
</g>
<!-- Node3&#45;&gt;Node2 -->
<g id="edge2" class="edge">
<title>Node3&#45;&gt;Node2</title>
<path fill="none" stroke="midnightblue" d="M45.71,-132.3C58.58,-118.12 76.79,-98.06 87.09,-86.72"/>
<polygon fill="midnightblue" stroke="midnightblue" points="42.98,-130.1 38.85,-139.86 48.16,-134.8 42.98,-130.1"/>
</g>
<!-- Node4 -->
<g id="node4" class="node">
<title>Node4</title>
<g id="a_node4"><a xlink:href="../../de/d01/classnap_1_1rtti_1_1_object.html" target="_top" xlink:title=" ">
<polygon fill="white" stroke="black" points="7,-202.5 7,-221.5 55,-221.5 55,-202.5 7,-202.5"/>
<text text-anchor="middle" x="31" y="-209.5" font-family="Helvetica,sans-Serif" font-size="10.00">Object</text>
</a>
</g>
</g>
<!-- Node4&#45;&gt;Node3 -->
<g id="edge3" class="edge">
<title>Node4&#45;&gt;Node3</title>
<path fill="none" stroke="midnightblue" d="M31,-192C31,-181 31,-167.68 31,-159.15"/>
<polygon fill="midnightblue" stroke="midnightblue" points="27.5,-192.33 31,-202.33 34.5,-192.33 27.5,-192.33"/>
</g>
<!-- Node5 -->
<g id="node5" class="node">
<title>Node5</title>
<g id="a_node5"><a xlink:href="../../de/d80/classnap_1_1_signal.html" target="_top" xlink:title=" ">
<polygon fill="white" stroke="black" points="80.5,-134.5 80.5,-164.5 191.5,-164.5 191.5,-134.5 80.5,-134.5"/>
<text text-anchor="start" x="88.5" y="-152.5" font-family="Helvetica,sans-Serif" font-size="10.00">Signal&lt; const nap::</text>
<text text-anchor="middle" x="136" y="-141.5" font-family="Helvetica,sans-Serif" font-size="10.00">WindowEvent &amp; &gt;</text>
</a>
</g>
</g>
<!-- Node5&#45;&gt;Node2 -->
<g id="edge4" class="edge">
<title>Node5&#45;&gt;Node2</title>
<path fill="none" stroke="#9a32cd" stroke-dasharray="5,2" d="M122.48,-125.24C114.84,-112.12 105.75,-96.48 100.17,-86.89"/>
<polygon fill="#9a32cd" stroke="#9a32cd" points="119.65,-127.35 127.7,-134.23 125.7,-123.83 119.65,-127.35"/>
<text text-anchor="middle" x="157" y="-108" font-family="Helvetica,sans-Serif" font-size="10.00"> mWindowEvent</text>
</g>
<!-- Node6 -->
<g id="node6" class="node">
<title>Node6</title>
<g id="a_node6"><a xlink:href="../../d7/da9/classnap_1_1_i_render_target.html" target="_top" xlink:title=" ">
<polygon fill="white" stroke="black" points="141,-67.5 141,-86.5 225,-86.5 225,-67.5 141,-67.5"/>
<text text-anchor="middle" x="183" y="-74.5" font-family="Helvetica,sans-Serif" font-size="10.00">IRenderTarget</text>
</a>
</g>
</g>
<!-- Node6&#45;&gt;Node1 -->
<g id="edge5" class="edge">
<title>Node6&#45;&gt;Node1</title>
<path fill="none" stroke="midnightblue" d="M183,-57.04C183,-44.67 183,-29.12 183,-19.63"/>
<polygon fill="midnightblue" stroke="midnightblue" points="179.5,-57.23 183,-67.23 186.5,-57.23 179.5,-57.23"/>
</g>
<!-- Node7 -->
<g id="node7" class="node">
<title>Node7</title>
<g id="a_node7"><a xlink:href="../../d6/db8/classnap_1_1_r_g_b_a_color.html" target="_top" xlink:title=" ">
<polygon fill="white" stroke="black" points="243,-67.5 243,-86.5 357,-86.5 357,-67.5 243,-67.5"/>
<text text-anchor="middle" x="300" y="-74.5" font-family="Helvetica,sans-Serif" font-size="10.00">RGBAColor&lt; float &gt;</text>
</a>
</g>
</g>
<!-- Node7&#45;&gt;Node1 -->
<g id="edge6" class="edge">
<title>Node7&#45;&gt;Node1</title>
<path fill="none" stroke="#9a32cd" stroke-dasharray="5,2" d="M275.32,-62.29C252.13,-49.4 218.14,-30.52 198.53,-19.63"/>
<polygon fill="#9a32cd" stroke="#9a32cd" points="273.78,-65.44 284.22,-67.23 277.18,-59.32 273.78,-65.44"/>
<text text-anchor="middle" x="281" y="-41" font-family="Helvetica,sans-Serif" font-size="10.00"> mClearColor</text>
</g>
<!-- Node8 -->
<g id="node8" class="node">
<title>Node8</title>
<g id="a_node8"><a xlink:href="../../d6/d3d/classnap_1_1_color.html" target="_top" xlink:title=" ">
<polygon fill="white" stroke="black" points="251,-140 251,-159 349,-159 349,-140 251,-140"/>
<text text-anchor="middle" x="300" y="-147" font-family="Helvetica,sans-Serif" font-size="10.00">Color&lt; float, 4 &gt;</text>
</a>
</g>
</g>
<!-- Node8&#45;&gt;Node7 -->
<g id="edge7" class="edge">
<title>Node8&#45;&gt;Node7</title>
<path fill="none" stroke="midnightblue" d="M300,-129.44C300,-115.53 300,-97.32 300,-86.72"/>
<polygon fill="midnightblue" stroke="midnightblue" points="296.5,-129.86 300,-139.86 303.5,-129.86 296.5,-129.86"/>
</g>
<!-- Node9 -->
<g id="node9" class="node">
<title>Node9</title>
<g id="a_node9"><a xlink:href="../../d8/d6a/classnap_1_1_base_color.html" target="_top" xlink:title=" ">
<polygon fill="white" stroke="black" points="267,-202.5 267,-221.5 333,-221.5 333,-202.5 267,-202.5"/>
<text text-anchor="middle" x="300" y="-209.5" font-family="Helvetica,sans-Serif" font-size="10.00">BaseColor</text>
</a>
</g>
</g>
<!-- Node9&#45;&gt;Node8 -->
<g id="edge8" class="edge">
<title>Node9&#45;&gt;Node8</title>
<path fill="none" stroke="midnightblue" d="M300,-192C300,-181 300,-167.68 300,-159.15"/>
<polygon fill="midnightblue" stroke="midnightblue" points="296.5,-192.33 300,-202.33 303.5,-192.33 296.5,-192.33"/>
</g>
</g>
</svg>
