<?xml version="1.0" encoding="UTF-8" standalone="no"?>
<!DOCTYPE svg PUBLIC "-//W3C//DTD SVG 1.1//EN"
 "http://www.w3.org/Graphics/SVG/1.1/DTD/svg11.dtd">
<!-- Generated by graphviz version 2.48.0 (20210717.1556)
 -->
<!-- Title: RenderWindow Pages: 1 -->
<svg width="338pt" height="230pt"
 viewBox="0.00 0.00 337.50 230.00" xmlns="http://www.w3.org/2000/svg" xmlns:xlink="http://www.w3.org/1999/xlink">
<g id="graph0" class="graph" transform="scale(1 1) rotate(0) translate(4 226)">
<title>RenderWindow</title>
<polygon fill="white" stroke="transparent" points="-4,4 -4,-226 333.5,-226 333.5,4 -4,4"/>
<!-- Node5 -->
<g id="node1" class="node">
<title>Node5</title>
<polygon fill="#bfbfbf" stroke="black" points="129,-0.5 129,-19.5 211,-19.5 211,-0.5 129,-0.5"/>
<text text-anchor="middle" x="170" y="-7.5" font-family="Helvetica,sans-Serif" font-size="10.00">RenderWindow</text>
</g>
<!-- Node6 -->
<g id="node2" class="node">
<title>Node6</title>
<g id="a_node2"><a xlink:href="../../d0/dc5/classnap_1_1_window.html" target="_top" xlink:title="Window">
<polygon fill="white" stroke="black" points="62.5,-67.5 62.5,-86.5 113.5,-86.5 113.5,-67.5 62.5,-67.5"/>
<text text-anchor="middle" x="88" y="-74.5" font-family="Helvetica,sans-Serif" font-size="10.00">Window</text>
</a>
</g>
</g>
<!-- Node6&#45;&gt;Node5 -->
<g id="edge1" class="edge">
<title>Node6&#45;&gt;Node5</title>
<path fill="none" stroke="midnightblue" d="M107.28,-60.71C123.44,-47.91 145.92,-30.09 159.12,-19.63"/>
<polygon fill="midnightblue" stroke="midnightblue" points="104.72,-58.28 99.06,-67.23 109.07,-63.76 104.72,-58.28"/>
</g>
<!-- Node7 -->
<g id="node3" class="node">
<title>Node7</title>
<g id="a_node3"><a xlink:href="../../d9/dea/classnap_1_1_resource.html" target="_top" xlink:title="Resource">
<polygon fill="white" stroke="black" points="0,-140 0,-159 58,-159 58,-140 0,-140"/>
<text text-anchor="middle" x="29" y="-147" font-family="Helvetica,sans-Serif" font-size="10.00">Resource</text>
</a>
</g>
</g>
<!-- Node7&#45;&gt;Node6 -->
<g id="edge2" class="edge">
<title>Node7&#45;&gt;Node6</title>
<path fill="none" stroke="midnightblue" d="M42.89,-131.9C54.74,-117.74 71.3,-97.96 80.71,-86.72"/>
<polygon fill="midnightblue" stroke="midnightblue" points="39.97,-129.94 36.23,-139.86 45.34,-134.43 39.97,-129.94"/>
</g>
<!-- Node8 -->
<g id="node4" class="node">
<title>Node8</title>
<g id="a_node4"><a xlink:href="../../de/d01/classnap_1_1rtti_1_1_object.html" target="_top" xlink:title="Object">
<polygon fill="white" stroke="black" points="6.5,-202.5 6.5,-221.5 51.5,-221.5 51.5,-202.5 6.5,-202.5"/>
<text text-anchor="middle" x="29" y="-209.5" font-family="Helvetica,sans-Serif" font-size="10.00">Object</text>
</a>
</g>
</g>
<!-- Node8&#45;&gt;Node7 -->
<g id="edge3" class="edge">
<title>Node8&#45;&gt;Node7</title>
<path fill="none" stroke="midnightblue" d="M29,-192C29,-181 29,-167.68 29,-159.15"/>
<polygon fill="midnightblue" stroke="midnightblue" points="25.5,-192.33 29,-202.33 32.5,-192.33 25.5,-192.33"/>
</g>
<!-- Node9 -->
<g id="node5" class="node">
<title>Node9</title>
<g id="a_node5"><a xlink:href="../../de/d80/classnap_1_1_signal.html" target="_top" xlink:title="Signal\&lt; const nap::\lWindowEvent &amp;\&gt;">
<polygon fill="white" stroke="black" points="76.5,-134.5 76.5,-164.5 177.5,-164.5 177.5,-134.5 76.5,-134.5"/>
<text text-anchor="start" x="84.5" y="-152.5" font-family="Helvetica,sans-Serif" font-size="10.00">Signal&lt; const nap::</text>
<text text-anchor="middle" x="127" y="-141.5" font-family="Helvetica,sans-Serif" font-size="10.00">WindowEvent &amp;&gt;</text>
</a>
</g>
</g>
<!-- Node9&#45;&gt;Node6 -->
<g id="edge4" class="edge">
<title>Node9&#45;&gt;Node6</title>
<path fill="none" stroke="#9a32cd" stroke-dasharray="5,2" d="M114.14,-125.24C106.87,-112.12 98.22,-96.48 92.92,-86.89"/>
<polygon fill="#9a32cd" stroke="#9a32cd" points="111.2,-127.18 119.11,-134.23 117.33,-123.79 111.2,-127.18"/>
<text text-anchor="middle" x="144" y="-108" font-family="Helvetica,sans-Serif" font-size="10.00"> mWindowEvent</text>
</g>
<!-- Node10 -->
<g id="node6" class="node">
<title>Node10</title>
<g id="a_node6"><a xlink:href="../../d7/da9/classnap_1_1_i_render_target.html" target="_top" xlink:title="IRenderTarget">
<polygon fill="white" stroke="black" points="131.5,-67.5 131.5,-86.5 208.5,-86.5 208.5,-67.5 131.5,-67.5"/>
<text text-anchor="middle" x="170" y="-74.5" font-family="Helvetica,sans-Serif" font-size="10.00">IRenderTarget</text>
</a>
</g>
</g>
<!-- Node10&#45;&gt;Node5 -->
<g id="edge5" class="edge">
<title>Node10&#45;&gt;Node5</title>
<path fill="none" stroke="midnightblue" d="M170,-57.04C170,-44.67 170,-29.12 170,-19.63"/>
<polygon fill="midnightblue" stroke="midnightblue" points="166.5,-57.23 170,-67.23 173.5,-57.23 166.5,-57.23"/>
</g>
<!-- Node11 -->
<g id="node7" class="node">
<title>Node11</title>
<g id="a_node7"><a xlink:href="../../d6/db8/classnap_1_1_r_g_b_a_color.html" target="_top" xlink:title="RGBAColor\&lt; float \&gt;">
<polygon fill="white" stroke="black" points="226.5,-67.5 226.5,-86.5 329.5,-86.5 329.5,-67.5 226.5,-67.5"/>
<text text-anchor="middle" x="278" y="-74.5" font-family="Helvetica,sans-Serif" font-size="10.00">RGBAColor&lt; float &gt;</text>
</a>
</g>
</g>
<!-- Node11&#45;&gt;Node5 -->
<g id="edge6" class="edge">
<title>Node11&#45;&gt;Node5</title>
<path fill="none" stroke="#9a32cd" stroke-dasharray="5,2" d="M254.64,-61.94C233.25,-49.07 202.28,-30.43 184.33,-19.63"/>
<polygon fill="#9a32cd" stroke="#9a32cd" points="253.06,-65.08 263.43,-67.23 256.67,-59.08 253.06,-65.08"/>
<text text-anchor="middle" x="259.5" y="-41" font-family="Helvetica,sans-Serif" font-size="10.00"> mClearColor</text>
</g>
<!-- Node12 -->
<g id="node8" class="node">
<title>Node12</title>
<g id="a_node8"><a xlink:href="../../d6/d3d/classnap_1_1_color.html" target="_top" xlink:title="Color\&lt; float, 4 \&gt;">
<polygon fill="white" stroke="black" points="235,-140 235,-159 321,-159 321,-140 235,-140"/>
<text text-anchor="middle" x="278" y="-147" font-family="Helvetica,sans-Serif" font-size="10.00">Color&lt; float, 4 &gt;</text>
</a>
</g>
</g>
<!-- Node12&#45;&gt;Node11 -->
<g id="edge7" class="edge">
<title>Node12&#45;&gt;Node11</title>
<path fill="none" stroke="midnightblue" d="M278,-129.44C278,-115.53 278,-97.32 278,-86.72"/>
<polygon fill="midnightblue" stroke="midnightblue" points="274.5,-129.86 278,-139.86 281.5,-129.86 274.5,-129.86"/>
</g>
<!-- Node13 -->
<g id="node9" class="node">
<title>Node13</title>
<g id="a_node9"><a xlink:href="../../d8/d6a/classnap_1_1_base_color.html" target="_top" xlink:title="BaseColor">
<polygon fill="white" stroke="black" points="247,-202.5 247,-221.5 309,-221.5 309,-202.5 247,-202.5"/>
<text text-anchor="middle" x="278" y="-209.5" font-family="Helvetica,sans-Serif" font-size="10.00">BaseColor</text>
</a>
</g>
</g>
<!-- Node13&#45;&gt;Node12 -->
<g id="edge8" class="edge">
<title>Node13&#45;&gt;Node12</title>
<path fill="none" stroke="midnightblue" d="M278,-192C278,-181 278,-167.68 278,-159.15"/>
<polygon fill="midnightblue" stroke="midnightblue" points="274.5,-192.33 278,-202.33 281.5,-192.33 274.5,-192.33"/>
</g>
</g>
</svg>
