<?xml version="1.0" encoding="UTF-8" standalone="no"?>
<!DOCTYPE svg PUBLIC "-//W3C//DTD SVG 1.1//EN"
 "http://www.w3.org/Graphics/SVG/1.1/DTD/svg11.dtd">
<!-- Generated by graphviz version 3.0.0 (20220226.1711)
 -->
<!-- Title: ComponentPtrInstancePropertyValue Pages: 1 -->
<svg width="252pt" height="174pt"
 viewBox="0.00 0.00 251.50 174.00" xmlns="http://www.w3.org/2000/svg" xmlns:xlink="http://www.w3.org/1999/xlink">
<g id="graph0" class="graph" transform="scale(1 1) rotate(0) translate(4 170)">
<title>ComponentPtrInstancePropertyValue</title>
<polygon fill="white" stroke="transparent" points="-4,4 -4,-170 247.5,-170 247.5,4 -4,4"/>
<!-- Node3 -->
<g id="node1" class="node">
<title>Node3</title>
<polygon fill="#bfbfbf" stroke="black" points="46.5,-0.5 46.5,-30.5 198.5,-30.5 198.5,-0.5 46.5,-0.5"/>
<text text-anchor="start" x="54.5" y="-18.5" font-family="Helvetica,sans-Serif" font-size="10.00">ComponentPtrInstanceProperty</text>
<text text-anchor="middle" x="122.5" y="-7.5" font-family="Helvetica,sans-Serif" font-size="10.00">Value</text>
</g>
<!-- Node4 -->
<g id="node2" class="node">
<title>Node4</title>
<g id="a_node2"><a xlink:href="../../d8/d81/classnap_1_1_instance_property_value.html" target="_top" xlink:title="InstancePropertyValue">
<polygon fill="white" stroke="black" points="0,-84 0,-103 115,-103 115,-84 0,-84"/>
<text text-anchor="middle" x="57.5" y="-91" font-family="Helvetica,sans-Serif" font-size="10.00">InstancePropertyValue</text>
</a>
</g>
</g>
<!-- Node4&#45;&gt;Node3 -->
<g id="edge1" class="edge">
<title>Node4&#45;&gt;Node3</title>
<path fill="none" stroke="midnightblue" d="M71.49,-76.14C83.12,-62.55 99.48,-43.42 110.51,-30.52"/>
<polygon fill="midnightblue" stroke="midnightblue" points="68.8,-73.91 64.96,-83.78 74.12,-78.46 68.8,-73.91"/>
</g>
<!-- Node5 -->
<g id="node3" class="node">
<title>Node5</title>
<g id="a_node3"><a xlink:href="../../de/d01/classnap_1_1rtti_1_1_object.html" target="_top" xlink:title="Object">
<polygon fill="white" stroke="black" points="35,-146.5 35,-165.5 80,-165.5 80,-146.5 35,-146.5"/>
<text text-anchor="middle" x="57.5" y="-153.5" font-family="Helvetica,sans-Serif" font-size="10.00">Object</text>
</a>
</g>
</g>
<!-- Node5&#45;&gt;Node4 -->
<g id="edge2" class="edge">
<title>Node5&#45;&gt;Node4</title>
<path fill="none" stroke="midnightblue" d="M57.5,-136C57.5,-125 57.5,-111.68 57.5,-103.15"/>
<polygon fill="midnightblue" stroke="midnightblue" points="54,-136.33 57.5,-146.33 61,-136.33 54,-136.33"/>
</g>
<!-- Node6 -->
<g id="node4" class="node">
<title>Node6</title>
<g id="a_node4"><a xlink:href="../../d1/dcd/classnap_1_1_component_ptr.html" target="_top" xlink:title="ComponentPtr\&lt; nap::\lComponent \&gt;">
<polygon fill="white" stroke="black" points="133.5,-78.5 133.5,-108.5 243.5,-108.5 243.5,-78.5 133.5,-78.5"/>
<text text-anchor="start" x="141.5" y="-96.5" font-family="Helvetica,sans-Serif" font-size="10.00">ComponentPtr&lt; nap::</text>
<text text-anchor="middle" x="188.5" y="-85.5" font-family="Helvetica,sans-Serif" font-size="10.00">Component &gt;</text>
</a>
</g>
</g>
<!-- Node6&#45;&gt;Node3 -->
<g id="edge3" class="edge">
<title>Node6&#45;&gt;Node3</title>
<path fill="none" stroke="#9a32cd" stroke-dasharray="5,2" d="M169.23,-70.31C158.13,-57.53 144.52,-41.86 134.86,-30.73"/>
<polygon fill="#9a32cd" stroke="#9a32cd" points="166.89,-72.95 176.09,-78.2 172.17,-68.36 166.89,-72.95"/>
<text text-anchor="middle" x="178" y="-52" font-family="Helvetica,sans-Serif" font-size="10.00"> mValue</text>
</g>
<!-- Node7 -->
<g id="node5" class="node">
<title>Node7</title>
<g id="a_node5"><a xlink:href="../../da/d10/classnap_1_1_component_ptr_base.html" target="_top" xlink:title="ComponentPtrBase">
<polygon fill="white" stroke="black" points="138,-146.5 138,-165.5 239,-165.5 239,-146.5 138,-146.5"/>
<text text-anchor="middle" x="188.5" y="-153.5" font-family="Helvetica,sans-Serif" font-size="10.00">ComponentPtrBase</text>
</a>
</g>
</g>
<!-- Node7&#45;&gt;Node6 -->
<g id="edge4" class="edge">
<title>Node7&#45;&gt;Node6</title>
<path fill="none" stroke="midnightblue" d="M188.5,-136.22C188.5,-127.36 188.5,-116.96 188.5,-108.76"/>
<polygon fill="midnightblue" stroke="midnightblue" points="185,-136.33 188.5,-146.33 192,-136.33 185,-136.33"/>
</g>
</g>
</svg>
