<?xml version="1.0" encoding="UTF-8" standalone="no"?>
<!DOCTYPE svg PUBLIC "-//W3C//DTD SVG 1.1//EN"
 "http://www.w3.org/Graphics/SVG/1.1/DTD/svg11.dtd">
<!-- Generated by graphviz version 3.0.0 (20220226.1711)
 -->
<!-- Title: OSCReceiver Pages: 1 -->
<svg width="82pt" height="196pt"
 viewBox="0.00 0.00 82.00 196.00" xmlns="http://www.w3.org/2000/svg" xmlns:xlink="http://www.w3.org/1999/xlink">
<g id="graph0" class="graph" transform="scale(1 1) rotate(0) translate(4 192)">
<title>OSCReceiver</title>
<polygon fill="white" stroke="transparent" points="-4,4 -4,-192 78,-192 78,4 -4,4"/>
<!-- Node4 -->
<g id="node1" class="node">
<title>Node4</title>
<polygon fill="#bfbfbf" stroke="black" points="0,-0.5 0,-19.5 74,-19.5 74,-0.5 0,-0.5"/>
<text text-anchor="middle" x="37" y="-7.5" font-family="Helvetica,sans-Serif" font-size="10.00">OSCReceiver</text>
</g>
<!-- Node5 -->
<g id="node2" class="node">
<title>Node5</title>
<g id="a_node2"><a xlink:href="../../d3/dc5/classnap_1_1_device.html" target="_top" xlink:title="Device">
<polygon fill="white" stroke="black" points="14.5,-56.5 14.5,-75.5 59.5,-75.5 59.5,-56.5 14.5,-56.5"/>
<text text-anchor="middle" x="37" y="-63.5" font-family="Helvetica,sans-Serif" font-size="10.00">Device</text>
</a>
</g>
</g>
<!-- Node5&#45;&gt;Node4 -->
<g id="edge1" class="edge">
<title>Node5&#45;&gt;Node4</title>
<path fill="none" stroke="midnightblue" d="M37,-45.8C37,-36.91 37,-26.78 37,-19.75"/>
<polygon fill="midnightblue" stroke="midnightblue" points="33.5,-46.08 37,-56.08 40.5,-46.08 33.5,-46.08"/>
</g>
<!-- Node6 -->
<g id="node3" class="node">
<title>Node6</title>
<g id="a_node3"><a xlink:href="../../d9/dea/classnap_1_1_resource.html" target="_top" xlink:title="Resource">
<polygon fill="white" stroke="black" points="8,-112.5 8,-131.5 66,-131.5 66,-112.5 8,-112.5"/>
<text text-anchor="middle" x="37" y="-119.5" font-family="Helvetica,sans-Serif" font-size="10.00">Resource</text>
</a>
</g>
</g>
<!-- Node6&#45;&gt;Node5 -->
<g id="edge2" class="edge">
<title>Node6&#45;&gt;Node5</title>
<path fill="none" stroke="midnightblue" d="M37,-101.8C37,-92.91 37,-82.78 37,-75.75"/>
<polygon fill="midnightblue" stroke="midnightblue" points="33.5,-102.08 37,-112.08 40.5,-102.08 33.5,-102.08"/>
</g>
<!-- Node7 -->
<g id="node4" class="node">
<title>Node7</title>
<g id="a_node4"><a xlink:href="../../de/d01/classnap_1_1rtti_1_1_object.html" target="_top" xlink:title="Object">
<polygon fill="white" stroke="black" points="14.5,-168.5 14.5,-187.5 59.5,-187.5 59.5,-168.5 14.5,-168.5"/>
<text text-anchor="middle" x="37" y="-175.5" font-family="Helvetica,sans-Serif" font-size="10.00">Object</text>
</a>
</g>
</g>
<!-- Node7&#45;&gt;Node6 -->
<g id="edge3" class="edge">
<title>Node7&#45;&gt;Node6</title>
<path fill="none" stroke="midnightblue" d="M37,-157.8C37,-148.91 37,-138.78 37,-131.75"/>
<polygon fill="midnightblue" stroke="midnightblue" points="33.5,-158.08 37,-168.08 40.5,-158.08 33.5,-158.08"/>
</g>
</g>
</svg>
