<?xml version="1.0" encoding="UTF-8" standalone="no"?>
<!DOCTYPE svg PUBLIC "-//W3C//DTD SVG 1.1//EN"
 "http://www.w3.org/Graphics/SVG/1.1/DTD/svg11.dtd">
<!-- Generated by graphviz version 2.48.0 (20210717.1556)
 -->
<!-- Title: UniformContainer Pages: 1 -->
<svg width="420pt" height="140pt"
 viewBox="0.00 0.00 420.00 140.00" xmlns="http://www.w3.org/2000/svg" xmlns:xlink="http://www.w3.org/1999/xlink">
<g id="graph0" class="graph" transform="scale(1 1) rotate(0) translate(4 136)">
<title>UniformContainer</title>
<polygon fill="white" stroke="transparent" points="-4,4 -4,-136 416,-136 416,4 -4,4"/>
<!-- Node0 -->
<g id="node1" class="node">
<title>Node0</title>
<polygon fill="#bfbfbf" stroke="black" points="142.5,-112.5 142.5,-131.5 233.5,-131.5 233.5,-112.5 142.5,-112.5"/>
<text text-anchor="middle" x="188" y="-119.5" font-family="Helvetica,sans-Serif" font-size="10.00">UniformContainer</text>
</g>
<!-- Node1 -->
<g id="node2" class="node">
<title>Node1</title>
<g id="a_node2"><a xlink:href="../../da/d69/classnap_1_1_base_material.html" target="_top" xlink:title="BaseMaterial">
<polygon fill="white" stroke="black" points="96,-56.5 96,-75.5 170,-75.5 170,-56.5 96,-56.5"/>
<text text-anchor="middle" x="133" y="-63.5" font-family="Helvetica,sans-Serif" font-size="10.00">BaseMaterial</text>
</a>
</g>
</g>
<!-- Node0&#45;&gt;Node1 -->
<g id="edge1" class="edge">
<title>Node0&#45;&gt;Node1</title>
<path fill="none" stroke="midnightblue" d="M171.71,-105C161.96,-95.43 149.95,-83.64 141.91,-75.75"/>
<polygon fill="midnightblue" stroke="midnightblue" points="169.33,-107.57 178.92,-112.08 174.23,-102.58 169.33,-107.57"/>
</g>
<!-- Node4 -->
<g id="node5" class="node">
<title>Node4</title>
<g id="a_node5"><a xlink:href="../../d4/d2c/classnap_1_1_base_material_instance.html" target="_top" xlink:title="BaseMaterialInstance">
<polygon fill="white" stroke="black" points="188,-56.5 188,-75.5 298,-75.5 298,-56.5 188,-56.5"/>
<text text-anchor="middle" x="243" y="-63.5" font-family="Helvetica,sans-Serif" font-size="10.00">BaseMaterialInstance</text>
</a>
</g>
</g>
<!-- Node0&#45;&gt;Node4 -->
<g id="edge4" class="edge">
<title>Node0&#45;&gt;Node4</title>
<path fill="none" stroke="midnightblue" d="M204.29,-105C214.04,-95.43 226.05,-83.64 234.09,-75.75"/>
<polygon fill="midnightblue" stroke="midnightblue" points="201.77,-102.58 197.08,-112.08 206.67,-107.57 201.77,-102.58"/>
</g>
<!-- Node2 -->
<g id="node3" class="node">
<title>Node2</title>
<g id="a_node3"><a xlink:href="../../de/d68/classnap_1_1_compute_material.html" target="_top" xlink:title="ComputeMaterial">
<polygon fill="white" stroke="black" points="0,-0.5 0,-19.5 90,-19.5 90,-0.5 0,-0.5"/>
<text text-anchor="middle" x="45" y="-7.5" font-family="Helvetica,sans-Serif" font-size="10.00">ComputeMaterial</text>
</a>
</g>
</g>
<!-- Node1&#45;&gt;Node2 -->
<g id="edge2" class="edge">
<title>Node1&#45;&gt;Node2</title>
<path fill="none" stroke="midnightblue" d="M110.02,-50.9C93.89,-41 72.82,-28.07 59.1,-19.65"/>
<polygon fill="midnightblue" stroke="midnightblue" points="108.51,-54.08 118.86,-56.32 112.17,-48.11 108.51,-54.08"/>
</g>
<!-- Node3 -->
<g id="node4" class="node">
<title>Node3</title>
<g id="a_node4"><a xlink:href="../../d2/de3/classnap_1_1_material.html" target="_top" xlink:title="Material">
<polygon fill="white" stroke="black" points="108.5,-0.5 108.5,-19.5 159.5,-19.5 159.5,-0.5 108.5,-0.5"/>
<text text-anchor="middle" x="134" y="-7.5" font-family="Helvetica,sans-Serif" font-size="10.00">Material</text>
</a>
</g>
</g>
<!-- Node1&#45;&gt;Node3 -->
<g id="edge3" class="edge">
<title>Node1&#45;&gt;Node3</title>
<path fill="none" stroke="midnightblue" d="M133.36,-45.8C133.52,-36.91 133.71,-26.78 133.84,-19.75"/>
<polygon fill="midnightblue" stroke="midnightblue" points="129.85,-46.02 133.17,-56.08 136.85,-46.15 129.85,-46.02"/>
</g>
<!-- Node5 -->
<g id="node6" class="node">
<title>Node5</title>
<g id="a_node6"><a xlink:href="../../db/db6/classnap_1_1_compute_material_instance.html" target="_top" xlink:title="ComputeMaterialInstance">
<polygon fill="white" stroke="black" points="178.5,-0.5 178.5,-19.5 305.5,-19.5 305.5,-0.5 178.5,-0.5"/>
<text text-anchor="middle" x="242" y="-7.5" font-family="Helvetica,sans-Serif" font-size="10.00">ComputeMaterialInstance</text>
</a>
</g>
</g>
<!-- Node4&#45;&gt;Node5 -->
<g id="edge5" class="edge">
<title>Node4&#45;&gt;Node5</title>
<path fill="none" stroke="midnightblue" d="M242.64,-45.8C242.48,-36.91 242.29,-26.78 242.16,-19.75"/>
<polygon fill="midnightblue" stroke="midnightblue" points="239.15,-46.15 242.83,-56.08 246.15,-46.02 239.15,-46.15"/>
</g>
<!-- Node6 -->
<g id="node7" class="node">
<title>Node6</title>
<g id="a_node7"><a xlink:href="../../d0/daa/classnap_1_1_material_instance.html" target="_top" xlink:title="MaterialInstance">
<polygon fill="white" stroke="black" points="324,-0.5 324,-19.5 412,-19.5 412,-0.5 324,-0.5"/>
<text text-anchor="middle" x="368" y="-7.5" font-family="Helvetica,sans-Serif" font-size="10.00">MaterialInstance</text>
</a>
</g>
</g>
<!-- Node4&#45;&gt;Node6 -->
<g id="edge6" class="edge">
<title>Node4&#45;&gt;Node6</title>
<path fill="none" stroke="midnightblue" d="M272.24,-52.37C295.65,-42.26 327.84,-28.35 348.29,-19.52"/>
<polygon fill="midnightblue" stroke="midnightblue" points="270.6,-49.26 262.81,-56.44 273.37,-55.69 270.6,-49.26"/>
</g>
</g>
</svg>
