<?xml version="1.0" encoding="UTF-8" standalone="no"?>
<!DOCTYPE svg PUBLIC "-//W3C//DTD SVG 1.1//EN"
 "http://www.w3.org/Graphics/SVG/1.1/DTD/svg11.dtd">
<!-- Generated by graphviz version 2.43.0 (0)
 -->
<!-- Title: UniformContainer Pages: 1 -->
<svg width="463pt" height="140pt"
 viewBox="0.00 0.00 462.50 140.00" xmlns="http://www.w3.org/2000/svg" xmlns:xlink="http://www.w3.org/1999/xlink">
<g id="graph0" class="graph" transform="scale(1 1) rotate(0) translate(4 136)">
<title>UniformContainer</title>
<polygon fill="white" stroke="transparent" points="-4,4 -4,-136 458.5,-136 458.5,4 -4,4"/>
<!-- Node1 -->
<g id="node1" class="node">
<title>Node1</title>
<g id="a_node1"><a xlink:title=" ">
<polygon fill="#bfbfbf" stroke="black" points="154.5,-112.5 154.5,-131.5 258.5,-131.5 258.5,-112.5 154.5,-112.5"/>
<text text-anchor="middle" x="206.5" y="-119.5" font-family="Helvetica,sans-Serif" font-size="10.00">UniformContainer</text>
</a>
</g>
</g>
<!-- Node2 -->
<g id="node2" class="node">
<title>Node2</title>
<g id="a_node2"><a xlink:href="../../da/d69/classnap_1_1_base_material.html" target="_top" xlink:title=" ">
<polygon fill="white" stroke="black" points="106,-56.5 106,-75.5 187,-75.5 187,-56.5 106,-56.5"/>
<text text-anchor="middle" x="146.5" y="-63.5" font-family="Helvetica,sans-Serif" font-size="10.00">BaseMaterial</text>
</a>
</g>
</g>
<!-- Node1&#45;&gt;Node2 -->
<g id="edge1" class="edge">
<title>Node1&#45;&gt;Node2</title>
<path fill="none" stroke="midnightblue" d="M189.32,-105.54C178.62,-95.91 165.24,-83.87 156.32,-75.83"/>
<polygon fill="midnightblue" stroke="midnightblue" points="187.09,-108.24 196.86,-112.32 191.77,-103.03 187.09,-108.24"/>
</g>
<!-- Node5 -->
<g id="node5" class="node">
<title>Node5</title>
<g id="a_node5"><a xlink:href="../../d4/d2c/classnap_1_1_base_material_instance.html" target="_top" xlink:title=" ">
<polygon fill="white" stroke="black" points="205.5,-56.5 205.5,-75.5 327.5,-75.5 327.5,-56.5 205.5,-56.5"/>
<text text-anchor="middle" x="266.5" y="-63.5" font-family="Helvetica,sans-Serif" font-size="10.00">BaseMaterialInstance</text>
</a>
</g>
</g>
<!-- Node1&#45;&gt;Node5 -->
<g id="edge4" class="edge">
<title>Node1&#45;&gt;Node5</title>
<path fill="none" stroke="midnightblue" d="M223.68,-105.54C234.38,-95.91 247.76,-83.87 256.68,-75.83"/>
<polygon fill="midnightblue" stroke="midnightblue" points="221.23,-103.03 216.14,-112.32 225.91,-108.24 221.23,-103.03"/>
</g>
<!-- Node3 -->
<g id="node3" class="node">
<title>Node3</title>
<g id="a_node3"><a xlink:href="../../de/d68/classnap_1_1_compute_material.html" target="_top" xlink:title=" ">
<polygon fill="white" stroke="black" points="0,-0.5 0,-19.5 101,-19.5 101,-0.5 0,-0.5"/>
<text text-anchor="middle" x="50.5" y="-7.5" font-family="Helvetica,sans-Serif" font-size="10.00">ComputeMaterial</text>
</a>
</g>
</g>
<!-- Node2&#45;&gt;Node3 -->
<g id="edge2" class="edge">
<title>Node2&#45;&gt;Node3</title>
<path fill="none" stroke="midnightblue" d="M121.93,-51.18C104.26,-41.24 80.99,-28.15 65.89,-19.65"/>
<polygon fill="midnightblue" stroke="midnightblue" points="120.64,-54.47 131.08,-56.32 124.08,-48.37 120.64,-54.47"/>
</g>
<!-- Node4 -->
<g id="node4" class="node">
<title>Node4</title>
<g id="a_node4"><a xlink:href="../../d2/de3/classnap_1_1_material.html" target="_top" xlink:title=" ">
<polygon fill="white" stroke="black" points="119,-0.5 119,-19.5 176,-19.5 176,-0.5 119,-0.5"/>
<text text-anchor="middle" x="147.5" y="-7.5" font-family="Helvetica,sans-Serif" font-size="10.00">Material</text>
</a>
</g>
</g>
<!-- Node2&#45;&gt;Node4 -->
<g id="edge3" class="edge">
<title>Node2&#45;&gt;Node4</title>
<path fill="none" stroke="midnightblue" d="M146.86,-45.8C147.02,-36.91 147.21,-26.78 147.34,-19.75"/>
<polygon fill="midnightblue" stroke="midnightblue" points="143.35,-46.02 146.67,-56.08 150.35,-46.15 143.35,-46.02"/>
</g>
<!-- Node6 -->
<g id="node6" class="node">
<title>Node6</title>
<g id="a_node6"><a xlink:href="../../db/db6/classnap_1_1_compute_material_instance.html" target="_top" xlink:title=" ">
<polygon fill="white" stroke="black" points="195,-0.5 195,-19.5 338,-19.5 338,-0.5 195,-0.5"/>
<text text-anchor="middle" x="266.5" y="-7.5" font-family="Helvetica,sans-Serif" font-size="10.00">ComputeMaterialInstance</text>
</a>
</g>
</g>
<!-- Node5&#45;&gt;Node6 -->
<g id="edge5" class="edge">
<title>Node5&#45;&gt;Node6</title>
<path fill="none" stroke="midnightblue" d="M266.5,-45.8C266.5,-36.91 266.5,-26.78 266.5,-19.75"/>
<polygon fill="midnightblue" stroke="midnightblue" points="263,-46.08 266.5,-56.08 270,-46.08 263,-46.08"/>
</g>
<!-- Node7 -->
<g id="node7" class="node">
<title>Node7</title>
<g id="a_node7"><a xlink:href="../../d0/daa/classnap_1_1_material_instance.html" target="_top" xlink:title=" ">
<polygon fill="white" stroke="black" points="356.5,-0.5 356.5,-19.5 454.5,-19.5 454.5,-0.5 356.5,-0.5"/>
<text text-anchor="middle" x="405.5" y="-7.5" font-family="Helvetica,sans-Serif" font-size="10.00">MaterialInstance</text>
</a>
</g>
</g>
<!-- Node5&#45;&gt;Node7 -->
<g id="edge6" class="edge">
<title>Node5&#45;&gt;Node7</title>
<path fill="none" stroke="midnightblue" d="M297.98,-52.77C324.09,-42.63 360.54,-28.47 383.58,-19.52"/>
<polygon fill="midnightblue" stroke="midnightblue" points="296.58,-49.56 288.52,-56.44 299.11,-56.08 296.58,-49.56"/>
</g>
</g>
</svg>
