<?xml version="1.0" encoding="UTF-8" standalone="no"?>
<!DOCTYPE svg PUBLIC "-//W3C//DTD SVG 1.1//EN"
 "http://www.w3.org/Graphics/SVG/1.1/DTD/svg11.dtd">
<!-- Generated by graphviz version 2.48.0 (20210717.1556)
 -->
<!-- Title: PortalItemTextArea Pages: 1 -->
<svg width="121pt" height="263pt"
 viewBox="0.00 0.00 121.00 263.00" xmlns="http://www.w3.org/2000/svg" xmlns:xlink="http://www.w3.org/1999/xlink">
<g id="graph0" class="graph" transform="scale(1 1) rotate(0) translate(4 259)">
<title>PortalItemTextArea</title>
<polygon fill="white" stroke="transparent" points="-4,4 -4,-259 117,-259 117,4 -4,4"/>
<!-- Node0 -->
<g id="node1" class="node">
<title>Node0</title>
<polygon fill="#bfbfbf" stroke="black" points="6.5,-0.5 6.5,-19.5 106.5,-19.5 106.5,-0.5 6.5,-0.5"/>
<text text-anchor="middle" x="56.5" y="-7.5" font-family="Helvetica,sans-Serif" font-size="10.00">PortalItemTextArea</text>
</g>
<!-- Node1 -->
<g id="node2" class="node">
<title>Node1</title>
<polygon fill="white" stroke="#bfbfbf" points="0,-56.5 0,-86.5 113,-86.5 113,-56.5 0,-56.5"/>
<text text-anchor="start" x="8" y="-74.5" font-family="Helvetica,sans-Serif" font-size="10.00">PortalItemSimple&lt; std</text>
<text text-anchor="middle" x="56.5" y="-63.5" font-family="Helvetica,sans-Serif" font-size="10.00">::string &gt;</text>
</g>
<!-- Node1&#45;&gt;Node0 -->
<g id="edge1" class="edge">
<title>Node1&#45;&gt;Node0</title>
<path fill="none" stroke="midnightblue" d="M56.5,-46.29C56.5,-36.86 56.5,-26.65 56.5,-19.66"/>
<polygon fill="midnightblue" stroke="midnightblue" points="53,-46.4 56.5,-56.4 60,-46.4 53,-46.4"/>
</g>
<!-- Node2 -->
<g id="node3" class="node">
<title>Node2</title>
<g id="a_node3"><a xlink:href="../../da/d65/classnap_1_1_portal_item.html" target="_top" xlink:title="PortalItem">
<polygon fill="white" stroke="black" points="26,-123.5 26,-142.5 87,-142.5 87,-123.5 26,-123.5"/>
<text text-anchor="middle" x="56.5" y="-130.5" font-family="Helvetica,sans-Serif" font-size="10.00">PortalItem</text>
</a>
</g>
</g>
<!-- Node2&#45;&gt;Node1 -->
<g id="edge2" class="edge">
<title>Node2&#45;&gt;Node1</title>
<path fill="none" stroke="midnightblue" d="M56.5,-113.23C56.5,-104.59 56.5,-94.5 56.5,-86.52"/>
<polygon fill="midnightblue" stroke="midnightblue" points="53,-113.48 56.5,-123.48 60,-113.48 53,-113.48"/>
</g>
<!-- Node3 -->
<g id="node4" class="node">
<title>Node3</title>
<g id="a_node4"><a xlink:href="../../d9/dea/classnap_1_1_resource.html" target="_top" xlink:title="Resource">
<polygon fill="white" stroke="black" points="27.5,-179.5 27.5,-198.5 85.5,-198.5 85.5,-179.5 27.5,-179.5"/>
<text text-anchor="middle" x="56.5" y="-186.5" font-family="Helvetica,sans-Serif" font-size="10.00">Resource</text>
</a>
</g>
</g>
<!-- Node3&#45;&gt;Node2 -->
<g id="edge3" class="edge">
<title>Node3&#45;&gt;Node2</title>
<path fill="none" stroke="midnightblue" d="M56.5,-168.8C56.5,-159.91 56.5,-149.78 56.5,-142.75"/>
<polygon fill="midnightblue" stroke="midnightblue" points="53,-169.08 56.5,-179.08 60,-169.08 53,-169.08"/>
</g>
<!-- Node4 -->
<g id="node5" class="node">
<title>Node4</title>
<g id="a_node5"><a xlink:href="../../de/d01/classnap_1_1rtti_1_1_object.html" target="_top" xlink:title="Object">
<polygon fill="white" stroke="black" points="34,-235.5 34,-254.5 79,-254.5 79,-235.5 34,-235.5"/>
<text text-anchor="middle" x="56.5" y="-242.5" font-family="Helvetica,sans-Serif" font-size="10.00">Object</text>
</a>
</g>
</g>
<!-- Node4&#45;&gt;Node3 -->
<g id="edge4" class="edge">
<title>Node4&#45;&gt;Node3</title>
<path fill="none" stroke="midnightblue" d="M56.5,-224.8C56.5,-215.91 56.5,-205.78 56.5,-198.75"/>
<polygon fill="midnightblue" stroke="midnightblue" points="53,-225.08 56.5,-235.08 60,-225.08 53,-225.08"/>
</g>
</g>
</svg>
