<?xml version="1.0" encoding="UTF-8" standalone="no"?>
<!DOCTYPE svg PUBLIC "-//W3C//DTD SVG 1.1//EN"
 "http://www.w3.org/Graphics/SVG/1.1/DTD/svg11.dtd">
<!-- Generated by graphviz version 3.0.0 (20220226.1711)
 -->
<!-- Title: TweenHandleBase Pages: 1 -->
<svg width="177pt" height="162pt"
 viewBox="0.00 0.00 177.00 162.00" xmlns="http://www.w3.org/2000/svg" xmlns:xlink="http://www.w3.org/1999/xlink">
<g id="graph0" class="graph" transform="scale(1 1) rotate(0) translate(4 158)">
<title>TweenHandleBase</title>
<polygon fill="white" stroke="transparent" points="-4,4 -4,-158 173,-158 173,4 -4,4"/>
<!-- Node2 -->
<g id="node1" class="node">
<title>Node2</title>
<polygon fill="#bfbfbf" stroke="black" points="36.5,-0.5 36.5,-19.5 133.5,-19.5 133.5,-0.5 36.5,-0.5"/>
<text text-anchor="middle" x="85" y="-7.5" font-family="Helvetica,sans-Serif" font-size="10.00">TweenHandleBase</text>
</g>
<!-- Node3 -->
<g id="node2" class="node">
<title>Node3</title>
<g id="a_node2"><a xlink:href="../../d9/d00/classnap_1_1_tween_base.html" target="_top" xlink:title="TweenBase">
<polygon fill="white" stroke="black" points="7.5,-67.5 7.5,-86.5 74.5,-86.5 74.5,-67.5 7.5,-67.5"/>
<text text-anchor="middle" x="41" y="-74.5" font-family="Helvetica,sans-Serif" font-size="10.00">TweenBase</text>
</a>
</g>
</g>
<!-- Node3&#45;&gt;Node2 -->
<g id="edge1" class="edge">
<title>Node3&#45;&gt;Node2</title>
<path fill="none" stroke="#9a32cd" stroke-dasharray="5,2" d="M39.84,-57.19C40.23,-50.72 41.59,-43.68 45,-38 49.75,-30.1 57.8,-24 65.44,-19.62"/>
<polygon fill="#9a32cd" stroke="#9a32cd" points="36.34,-57.22 39.91,-67.2 43.34,-57.17 36.34,-57.22"/>
<text text-anchor="middle" x="76" y="-41" font-family="Helvetica,sans-Serif" font-size="10.00"> mTweenBase</text>
</g>
<!-- Node4 -->
<g id="node3" class="node">
<title>Node4</title>
<g id="a_node3"><a xlink:href="../../de/d80/classnap_1_1_signal.html" target="_top" xlink:title="Signal\&lt; Args \&gt;">
<polygon fill="white" stroke="black" points="0,-134.5 0,-153.5 82,-153.5 82,-134.5 0,-134.5"/>
<text text-anchor="middle" x="41" y="-141.5" font-family="Helvetica,sans-Serif" font-size="10.00">Signal&lt; Args &gt;</text>
</a>
</g>
</g>
<!-- Node4&#45;&gt;Node3 -->
<g id="edge2" class="edge">
<title>Node4&#45;&gt;Node3</title>
<path fill="none" stroke="#9a32cd" stroke-dasharray="5,2" d="M41,-124.04C41,-111.67 41,-96.12 41,-86.63"/>
<polygon fill="#9a32cd" stroke="#9a32cd" points="37.5,-124.23 41,-134.23 44.5,-124.23 37.5,-124.23"/>
<text text-anchor="middle" x="68.5" y="-108" font-family="Helvetica,sans-Serif" font-size="10.00"> KilledSignal</text>
</g>
<!-- Node5 -->
<g id="node4" class="node">
<title>Node5</title>
<g id="a_node4"><a xlink:href="../../d7/d05/classnap_1_1_tween_service.html" target="_top" xlink:title="TweenService">
<polygon fill="white" stroke="black" points="93,-67.5 93,-86.5 169,-86.5 169,-67.5 93,-67.5"/>
<text text-anchor="middle" x="131" y="-74.5" font-family="Helvetica,sans-Serif" font-size="10.00">TweenService</text>
</a>
</g>
</g>
<!-- Node5&#45;&gt;Node2 -->
<g id="edge3" class="edge">
<title>Node5&#45;&gt;Node2</title>
<path fill="none" stroke="#9a32cd" stroke-dasharray="5,2" d="M120.61,-58.59C116.54,-52.02 111.71,-44.55 107,-38 102.48,-31.72 96.98,-24.97 92.61,-19.79"/>
<polygon fill="#9a32cd" stroke="#9a32cd" points="117.76,-60.63 125.95,-67.36 123.74,-56.99 117.76,-60.63"/>
<text text-anchor="middle" x="135.5" y="-41" font-family="Helvetica,sans-Serif" font-size="10.00"> mService</text>
</g>
<!-- Node6 -->
<g id="node5" class="node">
<title>Node6</title>
<g id="a_node5"><a xlink:href="../../d8/d8e/classnap_1_1_service.html" target="_top" xlink:title="Service">
<polygon fill="white" stroke="black" points="107,-134.5 107,-153.5 155,-153.5 155,-134.5 107,-134.5"/>
<text text-anchor="middle" x="131" y="-141.5" font-family="Helvetica,sans-Serif" font-size="10.00">Service</text>
</a>
</g>
</g>
<!-- Node6&#45;&gt;Node5 -->
<g id="edge4" class="edge">
<title>Node6&#45;&gt;Node5</title>
<path fill="none" stroke="midnightblue" d="M131,-124.04C131,-111.67 131,-96.12 131,-86.63"/>
<polygon fill="midnightblue" stroke="midnightblue" points="127.5,-124.23 131,-134.23 134.5,-124.23 127.5,-124.23"/>
</g>
</g>
</svg>
