<?xml version="1.0" encoding="UTF-8" standalone="no"?>
<!DOCTYPE svg PUBLIC "-//W3C//DTD SVG 1.1//EN"
 "http://www.w3.org/Graphics/SVG/1.1/DTD/svg11.dtd">
<!-- Generated by graphviz version 2.43.0 (0)
 -->
<!-- Title: RenderableMeshComponentInstance Pages: 1 -->
<svg width="1489pt" height="355pt"
 viewBox="0.00 0.00 1489.00 355.39" xmlns="http://www.w3.org/2000/svg" xmlns:xlink="http://www.w3.org/1999/xlink">
<g id="graph0" class="graph" transform="scale(1 1) rotate(0) translate(4 351.39)">
<title>RenderableMeshComponentInstance</title>
<polygon fill="white" stroke="transparent" points="-4,4 -4,-351.39 1485,-351.39 1485,4 -4,4"/>
<!-- Node1 -->
<g id="node1" class="node">
<title>Node1</title>
<g id="a_node1"><a xlink:title=" ">
<polygon fill="#bfbfbf" stroke="black" points="1285,-217.5 1285,-236.5 1481,-236.5 1481,-217.5 1285,-217.5"/>
<text text-anchor="middle" x="1383" y="-224.5" font-family="Helvetica,sans-Serif" font-size="10.00">RenderableMeshComponentInstance</text>
</a>
</g>
</g>
<!-- Node2 -->
<g id="node2" class="node">
<title>Node2</title>
<g id="a_node2"><a xlink:href="../../dd/da0/classnap_1_1_renderable_component_instance.html" target="_top" xlink:title=" ">
<polygon fill="white" stroke="black" points="955,-281.5 955,-300.5 1125,-300.5 1125,-281.5 955,-281.5"/>
<text text-anchor="middle" x="1040" y="-288.5" font-family="Helvetica,sans-Serif" font-size="10.00">RenderableComponentInstance</text>
</a>
</g>
</g>
<!-- Node2&#45;&gt;Node1 -->
<g id="edge1" class="edge">
<title>Node2&#45;&gt;Node1</title>
<path fill="none" stroke="midnightblue" d="M1135.41,-285.82C1176.22,-282.34 1224.32,-276.56 1267,-267 1300,-259.61 1336.68,-245.83 1359.54,-236.54"/>
<polygon fill="midnightblue" stroke="midnightblue" points="1134.87,-282.35 1125.19,-286.66 1135.45,-289.33 1134.87,-282.35"/>
</g>
<!-- Node3 -->
<g id="node3" class="node">
<title>Node3</title>
<g id="a_node3"><a xlink:href="../../d9/df2/classnap_1_1_component_instance.html" target="_top" xlink:title=" ">
<polygon fill="white" stroke="black" points="709.5,-298.5 709.5,-317.5 823.5,-317.5 823.5,-298.5 709.5,-298.5"/>
<text text-anchor="middle" x="766.5" y="-305.5" font-family="Helvetica,sans-Serif" font-size="10.00">ComponentInstance</text>
</a>
</g>
</g>
<!-- Node3&#45;&gt;Node2 -->
<g id="edge2" class="edge">
<title>Node3&#45;&gt;Node2</title>
<path fill="none" stroke="midnightblue" d="M833.8,-303.85C870.3,-301.56 915.98,-298.7 954.97,-296.26"/>
<polygon fill="midnightblue" stroke="midnightblue" points="833.52,-300.36 823.75,-304.48 833.95,-307.35 833.52,-300.36"/>
</g>
<!-- Node8 -->
<g id="node8" class="node">
<title>Node8</title>
<g id="a_node8"><a xlink:href="../../d2/d51/classnap_1_1_transform_component_instance.html" target="_top" xlink:title=" ">
<polygon fill="white" stroke="black" points="958.5,-319.5 958.5,-338.5 1121.5,-338.5 1121.5,-319.5 958.5,-319.5"/>
<text text-anchor="middle" x="1040" y="-326.5" font-family="Helvetica,sans-Serif" font-size="10.00">TransformComponentInstance</text>
</a>
</g>
</g>
<!-- Node3&#45;&gt;Node8 -->
<g id="edge8" class="edge">
<title>Node3&#45;&gt;Node8</title>
<path fill="none" stroke="midnightblue" d="M834.07,-313.15C871.6,-316.05 918.75,-319.7 958.36,-322.76"/>
<polygon fill="midnightblue" stroke="midnightblue" points="834,-309.63 823.75,-312.35 833.46,-316.61 834,-309.63"/>
</g>
<!-- Node4 -->
<g id="node4" class="node">
<title>Node4</title>
<g id="a_node4"><a xlink:href="../../de/d01/classnap_1_1rtti_1_1_object.html" target="_top" xlink:title=" ">
<polygon fill="white" stroke="black" points="0,-220.5 0,-239.5 48,-239.5 48,-220.5 0,-220.5"/>
<text text-anchor="middle" x="24" y="-227.5" font-family="Helvetica,sans-Serif" font-size="10.00">Object</text>
</a>
</g>
</g>
<!-- Node4&#45;&gt;Node3 -->
<g id="edge3" class="edge">
<title>Node4&#45;&gt;Node3</title>
<path fill="none" stroke="midnightblue" d="M37.48,-248.22C48.24,-262.22 65.15,-280.55 85,-289 307.11,-383.55 607.98,-339.32 720.55,-317.58"/>
<polygon fill="midnightblue" stroke="midnightblue" points="40.05,-245.8 31.33,-239.79 34.4,-249.93 40.05,-245.8"/>
</g>
<!-- Node21 -->
<g id="node21" class="node">
<title>Node21</title>
<g id="a_node21"><a xlink:href="../../d9/dea/classnap_1_1_resource.html" target="_top" xlink:title=" ">
<polygon fill="white" stroke="black" points="142.5,-142.5 142.5,-161.5 204.5,-161.5 204.5,-142.5 142.5,-142.5"/>
<text text-anchor="middle" x="173.5" y="-149.5" font-family="Helvetica,sans-Serif" font-size="10.00">Resource</text>
</a>
</g>
</g>
<!-- Node4&#45;&gt;Node21 -->
<g id="edge23" class="edge">
<title>Node4&#45;&gt;Node21</title>
<path fill="none" stroke="midnightblue" d="M39.67,-212.17C50.86,-199.71 67.31,-183.63 85,-174 102.75,-164.34 124.83,-158.83 142.37,-155.74"/>
<polygon fill="midnightblue" stroke="midnightblue" points="36.71,-210.24 32.82,-220.09 42.01,-214.82 36.71,-210.24"/>
</g>
<!-- Node5 -->
<g id="node5" class="node">
<title>Node5</title>
<g id="a_node5"><a xlink:href="../../d5/dc6/classnap_1_1_render_service.html" target="_top" xlink:title=" ">
<polygon fill="white" stroke="black" points="429,-236.5 429,-255.5 516,-255.5 516,-236.5 429,-236.5"/>
<text text-anchor="middle" x="472.5" y="-243.5" font-family="Helvetica,sans-Serif" font-size="10.00">RenderService</text>
</a>
</g>
</g>
<!-- Node5&#45;&gt;Node1 -->
<g id="edge4" class="edge">
<title>Node5&#45;&gt;Node1</title>
<path fill="none" stroke="#9a32cd" stroke-dasharray="5,2" d="M526.36,-246.53C653.83,-247.54 988.22,-248.65 1267,-236 1272.8,-235.74 1278.76,-235.42 1284.78,-235.06"/>
<polygon fill="#9a32cd" stroke="#9a32cd" points="526.14,-243.03 516.11,-246.44 526.08,-250.03 526.14,-243.03"/>
<text text-anchor="middle" x="889" y="-249" font-family="Helvetica,sans-Serif" font-size="10.00"> mRenderService</text>
</g>
<!-- Node16 -->
<g id="node16" class="node">
<title>Node16</title>
<g id="a_node16"><a xlink:href="../../d4/d2c/classnap_1_1_base_material_instance.html" target="_top" xlink:title=" ">
<polygon fill="white" stroke="black" points="705.5,-165.5 705.5,-184.5 827.5,-184.5 827.5,-165.5 705.5,-165.5"/>
<text text-anchor="middle" x="766.5" y="-172.5" font-family="Helvetica,sans-Serif" font-size="10.00">BaseMaterialInstance</text>
</a>
</g>
</g>
<!-- Node5&#45;&gt;Node16 -->
<g id="edge18" class="edge">
<title>Node5&#45;&gt;Node16</title>
<path fill="none" stroke="#9a32cd" stroke-dasharray="5,2" d="M526.05,-236.92C578.9,-227.6 656.62,-213.31 686,-205 705.73,-199.42 727.47,-191.05 743.23,-184.57"/>
<polygon fill="#9a32cd" stroke="#9a32cd" points="525.41,-233.48 516.17,-238.66 526.62,-240.37 525.41,-233.48"/>
<text text-anchor="middle" x="631.5" y="-230" font-family="Helvetica,sans-Serif" font-size="10.00"> mRenderService</text>
</g>
<!-- Node6 -->
<g id="node6" class="node">
<title>Node6</title>
<g id="a_node6"><a xlink:href="../../d8/d8e/classnap_1_1_service.html" target="_top" xlink:title=" ">
<polygon fill="white" stroke="black" points="147,-260.5 147,-279.5 200,-279.5 200,-260.5 147,-260.5"/>
<text text-anchor="middle" x="173.5" y="-267.5" font-family="Helvetica,sans-Serif" font-size="10.00">Service</text>
</a>
</g>
</g>
<!-- Node6&#45;&gt;Node5 -->
<g id="edge5" class="edge">
<title>Node6&#45;&gt;Node5</title>
<path fill="none" stroke="midnightblue" d="M210.46,-267.66C249.32,-265.07 313.09,-260.64 368,-256 388.06,-254.31 410.28,-252.19 428.97,-250.34"/>
<polygon fill="midnightblue" stroke="midnightblue" points="209.93,-264.19 200.18,-268.34 210.39,-271.17 209.93,-264.19"/>
</g>
<!-- Node7 -->
<g id="node7" class="node">
<title>Node7</title>
<g id="a_node7"><a xlink:href="../../de/d80/classnap_1_1_signal.html" target="_top" xlink:title=" ">
<polygon fill="white" stroke="black" points="85,-222.5 85,-241.5 262,-241.5 262,-222.5 85,-222.5"/>
<text text-anchor="middle" x="173.5" y="-229.5" font-family="Helvetica,sans-Serif" font-size="10.00">Signal&lt; nap::RenderWindow &amp; &gt;</text>
</a>
</g>
</g>
<!-- Node7&#45;&gt;Node5 -->
<g id="edge6" class="edge">
<title>Node7&#45;&gt;Node5</title>
<path fill="none" stroke="#9a32cd" stroke-dasharray="5,2" d="M272.48,-231.02C303.09,-231.24 336.97,-232.05 368,-234 388.04,-235.26 410.16,-237.69 428.79,-240.03"/>
<polygon fill="#9a32cd" stroke="#9a32cd" points="272.25,-227.51 262.23,-230.96 272.21,-234.51 272.25,-227.51"/>
<text text-anchor="middle" x="324" y="-248" font-family="Helvetica,sans-Serif" font-size="10.00"> windowRemoved</text>
<text text-anchor="middle" x="324" y="-237" font-family="Helvetica,sans-Serif" font-size="10.00">windowAdded</text>
</g>
<!-- Node8&#45;&gt;Node1 -->
<g id="edge7" class="edge">
<title>Node8&#45;&gt;Node1</title>
<path fill="none" stroke="#9a32cd" stroke-dasharray="5,2" d="M1131.48,-319.71C1173.49,-313.7 1223.62,-304.09 1267,-289 1305.56,-275.58 1346.75,-250.38 1367.81,-236.6"/>
<polygon fill="#9a32cd" stroke="#9a32cd" points="1130.97,-316.25 1121.55,-321.08 1131.93,-323.18 1130.97,-316.25"/>
<text text-anchor="middle" x="1208" y="-319" font-family="Helvetica,sans-Serif" font-size="10.00"> mTransformComponent</text>
</g>
<!-- Node9 -->
<g id="node9" class="node">
<title>Node9</title>
<g id="a_node9"><a xlink:href="../../d7/d60/classnap_1_1_typed_uniform_value_instance.html" target="_top" xlink:title=" ">
<polygon fill="white" stroke="black" points="949,-163.5 949,-182.5 1131,-182.5 1131,-163.5 949,-163.5"/>
<text text-anchor="middle" x="1040" y="-170.5" font-family="Helvetica,sans-Serif" font-size="10.00">TypedUniformValueInstance&lt; T &gt;</text>
</a>
</g>
</g>
<!-- Node9&#45;&gt;Node1 -->
<g id="edge9" class="edge">
<title>Node9&#45;&gt;Node1</title>
<path fill="none" stroke="#9a32cd" stroke-dasharray="5,2" d="M1141.44,-167.79C1180.96,-167.78 1226.49,-170.32 1267,-179 1303.39,-186.79 1342.79,-205.78 1364.73,-217.4"/>
<polygon fill="#9a32cd" stroke="#9a32cd" points="1141.24,-164.29 1131.26,-167.85 1141.28,-171.29 1141.24,-164.29"/>
<text text-anchor="middle" x="1208" y="-204" font-family="Helvetica,sans-Serif" font-size="10.00"> mViewMatUniform</text>
<text text-anchor="middle" x="1208" y="-193" font-family="Helvetica,sans-Serif" font-size="10.00">mProjectMatUniform</text>
<text text-anchor="middle" x="1208" y="-182" font-family="Helvetica,sans-Serif" font-size="10.00">mModelMatUniform</text>
</g>
<!-- Node10 -->
<g id="node10" class="node">
<title>Node10</title>
<g id="a_node10"><a xlink:href="../../d0/dac/classnap_1_1_uniform_value_instance.html" target="_top" xlink:title=" ">
<polygon fill="white" stroke="black" points="704,-38.5 704,-57.5 829,-57.5 829,-38.5 704,-38.5"/>
<text text-anchor="middle" x="766.5" y="-45.5" font-family="Helvetica,sans-Serif" font-size="10.00">UniformValueInstance</text>
</a>
</g>
</g>
<!-- Node10&#45;&gt;Node9 -->
<g id="edge10" class="edge">
<title>Node10&#45;&gt;Node9</title>
<path fill="none" stroke="midnightblue" d="M788.75,-63.5C821.52,-86.65 887.08,-130.1 949,-154 958.83,-157.79 969.58,-160.9 980.11,-163.41"/>
<polygon fill="midnightblue" stroke="midnightblue" points="790.58,-60.5 780.41,-57.54 786.51,-66.2 790.58,-60.5"/>
</g>
<!-- Node11 -->
<g id="node11" class="node">
<title>Node11</title>
<g id="a_node11"><a xlink:href="../../dd/d94/classnap_1_1_uniform_leaf_instance.html" target="_top" xlink:title=" ">
<polygon fill="white" stroke="black" points="413,-0.5 413,-19.5 532,-19.5 532,-0.5 413,-0.5"/>
<text text-anchor="middle" x="472.5" y="-7.5" font-family="Helvetica,sans-Serif" font-size="10.00">UniformLeafInstance</text>
</a>
</g>
</g>
<!-- Node11&#45;&gt;Node10 -->
<g id="edge11" class="edge">
<title>Node11&#45;&gt;Node10</title>
<path fill="none" stroke="midnightblue" d="M542.43,-18.97C591.4,-25.34 656.58,-33.83 703.83,-39.97"/>
<polygon fill="midnightblue" stroke="midnightblue" points="542.61,-15.46 532.24,-17.64 541.7,-22.41 542.61,-15.46"/>
</g>
<!-- Node12 -->
<g id="node12" class="node">
<title>Node12</title>
<g id="a_node12"><a xlink:href="../../d6/d6a/classnap_1_1_uniform_instance.html" target="_top" xlink:title=" ">
<polygon fill="white" stroke="black" points="124.5,-0.5 124.5,-19.5 222.5,-19.5 222.5,-0.5 124.5,-0.5"/>
<text text-anchor="middle" x="173.5" y="-7.5" font-family="Helvetica,sans-Serif" font-size="10.00">UniformInstance</text>
</a>
</g>
</g>
<!-- Node12&#45;&gt;Node11 -->
<g id="edge12" class="edge">
<title>Node12&#45;&gt;Node11</title>
<path fill="none" stroke="midnightblue" d="M232.62,-10C284.66,-10 360.58,-10 412.79,-10"/>
<polygon fill="midnightblue" stroke="midnightblue" points="232.55,-6.5 222.55,-10 232.55,-13.5 232.55,-6.5"/>
</g>
<!-- Node13 -->
<g id="node13" class="node">
<title>Node13</title>
<g id="a_node13"><a xlink:href="../../d6/df3/classnap_1_1_shader_variable_value_declaration.html" target="_top" xlink:title=" ">
<polygon fill="white" stroke="black" points="386,-38.5 386,-57.5 559,-57.5 559,-38.5 386,-38.5"/>
<text text-anchor="middle" x="472.5" y="-45.5" font-family="Helvetica,sans-Serif" font-size="10.00">ShaderVariableValueDeclaration</text>
</a>
</g>
</g>
<!-- Node13&#45;&gt;Node10 -->
<g id="edge13" class="edge">
<title>Node13&#45;&gt;Node10</title>
<path fill="none" stroke="#9a32cd" stroke-dasharray="5,2" d="M569.35,-48C613.65,-48 664.96,-48 703.99,-48"/>
<polygon fill="#9a32cd" stroke="#9a32cd" points="569.14,-44.5 559.14,-48 569.14,-51.5 569.14,-44.5"/>
<text text-anchor="middle" x="631.5" y="-51" font-family="Helvetica,sans-Serif" font-size="10.00"> mDeclaration</text>
</g>
<!-- Node14 -->
<g id="node14" class="node">
<title>Node14</title>
<g id="a_node14"><a xlink:href="../../dc/d72/classnap_1_1_shader_variable_declaration.html" target="_top" xlink:title=" ">
<polygon fill="white" stroke="black" points="100.5,-38.5 100.5,-57.5 246.5,-57.5 246.5,-38.5 100.5,-38.5"/>
<text text-anchor="middle" x="173.5" y="-45.5" font-family="Helvetica,sans-Serif" font-size="10.00">ShaderVariableDeclaration</text>
</a>
</g>
</g>
<!-- Node14&#45;&gt;Node13 -->
<g id="edge14" class="edge">
<title>Node14&#45;&gt;Node13</title>
<path fill="none" stroke="midnightblue" d="M256.81,-48C297,-48 345.33,-48 385.95,-48"/>
<polygon fill="midnightblue" stroke="midnightblue" points="256.77,-44.5 246.77,-48 256.77,-51.5 256.77,-44.5"/>
</g>
<!-- Node15 -->
<g id="node15" class="node">
<title>Node15</title>
<g id="a_node15"><a xlink:href="../../d0/daa/classnap_1_1_material_instance.html" target="_top" xlink:title=" ">
<polygon fill="white" stroke="black" points="991,-202.5 991,-221.5 1089,-221.5 1089,-202.5 991,-202.5"/>
<text text-anchor="middle" x="1040" y="-209.5" font-family="Helvetica,sans-Serif" font-size="10.00">MaterialInstance</text>
</a>
</g>
</g>
<!-- Node15&#45;&gt;Node1 -->
<g id="edge15" class="edge">
<title>Node15&#45;&gt;Node1</title>
<path fill="none" stroke="#9a32cd" stroke-dasharray="5,2" d="M1099.3,-214.56C1150.19,-216.8 1225.08,-220.1 1284.99,-222.73"/>
<polygon fill="#9a32cd" stroke="#9a32cd" points="1099.28,-211.06 1089.13,-214.12 1098.97,-218.05 1099.28,-211.06"/>
<text text-anchor="middle" x="1208" y="-224" font-family="Helvetica,sans-Serif" font-size="10.00"> mMaterialInstance</text>
</g>
<!-- Node16&#45;&gt;Node15 -->
<g id="edge16" class="edge">
<title>Node16&#45;&gt;Node15</title>
<path fill="none" stroke="midnightblue" d="M837.77,-184.58C885.78,-191.12 948.17,-199.62 990.67,-205.41"/>
<polygon fill="midnightblue" stroke="midnightblue" points="838.14,-181.09 827.75,-183.21 837.19,-188.03 838.14,-181.09"/>
</g>
<!-- Node17 -->
<g id="node17" class="node">
<title>Node17</title>
<g id="a_node17"><a xlink:href="../../d5/d6c/classnap_1_1_uniform_container.html" target="_top" xlink:title=" ">
<polygon fill="white" stroke="black" points="121.5,-183.5 121.5,-202.5 225.5,-202.5 225.5,-183.5 121.5,-183.5"/>
<text text-anchor="middle" x="173.5" y="-190.5" font-family="Helvetica,sans-Serif" font-size="10.00">UniformContainer</text>
</a>
</g>
</g>
<!-- Node17&#45;&gt;Node16 -->
<g id="edge17" class="edge">
<title>Node17&#45;&gt;Node16</title>
<path fill="none" stroke="midnightblue" d="M235.81,-192.18C331.84,-190.73 523.53,-187.17 686,-180 692.22,-179.73 698.71,-179.39 705.18,-179.03"/>
<polygon fill="midnightblue" stroke="midnightblue" points="235.65,-188.68 225.71,-192.33 235.76,-195.68 235.65,-188.68"/>
</g>
<!-- Node20 -->
<g id="node20" class="node">
<title>Node20</title>
<g id="a_node20"><a xlink:href="../../da/d69/classnap_1_1_base_material.html" target="_top" xlink:title=" ">
<polygon fill="white" stroke="black" points="432,-114.5 432,-133.5 513,-133.5 513,-114.5 432,-114.5"/>
<text text-anchor="middle" x="472.5" y="-121.5" font-family="Helvetica,sans-Serif" font-size="10.00">BaseMaterial</text>
</a>
</g>
</g>
<!-- Node17&#45;&gt;Node20 -->
<g id="edge24" class="edge">
<title>Node17&#45;&gt;Node20</title>
<path fill="none" stroke="midnightblue" d="M235.63,-184.15C274.26,-177.56 324.85,-167.08 368,-152 376.44,-149.05 377.57,-145.99 386,-143 400.62,-137.81 417.16,-133.74 431.77,-130.72"/>
<polygon fill="midnightblue" stroke="midnightblue" points="234.87,-180.73 225.58,-185.83 236.02,-187.64 234.87,-180.73"/>
</g>
<!-- Node18 -->
<g id="node18" class="node">
<title>Node18</title>
<g id="a_node18"><a xlink:href="../../d2/d1c/classnap_1_1_descriptor_set_cache.html" target="_top" xlink:title=" ">
<polygon fill="white" stroke="black" points="416,-152.5 416,-171.5 529,-171.5 529,-152.5 416,-152.5"/>
<text text-anchor="middle" x="472.5" y="-159.5" font-family="Helvetica,sans-Serif" font-size="10.00">DescriptorSetCache</text>
</a>
</g>
</g>
<!-- Node18&#45;&gt;Node16 -->
<g id="edge19" class="edge">
<title>Node18&#45;&gt;Node16</title>
<path fill="none" stroke="#9a32cd" stroke-dasharray="5,2" d="M539.11,-163.44C581.13,-164.55 636.8,-166.33 686,-169 692.22,-169.34 698.71,-169.74 705.18,-170.18"/>
<polygon fill="#9a32cd" stroke="#9a32cd" points="539.1,-159.94 529.01,-163.18 538.92,-166.94 539.1,-159.94"/>
<text text-anchor="middle" x="631.5" y="-172" font-family="Helvetica,sans-Serif" font-size="10.00"> mDescriptorSetCache</text>
</g>
<!-- Node19 -->
<g id="node19" class="node">
<title>Node19</title>
<g id="a_node19"><a xlink:href="../../df/d7a/classnap_1_1_base_material_instance_resource.html" target="_top" xlink:title=" ">
<polygon fill="white" stroke="black" points="389,-76.5 389,-95.5 556,-95.5 556,-76.5 389,-76.5"/>
<text text-anchor="middle" x="472.5" y="-83.5" font-family="Helvetica,sans-Serif" font-size="10.00">BaseMaterialInstanceResource</text>
</a>
</g>
</g>
<!-- Node19&#45;&gt;Node16 -->
<g id="edge20" class="edge">
<title>Node19&#45;&gt;Node16</title>
<path fill="none" stroke="#9a32cd" stroke-dasharray="5,2" d="M566.14,-91.1C604.32,-95.55 648.34,-103.79 686,-119 713.55,-130.13 740.8,-152.42 755.13,-165.27"/>
<polygon fill="#9a32cd" stroke="#9a32cd" points="566.38,-87.6 556.05,-89.99 565.61,-94.56 566.38,-87.6"/>
<text text-anchor="middle" x="631.5" y="-122" font-family="Helvetica,sans-Serif" font-size="10.00"> mResource</text>
</g>
<!-- Node20&#45;&gt;Node16 -->
<g id="edge21" class="edge">
<title>Node20&#45;&gt;Node16</title>
<path fill="none" stroke="#9a32cd" stroke-dasharray="5,2" d="M523.03,-127.48C566.37,-131.14 630.85,-138.06 686,-150 704.1,-153.92 723.98,-160.17 739.33,-165.44"/>
<polygon fill="#9a32cd" stroke="#9a32cd" points="523.28,-123.99 513.03,-126.66 522.71,-130.97 523.28,-123.99"/>
<text text-anchor="middle" x="631.5" y="-153" font-family="Helvetica,sans-Serif" font-size="10.00"> mMaterial</text>
</g>
<!-- Node21&#45;&gt;Node20 -->
<g id="edge22" class="edge">
<title>Node21&#45;&gt;Node20</title>
<path fill="none" stroke="midnightblue" d="M214.69,-148.21C271.67,-142.84 375.3,-133.07 431.94,-127.73"/>
<polygon fill="midnightblue" stroke="midnightblue" points="214.24,-144.74 204.61,-149.16 214.9,-151.71 214.24,-144.74"/>
</g>
<!-- Node22 -->
<g id="node22" class="node">
<title>Node22</title>
<g id="a_node22"><a xlink:href="../../df/d52/classnap_1_1_renderable_mesh.html" target="_top" xlink:title=" ">
<polygon fill="white" stroke="black" points="991,-125.5 991,-144.5 1089,-144.5 1089,-125.5 991,-125.5"/>
<text text-anchor="middle" x="1040" y="-132.5" font-family="Helvetica,sans-Serif" font-size="10.00">RenderableMesh</text>
</a>
</g>
</g>
<!-- Node22&#45;&gt;Node1 -->
<g id="edge25" class="edge">
<title>Node22&#45;&gt;Node1</title>
<path fill="none" stroke="#9a32cd" stroke-dasharray="5,2" d="M1099.31,-131.94C1145.9,-131.31 1212.22,-134.5 1267,-153 1309.51,-167.35 1351.94,-200.85 1371.23,-217.4"/>
<polygon fill="#9a32cd" stroke="#9a32cd" points="1099.02,-128.45 1089.1,-132.15 1099.17,-135.45 1099.02,-128.45"/>
<text text-anchor="middle" x="1208" y="-156" font-family="Helvetica,sans-Serif" font-size="10.00"> mRenderableMesh</text>
</g>
<!-- Node23 -->
<g id="node23" class="node">
<title>Node23</title>
<g id="a_node23"><a xlink:href="../../d5/da0/classnap_1_1math_1_1_rect.html" target="_top" xlink:title=" ">
<polygon fill="white" stroke="black" points="1021,-87.5 1021,-106.5 1059,-106.5 1059,-87.5 1021,-87.5"/>
<text text-anchor="middle" x="1040" y="-94.5" font-family="Helvetica,sans-Serif" font-size="10.00">Rect</text>
</a>
</g>
</g>
<!-- Node23&#45;&gt;Node1 -->
<g id="edge26" class="edge">
<title>Node23&#45;&gt;Node1</title>
<path fill="none" stroke="#9a32cd" stroke-dasharray="5,2" d="M1069.35,-94.1C1113.68,-90.78 1201.16,-89.16 1267,-119 1317.14,-141.73 1359.44,-195.34 1375.3,-217.33"/>
<polygon fill="#9a32cd" stroke="#9a32cd" points="1068.97,-90.62 1059.3,-94.94 1069.55,-97.6 1068.97,-90.62"/>
<text text-anchor="middle" x="1208" y="-122" font-family="Helvetica,sans-Serif" font-size="10.00"> mClipRect</text>
</g>
</g>
</svg>
