<?xml version="1.0" encoding="UTF-8" standalone="no"?>
<!DOCTYPE svg PUBLIC "-//W3C//DTD SVG 1.1//EN"
 "http://www.w3.org/Graphics/SVG/1.1/DTD/svg11.dtd">
<!-- Generated by graphviz version 2.48.0 (20210717.1556)
 -->
<!-- Title: RenderableMeshComponentInstance Pages: 1 -->
<svg width="1345pt" height="351pt"
 viewBox="0.00 0.00 1345.00 350.88" xmlns="http://www.w3.org/2000/svg" xmlns:xlink="http://www.w3.org/1999/xlink">
<g id="graph0" class="graph" transform="scale(1 1) rotate(0) translate(4 346.88)">
<title>RenderableMeshComponentInstance</title>
<polygon fill="white" stroke="transparent" points="-4,4 -4,-346.88 1341,-346.88 1341,4 -4,4"/>
<!-- Node4 -->
<g id="node1" class="node">
<title>Node4</title>
<polygon fill="#bfbfbf" stroke="black" points="1161,-217.5 1161,-236.5 1337,-236.5 1337,-217.5 1161,-217.5"/>
<text text-anchor="middle" x="1249" y="-224.5" font-family="Helvetica,sans-Serif" font-size="10.00">RenderableMeshComponentInstance</text>
</g>
<!-- Node5 -->
<g id="node2" class="node">
<title>Node5</title>
<g id="a_node2"><a xlink:href="../../dd/da0/classnap_1_1_renderable_component_instance.html" target="_top" xlink:title="RenderableComponentInstance">
<polygon fill="white" stroke="black" points="864.5,-281.5 864.5,-300.5 1016.5,-300.5 1016.5,-281.5 864.5,-281.5"/>
<text text-anchor="middle" x="940.5" y="-288.5" font-family="Helvetica,sans-Serif" font-size="10.00">RenderableComponentInstance</text>
</a>
</g>
</g>
<!-- Node5&#45;&gt;Node4 -->
<g id="edge1" class="edge">
<title>Node5&#45;&gt;Node4</title>
<path fill="none" stroke="midnightblue" d="M1026.95,-285.49C1063.12,-281.96 1105.48,-276.23 1143,-267 1173.31,-259.54 1206.75,-245.78 1227.56,-236.51"/>
<polygon fill="midnightblue" stroke="midnightblue" points="1026.56,-282.01 1016.93,-286.43 1027.21,-288.98 1026.56,-282.01"/>
</g>
<!-- Node6 -->
<g id="node3" class="node">
<title>Node6</title>
<g id="a_node3"><a xlink:href="../../d9/df2/classnap_1_1_component_instance.html" target="_top" xlink:title="ComponentInstance">
<polygon fill="white" stroke="black" points="643,-298.5 643,-317.5 746,-317.5 746,-298.5 643,-298.5"/>
<text text-anchor="middle" x="694.5" y="-305.5" font-family="Helvetica,sans-Serif" font-size="10.00">ComponentInstance</text>
</a>
</g>
</g>
<!-- Node6&#45;&gt;Node5 -->
<g id="edge2" class="edge">
<title>Node6&#45;&gt;Node5</title>
<path fill="none" stroke="midnightblue" d="M756.39,-303.76C789.12,-301.48 829.77,-298.64 864.45,-296.23"/>
<polygon fill="midnightblue" stroke="midnightblue" points="755.79,-300.29 746.06,-304.48 756.28,-307.27 755.79,-300.29"/>
</g>
<!-- Node11 -->
<g id="node8" class="node">
<title>Node11</title>
<g id="a_node8"><a xlink:href="../../d2/d51/classnap_1_1_transform_component_instance.html" target="_top" xlink:title="TransformComponentInstance">
<polygon fill="white" stroke="black" points="867.5,-319.5 867.5,-338.5 1013.5,-338.5 1013.5,-319.5 867.5,-319.5"/>
<text text-anchor="middle" x="940.5" y="-326.5" font-family="Helvetica,sans-Serif" font-size="10.00">TransformComponentInstance</text>
</a>
</g>
</g>
<!-- Node6&#45;&gt;Node11 -->
<g id="edge8" class="edge">
<title>Node6&#45;&gt;Node11</title>
<path fill="none" stroke="midnightblue" d="M756.21,-313.23C789.87,-316.12 831.92,-319.74 867.26,-322.78"/>
<polygon fill="midnightblue" stroke="midnightblue" points="756.32,-309.72 746.06,-312.35 755.72,-316.7 756.32,-309.72"/>
</g>
<!-- Node7 -->
<g id="node4" class="node">
<title>Node7</title>
<g id="a_node4"><a xlink:href="../../de/d01/classnap_1_1rtti_1_1_object.html" target="_top" xlink:title="Object">
<polygon fill="white" stroke="black" points="0,-220.5 0,-239.5 45,-239.5 45,-220.5 0,-220.5"/>
<text text-anchor="middle" x="22.5" y="-227.5" font-family="Helvetica,sans-Serif" font-size="10.00">Object</text>
</a>
</g>
</g>
<!-- Node7&#45;&gt;Node6 -->
<g id="edge3" class="edge">
<title>Node7&#45;&gt;Node6</title>
<path fill="none" stroke="midnightblue" d="M35.57,-248.19C46.01,-262.18 62.47,-280.5 82,-289 277.77,-374.17 543.09,-337.31 648.06,-317.54"/>
<polygon fill="midnightblue" stroke="midnightblue" points="38.25,-245.91 29.61,-239.77 32.53,-249.96 38.25,-245.91"/>
</g>
<!-- Node24 -->
<g id="node21" class="node">
<title>Node24</title>
<g id="a_node21"><a xlink:href="../../d9/dea/classnap_1_1_resource.html" target="_top" xlink:title="Resource">
<polygon fill="white" stroke="black" points="130.5,-142.5 130.5,-161.5 188.5,-161.5 188.5,-142.5 130.5,-142.5"/>
<text text-anchor="middle" x="159.5" y="-149.5" font-family="Helvetica,sans-Serif" font-size="10.00">Resource</text>
</a>
</g>
</g>
<!-- Node7&#45;&gt;Node24 -->
<g id="edge23" class="edge">
<title>Node7&#45;&gt;Node24</title>
<path fill="none" stroke="midnightblue" d="M37.82,-212.33C48.73,-199.95 64.77,-183.91 82,-174 96.86,-165.46 115.27,-160.03 130.31,-156.7"/>
<polygon fill="midnightblue" stroke="midnightblue" points="34.94,-210.31 31.13,-220.2 40.28,-214.84 34.94,-210.31"/>
</g>
<!-- Node8 -->
<g id="node5" class="node">
<title>Node8</title>
<g id="a_node5"><a xlink:href="../../d5/dc6/classnap_1_1_render_service.html" target="_top" xlink:title="RenderService">
<polygon fill="white" stroke="black" points="386.5,-236.5 386.5,-255.5 465.5,-255.5 465.5,-236.5 386.5,-236.5"/>
<text text-anchor="middle" x="426" y="-243.5" font-family="Helvetica,sans-Serif" font-size="10.00">RenderService</text>
</a>
</g>
</g>
<!-- Node8&#45;&gt;Node4 -->
<g id="edge4" class="edge">
<title>Node8&#45;&gt;Node4</title>
<path fill="none" stroke="#9a32cd" stroke-dasharray="5,2" d="M476.17,-246.52C592.28,-247.5 892.56,-248.47 1143,-236 1148.85,-235.71 1154.87,-235.35 1160.94,-234.94"/>
<polygon fill="#9a32cd" stroke="#9a32cd" points="475.87,-243.02 465.84,-246.43 475.81,-250.02 475.87,-243.02"/>
<text text-anchor="middle" x="805" y="-249" font-family="Helvetica,sans-Serif" font-size="10.00"> mRenderService</text>
</g>
<!-- Node19 -->
<g id="node16" class="node">
<title>Node19</title>
<g id="a_node16"><a xlink:href="../../d4/d2c/classnap_1_1_base_material_instance.html" target="_top" xlink:title="BaseMaterialInstance">
<polygon fill="white" stroke="black" points="639.5,-165.5 639.5,-184.5 749.5,-184.5 749.5,-165.5 639.5,-165.5"/>
<text text-anchor="middle" x="694.5" y="-172.5" font-family="Helvetica,sans-Serif" font-size="10.00">BaseMaterialInstance</text>
</a>
</g>
</g>
<!-- Node8&#45;&gt;Node19 -->
<g id="edge18" class="edge">
<title>Node8&#45;&gt;Node19</title>
<path fill="none" stroke="#9a32cd" stroke-dasharray="5,2" d="M475.51,-236.81C523.77,-227.47 594.37,-213.25 621,-205 639.09,-199.4 658.91,-191.04 673.25,-184.56"/>
<polygon fill="#9a32cd" stroke="#9a32cd" points="474.73,-233.39 465.57,-238.72 476.05,-240.27 474.73,-233.39"/>
<text text-anchor="middle" x="571.5" y="-230" font-family="Helvetica,sans-Serif" font-size="10.00"> mRenderService</text>
</g>
<!-- Node9 -->
<g id="node6" class="node">
<title>Node9</title>
<g id="a_node6"><a xlink:href="../../d8/d8e/classnap_1_1_service.html" target="_top" xlink:title="Service">
<polygon fill="white" stroke="black" points="135.5,-260.5 135.5,-279.5 183.5,-279.5 183.5,-260.5 135.5,-260.5"/>
<text text-anchor="middle" x="159.5" y="-267.5" font-family="Helvetica,sans-Serif" font-size="10.00">Service</text>
</a>
</g>
</g>
<!-- Node9&#45;&gt;Node8 -->
<g id="edge5" class="edge">
<title>Node9&#45;&gt;Node8</title>
<path fill="none" stroke="midnightblue" d="M193.89,-267.46C228.09,-264.82 282.78,-260.43 330,-256 348.49,-254.26 368.99,-252.13 386.19,-250.28"/>
<polygon fill="midnightblue" stroke="midnightblue" points="193.25,-264 183.54,-268.26 193.78,-270.98 193.25,-264"/>
</g>
<!-- Node10 -->
<g id="node7" class="node">
<title>Node10</title>
<g id="a_node7"><a xlink:href="../../de/d80/classnap_1_1_signal.html" target="_top" xlink:title="Signal\&lt; nap::RenderWindow &amp;\&gt;">
<polygon fill="white" stroke="black" points="82,-222.5 82,-241.5 237,-241.5 237,-222.5 82,-222.5"/>
<text text-anchor="middle" x="159.5" y="-229.5" font-family="Helvetica,sans-Serif" font-size="10.00">Signal&lt; nap::RenderWindow &amp;&gt;</text>
</a>
</g>
</g>
<!-- Node10&#45;&gt;Node8 -->
<g id="edge6" class="edge">
<title>Node10&#45;&gt;Node8</title>
<path fill="none" stroke="#9a32cd" stroke-dasharray="5,2" d="M247.39,-231.13C273.93,-231.37 303.19,-232.15 330,-234 348.58,-235.28 369.08,-237.74 386.27,-240.09"/>
<polygon fill="#9a32cd" stroke="#9a32cd" points="247.38,-227.63 237.36,-231.06 247.33,-234.63 247.38,-227.63"/>
<text text-anchor="middle" x="292.5" y="-248" font-family="Helvetica,sans-Serif" font-size="10.00"> windowRemoved</text>
<text text-anchor="middle" x="292.5" y="-237" font-family="Helvetica,sans-Serif" font-size="10.00">windowAdded</text>
</g>
<!-- Node11&#45;&gt;Node4 -->
<g id="edge7" class="edge">
<title>Node11&#45;&gt;Node4</title>
<path fill="none" stroke="#9a32cd" stroke-dasharray="5,2" d="M1023.85,-319.08C1061.06,-312.99 1105.08,-303.48 1143,-289 1178.6,-275.41 1216.05,-250.28 1235.14,-236.56"/>
<polygon fill="#9a32cd" stroke="#9a32cd" points="1022.87,-315.69 1013.54,-320.72 1023.97,-322.61 1022.87,-315.69"/>
<text text-anchor="middle" x="1091" y="-319" font-family="Helvetica,sans-Serif" font-size="10.00"> mTransformComponent</text>
</g>
<!-- Node12 -->
<g id="node9" class="node">
<title>Node12</title>
<g id="a_node9"><a xlink:href="../../d7/d60/classnap_1_1_typed_uniform_value_instance.html" target="_top" xlink:title="TypedUniformValueInstance\&lt; T \&gt;">
<polygon fill="white" stroke="black" points="860,-163.5 860,-182.5 1021,-182.5 1021,-163.5 860,-163.5"/>
<text text-anchor="middle" x="940.5" y="-170.5" font-family="Helvetica,sans-Serif" font-size="10.00">TypedUniformValueInstance&lt; T &gt;</text>
</a>
</g>
</g>
<!-- Node12&#45;&gt;Node4 -->
<g id="edge9" class="edge">
<title>Node12&#45;&gt;Node4</title>
<path fill="none" stroke="#9a32cd" stroke-dasharray="5,2" d="M1031.64,-168.08C1066.79,-168.13 1107.17,-170.64 1143,-179 1176.57,-186.84 1212.43,-205.81 1232.35,-217.42"/>
<polygon fill="#9a32cd" stroke="#9a32cd" points="1031.37,-164.58 1021.39,-168.14 1031.41,-171.58 1031.37,-164.58"/>
<text text-anchor="middle" x="1091" y="-204" font-family="Helvetica,sans-Serif" font-size="10.00"> mViewMatUniform</text>
<text text-anchor="middle" x="1091" y="-193" font-family="Helvetica,sans-Serif" font-size="10.00">mProjectMatUniform</text>
<text text-anchor="middle" x="1091" y="-182" font-family="Helvetica,sans-Serif" font-size="10.00">mModelMatUniform</text>
</g>
<!-- Node13 -->
<g id="node10" class="node">
<title>Node13</title>
<g id="a_node10"><a xlink:href="../../d0/dac/classnap_1_1_uniform_value_instance.html" target="_top" xlink:title="UniformValueInstance">
<polygon fill="white" stroke="black" points="639,-38.5 639,-57.5 750,-57.5 750,-38.5 639,-38.5"/>
<text text-anchor="middle" x="694.5" y="-45.5" font-family="Helvetica,sans-Serif" font-size="10.00">UniformValueInstance</text>
</a>
</g>
</g>
<!-- Node13&#45;&gt;Node12 -->
<g id="edge10" class="edge">
<title>Node13&#45;&gt;Node12</title>
<path fill="none" stroke="midnightblue" d="M715.41,-64.05C745.14,-87.24 803.69,-129.96 860,-154 868.87,-157.79 878.64,-160.91 888.21,-163.44"/>
<polygon fill="midnightblue" stroke="midnightblue" points="717.5,-61.24 707.48,-57.79 713.16,-66.73 717.5,-61.24"/>
</g>
<!-- Node14 -->
<g id="node11" class="node">
<title>Node14</title>
<g id="a_node11"><a xlink:href="../../dd/d94/classnap_1_1_uniform_leaf_instance.html" target="_top" xlink:title="UniformLeafInstance">
<polygon fill="white" stroke="black" points="374,-0.5 374,-19.5 478,-19.5 478,-0.5 374,-0.5"/>
<text text-anchor="middle" x="426" y="-7.5" font-family="Helvetica,sans-Serif" font-size="10.00">UniformLeafInstance</text>
</a>
</g>
</g>
<!-- Node14&#45;&gt;Node13 -->
<g id="edge11" class="edge">
<title>Node14&#45;&gt;Node13</title>
<path fill="none" stroke="midnightblue" d="M488.1,-18.71C533.57,-25.2 595.11,-33.97 638.94,-40.22"/>
<polygon fill="midnightblue" stroke="midnightblue" points="488.46,-15.23 478.07,-17.28 487.47,-22.16 488.46,-15.23"/>
</g>
<!-- Node15 -->
<g id="node12" class="node">
<title>Node15</title>
<g id="a_node12"><a xlink:href="../../d6/d6a/classnap_1_1_uniform_instance.html" target="_top" xlink:title="UniformInstance">
<polygon fill="white" stroke="black" points="116.5,-0.5 116.5,-19.5 202.5,-19.5 202.5,-0.5 116.5,-0.5"/>
<text text-anchor="middle" x="159.5" y="-7.5" font-family="Helvetica,sans-Serif" font-size="10.00">UniformInstance</text>
</a>
</g>
</g>
<!-- Node15&#45;&gt;Node14 -->
<g id="edge12" class="edge">
<title>Node15&#45;&gt;Node14</title>
<path fill="none" stroke="midnightblue" d="M212.92,-10C259.63,-10 327.58,-10 373.89,-10"/>
<polygon fill="midnightblue" stroke="midnightblue" points="212.7,-6.5 202.7,-10 212.7,-13.5 212.7,-6.5"/>
</g>
<!-- Node16 -->
<g id="node13" class="node">
<title>Node16</title>
<g id="a_node13"><a xlink:href="../../d6/df3/classnap_1_1_shader_variable_value_declaration.html" target="_top" xlink:title="ShaderVariableValueDeclaration">
<polygon fill="white" stroke="black" points="348,-38.5 348,-57.5 504,-57.5 504,-38.5 348,-38.5"/>
<text text-anchor="middle" x="426" y="-45.5" font-family="Helvetica,sans-Serif" font-size="10.00">ShaderVariableValueDeclaration</text>
</a>
</g>
</g>
<!-- Node16&#45;&gt;Node13 -->
<g id="edge13" class="edge">
<title>Node16&#45;&gt;Node13</title>
<path fill="none" stroke="#9a32cd" stroke-dasharray="5,2" d="M514.11,-48C555.25,-48 603.08,-48 639,-48"/>
<polygon fill="#9a32cd" stroke="#9a32cd" points="514.08,-44.5 504.08,-48 514.08,-51.5 514.08,-44.5"/>
<text text-anchor="middle" x="571.5" y="-51" font-family="Helvetica,sans-Serif" font-size="10.00"> mDeclaration</text>
</g>
<!-- Node17 -->
<g id="node14" class="node">
<title>Node17</title>
<g id="a_node14"><a xlink:href="../../dc/d72/classnap_1_1_shader_variable_declaration.html" target="_top" xlink:title="ShaderVariableDeclaration">
<polygon fill="white" stroke="black" points="94,-38.5 94,-57.5 225,-57.5 225,-38.5 94,-38.5"/>
<text text-anchor="middle" x="159.5" y="-45.5" font-family="Helvetica,sans-Serif" font-size="10.00">ShaderVariableDeclaration</text>
</a>
</g>
</g>
<!-- Node17&#45;&gt;Node16 -->
<g id="edge14" class="edge">
<title>Node17&#45;&gt;Node16</title>
<path fill="none" stroke="midnightblue" d="M235.4,-48C270.54,-48 312.37,-48 347.79,-48"/>
<polygon fill="midnightblue" stroke="midnightblue" points="235.2,-44.5 225.2,-48 235.2,-51.5 235.2,-44.5"/>
</g>
<!-- Node18 -->
<g id="node15" class="node">
<title>Node18</title>
<g id="a_node15"><a xlink:href="../../d0/daa/classnap_1_1_material_instance.html" target="_top" xlink:title="MaterialInstance">
<polygon fill="white" stroke="black" points="896.5,-202.5 896.5,-221.5 984.5,-221.5 984.5,-202.5 896.5,-202.5"/>
<text text-anchor="middle" x="940.5" y="-209.5" font-family="Helvetica,sans-Serif" font-size="10.00">MaterialInstance</text>
</a>
</g>
</g>
<!-- Node18&#45;&gt;Node4 -->
<g id="edge15" class="edge">
<title>Node18&#45;&gt;Node4</title>
<path fill="none" stroke="#9a32cd" stroke-dasharray="5,2" d="M994.76,-214.61C1040.49,-216.84 1107.29,-220.11 1160.8,-222.73"/>
<polygon fill="#9a32cd" stroke="#9a32cd" points="994.92,-211.11 984.76,-214.12 994.58,-218.1 994.92,-211.11"/>
<text text-anchor="middle" x="1091" y="-224" font-family="Helvetica,sans-Serif" font-size="10.00"> mMaterialInstance</text>
</g>
<!-- Node19&#45;&gt;Node18 -->
<g id="edge16" class="edge">
<title>Node19&#45;&gt;Node18</title>
<path fill="none" stroke="midnightblue" d="M759.77,-184.75C802.92,-191.29 858.58,-199.73 896.45,-205.47"/>
<polygon fill="midnightblue" stroke="midnightblue" points="760.06,-181.25 749.65,-183.21 759.01,-188.17 760.06,-181.25"/>
</g>
<!-- Node20 -->
<g id="node17" class="node">
<title>Node20</title>
<g id="a_node17"><a xlink:href="../../d5/d6c/classnap_1_1_uniform_container.html" target="_top" xlink:title="UniformContainer">
<polygon fill="white" stroke="black" points="114,-183.5 114,-202.5 205,-202.5 205,-183.5 114,-183.5"/>
<text text-anchor="middle" x="159.5" y="-190.5" font-family="Helvetica,sans-Serif" font-size="10.00">UniformContainer</text>
</a>
</g>
</g>
<!-- Node20&#45;&gt;Node19 -->
<g id="edge17" class="edge">
<title>Node20&#45;&gt;Node19</title>
<path fill="none" stroke="midnightblue" d="M215.39,-192.17C301.75,-190.7 474.57,-187.11 621,-180 626.92,-179.71 633.11,-179.36 639.28,-178.98"/>
<polygon fill="midnightblue" stroke="midnightblue" points="215.24,-188.67 205.3,-192.34 215.36,-195.67 215.24,-188.67"/>
</g>
<!-- Node23 -->
<g id="node20" class="node">
<title>Node23</title>
<g id="a_node20"><a xlink:href="../../da/d69/classnap_1_1_base_material.html" target="_top" xlink:title="BaseMaterial">
<polygon fill="white" stroke="black" points="389,-114.5 389,-133.5 463,-133.5 463,-114.5 389,-114.5"/>
<text text-anchor="middle" x="426" y="-121.5" font-family="Helvetica,sans-Serif" font-size="10.00">BaseMaterial</text>
</a>
</g>
</g>
<!-- Node20&#45;&gt;Node23 -->
<g id="edge24" class="edge">
<title>Node20&#45;&gt;Node23</title>
<path fill="none" stroke="midnightblue" d="M215.32,-183.03C248.97,-176.1 292.63,-165.66 330,-152 338.4,-148.93 339.61,-146.09 348,-143 361.05,-138.2 375.79,-134.22 388.85,-131.18"/>
<polygon fill="midnightblue" stroke="midnightblue" points="214.32,-179.65 205.21,-185.06 215.71,-186.52 214.32,-179.65"/>
</g>
<!-- Node21 -->
<g id="node18" class="node">
<title>Node21</title>
<g id="a_node18"><a xlink:href="../../d2/d1c/classnap_1_1_descriptor_set_cache.html" target="_top" xlink:title="DescriptorSetCache">
<polygon fill="white" stroke="black" points="374,-152.5 374,-171.5 478,-171.5 478,-152.5 374,-152.5"/>
<text text-anchor="middle" x="426" y="-159.5" font-family="Helvetica,sans-Serif" font-size="10.00">DescriptorSetCache</text>
</a>
</g>
</g>
<!-- Node21&#45;&gt;Node19 -->
<g id="edge19" class="edge">
<title>Node21&#45;&gt;Node19</title>
<path fill="none" stroke="#9a32cd" stroke-dasharray="5,2" d="M488.52,-163.49C526.69,-164.59 576.72,-166.37 621,-169 626.93,-169.35 633.12,-169.78 639.28,-170.24"/>
<polygon fill="#9a32cd" stroke="#9a32cd" points="488.18,-159.98 478.09,-163.2 487.99,-166.98 488.18,-159.98"/>
<text text-anchor="middle" x="571.5" y="-172" font-family="Helvetica,sans-Serif" font-size="10.00"> mDescriptorSetCache</text>
</g>
<!-- Node22 -->
<g id="node19" class="node">
<title>Node22</title>
<g id="a_node19"><a xlink:href="../../df/d7a/classnap_1_1_base_material_instance_resource.html" target="_top" xlink:title="BaseMaterialInstanceResource">
<polygon fill="white" stroke="black" points="350,-76.5 350,-95.5 502,-95.5 502,-76.5 350,-76.5"/>
<text text-anchor="middle" x="426" y="-83.5" font-family="Helvetica,sans-Serif" font-size="10.00">BaseMaterialInstanceResource</text>
</a>
</g>
</g>
<!-- Node22&#45;&gt;Node19 -->
<g id="edge20" class="edge">
<title>Node22&#45;&gt;Node19</title>
<path fill="none" stroke="#9a32cd" stroke-dasharray="5,2" d="M512.37,-91.45C547.17,-95.95 587.11,-104.15 621,-119 646.64,-130.24 671.29,-152.49 684.2,-165.3"/>
<polygon fill="#9a32cd" stroke="#9a32cd" points="512.57,-87.94 502.22,-90.21 511.73,-94.89 512.57,-87.94"/>
<text text-anchor="middle" x="571.5" y="-122" font-family="Helvetica,sans-Serif" font-size="10.00"> mResource</text>
</g>
<!-- Node23&#45;&gt;Node19 -->
<g id="edge21" class="edge">
<title>Node23&#45;&gt;Node19</title>
<path fill="none" stroke="#9a32cd" stroke-dasharray="5,2" d="M473.3,-127.6C512.9,-131.29 571.22,-138.21 621,-150 637.58,-153.93 655.71,-160.18 669.69,-165.45"/>
<polygon fill="#9a32cd" stroke="#9a32cd" points="473.42,-124.09 463.15,-126.68 472.79,-131.07 473.42,-124.09"/>
<text text-anchor="middle" x="571.5" y="-153" font-family="Helvetica,sans-Serif" font-size="10.00"> mMaterial</text>
</g>
<!-- Node24&#45;&gt;Node23 -->
<g id="edge22" class="edge">
<title>Node24&#45;&gt;Node23</title>
<path fill="none" stroke="midnightblue" d="M198.76,-147.95C249.69,-142.56 339.12,-133.09 388.92,-127.82"/>
<polygon fill="midnightblue" stroke="midnightblue" points="198.38,-144.47 188.81,-149 199.12,-151.43 198.38,-144.47"/>
</g>
<!-- Node25 -->
<g id="node22" class="node">
<title>Node25</title>
<g id="a_node22"><a xlink:href="../../df/d52/classnap_1_1_renderable_mesh.html" target="_top" xlink:title="RenderableMesh">
<polygon fill="white" stroke="black" points="896,-125.5 896,-144.5 985,-144.5 985,-125.5 896,-125.5"/>
<text text-anchor="middle" x="940.5" y="-132.5" font-family="Helvetica,sans-Serif" font-size="10.00">RenderableMesh</text>
</a>
</g>
</g>
<!-- Node25&#45;&gt;Node4 -->
<g id="edge25" class="edge">
<title>Node25&#45;&gt;Node4</title>
<path fill="none" stroke="#9a32cd" stroke-dasharray="5,2" d="M995.54,-132.74C1037.08,-132.74 1095.24,-136.52 1143,-154 1182.2,-168.34 1220.45,-200.99 1238.01,-217.32"/>
<polygon fill="#9a32cd" stroke="#9a32cd" points="995.33,-129.25 985.35,-132.82 995.38,-136.25 995.33,-129.25"/>
<text text-anchor="middle" x="1091" y="-157" font-family="Helvetica,sans-Serif" font-size="10.00"> mRenderableMesh</text>
</g>
<!-- Node26 -->
<g id="node23" class="node">
<title>Node26</title>
<g id="a_node23"><a xlink:href="../../d5/da0/classnap_1_1math_1_1_rect.html" target="_top" xlink:title="Rect">
<polygon fill="white" stroke="black" points="922,-87.5 922,-106.5 959,-106.5 959,-87.5 922,-87.5"/>
<text text-anchor="middle" x="940.5" y="-94.5" font-family="Helvetica,sans-Serif" font-size="10.00">Rect</text>
</a>
</g>
</g>
<!-- Node26&#45;&gt;Node4 -->
<g id="edge26" class="edge">
<title>Node26&#45;&gt;Node4</title>
<path fill="none" stroke="#9a32cd" stroke-dasharray="5,2" d="M969.18,-94.52C1009.57,-92.12 1086.05,-92.19 1143,-120 1190.01,-142.95 1227.93,-195.83 1242.05,-217.48"/>
<polygon fill="#9a32cd" stroke="#9a32cd" points="968.75,-91.05 959.02,-95.23 969.24,-98.03 968.75,-91.05"/>
<text text-anchor="middle" x="1091" y="-123" font-family="Helvetica,sans-Serif" font-size="10.00"> mClipRect</text>
</g>
</g>
</svg>
