<?xml version="1.0" encoding="UTF-8" standalone="no"?>
<!DOCTYPE svg PUBLIC "-//W3C//DTD SVG 1.1//EN"
 "http://www.w3.org/Graphics/SVG/1.1/DTD/svg11.dtd">
<!-- Generated by graphviz version 2.43.0 (0)
 -->
<!-- Title: TweenEaseBase&lt; T &gt; Pages: 1 -->
<svg width="328pt" height="1168pt"
 viewBox="0.00 0.00 328.00 1168.00" xmlns="http://www.w3.org/2000/svg" xmlns:xlink="http://www.w3.org/1999/xlink">
<g id="graph0" class="graph" transform="scale(1 1) rotate(0) translate(4 1164)">
<title>TweenEaseBase&lt; T &gt;</title>
<polygon fill="white" stroke="transparent" points="-4,4 -4,-1164 324,-1164 324,4 -4,4"/>
<!-- Node1 -->
<g id="node1" class="node">
<title>Node1</title>
<g id="a_node1"><a xlink:title=" ">
<polygon fill="#bfbfbf" stroke="black" points="0,-570.5 0,-589.5 123,-589.5 123,-570.5 0,-570.5"/>
<text text-anchor="middle" x="61.5" y="-577.5" font-family="Helvetica,sans-Serif" font-size="10.00">TweenEaseBase&lt; T &gt;</text>
</a>
</g>
</g>
<!-- Node2 -->
<g id="node2" class="node">
<title>Node2</title>
<g id="a_node2"><a xlink:href="../../da/dad/classnap_1_1_tween_ease_in_back.html" target="_top" xlink:title=" ">
<polygon fill="white" stroke="black" points="173.5,-1140.5 173.5,-1159.5 305.5,-1159.5 305.5,-1140.5 173.5,-1140.5"/>
<text text-anchor="middle" x="239.5" y="-1147.5" font-family="Helvetica,sans-Serif" font-size="10.00">TweenEaseInBack&lt; T &gt;</text>
</a>
</g>
</g>
<!-- Node1&#45;&gt;Node2 -->
<g id="edge1" class="edge">
<title>Node1&#45;&gt;Node2</title>
<path fill="none" stroke="midnightblue" d="M63.15,-599.75C66.46,-688.77 84.42,-1051.71 159,-1131 163.08,-1135.34 167.97,-1138.77 173.28,-1141.47"/>
<polygon fill="midnightblue" stroke="midnightblue" points="66.64,-599.55 62.79,-589.67 59.64,-599.79 66.64,-599.55"/>
</g>
<!-- Node3 -->
<g id="node3" class="node">
<title>Node3</title>
<g id="a_node3"><a xlink:href="../../d0/d1e/classnap_1_1_tween_ease_in_bounce.html" target="_top" xlink:title=" ">
<polygon fill="white" stroke="black" points="167.5,-1102.5 167.5,-1121.5 311.5,-1121.5 311.5,-1102.5 167.5,-1102.5"/>
<text text-anchor="middle" x="239.5" y="-1109.5" font-family="Helvetica,sans-Serif" font-size="10.00">TweenEaseInBounce&lt; T &gt;</text>
</a>
</g>
</g>
<!-- Node1&#45;&gt;Node3 -->
<g id="edge2" class="edge">
<title>Node1&#45;&gt;Node3</title>
<path fill="none" stroke="midnightblue" d="M63.44,-600C67.85,-685.59 89.38,-1019.91 159,-1093 162.62,-1096.8 166.86,-1099.9 171.45,-1102.42"/>
<polygon fill="midnightblue" stroke="midnightblue" points="66.92,-599.64 62.93,-589.83 59.93,-599.99 66.92,-599.64"/>
</g>
<!-- Node4 -->
<g id="node4" class="node">
<title>Node4</title>
<g id="a_node4"><a xlink:href="../../d6/d7a/classnap_1_1_tween_ease_in_circ.html" target="_top" xlink:title=" ">
<polygon fill="white" stroke="black" points="176,-1064.5 176,-1083.5 303,-1083.5 303,-1064.5 176,-1064.5"/>
<text text-anchor="middle" x="239.5" y="-1071.5" font-family="Helvetica,sans-Serif" font-size="10.00">TweenEaseInCirc&lt; T &gt;</text>
</a>
</g>
</g>
<!-- Node1&#45;&gt;Node4 -->
<g id="edge3" class="edge">
<title>Node1&#45;&gt;Node4</title>
<path fill="none" stroke="midnightblue" d="M63.79,-600.32C69.39,-682.38 94.35,-988.1 159,-1055 163.73,-1059.9 169.49,-1063.63 175.71,-1066.45"/>
<polygon fill="midnightblue" stroke="midnightblue" points="67.25,-599.64 63.1,-589.89 60.26,-600.1 67.25,-599.64"/>
</g>
<!-- Node5 -->
<g id="node5" class="node">
<title>Node5</title>
<g id="a_node5"><a xlink:href="../../d6/dba/classnap_1_1_tween_ease_in_cubic.html" target="_top" xlink:title=" ">
<polygon fill="white" stroke="black" points="172,-1026.5 172,-1045.5 307,-1045.5 307,-1026.5 172,-1026.5"/>
<text text-anchor="middle" x="239.5" y="-1033.5" font-family="Helvetica,sans-Serif" font-size="10.00">TweenEaseInCubic&lt; T &gt;</text>
</a>
</g>
</g>
<!-- Node1&#45;&gt;Node5 -->
<g id="edge4" class="edge">
<title>Node1&#45;&gt;Node5</title>
<path fill="none" stroke="midnightblue" d="M64.16,-600.17C70.95,-677.83 99.17,-956.13 159,-1017 162.78,-1020.85 167.19,-1023.97 171.96,-1026.5"/>
<polygon fill="midnightblue" stroke="midnightblue" points="67.62,-599.52 63.28,-589.86 60.64,-600.12 67.62,-599.52"/>
</g>
<!-- Node6 -->
<g id="node6" class="node">
<title>Node6</title>
<g id="a_node6"><a xlink:href="../../db/d58/classnap_1_1_tween_ease_in_elastic.html" target="_top" xlink:title=" ">
<polygon fill="white" stroke="black" points="169.5,-988.5 169.5,-1007.5 309.5,-1007.5 309.5,-988.5 169.5,-988.5"/>
<text text-anchor="middle" x="239.5" y="-995.5" font-family="Helvetica,sans-Serif" font-size="10.00">TweenEaseInElastic&lt; T &gt;</text>
</a>
</g>
</g>
<!-- Node1&#45;&gt;Node6 -->
<g id="edge5" class="edge">
<title>Node1&#45;&gt;Node6</title>
<path fill="none" stroke="midnightblue" d="M64.58,-599.82C72.6,-672.64 103.92,-924.06 159,-979 162.82,-982.81 167.25,-985.9 172.04,-988.42"/>
<polygon fill="midnightblue" stroke="midnightblue" points="68.04,-599.29 63.49,-589.72 61.08,-600.04 68.04,-599.29"/>
</g>
<!-- Node7 -->
<g id="node7" class="node">
<title>Node7</title>
<g id="a_node7"><a xlink:href="../../da/d3c/classnap_1_1_tween_ease_in_expo.html" target="_top" xlink:title=" ">
<polygon fill="white" stroke="black" points="173.5,-950.5 173.5,-969.5 305.5,-969.5 305.5,-950.5 173.5,-950.5"/>
<text text-anchor="middle" x="239.5" y="-957.5" font-family="Helvetica,sans-Serif" font-size="10.00">TweenEaseInExpo&lt; T &gt;</text>
</a>
</g>
</g>
<!-- Node1&#45;&gt;Node7 -->
<g id="edge6" class="edge">
<title>Node1&#45;&gt;Node7</title>
<path fill="none" stroke="midnightblue" d="M65.15,-600.1C74.61,-668.72 108.8,-892.12 159,-941 163.17,-945.06 168.04,-948.31 173.28,-950.89"/>
<polygon fill="midnightblue" stroke="midnightblue" points="68.57,-599.25 63.76,-589.81 61.63,-600.19 68.57,-599.25"/>
</g>
<!-- Node8 -->
<g id="node8" class="node">
<title>Node8</title>
<g id="a_node8"><a xlink:href="../../dd/d28/classnap_1_1_tween_ease_in_out_back.html" target="_top" xlink:title=" ">
<polygon fill="white" stroke="black" points="165,-912.5 165,-931.5 314,-931.5 314,-912.5 165,-912.5"/>
<text text-anchor="middle" x="239.5" y="-919.5" font-family="Helvetica,sans-Serif" font-size="10.00">TweenEaseInOutBack&lt; T &gt;</text>
</a>
</g>
</g>
<!-- Node1&#45;&gt;Node8 -->
<g id="edge7" class="edge">
<title>Node1&#45;&gt;Node8</title>
<path fill="none" stroke="midnightblue" d="M62.08,-599.71C62.01,-655.98 69.89,-818.72 159,-903 163.02,-906.8 167.66,-909.89 172.64,-912.39"/>
<polygon fill="midnightblue" stroke="midnightblue" points="65.58,-599.69 62.18,-589.66 58.58,-599.62 65.58,-599.69"/>
</g>
<!-- Node9 -->
<g id="node9" class="node">
<title>Node9</title>
<g id="a_node9"><a xlink:href="../../df/de2/classnap_1_1_tween_ease_in_out_bounce.html" target="_top" xlink:title=" ">
<polygon fill="white" stroke="black" points="159,-874.5 159,-893.5 320,-893.5 320,-874.5 159,-874.5"/>
<text text-anchor="middle" x="239.5" y="-881.5" font-family="Helvetica,sans-Serif" font-size="10.00">TweenEaseInOutBounce&lt; T &gt;</text>
</a>
</g>
</g>
<!-- Node1&#45;&gt;Node9 -->
<g id="edge8" class="edge">
<title>Node1&#45;&gt;Node9</title>
<path fill="none" stroke="midnightblue" d="M62.99,-599.77C65.4,-651.6 79.34,-792.34 159,-865 163.19,-868.83 168.02,-871.92 173.17,-874.42"/>
<polygon fill="midnightblue" stroke="midnightblue" points="66.48,-599.48 62.62,-589.61 59.49,-599.73 66.48,-599.48"/>
</g>
<!-- Node10 -->
<g id="node10" class="node">
<title>Node10</title>
<g id="a_node10"><a xlink:href="../../d7/d8c/classnap_1_1_tween_ease_in_out_circ.html" target="_top" xlink:title=" ">
<polygon fill="white" stroke="black" points="167.5,-836.5 167.5,-855.5 311.5,-855.5 311.5,-836.5 167.5,-836.5"/>
<text text-anchor="middle" x="239.5" y="-843.5" font-family="Helvetica,sans-Serif" font-size="10.00">TweenEaseInOutCirc&lt; T &gt;</text>
</a>
</g>
</g>
<!-- Node1&#45;&gt;Node10 -->
<g id="edge9" class="edge">
<title>Node1&#45;&gt;Node10</title>
<path fill="none" stroke="midnightblue" d="M64.15,-599.64C69.18,-646.53 88.6,-765.69 159,-827 163.39,-830.82 168.41,-833.91 173.75,-836.39"/>
<polygon fill="midnightblue" stroke="midnightblue" points="67.62,-599.2 63.18,-589.58 60.66,-599.87 67.62,-599.2"/>
</g>
<!-- Node11 -->
<g id="node11" class="node">
<title>Node11</title>
<g id="a_node11"><a xlink:href="../../de/d30/classnap_1_1_tween_ease_in_out_cubic.html" target="_top" xlink:title=" ">
<polygon fill="white" stroke="black" points="163.5,-798.5 163.5,-817.5 315.5,-817.5 315.5,-798.5 163.5,-798.5"/>
<text text-anchor="middle" x="239.5" y="-805.5" font-family="Helvetica,sans-Serif" font-size="10.00">TweenEaseInOutCubic&lt; T &gt;</text>
</a>
</g>
</g>
<!-- Node1&#45;&gt;Node11 -->
<g id="edge10" class="edge">
<title>Node1&#45;&gt;Node11</title>
<path fill="none" stroke="midnightblue" d="M65.71,-599.69C73.57,-641.39 97.83,-738.88 159,-789 163.72,-792.87 169.1,-795.97 174.78,-798.46"/>
<polygon fill="midnightblue" stroke="midnightblue" points="69.13,-598.94 63.94,-589.71 62.24,-600.16 69.13,-598.94"/>
</g>
<!-- Node12 -->
<g id="node12" class="node">
<title>Node12</title>
<g id="a_node12"><a xlink:href="../../dd/dc8/classnap_1_1_tween_ease_in_out_elastic.html" target="_top" xlink:title=" ">
<polygon fill="white" stroke="black" points="160.5,-760.5 160.5,-779.5 318.5,-779.5 318.5,-760.5 160.5,-760.5"/>
<text text-anchor="middle" x="239.5" y="-767.5" font-family="Helvetica,sans-Serif" font-size="10.00">TweenEaseInOutElastic&lt; T &gt;</text>
</a>
</g>
</g>
<!-- Node1&#45;&gt;Node12 -->
<g id="edge11" class="edge">
<title>Node1&#45;&gt;Node12</title>
<path fill="none" stroke="midnightblue" d="M67.76,-599.26C78.55,-635.02 106.7,-711.58 159,-751 164.1,-754.84 169.86,-757.92 175.9,-760.39"/>
<polygon fill="midnightblue" stroke="midnightblue" points="71.09,-598.2 64.96,-589.56 64.37,-600.14 71.09,-598.2"/>
</g>
<!-- Node13 -->
<g id="node13" class="node">
<title>Node13</title>
<g id="a_node13"><a xlink:href="../../d3/d2b/classnap_1_1_tween_ease_in_out_expo.html" target="_top" xlink:title=" ">
<polygon fill="white" stroke="black" points="165,-722.5 165,-741.5 314,-741.5 314,-722.5 165,-722.5"/>
<text text-anchor="middle" x="239.5" y="-729.5" font-family="Helvetica,sans-Serif" font-size="10.00">TweenEaseInOutExpo&lt; T &gt;</text>
</a>
</g>
</g>
<!-- Node1&#45;&gt;Node13 -->
<g id="edge12" class="edge">
<title>Node1&#45;&gt;Node13</title>
<path fill="none" stroke="midnightblue" d="M70.69,-598.6C84.5,-627.73 115.28,-683.8 159,-713 164.78,-716.86 171.26,-719.94 177.96,-722.4"/>
<polygon fill="midnightblue" stroke="midnightblue" points="73.87,-597.13 66.51,-589.5 67.5,-600.05 73.87,-597.13"/>
</g>
<!-- Node14 -->
<g id="node14" class="node">
<title>Node14</title>
<g id="a_node14"><a xlink:href="../../df/dc4/classnap_1_1_tween_ease_in_out_quad.html" target="_top" xlink:title=" ">
<polygon fill="white" stroke="black" points="164,-684.5 164,-703.5 315,-703.5 315,-684.5 164,-684.5"/>
<text text-anchor="middle" x="239.5" y="-691.5" font-family="Helvetica,sans-Serif" font-size="10.00">TweenEaseInOutQuad&lt; T &gt;</text>
</a>
</g>
</g>
<!-- Node1&#45;&gt;Node14 -->
<g id="edge13" class="edge">
<title>Node1&#45;&gt;Node14</title>
<path fill="none" stroke="midnightblue" d="M75.35,-597.54C92.13,-619.14 123.58,-655.37 159,-675 165.95,-678.85 173.66,-681.93 181.48,-684.38"/>
<polygon fill="midnightblue" stroke="midnightblue" points="78.11,-595.38 69.28,-589.53 72.53,-599.61 78.11,-595.38"/>
</g>
<!-- Node15 -->
<g id="node15" class="node">
<title>Node15</title>
<g id="a_node15"><a xlink:href="../../d0/d12/classnap_1_1_tween_ease_in_out_quart.html" target="_top" xlink:title=" ">
<polygon fill="white" stroke="black" points="163.5,-646.5 163.5,-665.5 315.5,-665.5 315.5,-646.5 163.5,-646.5"/>
<text text-anchor="middle" x="239.5" y="-653.5" font-family="Helvetica,sans-Serif" font-size="10.00">TweenEaseInOutQuart&lt; T &gt;</text>
</a>
</g>
</g>
<!-- Node1&#45;&gt;Node15 -->
<g id="edge14" class="edge">
<title>Node1&#45;&gt;Node15</title>
<path fill="none" stroke="midnightblue" d="M84.37,-595.5C103.31,-608.28 131.87,-626.04 159,-637 168.34,-640.78 178.62,-643.92 188.59,-646.49"/>
<polygon fill="midnightblue" stroke="midnightblue" points="86.11,-592.45 75.89,-589.68 82.15,-598.22 86.11,-592.45"/>
</g>
<!-- Node16 -->
<g id="node16" class="node">
<title>Node16</title>
<g id="a_node16"><a xlink:href="../../de/d99/classnap_1_1_tween_ease_in_out_quint.html" target="_top" xlink:title=" ">
<polygon fill="white" stroke="black" points="163.5,-608.5 163.5,-627.5 315.5,-627.5 315.5,-608.5 163.5,-608.5"/>
<text text-anchor="middle" x="239.5" y="-615.5" font-family="Helvetica,sans-Serif" font-size="10.00">TweenEaseInOutQuint&lt; T &gt;</text>
</a>
</g>
</g>
<!-- Node1&#45;&gt;Node16 -->
<g id="edge15" class="edge">
<title>Node1&#45;&gt;Node16</title>
<path fill="none" stroke="midnightblue" d="M116.93,-591.75C141.82,-597.13 170.92,-603.41 194.41,-608.48"/>
<polygon fill="midnightblue" stroke="midnightblue" points="117.43,-588.28 106.91,-589.59 115.95,-595.12 117.43,-588.28"/>
</g>
<!-- Node17 -->
<g id="node17" class="node">
<title>Node17</title>
<g id="a_node17"><a xlink:href="../../d1/d4b/classnap_1_1_tween_ease_in_out_sine.html" target="_top" xlink:title=" ">
<polygon fill="white" stroke="black" points="166.5,-570.5 166.5,-589.5 312.5,-589.5 312.5,-570.5 166.5,-570.5"/>
<text text-anchor="middle" x="239.5" y="-577.5" font-family="Helvetica,sans-Serif" font-size="10.00">TweenEaseInOutSine&lt; T &gt;</text>
</a>
</g>
</g>
<!-- Node1&#45;&gt;Node17 -->
<g id="edge16" class="edge">
<title>Node1&#45;&gt;Node17</title>
<path fill="none" stroke="midnightblue" d="M133.34,-580C144.19,-580 155.41,-580 166.29,-580"/>
<polygon fill="midnightblue" stroke="midnightblue" points="133.07,-576.5 123.07,-580 133.07,-583.5 133.07,-576.5"/>
</g>
<!-- Node18 -->
<g id="node18" class="node">
<title>Node18</title>
<g id="a_node18"><a xlink:href="../../dd/da1/classnap_1_1_tween_ease_in_quad.html" target="_top" xlink:title=" ">
<polygon fill="white" stroke="black" points="172.5,-532.5 172.5,-551.5 306.5,-551.5 306.5,-532.5 172.5,-532.5"/>
<text text-anchor="middle" x="239.5" y="-539.5" font-family="Helvetica,sans-Serif" font-size="10.00">TweenEaseInQuad&lt; T &gt;</text>
</a>
</g>
</g>
<!-- Node1&#45;&gt;Node18 -->
<g id="edge17" class="edge">
<title>Node1&#45;&gt;Node18</title>
<path fill="none" stroke="midnightblue" d="M116.93,-568.25C141.82,-562.87 170.92,-556.59 194.41,-551.52"/>
<polygon fill="midnightblue" stroke="midnightblue" points="115.95,-564.88 106.91,-570.41 117.43,-571.72 115.95,-564.88"/>
</g>
<!-- Node19 -->
<g id="node19" class="node">
<title>Node19</title>
<g id="a_node19"><a xlink:href="../../df/d64/classnap_1_1_tween_ease_in_quart.html" target="_top" xlink:title=" ">
<polygon fill="white" stroke="black" points="172,-494.5 172,-513.5 307,-513.5 307,-494.5 172,-494.5"/>
<text text-anchor="middle" x="239.5" y="-501.5" font-family="Helvetica,sans-Serif" font-size="10.00">TweenEaseInQuart&lt; T &gt;</text>
</a>
</g>
</g>
<!-- Node1&#45;&gt;Node19 -->
<g id="edge18" class="edge">
<title>Node1&#45;&gt;Node19</title>
<path fill="none" stroke="midnightblue" d="M84.37,-564.5C103.31,-551.72 131.87,-533.96 159,-523 168.34,-519.22 178.62,-516.08 188.59,-513.51"/>
<polygon fill="midnightblue" stroke="midnightblue" points="82.15,-561.78 75.89,-570.32 86.11,-567.55 82.15,-561.78"/>
</g>
<!-- Node20 -->
<g id="node20" class="node">
<title>Node20</title>
<g id="a_node20"><a xlink:href="../../d8/d83/classnap_1_1_tween_ease_in_quint.html" target="_top" xlink:title=" ">
<polygon fill="white" stroke="black" points="172.5,-456.5 172.5,-475.5 306.5,-475.5 306.5,-456.5 172.5,-456.5"/>
<text text-anchor="middle" x="239.5" y="-463.5" font-family="Helvetica,sans-Serif" font-size="10.00">TweenEaseInQuint&lt; T &gt;</text>
</a>
</g>
</g>
<!-- Node1&#45;&gt;Node20 -->
<g id="edge19" class="edge">
<title>Node1&#45;&gt;Node20</title>
<path fill="none" stroke="midnightblue" d="M75.35,-562.46C92.13,-540.86 123.58,-504.63 159,-485 165.95,-481.15 173.66,-478.07 181.48,-475.62"/>
<polygon fill="midnightblue" stroke="midnightblue" points="72.53,-560.39 69.28,-570.47 78.11,-564.62 72.53,-560.39"/>
</g>
<!-- Node21 -->
<g id="node21" class="node">
<title>Node21</title>
<g id="a_node21"><a xlink:href="../../d6/d2b/classnap_1_1_tween_ease_in_sine.html" target="_top" xlink:title=" ">
<polygon fill="white" stroke="black" points="175,-418.5 175,-437.5 304,-437.5 304,-418.5 175,-418.5"/>
<text text-anchor="middle" x="239.5" y="-425.5" font-family="Helvetica,sans-Serif" font-size="10.00">TweenEaseInSine&lt; T &gt;</text>
</a>
</g>
</g>
<!-- Node1&#45;&gt;Node21 -->
<g id="edge20" class="edge">
<title>Node1&#45;&gt;Node21</title>
<path fill="none" stroke="midnightblue" d="M70.69,-561.4C84.5,-532.27 115.28,-476.2 159,-447 164.78,-443.14 171.26,-440.06 177.96,-437.6"/>
<polygon fill="midnightblue" stroke="midnightblue" points="67.5,-559.95 66.51,-570.5 73.87,-562.87 67.5,-559.95"/>
</g>
<!-- Node22 -->
<g id="node22" class="node">
<title>Node22</title>
<g id="a_node22"><a xlink:href="../../d6/d91/classnap_1_1_tween_ease_linear.html" target="_top" xlink:title=" ">
<polygon fill="white" stroke="black" points="175,-380.5 175,-399.5 304,-399.5 304,-380.5 175,-380.5"/>
<text text-anchor="middle" x="239.5" y="-387.5" font-family="Helvetica,sans-Serif" font-size="10.00">TweenEaseLinear&lt; T &gt;</text>
</a>
</g>
</g>
<!-- Node1&#45;&gt;Node22 -->
<g id="edge21" class="edge">
<title>Node1&#45;&gt;Node22</title>
<path fill="none" stroke="midnightblue" d="M67.76,-560.74C78.55,-524.98 106.7,-448.42 159,-409 164.1,-405.16 169.86,-402.08 175.9,-399.61"/>
<polygon fill="midnightblue" stroke="midnightblue" points="64.37,-559.86 64.96,-570.44 71.09,-561.8 64.37,-559.86"/>
</g>
<!-- Node23 -->
<g id="node23" class="node">
<title>Node23</title>
<g id="a_node23"><a xlink:href="../../d3/d08/classnap_1_1_tween_ease_out_back.html" target="_top" xlink:title=" ">
<polygon fill="white" stroke="black" points="169.5,-342.5 169.5,-361.5 309.5,-361.5 309.5,-342.5 169.5,-342.5"/>
<text text-anchor="middle" x="239.5" y="-349.5" font-family="Helvetica,sans-Serif" font-size="10.00">TweenEaseOutBack&lt; T &gt;</text>
</a>
</g>
</g>
<!-- Node1&#45;&gt;Node23 -->
<g id="edge22" class="edge">
<title>Node1&#45;&gt;Node23</title>
<path fill="none" stroke="midnightblue" d="M65.71,-560.31C73.57,-518.61 97.83,-421.12 159,-371 163.72,-367.13 169.1,-364.03 174.78,-361.54"/>
<polygon fill="midnightblue" stroke="midnightblue" points="62.24,-559.84 63.94,-570.29 69.13,-561.06 62.24,-559.84"/>
</g>
<!-- Node24 -->
<g id="node24" class="node">
<title>Node24</title>
<g id="a_node24"><a xlink:href="../../d6/d42/classnap_1_1_tween_ease_out_bounce.html" target="_top" xlink:title=" ">
<polygon fill="white" stroke="black" points="163.5,-304.5 163.5,-323.5 315.5,-323.5 315.5,-304.5 163.5,-304.5"/>
<text text-anchor="middle" x="239.5" y="-311.5" font-family="Helvetica,sans-Serif" font-size="10.00">TweenEaseOutBounce&lt; T &gt;</text>
</a>
</g>
</g>
<!-- Node1&#45;&gt;Node24 -->
<g id="edge23" class="edge">
<title>Node1&#45;&gt;Node24</title>
<path fill="none" stroke="midnightblue" d="M64.15,-560.36C69.18,-513.47 88.6,-394.31 159,-333 163.39,-329.18 168.41,-326.09 173.75,-323.61"/>
<polygon fill="midnightblue" stroke="midnightblue" points="60.66,-560.13 63.18,-570.42 67.62,-560.8 60.66,-560.13"/>
</g>
<!-- Node25 -->
<g id="node25" class="node">
<title>Node25</title>
<g id="a_node25"><a xlink:href="../../de/d99/classnap_1_1_tween_ease_out_circ.html" target="_top" xlink:title=" ">
<polygon fill="white" stroke="black" points="172,-266.5 172,-285.5 307,-285.5 307,-266.5 172,-266.5"/>
<text text-anchor="middle" x="239.5" y="-273.5" font-family="Helvetica,sans-Serif" font-size="10.00">TweenEaseOutCirc&lt; T &gt;</text>
</a>
</g>
</g>
<!-- Node1&#45;&gt;Node25 -->
<g id="edge24" class="edge">
<title>Node1&#45;&gt;Node25</title>
<path fill="none" stroke="midnightblue" d="M62.99,-560.23C65.4,-508.4 79.34,-367.66 159,-295 163.19,-291.17 168.02,-288.08 173.17,-285.58"/>
<polygon fill="midnightblue" stroke="midnightblue" points="59.49,-560.27 62.62,-570.39 66.48,-560.52 59.49,-560.27"/>
</g>
<!-- Node26 -->
<g id="node26" class="node">
<title>Node26</title>
<g id="a_node26"><a xlink:href="../../dc/d9c/classnap_1_1_tween_ease_out_cubic.html" target="_top" xlink:title=" ">
<polygon fill="white" stroke="black" points="168,-228.5 168,-247.5 311,-247.5 311,-228.5 168,-228.5"/>
<text text-anchor="middle" x="239.5" y="-235.5" font-family="Helvetica,sans-Serif" font-size="10.00">TweenEaseOutCubic&lt; T &gt;</text>
</a>
</g>
</g>
<!-- Node1&#45;&gt;Node26 -->
<g id="edge25" class="edge">
<title>Node1&#45;&gt;Node26</title>
<path fill="none" stroke="midnightblue" d="M62.08,-560.29C62.01,-504.02 69.89,-341.28 159,-257 163.02,-253.2 167.66,-250.11 172.64,-247.61"/>
<polygon fill="midnightblue" stroke="midnightblue" points="58.58,-560.38 62.18,-570.34 65.58,-560.31 58.58,-560.38"/>
</g>
<!-- Node27 -->
<g id="node27" class="node">
<title>Node27</title>
<g id="a_node27"><a xlink:href="../../d3/dc5/classnap_1_1_tween_ease_out_elastic.html" target="_top" xlink:title=" ">
<polygon fill="white" stroke="black" points="165,-190.5 165,-209.5 314,-209.5 314,-190.5 165,-190.5"/>
<text text-anchor="middle" x="239.5" y="-197.5" font-family="Helvetica,sans-Serif" font-size="10.00">TweenEaseOutElastic&lt; T &gt;</text>
</a>
</g>
</g>
<!-- Node1&#45;&gt;Node27 -->
<g id="edge26" class="edge">
<title>Node1&#45;&gt;Node27</title>
<path fill="none" stroke="midnightblue" d="M65.15,-559.9C74.61,-491.28 108.8,-267.88 159,-219 162.86,-215.24 167.33,-212.17 172.14,-209.68"/>
<polygon fill="midnightblue" stroke="midnightblue" points="61.63,-559.81 63.76,-570.19 68.57,-560.75 61.63,-559.81"/>
</g>
<!-- Node28 -->
<g id="node28" class="node">
<title>Node28</title>
<g id="a_node28"><a xlink:href="../../de/dbc/classnap_1_1_tween_ease_out_expo.html" target="_top" xlink:title=" ">
<polygon fill="white" stroke="black" points="169.5,-152.5 169.5,-171.5 309.5,-171.5 309.5,-152.5 169.5,-152.5"/>
<text text-anchor="middle" x="239.5" y="-159.5" font-family="Helvetica,sans-Serif" font-size="10.00">TweenEaseOutExpo&lt; T &gt;</text>
</a>
</g>
</g>
<!-- Node1&#45;&gt;Node28 -->
<g id="edge27" class="edge">
<title>Node1&#45;&gt;Node28</title>
<path fill="none" stroke="midnightblue" d="M64.58,-560.18C72.6,-487.36 103.92,-235.94 159,-181 162.82,-177.19 167.25,-174.1 172.04,-171.58"/>
<polygon fill="midnightblue" stroke="midnightblue" points="61.08,-559.96 63.49,-570.28 68.04,-560.71 61.08,-559.96"/>
</g>
<!-- Node29 -->
<g id="node29" class="node">
<title>Node29</title>
<g id="a_node29"><a xlink:href="../../d5/d17/classnap_1_1_tween_ease_out_quad.html" target="_top" xlink:title=" ">
<polygon fill="white" stroke="black" points="168.5,-114.5 168.5,-133.5 310.5,-133.5 310.5,-114.5 168.5,-114.5"/>
<text text-anchor="middle" x="239.5" y="-121.5" font-family="Helvetica,sans-Serif" font-size="10.00">TweenEaseOutQuad&lt; T &gt;</text>
</a>
</g>
</g>
<!-- Node1&#45;&gt;Node29 -->
<g id="edge28" class="edge">
<title>Node1&#45;&gt;Node29</title>
<path fill="none" stroke="midnightblue" d="M64.16,-559.83C70.95,-482.17 99.17,-203.87 159,-143 162.78,-139.15 167.19,-136.03 171.96,-133.5"/>
<polygon fill="midnightblue" stroke="midnightblue" points="60.64,-559.88 63.28,-570.14 67.62,-560.48 60.64,-559.88"/>
</g>
<!-- Node30 -->
<g id="node30" class="node">
<title>Node30</title>
<g id="a_node30"><a xlink:href="../../d8/d67/classnap_1_1_tween_ease_out_quart.html" target="_top" xlink:title=" ">
<polygon fill="white" stroke="black" points="168,-76.5 168,-95.5 311,-95.5 311,-76.5 168,-76.5"/>
<text text-anchor="middle" x="239.5" y="-83.5" font-family="Helvetica,sans-Serif" font-size="10.00">TweenEaseOutQuart&lt; T &gt;</text>
</a>
</g>
</g>
<!-- Node1&#45;&gt;Node30 -->
<g id="edge29" class="edge">
<title>Node1&#45;&gt;Node30</title>
<path fill="none" stroke="midnightblue" d="M63.79,-559.68C69.39,-477.62 94.35,-171.9 159,-105 162.65,-101.22 166.9,-98.14 171.51,-95.63"/>
<polygon fill="midnightblue" stroke="midnightblue" points="60.26,-559.9 63.1,-570.11 67.25,-560.36 60.26,-559.9"/>
</g>
<!-- Node31 -->
<g id="node31" class="node">
<title>Node31</title>
<g id="a_node31"><a xlink:href="../../d3/d13/classnap_1_1_tween_ease_out_quint.html" target="_top" xlink:title=" ">
<polygon fill="white" stroke="black" points="168,-38.5 168,-57.5 311,-57.5 311,-38.5 168,-38.5"/>
<text text-anchor="middle" x="239.5" y="-45.5" font-family="Helvetica,sans-Serif" font-size="10.00">TweenEaseOutQuint&lt; T &gt;</text>
</a>
</g>
</g>
<!-- Node1&#45;&gt;Node31 -->
<g id="edge30" class="edge">
<title>Node1&#45;&gt;Node31</title>
<path fill="none" stroke="midnightblue" d="M63.44,-560C67.85,-474.41 89.38,-140.09 159,-67 162.62,-63.2 166.86,-60.1 171.45,-57.58"/>
<polygon fill="midnightblue" stroke="midnightblue" points="59.93,-560.01 62.93,-570.17 66.92,-560.36 59.93,-560.01"/>
</g>
<!-- Node32 -->
<g id="node32" class="node">
<title>Node32</title>
<g id="a_node32"><a xlink:href="../../da/d97/classnap_1_1_tween_ease_out_sine.html" target="_top" xlink:title=" ">
<polygon fill="white" stroke="black" points="171,-0.5 171,-19.5 308,-19.5 308,-0.5 171,-0.5"/>
<text text-anchor="middle" x="239.5" y="-7.5" font-family="Helvetica,sans-Serif" font-size="10.00">TweenEaseOutSine&lt; T &gt;</text>
</a>
</g>
</g>
<!-- Node1&#45;&gt;Node32 -->
<g id="edge31" class="edge">
<title>Node1&#45;&gt;Node32</title>
<path fill="none" stroke="midnightblue" d="M63.15,-560.25C66.46,-471.23 84.42,-108.29 159,-29 162.6,-25.18 166.82,-22.06 171.4,-19.53"/>
<polygon fill="midnightblue" stroke="midnightblue" points="59.64,-560.21 62.79,-570.33 66.64,-560.45 59.64,-560.21"/>
</g>
</g>
</svg>
