<?xml version="1.0" encoding="UTF-8" standalone="no"?>
<!DOCTYPE svg PUBLIC "-//W3C//DTD SVG 1.1//EN"
 "http://www.w3.org/Graphics/SVG/1.1/DTD/svg11.dtd">
<!-- Generated by graphviz version 2.43.0 (0)
 -->
<!-- Title: VertexBuffer&lt; T &gt; Pages: 1 -->
<svg width="344pt" height="365pt"
 viewBox="0.00 0.00 344.00 365.00" xmlns="http://www.w3.org/2000/svg" xmlns:xlink="http://www.w3.org/1999/xlink">
<g id="graph0" class="graph" transform="scale(1 1) rotate(0) translate(4 361)">
<title>VertexBuffer&lt; T &gt;</title>
<polygon fill="white" stroke="transparent" points="-4,4 -4,-361 340,-361 340,4 -4,4"/>
<!-- Node1 -->
<g id="node1" class="node">
<title>Node1</title>
<g id="a_node1"><a xlink:title=" ">
<polygon fill="#bfbfbf" stroke="black" points="141,-0.5 141,-19.5 247,-19.5 247,-0.5 141,-0.5"/>
<text text-anchor="middle" x="194" y="-7.5" font-family="Helvetica,sans-Serif" font-size="10.00">VertexBuffer&lt; T &gt;</text>
</a>
</g>
</g>
<!-- Node2 -->
<g id="node2" class="node">
<title>Node2</title>
<g id="a_node2"><a xlink:href="../../d4/d83/classnap_1_1_typed_g_p_u_buffer_numeric.html" target="_top" xlink:title=" ">
<polygon fill="white" stroke="black" points="111.5,-57.5 111.5,-76.5 276.5,-76.5 276.5,-57.5 111.5,-57.5"/>
<text text-anchor="middle" x="194" y="-64.5" font-family="Helvetica,sans-Serif" font-size="10.00">TypedGPUBufferNumeric&lt; T &gt;</text>
</a>
</g>
</g>
<!-- Node2&#45;&gt;Node1 -->
<g id="edge1" class="edge">
<title>Node2&#45;&gt;Node1</title>
<path fill="none" stroke="midnightblue" d="M194,-47.12C194,-37.82 194,-27.06 194,-19.71"/>
<polygon fill="midnightblue" stroke="midnightblue" points="190.5,-47.41 194,-57.41 197.5,-47.41 190.5,-47.41"/>
</g>
<!-- Node3 -->
<g id="node3" class="node">
<title>Node3</title>
<g id="a_node3"><a xlink:href="../../dd/d69/classnap_1_1_g_p_u_buffer_numeric.html" target="_top" xlink:title=" ">
<polygon fill="white" stroke="black" points="70,-130 70,-149 178,-149 178,-130 70,-130"/>
<text text-anchor="middle" x="124" y="-137" font-family="Helvetica,sans-Serif" font-size="10.00">GPUBufferNumeric</text>
</a>
</g>
</g>
<!-- Node3&#45;&gt;Node2 -->
<g id="edge2" class="edge">
<title>Node3&#45;&gt;Node2</title>
<path fill="none" stroke="midnightblue" d="M139.7,-122.69C153.79,-108.49 173.97,-88.17 185.35,-76.72"/>
<polygon fill="midnightblue" stroke="midnightblue" points="137.15,-120.29 132.58,-129.86 142.11,-125.23 137.15,-120.29"/>
</g>
<!-- Node4 -->
<g id="node4" class="node">
<title>Node4</title>
<g id="a_node4"><a xlink:href="../../dd/df4/classnap_1_1_g_p_u_buffer.html" target="_top" xlink:title=" ">
<polygon fill="white" stroke="black" points="90.5,-192.5 90.5,-211.5 157.5,-211.5 157.5,-192.5 90.5,-192.5"/>
<text text-anchor="middle" x="124" y="-199.5" font-family="Helvetica,sans-Serif" font-size="10.00">GPUBuffer</text>
</a>
</g>
</g>
<!-- Node4&#45;&gt;Node3 -->
<g id="edge3" class="edge">
<title>Node4&#45;&gt;Node3</title>
<path fill="none" stroke="midnightblue" d="M124,-182C124,-171 124,-157.68 124,-149.15"/>
<polygon fill="midnightblue" stroke="midnightblue" points="120.5,-182.33 124,-192.33 127.5,-182.33 120.5,-182.33"/>
</g>
<!-- Node5 -->
<g id="node5" class="node">
<title>Node5</title>
<g id="a_node5"><a xlink:href="../../d9/dea/classnap_1_1_resource.html" target="_top" xlink:title=" ">
<polygon fill="white" stroke="black" points="0,-259.5 0,-278.5 62,-278.5 62,-259.5 0,-259.5"/>
<text text-anchor="middle" x="31" y="-266.5" font-family="Helvetica,sans-Serif" font-size="10.00">Resource</text>
</a>
</g>
</g>
<!-- Node5&#45;&gt;Node4 -->
<g id="edge4" class="edge">
<title>Node5&#45;&gt;Node4</title>
<path fill="none" stroke="midnightblue" d="M51.86,-253.42C70.25,-240.57 96.41,-222.28 111.66,-211.63"/>
<polygon fill="midnightblue" stroke="midnightblue" points="49.73,-250.64 43.54,-259.23 53.74,-256.37 49.73,-250.64"/>
</g>
<!-- Node6 -->
<g id="node6" class="node">
<title>Node6</title>
<g id="a_node6"><a xlink:href="../../de/d01/classnap_1_1rtti_1_1_object.html" target="_top" xlink:title=" ">
<polygon fill="white" stroke="black" points="7,-337.5 7,-356.5 55,-356.5 55,-337.5 7,-337.5"/>
<text text-anchor="middle" x="31" y="-344.5" font-family="Helvetica,sans-Serif" font-size="10.00">Object</text>
</a>
</g>
</g>
<!-- Node6&#45;&gt;Node5 -->
<g id="edge5" class="edge">
<title>Node6&#45;&gt;Node5</title>
<path fill="none" stroke="midnightblue" d="M31,-327.22C31,-311.7 31,-290.36 31,-278.62"/>
<polygon fill="midnightblue" stroke="midnightblue" points="27.5,-327.28 31,-337.28 34.5,-327.28 27.5,-327.28"/>
</g>
<!-- Node7 -->
<g id="node7" class="node">
<title>Node7</title>
<g id="a_node7"><a xlink:href="../../d5/dc6/classnap_1_1_render_service.html" target="_top" xlink:title=" ">
<polygon fill="white" stroke="black" points="80.5,-259.5 80.5,-278.5 167.5,-278.5 167.5,-259.5 80.5,-259.5"/>
<text text-anchor="middle" x="124" y="-266.5" font-family="Helvetica,sans-Serif" font-size="10.00">RenderService</text>
</a>
</g>
</g>
<!-- Node7&#45;&gt;Node4 -->
<g id="edge6" class="edge">
<title>Node7&#45;&gt;Node4</title>
<path fill="none" stroke="#9a32cd" stroke-dasharray="5,2" d="M124,-249.04C124,-236.67 124,-221.12 124,-211.63"/>
<polygon fill="#9a32cd" stroke="#9a32cd" points="120.5,-249.23 124,-259.23 127.5,-249.23 120.5,-249.23"/>
<text text-anchor="middle" x="166" y="-233" font-family="Helvetica,sans-Serif" font-size="10.00"> mRenderService</text>
</g>
<!-- Node8 -->
<g id="node8" class="node">
<title>Node8</title>
<g id="a_node8"><a xlink:href="../../d8/d8e/classnap_1_1_service.html" target="_top" xlink:title=" ">
<polygon fill="white" stroke="black" points="85.5,-337.5 85.5,-356.5 138.5,-356.5 138.5,-337.5 85.5,-337.5"/>
<text text-anchor="middle" x="112" y="-344.5" font-family="Helvetica,sans-Serif" font-size="10.00">Service</text>
</a>
</g>
</g>
<!-- Node8&#45;&gt;Node7 -->
<g id="edge7" class="edge">
<title>Node8&#45;&gt;Node7</title>
<path fill="none" stroke="midnightblue" d="M114.96,-327.22C117.42,-311.7 120.79,-290.36 122.64,-278.62"/>
<polygon fill="midnightblue" stroke="midnightblue" points="111.48,-326.86 113.38,-337.28 118.39,-327.95 111.48,-326.86"/>
</g>
<!-- Node9 -->
<g id="node9" class="node">
<title>Node9</title>
<g id="a_node9"><a xlink:href="../../de/d80/classnap_1_1_signal.html" target="_top" xlink:title=" ">
<polygon fill="white" stroke="black" points="156.5,-337.5 156.5,-356.5 333.5,-356.5 333.5,-337.5 156.5,-337.5"/>
<text text-anchor="middle" x="245" y="-344.5" font-family="Helvetica,sans-Serif" font-size="10.00">Signal&lt; nap::RenderWindow &amp; &gt;</text>
</a>
</g>
</g>
<!-- Node9&#45;&gt;Node7 -->
<g id="edge8" class="edge">
<title>Node9&#45;&gt;Node7</title>
<path fill="none" stroke="#9a32cd" stroke-dasharray="5,2" d="M222.35,-331.77C197.47,-316.15 158.32,-291.56 137.72,-278.62"/>
<polygon fill="#9a32cd" stroke="#9a32cd" points="220.79,-334.93 231.12,-337.28 224.51,-329 220.79,-334.93"/>
<text text-anchor="middle" x="243" y="-311" font-family="Helvetica,sans-Serif" font-size="10.00"> windowRemoved</text>
<text text-anchor="middle" x="243" y="-300" font-family="Helvetica,sans-Serif" font-size="10.00">windowAdded</text>
</g>
<!-- Node10 -->
<g id="node10" class="node">
<title>Node10</title>
<g id="a_node10"><a xlink:href="../../de/d80/classnap_1_1_signal.html" target="_top" xlink:title=" ">
<polygon fill="white" stroke="black" points="185.5,-259.5 185.5,-278.5 276.5,-278.5 276.5,-259.5 185.5,-259.5"/>
<text text-anchor="middle" x="231" y="-266.5" font-family="Helvetica,sans-Serif" font-size="10.00">Signal&lt; Args &gt;</text>
</a>
</g>
</g>
<!-- Node10&#45;&gt;Node4 -->
<g id="edge9" class="edge">
<title>Node10&#45;&gt;Node4</title>
<path fill="none" stroke="#9a32cd" stroke-dasharray="5,2" d="M223.83,-249.66C220.29,-242.66 215.39,-235.13 209,-230 194.39,-218.27 174.61,-211.59 157.8,-207.82"/>
<polygon fill="#9a32cd" stroke="#9a32cd" points="220.8,-251.47 228.05,-259.2 227.21,-248.64 220.8,-251.47"/>
<text text-anchor="middle" x="256.5" y="-233" font-family="Helvetica,sans-Serif" font-size="10.00"> bufferChanged</text>
</g>
<!-- Node11 -->
<g id="node11" class="node">
<title>Node11</title>
<g id="a_node11"><a xlink:href="../../dd/d7c/classnap_1_1rtti_1_1_object_ptr.html" target="_top" xlink:title=" ">
<polygon fill="white" stroke="black" points="196,-124.5 196,-154.5 336,-154.5 336,-124.5 196,-124.5"/>
<text text-anchor="start" x="204" y="-142.5" font-family="Helvetica,sans-Serif" font-size="10.00">ObjectPtr&lt; nap::FillPolicy</text>
<text text-anchor="middle" x="266" y="-131.5" font-family="Helvetica,sans-Serif" font-size="10.00">&lt; T &gt; &gt;</text>
</a>
</g>
</g>
<!-- Node11&#45;&gt;Node2 -->
<g id="edge10" class="edge">
<title>Node11&#45;&gt;Node2</title>
<path fill="none" stroke="#9a32cd" stroke-dasharray="5,2" d="M244.18,-117.14C230.41,-103.65 213.34,-86.94 203.08,-76.89"/>
<polygon fill="#9a32cd" stroke="#9a32cd" points="241.84,-119.74 251.43,-124.23 246.73,-114.74 241.84,-119.74"/>
<text text-anchor="middle" x="261.5" y="-98" font-family="Helvetica,sans-Serif" font-size="10.00"> mFillPolicy</text>
</g>
<!-- Node12 -->
<g id="node12" class="node">
<title>Node12</title>
<g id="a_node12"><a xlink:href="../../d7/dcb/classnap_1_1rtti_1_1_object_ptr_base.html" target="_top" xlink:title=" ">
<polygon fill="white" stroke="black" points="223,-192.5 223,-211.5 309,-211.5 309,-192.5 223,-192.5"/>
<text text-anchor="middle" x="266" y="-199.5" font-family="Helvetica,sans-Serif" font-size="10.00">ObjectPtrBase</text>
</a>
</g>
</g>
<!-- Node12&#45;&gt;Node11 -->
<g id="edge11" class="edge">
<title>Node12&#45;&gt;Node11</title>
<path fill="none" stroke="midnightblue" d="M266,-182.22C266,-173.36 266,-162.96 266,-154.76"/>
<polygon fill="midnightblue" stroke="midnightblue" points="262.5,-182.33 266,-192.33 269.5,-182.33 262.5,-182.33"/>
</g>
</g>
</svg>
