<?xml version="1.0" encoding="UTF-8" standalone="no"?>
<!DOCTYPE svg PUBLIC "-//W3C//DTD SVG 1.1//EN"
 "http://www.w3.org/Graphics/SVG/1.1/DTD/svg11.dtd">
<!-- Generated by graphviz version 2.48.0 (20210717.1556)
 -->
<!-- Title: VertexBuffer&lt; T &gt; Pages: 1 -->
<svg width="319pt" height="365pt"
 viewBox="0.00 0.00 319.00 365.00" xmlns="http://www.w3.org/2000/svg" xmlns:xlink="http://www.w3.org/1999/xlink">
<g id="graph0" class="graph" transform="scale(1 1) rotate(0) translate(4 361)">
<title>VertexBuffer&lt; T &gt;</title>
<polygon fill="white" stroke="transparent" points="-4,4 -4,-361 315,-361 315,4 -4,4"/>
<!-- Node6 -->
<g id="node1" class="node">
<title>Node6</title>
<polygon fill="#bfbfbf" stroke="black" points="134.5,-0.5 134.5,-19.5 227.5,-19.5 227.5,-0.5 134.5,-0.5"/>
<text text-anchor="middle" x="181" y="-7.5" font-family="Helvetica,sans-Serif" font-size="10.00">VertexBuffer&lt; T &gt;</text>
</g>
<!-- Node7 -->
<g id="node2" class="node">
<title>Node7</title>
<g id="a_node2"><a xlink:href="../../d4/d83/classnap_1_1_typed_g_p_u_buffer_numeric.html" target="_top" xlink:title="TypedGPUBufferNumeric\&lt; T \&gt;">
<polygon fill="white" stroke="black" points="107,-57.5 107,-76.5 255,-76.5 255,-57.5 107,-57.5"/>
<text text-anchor="middle" x="181" y="-64.5" font-family="Helvetica,sans-Serif" font-size="10.00">TypedGPUBufferNumeric&lt; T &gt;</text>
</a>
</g>
</g>
<!-- Node7&#45;&gt;Node6 -->
<g id="edge1" class="edge">
<title>Node7&#45;&gt;Node6</title>
<path fill="none" stroke="midnightblue" d="M181,-47.12C181,-37.82 181,-27.06 181,-19.71"/>
<polygon fill="midnightblue" stroke="midnightblue" points="177.5,-47.41 181,-57.41 184.5,-47.41 177.5,-47.41"/>
</g>
<!-- Node8 -->
<g id="node3" class="node">
<title>Node8</title>
<g id="a_node3"><a xlink:href="../../dd/d69/classnap_1_1_g_p_u_buffer_numeric.html" target="_top" xlink:title="GPUBufferNumeric">
<polygon fill="white" stroke="black" points="67,-130 67,-149 165,-149 165,-130 67,-130"/>
<text text-anchor="middle" x="116" y="-137" font-family="Helvetica,sans-Serif" font-size="10.00">GPUBufferNumeric</text>
</a>
</g>
</g>
<!-- Node8&#45;&gt;Node7 -->
<g id="edge2" class="edge">
<title>Node8&#45;&gt;Node7</title>
<path fill="none" stroke="midnightblue" d="M130.94,-122.3C144.01,-108.12 162.5,-88.06 172.96,-76.72"/>
<polygon fill="midnightblue" stroke="midnightblue" points="128.18,-120.13 123.97,-129.86 133.32,-124.88 128.18,-120.13"/>
</g>
<!-- Node9 -->
<g id="node4" class="node">
<title>Node9</title>
<g id="a_node4"><a xlink:href="../../dd/df4/classnap_1_1_g_p_u_buffer.html" target="_top" xlink:title="GPUBuffer">
<polygon fill="white" stroke="black" points="85,-192.5 85,-211.5 147,-211.5 147,-192.5 85,-192.5"/>
<text text-anchor="middle" x="116" y="-199.5" font-family="Helvetica,sans-Serif" font-size="10.00">GPUBuffer</text>
</a>
</g>
</g>
<!-- Node9&#45;&gt;Node8 -->
<g id="edge3" class="edge">
<title>Node9&#45;&gt;Node8</title>
<path fill="none" stroke="midnightblue" d="M116,-182C116,-171 116,-157.68 116,-149.15"/>
<polygon fill="midnightblue" stroke="midnightblue" points="112.5,-182.33 116,-192.33 119.5,-182.33 112.5,-182.33"/>
</g>
<!-- Node10 -->
<g id="node5" class="node">
<title>Node10</title>
<g id="a_node5"><a xlink:href="../../d9/dea/classnap_1_1_resource.html" target="_top" xlink:title="Resource">
<polygon fill="white" stroke="black" points="0,-259.5 0,-278.5 58,-278.5 58,-259.5 0,-259.5"/>
<text text-anchor="middle" x="29" y="-266.5" font-family="Helvetica,sans-Serif" font-size="10.00">Resource</text>
</a>
</g>
</g>
<!-- Node10&#45;&gt;Node9 -->
<g id="edge4" class="edge">
<title>Node10&#45;&gt;Node9</title>
<path fill="none" stroke="midnightblue" d="M48.99,-253.07C66.16,-240.24 90.32,-222.19 104.45,-211.63"/>
<polygon fill="midnightblue" stroke="midnightblue" points="46.65,-250.44 40.73,-259.23 50.84,-256.05 46.65,-250.44"/>
</g>
<!-- Node11 -->
<g id="node6" class="node">
<title>Node11</title>
<g id="a_node6"><a xlink:href="../../de/d01/classnap_1_1rtti_1_1_object.html" target="_top" xlink:title="Object">
<polygon fill="white" stroke="black" points="6.5,-337.5 6.5,-356.5 51.5,-356.5 51.5,-337.5 6.5,-337.5"/>
<text text-anchor="middle" x="29" y="-344.5" font-family="Helvetica,sans-Serif" font-size="10.00">Object</text>
</a>
</g>
</g>
<!-- Node11&#45;&gt;Node10 -->
<g id="edge5" class="edge">
<title>Node11&#45;&gt;Node10</title>
<path fill="none" stroke="midnightblue" d="M29,-327.22C29,-311.7 29,-290.36 29,-278.62"/>
<polygon fill="midnightblue" stroke="midnightblue" points="25.5,-327.28 29,-337.28 32.5,-327.28 25.5,-327.28"/>
</g>
<!-- Node12 -->
<g id="node7" class="node">
<title>Node12</title>
<g id="a_node7"><a xlink:href="../../d5/dc6/classnap_1_1_render_service.html" target="_top" xlink:title="RenderService">
<polygon fill="white" stroke="black" points="76.5,-259.5 76.5,-278.5 155.5,-278.5 155.5,-259.5 76.5,-259.5"/>
<text text-anchor="middle" x="116" y="-266.5" font-family="Helvetica,sans-Serif" font-size="10.00">RenderService</text>
</a>
</g>
</g>
<!-- Node12&#45;&gt;Node9 -->
<g id="edge6" class="edge">
<title>Node12&#45;&gt;Node9</title>
<path fill="none" stroke="#9a32cd" stroke-dasharray="5,2" d="M116,-249.04C116,-236.67 116,-221.12 116,-211.63"/>
<polygon fill="#9a32cd" stroke="#9a32cd" points="112.5,-249.23 116,-259.23 119.5,-249.23 112.5,-249.23"/>
<text text-anchor="middle" x="153" y="-233" font-family="Helvetica,sans-Serif" font-size="10.00"> mRenderService</text>
</g>
<!-- Node13 -->
<g id="node8" class="node">
<title>Node13</title>
<g id="a_node8"><a xlink:href="../../d8/d8e/classnap_1_1_service.html" target="_top" xlink:title="Service">
<polygon fill="white" stroke="black" points="81,-337.5 81,-356.5 129,-356.5 129,-337.5 81,-337.5"/>
<text text-anchor="middle" x="105" y="-344.5" font-family="Helvetica,sans-Serif" font-size="10.00">Service</text>
</a>
</g>
</g>
<!-- Node13&#45;&gt;Node12 -->
<g id="edge7" class="edge">
<title>Node13&#45;&gt;Node12</title>
<path fill="none" stroke="midnightblue" d="M107.72,-327.22C109.96,-311.7 113.05,-290.36 114.75,-278.62"/>
<polygon fill="midnightblue" stroke="midnightblue" points="104.23,-326.88 106.26,-337.28 111.16,-327.89 104.23,-326.88"/>
</g>
<!-- Node14 -->
<g id="node9" class="node">
<title>Node14</title>
<g id="a_node9"><a xlink:href="../../de/d80/classnap_1_1_signal.html" target="_top" xlink:title="Signal\&lt; nap::RenderWindow &amp;\&gt;">
<polygon fill="white" stroke="black" points="147.5,-337.5 147.5,-356.5 302.5,-356.5 302.5,-337.5 147.5,-337.5"/>
<text text-anchor="middle" x="225" y="-344.5" font-family="Helvetica,sans-Serif" font-size="10.00">Signal&lt; nap::RenderWindow &amp;&gt;</text>
</a>
</g>
</g>
<!-- Node14&#45;&gt;Node12 -->
<g id="edge8" class="edge">
<title>Node14&#45;&gt;Node12</title>
<path fill="none" stroke="#9a32cd" stroke-dasharray="5,2" d="M204,-331.36C181.57,-315.72 146.75,-291.44 128.36,-278.62"/>
<polygon fill="#9a32cd" stroke="#9a32cd" points="202.29,-334.43 212.5,-337.28 206.3,-328.69 202.29,-334.43"/>
<text text-anchor="middle" x="221.5" y="-311" font-family="Helvetica,sans-Serif" font-size="10.00"> windowRemoved</text>
<text text-anchor="middle" x="221.5" y="-300" font-family="Helvetica,sans-Serif" font-size="10.00">windowAdded</text>
</g>
<!-- Node15 -->
<g id="node10" class="node">
<title>Node15</title>
<g id="a_node10"><a xlink:href="../../de/d80/classnap_1_1_signal.html" target="_top" xlink:title="Signal\&lt; Args \&gt;">
<polygon fill="white" stroke="black" points="174,-259.5 174,-278.5 256,-278.5 256,-259.5 174,-259.5"/>
<text text-anchor="middle" x="215" y="-266.5" font-family="Helvetica,sans-Serif" font-size="10.00">Signal&lt; Args &gt;</text>
</a>
</g>
</g>
<!-- Node15&#45;&gt;Node9 -->
<g id="edge9" class="edge">
<title>Node15&#45;&gt;Node9</title>
<path fill="none" stroke="#9a32cd" stroke-dasharray="5,2" d="M207.75,-249.75C204.2,-242.76 199.31,-235.23 193,-230 179.91,-219.16 162.17,-212.55 147.02,-208.58"/>
<polygon fill="#9a32cd" stroke="#9a32cd" points="204.73,-251.56 212,-259.26 211.12,-248.7 204.73,-251.56"/>
<text text-anchor="middle" x="235.5" y="-233" font-family="Helvetica,sans-Serif" font-size="10.00"> bufferChanged</text>
</g>
<!-- Node16 -->
<g id="node11" class="node">
<title>Node16</title>
<g id="a_node11"><a xlink:href="../../dd/d7c/classnap_1_1rtti_1_1_object_ptr.html" target="_top" xlink:title="ObjectPtr\&lt; nap::FillPolicy\l\&lt; T \&gt; \&gt;">
<polygon fill="white" stroke="black" points="183,-124.5 183,-154.5 311,-154.5 311,-124.5 183,-124.5"/>
<text text-anchor="start" x="191" y="-142.5" font-family="Helvetica,sans-Serif" font-size="10.00">ObjectPtr&lt; nap::FillPolicy</text>
<text text-anchor="middle" x="247" y="-131.5" font-family="Helvetica,sans-Serif" font-size="10.00">&lt; T &gt; &gt;</text>
</a>
</g>
</g>
<!-- Node16&#45;&gt;Node7 -->
<g id="edge10" class="edge">
<title>Node16&#45;&gt;Node7</title>
<path fill="none" stroke="#9a32cd" stroke-dasharray="5,2" d="M226.65,-116.76C214.09,-103.34 198.65,-86.85 189.33,-76.89"/>
<polygon fill="#9a32cd" stroke="#9a32cd" points="224.25,-119.33 233.64,-124.23 229.36,-114.54 224.25,-119.33"/>
<text text-anchor="middle" x="242" y="-98" font-family="Helvetica,sans-Serif" font-size="10.00"> mFillPolicy</text>
</g>
<!-- Node17 -->
<g id="node12" class="node">
<title>Node17</title>
<g id="a_node12"><a xlink:href="../../d7/dcb/classnap_1_1rtti_1_1_object_ptr_base.html" target="_top" xlink:title="ObjectPtrBase">
<polygon fill="white" stroke="black" points="207,-192.5 207,-211.5 287,-211.5 287,-192.5 207,-192.5"/>
<text text-anchor="middle" x="247" y="-199.5" font-family="Helvetica,sans-Serif" font-size="10.00">ObjectPtrBase</text>
</a>
</g>
</g>
<!-- Node17&#45;&gt;Node16 -->
<g id="edge11" class="edge">
<title>Node17&#45;&gt;Node16</title>
<path fill="none" stroke="midnightblue" d="M247,-182.22C247,-173.36 247,-162.96 247,-154.76"/>
<polygon fill="midnightblue" stroke="midnightblue" points="243.5,-182.33 247,-192.33 250.5,-182.33 243.5,-182.33"/>
</g>
</g>
</svg>
