<?xml version="1.0" encoding="UTF-8" standalone="no"?>
<!DOCTYPE svg PUBLIC "-//W3C//DTD SVG 1.1//EN"
 "http://www.w3.org/Graphics/SVG/1.1/DTD/svg11.dtd">
<!-- Generated by graphviz version 2.43.0 (0)
 -->
<!-- Title: OSCBaseValue Pages: 1 -->
<svg width="506pt" height="84pt"
 viewBox="0.00 0.00 505.50 84.00" xmlns="http://www.w3.org/2000/svg" xmlns:xlink="http://www.w3.org/1999/xlink">
<g id="graph0" class="graph" transform="scale(1 1) rotate(0) translate(4 80)">
<title>OSCBaseValue</title>
<polygon fill="white" stroke="transparent" points="-4,4 -4,-80 501.5,-80 501.5,4 -4,4"/>
<!-- Node1 -->
<g id="node1" class="node">
<title>Node1</title>
<g id="a_node1"><a xlink:title=" ">
<polygon fill="#bfbfbf" stroke="black" points="176.5,-56.5 176.5,-75.5 264.5,-75.5 264.5,-56.5 176.5,-56.5"/>
<text text-anchor="middle" x="220.5" y="-63.5" font-family="Helvetica,sans-Serif" font-size="10.00">OSCBaseValue</text>
</a>
</g>
</g>
<!-- Node2 -->
<g id="node2" class="node">
<title>Node2</title>
<g id="a_node2"><a xlink:href="../../d7/d55/classnap_1_1_o_s_c_blob.html" target="_top" xlink:title=" ">
<polygon fill="white" stroke="black" points="0,-0.5 0,-19.5 59,-19.5 59,-0.5 0,-0.5"/>
<text text-anchor="middle" x="29.5" y="-7.5" font-family="Helvetica,sans-Serif" font-size="10.00">OSCBlob</text>
</a>
</g>
</g>
<!-- Node1&#45;&gt;Node2 -->
<g id="edge1" class="edge">
<title>Node1&#45;&gt;Node2</title>
<path fill="none" stroke="midnightblue" d="M180.5,-53.69C144.33,-43.47 91.91,-28.65 59.31,-19.43"/>
<polygon fill="midnightblue" stroke="midnightblue" points="179.66,-57.09 190.24,-56.44 181.56,-50.35 179.66,-57.09"/>
</g>
<!-- Node3 -->
<g id="node3" class="node">
<title>Node3</title>
<g id="a_node3"><a xlink:href="../../d9/d08/classnap_1_1_o_s_c_color.html" target="_top" xlink:title=" ">
<polygon fill="white" stroke="black" points="77.5,-0.5 77.5,-19.5 139.5,-19.5 139.5,-0.5 77.5,-0.5"/>
<text text-anchor="middle" x="108.5" y="-7.5" font-family="Helvetica,sans-Serif" font-size="10.00">OSCColor</text>
</a>
</g>
</g>
<!-- Node1&#45;&gt;Node3 -->
<g id="edge2" class="edge">
<title>Node1&#45;&gt;Node3</title>
<path fill="none" stroke="midnightblue" d="M193.25,-51.86C172.48,-41.85 144.48,-28.35 126.45,-19.65"/>
<polygon fill="midnightblue" stroke="midnightblue" points="191.98,-55.13 202.51,-56.32 195.02,-48.83 191.98,-55.13"/>
</g>
<!-- Node4 -->
<g id="node4" class="node">
<title>Node4</title>
<g id="a_node4"><a xlink:href="../../d3/d0f/classnap_1_1_o_s_c_nil.html" target="_top" xlink:title=" ">
<polygon fill="white" stroke="black" points="157.5,-0.5 157.5,-19.5 207.5,-19.5 207.5,-0.5 157.5,-0.5"/>
<text text-anchor="middle" x="182.5" y="-7.5" font-family="Helvetica,sans-Serif" font-size="10.00">OSCNil</text>
</a>
</g>
</g>
<!-- Node1&#45;&gt;Node4 -->
<g id="edge3" class="edge">
<title>Node1&#45;&gt;Node4</title>
<path fill="none" stroke="midnightblue" d="M208.44,-47.86C201.86,-38.5 193.99,-27.33 188.66,-19.75"/>
<polygon fill="midnightblue" stroke="midnightblue" points="205.61,-49.92 214.23,-56.08 211.33,-45.89 205.61,-49.92"/>
</g>
<!-- Node5 -->
<g id="node5" class="node">
<title>Node5</title>
<g id="a_node5"><a xlink:href="../../d5/d18/classnap_1_1_o_s_c_string.html" target="_top" xlink:title=" ">
<polygon fill="white" stroke="black" points="226,-0.5 226,-19.5 291,-19.5 291,-0.5 226,-0.5"/>
<text text-anchor="middle" x="258.5" y="-7.5" font-family="Helvetica,sans-Serif" font-size="10.00">OSCString</text>
</a>
</g>
</g>
<!-- Node1&#45;&gt;Node5 -->
<g id="edge4" class="edge">
<title>Node1&#45;&gt;Node5</title>
<path fill="none" stroke="midnightblue" d="M232.56,-47.86C239.14,-38.5 247.01,-27.33 252.34,-19.75"/>
<polygon fill="midnightblue" stroke="midnightblue" points="229.67,-45.89 226.77,-56.08 235.39,-49.92 229.67,-45.89"/>
</g>
<!-- Node6 -->
<g id="node6" class="node">
<title>Node6</title>
<g id="a_node6"><a xlink:href="../../d1/d51/classnap_1_1_o_s_c_time_tag.html" target="_top" xlink:title=" ">
<polygon fill="white" stroke="black" points="309.5,-0.5 309.5,-19.5 387.5,-19.5 387.5,-0.5 309.5,-0.5"/>
<text text-anchor="middle" x="348.5" y="-7.5" font-family="Helvetica,sans-Serif" font-size="10.00">OSCTimeTag</text>
</a>
</g>
</g>
<!-- Node1&#45;&gt;Node6 -->
<g id="edge5" class="edge">
<title>Node1&#45;&gt;Node6</title>
<path fill="none" stroke="midnightblue" d="M250.12,-52.5C274.12,-42.38 307.28,-28.39 328.31,-19.52"/>
<polygon fill="midnightblue" stroke="midnightblue" points="248.64,-49.33 240.78,-56.44 251.36,-55.78 248.64,-49.33"/>
</g>
<!-- Node7 -->
<g id="node7" class="node">
<title>Node7</title>
<g id="a_node7"><a xlink:href="../../d6/d4b/classnap_1_1_o_s_c_value.html" target="_top" xlink:title=" ">
<polygon fill="white" stroke="black" points="405.5,-0.5 405.5,-19.5 497.5,-19.5 497.5,-0.5 405.5,-0.5"/>
<text text-anchor="middle" x="451.5" y="-7.5" font-family="Helvetica,sans-Serif" font-size="10.00">OSCValue&lt; T &gt;</text>
</a>
</g>
</g>
<!-- Node1&#45;&gt;Node7 -->
<g id="edge6" class="edge">
<title>Node1&#45;&gt;Node7</title>
<path fill="none" stroke="midnightblue" d="M266.9,-54.15C310.55,-43.95 375.01,-28.88 415.07,-19.52"/>
<polygon fill="midnightblue" stroke="midnightblue" points="266.04,-50.76 257.1,-56.44 267.64,-57.58 266.04,-50.76"/>
</g>
</g>
</svg>
