<?xml version="1.0" encoding="UTF-8" standalone="no"?>
<!DOCTYPE svg PUBLIC "-//W3C//DTD SVG 1.1//EN"
 "http://www.w3.org/Graphics/SVG/1.1/DTD/svg11.dtd">
<!-- Generated by graphviz version 2.43.0 (0)
 -->
<!-- Title: TypedUniformValueInstance&lt; T &gt; Pages: 1 -->
<svg width="318pt" height="209pt"
 viewBox="0.00 0.00 318.00 209.00" xmlns="http://www.w3.org/2000/svg" xmlns:xlink="http://www.w3.org/1999/xlink">
<g id="graph0" class="graph" transform="scale(1 1) rotate(0) translate(4 205)">
<title>TypedUniformValueInstance&lt; T &gt;</title>
<polygon fill="white" stroke="transparent" points="-4,4 -4,-205 314,-205 314,4 -4,4"/>
<!-- Node1 -->
<g id="node1" class="node">
<title>Node1</title>
<g id="a_node1"><a xlink:title=" ">
<polygon fill="#bfbfbf" stroke="black" points="49.5,-0.5 49.5,-19.5 231.5,-19.5 231.5,-0.5 49.5,-0.5"/>
<text text-anchor="middle" x="140.5" y="-7.5" font-family="Helvetica,sans-Serif" font-size="10.00">TypedUniformValueInstance&lt; T &gt;</text>
</a>
</g>
</g>
<!-- Node2 -->
<g id="node2" class="node">
<title>Node2</title>
<g id="a_node2"><a xlink:href="../../d0/dac/classnap_1_1_uniform_value_instance.html" target="_top" xlink:title=" ">
<polygon fill="white" stroke="black" points="78,-57.5 78,-76.5 203,-76.5 203,-57.5 78,-57.5"/>
<text text-anchor="middle" x="140.5" y="-64.5" font-family="Helvetica,sans-Serif" font-size="10.00">UniformValueInstance</text>
</a>
</g>
</g>
<!-- Node2&#45;&gt;Node1 -->
<g id="edge1" class="edge">
<title>Node2&#45;&gt;Node1</title>
<path fill="none" stroke="midnightblue" d="M140.5,-47.12C140.5,-37.82 140.5,-27.06 140.5,-19.71"/>
<polygon fill="midnightblue" stroke="midnightblue" points="137,-47.41 140.5,-57.41 144,-47.41 137,-47.41"/>
</g>
<!-- Node3 -->
<g id="node3" class="node">
<title>Node3</title>
<g id="a_node3"><a xlink:href="../../dd/d94/classnap_1_1_uniform_leaf_instance.html" target="_top" xlink:title=" ">
<polygon fill="white" stroke="black" points="0,-124.5 0,-143.5 119,-143.5 119,-124.5 0,-124.5"/>
<text text-anchor="middle" x="59.5" y="-131.5" font-family="Helvetica,sans-Serif" font-size="10.00">UniformLeafInstance</text>
</a>
</g>
</g>
<!-- Node3&#45;&gt;Node2 -->
<g id="edge2" class="edge">
<title>Node3&#45;&gt;Node2</title>
<path fill="none" stroke="midnightblue" d="M78.55,-117.71C94.51,-104.91 116.71,-87.09 129.75,-76.63"/>
<polygon fill="midnightblue" stroke="midnightblue" points="76.03,-115.25 70.42,-124.23 80.41,-120.7 76.03,-115.25"/>
</g>
<!-- Node4 -->
<g id="node4" class="node">
<title>Node4</title>
<g id="a_node4"><a xlink:href="../../d6/d6a/classnap_1_1_uniform_instance.html" target="_top" xlink:title=" ">
<polygon fill="white" stroke="black" points="10.5,-181.5 10.5,-200.5 108.5,-200.5 108.5,-181.5 10.5,-181.5"/>
<text text-anchor="middle" x="59.5" y="-188.5" font-family="Helvetica,sans-Serif" font-size="10.00">UniformInstance</text>
</a>
</g>
</g>
<!-- Node4&#45;&gt;Node3 -->
<g id="edge3" class="edge">
<title>Node4&#45;&gt;Node3</title>
<path fill="none" stroke="midnightblue" d="M59.5,-171.12C59.5,-161.82 59.5,-151.06 59.5,-143.71"/>
<polygon fill="midnightblue" stroke="midnightblue" points="56,-171.41 59.5,-181.41 63,-171.41 56,-171.41"/>
</g>
<!-- Node5 -->
<g id="node5" class="node">
<title>Node5</title>
<g id="a_node5"><a xlink:href="../../d6/df3/classnap_1_1_shader_variable_value_declaration.html" target="_top" xlink:title=" ">
<polygon fill="white" stroke="black" points="137,-124.5 137,-143.5 310,-143.5 310,-124.5 137,-124.5"/>
<text text-anchor="middle" x="223.5" y="-131.5" font-family="Helvetica,sans-Serif" font-size="10.00">ShaderVariableValueDeclaration</text>
</a>
</g>
</g>
<!-- Node5&#45;&gt;Node2 -->
<g id="edge4" class="edge">
<title>Node5&#45;&gt;Node2</title>
<path fill="none" stroke="#9a32cd" stroke-dasharray="5,2" d="M204.43,-118.07C188.05,-105.24 165,-87.19 151.52,-76.63"/>
<polygon fill="#9a32cd" stroke="#9a32cd" points="202.28,-120.82 212.31,-124.23 206.59,-115.31 202.28,-120.82"/>
<text text-anchor="middle" x="222.5" y="-98" font-family="Helvetica,sans-Serif" font-size="10.00"> mDeclaration</text>
</g>
<!-- Node6 -->
<g id="node6" class="node">
<title>Node6</title>
<g id="a_node6"><a xlink:href="../../dc/d72/classnap_1_1_shader_variable_declaration.html" target="_top" xlink:title=" ">
<polygon fill="white" stroke="black" points="150.5,-181.5 150.5,-200.5 296.5,-200.5 296.5,-181.5 150.5,-181.5"/>
<text text-anchor="middle" x="223.5" y="-188.5" font-family="Helvetica,sans-Serif" font-size="10.00">ShaderVariableDeclaration</text>
</a>
</g>
</g>
<!-- Node6&#45;&gt;Node5 -->
<g id="edge5" class="edge">
<title>Node6&#45;&gt;Node5</title>
<path fill="none" stroke="midnightblue" d="M223.5,-171.12C223.5,-161.82 223.5,-151.06 223.5,-143.71"/>
<polygon fill="midnightblue" stroke="midnightblue" points="220,-171.41 223.5,-181.41 227,-171.41 220,-171.41"/>
</g>
</g>
</svg>
