<?xml version="1.0" encoding="UTF-8" standalone="no"?>
<!DOCTYPE svg PUBLIC "-//W3C//DTD SVG 1.1//EN"
 "http://www.w3.org/Graphics/SVG/1.1/DTD/svg11.dtd">
<!-- Generated by graphviz version 2.48.0 (20210717.1556)
 -->
<!-- Title: TypedUniformValueInstance&lt; T &gt; Pages: 1 -->
<svg width="286pt" height="209pt"
 viewBox="0.00 0.00 286.00 209.00" xmlns="http://www.w3.org/2000/svg" xmlns:xlink="http://www.w3.org/1999/xlink">
<g id="graph0" class="graph" transform="scale(1 1) rotate(0) translate(4 205)">
<title>TypedUniformValueInstance&lt; T &gt;</title>
<polygon fill="white" stroke="transparent" points="-4,4 -4,-205 282,-205 282,4 -4,4"/>
<!-- Node4 -->
<g id="node1" class="node">
<title>Node4</title>
<polygon fill="#bfbfbf" stroke="black" points="44.5,-0.5 44.5,-19.5 205.5,-19.5 205.5,-0.5 44.5,-0.5"/>
<text text-anchor="middle" x="125" y="-7.5" font-family="Helvetica,sans-Serif" font-size="10.00">TypedUniformValueInstance&lt; T &gt;</text>
</g>
<!-- Node5 -->
<g id="node2" class="node">
<title>Node5</title>
<g id="a_node2"><a xlink:href="../../d0/dac/classnap_1_1_uniform_value_instance.html" target="_top" xlink:title="UniformValueInstance">
<polygon fill="white" stroke="black" points="69.5,-57.5 69.5,-76.5 180.5,-76.5 180.5,-57.5 69.5,-57.5"/>
<text text-anchor="middle" x="125" y="-64.5" font-family="Helvetica,sans-Serif" font-size="10.00">UniformValueInstance</text>
</a>
</g>
</g>
<!-- Node5&#45;&gt;Node4 -->
<g id="edge1" class="edge">
<title>Node5&#45;&gt;Node4</title>
<path fill="none" stroke="midnightblue" d="M125,-47.12C125,-37.82 125,-27.06 125,-19.71"/>
<polygon fill="midnightblue" stroke="midnightblue" points="121.5,-47.41 125,-57.41 128.5,-47.41 121.5,-47.41"/>
</g>
<!-- Node6 -->
<g id="node3" class="node">
<title>Node6</title>
<g id="a_node3"><a xlink:href="../../dd/d94/classnap_1_1_uniform_leaf_instance.html" target="_top" xlink:title="UniformLeafInstance">
<polygon fill="white" stroke="black" points="0,-124.5 0,-143.5 104,-143.5 104,-124.5 0,-124.5"/>
<text text-anchor="middle" x="52" y="-131.5" font-family="Helvetica,sans-Serif" font-size="10.00">UniformLeafInstance</text>
</a>
</g>
</g>
<!-- Node6&#45;&gt;Node5 -->
<g id="edge2" class="edge">
<title>Node6&#45;&gt;Node5</title>
<path fill="none" stroke="midnightblue" d="M69.57,-117.36C83.92,-104.58 103.67,-86.99 115.31,-76.63"/>
<polygon fill="midnightblue" stroke="midnightblue" points="66.99,-114.97 61.85,-124.23 71.64,-120.2 66.99,-114.97"/>
</g>
<!-- Node7 -->
<g id="node4" class="node">
<title>Node7</title>
<g id="a_node4"><a xlink:href="../../d6/d6a/classnap_1_1_uniform_instance.html" target="_top" xlink:title="UniformInstance">
<polygon fill="white" stroke="black" points="9,-181.5 9,-200.5 95,-200.5 95,-181.5 9,-181.5"/>
<text text-anchor="middle" x="52" y="-188.5" font-family="Helvetica,sans-Serif" font-size="10.00">UniformInstance</text>
</a>
</g>
</g>
<!-- Node7&#45;&gt;Node6 -->
<g id="edge3" class="edge">
<title>Node7&#45;&gt;Node6</title>
<path fill="none" stroke="midnightblue" d="M52,-171.12C52,-161.82 52,-151.06 52,-143.71"/>
<polygon fill="midnightblue" stroke="midnightblue" points="48.5,-171.41 52,-181.41 55.5,-171.41 48.5,-171.41"/>
</g>
<!-- Node8 -->
<g id="node5" class="node">
<title>Node8</title>
<g id="a_node5"><a xlink:href="../../d6/df3/classnap_1_1_shader_variable_value_declaration.html" target="_top" xlink:title="ShaderVariableValueDeclaration">
<polygon fill="white" stroke="black" points="122,-124.5 122,-143.5 278,-143.5 278,-124.5 122,-124.5"/>
<text text-anchor="middle" x="200" y="-131.5" font-family="Helvetica,sans-Serif" font-size="10.00">ShaderVariableValueDeclaration</text>
</a>
</g>
</g>
<!-- Node8&#45;&gt;Node5 -->
<g id="edge4" class="edge">
<title>Node8&#45;&gt;Node5</title>
<path fill="none" stroke="#9a32cd" stroke-dasharray="5,2" d="M181.95,-117.36C167.21,-104.58 146.91,-86.99 134.95,-76.63"/>
<polygon fill="#9a32cd" stroke="#9a32cd" points="180.04,-120.33 189.89,-124.23 184.62,-115.04 180.04,-120.33"/>
<text text-anchor="middle" x="197.5" y="-98" font-family="Helvetica,sans-Serif" font-size="10.00"> mDeclaration</text>
</g>
<!-- Node9 -->
<g id="node6" class="node">
<title>Node9</title>
<g id="a_node6"><a xlink:href="../../dc/d72/classnap_1_1_shader_variable_declaration.html" target="_top" xlink:title="ShaderVariableDeclaration">
<polygon fill="white" stroke="black" points="134.5,-181.5 134.5,-200.5 265.5,-200.5 265.5,-181.5 134.5,-181.5"/>
<text text-anchor="middle" x="200" y="-188.5" font-family="Helvetica,sans-Serif" font-size="10.00">ShaderVariableDeclaration</text>
</a>
</g>
</g>
<!-- Node9&#45;&gt;Node8 -->
<g id="edge5" class="edge">
<title>Node9&#45;&gt;Node8</title>
<path fill="none" stroke="midnightblue" d="M200,-171.12C200,-161.82 200,-151.06 200,-143.71"/>
<polygon fill="midnightblue" stroke="midnightblue" points="196.5,-171.41 200,-181.41 203.5,-171.41 196.5,-171.41"/>
</g>
</g>
</svg>
