<?xml version="1.0" encoding="UTF-8" standalone="no"?>
<!DOCTYPE svg PUBLIC "-//W3C//DTD SVG 1.1//EN"
 "http://www.w3.org/Graphics/SVG/1.1/DTD/svg11.dtd">
<!-- Generated by graphviz version 2.43.0 (0)
 -->
<!-- Title: EntityCreationParameters Pages: 1 -->
<svg width="299pt" height="95pt"
 viewBox="0.00 0.00 299.00 95.00" xmlns="http://www.w3.org/2000/svg" xmlns:xlink="http://www.w3.org/1999/xlink">
<g id="graph0" class="graph" transform="scale(1 1) rotate(0) translate(4 91)">
<title>EntityCreationParameters</title>
<polygon fill="white" stroke="transparent" points="-4,4 -4,-91 295,-91 295,4 -4,4"/>
<!-- Node1 -->
<g id="node1" class="node">
<title>Node1</title>
<g id="a_node1"><a xlink:title=" ">
<polygon fill="#bfbfbf" stroke="black" points="66,-0.5 66,-19.5 208,-19.5 208,-0.5 66,-0.5"/>
<text text-anchor="middle" x="137" y="-7.5" font-family="Helvetica,sans-Serif" font-size="10.00">EntityCreationParameters</text>
</a>
</g>
</g>
<!-- Node2 -->
<g id="node2" class="node">
<title>Node2</title>
<g id="a_node2"><a xlink:href="../../dc/d8e/classnap_1_1_object_graph.html" target="_top" xlink:title=" ">
<polygon fill="white" stroke="black" points="0,-67.5 0,-86.5 124,-86.5 124,-67.5 0,-67.5"/>
<text text-anchor="middle" x="62" y="-74.5" font-family="Helvetica,sans-Serif" font-size="10.00">ObjectGraph&lt; ITEM &gt;</text>
</a>
</g>
</g>
<!-- Node2&#45;&gt;Node1 -->
<g id="edge1" class="edge">
<title>Node2&#45;&gt;Node1</title>
<path fill="none" stroke="#9a32cd" stroke-dasharray="5,2" d="M80.05,-60.36C94.79,-47.58 115.09,-29.99 127.05,-19.63"/>
<polygon fill="#9a32cd" stroke="#9a32cd" points="77.38,-58.04 72.11,-67.23 81.96,-63.33 77.38,-58.04"/>
<text text-anchor="middle" x="141" y="-41" font-family="Helvetica,sans-Serif" font-size="10.00"> mObjectGraph</text>
</g>
<!-- Node3 -->
<g id="node3" class="node">
<title>Node3</title>
<g id="a_node3"><a xlink:href="../../df/d17/classnap_1_1_component_resource_path.html" target="_top" xlink:title=" ">
<polygon fill="white" stroke="black" points="142.5,-67.5 142.5,-86.5 281.5,-86.5 281.5,-67.5 142.5,-67.5"/>
<text text-anchor="middle" x="212" y="-74.5" font-family="Helvetica,sans-Serif" font-size="10.00">ComponentResourcePath</text>
</a>
</g>
</g>
<!-- Node3&#45;&gt;Node1 -->
<g id="edge2" class="edge">
<title>Node3&#45;&gt;Node1</title>
<path fill="none" stroke="#9a32cd" stroke-dasharray="5,2" d="M200.78,-59.19C195.59,-52.14 189.01,-44.17 182,-38 173.79,-30.78 163.39,-24.39 154.66,-19.65"/>
<polygon fill="#9a32cd" stroke="#9a32cd" points="197.95,-61.24 206.56,-67.41 203.68,-57.22 197.95,-61.24"/>
<text text-anchor="middle" x="241.5" y="-41" font-family="Helvetica,sans-Serif" font-size="10.00"> mCurrentEntityPath</text>
</g>
</g>
</svg>
