<?xml version="1.0" encoding="UTF-8" standalone="no"?>
<!DOCTYPE svg PUBLIC "-//W3C//DTD SVG 1.1//EN"
 "http://www.w3.org/Graphics/SVG/1.1/DTD/svg11.dtd">
<!-- Generated by graphviz version 2.43.0 (0)
 -->
<!-- Title: RotateComponent Pages: 1 -->
<svg width="198pt" height="209pt"
 viewBox="0.00 0.00 197.50 209.00" xmlns="http://www.w3.org/2000/svg" xmlns:xlink="http://www.w3.org/1999/xlink">
<g id="graph0" class="graph" transform="scale(1 1) rotate(0) translate(4 205)">
<title>RotateComponent</title>
<polygon fill="white" stroke="transparent" points="-4,4 -4,-205 193.5,-205 193.5,4 -4,4"/>
<!-- Node1 -->
<g id="node1" class="node">
<title>Node1</title>
<g id="a_node1"><a xlink:title=" ">
<polygon fill="#bfbfbf" stroke="black" points="36,-0.5 36,-19.5 141,-19.5 141,-0.5 36,-0.5"/>
<text text-anchor="middle" x="88.5" y="-7.5" font-family="Helvetica,sans-Serif" font-size="10.00">RotateComponent</text>
</a>
</g>
</g>
<!-- Node2 -->
<g id="node2" class="node">
<title>Node2</title>
<g id="a_node2"><a xlink:href="../../db/d6b/classnap_1_1_component.html" target="_top" xlink:title=" ">
<polygon fill="white" stroke="black" points="0,-67.5 0,-86.5 73,-86.5 73,-67.5 0,-67.5"/>
<text text-anchor="middle" x="36.5" y="-74.5" font-family="Helvetica,sans-Serif" font-size="10.00">Component</text>
</a>
</g>
</g>
<!-- Node2&#45;&gt;Node1 -->
<g id="edge1" class="edge">
<title>Node2&#45;&gt;Node1</title>
<path fill="none" stroke="midnightblue" d="M49.88,-59.27C60.02,-46.6 73.54,-29.7 81.6,-19.63"/>
<polygon fill="midnightblue" stroke="midnightblue" points="47.03,-57.24 43.51,-67.23 52.49,-61.61 47.03,-57.24"/>
</g>
<!-- Node3 -->
<g id="node3" class="node">
<title>Node3</title>
<g id="a_node3"><a xlink:href="../../d9/dea/classnap_1_1_resource.html" target="_top" xlink:title=" ">
<polygon fill="white" stroke="black" points="5.5,-124.5 5.5,-143.5 67.5,-143.5 67.5,-124.5 5.5,-124.5"/>
<text text-anchor="middle" x="36.5" y="-131.5" font-family="Helvetica,sans-Serif" font-size="10.00">Resource</text>
</a>
</g>
</g>
<!-- Node3&#45;&gt;Node2 -->
<g id="edge2" class="edge">
<title>Node3&#45;&gt;Node2</title>
<path fill="none" stroke="midnightblue" d="M36.5,-114.12C36.5,-104.82 36.5,-94.06 36.5,-86.71"/>
<polygon fill="midnightblue" stroke="midnightblue" points="33,-114.41 36.5,-124.41 40,-114.41 33,-114.41"/>
</g>
<!-- Node4 -->
<g id="node4" class="node">
<title>Node4</title>
<g id="a_node4"><a xlink:href="../../de/d01/classnap_1_1rtti_1_1_object.html" target="_top" xlink:title=" ">
<polygon fill="white" stroke="black" points="12.5,-181.5 12.5,-200.5 60.5,-200.5 60.5,-181.5 12.5,-181.5"/>
<text text-anchor="middle" x="36.5" y="-188.5" font-family="Helvetica,sans-Serif" font-size="10.00">Object</text>
</a>
</g>
</g>
<!-- Node4&#45;&gt;Node3 -->
<g id="edge3" class="edge">
<title>Node4&#45;&gt;Node3</title>
<path fill="none" stroke="midnightblue" d="M36.5,-171.12C36.5,-161.82 36.5,-151.06 36.5,-143.71"/>
<polygon fill="midnightblue" stroke="midnightblue" points="33,-171.41 36.5,-181.41 40,-171.41 33,-171.41"/>
</g>
<!-- Node5 -->
<g id="node5" class="node">
<title>Node5</title>
<g id="a_node5"><a xlink:href="../../d0/d3c/structnap_1_1_rotate_properties.html" target="_top" xlink:title=" ">
<polygon fill="white" stroke="black" points="91.5,-67.5 91.5,-86.5 189.5,-86.5 189.5,-67.5 91.5,-67.5"/>
<text text-anchor="middle" x="140.5" y="-74.5" font-family="Helvetica,sans-Serif" font-size="10.00">RotateProperties</text>
</a>
</g>
</g>
<!-- Node5&#45;&gt;Node1 -->
<g id="edge4" class="edge">
<title>Node5&#45;&gt;Node1</title>
<path fill="none" stroke="#9a32cd" stroke-dasharray="5,2" d="M127.12,-59.27C116.98,-46.6 103.46,-29.7 95.4,-19.63"/>
<polygon fill="#9a32cd" stroke="#9a32cd" points="124.51,-61.61 133.49,-67.23 129.97,-57.24 124.51,-61.61"/>
<text text-anchor="middle" x="149" y="-41" font-family="Helvetica,sans-Serif" font-size="10.00"> mProperties</text>
</g>
</g>
</svg>
