<?xml version="1.0" encoding="UTF-8" standalone="no"?>
<!DOCTYPE svg PUBLIC "-//W3C//DTD SVG 1.1//EN"
 "http://www.w3.org/Graphics/SVG/1.1/DTD/svg11.dtd">
<!-- Generated by graphviz version 2.43.0 (0)
 -->
<!-- Title: EntityInstancePtrInitProxy&lt; SourceComponentType &gt; Pages: 1 -->
<svg width="309pt" height="163pt"
 viewBox="0.00 0.00 308.50 163.00" xmlns="http://www.w3.org/2000/svg" xmlns:xlink="http://www.w3.org/1999/xlink">
<g id="graph0" class="graph" transform="scale(1 1) rotate(0) translate(4 159)">
<title>EntityInstancePtrInitProxy&lt; SourceComponentType &gt;</title>
<polygon fill="white" stroke="transparent" points="-4,4 -4,-159 304.5,-159 304.5,4 -4,4"/>
<!-- Node1 -->
<g id="node1" class="node">
<title>Node1</title>
<g id="a_node1"><a xlink:title=" ">
<polygon fill="#bfbfbf" stroke="black" points="24,-0.5 24,-30.5 175,-30.5 175,-0.5 24,-0.5"/>
<text text-anchor="start" x="32" y="-18.5" font-family="Helvetica,sans-Serif" font-size="10.00">EntityInstancePtrInitProxy</text>
<text text-anchor="middle" x="99.5" y="-7.5" font-family="Helvetica,sans-Serif" font-size="10.00">&lt; SourceComponentType &gt;</text>
</a>
</g>
</g>
<!-- Node2 -->
<g id="node2" class="node">
<title>Node2</title>
<g id="a_node2"><a xlink:href="../../df/dec/classnap_1_1_entity_ptr.html" target="_top" xlink:title=" ">
<polygon fill="white" stroke="black" points="0,-78.5 0,-97.5 59,-97.5 59,-78.5 0,-78.5"/>
<text text-anchor="middle" x="29.5" y="-85.5" font-family="Helvetica,sans-Serif" font-size="10.00">EntityPtr</text>
</a>
</g>
</g>
<!-- Node2&#45;&gt;Node1 -->
<g id="edge1" class="edge">
<title>Node2&#45;&gt;Node1</title>
<path fill="none" stroke="#9a32cd" stroke-dasharray="5,2" d="M26.15,-68.26C25.93,-61.7 26.85,-54.59 30.5,-49 35.64,-41.13 43.24,-35.12 51.53,-30.55"/>
<polygon fill="#9a32cd" stroke="#9a32cd" points="22.7,-68.86 27.32,-78.4 29.65,-68.06 22.7,-68.86"/>
<text text-anchor="middle" x="89" y="-52" font-family="Helvetica,sans-Serif" font-size="10.00"> mEntityMemberPointer</text>
</g>
<!-- Node3 -->
<g id="node3" class="node">
<title>Node3</title>
<g id="a_node3"><a xlink:href="../../d9/df2/classnap_1_1_component_instance.html" target="_top" xlink:title=" ">
<polygon fill="white" stroke="black" points="112.5,-78.5 112.5,-97.5 226.5,-97.5 226.5,-78.5 112.5,-78.5"/>
<text text-anchor="middle" x="169.5" y="-85.5" font-family="Helvetica,sans-Serif" font-size="10.00">ComponentInstance</text>
</a>
</g>
</g>
<!-- Node3&#45;&gt;Node1 -->
<g id="edge2" class="edge">
<title>Node3&#45;&gt;Node1</title>
<path fill="none" stroke="#9a32cd" stroke-dasharray="5,2" d="M161.38,-69.27C157.74,-62.46 153.02,-54.92 147.5,-49 141.05,-42.08 132.87,-35.86 125.09,-30.76"/>
<polygon fill="#9a32cd" stroke="#9a32cd" points="158.34,-71.01 165.91,-78.43 164.62,-67.91 158.34,-71.01"/>
<text text-anchor="middle" x="228.5" y="-52" font-family="Helvetica,sans-Serif" font-size="10.00"> mSourceComponentInstance</text>
</g>
<!-- Node4 -->
<g id="node4" class="node">
<title>Node4</title>
<g id="a_node4"><a xlink:href="../../de/d01/classnap_1_1rtti_1_1_object.html" target="_top" xlink:title=" ">
<polygon fill="white" stroke="black" points="145.5,-135.5 145.5,-154.5 193.5,-154.5 193.5,-135.5 145.5,-135.5"/>
<text text-anchor="middle" x="169.5" y="-142.5" font-family="Helvetica,sans-Serif" font-size="10.00">Object</text>
</a>
</g>
</g>
<!-- Node4&#45;&gt;Node3 -->
<g id="edge3" class="edge">
<title>Node4&#45;&gt;Node3</title>
<path fill="none" stroke="midnightblue" d="M169.5,-125.12C169.5,-115.82 169.5,-105.06 169.5,-97.71"/>
<polygon fill="midnightblue" stroke="midnightblue" points="166,-125.41 169.5,-135.41 173,-125.41 166,-125.41"/>
</g>
</g>
</svg>
