<?xml version="1.0" encoding="UTF-8" standalone="no"?>
<!DOCTYPE svg PUBLIC "-//W3C//DTD SVG 1.1//EN"
 "http://www.w3.org/Graphics/SVG/1.1/DTD/svg11.dtd">
<!-- Generated by graphviz version 3.0.0 (20220226.1711)
 -->
<!-- Title: EntityInstancePtrInitProxy&lt; SourceComponentType &gt; Pages: 1 -->
<svg width="276pt" height="163pt"
 viewBox="0.00 0.00 275.50 163.00" xmlns="http://www.w3.org/2000/svg" xmlns:xlink="http://www.w3.org/1999/xlink">
<g id="graph0" class="graph" transform="scale(1 1) rotate(0) translate(4 159)">
<title>EntityInstancePtrInitProxy&lt; SourceComponentType &gt;</title>
<polygon fill="white" stroke="transparent" points="-4,4 -4,-159 271.5,-159 271.5,4 -4,4"/>
<!-- Node1 -->
<g id="node1" class="node">
<title>Node1</title>
<polygon fill="#bfbfbf" stroke="black" points="22.5,-0.5 22.5,-30.5 158.5,-30.5 158.5,-0.5 22.5,-0.5"/>
<text text-anchor="start" x="30.5" y="-18.5" font-family="Helvetica,sans-Serif" font-size="10.00">EntityInstancePtrInitProxy</text>
<text text-anchor="middle" x="90.5" y="-7.5" font-family="Helvetica,sans-Serif" font-size="10.00">&lt; SourceComponentType &gt;</text>
</g>
<!-- Node2 -->
<g id="node2" class="node">
<title>Node2</title>
<g id="a_node2"><a xlink:href="../../df/dec/classnap_1_1_entity_ptr.html" target="_top" xlink:title="EntityPtr">
<polygon fill="white" stroke="black" points="0,-78.5 0,-97.5 55,-97.5 55,-78.5 0,-78.5"/>
<text text-anchor="middle" x="27.5" y="-85.5" font-family="Helvetica,sans-Serif" font-size="10.00">EntityPtr</text>
</a>
</g>
</g>
<!-- Node2&#45;&gt;Node1 -->
<g id="edge1" class="edge">
<title>Node2&#45;&gt;Node1</title>
<path fill="none" stroke="#9a32cd" stroke-dasharray="5,2" d="M24.28,-68.34C24.07,-61.8 24.97,-54.67 28.5,-49 33.32,-41.26 40.64,-35.27 48.57,-30.66"/>
<polygon fill="#9a32cd" stroke="#9a32cd" points="20.82,-68.9 25.4,-78.45 27.78,-68.12 20.82,-68.9"/>
<text text-anchor="middle" x="80" y="-52" font-family="Helvetica,sans-Serif" font-size="10.00"> mEntityMemberPointer</text>
</g>
<!-- Node3 -->
<g id="node3" class="node">
<title>Node3</title>
<g id="a_node3"><a xlink:href="../../d9/df2/classnap_1_1_component_instance.html" target="_top" xlink:title="ComponentInstance">
<polygon fill="white" stroke="black" points="102,-78.5 102,-97.5 205,-97.5 205,-78.5 102,-78.5"/>
<text text-anchor="middle" x="153.5" y="-85.5" font-family="Helvetica,sans-Serif" font-size="10.00">ComponentInstance</text>
</a>
</g>
</g>
<!-- Node3&#45;&gt;Node1 -->
<g id="edge2" class="edge">
<title>Node3&#45;&gt;Node1</title>
<path fill="none" stroke="#9a32cd" stroke-dasharray="5,2" d="M145.01,-69.22C141.36,-62.51 136.72,-55.05 131.5,-49 125.68,-42.26 118.31,-35.92 111.42,-30.66"/>
<polygon fill="#9a32cd" stroke="#9a32cd" points="141.95,-70.93 149.61,-78.25 148.19,-67.75 141.95,-70.93"/>
<text text-anchor="middle" x="203" y="-52" font-family="Helvetica,sans-Serif" font-size="10.00"> mSourceComponentInstance</text>
</g>
<!-- Node4 -->
<g id="node4" class="node">
<title>Node4</title>
<g id="a_node4"><a xlink:href="../../de/d01/classnap_1_1rtti_1_1_object.html" target="_top" xlink:title="Object">
<polygon fill="white" stroke="black" points="131,-135.5 131,-154.5 176,-154.5 176,-135.5 131,-135.5"/>
<text text-anchor="middle" x="153.5" y="-142.5" font-family="Helvetica,sans-Serif" font-size="10.00">Object</text>
</a>
</g>
</g>
<!-- Node4&#45;&gt;Node3 -->
<g id="edge3" class="edge">
<title>Node4&#45;&gt;Node3</title>
<path fill="none" stroke="midnightblue" d="M153.5,-125.12C153.5,-115.82 153.5,-105.06 153.5,-97.71"/>
<polygon fill="midnightblue" stroke="midnightblue" points="150,-125.41 153.5,-135.41 157,-125.41 150,-125.41"/>
</g>
</g>
</svg>
