<?xml version="1.0" encoding="UTF-8" standalone="no"?>
<!DOCTYPE svg PUBLIC "-//W3C//DTD SVG 1.1//EN"
 "http://www.w3.org/Graphics/SVG/1.1/DTD/svg11.dtd">
<!-- Generated by graphviz version 2.43.0 (0)
 -->
<!-- Title: AudioComponentBaseInstance Pages: 1 -->
<svg width="617pt" height="154pt"
 viewBox="0.00 0.00 617.00 154.00" xmlns="http://www.w3.org/2000/svg" xmlns:xlink="http://www.w3.org/1999/xlink">
<g id="graph0" class="graph" transform="scale(1 1) rotate(0) translate(4 150)">
<title>AudioComponentBaseInstance</title>
<polygon fill="white" stroke="transparent" points="-4,4 -4,-150 613,-150 613,4 -4,4"/>
<!-- Node1 -->
<g id="node1" class="node">
<title>Node1</title>
<g id="a_node1"><a xlink:title=" ">
<polygon fill="#bfbfbf" stroke="black" points="237,-66.5 237,-85.5 403,-85.5 403,-66.5 237,-66.5"/>
<text text-anchor="middle" x="320" y="-73.5" font-family="Helvetica,sans-Serif" font-size="10.00">AudioComponentBaseInstance</text>
</a>
</g>
</g>
<!-- Node5 -->
<g id="node5" class="node">
<title>Node5</title>
<g id="a_node5"><a xlink:href="../../dc/d8b/classnap_1_1audio_1_1_audio_input_component_instance.html" target="_top" xlink:title=" ">
<polygon fill="white" stroke="black" points="440.5,-126.5 440.5,-145.5 607.5,-145.5 607.5,-126.5 440.5,-126.5"/>
<text text-anchor="middle" x="524" y="-133.5" font-family="Helvetica,sans-Serif" font-size="10.00">AudioInputComponentInstance</text>
</a>
</g>
</g>
<!-- Node1&#45;&gt;Node5 -->
<g id="edge4" class="edge">
<title>Node1&#45;&gt;Node5</title>
<path fill="none" stroke="midnightblue" d="M355.53,-89.14C378.88,-97.75 410.54,-108.86 439,-117 451.08,-120.45 464.27,-123.68 476.55,-126.47"/>
<polygon fill="midnightblue" stroke="midnightblue" points="356.65,-85.83 346.06,-85.62 354.21,-92.39 356.65,-85.83"/>
</g>
<!-- Node6 -->
<g id="node6" class="node">
<title>Node6</title>
<g id="a_node6"><a xlink:href="../../d5/d5b/classnap_1_1audio_1_1_playback_component_instance.html" target="_top" xlink:title=" ">
<polygon fill="white" stroke="black" points="445,-88.5 445,-107.5 603,-107.5 603,-88.5 445,-88.5"/>
<text text-anchor="middle" x="524" y="-95.5" font-family="Helvetica,sans-Serif" font-size="10.00">PlaybackComponentInstance</text>
</a>
</g>
</g>
<!-- Node1&#45;&gt;Node6 -->
<g id="edge5" class="edge">
<title>Node1&#45;&gt;Node6</title>
<path fill="none" stroke="midnightblue" d="M413.23,-86.04C423.79,-87.19 434.48,-88.36 444.83,-89.49"/>
<polygon fill="midnightblue" stroke="midnightblue" points="413.48,-82.55 403.16,-84.95 412.72,-89.51 413.48,-82.55"/>
</g>
<!-- Node7 -->
<g id="node7" class="node">
<title>Node7</title>
<g id="a_node7"><a xlink:href="../../d4/da3/classnap_1_1audio_1_1_sequence_player_audio_output_component_instance.html" target="_top" xlink:title=" ">
<polygon fill="white" stroke="black" points="446.5,-39 446.5,-69 601.5,-69 601.5,-39 446.5,-39"/>
<text text-anchor="start" x="454.5" y="-57" font-family="Helvetica,sans-Serif" font-size="10.00">SequencePlayerAudioOutput</text>
<text text-anchor="middle" x="524" y="-46" font-family="Helvetica,sans-Serif" font-size="10.00">ComponentInstance</text>
</a>
</g>
</g>
<!-- Node1&#45;&gt;Node7 -->
<g id="edge6" class="edge">
<title>Node1&#45;&gt;Node7</title>
<path fill="none" stroke="midnightblue" d="M413.29,-65.95C424.39,-64.74 435.62,-63.52 446.45,-62.34"/>
<polygon fill="midnightblue" stroke="midnightblue" points="412.72,-62.49 403.16,-67.05 413.48,-69.45 412.72,-62.49"/>
</g>
<!-- Node8 -->
<g id="node8" class="node">
<title>Node8</title>
<g id="a_node8"><a xlink:href="../../df/de7/classnap_1_1audio_1_1_video_audio_component_instance.html" target="_top" xlink:title=" ">
<polygon fill="white" stroke="black" points="439,-0.5 439,-19.5 609,-19.5 609,-0.5 439,-0.5"/>
<text text-anchor="middle" x="524" y="-7.5" font-family="Helvetica,sans-Serif" font-size="10.00">VideoAudioComponentInstance</text>
</a>
</g>
</g>
<!-- Node1&#45;&gt;Node8 -->
<g id="edge7" class="edge">
<title>Node1&#45;&gt;Node8</title>
<path fill="none" stroke="midnightblue" d="M351.4,-62.36C374.95,-52.17 408.59,-38.43 439,-29 450.42,-25.46 462.91,-22.27 474.68,-19.57"/>
<polygon fill="midnightblue" stroke="midnightblue" points="349.72,-59.28 341.96,-66.49 352.52,-65.69 349.72,-59.28"/>
</g>
<!-- Node2 -->
<g id="node2" class="node">
<title>Node2</title>
<g id="a_node2"><a xlink:href="../../d9/df2/classnap_1_1_component_instance.html" target="_top" xlink:title=" ">
<polygon fill="white" stroke="black" points="85.5,-85.5 85.5,-104.5 199.5,-104.5 199.5,-85.5 85.5,-85.5"/>
<text text-anchor="middle" x="142.5" y="-92.5" font-family="Helvetica,sans-Serif" font-size="10.00">ComponentInstance</text>
</a>
</g>
</g>
<!-- Node2&#45;&gt;Node1 -->
<g id="edge1" class="edge">
<title>Node2&#45;&gt;Node1</title>
<path fill="none" stroke="midnightblue" d="M209.49,-87.86C218.46,-86.88 227.76,-85.88 236.98,-84.88"/>
<polygon fill="midnightblue" stroke="midnightblue" points="209.08,-84.38 199.51,-88.94 209.83,-91.34 209.08,-84.38"/>
</g>
<!-- Node3 -->
<g id="node3" class="node">
<title>Node3</title>
<g id="a_node3"><a xlink:href="../../de/d01/classnap_1_1rtti_1_1_object.html" target="_top" xlink:title=" ">
<polygon fill="white" stroke="black" points="0,-85.5 0,-104.5 48,-104.5 48,-85.5 0,-85.5"/>
<text text-anchor="middle" x="24" y="-92.5" font-family="Helvetica,sans-Serif" font-size="10.00">Object</text>
</a>
</g>
</g>
<!-- Node3&#45;&gt;Node2 -->
<g id="edge2" class="edge">
<title>Node3&#45;&gt;Node2</title>
<path fill="none" stroke="midnightblue" d="M58.19,-95C66.65,-95 75.97,-95 85.23,-95"/>
<polygon fill="midnightblue" stroke="midnightblue" points="58.02,-91.5 48.02,-95 58.02,-98.5 58.02,-91.5"/>
</g>
<!-- Node4 -->
<g id="node4" class="node">
<title>Node4</title>
<g id="a_node4"><a xlink:href="../../d6/d4a/classnap_1_1audio_1_1_i_multi_channel_output.html" target="_top" xlink:title=" ">
<polygon fill="white" stroke="black" points="84,-47.5 84,-66.5 201,-66.5 201,-47.5 84,-47.5"/>
<text text-anchor="middle" x="142.5" y="-54.5" font-family="Helvetica,sans-Serif" font-size="10.00">IMultiChannelOutput</text>
</a>
</g>
</g>
<!-- Node4&#45;&gt;Node1 -->
<g id="edge3" class="edge">
<title>Node4&#45;&gt;Node1</title>
<path fill="none" stroke="midnightblue" d="M211.49,-64.36C219.84,-65.26 228.44,-66.2 236.97,-67.12"/>
<polygon fill="midnightblue" stroke="midnightblue" points="211.77,-60.87 201.45,-63.27 211.02,-67.83 211.77,-60.87"/>
</g>
</g>
</svg>
