<?xml version="1.0" encoding="UTF-8" standalone="no"?>
<!DOCTYPE svg PUBLIC "-//W3C//DTD SVG 1.1//EN"
 "http://www.w3.org/Graphics/SVG/1.1/DTD/svg11.dtd">
<!-- Generated by graphviz version 2.48.0 (20210717.1556)
 -->
<!-- Title: AudioComponentBaseInstance Pages: 1 -->
<svg width="567pt" height="154pt"
 viewBox="0.00 0.00 567.00 154.00" xmlns="http://www.w3.org/2000/svg" xmlns:xlink="http://www.w3.org/1999/xlink">
<g id="graph0" class="graph" transform="scale(1 1) rotate(0) translate(4 150)">
<title>AudioComponentBaseInstance</title>
<polygon fill="white" stroke="transparent" points="-4,4 -4,-150 563,-150 563,4 -4,4"/>
<!-- Node0 -->
<g id="node1" class="node">
<title>Node0</title>
<polygon fill="#bfbfbf" stroke="black" points="221,-66.5 221,-85.5 371,-85.5 371,-66.5 221,-66.5"/>
<text text-anchor="middle" x="296" y="-73.5" font-family="Helvetica,sans-Serif" font-size="10.00">AudioComponentBaseInstance</text>
</g>
<!-- Node4 -->
<g id="node5" class="node">
<title>Node4</title>
<g id="a_node5"><a xlink:href="../../dc/d8b/classnap_1_1audio_1_1_audio_input_component_instance.html" target="_top" xlink:title="AudioInputComponentInstance">
<polygon fill="white" stroke="black" points="408.5,-126.5 408.5,-145.5 557.5,-145.5 557.5,-126.5 408.5,-126.5"/>
<text text-anchor="middle" x="483" y="-133.5" font-family="Helvetica,sans-Serif" font-size="10.00">AudioInputComponentInstance</text>
</a>
</g>
</g>
<!-- Node0&#45;&gt;Node4 -->
<g id="edge4" class="edge">
<title>Node0&#45;&gt;Node4</title>
<path fill="none" stroke="midnightblue" d="M329.75,-89.27C351.46,-97.81 380.68,-108.79 407,-117 417.9,-120.4 429.83,-123.64 440.9,-126.44"/>
<polygon fill="midnightblue" stroke="midnightblue" points="330.93,-85.98 320.35,-85.55 328.35,-92.48 330.93,-85.98"/>
</g>
<!-- Node5 -->
<g id="node6" class="node">
<title>Node5</title>
<g id="a_node6"><a xlink:href="../../d5/d5b/classnap_1_1audio_1_1_playback_component_instance.html" target="_top" xlink:title="PlaybackComponentInstance">
<polygon fill="white" stroke="black" points="411.5,-88.5 411.5,-107.5 554.5,-107.5 554.5,-88.5 411.5,-88.5"/>
<text text-anchor="middle" x="483" y="-95.5" font-family="Helvetica,sans-Serif" font-size="10.00">PlaybackComponentInstance</text>
</a>
</g>
</g>
<!-- Node0&#45;&gt;Node5 -->
<g id="edge5" class="edge">
<title>Node0&#45;&gt;Node5</title>
<path fill="none" stroke="midnightblue" d="M381.21,-86.01C391.31,-87.21 401.53,-88.43 411.41,-89.61"/>
<polygon fill="midnightblue" stroke="midnightblue" points="381.52,-82.53 371.18,-84.82 380.7,-89.48 381.52,-82.53"/>
</g>
<!-- Node6 -->
<g id="node7" class="node">
<title>Node6</title>
<g id="a_node7"><a xlink:href="../../d4/da3/classnap_1_1audio_1_1_sequence_player_audio_output_component_instance.html" target="_top" xlink:title="SequencePlayerAudioOutput\lComponentInstance">
<polygon fill="white" stroke="black" points="412,-39 412,-69 554,-69 554,-39 412,-39"/>
<text text-anchor="start" x="420" y="-57" font-family="Helvetica,sans-Serif" font-size="10.00">SequencePlayerAudioOutput</text>
<text text-anchor="middle" x="483" y="-46" font-family="Helvetica,sans-Serif" font-size="10.00">ComponentInstance</text>
</a>
</g>
</g>
<!-- Node0&#45;&gt;Node6 -->
<g id="edge6" class="edge">
<title>Node0&#45;&gt;Node6</title>
<path fill="none" stroke="midnightblue" d="M381.29,-65.98C391.46,-64.77 401.77,-63.54 411.71,-62.36"/>
<polygon fill="midnightblue" stroke="midnightblue" points="380.7,-62.52 371.18,-67.18 381.52,-69.47 380.7,-62.52"/>
</g>
<!-- Node7 -->
<g id="node8" class="node">
<title>Node7</title>
<g id="a_node8"><a xlink:href="../../df/de7/classnap_1_1audio_1_1_video_audio_component_instance.html" target="_top" xlink:title="VideoAudioComponentInstance">
<polygon fill="white" stroke="black" points="407,-0.5 407,-19.5 559,-19.5 559,-0.5 407,-0.5"/>
<text text-anchor="middle" x="483" y="-7.5" font-family="Helvetica,sans-Serif" font-size="10.00">VideoAudioComponentInstance</text>
</a>
</g>
</g>
<!-- Node0&#45;&gt;Node7 -->
<g id="edge7" class="edge">
<title>Node0&#45;&gt;Node7</title>
<path fill="none" stroke="midnightblue" d="M326,-62.14C347.9,-52.03 378.89,-38.5 407,-29 417.43,-25.47 428.88,-22.26 439.62,-19.51"/>
<polygon fill="midnightblue" stroke="midnightblue" points="324.49,-58.98 316.91,-66.38 327.45,-65.32 324.49,-58.98"/>
</g>
<!-- Node1 -->
<g id="node2" class="node">
<title>Node1</title>
<g id="a_node2"><a xlink:href="../../d9/df2/classnap_1_1_component_instance.html" target="_top" xlink:title="ComponentInstance">
<polygon fill="white" stroke="black" points="81.5,-85.5 81.5,-104.5 184.5,-104.5 184.5,-85.5 81.5,-85.5"/>
<text text-anchor="middle" x="133" y="-92.5" font-family="Helvetica,sans-Serif" font-size="10.00">ComponentInstance</text>
</a>
</g>
</g>
<!-- Node1&#45;&gt;Node0 -->
<g id="edge1" class="edge">
<title>Node1&#45;&gt;Node0</title>
<path fill="none" stroke="midnightblue" d="M195.05,-87.8C203.49,-86.8 212.22,-85.77 220.86,-84.75"/>
<polygon fill="midnightblue" stroke="midnightblue" points="194.46,-84.34 184.94,-88.99 195.28,-91.29 194.46,-84.34"/>
</g>
<!-- Node2 -->
<g id="node3" class="node">
<title>Node2</title>
<g id="a_node3"><a xlink:href="../../de/d01/classnap_1_1rtti_1_1_object.html" target="_top" xlink:title="Object">
<polygon fill="white" stroke="black" points="0,-85.5 0,-104.5 45,-104.5 45,-85.5 0,-85.5"/>
<text text-anchor="middle" x="22.5" y="-92.5" font-family="Helvetica,sans-Serif" font-size="10.00">Object</text>
</a>
</g>
</g>
<!-- Node2&#45;&gt;Node1 -->
<g id="edge2" class="edge">
<title>Node2&#45;&gt;Node1</title>
<path fill="none" stroke="midnightblue" d="M55.32,-95C63.43,-95 72.36,-95 81.17,-95"/>
<polygon fill="midnightblue" stroke="midnightblue" points="55.2,-91.5 45.2,-95 55.2,-98.5 55.2,-91.5"/>
</g>
<!-- Node3 -->
<g id="node4" class="node">
<title>Node3</title>
<g id="a_node4"><a xlink:href="../../d6/d4a/classnap_1_1audio_1_1_i_multi_channel_output.html" target="_top" xlink:title="IMultiChannelOutput">
<polygon fill="white" stroke="black" points="81,-47.5 81,-66.5 185,-66.5 185,-47.5 81,-47.5"/>
<text text-anchor="middle" x="133" y="-54.5" font-family="Helvetica,sans-Serif" font-size="10.00">IMultiChannelOutput</text>
</a>
</g>
</g>
<!-- Node3&#45;&gt;Node0 -->
<g id="edge3" class="edge">
<title>Node3&#45;&gt;Node0</title>
<path fill="none" stroke="midnightblue" d="M195.4,-64.25C203.74,-65.23 212.38,-66.25 220.93,-67.26"/>
<polygon fill="midnightblue" stroke="midnightblue" points="195.73,-60.76 185.38,-63.06 194.9,-67.71 195.73,-60.76"/>
</g>
</g>
</svg>
