<?xml version="1.0" encoding="UTF-8" standalone="no"?>
<!DOCTYPE svg PUBLIC "-//W3C//DTD SVG 1.1//EN"
 "http://www.w3.org/Graphics/SVG/1.1/DTD/svg11.dtd">
<!-- Generated by graphviz version 2.43.0 (0)
 -->
<!-- Title: ParameterButton Pages: 1 -->
<svg width="184pt" height="231pt"
 viewBox="0.00 0.00 184.00 231.00" xmlns="http://www.w3.org/2000/svg" xmlns:xlink="http://www.w3.org/1999/xlink">
<g id="graph0" class="graph" transform="scale(1 1) rotate(0) translate(4 227)">
<title>ParameterButton</title>
<polygon fill="white" stroke="transparent" points="-4,4 -4,-227 180,-227 180,4 -4,4"/>
<!-- Node1 -->
<g id="node1" class="node">
<title>Node1</title>
<g id="a_node1"><a xlink:title=" ">
<polygon fill="#bfbfbf" stroke="black" points="56,-0.5 56,-19.5 155,-19.5 155,-0.5 56,-0.5"/>
<text text-anchor="middle" x="105.5" y="-7.5" font-family="Helvetica,sans-Serif" font-size="10.00">ParameterButton</text>
</a>
</g>
</g>
<!-- Node2 -->
<g id="node2" class="node">
<title>Node2</title>
<g id="a_node2"><a xlink:href="../../d5/de5/classnap_1_1_parameter.html" target="_top" xlink:title=" ">
<polygon fill="white" stroke="black" points="0,-89.5 0,-108.5 67,-108.5 67,-89.5 0,-89.5"/>
<text text-anchor="middle" x="33.5" y="-96.5" font-family="Helvetica,sans-Serif" font-size="10.00">Parameter</text>
</a>
</g>
</g>
<!-- Node2&#45;&gt;Node1 -->
<g id="edge1" class="edge">
<title>Node2&#45;&gt;Node1</title>
<path fill="none" stroke="midnightblue" d="M47.37,-81.24C62.61,-62.82 86.52,-33.93 98.36,-19.62"/>
<polygon fill="midnightblue" stroke="midnightblue" points="44.35,-79.4 40.67,-89.34 49.74,-83.87 44.35,-79.4"/>
</g>
<!-- Node3 -->
<g id="node3" class="node">
<title>Node3</title>
<g id="a_node3"><a xlink:href="../../d9/dea/classnap_1_1_resource.html" target="_top" xlink:title=" ">
<polygon fill="white" stroke="black" points="2.5,-146.5 2.5,-165.5 64.5,-165.5 64.5,-146.5 2.5,-146.5"/>
<text text-anchor="middle" x="33.5" y="-153.5" font-family="Helvetica,sans-Serif" font-size="10.00">Resource</text>
</a>
</g>
</g>
<!-- Node3&#45;&gt;Node2 -->
<g id="edge2" class="edge">
<title>Node3&#45;&gt;Node2</title>
<path fill="none" stroke="midnightblue" d="M33.5,-136.12C33.5,-126.82 33.5,-116.06 33.5,-108.71"/>
<polygon fill="midnightblue" stroke="midnightblue" points="30,-136.41 33.5,-146.41 37,-136.41 30,-136.41"/>
</g>
<!-- Node4 -->
<g id="node4" class="node">
<title>Node4</title>
<g id="a_node4"><a xlink:href="../../de/d01/classnap_1_1rtti_1_1_object.html" target="_top" xlink:title=" ">
<polygon fill="white" stroke="black" points="9.5,-203.5 9.5,-222.5 57.5,-222.5 57.5,-203.5 9.5,-203.5"/>
<text text-anchor="middle" x="33.5" y="-210.5" font-family="Helvetica,sans-Serif" font-size="10.00">Object</text>
</a>
</g>
</g>
<!-- Node4&#45;&gt;Node3 -->
<g id="edge3" class="edge">
<title>Node4&#45;&gt;Node3</title>
<path fill="none" stroke="midnightblue" d="M33.5,-193.12C33.5,-183.82 33.5,-173.06 33.5,-165.71"/>
<polygon fill="midnightblue" stroke="midnightblue" points="30,-193.41 33.5,-203.41 37,-193.41 30,-193.41"/>
</g>
<!-- Node5 -->
<g id="node5" class="node">
<title>Node5</title>
<g id="a_node5"><a xlink:href="../../de/d80/classnap_1_1_signal.html" target="_top" xlink:title=" ">
<polygon fill="white" stroke="black" points="85,-89.5 85,-108.5 176,-108.5 176,-89.5 85,-89.5"/>
<text text-anchor="middle" x="130.5" y="-96.5" font-family="Helvetica,sans-Serif" font-size="10.00">Signal&lt; Args &gt;</text>
</a>
</g>
</g>
<!-- Node5&#45;&gt;Node1 -->
<g id="edge4" class="edge">
<title>Node5&#45;&gt;Node1</title>
<path fill="none" stroke="#9a32cd" stroke-dasharray="5,2" d="M125.25,-79.71C119.94,-61.25 111.98,-33.54 107.98,-19.62"/>
<polygon fill="#9a32cd" stroke="#9a32cd" points="121.89,-80.7 128.01,-89.34 128.61,-78.76 121.89,-80.7"/>
<text text-anchor="middle" x="140" y="-63" font-family="Helvetica,sans-Serif" font-size="10.00"> click</text>
<text text-anchor="middle" x="140" y="-52" font-family="Helvetica,sans-Serif" font-size="10.00">release</text>
<text text-anchor="middle" x="140" y="-41" font-family="Helvetica,sans-Serif" font-size="10.00">press</text>
</g>
</g>
</svg>
