<?xml version="1.0" encoding="UTF-8" standalone="no"?>
<!DOCTYPE svg PUBLIC "-//W3C//DTD SVG 1.1//EN"
 "http://www.w3.org/Graphics/SVG/1.1/DTD/svg11.dtd">
<!-- Generated by graphviz version 3.0.0 (20220226.1711)
 -->
<!-- Title: ParameterButton Pages: 1 -->
<svg width="170pt" height="231pt"
 viewBox="0.00 0.00 170.00 231.00" xmlns="http://www.w3.org/2000/svg" xmlns:xlink="http://www.w3.org/1999/xlink">
<g id="graph0" class="graph" transform="scale(1 1) rotate(0) translate(4 227)">
<title>ParameterButton</title>
<polygon fill="white" stroke="transparent" points="-4,4 -4,-227 166,-227 166,4 -4,4"/>
<!-- Node4 -->
<g id="node1" class="node">
<title>Node4</title>
<polygon fill="#bfbfbf" stroke="black" points="53,-0.5 53,-19.5 143,-19.5 143,-0.5 53,-0.5"/>
<text text-anchor="middle" x="98" y="-7.5" font-family="Helvetica,sans-Serif" font-size="10.00">ParameterButton</text>
</g>
<!-- Node5 -->
<g id="node2" class="node">
<title>Node5</title>
<g id="a_node2"><a xlink:href="../../d5/de5/classnap_1_1_parameter.html" target="_top" xlink:title="Parameter">
<polygon fill="white" stroke="black" points="0,-89.5 0,-108.5 62,-108.5 62,-89.5 0,-89.5"/>
<text text-anchor="middle" x="31" y="-96.5" font-family="Helvetica,sans-Serif" font-size="10.00">Parameter</text>
</a>
</g>
</g>
<!-- Node5&#45;&gt;Node4 -->
<g id="edge1" class="edge">
<title>Node5&#45;&gt;Node4</title>
<path fill="none" stroke="midnightblue" d="M43.9,-81.24C58.09,-62.82 80.34,-33.93 91.36,-19.62"/>
<polygon fill="midnightblue" stroke="midnightblue" points="41,-79.28 37.67,-89.34 46.54,-83.55 41,-79.28"/>
</g>
<!-- Node6 -->
<g id="node3" class="node">
<title>Node6</title>
<g id="a_node3"><a xlink:href="../../d9/dea/classnap_1_1_resource.html" target="_top" xlink:title="Resource">
<polygon fill="white" stroke="black" points="2,-146.5 2,-165.5 60,-165.5 60,-146.5 2,-146.5"/>
<text text-anchor="middle" x="31" y="-153.5" font-family="Helvetica,sans-Serif" font-size="10.00">Resource</text>
</a>
</g>
</g>
<!-- Node6&#45;&gt;Node5 -->
<g id="edge2" class="edge">
<title>Node6&#45;&gt;Node5</title>
<path fill="none" stroke="midnightblue" d="M31,-136.12C31,-126.82 31,-116.06 31,-108.71"/>
<polygon fill="midnightblue" stroke="midnightblue" points="27.5,-136.41 31,-146.41 34.5,-136.41 27.5,-136.41"/>
</g>
<!-- Node7 -->
<g id="node4" class="node">
<title>Node7</title>
<g id="a_node4"><a xlink:href="../../de/d01/classnap_1_1rtti_1_1_object.html" target="_top" xlink:title="Object">
<polygon fill="white" stroke="black" points="8.5,-203.5 8.5,-222.5 53.5,-222.5 53.5,-203.5 8.5,-203.5"/>
<text text-anchor="middle" x="31" y="-210.5" font-family="Helvetica,sans-Serif" font-size="10.00">Object</text>
</a>
</g>
</g>
<!-- Node7&#45;&gt;Node6 -->
<g id="edge3" class="edge">
<title>Node7&#45;&gt;Node6</title>
<path fill="none" stroke="midnightblue" d="M31,-193.12C31,-183.82 31,-173.06 31,-165.71"/>
<polygon fill="midnightblue" stroke="midnightblue" points="27.5,-193.41 31,-203.41 34.5,-193.41 27.5,-193.41"/>
</g>
<!-- Node8 -->
<g id="node5" class="node">
<title>Node8</title>
<g id="a_node5"><a xlink:href="../../de/d80/classnap_1_1_signal.html" target="_top" xlink:title="Signal\&lt; Args \&gt;">
<polygon fill="white" stroke="black" points="80,-89.5 80,-108.5 162,-108.5 162,-89.5 80,-89.5"/>
<text text-anchor="middle" x="121" y="-96.5" font-family="Helvetica,sans-Serif" font-size="10.00">Signal&lt; Args &gt;</text>
</a>
</g>
</g>
<!-- Node8&#45;&gt;Node4 -->
<g id="edge4" class="edge">
<title>Node8&#45;&gt;Node4</title>
<path fill="none" stroke="#9a32cd" stroke-dasharray="5,2" d="M116.1,-79.46C111.22,-61 103.94,-33.48 100.28,-19.62"/>
<polygon fill="#9a32cd" stroke="#9a32cd" points="112.77,-80.57 118.71,-89.34 119.54,-78.78 112.77,-80.57"/>
<text text-anchor="middle" x="129" y="-63" font-family="Helvetica,sans-Serif" font-size="10.00"> click</text>
<text text-anchor="middle" x="129" y="-52" font-family="Helvetica,sans-Serif" font-size="10.00">release</text>
<text text-anchor="middle" x="129" y="-41" font-family="Helvetica,sans-Serif" font-size="10.00">press</text>
</g>
</g>
</svg>
