<?xml version="1.0" encoding="UTF-8" standalone="no"?>
<!DOCTYPE svg PUBLIC "-//W3C//DTD SVG 1.1//EN"
 "http://www.w3.org/Graphics/SVG/1.1/DTD/svg11.dtd">
<!-- Generated by graphviz version 2.48.0 (20210717.1556)
 -->
<!-- Title: UDPServer Pages: 1 -->
<svg width="79pt" height="196pt"
 viewBox="0.00 0.00 79.00 196.00" xmlns="http://www.w3.org/2000/svg" xmlns:xlink="http://www.w3.org/1999/xlink">
<g id="graph0" class="graph" transform="scale(1 1) rotate(0) translate(4 192)">
<title>UDPServer</title>
<polygon fill="white" stroke="transparent" points="-4,4 -4,-192 75,-192 75,4 -4,4"/>
<!-- Node0 -->
<g id="node1" class="node">
<title>Node0</title>
<polygon fill="#bfbfbf" stroke="black" points="3.5,-0.5 3.5,-19.5 67.5,-19.5 67.5,-0.5 3.5,-0.5"/>
<text text-anchor="middle" x="35.5" y="-7.5" font-family="Helvetica,sans-Serif" font-size="10.00">UDPServer</text>
</g>
<!-- Node1 -->
<g id="node2" class="node">
<title>Node1</title>
<g id="a_node2"><a xlink:href="../../d7/da3/classnap_1_1_u_d_p_adapter.html" target="_top" xlink:title="UDPAdapter">
<polygon fill="white" stroke="black" points="0,-56.5 0,-75.5 71,-75.5 71,-56.5 0,-56.5"/>
<text text-anchor="middle" x="35.5" y="-63.5" font-family="Helvetica,sans-Serif" font-size="10.00">UDPAdapter</text>
</a>
</g>
</g>
<!-- Node1&#45;&gt;Node0 -->
<g id="edge1" class="edge">
<title>Node1&#45;&gt;Node0</title>
<path fill="none" stroke="midnightblue" d="M35.5,-45.8C35.5,-36.91 35.5,-26.78 35.5,-19.75"/>
<polygon fill="midnightblue" stroke="midnightblue" points="32,-46.08 35.5,-56.08 39,-46.08 32,-46.08"/>
</g>
<!-- Node2 -->
<g id="node3" class="node">
<title>Node2</title>
<g id="a_node3"><a xlink:href="../../d9/dea/classnap_1_1_resource.html" target="_top" xlink:title="Resource">
<polygon fill="white" stroke="black" points="6.5,-112.5 6.5,-131.5 64.5,-131.5 64.5,-112.5 6.5,-112.5"/>
<text text-anchor="middle" x="35.5" y="-119.5" font-family="Helvetica,sans-Serif" font-size="10.00">Resource</text>
</a>
</g>
</g>
<!-- Node2&#45;&gt;Node1 -->
<g id="edge2" class="edge">
<title>Node2&#45;&gt;Node1</title>
<path fill="none" stroke="midnightblue" d="M35.5,-101.8C35.5,-92.91 35.5,-82.78 35.5,-75.75"/>
<polygon fill="midnightblue" stroke="midnightblue" points="32,-102.08 35.5,-112.08 39,-102.08 32,-102.08"/>
</g>
<!-- Node3 -->
<g id="node4" class="node">
<title>Node3</title>
<g id="a_node4"><a xlink:href="../../de/d01/classnap_1_1rtti_1_1_object.html" target="_top" xlink:title="Object">
<polygon fill="white" stroke="black" points="13,-168.5 13,-187.5 58,-187.5 58,-168.5 13,-168.5"/>
<text text-anchor="middle" x="35.5" y="-175.5" font-family="Helvetica,sans-Serif" font-size="10.00">Object</text>
</a>
</g>
</g>
<!-- Node3&#45;&gt;Node2 -->
<g id="edge3" class="edge">
<title>Node3&#45;&gt;Node2</title>
<path fill="none" stroke="midnightblue" d="M35.5,-157.8C35.5,-148.91 35.5,-138.78 35.5,-131.75"/>
<polygon fill="midnightblue" stroke="midnightblue" points="32,-158.08 35.5,-168.08 39,-158.08 32,-158.08"/>
</g>
</g>
</svg>
