<?xml version="1.0" encoding="UTF-8" standalone="no"?>
<!DOCTYPE svg PUBLIC "-//W3C//DTD SVG 1.1//EN"
 "http://www.w3.org/Graphics/SVG/1.1/DTD/svg11.dtd">
<!-- Generated by graphviz version 3.0.0 (20220226.1711)
 -->
<!-- Title: UDPAdapter Pages: 1 -->
<svg width="152pt" height="196pt"
 viewBox="0.00 0.00 152.00 196.00" xmlns="http://www.w3.org/2000/svg" xmlns:xlink="http://www.w3.org/1999/xlink">
<g id="graph0" class="graph" transform="scale(1 1) rotate(0) translate(4 192)">
<title>UDPAdapter</title>
<polygon fill="white" stroke="transparent" points="-4,4 -4,-192 148,-192 148,4 -4,4"/>
<!-- Node0 -->
<g id="node1" class="node">
<title>Node0</title>
<polygon fill="#bfbfbf" stroke="black" points="35.5,-56.5 35.5,-75.5 106.5,-75.5 106.5,-56.5 35.5,-56.5"/>
<text text-anchor="middle" x="71" y="-63.5" font-family="Helvetica,sans-Serif" font-size="10.00">UDPAdapter</text>
</g>
<!-- Node3 -->
<g id="node4" class="node">
<title>Node3</title>
<g id="a_node4"><a xlink:href="../../d3/d19/classnap_1_1_u_d_p_client.html" target="_top" xlink:title="UDPClient">
<polygon fill="white" stroke="black" points="0,-0.5 0,-19.5 62,-19.5 62,-0.5 0,-0.5"/>
<text text-anchor="middle" x="31" y="-7.5" font-family="Helvetica,sans-Serif" font-size="10.00">UDPClient</text>
</a>
</g>
</g>
<!-- Node0&#45;&gt;Node3 -->
<g id="edge3" class="edge">
<title>Node0&#45;&gt;Node3</title>
<path fill="none" stroke="midnightblue" d="M58.3,-47.86C51.37,-38.5 43.09,-27.33 37.48,-19.75"/>
<polygon fill="midnightblue" stroke="midnightblue" points="55.63,-50.13 64.39,-56.08 61.25,-45.96 55.63,-50.13"/>
</g>
<!-- Node4 -->
<g id="node5" class="node">
<title>Node4</title>
<g id="a_node5"><a xlink:href="../../d6/d57/classnap_1_1_u_d_p_server.html" target="_top" xlink:title="UDPServer">
<polygon fill="white" stroke="black" points="80,-0.5 80,-19.5 144,-19.5 144,-0.5 80,-0.5"/>
<text text-anchor="middle" x="112" y="-7.5" font-family="Helvetica,sans-Serif" font-size="10.00">UDPServer</text>
</a>
</g>
</g>
<!-- Node0&#45;&gt;Node4 -->
<g id="edge4" class="edge">
<title>Node0&#45;&gt;Node4</title>
<path fill="none" stroke="midnightblue" d="M84.02,-47.86C91.12,-38.5 99.6,-27.33 105.36,-19.75"/>
<polygon fill="midnightblue" stroke="midnightblue" points="81.03,-46 77.77,-56.08 86.61,-50.24 81.03,-46"/>
</g>
<!-- Node1 -->
<g id="node2" class="node">
<title>Node1</title>
<g id="a_node2"><a xlink:href="../../d9/dea/classnap_1_1_resource.html" target="_top" xlink:title="Resource">
<polygon fill="white" stroke="black" points="42,-112.5 42,-131.5 100,-131.5 100,-112.5 42,-112.5"/>
<text text-anchor="middle" x="71" y="-119.5" font-family="Helvetica,sans-Serif" font-size="10.00">Resource</text>
</a>
</g>
</g>
<!-- Node1&#45;&gt;Node0 -->
<g id="edge1" class="edge">
<title>Node1&#45;&gt;Node0</title>
<path fill="none" stroke="midnightblue" d="M71,-101.8C71,-92.91 71,-82.78 71,-75.75"/>
<polygon fill="midnightblue" stroke="midnightblue" points="67.5,-102.08 71,-112.08 74.5,-102.08 67.5,-102.08"/>
</g>
<!-- Node2 -->
<g id="node3" class="node">
<title>Node2</title>
<g id="a_node3"><a xlink:href="../../de/d01/classnap_1_1rtti_1_1_object.html" target="_top" xlink:title="Object">
<polygon fill="white" stroke="black" points="48.5,-168.5 48.5,-187.5 93.5,-187.5 93.5,-168.5 48.5,-168.5"/>
<text text-anchor="middle" x="71" y="-175.5" font-family="Helvetica,sans-Serif" font-size="10.00">Object</text>
</a>
</g>
</g>
<!-- Node2&#45;&gt;Node1 -->
<g id="edge2" class="edge">
<title>Node2&#45;&gt;Node1</title>
<path fill="none" stroke="midnightblue" d="M71,-157.8C71,-148.91 71,-138.78 71,-131.75"/>
<polygon fill="midnightblue" stroke="midnightblue" points="67.5,-158.08 71,-168.08 74.5,-158.08 67.5,-158.08"/>
</g>
</g>
</svg>
